<svg width="960" height="540" viewBox="0 0 960 540" fill="none" xmlns="http://www.w3.org/2000/svg">
<g clip-path="url(#clip0_2042_43)">
<rect width="960" height="540" fill="#FDD1B4"/>
<g clip-path="url(#clip1_2042_43)">
<g filter="url(#filter0_n_2042_43)">
<rect width="960" height="540" fill="#FEE1CD"/>
</g>
<g filter="url(#filter1_f_2042_43)">
<circle cx="124" cy="42" r="267" fill="#FFC59E"/>
</g>
<g filter="url(#filter2_f_2042_43)">
<circle cx="832" cy="512" r="330" fill="#FFC59E"/>
</g>
</g>
<g filter="url(#filter3_d_2042_43)">
<rect x="176.5" y="180" width="180" height="180" rx="41" fill="white"/>
<rect x="177" y="180.5" width="179" height="179" rx="40.5" stroke="#D4C4BA"/>
<path fill-rule="evenodd" clip-rule="evenodd" d="M321.126 220.796L229.862 221.109L211.619 245.546L249.554 245.416L241.629 285.761L267.47 285.856L260.255 319.601L296.372 270.363L270.716 270.634L276.31 245.141L302.883 245.05L321.126 220.796Z" fill="#FF6600"/>
</g>
<path d="M408.011 233.56V229.364H430.061V233.56H421.519V257H416.553V233.56H408.011ZM440.266 257.405C438.188 257.405 436.393 256.973 434.882 256.109C433.38 255.237 432.224 254.004 431.414 252.412C430.604 250.811 430.199 248.926 430.199 246.758C430.199 244.626 430.604 242.754 431.414 241.144C432.233 239.525 433.375 238.265 434.841 237.366C436.308 236.457 438.031 236.003 440.01 236.003C441.287 236.003 442.493 236.21 443.626 236.624C444.769 237.028 445.776 237.658 446.649 238.513C447.531 239.367 448.223 240.456 448.727 241.778C449.231 243.092 449.483 244.657 449.483 246.474V247.972H432.493V244.68H444.8C444.791 243.744 444.589 242.912 444.193 242.183C443.797 241.446 443.244 240.865 442.533 240.442C441.831 240.02 441.013 239.808 440.077 239.808C439.079 239.808 438.202 240.051 437.446 240.537C436.69 241.014 436.101 241.643 435.678 242.426C435.264 243.2 435.053 244.05 435.044 244.977V247.851C435.044 249.056 435.264 250.091 435.705 250.955C436.146 251.809 436.762 252.466 437.554 252.925C438.345 253.375 439.272 253.599 440.334 253.599C441.044 253.599 441.688 253.5 442.263 253.303C442.839 253.096 443.338 252.794 443.761 252.398C444.184 252.003 444.503 251.512 444.719 250.928L449.28 251.44C448.992 252.646 448.444 253.698 447.634 254.598C446.833 255.489 445.808 256.181 444.557 256.676C443.307 257.162 441.876 257.405 440.266 257.405ZM457.164 236.273L461.348 243.924L465.598 236.273H470.767L464.519 246.636L470.875 257H465.733L461.348 249.538L457.002 257H451.821L458.136 246.636L451.983 236.273H457.164ZM484.895 236.273V240.051H472.98V236.273H484.895ZM475.922 231.307H480.806V250.766C480.806 251.422 480.905 251.926 481.103 252.277C481.31 252.619 481.58 252.853 481.913 252.979C482.246 253.105 482.615 253.168 483.02 253.168C483.325 253.168 483.604 253.145 483.856 253.1C484.117 253.055 484.315 253.015 484.45 252.979L485.273 256.798C485.012 256.888 484.639 256.987 484.153 257.094C483.676 257.202 483.092 257.265 482.399 257.283C481.175 257.319 480.073 257.135 479.093 256.73C478.112 256.316 477.334 255.678 476.758 254.814C476.191 253.95 475.913 252.871 475.922 251.575V231.307ZM489.642 257V229.364H494.527V239.7H494.729C494.981 239.196 495.336 238.661 495.795 238.094C496.254 237.519 496.875 237.028 497.657 236.624C498.44 236.21 499.439 236.003 500.653 236.003C502.255 236.003 503.698 236.412 504.985 237.231C506.28 238.04 507.306 239.241 508.062 240.834C508.826 242.417 509.209 244.36 509.209 246.663C509.209 248.939 508.835 250.874 508.089 252.466C507.342 254.058 506.325 255.273 505.039 256.109C503.752 256.946 502.295 257.364 500.667 257.364C499.479 257.364 498.494 257.166 497.711 256.771C496.929 256.375 496.299 255.898 495.822 255.34C495.354 254.773 494.99 254.238 494.729 253.734H494.446V257H489.642ZM494.432 246.636C494.432 247.977 494.621 249.151 494.999 250.158C495.386 251.166 495.939 251.953 496.659 252.52C497.388 253.078 498.269 253.357 499.304 253.357C500.383 253.357 501.287 253.069 502.016 252.493C502.745 251.908 503.294 251.112 503.662 250.104C504.04 249.088 504.229 247.932 504.229 246.636C504.229 245.35 504.045 244.207 503.676 243.209C503.307 242.21 502.758 241.428 502.03 240.861C501.301 240.294 500.392 240.011 499.304 240.011C498.26 240.011 497.374 240.285 496.645 240.834C495.917 241.383 495.363 242.152 494.986 243.141C494.617 244.131 494.432 245.296 494.432 246.636ZM522.403 257.405C520.379 257.405 518.624 256.96 517.14 256.069C515.656 255.178 514.504 253.932 513.685 252.331C512.876 250.73 512.471 248.858 512.471 246.717C512.471 244.576 512.876 242.701 513.685 241.09C514.504 239.48 515.656 238.229 517.14 237.339C518.624 236.448 520.379 236.003 522.403 236.003C524.427 236.003 526.181 236.448 527.665 237.339C529.15 238.229 530.297 239.48 531.107 241.09C531.925 242.701 532.335 244.576 532.335 246.717C532.335 248.858 531.925 250.73 531.107 252.331C530.297 253.932 529.15 255.178 527.665 256.069C526.181 256.96 524.427 257.405 522.403 257.405ZM522.43 253.491C523.527 253.491 524.445 253.19 525.183 252.587C525.92 251.976 526.469 251.157 526.829 250.131C527.198 249.106 527.382 247.963 527.382 246.704C527.382 245.435 527.198 244.288 526.829 243.263C526.469 242.228 525.92 241.405 525.183 240.793C524.445 240.182 523.527 239.876 522.43 239.876C521.305 239.876 520.37 240.182 519.623 240.793C518.885 241.405 518.332 242.228 517.963 243.263C517.603 244.288 517.423 245.435 517.423 246.704C517.423 247.963 517.603 249.106 517.963 250.131C518.332 251.157 518.885 251.976 519.623 252.587C520.37 253.19 521.305 253.491 522.43 253.491ZM541.366 229.364V257H536.481V229.364H541.366ZM556.739 236.273V240.051H544.824V236.273H556.739ZM547.765 231.307H552.65V250.766C552.65 251.422 552.749 251.926 552.947 252.277C553.154 252.619 553.424 252.853 553.757 252.979C554.09 253.105 554.458 253.168 554.863 253.168C555.169 253.168 555.448 253.145 555.7 253.1C555.961 253.055 556.159 253.015 556.294 252.979L557.117 256.798C556.856 256.888 556.483 256.987 555.997 257.094C555.52 257.202 554.935 257.265 554.243 257.283C553.019 257.319 551.917 257.135 550.936 256.73C549.956 256.316 549.178 255.678 548.602 254.814C548.035 253.95 547.756 252.871 547.765 251.575V231.307ZM570.466 257V229.364H580.83C582.953 229.364 584.734 229.759 586.173 230.551C587.622 231.343 588.715 232.431 589.453 233.817C590.199 235.193 590.573 236.759 590.573 238.513C590.573 240.285 590.199 241.859 589.453 243.236C588.706 244.612 587.604 245.696 586.146 246.488C584.689 247.271 582.894 247.662 580.762 247.662H573.894V243.546H580.088C581.329 243.546 582.346 243.33 583.137 242.898C583.929 242.467 584.514 241.873 584.892 241.117C585.278 240.362 585.472 239.493 585.472 238.513C585.472 237.532 585.278 236.669 584.892 235.922C584.514 235.175 583.924 234.595 583.124 234.181C582.332 233.758 581.311 233.547 580.061 233.547H575.472V257H570.466ZM594.705 257V236.273H599.442V239.727H599.658C600.036 238.531 600.683 237.609 601.601 236.961C602.527 236.304 603.585 235.976 604.772 235.976C605.042 235.976 605.343 235.989 605.676 236.016C606.018 236.034 606.301 236.066 606.526 236.111V240.604C606.319 240.532 605.991 240.469 605.541 240.415C605.1 240.353 604.673 240.321 604.259 240.321C603.369 240.321 602.568 240.514 601.857 240.901C601.156 241.279 600.602 241.805 600.197 242.48C599.793 243.155 599.59 243.933 599.59 244.815V257H594.705ZM609.772 257V236.273H614.657V257H609.772ZM612.228 233.331C611.454 233.331 610.788 233.075 610.23 232.562C609.673 232.04 609.394 231.415 609.394 230.686C609.394 229.948 609.673 229.323 610.23 228.81C610.788 228.289 611.454 228.028 612.228 228.028C613.01 228.028 613.676 228.289 614.225 228.81C614.783 229.323 615.061 229.948 615.061 230.686C615.061 231.415 614.783 232.04 614.225 232.562C613.676 233.075 613.01 233.331 612.228 233.331ZM628.721 257.405C626.652 257.405 624.875 256.951 623.391 256.042C621.915 255.133 620.777 253.878 619.977 252.277C619.185 250.667 618.789 248.813 618.789 246.717C618.789 244.612 619.194 242.754 620.004 241.144C620.813 239.525 621.956 238.265 623.431 237.366C624.916 236.457 626.67 236.003 628.694 236.003C630.376 236.003 631.865 236.313 633.161 236.934C634.465 237.546 635.504 238.414 636.278 239.538C637.052 240.654 637.492 241.958 637.6 243.452H632.931C632.742 242.453 632.293 241.621 631.582 240.955C630.88 240.281 629.94 239.943 628.762 239.943C627.763 239.943 626.886 240.213 626.13 240.753C625.374 241.284 624.785 242.048 624.362 243.047C623.949 244.045 623.742 245.242 623.742 246.636C623.742 248.049 623.949 249.263 624.362 250.28C624.776 251.287 625.356 252.066 626.103 252.614C626.859 253.154 627.745 253.424 628.762 253.424C629.481 253.424 630.124 253.289 630.691 253.019C631.267 252.74 631.748 252.34 632.135 251.818C632.522 251.296 632.787 250.662 632.931 249.915H637.6C637.483 251.382 637.052 252.682 636.305 253.815C635.558 254.94 634.542 255.821 633.255 256.46C631.969 257.09 630.457 257.405 628.721 257.405ZM641.612 257V236.273H646.496V257H641.612ZM644.067 233.331C643.294 233.331 642.628 233.075 642.07 232.562C641.513 232.04 641.234 231.415 641.234 230.686C641.234 229.948 641.513 229.323 642.07 228.81C642.628 228.289 643.294 228.028 644.067 228.028C644.85 228.028 645.516 228.289 646.065 228.81C646.622 229.323 646.901 229.948 646.901 230.686C646.901 231.415 646.622 232.04 646.065 232.562C645.516 233.075 644.85 233.331 644.067 233.331ZM656.405 244.855V257H651.52V236.273H656.189V239.795H656.432C656.908 238.634 657.669 237.712 658.712 237.028C659.765 236.345 661.065 236.003 662.612 236.003C664.042 236.003 665.288 236.309 666.35 236.92C667.421 237.532 668.248 238.418 668.833 239.579C669.427 240.739 669.719 242.147 669.71 243.803V257H664.825V244.558C664.825 243.173 664.465 242.089 663.746 241.306C663.035 240.523 662.05 240.132 660.79 240.132C659.936 240.132 659.175 240.321 658.51 240.699C657.853 241.068 657.336 241.603 656.958 242.305C656.589 243.006 656.405 243.857 656.405 244.855ZM683.69 265.205C681.936 265.205 680.429 264.966 679.17 264.489C677.91 264.022 676.898 263.392 676.133 262.6C675.369 261.808 674.838 260.931 674.541 259.969L678.94 258.903C679.138 259.308 679.426 259.708 679.804 260.104C680.182 260.509 680.69 260.841 681.329 261.102C681.976 261.372 682.791 261.507 683.771 261.507C685.157 261.507 686.304 261.17 687.212 260.495C688.121 259.829 688.575 258.732 688.575 257.202V253.276H688.332C688.08 253.779 687.711 254.297 687.226 254.827C686.749 255.358 686.115 255.804 685.323 256.163C684.54 256.523 683.555 256.703 682.368 256.703C680.775 256.703 679.331 256.33 678.036 255.583C676.75 254.827 675.724 253.703 674.959 252.21C674.204 250.707 673.826 248.827 673.826 246.569C673.826 244.293 674.204 242.372 674.959 240.807C675.724 239.232 676.754 238.04 678.05 237.231C679.345 236.412 680.789 236.003 682.381 236.003C683.596 236.003 684.594 236.21 685.377 236.624C686.169 237.028 686.798 237.519 687.266 238.094C687.734 238.661 688.089 239.196 688.332 239.7H688.602V236.273H693.42V257.337C693.42 259.11 692.997 260.576 692.151 261.737C691.305 262.897 690.149 263.765 688.683 264.341C687.217 264.917 685.552 265.205 683.69 265.205ZM683.731 252.871C684.765 252.871 685.647 252.619 686.376 252.115C687.104 251.611 687.657 250.887 688.035 249.942C688.413 248.998 688.602 247.864 688.602 246.542C688.602 245.237 688.413 244.095 688.035 243.114C687.666 242.134 687.118 241.374 686.389 240.834C685.669 240.285 684.783 240.011 683.731 240.011C682.642 240.011 681.733 240.294 681.005 240.861C680.276 241.428 679.727 242.206 679.358 243.195C678.99 244.176 678.805 245.291 678.805 246.542C678.805 247.81 678.99 248.921 679.358 249.875C679.736 250.82 680.29 251.557 681.018 252.088C681.756 252.61 682.66 252.871 683.731 252.871ZM701.435 257.297C700.617 257.297 699.915 257.009 699.33 256.433C698.745 255.857 698.457 255.156 698.466 254.328C698.457 253.518 698.745 252.826 699.33 252.25C699.915 251.674 700.617 251.386 701.435 251.386C702.227 251.386 702.915 251.674 703.5 252.25C704.094 252.826 704.395 253.518 704.404 254.328C704.395 254.877 704.251 255.376 703.972 255.826C703.702 256.276 703.342 256.636 702.893 256.906C702.452 257.166 701.966 257.297 701.435 257.297ZM701.435 242.507C700.617 242.507 699.915 242.219 699.33 241.643C698.745 241.059 698.457 240.357 698.466 239.538C698.457 238.729 698.745 238.036 699.33 237.46C699.915 236.875 700.617 236.583 701.435 236.583C702.227 236.583 702.915 236.875 703.5 237.46C704.094 238.036 704.395 238.729 704.404 239.538C704.395 240.078 704.251 240.573 703.972 241.023C703.702 241.473 703.342 241.832 702.893 242.102C702.452 242.372 701.966 242.507 701.435 242.507ZM432.881 292.688H427.835C427.691 291.861 427.425 291.127 427.038 290.489C426.652 289.841 426.17 289.292 425.594 288.842C425.019 288.393 424.362 288.055 423.624 287.83C422.896 287.596 422.108 287.479 421.263 287.479C419.76 287.479 418.429 287.857 417.268 288.613C416.108 289.36 415.199 290.457 414.543 291.906C413.886 293.345 413.558 295.104 413.558 297.182C413.558 299.296 413.886 301.077 414.543 302.526C415.208 303.965 416.117 305.054 417.268 305.791C418.429 306.52 419.756 306.884 421.249 306.884C422.077 306.884 422.851 306.776 423.57 306.56C424.299 306.335 424.951 306.007 425.527 305.575C426.112 305.143 426.602 304.613 426.998 303.983C427.403 303.353 427.682 302.634 427.835 301.824L432.881 301.851C432.692 303.164 432.283 304.397 431.653 305.548C431.033 306.7 430.219 307.716 429.211 308.598C428.203 309.471 427.025 310.154 425.675 310.649C424.326 311.135 422.828 311.378 421.182 311.378C418.753 311.378 416.585 310.816 414.678 309.691C412.77 308.567 411.268 306.943 410.17 304.82C409.073 302.696 408.524 300.151 408.524 297.182C408.524 294.204 409.077 291.658 410.184 289.544C411.29 287.421 412.797 285.797 414.705 284.673C416.612 283.548 418.771 282.986 421.182 282.986C422.72 282.986 424.151 283.202 425.473 283.634C426.795 284.065 427.974 284.7 429.009 285.536C430.043 286.364 430.893 287.38 431.559 288.586C432.234 289.782 432.674 291.15 432.881 292.688ZM446.291 311.405C444.267 311.405 442.513 310.96 441.029 310.069C439.544 309.178 438.393 307.932 437.574 306.331C436.764 304.73 436.36 302.858 436.36 300.717C436.36 298.576 436.764 296.701 437.574 295.09C438.393 293.48 439.544 292.229 441.029 291.339C442.513 290.448 444.267 290.003 446.291 290.003C448.316 290.003 450.07 290.448 451.554 291.339C453.039 292.229 454.186 293.48 454.995 295.09C455.814 296.701 456.223 298.576 456.223 300.717C456.223 302.858 455.814 304.73 454.995 306.331C454.186 307.932 453.039 309.178 451.554 310.069C450.07 310.96 448.316 311.405 446.291 311.405ZM446.318 307.491C447.416 307.491 448.334 307.19 449.071 306.587C449.809 305.976 450.358 305.157 450.718 304.131C451.086 303.106 451.271 301.963 451.271 300.704C451.271 299.435 451.086 298.288 450.718 297.263C450.358 296.228 449.809 295.405 449.071 294.793C448.334 294.182 447.416 293.876 446.318 293.876C445.194 293.876 444.258 294.182 443.512 294.793C442.774 295.405 442.221 296.228 441.852 297.263C441.492 298.288 441.312 299.435 441.312 300.704C441.312 301.963 441.492 303.106 441.852 304.131C442.221 305.157 442.774 305.976 443.512 306.587C444.258 307.19 445.194 307.491 446.318 307.491ZM476.751 295.751L472.298 296.237C472.172 295.787 471.952 295.365 471.637 294.969C471.331 294.573 470.917 294.254 470.396 294.011C469.874 293.768 469.235 293.646 468.479 293.646C467.463 293.646 466.608 293.867 465.915 294.308C465.232 294.748 464.894 295.32 464.903 296.021C464.894 296.624 465.115 297.114 465.565 297.492C466.023 297.87 466.779 298.18 467.832 298.423L471.367 299.179C473.328 299.602 474.786 300.272 475.739 301.19C476.702 302.107 477.188 303.308 477.197 304.793C477.188 306.097 476.805 307.249 476.05 308.247C475.303 309.237 474.264 310.01 472.933 310.568C471.601 311.126 470.072 311.405 468.344 311.405C465.808 311.405 463.765 310.874 462.218 309.812C460.671 308.742 459.749 307.253 459.452 305.346L464.215 304.887C464.431 305.823 464.89 306.529 465.592 307.006C466.293 307.482 467.206 307.721 468.331 307.721C469.491 307.721 470.423 307.482 471.124 307.006C471.835 306.529 472.19 305.94 472.19 305.238C472.19 304.644 471.961 304.154 471.502 303.767C471.052 303.38 470.351 303.083 469.397 302.876L465.862 302.134C463.873 301.72 462.402 301.023 461.449 300.043C460.495 299.053 460.023 297.803 460.032 296.291C460.023 295.014 460.369 293.907 461.071 292.972C461.782 292.027 462.767 291.298 464.026 290.786C465.295 290.264 466.757 290.003 468.412 290.003C470.841 290.003 472.753 290.52 474.147 291.555C475.55 292.589 476.419 293.988 476.751 295.751ZM491.575 290.273V294.051H479.659V290.273H491.575ZM482.601 285.307H487.486V304.766C487.486 305.422 487.585 305.926 487.783 306.277C487.99 306.619 488.26 306.853 488.593 306.979C488.926 307.105 489.294 307.168 489.699 307.168C490.005 307.168 490.284 307.145 490.536 307.1C490.797 307.055 490.995 307.015 491.13 306.979L491.953 310.798C491.692 310.888 491.319 310.987 490.833 311.094C490.356 311.202 489.771 311.265 489.078 311.283C487.855 311.319 486.753 311.135 485.772 310.73C484.792 310.316 484.014 309.678 483.438 308.814C482.871 307.95 482.592 306.871 482.601 305.575V285.307ZM513.237 306.574V287.898H517.474V306.574H513.237ZM506.017 299.354V295.117H524.693V299.354H506.017ZM540.296 311V283.364H550.66C552.783 283.364 554.564 283.732 556.004 284.47C557.452 285.208 558.545 286.242 559.283 287.574C560.029 288.896 560.403 290.439 560.403 292.202C560.403 293.975 560.025 295.513 559.269 296.817C558.522 298.113 557.42 299.116 555.963 299.827C554.506 300.528 552.715 300.879 550.592 300.879H543.211V296.723H549.918C551.159 296.723 552.176 296.552 552.967 296.21C553.759 295.859 554.344 295.351 554.722 294.685C555.108 294.011 555.302 293.183 555.302 292.202C555.302 291.222 555.108 290.385 554.722 289.692C554.335 288.991 553.746 288.46 552.954 288.1C552.162 287.731 551.141 287.547 549.891 287.547H545.303V311H540.296ZM554.573 298.477L561.415 311H555.828L549.108 298.477H554.573ZM573.674 311.405C571.596 311.405 569.801 310.973 568.29 310.109C566.788 309.237 565.632 308.004 564.822 306.412C564.012 304.811 563.608 302.926 563.608 300.758C563.608 298.626 564.012 296.754 564.822 295.144C565.641 293.525 566.783 292.265 568.25 291.366C569.716 290.457 571.439 290.003 573.418 290.003C574.695 290.003 575.901 290.21 577.034 290.624C578.177 291.028 579.185 291.658 580.057 292.513C580.939 293.367 581.632 294.456 582.135 295.778C582.639 297.092 582.891 298.657 582.891 300.474V301.972H565.902V298.68H578.208C578.199 297.744 577.997 296.912 577.601 296.183C577.205 295.446 576.652 294.865 575.941 294.442C575.24 294.02 574.421 293.808 573.485 293.808C572.487 293.808 571.61 294.051 570.854 294.537C570.098 295.014 569.509 295.643 569.086 296.426C568.672 297.2 568.461 298.05 568.452 298.977V301.851C568.452 303.056 568.672 304.091 569.113 304.955C569.554 305.809 570.17 306.466 570.962 306.925C571.754 307.375 572.68 307.599 573.742 307.599C574.453 307.599 575.096 307.5 575.672 307.303C576.247 307.096 576.747 306.794 577.169 306.398C577.592 306.003 577.912 305.512 578.127 304.928L582.689 305.44C582.401 306.646 581.852 307.698 581.042 308.598C580.242 309.489 579.216 310.181 577.966 310.676C576.715 311.162 575.285 311.405 573.674 311.405ZM604.944 290.273L597.563 311H592.165L584.784 290.273H589.992L594.756 305.67H594.972L599.749 290.273H604.944ZM608.324 311V290.273H613.209V311H608.324ZM610.78 287.331C610.007 287.331 609.341 287.075 608.783 286.562C608.225 286.04 607.947 285.415 607.947 284.686C607.947 283.948 608.225 283.323 608.783 282.81C609.341 282.289 610.007 282.028 610.78 282.028C611.563 282.028 612.229 282.289 612.778 282.81C613.335 283.323 613.614 283.948 613.614 284.686C613.614 285.415 613.335 286.04 612.778 286.562C612.229 287.075 611.563 287.331 610.78 287.331ZM627.409 311.405C625.331 311.405 623.536 310.973 622.025 310.109C620.522 309.237 619.366 308.004 618.556 306.412C617.747 304.811 617.342 302.926 617.342 300.758C617.342 298.626 617.747 296.754 618.556 295.144C619.375 293.525 620.518 292.265 621.984 291.366C623.45 290.457 625.173 290.003 627.152 290.003C628.43 290.003 629.635 290.21 630.769 290.624C631.911 291.028 632.919 291.658 633.792 292.513C634.673 293.367 635.366 294.456 635.87 295.778C636.373 297.092 636.625 298.657 636.625 300.474V301.972H619.636V298.68H631.943C631.934 297.744 631.731 296.912 631.336 296.183C630.94 295.446 630.386 294.865 629.676 294.442C628.974 294.02 628.155 293.808 627.22 293.808C626.221 293.808 625.344 294.051 624.588 294.537C623.833 295.014 623.243 295.643 622.821 296.426C622.407 297.2 622.195 298.05 622.186 298.977V301.851C622.186 303.056 622.407 304.091 622.848 304.955C623.288 305.809 623.905 306.466 624.696 306.925C625.488 307.375 626.415 307.599 627.476 307.599C628.187 307.599 628.83 307.5 629.406 307.303C629.982 307.096 630.481 306.794 630.904 306.398C631.327 306.003 631.646 305.512 631.862 304.928L636.423 305.44C636.135 306.646 635.586 307.698 634.777 308.598C633.976 309.489 632.95 310.181 631.7 310.676C630.449 311.162 629.019 311.405 627.409 311.405ZM644.924 311L639.068 290.273H644.047L647.691 304.847H647.88L651.604 290.273H656.529L660.254 304.766H660.456L664.046 290.273H669.039L663.169 311H658.081L654.195 296.993H653.912L650.025 311H644.924ZM688.831 295.751L684.378 296.237C684.252 295.787 684.032 295.365 683.717 294.969C683.411 294.573 682.997 294.254 682.476 294.011C681.954 293.768 681.315 293.646 680.559 293.646C679.543 293.646 678.688 293.867 677.996 294.308C677.312 294.748 676.974 295.32 676.983 296.021C676.974 296.624 677.195 297.114 677.645 297.492C678.104 297.87 678.859 298.18 679.912 298.423L683.447 299.179C685.408 299.602 686.866 300.272 687.819 301.19C688.782 302.107 689.268 303.308 689.277 304.793C689.268 306.097 688.885 307.249 688.13 308.247C687.383 309.237 686.344 310.01 685.013 310.568C683.681 311.126 682.152 311.405 680.425 311.405C677.888 311.405 675.845 310.874 674.298 309.812C672.751 308.742 671.829 307.253 671.532 305.346L676.295 304.887C676.511 305.823 676.97 306.529 677.672 307.006C678.373 307.482 679.287 307.721 680.411 307.721C681.572 307.721 682.503 307.482 683.204 307.006C683.915 306.529 684.27 305.94 684.27 305.238C684.27 304.644 684.041 304.154 683.582 303.767C683.132 303.38 682.431 303.083 681.477 302.876L677.942 302.134C675.953 301.72 674.483 301.023 673.529 300.043C672.575 299.053 672.103 297.803 672.112 296.291C672.103 295.014 672.449 293.907 673.151 292.972C673.862 292.027 674.847 291.298 676.106 290.786C677.375 290.264 678.837 290.003 680.492 290.003C682.921 290.003 684.833 290.52 686.227 291.555C687.631 292.589 688.499 293.988 688.831 295.751Z" fill="black"/>
</g>
<defs>
<filter id="filter0_n_2042_43" x="0" y="0" width="960" height="540" filterUnits="userSpaceOnUse" color-interpolation-filters="sRGB">
<feFlood flood-opacity="0" result="BackgroundImageFix"/>
<feBlend mode="normal" in="SourceGraphic" in2="BackgroundImageFix" result="shape"/>
<feTurbulence type="fractalNoise" baseFrequency="2 2" stitchTiles="stitch" numOctaves="3" result="noise" seed="7484" />
<feColorMatrix in="noise" type="luminanceToAlpha" result="alphaNoise" />
<feComponentTransfer in="alphaNoise" result="coloredNoise1">
<feFuncA type="discrete" tableValues="1 1 1 1 1 1 1 1 1 1 1 1 1 1 1 1 1 1 1 1 1 1 1 1 1 1 1 1 1 1 1 1 1 1 1 1 1 1 1 1 1 1 1 1 1 1 1 1 1 1 1 0 0 0 0 0 0 0 0 0 0 0 0 0 0 0 0 0 0 0 0 0 0 0 0 0 0 0 0 0 0 0 0 0 0 0 0 0 0 0 0 0 0 0 0 0 0 0 0 0 "/>
</feComponentTransfer>
<feComposite operator="in" in2="shape" in="coloredNoise1" result="noise1Clipped" />
<feFlood flood-color="rgba(136, 65, 18, 0.12)" result="color1Flood" />
<feComposite operator="in" in2="noise1Clipped" in="color1Flood" result="color1" />
<feMerge result="effect1_noise_2042_43">
<feMergeNode in="shape" />
<feMergeNode in="color1" />
</feMerge>
</filter>
<filter id="filter1_f_2042_43" x="-443" y="-525" width="1134" height="1134" filterUnits="userSpaceOnUse" color-interpolation-filters="sRGB">
<feFlood flood-opacity="0" result="BackgroundImageFix"/>
<feBlend mode="normal" in="SourceGraphic" in2="BackgroundImageFix" result="shape"/>
<feGaussianBlur stdDeviation="150" result="effect1_foregroundBlur_2042_43"/>
</filter>
<filter id="filter2_f_2042_43" x="202" y="-118" width="1260" height="1260" filterUnits="userSpaceOnUse" color-interpolation-filters="sRGB">
<feFlood flood-opacity="0" result="BackgroundImageFix"/>
<feBlend mode="normal" in="SourceGraphic" in2="BackgroundImageFix" result="shape"/>
<feGaussianBlur stdDeviation="150" result="effect1_foregroundBlur_2042_43"/>
</filter>
<filter id="filter3_d_2042_43" x="152.5" y="164" width="228" height="228" filterUnits="userSpaceOnUse" color-interpolation-filters="sRGB">
<feFlood flood-opacity="0" result="BackgroundImageFix"/>
<feColorMatrix in="SourceAlpha" type="matrix" values="0 0 0 0 0 0 0 0 0 0 0 0 0 0 0 0 0 0 127 0" result="hardAlpha"/>
<feOffset dy="8"/>
<feGaussianBlur stdDeviation="12"/>
<feComposite in2="hardAlpha" operator="out"/>
<feColorMatrix type="matrix" values="0 0 0 0 0 0 0 0 0 0 0 0 0 0 0 0 0 0 0.12 0"/>
<feBlend mode="normal" in2="BackgroundImageFix" result="effect1_dropShadow_2042_43"/>
<feBlend mode="normal" in="SourceGraphic" in2="effect1_dropShadow_2042_43" result="shape"/>
</filter>
<clipPath id="clip0_2042_43">
<rect width="960" height="540" fill="white"/>
</clipPath>
<clipPath id="clip1_2042_43">
<rect width="960" height="540" fill="white"/>
</clipPath>
</defs>
</svg>
