<svg width="960" height="540" viewBox="0 0 960 540" fill="none" xmlns="http://www.w3.org/2000/svg">
<g clip-path="url(#clip0_2041_2)">
<rect width="960" height="540" fill="#FDD1B4"/>
<g clip-path="url(#clip1_2041_2)">
<g filter="url(#filter0_n_2041_2)">
<rect width="960" height="540" fill="#FEE1CD"/>
</g>
<g filter="url(#filter1_f_2041_2)">
<circle cx="124" cy="42" r="267" fill="#FFC59E"/>
</g>
<g filter="url(#filter2_f_2041_2)">
<circle cx="832" cy="512" r="330" fill="#FFC59E"/>
</g>
</g>
<path d="M331.033 59.5604V55.3636H353.083V59.5604H344.541V83H339.575V59.5604H331.033ZM357.117 83V62.2727H362.002V83H357.117ZM359.573 59.331C358.8 59.331 358.134 59.0746 357.576 58.5618C357.018 58.04 356.74 57.4148 356.74 56.6861C356.74 55.9484 357.018 55.3232 357.576 54.8104C358.134 54.2886 358.8 54.0277 359.573 54.0277C360.356 54.0277 361.022 54.2886 361.57 54.8104C362.128 55.3232 362.407 55.9484 362.407 56.6861C362.407 57.4148 362.128 58.04 361.57 58.5618C361.022 59.0746 360.356 59.331 359.573 59.331ZM377.376 62.2727V66.0511H365.46V62.2727H377.376ZM368.402 57.3068H373.287V76.7656C373.287 77.4223 373.386 77.9261 373.584 78.277C373.791 78.6188 374.061 78.8527 374.393 78.9787C374.726 79.1046 375.095 79.1676 375.5 79.1676C375.806 79.1676 376.085 79.1451 376.337 79.1001C376.598 79.0552 376.795 79.0147 376.93 78.9787L377.754 82.7976C377.493 82.8875 377.119 82.9865 376.634 83.0945C376.157 83.2024 375.572 83.2654 374.879 83.2834C373.656 83.3194 372.554 83.1349 371.573 82.7301C370.593 82.3163 369.814 81.6776 369.239 80.8139C368.672 79.9503 368.393 78.8707 368.402 77.5753V57.3068ZM386.791 55.3636V83H381.906V55.3636H386.791ZM400.991 83.4048C398.913 83.4048 397.118 82.973 395.607 82.1094C394.104 81.2367 392.948 80.0043 392.138 78.4119C391.329 76.8106 390.924 74.9259 390.924 72.7578C390.924 70.6257 391.329 68.7545 392.138 67.1442C392.957 65.5249 394.1 64.2654 395.566 63.3658C397.032 62.4571 398.755 62.0028 400.734 62.0028C402.012 62.0028 403.217 62.2098 404.351 62.6236C405.493 63.0284 406.501 63.6581 407.374 64.5128C408.255 65.3674 408.948 66.456 409.452 67.7784C409.955 69.0919 410.207 70.6572 410.207 72.4744V73.9723H393.218V70.6797H405.525C405.516 69.7441 405.313 68.9119 404.918 68.1832C404.522 67.4455 403.969 66.8653 403.258 66.4425C402.556 66.0196 401.737 65.8082 400.802 65.8082C399.803 65.8082 398.926 66.0511 398.17 66.5369C397.415 67.0137 396.826 67.6435 396.403 68.4261C395.989 69.1998 395.777 70.05 395.768 70.9766V73.8509C395.768 75.0563 395.989 76.0909 396.43 76.9545C396.871 77.8092 397.487 78.4659 398.278 78.9247C399.07 79.3745 399.997 79.5994 401.058 79.5994C401.769 79.5994 402.412 79.5005 402.988 79.3026C403.564 79.0956 404.063 78.7943 404.486 78.3984C404.909 78.0026 405.228 77.5123 405.444 76.9276L410.005 77.4403C409.717 78.6458 409.168 79.6984 408.359 80.598C407.558 81.4886 406.532 82.1813 405.282 82.6761C404.031 83.1619 402.601 83.4048 400.991 83.4048ZM434.953 55.3636V83H429.946V60.2351H429.784L423.32 64.3643V59.7763L430.189 55.3636H434.953ZM455.363 55.3636L462.555 77.1165H462.839L470.018 55.3636H475.523L465.78 83H459.6L449.871 55.3636H455.363ZM493.585 67.7514L489.132 68.2372C489.006 67.7874 488.786 67.3646 488.471 66.9688C488.165 66.5729 487.751 66.2536 487.23 66.0107C486.708 65.7678 486.069 65.6463 485.313 65.6463C484.297 65.6463 483.442 65.8667 482.749 66.3075C482.066 66.7483 481.728 67.3196 481.737 68.0213C481.728 68.6241 481.949 69.1143 482.399 69.4922C482.857 69.87 483.613 70.1804 484.666 70.4233L488.201 71.179C490.162 71.6018 491.62 72.272 492.573 73.1896C493.536 74.1072 494.022 75.3082 494.031 76.7926C494.022 78.0971 493.639 79.2486 492.884 80.2472C492.137 81.2367 491.098 82.0104 489.767 82.5682C488.435 83.1259 486.906 83.4048 485.178 83.4048C482.642 83.4048 480.599 82.8741 479.052 81.8125C477.505 80.742 476.583 79.2531 476.286 77.3459L481.049 76.8871C481.265 77.8227 481.724 78.5289 482.426 79.0057C483.127 79.4825 484.04 79.7209 485.165 79.7209C486.325 79.7209 487.257 79.4825 487.958 79.0057C488.669 78.5289 489.024 77.9396 489.024 77.2379C489.024 76.6442 488.795 76.1539 488.336 75.767C487.886 75.3802 487.185 75.0833 486.231 74.8764L482.695 74.1342C480.707 73.7204 479.236 73.0232 478.283 72.0426C477.329 71.053 476.857 69.8026 476.866 68.2912C476.857 67.0137 477.203 65.9072 477.905 64.9716C478.616 64.027 479.601 63.2983 480.86 62.7855C482.129 62.2637 483.591 62.0028 485.246 62.0028C487.675 62.0028 489.587 62.5201 490.981 63.5547C492.384 64.5893 493.253 65.9882 493.585 67.7514ZM501.068 83.2969C500.249 83.2969 499.548 83.009 498.963 82.4332C498.378 81.8575 498.09 81.1558 498.099 80.3281C498.09 79.5185 498.378 78.8258 498.963 78.25C499.548 77.6742 500.249 77.3864 501.068 77.3864C501.86 77.3864 502.548 77.6742 503.133 78.25C503.726 78.8258 504.028 79.5185 504.037 80.3281C504.028 80.8769 503.884 81.3762 503.605 81.826C503.335 82.2758 502.975 82.6357 502.525 82.9055C502.085 83.1664 501.599 83.2969 501.068 83.2969ZM516.654 59.5604V55.3636H538.704V59.5604H530.162V83H525.196V59.5604H516.654ZM542.738 83V62.2727H547.623V83H542.738ZM545.194 59.331C544.421 59.331 543.755 59.0746 543.197 58.5618C542.64 58.04 542.361 57.4148 542.361 56.6861C542.361 55.9484 542.64 55.3232 543.197 54.8104C543.755 54.2886 544.421 54.0277 545.194 54.0277C545.977 54.0277 546.643 54.2886 547.192 54.8104C547.749 55.3232 548.028 55.9484 548.028 56.6861C548.028 57.4148 547.749 58.04 547.192 58.5618C546.643 59.0746 545.977 59.331 545.194 59.331ZM562.997 62.2727V66.0511H551.081V62.2727H562.997ZM554.023 57.3068H558.908V76.7656C558.908 77.4223 559.007 77.9261 559.205 78.277C559.412 78.6188 559.682 78.8527 560.015 78.9787C560.347 79.1046 560.716 79.1676 561.121 79.1676C561.427 79.1676 561.706 79.1451 561.958 79.1001C562.219 79.0552 562.417 79.0147 562.551 78.9787L563.375 82.7976C563.114 82.8875 562.74 82.9865 562.255 83.0945C561.778 83.2024 561.193 83.2654 560.5 83.2834C559.277 83.3194 558.175 83.1349 557.194 82.7301C556.214 82.3163 555.435 81.6776 554.86 80.8139C554.293 79.9503 554.014 78.8707 554.023 77.5753V57.3068ZM572.412 55.3636V83H567.528V55.3636H572.412ZM586.612 83.4048C584.534 83.4048 582.739 82.973 581.228 82.1094C579.725 81.2367 578.569 80.0043 577.76 78.4119C576.95 76.8106 576.545 74.9259 576.545 72.7578C576.545 70.6257 576.95 68.7545 577.76 67.1442C578.578 65.5249 579.721 64.2654 581.187 63.3658C582.654 62.4571 584.376 62.0028 586.355 62.0028C587.633 62.0028 588.838 62.2098 589.972 62.6236C591.114 63.0284 592.122 63.6581 592.995 64.5128C593.876 65.3674 594.569 66.456 595.073 67.7784C595.577 69.0919 595.828 70.6572 595.828 72.4744V73.9723H578.839V70.6797H591.146C591.137 69.7441 590.935 68.9119 590.539 68.1832C590.143 67.4455 589.59 66.8653 588.879 66.4425C588.177 66.0196 587.359 65.8082 586.423 65.8082C585.424 65.8082 584.547 66.0511 583.792 66.5369C583.036 67.0137 582.447 67.6435 582.024 68.4261C581.61 69.1998 581.399 70.05 581.39 70.9766V73.8509C581.39 75.0563 581.61 76.0909 582.051 76.9545C582.492 77.8092 583.108 78.4659 583.9 78.9247C584.691 79.3745 585.618 79.5994 586.679 79.5994C587.39 79.5994 588.033 79.5005 588.609 79.3026C589.185 79.0956 589.684 78.7943 590.107 78.3984C590.53 78.0026 590.849 77.5123 591.065 76.9276L595.626 77.4403C595.338 78.6458 594.789 79.6984 593.98 80.598C593.179 81.4886 592.154 82.1813 590.903 82.6761C589.653 83.1619 588.222 83.4048 586.612 83.4048ZM609.333 83V79.3835L618.927 69.978C619.845 69.0514 620.61 68.2282 621.221 67.5085C621.833 66.7888 622.292 66.0916 622.598 65.4169C622.904 64.7422 623.057 64.0225 623.057 63.2578C623.057 62.3852 622.859 61.6385 622.463 61.0178C622.067 60.388 621.523 59.9022 620.83 59.5604C620.137 59.2185 619.35 59.0476 618.469 59.0476C617.56 59.0476 616.764 59.2365 616.08 59.6143C615.396 59.9832 614.866 60.5095 614.488 61.1932C614.119 61.8769 613.934 62.6911 613.934 63.6357H609.171C609.171 61.8814 609.571 60.3565 610.372 59.0611C611.173 57.7656 612.275 56.7625 613.678 56.0518C615.09 55.3411 616.71 54.9858 618.536 54.9858C620.389 54.9858 622.018 55.3321 623.421 56.0249C624.824 56.7176 625.913 57.6667 626.687 58.8722C627.469 60.0777 627.861 61.4541 627.861 63.0014C627.861 64.036 627.663 65.0526 627.267 66.0511C626.871 67.0497 626.174 68.1562 625.175 69.3707C624.186 70.5852 622.796 72.0561 621.006 73.7834L616.242 78.6278V78.8168H628.279V83H609.333Z" fill="black"/>
<g filter="url(#filter3_d_2041_2)">
<rect x="161" y="180" width="180" height="180" rx="41" fill="white"/>
<rect x="161.5" y="180.5" width="179" height="179" rx="40.5" stroke="#D4C4BA"/>
<path fill-rule="evenodd" clip-rule="evenodd" d="M305.626 220.796L214.362 221.109L196.119 245.546L234.054 245.416L226.129 285.761L251.97 285.856L244.755 319.601L280.872 270.363L255.216 270.634L260.81 245.141L287.383 245.05L305.626 220.796Z" fill="#FF6600"/>
</g>
<rect x="425" y="215" width="110" height="110" rx="29.3333" fill="#ECBFA1"/>
<path d="M469.602 271.75L463.235 248.615L469.409 268.267L478.291 247.562L469.602 271.75ZM467.479 283.948L456.294 249.308L468.146 283.015L469.194 283.829L467.479 283.948ZM477.663 246.995L469.659 266.012L464.08 248.305L463.969 247.953L454.842 248.591L464.973 280.878L464.944 280.984L461.947 281.194L457.692 299.2L465.84 285.668L469.583 285.406L470.086 284.2L471.504 280.801L471.512 280.801L482.63 254.414L486.003 246.412L477.663 246.995Z" fill="#976646"/>
<path d="M488.704 283.63L482.81 281.05C479.135 279.702 478.904 277.802 478.904 277.802L485.629 262.072L479.876 277.694C479.876 277.694 479.848 278.715 482.957 280.375C485.968 281.983 488.548 283.534 488.704 283.63ZM473.402 290.985L475.794 285.18L474.252 291.025C474.252 291.025 479.833 295.566 488.398 294.953C488.398 294.953 479.116 296.142 473.402 290.985ZM489.146 269.772C489.301 269.739 489.463 269.728 489.633 269.744C490.115 269.783 490.583 269.838 491.041 269.907C497.389 270.834 501.204 274.032 501.207 274.038L504.31 266.682C502.484 265.248 499.05 263.118 494.133 262.44C494.133 262.44 492.521 262.175 491.684 262.071L492.391 259.344L495.388 259.135L499.644 241.132L491.495 254.661L487.752 254.923L484.314 263.16L481.904 268.939L477.908 278.42C478.83 279.574 479.896 280.477 481.101 281.135C481.722 281.475 482.424 281.82 483.203 282.171C483.959 282.515 484.794 282.862 485.7 283.218C486.366 283.484 486.961 283.732 487.481 283.966C487.719 284.076 487.943 284.181 488.153 284.282C488.759 284.58 489.192 285.166 489.242 285.839L489.243 285.855C489.318 286.931 488.623 288.029 487.627 288.237C487.475 288.27 487.31 288.282 487.143 288.268C486.661 288.226 486.193 288.171 485.738 288.105C479.39 287.178 475.572 283.977 475.569 283.971L474.743 285.932L472.466 291.327C474.292 292.761 477.731 294.894 482.651 295.572C482.72 295.581 482.791 295.593 482.859 295.602C482.879 295.601 482.896 295.605 482.916 295.609C485.21 295.896 487.82 295.866 490.731 295.311C491.33 295.181 491.908 295.028 492.461 294.849C493.317 294.572 494.116 294.232 494.856 293.834C496.825 292.768 498.291 291.387 499.258 289.681C500.223 287.981 500.636 286.114 500.494 284.081C500.369 282.299 499.843 280.819 498.911 279.642C498.895 279.624 498.883 279.605 498.871 279.589C497.946 278.438 496.88 277.533 495.674 276.874C495.048 276.532 494.34 276.185 493.552 275.831C491.196 274.867 489.057 274.139 489.057 274.139C488.659 274.001 488.306 273.752 488.045 273.43C487.753 273.081 487.567 272.644 487.533 272.157C487.458 271.081 488.153 269.983 489.146 269.772Z" fill="#976646"/>
<path d="M490.491 242.222C483.628 260.503 475.958 278.736 467.674 296.416C474.531 278.135 482.21 259.907 490.491 242.222Z" fill="#976646"/>
<g filter="url(#filter4_d_2041_2)">
<rect x="619" y="180" width="180" height="180" rx="41" fill="white"/>
<rect x="619.5" y="180.5" width="179" height="179" rx="40.5" stroke="#D4C4BA"/>
<path fill-rule="evenodd" clip-rule="evenodd" d="M763.626 220.796L672.362 221.109L654.119 245.546L692.054 245.416L684.129 285.761L709.97 285.856L702.755 319.601L738.872 270.363L713.216 270.634L718.81 245.141L745.383 245.05L763.626 220.796Z" fill="#FF6600"/>
</g>
</g>
<defs>
<filter id="filter0_n_2041_2" x="0" y="0" width="960" height="540" filterUnits="userSpaceOnUse" color-interpolation-filters="sRGB">
<feFlood flood-opacity="0" result="BackgroundImageFix"/>
<feBlend mode="normal" in="SourceGraphic" in2="BackgroundImageFix" result="shape"/>
<feTurbulence type="fractalNoise" baseFrequency="2 2" stitchTiles="stitch" numOctaves="3" result="noise" seed="7484" />
<feColorMatrix in="noise" type="luminanceToAlpha" result="alphaNoise" />
<feComponentTransfer in="alphaNoise" result="coloredNoise1">
<feFuncA type="discrete" tableValues="1 1 1 1 1 1 1 1 1 1 1 1 1 1 1 1 1 1 1 1 1 1 1 1 1 1 1 1 1 1 1 1 1 1 1 1 1 1 1 1 1 1 1 1 1 1 1 1 1 1 1 0 0 0 0 0 0 0 0 0 0 0 0 0 0 0 0 0 0 0 0 0 0 0 0 0 0 0 0 0 0 0 0 0 0 0 0 0 0 0 0 0 0 0 0 0 0 0 0 0 "/>
</feComponentTransfer>
<feComposite operator="in" in2="shape" in="coloredNoise1" result="noise1Clipped" />
<feFlood flood-color="rgba(136, 65, 18, 0.12)" result="color1Flood" />
<feComposite operator="in" in2="noise1Clipped" in="color1Flood" result="color1" />
<feMerge result="effect1_noise_2041_2">
<feMergeNode in="shape" />
<feMergeNode in="color1" />
</feMerge>
</filter>
<filter id="filter1_f_2041_2" x="-443" y="-525" width="1134" height="1134" filterUnits="userSpaceOnUse" color-interpolation-filters="sRGB">
<feFlood flood-opacity="0" result="BackgroundImageFix"/>
<feBlend mode="normal" in="SourceGraphic" in2="BackgroundImageFix" result="shape"/>
<feGaussianBlur stdDeviation="150" result="effect1_foregroundBlur_2041_2"/>
</filter>
<filter id="filter2_f_2041_2" x="202" y="-118" width="1260" height="1260" filterUnits="userSpaceOnUse" color-interpolation-filters="sRGB">
<feFlood flood-opacity="0" result="BackgroundImageFix"/>
<feBlend mode="normal" in="SourceGraphic" in2="BackgroundImageFix" result="shape"/>
<feGaussianBlur stdDeviation="150" result="effect1_foregroundBlur_2041_2"/>
</filter>
<filter id="filter3_d_2041_2" x="137" y="164" width="228" height="228" filterUnits="userSpaceOnUse" color-interpolation-filters="sRGB">
<feFlood flood-opacity="0" result="BackgroundImageFix"/>
<feColorMatrix in="SourceAlpha" type="matrix" values="0 0 0 0 0 0 0 0 0 0 0 0 0 0 0 0 0 0 127 0" result="hardAlpha"/>
<feOffset dy="8"/>
<feGaussianBlur stdDeviation="12"/>
<feComposite in2="hardAlpha" operator="out"/>
<feColorMatrix type="matrix" values="0 0 0 0 0 0 0 0 0 0 0 0 0 0 0 0 0 0 0.12 0"/>
<feBlend mode="normal" in2="BackgroundImageFix" result="effect1_dropShadow_2041_2"/>
<feBlend mode="normal" in="SourceGraphic" in2="effect1_dropShadow_2041_2" result="shape"/>
</filter>
<filter id="filter4_d_2041_2" x="595" y="164" width="228" height="228" filterUnits="userSpaceOnUse" color-interpolation-filters="sRGB">
<feFlood flood-opacity="0" result="BackgroundImageFix"/>
<feColorMatrix in="SourceAlpha" type="matrix" values="0 0 0 0 0 0 0 0 0 0 0 0 0 0 0 0 0 0 127 0" result="hardAlpha"/>
<feOffset dy="8"/>
<feGaussianBlur stdDeviation="12"/>
<feComposite in2="hardAlpha" operator="out"/>
<feColorMatrix type="matrix" values="0 0 0 0 0 0 0 0 0 0 0 0 0 0 0 0 0 0 0.12 0"/>
<feBlend mode="normal" in2="BackgroundImageFix" result="effect1_dropShadow_2041_2"/>
<feBlend mode="normal" in="SourceGraphic" in2="effect1_dropShadow_2041_2" result="shape"/>
</filter>
<clipPath id="clip0_2041_2">
<rect width="960" height="540" fill="white"/>
</clipPath>
<clipPath id="clip1_2041_2">
<rect width="960" height="540" fill="white"/>
</clipPath>
</defs>
</svg>
