<svg width="960" height="540" viewBox="0 0 960 540" fill="none" xmlns="http://www.w3.org/2000/svg">
<path d="M732 492C732 467.699 751.699 448 776 448H960V540H732V492Z" fill="white"/>
<g clip-path="url(#clip0_2090_2)">
<path fill-rule="evenodd" clip-rule="evenodd" d="M804.816 472H764.163L756 482.857H772.898L769.306 500.816L780.816 500.898L777.551 515.918L793.714 494.041L782.286 494.122L784.816 482.776H796.653L804.816 472Z" fill="#FF6600"/>
<path fill-rule="evenodd" clip-rule="evenodd" d="M815.265 497.143V483.347H808.408V478.612H827.02V483.347H820.163V497.143H815.265ZM834.694 497.143H842.449V493.224H834.694C834.286 493.224 833.959 493.143 833.551 493.061C833.225 492.898 832.898 492.735 832.571 492.408C832.327 492.082 832.082 491.673 831.918 491.265C831.755 490.857 831.755 490.367 831.755 489.959C831.674 489.061 832 488.163 832.571 487.429C832.816 487.102 833.143 486.939 833.551 486.776C833.878 486.612 834.286 486.531 834.694 486.531H837.633C837.796 486.531 837.959 486.531 838.041 486.531C838.204 486.612 838.286 486.612 838.449 486.776C838.531 486.857 838.612 487.02 838.694 487.184C838.776 487.347 838.776 487.429 838.776 487.592C838.776 488.245 838.367 488.571 837.633 488.571H833.551V491.184H838.612C839.837 491.265 841.143 490.939 842.204 490.204C842.612 489.878 842.857 489.388 843.102 488.898C843.265 488.408 843.347 487.918 843.347 487.347C843.347 486.694 843.265 486.122 843.02 485.469C842.857 484.898 842.531 484.408 842.122 484C841.714 483.592 841.143 483.265 840.571 483.02C839.918 482.776 839.184 482.694 838.449 482.694H834.857C833.796 482.694 832.816 482.857 831.837 483.184C830.939 483.51 830.122 484 829.388 484.653C828.735 485.306 828.163 486.041 827.755 486.939C827.347 487.837 827.184 488.816 827.184 489.796C827.184 490.776 827.347 491.755 827.755 492.735C828.163 493.633 828.653 494.367 829.388 495.02C830.122 495.673 830.939 496.163 831.837 496.49C832.653 496.98 833.714 497.224 834.694 497.143ZM857.061 497.143L853.306 492.816L849.714 497.143H844.245L850.612 489.714L844.735 482.857H850.367L853.551 486.531L856.735 482.857H862.122L856.245 489.714L862.694 497.143H857.061ZM869.061 497.143C868.327 497.224 867.674 497.143 866.939 496.898C866.286 496.653 865.633 496.327 865.143 495.837C864.245 494.776 863.755 493.388 863.837 492V478.939H868.571V483.02H874.286V486.939H868.571V491.592C868.571 491.837 868.571 492.082 868.653 492.245C868.735 492.49 868.816 492.653 868.98 492.816C869.143 492.98 869.306 493.061 869.551 493.143C869.796 493.224 870.041 493.224 870.204 493.224H874.122V497.143H869.061Z" fill="black"/>
<path fill-rule="evenodd" clip-rule="evenodd" d="M876.979 497.143V478.612H890.367C891.265 478.612 892.082 478.694 892.898 479.02C893.551 479.265 894.122 479.592 894.612 480.082C895.02 480.49 895.428 481.061 895.592 481.633C895.837 482.286 895.918 482.939 895.918 483.592C895.918 484.49 895.755 485.306 895.347 486.041C895.02 486.694 894.449 487.184 893.796 487.429C894.531 487.673 895.184 488.163 895.592 488.898C896.082 489.796 896.326 490.775 896.326 491.755C896.326 492.49 896.245 493.224 896 493.959C895.755 494.612 895.265 495.265 894.775 495.755C893.469 496.816 891.837 497.306 890.204 497.224H876.979V497.143ZM883.673 489.714V485.878H889.796C890.204 485.878 890.531 485.796 890.775 485.551C890.939 485.388 891.02 485.224 891.02 485.061C891.102 484.898 891.102 484.735 891.102 484.49C891.102 484.326 891.102 484.163 891.02 483.918C890.939 483.755 890.857 483.592 890.775 483.429C890.531 483.184 890.122 483.102 889.796 483.102H881.959V492.408H890.041C891.02 492.408 891.51 492 891.51 491.102C891.51 490.939 891.51 490.694 891.428 490.531C891.347 490.367 891.265 490.204 891.102 490.041C890.939 489.878 890.775 489.796 890.612 489.714C890.449 489.633 890.204 489.633 890.041 489.633H883.673V489.714ZM907.755 492.816C908.49 492.816 909.306 492.571 909.796 492.082C910.041 491.837 910.286 491.51 910.449 491.184C910.612 490.857 910.694 490.449 910.612 490.122C910.612 489.714 910.531 489.388 910.449 489.061C910.286 488.735 910.122 488.408 909.796 488.163C909.224 487.673 908.49 487.347 907.755 487.429H905.714C904.979 487.429 904.163 487.673 903.592 488.163C903.347 488.408 903.102 488.735 902.939 489.061C902.775 489.388 902.775 489.796 902.775 490.122C902.775 490.531 902.857 490.857 902.939 491.184C903.102 491.51 903.265 491.837 903.592 492.082C903.918 492.326 904.163 492.571 904.571 492.653C904.898 492.816 905.306 492.816 905.714 492.816H907.755ZM905.796 497.143C904.735 497.143 903.755 496.98 902.775 496.653C901.877 496.326 901.061 495.837 900.326 495.184C899.673 494.531 899.102 493.796 898.694 492.898C898.286 492 898.122 491.02 898.122 489.959C898.122 488.98 898.286 488 898.694 487.102C899.102 486.204 899.592 485.469 900.326 484.816C901.061 484.163 901.877 483.673 902.775 483.347C903.755 483.02 904.816 482.857 905.796 482.857H907.837C908.898 482.857 909.877 483.02 910.857 483.347C911.755 483.673 912.571 484.163 913.306 484.816C913.959 485.469 914.531 486.204 914.939 487.102C915.347 488 915.51 488.98 915.51 489.959C915.51 490.939 915.347 491.918 914.939 492.898C914.531 493.796 914.041 494.531 913.306 495.184C912.571 495.837 911.755 496.326 910.857 496.653C909.877 496.98 908.816 497.143 907.837 497.143H905.796ZM917.714 477.143H922.449V497.143H917.714V477.143ZM930.367 497.143C929.633 497.224 928.979 497.061 928.245 496.898C927.592 496.653 926.939 496.326 926.449 495.837C925.551 494.775 925.061 493.388 925.143 492V478.939H929.877V483.02H935.592V486.939H929.877V491.592C929.877 491.837 929.877 492.082 929.959 492.245C930.041 492.49 930.122 492.653 930.286 492.816C930.449 492.98 930.612 493.061 930.857 493.143C931.102 493.224 931.347 493.224 931.51 493.224H935.428V497.143H930.367Z" fill="#FF6600"/>
<path d="M809.061 503.429H812.816V504.245H809.959V506.122H812.571V506.939H809.959V509.551H809.061V503.429ZM817.388 506.041C817.551 506.367 817.632 506.776 817.632 507.265C817.632 507.755 817.551 508.163 817.388 508.49C817.224 508.816 816.979 509.143 816.653 509.306C816.326 509.469 815.918 509.633 815.51 509.633C815.102 509.633 814.694 509.551 814.367 509.306C814.041 509.143 813.796 508.816 813.632 508.49C813.469 508.163 813.388 507.755 813.388 507.265C813.388 506.776 813.469 506.367 813.632 506.041C813.796 505.714 814.041 505.388 814.367 505.225C814.694 505.061 815.102 504.898 815.51 504.898C815.918 504.898 816.326 504.98 816.653 505.225C816.979 505.388 817.224 505.633 817.388 506.041ZM816.735 507.265C816.735 506.939 816.653 506.694 816.571 506.449C816.49 506.204 816.326 506.041 816.163 505.878C816 505.714 815.755 505.633 815.51 505.633C815.265 505.633 815.02 505.714 814.775 505.878C814.612 506.041 814.449 506.204 814.367 506.449C814.286 506.694 814.204 506.939 814.204 507.265C814.204 507.592 814.286 507.837 814.367 508.082C814.449 508.327 814.612 508.49 814.775 508.653C814.939 508.816 815.183 508.898 815.51 508.898C815.755 508.898 816 508.816 816.163 508.653C816.326 508.49 816.49 508.327 816.571 508.082C816.735 507.837 816.735 507.592 816.735 507.265ZM820.735 504.898C820.49 504.898 820.245 504.98 820 505.143C819.755 505.306 819.673 505.469 819.592 505.714H819.51V504.98H818.612V509.551H819.51V506.776C819.51 506.612 819.592 506.367 819.673 506.204C819.755 506.041 819.918 505.959 820.081 505.796C820.245 505.714 820.408 505.633 820.653 505.633C820.734 505.633 820.816 505.633 820.898 505.633C820.979 505.633 821.061 505.633 821.061 505.633V504.816C820.979 504.816 820.979 504.816 820.898 504.816C820.898 504.898 820.816 504.898 820.735 504.898ZM826.694 504.898C826.367 504.898 826.041 504.98 825.877 505.143C825.632 505.306 825.469 505.469 825.388 505.714H825.306C825.224 505.469 825.061 505.306 824.816 505.143C824.571 504.98 824.326 504.898 824.081 504.898C823.755 504.898 823.51 504.98 823.265 505.143C823.02 505.306 822.857 505.469 822.775 505.714H822.694V504.98H821.796V509.551H822.694V506.694C822.694 506.449 822.775 506.286 822.857 506.122C822.939 505.959 823.02 505.878 823.183 505.714C823.347 505.633 823.51 505.551 823.673 505.551C823.918 505.551 824.163 505.633 824.245 505.796C824.408 505.959 824.49 506.122 824.49 506.367V509.551H825.388V506.612C825.388 506.367 825.469 506.122 825.632 505.959C825.796 505.796 826.041 505.714 826.286 505.714C826.53 505.714 826.694 505.796 826.857 505.959C827.02 506.122 827.102 506.286 827.102 506.612V509.551H828V506.449C828 505.959 827.837 505.551 827.592 505.306C827.51 505.061 827.102 504.898 826.694 504.898ZM833.143 506.122C833.224 506.449 833.306 506.776 833.306 507.184V507.51H830.041C830.041 507.755 830.122 508 830.204 508.245C830.286 508.49 830.449 508.653 830.694 508.735C830.857 508.816 831.102 508.898 831.347 508.898C831.51 508.898 831.673 508.898 831.837 508.816C832 508.735 832.081 508.735 832.163 508.571C832.245 508.49 832.326 508.327 832.408 508.245L833.224 508.408C833.143 508.653 833.061 508.898 832.898 509.061C832.734 509.225 832.49 509.388 832.245 509.469C832 509.551 831.673 509.633 831.347 509.633C830.857 509.633 830.53 509.551 830.204 509.306C829.877 509.143 829.632 508.816 829.469 508.49C829.306 508.163 829.224 507.755 829.224 507.265C829.224 506.776 829.306 506.367 829.469 506.041C829.632 505.714 829.877 505.388 830.204 505.225C830.53 505.061 830.857 504.898 831.347 504.898C831.592 504.898 831.837 504.98 832.081 505.061C832.326 505.143 832.571 505.306 832.735 505.469C832.816 505.633 832.979 505.878 833.143 506.122ZM832.408 506.857C832.408 506.612 832.326 506.449 832.245 506.204C832.163 505.959 832 505.878 831.837 505.796C831.673 505.714 831.428 505.633 831.265 505.633C831.02 505.633 830.775 505.714 830.612 505.796C830.449 505.959 830.286 506.041 830.204 506.286C830.122 506.449 830.041 506.612 830.041 506.857H832.408ZM836.326 504.898C836.081 504.898 835.837 504.98 835.592 505.143C835.347 505.306 835.265 505.469 835.183 505.714V504.98H834.286V509.551H835.183V506.776C835.183 506.612 835.265 506.367 835.347 506.204C835.428 506.041 835.592 505.959 835.755 505.796C835.918 505.714 836.081 505.633 836.326 505.633C836.408 505.633 836.49 505.633 836.571 505.633C836.653 505.633 836.735 505.633 836.735 505.633V504.816C836.653 504.816 836.653 504.816 836.571 504.816C836.49 504.898 836.408 504.898 836.326 504.898ZM837.551 509.551H838.449V503.429H837.551V509.551ZM841.388 508.49L840.163 504.898H839.265L840.979 509.551L840.898 509.878C840.816 510.041 840.734 510.204 840.653 510.286C840.571 510.367 840.408 510.449 840.326 510.449C840.163 510.449 840.081 510.449 839.918 510.367L839.673 511.102C839.755 511.102 839.837 511.184 839.918 511.184C840 511.184 840.163 511.184 840.245 511.184C840.49 511.184 840.734 511.102 840.898 511.02C841.061 510.939 841.224 510.776 841.388 510.612C841.551 510.449 841.632 510.204 841.714 510.041L843.592 504.816H842.612L841.388 508.49ZM850.53 506.612C850.367 506.449 850.204 506.367 849.959 506.286C849.714 506.204 849.551 506.122 849.306 506.041L848.734 505.878C848.571 505.878 848.49 505.796 848.326 505.796C848.163 505.714 848.081 505.714 848 505.633C847.918 505.551 847.837 505.469 847.755 505.388C847.673 505.306 847.673 505.143 847.673 505.061C847.673 504.898 847.755 504.735 847.837 504.653C847.918 504.571 848.081 504.408 848.245 504.408C848.408 504.327 848.571 504.327 848.816 504.327C849.143 504.327 849.388 504.408 849.632 504.571C849.877 504.735 849.959 504.898 849.959 505.143H851.02C851.02 504.816 850.939 504.49 850.694 504.245C850.53 504 850.286 503.755 849.959 503.592C849.632 503.429 849.224 503.347 848.816 503.347C848.408 503.347 848 503.429 847.673 503.592C847.347 503.755 847.102 503.918 846.857 504.245C846.612 504.571 846.53 504.816 846.53 505.225C846.53 505.633 846.694 506.041 846.939 506.286C847.265 506.531 847.592 506.776 848.163 506.857L848.898 507.02C849.143 507.102 849.306 507.102 849.469 507.184C849.632 507.265 849.796 507.347 849.877 507.429C849.959 507.51 850.041 507.673 850.041 507.837C850.041 508 849.959 508.163 849.877 508.327C849.796 508.49 849.632 508.571 849.469 508.653C849.306 508.735 849.061 508.735 848.816 508.735C848.571 508.735 848.408 508.735 848.163 508.653C848 508.571 847.837 508.49 847.673 508.327C847.592 508.163 847.51 508 847.51 507.755H846.449C846.449 508.163 846.53 508.49 846.775 508.816C846.939 509.061 847.265 509.306 847.592 509.469C847.918 509.633 848.326 509.714 848.816 509.714C849.306 509.714 849.714 509.633 850.041 509.469C850.367 509.306 850.612 509.143 850.857 508.816C851.02 508.571 851.102 508.245 851.102 507.837C851.102 507.592 851.02 507.347 850.939 507.184C850.857 506.939 850.694 506.776 850.53 506.612ZM855.918 506.204C856 506.531 856.081 506.857 856.081 507.265V507.592H852.898C852.898 507.837 852.979 508.082 853.061 508.245C853.143 508.408 853.306 508.571 853.469 508.653C853.632 508.735 853.877 508.816 854.122 508.816C854.286 508.816 854.449 508.816 854.53 508.735C854.694 508.653 854.775 508.653 854.857 508.571C854.939 508.49 855.02 508.408 855.102 508.245L856.081 508.327C856 508.571 855.918 508.816 855.755 509.061C855.592 509.306 855.347 509.388 855.102 509.551C854.857 509.633 854.53 509.714 854.122 509.714C853.632 509.714 853.224 509.633 852.898 509.388C852.571 509.225 852.326 508.898 852.163 508.571C852 508.245 851.918 507.837 851.918 507.347C851.918 506.857 852 506.449 852.163 506.122C852.326 505.796 852.571 505.469 852.898 505.306C853.224 505.143 853.632 504.98 854.041 504.98C854.286 504.98 854.612 505.061 854.857 505.143C855.102 505.224 855.347 505.388 855.51 505.551C855.673 505.633 855.837 505.878 855.918 506.204ZM855.02 506.857C855.02 506.612 854.939 506.449 854.857 506.286C854.775 506.122 854.612 505.959 854.53 505.878C854.367 505.796 854.204 505.714 853.959 505.714C853.714 505.714 853.551 505.796 853.388 505.878C853.224 505.959 853.061 506.122 852.979 506.286C852.898 506.449 852.816 506.612 852.816 506.776H855.02V506.857ZM860.326 505.143C860.081 504.98 859.837 504.98 859.51 504.98C859.183 504.98 858.857 505.061 858.612 505.225C858.367 505.388 858.204 505.551 858.122 505.878H858.041V505.061H856.979V509.551H858.041V506.857C858.041 506.612 858.122 506.449 858.204 506.286C858.286 506.122 858.367 506.041 858.53 505.959C858.694 505.878 858.857 505.796 859.02 505.796C859.265 505.796 859.51 505.878 859.673 506.041C859.837 506.204 859.918 506.449 859.918 506.776V509.551H860.979V506.612C860.979 506.286 860.898 505.959 860.816 505.714C860.734 505.469 860.571 505.224 860.326 505.143ZM865.224 503.429H866.286V509.551H865.224V508.816H865.143C865.061 508.898 864.979 509.061 864.898 509.143C864.816 509.306 864.653 509.388 864.49 509.469C864.326 509.551 864.081 509.633 863.837 509.633C863.51 509.633 863.183 509.551 862.857 509.388C862.612 509.225 862.367 508.898 862.204 508.571C862.041 508.245 861.959 507.755 861.959 507.265C861.959 506.776 862.041 506.286 862.204 505.959C862.367 505.633 862.612 505.306 862.857 505.143C863.183 504.98 863.428 504.898 863.837 504.898C864.081 504.898 864.326 504.98 864.49 505.061C864.653 505.143 864.816 505.225 864.898 505.388C864.979 505.551 865.061 505.633 865.143 505.714H865.224V503.429ZM865.224 507.265C865.224 506.939 865.143 506.694 865.061 506.531C864.979 506.286 864.816 506.122 864.734 506.041C864.571 505.959 864.408 505.878 864.163 505.878C863.918 505.878 863.755 505.959 863.592 506.041C863.428 506.204 863.347 506.367 863.265 506.531C863.183 506.776 863.102 507.02 863.102 507.265C863.102 507.592 863.183 507.837 863.265 508C863.347 508.245 863.51 508.408 863.673 508.49C863.837 508.653 864 508.653 864.245 508.653C864.49 508.653 864.653 508.571 864.816 508.49C864.979 508.327 865.061 508.163 865.224 508C865.224 507.837 865.224 507.592 865.224 507.265ZM868.571 506.939H871.265V506.041H868.571V504.408H871.428V503.51H867.428V509.551H871.428V508.653H868.571V506.939ZM877.551 504.898C877.224 504.898 876.898 504.98 876.653 505.143C876.408 505.306 876.245 505.469 876.163 505.714H876.081C876 505.469 875.837 505.225 875.592 505.061C875.347 504.898 875.102 504.816 874.775 504.816C874.449 504.816 874.204 504.898 873.959 505.061C873.714 505.225 873.551 505.388 873.469 505.714H873.388V504.898H872.326V509.551H873.388V506.776C873.388 506.612 873.388 506.449 873.469 506.286C873.551 506.122 873.632 506.041 873.796 505.959C873.959 505.878 874.041 505.878 874.204 505.878C874.449 505.878 874.612 505.959 874.775 506.122C874.939 506.286 875.02 506.449 875.02 506.694V509.551H876.081V506.694C876.081 506.449 876.163 506.204 876.326 506.041C876.49 505.878 876.653 505.796 876.898 505.796C877.143 505.796 877.306 505.878 877.469 505.959C877.632 506.122 877.714 506.286 877.714 506.612V509.551H878.775V506.449C878.775 505.959 878.612 505.551 878.367 505.306C878.367 505.061 878.041 504.898 877.551 504.898ZM883.673 505.714C883.755 505.878 883.837 506.204 883.837 506.449V509.551H882.775V508.898C882.694 509.061 882.612 509.143 882.53 509.224C882.449 509.306 882.286 509.388 882.122 509.469C881.959 509.551 881.714 509.551 881.469 509.551C881.143 509.551 880.898 509.469 880.653 509.388C880.408 509.306 880.245 509.143 880.081 508.898C879.918 508.653 879.918 508.408 879.918 508.163C879.918 507.918 880 507.673 880.081 507.51C880.163 507.347 880.326 507.184 880.49 507.102C880.653 507.02 880.816 506.939 881.061 506.857C881.306 506.776 881.469 506.776 881.714 506.776C881.959 506.776 882.204 506.694 882.367 506.694C882.53 506.694 882.694 506.612 882.694 506.612C882.775 506.531 882.775 506.449 882.775 506.367C882.775 506.122 882.694 505.959 882.612 505.878C882.449 505.714 882.286 505.714 882.041 505.714C881.796 505.714 881.551 505.796 881.388 505.878C881.224 505.959 881.143 506.122 881.061 506.286L880.081 506.122C880.163 505.878 880.326 505.633 880.49 505.388C880.653 505.225 880.898 505.061 881.143 504.98C881.388 504.898 881.714 504.816 882.041 504.816C882.286 504.816 882.449 504.816 882.694 504.898C882.939 504.98 883.102 505.061 883.265 505.143C883.428 505.388 883.592 505.551 883.673 505.714ZM882.775 507.347C882.775 507.347 882.694 507.429 882.612 507.429C882.53 507.429 882.449 507.51 882.367 507.51C882.286 507.51 882.204 507.51 882.041 507.592C881.959 507.592 881.877 507.592 881.796 507.592C881.632 507.592 881.469 507.673 881.388 507.673C881.224 507.755 881.143 507.755 881.061 507.918C880.979 508.082 880.979 508.082 880.979 508.245C880.979 508.408 881.061 508.571 881.224 508.735C881.388 508.816 881.551 508.898 881.796 508.898C882.041 508.898 882.204 508.816 882.367 508.735C882.53 508.653 882.612 508.571 882.775 508.408C882.857 508.245 882.939 508.082 882.939 507.918V507.347H882.775ZM884.979 509.551H886.041V504.98H884.979V509.551ZM885.469 503.102C885.306 503.102 885.143 503.184 885.061 503.265C884.898 503.347 884.898 503.51 884.898 503.673C884.898 503.837 884.979 504 885.061 504.082C885.224 504.163 885.306 504.245 885.469 504.245C885.632 504.245 885.796 504.163 885.877 504.082C886.041 504 886.041 503.837 886.041 503.673C886.041 503.51 885.959 503.347 885.877 503.265C885.796 503.184 885.632 503.102 885.469 503.102ZM887.183 509.551H888.245V503.429H887.183V509.551ZM889.143 504.327H891.02V509.551H892.081V504.327H893.959V503.429H889.061V504.327H889.143ZM898.122 506.041C898.286 506.367 898.367 506.776 898.367 507.265C898.367 507.755 898.286 508.163 898.122 508.49C897.959 508.816 897.714 509.143 897.388 509.306C897.061 509.469 896.653 509.633 896.245 509.633C895.837 509.633 895.428 509.551 895.102 509.306C894.775 509.061 894.53 508.816 894.367 508.49C894.204 508.163 894.122 507.755 894.122 507.265C894.122 506.776 894.204 506.367 894.367 506.041C894.53 505.714 894.775 505.388 895.102 505.225C895.428 505.061 895.837 504.898 896.245 504.898C896.653 504.898 897.061 504.98 897.388 505.225C897.714 505.469 897.959 505.633 898.122 506.041ZM897.306 507.265C897.306 507.02 897.306 506.694 897.224 506.531C897.143 506.286 897.061 506.122 896.898 505.959C896.734 505.796 896.571 505.796 896.326 505.796C896.081 505.796 895.837 505.878 895.673 505.959C895.51 506.041 895.347 506.286 895.265 506.531C895.183 506.776 895.183 507.02 895.183 507.265C895.183 507.51 895.183 507.837 895.265 508C895.347 508.163 895.428 508.408 895.673 508.571C895.837 508.735 896.081 508.735 896.326 508.735C896.571 508.735 896.734 508.653 896.898 508.571C897.061 508.408 897.143 508.245 897.224 508C897.306 507.837 897.306 507.51 897.306 507.265ZM898.775 504.327H900.653V509.551H901.714V504.327H903.592V503.429H898.694V504.327H898.775ZM907.755 506.204C907.837 506.531 907.918 506.857 907.918 507.265V507.592H904.734C904.734 507.837 904.816 508.082 904.898 508.245C904.979 508.408 905.143 508.571 905.306 508.653C905.469 508.735 905.714 508.816 905.959 508.816C906.122 508.816 906.286 508.816 906.367 508.735C906.53 508.653 906.612 508.653 906.694 508.571C906.775 508.49 906.857 508.408 906.939 508.245L907.918 508.327C907.837 508.571 907.755 508.816 907.592 509.061C907.428 509.225 907.183 509.388 906.939 509.551C906.694 509.714 906.367 509.714 905.959 509.714C905.469 509.714 905.061 509.633 904.734 509.388C904.408 509.225 904.163 508.898 904 508.571C903.837 508.245 903.755 507.837 903.755 507.347C903.755 506.857 903.837 506.449 904 506.122C904.163 505.796 904.408 505.469 904.734 505.306C905.061 505.143 905.469 504.98 905.877 504.98C906.122 504.98 906.449 505.061 906.694 505.143C906.939 505.224 907.183 505.388 907.347 505.551C907.51 505.633 907.673 505.878 907.755 506.204ZM906.939 506.857C906.939 506.612 906.857 506.449 906.775 506.286C906.694 506.122 906.53 505.959 906.449 505.878C906.286 505.796 906.122 505.714 905.877 505.714C905.632 505.714 905.469 505.796 905.306 505.878C905.143 505.959 904.979 506.122 904.898 506.286C904.816 506.449 904.734 506.612 904.734 506.776H906.939V506.857ZM912.653 504.98H911.51L910.53 506.694L909.632 504.98H908.49L909.877 507.265L908.49 509.551H909.632L910.612 507.918L911.592 509.551H912.734L911.347 507.265L912.653 504.98ZM915.592 508.653C915.51 508.653 915.51 508.653 915.428 508.653C915.347 508.653 915.265 508.653 915.183 508.571C915.102 508.571 915.02 508.49 915.02 508.408C914.939 508.327 914.939 508.245 914.939 508.082V505.714H915.837V504.898H914.939V503.837H913.877V504.898H913.224V505.714H913.877V508.245C913.877 508.571 913.959 508.735 914.041 508.98C914.204 509.143 914.367 509.306 914.53 509.388C914.775 509.469 915.02 509.551 915.265 509.551C915.428 509.551 915.51 509.551 915.673 509.469C915.755 509.469 915.837 509.388 915.918 509.388L915.755 508.571C915.673 508.653 915.673 508.653 915.592 508.653ZM917.388 508.327C917.224 508.327 917.061 508.408 916.898 508.49C916.734 508.653 916.734 508.735 916.734 508.98C916.734 509.143 916.816 509.306 916.898 509.469C917.061 509.633 917.143 509.633 917.388 509.633C917.469 509.633 917.632 509.633 917.714 509.551C917.796 509.469 917.877 509.388 917.959 509.306C918.041 509.225 918.041 509.061 918.041 508.98C918.041 508.816 917.959 508.653 917.877 508.49C917.714 508.408 917.551 508.327 917.388 508.327ZM920.571 505.959C920.734 505.878 920.898 505.796 921.143 505.796C921.388 505.796 921.632 505.878 921.796 506.041C921.959 506.204 922.041 506.367 922.122 506.612H923.183C923.183 506.286 923.102 505.959 922.857 505.714C922.694 505.469 922.449 505.306 922.204 505.143C921.877 504.98 921.551 504.898 921.224 504.898C920.816 504.898 920.408 504.98 920.081 505.225C919.755 505.388 919.51 505.714 919.347 506.041C919.183 506.367 919.102 506.776 919.102 507.265C919.102 507.755 919.183 508.163 919.347 508.49C919.51 508.816 919.755 509.143 920.081 509.306C920.408 509.469 920.816 509.633 921.224 509.633C921.632 509.633 921.959 509.551 922.204 509.388C922.449 509.225 922.694 509.061 922.857 508.816C923.02 508.571 923.102 508.245 923.183 507.918H922.122C922.122 508.082 922.041 508.245 921.959 508.327C921.877 508.408 921.796 508.49 921.632 508.571C921.469 508.653 921.388 508.653 921.224 508.653C920.979 508.653 920.816 508.571 920.653 508.49C920.49 508.408 920.326 508.163 920.245 508C920.163 507.755 920.081 507.51 920.081 507.184C920.081 506.857 920.163 506.612 920.245 506.367C920.326 506.204 920.408 506.041 920.571 505.959ZM927.918 506.041C928.081 506.367 928.163 506.776 928.163 507.265C928.163 507.755 928.081 508.163 927.918 508.49C927.755 508.816 927.51 509.143 927.183 509.306C926.857 509.469 926.449 509.633 926.041 509.633C925.632 509.633 925.224 509.551 924.898 509.306C924.571 509.061 924.326 508.816 924.163 508.49C924 508.163 923.918 507.755 923.918 507.265C923.918 506.776 924 506.367 924.163 506.041C924.326 505.714 924.571 505.388 924.898 505.225C925.224 505.061 925.632 504.898 926.041 504.898C926.449 504.898 926.857 504.98 927.183 505.225C927.51 505.469 927.755 505.633 927.918 506.041ZM927.102 507.265C927.102 507.02 927.102 506.694 927.02 506.531C926.939 506.286 926.857 506.122 926.694 505.959C926.53 505.796 926.367 505.796 926.122 505.796C925.877 505.796 925.632 505.878 925.469 505.959C925.306 506.041 925.143 506.286 925.061 506.531C924.979 506.776 924.979 507.02 924.979 507.265C924.979 507.51 924.979 507.837 925.061 508C925.143 508.163 925.224 508.408 925.469 508.571C925.632 508.735 925.877 508.735 926.122 508.735C926.367 508.735 926.53 508.653 926.694 508.571C926.857 508.408 926.939 508.245 927.02 508C927.102 507.837 927.102 507.51 927.102 507.265ZM935.183 505.306C934.939 505.061 934.612 504.898 934.122 504.898C933.796 504.898 933.469 504.98 933.224 505.143C932.979 505.306 932.816 505.469 932.734 505.714H932.653C932.571 505.469 932.408 505.225 932.163 505.061C931.918 504.898 931.673 504.816 931.347 504.816C931.02 504.816 930.775 504.898 930.53 505.061C930.286 505.225 930.122 505.388 930.041 505.714H929.959V504.898H928.898V509.551H929.959V506.776C929.959 506.612 929.959 506.449 930.041 506.286C930.122 506.122 930.204 506.041 930.367 505.959C930.53 505.878 930.612 505.878 930.775 505.878C931.02 505.878 931.183 505.959 931.347 506.122C931.51 506.286 931.592 506.449 931.592 506.694V509.551H932.653V506.694C932.653 506.449 932.734 506.204 932.898 506.041C933.061 505.878 933.224 505.796 933.469 505.796C933.714 505.796 933.877 505.878 934.041 505.959C934.204 506.122 934.285 506.286 934.285 506.612V509.551H935.347V506.449C935.592 505.959 935.428 505.551 935.183 505.306Z" fill="black"/>
</g>
<defs>
<clipPath id="clip0_2090_2">
<rect width="180" height="44" fill="white" transform="translate(756 472)"/>
</clipPath>
</defs>
</svg>
