<svg width="180" height="44" viewBox="0 0 180 44" fill="none" xmlns="http://www.w3.org/2000/svg">
<g clip-path="url(#clip0_2007_263)">
<path fill-rule="evenodd" clip-rule="evenodd" d="M48.8163 0H8.16327L0 10.8571H16.898L13.3061 28.8163L24.8163 28.898L21.551 43.9184L37.7143 22.0408L26.2857 22.1224L28.8163 10.7755H40.6531L48.8163 0Z" fill="#FF6600"/>
<path fill-rule="evenodd" clip-rule="evenodd" d="M59.2653 25.1429V11.3469H52.4082V6.61224H71.0204V11.3469H64.1633V25.1429H59.2653ZM78.6939 25.1429H86.449V21.2245H78.6939C78.2858 21.2245 77.9592 21.1429 77.5511 21.0612C77.2245 20.898 76.898 20.7347 76.5715 20.4082C76.3266 20.0816 76.0817 19.6735 75.9184 19.2653C75.7551 18.8571 75.7551 18.3673 75.7551 17.9592C75.6735 17.0612 76 16.1633 76.5715 15.4286C76.8164 15.102 77.1429 14.9388 77.5511 14.7755C77.8776 14.6122 78.2858 14.5306 78.6939 14.5306H81.6327C81.796 14.5306 81.9592 14.5306 82.0409 14.5306C82.2041 14.6122 82.2858 14.6122 82.449 14.7755C82.5307 14.8571 82.6123 15.0204 82.6939 15.1837C82.7756 15.3469 82.7756 15.4286 82.7756 15.5918C82.7756 16.2449 82.3674 16.5714 81.6327 16.5714H77.5511V19.1837H82.6123C83.8368 19.2653 85.1429 18.9388 86.2041 18.2041C86.6123 17.8775 86.8572 17.3878 87.1021 16.898C87.2653 16.4082 87.347 15.9184 87.347 15.3469C87.347 14.6939 87.2653 14.1224 87.0204 13.4694C86.8572 12.898 86.5307 12.4082 86.1225 12C85.7143 11.5918 85.1429 11.2653 84.5715 11.0204C83.9184 10.7755 83.1837 10.6939 82.449 10.6939H78.8572C77.796 10.6939 76.8164 10.8571 75.8368 11.1837C74.9388 11.5102 74.1225 12 73.3878 12.6531C72.7347 13.3061 72.1633 14.0408 71.7551 14.9388C71.347 15.8367 71.1837 16.8163 71.1837 17.7959C71.1837 18.7755 71.347 19.7551 71.7551 20.7347C72.1633 21.6326 72.6531 22.3673 73.3878 23.0204C74.1225 23.6735 74.9388 24.1633 75.8368 24.4898C76.6531 24.9796 77.7143 25.2245 78.6939 25.1429ZM101.061 25.1429L97.3062 20.8163L93.7143 25.1429H88.2449L94.6123 17.7143L88.7347 10.8571H94.3674L97.5511 14.5306L100.735 10.8571H106.122L100.245 17.7143L106.694 25.1429H101.061ZM113.061 25.1429C112.327 25.2245 111.674 25.1429 110.939 24.898C110.286 24.6531 109.633 24.3265 109.143 23.8367C108.245 22.7755 107.755 21.3878 107.837 20V6.93877H112.571V11.0204H118.286V14.9388H112.571V19.5918C112.571 19.8367 112.571 20.0816 112.653 20.2449C112.735 20.4898 112.816 20.6531 112.98 20.8163C113.143 20.9796 113.306 21.0612 113.551 21.1429C113.796 21.2245 114.041 21.2245 114.204 21.2245H118.122V25.1429H113.061Z" fill="black"/>
<path fill-rule="evenodd" clip-rule="evenodd" d="M120.98 25.1428V6.61221H134.367C135.265 6.61221 136.082 6.69384 136.898 7.02037C137.551 7.26527 138.123 7.5918 138.612 8.0816C139.021 8.48976 139.429 9.06119 139.592 9.63262C139.837 10.2857 139.919 10.9387 139.919 11.5918C139.919 12.4898 139.755 13.3061 139.347 14.0408C139.021 14.6938 138.449 15.1836 137.796 15.4285C138.531 15.6734 139.184 16.1632 139.592 16.8979C140.082 17.7959 140.327 18.7755 140.327 19.7551C140.327 20.4898 140.245 21.2245 140 21.9591C139.755 22.6122 139.265 23.2653 138.776 23.7551C137.47 24.8163 135.837 25.3061 134.204 25.2245H120.98V25.1428ZM127.674 17.7142V13.8775H133.796C134.204 13.8775 134.531 13.7959 134.776 13.551C134.939 13.3877 135.021 13.2245 135.021 13.0612C135.102 12.8979 135.102 12.7347 135.102 12.4898C135.102 12.3265 135.102 12.1632 135.021 11.9183C134.939 11.7551 134.857 11.5918 134.776 11.4285C134.531 11.1836 134.123 11.102 133.796 11.102H125.959V20.4081H134.041C135.021 20.4081 135.51 20 135.51 19.102C135.51 18.9387 135.51 18.6938 135.429 18.5306C135.347 18.3673 135.265 18.204 135.102 18.0408C134.939 17.8775 134.776 17.7959 134.612 17.7142C134.449 17.6326 134.204 17.6326 134.041 17.6326H127.674V17.7142ZM151.755 20.8163C152.49 20.8163 153.306 20.5714 153.796 20.0816C154.041 19.8367 154.286 19.5102 154.449 19.1836C154.612 18.8571 154.694 18.4489 154.612 18.1224C154.612 17.7142 154.531 17.3877 154.449 17.0612C154.286 16.7347 154.123 16.4081 153.796 16.1632C153.225 15.6734 152.49 15.3469 151.755 15.4285H149.714C148.98 15.4285 148.163 15.6734 147.592 16.1632C147.347 16.4081 147.102 16.7347 146.939 17.0612C146.776 17.3877 146.776 17.7959 146.776 18.1224C146.776 18.5306 146.857 18.8571 146.939 19.1836C147.102 19.5102 147.265 19.8367 147.592 20.0816C147.919 20.3265 148.163 20.5714 148.572 20.653C148.898 20.8163 149.306 20.8163 149.714 20.8163H151.755ZM149.796 25.1428C148.735 25.1428 147.755 24.9796 146.776 24.653C145.878 24.3265 145.061 23.8367 144.327 23.1836C143.674 22.5306 143.102 21.7959 142.694 20.8979C142.286 20 142.123 19.0204 142.123 17.9591C142.123 16.9796 142.286 16 142.694 15.102C143.102 14.204 143.592 13.4694 144.327 12.8163C145.061 12.1632 145.878 11.6734 146.776 11.3469C147.755 11.0204 148.816 10.8571 149.796 10.8571H151.837C152.898 10.8571 153.878 11.0204 154.857 11.3469C155.755 11.6734 156.572 12.1632 157.306 12.8163C157.959 13.4694 158.531 14.204 158.939 15.102C159.347 16 159.51 16.9796 159.51 17.9591C159.51 18.9387 159.347 19.9183 158.939 20.8979C158.531 21.7959 158.041 22.5306 157.306 23.1836C156.572 23.8367 155.755 24.3265 154.857 24.653C153.878 24.9796 152.816 25.1428 151.837 25.1428H149.796ZM161.714 5.14282H166.449V25.1428H161.714V5.14282ZM174.367 25.1428C173.633 25.2245 172.98 25.0612 172.245 24.8979C171.592 24.653 170.939 24.3265 170.449 23.8367C169.551 22.7755 169.061 21.3877 169.143 20V6.93874H173.878V11.0204H179.592V14.9387H173.878V19.5918C173.878 19.8367 173.878 20.0816 173.959 20.2449C174.041 20.4898 174.123 20.653 174.286 20.8163C174.449 20.9796 174.612 21.0612 174.857 21.1428C175.102 21.2245 175.347 21.2245 175.51 21.2245H179.429V25.1428H174.367Z" fill="#FF6600"/>
<path d="M53.0613 31.4286H56.8164V32.2449H53.9592V34.1225H56.5715V34.9388H53.9592V37.551H53.0613V31.4286ZM61.3878 34.0408C61.5511 34.3674 61.6327 34.7755 61.6327 35.2653C61.6327 35.7551 61.5511 36.1633 61.3878 36.4898C61.2245 36.8163 60.9796 37.1429 60.6531 37.3061C60.3266 37.4694 59.9184 37.6327 59.5103 37.6327C59.1021 37.6327 58.6939 37.551 58.3674 37.3061C58.0409 37.1429 57.796 36.8163 57.6327 36.4898C57.4694 36.1633 57.3878 35.7551 57.3878 35.2653C57.3878 34.7755 57.4694 34.3674 57.6327 34.0408C57.796 33.7143 58.0409 33.3878 58.3674 33.2245C58.6939 33.0612 59.1021 32.898 59.5103 32.898C59.9184 32.898 60.3266 32.9796 60.6531 33.2245C60.9796 33.3878 61.2245 33.6327 61.3878 34.0408ZM60.7347 35.2653C60.7347 34.9388 60.6531 34.6939 60.5715 34.449C60.4898 34.2041 60.3266 34.0408 60.1633 33.8776C60.0001 33.7143 59.7552 33.6327 59.5103 33.6327C59.2654 33.6327 59.0205 33.7143 58.7756 33.8776C58.6123 34.0408 58.449 34.2041 58.3674 34.449C58.2858 34.6939 58.2041 34.9388 58.2041 35.2653C58.2041 35.5918 58.2858 35.8367 58.3674 36.0816C58.449 36.3265 58.6123 36.4898 58.7756 36.6531C58.9388 36.8163 59.1837 36.898 59.5103 36.898C59.7552 36.898 60.0001 36.8163 60.1633 36.6531C60.3266 36.4898 60.4898 36.3265 60.5715 36.0816C60.7347 35.8367 60.7347 35.5918 60.7347 35.2653ZM64.7347 32.898C64.4899 32.898 64.245 32.9796 64.0001 33.1429C63.7552 33.3061 63.6735 33.4694 63.5919 33.7143H63.5103V32.9796H62.6123V37.551H63.5103V34.7755C63.5103 34.6123 63.5919 34.3674 63.6735 34.2041C63.7552 34.0408 63.9184 33.9592 64.0817 33.7959C64.245 33.7143 64.4082 33.6327 64.6531 33.6327C64.7347 33.6327 64.8164 33.6327 64.898 33.6327C64.9796 33.6327 65.0613 33.6327 65.0613 33.6327V32.8163C64.9796 32.8163 64.9796 32.8163 64.898 32.8163C64.898 32.898 64.8164 32.898 64.7347 32.898ZM70.6939 32.898C70.3674 32.898 70.0409 32.9796 69.8776 33.1429C69.6327 33.3061 69.4694 33.4694 69.3878 33.7143H69.3062C69.2245 33.4694 69.0613 33.3061 68.8164 33.1429C68.5715 32.9796 68.3266 32.898 68.0817 32.898C67.7552 32.898 67.5103 32.9796 67.2654 33.1429C67.0205 33.3061 66.8572 33.4694 66.7756 33.7143H66.6939V32.9796H65.796V37.551H66.6939V34.6939C66.6939 34.449 66.7756 34.2857 66.8572 34.1225C66.9388 33.9592 67.0205 33.8776 67.1837 33.7143C67.347 33.6327 67.5103 33.551 67.6735 33.551C67.9184 33.551 68.1633 33.6327 68.2449 33.7959C68.4082 33.9592 68.4898 34.1225 68.4898 34.3674V37.551H69.3878V34.6123C69.3878 34.3674 69.4694 34.1225 69.6327 33.9592C69.796 33.7959 70.0409 33.7143 70.2858 33.7143C70.5307 33.7143 70.6939 33.7959 70.8572 33.9592C71.0205 34.1225 71.1021 34.2857 71.1021 34.6123V37.551H72V34.449C72 33.9592 71.8368 33.551 71.5919 33.3061C71.5103 33.0612 71.1021 32.898 70.6939 32.898ZM77.1429 34.1225C77.2245 34.449 77.3062 34.7755 77.3062 35.1837V35.5102H74.0409C74.0409 35.7551 74.1225 36 74.2041 36.2449C74.2858 36.4898 74.449 36.6531 74.6939 36.7347C74.8572 36.8163 75.1021 36.898 75.347 36.898C75.5103 36.898 75.6735 36.898 75.8368 36.8163C76.0001 36.7347 76.0817 36.7347 76.1633 36.5714C76.245 36.4898 76.3266 36.3265 76.4082 36.2449L77.2245 36.4082C77.1429 36.6531 77.0613 36.898 76.898 37.0612C76.7347 37.2245 76.4898 37.3878 76.2449 37.4694C76.0001 37.551 75.6735 37.6327 75.347 37.6327C74.8572 37.6327 74.5307 37.551 74.2041 37.3061C73.8776 37.1429 73.6327 36.8163 73.4694 36.4898C73.3062 36.1633 73.2245 35.7551 73.2245 35.2653C73.2245 34.7755 73.3062 34.3674 73.4694 34.0408C73.6327 33.7143 73.8776 33.3878 74.2041 33.2245C74.5307 33.0612 74.8572 32.898 75.347 32.898C75.5919 32.898 75.8368 32.9796 76.0817 33.0612C76.3266 33.1429 76.5715 33.3061 76.7347 33.4694C76.8164 33.6327 76.9796 33.8776 77.1429 34.1225ZM76.4082 34.8572C76.4082 34.6123 76.3266 34.449 76.2449 34.2041C76.1633 33.9592 76.0001 33.8776 75.8368 33.7959C75.6735 33.7143 75.4286 33.6327 75.2654 33.6327C75.0205 33.6327 74.7756 33.7143 74.6123 33.7959C74.449 33.9592 74.2858 34.0408 74.2041 34.2857C74.1225 34.449 74.0409 34.6123 74.0409 34.8572H76.4082ZM80.3266 32.898C80.0817 32.898 79.8368 32.9796 79.5919 33.1429C79.347 33.3061 79.2654 33.4694 79.1837 33.7143V32.9796H78.2858V37.551H79.1837V34.7755C79.1837 34.6123 79.2654 34.3674 79.347 34.2041C79.4286 34.0408 79.5919 33.9592 79.7551 33.7959C79.9184 33.7143 80.0817 33.6327 80.3266 33.6327C80.4082 33.6327 80.4898 33.6327 80.5715 33.6327C80.6531 33.6327 80.7347 33.6327 80.7347 33.6327V32.8163C80.6531 32.8163 80.6531 32.8163 80.5715 32.8163C80.4898 32.898 80.4082 32.898 80.3266 32.898ZM81.5511 37.551H82.449V31.4286H81.5511V37.551ZM85.3878 36.4898L84.1633 32.898H83.2654L84.9796 37.551L84.898 37.8776C84.8164 38.0408 84.7347 38.2041 84.6531 38.2857C84.5715 38.3674 84.4082 38.449 84.3266 38.449C84.1633 38.449 84.0817 38.449 83.9184 38.3674L83.6735 39.1021C83.7552 39.1021 83.8368 39.1837 83.9184 39.1837C84.0001 39.1837 84.1633 39.1837 84.2449 39.1837C84.4898 39.1837 84.7347 39.1021 84.898 39.0204C85.0613 38.9388 85.2245 38.7755 85.3878 38.6123C85.5511 38.449 85.6327 38.2041 85.7143 38.0408L87.5919 32.8163H86.6123L85.3878 36.4898ZM94.5307 34.6123C94.3674 34.449 94.2041 34.3674 93.9592 34.2857C93.7143 34.2041 93.5511 34.1225 93.3062 34.0408L92.7347 33.8776C92.5715 33.8776 92.4898 33.7959 92.3266 33.7959C92.1633 33.7143 92.0817 33.7143 92 33.6327C91.9184 33.551 91.8368 33.4694 91.7551 33.3878C91.6735 33.3061 91.6735 33.1429 91.6735 33.0612C91.6735 32.898 91.7551 32.7347 91.8368 32.6531C91.9184 32.5714 92.0817 32.4082 92.2449 32.4082C92.4082 32.3265 92.5715 32.3265 92.8164 32.3265C93.1429 32.3265 93.3878 32.4082 93.6327 32.5714C93.8776 32.7347 93.9592 32.898 93.9592 33.1429H95.0205C95.0205 32.8163 94.9388 32.4898 94.6939 32.2449C94.5307 32 94.2858 31.7551 93.9592 31.5918C93.6327 31.4286 93.2245 31.347 92.8164 31.347C92.4082 31.347 92 31.4286 91.6735 31.5918C91.347 31.7551 91.1021 31.9184 90.8572 32.2449C90.6123 32.5714 90.5307 32.8163 90.5307 33.2245C90.5307 33.6327 90.6939 34.0408 90.9388 34.2857C91.2654 34.5306 91.5919 34.7755 92.1633 34.8572L92.898 35.0204C93.1429 35.1021 93.3062 35.1021 93.4694 35.1837C93.6327 35.2653 93.796 35.347 93.8776 35.4286C93.9592 35.5102 94.0409 35.6735 94.0409 35.8367C94.0409 36 93.9592 36.1633 93.8776 36.3265C93.796 36.4898 93.6327 36.5714 93.4694 36.6531C93.3062 36.7347 93.0613 36.7347 92.8164 36.7347C92.5715 36.7347 92.4082 36.7347 92.1633 36.6531C92 36.5714 91.8368 36.4898 91.6735 36.3265C91.5919 36.1633 91.5103 36 91.5103 35.7551H90.449C90.449 36.1633 90.5307 36.4898 90.7756 36.8163C90.9388 37.0612 91.2654 37.3061 91.5919 37.4694C91.9184 37.6327 92.3266 37.7143 92.8164 37.7143C93.3062 37.7143 93.7143 37.6327 94.0409 37.4694C94.3674 37.3061 94.6123 37.1429 94.8572 36.8163C95.0205 36.5714 95.1021 36.2449 95.1021 35.8367C95.1021 35.5918 95.0205 35.3469 94.9388 35.1837C94.8572 34.9388 94.6939 34.7755 94.5307 34.6123ZM99.9184 34.2041C100 34.5306 100.082 34.8572 100.082 35.2653V35.5918H96.898C96.898 35.8367 96.9796 36.0816 97.0613 36.2449C97.1429 36.4082 97.3062 36.5714 97.4694 36.6531C97.6327 36.7347 97.8776 36.8163 98.1225 36.8163C98.2858 36.8163 98.449 36.8163 98.5307 36.7347C98.6939 36.6531 98.7756 36.6531 98.8572 36.5714C98.9388 36.4898 99.0205 36.4082 99.1021 36.2449L100.082 36.3265C100 36.5714 99.9184 36.8163 99.7551 37.0612C99.5919 37.3061 99.347 37.3878 99.1021 37.551C98.8572 37.6327 98.5307 37.7143 98.1225 37.7143C97.6327 37.7143 97.2245 37.6327 96.898 37.3878C96.5715 37.2245 96.3266 36.898 96.1633 36.5714C96 36.2449 95.9184 35.8367 95.9184 35.3469C95.9184 34.8572 96 34.449 96.1633 34.1225C96.3266 33.7959 96.5715 33.4694 96.898 33.3061C97.2245 33.1429 97.6327 32.9796 98.0409 32.9796C98.2858 32.9796 98.6123 33.0612 98.8572 33.1429C99.1021 33.2245 99.347 33.3878 99.5103 33.551C99.6735 33.6327 99.8368 33.8776 99.9184 34.2041ZM99.0205 34.8572C99.0205 34.6123 98.9388 34.449 98.8572 34.2857C98.7756 34.1225 98.6123 33.9592 98.5307 33.8776C98.3674 33.7959 98.2041 33.7143 97.9592 33.7143C97.7143 33.7143 97.5511 33.7959 97.3878 33.8776C97.2245 33.9592 97.0613 34.1225 96.9796 34.2857C96.898 34.449 96.8164 34.6123 96.8164 34.7755H99.0205V34.8572ZM104.327 33.1429C104.082 32.9796 103.837 32.9796 103.51 32.9796C103.184 32.9796 102.857 33.0612 102.612 33.2245C102.367 33.3878 102.204 33.551 102.122 33.8776H102.041V33.0612H100.98V37.551H102.041V34.8572C102.041 34.6123 102.122 34.449 102.204 34.2857C102.286 34.1225 102.367 34.0408 102.531 33.9592C102.694 33.8776 102.857 33.7959 103.02 33.7959C103.265 33.7959 103.51 33.8776 103.674 34.0408C103.837 34.2041 103.918 34.449 103.918 34.7755V37.551H104.98V34.6123C104.98 34.2857 104.898 33.9592 104.816 33.7143C104.735 33.4694 104.571 33.2245 104.327 33.1429ZM109.225 31.4286H110.286V37.551H109.225V36.8163H109.143C109.061 36.898 108.98 37.0612 108.898 37.1429C108.816 37.3061 108.653 37.3878 108.49 37.4694C108.327 37.551 108.082 37.6327 107.837 37.6327C107.51 37.6327 107.184 37.551 106.857 37.3878C106.612 37.2245 106.367 36.898 106.204 36.5714C106.041 36.2449 105.959 35.7551 105.959 35.2653C105.959 34.7755 106.041 34.2857 106.204 33.9592C106.367 33.6327 106.612 33.3061 106.857 33.1429C107.184 32.9796 107.429 32.898 107.837 32.898C108.082 32.898 108.327 32.9796 108.49 33.0612C108.653 33.1429 108.816 33.2245 108.898 33.3878C108.98 33.551 109.061 33.6327 109.143 33.7143H109.225V31.4286ZM109.225 35.2653C109.225 34.9388 109.143 34.6939 109.061 34.5306C108.98 34.2857 108.816 34.1225 108.735 34.0408C108.571 33.9592 108.408 33.8776 108.163 33.8776C107.918 33.8776 107.755 33.9592 107.592 34.0408C107.429 34.2041 107.347 34.3674 107.265 34.5306C107.184 34.7755 107.102 35.0204 107.102 35.2653C107.102 35.5918 107.184 35.8367 107.265 36C107.347 36.2449 107.51 36.4082 107.674 36.4898C107.837 36.6531 108 36.6531 108.245 36.6531C108.49 36.6531 108.653 36.5714 108.816 36.4898C108.98 36.3265 109.061 36.1633 109.225 36C109.225 35.8367 109.225 35.5918 109.225 35.2653ZM112.571 34.9388H115.265V34.0408H112.571V32.4082H115.429V31.5102H111.429V37.551H115.429V36.6531H112.571V34.9388ZM121.551 32.898C121.225 32.898 120.898 32.9796 120.653 33.1429C120.408 33.3061 120.245 33.4694 120.163 33.7143H120.082C120 33.4694 119.837 33.2245 119.592 33.0612C119.347 32.898 119.102 32.8163 118.776 32.8163C118.449 32.8163 118.204 32.898 117.959 33.0612C117.714 33.2245 117.551 33.3878 117.469 33.7143H117.388V32.898H116.327V37.551H117.388V34.7755C117.388 34.6123 117.388 34.449 117.469 34.2857C117.551 34.1225 117.633 34.0408 117.796 33.9592C117.959 33.8776 118.041 33.8776 118.204 33.8776C118.449 33.8776 118.612 33.9592 118.776 34.1225C118.939 34.2857 119.02 34.449 119.02 34.6939V37.551H120.082V34.6939C120.082 34.449 120.163 34.2041 120.327 34.0408C120.49 33.8776 120.653 33.7959 120.898 33.7959C121.143 33.7959 121.306 33.8776 121.469 33.9592C121.633 34.1225 121.714 34.2857 121.714 34.6123V37.551H122.776V34.449C122.776 33.9592 122.612 33.551 122.367 33.3061C122.367 33.0612 122.041 32.898 121.551 32.898ZM127.674 33.7143C127.755 33.8776 127.837 34.2041 127.837 34.449V37.551H126.776V36.898C126.694 37.0612 126.612 37.1429 126.531 37.2245C126.449 37.3061 126.286 37.3878 126.122 37.4694C125.959 37.551 125.714 37.551 125.469 37.551C125.143 37.551 124.898 37.4694 124.653 37.3878C124.408 37.3061 124.245 37.1429 124.082 36.898C123.918 36.6531 123.918 36.4082 123.918 36.1633C123.918 35.9184 124 35.6735 124.082 35.5102C124.163 35.347 124.327 35.1837 124.49 35.1021C124.653 35.0204 124.816 34.9388 125.061 34.8572C125.306 34.7755 125.469 34.7755 125.714 34.7755C125.959 34.7755 126.204 34.6939 126.367 34.6939C126.531 34.6939 126.694 34.6123 126.694 34.6123C126.776 34.5306 126.776 34.449 126.776 34.3674C126.776 34.1225 126.694 33.9592 126.612 33.8776C126.449 33.7143 126.286 33.7143 126.041 33.7143C125.796 33.7143 125.551 33.7959 125.388 33.8776C125.225 33.9592 125.143 34.1225 125.061 34.2857L124.082 34.1225C124.163 33.8776 124.327 33.6327 124.49 33.3878C124.653 33.2245 124.898 33.0612 125.143 32.9796C125.388 32.898 125.714 32.8163 126.041 32.8163C126.286 32.8163 126.449 32.8163 126.694 32.898C126.939 32.9796 127.102 33.0612 127.265 33.1429C127.429 33.3878 127.592 33.551 127.674 33.7143ZM126.776 35.3469C126.776 35.3469 126.694 35.4286 126.612 35.4286C126.531 35.4286 126.449 35.5102 126.367 35.5102C126.286 35.5102 126.204 35.5102 126.041 35.5918C125.959 35.5918 125.878 35.5918 125.796 35.5918C125.633 35.5918 125.469 35.6735 125.388 35.6735C125.225 35.7551 125.143 35.7551 125.061 35.9184C124.98 36.0816 124.98 36.0816 124.98 36.2449C124.98 36.4082 125.061 36.5714 125.225 36.7347C125.388 36.8163 125.551 36.898 125.796 36.898C126.041 36.898 126.204 36.8163 126.367 36.7347C126.531 36.6531 126.612 36.5714 126.776 36.4082C126.857 36.2449 126.939 36.0816 126.939 35.9184V35.3469H126.776ZM128.98 37.551H130.041V32.9796H128.98V37.551ZM129.469 31.1021C129.306 31.1021 129.143 31.1837 129.061 31.2653C128.898 31.3469 128.898 31.5102 128.898 31.6735C128.898 31.8367 128.98 32 129.061 32.0816C129.225 32.1633 129.306 32.2449 129.469 32.2449C129.633 32.2449 129.796 32.1633 129.878 32.0816C130.041 32 130.041 31.8367 130.041 31.6735C130.041 31.5102 129.959 31.3469 129.878 31.2653C129.796 31.1837 129.633 31.1021 129.469 31.1021ZM131.184 37.551H132.245V31.4286H131.184V37.551ZM133.143 32.3265H135.02V37.551H136.082V32.3265H137.959V31.4286H133.061V32.3265H133.143ZM142.122 34.0408C142.286 34.3674 142.367 34.7755 142.367 35.2653C142.367 35.7551 142.286 36.1633 142.122 36.4898C141.959 36.8163 141.714 37.1429 141.388 37.3061C141.061 37.4694 140.653 37.6327 140.245 37.6327C139.837 37.6327 139.429 37.551 139.102 37.3061C138.776 37.0612 138.531 36.8163 138.367 36.4898C138.204 36.1633 138.122 35.7551 138.122 35.2653C138.122 34.7755 138.204 34.3674 138.367 34.0408C138.531 33.7143 138.776 33.3878 139.102 33.2245C139.429 33.0612 139.837 32.898 140.245 32.898C140.653 32.898 141.061 32.9796 141.388 33.2245C141.714 33.4694 141.959 33.6327 142.122 34.0408ZM141.306 35.2653C141.306 35.0204 141.306 34.6939 141.225 34.5306C141.143 34.2857 141.061 34.1225 140.898 33.9592C140.735 33.7959 140.571 33.7959 140.327 33.7959C140.082 33.7959 139.837 33.8776 139.674 33.9592C139.51 34.0408 139.347 34.2857 139.265 34.5306C139.184 34.7755 139.184 35.0204 139.184 35.2653C139.184 35.5102 139.184 35.8367 139.265 36C139.347 36.1633 139.429 36.4082 139.674 36.5714C139.837 36.7347 140.082 36.7347 140.327 36.7347C140.571 36.7347 140.735 36.6531 140.898 36.5714C141.061 36.4082 141.143 36.2449 141.225 36C141.306 35.8367 141.306 35.5102 141.306 35.2653ZM142.776 32.3265H144.653V37.551H145.714V32.3265H147.592V31.4286H142.694V32.3265H142.776ZM151.755 34.2041C151.837 34.5306 151.918 34.8572 151.918 35.2653V35.5918H148.735C148.735 35.8367 148.816 36.0816 148.898 36.2449C148.98 36.4082 149.143 36.5714 149.306 36.6531C149.469 36.7347 149.714 36.8163 149.959 36.8163C150.122 36.8163 150.286 36.8163 150.367 36.7347C150.531 36.6531 150.612 36.6531 150.694 36.5714C150.776 36.4898 150.857 36.4082 150.939 36.2449L151.918 36.3265C151.837 36.5714 151.755 36.8163 151.592 37.0612C151.429 37.2245 151.184 37.3878 150.939 37.551C150.694 37.7143 150.367 37.7143 149.959 37.7143C149.469 37.7143 149.061 37.6327 148.735 37.3878C148.408 37.2245 148.163 36.898 148 36.5714C147.837 36.2449 147.755 35.8367 147.755 35.3469C147.755 34.8572 147.837 34.449 148 34.1225C148.163 33.7959 148.408 33.4694 148.735 33.3061C149.061 33.1429 149.469 32.9796 149.878 32.9796C150.122 32.9796 150.449 33.0612 150.694 33.1429C150.939 33.2245 151.184 33.3878 151.347 33.551C151.51 33.6327 151.674 33.8776 151.755 34.2041ZM150.939 34.8572C150.939 34.6123 150.857 34.449 150.776 34.2857C150.694 34.1225 150.531 33.9592 150.449 33.8776C150.286 33.7959 150.122 33.7143 149.878 33.7143C149.633 33.7143 149.469 33.7959 149.306 33.8776C149.143 33.9592 148.98 34.1225 148.898 34.2857C148.816 34.449 148.735 34.6123 148.735 34.7755H150.939V34.8572ZM156.653 32.9796H155.51L154.531 34.6939L153.633 32.9796H152.49L153.878 35.2653L152.49 37.551H153.633L154.612 35.9184L155.592 37.551H156.735L155.347 35.2653L156.653 32.9796ZM159.592 36.6531C159.51 36.6531 159.51 36.6531 159.429 36.6531C159.347 36.6531 159.265 36.6531 159.184 36.5714C159.102 36.5714 159.02 36.4898 159.02 36.4082C158.939 36.3265 158.939 36.2449 158.939 36.0816V33.7143H159.837V32.898H158.939V31.8367H157.878V32.898H157.225V33.7143H157.878V36.2449C157.878 36.5714 157.959 36.7347 158.041 36.9796C158.204 37.1429 158.367 37.3061 158.531 37.3878C158.776 37.4694 159.02 37.551 159.265 37.551C159.429 37.551 159.51 37.551 159.674 37.4694C159.755 37.4694 159.837 37.3878 159.918 37.3878L159.755 36.5714C159.674 36.6531 159.674 36.6531 159.592 36.6531ZM161.388 36.3265C161.225 36.3265 161.061 36.4082 160.898 36.4898C160.735 36.6531 160.735 36.7347 160.735 36.9796C160.735 37.1429 160.816 37.3061 160.898 37.4694C161.061 37.6327 161.143 37.6327 161.388 37.6327C161.469 37.6327 161.633 37.6327 161.714 37.551C161.796 37.4694 161.878 37.3878 161.959 37.3061C162.041 37.2245 162.041 37.0612 162.041 36.9796C162.041 36.8163 161.959 36.6531 161.878 36.4898C161.714 36.4082 161.551 36.3265 161.388 36.3265ZM164.571 33.9592C164.735 33.8776 164.898 33.7959 165.143 33.7959C165.388 33.7959 165.633 33.8776 165.796 34.0408C165.959 34.2041 166.041 34.3674 166.122 34.6123H167.184C167.184 34.2857 167.102 33.9592 166.857 33.7143C166.694 33.4694 166.449 33.3061 166.204 33.1429C165.878 32.9796 165.551 32.898 165.225 32.898C164.816 32.898 164.408 32.9796 164.082 33.2245C163.755 33.3878 163.51 33.7143 163.347 34.0408C163.184 34.3674 163.102 34.7755 163.102 35.2653C163.102 35.7551 163.184 36.1633 163.347 36.4898C163.51 36.8163 163.755 37.1429 164.082 37.3061C164.408 37.4694 164.816 37.6327 165.225 37.6327C165.633 37.6327 165.959 37.551 166.204 37.3878C166.449 37.2245 166.694 37.0612 166.857 36.8163C167.02 36.5714 167.102 36.2449 167.184 35.9184H166.122C166.122 36.0816 166.041 36.2449 165.959 36.3265C165.878 36.4082 165.796 36.4898 165.633 36.5714C165.469 36.6531 165.388 36.6531 165.225 36.6531C164.98 36.6531 164.816 36.5714 164.653 36.4898C164.49 36.4082 164.327 36.1633 164.245 36C164.163 35.7551 164.082 35.5102 164.082 35.1837C164.082 34.8572 164.163 34.6123 164.245 34.3674C164.327 34.2041 164.408 34.0408 164.571 33.9592ZM171.918 34.0408C172.082 34.3674 172.163 34.7755 172.163 35.2653C172.163 35.7551 172.082 36.1633 171.918 36.4898C171.755 36.8163 171.51 37.1429 171.184 37.3061C170.857 37.4694 170.449 37.6327 170.041 37.6327C169.633 37.6327 169.225 37.551 168.898 37.3061C168.571 37.0612 168.327 36.8163 168.163 36.4898C168 36.1633 167.918 35.7551 167.918 35.2653C167.918 34.7755 168 34.3674 168.163 34.0408C168.327 33.7143 168.571 33.3878 168.898 33.2245C169.225 33.0612 169.633 32.898 170.041 32.898C170.449 32.898 170.857 32.9796 171.184 33.2245C171.51 33.4694 171.755 33.6327 171.918 34.0408ZM171.102 35.2653C171.102 35.0204 171.102 34.6939 171.02 34.5306C170.939 34.2857 170.857 34.1225 170.694 33.9592C170.531 33.7959 170.367 33.7959 170.122 33.7959C169.878 33.7959 169.633 33.8776 169.469 33.9592C169.306 34.0408 169.143 34.2857 169.061 34.5306C168.98 34.7755 168.98 35.0204 168.98 35.2653C168.98 35.5102 168.98 35.8367 169.061 36C169.143 36.1633 169.225 36.4082 169.469 36.5714C169.633 36.7347 169.878 36.7347 170.122 36.7347C170.367 36.7347 170.531 36.6531 170.694 36.5714C170.857 36.4082 170.939 36.2449 171.02 36C171.102 35.8367 171.102 35.5102 171.102 35.2653ZM179.184 33.3061C178.939 33.0612 178.612 32.898 178.122 32.898C177.796 32.898 177.469 32.9796 177.225 33.1429C176.98 33.3061 176.816 33.4694 176.735 33.7143H176.653C176.571 33.4694 176.408 33.2245 176.163 33.0612C175.918 32.898 175.674 32.8163 175.347 32.8163C175.02 32.8163 174.776 32.898 174.531 33.0612C174.286 33.2245 174.122 33.3878 174.041 33.7143H173.959V32.898H172.898V37.551H173.959V34.7755C173.959 34.6123 173.959 34.449 174.041 34.2857C174.122 34.1225 174.204 34.0408 174.367 33.9592C174.531 33.8776 174.612 33.8776 174.776 33.8776C175.02 33.8776 175.184 33.9592 175.347 34.1225C175.51 34.2857 175.592 34.449 175.592 34.6939V37.551H176.653V34.6939C176.653 34.449 176.735 34.2041 176.898 34.0408C177.061 33.8776 177.225 33.7959 177.469 33.7959C177.714 33.7959 177.878 33.8776 178.041 33.9592C178.204 34.1225 178.286 34.2857 178.286 34.6123V37.551H179.347V34.449C179.592 33.9592 179.429 33.551 179.184 33.3061Z" fill="black"/>
</g>
<defs>
<clipPath id="clip0_2007_263">
<rect width="180" height="44" fill="white"/>
</clipPath>
</defs>
</svg>
