<svg width="1200" height="675" viewBox="0 0 1200 675" fill="none" xmlns="http://www.w3.org/2000/svg">
<path d="M842 611C842 583.386 864.386 561 892 561H1200V675H842V611Z" fill="white"/>
<g clip-path="url(#clip0_89_2)">
<path d="M947.385 610.175C948.266 609.553 949.354 609.294 950.546 609.294C951.738 609.294 951.842 609.397 952.412 609.605C952.982 609.812 953.5 610.071 953.966 610.434C954.433 610.796 954.796 611.211 955.055 611.729C955.314 612.248 955.521 612.818 955.625 613.491H960.652C960.496 612.144 960.133 610.9 959.563 609.864C958.993 608.827 958.268 607.894 957.335 607.169C956.454 606.443 955.417 605.873 954.226 605.51C953.034 605.148 951.79 604.94 950.442 604.94C948.369 604.94 946.504 605.407 944.845 606.34C943.187 607.272 941.892 608.672 940.907 610.434C939.922 612.248 939.456 614.424 939.456 616.963C939.456 619.503 939.922 621.679 940.907 623.493C941.84 625.307 943.135 626.654 944.794 627.639C946.452 628.572 948.318 629.038 950.391 629.038C952.464 629.038 953.241 628.831 954.433 628.365C955.625 627.898 956.661 627.276 957.542 626.499C958.423 625.722 959.097 624.841 959.615 623.804C960.133 622.819 960.444 621.783 960.6 620.695H955.573C955.469 621.317 955.262 621.835 954.951 622.353C954.64 622.819 954.277 623.234 953.863 623.597C953.396 623.96 952.93 624.219 952.36 624.374C951.79 624.53 951.168 624.633 950.494 624.633C949.302 624.633 948.266 624.322 947.385 623.752C946.504 623.182 945.778 622.301 945.26 621.161C944.742 620.021 944.483 618.622 944.483 616.912C944.483 615.201 944.742 613.906 945.208 612.766C945.726 611.626 946.4 610.745 947.333 610.175H947.385Z" fill="#0F1629"/>
<path d="M976.717 611.988C975.421 611.211 973.867 610.848 972.105 610.848C970.343 610.848 968.788 611.211 967.492 611.988C966.197 612.766 965.212 613.802 964.487 615.201C963.761 616.549 963.45 618.155 963.45 619.969C963.45 621.783 963.813 623.338 964.487 624.737C965.212 626.084 966.197 627.173 967.492 627.95C968.788 628.727 970.343 629.09 972.105 629.09C973.867 629.09 975.421 628.727 976.717 627.95C978.012 627.173 978.997 626.136 979.723 624.737C980.448 623.39 980.759 621.783 980.759 619.969C980.759 618.155 980.396 616.549 979.723 615.201C978.997 613.854 978.012 612.766 976.717 611.988ZM975.421 622.664C975.162 623.493 974.748 624.115 974.178 624.581C973.659 625.048 972.934 625.255 972.156 625.255C971.379 625.255 970.654 625.048 970.083 624.581C969.513 624.115 969.099 623.493 968.84 622.664C968.581 621.835 968.425 620.954 968.425 619.917C968.425 618.881 968.581 618 968.84 617.171C969.099 616.342 969.513 615.72 970.083 615.253C970.654 614.787 971.327 614.528 972.156 614.528C972.986 614.528 973.659 614.787 974.178 615.253C974.696 615.72 975.11 616.342 975.421 617.171C975.68 618 975.836 618.881 975.836 619.917C975.836 620.954 975.68 621.835 975.421 622.664Z" fill="#0F1629"/>
<path d="M997.343 611.677C996.41 611.159 995.373 610.848 994.13 610.848C992.886 610.848 991.694 611.159 990.813 611.729C989.88 612.351 989.258 613.128 988.844 614.165H988.636V611.056H983.972V628.676H988.844V618.466C988.844 617.689 988.999 617.067 989.258 616.497C989.517 615.979 989.932 615.564 990.45 615.253C990.968 614.994 991.538 614.839 992.212 614.839C993.197 614.839 993.974 615.15 994.544 615.771C995.114 616.393 995.373 617.223 995.373 618.311V628.676H1000.24V617.43C1000.24 616.082 999.986 614.89 999.467 613.906C998.949 612.921 998.275 612.144 997.343 611.626V611.677Z" fill="#0F1629"/>
<path d="M1012.48 624.944C1012.27 624.944 1012.01 624.996 1011.8 624.996C1011.49 624.996 1011.18 624.996 1010.92 624.841C1010.66 624.737 1010.45 624.581 1010.35 624.322C1010.19 624.063 1010.14 623.7 1010.14 623.286V614.735H1013.46V611.056H1010.14V606.806H1005.27V611.056H1002.84V614.735H1005.27V623.908C1005.27 625.048 1005.53 626.033 1006 626.758C1006.46 627.535 1007.19 628.054 1008.07 628.416C1008.95 628.779 1009.99 628.935 1011.18 628.883C1011.8 628.883 1012.37 628.779 1012.79 628.676C1013.25 628.572 1013.56 628.468 1013.82 628.416L1013.05 624.789C1012.94 624.789 1012.73 624.841 1012.53 624.892L1012.48 624.944Z" fill="#0F1629"/>
<path d="M1030.2 613.077C1029.42 612.351 1028.54 611.781 1027.56 611.418C1026.57 611.056 1025.48 610.848 1024.29 610.848C1022.58 610.848 1021.08 611.211 1019.78 611.988C1018.49 612.766 1017.5 613.802 1016.83 615.201C1016.1 616.549 1015.79 618.155 1015.79 619.969C1015.79 621.783 1016.15 623.441 1016.83 624.789C1017.55 626.136 1018.54 627.173 1019.83 627.95C1021.13 628.676 1022.68 629.038 1024.5 629.038C1026.31 629.038 1027.24 628.831 1028.33 628.365C1029.42 627.898 1030.35 627.276 1031.08 626.499C1031.81 625.67 1032.27 624.737 1032.48 623.649L1027.97 623.338C1027.81 623.804 1027.56 624.167 1027.24 624.478C1026.93 624.789 1026.52 624.996 1026.1 625.152C1025.64 625.307 1025.17 625.359 1024.6 625.359C1023.77 625.359 1023.1 625.203 1022.48 624.841C1021.86 624.478 1021.44 624.011 1021.08 623.39C1020.77 622.768 1020.61 621.99 1020.61 621.109H1032.63V619.762C1032.63 618.259 1032.43 616.963 1032.01 615.823C1031.6 614.683 1031.03 613.75 1030.25 613.025L1030.2 613.077ZM1020.61 618.104C1020.61 617.482 1020.82 616.912 1021.08 616.342C1021.39 615.771 1021.86 615.305 1022.43 614.994C1023 614.631 1023.67 614.476 1024.39 614.476C1025.12 614.476 1025.74 614.631 1026.26 614.942C1026.78 615.253 1027.24 615.668 1027.5 616.238C1027.81 616.756 1027.97 617.43 1027.97 618.104H1020.56H1020.61Z" fill="#0F1629"/>
<path d="M1049.17 611.677C1048.23 611.159 1047.2 610.848 1045.95 610.848C1044.71 610.848 1043.52 611.159 1042.64 611.729C1041.7 612.351 1041.08 613.128 1040.67 614.165H1040.46V611.056H1035.8V628.676H1040.67V618.466C1040.67 617.689 1040.82 617.067 1041.08 616.497C1041.34 615.979 1041.76 615.564 1042.27 615.253C1042.79 614.994 1043.36 614.839 1044.04 614.839C1045.02 614.839 1045.8 615.15 1046.37 615.771C1046.94 616.393 1047.2 617.223 1047.2 618.311V628.676H1052.07V617.43C1052.07 616.082 1051.81 614.89 1051.29 613.906C1050.77 612.921 1050.1 612.144 1049.17 611.626V611.677Z" fill="#0F1629"/>
<path d="M1064.3 624.944C1064.09 624.944 1063.83 624.996 1063.62 624.996C1063.31 624.996 1063 624.996 1062.74 624.841C1062.48 624.737 1062.28 624.581 1062.17 624.322C1062.02 624.063 1061.97 623.7 1061.97 623.286V614.735H1065.28V611.056H1061.97V606.806H1057.09V611.056H1054.66V614.735H1057.09V623.908C1057.09 625.048 1057.35 626.033 1057.82 626.758C1058.29 627.535 1059.01 628.054 1059.89 628.416C1060.77 628.779 1061.81 628.935 1063 628.883C1063.62 628.883 1064.19 628.779 1064.61 628.676C1065.08 628.572 1065.39 628.468 1065.65 628.416L1064.87 624.789C1064.76 624.789 1064.56 624.841 1064.35 624.892L1064.3 624.944Z" fill="#0F1629"/>
<path d="M1084.35 617.274C1083.58 616.808 1082.75 616.549 1081.81 616.497V616.29C1082.64 616.082 1083.37 615.771 1083.99 615.357C1084.61 614.942 1085.13 614.372 1085.49 613.647C1085.86 612.973 1086.06 612.144 1086.06 611.211C1086.06 610.278 1085.75 608.983 1085.18 608.102C1084.61 607.221 1083.73 606.495 1082.59 605.977C1081.45 605.459 1080 605.199 1078.29 605.199H1068.86V628.727H1078.91C1080.67 628.727 1082.18 628.468 1083.37 627.898C1084.56 627.328 1085.49 626.551 1086.12 625.566C1086.74 624.581 1087.05 623.493 1087.05 622.249C1087.05 621.006 1086.79 620.073 1086.32 619.244C1085.86 618.414 1085.18 617.741 1084.41 617.274H1084.35ZM1073.83 609.242H1077.62C1078.71 609.242 1079.59 609.501 1080.16 610.019C1080.78 610.537 1081.04 611.211 1081.04 612.092C1081.04 612.973 1080.88 613.232 1080.57 613.699C1080.26 614.165 1079.85 614.476 1079.33 614.735C1078.81 614.994 1078.19 615.098 1077.51 615.098H1073.83V609.294V609.242ZM1080.93 623.856C1080.31 624.374 1079.28 624.633 1077.93 624.633H1073.89V618.414H1078.03C1078.81 618.414 1079.53 618.57 1080.1 618.829C1080.67 619.088 1081.14 619.503 1081.45 620.021C1081.76 620.539 1081.92 621.109 1081.92 621.731C1081.92 622.353 1081.61 623.338 1080.99 623.856H1080.93Z" fill="#0F1629"/>
<path d="M1099.33 610.848C1098.35 610.848 1097.47 611.107 1096.74 611.677C1096.01 612.247 1095.44 613.077 1095.13 614.165H1094.93V611.107H1090.21V628.727H1095.08V618.777C1095.08 618.052 1095.24 617.43 1095.55 616.86C1095.86 616.29 1096.33 615.875 1096.9 615.564C1097.47 615.253 1098.09 615.098 1098.81 615.098C1099.54 615.098 1099.54 615.098 1099.9 615.201C1100.26 615.305 1100.63 615.305 1100.83 615.409V611.056C1100.63 611.004 1100.37 610.952 1100.11 610.952C1099.85 610.952 1099.54 610.952 1099.33 610.952V610.848Z" fill="#0F1629"/>
<path d="M1108.24 611.107H1103.37V628.727H1108.24V611.107Z" fill="#0F1629"/>
<path d="M1105.81 603.852C1105.08 603.852 1104.46 604.111 1103.94 604.578C1103.43 605.044 1103.17 605.666 1103.17 606.34C1103.17 607.013 1103.43 607.583 1103.94 608.102C1104.46 608.568 1105.08 608.827 1105.81 608.827C1106.53 608.827 1107.16 608.568 1107.67 608.102C1108.19 607.635 1108.45 607.013 1108.45 606.34C1108.45 605.666 1108.19 605.096 1107.67 604.578C1107.16 604.111 1106.53 603.852 1105.81 603.852Z" fill="#0F1629"/>
<path d="M1123.79 614.061H1123.64C1123.43 613.595 1123.12 613.129 1122.7 612.61C1122.29 612.092 1121.77 611.729 1121.1 611.367C1120.42 611.056 1119.59 610.848 1118.61 610.848C1117.62 610.848 1116.12 611.159 1115.03 611.833C1113.95 612.507 1113.06 613.491 1112.44 614.839C1111.77 616.186 1111.46 617.844 1111.46 619.866C1111.46 621.887 1111.77 623.493 1112.39 624.841C1113.01 626.188 1113.89 627.225 1114.98 627.898C1116.07 628.572 1117.26 628.935 1118.61 628.935C1119.96 628.935 1120.37 628.779 1121.05 628.468C1121.72 628.157 1122.24 627.743 1122.65 627.276C1123.07 626.81 1123.38 626.292 1123.64 625.825H1123.84V628.624H1128.66V605.096H1123.79V613.958V614.061ZM1123.48 622.664C1123.17 623.441 1122.76 624.063 1122.24 624.478C1121.67 624.892 1121.05 625.152 1120.22 625.152C1119.39 625.152 1118.71 624.944 1118.19 624.478C1117.62 624.063 1117.21 623.441 1116.95 622.664C1116.64 621.887 1116.54 620.954 1116.54 619.969C1116.54 618.985 1116.69 618.052 1116.95 617.274C1117.21 616.497 1117.68 615.875 1118.19 615.461C1118.76 615.046 1119.44 614.787 1120.22 614.787C1120.99 614.787 1121.67 614.994 1122.24 615.409C1122.81 615.823 1123.22 616.445 1123.48 617.223C1123.79 618 1123.9 618.881 1123.9 619.969C1123.9 621.058 1123.74 621.939 1123.43 622.716L1123.48 622.664Z" fill="#0F1629"/>
<path d="M1144.42 614.061H1144.21C1144 613.595 1143.69 613.128 1143.28 612.61C1142.86 612.092 1142.34 611.729 1141.67 611.367C1141 611.056 1140.17 610.848 1139.18 610.848C1138.2 610.848 1136.7 611.159 1135.61 611.833C1134.52 612.507 1133.64 613.491 1133.02 614.839C1132.34 616.186 1132.03 617.844 1132.03 619.866C1132.03 621.887 1132.34 623.441 1132.96 624.685C1133.59 625.981 1134.47 626.914 1135.56 627.535C1136.64 628.157 1137.84 628.468 1139.18 628.468C1140.53 628.468 1140.95 628.313 1141.62 628.054C1142.29 627.795 1142.86 627.432 1143.28 626.965C1143.69 626.551 1144 626.084 1144.26 625.566H1144.47V628.779C1144.47 629.971 1144.11 630.852 1143.43 631.37C1142.76 631.889 1141.88 632.148 1140.79 632.148C1139.7 632.148 1139.49 632.044 1138.98 631.889C1138.46 631.681 1138.09 631.474 1137.78 631.163C1137.47 630.852 1137.27 630.541 1137.11 630.178L1132.6 630.8C1132.81 631.733 1133.22 632.562 1133.9 633.288C1134.57 634.013 1135.45 634.635 1136.59 635.05C1137.73 635.464 1139.08 635.724 1140.69 635.724C1142.29 635.724 1143.85 635.464 1145.14 634.946C1146.44 634.428 1147.47 633.702 1148.2 632.666C1148.93 631.681 1149.29 630.386 1149.29 628.883V611.056H1144.42V614.009V614.061ZM1144 622.509C1143.69 623.234 1143.28 623.804 1142.76 624.219C1142.19 624.633 1141.57 624.789 1140.74 624.789C1139.91 624.789 1139.24 624.581 1138.72 624.167C1138.15 623.752 1137.73 623.182 1137.47 622.457C1137.16 621.731 1137.06 620.85 1137.06 619.814C1137.06 618.777 1137.21 617.948 1137.47 617.171C1137.73 616.393 1138.2 615.823 1138.72 615.357C1139.29 614.942 1139.96 614.683 1140.74 614.683C1141.52 614.683 1142.19 614.89 1142.76 615.305C1143.33 615.72 1143.74 616.342 1144 617.067C1144.31 617.844 1144.42 618.725 1144.42 619.762C1144.42 620.798 1144.26 621.679 1143.95 622.405L1144 622.509Z" fill="#0F1629"/>
<path d="M1169.29 621.161V619.814C1169.29 618.311 1169.09 617.015 1168.67 615.875C1168.26 614.735 1167.69 613.802 1166.91 613.077C1166.13 612.351 1165.25 611.781 1164.27 611.418C1163.28 611.056 1162.19 610.848 1161 610.848C1159.29 610.848 1157.79 611.211 1156.49 611.988C1155.2 612.766 1154.21 613.802 1153.54 615.201C1152.81 616.549 1152.5 618.155 1152.5 619.969C1152.5 621.783 1152.86 623.441 1153.54 624.789C1154.26 626.136 1155.25 627.173 1156.54 627.95C1157.84 628.676 1159.39 629.038 1161.21 629.038C1163.02 629.038 1163.95 628.831 1165.04 628.365C1166.13 627.898 1167.06 627.276 1167.79 626.499C1168.52 625.722 1168.98 624.737 1169.19 623.649L1164.68 623.338C1164.52 623.804 1164.27 624.167 1163.95 624.478C1163.64 624.789 1163.23 624.996 1162.81 625.152C1162.35 625.307 1161.88 625.359 1161.31 625.359C1160.48 625.359 1159.81 625.203 1159.19 624.841C1158.57 624.478 1158.15 624.011 1157.79 623.39C1157.48 622.768 1157.32 621.99 1157.32 621.109H1169.34L1169.29 621.161ZM1159.08 614.994C1159.65 614.631 1160.33 614.476 1161.05 614.476C1161.78 614.476 1162.4 614.631 1162.92 614.942C1163.44 615.253 1163.9 615.668 1164.16 616.238C1164.47 616.756 1164.63 617.43 1164.63 618.104H1157.22C1157.22 617.482 1157.43 616.912 1157.68 616.342C1158 615.771 1158.46 615.305 1159.03 614.994H1159.08Z" fill="#0F1629"/>
<path d="M913.492 591H885.819C878.549 591 872.655 596.893 872.655 604.163V631.837C872.655 639.107 878.549 645 885.819 645H913.492C920.762 645 926.655 639.107 926.655 631.837V604.163C926.655 596.893 920.762 591 913.492 591Z" fill="#F67B37"/>
<mask id="mask0_89_2" style="mask-type:luminance" maskUnits="userSpaceOnUse" x="872" y="591" width="55" height="54">
<path d="M913.492 591H885.819C878.549 591 872.655 596.893 872.655 604.163V631.837C872.655 639.107 878.549 645 885.819 645H913.492C920.762 645 926.655 639.107 926.655 631.837V604.163C926.655 596.893 920.762 591 913.492 591Z" fill="white"/>
</mask>
<g mask="url(#mask0_89_2)">
<path d="M929.298 622.457C929.298 622.457 929.298 622.457 929.247 622.457C919.556 621.317 915.824 613.025 914.736 609.864C909.657 615.512 902.195 617.585 893.074 615.875C887.062 614.735 882.191 612.299 880.636 611.47C879.496 612.973 875.454 617.741 868.302 620.643C867.991 620.798 867.577 620.643 867.473 620.28C867.318 619.969 867.473 619.555 867.836 619.451C875.869 616.186 879.859 610.382 879.911 610.278C880.118 610.019 880.481 609.916 880.792 610.071C880.844 610.071 886.441 613.284 893.385 614.58C902.558 616.342 909.709 614.165 914.529 608.102C914.684 607.894 914.943 607.843 915.202 607.894C915.462 607.946 915.617 608.154 915.669 608.361C915.773 608.827 918.416 619.866 929.402 621.109C929.765 621.109 930.024 621.472 929.972 621.835C929.972 622.146 929.661 622.405 929.35 622.405L929.298 622.457Z" fill="white"/>
<path d="M880.481 631.837C879.807 631.837 879.289 631.319 879.289 630.645V609.19C879.289 608.516 879.807 607.998 880.481 607.998C881.155 607.998 881.673 608.516 881.673 609.19V630.645C881.673 631.319 881.155 631.837 880.481 631.837Z" fill="white"/>
<path d="M886.855 627.224C886.492 627.224 886.181 626.914 886.181 626.551V613.439C886.181 613.077 886.492 612.766 886.855 612.766C887.218 612.766 887.529 613.077 887.529 613.439V626.551C887.529 626.914 887.218 627.224 886.855 627.224Z" fill="white"/>
<path d="M893.281 624.892C892.918 624.892 892.607 624.581 892.607 624.219V615.409C892.607 615.046 892.918 614.735 893.281 614.735C893.644 614.735 893.955 615.046 893.955 615.409V624.219C893.955 624.581 893.644 624.892 893.281 624.892Z" fill="white"/>
<path d="M899.034 623.13C898.671 623.13 898.36 622.819 898.36 622.457V615.979C898.36 615.616 898.671 615.305 899.034 615.305C899.396 615.305 899.707 615.616 899.707 615.979V622.457C899.707 622.819 899.396 623.13 899.034 623.13Z" fill="white"/>
<path d="M904.838 623.338C904.475 623.338 904.164 623.027 904.164 622.664V615.15C904.164 614.787 904.475 614.476 904.838 614.476C905.201 614.476 905.512 614.787 905.512 615.15V622.664C905.512 623.027 905.201 623.338 904.838 623.338Z" fill="white"/>
<path d="M909.813 621.628C909.45 621.628 909.139 621.317 909.139 620.954V613.439C909.139 613.077 909.45 612.766 909.813 612.766C910.176 612.766 910.487 613.077 910.487 613.439V620.954C910.487 621.317 910.176 621.628 909.813 621.628Z" fill="white"/>
<path d="M914.736 622.146C914.062 622.146 913.544 621.628 913.544 620.954V607.273C913.544 606.599 914.062 606.081 914.736 606.081C915.41 606.081 915.928 606.599 915.928 607.273V620.954C915.928 621.628 915.41 622.146 914.736 622.146Z" fill="white"/>
<path d="M927.226 621.524V624.271C927.226 624.271 910.798 620.176 884.471 631.163C858.145 642.15 850.682 644.948 850.682 644.948V641.269C850.682 641.269 901.158 610.123 927.226 621.524Z" fill="white"/>
<path d="M914.736 605.303C915.452 605.303 916.032 604.723 916.032 604.008C916.032 603.292 915.452 602.712 914.736 602.712C914.021 602.712 913.44 603.292 913.44 604.008C913.44 604.723 914.021 605.303 914.736 605.303Z" fill="white"/>
<path d="M880.481 606.91C881.511 606.91 882.346 606.074 882.346 605.044C882.346 604.014 881.511 603.178 880.481 603.178C879.45 603.178 878.615 604.014 878.615 605.044C878.615 606.074 879.45 606.91 880.481 606.91Z" fill="white"/>
<path d="M884.005 637.9L876.905 644.896V628.779H884.005V637.9Z" fill="white"/>
<path d="M918.26 628.779L911.212 636.086V623.13H918.26V628.779Z" fill="white"/>
<path d="M897.79 601.365L895.561 599.136L898.619 598.307L897.79 601.365ZM896.339 599.343L897.583 600.587L898.049 598.877L896.339 599.343Z" fill="white"/>
<path d="M917.379 592.71L915.151 590.482L918.208 589.653L917.379 592.71ZM915.928 590.689L917.172 591.933L917.638 590.223L915.928 590.689Z" fill="white"/>
<path d="M913.441 601.468L913.648 598.877L915.773 600.38L913.441 601.52V601.468ZM914.011 599.603L913.907 600.795L914.995 600.276L914.011 599.603Z" fill="white"/>
<path d="M896.442 613.699L896.961 610.589L899.396 612.61L896.391 613.699H896.442ZM897.272 611.315L896.961 613.025L898.619 612.403L897.272 611.263V611.315Z" fill="white"/>
<path d="M901.988 610.33C901.21 610.33 900.64 609.708 900.64 608.983C900.64 608.257 901.262 607.635 901.988 607.635C902.713 607.635 903.335 608.257 903.335 608.983C903.335 609.708 902.713 610.33 901.988 610.33ZM901.988 607.998C901.469 607.998 901.055 608.413 901.055 608.931C901.055 609.449 901.469 609.864 901.988 609.864C902.506 609.864 902.92 609.449 902.92 608.931C902.92 608.413 902.506 607.998 901.988 607.998Z" fill="white"/>
<path d="M903.128 596.597C902.35 596.597 901.78 595.975 901.78 595.249C901.78 594.524 902.402 593.902 903.128 593.902C903.853 593.902 904.475 594.524 904.475 595.249C904.475 595.975 903.853 596.597 903.128 596.597ZM903.128 594.317C902.609 594.317 902.195 594.731 902.195 595.249C902.195 595.768 902.609 596.182 903.128 596.182C903.646 596.182 904.06 595.768 904.06 595.249C904.06 594.731 903.646 594.317 903.128 594.317Z" fill="white"/>
<path d="M886.544 611.159C885.87 611.159 885.352 610.641 885.352 609.967C885.352 609.294 885.87 608.775 886.544 608.775C887.218 608.775 887.736 609.294 887.736 609.967C887.736 610.641 887.218 611.159 886.544 611.159ZM886.544 609.19C886.13 609.19 885.767 609.553 885.767 609.967C885.767 610.382 886.13 610.745 886.544 610.745C886.959 610.745 887.322 610.382 887.322 609.967C887.322 609.553 886.959 609.19 886.544 609.19Z" fill="white"/>
<path d="M908.051 601.52C907.584 601.52 907.17 601.105 907.17 600.639C907.17 600.173 907.584 599.758 908.051 599.758C908.517 599.758 908.932 600.173 908.932 600.639C908.932 601.105 908.517 601.52 908.051 601.52ZM908.051 600.173C907.792 600.173 907.584 600.38 907.584 600.639C907.584 600.898 907.792 601.105 908.051 601.105C908.31 601.105 908.517 600.898 908.517 600.639C908.517 600.38 908.31 600.173 908.051 600.173Z" fill="white"/>
<path d="M919.97 597.063C919.504 597.063 919.089 596.649 919.089 596.182C919.089 595.716 919.504 595.301 919.97 595.301C920.437 595.301 920.851 595.716 920.851 596.182C920.851 596.649 920.437 597.063 919.97 597.063ZM919.97 595.716C919.711 595.716 919.504 595.923 919.504 596.182C919.504 596.441 919.711 596.649 919.97 596.649C920.229 596.649 920.437 596.441 920.437 596.182C920.437 595.923 920.229 595.716 919.97 595.716Z" fill="white"/>
<path d="M894.214 607.687L893.281 605.51L895.458 604.578L896.391 606.754L894.214 607.687ZM893.799 605.718L894.421 607.169L895.872 606.547L895.25 605.096L893.799 605.718Z" fill="white"/>
<path d="M910.02 608.62H907.636V606.236H910.02V608.62ZM908.051 608.205H909.606V606.651H908.051V608.205Z" fill="white"/>
<path d="M912.611 595.664H909.036V592.088H912.611V595.664ZM909.45 595.301H912.197V592.555H909.45V595.301Z" fill="white"/>
<path d="M892.4 611.833L890.379 611.626L890.586 609.605L892.607 609.812L892.4 611.833ZM890.794 611.263L892.037 611.367L892.141 610.123L890.897 610.019L890.794 611.263Z" fill="white"/>
<path d="M903.283 604.319L901.262 604.111L901.469 602.09L903.49 602.297L903.283 604.319ZM901.728 603.748L902.972 603.852L903.076 602.608L901.832 602.505L901.728 603.748Z" fill="white"/>
</g>
</g>
<defs>
<clipPath id="clip0_89_2">
<rect width="298" height="54" fill="white" transform="translate(872 591)"/>
</clipPath>
</defs>
</svg>
