<svg width="298" height="54" viewBox="0 0 298 54" fill="none" xmlns="http://www.w3.org/2000/svg">
<g clip-path="url(#clip0_25_1251)">
<path d="M75.3848 19.1746C76.2658 18.5527 77.3541 18.2936 78.546 18.2936C79.738 18.2936 79.8416 18.3972 80.4117 18.6045C80.9818 18.8118 81.5 19.0709 81.9664 19.4337C82.4328 19.7964 82.7956 20.211 83.0547 20.7293C83.3138 21.2475 83.5211 21.8176 83.6247 22.4913H88.6516C88.4961 21.1439 88.1334 19.9001 87.5633 18.8636C86.9933 17.8272 86.2677 16.8943 85.3349 16.1688C84.4539 15.4433 83.4175 14.8732 82.2255 14.5105C81.0336 14.1477 79.7898 13.9404 78.4424 13.9404C76.3695 13.9404 74.5038 14.4068 72.8455 15.3396C71.1871 16.2725 69.8915 17.6717 68.9069 19.4337C67.9223 21.2475 67.4558 23.4241 67.4558 25.9634C67.4558 28.5028 67.9223 30.6794 68.9069 32.4932C69.8397 34.307 71.1353 35.6544 72.7937 36.6391C74.452 37.5719 76.3176 38.0383 78.3906 38.0383C80.4635 38.0383 81.2409 37.831 82.4328 37.3646C83.6247 36.8982 84.6612 36.2763 85.5422 35.4989C86.4232 34.7216 87.0969 33.8406 87.6151 32.8041C88.1334 31.8195 88.4443 30.783 88.5998 29.6947H83.5729C83.4693 30.3166 83.262 30.8348 82.951 31.3531C82.6401 31.8195 82.2773 32.2341 81.8628 32.5968C81.3963 32.9596 80.9299 33.2187 80.3599 33.3742C79.7898 33.5297 79.1679 33.6333 78.4942 33.6333C77.3023 33.6333 76.2658 33.3224 75.3848 32.7523C74.5038 32.1822 73.7783 31.3012 73.2601 30.1611C72.7418 29.021 72.4827 27.6218 72.4827 25.9116C72.4827 24.2014 72.7418 22.9059 73.2082 21.7657C73.7265 20.6256 74.4002 19.7446 75.333 19.1746H75.3848Z" fill="#0F1629"/>
<path d="M104.717 20.9884C103.421 20.211 101.867 19.8483 100.105 19.8483C98.3426 19.8483 96.7879 20.211 95.4923 20.9884C94.1967 21.7657 93.2121 22.8022 92.4865 24.2014C91.761 25.5488 91.4501 27.1554 91.4501 28.9692C91.4501 30.783 91.8128 32.3377 92.4865 33.7369C93.2121 35.0843 94.1967 36.1726 95.4923 36.95C96.7879 37.7273 98.3426 38.0901 100.105 38.0901C101.867 38.0901 103.421 37.7273 104.717 36.95C106.012 36.1726 106.997 35.1362 107.723 33.7369C108.448 32.3895 108.759 30.783 108.759 28.9692C108.759 27.1554 108.396 25.5488 107.723 24.2014C106.997 22.854 106.012 21.7657 104.717 20.9884ZM103.421 31.664C103.162 32.4932 102.748 33.1151 102.178 33.5815C101.659 34.0479 100.934 34.2552 100.156 34.2552C99.3791 34.2552 98.6535 34.0479 98.0835 33.5815C97.5134 33.1151 97.0988 32.4932 96.8397 31.664C96.5806 30.8348 96.4251 29.9538 96.4251 28.9174C96.4251 27.8809 96.5806 26.9999 96.8397 26.1707C97.0988 25.3415 97.5134 24.7197 98.0835 24.2533C98.6535 23.7868 99.3272 23.5277 100.156 23.5277C100.986 23.5277 101.659 23.7868 102.178 24.2533C102.696 24.7197 103.11 25.3415 103.421 26.1707C103.68 26.9999 103.836 27.8809 103.836 28.9174C103.836 29.9538 103.68 30.8348 103.421 31.664Z" fill="#0F1629"/>
<path d="M125.343 20.6774C124.41 20.1592 123.373 19.8483 122.13 19.8483C120.886 19.8483 119.694 20.1592 118.813 20.7293C117.88 21.3511 117.258 22.1285 116.844 23.165H116.636V20.0556H111.972V37.6755H116.844V27.4663C116.844 26.689 116.999 26.0671 117.258 25.497C117.517 24.9788 117.932 24.5642 118.45 24.2533C118.968 23.9941 119.538 23.8387 120.212 23.8387C121.197 23.8387 121.974 24.1496 122.544 24.7715C123.114 25.3934 123.373 26.2225 123.373 27.3108V37.6755H128.245V26.4298C128.245 25.0824 127.986 23.8905 127.467 22.9058C126.949 21.9212 126.275 21.1439 125.343 20.6256V20.6774Z" fill="#0F1629"/>
<path d="M140.475 33.9442C140.268 33.9442 140.009 33.996 139.801 33.996C139.49 33.996 139.179 33.996 138.92 33.8406C138.661 33.7369 138.454 33.5815 138.35 33.3223C138.195 33.0632 138.143 32.7005 138.143 32.2859V23.735H141.46V20.0556H138.143V15.806H133.272V20.0556H130.836V23.735H133.272V32.9078C133.272 34.0479 133.531 35.0325 133.997 35.758C134.464 36.5354 135.189 37.0536 136.07 37.4164C136.951 37.7792 137.988 37.9346 139.179 37.8828C139.801 37.8828 140.371 37.7792 140.786 37.6755C141.252 37.5719 141.563 37.4682 141.822 37.4164L141.045 33.7888C140.941 33.7888 140.734 33.8406 140.527 33.8924L140.475 33.9442Z" fill="#0F1629"/>
<path d="M158.199 22.0767C157.421 21.3511 156.54 20.7811 155.556 20.4183C154.571 20.0556 153.483 19.8483 152.291 19.8483C150.581 19.8483 149.078 20.211 147.782 20.9884C146.487 21.7657 145.502 22.8022 144.828 24.2014C144.103 25.5488 143.792 27.1554 143.792 28.9692C143.792 30.783 144.154 32.4414 144.828 33.7888C145.554 35.1362 146.538 36.1726 147.834 36.95C149.13 37.6755 150.684 38.0383 152.498 38.0383C154.312 38.0383 155.245 37.831 156.333 37.3646C157.421 36.8982 158.354 36.2763 159.08 35.4989C159.805 34.6698 160.272 33.7369 160.479 32.6487L155.97 32.3377C155.815 32.8041 155.556 33.1669 155.245 33.4778C154.934 33.7888 154.519 33.9961 154.105 34.1515C153.638 34.307 153.172 34.3588 152.602 34.3588C151.773 34.3588 151.099 34.2034 150.477 33.8406C149.855 33.4778 149.44 33.0114 149.078 32.3895C148.767 31.7677 148.611 30.9903 148.611 30.1093H160.634V28.7619C160.634 27.259 160.427 25.9634 160.012 24.8233C159.598 23.6832 159.028 22.7504 158.25 22.0249L158.199 22.0767ZM148.611 27.1035C148.611 26.4817 148.819 25.9116 149.078 25.3416C149.389 24.7715 149.855 24.3051 150.425 23.9941C150.995 23.6314 151.669 23.4759 152.394 23.4759C153.12 23.4759 153.742 23.6314 154.26 23.9423C154.778 24.2533 155.245 24.6678 155.504 25.2379C155.815 25.7561 155.97 26.4298 155.97 27.1035H148.559H148.611Z" fill="#0F1629"/>
<path d="M177.166 20.6774C176.233 20.1592 175.197 19.8483 173.953 19.8483C172.709 19.8483 171.517 20.1592 170.636 20.7293C169.703 21.3511 169.082 22.1285 168.667 23.165H168.46V20.0556H163.796V37.6755H168.667V27.4663C168.667 26.689 168.822 26.0671 169.082 25.497C169.341 24.9788 169.755 24.5642 170.274 24.2533C170.792 23.9941 171.362 23.8387 172.035 23.8387C173.02 23.8387 173.797 24.1496 174.368 24.7715C174.938 25.3934 175.197 26.2225 175.197 27.3108V37.6755H180.068V26.4298C180.068 25.0824 179.809 23.8905 179.291 22.9058C178.773 21.9212 178.099 21.1439 177.166 20.6256V20.6774Z" fill="#0F1629"/>
<path d="M192.298 33.9442C192.091 33.9442 191.832 33.996 191.625 33.996C191.314 33.996 191.003 33.996 190.744 33.8406C190.485 33.7369 190.277 33.5815 190.174 33.3223C190.018 33.0632 189.966 32.7005 189.966 32.2859V23.735H193.283V20.0556H189.966V15.806H185.095V20.0556H182.659V23.735H185.095V32.9078C185.095 34.0479 185.354 35.0325 185.821 35.758C186.287 36.5354 187.012 37.0536 187.893 37.4164C188.774 37.7792 189.811 37.9346 191.003 37.8828C191.625 37.8828 192.195 37.7792 192.609 37.6755C193.076 37.5719 193.387 37.4682 193.646 37.4164L192.868 33.7888C192.765 33.7888 192.558 33.8406 192.35 33.8924L192.298 33.9442Z" fill="#0F1629"/>
<path d="M212.354 26.2743C211.577 25.8079 210.748 25.5488 209.815 25.497V25.2897C210.644 25.0824 211.369 24.7714 211.991 24.3569C212.613 23.9423 213.131 23.3722 213.494 22.6467C213.857 21.973 214.064 21.1438 214.064 20.211C214.064 19.2782 213.753 17.9826 213.183 17.1016C212.613 16.2206 211.732 15.495 210.592 14.9768C209.452 14.4586 208.001 14.1995 206.291 14.1995H196.859V37.7273H206.913C208.675 37.7273 210.178 37.4682 211.369 36.8981C212.561 36.3281 213.494 35.5507 214.116 34.5661C214.738 33.5814 215.049 32.4931 215.049 31.2494C215.049 30.0056 214.79 29.0728 214.323 28.2436C213.857 27.4144 213.183 26.7407 212.406 26.2743H212.354ZM201.834 18.2417H205.617C206.705 18.2417 207.586 18.5008 208.156 19.019C208.778 19.5373 209.037 20.211 209.037 21.092C209.037 21.973 208.882 22.2321 208.571 22.6985C208.26 23.1649 207.845 23.4759 207.327 23.735C206.809 23.9941 206.187 24.0977 205.513 24.0977H201.834V18.2935V18.2417ZM208.934 32.8559C208.312 33.3741 207.275 33.6332 205.928 33.6332H201.886V27.4144H206.032C206.809 27.4144 207.535 27.5699 208.105 27.829C208.675 28.0881 209.141 28.5027 209.452 29.021C209.763 29.5392 209.918 30.1093 209.918 30.7311C209.918 31.353 209.607 32.3377 208.986 32.8559H208.934Z" fill="#0F1629"/>
<path d="M227.331 19.8483C226.346 19.8483 225.465 20.1074 224.74 20.6774C224.014 21.2475 223.444 22.0767 223.133 23.165H222.926V20.1074H218.21V37.7273H223.082V27.7772C223.082 27.0517 223.237 26.4298 223.548 25.8598C223.859 25.2897 224.325 24.8751 224.895 24.5642C225.465 24.2533 226.087 24.0978 226.813 24.0978C227.538 24.0978 227.538 24.0978 227.901 24.2014C228.264 24.3051 228.627 24.3051 228.834 24.4087V20.0556C228.627 20.0037 228.368 19.9519 228.108 19.9519C227.849 19.9519 227.538 19.9519 227.331 19.9519V19.8483Z" fill="#0F1629"/>
<path d="M236.245 20.1074H231.373V37.7274H236.245V20.1074Z" fill="#0F1629"/>
<path d="M233.809 12.8521C233.083 12.8521 232.462 13.1112 231.943 13.5776C231.425 14.0441 231.166 14.6659 231.166 15.3396C231.166 16.0133 231.425 16.5834 231.943 17.1016C232.462 17.568 233.083 17.8272 233.809 17.8272C234.535 17.8272 235.156 17.568 235.675 17.1016C236.193 16.6352 236.452 16.0133 236.452 15.3396C236.452 14.6659 236.193 14.0959 235.675 13.5776C235.156 13.1112 234.535 12.8521 233.809 12.8521Z" fill="#0F1629"/>
<path d="M251.792 23.0614H251.636C251.429 22.595 251.118 22.1285 250.703 21.6103C250.289 21.0921 249.771 20.7293 249.097 20.3665C248.423 20.0556 247.594 19.8483 246.609 19.8483C245.625 19.8483 244.122 20.1593 243.034 20.833C241.945 21.5067 241.064 22.4913 240.442 23.8387C239.769 25.1861 239.458 26.8445 239.458 28.8656C239.458 30.8867 239.769 32.4932 240.391 33.8406C241.012 35.188 241.893 36.2245 242.982 36.8982C244.07 37.5719 245.262 37.9347 246.609 37.9347C247.957 37.9347 248.371 37.7792 249.045 37.4683C249.719 37.1573 250.237 36.7427 250.652 36.2763C251.066 35.8099 251.377 35.2917 251.636 34.8253H251.844V37.6237H256.663V14.0959H251.792V22.9577V23.0614ZM251.481 31.6641C251.17 32.4414 250.755 33.0633 250.237 33.4779C249.667 33.8925 249.045 34.1516 248.216 34.1516C247.387 34.1516 246.713 33.9443 246.195 33.4779C245.625 33.0633 245.21 32.4414 244.951 31.6641C244.64 30.8867 244.536 29.9539 244.536 28.9692C244.536 27.9846 244.692 27.0518 244.951 26.2744C245.21 25.4971 245.677 24.8752 246.195 24.4606C246.765 24.046 247.439 23.7869 248.216 23.7869C248.993 23.7869 249.667 23.9942 250.237 24.4088C250.807 24.8234 251.222 25.4452 251.481 26.2226C251.792 26.9999 251.895 27.8809 251.895 28.9692C251.895 30.0575 251.74 30.9385 251.429 31.7159L251.481 31.6641Z" fill="#0F1629"/>
<path d="M272.417 23.0613H272.21C272.003 22.5949 271.692 22.1285 271.277 21.6103C270.863 21.092 270.344 20.7293 269.671 20.3665C268.997 20.0556 268.168 19.8483 267.183 19.8483C266.199 19.8483 264.696 20.1592 263.607 20.8329C262.519 21.5066 261.638 22.4913 261.016 23.8387C260.343 25.1861 260.032 26.8444 260.032 28.8655C260.032 30.8867 260.343 32.4414 260.964 33.6851C261.586 34.9807 262.467 35.9135 263.556 36.5354C264.644 37.1573 265.836 37.4682 267.183 37.4682C268.531 37.4682 268.945 37.3128 269.619 37.0536C270.293 36.7945 270.863 36.4318 271.277 35.9653C271.692 35.5508 272.003 35.0843 272.262 34.5661H272.469V37.7792C272.469 38.9711 272.107 39.8521 271.433 40.3703C270.759 40.8886 269.878 41.1477 268.79 41.1477C267.701 41.1477 267.494 41.044 266.976 40.8886C266.458 40.6813 266.095 40.474 265.784 40.163C265.473 39.8521 265.266 39.5412 265.11 39.1784L260.602 39.8003C260.809 40.7331 261.224 41.5623 261.897 42.2878C262.571 43.0133 263.452 43.6352 264.592 44.0498C265.732 44.4644 267.08 44.7235 268.686 44.7235C270.293 44.7235 271.847 44.4644 273.143 43.9462C274.439 43.4279 275.475 42.7024 276.201 41.6659C276.926 40.6813 277.289 39.3857 277.289 37.8828V20.0556H272.417V23.0095V23.0613ZM272.003 31.5085C271.692 32.2341 271.277 32.8041 270.759 33.2187C270.189 33.6333 269.567 33.7888 268.738 33.7888C267.909 33.7888 267.235 33.5815 266.717 33.1669C266.147 32.7523 265.732 32.1822 265.473 31.4567C265.162 30.7312 265.058 29.8502 265.058 28.8137C265.058 27.7772 265.214 26.9481 265.473 26.1707C265.732 25.3934 266.199 24.8233 266.717 24.3569C267.287 23.9423 267.961 23.6832 268.738 23.6832C269.515 23.6832 270.189 23.8905 270.759 24.3051C271.329 24.7197 271.744 25.3415 272.003 26.0671C272.314 26.8444 272.417 27.7254 272.417 28.7619C272.417 29.7984 272.262 30.6794 271.951 31.4049L272.003 31.5085Z" fill="#0F1629"/>
<path d="M297.293 30.1611V28.8137C297.293 27.3108 297.085 26.0153 296.671 24.8751C296.256 23.735 295.686 22.8022 294.909 22.0767C294.131 21.3511 293.25 20.7811 292.266 20.4183C291.281 20.0556 290.193 19.8483 289.001 19.8483C287.291 19.8483 285.788 20.211 284.492 20.9884C283.197 21.7657 282.212 22.8022 281.538 24.2014C280.813 25.5488 280.502 27.1554 280.502 28.9692C280.502 30.783 280.865 32.4414 281.538 33.7888C282.264 35.1362 283.249 36.1726 284.544 36.95C285.84 37.6755 287.394 38.0383 289.208 38.0383C291.022 38.0383 291.955 37.831 293.043 37.3646C294.131 36.8982 295.064 36.2763 295.79 35.4989C296.515 34.7216 296.982 33.7369 297.189 32.6487L292.68 32.3377C292.525 32.8041 292.266 33.1669 291.955 33.4778C291.644 33.7888 291.229 33.9961 290.815 34.1515C290.348 34.307 289.882 34.3588 289.312 34.3588C288.483 34.3588 287.809 34.2034 287.187 33.8406C286.565 33.4778 286.151 33.0114 285.788 32.3895C285.477 31.7677 285.321 30.9903 285.321 30.1093H297.345L297.293 30.1611ZM287.083 23.9941C287.654 23.6314 288.327 23.4759 289.053 23.4759C289.778 23.4759 290.4 23.6314 290.918 23.9423C291.437 24.2533 291.903 24.6678 292.162 25.2379C292.473 25.7561 292.629 26.4298 292.629 27.1035H285.218C285.218 26.4817 285.425 25.9116 285.684 25.3416C285.995 24.7715 286.462 24.3051 287.032 23.9941H287.083Z" fill="#0F1629"/>
<path d="M41.4923 0H13.8186C6.54881 0 0.655472 5.89334 0.655472 13.1631V40.8369C0.655472 48.1067 6.54881 54 13.8186 54H41.4923C48.7621 54 54.6555 48.1067 54.6555 40.8369V13.1631C54.6555 5.89334 48.7621 0 41.4923 0Z" fill="#F67B37"/>
<mask id="mask0_25_1251" style="mask-type:luminance" maskUnits="userSpaceOnUse" x="0" y="0" width="55" height="54">
<path d="M41.4923 0H13.8186C6.54881 0 0.655472 5.89334 0.655472 13.1631V40.8369C0.655472 48.1067 6.54881 54 13.8186 54H41.4923C48.7621 54 54.6555 48.1067 54.6555 40.8369V13.1631C54.6555 5.89334 48.7621 0 41.4923 0Z" fill="white"/>
</mask>
<g mask="url(#mask0_25_1251)">
<path d="M57.2985 31.4568C57.2985 31.4568 57.2985 31.4568 57.2466 31.4568C47.5557 30.3167 43.8244 22.0249 42.7361 18.8637C37.6574 24.5125 30.1948 26.5854 21.0739 24.8752C15.0624 23.7351 10.191 21.2994 8.63628 20.4702C7.49616 21.9731 3.45394 26.7409 -3.69769 29.643C-4.00863 29.7985 -4.42322 29.643 -4.52687 29.2802C-4.68234 28.9693 -4.52687 28.5547 -4.1641 28.451C3.86853 25.1862 7.85893 19.3819 7.91075 19.2783C8.11804 19.0192 8.48081 18.9155 8.79175 19.071C8.84357 19.071 14.4405 22.2841 21.3848 23.5796C30.5576 25.3416 37.7092 23.1651 42.5288 17.1017C42.6843 16.8944 42.9434 16.8426 43.2025 16.8944C43.4616 16.9462 43.6171 17.1535 43.6689 17.3608C43.7726 17.8272 46.4155 28.8656 57.4021 30.1094C57.7649 30.1094 58.024 30.4722 57.9722 30.8349C57.9722 31.1459 57.6612 31.405 57.3503 31.405L57.2985 31.4568Z" fill="white"/>
<path d="M8.4808 40.8368C7.8071 40.8368 7.28886 40.3186 7.28886 39.6449V18.19C7.28886 17.5163 7.8071 16.9981 8.4808 16.9981C9.15451 16.9981 9.67274 17.5163 9.67274 18.19V39.6449C9.67274 40.3186 9.15451 40.8368 8.4808 40.8368Z" fill="white"/>
<path d="M14.8551 36.2245C14.4923 36.2245 14.1814 35.9135 14.1814 35.5508V22.4395C14.1814 22.0767 14.4923 21.7657 14.8551 21.7657C15.2178 21.7657 15.5288 22.0767 15.5288 22.4395V35.5508C15.5288 35.9135 15.2178 36.2245 14.8551 36.2245Z" fill="white"/>
<path d="M21.2812 33.8924C20.9184 33.8924 20.6075 33.5815 20.6075 33.2187V24.4088C20.6075 24.046 20.9184 23.735 21.2812 23.735C21.644 23.735 21.9549 24.046 21.9549 24.4088V33.2187C21.9549 33.5815 21.644 33.8924 21.2812 33.8924Z" fill="white"/>
<path d="M27.0336 32.1304C26.6708 32.1304 26.3599 31.8195 26.3599 31.4567V24.9788C26.3599 24.616 26.6708 24.3051 27.0336 24.3051C27.3963 24.3051 27.7073 24.616 27.7073 24.9788V31.4567C27.7073 31.8195 27.3963 32.1304 27.0336 32.1304Z" fill="white"/>
<path d="M32.8378 32.3378C32.4751 32.3378 32.1641 32.0268 32.1641 31.6641V24.1497C32.1641 23.7869 32.4751 23.476 32.8378 23.476C33.2006 23.476 33.5115 23.7869 33.5115 24.1497V31.6641C33.5115 32.0268 33.2006 32.3378 32.8378 32.3378Z" fill="white"/>
<path d="M37.8128 30.6276C37.4501 30.6276 37.1391 30.3166 37.1391 29.9538V22.4395C37.1391 22.0767 37.4501 21.7657 37.8128 21.7657C38.1756 21.7657 38.4865 22.0767 38.4865 22.4395V29.9538C38.4865 30.3166 38.1756 30.6276 37.8128 30.6276Z" fill="white"/>
<path d="M42.7361 31.1458C42.0624 31.1458 41.5441 30.6276 41.5441 29.9539V16.2725C41.5441 15.5988 42.0624 15.0806 42.7361 15.0806C43.4098 15.0806 43.928 15.5988 43.928 16.2725V29.9539C43.928 30.6276 43.4098 31.1458 42.7361 31.1458Z" fill="white"/>
<path d="M55.2255 30.5239V33.2705C55.2255 33.2705 38.7975 29.1765 12.4712 40.163C-13.8551 51.1496 -21.3177 53.9481 -21.3177 53.9481V50.2686C-21.3177 50.2686 29.1583 19.1227 55.2255 30.5239Z" fill="white"/>
<path d="M42.7361 14.3031C43.4516 14.3031 44.0316 13.7231 44.0316 13.0076C44.0316 12.292 43.4516 11.712 42.7361 11.712C42.0205 11.712 41.4405 12.292 41.4405 13.0076C41.4405 13.7231 42.0205 14.3031 42.7361 14.3031Z" fill="white"/>
<path d="M8.48082 15.9097C9.51118 15.9097 10.3465 15.0744 10.3465 14.0441C10.3465 13.0137 9.51118 12.1784 8.48082 12.1784C7.45045 12.1784 6.61517 13.0137 6.61517 14.0441C6.61517 15.0744 7.45045 15.9097 8.48082 15.9097Z" fill="white"/>
<path d="M12.0048 46.9002L4.90497 53.8963V37.7793H12.0048V46.9002Z" fill="white"/>
<path d="M46.2601 37.7792L39.2121 45.0863V32.1305H46.2601V37.7792Z" fill="white"/>
<path d="M25.7898 10.3646L23.5614 8.13618L26.619 7.30701L25.7898 10.3646ZM24.3388 8.34348L25.5825 9.58724L26.049 7.87706L24.3388 8.34348Z" fill="white"/>
<path d="M45.3791 1.71011L43.1507 -0.518299L46.2083 -1.34747L45.3791 1.71011ZM43.928 -0.311005L45.1718 0.932757L45.6382 -0.777416L43.928 -0.311005Z" fill="white"/>
<path d="M41.4405 10.4683L41.6478 7.87714L43.7726 9.38002L41.4405 10.5201V10.4683ZM42.0106 8.60266L41.9069 9.7946L42.9952 9.27637L42.0106 8.60266Z" fill="white"/>
<path d="M24.4424 22.6986L24.9607 19.5892L27.3964 21.6103L24.3906 22.6986H24.4424ZM25.2716 20.3147L24.9607 22.0249L26.619 21.403L25.2716 20.2629V20.3147Z" fill="white"/>
<path d="M29.9875 19.33C29.2102 19.33 28.6401 18.7082 28.6401 17.9826C28.6401 17.2571 29.262 16.6352 29.9875 16.6352C30.7131 16.6352 31.3349 17.2571 31.3349 17.9826C31.3349 18.7082 30.7131 19.33 29.9875 19.33ZM29.9875 16.998C29.4693 16.998 29.0547 17.4126 29.0547 17.9308C29.0547 18.449 29.4693 18.8636 29.9875 18.8636C30.5058 18.8636 30.9204 18.449 30.9204 17.9308C30.9204 17.4126 30.5058 16.998 29.9875 16.998Z" fill="white"/>
<path d="M31.1277 5.59683C30.3503 5.59683 29.7802 4.97494 29.7802 4.24942C29.7802 3.52389 30.4021 2.90201 31.1277 2.90201C31.8532 2.90201 32.4751 3.52389 32.4751 4.24942C32.4751 4.97494 31.8532 5.59683 31.1277 5.59683ZM31.1277 3.3166C30.6094 3.3166 30.1948 3.73118 30.1948 4.24942C30.1948 4.76765 30.6094 5.18224 31.1277 5.18224C31.6459 5.18224 32.0605 4.76765 32.0605 4.24942C32.0605 3.73118 31.6459 3.3166 31.1277 3.3166Z" fill="white"/>
<path d="M14.5442 20.1593C13.8705 20.1593 13.3522 19.641 13.3522 18.9673C13.3522 18.2936 13.8705 17.7754 14.5442 17.7754C15.2179 17.7754 15.7361 18.2936 15.7361 18.9673C15.7361 19.641 15.2179 20.1593 14.5442 20.1593ZM14.5442 18.19C14.1296 18.19 13.7668 18.5527 13.7668 18.9673C13.7668 19.3819 14.1296 19.7447 14.5442 19.7447C14.9587 19.7447 15.3215 19.3819 15.3215 18.9673C15.3215 18.5527 14.9587 18.19 14.5442 18.19Z" fill="white"/>
<path d="M36.0509 10.5201C35.5844 10.5201 35.1699 10.1055 35.1699 9.63909C35.1699 9.17267 35.5844 8.75809 36.0509 8.75809C36.5173 8.75809 36.9319 9.17267 36.9319 9.63909C36.9319 10.1055 36.5173 10.5201 36.0509 10.5201ZM36.0509 9.17268C35.7917 9.17268 35.5844 9.37997 35.5844 9.63909C35.5844 9.8982 35.7917 10.1055 36.0509 10.1055C36.31 10.1055 36.5173 9.8982 36.5173 9.63909C36.5173 9.37997 36.31 9.17268 36.0509 9.17268Z" fill="white"/>
<path d="M47.9702 6.06324C47.5038 6.06324 47.0892 5.64865 47.0892 5.18224C47.0892 4.71583 47.5038 4.30124 47.9702 4.30124C48.4367 4.30124 48.8512 4.71583 48.8512 5.18224C48.8512 5.64865 48.4367 6.06324 47.9702 6.06324ZM47.9702 4.71583C47.7111 4.71583 47.5038 4.92312 47.5038 5.18224C47.5038 5.44135 47.7111 5.64865 47.9702 5.64865C48.2294 5.64865 48.4367 5.44135 48.4367 5.18224C48.4367 4.92312 48.2294 4.71583 47.9702 4.71583Z" fill="white"/>
<path d="M22.214 16.6871L21.2812 14.5105L23.4578 13.5777L24.3906 15.7543L22.214 16.6871ZM21.7994 14.7178L22.4213 16.1688L23.8724 15.547L23.2505 14.0959L21.7994 14.7178Z" fill="white"/>
<path d="M38.0202 17.6199H35.6363V15.236H38.0202V17.6199ZM36.0509 17.2053H37.6056V15.6506H36.0509V17.2053Z" fill="white"/>
<path d="M40.6113 4.6641H37.0355V1.08829H40.6113V4.6641ZM37.4501 4.30134H40.1967V1.5547H37.4501V4.30134Z" fill="white"/>
<path d="M20.4002 20.8329L18.3791 20.6256L18.5864 18.6045L20.6075 18.8118L20.4002 20.8329ZM18.7937 20.2629L20.0374 20.3665L20.1411 19.1228L18.8973 19.0191L18.7937 20.2629Z" fill="white"/>
<path d="M31.2831 13.3186L29.262 13.1113L29.4693 11.0901L31.4904 11.2974L31.2831 13.3186ZM29.7284 12.7485L30.9722 12.8521L31.0758 11.6084L29.8321 11.5047L29.7284 12.7485Z" fill="white"/>
</g>
</g>
<defs>
<clipPath id="clip0_25_1251">
<rect width="298" height="54" fill="white"/>
</clipPath>
</defs>
</svg>
