<svg width="708" height="374" viewBox="0 0 708 374" fill="none" xmlns="http://www.w3.org/2000/svg">
<circle cx="650" cy="391" r="82" fill="white"/>
<g clip-path="url(#clip0_8720_129)">
<path d="M608.112 337.943C608.093 337.011 608.366 336.095 608.892 335.325C609.418 334.574 610.136 333.978 610.971 333.6C611.835 333.201 612.776 332.996 613.727 333C614.357 333.003 614.984 333.067 615.601 333.192C616.216 333.299 616.804 333.528 617.329 333.866C617.556 334.002 617.744 334.194 617.874 334.425C618.003 334.656 618.07 334.917 618.067 335.182C618.077 335.637 617.912 336.078 617.607 336.416C617.462 336.582 617.282 336.713 617.08 336.801C616.879 336.889 616.66 336.932 616.44 336.926C616.26 336.929 616.08 336.904 615.907 336.85L615.259 336.617C614.744 336.429 614.201 336.329 613.653 336.321C613.227 336.317 612.808 336.432 612.443 336.652C612.274 336.744 612.133 336.881 612.037 337.047C611.94 337.214 611.891 337.404 611.895 337.596C611.895 338.227 612.374 338.671 613.333 338.916L614.283 339.171C615.565 339.477 616.774 340.034 617.839 340.811C618.28 341.171 618.629 341.63 618.857 342.151C619.085 342.672 619.186 343.24 619.152 343.808C619.229 345.193 618.755 346.553 617.835 347.591C617.295 348.171 616.615 348.601 615.86 348.839C615.061 349.107 614.222 349.242 613.379 349.238C611.981 349.276 610.593 348.998 609.318 348.424C608.94 348.25 608.611 347.985 608.361 347.653C608.12 347.332 607.993 346.94 608 346.539C608.003 346.127 608.167 345.732 608.456 345.438C608.589 345.285 608.754 345.162 608.939 345.077C609.123 344.992 609.324 344.947 609.527 344.946C609.838 344.938 610.148 344.994 610.436 345.112L611.665 345.567C612.216 345.792 612.804 345.911 613.398 345.917C613.884 345.923 614.358 345.772 614.75 345.486C614.941 345.357 615.095 345.182 615.199 344.977C615.304 344.773 615.354 344.545 615.346 344.315C615.359 344.093 615.313 343.871 615.212 343.672C615.111 343.473 614.96 343.305 614.772 343.184C614.483 342.996 614.171 342.844 613.845 342.73C613.543 342.632 613.025 342.472 612.291 342.252C611.504 342.04 610.739 341.751 610.009 341.388C609.441 341.095 608.965 340.651 608.631 340.106C608.259 339.448 608.079 338.699 608.112 337.943ZM625.179 343.761H627.87C629.577 343.761 630.881 343.212 631.784 342.115C632.609 341.078 633.031 339.778 632.972 338.454C632.971 337.987 632.904 337.522 632.773 337.074C632.643 336.613 632.452 336.172 632.205 335.761C631.967 335.361 631.677 334.995 631.343 334.671C630.463 333.809 629.149 333.377 627.402 333.376H623.787C623.497 333.358 623.207 333.4 622.933 333.499C622.66 333.597 622.41 333.751 622.199 333.95C622.003 334.161 621.851 334.41 621.754 334.681C621.657 334.953 621.615 335.241 621.632 335.529V347.101C621.617 347.611 621.787 348.11 622.113 348.504C622.273 348.691 622.475 348.839 622.701 348.937C622.927 349.035 623.173 349.081 623.42 349.071C623.664 349.083 623.908 349.038 624.133 348.94C624.357 348.842 624.556 348.694 624.714 348.506C625.033 348.109 625.199 347.61 625.181 347.101L625.179 343.761ZM625.179 340.675V336.486H627.172C627.726 336.464 628.268 336.657 628.684 337.023C628.884 337.209 629.044 337.433 629.155 337.683C629.266 337.933 629.326 338.202 629.33 338.475C629.345 338.764 629.301 339.053 629.202 339.324C629.102 339.595 628.949 339.844 628.751 340.054C628.513 340.271 628.234 340.438 627.931 340.545C627.627 340.652 627.305 340.696 626.983 340.676L625.179 340.675ZM643.161 345.893L643.648 347.609C643.754 347.987 643.945 348.337 644.207 348.63C644.317 348.764 644.454 348.873 644.61 348.949C644.765 349.025 644.936 349.067 645.109 349.071C645.587 349.08 646.057 348.953 646.466 348.705C646.651 348.594 646.807 348.442 646.922 348.26C647.038 348.078 647.109 347.871 647.13 347.657C647.143 347.279 647.094 346.902 646.986 346.539L642.82 335.067C642.627 334.498 642.274 333.996 641.804 333.622C641.344 333.268 640.78 333.076 640.199 333.076C639.619 333.076 639.055 333.268 638.595 333.622C638.127 333.999 637.775 334.5 637.579 335.067L633.41 346.539C633.3 346.9 633.251 347.278 633.267 347.656C633.295 347.871 633.371 348.077 633.489 348.259C633.608 348.44 633.765 348.593 633.951 348.705C634.35 348.952 634.811 349.078 635.28 349.07C636.012 349.07 636.536 348.461 636.862 347.236L637.236 345.892L643.161 345.893ZM642.098 342.719H638.345L640.223 336.827L642.098 342.719ZM648.381 340.654C648.381 343.548 649.168 345.743 650.742 347.239C651.424 347.889 652.231 348.393 653.113 348.722C654.009 349.064 654.961 349.239 655.92 349.237C657.236 349.293 658.541 348.986 659.695 348.351C660.011 348.205 660.281 347.974 660.474 347.683C660.667 347.393 660.776 347.055 660.788 346.706C660.797 346.278 660.651 345.861 660.377 345.532C660.242 345.367 660.071 345.237 659.876 345.15C659.682 345.064 659.47 345.024 659.258 345.034C659.018 345.047 658.782 345.104 658.562 345.2L657.515 345.686C656.838 345.924 656.109 345.98 655.403 345.85C654.697 345.72 654.037 345.408 653.488 344.945C652.604 344.121 652.163 342.822 652.163 341.048C652.151 340.228 652.297 339.414 652.594 338.649C652.857 337.933 653.343 337.32 653.98 336.901C654.617 336.482 655.372 336.278 656.134 336.32C656.755 336.335 657.368 336.47 657.939 336.716C658.359 336.899 658.805 337.015 659.26 337.06C659.457 337.071 659.653 337.033 659.832 336.951C660.011 336.869 660.168 336.744 660.288 336.588C660.533 336.239 660.658 335.819 660.642 335.392C660.643 335.112 660.571 334.836 660.433 334.592C660.296 334.347 660.097 334.143 659.857 333.998C659.296 333.623 658.667 333.361 658.005 333.227C657.356 333.083 656.694 333.007 656.03 333C654.981 332.991 653.939 333.183 652.962 333.566C652.046 333.924 651.215 334.471 650.522 335.17C649.83 335.87 649.291 336.705 648.937 337.623C648.562 338.589 648.373 339.618 648.381 340.654ZM666.471 336.551H670.136C670.593 336.566 671.039 336.413 671.391 336.121C671.557 335.982 671.688 335.807 671.775 335.609C671.862 335.411 671.903 335.196 671.893 334.98C671.905 334.759 671.866 334.538 671.781 334.334C671.695 334.129 671.565 333.947 671.399 333.8C671.043 333.509 670.592 333.357 670.132 333.375H665.077C664.787 333.358 664.496 333.4 664.223 333.498C663.95 333.597 663.7 333.75 663.487 333.949C663.292 334.161 663.141 334.409 663.043 334.681C662.946 334.952 662.904 335.24 662.92 335.528V346.682C662.89 346.972 662.926 347.265 663.024 347.54C663.122 347.815 663.28 348.064 663.487 348.271C663.693 348.477 663.943 348.634 664.218 348.732C664.493 348.829 664.786 348.865 665.076 348.835H670.132C670.59 348.85 671.038 348.697 671.39 348.404C671.557 348.264 671.689 348.087 671.776 347.887C671.863 347.687 671.903 347.47 671.893 347.252C671.904 347.031 671.866 346.811 671.781 346.607C671.695 346.403 671.565 346.222 671.399 346.075C671.042 345.788 670.593 345.64 670.135 345.657H666.471V342.668H669.783C670.237 342.681 670.68 342.53 671.031 342.241C671.2 342.103 671.335 341.928 671.426 341.728C671.516 341.529 671.559 341.312 671.551 341.093C671.562 340.871 671.521 340.649 671.433 340.444C671.344 340.24 671.21 340.059 671.04 339.915C670.685 339.628 670.24 339.478 669.784 339.492H666.471V336.551Z" fill="#1A1818"/>
<path d="M689.963 336.78L690.42 336.325C690.587 336.165 690.721 335.974 690.813 335.762C690.904 335.55 690.953 335.321 690.956 335.09C690.958 334.859 690.915 334.63 690.827 334.416C690.74 334.202 690.611 334.007 690.448 333.844C690.284 333.68 690.09 333.551 689.876 333.464C689.662 333.376 689.433 333.333 689.202 333.335C688.971 333.337 688.742 333.386 688.53 333.478C688.318 333.569 688.127 333.703 687.967 333.869L687.51 334.327C685.956 333.332 684.109 332.897 682.274 333.096C680.439 333.294 678.727 334.114 677.422 335.418C676.117 336.723 675.297 338.434 675.098 340.269C674.899 342.103 675.333 343.951 676.328 345.505L675.87 345.965C675.545 346.291 675.362 346.732 675.362 347.192C675.363 347.653 675.545 348.094 675.871 348.419C676.196 348.745 676.638 348.927 677.098 348.927C677.558 348.927 677.999 348.744 678.325 348.419L678.781 347.962C680.336 348.956 682.183 349.389 684.017 349.189C685.851 348.99 687.562 348.17 688.866 346.865C690.171 345.561 690.991 343.85 691.19 342.016C691.39 340.182 690.957 338.335 689.963 336.78ZM679.846 337.844C680.505 337.186 681.346 336.74 682.261 336.563C683.176 336.387 684.123 336.489 684.98 336.856L678.856 342.979C678.49 342.122 678.389 341.175 678.566 340.259C678.742 339.344 679.188 338.503 679.847 337.843M686.445 344.441C685.786 345.101 684.945 345.548 684.03 345.724C683.115 345.901 682.167 345.798 681.311 345.431L687.434 339.308C687.8 340.164 687.901 341.111 687.725 342.026C687.548 342.94 687.102 343.781 686.443 344.44" fill="#A3C423"/>
<path d="M609.477 352.715H608.059V351.957H611.819V352.715H610.384V356.919H609.475L609.477 352.715Z" fill="#1A1818"/>
<path d="M618.21 354.718H616.334V356.175H618.432V356.919H615.426V351.957H618.323V352.7H616.334V353.982H618.211L618.21 354.718Z" fill="#1A1818"/>
<path d="M625.822 356.772C625.414 356.934 624.976 357.01 624.537 356.993C622.958 356.993 621.995 356.007 621.995 354.497C621.978 354.145 622.035 353.793 622.162 353.465C622.29 353.136 622.486 352.838 622.737 352.591C622.989 352.343 623.289 352.152 623.62 352.028C623.95 351.905 624.303 351.854 624.655 351.876C625.07 351.861 625.483 351.937 625.866 352.097L625.667 352.819C625.358 352.688 625.026 352.623 624.692 352.627C624.452 352.613 624.212 352.652 623.988 352.74C623.765 352.827 623.563 352.963 623.397 353.137C623.231 353.311 623.105 353.518 623.028 353.746C622.95 353.973 622.923 354.215 622.948 354.453C622.925 354.69 622.953 354.928 623.031 355.152C623.11 355.376 623.236 355.581 623.401 355.751C623.566 355.921 623.767 356.054 623.988 356.138C624.21 356.223 624.448 356.259 624.684 356.243C625.023 356.248 625.36 356.185 625.674 356.058L625.822 356.772Z" fill="#1A1818"/>
<path d="M630.526 351.957V353.945H632.631V351.957H633.54V356.919H632.631V354.733H630.526V356.919H629.617V351.957H630.526Z" fill="#1A1818"/>
<path d="M637.605 356.919V351.957H638.64L639.925 354.085C640.246 354.619 640.53 355.175 640.775 355.749H640.79C640.73 355.086 640.708 354.446 640.708 353.687V351.957H641.55V356.919H640.612L639.312 354.74C638.982 354.185 638.684 353.612 638.418 353.024L638.396 353.032C638.433 353.673 638.44 354.328 638.44 355.145V356.919H637.605Z" fill="#1A1818"/>
<path d="M650.039 354.386C650.039 356.049 649.027 356.999 647.653 356.999C646.25 356.999 645.363 355.932 645.363 354.474C645.363 352.95 646.324 351.875 647.727 351.875C649.183 351.875 650.04 352.972 650.04 354.386M646.324 354.459C646.324 355.468 646.834 356.27 647.705 356.27C648.585 356.27 649.079 355.46 649.079 354.422C649.079 353.487 648.614 352.605 647.705 352.605C646.804 352.605 646.324 353.436 646.324 354.46" fill="#1A1818"/>
<path d="M653.848 351.957H654.757V356.161H656.803V356.919H653.848V351.957Z" fill="#1A1818"/>
<path d="M664.641 354.386C664.641 356.049 663.629 356.999 662.255 356.999C660.851 356.999 659.965 355.932 659.965 354.474C659.965 352.95 660.925 351.875 662.329 351.875C663.784 351.875 664.641 352.972 664.641 354.386ZM660.925 354.459C660.925 355.468 661.435 356.27 662.307 356.27C663.186 356.27 663.681 355.46 663.681 354.422C663.681 353.487 663.215 352.605 662.307 352.605C661.405 352.605 660.925 353.436 660.925 354.46" fill="#1A1818"/>
<path d="M672.438 356.691C671.923 356.872 671.381 356.967 670.835 356.971C670.482 356.994 670.129 356.948 669.794 356.834C669.459 356.72 669.15 356.542 668.885 356.309C668.65 356.068 668.467 355.782 668.348 355.468C668.228 355.154 668.175 354.818 668.19 354.483C668.19 352.914 669.313 351.906 670.96 351.906C671.413 351.893 671.863 351.973 672.283 352.141L672.083 352.87C671.726 352.719 671.341 352.646 670.953 352.657C670.712 352.635 670.469 352.666 670.242 352.747C670.014 352.829 669.807 352.959 669.635 353.128C669.462 353.298 669.329 353.503 669.244 353.729C669.159 353.955 669.124 354.198 669.143 354.439C669.12 354.674 669.149 354.912 669.227 355.136C669.305 355.359 669.43 355.563 669.594 355.734C669.758 355.905 669.958 356.038 670.178 356.124C670.398 356.211 670.635 356.248 670.871 356.235C671.105 356.247 671.339 356.212 671.558 356.132V354.895H670.679V354.181H672.438V356.691Z" fill="#1A1818"/>
<path d="M677.296 351.957H676.387V356.919H677.296V351.957Z" fill="#1A1818"/>
<path d="M684.145 354.718H682.268V356.175H684.366V356.919H681.359V351.957H684.256V352.7H682.269V353.982H684.145L684.145 354.718Z" fill="#1A1818"/>
<path d="M688.165 355.933C688.533 356.137 688.947 356.246 689.369 356.249C689.953 356.249 690.278 355.977 690.278 355.572C690.278 355.196 690.027 354.976 689.391 354.747C688.571 354.453 688.047 354.018 688.047 353.304C688.047 352.495 688.726 351.876 689.805 351.876C690.217 351.865 690.627 351.95 691.001 352.126L690.779 352.855C690.473 352.697 690.134 352.617 689.789 352.62C689.215 352.62 688.962 352.929 688.962 353.216C688.962 353.599 689.249 353.776 689.915 354.033C690.78 354.357 691.201 354.791 691.201 355.505C691.201 356.301 690.595 356.993 689.31 356.993C688.843 356.997 688.383 356.891 687.965 356.683L688.165 355.933Z" fill="#1A1818"/>
</g>
<defs>
<clipPath id="clip0_8720_129">
<rect width="83.2387" height="24" fill="white" transform="translate(608 333)"/>
</clipPath>
</defs>
</svg>
