<svg width="193" height="40" viewBox="0 0 193 40" fill="none" xmlns="http://www.w3.org/2000/svg">
<g clip-path="url(#clip0_6043_31169)">
<rect width="40" height="40" rx="7.27273" fill="url(#paint0_linear_6043_31169)"/>
<path d="M12.479 12.9463C10.29 9.30389 7.28503 7.99727 -0.601562 6.70691C1.61864 6.56416 5.96915 5.9274 12.0599 8.97276C13.8001 6.36245 16.4104 5.0573 19.6042 4.54492C15.5625 6.45831 13.7603 8.03789 12.479 12.9463Z" fill="#B7B7E1"/>
<path d="M-2.72656 11.3516C0.995548 11.6706 2.69708 15.8181 2.69708 22.5179C3.44151 20.8164 5.99381 17.626 10.2477 17.626C8.65246 19.3275 8.54611 20.9227 8.54611 23.2623C8.54611 25.921 9.71592 28.7923 13.0126 28.7923C15.884 28.7923 16.7348 27.8352 20.7759 28.3669C19.3636 27.727 18.3299 27.4098 16.6284 27.1971C20.9886 26.4527 23.6473 27.1971 27.0503 29.4304C27.0503 28.3669 27.2601 27.5092 27.6884 26.4527C27.7757 27.4969 27.9011 28.1542 28.7519 28.7923C28.3265 26.9844 28.6455 26.0273 29.3899 24.9639C30.1344 25.6019 31.0915 26.0273 31.9422 26.0273C33.6438 26.0273 36.1961 23.156 37.2595 18.5831C37.2595 20.7197 36.4247 25.5052 33.3793 28.9856C31.4022 27.6353 30.5647 26.7358 29.3899 24.9639C29.9896 26.9605 30.7441 28.0293 32.5092 29.8557C30.2321 32.0916 28.781 33.0553 25.9835 34.2063C23.8082 30.7258 22.068 30.2908 19.0226 29.8557C22.068 30.7258 23.3392 31.9028 24.6783 34.6413L22.503 35.5114C20.3278 33.7712 19.0226 32.9011 15.565 32.9011C11.1917 32.9011 9.01644 35.5114 6.40613 39.4269C3.70157 33.6244 3.45771 30.0754 5.10097 23.2623C2.80954 29.0946 2.58385 32.6291 3.79582 39.4269H-2.72656V11.3516Z" fill="white"/>
<path d="M-2.72656 11.3516C0.995548 11.6706 2.69708 15.8181 2.69708 22.5179C3.44151 20.8164 5.99381 17.626 10.2477 17.626C8.65246 19.3275 8.54611 20.9227 8.54611 23.2623C8.54611 25.921 9.71592 28.7923 13.0126 28.7923C15.884 28.7923 16.7348 27.8352 20.7759 28.3669C19.3636 27.727 18.3299 27.4098 16.6284 27.1971C20.9886 26.4527 23.6473 27.1971 27.0503 29.4304C27.0503 28.3669 27.2601 27.5092 27.6884 26.4527C27.7757 27.4969 27.9011 28.1542 28.7519 28.7923C28.3265 26.9844 28.6455 26.0273 29.3899 24.9639C30.1344 25.6019 31.0915 26.0273 31.9422 26.0273C33.6438 26.0273 36.1961 23.156 37.2595 18.5831C37.2595 20.7197 36.4247 25.5052 33.3793 28.9856C31.4022 27.6353 30.5647 26.7358 29.3899 24.9639C29.9896 26.9605 30.7441 28.0293 32.5092 29.8557C30.2321 32.0916 28.781 33.0553 25.9835 34.2063C23.8082 30.7258 22.068 30.2908 19.0226 29.8557C22.068 30.7258 23.3392 31.9028 24.6783 34.6413L22.503 35.5114C20.3278 33.7712 19.0226 32.9011 15.565 32.9011C11.1917 32.9011 9.01644 35.5114 6.40613 39.4269C3.70157 33.6244 3.45771 30.0754 5.10097 23.2623C2.80954 29.0946 2.58385 32.6291 3.79582 39.4269H-2.72656V11.3516Z" fill="#4747DD" fill-opacity="0.2"/>
<path d="M15.565 14.3288C15.565 11.4574 17.0795 7.69175 19.6061 4.54492C15.5644 6.45831 13.7622 8.03789 12.4809 12.9463C10.2919 9.30389 7.28695 7.99727 -0.599642 6.70691C-1.295 6.75162 -2.0029 6.81217 -2.72656 6.88453V11.3511C0.995548 11.6701 2.69708 15.8176 2.69708 22.5174C3.44151 20.8159 5.99381 17.6255 10.2477 17.6255C8.65246 19.327 8.54611 20.9222 8.54611 23.2618C8.54611 25.9205 9.71592 28.7918 13.0126 28.7918C15.884 28.7918 16.7348 27.8347 20.7759 28.3664C19.3636 27.7265 18.3299 27.4093 16.6284 27.1966C20.9886 26.4522 23.6472 27.1966 27.0503 29.4299C27.0503 28.3664 27.2601 27.5087 27.6884 26.4522C27.7757 27.4964 27.9011 28.1537 28.7519 28.7918C28.3265 26.9839 28.6455 26.0268 29.3899 24.9634C30.1344 25.6014 31.0915 26.0268 31.9422 26.0268C33.6438 26.0268 36.1961 23.1555 37.2595 18.5826C37.2948 16.8037 37.2948 15.9336 36.8598 13.3233C36.8598 20.0219 31.2041 23.3295 26.8536 23.3295C21.6329 23.3295 16.8474 18.979 16.8474 13.3233C15.9773 14.6284 15.5388 15.7692 15.9773 18.1089C15.5715 16.7755 15.565 15.7113 15.565 14.3288Z" fill="white"/>
<path d="M12.2266 17.2725C12.7287 17.9039 12.9551 18.4314 12.9941 18.9033V20.7266C13.6196 20.6931 15.1616 20.7268 15.4082 21.1816C14.663 21.4898 14.0809 21.7862 13.5703 22.2617C14.7761 21.8443 15.4374 21.7115 16.6406 21.6865C16.6406 20.4392 15.5849 18.6158 12.2266 17.2725ZM13.5693 18.8076C14.7276 19.33 15.3277 19.7518 15.6807 20.7266C14.9172 20.2894 14.464 20.1665 13.5693 20.3428V18.8076Z" fill="#4747DD"/>
<path d="M14.4943 19.9999C14.0856 19.6979 14.1487 19.4907 14.4943 19.0908L15.858 19.9999C15.2977 20.1372 14.8398 20.2551 14.4943 19.9999Z" fill="#4747DD"/>
</g>
<path d="M61.9042 2.37247V6.74274H55.4231V23.54H50.2799V6.74274H43.7988V2.37247H61.9042ZM67.3847 7.96166C71.9631 7.96166 74.2523 10.0031 74.2523 14.086V19.2887C74.2523 21.0923 74.4009 22.5094 74.6982 23.54H70.2388C70.1 22.9851 70.0307 22.331 70.0307 21.5779H69.9712C68.8216 23.1436 67.1865 23.9265 65.0658 23.9265C63.4604 23.9265 62.1919 23.4905 61.2604 22.6184C60.3289 21.7463 59.8631 20.6364 59.8631 19.2887C59.8631 17.9608 60.3189 16.9004 61.2307 16.1076C62.1622 15.3148 63.7081 14.7499 65.8685 14.413C67.1171 14.2148 68.3262 14.0761 69.4955 13.9968V13.4617C69.4955 11.8761 68.7919 11.0833 67.3847 11.0833C65.9973 11.0833 65.2838 11.7869 65.2442 13.1941H60.4874C60.5667 11.668 61.1811 10.4193 62.3307 9.44815C63.4802 8.45716 65.1649 7.96166 67.3847 7.96166ZM69.4955 17.2373V16.7022C68.5442 16.7418 67.6523 16.8409 66.8198 16.9995C66.0865 17.1382 65.5514 17.3662 65.2144 17.6833C64.8973 17.9806 64.7388 18.3968 64.7388 18.9319C64.7388 19.4671 64.9072 19.8932 65.2442 20.2103C65.5811 20.5076 66.0568 20.6563 66.6712 20.6563C67.7216 20.6563 68.455 20.359 68.8712 19.7644C69.2874 19.1698 69.4955 18.3274 69.4955 17.2373ZM83.8118 7.96166C85.9325 7.96166 87.5775 8.38779 88.7469 9.24004C89.9163 10.0923 90.501 11.3508 90.501 13.0157H85.8037C85.8037 11.7274 85.1298 11.0833 83.7821 11.0833C82.6127 11.0833 82.028 11.4797 82.028 12.2725C82.028 12.7085 82.2262 13.0355 82.6226 13.2536C83.0388 13.4716 83.8712 13.7391 85.1199 14.0563C85.873 14.2545 86.4478 14.4229 86.8442 14.5617C87.2604 14.6806 87.7757 14.8788 88.3902 15.1563C89.0046 15.4337 89.4703 15.7409 89.7875 16.0779C90.1244 16.395 90.4118 16.8211 90.6496 17.3563C90.9073 17.8914 91.0361 18.4959 91.0361 19.1698C91.0361 20.6364 90.4118 21.8157 89.1631 22.7076C87.9145 23.5797 86.2001 24.0157 84.0199 24.0157C79.2037 24.0157 76.7956 22.222 76.7956 18.6346H81.7604C81.7604 20.0617 82.5334 20.7752 84.0793 20.7752C84.6938 20.7752 85.1595 20.6662 85.4766 20.4481C85.8136 20.2103 85.9821 19.9031 85.9821 19.5265C85.9821 19.0112 85.7442 18.6346 85.2685 18.3968C84.8127 18.1391 83.8911 17.8319 82.5037 17.4752C81.81 17.2968 81.2848 17.1581 80.928 17.059C80.5712 16.9599 80.1055 16.7815 79.5307 16.5238C78.9559 16.2463 78.5298 15.959 78.2523 15.6617C77.9748 15.3644 77.7172 14.9581 77.4793 14.4427C77.2613 13.9274 77.1523 13.3427 77.1523 12.6887C77.1523 11.2815 77.737 10.1418 78.9064 9.26977C80.0757 8.3977 81.7109 7.96166 83.8118 7.96166ZM103.166 15.4833L109.112 23.54H103.047L98.7953 16.7022H98.7359V23.54H93.8007V2.37247H98.7359V14.3833H98.7953L102.839 8.43734H108.547L103.166 15.4833ZM111.086 23.54V2.37247H119.678C124.87 2.37247 127.467 4.38418 127.467 8.40761C127.467 9.69589 127.12 10.7959 126.426 11.7076C125.733 12.5995 124.781 13.2238 123.572 13.5806V13.64C124.325 13.8977 124.93 14.3337 125.386 14.9481C125.842 15.5427 126.317 16.5238 126.813 17.8914L128.864 23.54H123.334L121.729 18.7536C121.352 17.6436 120.907 16.8806 120.391 16.4644C119.896 16.0283 119.152 15.8103 118.161 15.8103H116.229V23.54H111.086ZM118.845 6.35626H116.229V11.9157H119.053C121.273 11.9157 122.383 10.9644 122.383 9.06166C122.383 7.25806 121.204 6.35626 118.845 6.35626ZM135.927 2.37247V9.95355H135.987C137.017 8.68508 138.375 8.05085 140.06 8.05085C141.784 8.05085 143.132 8.58598 144.103 9.65626C145.094 10.7067 145.589 12.2427 145.589 14.2644V23.54H140.654V14.7995C140.654 12.8572 139.921 11.886 138.454 11.886C137.661 11.886 137.037 12.213 136.581 12.8671C136.145 13.5013 135.927 14.4527 135.927 15.7211V23.54H130.992V2.37247H135.927ZM154.015 8.43734V23.54H149.079V8.43734H154.015ZM154.015 2.37247V6.26707H149.079V2.37247H154.015ZM166.712 8.05085C168.436 8.05085 169.784 8.58598 170.755 9.65626C171.746 10.7067 172.241 12.2427 172.241 14.2644V23.54H167.306V14.7995C167.306 12.8572 166.573 11.886 165.106 11.886C164.314 11.886 163.689 12.213 163.233 12.8671C162.797 13.5013 162.579 14.4527 162.579 15.7211V23.54H157.644V8.43734H162.252V10.2508H162.312C163.422 8.78418 164.888 8.05085 166.712 8.05085ZM176.98 10.1319C178.447 8.68508 180.419 7.96166 182.897 7.96166C185.374 7.96166 187.336 8.68508 188.783 10.1319C190.25 11.5788 190.983 13.531 190.983 15.9887C190.983 18.4463 190.25 20.3986 188.783 21.8454C187.336 23.2923 185.374 24.0157 182.897 24.0157C180.419 24.0157 178.447 23.2923 176.98 21.8454C175.533 20.3986 174.81 18.4463 174.81 15.9887C174.81 13.531 175.533 11.5788 176.98 10.1319ZM185.007 12.8671C184.512 12.0941 183.808 11.7076 182.897 11.7076C181.985 11.7076 181.271 12.0941 180.756 12.8671C180.261 13.6202 180.013 14.6608 180.013 15.9887C180.013 17.3166 180.261 18.3671 180.756 19.14C181.271 19.8932 181.985 20.2698 182.897 20.2698C183.808 20.2698 184.512 19.8932 185.007 19.14C185.523 18.3671 185.78 17.3166 185.78 15.9887C185.78 14.6608 185.523 13.6202 185.007 12.8671Z" fill="#222222"/>
<path d="M47.4123 29.6005C48.3349 29.6005 49.0772 29.86 49.6394 30.3789C50.2015 30.8978 50.5006 31.5717 50.5367 32.4005H49.2285C49.1709 31.8888 48.9799 31.4888 48.6556 31.2005C48.3385 30.905 47.924 30.7573 47.4123 30.7573C46.7565 30.7573 46.2412 31.0131 45.8664 31.5248C45.4916 32.0293 45.3042 32.7248 45.3042 33.6113C45.3042 34.4978 45.488 35.1969 45.8556 35.7086C46.2303 36.2131 46.7385 36.4654 47.3799 36.4654C47.8916 36.4654 48.3096 36.3176 48.634 36.0221C48.9655 35.7266 49.1673 35.3158 49.2394 34.7897H50.5691C50.4898 35.6762 50.1691 36.3717 49.6069 36.8762C49.0448 37.3735 48.3024 37.6221 47.3799 37.6221C46.3204 37.6221 45.4844 37.2654 44.8718 36.5519C44.2664 35.8383 43.9637 34.8582 43.9637 33.6113C43.9637 32.3645 44.27 31.3843 44.8826 30.6708C45.5024 29.9573 46.3457 29.6005 47.4123 29.6005ZM54.1184 36.714C54.4644 36.714 54.7454 36.6311 54.9617 36.4654C55.1851 36.2996 55.3256 36.0798 55.3833 35.8059H56.6481C56.54 36.3248 56.2626 36.7573 55.8157 37.1032C55.3689 37.4492 54.8031 37.6221 54.1184 37.6221C53.2896 37.6221 52.6373 37.3519 52.1617 36.8113C51.6932 36.2708 51.459 35.5501 51.459 34.6492C51.459 33.8203 51.6932 33.1392 52.1617 32.6059C52.6373 32.0726 53.2824 31.8059 54.0968 31.8059C54.7166 31.8059 55.2427 31.9753 55.6752 32.314C56.1148 32.6455 56.4103 33.0996 56.5617 33.6762C56.6626 34.0005 56.713 34.4293 56.713 34.9627H52.6806C52.7022 35.5537 52.8427 35.9933 53.1022 36.2816C53.3689 36.5699 53.7076 36.714 54.1184 36.714ZM55.0373 33.0816C54.7923 32.8365 54.4788 32.714 54.0968 32.714C53.7148 32.714 53.3977 32.8365 53.1454 33.0816C52.9004 33.3266 52.7526 33.6834 52.7022 34.1519H55.4806C55.4373 33.6834 55.2896 33.3266 55.0373 33.0816ZM60.643 31.8924C60.7871 31.8924 60.9385 31.9104 61.097 31.9464V33.0383C60.9601 33.0095 60.816 32.9951 60.6646 32.9951C60.1745 32.9951 59.7961 33.1501 59.5295 33.46C59.27 33.7627 59.1403 34.1987 59.1403 34.7681V37.46H57.9079V31.9681H59.0538V32.7789H59.0754C59.443 32.1879 59.9655 31.8924 60.643 31.8924ZM64.3151 36.5194C64.4737 36.5194 64.5998 36.5014 64.6935 36.4654V37.4275C64.4701 37.4924 64.2394 37.5248 64.0016 37.5248C63.4178 37.5248 62.9926 37.3951 62.7259 37.1356C62.4665 36.869 62.3367 36.4365 62.3367 35.8383V32.9086H61.4178V31.9681H62.3367V30.5951H63.5692V31.9681H64.6394V32.9086H63.5692V35.6546C63.5692 35.9645 63.6268 36.1879 63.7421 36.3248C63.8575 36.4546 64.0485 36.5194 64.3151 36.5194ZM67.0056 31.9681V37.46H65.7731V31.9681H67.0056ZM67.0056 29.7627V30.941H65.7731V29.7627H67.0056ZM67.922 31.9681H68.8517V31.3843C68.8517 30.2528 69.4066 29.687 70.5166 29.687C70.6967 29.687 70.9129 29.7122 71.1652 29.7627V30.6708C71.0643 30.6419 70.9634 30.6275 70.8625 30.6275C70.5958 30.6275 70.3976 30.6996 70.2679 30.8437C70.1382 30.9807 70.0733 31.2077 70.0733 31.5248V31.9681H71.1328V32.9086H70.0733V37.46H68.8517V32.9086H67.922V31.9681ZM72.0733 37.46V31.9681H73.3057V37.46H72.0733ZM72.0733 29.7627H73.3057V30.941H72.0733V29.7627ZM77.1653 36.714C77.5112 36.714 77.7923 36.6311 78.0085 36.4654C78.232 36.2996 78.3725 36.0798 78.4301 35.8059H79.695C79.5869 36.3248 79.3094 36.7573 78.8626 37.1032C78.4157 37.4492 77.85 37.6221 77.1653 37.6221C76.3365 37.6221 75.6842 37.3519 75.2085 36.8113C74.7401 36.2708 74.5058 35.5501 74.5058 34.6492C74.5058 33.8203 74.7401 33.1392 75.2085 32.6059C75.6842 32.0726 76.3292 31.8059 77.1437 31.8059C77.7635 31.8059 78.2896 31.9753 78.722 32.314C79.1617 32.6455 79.4572 33.0996 79.6085 33.6762C79.7094 34.0005 79.7599 34.4293 79.7599 34.9627H75.7274C75.7491 35.5537 75.8896 35.9933 76.1491 36.2816C76.4157 36.5699 76.7545 36.714 77.1653 36.714ZM78.0842 33.0816C77.8392 32.8365 77.5256 32.714 77.1437 32.714C76.7617 32.714 76.4446 32.8365 76.1923 33.0816C75.9473 33.3266 75.7995 33.6834 75.7491 34.1519H78.5274C78.4842 33.6834 78.3365 33.3266 78.0842 33.0816ZM85.8279 29.7627V37.46H84.6279V36.7032H84.6062C84.4477 36.9843 84.2207 37.2041 83.9252 37.3627C83.6369 37.514 83.3198 37.5897 82.9738 37.5897C82.2747 37.5897 81.7162 37.3302 81.2981 36.8113C80.8873 36.2852 80.6819 35.5861 80.6819 34.714C80.6819 33.8347 80.8873 33.1356 81.2981 32.6167C81.709 32.0906 82.2639 31.8275 82.963 31.8275C83.309 31.8275 83.6225 31.9032 83.9035 32.0546C84.1918 32.2059 84.4153 32.4149 84.5738 32.6816H84.5954V29.7627H85.8279ZM83.3306 32.7897C82.9126 32.7897 82.581 32.9663 82.336 33.3194C82.0909 33.6654 81.9684 34.1302 81.9684 34.714C81.9684 35.2978 82.0909 35.7663 82.336 36.1194C82.581 36.4654 82.9126 36.6383 83.3306 36.6383C83.7342 36.6383 84.0549 36.4654 84.2927 36.1194C84.5378 35.7735 84.6603 35.305 84.6603 34.714C84.6603 34.1158 84.5378 33.6473 84.2927 33.3086C84.0549 32.9627 83.7342 32.7897 83.3306 32.7897ZM96.005 31.8383C96.596 31.8383 97.0572 32.0293 97.3888 32.4113C97.7203 32.7933 97.8861 33.3482 97.8861 34.0762V37.46H96.6536V34.1951C96.6536 33.287 96.3221 32.8329 95.659 32.8329C95.2987 32.8329 95.014 32.9807 94.805 33.2762C94.6032 33.5645 94.5023 33.9717 94.5023 34.4978V37.46H93.2698V34.0654C93.2698 33.6762 93.1834 33.3735 93.0104 33.1573C92.8446 32.941 92.6032 32.8329 92.2861 32.8329C91.9185 32.8329 91.6338 32.9807 91.432 33.2762C91.2302 33.5717 91.1293 33.9861 91.1293 34.5194V37.46H89.8969V31.9681H91.0752V32.6275H91.0969C91.4861 32.1014 91.9942 31.8383 92.6212 31.8383C93.414 31.8383 93.9545 32.1699 94.2428 32.8329C94.668 32.1699 95.2554 31.8383 96.005 31.8383ZM99.7659 32.5951C100.256 32.069 100.915 31.8059 101.744 31.8059C102.573 31.8059 103.229 32.069 103.712 32.5951C104.202 33.114 104.447 33.8203 104.447 34.714C104.447 35.6077 104.202 36.3176 103.712 36.8437C103.229 37.3627 102.573 37.6221 101.744 37.6221C100.915 37.6221 100.256 37.3627 99.7659 36.8437C99.2758 36.3176 99.0307 35.6077 99.0307 34.714C99.0307 33.8203 99.2758 33.114 99.7659 32.5951ZM102.782 33.2978C102.53 32.9519 102.184 32.7789 101.744 32.7789C101.305 32.7789 100.959 32.9519 100.706 33.2978C100.454 33.6437 100.328 34.1158 100.328 34.714C100.328 35.3122 100.454 35.7843 100.706 36.1302C100.959 36.4762 101.305 36.6492 101.744 36.6492C102.184 36.6492 102.53 36.4762 102.782 36.1302C103.034 35.7843 103.16 35.3122 103.16 34.714C103.16 34.1158 103.034 33.6437 102.782 33.2978ZM108.481 31.8383C109.115 31.8383 109.605 32.0293 109.951 32.4113C110.304 32.7933 110.481 33.3555 110.481 34.0978V37.46H109.249V34.2059C109.249 33.2906 108.877 32.8329 108.135 32.8329C107.767 32.8329 107.465 32.9699 107.227 33.2437C106.996 33.5176 106.881 33.9068 106.881 34.4113V37.46H105.649V31.9681H106.816V32.6816H106.838C107.227 32.1194 107.775 31.8383 108.481 31.8383ZM116.772 29.7627V37.46H115.572V36.7032H115.55C115.392 36.9843 115.164 37.2041 114.869 37.3627C114.581 37.514 114.264 37.5897 113.918 37.5897C113.219 37.5897 112.66 37.3302 112.242 36.8113C111.831 36.2852 111.626 35.5861 111.626 34.714C111.626 33.8347 111.831 33.1356 112.242 32.6167C112.653 32.0906 113.208 31.8275 113.907 31.8275C114.253 31.8275 114.566 31.9032 114.847 32.0546C115.136 32.2059 115.359 32.4149 115.518 32.6816H115.539V29.7627H116.772ZM114.274 32.7897C113.856 32.7897 113.525 32.9663 113.28 33.3194C113.035 33.6654 112.912 34.1302 112.912 34.714C112.912 35.2978 113.035 35.7663 113.28 36.1194C113.525 36.4654 113.856 36.6383 114.274 36.6383C114.678 36.6383 114.999 36.4654 115.237 36.1194C115.482 35.7735 115.604 35.305 115.604 34.714C115.604 34.1158 115.482 33.6473 115.237 33.3086C114.999 32.9627 114.678 32.7897 114.274 32.7897ZM120.403 31.8059C121.138 31.8059 121.697 31.9861 122.079 32.3464C122.468 32.7068 122.663 33.2437 122.663 33.9573V36.0113C122.663 36.6023 122.71 37.0852 122.803 37.46H121.69C121.639 37.2365 121.614 36.9807 121.614 36.6924H121.592C121.189 37.2834 120.573 37.5789 119.744 37.5789C119.182 37.5789 118.731 37.4275 118.392 37.1248C118.054 36.8149 117.884 36.4221 117.884 35.9464C117.884 35.478 118.043 35.1032 118.36 34.8221C118.684 34.541 119.228 34.3392 119.992 34.2167C120.454 34.1374 120.947 34.0834 121.473 34.0546V33.8383C121.473 33.0816 121.117 32.7032 120.403 32.7032C120.072 32.7032 119.812 32.7897 119.625 32.9627C119.437 33.1356 119.337 33.3699 119.322 33.6654H118.111C118.14 33.1176 118.349 32.6708 118.738 32.3248C119.135 31.9789 119.69 31.8059 120.403 31.8059ZM121.473 35.1248V34.8546C121.005 34.8834 120.583 34.9302 120.209 34.9951C119.812 35.06 119.531 35.1573 119.365 35.287C119.207 35.4167 119.128 35.6077 119.128 35.86C119.128 36.105 119.21 36.3032 119.376 36.4546C119.549 36.5987 119.791 36.6708 120.1 36.6708C120.519 36.6708 120.85 36.5482 121.095 36.3032C121.239 36.1519 121.337 35.9933 121.387 35.8275C121.445 35.6546 121.473 35.4203 121.473 35.1248ZM127.262 31.9681H128.538L126.419 37.6978C126.16 38.3897 125.853 38.8654 125.5 39.1248C125.154 39.3843 124.661 39.514 124.019 39.514C123.796 39.514 123.59 39.4888 123.403 39.4383V38.4329C123.569 38.4834 123.742 38.5086 123.922 38.5086C124.253 38.5086 124.506 38.4365 124.679 38.2924C124.859 38.1482 125.014 37.8852 125.144 37.5032L123.133 31.9681H124.452L125.825 36.0546H125.846L127.262 31.9681ZM130.055 35.9248V37.46H128.628V35.9248H130.055ZM133.732 31.8059C134.424 31.8059 134.994 32.0077 135.44 32.4113C135.894 32.8077 136.15 33.323 136.208 33.9573H134.921C134.893 33.5969 134.77 33.3122 134.554 33.1032C134.338 32.887 134.064 32.7789 133.732 32.7789C133.3 32.7789 132.961 32.9519 132.716 33.2978C132.478 33.6365 132.359 34.1086 132.359 34.714C132.359 35.3194 132.478 35.7951 132.716 36.141C132.961 36.4798 133.3 36.6492 133.732 36.6492C134.064 36.6492 134.334 36.5302 134.543 36.2924C134.759 36.0546 134.882 35.7482 134.911 35.3735H136.208C136.15 36.0437 135.898 36.5879 135.451 37.0059C135.004 37.4167 134.431 37.6221 133.732 37.6221C132.918 37.6221 132.269 37.3591 131.786 36.8329C131.303 36.3068 131.062 35.6005 131.062 34.714C131.062 33.8275 131.303 33.1212 131.786 32.5951C132.269 32.069 132.918 31.8059 133.732 31.8059ZM137.783 32.5951C138.273 32.069 138.933 31.8059 139.762 31.8059C140.59 31.8059 141.246 32.069 141.729 32.5951C142.219 33.114 142.464 33.8203 142.464 34.714C142.464 35.6077 142.219 36.3176 141.729 36.8437C141.246 37.3627 140.59 37.6221 139.762 37.6221C138.933 37.6221 138.273 37.3627 137.783 36.8437C137.293 36.3176 137.048 35.6077 137.048 34.714C137.048 33.8203 137.293 33.114 137.783 32.5951ZM140.799 33.2978C140.547 32.9519 140.201 32.7789 139.762 32.7789C139.322 32.7789 138.976 32.9519 138.724 33.2978C138.471 33.6437 138.345 34.1158 138.345 34.714C138.345 35.3122 138.471 35.7843 138.724 36.1302C138.976 36.4762 139.322 36.6492 139.762 36.6492C140.201 36.6492 140.547 36.4762 140.799 36.1302C141.052 35.7843 141.178 35.3122 141.178 34.714C141.178 34.1158 141.052 33.6437 140.799 33.2978ZM149.774 31.8383C150.365 31.8383 150.826 32.0293 151.158 32.4113C151.489 32.7933 151.655 33.3482 151.655 34.0762V37.46H150.423V34.1951C150.423 33.287 150.091 32.8329 149.428 32.8329C149.068 32.8329 148.783 32.9807 148.574 33.2762C148.372 33.5645 148.271 33.9717 148.271 34.4978V37.46H147.039V34.0654C147.039 33.6762 146.952 33.3735 146.779 33.1573C146.614 32.941 146.372 32.8329 146.055 32.8329C145.687 32.8329 145.403 32.9807 145.201 33.2762C144.999 33.5717 144.898 33.9861 144.898 34.5194V37.46H143.666V31.9681H144.844V32.6275H144.866C145.255 32.1014 145.763 31.8383 146.39 31.8383C147.183 31.8383 147.724 32.1699 148.012 32.8329C148.437 32.1699 149.024 31.8383 149.774 31.8383ZM155.832 37.46V29.7627H158.61C159.497 29.7627 160.178 29.9789 160.653 30.4113C161.129 30.8437 161.367 31.4275 161.367 32.1627C161.367 32.905 161.129 33.4924 160.653 33.9248C160.178 34.3573 159.497 34.5735 158.61 34.5735H157.129V37.46H155.832ZM158.459 30.8546H157.129V33.4816H158.459C159.511 33.4816 160.037 33.0419 160.037 32.1627C160.037 31.2906 159.511 30.8546 158.459 30.8546ZM164.407 31.8059C165.142 31.8059 165.7 31.9861 166.082 32.3464C166.471 32.7068 166.666 33.2437 166.666 33.9573V36.0113C166.666 36.6023 166.713 37.0852 166.807 37.46H165.693C165.643 37.2365 165.617 36.9807 165.617 36.6924H165.596C165.192 37.2834 164.576 37.5789 163.747 37.5789C163.185 37.5789 162.735 37.4275 162.396 37.1248C162.057 36.8149 161.888 36.4221 161.888 35.9464C161.888 35.478 162.046 35.1032 162.363 34.8221C162.688 34.541 163.232 34.3392 163.996 34.2167C164.457 34.1374 164.951 34.0834 165.477 34.0546V33.8383C165.477 33.0816 165.12 32.7032 164.407 32.7032C164.075 32.7032 163.816 32.7897 163.628 32.9627C163.441 33.1356 163.34 33.3699 163.326 33.6654H162.115C162.144 33.1176 162.353 32.6708 162.742 32.3248C163.138 31.9789 163.693 31.8059 164.407 31.8059ZM165.477 35.1248V34.8546C165.008 34.8834 164.587 34.9302 164.212 34.9951C163.816 35.06 163.535 35.1573 163.369 35.287C163.21 35.4167 163.131 35.6077 163.131 35.86C163.131 36.105 163.214 36.3032 163.38 36.4546C163.553 36.5987 163.794 36.6708 164.104 36.6708C164.522 36.6708 164.853 36.5482 165.098 36.3032C165.243 36.1519 165.34 35.9933 165.39 35.8275C165.448 35.6546 165.477 35.4203 165.477 35.1248ZM170.915 31.8924C171.06 31.8924 171.211 31.9104 171.369 31.9464V33.0383C171.232 33.0095 171.088 32.9951 170.937 32.9951C170.447 32.9951 170.069 33.1501 169.802 33.46C169.542 33.7627 169.413 34.1987 169.413 34.7681V37.46H168.18V31.9681H169.326V32.7789H169.348C169.715 32.1879 170.238 31.8924 170.915 31.8924ZM174.587 36.5194C174.746 36.5194 174.872 36.5014 174.966 36.4654V37.4275C174.742 37.4924 174.512 37.5248 174.274 37.5248C173.69 37.5248 173.265 37.3951 172.998 37.1356C172.739 36.869 172.609 36.4365 172.609 35.8383V32.9086H171.69V31.9681H172.609V30.5951H173.842V31.9681H174.912V32.9086H173.842V35.6546C173.842 35.9645 173.899 36.1879 174.015 36.3248C174.13 36.4546 174.321 36.5194 174.587 36.5194ZM178.878 31.8383C179.512 31.8383 180.002 32.0293 180.348 32.4113C180.701 32.7933 180.878 33.3555 180.878 34.0978V37.46H179.646V34.2059C179.646 33.2906 179.274 32.8329 178.532 32.8329C178.164 32.8329 177.862 32.9699 177.624 33.2437C177.393 33.5176 177.278 33.9068 177.278 34.4113V37.46H176.046V31.9681H177.213V32.6816H177.235C177.624 32.1194 178.172 31.8383 178.878 31.8383ZM184.682 36.714C185.028 36.714 185.309 36.6311 185.525 36.4654C185.749 36.2996 185.889 36.0798 185.947 35.8059H187.212C187.104 36.3248 186.826 36.7573 186.379 37.1032C185.933 37.4492 185.367 37.6221 184.682 37.6221C183.853 37.6221 183.201 37.3519 182.725 36.8113C182.257 36.2708 182.023 35.5501 182.023 34.6492C182.023 33.8203 182.257 33.1392 182.725 32.6059C183.201 32.0726 183.846 31.8059 184.661 31.8059C185.28 31.8059 185.807 31.9753 186.239 32.314C186.679 32.6455 186.974 33.0996 187.125 33.6762C187.226 34.0005 187.277 34.4293 187.277 34.9627H183.244C183.266 35.5537 183.407 35.9933 183.666 36.2816C183.933 36.5699 184.271 36.714 184.682 36.714ZM185.601 33.0816C185.356 32.8365 185.043 32.714 184.661 32.714C184.279 32.714 183.961 32.8365 183.709 33.0816C183.464 33.3266 183.316 33.6834 183.266 34.1519H186.044C186.001 33.6834 185.853 33.3266 185.601 33.0816ZM191.207 31.8924C191.351 31.8924 191.502 31.9104 191.661 31.9464V33.0383C191.524 33.0095 191.38 32.9951 191.228 32.9951C190.738 32.9951 190.36 33.1501 190.093 33.46C189.834 33.7627 189.704 34.1987 189.704 34.7681V37.46H188.472V31.9681H189.618V32.7789H189.639C190.007 32.1879 190.529 31.8924 191.207 31.8924Z" fill="#888888"/>
<defs>
<linearGradient id="paint0_linear_6043_31169" x1="25.0874" y1="0.54945" x2="13.362" y2="40.063" gradientUnits="userSpaceOnUse">
<stop offset="0.00348847" stop-color="#4747DD"/>
<stop offset="1" stop-color="#2323BD"/>
</linearGradient>
<clipPath id="clip0_6043_31169">
<rect width="40" height="40" rx="7.27273" fill="white"/>
</clipPath>
</defs>
</svg>
