<svg width="140" height="40" viewBox="0 0 140 40" fill="none" xmlns="http://www.w3.org/2000/svg">
<g clip-path="url(#clip0_13_112)">
<path d="M0.82011 8.23953C0.788865 6.68472 1.24376 5.15894 2.12131 3.87508C2.99701 2.62359 4.19333 1.63079 5.58481 1.0008C7.02486 0.335433 8.59336 -0.00586508 10.1797 0.000978032C11.2286 0.00563178 12.2745 0.112443 13.3027 0.3199C14.3278 0.498736 15.3067 0.88098 16.1818 1.4441C16.5609 1.66979 16.8741 1.99112 17.09 2.37592C17.306 2.76072 17.417 3.19548 17.412 3.63669C17.4282 4.39521 17.1541 5.13127 16.6458 5.69453C16.4037 5.96988 16.104 6.18866 15.768 6.33539C15.4319 6.48212 15.0677 6.55322 14.7012 6.54366C14.4 6.54934 14.0998 6.50654 13.8122 6.41689L12.7318 6.0294C11.8739 5.71583 10.9694 5.54873 10.0561 5.53507C9.3456 5.5296 8.64744 5.72083 8.03891 6.0876C7.75702 6.24077 7.52273 6.46856 7.3617 6.74604C7.20067 7.02351 7.11913 7.33995 7.126 7.66069C7.126 8.71233 7.9233 9.45223 9.5219 9.86125L11.1053 10.2854C13.2427 10.7947 15.2574 11.7238 17.0325 13.0186C17.7668 13.6184 18.3482 14.384 18.7287 15.2524C19.1092 16.1209 19.278 17.0673 19.2211 18.0137C19.3482 20.3226 18.5591 22.5883 17.0253 24.3188C16.1264 25.2848 14.9924 26.0015 13.7341 26.399C12.4017 26.8462 11.0047 27.0706 9.59924 27.0631C7.26955 27.1272 4.95551 26.6639 2.83012 25.7077C2.20072 25.4173 1.65292 24.9758 1.23551 24.4224C0.834298 23.8872 0.622779 23.2335 0.634338 22.5647C0.639361 21.878 0.91161 21.2203 1.39337 20.7309C1.6161 20.4756 1.89043 20.2703 2.19829 20.1288C2.50614 19.9872 2.84051 19.9125 3.17934 19.9097C3.69793 19.897 4.2136 19.9911 4.69422 20.1864L6.74249 20.9454C7.65974 21.321 8.64002 21.5187 9.63113 21.5282C10.4399 21.5381 11.2302 21.2864 11.8843 20.8106C12.2016 20.596 12.4591 20.3043 12.6329 19.9629C12.8067 19.6216 12.8909 19.2417 12.8778 18.8588C12.8996 18.4881 12.8225 18.1182 12.6544 17.787C12.4862 17.4558 12.2332 17.1752 11.921 16.974C11.4382 16.6606 10.9194 16.4066 10.3758 16.2174C9.87298 16.0531 9.0095 15.7874 7.78537 15.4201C6.47336 15.0672 5.19966 14.5848 3.98302 13.9801C3.03634 13.4913 2.24184 12.7523 1.68598 11.8434C1.06506 10.7471 0.765011 9.49824 0.82011 8.23953ZM29.2664 17.9356H33.7504C36.5952 17.9356 38.7697 17.0213 40.274 15.1928C41.6483 13.464 42.3514 11.2966 42.2537 9.09026C42.252 8.31204 42.1406 7.53794 41.9228 6.79083C41.7054 6.02244 41.3866 5.28643 40.9748 4.60223C40.5786 3.93591 40.0961 3.32492 39.5396 2.78517C38.0721 1.34896 35.8824 0.62952 32.9706 0.626863H26.9454C26.4623 0.59748 25.9782 0.667197 25.523 0.831729C25.0678 0.996262 24.6511 1.25214 24.2984 1.58363C23.9717 1.93587 23.7196 2.35053 23.5572 2.80268C23.3948 3.25483 23.3256 3.73513 23.3535 4.21474V23.5023C23.3283 24.353 23.613 25.1838 24.1548 25.84C24.423 26.1517 24.7583 26.3987 25.1356 26.5623C25.5128 26.7259 25.9222 26.802 26.3331 26.7848C26.7409 26.8048 27.1478 26.7303 27.522 26.5671C27.8962 26.4039 28.2277 26.1564 28.4906 25.844C29.0227 25.1822 29.299 24.351 29.2688 23.5023L29.2664 17.9356ZM29.2664 12.7913V5.81014H32.5879C33.5114 5.7745 34.4132 6.09472 35.1074 6.70472C35.4406 7.01506 35.7077 7.38951 35.8927 7.8056C36.0776 8.22169 36.1767 8.67085 36.1838 9.12613C36.2086 9.60708 36.1359 10.0881 35.9702 10.5402C35.8044 10.9924 35.5489 11.4063 35.219 11.7572C34.8228 12.1191 34.3578 12.3974 33.8516 12.5755C33.3454 12.7536 32.8085 12.8278 32.273 12.7937L29.2664 12.7913ZM59.2363 21.4891L60.0471 24.3483C60.2236 24.9793 60.5424 25.5614 60.9792 26.0497C61.1618 26.2735 61.3907 26.4551 61.6501 26.582C61.9095 26.7089 62.1934 26.7781 62.4821 26.7848C63.2784 26.7999 64.0626 26.5884 64.7432 26.1749C65.0516 25.9909 65.3124 25.737 65.5047 25.4337C65.6969 25.1304 65.8152 24.7862 65.8499 24.4288C65.8718 23.7991 65.791 23.17 65.6107 22.5663L58.667 3.44613C58.3461 2.49701 57.758 1.66066 56.9735 1.03747C56.2069 0.44758 55.2667 0.127732 54.2994 0.127732C53.332 0.127732 52.3918 0.44758 51.6252 1.03747C50.8456 1.66533 50.2587 2.5001 49.9317 3.44613L42.984 22.5647C42.7998 23.1676 42.7189 23.7973 42.7448 24.4272C42.7916 24.7855 42.9183 25.1287 43.1157 25.4313C43.3131 25.734 43.576 25.9884 43.8849 26.1757C44.5499 26.5867 45.3191 26.7978 46.1007 26.784C47.3213 26.784 48.1944 25.7691 48.7366 23.7264L49.36 21.4876L59.2363 21.4891ZM57.4639 16.199H51.2082L54.3392 6.37942L57.4639 16.199ZM67.9349 12.7579C67.9349 17.58 69.2467 21.238 71.8704 23.732C73.007 24.8147 74.3516 25.6555 75.8226 26.2036C77.316 26.7741 78.9017 27.0649 80.5004 27.0615C82.6932 27.155 84.8696 26.6442 86.7919 25.5849C87.3195 25.3414 87.7692 24.9564 88.0909 24.4726C88.4127 23.9888 88.594 23.4252 88.6146 22.8446C88.6294 22.1305 88.3859 21.4352 87.9289 20.8864C87.704 20.6126 87.4183 20.395 87.0946 20.2509C86.7708 20.1068 86.418 20.0402 86.064 20.0564C85.6638 20.0794 85.271 20.1737 84.9039 20.3347L83.1594 21.1439C82.0297 21.5397 80.8163 21.6339 79.6391 21.4172C78.4618 21.2005 77.3615 20.6803 76.4469 19.9081C74.9745 18.5351 74.2386 16.3702 74.2392 13.4132C74.2194 12.047 74.463 10.6897 74.9567 9.41556C75.3953 8.22228 76.2051 7.20118 77.2671 6.50238C78.3292 5.80359 79.5874 5.46398 80.8568 5.53348C81.8925 5.55902 82.9138 5.78313 83.865 6.19365C84.565 6.4984 85.3083 6.69183 86.068 6.76691C86.3957 6.78505 86.723 6.72292 87.0213 6.58592C87.3196 6.44893 87.58 6.2412 87.7798 5.98077C88.1892 5.39873 88.3967 4.69862 88.3706 3.9875C88.3719 3.52019 88.252 3.06051 88.0227 2.65332C87.7934 2.24613 87.4625 1.90532 87.0622 1.66416C86.1271 1.03844 85.0786 0.601566 83.9758 0.378103C82.8944 0.139352 81.7912 0.0129722 80.6838 0.000978032C78.9349 -0.0138022 77.1993 0.306084 75.5707 0.943393C74.0434 1.54114 72.6583 2.45208 71.5044 3.61755C70.3512 4.78325 69.4519 6.17505 68.8629 7.70534C68.2369 9.31568 67.922 11.0302 67.9349 12.7579ZM98.0858 5.91937H104.193C104.955 5.94385 105.699 5.68859 106.285 5.2018C106.562 4.97055 106.781 4.67867 106.926 4.34887C107.071 4.01907 107.138 3.66022 107.122 3.30023C107.142 2.93176 107.078 2.56369 106.935 2.22333C106.793 1.88296 106.576 1.57903 106.3 1.33407C105.706 0.848239 104.954 0.596171 104.188 0.625268H95.7616C95.2783 0.596606 94.7942 0.666654 94.3388 0.831144C93.8835 0.995634 93.4664 1.25112 93.113 1.58203C92.7868 1.93469 92.5349 2.34937 92.3723 2.80139C92.2097 3.25341 92.1398 3.73352 92.1666 4.21314V22.8039C92.1178 23.2877 92.1772 23.7762 92.3407 24.2342C92.5042 24.6921 92.7675 25.1079 93.1116 25.4514C93.4557 25.7949 93.872 26.0575 94.3302 26.2202C94.7885 26.3828 95.2771 26.4414 95.7608 26.3918H104.187C104.95 26.4173 105.697 26.162 106.284 25.6742C106.562 25.4399 106.782 25.1447 106.927 24.8116C107.073 24.4785 107.139 24.1164 107.122 23.7535C107.141 23.3858 107.078 23.0184 106.935 22.6789C106.793 22.3393 106.575 22.0364 106.299 21.7929C105.703 21.3146 104.956 21.0669 104.192 21.0953H98.085V16.1137H103.606C104.362 16.1361 105.101 15.8834 105.685 15.4025C105.968 15.1723 106.193 14.8797 106.344 14.5477C106.494 14.2157 106.566 13.8533 106.552 13.489C106.57 13.1183 106.503 12.7485 106.355 12.408C106.208 12.0675 105.984 11.7655 105.701 11.5252C105.11 11.0477 104.367 10.7977 103.607 10.8204H98.0858V5.91937Z" fill="#1A1818"/>
<path d="M137.242 6.30088L138.003 5.54184C138.281 5.27549 138.503 4.95625 138.657 4.60285C138.81 4.24946 138.891 3.86902 138.895 3.48385C138.9 3.09869 138.827 2.71654 138.682 2.35983C138.536 2.00311 138.321 1.67901 138.049 1.40654C137.777 1.13406 137.453 0.918686 137.096 0.77305C136.74 0.627415 136.357 0.554449 135.972 0.55843C135.587 0.562411 135.207 0.643259 134.853 0.796234C134.5 0.949208 134.18 1.17123 133.914 1.44928L133.152 2.2123C130.562 0.553267 127.483 -0.170928 124.426 0.159761C121.368 0.490449 118.515 1.85616 116.34 4.03051C114.165 6.20485 112.798 9.05726 112.466 12.1149C112.134 15.1725 112.857 18.2517 114.515 20.8421L113.753 21.6091C113.211 22.1516 112.906 22.8873 112.907 23.6543C112.907 24.4213 113.212 25.1567 113.754 25.6989C114.297 26.2411 115.032 26.5456 115.799 26.5453C116.566 26.5451 117.302 26.2402 117.844 25.6977L118.605 24.9371C121.195 26.5931 124.274 27.3146 127.331 26.9822C130.387 26.6498 133.239 25.2834 135.413 23.1093C137.587 20.9352 138.954 18.0837 139.286 15.027C139.619 11.9703 138.897 8.89166 137.242 6.30088ZM120.379 8.07409C121.477 6.9765 122.879 6.23296 124.404 5.93925C125.929 5.64553 127.507 5.81508 128.935 6.42606L118.73 16.6316C118.12 15.2029 117.951 13.6244 118.245 12.0991C118.539 10.5737 119.283 9.17117 120.38 8.07169M131.377 19.0689C130.28 20.1682 128.878 20.913 127.352 21.2071C125.827 21.5011 124.248 21.331 122.821 20.7185L133.026 10.513C133.636 11.9407 133.805 13.5183 133.511 15.0427C133.216 16.5671 132.473 17.9685 131.375 19.0665" fill="#A3C423"/>
<path d="M3.09653 32.8585H0.732521V31.5947H6.99934V32.8585H4.60742V39.8652H3.09254L3.09653 32.8585Z" fill="#1A1818"/>
<path d="M17.6513 36.195H14.5243V38.6244H18.0213V39.8634H13.0102V31.5938H17.8387V32.8328H14.5243V34.968H17.6521L17.6513 36.195Z" fill="#1A1818"/>
<path d="M30.3357 39.6195C29.655 39.8901 28.9253 40.0156 28.1933 39.9879C25.5622 39.9879 23.9572 38.3439 23.9572 35.8284C23.9277 35.2414 24.0226 34.6548 24.2357 34.1072C24.4489 33.5595 24.7754 33.0631 25.194 32.6505C25.6126 32.238 26.1137 31.9186 26.6644 31.7134C27.2151 31.5082 27.803 31.4219 28.3895 31.4599C29.0814 31.4351 29.7704 31.5608 30.409 31.8283L30.0765 33.0306C29.5624 32.8133 29.0089 32.7047 28.4508 32.7117C28.0512 32.6882 27.6512 32.752 27.2787 32.8986C26.9061 33.0452 26.57 33.2711 26.2935 33.5607C26.0171 33.8502 25.807 34.1965 25.6778 34.5754C25.5486 34.9544 25.5035 35.3569 25.5455 35.755C25.5064 36.1487 25.5536 36.5461 25.6839 36.9196C25.8142 37.2931 26.0245 37.6337 26.3 37.9176C26.5754 38.2015 26.9095 38.4219 27.279 38.5634C27.6484 38.7049 28.0442 38.7641 28.4389 38.7369C29.0037 38.7452 29.5645 38.6408 30.0885 38.43L30.3357 39.6195Z" fill="#1A1818"/>
<path d="M38.1803 31.5938V34.9074H41.6885V31.5938H43.2034V39.8642H41.6885V36.2197H38.1803V39.8642H36.6655V31.5938H38.1803Z" fill="#1A1818"/>
<path d="M49.9773 39.8642V31.5938H51.701L53.8434 35.1402C54.3782 36.0311 54.8514 36.9576 55.2594 37.9132H55.2841C55.1853 36.8089 55.1486 35.7413 55.1486 34.4776V31.5938H56.5519V39.8642H54.9883L52.8213 36.2317C52.2715 35.3072 51.7741 34.3527 51.3311 33.3725L51.2944 33.3853C51.3558 34.4529 51.3678 35.5452 51.3678 36.907V39.8642H49.9773Z" fill="#1A1818"/>
<path d="M70.7016 35.6432C70.7016 38.4163 69.0145 39.9997 66.7247 39.9997C64.3854 39.9997 62.908 38.2201 62.908 35.7907C62.908 33.2505 64.509 31.459 66.8482 31.459C69.2736 31.459 70.7024 33.2872 70.7024 35.6432M64.509 35.766C64.509 37.4467 65.3589 38.7846 66.8116 38.7846C68.277 38.7846 69.1014 37.4348 69.1014 35.7046C69.1014 34.1459 68.3257 32.6749 66.8116 32.6749C65.3095 32.6749 64.509 34.0614 64.509 35.7668" fill="#1A1818"/>
<path d="M77.045 31.5938H78.5599V38.6005H81.97V39.8642H77.045V31.5938Z" fill="#1A1818"/>
<path d="M95.037 35.6432C95.037 38.4163 93.3499 39.9997 91.06 39.9997C88.7199 39.9997 87.2433 38.2201 87.2433 35.7907C87.2433 33.2505 88.8435 31.459 91.1836 31.459C93.609 31.459 95.037 33.2872 95.037 35.6432ZM88.8435 35.766C88.8435 37.4467 89.6934 38.7846 91.1461 38.7846C92.6116 38.7846 93.4368 37.4348 93.4368 35.7046C93.4368 34.1459 92.661 32.6749 91.1461 32.6749C89.644 32.6749 88.8435 34.0614 88.8435 35.7668" fill="#1A1818"/>
<path d="M108.029 39.4842C107.17 39.7861 106.267 39.9437 105.357 39.9506C104.769 39.9893 104.18 39.9117 103.622 39.7222C103.064 39.5327 102.549 39.2351 102.107 38.8464C101.716 38.4454 101.411 37.9684 101.212 37.4449C101.013 36.9214 100.923 36.3626 100.949 35.8031C100.949 33.1895 102.82 31.508 105.566 31.508C106.32 31.4872 107.07 31.6209 107.77 31.901L107.437 33.1161C106.842 32.8631 106.2 32.7418 105.553 32.7605C105.152 32.7239 104.748 32.7752 104.368 32.9108C103.989 33.0464 103.644 33.2631 103.357 33.5457C103.069 33.8283 102.847 34.1701 102.706 34.5472C102.564 34.9244 102.506 35.3279 102.536 35.7297C102.499 36.1226 102.547 36.5189 102.677 36.8915C102.807 37.2642 103.016 37.6044 103.289 37.8887C103.563 38.1731 103.895 38.3949 104.262 38.539C104.63 38.6831 105.024 38.7461 105.418 38.7236C105.807 38.7436 106.196 38.6853 106.563 38.5522V36.4903H105.097V35.3H108.029V39.4842Z" fill="#1A1818"/>
<path d="M116.13 31.5938H114.616V39.8642H116.13V31.5938Z" fill="#1A1818"/>
<path d="M127.545 36.195H124.418V38.6244H127.915V39.8634H122.904V31.5938H127.731V32.8328H124.419V34.968H127.547L127.545 36.195Z" fill="#1A1818"/>
<path d="M134.244 38.2203C134.859 38.5612 135.549 38.7427 136.251 38.7481C137.224 38.7481 137.766 38.2945 137.766 37.6191C137.766 36.9933 137.348 36.6257 136.289 36.2446C134.922 35.7535 134.048 35.0295 134.048 33.8399C134.048 32.4901 135.18 31.4592 136.978 31.4592C137.665 31.4403 138.348 31.5831 138.971 31.8762L138.602 33.0913C138.092 32.8282 137.526 32.6935 136.952 32.699C135.995 32.699 135.574 33.214 135.574 33.6924C135.574 34.3303 136.052 34.6253 137.162 35.0542C138.603 35.594 139.304 36.318 139.304 37.5083C139.304 38.8335 138.295 39.9871 136.152 39.9871C135.375 39.9938 134.607 39.817 133.911 39.4713L134.244 38.2203Z" fill="#1A1818"/>
</g>
<defs>
<clipPath id="clip0_13_112">
<rect width="138.731" height="40" fill="white" transform="translate(0.634453)"/>
</clipPath>
</defs>
</svg>
