<svg width="1000" height="500" viewBox="0 0 1000 500" fill="none" xmlns="http://www.w3.org/2000/svg">
<circle cx="893.5" cy="520.5" r="132.5" fill="white"/>
<g clip-path="url(#clip0_5306_275)">
<path d="M811.237 483.525C807.831 483.525 805.059 480.753 805.059 477.347V450.654C805.059 447.248 807.831 444.476 811.237 444.476H837.93C841.336 444.476 844.108 447.248 844.108 450.654V477.347C844.108 480.753 841.336 483.525 837.93 483.525H811.237Z" fill="white"/>
<path d="M837.929 444.95C841.097 444.95 843.632 447.564 843.632 450.653V477.347C843.632 480.515 841.018 483.05 837.929 483.05H811.235C808.067 483.05 805.533 480.436 805.533 477.347V450.653C805.533 447.485 808.146 444.95 811.235 444.95H837.929ZM837.929 444H811.235C807.513 444 804.582 446.931 804.582 450.653V477.347C804.582 481.069 807.513 484 811.235 484H837.929C841.651 484 844.582 481.069 844.582 477.347V450.653C844.582 446.931 841.651 444 837.929 444Z" fill="#0875F7"/>
<path d="M871.118 471.801H866.92L865.969 464.673C865.89 464.197 865.811 463.643 865.811 463.009C865.811 462.376 865.732 461.742 865.652 461.029C865.573 461.742 865.336 462.613 865.019 463.643C864.94 463.881 864.94 464.039 864.86 464.118L862.642 471.881H859.633L857.415 464.118C857.415 464.039 857.336 463.881 857.256 463.643C856.94 462.613 856.702 461.742 856.623 461.029C856.543 461.663 856.543 462.296 856.464 462.851C856.385 463.485 856.306 464.039 856.227 464.673L855.276 471.801H851.078L853.613 455.326H858.048L860.504 463.801C860.504 463.881 860.583 463.96 860.583 464.118C860.821 464.91 860.979 465.544 861.058 466.098C861.058 465.782 861.138 465.465 861.217 465.148C861.296 464.831 861.375 464.356 861.534 463.881L864.068 455.405H868.504L871.118 471.801Z" fill="#0875F7"/>
<path d="M885.374 466.178C885.374 466.97 885.215 467.762 884.898 468.475C884.581 469.188 884.106 469.901 883.473 470.456C882.839 471.01 882.205 471.485 881.413 471.802C880.621 472.119 879.829 472.277 878.958 472.277C878.086 472.277 877.294 472.119 876.502 471.802C875.71 471.485 875.077 471.089 874.443 470.456C873.809 469.901 873.413 469.267 873.096 468.475C872.78 467.683 872.621 466.97 872.621 466.099C872.621 465.228 872.78 464.515 873.096 463.723C873.413 463.01 873.888 462.297 874.443 461.743C874.997 461.188 875.71 460.713 876.502 460.396C877.294 460.079 878.086 459.921 878.958 459.921C879.829 459.921 880.621 460.079 881.413 460.396C882.205 460.713 882.839 461.109 883.473 461.743C884.106 462.297 884.581 463.01 884.898 463.723C885.215 464.515 885.374 465.307 885.374 466.178ZM881.334 466.178C881.334 465.307 881.096 464.673 880.7 464.198C880.304 463.723 879.671 463.485 878.958 463.485C878.245 463.485 877.611 463.723 877.215 464.198C876.819 464.673 876.581 465.386 876.581 466.178C876.581 466.97 876.819 467.683 877.215 468.159C877.611 468.634 878.245 468.871 878.958 468.871C879.671 468.871 880.304 468.634 880.7 468.159C881.176 467.683 881.334 466.97 881.334 466.178Z" fill="#0875F7"/>
<path d="M887.672 471.802V460.396H891.315V462.693C891.87 461.743 892.504 461.109 893.137 460.634C893.85 460.238 894.642 460 895.672 460C896.385 460 897.098 460.079 897.652 460.317C898.207 460.554 898.682 460.871 899.078 461.347C899.395 461.743 899.632 462.218 899.711 462.772C899.87 463.327 899.87 464.119 899.87 465.228V471.723H895.83V465.624C895.83 464.752 895.672 464.04 895.355 463.644C895.038 463.248 894.563 463.01 893.929 463.01C893.058 463.01 892.504 463.327 892.108 463.96C891.711 464.594 891.553 465.545 891.553 466.97V471.723H887.672V471.802Z" fill="#0875F7"/>
<path d="M914.838 466.178C914.838 466.97 914.68 467.762 914.363 468.475C914.046 469.188 913.571 469.901 912.937 470.456C912.304 471.01 911.67 471.485 910.878 471.802C910.086 472.119 909.294 472.277 908.423 472.277C907.551 472.277 906.759 472.119 905.967 471.802C905.175 471.485 904.541 471.089 903.908 470.456C903.274 469.901 902.878 469.267 902.561 468.475C902.244 467.683 902.086 466.97 902.086 466.099C902.086 465.228 902.244 464.515 902.561 463.723C902.878 463.01 903.353 462.297 903.908 461.743C904.541 461.188 905.175 460.713 905.967 460.396C906.759 460.079 907.551 459.921 908.423 459.921C909.294 459.921 910.086 460.079 910.878 460.396C911.67 460.713 912.304 461.109 912.937 461.743C913.571 462.297 914.046 463.01 914.363 463.723C914.68 464.515 914.838 465.307 914.838 466.178ZM910.799 466.178C910.799 465.307 910.561 464.673 910.165 464.198C909.769 463.723 909.135 463.485 908.423 463.485C907.71 463.485 907.076 463.723 906.68 464.198C906.284 464.673 906.046 465.386 906.046 466.178C906.046 466.97 906.284 467.683 906.68 468.159C907.076 468.634 907.71 468.871 908.423 468.871C909.135 468.871 909.769 468.634 910.165 468.159C910.64 467.683 910.799 466.97 910.799 466.178Z" fill="#0875F7"/>
<path d="M925.297 464.198C924.901 463.881 924.505 463.564 924.188 463.406C923.792 463.247 923.475 463.168 923.079 463.168C922.287 463.168 921.654 463.406 921.178 463.96C920.703 464.515 920.465 465.228 920.465 466.099C920.465 466.97 920.703 467.683 921.178 468.158C921.654 468.713 922.287 468.95 923.158 468.95C923.554 468.95 923.951 468.871 924.267 468.713C924.663 468.554 924.98 468.317 925.297 468V471.485C924.822 471.723 924.347 471.96 923.871 472.119C923.396 472.277 922.921 472.277 922.366 472.277C920.624 472.277 919.198 471.723 918.089 470.614C916.98 469.505 916.426 468 916.426 466.178C916.426 464.435 916.98 462.93 918.089 461.822C919.198 460.713 920.624 460.158 922.366 460.158C922.921 460.158 923.475 460.237 923.951 460.317C924.426 460.396 924.822 460.633 925.297 460.871V464.198Z" fill="#0875F7"/>
<path d="M939.477 460.396V466.178C939.477 467.445 939.397 468.396 939.16 469.029C938.922 469.663 938.605 470.217 938.13 470.693C937.655 471.168 937.021 471.564 936.229 471.801C935.516 472.039 934.566 472.197 933.615 472.197C932.586 472.197 931.714 472.039 931.001 471.801C930.289 471.564 929.655 471.168 929.1 470.693C928.625 470.217 928.229 469.663 928.071 469.029C927.912 468.396 927.754 467.445 927.754 466.178V460.396H931.556V466.495C931.556 467.445 931.714 468.158 932.031 468.554C932.348 468.95 932.823 469.188 933.536 469.188C934.249 469.188 934.724 468.95 935.041 468.554C935.358 468.158 935.516 467.445 935.516 466.495V460.396H939.477Z" fill="#0875F7"/>
<path d="M942.324 454.297H946.126V460.237C946.126 460.713 946.126 461.109 946.126 461.426C946.126 461.742 946.047 462.059 946.047 462.218C946.522 461.426 947.077 460.792 947.631 460.475C948.265 460.158 949.057 459.921 950.007 459.921C951.512 459.921 952.78 460.475 953.73 461.584C954.681 462.693 955.156 464.198 955.156 465.94C955.156 467.841 954.681 469.267 953.73 470.376C952.78 471.485 951.512 472.039 949.928 472.039C949.136 472.039 948.423 471.881 947.79 471.485C947.156 471.089 946.601 470.535 946.047 469.742V471.564H942.324V454.297ZM945.889 466.099C945.889 466.97 946.126 467.683 946.601 468.158C947.077 468.634 947.71 468.95 948.502 468.95C949.295 468.95 949.928 468.713 950.403 468.158C950.879 467.683 951.116 466.97 951.116 466.02C951.116 465.148 950.879 464.435 950.403 463.96C949.928 463.485 949.295 463.168 948.502 463.168C947.71 463.168 947.077 463.406 946.601 463.96C946.126 464.515 945.889 465.228 945.889 466.099Z" fill="#0875F7"/>
<path d="M969.334 466.891H960.7C960.7 467.762 960.938 468.475 961.413 468.95C961.889 469.426 962.522 469.663 963.314 469.663C963.948 469.663 964.423 469.584 964.819 469.347C965.215 469.109 965.532 468.792 965.77 468.317L968.78 469.505C968.384 470.376 967.75 471.01 966.879 471.485C966.007 471.96 964.819 472.198 963.473 472.198C961.492 472.198 959.908 471.644 958.72 470.535C957.532 469.426 956.898 468 956.898 466.178C956.898 464.436 957.532 462.931 958.72 461.743C959.908 460.554 961.413 460 963.235 460C965.136 460 966.641 460.554 967.671 461.743C968.7 462.931 969.334 464.594 969.334 466.653V466.891ZM965.374 464.673C965.294 464.04 965.057 463.485 964.661 463.089C964.265 462.693 963.71 462.535 963.156 462.535C962.522 462.535 961.968 462.693 961.572 463.089C961.176 463.485 960.938 463.96 960.78 464.673H965.374Z" fill="#0875F7"/>
<path d="M983.91 454.297V471.802H980.187V469.98C979.712 470.772 979.078 471.327 978.444 471.723C977.811 472.119 977.098 472.277 976.306 472.277C974.722 472.277 973.454 471.723 972.504 470.614C971.553 469.505 971.078 468 971.078 466.178C971.078 464.356 971.553 462.931 972.504 461.822C973.454 460.713 974.642 460.158 976.227 460.158C977.177 460.158 977.969 460.317 978.603 460.713C979.237 461.03 979.712 461.663 980.187 462.455C980.108 462.218 980.108 461.901 980.108 461.505C980.108 461.188 980.108 460.792 980.108 460.396V454.455H983.91V454.297ZM980.345 466.099C980.345 465.228 980.108 464.515 979.633 464.039C979.157 463.564 978.524 463.247 977.732 463.247C976.94 463.247 976.306 463.485 975.831 464.039C975.355 464.515 975.118 465.228 975.118 466.099C975.118 466.97 975.355 467.683 975.831 468.237C976.306 468.713 976.94 469.03 977.732 469.03C978.524 469.03 979.157 468.792 979.633 468.237C980.108 467.683 980.345 466.97 980.345 466.099Z" fill="#0875F7"/>
<path d="M838.009 453.901L824.543 453.347L811.078 453.822L824.543 455.327L838.009 453.901Z" fill="#0875F7"/>
<path d="M819.631 465.148L819.473 476.238L824.067 478.297V468.95L819.631 465.148Z" fill="#0875F7"/>
<path d="M809.574 454.693V471.644L815.594 474.416V458.179L824.069 464.753V456.198L809.574 454.693Z" fill="#0875F7"/>
<path d="M825.016 456.198V464.753L833.491 458.099L833.412 474.416L839.511 471.565V454.693L825.016 456.198Z" fill="#0875F7"/>
<path d="M829.53 476.238V469.742V465.148L825.016 468.95V478.297L829.53 476.238Z" fill="#0875F7"/>
</g>
<defs>
<clipPath id="clip0_5306_275">
<rect width="179.326" height="40" fill="white" transform="translate(804.582 444)"/>
</clipPath>
</defs>
</svg>
