<svg width="840" height="188" viewBox="0 0 840 188" fill="none" xmlns="http://www.w3.org/2000/svg">
<g clip-path="url(#clip0_1179_7450)">
<path d="M31.1658 185.141C15.2117 185.141 2.22587 172.155 2.22587 156.201V31.1661C2.22587 15.212 15.2117 2.22614 31.1658 2.22614H156.201C172.155 2.22614 185.141 15.212 185.141 31.1661V156.201C185.141 172.155 172.155 185.141 156.201 185.141H31.1658Z" fill="white"/>
<path d="M156.201 4.4523C171.042 4.4523 182.915 16.6961 182.915 31.1661V156.201C182.915 171.042 170.671 182.915 156.201 182.915H31.1661C16.3251 182.915 4.45229 170.671 4.45229 156.201V31.1661C4.45229 16.3251 16.6961 4.4523 31.1661 4.4523H156.201ZM156.201 0H31.1661C13.7279 0 0 13.7279 0 31.1661V156.201C0 173.64 13.7279 187.367 31.1661 187.367H156.201C173.64 187.367 187.367 173.64 187.367 156.201V31.1661C187.367 13.7279 173.64 0 156.201 0Z" fill="#0875F7"/>
<path d="M311.661 130.23H291.996L287.544 96.8375C287.173 94.6113 286.802 92.0142 286.802 89.046C286.802 86.0778 286.431 83.1096 286.06 79.7703C285.689 83.1096 284.576 87.1908 283.092 92.0142C282.721 93.1272 282.721 93.8693 282.35 94.2403L271.961 130.601H257.862L247.473 94.2403C247.473 93.8693 247.102 93.1272 246.731 92.0142C245.247 87.1908 244.134 83.1096 243.763 79.7703C243.392 82.7385 243.392 85.7067 243.021 88.3039C242.65 91.2721 242.279 93.8693 241.908 96.8375L237.456 130.23H217.791L229.664 53.0566H250.442L261.943 92.7562C261.943 93.1272 262.314 93.4983 262.314 94.2403C263.428 97.9506 264.17 100.919 264.541 103.516C264.541 102.032 264.912 100.548 265.283 99.0636C265.654 97.5795 266.025 95.3534 266.767 93.1272L278.64 53.4276H299.417L311.661 130.23Z" fill="#0875F7"/>
<path d="M378.445 103.887C378.445 107.597 377.703 111.307 376.219 114.647C374.735 117.986 372.509 121.325 369.541 123.922C366.572 126.519 363.604 128.746 359.894 130.23C356.184 131.714 352.473 132.456 348.392 132.456C344.311 132.456 340.601 131.714 336.89 130.23C333.18 128.746 330.212 126.89 327.244 123.922C324.276 121.325 322.42 118.357 320.936 114.647C319.452 110.936 318.71 107.597 318.71 103.516C318.71 99.4346 319.452 96.0954 320.936 92.3852C322.42 89.0459 324.647 85.7067 327.244 83.1095C329.841 80.5124 333.18 78.2862 336.89 76.8021C340.601 75.318 344.311 74.576 348.392 74.576C352.473 74.576 356.184 75.318 359.894 76.8021C363.604 78.2862 366.572 80.1413 369.541 83.1095C372.509 85.7067 374.735 89.0459 376.219 92.3852C377.703 96.0954 378.445 99.8056 378.445 103.887ZM359.523 103.887C359.523 99.8056 358.41 96.8375 356.555 94.6113C354.7 92.3852 351.731 91.2721 348.392 91.2721C345.053 91.2721 342.085 92.3852 340.23 94.6113C338.375 96.8375 337.261 100.177 337.261 103.887C337.261 107.597 338.375 110.936 340.23 113.163C342.085 115.389 345.053 116.502 348.392 116.502C351.731 116.502 354.7 115.389 356.555 113.163C358.781 110.936 359.523 107.597 359.523 103.887Z" fill="#0875F7"/>
<path d="M389.205 130.23V76.802H406.272V87.5618C408.869 83.1095 411.837 80.1413 414.806 77.9151C418.145 76.06 421.855 74.9469 426.678 74.9469C430.018 74.9469 433.357 75.3179 435.954 76.431C438.551 77.5441 440.777 79.0282 442.633 81.2543C444.117 83.1095 445.23 85.3356 445.601 87.9328C446.343 90.53 446.343 94.2402 446.343 99.4345V129.859H427.42V101.29C427.42 97.2084 426.678 93.8692 425.194 92.014C423.71 90.1589 421.484 89.0459 418.516 89.0459C414.435 89.0459 411.837 90.53 409.982 93.4982C408.127 96.4664 407.385 100.919 407.385 107.597V129.859H389.205V130.23Z" fill="#0875F7"/>
<path d="M516.466 103.887C516.466 107.597 515.724 111.307 514.24 114.647C512.756 117.986 510.53 121.325 507.562 123.922C504.594 126.519 501.625 128.746 497.915 130.23C494.205 131.714 490.495 132.456 486.413 132.456C482.332 132.456 478.622 131.714 474.912 130.23C471.201 128.746 468.233 126.89 465.265 123.922C462.297 121.325 460.442 118.357 458.958 114.647C457.474 110.936 456.732 107.597 456.732 103.516C456.732 99.4346 457.474 96.0954 458.958 92.3852C460.442 89.0459 462.668 85.7067 465.265 83.1095C468.233 80.5124 471.201 78.2862 474.912 76.8021C478.622 75.318 482.332 74.576 486.413 74.576C490.495 74.576 494.205 75.318 497.915 76.8021C501.625 78.2862 504.594 80.1413 507.562 83.1095C510.53 85.7067 512.756 89.0459 514.24 92.3852C515.724 96.0954 516.466 99.8056 516.466 103.887ZM497.544 103.887C497.544 99.8056 496.431 96.8375 494.576 94.6113C492.721 92.3852 489.753 91.2721 486.413 91.2721C483.074 91.2721 480.106 92.3852 478.251 94.6113C476.396 96.8375 475.283 100.177 475.283 103.887C475.283 107.597 476.396 110.936 478.251 113.163C480.106 115.389 483.074 116.502 486.413 116.502C489.753 116.502 492.721 115.389 494.576 113.163C496.802 110.936 497.544 107.597 497.544 103.887Z" fill="#0875F7"/>
<path d="M565.442 94.6113C563.587 93.1272 561.731 91.6431 560.247 90.901C558.392 90.159 556.908 89.788 555.053 89.788C551.343 89.788 548.375 90.901 546.148 93.4982C543.922 96.0954 542.809 99.4346 542.809 103.516C542.809 107.597 543.922 110.936 546.148 113.163C548.375 115.76 551.343 116.873 555.424 116.873C557.279 116.873 559.134 116.502 560.618 115.76C562.474 115.018 563.958 113.905 565.442 112.42V128.746C563.216 129.859 560.989 130.972 558.763 131.714C556.537 132.456 554.311 132.456 551.714 132.456C543.551 132.456 536.873 129.859 531.678 124.664C526.484 119.47 523.887 112.42 523.887 103.887C523.887 95.7243 526.484 88.6749 531.678 83.4805C536.873 78.2862 543.551 75.689 551.714 75.689C554.311 75.689 556.908 76.06 559.134 76.4311C561.36 76.8021 563.216 77.9152 565.442 79.0282V94.6113Z" fill="#0875F7"/>
<path d="M631.855 76.8021V103.887C631.855 109.823 631.484 114.276 630.371 117.244C629.258 120.212 627.774 122.809 625.548 125.035C623.322 127.261 620.353 129.117 616.643 130.23C613.304 131.343 608.852 132.085 604.399 132.085C599.576 132.085 595.495 131.343 592.155 130.23C588.816 129.117 585.848 127.261 583.251 125.035C581.025 122.809 579.17 120.212 578.427 117.244C577.685 114.276 576.943 109.823 576.943 103.887V76.8021H594.753V105.371C594.753 109.823 595.495 113.162 596.979 115.018C598.463 116.873 600.689 117.986 604.028 117.986C607.367 117.986 609.594 116.873 611.078 115.018C612.562 113.162 613.304 109.823 613.304 105.371V76.8021H631.855Z" fill="#0875F7"/>
<path d="M645.212 48.2332H663.021V76.06C663.021 78.2862 663.021 80.1413 663.021 81.6254C663.021 83.1095 662.65 84.5936 662.65 85.3356C664.876 81.6254 667.474 78.6572 670.071 77.1731C673.039 75.689 676.749 74.5759 681.201 74.5759C688.251 74.5759 694.187 77.1731 698.64 82.3675C703.092 87.5618 705.318 94.6113 705.318 102.774C705.318 111.678 703.092 118.357 698.64 123.551C694.187 128.746 688.251 131.343 680.83 131.343C677.12 131.343 673.781 130.601 670.813 128.746C667.845 126.89 665.247 124.293 662.65 120.583V129.117H645.212V48.2332ZM661.908 103.516C661.908 107.597 663.021 110.936 665.247 113.163C667.474 115.389 670.442 116.873 674.152 116.873C677.862 116.873 680.83 115.76 683.057 113.163C685.283 110.936 686.396 107.597 686.396 103.145C686.396 99.0636 685.283 95.7243 683.057 93.4982C680.83 91.272 677.862 89.7879 674.152 89.7879C670.442 89.7879 667.474 90.901 665.247 93.4982C663.021 96.0954 661.908 99.4346 661.908 103.516Z" fill="#0875F7"/>
<path d="M771.732 107.226H731.29C731.29 111.307 732.403 114.647 734.629 116.873C736.855 119.099 739.823 120.212 743.534 120.212C746.502 120.212 748.728 119.841 750.583 118.728C752.438 117.615 753.922 116.131 755.035 113.905L769.134 119.47C767.279 123.551 764.311 126.519 760.23 128.746C756.149 130.972 750.583 132.085 744.276 132.085C735 132.085 727.58 129.488 722.014 124.293C716.449 119.099 713.481 112.42 713.481 103.887C713.481 95.7243 716.449 88.6748 722.014 83.1095C727.58 77.5441 734.629 74.9469 743.163 74.9469C752.067 74.9469 759.117 77.5441 763.94 83.1095C768.763 88.6748 771.732 96.4663 771.732 106.113V107.226ZM753.18 96.8374C752.809 93.8692 751.696 91.272 749.841 89.4169C747.986 87.5618 745.389 86.8197 742.792 86.8197C739.823 86.8197 737.226 87.5618 735.371 89.4169C733.516 91.272 732.403 93.4981 731.661 96.8374H753.18Z" fill="#0875F7"/>
<path d="M840 48.2332V130.23H822.562V121.696C820.336 125.406 817.367 128.003 814.399 129.859C811.431 131.714 808.092 132.456 804.382 132.456C796.961 132.456 791.025 129.859 786.572 124.664C782.12 119.47 779.894 112.42 779.894 103.887C779.894 95.3533 782.12 88.6749 786.572 83.4805C791.025 78.2862 796.59 75.689 804.011 75.689C808.463 75.689 812.173 76.4311 815.141 78.2862C818.109 79.7703 820.336 82.7385 822.562 86.4487C822.191 85.3356 822.191 83.8515 822.191 81.9964C822.191 80.5123 822.191 78.6572 822.191 76.8021V48.9752H840V48.2332ZM823.304 103.516C823.304 99.4346 822.191 96.0954 819.965 93.8692C817.738 91.6431 814.77 90.159 811.06 90.159C807.35 90.159 804.382 91.272 802.155 93.8692C799.929 96.0954 798.816 99.4346 798.816 103.516C798.816 107.597 799.929 110.936 802.155 113.534C804.382 115.76 807.35 117.244 811.06 117.244C814.77 117.244 817.738 116.131 819.965 113.534C822.191 110.936 823.304 107.597 823.304 103.516Z" fill="#0875F7"/>
<path d="M156.572 46.3781L93.4982 43.7809L30.424 46.0071L93.4982 53.0565L156.572 46.3781Z" fill="#0875F7"/>
<path d="M70.4947 99.0636L69.7526 151.007L91.272 160.654V116.873L70.4947 99.0636Z" fill="#0875F7"/>
<path d="M23.3745 50.0883V129.488L51.5723 142.473V66.4134L91.272 97.2085V57.1378L23.3745 50.0883Z" fill="#0875F7"/>
<path d="M95.7242 57.1378V97.2085L135.424 66.0424L135.053 142.473L163.622 129.117V50.0883L95.7242 57.1378Z" fill="#0875F7"/>
<path d="M116.873 151.007V120.583V99.0636L95.7242 116.873V160.654L116.873 151.007Z" fill="#0875F7"/>
</g>
<defs>
<clipPath id="clip0_1179_7450">
<rect width="840" height="187.367" fill="white"/>
</clipPath>
</defs>
</svg>
