<svg width="1200" height="675" viewBox="0 0 1200 675" fill="none" xmlns="http://www.w3.org/2000/svg">
<rect width="1200" height="675" fill="#FEF2EC"/>
<g clip-path="url(#clip0_25_1065)">
<path d="M947.385 610.175C948.266 609.553 949.354 609.294 950.546 609.294C951.738 609.294 951.842 609.397 952.412 609.605C952.982 609.812 953.5 610.071 953.967 610.434C954.433 610.796 954.796 611.211 955.055 611.729C955.314 612.248 955.521 612.818 955.625 613.491H960.652C960.496 612.144 960.134 610.9 959.564 609.864C958.993 608.827 958.268 607.894 957.335 607.169C956.454 606.443 955.418 605.873 954.226 605.51C953.034 605.148 951.79 604.94 950.443 604.94C948.37 604.94 946.504 605.407 944.846 606.34C943.187 607.272 941.892 608.672 940.907 610.434C939.922 612.248 939.456 614.424 939.456 616.963C939.456 619.503 939.922 621.679 940.907 623.493C941.84 625.307 943.136 626.654 944.794 627.639C946.452 628.572 948.318 629.038 950.391 629.038C952.464 629.038 953.241 628.831 954.433 628.365C955.625 627.898 956.661 627.276 957.542 626.499C958.423 625.722 959.097 624.841 959.615 623.804C960.134 622.819 960.445 621.783 960.6 620.695H955.573C955.469 621.317 955.262 621.835 954.951 622.353C954.64 622.819 954.278 623.234 953.863 623.597C953.397 623.96 952.93 624.219 952.36 624.374C951.79 624.53 951.168 624.633 950.494 624.633C949.303 624.633 948.266 624.322 947.385 623.752C946.504 623.182 945.779 622.301 945.26 621.161C944.742 620.021 944.483 618.622 944.483 616.912C944.483 615.201 944.742 613.906 945.208 612.766C945.727 611.626 946.4 610.745 947.333 610.175H947.385Z" fill="#0F1629"/>
<path d="M976.717 611.988C975.421 611.211 973.867 610.848 972.105 610.848C970.343 610.848 968.788 611.211 967.492 611.988C966.197 612.766 965.212 613.802 964.487 615.201C963.761 616.549 963.45 618.155 963.45 619.969C963.45 621.783 963.813 623.338 964.487 624.737C965.212 626.084 966.197 627.173 967.492 627.95C968.788 628.727 970.343 629.09 972.105 629.09C973.867 629.09 975.421 628.727 976.717 627.95C978.013 627.173 978.997 626.136 979.723 624.737C980.448 623.39 980.759 621.783 980.759 619.969C980.759 618.155 980.396 616.549 979.723 615.201C978.997 613.854 978.013 612.766 976.717 611.988ZM975.421 622.664C975.162 623.493 974.748 624.115 974.178 624.581C973.659 625.048 972.934 625.255 972.157 625.255C971.379 625.255 970.654 625.048 970.084 624.581C969.514 624.115 969.099 623.493 968.84 622.664C968.581 621.835 968.425 620.954 968.425 619.917C968.425 618.881 968.581 618 968.84 617.171C969.099 616.342 969.514 615.72 970.084 615.253C970.654 614.787 971.327 614.528 972.157 614.528C972.986 614.528 973.659 614.787 974.178 615.253C974.696 615.72 975.11 616.342 975.421 617.171C975.681 618 975.836 618.881 975.836 619.917C975.836 620.954 975.681 621.835 975.421 622.664Z" fill="#0F1629"/>
<path d="M997.343 611.677C996.41 611.159 995.374 610.848 994.13 610.848C992.886 610.848 991.694 611.159 990.813 611.729C989.881 612.351 989.259 613.128 988.844 614.165H988.637V611.056H983.973V628.676H988.844V618.466C988.844 617.689 989 617.067 989.259 616.497C989.518 615.979 989.932 615.564 990.451 615.253C990.969 614.994 991.539 614.839 992.213 614.839C993.197 614.839 993.975 615.15 994.545 615.771C995.115 616.393 995.374 617.223 995.374 618.311V628.676H1000.25V617.43C1000.25 616.082 999.986 614.89 999.468 613.906C998.95 612.921 998.276 612.144 997.343 611.626V611.677Z" fill="#0F1629"/>
<path d="M1012.48 624.944C1012.27 624.944 1012.01 624.996 1011.8 624.996C1011.49 624.996 1011.18 624.996 1010.92 624.841C1010.66 624.737 1010.45 624.581 1010.35 624.322C1010.19 624.063 1010.14 623.7 1010.14 623.286V614.735H1013.46V611.056H1010.14V606.806H1005.27V611.056H1002.84V614.735H1005.27V623.908C1005.27 625.048 1005.53 626.033 1006 626.758C1006.46 627.535 1007.19 628.054 1008.07 628.416C1008.95 628.779 1009.99 628.935 1011.18 628.883C1011.8 628.883 1012.37 628.779 1012.79 628.676C1013.25 628.572 1013.56 628.468 1013.82 628.416L1013.05 624.789C1012.94 624.789 1012.73 624.841 1012.53 624.892L1012.48 624.944Z" fill="#0F1629"/>
<path d="M1030.2 613.077C1029.42 612.351 1028.54 611.781 1027.56 611.418C1026.57 611.056 1025.48 610.848 1024.29 610.848C1022.58 610.848 1021.08 611.211 1019.78 611.988C1018.49 612.766 1017.5 613.802 1016.83 615.201C1016.1 616.549 1015.79 618.155 1015.79 619.969C1015.79 621.783 1016.15 623.441 1016.83 624.789C1017.55 626.136 1018.54 627.173 1019.83 627.95C1021.13 628.676 1022.68 629.038 1024.5 629.038C1026.31 629.038 1027.24 628.831 1028.33 628.365C1029.42 627.898 1030.35 627.276 1031.08 626.499C1031.81 625.67 1032.27 624.737 1032.48 623.649L1027.97 623.338C1027.82 623.804 1027.56 624.167 1027.24 624.478C1026.93 624.789 1026.52 624.996 1026.1 625.152C1025.64 625.307 1025.17 625.359 1024.6 625.359C1023.77 625.359 1023.1 625.203 1022.48 624.841C1021.86 624.478 1021.44 624.011 1021.08 623.39C1020.77 622.768 1020.61 621.99 1020.61 621.109H1032.63V619.762C1032.63 618.259 1032.43 616.963 1032.01 615.823C1031.6 614.683 1031.03 613.75 1030.25 613.025L1030.2 613.077ZM1020.61 618.104C1020.61 617.482 1020.82 616.912 1021.08 616.342C1021.39 615.771 1021.86 615.305 1022.43 614.994C1023 614.631 1023.67 614.476 1024.39 614.476C1025.12 614.476 1025.74 614.631 1026.26 614.942C1026.78 615.253 1027.24 615.668 1027.5 616.238C1027.82 616.756 1027.97 617.43 1027.97 618.104H1020.56H1020.61Z" fill="#0F1629"/>
<path d="M1049.17 611.677C1048.23 611.159 1047.2 610.848 1045.95 610.848C1044.71 610.848 1043.52 611.159 1042.64 611.729C1041.7 612.351 1041.08 613.128 1040.67 614.165H1040.46V611.056H1035.8V628.676H1040.67V618.466C1040.67 617.689 1040.82 617.067 1041.08 616.497C1041.34 615.979 1041.76 615.564 1042.27 615.253C1042.79 614.994 1043.36 614.839 1044.04 614.839C1045.02 614.839 1045.8 615.15 1046.37 615.771C1046.94 616.393 1047.2 617.223 1047.2 618.311V628.676H1052.07V617.43C1052.07 616.082 1051.81 614.89 1051.29 613.906C1050.77 612.921 1050.1 612.144 1049.17 611.626V611.677Z" fill="#0F1629"/>
<path d="M1064.3 624.944C1064.09 624.944 1063.83 624.996 1063.62 624.996C1063.31 624.996 1063 624.996 1062.74 624.841C1062.48 624.737 1062.28 624.581 1062.17 624.322C1062.02 624.063 1061.97 623.7 1061.97 623.286V614.735H1065.28V611.056H1061.97V606.806H1057.09V611.056H1054.66V614.735H1057.09V623.908C1057.09 625.048 1057.35 626.033 1057.82 626.758C1058.29 627.535 1059.01 628.054 1059.89 628.416C1060.77 628.779 1061.81 628.935 1063 628.883C1063.62 628.883 1064.19 628.779 1064.61 628.676C1065.08 628.572 1065.39 628.468 1065.65 628.416L1064.87 624.789C1064.76 624.789 1064.56 624.841 1064.35 624.892L1064.3 624.944Z" fill="#0F1629"/>
<path d="M1084.35 617.274C1083.58 616.808 1082.75 616.549 1081.82 616.497V616.29C1082.64 616.082 1083.37 615.771 1083.99 615.357C1084.61 614.942 1085.13 614.372 1085.49 613.647C1085.86 612.973 1086.06 612.144 1086.06 611.211C1086.06 610.278 1085.75 608.983 1085.18 608.102C1084.61 607.221 1083.73 606.495 1082.59 605.977C1081.45 605.459 1080 605.199 1078.29 605.199H1068.86V628.727H1078.91C1080.68 628.727 1082.18 628.468 1083.37 627.898C1084.56 627.328 1085.49 626.551 1086.12 625.566C1086.74 624.581 1087.05 623.493 1087.05 622.249C1087.05 621.006 1086.79 620.073 1086.32 619.244C1085.86 618.414 1085.18 617.741 1084.41 617.274H1084.35ZM1073.83 609.242H1077.62C1078.71 609.242 1079.59 609.501 1080.16 610.019C1080.78 610.537 1081.04 611.211 1081.04 612.092C1081.04 612.973 1080.88 613.232 1080.57 613.699C1080.26 614.165 1079.85 614.476 1079.33 614.735C1078.81 614.994 1078.19 615.098 1077.51 615.098H1073.83V609.294V609.242ZM1080.93 623.856C1080.31 624.374 1079.28 624.633 1077.93 624.633H1073.89V618.414H1078.03C1078.81 618.414 1079.54 618.57 1080.11 618.829C1080.68 619.088 1081.14 619.503 1081.45 620.021C1081.76 620.539 1081.92 621.109 1081.92 621.731C1081.92 622.353 1081.61 623.338 1080.99 623.856H1080.93Z" fill="#0F1629"/>
<path d="M1099.33 610.848C1098.35 610.848 1097.47 611.107 1096.74 611.677C1096.01 612.247 1095.44 613.077 1095.13 614.165H1094.93V611.107H1090.21V628.727H1095.08V618.777C1095.08 618.052 1095.24 617.43 1095.55 616.86C1095.86 616.29 1096.33 615.875 1096.9 615.564C1097.47 615.253 1098.09 615.098 1098.81 615.098C1099.54 615.098 1099.54 615.098 1099.9 615.201C1100.26 615.305 1100.63 615.305 1100.83 615.409V611.056C1100.63 611.004 1100.37 610.952 1100.11 610.952C1099.85 610.952 1099.54 610.952 1099.33 610.952V610.848Z" fill="#0F1629"/>
<path d="M1108.24 611.107H1103.37V628.727H1108.24V611.107Z" fill="#0F1629"/>
<path d="M1105.81 603.852C1105.08 603.852 1104.46 604.111 1103.94 604.578C1103.43 605.044 1103.17 605.666 1103.17 606.34C1103.17 607.013 1103.43 607.583 1103.94 608.102C1104.46 608.568 1105.08 608.827 1105.81 608.827C1106.53 608.827 1107.16 608.568 1107.67 608.102C1108.19 607.635 1108.45 607.013 1108.45 606.34C1108.45 605.666 1108.19 605.096 1107.67 604.578C1107.16 604.111 1106.53 603.852 1105.81 603.852Z" fill="#0F1629"/>
<path d="M1123.79 614.061H1123.64C1123.43 613.595 1123.12 613.129 1122.7 612.61C1122.29 612.092 1121.77 611.729 1121.1 611.367C1120.42 611.056 1119.59 610.848 1118.61 610.848C1117.62 610.848 1116.12 611.159 1115.03 611.833C1113.95 612.507 1113.06 613.491 1112.44 614.839C1111.77 616.186 1111.46 617.844 1111.46 619.866C1111.46 621.887 1111.77 623.493 1112.39 624.841C1113.01 626.188 1113.89 627.225 1114.98 627.898C1116.07 628.572 1117.26 628.935 1118.61 628.935C1119.96 628.935 1120.37 628.779 1121.05 628.468C1121.72 628.157 1122.24 627.743 1122.65 627.276C1123.07 626.81 1123.38 626.292 1123.64 625.825H1123.84V628.624H1128.66V605.096H1123.79V613.958V614.061ZM1123.48 622.664C1123.17 623.441 1122.76 624.063 1122.24 624.478C1121.67 624.892 1121.05 625.152 1120.22 625.152C1119.39 625.152 1118.71 624.944 1118.2 624.478C1117.62 624.063 1117.21 623.441 1116.95 622.664C1116.64 621.887 1116.54 620.954 1116.54 619.969C1116.54 618.985 1116.69 618.052 1116.95 617.274C1117.21 616.497 1117.68 615.875 1118.2 615.461C1118.77 615.046 1119.44 614.787 1120.22 614.787C1120.99 614.787 1121.67 614.994 1122.24 615.409C1122.81 615.823 1123.22 616.445 1123.48 617.223C1123.79 618 1123.9 618.881 1123.9 619.969C1123.9 621.058 1123.74 621.939 1123.43 622.716L1123.48 622.664Z" fill="#0F1629"/>
<path d="M1144.42 614.061H1144.21C1144 613.595 1143.69 613.128 1143.28 612.61C1142.86 612.092 1142.35 611.729 1141.67 611.367C1141 611.056 1140.17 610.848 1139.18 610.848C1138.2 610.848 1136.7 611.159 1135.61 611.833C1134.52 612.507 1133.64 613.491 1133.02 614.839C1132.34 616.186 1132.03 617.844 1132.03 619.866C1132.03 621.887 1132.34 623.441 1132.97 624.685C1133.59 625.981 1134.47 626.914 1135.56 627.535C1136.64 628.157 1137.84 628.468 1139.18 628.468C1140.53 628.468 1140.95 628.313 1141.62 628.054C1142.29 627.795 1142.86 627.432 1143.28 626.965C1143.69 626.551 1144 626.084 1144.26 625.566H1144.47V628.779C1144.47 629.971 1144.11 630.852 1143.43 631.37C1142.76 631.889 1141.88 632.148 1140.79 632.148C1139.7 632.148 1139.49 632.044 1138.98 631.889C1138.46 631.681 1138.1 631.474 1137.78 631.163C1137.47 630.852 1137.27 630.541 1137.11 630.178L1132.6 630.8C1132.81 631.733 1133.22 632.562 1133.9 633.288C1134.57 634.013 1135.45 634.635 1136.59 635.05C1137.73 635.464 1139.08 635.724 1140.69 635.724C1142.29 635.724 1143.85 635.464 1145.14 634.946C1146.44 634.428 1147.48 633.702 1148.2 632.666C1148.93 631.681 1149.29 630.386 1149.29 628.883V611.056H1144.42V614.009V614.061ZM1144 622.509C1143.69 623.234 1143.28 623.804 1142.76 624.219C1142.19 624.633 1141.57 624.789 1140.74 624.789C1139.91 624.789 1139.24 624.581 1138.72 624.167C1138.15 623.752 1137.73 623.182 1137.47 622.457C1137.16 621.731 1137.06 620.85 1137.06 619.814C1137.06 618.777 1137.21 617.948 1137.47 617.171C1137.73 616.393 1138.2 615.823 1138.72 615.357C1139.29 614.942 1139.96 614.683 1140.74 614.683C1141.52 614.683 1142.19 614.89 1142.76 615.305C1143.33 615.72 1143.74 616.342 1144 617.067C1144.31 617.844 1144.42 618.725 1144.42 619.762C1144.42 620.798 1144.26 621.679 1143.95 622.405L1144 622.509Z" fill="#0F1629"/>
<path d="M1169.29 621.161V619.814C1169.29 618.311 1169.09 617.015 1168.67 615.875C1168.26 614.735 1167.69 613.802 1166.91 613.077C1166.13 612.351 1165.25 611.781 1164.27 611.418C1163.28 611.056 1162.19 610.848 1161 610.848C1159.29 610.848 1157.79 611.211 1156.49 611.988C1155.2 612.766 1154.21 613.802 1153.54 615.201C1152.81 616.549 1152.5 618.155 1152.5 619.969C1152.5 621.783 1152.86 623.441 1153.54 624.789C1154.26 626.136 1155.25 627.173 1156.54 627.95C1157.84 628.676 1159.39 629.038 1161.21 629.038C1163.02 629.038 1163.95 628.831 1165.04 628.365C1166.13 627.898 1167.06 627.276 1167.79 626.499C1168.52 625.722 1168.98 624.737 1169.19 623.649L1164.68 623.338C1164.52 623.804 1164.27 624.167 1163.95 624.478C1163.64 624.789 1163.23 624.996 1162.81 625.152C1162.35 625.307 1161.88 625.359 1161.31 625.359C1160.48 625.359 1159.81 625.203 1159.19 624.841C1158.57 624.478 1158.15 624.011 1157.79 623.39C1157.48 622.768 1157.32 621.99 1157.32 621.109H1169.34L1169.29 621.161ZM1159.08 614.994C1159.65 614.631 1160.33 614.476 1161.05 614.476C1161.78 614.476 1162.4 614.631 1162.92 614.942C1163.44 615.253 1163.9 615.668 1164.16 616.238C1164.47 616.756 1164.63 617.43 1164.63 618.104H1157.22C1157.22 617.482 1157.43 616.912 1157.68 616.342C1158 615.771 1158.46 615.305 1159.03 614.994H1159.08Z" fill="#0F1629"/>
<path d="M913.492 591H885.818C878.549 591 872.655 596.893 872.655 604.163V631.837C872.655 639.107 878.549 645 885.818 645H913.492C920.762 645 926.655 639.107 926.655 631.837V604.163C926.655 596.893 920.762 591 913.492 591Z" fill="#F67B37"/>
<mask id="mask0_25_1065" style="mask-type:luminance" maskUnits="userSpaceOnUse" x="872" y="591" width="55" height="54">
<path d="M913.492 591H885.818C878.549 591 872.655 596.893 872.655 604.163V631.837C872.655 639.107 878.549 645 885.818 645H913.492C920.762 645 926.655 639.107 926.655 631.837V604.163C926.655 596.893 920.762 591 913.492 591Z" fill="white"/>
</mask>
<g mask="url(#mask0_25_1065)">
<path d="M929.297 622.457C929.297 622.457 929.297 622.457 929.246 622.457C919.555 621.317 915.823 613.025 914.735 609.864C909.656 615.512 902.194 617.585 893.073 615.875C887.061 614.735 882.19 612.299 880.635 611.47C879.495 612.973 875.453 617.741 868.301 620.643C867.99 620.798 867.576 620.643 867.472 620.28C867.317 619.969 867.472 619.555 867.835 619.451C875.868 616.186 879.858 610.382 879.91 610.278C880.117 610.019 880.48 609.916 880.791 610.071C880.843 610.071 886.44 613.284 893.384 614.58C902.557 616.342 909.708 614.165 914.528 608.102C914.683 607.894 914.942 607.843 915.202 607.894C915.461 607.946 915.616 608.154 915.668 608.361C915.772 608.827 918.415 619.866 929.401 621.109C929.764 621.109 930.023 621.472 929.971 621.835C929.971 622.146 929.66 622.405 929.349 622.405L929.297 622.457Z" fill="white"/>
<path d="M880.48 631.837C879.806 631.837 879.288 631.319 879.288 630.645V609.19C879.288 608.516 879.806 607.998 880.48 607.998C881.154 607.998 881.672 608.516 881.672 609.19V630.645C881.672 631.319 881.154 631.837 880.48 631.837Z" fill="white"/>
<path d="M886.854 627.224C886.492 627.224 886.181 626.914 886.181 626.551V613.439C886.181 613.077 886.492 612.766 886.854 612.766C887.217 612.766 887.528 613.077 887.528 613.439V626.551C887.528 626.914 887.217 627.224 886.854 627.224Z" fill="white"/>
<path d="M893.28 624.892C892.917 624.892 892.606 624.581 892.606 624.219V615.409C892.606 615.046 892.917 614.735 893.28 614.735C893.643 614.735 893.954 615.046 893.954 615.409V624.219C893.954 624.581 893.643 624.892 893.28 624.892Z" fill="white"/>
<path d="M899.033 623.13C898.67 623.13 898.359 622.819 898.359 622.457V615.979C898.359 615.616 898.67 615.305 899.033 615.305C899.396 615.305 899.707 615.616 899.707 615.979V622.457C899.707 622.819 899.396 623.13 899.033 623.13Z" fill="white"/>
<path d="M904.837 623.338C904.474 623.338 904.163 623.027 904.163 622.664V615.15C904.163 614.787 904.474 614.476 904.837 614.476C905.2 614.476 905.51 614.787 905.51 615.15V622.664C905.51 623.027 905.2 623.338 904.837 623.338Z" fill="white"/>
<path d="M909.812 621.628C909.45 621.628 909.139 621.317 909.139 620.954V613.439C909.139 613.077 909.45 612.766 909.812 612.766C910.175 612.766 910.486 613.077 910.486 613.439V620.954C910.486 621.317 910.175 621.628 909.812 621.628Z" fill="white"/>
<path d="M914.735 622.146C914.061 622.146 913.543 621.628 913.543 620.954V607.273C913.543 606.599 914.061 606.081 914.735 606.081C915.409 606.081 915.927 606.599 915.927 607.273V620.954C915.927 621.628 915.409 622.146 914.735 622.146Z" fill="white"/>
<path d="M927.225 621.524V624.271C927.225 624.271 910.797 620.176 884.471 631.163C858.144 642.15 850.682 644.948 850.682 644.948V641.269C850.682 641.269 901.158 610.123 927.225 621.524Z" fill="white"/>
<path d="M914.735 605.303C915.451 605.303 916.031 604.723 916.031 604.008C916.031 603.292 915.451 602.712 914.735 602.712C914.02 602.712 913.439 603.292 913.439 604.008C913.439 604.723 914.02 605.303 914.735 605.303Z" fill="white"/>
<path d="M880.48 606.91C881.51 606.91 882.346 606.074 882.346 605.044C882.346 604.014 881.51 603.178 880.48 603.178C879.45 603.178 878.614 604.014 878.614 605.044C878.614 606.074 879.45 606.91 880.48 606.91Z" fill="white"/>
<path d="M884.004 637.9L876.904 644.896V628.779H884.004V637.9Z" fill="white"/>
<path d="M918.259 628.779L911.211 636.086V623.13H918.259V628.779Z" fill="white"/>
<path d="M897.789 601.365L895.561 599.136L898.618 598.307L897.789 601.365ZM896.338 599.343L897.582 600.587L898.048 598.877L896.338 599.343Z" fill="white"/>
<path d="M917.379 592.71L915.15 590.482L918.208 589.653L917.379 592.71ZM915.928 590.689L917.172 591.933L917.638 590.223L915.928 590.689Z" fill="white"/>
<path d="M913.439 601.468L913.647 598.877L915.772 600.38L913.439 601.52V601.468ZM914.01 599.603L913.906 600.795L914.994 600.276L914.01 599.603Z" fill="white"/>
<path d="M896.441 613.699L896.96 610.589L899.395 612.61L896.39 613.699H896.441ZM897.271 611.315L896.96 613.025L898.618 612.403L897.271 611.263V611.315Z" fill="white"/>
<path d="M901.987 610.33C901.21 610.33 900.64 609.708 900.64 608.983C900.64 608.257 901.262 607.635 901.987 607.635C902.713 607.635 903.334 608.257 903.334 608.983C903.334 609.708 902.713 610.33 901.987 610.33ZM901.987 607.998C901.469 607.998 901.054 608.413 901.054 608.931C901.054 609.449 901.469 609.864 901.987 609.864C902.505 609.864 902.92 609.449 902.92 608.931C902.92 608.413 902.505 607.998 901.987 607.998Z" fill="white"/>
<path d="M903.127 596.597C902.349 596.597 901.779 595.975 901.779 595.249C901.779 594.524 902.401 593.902 903.127 593.902C903.852 593.902 904.474 594.524 904.474 595.249C904.474 595.975 903.852 596.597 903.127 596.597ZM903.127 594.317C902.608 594.317 902.194 594.731 902.194 595.249C902.194 595.768 902.608 596.182 903.127 596.182C903.645 596.182 904.06 595.768 904.06 595.249C904.06 594.731 903.645 594.317 903.127 594.317Z" fill="white"/>
<path d="M886.544 611.159C885.87 611.159 885.352 610.641 885.352 609.967C885.352 609.294 885.87 608.775 886.544 608.775C887.217 608.775 887.735 609.294 887.735 609.967C887.735 610.641 887.217 611.159 886.544 611.159ZM886.544 609.19C886.129 609.19 885.766 609.553 885.766 609.967C885.766 610.382 886.129 610.745 886.544 610.745C886.958 610.745 887.321 610.382 887.321 609.967C887.321 609.553 886.958 609.19 886.544 609.19Z" fill="white"/>
<path d="M908.05 601.52C907.584 601.52 907.169 601.105 907.169 600.639C907.169 600.173 907.584 599.758 908.05 599.758C908.516 599.758 908.931 600.173 908.931 600.639C908.931 601.105 908.516 601.52 908.05 601.52ZM908.05 600.173C907.791 600.173 907.584 600.38 907.584 600.639C907.584 600.898 907.791 601.105 908.05 601.105C908.309 601.105 908.516 600.898 908.516 600.639C908.516 600.38 908.309 600.173 908.05 600.173Z" fill="white"/>
<path d="M919.97 597.063C919.503 597.063 919.089 596.649 919.089 596.182C919.089 595.716 919.503 595.301 919.97 595.301C920.436 595.301 920.851 595.716 920.851 596.182C920.851 596.649 920.436 597.063 919.97 597.063ZM919.97 595.716C919.711 595.716 919.503 595.923 919.503 596.182C919.503 596.441 919.711 596.649 919.97 596.649C920.229 596.649 920.436 596.441 920.436 596.182C920.436 595.923 920.229 595.716 919.97 595.716Z" fill="white"/>
<path d="M894.213 607.687L893.28 605.51L895.457 604.578L896.39 606.754L894.213 607.687ZM893.799 605.718L894.42 607.169L895.871 606.547L895.25 605.096L893.799 605.718Z" fill="white"/>
<path d="M910.02 608.62H907.636V606.236H910.02V608.62ZM908.05 608.205H909.605V606.651H908.05V608.205Z" fill="white"/>
<path d="M912.611 595.664H909.035V592.088H912.611V595.664ZM909.45 595.301H912.196V592.555H909.45V595.301Z" fill="white"/>
<path d="M892.4 611.833L890.379 611.626L890.586 609.605L892.607 609.812L892.4 611.833ZM890.793 611.263L892.037 611.367L892.141 610.123L890.897 610.019L890.793 611.263Z" fill="white"/>
<path d="M903.283 604.319L901.262 604.111L901.469 602.09L903.49 602.297L903.283 604.319ZM901.728 603.748L902.972 603.852L903.076 602.608L901.832 602.505L901.728 603.748Z" fill="white"/>
</g>
</g>
<mask id="mask1_25_1065" style="mask-type:alpha" maskUnits="userSpaceOnUse" x="276" y="0" width="676" height="675">
<circle cx="614.283" cy="337.5" r="337.5" fill="url(#paint0_radial_25_1065)"/>
</mask>
<g mask="url(#mask1_25_1065)">
<path d="M276.783 0V675" stroke="#FCD8C4" stroke-width="0.975434"/>
<path d="M312.311 0V675" stroke="#FCD8C4" stroke-width="0.975434"/>
<path d="M347.838 0V675" stroke="#FCD8C4" stroke-width="0.975434"/>
<path d="M383.364 0V675" stroke="#FCD8C4" stroke-width="0.975434"/>
<path d="M418.892 0V675" stroke="#FCD8C4" stroke-width="0.975434"/>
<path d="M454.411 0V675" stroke="#FCD8C4" stroke-width="0.975434"/>
<path d="M489.938 0V675" stroke="#FCD8C4" stroke-width="0.975434"/>
<path d="M525.466 0V675" stroke="#FCD8C4" stroke-width="0.975434"/>
<path d="M560.992 0V675" stroke="#FCD8C4" stroke-width="0.975434"/>
<path d="M596.52 0V675" stroke="#FCD8C4" stroke-width="0.975434"/>
<path d="M632.047 0V675" stroke="#FCD8C4" stroke-width="0.975434"/>
<path d="M667.574 0V675" stroke="#FCD8C4" stroke-width="0.975434"/>
<path d="M703.101 0V675" stroke="#FCD8C4" stroke-width="0.975434"/>
<path d="M738.628 0V675" stroke="#FCD8C4" stroke-width="0.975434"/>
<path d="M774.155 0V675" stroke="#FCD8C4" stroke-width="0.975434"/>
<path d="M809.675 0V675" stroke="#FCD8C4" stroke-width="0.975434"/>
<path d="M845.202 0V675" stroke="#FCD8C4" stroke-width="0.975434"/>
<path d="M880.729 0V675" stroke="#FCD8C4" stroke-width="0.975434"/>
<path d="M916.256 0V675" stroke="#FCD8C4" stroke-width="0.975434"/>
<path d="M951.783 0V675" stroke="#FCD8C4" stroke-width="0.975434"/>
<path d="M276.783 0H951.783" stroke="#FCD8C4" stroke-width="0.975434"/>
<path d="M276.783 33.7515H951.783" stroke="#FCD8C4" stroke-width="0.975434"/>
<path d="M276.783 67.5031H951.783" stroke="#FCD8C4" stroke-width="0.975434"/>
<path d="M276.783 101.247H951.783" stroke="#FCD8C4" stroke-width="0.975434"/>
<path d="M276.783 134.998H951.783" stroke="#FCD8C4" stroke-width="0.975434"/>
<path d="M276.783 168.75H951.783" stroke="#FCD8C4" stroke-width="0.975434"/>
<path d="M276.783 202.502H951.783" stroke="#FCD8C4" stroke-width="0.975434"/>
<path d="M276.783 236.253H951.783" stroke="#FCD8C4" stroke-width="0.975434"/>
<path d="M276.783 269.997H951.783" stroke="#FCD8C4" stroke-width="0.975434"/>
<path d="M276.783 303.748H951.783" stroke="#FCD8C4" stroke-width="0.975434"/>
<path d="M276.783 337.5H951.783" stroke="#FCD8C4" stroke-width="0.975434"/>
<path d="M276.783 371.252H951.783" stroke="#FCD8C4" stroke-width="0.975434"/>
<path d="M276.783 405.003H951.783" stroke="#FCD8C4" stroke-width="0.975434"/>
<path d="M276.783 438.747H951.783" stroke="#FCD8C4" stroke-width="0.975434"/>
<path d="M276.783 472.498H951.783" stroke="#FCD8C4" stroke-width="0.975434"/>
<path d="M276.783 506.25H951.783" stroke="#FCD8C4" stroke-width="0.975434"/>
<path d="M276.783 540.002H951.783" stroke="#FCD8C4" stroke-width="0.975434"/>
<path d="M276.783 573.753H951.783" stroke="#FCD8C4" stroke-width="0.975434"/>
<path d="M276.783 607.497H951.783" stroke="#FCD8C4" stroke-width="0.975434"/>
<path d="M276.783 641.248H951.783" stroke="#FCD8C4" stroke-width="0.975434"/>
<path d="M276.783 675H951.783" stroke="#FCD8C4" stroke-width="0.975434"/>
</g>
<g filter="url(#filter0_d_25_1065)">
<rect x="204.108" y="222.108" width="230.784" height="230.784" rx="52.5674" fill="white"/>
<rect x="204.749" y="222.749" width="229.501" height="229.501" rx="51.9263" stroke="#D4C4BA" stroke-width="1.28213"/>
<path d="M355.373 267.861H283.627C264.779 267.861 249.5 283.14 249.5 301.988V373.735C249.5 392.582 264.779 407.861 283.627 407.861H355.373C374.221 407.861 389.5 392.582 389.5 373.735V301.988C389.5 283.14 374.221 267.861 355.373 267.861Z" fill="#F67B37"/>
<mask id="mask2_25_1065" style="mask-type:luminance" maskUnits="userSpaceOnUse" x="249" y="267" width="141" height="141">
<path d="M355.373 267.861H283.627C264.779 267.861 249.5 283.14 249.5 301.988V373.735C249.5 392.582 264.779 407.861 283.627 407.861H355.373C374.221 407.861 389.5 392.582 389.5 373.735V301.988C389.5 283.14 374.221 267.861 355.373 267.861Z" fill="white"/>
</mask>
<g mask="url(#mask2_25_1065)">
<path d="M396.353 349.416C396.353 349.416 396.353 349.416 396.218 349.416C371.094 346.46 361.42 324.963 358.598 316.767C345.431 331.412 326.084 336.786 302.437 332.353C286.852 329.397 274.222 323.082 270.191 320.932C267.236 324.829 256.756 337.19 238.215 344.714C237.408 345.117 236.334 344.714 236.065 343.773C235.662 342.967 236.065 341.892 237.005 341.623C257.831 333.159 268.176 318.111 268.31 317.842C268.848 317.17 269.788 316.902 270.595 317.305C270.729 317.305 285.239 325.635 303.243 328.994C327.025 333.562 345.566 327.919 358.061 312.199C358.464 311.662 359.136 311.527 359.808 311.662C360.479 311.796 360.882 312.333 361.017 312.871C361.286 314.08 368.138 342.698 396.621 345.923C397.562 345.923 398.234 346.863 398.099 347.804C398.099 348.61 397.293 349.282 396.487 349.282L396.353 349.416Z" fill="white"/>
<path d="M269.788 373.735C268.042 373.735 266.698 372.391 266.698 370.644V315.021C266.698 313.274 268.042 311.93 269.788 311.93C271.535 311.93 272.879 313.274 272.879 315.021V370.644C272.879 372.391 271.535 373.735 269.788 373.735Z" fill="white"/>
<path d="M286.314 361.777C285.374 361.777 284.567 360.971 284.567 360.03V326.038C284.567 325.097 285.374 324.291 286.314 324.291C287.255 324.291 288.061 325.097 288.061 326.038V360.03C288.061 360.971 287.255 361.777 286.314 361.777Z" fill="white"/>
<path d="M302.974 355.731C302.034 355.731 301.228 354.925 301.228 353.984V331.143C301.228 330.203 302.034 329.397 302.974 329.397C303.915 329.397 304.721 330.203 304.721 331.143V353.984C304.721 354.925 303.915 355.731 302.974 355.731Z" fill="white"/>
<path d="M317.888 351.163C316.948 351.163 316.142 350.356 316.142 349.416V332.621C316.142 331.681 316.948 330.875 317.888 330.875C318.829 330.875 319.635 331.681 319.635 332.621V349.416C319.635 350.356 318.829 351.163 317.888 351.163Z" fill="white"/>
<path d="M332.936 351.7C331.996 351.7 331.189 350.894 331.189 349.953V330.472C331.189 329.531 331.996 328.725 332.936 328.725C333.877 328.725 334.683 329.531 334.683 330.472V349.953C334.683 350.894 333.877 351.7 332.936 351.7Z" fill="white"/>
<path d="M345.835 347.266C344.894 347.266 344.088 346.46 344.088 345.52V326.038C344.088 325.097 344.894 324.291 345.835 324.291C346.775 324.291 347.581 325.097 347.581 326.038V345.52C347.581 346.46 346.775 347.266 345.835 347.266Z" fill="white"/>
<path d="M358.598 348.61C356.851 348.61 355.508 347.266 355.508 345.52V310.049C355.508 308.303 356.851 306.959 358.598 306.959C360.345 306.959 361.688 308.303 361.688 310.049V345.52C361.688 347.266 360.345 348.61 358.598 348.61Z" fill="white"/>
<path d="M390.978 346.997V354.118C390.978 354.118 348.387 343.504 280.134 371.988C211.881 400.471 192.533 407.727 192.533 407.727V398.187C192.533 398.187 323.397 317.439 390.978 346.997Z" fill="white"/>
<path d="M358.598 304.944C360.453 304.944 361.957 303.44 361.957 301.585C361.957 299.73 360.453 298.226 358.598 298.226C356.743 298.226 355.239 299.73 355.239 301.585C355.239 303.44 356.743 304.944 358.598 304.944Z" fill="white"/>
<path d="M269.789 309.109C272.46 309.109 274.626 306.943 274.626 304.272C274.626 301.601 272.46 299.435 269.789 299.435C267.118 299.435 264.952 301.601 264.952 304.272C264.952 306.943 267.118 309.109 269.789 309.109Z" fill="white"/>
<path d="M278.924 389.455L260.518 407.593V365.808H278.924V389.455Z" fill="white"/>
<path d="M367.734 365.808L349.462 384.752V351.163H367.734V365.808Z" fill="white"/>
<path d="M314.664 294.733L308.887 288.955L316.814 286.805L314.664 294.733ZM310.902 289.493L314.127 292.717L315.336 288.283L310.902 289.493Z" fill="white"/>
<path d="M365.45 272.295L359.673 266.518L367.6 264.368L365.45 272.295ZM361.688 267.055L364.913 270.28L366.122 265.846L361.688 267.055Z" fill="white"/>
<path d="M355.24 295.001L355.778 288.284L361.286 292.18L355.24 295.136V295.001ZM356.718 290.165L356.449 293.255L359.271 291.911L356.718 290.165Z" fill="white"/>
<path d="M311.17 326.71L312.514 318.648L318.829 323.888L311.036 326.71H311.17ZM313.32 320.529L312.514 324.963L316.813 323.351L313.32 320.395V320.529Z" fill="white"/>
<path d="M325.546 317.976C323.531 317.976 322.053 316.364 322.053 314.483C322.053 312.602 323.665 310.99 325.546 310.99C327.427 310.99 329.039 312.602 329.039 314.483C329.039 316.364 327.427 317.976 325.546 317.976ZM325.546 311.93C324.202 311.93 323.128 313.005 323.128 314.349C323.128 315.692 324.202 316.767 325.546 316.767C326.89 316.767 327.964 315.692 327.964 314.349C327.964 313.005 326.89 311.93 325.546 311.93Z" fill="white"/>
<path d="M328.502 282.372C326.487 282.372 325.009 280.759 325.009 278.878C325.009 276.997 326.621 275.385 328.502 275.385C330.383 275.385 331.995 276.997 331.995 278.878C331.995 280.759 330.383 282.372 328.502 282.372ZM328.502 276.46C327.159 276.46 326.084 277.535 326.084 278.878C326.084 280.222 327.159 281.297 328.502 281.297C329.846 281.297 330.92 280.222 330.92 278.878C330.92 277.535 329.846 276.46 328.502 276.46Z" fill="white"/>
<path d="M285.508 320.126C283.762 320.126 282.418 318.783 282.418 317.036C282.418 315.289 283.762 313.946 285.508 313.946C287.255 313.946 288.598 315.289 288.598 317.036C288.598 318.783 287.255 320.126 285.508 320.126ZM285.508 315.021C284.433 315.021 283.493 315.961 283.493 317.036C283.493 318.111 284.433 319.051 285.508 319.051C286.583 319.051 287.524 318.111 287.524 317.036C287.524 315.961 286.583 315.021 285.508 315.021Z" fill="white"/>
<path d="M341.266 295.136C340.057 295.136 338.982 294.061 338.982 292.852C338.982 291.642 340.057 290.567 341.266 290.567C342.476 290.567 343.551 291.642 343.551 292.852C343.551 294.061 342.476 295.136 341.266 295.136ZM341.266 291.642C340.595 291.642 340.057 292.18 340.057 292.852C340.057 293.523 340.595 294.061 341.266 294.061C341.938 294.061 342.476 293.523 342.476 292.852C342.476 292.18 341.938 291.642 341.266 291.642Z" fill="white"/>
<path d="M372.168 283.581C370.959 283.581 369.884 282.506 369.884 281.297C369.884 280.087 370.959 279.013 372.168 279.013C373.377 279.013 374.452 280.087 374.452 281.297C374.452 282.506 373.377 283.581 372.168 283.581ZM372.168 280.087C371.496 280.087 370.959 280.625 370.959 281.297C370.959 281.968 371.496 282.506 372.168 282.506C372.84 282.506 373.377 281.968 373.377 281.297C373.377 280.625 372.84 280.087 372.168 280.087Z" fill="white"/>
<path d="M305.393 311.124L302.975 305.481L308.618 303.063L311.036 308.706L305.393 311.124ZM304.318 306.019L305.93 309.781L309.692 308.168L308.08 304.406L304.318 306.019Z" fill="white"/>
<path d="M346.372 313.543H340.191V307.362H346.372V313.543ZM341.266 312.468H345.297V308.437H341.266V312.468Z" fill="white"/>
<path d="M353.09 279.953H343.819V270.683H353.09V279.953ZM344.894 279.013H352.015V271.892H344.894V279.013Z" fill="white"/>
<path d="M300.69 321.873L295.45 321.335L295.988 316.095L301.228 316.633L300.69 321.873ZM296.525 320.395L299.75 320.663L300.018 317.439L296.794 317.17L296.525 320.395Z" fill="white"/>
<path d="M328.905 302.391L323.665 301.854L324.202 296.614L329.442 297.151L328.905 302.391ZM324.874 300.913L328.099 301.182L328.368 297.957L325.143 297.689L324.874 300.913Z" fill="white"/>
</g>
</g>
<path d="M499.438 301.297H493.595C493.428 300.339 493.121 299.49 492.673 298.75C492.225 298 491.668 297.365 491.001 296.844C490.334 296.323 489.574 295.932 488.72 295.672C487.876 295.401 486.965 295.266 485.985 295.266C484.246 295.266 482.704 295.703 481.36 296.578C480.017 297.443 478.965 298.714 478.204 300.391C477.444 302.057 477.063 304.094 477.063 306.5C477.063 308.948 477.444 311.01 478.204 312.687C478.975 314.354 480.027 315.615 481.36 316.469C482.704 317.312 484.241 317.734 485.97 317.734C486.928 317.734 487.824 317.609 488.657 317.359C489.501 317.099 490.256 316.719 490.923 316.219C491.6 315.719 492.168 315.104 492.626 314.375C493.095 313.646 493.418 312.812 493.595 311.875L499.438 311.906C499.22 313.427 498.746 314.854 498.017 316.188C497.298 317.521 496.355 318.698 495.188 319.719C494.022 320.729 492.657 321.521 491.095 322.094C489.532 322.656 487.798 322.937 485.892 322.937C483.079 322.937 480.569 322.286 478.36 320.984C476.152 319.682 474.412 317.802 473.142 315.344C471.871 312.885 471.235 309.937 471.235 306.5C471.235 303.052 471.876 300.104 473.157 297.656C474.438 295.198 476.183 293.318 478.392 292.016C480.6 290.714 483.1 290.062 485.892 290.062C487.673 290.062 489.329 290.312 490.86 290.812C492.392 291.312 493.756 292.047 494.954 293.016C496.152 293.974 497.136 295.151 497.907 296.547C498.688 297.932 499.199 299.516 499.438 301.297ZM514.966 322.969C512.622 322.969 510.591 322.453 508.872 321.422C507.153 320.391 505.82 318.948 504.872 317.094C503.935 315.24 503.466 313.073 503.466 310.594C503.466 308.115 503.935 305.943 504.872 304.078C505.82 302.214 507.153 300.766 508.872 299.734C510.591 298.703 512.622 298.188 514.966 298.188C517.31 298.188 519.341 298.703 521.06 299.734C522.778 300.766 524.106 302.214 525.044 304.078C525.992 305.943 526.466 308.115 526.466 310.594C526.466 313.073 525.992 315.24 525.044 317.094C524.106 318.948 522.778 320.391 521.06 321.422C519.341 322.453 517.31 322.969 514.966 322.969ZM514.997 318.437C516.268 318.437 517.33 318.089 518.185 317.391C519.039 316.682 519.674 315.734 520.091 314.547C520.518 313.359 520.731 312.036 520.731 310.578C520.731 309.109 520.518 307.781 520.091 306.594C519.674 305.396 519.039 304.443 518.185 303.734C517.33 303.026 516.268 302.672 514.997 302.672C513.695 302.672 512.612 303.026 511.747 303.734C510.893 304.443 510.252 305.396 509.825 306.594C509.409 307.781 509.2 309.109 509.2 310.578C509.2 312.036 509.409 313.359 509.825 314.547C510.252 315.734 510.893 316.682 511.747 317.391C512.612 318.089 513.695 318.437 514.997 318.437ZM536.923 308.437V322.5H531.267V298.5H536.673V302.578H536.954C537.506 301.234 538.386 300.167 539.595 299.375C540.813 298.583 542.319 298.188 544.11 298.188C545.767 298.188 547.209 298.542 548.438 299.25C549.678 299.958 550.636 300.984 551.313 302.328C552.001 303.672 552.34 305.302 552.329 307.219V322.5H546.673V308.094C546.673 306.49 546.256 305.234 545.423 304.328C544.6 303.422 543.459 302.969 542.001 302.969C541.011 302.969 540.131 303.187 539.36 303.625C538.6 304.052 538.001 304.672 537.563 305.484C537.136 306.297 536.923 307.281 536.923 308.437ZM570.063 298.5V302.875H556.267V298.5H570.063ZM559.673 292.75H565.329V315.281C565.329 316.042 565.444 316.625 565.673 317.031C565.912 317.427 566.225 317.698 566.61 317.844C566.996 317.99 567.423 318.062 567.892 318.062C568.246 318.062 568.569 318.036 568.86 317.984C569.162 317.932 569.392 317.885 569.548 317.844L570.501 322.266C570.199 322.37 569.767 322.484 569.204 322.609C568.652 322.734 567.975 322.807 567.173 322.828C565.756 322.87 564.48 322.656 563.345 322.187C562.209 321.708 561.308 320.969 560.642 319.969C559.985 318.969 559.662 317.719 559.673 316.219V292.75ZM585.161 322.969C582.755 322.969 580.677 322.469 578.927 321.469C577.187 320.458 575.849 319.031 574.911 317.187C573.974 315.333 573.505 313.151 573.505 310.641C573.505 308.172 573.974 306.005 574.911 304.141C575.859 302.266 577.182 300.807 578.88 299.766C580.578 298.714 582.573 298.188 584.864 298.188C586.343 298.188 587.739 298.427 589.052 298.906C590.375 299.375 591.541 300.104 592.552 301.094C593.573 302.083 594.375 303.344 594.958 304.875C595.541 306.396 595.833 308.208 595.833 310.312V312.047H576.161V308.234H590.411C590.401 307.151 590.166 306.187 589.708 305.344C589.25 304.49 588.609 303.818 587.786 303.328C586.974 302.839 586.026 302.594 584.942 302.594C583.786 302.594 582.771 302.875 581.896 303.437C581.021 303.99 580.338 304.719 579.849 305.625C579.369 306.521 579.125 307.505 579.114 308.578V311.906C579.114 313.302 579.369 314.5 579.88 315.5C580.39 316.49 581.104 317.25 582.021 317.781C582.937 318.302 584.01 318.562 585.239 318.562C586.062 318.562 586.807 318.448 587.474 318.219C588.14 317.979 588.718 317.63 589.208 317.172C589.698 316.714 590.067 316.146 590.317 315.469L595.599 316.062C595.265 317.458 594.63 318.677 593.692 319.719C592.765 320.75 591.578 321.552 590.13 322.125C588.682 322.687 587.026 322.969 585.161 322.969ZM606.274 308.437V322.5H600.618V298.5H606.024V302.578H606.306C606.858 301.234 607.738 300.167 608.946 299.375C610.165 298.583 611.67 298.188 613.462 298.188C615.118 298.188 616.561 298.542 617.79 299.25C619.03 299.958 619.988 300.984 620.665 302.328C621.353 303.672 621.691 305.302 621.681 307.219V322.5H616.024V308.094C616.024 306.49 615.608 305.234 614.774 304.328C613.951 303.422 612.811 302.969 611.353 302.969C610.363 302.969 609.483 303.187 608.712 303.625C607.951 304.052 607.353 304.672 606.915 305.484C606.488 306.297 606.274 307.281 606.274 308.437ZM639.415 298.5V302.875H625.618V298.5H639.415ZM629.024 292.75H634.681V315.281C634.681 316.042 634.795 316.625 635.024 317.031C635.264 317.427 635.576 317.698 635.962 317.844C636.347 317.99 636.774 318.062 637.243 318.062C637.597 318.062 637.92 318.036 638.212 317.984C638.514 317.932 638.743 317.885 638.899 317.844L639.853 322.266C639.55 322.37 639.118 322.484 638.556 322.609C638.004 322.734 637.326 322.807 636.524 322.828C635.108 322.87 633.832 322.656 632.696 322.187C631.561 321.708 630.66 320.969 629.993 319.969C629.337 318.969 629.014 317.719 629.024 316.219V292.75ZM644.911 322.5V290.5H650.567V302.469H650.802C651.093 301.885 651.505 301.266 652.036 300.609C652.567 299.943 653.286 299.375 654.192 298.906C655.099 298.427 656.255 298.188 657.661 298.188C659.515 298.188 661.187 298.661 662.677 299.609C664.177 300.547 665.364 301.937 666.239 303.781C667.125 305.615 667.567 307.865 667.567 310.531C667.567 313.167 667.135 315.406 666.271 317.25C665.406 319.094 664.229 320.5 662.739 321.469C661.25 322.438 659.562 322.922 657.677 322.922C656.302 322.922 655.161 322.693 654.255 322.234C653.349 321.776 652.619 321.224 652.067 320.578C651.526 319.922 651.104 319.302 650.802 318.719H650.474V322.5H644.911ZM650.458 310.5C650.458 312.052 650.677 313.411 651.114 314.578C651.562 315.745 652.203 316.656 653.036 317.312C653.88 317.958 654.901 318.281 656.099 318.281C657.349 318.281 658.396 317.948 659.239 317.281C660.083 316.604 660.718 315.682 661.146 314.516C661.583 313.339 661.802 312 661.802 310.5C661.802 309.01 661.588 307.687 661.161 306.531C660.734 305.375 660.099 304.469 659.255 303.812C658.411 303.156 657.359 302.828 656.099 302.828C654.89 302.828 653.864 303.146 653.021 303.781C652.177 304.417 651.536 305.307 651.099 306.453C650.672 307.599 650.458 308.948 650.458 310.5ZM672.376 322.5V298.5H677.86V302.5H678.11C678.548 301.115 679.298 300.047 680.36 299.297C681.433 298.536 682.657 298.156 684.032 298.156C684.345 298.156 684.694 298.172 685.079 298.203C685.475 298.224 685.803 298.26 686.063 298.312V303.516C685.824 303.432 685.444 303.359 684.923 303.297C684.412 303.224 683.918 303.187 683.438 303.187C682.407 303.187 681.48 303.411 680.657 303.859C679.845 304.297 679.204 304.906 678.735 305.687C678.267 306.469 678.032 307.37 678.032 308.391V322.5H672.376ZM689.821 322.5V298.5H695.478V322.5H689.821ZM692.665 295.094C691.769 295.094 690.998 294.797 690.353 294.203C689.707 293.599 689.384 292.875 689.384 292.031C689.384 291.177 689.707 290.453 690.353 289.859C690.998 289.255 691.769 288.953 692.665 288.953C693.571 288.953 694.342 289.255 694.978 289.859C695.623 290.453 695.946 291.177 695.946 292.031C695.946 292.875 695.623 293.599 694.978 294.203C694.342 294.797 693.571 295.094 692.665 295.094ZM710.2 322.922C708.315 322.922 706.627 322.438 705.138 321.469C703.648 320.5 702.471 319.094 701.606 317.25C700.742 315.406 700.31 313.167 700.31 310.531C700.31 307.865 700.747 305.615 701.622 303.781C702.507 301.937 703.7 300.547 705.2 299.609C706.7 298.661 708.372 298.188 710.216 298.188C711.622 298.188 712.778 298.427 713.685 298.906C714.591 299.375 715.31 299.943 715.841 300.609C716.372 301.266 716.784 301.885 717.075 302.469H717.31V290.5H722.981V322.5H717.419V318.719H717.075C716.784 319.302 716.362 319.922 715.81 320.578C715.257 321.224 714.528 321.776 713.622 322.234C712.716 322.693 711.575 322.922 710.2 322.922ZM711.778 318.281C712.976 318.281 713.997 317.958 714.841 317.312C715.685 316.656 716.325 315.745 716.763 314.578C717.2 313.411 717.419 312.052 717.419 310.5C717.419 308.948 717.2 307.599 716.763 306.453C716.336 305.307 715.7 304.417 714.856 303.781C714.023 303.146 712.997 302.828 711.778 302.828C710.518 302.828 709.466 303.156 708.622 303.812C707.778 304.469 707.143 305.375 706.716 306.531C706.289 307.687 706.075 309.01 706.075 310.5C706.075 312 706.289 313.339 706.716 314.516C707.153 315.682 707.794 316.604 708.638 317.281C709.492 317.948 710.539 318.281 711.778 318.281ZM739.446 332C737.415 332 735.67 331.724 734.212 331.172C732.754 330.63 731.582 329.901 730.696 328.984C729.811 328.068 729.196 327.052 728.853 325.938L733.946 324.703C734.175 325.172 734.509 325.635 734.946 326.094C735.384 326.563 735.972 326.948 736.712 327.25C737.462 327.563 738.405 327.719 739.54 327.719C741.144 327.719 742.472 327.328 743.524 326.547C744.576 325.776 745.103 324.505 745.103 322.734V318.187H744.821C744.53 318.771 744.103 319.37 743.54 319.984C742.988 320.599 742.254 321.115 741.337 321.531C740.431 321.948 739.29 322.156 737.915 322.156C736.071 322.156 734.399 321.724 732.899 320.859C731.41 319.984 730.222 318.682 729.337 316.953C728.462 315.214 728.024 313.036 728.024 310.422C728.024 307.786 728.462 305.562 729.337 303.75C730.222 301.927 731.415 300.547 732.915 299.609C734.415 298.661 736.087 298.188 737.931 298.188C739.337 298.188 740.493 298.427 741.399 298.906C742.316 299.375 743.045 299.943 743.587 300.609C744.129 301.266 744.54 301.885 744.821 302.469H745.134V298.5H750.712V322.891C750.712 324.943 750.222 326.641 749.243 327.984C748.264 329.328 746.925 330.333 745.228 331C743.53 331.667 741.603 332 739.446 332ZM739.493 317.719C740.691 317.719 741.712 317.427 742.556 316.844C743.399 316.26 744.04 315.422 744.478 314.328C744.915 313.234 745.134 311.922 745.134 310.391C745.134 308.88 744.915 307.557 744.478 306.422C744.05 305.286 743.415 304.406 742.571 303.781C741.738 303.146 740.712 302.828 739.493 302.828C738.233 302.828 737.181 303.156 736.337 303.812C735.493 304.469 734.858 305.37 734.431 306.516C734.004 307.651 733.79 308.943 733.79 310.391C733.79 311.859 734.004 313.146 734.431 314.25C734.868 315.344 735.509 316.198 736.353 316.812C737.207 317.417 738.254 317.719 739.493 317.719ZM767.134 322.969C764.728 322.969 762.649 322.469 760.899 321.469C759.16 320.458 757.821 319.031 756.884 317.187C755.946 315.333 755.478 313.151 755.478 310.641C755.478 308.172 755.946 306.005 756.884 304.141C757.832 302.266 759.155 300.807 760.853 299.766C762.55 298.714 764.545 298.188 766.837 298.188C768.316 298.188 769.712 298.427 771.024 298.906C772.347 299.375 773.514 300.104 774.524 301.094C775.545 302.083 776.347 303.344 776.931 304.875C777.514 306.396 777.806 308.208 777.806 310.312V312.047H758.134V308.234H772.384C772.373 307.151 772.139 306.187 771.681 305.344C771.222 304.49 770.582 303.818 769.759 303.328C768.946 302.839 767.998 302.594 766.915 302.594C765.759 302.594 764.743 302.875 763.868 303.437C762.993 303.99 762.311 304.719 761.821 305.625C761.342 306.521 761.097 307.505 761.087 308.578V311.906C761.087 313.302 761.342 314.5 761.853 315.5C762.363 316.49 763.076 317.25 763.993 317.781C764.91 318.302 765.983 318.562 767.212 318.562C768.035 318.562 768.78 318.448 769.446 318.219C770.113 317.979 770.691 317.63 771.181 317.172C771.67 316.714 772.04 316.146 772.29 315.469L777.571 316.062C777.238 317.458 776.603 318.677 775.665 319.719C774.738 320.75 773.55 321.552 772.103 322.125C770.655 322.687 768.998 322.969 767.134 322.969ZM793.755 322.5V290.5H805.755C808.213 290.5 810.276 290.958 811.942 291.875C813.619 292.792 814.885 294.052 815.739 295.656C816.604 297.25 817.036 299.062 817.036 301.094C817.036 303.146 816.604 304.969 815.739 306.563C814.875 308.156 813.599 309.411 811.911 310.328C810.224 311.234 808.146 311.687 805.677 311.687H797.724V306.922H804.896C806.333 306.922 807.51 306.672 808.427 306.172C809.343 305.672 810.021 304.984 810.458 304.109C810.906 303.234 811.13 302.229 811.13 301.094C811.13 299.958 810.906 298.958 810.458 298.094C810.021 297.229 809.338 296.557 808.411 296.078C807.494 295.589 806.312 295.344 804.864 295.344H799.552V322.5H793.755ZM821.821 322.5V298.5H827.306V302.5H827.556C827.993 301.115 828.743 300.047 829.806 299.297C830.879 298.536 832.103 298.156 833.478 298.156C833.79 298.156 834.139 298.172 834.524 298.203C834.92 298.224 835.248 298.26 835.509 298.312V303.516C835.269 303.432 834.889 303.359 834.368 303.297C833.858 303.224 833.363 303.187 832.884 303.187C831.853 303.187 830.925 303.411 830.103 303.859C829.29 304.297 828.649 304.906 828.181 305.687C827.712 306.469 827.478 307.37 827.478 308.391V322.5H821.821ZM839.267 322.5V298.5H844.923V322.5H839.267ZM842.11 295.094C841.215 295.094 840.444 294.797 839.798 294.203C839.152 293.599 838.829 292.875 838.829 292.031C838.829 291.177 839.152 290.453 839.798 289.859C840.444 289.255 841.215 288.953 842.11 288.953C843.017 288.953 843.787 289.255 844.423 289.859C845.069 290.453 845.392 291.177 845.392 292.031C845.392 292.875 845.069 293.599 844.423 294.203C843.787 294.797 843.017 295.094 842.11 295.094ZM861.208 322.969C858.812 322.969 856.755 322.443 855.036 321.391C853.328 320.339 852.01 318.885 851.083 317.031C850.166 315.167 849.708 313.021 849.708 310.594C849.708 308.156 850.177 306.005 851.114 304.141C852.052 302.266 853.375 300.807 855.083 299.766C856.802 298.714 858.833 298.188 861.177 298.188C863.125 298.188 864.849 298.547 866.349 299.266C867.859 299.974 869.062 300.979 869.958 302.281C870.854 303.573 871.364 305.083 871.489 306.812H866.083C865.864 305.656 865.343 304.693 864.521 303.922C863.708 303.141 862.619 302.75 861.255 302.75C860.099 302.75 859.083 303.062 858.208 303.687C857.333 304.302 856.651 305.187 856.161 306.344C855.682 307.5 855.442 308.885 855.442 310.5C855.442 312.135 855.682 313.542 856.161 314.719C856.64 315.885 857.312 316.786 858.177 317.422C859.052 318.047 860.078 318.359 861.255 318.359C862.088 318.359 862.833 318.203 863.489 317.891C864.156 317.568 864.713 317.104 865.161 316.5C865.609 315.896 865.916 315.161 866.083 314.297H871.489C871.354 315.995 870.854 317.5 869.989 318.812C869.125 320.115 867.948 321.135 866.458 321.875C864.968 322.604 863.218 322.969 861.208 322.969ZM876.134 322.5V298.5H881.79V322.5H876.134ZM878.978 295.094C878.082 295.094 877.311 294.797 876.665 294.203C876.019 293.599 875.696 292.875 875.696 292.031C875.696 291.177 876.019 290.453 876.665 289.859C877.311 289.255 878.082 288.953 878.978 288.953C879.884 288.953 880.655 289.255 881.29 289.859C881.936 290.453 882.259 291.177 882.259 292.031C882.259 292.875 881.936 293.599 881.29 294.203C880.655 294.797 879.884 295.094 878.978 295.094ZM893.263 308.437V322.5H887.606V298.5H893.013V302.578H893.294C893.846 301.234 894.726 300.167 895.935 299.375C897.153 298.583 898.659 298.188 900.45 298.188C902.106 298.188 903.549 298.542 904.778 299.25C906.018 299.958 906.976 300.984 907.653 302.328C908.341 303.672 908.679 305.302 908.669 307.219V322.5H903.013V308.094C903.013 306.49 902.596 305.234 901.763 304.328C900.94 303.422 899.799 302.969 898.341 302.969C897.351 302.969 896.471 303.187 895.7 303.625C894.94 304.052 894.341 304.672 893.903 305.484C893.476 306.297 893.263 307.281 893.263 308.437ZM924.856 332C922.825 332 921.08 331.724 919.622 331.172C918.164 330.63 916.992 329.901 916.106 328.984C915.221 328.068 914.606 327.052 914.263 325.938L919.356 324.703C919.586 325.172 919.919 325.635 920.356 326.094C920.794 326.563 921.382 326.948 922.122 327.25C922.872 327.563 923.815 327.719 924.95 327.719C926.554 327.719 927.882 327.328 928.935 326.547C929.987 325.776 930.513 324.505 930.513 322.734V318.187H930.231C929.94 318.771 929.513 319.37 928.95 319.984C928.398 320.599 927.664 321.115 926.747 321.531C925.841 321.948 924.7 322.156 923.325 322.156C921.481 322.156 919.81 321.724 918.31 320.859C916.82 319.984 915.632 318.682 914.747 316.953C913.872 315.214 913.435 313.036 913.435 310.422C913.435 307.786 913.872 305.562 914.747 303.75C915.632 301.927 916.825 300.547 918.325 299.609C919.825 298.661 921.497 298.188 923.341 298.188C924.747 298.188 925.903 298.427 926.81 298.906C927.726 299.375 928.455 299.943 928.997 300.609C929.539 301.266 929.95 301.885 930.231 302.469H930.544V298.5H936.122V322.891C936.122 324.943 935.632 326.641 934.653 327.984C933.674 329.328 932.336 330.333 930.638 331C928.94 331.667 927.013 332 924.856 332ZM924.903 317.719C926.101 317.719 927.122 317.427 927.966 316.844C928.81 316.26 929.45 315.422 929.888 314.328C930.325 313.234 930.544 311.922 930.544 310.391C930.544 308.88 930.325 307.557 929.888 306.422C929.461 305.286 928.825 304.406 927.981 303.781C927.148 303.146 926.122 302.828 924.903 302.828C923.643 302.828 922.591 303.156 921.747 303.812C920.903 304.469 920.268 305.37 919.841 306.516C919.414 307.651 919.2 308.943 919.2 310.391C919.2 311.859 919.414 313.146 919.841 314.25C920.278 315.344 920.919 316.198 921.763 316.812C922.617 317.417 923.664 317.719 924.903 317.719ZM945.403 322.844C944.455 322.844 943.643 322.51 942.966 321.844C942.289 321.177 941.955 320.365 941.966 319.406C941.955 318.469 942.289 317.667 942.966 317C943.643 316.333 944.455 316 945.403 316C946.32 316 947.117 316.333 947.794 317C948.481 317.667 948.83 318.469 948.841 319.406C948.83 320.042 948.664 320.62 948.341 321.141C948.028 321.661 947.612 322.078 947.091 322.391C946.58 322.693 946.018 322.844 945.403 322.844ZM945.403 305.719C944.455 305.719 943.643 305.385 942.966 304.719C942.289 304.042 941.955 303.229 941.966 302.281C941.955 301.344 942.289 300.542 942.966 299.875C943.643 299.198 944.455 298.859 945.403 298.859C946.32 298.859 947.117 299.198 947.794 299.875C948.481 300.542 948.83 301.344 948.841 302.281C948.83 302.906 948.664 303.479 948.341 304C948.028 304.521 947.612 304.937 947.091 305.25C946.58 305.562 946.018 305.719 945.403 305.719ZM499.438 363.297H493.595C493.428 362.339 493.121 361.49 492.673 360.75C492.225 360 491.668 359.365 491.001 358.844C490.334 358.323 489.574 357.932 488.72 357.672C487.876 357.401 486.965 357.266 485.985 357.266C484.246 357.266 482.704 357.703 481.36 358.578C480.017 359.443 478.965 360.714 478.204 362.391C477.444 364.057 477.063 366.094 477.063 368.5C477.063 370.948 477.444 373.01 478.204 374.687C478.975 376.354 480.027 377.615 481.36 378.469C482.704 379.312 484.241 379.734 485.97 379.734C486.928 379.734 487.824 379.609 488.657 379.359C489.501 379.099 490.256 378.719 490.923 378.219C491.6 377.719 492.168 377.104 492.626 376.375C493.095 375.646 493.418 374.812 493.595 373.875L499.438 373.906C499.22 375.427 498.746 376.854 498.017 378.188C497.298 379.521 496.355 380.698 495.188 381.719C494.022 382.729 492.657 383.521 491.095 384.094C489.532 384.656 487.798 384.937 485.892 384.937C483.079 384.937 480.569 384.286 478.36 382.984C476.152 381.682 474.412 379.802 473.142 377.344C471.871 374.885 471.235 371.937 471.235 368.5C471.235 365.052 471.876 362.104 473.157 359.656C474.438 357.198 476.183 355.318 478.392 354.016C480.6 352.714 483.1 352.062 485.892 352.062C487.673 352.062 489.329 352.312 490.86 352.812C492.392 353.312 493.756 354.047 494.954 355.016C496.152 355.974 497.136 357.151 497.907 358.547C498.688 359.932 499.199 361.516 499.438 363.297ZM514.966 384.969C512.622 384.969 510.591 384.453 508.872 383.422C507.153 382.391 505.82 380.948 504.872 379.094C503.935 377.24 503.466 375.073 503.466 372.594C503.466 370.115 503.935 367.943 504.872 366.078C505.82 364.214 507.153 362.766 508.872 361.734C510.591 360.703 512.622 360.188 514.966 360.188C517.31 360.188 519.341 360.703 521.06 361.734C522.778 362.766 524.106 364.214 525.044 366.078C525.992 367.943 526.466 370.115 526.466 372.594C526.466 375.073 525.992 377.24 525.044 379.094C524.106 380.948 522.778 382.391 521.06 383.422C519.341 384.453 517.31 384.969 514.966 384.969ZM514.997 380.437C516.268 380.437 517.33 380.089 518.185 379.391C519.039 378.682 519.674 377.734 520.091 376.547C520.518 375.359 520.731 374.036 520.731 372.578C520.731 371.109 520.518 369.781 520.091 368.594C519.674 367.396 519.039 366.443 518.185 365.734C517.33 365.026 516.268 364.672 514.997 364.672C513.695 364.672 512.612 365.026 511.747 365.734C510.893 366.443 510.252 367.396 509.825 368.594C509.409 369.781 509.2 371.109 509.2 372.578C509.2 374.036 509.409 375.359 509.825 376.547C510.252 377.734 510.893 378.682 511.747 379.391C512.612 380.089 513.695 380.437 514.997 380.437ZM550.235 366.844L545.079 367.406C544.933 366.885 544.678 366.396 544.313 365.938C543.959 365.479 543.48 365.109 542.876 364.828C542.272 364.547 541.532 364.406 540.657 364.406C539.48 364.406 538.491 364.661 537.688 365.172C536.897 365.682 536.506 366.344 536.517 367.156C536.506 367.854 536.761 368.422 537.282 368.859C537.813 369.297 538.688 369.656 539.907 369.938L544.001 370.812C546.272 371.302 547.959 372.078 549.063 373.141C550.178 374.203 550.741 375.594 550.751 377.312C550.741 378.823 550.298 380.156 549.423 381.312C548.558 382.458 547.355 383.354 545.813 384C544.272 384.646 542.501 384.969 540.501 384.969C537.563 384.969 535.199 384.354 533.407 383.125C531.616 381.885 530.548 380.161 530.204 377.953L535.72 377.422C535.97 378.505 536.501 379.323 537.313 379.875C538.126 380.427 539.183 380.703 540.485 380.703C541.829 380.703 542.907 380.427 543.72 379.875C544.543 379.323 544.954 378.641 544.954 377.828C544.954 377.141 544.688 376.573 544.157 376.125C543.636 375.677 542.824 375.333 541.72 375.094L537.626 374.234C535.324 373.755 533.621 372.948 532.517 371.812C531.412 370.667 530.866 369.219 530.876 367.469C530.866 365.99 531.267 364.708 532.079 363.625C532.902 362.531 534.043 361.687 535.501 361.094C536.97 360.49 538.662 360.188 540.579 360.188C543.392 360.188 545.605 360.786 547.22 361.984C548.845 363.182 549.85 364.802 550.235 366.844ZM567.399 360.5V364.875H553.603V360.5H567.399ZM557.009 354.75H562.665V377.281C562.665 378.042 562.78 378.625 563.009 379.031C563.248 379.427 563.561 379.698 563.946 379.844C564.332 379.99 564.759 380.062 565.228 380.062C565.582 380.062 565.905 380.036 566.196 379.984C566.498 379.932 566.728 379.885 566.884 379.844L567.837 384.266C567.535 384.37 567.103 384.484 566.54 384.609C565.988 384.734 565.311 384.807 564.509 384.828C563.092 384.87 561.816 384.656 560.681 384.187C559.545 383.708 558.644 382.969 557.978 381.969C557.321 380.969 556.998 379.719 557.009 378.219V354.75ZM592.481 379.375V357.75H597.388V379.375H592.481ZM584.122 371.016V366.109H605.747V371.016H584.122ZM623.813 384.5V352.5H635.813C638.272 352.5 640.334 352.927 642.001 353.781C643.678 354.635 644.944 355.833 645.798 357.375C646.662 358.906 647.095 360.693 647.095 362.734C647.095 364.786 646.657 366.568 645.782 368.078C644.918 369.578 643.642 370.74 641.954 371.562C640.267 372.375 638.194 372.781 635.735 372.781H627.188V367.969H634.954C636.392 367.969 637.569 367.771 638.485 367.375C639.402 366.969 640.079 366.38 640.517 365.609C640.965 364.828 641.188 363.87 641.188 362.734C641.188 361.599 640.965 360.63 640.517 359.828C640.069 359.016 639.386 358.401 638.47 357.984C637.553 357.557 636.371 357.344 634.923 357.344H629.61V384.5H623.813ZM640.345 370L648.267 384.5H641.798L634.017 370H640.345ZM662.462 384.969C660.056 384.969 657.978 384.469 656.228 383.469C654.488 382.458 653.149 381.031 652.212 379.187C651.274 377.333 650.806 375.151 650.806 372.641C650.806 370.172 651.274 368.005 652.212 366.141C653.16 364.266 654.483 362.807 656.181 361.766C657.879 360.714 659.873 360.188 662.165 360.188C663.644 360.188 665.04 360.427 666.353 360.906C667.675 361.375 668.842 362.104 669.853 363.094C670.873 364.083 671.675 365.344 672.259 366.875C672.842 368.396 673.134 370.208 673.134 372.312V374.047H653.462V370.234H667.712C667.701 369.151 667.467 368.187 667.009 367.344C666.55 366.49 665.91 365.818 665.087 365.328C664.274 364.839 663.326 364.594 662.243 364.594C661.087 364.594 660.071 364.875 659.196 365.437C658.321 365.99 657.639 366.719 657.149 367.625C656.67 368.521 656.425 369.505 656.415 370.578V373.906C656.415 375.302 656.67 376.5 657.181 377.5C657.691 378.49 658.405 379.25 659.321 379.781C660.238 380.302 661.311 380.562 662.54 380.562C663.363 380.562 664.108 380.448 664.774 380.219C665.441 379.979 666.019 379.63 666.509 379.172C666.998 378.714 667.368 378.146 667.618 377.469L672.899 378.062C672.566 379.458 671.931 380.677 670.993 381.719C670.066 382.75 668.879 383.552 667.431 384.125C665.983 384.687 664.326 384.969 662.462 384.969ZM698.669 360.5L690.122 384.5H683.872L675.325 360.5H681.356L686.872 378.328H687.122L692.653 360.5H698.669ZM702.583 384.5V360.5H708.239V384.5H702.583ZM705.427 357.094C704.531 357.094 703.76 356.797 703.114 356.203C702.468 355.599 702.146 354.875 702.146 354.031C702.146 353.177 702.468 352.453 703.114 351.859C703.76 351.255 704.531 350.953 705.427 350.953C706.333 350.953 707.104 351.255 707.739 351.859C708.385 352.453 708.708 353.177 708.708 354.031C708.708 354.875 708.385 355.599 707.739 356.203C707.104 356.797 706.333 357.094 705.427 357.094ZM724.681 384.969C722.274 384.969 720.196 384.469 718.446 383.469C716.707 382.458 715.368 381.031 714.431 379.187C713.493 377.333 713.024 375.151 713.024 372.641C713.024 370.172 713.493 368.005 714.431 366.141C715.379 364.266 716.701 362.807 718.399 361.766C720.097 360.714 722.092 360.188 724.384 360.188C725.863 360.188 727.259 360.427 728.571 360.906C729.894 361.375 731.061 362.104 732.071 363.094C733.092 364.083 733.894 365.344 734.478 366.875C735.061 368.396 735.353 370.208 735.353 372.312V374.047H715.681V370.234H729.931C729.92 369.151 729.686 368.187 729.228 367.344C728.769 366.49 728.129 365.818 727.306 365.328C726.493 364.839 725.545 364.594 724.462 364.594C723.306 364.594 722.29 364.875 721.415 365.437C720.54 365.99 719.858 366.719 719.368 367.625C718.889 368.521 718.644 369.505 718.634 370.578V373.906C718.634 375.302 718.889 376.5 719.399 377.5C719.91 378.49 720.623 379.25 721.54 379.781C722.457 380.302 723.53 380.562 724.759 380.562C725.582 380.562 726.326 380.448 726.993 380.219C727.66 379.979 728.238 379.63 728.728 379.172C729.217 378.714 729.587 378.146 729.837 377.469L735.118 378.062C734.785 379.458 734.149 380.677 733.212 381.719C732.285 382.75 731.097 383.552 729.649 384.125C728.201 384.687 726.545 384.969 724.681 384.969ZM744.962 384.5L738.181 360.5H743.946L748.165 377.375H748.384L752.696 360.5H758.399L762.712 377.281H762.946L767.103 360.5H772.884L766.087 384.5H760.196L755.696 368.281H755.368L750.868 384.5H744.962ZM795.802 366.844L790.646 367.406C790.5 366.885 790.244 366.396 789.88 365.938C789.526 365.479 789.047 365.109 788.442 364.828C787.838 364.547 787.099 364.406 786.224 364.406C785.047 364.406 784.057 364.661 783.255 365.172C782.463 365.682 782.073 366.344 782.083 367.156C782.073 367.854 782.328 368.422 782.849 368.859C783.38 369.297 784.255 369.656 785.474 369.938L789.567 370.812C791.838 371.302 793.526 372.078 794.63 373.141C795.744 374.203 796.307 375.594 796.317 377.312C796.307 378.823 795.864 380.156 794.989 381.312C794.125 382.458 792.922 383.354 791.38 384C789.838 384.646 788.067 384.969 786.067 384.969C783.13 384.969 780.765 384.354 778.974 383.125C777.182 381.885 776.114 380.161 775.771 377.953L781.286 377.422C781.536 378.505 782.067 379.323 782.88 379.875C783.692 380.427 784.75 380.703 786.052 380.703C787.396 380.703 788.474 380.427 789.286 379.875C790.109 379.323 790.521 378.641 790.521 377.828C790.521 377.141 790.255 376.573 789.724 376.125C789.203 375.677 788.39 375.333 787.286 375.094L783.192 374.234C780.89 373.755 779.187 372.948 778.083 371.812C776.979 370.667 776.432 369.219 776.442 367.469C776.432 365.99 776.833 364.708 777.646 363.625C778.468 362.531 779.609 361.687 781.067 361.094C782.536 360.49 784.229 360.188 786.146 360.188C788.958 360.188 791.172 360.786 792.786 361.984C794.411 363.182 795.416 364.802 795.802 366.844Z" fill="#0F1629"/>
<defs>
<filter id="filter0_d_25_1065" x="173.337" y="201.594" width="292.325" height="292.326" filterUnits="userSpaceOnUse" color-interpolation-filters="sRGB">
<feFlood flood-opacity="0" result="BackgroundImageFix"/>
<feColorMatrix in="SourceAlpha" type="matrix" values="0 0 0 0 0 0 0 0 0 0 0 0 0 0 0 0 0 0 127 0" result="hardAlpha"/>
<feOffset dy="10.257"/>
<feGaussianBlur stdDeviation="15.3856"/>
<feComposite in2="hardAlpha" operator="out"/>
<feColorMatrix type="matrix" values="0 0 0 0 0 0 0 0 0 0 0 0 0 0 0 0 0 0 0.12 0"/>
<feBlend mode="normal" in2="BackgroundImageFix" result="effect1_dropShadow_25_1065"/>
<feBlend mode="normal" in="SourceGraphic" in2="effect1_dropShadow_25_1065" result="shape"/>
</filter>
<radialGradient id="paint0_radial_25_1065" cx="0" cy="0" r="1" gradientUnits="userSpaceOnUse" gradientTransform="translate(614.283 337.5) rotate(90) scale(317.991 469.665)">
<stop offset="0.42999" stop-color="#D9D9D9"/>
<stop offset="1" stop-color="#D9D9D9" stop-opacity="0"/>
</radialGradient>
<clipPath id="clip0_25_1065">
<rect width="298" height="54" fill="white" transform="translate(872 591)"/>
</clipPath>
</defs>
</svg>
