<svg width="1200" height="675" viewBox="0 0 1200 675" fill="none" xmlns="http://www.w3.org/2000/svg">
<g clip-path="url(#clip0_25_817)">
<rect width="1200" height="675" fill="#FEF2EC"/>
<mask id="mask0_25_817" style="mask-type:alpha" maskUnits="userSpaceOnUse" x="263" y="90" width="675" height="675">
<circle cx="600.5" cy="427.5" r="337.5" fill="url(#paint0_radial_25_817)"/>
</mask>
<g mask="url(#mask0_25_817)">
<path d="M263 90V765" stroke="#FCD8C4" stroke-width="0.975434"/>
<path d="M298.527 90V765" stroke="#FCD8C4" stroke-width="0.975434"/>
<path d="M334.054 90V765" stroke="#FCD8C4" stroke-width="0.975434"/>
<path d="M369.582 90V765" stroke="#FCD8C4" stroke-width="0.975434"/>
<path d="M405.108 90V765" stroke="#FCD8C4" stroke-width="0.975434"/>
<path d="M440.628 90V765" stroke="#FCD8C4" stroke-width="0.975434"/>
<path d="M476.155 90V765" stroke="#FCD8C4" stroke-width="0.975434"/>
<path d="M511.682 90V765" stroke="#FCD8C4" stroke-width="0.975434"/>
<path d="M547.209 90V765" stroke="#FCD8C4" stroke-width="0.975434"/>
<path d="M582.736 90V765" stroke="#FCD8C4" stroke-width="0.975434"/>
<path d="M618.264 90V765" stroke="#FCD8C4" stroke-width="0.975434"/>
<path d="M653.791 90V765" stroke="#FCD8C4" stroke-width="0.975434"/>
<path d="M689.317 90V765" stroke="#FCD8C4" stroke-width="0.975434"/>
<path d="M724.845 90V765" stroke="#FCD8C4" stroke-width="0.975434"/>
<path d="M760.372 90V765" stroke="#FCD8C4" stroke-width="0.975434"/>
<path d="M795.892 90V765" stroke="#FCD8C4" stroke-width="0.975434"/>
<path d="M831.419 90V765" stroke="#FCD8C4" stroke-width="0.975434"/>
<path d="M866.945 90V765" stroke="#FCD8C4" stroke-width="0.975434"/>
<path d="M902.473 90V765" stroke="#FCD8C4" stroke-width="0.975434"/>
<path d="M938 90V765" stroke="#FCD8C4" stroke-width="0.975434"/>
<path d="M263 90H938" stroke="#FCD8C4" stroke-width="0.975434"/>
<path d="M263 123.752H938" stroke="#FCD8C4" stroke-width="0.975434"/>
<path d="M263 157.503H938" stroke="#FCD8C4" stroke-width="0.975434"/>
<path d="M263 191.247H938" stroke="#FCD8C4" stroke-width="0.975434"/>
<path d="M263 224.998H938" stroke="#FCD8C4" stroke-width="0.975434"/>
<path d="M263 258.75H938" stroke="#FCD8C4" stroke-width="0.975434"/>
<path d="M263 292.502H938" stroke="#FCD8C4" stroke-width="0.975434"/>
<path d="M263 326.253H938" stroke="#FCD8C4" stroke-width="0.975434"/>
<path d="M263 359.997H938" stroke="#FCD8C4" stroke-width="0.975434"/>
<path d="M263 393.748H938" stroke="#FCD8C4" stroke-width="0.975434"/>
<path d="M263 427.5H938" stroke="#FCD8C4" stroke-width="0.975434"/>
<path d="M263 461.252H938" stroke="#FCD8C4" stroke-width="0.975434"/>
<path d="M263 495.003H938" stroke="#FCD8C4" stroke-width="0.975434"/>
<path d="M263 528.747H938" stroke="#FCD8C4" stroke-width="0.975434"/>
<path d="M263 562.498H938" stroke="#FCD8C4" stroke-width="0.975434"/>
<path d="M263 596.25H938" stroke="#FCD8C4" stroke-width="0.975434"/>
<path d="M263 630.002H938" stroke="#FCD8C4" stroke-width="0.975434"/>
<path d="M263 663.753H938" stroke="#FCD8C4" stroke-width="0.975434"/>
</g>
<path d="M364.592 84.7969H358.748C358.581 83.8385 358.274 82.9896 357.826 82.25C357.378 81.5 356.821 80.8646 356.154 80.3437C355.488 79.8229 354.727 79.4323 353.873 79.1719C353.029 78.901 352.118 78.7656 351.139 78.7656C349.399 78.7656 347.857 79.2031 346.514 80.0781C345.17 80.9427 344.118 82.2135 343.357 83.8906C342.597 85.5573 342.217 87.5937 342.217 90C342.217 92.4479 342.597 94.5104 343.357 96.1875C344.128 97.8542 345.18 99.1146 346.514 99.9687C347.857 100.812 349.394 101.234 351.123 101.234C352.081 101.234 352.977 101.109 353.811 100.859C354.654 100.599 355.41 100.219 356.076 99.7187C356.753 99.2187 357.321 98.6042 357.779 97.875C358.248 97.1458 358.571 96.3125 358.748 95.375L364.592 95.4062C364.373 96.9271 363.899 98.3542 363.17 99.6875C362.451 101.021 361.508 102.198 360.342 103.219C359.175 104.229 357.811 105.021 356.248 105.594C354.686 106.156 352.951 106.437 351.045 106.437C348.232 106.437 345.722 105.786 343.514 104.484C341.305 103.182 339.566 101.302 338.295 98.8437C337.024 96.3854 336.389 93.4375 336.389 90C336.389 86.5521 337.029 83.6042 338.311 81.1562C339.592 78.6979 341.337 76.8177 343.545 75.5156C345.753 74.2135 348.253 73.5625 351.045 73.5625C352.826 73.5625 354.482 73.8125 356.014 74.3125C357.545 74.8125 358.91 75.5469 360.107 76.5156C361.305 77.474 362.29 78.651 363.061 80.0469C363.842 81.4323 364.352 83.0156 364.592 84.7969ZM380.119 106.469C377.775 106.469 375.744 105.953 374.025 104.922C372.307 103.891 370.973 102.448 370.025 100.594C369.088 98.7396 368.619 96.5729 368.619 94.0937C368.619 91.6146 369.088 89.4427 370.025 87.5781C370.973 85.7135 372.307 84.2656 374.025 83.2344C375.744 82.2031 377.775 81.6875 380.119 81.6875C382.463 81.6875 384.494 82.2031 386.213 83.2344C387.932 84.2656 389.26 85.7135 390.197 87.5781C391.145 89.4427 391.619 91.6146 391.619 94.0937C391.619 96.5729 391.145 98.7396 390.197 100.594C389.26 102.448 387.932 103.891 386.213 104.922C384.494 105.953 382.463 106.469 380.119 106.469ZM380.15 101.937C381.421 101.937 382.484 101.589 383.338 100.891C384.192 100.182 384.827 99.2344 385.244 98.0469C385.671 96.8594 385.885 95.5365 385.885 94.0781C385.885 92.6094 385.671 91.2812 385.244 90.0937C384.827 88.8958 384.192 87.9427 383.338 87.2344C382.484 86.526 381.421 86.1719 380.15 86.1719C378.848 86.1719 377.765 86.526 376.9 87.2344C376.046 87.9427 375.406 88.8958 374.979 90.0937C374.562 91.2812 374.354 92.6094 374.354 94.0781C374.354 95.5365 374.562 96.8594 374.979 98.0469C375.406 99.2344 376.046 100.182 376.9 100.891C377.765 101.589 378.848 101.937 380.15 101.937ZM402.076 91.9375V106H396.42V82H401.826V86.0781H402.107C402.66 84.7344 403.54 83.6667 404.748 82.875C405.967 82.0833 407.472 81.6875 409.264 81.6875C410.92 81.6875 412.363 82.0417 413.592 82.75C414.831 83.4583 415.79 84.4844 416.467 85.8281C417.154 87.1719 417.493 88.8021 417.482 90.7187V106H411.826V91.5937C411.826 89.9896 411.41 88.7344 410.576 87.8281C409.753 86.9219 408.613 86.4687 407.154 86.4687C406.165 86.4687 405.285 86.6875 404.514 87.125C403.753 87.5521 403.154 88.1719 402.717 88.9844C402.29 89.7969 402.076 90.7812 402.076 91.9375ZM435.217 82V86.375H421.42V82H435.217ZM424.826 76.25H430.482V98.7812C430.482 99.5417 430.597 100.125 430.826 100.531C431.066 100.927 431.378 101.198 431.764 101.344C432.149 101.49 432.576 101.562 433.045 101.562C433.399 101.562 433.722 101.536 434.014 101.484C434.316 101.432 434.545 101.385 434.701 101.344L435.654 105.766C435.352 105.87 434.92 105.984 434.357 106.109C433.805 106.234 433.128 106.307 432.326 106.328C430.91 106.37 429.633 106.156 428.498 105.687C427.363 105.208 426.462 104.469 425.795 103.469C425.139 102.469 424.816 101.219 424.826 99.7187V76.25ZM450.314 106.469C447.908 106.469 445.83 105.969 444.08 104.969C442.34 103.958 441.002 102.531 440.064 100.687C439.127 98.8333 438.658 96.651 438.658 94.1406C438.658 91.6719 439.127 89.5052 440.064 87.6406C441.012 85.7656 442.335 84.3073 444.033 83.2656C445.731 82.2135 447.726 81.6875 450.018 81.6875C451.497 81.6875 452.893 81.9271 454.205 82.4062C455.528 82.875 456.695 83.6042 457.705 84.5937C458.726 85.5833 459.528 86.8437 460.111 88.375C460.695 89.8958 460.986 91.7083 460.986 93.8125V95.5469H441.314V91.7344H455.564C455.554 90.651 455.32 89.6875 454.861 88.8437C454.403 87.9896 453.762 87.3177 452.939 86.8281C452.127 86.3385 451.179 86.0937 450.096 86.0937C448.939 86.0937 447.924 86.375 447.049 86.9375C446.174 87.4896 445.492 88.2187 445.002 89.125C444.523 90.0208 444.278 91.0052 444.268 92.0781V95.4062C444.268 96.8021 444.523 98 445.033 99C445.544 99.9896 446.257 100.75 447.174 101.281C448.09 101.802 449.163 102.062 450.393 102.062C451.215 102.062 451.96 101.948 452.627 101.719C453.294 101.479 453.872 101.13 454.361 100.672C454.851 100.214 455.221 99.6458 455.471 98.9687L460.752 99.5625C460.419 100.958 459.783 102.177 458.846 103.219C457.919 104.25 456.731 105.052 455.283 105.625C453.835 106.187 452.179 106.469 450.314 106.469ZM471.428 91.9375V106H465.771V82H471.178V86.0781H471.459C472.011 84.7344 472.891 83.6667 474.1 82.875C475.318 82.0833 476.824 81.6875 478.615 81.6875C480.271 81.6875 481.714 82.0417 482.943 82.75C484.183 83.4583 485.141 84.4844 485.818 85.8281C486.506 87.1719 486.844 88.8021 486.834 90.7187V106H481.178V91.5937C481.178 89.9896 480.761 88.7344 479.928 87.8281C479.105 86.9219 477.964 86.4687 476.506 86.4687C475.516 86.4687 474.636 86.6875 473.865 87.125C473.105 87.5521 472.506 88.1719 472.068 88.9844C471.641 89.7969 471.428 90.7812 471.428 91.9375ZM504.568 82V86.375H490.771V82H504.568ZM494.178 76.25H499.834V98.7812C499.834 99.5417 499.949 100.125 500.178 100.531C500.417 100.927 500.73 101.198 501.115 101.344C501.501 101.49 501.928 101.562 502.396 101.562C502.751 101.562 503.074 101.536 503.365 101.484C503.667 101.432 503.896 101.385 504.053 101.344L505.006 105.766C504.704 105.87 504.271 105.984 503.709 106.109C503.157 106.234 502.48 106.307 501.678 106.328C500.261 106.37 498.985 106.156 497.85 105.687C496.714 105.208 495.813 104.469 495.146 103.469C494.49 102.469 494.167 101.219 494.178 99.7187V76.25ZM510.064 106V74H515.721V85.9687H515.955C516.247 85.3854 516.658 84.7656 517.189 84.1094C517.721 83.4427 518.439 82.875 519.346 82.4062C520.252 81.9271 521.408 81.6875 522.814 81.6875C524.669 81.6875 526.34 82.1615 527.83 83.1094C529.33 84.0469 530.518 85.4375 531.393 87.2812C532.278 89.1146 532.721 91.3646 532.721 94.0312C532.721 96.6667 532.288 98.9062 531.424 100.75C530.559 102.594 529.382 104 527.893 104.969C526.403 105.938 524.715 106.422 522.83 106.422C521.455 106.422 520.314 106.193 519.408 105.734C518.502 105.276 517.773 104.724 517.221 104.078C516.679 103.422 516.257 102.802 515.955 102.219H515.627V106H510.064ZM515.611 94C515.611 95.5521 515.83 96.9115 516.268 98.0781C516.715 99.2448 517.356 100.156 518.189 100.812C519.033 101.458 520.054 101.781 521.252 101.781C522.502 101.781 523.549 101.448 524.393 100.781C525.236 100.104 525.872 99.1823 526.299 98.0156C526.736 96.8385 526.955 95.5 526.955 94C526.955 92.5104 526.742 91.1875 526.314 90.0312C525.887 88.875 525.252 87.9687 524.408 87.3125C523.564 86.6562 522.512 86.3281 521.252 86.3281C520.044 86.3281 519.018 86.6458 518.174 87.2812C517.33 87.9167 516.689 88.8073 516.252 89.9531C515.825 91.099 515.611 92.4479 515.611 94ZM537.529 106V82H543.014V86H543.264C543.701 84.6146 544.451 83.5469 545.514 82.7969C546.587 82.0365 547.811 81.6562 549.186 81.6562C549.498 81.6562 549.847 81.6719 550.232 81.7031C550.628 81.724 550.956 81.7604 551.217 81.8125V87.0156C550.977 86.9323 550.597 86.8594 550.076 86.7969C549.566 86.724 549.071 86.6875 548.592 86.6875C547.561 86.6875 546.633 86.9115 545.811 87.3594C544.998 87.7969 544.357 88.4062 543.889 89.1875C543.42 89.9687 543.186 90.8698 543.186 91.8906V106H537.529ZM554.975 106V82H560.631V106H554.975ZM557.818 78.5938C556.923 78.5938 556.152 78.2969 555.506 77.7031C554.86 77.099 554.537 76.375 554.537 75.5312C554.537 74.6771 554.86 73.9531 555.506 73.3594C556.152 72.7552 556.923 72.4531 557.818 72.4531C558.725 72.4531 559.495 72.7552 560.131 73.3594C560.777 73.9531 561.1 74.6771 561.1 75.5312C561.1 76.375 560.777 77.099 560.131 77.7031C559.495 78.2969 558.725 78.5938 557.818 78.5938ZM575.354 106.422C573.468 106.422 571.781 105.938 570.291 104.969C568.801 104 567.624 102.594 566.76 100.75C565.895 98.9062 565.463 96.6667 565.463 94.0312C565.463 91.3646 565.9 89.1146 566.775 87.2812C567.661 85.4375 568.854 84.0469 570.354 83.1094C571.854 82.1615 573.525 81.6875 575.369 81.6875C576.775 81.6875 577.932 81.9271 578.838 82.4062C579.744 82.875 580.463 83.4427 580.994 84.1094C581.525 84.7656 581.937 85.3854 582.229 85.9687H582.463V74H588.135V106H582.572V102.219H582.229C581.937 102.802 581.515 103.422 580.963 104.078C580.411 104.724 579.682 105.276 578.775 105.734C577.869 106.193 576.729 106.422 575.354 106.422ZM576.932 101.781C578.13 101.781 579.15 101.458 579.994 100.812C580.838 100.156 581.479 99.2448 581.916 98.0781C582.354 96.9115 582.572 95.5521 582.572 94C582.572 92.4479 582.354 91.099 581.916 89.9531C581.489 88.8073 580.854 87.9167 580.01 87.2812C579.176 86.6458 578.15 86.3281 576.932 86.3281C575.671 86.3281 574.619 86.6562 573.775 87.3125C572.932 87.9687 572.296 88.875 571.869 90.0312C571.442 91.1875 571.229 92.5104 571.229 94C571.229 95.5 571.442 96.8385 571.869 98.0156C572.307 99.1823 572.947 100.104 573.791 100.781C574.645 101.448 575.692 101.781 576.932 101.781ZM604.6 115.5C602.568 115.5 600.824 115.224 599.365 114.672C597.907 114.13 596.735 113.401 595.85 112.484C594.964 111.568 594.35 110.552 594.006 109.438L599.1 108.203C599.329 108.672 599.662 109.135 600.1 109.594C600.537 110.063 601.126 110.448 601.865 110.75C602.615 111.063 603.558 111.219 604.693 111.219C606.298 111.219 607.626 110.828 608.678 110.047C609.73 109.276 610.256 108.005 610.256 106.234V101.687H609.975C609.683 102.271 609.256 102.87 608.693 103.484C608.141 104.099 607.407 104.615 606.49 105.031C605.584 105.448 604.443 105.656 603.068 105.656C601.225 105.656 599.553 105.224 598.053 104.359C596.563 103.484 595.376 102.182 594.49 100.453C593.615 98.7135 593.178 96.5365 593.178 93.9219C593.178 91.2865 593.615 89.0625 594.49 87.25C595.376 85.4271 596.568 84.0469 598.068 83.1094C599.568 82.1615 601.24 81.6875 603.084 81.6875C604.49 81.6875 605.646 81.9271 606.553 82.4062C607.469 82.875 608.199 83.4427 608.74 84.1094C609.282 84.7656 609.693 85.3854 609.975 85.9687H610.287V82H615.865V106.391C615.865 108.443 615.376 110.141 614.396 111.484C613.417 112.828 612.079 113.833 610.381 114.5C608.683 115.167 606.756 115.5 604.6 115.5ZM604.646 101.219C605.844 101.219 606.865 100.927 607.709 100.344C608.553 99.7604 609.193 98.9219 609.631 97.8281C610.068 96.7344 610.287 95.4219 610.287 93.8906C610.287 92.3802 610.068 91.0573 609.631 89.9219C609.204 88.7865 608.568 87.9062 607.725 87.2812C606.891 86.6458 605.865 86.3281 604.646 86.3281C603.386 86.3281 602.334 86.6562 601.49 87.3125C600.646 87.9687 600.011 88.8698 599.584 90.0156C599.157 91.151 598.943 92.4427 598.943 93.8906C598.943 95.3594 599.157 96.6458 599.584 97.75C600.021 98.8437 600.662 99.6979 601.506 100.312C602.36 100.917 603.407 101.219 604.646 101.219ZM632.287 106.469C629.881 106.469 627.803 105.969 626.053 104.969C624.313 103.958 622.975 102.531 622.037 100.687C621.1 98.8333 620.631 96.651 620.631 94.1406C620.631 91.6719 621.1 89.5052 622.037 87.6406C622.985 85.7656 624.308 84.3073 626.006 83.2656C627.704 82.2135 629.699 81.6875 631.99 81.6875C633.469 81.6875 634.865 81.9271 636.178 82.4062C637.501 82.875 638.667 83.6042 639.678 84.5937C640.699 85.5833 641.501 86.8437 642.084 88.375C642.667 89.8958 642.959 91.7083 642.959 93.8125V95.5469H623.287V91.7344H637.537C637.527 90.651 637.292 89.6875 636.834 88.8437C636.376 87.9896 635.735 87.3177 634.912 86.8281C634.1 86.3385 633.152 86.0937 632.068 86.0937C630.912 86.0937 629.896 86.375 629.021 86.9375C628.146 87.4896 627.464 88.2187 626.975 89.125C626.495 90.0208 626.251 91.0052 626.24 92.0781V95.4062C626.24 96.8021 626.495 98 627.006 99C627.516 99.9896 628.23 100.75 629.146 101.281C630.063 101.802 631.136 102.062 632.365 102.062C633.188 102.062 633.933 101.948 634.6 101.719C635.266 101.479 635.844 101.13 636.334 100.672C636.824 100.214 637.193 99.6458 637.443 98.9687L642.725 99.5625C642.391 100.958 641.756 102.177 640.818 103.219C639.891 104.25 638.704 105.052 637.256 105.625C635.808 106.187 634.152 106.469 632.287 106.469ZM663.189 74L671.518 99.1875H671.846L680.158 74H686.533L675.252 106H668.096L656.83 74H663.189ZM707.447 88.3438L702.291 88.9062C702.145 88.3854 701.89 87.8958 701.525 87.4375C701.171 86.9792 700.692 86.6094 700.088 86.3281C699.484 86.0469 698.744 85.9062 697.869 85.9062C696.692 85.9062 695.702 86.1615 694.9 86.6719C694.109 87.1823 693.718 87.8437 693.729 88.6562C693.718 89.3542 693.973 89.9219 694.494 90.3594C695.025 90.7969 695.9 91.1562 697.119 91.4375L701.213 92.3125C703.484 92.8021 705.171 93.5781 706.275 94.6406C707.39 95.7031 707.952 97.0937 707.963 98.8125C707.952 100.323 707.51 101.656 706.635 102.812C705.77 103.958 704.567 104.854 703.025 105.5C701.484 106.146 699.713 106.469 697.713 106.469C694.775 106.469 692.411 105.854 690.619 104.625C688.827 103.385 687.76 101.661 687.416 99.4531L692.932 98.9219C693.182 100.005 693.713 100.823 694.525 101.375C695.338 101.927 696.395 102.203 697.697 102.203C699.041 102.203 700.119 101.927 700.932 101.375C701.755 100.823 702.166 100.141 702.166 99.3281C702.166 98.6406 701.9 98.0729 701.369 97.625C700.848 97.1771 700.036 96.8333 698.932 96.5937L694.838 95.7344C692.536 95.2552 690.833 94.4479 689.729 93.3125C688.624 92.1667 688.077 90.7187 688.088 88.9687C688.077 87.4896 688.479 86.2083 689.291 85.125C690.114 84.0312 691.255 83.1875 692.713 82.5937C694.182 81.9896 695.874 81.6875 697.791 81.6875C700.604 81.6875 702.817 82.2865 704.432 83.4844C706.057 84.6823 707.062 86.3021 707.447 88.3438ZM716.111 106.344C715.163 106.344 714.351 106.01 713.674 105.344C712.997 104.677 712.663 103.865 712.674 102.906C712.663 101.969 712.997 101.167 713.674 100.5C714.351 99.8333 715.163 99.5 716.111 99.5C717.028 99.5 717.825 99.8333 718.502 100.5C719.189 101.167 719.538 101.969 719.549 102.906C719.538 103.542 719.372 104.12 719.049 104.641C718.736 105.161 718.32 105.578 717.799 105.891C717.288 106.193 716.726 106.344 716.111 106.344ZM734.158 78.8594V74H759.689V78.8594H749.799V106H744.049V78.8594H734.158ZM764.361 106V82H770.018V106H764.361ZM767.205 78.5938C766.309 78.5938 765.538 78.2969 764.893 77.7031C764.247 77.099 763.924 76.375 763.924 75.5312C763.924 74.6771 764.247 73.9531 764.893 73.3594C765.538 72.7552 766.309 72.4531 767.205 72.4531C768.111 72.4531 768.882 72.7552 769.518 73.3594C770.163 73.9531 770.486 74.6771 770.486 75.5312C770.486 76.375 770.163 77.099 769.518 77.7031C768.882 78.2969 768.111 78.5938 767.205 78.5938ZM787.818 82V86.375H774.021V82H787.818ZM777.428 76.25H783.084V98.7812C783.084 99.5417 783.199 100.125 783.428 100.531C783.667 100.927 783.98 101.198 784.365 101.344C784.751 101.49 785.178 101.562 785.646 101.562C786.001 101.562 786.324 101.536 786.615 101.484C786.917 101.432 787.146 101.385 787.303 101.344L788.256 105.766C787.954 105.87 787.521 105.984 786.959 106.109C786.407 106.234 785.73 106.307 784.928 106.328C783.511 106.37 782.235 106.156 781.1 105.687C779.964 105.208 779.063 104.469 778.396 103.469C777.74 102.469 777.417 101.219 777.428 99.7187V76.25ZM798.721 74V106H793.064V74H798.721ZM815.162 106.469C812.756 106.469 810.678 105.969 808.928 104.969C807.188 103.958 805.85 102.531 804.912 100.687C803.975 98.8333 803.506 96.651 803.506 94.1406C803.506 91.6719 803.975 89.5052 804.912 87.6406C805.86 85.7656 807.183 84.3073 808.881 83.2656C810.579 82.2135 812.574 81.6875 814.865 81.6875C816.344 81.6875 817.74 81.9271 819.053 82.4062C820.376 82.875 821.542 83.6042 822.553 84.5937C823.574 85.5833 824.376 86.8437 824.959 88.375C825.542 89.8958 825.834 91.7083 825.834 93.8125V95.5469H806.162V91.7344H820.412C820.402 90.651 820.167 89.6875 819.709 88.8437C819.251 87.9896 818.61 87.3177 817.787 86.8281C816.975 86.3385 816.027 86.0937 814.943 86.0937C813.787 86.0937 812.771 86.375 811.896 86.9375C811.021 87.4896 810.339 88.2187 809.85 89.125C809.37 90.0208 809.126 91.0052 809.115 92.0781V95.4062C809.115 96.8021 809.37 98 809.881 99C810.391 99.9896 811.105 100.75 812.021 101.281C812.938 101.802 814.011 102.062 815.24 102.062C816.063 102.062 816.808 101.948 817.475 101.719C818.141 101.479 818.719 101.13 819.209 100.672C819.699 100.214 820.068 99.6458 820.318 98.9687L825.6 99.5625C825.266 100.958 824.631 102.177 823.693 103.219C822.766 104.25 821.579 105.052 820.131 105.625C818.683 106.187 817.027 106.469 815.162 106.469ZM841.471 106V101.812L852.58 90.9219C853.643 89.849 854.528 88.8958 855.236 88.0625C855.945 87.2292 856.476 86.4219 856.83 85.6406C857.184 84.8594 857.361 84.026 857.361 83.1406C857.361 82.1302 857.132 81.2656 856.674 80.5469C856.215 79.8177 855.585 79.2552 854.783 78.8594C853.981 78.4635 853.07 78.2656 852.049 78.2656C850.997 78.2656 850.075 78.4844 849.283 78.9219C848.492 79.349 847.877 79.9583 847.439 80.75C847.012 81.5417 846.799 82.4844 846.799 83.5781H841.283C841.283 81.5469 841.747 79.7812 842.674 78.2812C843.601 76.7812 844.877 75.6198 846.502 74.7969C848.137 73.974 850.012 73.5625 852.127 73.5625C854.273 73.5625 856.158 73.9635 857.783 74.7656C859.408 75.5677 860.669 76.6667 861.564 78.0625C862.471 79.4583 862.924 81.0521 862.924 82.8437C862.924 84.0417 862.695 85.2187 862.236 86.375C861.778 87.5312 860.971 88.8125 859.814 90.2187C858.669 91.625 857.059 93.3281 854.986 95.3281L849.471 100.937V101.156H863.408V106H841.471Z" fill="#0F1629"/>
<g filter="url(#filter0_d_25_817)">
<rect x="191" y="241" width="230.784" height="230.784" rx="52.5674" fill="white"/>
<rect x="191.642" y="241.641" width="229.501" height="229.501" rx="51.9263" stroke="#D4C4BA" stroke-width="1.28213"/>
<path d="M342.265 286.753H270.519C251.671 286.753 236.392 302.032 236.392 320.88V392.627C236.392 411.474 251.671 426.753 270.519 426.753H342.265C361.113 426.753 376.392 411.474 376.392 392.627V320.88C376.392 302.032 361.113 286.753 342.265 286.753Z" fill="#F67B37"/>
<mask id="mask1_25_817" style="mask-type:luminance" maskUnits="userSpaceOnUse" x="236" y="286" width="141" height="141">
<path d="M342.265 286.753H270.519C251.671 286.753 236.392 302.032 236.392 320.88V392.627C236.392 411.474 251.671 426.753 270.519 426.753H342.265C361.113 426.753 376.392 411.474 376.392 392.627V320.88C376.392 302.032 361.113 286.753 342.265 286.753Z" fill="white"/>
</mask>
<g mask="url(#mask1_25_817)">
<path d="M383.244 368.308C383.244 368.308 383.244 368.308 383.11 368.308C357.985 365.352 348.311 343.855 345.49 335.659C332.323 350.304 312.976 355.678 289.329 351.244C273.743 348.289 261.114 341.974 257.083 339.824C254.127 343.72 243.647 356.081 225.106 363.605C224.3 364.008 223.225 363.605 222.956 362.665C222.553 361.859 222.956 360.784 223.897 360.515C244.722 352.051 255.068 337.003 255.202 336.734C255.74 336.062 256.68 335.793 257.486 336.196C257.621 336.196 272.131 344.527 290.135 347.886C313.916 352.454 332.457 346.811 344.953 331.091C345.356 330.553 346.027 330.419 346.699 330.553C347.371 330.688 347.774 331.225 347.908 331.763C348.177 332.972 355.029 361.59 383.513 364.814C384.454 364.814 385.125 365.755 384.991 366.695C384.991 367.502 384.185 368.173 383.379 368.173L383.244 368.308Z" fill="white"/>
<path d="M256.68 392.626C254.933 392.626 253.59 391.283 253.59 389.536V333.912C253.59 332.166 254.933 330.822 256.68 330.822C258.427 330.822 259.77 332.166 259.77 333.912V389.536C259.77 391.283 258.427 392.626 256.68 392.626Z" fill="white"/>
<path d="M273.206 380.669C272.266 380.669 271.459 379.862 271.459 378.922V344.93C271.459 343.989 272.266 343.183 273.206 343.183C274.147 343.183 274.953 343.989 274.953 344.93V378.922C274.953 379.862 274.147 380.669 273.206 380.669Z" fill="white"/>
<path d="M289.866 374.622C288.925 374.622 288.119 373.816 288.119 372.876V350.035C288.119 349.095 288.925 348.289 289.866 348.289C290.806 348.289 291.612 349.095 291.612 350.035V372.876C291.612 373.816 290.806 374.622 289.866 374.622Z" fill="white"/>
<path d="M304.779 370.054C303.839 370.054 303.033 369.248 303.033 368.308V351.513C303.033 350.573 303.839 349.766 304.779 349.766C305.72 349.766 306.526 350.573 306.526 351.513V368.308C306.526 369.248 305.72 370.054 304.779 370.054Z" fill="white"/>
<path d="M319.828 370.592C318.887 370.592 318.081 369.786 318.081 368.845V349.363C318.081 348.423 318.887 347.617 319.828 347.617C320.768 347.617 321.574 348.423 321.574 349.363V368.845C321.574 369.786 320.768 370.592 319.828 370.592Z" fill="white"/>
<path d="M332.726 366.158C331.786 366.158 330.979 365.352 330.979 364.411V344.93C330.979 343.989 331.786 343.183 332.726 343.183C333.667 343.183 334.473 343.989 334.473 344.93V364.411C334.473 365.352 333.667 366.158 332.726 366.158Z" fill="white"/>
<path d="M345.49 367.502C343.743 367.502 342.4 366.158 342.4 364.411V328.941C342.4 327.195 343.743 325.851 345.49 325.851C347.237 325.851 348.58 327.195 348.58 328.941V364.411C348.58 366.158 347.237 367.502 345.49 367.502Z" fill="white"/>
<path d="M377.87 365.889V373.01C377.87 373.01 335.279 362.396 267.026 390.88C198.772 419.363 179.425 426.619 179.425 426.619V417.079C179.425 417.079 310.289 336.331 377.87 365.889Z" fill="white"/>
<path d="M345.49 323.835C347.345 323.835 348.849 322.332 348.849 320.476C348.849 318.621 347.345 317.118 345.49 317.118C343.635 317.118 342.131 318.621 342.131 320.476C342.131 322.332 343.635 323.835 345.49 323.835Z" fill="white"/>
<path d="M256.681 328C259.352 328 261.517 325.835 261.517 323.164C261.517 320.492 259.352 318.327 256.681 318.327C254.009 318.327 251.844 320.492 251.844 323.164C251.844 325.835 254.009 328 256.681 328Z" fill="white"/>
<path d="M265.816 408.346L247.409 426.484V384.699H265.816V408.346Z" fill="white"/>
<path d="M354.626 384.699L336.354 403.644V370.055H354.626V384.699Z" fill="white"/>
<path d="M301.556 313.624L295.778 307.847L303.705 305.697L301.556 313.624ZM297.794 308.384L301.018 311.609L302.227 307.175L297.794 308.384Z" fill="white"/>
<path d="M352.342 291.187L346.564 285.409L354.492 283.26L352.342 291.187ZM348.58 285.947L351.804 289.171L353.014 284.738L348.58 285.947Z" fill="white"/>
<path d="M342.131 313.893L342.669 307.175L348.177 311.072L342.131 314.028V313.893ZM343.609 309.056L343.341 312.147L346.162 310.803L343.609 309.056Z" fill="white"/>
<path d="M298.062 345.601L299.406 337.54L305.72 342.78L297.928 345.601H298.062ZM300.212 339.421L299.406 343.855L303.705 342.242L300.212 339.287V339.421Z" fill="white"/>
<path d="M312.438 336.868C310.423 336.868 308.945 335.256 308.945 333.375C308.945 331.494 310.557 329.882 312.438 329.882C314.319 329.882 315.931 331.494 315.931 333.375C315.931 335.256 314.319 336.868 312.438 336.868ZM312.438 330.822C311.095 330.822 310.02 331.897 310.02 333.241C310.02 334.584 311.095 335.659 312.438 335.659C313.782 335.659 314.857 334.584 314.857 333.241C314.857 331.897 313.782 330.822 312.438 330.822Z" fill="white"/>
<path d="M315.394 301.263C313.379 301.263 311.901 299.651 311.901 297.77C311.901 295.889 313.513 294.277 315.394 294.277C317.275 294.277 318.887 295.889 318.887 297.77C318.887 299.651 317.275 301.263 315.394 301.263ZM315.394 295.352C314.051 295.352 312.976 296.427 312.976 297.77C312.976 299.114 314.051 300.189 315.394 300.189C316.738 300.189 317.813 299.114 317.813 297.77C317.813 296.427 316.738 295.352 315.394 295.352Z" fill="white"/>
<path d="M272.4 339.018C270.653 339.018 269.31 337.674 269.31 335.928C269.31 334.181 270.653 332.838 272.4 332.838C274.146 332.838 275.49 334.181 275.49 335.928C275.49 337.674 274.146 339.018 272.4 339.018ZM272.4 333.912C271.325 333.912 270.384 334.853 270.384 335.928C270.384 337.003 271.325 337.943 272.4 337.943C273.475 337.943 274.415 337.003 274.415 335.928C274.415 334.853 273.475 333.912 272.4 333.912Z" fill="white"/>
<path d="M328.158 314.027C326.949 314.027 325.874 312.953 325.874 311.743C325.874 310.534 326.949 309.459 328.158 309.459C329.367 309.459 330.442 310.534 330.442 311.743C330.442 312.953 329.367 314.027 328.158 314.027ZM328.158 310.534C327.486 310.534 326.949 311.072 326.949 311.743C326.949 312.415 327.486 312.953 328.158 312.953C328.83 312.953 329.367 312.415 329.367 311.743C329.367 311.072 328.83 310.534 328.158 310.534Z" fill="white"/>
<path d="M359.06 302.473C357.851 302.473 356.776 301.398 356.776 300.188C356.776 298.979 357.851 297.904 359.06 297.904C360.269 297.904 361.344 298.979 361.344 300.188C361.344 301.398 360.269 302.473 359.06 302.473ZM359.06 298.979C358.388 298.979 357.851 299.517 357.851 300.188C357.851 300.86 358.388 301.398 359.06 301.398C359.732 301.398 360.269 300.86 360.269 300.188C360.269 299.517 359.732 298.979 359.06 298.979Z" fill="white"/>
<path d="M292.285 330.016L289.866 324.373L295.509 321.954L297.928 327.597L292.285 330.016ZM291.21 324.91L292.822 328.672L296.584 327.06L294.972 323.298L291.21 324.91Z" fill="white"/>
<path d="M333.264 332.434H327.083V326.254H333.264V332.434ZM328.158 331.359H332.189V327.329H328.158V331.359Z" fill="white"/>
<path d="M339.982 298.845H330.711V289.575H339.982V298.845ZM331.786 297.905H338.907V290.784H331.786V297.905Z" fill="white"/>
<path d="M287.582 340.764L282.342 340.227L282.88 334.987L288.12 335.524L287.582 340.764ZM283.417 339.286L286.642 339.555L286.91 336.331L283.686 336.062L283.417 339.286Z" fill="white"/>
<path d="M315.797 321.283L310.557 320.745L311.094 315.505L316.334 316.043L315.797 321.283ZM311.766 319.805L314.99 320.074L315.259 316.849L312.035 316.58L311.766 319.805Z" fill="white"/>
</g>
</g>
<rect x="529.483" y="285.875" width="141.034" height="141.034" rx="37.6092" fill="#FCD7C5"/>
<path d="M586.669 358.634L578.506 328.973L586.422 354.169L597.811 327.623L586.669 358.634ZM583.948 374.274L569.607 329.862L584.802 373.078L586.146 374.121L583.948 374.274ZM597.006 326.896L586.743 351.278L579.59 328.576L579.446 328.124L567.745 328.942L580.735 370.338L580.697 370.474L576.854 370.743L571.398 393.828L581.846 376.478L586.644 376.143L587.291 374.596L589.108 370.24L589.119 370.239L603.373 336.408L607.698 326.148L597.006 326.896Z" fill="#976646"/>
<path d="M611.161 373.866L603.603 370.558C598.892 368.83 598.595 366.393 598.595 366.393L607.218 346.226L599.841 366.256C599.841 366.256 599.807 367.564 603.792 369.693C607.654 371.754 610.961 373.743 611.161 373.866ZM591.541 383.296L594.608 375.853L592.631 383.347C592.631 383.347 599.787 389.169 610.769 388.383C610.769 388.383 598.868 389.908 591.541 383.296ZM611.727 356.099C611.926 356.056 612.135 356.042 612.353 356.063C612.97 356.113 613.57 356.183 614.157 356.272C622.296 357.46 627.188 361.561 627.192 361.568L631.17 352.137C628.829 350.298 624.427 347.567 618.122 346.698C618.122 346.698 616.055 346.359 614.981 346.225L615.888 342.729L619.731 342.461L625.187 319.379L614.739 336.725L609.941 337.06L605.533 347.622L602.442 355.03L597.319 367.186C598.501 368.666 599.867 369.823 601.413 370.668C602.209 371.103 603.109 371.545 604.108 371.995C605.077 372.436 606.148 372.881 607.309 373.337C608.163 373.678 608.926 373.997 609.593 374.297C609.898 374.438 610.186 374.573 610.455 374.702C611.232 375.084 611.786 375.836 611.85 376.697L611.852 376.719C611.948 378.098 611.058 379.506 609.781 379.773C609.585 379.815 609.373 379.83 609.159 379.812C608.542 379.758 607.941 379.688 607.358 379.603C599.219 378.414 594.323 374.31 594.319 374.304L593.261 376.817L590.341 383.734C592.682 385.573 597.092 388.307 603.4 389.176C603.488 389.188 603.579 389.203 603.667 389.215C603.692 389.213 603.714 389.219 603.739 389.225C606.681 389.593 610.028 389.554 613.76 388.841C614.528 388.676 615.269 388.48 615.978 388.25C617.076 387.895 618.099 387.459 619.049 386.949C621.574 385.581 623.453 383.811 624.693 381.624C625.93 379.445 626.459 377.051 626.277 374.444C626.117 372.159 625.443 370.261 624.248 368.753C624.228 368.73 624.212 368.705 624.196 368.685C623.01 367.209 621.644 366.048 620.098 365.204C619.295 364.765 618.387 364.32 617.377 363.867C614.357 362.631 611.613 361.697 611.613 361.697C611.103 361.52 610.651 361.202 610.315 360.788C609.941 360.342 609.704 359.781 609.66 359.156C609.563 357.777 610.454 356.369 611.727 356.099Z" fill="#976646"/>
<path d="M613.451 320.777C604.653 344.215 594.818 367.592 584.197 390.259C592.988 366.821 602.834 343.45 613.451 320.777Z" fill="#976646"/>
<g filter="url(#filter1_d_25_817)">
<rect x="778.216" y="241" width="230.784" height="230.784" rx="52.5674" fill="white"/>
<rect x="778.857" y="241.641" width="229.501" height="229.501" rx="51.9263" stroke="#D4C4BA" stroke-width="1.28213"/>
<path d="M929.873 286H858.127C839.279 286 824 301.279 824 320.127V391.873C824 410.721 839.279 426 858.127 426H929.873C948.721 426 964 410.721 964 391.873V320.127C964 301.279 948.721 286 929.873 286Z" fill="#F67B37"/>
<mask id="mask2_25_817" style="mask-type:luminance" maskUnits="userSpaceOnUse" x="824" y="286" width="140" height="140">
<path d="M929.873 286H858.127C839.279 286 824 301.279 824 320.127V391.873C824 410.721 839.279 426 858.127 426H929.873C948.721 426 964 410.721 964 391.873V320.127C964 301.279 948.721 286 929.873 286Z" fill="white"/>
</mask>
<g mask="url(#mask2_25_817)">
<path d="M970.853 367.555C970.853 367.555 970.853 367.555 970.718 367.555C945.594 364.599 935.92 343.102 933.098 334.906C919.931 349.551 900.584 354.925 876.937 350.491C861.352 347.535 848.722 341.221 844.691 339.071C841.736 342.967 831.256 355.328 812.715 362.852C811.908 363.255 810.834 362.852 810.565 361.912C810.162 361.105 810.565 360.031 811.505 359.762C832.331 351.297 842.676 336.249 842.81 335.981C843.348 335.309 844.288 335.04 845.095 335.443C845.229 335.443 859.739 343.773 877.743 347.132C901.525 351.7 920.066 346.057 932.561 330.338C932.964 329.8 933.636 329.666 934.308 329.8C934.979 329.935 935.382 330.472 935.517 331.01C935.786 332.219 942.638 360.837 971.121 364.061C972.062 364.061 972.734 365.002 972.599 365.942C972.599 366.748 971.793 367.42 970.987 367.42L970.853 367.555Z" fill="white"/>
<path d="M844.288 391.873C842.542 391.873 841.198 390.53 841.198 388.783V333.159C841.198 331.413 842.542 330.069 844.288 330.069C846.035 330.069 847.379 331.413 847.379 333.159V388.783C847.379 390.53 846.035 391.873 844.288 391.873Z" fill="white"/>
<path d="M860.814 379.915C859.874 379.915 859.067 379.109 859.067 378.169V344.176C859.067 343.236 859.874 342.43 860.814 342.43C861.755 342.43 862.561 343.236 862.561 344.176V378.169C862.561 379.109 861.755 379.915 860.814 379.915Z" fill="white"/>
<path d="M877.474 373.869C876.534 373.869 875.728 373.063 875.728 372.123V349.282C875.728 348.341 876.534 347.535 877.474 347.535C878.415 347.535 879.221 348.341 879.221 349.282V372.123C879.221 373.063 878.415 373.869 877.474 373.869Z" fill="white"/>
<path d="M892.388 369.301C891.448 369.301 890.642 368.495 890.642 367.555V350.76C890.642 349.819 891.448 349.013 892.388 349.013C893.329 349.013 894.135 349.819 894.135 350.76V367.555C894.135 368.495 893.329 369.301 892.388 369.301Z" fill="white"/>
<path d="M907.436 369.839C906.496 369.839 905.689 369.033 905.689 368.092V348.61C905.689 347.67 906.496 346.864 907.436 346.864C908.377 346.864 909.183 347.67 909.183 348.61V368.092C909.183 369.033 908.377 369.839 907.436 369.839Z" fill="white"/>
<path d="M920.335 365.405C919.394 365.405 918.588 364.599 918.588 363.658V344.176C918.588 343.236 919.394 342.43 920.335 342.43C921.275 342.43 922.081 343.236 922.081 344.176V363.658C922.081 364.599 921.275 365.405 920.335 365.405Z" fill="white"/>
<path d="M933.098 366.748C931.351 366.748 930.008 365.405 930.008 363.658V328.188C930.008 326.441 931.351 325.098 933.098 325.098C934.845 325.098 936.188 326.441 936.188 328.188V363.658C936.188 365.405 934.845 366.748 933.098 366.748Z" fill="white"/>
<path d="M965.478 365.136V372.257C965.478 372.257 922.887 361.643 854.634 390.126C786.381 418.61 767.033 425.865 767.033 425.865V416.326C767.033 416.326 897.897 335.577 965.478 365.136Z" fill="white"/>
<path d="M933.098 323.082C934.953 323.082 936.457 321.578 936.457 319.723C936.457 317.868 934.953 316.364 933.098 316.364C931.243 316.364 929.739 317.868 929.739 319.723C929.739 321.578 931.243 323.082 933.098 323.082Z" fill="white"/>
<path d="M844.289 327.247C846.96 327.247 849.126 325.082 849.126 322.41C849.126 319.739 846.96 317.574 844.289 317.574C841.618 317.574 839.452 319.739 839.452 322.41C839.452 325.082 841.618 327.247 844.289 327.247Z" fill="white"/>
<path d="M853.424 407.593L835.018 425.731V383.946H853.424V407.593Z" fill="white"/>
<path d="M942.234 383.946L923.962 402.891V369.301H942.234V383.946Z" fill="white"/>
<path d="M889.164 312.871L883.387 307.094L891.314 304.944L889.164 312.871ZM885.402 307.631L888.627 310.856L889.836 306.422L885.402 307.631Z" fill="white"/>
<path d="M939.95 290.434L934.173 284.656L942.1 282.507L939.95 290.434ZM936.188 285.194L939.413 288.418L940.622 283.984L936.188 285.194Z" fill="white"/>
<path d="M929.74 313.14L930.278 306.422L935.786 310.319L929.74 313.274V313.14ZM931.218 308.303L930.949 311.393L933.771 310.05L931.218 308.303Z" fill="white"/>
<path d="M885.67 344.848L887.014 336.787L893.329 342.027L885.536 344.848H885.67ZM887.82 338.668L887.014 343.102L891.313 341.489L887.82 338.533V338.668Z" fill="white"/>
<path d="M900.046 336.115C898.031 336.115 896.553 334.503 896.553 332.622C896.553 330.741 898.165 329.128 900.046 329.128C901.927 329.128 903.539 330.741 903.539 332.622C903.539 334.503 901.927 336.115 900.046 336.115ZM900.046 330.069C898.702 330.069 897.628 331.144 897.628 332.487C897.628 333.831 898.702 334.906 900.046 334.906C901.39 334.906 902.464 333.831 902.464 332.487C902.464 331.144 901.39 330.069 900.046 330.069Z" fill="white"/>
<path d="M903.002 300.51C900.987 300.51 899.509 298.898 899.509 297.017C899.509 295.136 901.121 293.524 903.002 293.524C904.883 293.524 906.495 295.136 906.495 297.017C906.495 298.898 904.883 300.51 903.002 300.51ZM903.002 294.599C901.659 294.599 900.584 295.673 900.584 297.017C900.584 298.361 901.659 299.435 903.002 299.435C904.346 299.435 905.42 298.361 905.42 297.017C905.42 295.673 904.346 294.599 903.002 294.599Z" fill="white"/>
<path d="M860.008 338.265C858.262 338.265 856.918 336.921 856.918 335.175C856.918 333.428 858.262 332.084 860.008 332.084C861.755 332.084 863.098 333.428 863.098 335.175C863.098 336.921 861.755 338.265 860.008 338.265ZM860.008 333.159C858.933 333.159 857.993 334.1 857.993 335.175C857.993 336.249 858.933 337.19 860.008 337.19C861.083 337.19 862.024 336.249 862.024 335.175C862.024 334.1 861.083 333.159 860.008 333.159Z" fill="white"/>
<path d="M915.766 313.274C914.557 313.274 913.482 312.199 913.482 310.99C913.482 309.781 914.557 308.706 915.766 308.706C916.976 308.706 918.051 309.781 918.051 310.99C918.051 312.199 916.976 313.274 915.766 313.274ZM915.766 309.781C915.095 309.781 914.557 310.318 914.557 310.99C914.557 311.662 915.095 312.199 915.766 312.199C916.438 312.199 916.976 311.662 916.976 310.99C916.976 310.318 916.438 309.781 915.766 309.781Z" fill="white"/>
<path d="M946.668 301.719C945.459 301.719 944.384 300.645 944.384 299.435C944.384 298.226 945.459 297.151 946.668 297.151C947.877 297.151 948.952 298.226 948.952 299.435C948.952 300.645 947.877 301.719 946.668 301.719ZM946.668 298.226C945.996 298.226 945.459 298.764 945.459 299.435C945.459 300.107 945.996 300.645 946.668 300.645C947.34 300.645 947.877 300.107 947.877 299.435C947.877 298.764 947.34 298.226 946.668 298.226Z" fill="white"/>
<path d="M879.893 329.263L877.475 323.62L883.118 321.201L885.536 326.844L879.893 329.263ZM878.818 324.157L880.43 327.919L884.192 326.307L882.58 322.545L878.818 324.157Z" fill="white"/>
<path d="M920.872 331.681H914.691V325.501H920.872V331.681ZM915.766 330.606H919.797V326.576H915.766V330.606Z" fill="white"/>
<path d="M927.59 298.092H918.319V288.821H927.59V298.092ZM919.394 297.152H926.515V290.031H919.394V297.152Z" fill="white"/>
<path d="M875.19 340.011L869.95 339.474L870.488 334.234L875.728 334.771L875.19 340.011ZM871.025 338.533L874.25 338.802L874.518 335.577L871.294 335.309L871.025 338.533Z" fill="white"/>
<path d="M903.405 320.53L898.165 319.992L898.702 314.752L903.942 315.29L903.405 320.53ZM899.374 319.052L902.599 319.32L902.868 316.096L899.643 315.827L899.374 319.052Z" fill="white"/>
</g>
</g>
</g>
<defs>
<filter id="filter0_d_25_817" x="160.229" y="220.486" width="292.326" height="292.326" filterUnits="userSpaceOnUse" color-interpolation-filters="sRGB">
<feFlood flood-opacity="0" result="BackgroundImageFix"/>
<feColorMatrix in="SourceAlpha" type="matrix" values="0 0 0 0 0 0 0 0 0 0 0 0 0 0 0 0 0 0 127 0" result="hardAlpha"/>
<feOffset dy="10.257"/>
<feGaussianBlur stdDeviation="15.3856"/>
<feComposite in2="hardAlpha" operator="out"/>
<feColorMatrix type="matrix" values="0 0 0 0 0 0 0 0 0 0 0 0 0 0 0 0 0 0 0.12 0"/>
<feBlend mode="normal" in2="BackgroundImageFix" result="effect1_dropShadow_25_817"/>
<feBlend mode="normal" in="SourceGraphic" in2="effect1_dropShadow_25_817" result="shape"/>
</filter>
<filter id="filter1_d_25_817" x="747.445" y="220.486" width="292.325" height="292.326" filterUnits="userSpaceOnUse" color-interpolation-filters="sRGB">
<feFlood flood-opacity="0" result="BackgroundImageFix"/>
<feColorMatrix in="SourceAlpha" type="matrix" values="0 0 0 0 0 0 0 0 0 0 0 0 0 0 0 0 0 0 127 0" result="hardAlpha"/>
<feOffset dy="10.257"/>
<feGaussianBlur stdDeviation="15.3856"/>
<feComposite in2="hardAlpha" operator="out"/>
<feColorMatrix type="matrix" values="0 0 0 0 0 0 0 0 0 0 0 0 0 0 0 0 0 0 0.12 0"/>
<feBlend mode="normal" in2="BackgroundImageFix" result="effect1_dropShadow_25_817"/>
<feBlend mode="normal" in="SourceGraphic" in2="effect1_dropShadow_25_817" result="shape"/>
</filter>
<radialGradient id="paint0_radial_25_817" cx="0" cy="0" r="1" gradientUnits="userSpaceOnUse" gradientTransform="translate(600.5 427.5) rotate(90) scale(317.991 469.665)">
<stop offset="0.42999" stop-color="#D9D9D9"/>
<stop offset="1" stop-color="#D9D9D9" stop-opacity="0"/>
</radialGradient>
<clipPath id="clip0_25_817">
<rect width="1200" height="675" fill="white"/>
</clipPath>
</defs>
</svg>
