<svg width="1200" height="675" viewBox="0 0 1200 675" fill="none" xmlns="http://www.w3.org/2000/svg">
<g clip-path="url(#clip0_25_38)">
<rect width="1200" height="675" fill="#FEF2EC"/>
<mask id="mask0_25_38" style="mask-type:alpha" maskUnits="userSpaceOnUse" x="263" y="90" width="675" height="675">
<circle cx="600.5" cy="427.5" r="337.5" fill="url(#paint0_radial_25_38)"/>
</mask>
<g mask="url(#mask0_25_38)">
<path d="M263 90V765" stroke="#FCD8C4" stroke-width="0.975434"/>
<path d="M298.527 90V765" stroke="#FCD8C4" stroke-width="0.975434"/>
<path d="M334.054 90V765" stroke="#FCD8C4" stroke-width="0.975434"/>
<path d="M369.581 90V765" stroke="#FCD8C4" stroke-width="0.975434"/>
<path d="M405.108 90V765" stroke="#FCD8C4" stroke-width="0.975434"/>
<path d="M440.628 90V765" stroke="#FCD8C4" stroke-width="0.975434"/>
<path d="M476.155 90V765" stroke="#FCD8C4" stroke-width="0.975434"/>
<path d="M511.682 90V765" stroke="#FCD8C4" stroke-width="0.975434"/>
<path d="M547.209 90V765" stroke="#FCD8C4" stroke-width="0.975434"/>
<path d="M582.736 90V765" stroke="#FCD8C4" stroke-width="0.975434"/>
<path d="M618.264 90V765" stroke="#FCD8C4" stroke-width="0.975434"/>
<path d="M653.791 90V765" stroke="#FCD8C4" stroke-width="0.975434"/>
<path d="M689.318 90V765" stroke="#FCD8C4" stroke-width="0.975434"/>
<path d="M724.845 90V765" stroke="#FCD8C4" stroke-width="0.975434"/>
<path d="M760.372 90V765" stroke="#FCD8C4" stroke-width="0.975434"/>
<path d="M795.892 90V765" stroke="#FCD8C4" stroke-width="0.975434"/>
<path d="M831.418 90V765" stroke="#FCD8C4" stroke-width="0.975434"/>
<path d="M866.946 90V765" stroke="#FCD8C4" stroke-width="0.975434"/>
<path d="M902.473 90V765" stroke="#FCD8C4" stroke-width="0.975434"/>
<path d="M938 90V765" stroke="#FCD8C4" stroke-width="0.975434"/>
<path d="M263 90H938" stroke="#FCD8C4" stroke-width="0.975434"/>
<path d="M263 123.752H938" stroke="#FCD8C4" stroke-width="0.975434"/>
<path d="M263 157.503H938" stroke="#FCD8C4" stroke-width="0.975434"/>
<path d="M263 191.247H938" stroke="#FCD8C4" stroke-width="0.975434"/>
<path d="M263 224.998H938" stroke="#FCD8C4" stroke-width="0.975434"/>
<path d="M263 258.75H938" stroke="#FCD8C4" stroke-width="0.975434"/>
<path d="M263 292.502H938" stroke="#FCD8C4" stroke-width="0.975434"/>
<path d="M263 326.253H938" stroke="#FCD8C4" stroke-width="0.975434"/>
<path d="M263 359.997H938" stroke="#FCD8C4" stroke-width="0.975434"/>
<path d="M263 393.748H938" stroke="#FCD8C4" stroke-width="0.975434"/>
<path d="M263 427.5H938" stroke="#FCD8C4" stroke-width="0.975434"/>
<path d="M263 461.252H938" stroke="#FCD8C4" stroke-width="0.975434"/>
<path d="M263 495.003H938" stroke="#FCD8C4" stroke-width="0.975434"/>
<path d="M263 528.747H938" stroke="#FCD8C4" stroke-width="0.975434"/>
<path d="M263 562.498H938" stroke="#FCD8C4" stroke-width="0.975434"/>
<path d="M263 596.25H938" stroke="#FCD8C4" stroke-width="0.975434"/>
<path d="M263 630.002H938" stroke="#FCD8C4" stroke-width="0.975434"/>
<path d="M263 663.753H938" stroke="#FCD8C4" stroke-width="0.975434"/>
</g>
<path d="M231.281 84.7969H225.438C225.271 83.8385 224.964 82.9896 224.516 82.25C224.068 81.5 223.51 80.8646 222.844 80.3437C222.177 79.8229 221.417 79.4323 220.563 79.1719C219.719 78.901 218.807 78.7656 217.828 78.7656C216.089 78.7656 214.547 79.2031 213.203 80.0781C211.859 80.9427 210.807 82.2135 210.047 83.8906C209.286 85.5573 208.906 87.5937 208.906 90C208.906 92.4479 209.286 94.5104 210.047 96.1875C210.818 97.8542 211.87 99.1146 213.203 99.9687C214.547 100.812 216.083 101.234 217.813 101.234C218.771 101.234 219.667 101.109 220.5 100.859C221.344 100.599 222.099 100.219 222.766 99.7187C223.443 99.2187 224.01 98.6042 224.469 97.875C224.938 97.1458 225.26 96.3125 225.438 95.375L231.281 95.4062C231.063 96.9271 230.589 98.3542 229.859 99.6875C229.141 101.021 228.198 102.198 227.031 103.219C225.865 104.229 224.5 105.021 222.938 105.594C221.375 106.156 219.641 106.437 217.734 106.437C214.922 106.437 212.411 105.786 210.203 104.484C207.995 103.182 206.255 101.302 204.984 98.8437C203.714 96.3854 203.078 93.4375 203.078 90C203.078 86.5521 203.719 83.6042 205 81.1562C206.281 78.6979 208.026 76.8177 210.234 75.5156C212.443 74.2135 214.943 73.5625 217.734 73.5625C219.516 73.5625 221.172 73.8125 222.703 74.3125C224.234 74.8125 225.599 75.5469 226.797 76.5156C227.995 77.474 228.979 78.651 229.75 80.0469C230.531 81.4323 231.042 83.0156 231.281 84.7969ZM246.809 106.469C244.465 106.469 242.434 105.953 240.715 104.922C238.996 103.891 237.663 102.448 236.715 100.594C235.777 98.7396 235.309 96.5729 235.309 94.0937C235.309 91.6146 235.777 89.4427 236.715 87.5781C237.663 85.7135 238.996 84.2656 240.715 83.2344C242.434 82.2031 244.465 81.6875 246.809 81.6875C249.152 81.6875 251.184 82.2031 252.902 83.2344C254.621 84.2656 255.949 85.7135 256.887 87.5781C257.835 89.4427 258.309 91.6146 258.309 94.0937C258.309 96.5729 257.835 98.7396 256.887 100.594C255.949 102.448 254.621 103.891 252.902 104.922C251.184 105.953 249.152 106.469 246.809 106.469ZM246.84 101.937C248.111 101.937 249.173 101.589 250.027 100.891C250.882 100.182 251.517 99.2344 251.934 98.0469C252.361 96.8594 252.574 95.5365 252.574 94.0781C252.574 92.6094 252.361 91.2812 251.934 90.0937C251.517 88.8958 250.882 87.9427 250.027 87.2344C249.173 86.526 248.111 86.1719 246.84 86.1719C245.538 86.1719 244.454 86.526 243.59 87.2344C242.736 87.9427 242.095 88.8958 241.668 90.0937C241.251 91.2812 241.043 92.6094 241.043 94.0781C241.043 95.5365 241.251 96.8594 241.668 98.0469C242.095 99.2344 242.736 100.182 243.59 100.891C244.454 101.589 245.538 101.937 246.84 101.937ZM268.766 91.9375V106H263.109V82H268.516V86.0781H268.797C269.349 84.7344 270.229 83.6667 271.438 82.875C272.656 82.0833 274.161 81.6875 275.953 81.6875C277.609 81.6875 279.052 82.0417 280.281 82.75C281.521 83.4583 282.479 84.4844 283.156 85.8281C283.844 87.1719 284.182 88.8021 284.172 90.7187V106H278.516V91.5937C278.516 89.9896 278.099 88.7344 277.266 87.8281C276.443 86.9219 275.302 86.4687 273.844 86.4687C272.854 86.4687 271.974 86.6875 271.203 87.125C270.443 87.5521 269.844 88.1719 269.406 88.9844C268.979 89.7969 268.766 90.7812 268.766 91.9375ZM301.906 82V86.375H288.109V82H301.906ZM291.516 76.25H297.172V98.7812C297.172 99.5417 297.286 100.125 297.516 100.531C297.755 100.927 298.068 101.198 298.453 101.344C298.839 101.49 299.266 101.562 299.734 101.562C300.089 101.562 300.411 101.536 300.703 101.484C301.005 101.432 301.234 101.385 301.391 101.344L302.344 105.766C302.042 105.87 301.609 105.984 301.047 106.109C300.495 106.234 299.818 106.307 299.016 106.328C297.599 106.37 296.323 106.156 295.188 105.687C294.052 105.208 293.151 104.469 292.484 103.469C291.828 102.469 291.505 101.219 291.516 99.7187V76.25ZM317.004 106.469C314.598 106.469 312.52 105.969 310.77 104.969C309.03 103.958 307.691 102.531 306.754 100.687C305.816 98.8333 305.348 96.651 305.348 94.1406C305.348 91.6719 305.816 89.5052 306.754 87.6406C307.702 85.7656 309.025 84.3073 310.723 83.2656C312.421 82.2135 314.415 81.6875 316.707 81.6875C318.186 81.6875 319.582 81.9271 320.895 82.4062C322.217 82.875 323.384 83.6042 324.395 84.5937C325.415 85.5833 326.217 86.8437 326.801 88.375C327.384 89.8958 327.676 91.7083 327.676 93.8125V95.5469H308.004V91.7344H322.254C322.243 90.651 322.009 89.6875 321.551 88.8437C321.092 87.9896 320.452 87.3177 319.629 86.8281C318.816 86.3385 317.868 86.0937 316.785 86.0937C315.629 86.0937 314.613 86.375 313.738 86.9375C312.863 87.4896 312.181 88.2187 311.691 89.125C311.212 90.0208 310.967 91.0052 310.957 92.0781V95.4062C310.957 96.8021 311.212 98 311.723 99C312.233 99.9896 312.947 100.75 313.863 101.281C314.78 101.802 315.853 102.062 317.082 102.062C317.905 102.062 318.65 101.948 319.316 101.719C319.983 101.479 320.561 101.13 321.051 100.672C321.54 100.214 321.91 99.6458 322.16 98.9687L327.441 99.5625C327.108 100.958 326.473 102.177 325.535 103.219C324.608 104.25 323.421 105.052 321.973 105.625C320.525 106.187 318.868 106.469 317.004 106.469ZM338.117 91.9375V106H332.461V82H337.867V86.0781H338.148C338.701 84.7344 339.581 83.6667 340.789 82.875C342.008 82.0833 343.513 81.6875 345.305 81.6875C346.961 81.6875 348.404 82.0417 349.633 82.75C350.872 83.4583 351.831 84.4844 352.508 85.8281C353.195 87.1719 353.534 88.8021 353.523 90.7187V106H347.867V91.5937C347.867 89.9896 347.451 88.7344 346.617 87.8281C345.794 86.9219 344.654 86.4687 343.195 86.4687C342.206 86.4687 341.326 86.6875 340.555 87.125C339.794 87.5521 339.195 88.1719 338.758 88.9844C338.331 89.7969 338.117 90.7812 338.117 91.9375ZM371.258 82V86.375H357.461V82H371.258ZM360.867 76.25H366.523V98.7812C366.523 99.5417 366.638 100.125 366.867 100.531C367.107 100.927 367.419 101.198 367.805 101.344C368.19 101.49 368.617 101.562 369.086 101.562C369.44 101.562 369.763 101.536 370.055 101.484C370.357 101.432 370.586 101.385 370.742 101.344L371.695 105.766C371.393 105.87 370.961 105.984 370.398 106.109C369.846 106.234 369.169 106.307 368.367 106.328C366.951 106.37 365.674 106.156 364.539 105.687C363.404 105.208 362.503 104.469 361.836 103.469C361.18 102.469 360.857 101.219 360.867 99.7187V76.25ZM376.754 106V74H382.41V85.9687H382.645C382.936 85.3854 383.348 84.7656 383.879 84.1094C384.41 83.4427 385.129 82.875 386.035 82.4062C386.941 81.9271 388.098 81.6875 389.504 81.6875C391.358 81.6875 393.03 82.1615 394.52 83.1094C396.02 84.0469 397.207 85.4375 398.082 87.2812C398.967 89.1146 399.41 91.3646 399.41 94.0312C399.41 96.6667 398.978 98.9062 398.113 100.75C397.249 102.594 396.072 104 394.582 104.969C393.092 105.938 391.405 106.422 389.52 106.422C388.145 106.422 387.004 106.193 386.098 105.734C385.191 105.276 384.462 104.724 383.91 104.078C383.368 103.422 382.947 102.802 382.645 102.219H382.316V106H376.754ZM382.301 94C382.301 95.5521 382.52 96.9115 382.957 98.0781C383.405 99.2448 384.046 100.156 384.879 100.812C385.723 101.458 386.743 101.781 387.941 101.781C389.191 101.781 390.238 101.448 391.082 100.781C391.926 100.104 392.561 99.1823 392.988 98.0156C393.426 96.8385 393.645 95.5 393.645 94C393.645 92.5104 393.431 91.1875 393.004 90.0312C392.577 88.875 391.941 87.9687 391.098 87.3125C390.254 86.6562 389.202 86.3281 387.941 86.3281C386.733 86.3281 385.707 86.6458 384.863 87.2812C384.02 87.9167 383.379 88.8073 382.941 89.9531C382.514 91.099 382.301 92.4479 382.301 94ZM404.219 106V82H409.703V86H409.953C410.391 84.6146 411.141 83.5469 412.203 82.7969C413.276 82.0365 414.5 81.6562 415.875 81.6562C416.188 81.6562 416.536 81.6719 416.922 81.7031C417.318 81.724 417.646 81.7604 417.906 81.8125V87.0156C417.667 86.9323 417.286 86.8594 416.766 86.7969C416.255 86.724 415.76 86.6875 415.281 86.6875C414.25 86.6875 413.323 86.9115 412.5 87.3594C411.688 87.7969 411.047 88.4062 410.578 89.1875C410.109 89.9687 409.875 90.8698 409.875 91.8906V106H404.219ZM421.664 106V82H427.32V106H421.664ZM424.508 78.5938C423.612 78.5938 422.841 78.2969 422.195 77.7031C421.549 77.099 421.227 76.375 421.227 75.5312C421.227 74.6771 421.549 73.9531 422.195 73.3594C422.841 72.7552 423.612 72.4531 424.508 72.4531C425.414 72.4531 426.185 72.7552 426.82 73.3594C427.466 73.9531 427.789 74.6771 427.789 75.5312C427.789 76.375 427.466 77.099 426.82 77.7031C426.185 78.2969 425.414 78.5938 424.508 78.5938ZM442.043 106.422C440.158 106.422 438.47 105.938 436.98 104.969C435.491 104 434.314 102.594 433.449 100.75C432.585 98.9062 432.152 96.6667 432.152 94.0312C432.152 91.3646 432.59 89.1146 433.465 87.2812C434.35 85.4375 435.543 84.0469 437.043 83.1094C438.543 82.1615 440.215 81.6875 442.059 81.6875C443.465 81.6875 444.621 81.9271 445.527 82.4062C446.434 82.875 447.152 83.4427 447.684 84.1094C448.215 84.7656 448.626 85.3854 448.918 85.9687H449.152V74H454.824V106H449.262V102.219H448.918C448.626 102.802 448.204 103.422 447.652 104.078C447.1 104.724 446.371 105.276 445.465 105.734C444.559 106.193 443.418 106.422 442.043 106.422ZM443.621 101.781C444.819 101.781 445.84 101.458 446.684 100.812C447.527 100.156 448.168 99.2448 448.605 98.0781C449.043 96.9115 449.262 95.5521 449.262 94C449.262 92.4479 449.043 91.099 448.605 89.9531C448.178 88.8073 447.543 87.9167 446.699 87.2812C445.866 86.6458 444.84 86.3281 443.621 86.3281C442.361 86.3281 441.309 86.6562 440.465 87.3125C439.621 87.9687 438.986 88.875 438.559 90.0312C438.132 91.1875 437.918 92.5104 437.918 94C437.918 95.5 438.132 96.8385 438.559 98.0156C438.996 99.1823 439.637 100.104 440.48 100.781C441.335 101.448 442.382 101.781 443.621 101.781ZM471.289 115.5C469.258 115.5 467.513 115.224 466.055 114.672C464.596 114.13 463.424 113.401 462.539 112.484C461.654 111.568 461.039 110.552 460.695 109.438L465.789 108.203C466.018 108.672 466.352 109.135 466.789 109.594C467.227 110.063 467.815 110.448 468.555 110.75C469.305 111.063 470.247 111.219 471.383 111.219C472.987 111.219 474.315 110.828 475.367 110.047C476.419 109.276 476.945 108.005 476.945 106.234V101.687H476.664C476.372 102.271 475.945 102.87 475.383 103.484C474.831 104.099 474.096 104.615 473.18 105.031C472.273 105.448 471.133 105.656 469.758 105.656C467.914 105.656 466.242 105.224 464.742 104.359C463.253 103.484 462.065 102.182 461.18 100.453C460.305 98.7135 459.867 96.5365 459.867 93.9219C459.867 91.2865 460.305 89.0625 461.18 87.25C462.065 85.4271 463.258 84.0469 464.758 83.1094C466.258 82.1615 467.93 81.6875 469.773 81.6875C471.18 81.6875 472.336 81.9271 473.242 82.4062C474.159 82.875 474.888 83.4427 475.43 84.1094C475.971 84.7656 476.383 85.3854 476.664 85.9687H476.977V82H482.555V106.391C482.555 108.443 482.065 110.141 481.086 111.484C480.107 112.828 478.768 113.833 477.07 114.5C475.372 115.167 473.445 115.5 471.289 115.5ZM471.336 101.219C472.534 101.219 473.555 100.927 474.398 100.344C475.242 99.7604 475.883 98.9219 476.32 97.8281C476.758 96.7344 476.977 95.4219 476.977 93.8906C476.977 92.3802 476.758 91.0573 476.32 89.9219C475.893 88.7865 475.258 87.9062 474.414 87.2812C473.581 86.6458 472.555 86.3281 471.336 86.3281C470.076 86.3281 469.023 86.6562 468.18 87.3125C467.336 87.9687 466.701 88.8698 466.273 90.0156C465.846 91.151 465.633 92.4427 465.633 93.8906C465.633 95.3594 465.846 96.6458 466.273 97.75C466.711 98.8437 467.352 99.6979 468.195 100.312C469.049 100.917 470.096 101.219 471.336 101.219ZM498.977 106.469C496.57 106.469 494.492 105.969 492.742 104.969C491.003 103.958 489.664 102.531 488.727 100.687C487.789 98.8333 487.32 96.651 487.32 94.1406C487.32 91.6719 487.789 89.5052 488.727 87.6406C489.674 85.7656 490.997 84.3073 492.695 83.2656C494.393 82.2135 496.388 81.6875 498.68 81.6875C500.159 81.6875 501.555 81.9271 502.867 82.4062C504.19 82.875 505.357 83.6042 506.367 84.5937C507.388 85.5833 508.19 86.8437 508.773 88.375C509.357 89.8958 509.648 91.7083 509.648 93.8125V95.5469H489.977V91.7344H504.227C504.216 90.651 503.982 89.6875 503.523 88.8437C503.065 87.9896 502.424 87.3177 501.602 86.8281C500.789 86.3385 499.841 86.0937 498.758 86.0937C497.602 86.0937 496.586 86.375 495.711 86.9375C494.836 87.4896 494.154 88.2187 493.664 89.125C493.185 90.0208 492.94 91.0052 492.93 92.0781V95.4062C492.93 96.8021 493.185 98 493.695 99C494.206 99.9896 494.919 100.75 495.836 101.281C496.753 101.802 497.826 102.062 499.055 102.062C499.878 102.062 500.622 101.948 501.289 101.719C501.956 101.479 502.534 101.13 503.023 100.672C503.513 100.214 503.883 99.6458 504.133 98.9687L509.414 99.5625C509.081 100.958 508.445 102.177 507.508 103.219C506.581 104.25 505.393 105.052 503.945 105.625C502.497 106.187 500.841 106.469 498.977 106.469ZM529.707 106H523.52L534.785 74H541.941L553.223 106H547.035L538.488 80.5625H538.238L529.707 106ZM529.91 93.4531H546.785V98.1094H529.91V93.4531ZM562.844 74V106H557.188V74H562.844ZM580.645 82V86.375H566.848V82H580.645ZM570.254 76.25H575.91V98.7812C575.91 99.5417 576.025 100.125 576.254 100.531C576.493 100.927 576.806 101.198 577.191 101.344C577.577 101.49 578.004 101.562 578.473 101.562C578.827 101.562 579.15 101.536 579.441 101.484C579.743 101.432 579.973 101.385 580.129 101.344L581.082 105.766C580.78 105.87 580.348 105.984 579.785 106.109C579.233 106.234 578.556 106.307 577.754 106.328C576.337 106.37 575.061 106.156 573.926 105.687C572.79 105.208 571.889 104.469 571.223 103.469C570.566 102.469 570.243 101.219 570.254 99.7187V76.25ZM595.742 106.469C593.336 106.469 591.258 105.969 589.508 104.969C587.768 103.958 586.43 102.531 585.492 100.687C584.555 98.8333 584.086 96.651 584.086 94.1406C584.086 91.6719 584.555 89.5052 585.492 87.6406C586.44 85.7656 587.763 84.3073 589.461 83.2656C591.159 82.2135 593.154 81.6875 595.445 81.6875C596.924 81.6875 598.32 81.9271 599.633 82.4062C600.956 82.875 602.122 83.6042 603.133 84.5937C604.154 85.5833 604.956 86.8437 605.539 88.375C606.122 89.8958 606.414 91.7083 606.414 93.8125V95.5469H586.742V91.7344H600.992C600.982 90.651 600.747 89.6875 600.289 88.8437C599.831 87.9896 599.19 87.3177 598.367 86.8281C597.555 86.3385 596.607 86.0937 595.523 86.0937C594.367 86.0937 593.352 86.375 592.477 86.9375C591.602 87.4896 590.919 88.2187 590.43 89.125C589.951 90.0208 589.706 91.0052 589.695 92.0781V95.4062C589.695 96.8021 589.951 98 590.461 99C590.971 99.9896 591.685 100.75 592.602 101.281C593.518 101.802 594.591 102.062 595.82 102.062C596.643 102.062 597.388 101.948 598.055 101.719C598.721 101.479 599.299 101.13 599.789 100.672C600.279 100.214 600.648 99.6458 600.898 98.9687L606.18 99.5625C605.846 100.958 605.211 102.177 604.273 103.219C603.346 104.25 602.159 105.052 600.711 105.625C599.263 106.187 597.607 106.469 595.742 106.469ZM611.199 106V82H616.684V86H616.934C617.371 84.6146 618.121 83.5469 619.184 82.7969C620.257 82.0365 621.48 81.6562 622.855 81.6562C623.168 81.6562 623.517 81.6719 623.902 81.7031C624.298 81.724 624.626 81.7604 624.887 81.8125V87.0156C624.647 86.9323 624.267 86.8594 623.746 86.7969C623.236 86.724 622.741 86.6875 622.262 86.6875C621.23 86.6875 620.303 86.9115 619.48 87.3594C618.668 87.7969 618.027 88.4062 617.559 89.1875C617.09 89.9687 616.855 90.8698 616.855 91.8906V106H611.199ZM634.301 91.9375V106H628.645V82H634.051V86.0781H634.332C634.884 84.7344 635.764 83.6667 636.973 82.875C638.191 82.0833 639.697 81.6875 641.488 81.6875C643.145 81.6875 644.587 82.0417 645.816 82.75C647.056 83.4583 648.014 84.4844 648.691 85.8281C649.379 87.1719 649.717 88.8021 649.707 90.7187V106H644.051V91.5937C644.051 89.9896 643.634 88.7344 642.801 87.8281C641.978 86.9219 640.837 86.4687 639.379 86.4687C638.389 86.4687 637.509 86.6875 636.738 87.125C635.978 87.5521 635.379 88.1719 634.941 88.9844C634.514 89.7969 634.301 90.7812 634.301 91.9375ZM662.363 106.484C660.842 106.484 659.473 106.214 658.254 105.672C657.046 105.12 656.087 104.307 655.379 103.234C654.681 102.161 654.332 100.839 654.332 99.2656C654.332 97.9115 654.582 96.7917 655.082 95.9062C655.582 95.0208 656.264 94.3125 657.129 93.7812C657.993 93.25 658.967 92.849 660.051 92.5781C661.145 92.2969 662.275 92.0937 663.441 91.9687C664.848 91.8229 665.988 91.6927 666.863 91.5781C667.738 91.4531 668.374 91.2656 668.77 91.0156C669.176 90.7552 669.379 90.3542 669.379 89.8125V89.7188C669.379 88.5417 669.03 87.6302 668.332 86.9844C667.634 86.3385 666.629 86.0156 665.316 86.0156C663.931 86.0156 662.832 86.3177 662.02 86.9219C661.217 87.526 660.676 88.2396 660.395 89.0625L655.113 88.3125C655.53 86.8542 656.217 85.6354 657.176 84.6562C658.134 83.6667 659.306 82.9271 660.691 82.4375C662.077 81.9375 663.608 81.6875 665.285 81.6875C666.441 81.6875 667.592 81.8229 668.738 82.0937C669.884 82.3646 670.931 82.8125 671.879 83.4375C672.827 84.0521 673.587 84.8906 674.16 85.9531C674.743 87.0156 675.035 88.3437 675.035 89.9375V106H669.598V102.703H669.41C669.066 103.37 668.582 103.995 667.957 104.578C667.342 105.151 666.566 105.615 665.629 105.969C664.702 106.313 663.613 106.484 662.363 106.484ZM663.832 102.328C664.967 102.328 665.952 102.104 666.785 101.656C667.618 101.198 668.259 100.594 668.707 99.8437C669.165 99.0937 669.395 98.276 669.395 97.3906V94.5625C669.217 94.7083 668.915 94.8437 668.488 94.9687C668.072 95.0937 667.603 95.2031 667.082 95.2969C666.561 95.3906 666.046 95.474 665.535 95.5469C665.025 95.6198 664.582 95.6823 664.207 95.7344C663.363 95.849 662.608 96.0365 661.941 96.2969C661.275 96.5573 660.749 96.9219 660.363 97.3906C659.978 97.849 659.785 98.4427 659.785 99.1719C659.785 100.214 660.165 101 660.926 101.531C661.686 102.062 662.655 102.328 663.832 102.328ZM692.707 82V86.375H678.91V82H692.707ZM682.316 76.25H687.973V98.7812C687.973 99.5417 688.087 100.125 688.316 100.531C688.556 100.927 688.868 101.198 689.254 101.344C689.639 101.49 690.066 101.562 690.535 101.562C690.889 101.562 691.212 101.536 691.504 101.484C691.806 101.432 692.035 101.385 692.191 101.344L693.145 105.766C692.842 105.87 692.41 105.984 691.848 106.109C691.296 106.234 690.618 106.307 689.816 106.328C688.4 106.37 687.124 106.156 685.988 105.687C684.853 105.208 683.952 104.469 683.285 103.469C682.629 102.469 682.306 101.219 682.316 99.7187V76.25ZM697.438 106V82H703.094V106H697.438ZM700.281 78.5938C699.385 78.5938 698.615 78.2969 697.969 77.7031C697.323 77.099 697 76.375 697 75.5312C697 74.6771 697.323 73.9531 697.969 73.3594C698.615 72.7552 699.385 72.4531 700.281 72.4531C701.188 72.4531 701.958 72.7552 702.594 73.3594C703.24 73.9531 703.563 74.6771 703.563 75.5312C703.563 76.375 703.24 77.099 702.594 77.7031C701.958 78.2969 701.188 78.5938 700.281 78.5938ZM730.348 82L721.801 106H715.551L707.004 82H713.035L718.551 99.8281H718.801L724.332 82H730.348ZM744.07 106.469C741.664 106.469 739.586 105.969 737.836 104.969C736.096 103.958 734.758 102.531 733.82 100.687C732.883 98.8333 732.414 96.651 732.414 94.1406C732.414 91.6719 732.883 89.5052 733.82 87.6406C734.768 85.7656 736.091 84.3073 737.789 83.2656C739.487 82.2135 741.482 81.6875 743.773 81.6875C745.253 81.6875 746.648 81.9271 747.961 82.4062C749.284 82.875 750.451 83.6042 751.461 84.5937C752.482 85.5833 753.284 86.8437 753.867 88.375C754.451 89.8958 754.742 91.7083 754.742 93.8125V95.5469H735.07V91.7344H749.32C749.31 90.651 749.076 89.6875 748.617 88.8437C748.159 87.9896 747.518 87.3177 746.695 86.8281C745.883 86.3385 744.935 86.0937 743.852 86.0937C742.695 86.0937 741.68 86.375 740.805 86.9375C739.93 87.4896 739.247 88.2187 738.758 89.125C738.279 90.0208 738.034 91.0052 738.023 92.0781V95.4062C738.023 96.8021 738.279 98 738.789 99C739.299 99.9896 740.013 100.75 740.93 101.281C741.846 101.802 742.919 102.062 744.148 102.062C744.971 102.062 745.716 101.948 746.383 101.719C747.049 101.479 747.628 101.13 748.117 100.672C748.607 100.214 748.977 99.6458 749.227 98.9687L754.508 99.5625C754.174 100.958 753.539 102.177 752.602 103.219C751.674 104.25 750.487 105.052 749.039 105.625C747.591 106.187 745.935 106.469 744.07 106.469ZM778.496 88.3438L773.34 88.9062C773.194 88.3854 772.939 87.8958 772.574 87.4375C772.22 86.9792 771.741 86.6094 771.137 86.3281C770.533 86.0469 769.793 85.9062 768.918 85.9062C767.741 85.9062 766.751 86.1615 765.949 86.6719C765.158 87.1823 764.767 87.8437 764.777 88.6562C764.767 89.3542 765.022 89.9219 765.543 90.3594C766.074 90.7969 766.949 91.1562 768.168 91.4375L772.262 92.3125C774.533 92.8021 776.22 93.5781 777.324 94.6406C778.439 95.7031 779.001 97.0937 779.012 98.8125C779.001 100.323 778.559 101.656 777.684 102.812C776.819 103.958 775.616 104.854 774.074 105.5C772.533 106.146 770.762 106.469 768.762 106.469C765.824 106.469 763.46 105.854 761.668 104.625C759.876 103.385 758.809 101.661 758.465 99.4531L763.98 98.9219C764.23 100.005 764.762 100.823 765.574 101.375C766.387 101.927 767.444 102.203 768.746 102.203C770.09 102.203 771.168 101.927 771.98 101.375C772.803 100.823 773.215 100.141 773.215 99.3281C773.215 98.6406 772.949 98.0729 772.418 97.625C771.897 97.1771 771.085 96.8333 769.98 96.5937L765.887 95.7344C763.585 95.2552 761.882 94.4479 760.777 93.3125C759.673 92.1667 759.126 90.7187 759.137 88.9687C759.126 87.4896 759.527 86.2083 760.34 85.125C761.163 84.0312 762.303 83.1875 763.762 82.5937C765.23 81.9896 766.923 81.6875 768.84 81.6875C771.652 81.6875 773.866 82.2865 775.48 83.4844C777.105 84.6823 778.111 86.3021 778.496 88.3438ZM793.434 78.8594V74H818.965V78.8594H809.074V106H803.324V78.8594H793.434ZM823.637 106V82H829.293V106H823.637ZM826.48 78.5938C825.585 78.5938 824.814 78.2969 824.168 77.7031C823.522 77.099 823.199 76.375 823.199 75.5312C823.199 74.6771 823.522 73.9531 824.168 73.3594C824.814 72.7552 825.585 72.4531 826.48 72.4531C827.387 72.4531 828.158 72.7552 828.793 73.3594C829.439 73.9531 829.762 74.6771 829.762 75.5312C829.762 76.375 829.439 77.099 828.793 77.7031C828.158 78.2969 827.387 78.5938 826.48 78.5938ZM847.094 82V86.375H833.297V82H847.094ZM836.703 76.25H842.359V98.7812C842.359 99.5417 842.474 100.125 842.703 100.531C842.943 100.927 843.255 101.198 843.641 101.344C844.026 101.49 844.453 101.562 844.922 101.562C845.276 101.562 845.599 101.536 845.891 101.484C846.193 101.432 846.422 101.385 846.578 101.344L847.531 105.766C847.229 105.87 846.797 105.984 846.234 106.109C845.682 106.234 845.005 106.307 844.203 106.328C842.786 106.37 841.51 106.156 840.375 105.687C839.24 105.208 838.339 104.469 837.672 103.469C837.016 102.469 836.693 101.219 836.703 99.7187V76.25ZM857.996 74V106H852.34V74H857.996ZM874.437 106.469C872.031 106.469 869.953 105.969 868.203 104.969C866.464 103.958 865.125 102.531 864.188 100.687C863.25 98.8333 862.781 96.651 862.781 94.1406C862.781 91.6719 863.25 89.5052 864.188 87.6406C865.135 85.7656 866.458 84.3073 868.156 83.2656C869.854 82.2135 871.849 81.6875 874.141 81.6875C875.62 81.6875 877.016 81.9271 878.328 82.4062C879.651 82.875 880.818 83.6042 881.828 84.5937C882.849 85.5833 883.651 86.8437 884.234 88.375C884.818 89.8958 885.109 91.7083 885.109 93.8125V95.5469H865.438V91.7344H879.688C879.677 90.651 879.443 89.6875 878.984 88.8437C878.526 87.9896 877.885 87.3177 877.062 86.8281C876.25 86.3385 875.302 86.0937 874.219 86.0937C873.063 86.0937 872.047 86.375 871.172 86.9375C870.297 87.4896 869.615 88.2187 869.125 89.125C868.646 90.0208 868.401 91.0052 868.391 92.0781V95.4062C868.391 96.8021 868.646 98 869.156 99C869.667 99.9896 870.38 100.75 871.297 101.281C872.214 101.802 873.286 102.062 874.516 102.062C875.339 102.062 876.083 101.948 876.75 101.719C877.417 101.479 877.995 101.13 878.484 100.672C878.974 100.214 879.344 99.6458 879.594 98.9687L884.875 99.5625C884.542 100.958 883.906 102.177 882.969 103.219C882.042 104.25 880.854 105.052 879.406 105.625C877.958 106.187 876.302 106.469 874.437 106.469ZM901.059 106V74H906.855V87.5469H921.684V74H927.496V106H921.684V92.4062H906.855V106H901.059ZM944.176 106.469C941.77 106.469 939.691 105.969 937.941 104.969C936.202 103.958 934.863 102.531 933.926 100.687C932.988 98.8333 932.52 96.651 932.52 94.1406C932.52 91.6719 932.988 89.5052 933.926 87.6406C934.874 85.7656 936.197 84.3073 937.895 83.2656C939.592 82.2135 941.587 81.6875 943.879 81.6875C945.358 81.6875 946.754 81.9271 948.066 82.4062C949.389 82.875 950.556 83.6042 951.566 84.5937C952.587 85.5833 953.389 86.8437 953.973 88.375C954.556 89.8958 954.848 91.7083 954.848 93.8125V95.5469H935.176V91.7344H949.426C949.415 90.651 949.181 89.6875 948.723 88.8437C948.264 87.9896 947.624 87.3177 946.801 86.8281C945.988 86.3385 945.04 86.0937 943.957 86.0937C942.801 86.0937 941.785 86.375 940.91 86.9375C940.035 87.4896 939.353 88.2187 938.863 89.125C938.384 90.0208 938.139 91.0052 938.129 92.0781V95.4062C938.129 96.8021 938.384 98 938.895 99C939.405 99.9896 940.118 100.75 941.035 101.281C941.952 101.802 943.025 102.062 944.254 102.062C945.077 102.062 945.822 101.948 946.488 101.719C947.155 101.479 947.733 101.13 948.223 100.672C948.712 100.214 949.082 99.6458 949.332 98.9687L954.613 99.5625C954.28 100.958 953.645 102.177 952.707 103.219C951.78 104.25 950.592 105.052 949.145 105.625C947.697 106.187 946.04 106.469 944.176 106.469ZM959.633 106V82H965.117V86H965.367C965.805 84.6146 966.555 83.5469 967.617 82.7969C968.69 82.0365 969.914 81.6562 971.289 81.6562C971.602 81.6562 971.951 81.6719 972.336 81.7031C972.732 81.724 973.06 81.7604 973.32 81.8125V87.0156C973.081 86.9323 972.701 86.8594 972.18 86.7969C971.669 86.724 971.174 86.6875 970.695 86.6875C969.664 86.6875 968.737 86.9115 967.914 87.3594C967.102 87.7969 966.461 88.4062 965.992 89.1875C965.523 89.9687 965.289 90.8698 965.289 91.8906V106H959.633ZM986.715 106.469C984.309 106.469 982.23 105.969 980.48 104.969C978.741 103.958 977.402 102.531 976.465 100.687C975.527 98.8333 975.059 96.651 975.059 94.1406C975.059 91.6719 975.527 89.5052 976.465 87.6406C977.413 85.7656 978.736 84.3073 980.434 83.2656C982.132 82.2135 984.126 81.6875 986.418 81.6875C987.897 81.6875 989.293 81.9271 990.605 82.4062C991.928 82.875 993.095 83.6042 994.105 84.5937C995.126 85.5833 995.928 86.8437 996.512 88.375C997.095 89.8958 997.387 91.7083 997.387 93.8125V95.5469H977.715V91.7344H991.965C991.954 90.651 991.72 89.6875 991.262 88.8437C990.803 87.9896 990.163 87.3177 989.34 86.8281C988.527 86.3385 987.579 86.0937 986.496 86.0937C985.34 86.0937 984.324 86.375 983.449 86.9375C982.574 87.4896 981.892 88.2187 981.402 89.125C980.923 90.0208 980.678 91.0052 980.668 92.0781V95.4062C980.668 96.8021 980.923 98 981.434 99C981.944 99.9896 982.658 100.75 983.574 101.281C984.491 101.802 985.564 102.062 986.793 102.062C987.616 102.062 988.361 101.948 989.027 101.719C989.694 101.479 990.272 101.13 990.762 100.672C991.251 100.214 991.621 99.6458 991.871 98.9687L997.152 99.5625C996.819 100.958 996.184 102.177 995.246 103.219C994.319 104.25 993.132 105.052 991.684 105.625C990.236 106.187 988.579 106.469 986.715 106.469Z" fill="#0F1629"/>
<g filter="url(#filter0_f_25_38)">
<path d="M458.078 197.236L472.212 195.884L474.575 295.529C475.052 315.637 491.49 331.69 511.604 331.69H772.553V348.599C772.553 369.056 755.97 385.639 735.514 385.639H461.605C441.148 385.639 424.565 369.056 424.565 348.599V234.107C424.565 215.017 439.074 199.054 458.078 197.236Z" fill="url(#paint1_linear_25_38)"/>
</g>
<rect x="452.2" y="194.805" width="320.472" height="159.431" rx="24.9614" fill="white" stroke="#FFBC8F" stroke-width="1.61041"/>
<g clip-path="url(#clip1_25_38)">
<path d="M545.572 267.387C546.371 266.823 547.359 266.588 548.441 266.588C549.522 266.588 549.616 266.682 550.133 266.87C550.651 267.058 551.121 267.293 551.544 267.623C551.967 267.952 552.297 268.328 552.532 268.798C552.767 269.268 552.955 269.786 553.049 270.397H557.61C557.469 269.174 557.14 268.046 556.623 267.105C556.106 266.165 555.447 265.318 554.601 264.66C553.801 264.002 552.861 263.484 551.779 263.155C550.698 262.826 549.569 262.638 548.346 262.638C546.465 262.638 544.773 263.061 543.268 263.908C541.763 264.754 540.587 266.024 539.694 267.623C538.8 269.268 538.377 271.244 538.377 273.548C538.377 275.852 538.8 277.827 539.694 279.473C540.54 281.119 541.716 282.341 543.221 283.235C544.726 284.081 546.418 284.505 548.299 284.505C550.18 284.505 550.886 284.316 551.967 283.893C553.049 283.47 553.989 282.906 554.789 282.2C555.588 281.495 556.2 280.696 556.67 279.755C557.14 278.862 557.422 277.921 557.563 276.934H553.002C552.908 277.498 552.72 277.968 552.438 278.438C552.156 278.862 551.826 279.238 551.45 279.567C551.027 279.896 550.604 280.131 550.086 280.272C549.569 280.413 549.005 280.507 548.394 280.507C547.312 280.507 546.371 280.225 545.572 279.708C544.773 279.191 544.114 278.391 543.644 277.357C543.174 276.322 542.939 275.053 542.939 273.501C542.939 271.949 543.174 270.773 543.597 269.739C544.067 268.704 544.679 267.905 545.525 267.387H545.572Z" fill="#0F1629"/>
<path d="M572.188 269.033C571.012 268.328 569.602 267.999 568.003 267.999C566.404 267.999 564.993 268.328 563.818 269.033C562.642 269.739 561.749 270.679 561.09 271.949C560.432 273.171 560.15 274.629 560.15 276.275C560.15 277.921 560.479 279.332 561.09 280.601C561.749 281.824 562.642 282.812 563.818 283.517C564.993 284.222 566.404 284.552 568.003 284.552C569.602 284.552 571.012 284.222 572.188 283.517C573.364 282.812 574.257 281.871 574.915 280.601C575.574 279.379 575.856 277.921 575.856 276.275C575.856 274.629 575.527 273.171 574.915 271.949C574.257 270.726 573.364 269.739 572.188 269.033ZM571.012 278.72C570.777 279.473 570.401 280.037 569.884 280.46C569.414 280.884 568.755 281.072 568.05 281.072C567.344 281.072 566.686 280.884 566.169 280.46C565.652 280.037 565.275 279.473 565.04 278.72C564.805 277.968 564.664 277.169 564.664 276.228C564.664 275.288 564.805 274.488 565.04 273.736C565.275 272.983 565.652 272.419 566.169 271.996C566.686 271.573 567.297 271.337 568.05 271.337C568.802 271.337 569.414 271.573 569.884 271.996C570.354 272.419 570.73 272.983 571.012 273.736C571.248 274.488 571.389 275.288 571.389 276.228C571.389 277.169 571.248 277.968 571.012 278.72Z" fill="#0F1629"/>
<path d="M590.904 268.751C590.058 268.281 589.117 267.999 587.989 267.999C586.86 267.999 585.778 268.281 584.979 268.798C584.133 269.362 583.568 270.068 583.192 271.008H583.004V268.187H578.772V284.175H583.192V274.911C583.192 274.206 583.333 273.642 583.568 273.124C583.803 272.654 584.18 272.278 584.65 271.996C585.12 271.761 585.637 271.62 586.249 271.62C587.142 271.62 587.848 271.902 588.365 272.466C588.882 273.03 589.117 273.783 589.117 274.77V284.175H593.538V273.971C593.538 272.748 593.302 271.667 592.832 270.773C592.362 269.88 591.751 269.174 590.904 268.704V268.751Z" fill="#0F1629"/>
<path d="M604.636 280.79C604.447 280.79 604.212 280.837 604.024 280.837C603.742 280.837 603.46 280.837 603.225 280.695C602.99 280.601 602.802 280.46 602.708 280.225C602.566 279.99 602.519 279.661 602.519 279.285V271.526H605.529V268.187H602.519V264.331H598.099V268.187H595.889V271.526H598.099V279.849C598.099 280.884 598.334 281.777 598.757 282.435C599.181 283.141 599.839 283.611 600.638 283.94C601.438 284.269 602.378 284.41 603.46 284.363C604.024 284.363 604.541 284.269 604.918 284.175C605.341 284.081 605.623 283.987 605.858 283.94L605.153 280.648C605.059 280.648 604.871 280.695 604.683 280.743L604.636 280.79Z" fill="#0F1629"/>
<path d="M620.718 270.021C620.013 269.362 619.213 268.845 618.32 268.516C617.426 268.187 616.439 267.999 615.357 267.999C613.805 267.999 612.442 268.328 611.266 269.033C610.09 269.739 609.197 270.679 608.586 271.949C607.927 273.171 607.645 274.629 607.645 276.275C607.645 277.921 607.974 279.426 608.586 280.648C609.244 281.871 610.137 282.812 611.313 283.517C612.489 284.175 613.899 284.504 615.545 284.504C617.191 284.504 618.038 284.316 619.025 283.893C620.013 283.47 620.859 282.906 621.517 282.2C622.176 281.448 622.599 280.601 622.787 279.614L618.696 279.332C618.555 279.755 618.32 280.084 618.038 280.366C617.755 280.648 617.379 280.837 617.003 280.978C616.58 281.119 616.157 281.166 615.639 281.166C614.887 281.166 614.276 281.025 613.711 280.695C613.147 280.366 612.771 279.943 612.442 279.379C612.159 278.814 612.018 278.109 612.018 277.31H622.928V276.087C622.928 274.723 622.74 273.548 622.364 272.513C621.988 271.479 621.47 270.632 620.765 269.974L620.718 270.021ZM612.018 274.582C612.018 274.018 612.206 273.501 612.442 272.983C612.724 272.466 613.147 272.043 613.664 271.761C614.181 271.432 614.793 271.29 615.451 271.29C616.11 271.29 616.674 271.432 617.144 271.714C617.614 271.996 618.038 272.372 618.273 272.889C618.555 273.36 618.696 273.971 618.696 274.582H611.971H612.018Z" fill="#0F1629"/>
<path d="M637.929 268.751C637.083 268.281 636.142 267.999 635.014 267.999C633.885 267.999 632.804 268.281 632.004 268.798C631.158 269.362 630.593 270.068 630.217 271.008H630.029V268.187H625.797V284.175H630.217V274.911C630.217 274.206 630.358 273.642 630.593 273.124C630.829 272.654 631.205 272.278 631.675 271.996C632.145 271.761 632.663 271.62 633.274 271.62C634.167 271.62 634.873 271.902 635.39 272.466C635.907 273.03 636.142 273.783 636.142 274.77V284.175H640.563V273.971C640.563 272.748 640.328 271.667 639.857 270.773C639.387 269.88 638.776 269.174 637.929 268.704V268.751Z" fill="#0F1629"/>
<path d="M651.66 280.79C651.472 280.79 651.237 280.837 651.049 280.837C650.767 280.837 650.485 280.837 650.249 280.695C650.014 280.601 649.826 280.46 649.732 280.225C649.591 279.99 649.544 279.661 649.544 279.285V271.526H652.554V268.187H649.544V264.331H645.124V268.187H642.914V271.526H645.124V279.849C645.124 280.884 645.359 281.777 645.782 282.435C646.205 283.141 646.864 283.611 647.663 283.94C648.463 284.269 649.403 284.41 650.485 284.363C651.049 284.363 651.566 284.269 651.942 284.175C652.366 284.081 652.648 283.987 652.883 283.94L652.177 280.648C652.083 280.648 651.895 280.695 651.707 280.743L651.66 280.79Z" fill="#0F1629"/>
<path d="M669.859 273.83C669.154 273.407 668.401 273.171 667.555 273.124V272.936C668.307 272.748 668.966 272.466 669.53 272.09C670.094 271.714 670.564 271.196 670.894 270.538C671.223 269.927 671.411 269.174 671.411 268.328C671.411 267.481 671.129 266.306 670.611 265.506C670.094 264.707 669.295 264.049 668.26 263.578C667.226 263.108 665.909 262.873 664.357 262.873H655.799V284.222H664.921C666.52 284.222 667.884 283.987 668.966 283.47C670.047 282.953 670.894 282.247 671.458 281.354C672.022 280.46 672.304 279.473 672.304 278.344C672.304 277.216 672.069 276.369 671.646 275.617C671.223 274.864 670.611 274.253 669.906 273.83H669.859ZM660.313 266.541H663.746C664.733 266.541 665.533 266.776 666.05 267.246C666.614 267.717 666.849 268.328 666.849 269.127C666.849 269.927 666.708 270.162 666.426 270.585C666.144 271.008 665.768 271.29 665.298 271.526C664.827 271.761 664.263 271.855 663.652 271.855H660.313V266.588V266.541ZM666.755 279.802C666.191 280.272 665.251 280.507 664.028 280.507H660.36V274.864H664.122C664.827 274.864 665.486 275.005 666.003 275.241C666.52 275.476 666.943 275.852 667.226 276.322C667.508 276.792 667.649 277.31 667.649 277.874C667.649 278.438 667.367 279.332 666.802 279.802H666.755Z" fill="#0F1629"/>
<path d="M683.449 267.999C682.556 267.999 681.756 268.234 681.098 268.751C680.44 269.268 679.922 270.021 679.64 271.008H679.452V268.234H675.173V284.222H679.593V275.194C679.593 274.535 679.734 273.971 680.016 273.454C680.299 272.936 680.722 272.56 681.239 272.278C681.756 271.996 682.321 271.855 682.979 271.855C683.637 271.855 683.637 271.855 683.967 271.949C684.296 272.043 684.625 272.043 684.813 272.137V268.187C684.625 268.14 684.39 268.093 684.155 268.093C683.919 268.093 683.637 268.093 683.449 268.093V267.999Z" fill="#0F1629"/>
<path d="M691.538 268.234H687.117V284.222H691.538V268.234Z" fill="#0F1629"/>
<path d="M689.327 261.65C688.669 261.65 688.105 261.886 687.635 262.309C687.164 262.732 686.929 263.296 686.929 263.908C686.929 264.519 687.164 265.036 687.635 265.506C688.105 265.93 688.669 266.165 689.327 266.165C689.986 266.165 690.55 265.93 691.02 265.506C691.491 265.083 691.726 264.519 691.726 263.908C691.726 263.296 691.491 262.779 691.02 262.309C690.55 261.886 689.986 261.65 689.327 261.65Z" fill="#0F1629"/>
<path d="M705.645 270.914H705.504C705.316 270.491 705.034 270.068 704.658 269.598C704.281 269.127 703.811 268.798 703.2 268.469C702.588 268.187 701.836 267.999 700.943 267.999C700.049 267.999 698.685 268.281 697.698 268.892C696.71 269.504 695.911 270.397 695.347 271.62C694.735 272.842 694.453 274.347 694.453 276.181C694.453 278.015 694.735 279.473 695.3 280.696C695.864 281.918 696.663 282.859 697.651 283.47C698.638 284.081 699.72 284.411 700.943 284.411C702.165 284.411 702.541 284.269 703.153 283.987C703.764 283.705 704.234 283.329 704.611 282.906C704.987 282.483 705.269 282.012 705.504 281.589H705.692V284.128H710.065V262.779H705.645V270.82V270.914ZM705.363 278.721C705.081 279.426 704.705 279.99 704.234 280.366C703.717 280.743 703.153 280.978 702.4 280.978C701.648 280.978 701.037 280.79 700.566 280.366C700.049 279.99 699.673 279.426 699.438 278.721C699.156 278.015 699.062 277.169 699.062 276.275C699.062 275.382 699.203 274.535 699.438 273.83C699.673 273.125 700.096 272.56 700.566 272.184C701.084 271.808 701.695 271.573 702.4 271.573C703.106 271.573 703.717 271.761 704.234 272.137C704.752 272.513 705.128 273.078 705.363 273.783C705.645 274.488 705.739 275.288 705.739 276.275C705.739 277.263 705.598 278.062 705.316 278.768L705.363 278.721Z" fill="#0F1629"/>
<path d="M724.361 270.914H724.173C723.985 270.491 723.702 270.068 723.326 269.598C722.95 269.127 722.48 268.798 721.868 268.469C721.257 268.187 720.505 267.999 719.611 267.999C718.718 267.999 717.354 268.281 716.367 268.892C715.379 269.504 714.58 270.397 714.015 271.62C713.404 272.842 713.122 274.347 713.122 276.181C713.122 278.015 713.404 279.426 713.968 280.554C714.533 281.73 715.332 282.576 716.32 283.141C717.307 283.705 718.389 283.987 719.611 283.987C720.834 283.987 721.21 283.846 721.821 283.611C722.433 283.376 722.95 283.047 723.326 282.623C723.702 282.247 723.985 281.824 724.22 281.354H724.408V284.269C724.408 285.351 724.079 286.15 723.467 286.621C722.856 287.091 722.057 287.326 721.069 287.326C720.082 287.326 719.893 287.232 719.423 287.091C718.953 286.903 718.624 286.715 718.342 286.432C718.059 286.15 717.871 285.868 717.73 285.539L713.639 286.103C713.827 286.95 714.203 287.702 714.815 288.361C715.426 289.019 716.225 289.583 717.26 289.959C718.295 290.336 719.517 290.571 720.975 290.571C722.433 290.571 723.844 290.336 725.019 289.865C726.195 289.395 727.135 288.737 727.794 287.796C728.452 286.903 728.781 285.727 728.781 284.363V268.187H724.361V270.867V270.914ZM723.985 278.579C723.702 279.238 723.326 279.755 722.856 280.131C722.339 280.507 721.774 280.648 721.022 280.648C720.27 280.648 719.658 280.46 719.188 280.084C718.671 279.708 718.295 279.191 718.059 278.532C717.777 277.874 717.683 277.075 717.683 276.134C717.683 275.194 717.824 274.441 718.059 273.736C718.295 273.03 718.718 272.513 719.188 272.09C719.705 271.714 720.317 271.479 721.022 271.479C721.727 271.479 722.339 271.667 722.856 272.043C723.373 272.419 723.749 272.983 723.985 273.642C724.267 274.347 724.361 275.147 724.361 276.087C724.361 277.028 724.22 277.827 723.938 278.485L723.985 278.579Z" fill="#0F1629"/>
<path d="M746.933 277.357V276.134C746.933 274.77 746.745 273.595 746.369 272.56C745.993 271.526 745.475 270.679 744.77 270.021C744.065 269.362 743.265 268.845 742.372 268.516C741.478 268.187 740.491 267.999 739.409 267.999C737.857 267.999 736.494 268.328 735.318 269.033C734.142 269.739 733.249 270.679 732.638 271.949C731.979 273.171 731.697 274.629 731.697 276.275C731.697 277.921 732.026 279.426 732.638 280.648C733.296 281.871 734.189 282.812 735.365 283.517C736.541 284.175 737.951 284.504 739.597 284.504C741.243 284.504 742.09 284.316 743.077 283.893C744.065 283.47 744.911 282.906 745.569 282.2C746.228 281.495 746.651 280.601 746.839 279.614L742.748 279.332C742.607 279.755 742.372 280.084 742.09 280.366C741.807 280.648 741.431 280.837 741.055 280.978C740.632 281.119 740.209 281.166 739.691 281.166C738.939 281.166 738.328 281.025 737.763 280.695C737.199 280.366 736.823 279.943 736.494 279.379C736.211 278.814 736.07 278.109 736.07 277.31H746.98L746.933 277.357ZM737.669 271.761C738.186 271.432 738.798 271.29 739.456 271.29C740.114 271.29 740.679 271.432 741.149 271.714C741.619 271.996 742.043 272.372 742.278 272.889C742.56 273.36 742.701 273.971 742.701 274.582H735.976C735.976 274.018 736.164 273.501 736.4 272.983C736.682 272.466 737.105 272.043 737.622 271.761H737.669Z" fill="#0F1629"/>
<path d="M514.818 249.988H489.707C483.11 249.988 477.762 255.336 477.762 261.933V287.044C477.762 293.641 483.11 298.988 489.707 298.988H514.818C521.415 298.988 526.762 293.641 526.762 287.044V261.933C526.762 255.336 521.415 249.988 514.818 249.988Z" fill="#F67B37"/>
<mask id="mask1_25_38" style="mask-type:luminance" maskUnits="userSpaceOnUse" x="477" y="249" width="50" height="50">
<path d="M514.818 249.988H489.707C483.11 249.988 477.762 255.336 477.762 261.933V287.044C477.762 293.641 483.11 298.988 489.707 298.988H514.818C521.415 298.988 526.762 293.641 526.762 287.044V261.933C526.762 255.336 521.415 249.988 514.818 249.988Z" fill="white"/>
</mask>
<g mask="url(#mask1_25_38)">
<path d="M529.16 278.532C529.16 278.532 529.16 278.532 529.113 278.532C520.32 277.498 516.934 269.974 515.946 267.105C511.338 272.231 504.566 274.112 496.29 272.56C490.835 271.526 486.415 269.316 485.004 268.563C483.969 269.927 480.301 274.253 473.812 276.887C473.53 277.028 473.154 276.887 473.06 276.557C472.919 276.275 473.06 275.899 473.389 275.805C480.678 272.842 484.299 267.576 484.346 267.482C484.534 267.246 484.863 267.152 485.145 267.293C485.192 267.293 490.271 270.209 496.572 271.385C504.895 272.983 511.385 271.008 515.758 265.507C515.899 265.318 516.134 265.271 516.37 265.318C516.605 265.365 516.746 265.554 516.793 265.742C516.887 266.165 519.285 276.181 529.254 277.31C529.584 277.31 529.819 277.639 529.772 277.968C529.772 278.25 529.49 278.485 529.207 278.485L529.16 278.532Z" fill="white"/>
<path d="M484.863 287.044C484.251 287.044 483.781 286.574 483.781 285.962V266.494C483.781 265.883 484.251 265.412 484.863 265.412C485.474 265.412 485.944 265.883 485.944 266.494V285.962C485.944 286.574 485.474 287.044 484.863 287.044Z" fill="white"/>
<path d="M490.647 282.859C490.318 282.859 490.036 282.577 490.036 282.247V270.35C490.036 270.021 490.318 269.739 490.647 269.739C490.976 269.739 491.258 270.021 491.258 270.35V282.247C491.258 282.577 490.976 282.859 490.647 282.859Z" fill="white"/>
<path d="M496.478 280.743C496.149 280.743 495.867 280.46 495.867 280.131V272.137C495.867 271.808 496.149 271.526 496.478 271.526C496.807 271.526 497.089 271.808 497.089 272.137V280.131C497.089 280.46 496.807 280.743 496.478 280.743Z" fill="white"/>
<path d="M501.698 279.144C501.369 279.144 501.086 278.862 501.086 278.532V272.654C501.086 272.325 501.369 272.043 501.698 272.043C502.027 272.043 502.309 272.325 502.309 272.654V278.532C502.309 278.862 502.027 279.144 501.698 279.144Z" fill="white"/>
<path d="M506.965 279.332C506.635 279.332 506.353 279.05 506.353 278.72V271.902C506.353 271.573 506.635 271.291 506.965 271.291C507.294 271.291 507.576 271.573 507.576 271.902V278.72C507.576 279.05 507.294 279.332 506.965 279.332Z" fill="white"/>
<path d="M511.479 277.78C511.15 277.78 510.868 277.498 510.868 277.169V270.35C510.868 270.021 511.15 269.739 511.479 269.739C511.808 269.739 512.09 270.021 512.09 270.35V277.169C512.09 277.498 511.808 277.78 511.479 277.78Z" fill="white"/>
<path d="M515.947 278.25C515.335 278.25 514.865 277.78 514.865 277.169V264.754C514.865 264.143 515.335 263.672 515.947 263.672C516.558 263.672 517.028 264.143 517.028 264.754V277.169C517.028 277.78 516.558 278.25 515.947 278.25Z" fill="white"/>
<path d="M527.28 277.686V280.178C527.28 280.178 512.373 276.463 488.484 286.433C464.595 296.402 457.824 298.941 457.824 298.941V295.602C457.824 295.602 503.626 267.34 527.28 277.686Z" fill="white"/>
<path d="M515.946 262.967C516.596 262.967 517.122 262.441 517.122 261.791C517.122 261.142 516.596 260.616 515.946 260.616C515.297 260.616 514.771 261.142 514.771 261.791C514.771 262.441 515.297 262.967 515.946 262.967Z" fill="white"/>
<path d="M484.863 264.425C485.798 264.425 486.556 263.667 486.556 262.732C486.556 261.797 485.798 261.039 484.863 261.039C483.928 261.039 483.17 261.797 483.17 262.732C483.17 263.667 483.928 264.425 484.863 264.425Z" fill="white"/>
<path d="M488.061 292.546L481.618 298.894V284.269H488.061V292.546Z" fill="white"/>
<path d="M519.144 284.269L512.749 290.9V279.144H519.144V284.269Z" fill="white"/>
<path d="M500.569 259.393L498.547 257.371L501.322 256.619L500.569 259.393ZM499.253 257.559L500.381 258.688L500.805 257.136L499.253 257.559Z" fill="white"/>
<path d="M518.345 251.54L516.323 249.518L519.097 248.766L518.345 251.54ZM517.028 249.706L518.156 250.835L518.58 249.283L517.028 249.706Z" fill="white"/>
<path d="M514.771 259.487L514.959 257.136L516.887 258.5L514.771 259.534V259.487ZM515.288 257.794L515.194 258.876L516.182 258.406L515.288 257.794Z" fill="white"/>
<path d="M499.347 270.585L499.817 267.764L502.027 269.598L499.3 270.585H499.347ZM500.099 268.422L499.817 269.974L501.322 269.41L500.099 268.375V268.422Z" fill="white"/>
<path d="M504.378 267.529C503.673 267.529 503.156 266.964 503.156 266.306C503.156 265.648 503.72 265.083 504.378 265.083C505.037 265.083 505.601 265.648 505.601 266.306C505.601 266.964 505.037 267.529 504.378 267.529ZM504.378 265.412C503.908 265.412 503.532 265.789 503.532 266.259C503.532 266.729 503.908 267.105 504.378 267.105C504.849 267.105 505.225 266.729 505.225 266.259C505.225 265.789 504.849 265.412 504.378 265.412Z" fill="white"/>
<path d="M505.413 255.067C504.707 255.067 504.19 254.503 504.19 253.844C504.19 253.186 504.754 252.622 505.413 252.622C506.071 252.622 506.635 253.186 506.635 253.844C506.635 254.503 506.071 255.067 505.413 255.067ZM505.413 252.998C504.943 252.998 504.566 253.374 504.566 253.844C504.566 254.314 504.943 254.691 505.413 254.691C505.883 254.691 506.259 254.314 506.259 253.844C506.259 253.374 505.883 252.998 505.413 252.998Z" fill="white"/>
<path d="M490.365 268.281C489.754 268.281 489.283 267.811 489.283 267.199C489.283 266.588 489.754 266.118 490.365 266.118C490.976 266.118 491.447 266.588 491.447 267.199C491.447 267.811 490.976 268.281 490.365 268.281ZM490.365 266.494C489.989 266.494 489.66 266.823 489.66 267.199C489.66 267.576 489.989 267.905 490.365 267.905C490.741 267.905 491.07 267.576 491.07 267.199C491.07 266.823 490.741 266.494 490.365 266.494Z" fill="white"/>
<path d="M509.88 259.534C509.457 259.534 509.081 259.158 509.081 258.735C509.081 258.312 509.457 257.935 509.88 257.935C510.303 257.935 510.68 258.312 510.68 258.735C510.68 259.158 510.303 259.534 509.88 259.534ZM509.88 258.312C509.645 258.312 509.457 258.5 509.457 258.735C509.457 258.97 509.645 259.158 509.88 259.158C510.115 259.158 510.303 258.97 510.303 258.735C510.303 258.5 510.115 258.312 509.88 258.312Z" fill="white"/>
<path d="M520.696 255.49C520.273 255.49 519.897 255.114 519.897 254.691C519.897 254.267 520.273 253.891 520.696 253.891C521.119 253.891 521.496 254.267 521.496 254.691C521.496 255.114 521.119 255.49 520.696 255.49ZM520.696 254.267C520.461 254.267 520.273 254.456 520.273 254.691C520.273 254.926 520.461 255.114 520.696 255.114C520.931 255.114 521.119 254.926 521.119 254.691C521.119 254.456 520.931 254.267 520.696 254.267Z" fill="white"/>
<path d="M497.325 265.13L496.478 263.155L498.453 262.309L499.3 264.284L497.325 265.13ZM496.949 263.343L497.513 264.66L498.83 264.096L498.265 262.779L496.949 263.343Z" fill="white"/>
<path d="M511.667 265.977H509.504V263.814H511.667V265.977ZM509.88 265.6H511.291V264.19H509.88V265.6Z" fill="white"/>
<path d="M514.019 254.22H510.774V250.976H514.019V254.22ZM511.15 253.891H513.642V251.399H511.15V253.891Z" fill="white"/>
<path d="M495.679 268.892L493.845 268.704L494.033 266.87L495.867 267.058L495.679 268.892ZM494.221 268.375L495.35 268.469L495.444 267.34L494.315 267.246L494.221 268.375Z" fill="white"/>
<path d="M505.554 262.074L503.72 261.886L503.908 260.052L505.742 260.24L505.554 262.074ZM504.143 261.556L505.272 261.65L505.366 260.522L504.237 260.428L504.143 261.556Z" fill="white"/>
</g>
</g>
<g opacity="0.7">
<g filter="url(#filter1_f_25_38)">
<path d="M135.587 236.173L146.8 235.1L148.674 314.152C149.053 330.104 162.093 342.839 178.051 342.839H385.07V356.254C385.07 372.483 371.915 385.639 355.686 385.639H138.385C122.156 385.639 109 372.483 109 356.254V265.424C109 250.279 120.511 237.615 135.587 236.173Z" fill="url(#paint2_linear_25_38)"/>
</g>
<rect x="131.358" y="234.244" width="254.241" height="126.482" rx="19.8027" fill="white" stroke="#FFBC8F" stroke-width="1.27759"/>
<path d="M299.933 314.175C297.448 314.175 295.294 313.628 293.472 312.535C291.649 311.441 290.236 309.912 289.231 307.946C288.237 305.98 287.74 303.683 287.74 301.054C287.74 298.426 288.237 296.123 289.231 294.146C290.236 292.169 291.649 290.634 293.472 289.541C295.294 288.447 297.448 287.901 299.933 287.901C302.417 287.901 304.571 288.447 306.393 289.541C308.216 290.634 309.624 292.169 310.618 294.146C311.623 296.123 312.125 298.426 312.125 301.054C312.125 303.683 311.623 305.98 310.618 307.946C309.624 309.912 308.216 311.441 306.393 312.535C304.571 313.628 302.417 314.175 299.933 314.175ZM299.966 309.37C301.313 309.37 302.44 309 303.345 308.261C304.251 307.51 304.924 306.504 305.366 305.245C305.819 303.986 306.045 302.584 306.045 301.038C306.045 299.48 305.819 298.072 305.366 296.813C304.924 295.543 304.251 294.533 303.345 293.782C302.44 293.031 301.313 292.655 299.966 292.655C298.585 292.655 297.437 293.031 296.52 293.782C295.614 294.533 294.935 295.543 294.482 296.813C294.04 298.072 293.82 299.48 293.82 301.038C293.82 302.584 294.04 303.986 294.482 305.245C294.935 306.504 295.614 307.51 296.52 308.261C297.437 309 298.585 309.37 299.966 309.37Z" fill="black"/>
<path d="M270.743 323.75C268.589 323.75 266.739 323.457 265.193 322.872C263.647 322.298 262.404 321.525 261.466 320.553C260.527 319.581 259.875 318.504 259.511 317.322L264.911 316.014C265.154 316.511 265.508 317.002 265.972 317.488C266.436 317.985 267.06 318.394 267.844 318.714C268.639 319.045 269.638 319.211 270.842 319.211C272.543 319.211 273.951 318.797 275.067 317.968C276.182 317.151 276.74 315.804 276.74 313.926V309.105H276.442C276.132 309.724 275.679 310.359 275.083 311.011C274.498 311.662 273.719 312.209 272.747 312.651C271.786 313.092 270.577 313.313 269.119 313.313C267.164 313.313 265.392 312.855 263.801 311.938C262.222 311.011 260.963 309.63 260.024 307.797C259.097 305.952 258.633 303.644 258.633 300.872C258.633 298.078 259.097 295.72 260.024 293.798C260.963 291.865 262.228 290.402 263.818 289.408C265.408 288.403 267.181 287.901 269.136 287.901C270.627 287.901 271.853 288.155 272.814 288.663C273.785 289.16 274.559 289.762 275.133 290.468C275.707 291.164 276.143 291.821 276.442 292.44H276.773V288.232H282.687V314.092C282.687 316.268 282.168 318.068 281.13 319.492C280.092 320.917 278.672 321.983 276.872 322.69C275.072 323.397 273.029 323.75 270.743 323.75ZM270.792 308.608C272.063 308.608 273.145 308.299 274.039 307.681C274.934 307.062 275.613 306.173 276.077 305.014C276.541 303.854 276.773 302.462 276.773 300.839C276.773 299.237 276.541 297.835 276.077 296.631C275.624 295.427 274.951 294.494 274.056 293.831C273.172 293.158 272.085 292.821 270.792 292.821C269.456 292.821 268.341 293.169 267.446 293.864C266.551 294.56 265.878 295.516 265.425 296.73C264.972 297.934 264.746 299.304 264.746 300.839C264.746 302.396 264.972 303.76 265.425 304.931C265.889 306.09 266.568 306.996 267.463 307.648C268.368 308.288 269.478 308.608 270.792 308.608Z" fill="black"/>
<path d="M242.394 314.175C239.909 314.175 237.755 313.628 235.933 312.535C234.111 311.441 232.697 309.912 231.692 307.946C230.698 305.98 230.201 303.683 230.201 301.054C230.201 298.426 230.698 296.123 231.692 294.146C232.697 292.169 234.111 290.634 235.933 289.541C237.755 288.447 239.909 287.901 242.394 287.901C244.879 287.901 247.032 288.447 248.855 289.541C250.677 290.634 252.085 292.169 253.079 294.146C254.084 296.123 254.586 298.426 254.586 301.054C254.586 303.683 254.084 305.98 253.079 307.946C252.085 309.912 250.677 311.441 248.855 312.535C247.032 313.628 244.879 314.175 242.394 314.175ZM242.427 309.37C243.774 309.37 244.901 309 245.806 308.261C246.712 307.51 247.386 306.504 247.827 305.245C248.28 303.986 248.507 302.584 248.507 301.038C248.507 299.48 248.28 298.072 247.827 296.813C247.386 295.543 246.712 294.533 245.806 293.782C244.901 293.031 243.774 292.655 242.427 292.655C241.046 292.655 239.898 293.031 238.981 293.782C238.075 294.533 237.396 295.543 236.943 296.813C236.502 298.072 236.281 299.48 236.281 301.038C236.281 302.584 236.502 303.986 236.943 305.245C237.396 306.504 238.075 307.51 238.981 308.261C239.898 309 241.046 309.37 242.427 309.37Z" fill="black"/>
<path d="M205.136 313.678V279.75H211.282V308.526H226.225V313.678H205.136Z" fill="black"/>
</g>
<g opacity="0.7">
<g filter="url(#filter2_f_25_38)">
<path d="M838.939 236.173L850.152 235.1L852.027 314.152C852.405 330.104 865.446 342.839 881.403 342.839H1088.42V356.254C1088.42 372.483 1075.27 385.639 1059.04 385.639H841.737C825.508 385.639 812.353 372.483 812.353 356.254V265.424C812.353 250.279 823.863 237.615 838.939 236.173Z" fill="url(#paint3_linear_25_38)"/>
</g>
<rect x="835.311" y="234.244" width="254.241" height="126.482" rx="19.8027" fill="white" stroke="#FFBC8F" stroke-width="1.27759"/>
<path d="M1003.73 309.381C1001.25 309.381 999.095 308.834 997.272 307.741C995.45 306.648 994.037 305.118 993.031 303.152C992.038 301.186 991.541 298.889 991.541 296.26C991.541 293.632 992.038 291.329 993.031 289.352C994.037 287.375 995.45 285.84 997.272 284.747C999.095 283.654 1001.25 283.107 1003.73 283.107C1006.22 283.107 1008.37 283.654 1010.19 284.747C1012.02 285.84 1013.42 287.375 1014.42 289.352C1015.42 291.329 1015.93 293.632 1015.93 296.26C1015.93 298.889 1015.42 301.186 1014.42 303.152C1013.42 305.118 1012.02 306.648 1010.19 307.741C1008.37 308.834 1006.22 309.381 1003.73 309.381ZM1003.77 304.577C1005.11 304.577 1006.24 304.207 1007.15 303.467C1008.05 302.716 1008.73 301.711 1009.17 300.452C1009.62 299.193 1009.85 297.79 1009.85 296.244C1009.85 294.687 1009.62 293.279 1009.17 292.02C1008.73 290.749 1008.05 289.739 1007.15 288.988C1006.24 288.237 1005.11 287.861 1003.77 287.861C1002.39 287.861 1001.24 288.237 1000.32 288.988C999.415 289.739 998.736 290.749 998.283 292.02C997.841 293.279 997.62 294.687 997.62 296.244C997.62 297.79 997.841 299.193 998.283 300.452C998.736 301.711 999.415 302.716 1000.32 303.467C1001.24 304.207 1002.39 304.577 1003.77 304.577Z" fill="black"/>
<path d="M974.544 318.956C972.39 318.956 970.54 318.664 968.994 318.078C967.448 317.504 966.205 316.731 965.266 315.759C964.328 314.787 963.676 313.71 963.312 312.529L968.712 311.22C968.955 311.717 969.309 312.208 969.772 312.694C970.236 313.191 970.86 313.6 971.644 313.92C972.44 314.251 973.439 314.417 974.643 314.417C976.344 314.417 977.752 314.003 978.867 313.175C979.983 312.357 980.541 311.01 980.541 309.132V304.312H980.242C979.933 304.93 979.48 305.565 978.884 306.217C978.299 306.868 977.52 307.415 976.548 307.857C975.587 308.299 974.378 308.52 972.92 308.52C970.965 308.52 969.193 308.061 967.602 307.145C966.023 306.217 964.764 304.836 963.825 303.003C962.897 301.159 962.434 298.85 962.434 296.078C962.434 293.284 962.897 290.926 963.825 289.004C964.764 287.072 966.028 285.608 967.619 284.614C969.209 283.609 970.982 283.107 972.937 283.107C974.428 283.107 975.653 283.361 976.614 283.869C977.586 284.366 978.359 284.968 978.934 285.675C979.508 286.37 979.944 287.028 980.242 287.646H980.574V283.438H986.488V309.298C986.488 311.474 985.969 313.274 984.931 314.699C983.892 316.123 982.473 317.189 980.673 317.896C978.873 318.603 976.83 318.956 974.544 318.956ZM974.593 303.815C975.863 303.815 976.946 303.505 977.84 302.887C978.735 302.269 979.414 301.379 979.878 300.22C980.342 299.06 980.574 297.669 980.574 296.045C980.574 294.444 980.342 293.041 979.878 291.837C979.425 290.633 978.751 289.7 977.857 289.038C976.973 288.364 975.885 288.027 974.593 288.027C973.257 288.027 972.141 288.375 971.247 289.071C970.352 289.767 969.679 290.722 969.226 291.937C968.773 293.141 968.547 294.51 968.547 296.045C968.547 297.602 968.773 298.966 969.226 300.137C969.69 301.297 970.369 302.202 971.263 302.854C972.169 303.494 973.279 303.815 974.593 303.815Z" fill="black"/>
<path d="M946.195 309.381C943.71 309.381 941.556 308.834 939.734 307.741C937.912 306.648 936.498 305.118 935.493 303.152C934.499 301.186 934.002 298.889 934.002 296.26C934.002 293.632 934.499 291.329 935.493 289.352C936.498 287.375 937.912 285.84 939.734 284.747C941.556 283.654 943.71 283.107 946.195 283.107C948.68 283.107 950.833 283.654 952.656 284.747C954.478 285.84 955.886 287.375 956.88 289.352C957.885 291.329 958.387 293.632 958.387 296.26C958.387 298.889 957.885 301.186 956.88 303.152C955.886 305.118 954.478 306.648 952.656 307.741C950.833 308.834 948.68 309.381 946.195 309.381ZM946.228 304.577C947.575 304.577 948.702 304.207 949.607 303.467C950.513 302.716 951.187 301.711 951.628 300.452C952.081 299.193 952.308 297.79 952.308 296.244C952.308 294.687 952.081 293.279 951.628 292.02C951.187 290.749 950.513 289.739 949.607 288.988C948.702 288.237 947.575 287.861 946.228 287.861C944.847 287.861 943.699 288.237 942.782 288.988C941.876 289.739 941.197 290.749 940.744 292.02C940.303 293.279 940.082 294.687 940.082 296.244C940.082 297.79 940.303 299.193 940.744 300.452C941.197 301.711 941.876 302.716 942.782 303.467C943.699 304.207 944.847 304.577 946.228 304.577Z" fill="black"/>
<path d="M908.937 308.884V274.956H915.083V303.732H930.026V308.884H908.937Z" fill="black"/>
</g>
<g opacity="0.7">
<g filter="url(#filter3_f_25_38)">
<path d="M329.781 426.534L340.994 425.461L342.868 504.513C343.247 520.466 356.288 533.201 372.245 533.201H579.265V546.615C579.265 562.844 566.109 576 549.88 576H332.579C316.35 576 303.194 562.844 303.194 546.615V455.785C303.194 440.64 314.705 427.976 329.781 426.534Z" fill="url(#paint4_linear_25_38)"/>
</g>
<rect x="325.552" y="424.605" width="254.241" height="126.482" rx="19.8027" fill="white" stroke="#FFBC8F" stroke-width="1.27759"/>
<path d="M493.974 500.484C491.489 500.484 489.335 499.937 487.513 498.843C485.691 497.75 484.277 496.22 483.272 494.255C482.278 492.289 481.781 489.992 481.781 487.363C481.781 484.735 482.278 482.432 483.272 480.455C484.277 478.478 485.691 476.943 487.513 475.849C489.335 474.756 491.489 474.209 493.974 474.209C496.459 474.209 498.613 474.756 500.435 475.849C502.257 476.943 503.665 478.478 504.659 480.455C505.664 482.432 506.167 484.735 506.167 487.363C506.167 489.992 505.664 492.289 504.659 494.255C503.665 496.22 502.257 497.75 500.435 498.843C498.613 499.937 496.459 500.484 493.974 500.484ZM494.007 495.679C495.355 495.679 496.481 495.309 497.387 494.569C498.292 493.818 498.966 492.813 499.408 491.554C499.861 490.295 500.087 488.893 500.087 487.346C500.087 485.789 499.861 484.381 499.408 483.122C498.966 481.852 498.292 480.841 497.387 480.09C496.481 479.339 495.355 478.964 494.007 478.964C492.627 478.964 491.478 479.339 490.561 480.09C489.656 480.841 488.977 481.852 488.524 483.122C488.082 484.381 487.861 485.789 487.861 487.346C487.861 488.893 488.082 490.295 488.524 491.554C488.977 492.813 489.656 493.818 490.561 494.569C491.478 495.309 492.627 495.679 494.007 495.679Z" fill="black"/>
<path d="M464.784 510.059C462.631 510.059 460.781 509.766 459.235 509.181C457.688 508.606 456.446 507.833 455.507 506.862C454.568 505.89 453.917 504.813 453.552 503.631L458.953 502.322C459.196 502.819 459.549 503.311 460.013 503.797C460.477 504.294 461.101 504.702 461.885 505.023C462.68 505.354 463.68 505.52 464.884 505.52C466.584 505.52 467.993 505.105 469.108 504.277C470.224 503.46 470.781 502.113 470.781 500.235V495.414H470.483C470.174 496.033 469.721 496.668 469.125 497.319C468.539 497.971 467.761 498.518 466.789 498.959C465.828 499.401 464.619 499.622 463.161 499.622C461.206 499.622 459.433 499.164 457.843 498.247C456.264 497.319 455.005 495.939 454.066 494.105C453.138 492.261 452.674 489.953 452.674 487.181C452.674 484.387 453.138 482.029 454.066 480.107C455.005 478.174 456.269 476.711 457.86 475.717C459.45 474.712 461.223 474.209 463.177 474.209C464.668 474.209 465.894 474.463 466.855 474.971C467.827 475.468 468.6 476.07 469.174 476.777C469.749 477.473 470.185 478.13 470.483 478.749H470.814V474.541H476.729V500.401C476.729 502.576 476.209 504.377 475.171 505.801C474.133 507.226 472.714 508.292 470.914 508.999C469.114 509.705 467.07 510.059 464.784 510.059ZM464.834 494.917C466.104 494.917 467.186 494.608 468.081 493.99C468.976 493.371 469.655 492.482 470.119 491.322C470.582 490.163 470.814 488.771 470.814 487.148C470.814 485.546 470.582 484.144 470.119 482.94C469.666 481.736 468.992 480.803 468.098 480.14C467.214 479.466 466.126 479.13 464.834 479.13C463.498 479.13 462.382 479.477 461.488 480.173C460.593 480.869 459.919 481.824 459.466 483.039C459.014 484.243 458.787 485.613 458.787 487.148C458.787 488.705 459.014 490.069 459.466 491.24C459.93 492.399 460.61 493.305 461.504 493.956C462.41 494.597 463.52 494.917 464.834 494.917Z" fill="black"/>
<path d="M436.435 500.484C433.95 500.484 431.797 499.937 429.974 498.843C428.152 497.75 426.738 496.22 425.733 494.255C424.739 492.289 424.242 489.992 424.242 487.363C424.242 484.735 424.739 482.432 425.733 480.455C426.738 478.478 428.152 476.943 429.974 475.849C431.797 474.756 433.95 474.209 436.435 474.209C438.92 474.209 441.074 474.756 442.896 475.849C444.718 476.943 446.126 478.478 447.12 480.455C448.125 482.432 448.628 484.735 448.628 487.363C448.628 489.992 448.125 492.289 447.12 494.255C446.126 496.22 444.718 497.75 442.896 498.843C441.074 499.937 438.92 500.484 436.435 500.484ZM436.468 495.679C437.816 495.679 438.942 495.309 439.848 494.569C440.753 493.818 441.427 492.813 441.869 491.554C442.322 490.295 442.548 488.893 442.548 487.346C442.548 485.789 442.322 484.381 441.869 483.122C441.427 481.852 440.753 480.841 439.848 480.09C438.942 479.339 437.816 478.964 436.468 478.964C435.088 478.964 433.939 479.339 433.023 480.09C432.117 480.841 431.438 481.852 430.985 483.122C430.543 484.381 430.322 485.789 430.322 487.346C430.322 488.893 430.543 490.295 430.985 491.554C431.438 492.813 432.117 493.818 433.023 494.569C433.939 495.309 435.088 495.679 436.468 495.679Z" fill="black"/>
<path d="M399.178 499.987V466.059H405.324V494.834H420.267V499.987H399.178Z" fill="black"/>
</g>
<g opacity="0.7">
<g filter="url(#filter4_f_25_38)">
<path d="M645.346 426.534L656.559 425.461L658.434 504.513C658.812 520.466 671.853 533.201 687.81 533.201H894.83V546.615C894.83 562.844 881.674 576 865.445 576H648.144C631.915 576 618.759 562.844 618.759 546.615V455.785C618.759 440.64 630.27 427.976 645.346 426.534Z" fill="url(#paint5_linear_25_38)"/>
</g>
<rect x="641.117" y="424.605" width="254.241" height="126.482" rx="19.8027" fill="white" stroke="#FFBC8F" stroke-width="1.27759"/>
<path d="M809.539 500.271C807.054 500.271 804.901 499.724 803.078 498.631C801.256 497.537 799.842 496.008 798.837 494.042C797.843 492.076 797.346 489.779 797.346 487.15C797.346 484.522 797.843 482.219 798.837 480.242C799.842 478.265 801.256 476.73 803.078 475.637C804.901 474.543 807.054 473.997 809.539 473.997C812.024 473.997 814.178 474.543 816 475.637C817.822 476.73 819.23 478.265 820.224 480.242C821.229 482.219 821.732 484.522 821.732 487.15C821.732 489.779 821.229 492.076 820.224 494.042C819.23 496.008 817.822 497.537 816 498.631C814.178 499.724 812.024 500.271 809.539 500.271ZM809.572 495.467C810.92 495.467 812.046 495.097 812.952 494.357C813.857 493.606 814.531 492.601 814.973 491.342C815.426 490.083 815.652 488.68 815.652 487.134C815.652 485.577 815.426 484.168 814.973 482.909C814.531 481.639 813.857 480.629 812.952 479.878C812.046 479.127 810.92 478.751 809.572 478.751C808.192 478.751 807.043 479.127 806.127 479.878C805.221 480.629 804.542 481.639 804.089 482.909C803.647 484.168 803.426 485.577 803.426 487.134C803.426 488.68 803.647 490.083 804.089 491.342C804.542 492.601 805.221 493.606 806.127 494.357C807.043 495.097 808.192 495.467 809.572 495.467Z" fill="black"/>
<path d="M780.349 509.846C778.196 509.846 776.346 509.553 774.8 508.968C773.254 508.394 772.011 507.621 771.072 506.649C770.134 505.677 769.482 504.6 769.118 503.418L774.518 502.11C774.761 502.607 775.115 503.098 775.578 503.584C776.042 504.081 776.666 504.49 777.45 504.81C778.246 505.141 779.245 505.307 780.449 505.307C782.15 505.307 783.558 504.893 784.673 504.065C785.789 503.247 786.346 501.9 786.346 500.022V495.202H786.048C785.739 495.82 785.286 496.455 784.69 497.107C784.104 497.758 783.326 498.305 782.354 498.747C781.393 499.189 780.184 499.409 778.726 499.409C776.771 499.409 774.999 498.951 773.408 498.034C771.829 497.107 770.57 495.726 769.631 493.893C768.703 492.048 768.24 489.74 768.24 486.968C768.24 484.174 768.703 481.816 769.631 479.894C770.57 477.962 771.834 476.498 773.425 475.504C775.015 474.499 776.788 473.997 778.743 473.997C780.233 473.997 781.459 474.251 782.42 474.759C783.392 475.256 784.165 475.858 784.74 476.565C785.314 477.26 785.75 477.917 786.048 478.536H786.38V474.328H792.294V500.188C792.294 502.364 791.775 504.164 790.736 505.589C789.698 507.013 788.279 508.079 786.479 508.786C784.679 509.493 782.636 509.846 780.349 509.846ZM780.399 494.705C781.669 494.705 782.752 494.395 783.646 493.777C784.541 493.158 785.22 492.269 785.684 491.11C786.148 489.95 786.38 488.559 786.38 486.935C786.38 485.334 786.148 483.931 785.684 482.727C785.231 481.523 784.557 480.59 783.663 479.927C782.779 479.254 781.691 478.917 780.399 478.917C779.063 478.917 777.947 479.265 777.053 479.961C776.158 480.656 775.484 481.612 775.032 482.827C774.579 484.03 774.352 485.4 774.352 486.935C774.352 488.492 774.579 489.856 775.032 491.027C775.496 492.187 776.175 493.092 777.069 493.744C777.975 494.384 779.085 494.705 780.399 494.705Z" fill="black"/>
<path d="M752 500.271C749.515 500.271 747.362 499.724 745.54 498.631C743.717 497.537 742.304 496.008 741.299 494.042C740.305 492.076 739.808 489.779 739.808 487.15C739.808 484.522 740.305 482.219 741.299 480.242C742.304 478.265 743.717 476.73 745.54 475.637C747.362 474.543 749.515 473.997 752 473.997C754.485 473.997 756.639 474.543 758.461 475.637C760.284 476.73 761.692 478.265 762.686 480.242C763.691 482.219 764.193 484.522 764.193 487.15C764.193 489.779 763.691 492.076 762.686 494.042C761.692 496.008 760.284 497.537 758.461 498.631C756.639 499.724 754.485 500.271 752 500.271ZM752.034 495.467C753.381 495.467 754.507 495.097 755.413 494.357C756.319 493.606 756.992 492.601 757.434 491.342C757.887 490.083 758.113 488.68 758.113 487.134C758.113 485.577 757.887 484.168 757.434 482.909C756.992 481.639 756.319 480.629 755.413 479.878C754.507 479.127 753.381 478.751 752.034 478.751C750.653 478.751 749.504 479.127 748.588 479.878C747.682 480.629 747.003 481.639 746.55 482.909C746.108 484.168 745.887 485.577 745.887 487.134C745.887 488.68 746.108 490.083 746.55 491.342C747.003 492.601 747.682 493.606 748.588 494.357C749.504 495.097 750.653 495.467 752.034 495.467Z" fill="black"/>
<path d="M714.743 499.774V465.846H720.889V494.622H735.832V499.774H714.743Z" fill="black"/>
</g>
</g>
<defs>
<filter id="filter0_f_25_38" x="406.851" y="178.17" width="383.417" height="225.184" filterUnits="userSpaceOnUse" color-interpolation-filters="sRGB">
<feFlood flood-opacity="0" result="BackgroundImageFix"/>
<feBlend mode="normal" in="SourceGraphic" in2="BackgroundImageFix" result="shape"/>
<feGaussianBlur stdDeviation="8.85726" result="effect1_foregroundBlur_25_38"/>
</filter>
<filter id="filter1_f_25_38" x="94.9465" y="221.047" width="304.177" height="178.646" filterUnits="userSpaceOnUse" color-interpolation-filters="sRGB">
<feFlood flood-opacity="0" result="BackgroundImageFix"/>
<feBlend mode="normal" in="SourceGraphic" in2="BackgroundImageFix" result="shape"/>
<feGaussianBlur stdDeviation="7.02676" result="effect1_foregroundBlur_25_38"/>
</filter>
<filter id="filter2_f_25_38" x="798.299" y="221.047" width="304.177" height="178.646" filterUnits="userSpaceOnUse" color-interpolation-filters="sRGB">
<feFlood flood-opacity="0" result="BackgroundImageFix"/>
<feBlend mode="normal" in="SourceGraphic" in2="BackgroundImageFix" result="shape"/>
<feGaussianBlur stdDeviation="7.02676" result="effect1_foregroundBlur_25_38"/>
</filter>
<filter id="filter3_f_25_38" x="289.141" y="411.408" width="304.178" height="178.646" filterUnits="userSpaceOnUse" color-interpolation-filters="sRGB">
<feFlood flood-opacity="0" result="BackgroundImageFix"/>
<feBlend mode="normal" in="SourceGraphic" in2="BackgroundImageFix" result="shape"/>
<feGaussianBlur stdDeviation="7.02676" result="effect1_foregroundBlur_25_38"/>
</filter>
<filter id="filter4_f_25_38" x="604.706" y="411.408" width="304.177" height="178.646" filterUnits="userSpaceOnUse" color-interpolation-filters="sRGB">
<feFlood flood-opacity="0" result="BackgroundImageFix"/>
<feBlend mode="normal" in="SourceGraphic" in2="BackgroundImageFix" result="shape"/>
<feGaussianBlur stdDeviation="7.02676" result="effect1_foregroundBlur_25_38"/>
</filter>
<radialGradient id="paint0_radial_25_38" cx="0" cy="0" r="1" gradientUnits="userSpaceOnUse" gradientTransform="translate(600.5 427.5) rotate(90) scale(317.991 469.665)">
<stop offset="0.42999" stop-color="#D9D9D9"/>
<stop offset="1" stop-color="#D9D9D9" stop-opacity="0"/>
</radialGradient>
<linearGradient id="paint1_linear_25_38" x1="446.941" y1="264.87" x2="726.598" y2="434.346" gradientUnits="userSpaceOnUse">
<stop stop-color="#FDDFCE"/>
<stop offset="1" stop-color="#FBBF9D"/>
</linearGradient>
<linearGradient id="paint2_linear_25_38" x1="126.752" y1="289.829" x2="348.613" y2="424.28" gradientUnits="userSpaceOnUse">
<stop stop-color="#FDDFCE"/>
<stop offset="1" stop-color="#FBBF9D"/>
</linearGradient>
<linearGradient id="paint3_linear_25_38" x1="830.104" y1="289.829" x2="1051.97" y2="424.28" gradientUnits="userSpaceOnUse">
<stop stop-color="#FDDFCE"/>
<stop offset="1" stop-color="#FBBF9D"/>
</linearGradient>
<linearGradient id="paint4_linear_25_38" x1="320.946" y1="480.19" x2="542.807" y2="614.641" gradientUnits="userSpaceOnUse">
<stop stop-color="#FDDFCE"/>
<stop offset="1" stop-color="#FBBF9D"/>
</linearGradient>
<linearGradient id="paint5_linear_25_38" x1="636.511" y1="480.19" x2="858.372" y2="614.641" gradientUnits="userSpaceOnUse">
<stop stop-color="#FDDFCE"/>
<stop offset="1" stop-color="#FBBF9D"/>
</linearGradient>
<clipPath id="clip0_25_38">
<rect width="1200" height="675" fill="white"/>
</clipPath>
<clipPath id="clip1_25_38">
<rect width="270.407" height="49" fill="white" transform="translate(477.167 249.988)"/>
</clipPath>
</defs>
</svg>
