<svg width="24" height="24" viewBox="0 0 24 24" fill="none" xmlns="http://www.w3.org/2000/svg">
<path fill-rule="evenodd" clip-rule="evenodd" d="M12 5C12.5523 5 13 5.44772 13 6V18C13 18.5523 12.5523 19 12 19C11.4477 19 11 18.5523 11 18V6C11 5.44772 11.4477 5 12 5Z" fill="black"/>
<path fill-rule="evenodd" clip-rule="evenodd" d="M18.062 8.5C18.3382 8.97829 18.1743 9.58988 17.696 9.86603L7.30401 15.866C6.82572 16.1422 6.21413 15.9783 5.93798 15.5C5.66183 15.0217 5.8257 14.4101 6.30399 14.134L16.696 8.13399C17.1743 7.85784 17.7859 8.02171 18.062 8.5Z" fill="black"/>
<path fill-rule="evenodd" clip-rule="evenodd" d="M5.93798 8.5C6.21413 8.02171 6.82572 7.85784 7.30401 8.13399L17.696 14.134C18.1743 14.4101 18.3382 15.0217 18.062 15.5C17.7859 15.9783 17.1743 16.1422 16.696 15.866L6.30399 9.86603C5.8257 9.58988 5.66183 8.97829 5.93798 8.5Z" fill="black"/>
</svg>
