<svg width="24" height="24" viewBox="0 0 24 24" fill="none" xmlns="http://www.w3.org/2000/svg">
<path fill-rule="evenodd" clip-rule="evenodd" d="M12 3C7.02944 3 3 7.02944 3 12C3 16.9706 7.02944 21 12 21C16.9706 21 21 16.9706 21 12C21 7.02944 16.9706 3 12 3ZM1 12C1 5.92487 5.92487 1 12 1C18.0751 1 23 5.92487 23 12C23 18.0751 18.0751 23 12 23C5.92487 23 1 18.0751 1 12Z" fill="black"/>
<path fill-rule="evenodd" clip-rule="evenodd" d="M8.47431 14.1913C9.27225 13.6109 10.4745 13 12 13C13.5255 13 14.7277 13.6109 15.5257 14.1913C15.9265 14.4828 16.2365 14.7743 16.4485 14.9956C16.555 15.1067 16.638 15.2013 16.6966 15.2712C16.726 15.3062 16.7493 15.3351 16.7666 15.3568C16.7752 15.3677 16.7823 15.3769 16.7879 15.3841C16.7892 15.3858 16.7905 15.3875 16.7916 15.389C16.7929 15.3906 16.794 15.3921 16.7951 15.3935C16.7961 15.3948 16.797 15.396 16.7978 15.3971L16.799 15.3987C16.7992 15.399 16.8 15.4 16 16L16.8 15.4C17.1314 15.8418 17.0418 16.4686 16.6 16.8C16.1595 17.1304 15.5351 17.0424 15.203 16.604C15.2023 16.6031 15.2008 16.6012 15.1985 16.5982C15.1925 16.5907 15.1812 16.5766 15.1647 16.5569C15.1315 16.5174 15.0778 16.4558 15.0046 16.3794C14.8573 16.2257 14.6359 16.0172 14.3493 15.8087C13.7722 15.3891 12.9745 15 12 15C11.0255 15 10.2277 15.3891 9.65065 15.8087C9.36405 16.0172 9.14271 16.2257 8.99541 16.3794C8.92217 16.4558 8.86844 16.5174 8.83529 16.5569C8.81875 16.5766 8.80744 16.5907 8.80148 16.5982C8.79915 16.6012 8.79765 16.6031 8.79698 16.604C8.46484 17.0424 7.84048 17.1304 7.39998 16.8C6.95815 16.4686 6.86861 15.8418 7.19998 15.4L7.99998 16C7.19998 15.4 7.19973 15.4003 7.19998 15.4L7.20099 15.3987L7.20214 15.3971C7.20296 15.396 7.20388 15.3948 7.20488 15.3935C7.2069 15.3909 7.20931 15.3877 7.21209 15.3841C7.21766 15.3769 7.22477 15.3677 7.23339 15.3568C7.25063 15.3351 7.27399 15.3062 7.30334 15.2712C7.36199 15.2013 7.44498 15.1067 7.55143 14.9956C7.76351 14.7743 8.07341 14.4828 8.47431 14.1913ZM15.2004 16.6006C15.2003 16.6004 15.2006 16.6008 15.2004 16.6006V16.6006Z" fill="black"/>
<path fill-rule="evenodd" clip-rule="evenodd" d="M6.57155 7.62864C6.77667 7.11586 7.35864 6.86644 7.87142 7.07155L10.3714 8.07155C10.8842 8.27667 11.1336 8.85864 10.9285 9.37142C10.7234 9.8842 10.1414 10.1336 9.62864 9.92851L7.12864 8.92851C6.61586 8.72339 6.36644 8.14142 6.57155 7.62864Z" fill="black"/>
<path fill-rule="evenodd" clip-rule="evenodd" d="M17.4285 7.62864C17.6336 8.14142 17.3842 8.72339 16.8714 8.92851L14.3714 9.92851C13.8586 10.1336 13.2767 9.8842 13.0716 9.37142C12.8664 8.85864 13.1159 8.27667 13.6286 8.07155L16.1286 7.07155C16.6414 6.86644 17.2234 7.11586 17.4285 7.62864Z" fill="black"/>
<path fill-rule="evenodd" clip-rule="evenodd" d="M8 10C8 9.44772 8.44772 9 9 9H9.01C9.56228 9 10.01 9.44772 10.01 10C10.01 10.5523 9.56228 11 9.01 11H9C8.44772 11 8 10.5523 8 10Z" fill="black"/>
<path fill-rule="evenodd" clip-rule="evenodd" d="M14 10C14 9.44772 14.4477 9 15 9H15.01C15.5623 9 16.01 9.44772 16.01 10C16.01 10.5523 15.5623 11 15.01 11H15C14.4477 11 14 10.5523 14 10Z" fill="black"/>
</svg>
