<svg width="24" height="24" viewBox="0 0 24 24" fill="none" xmlns="http://www.w3.org/2000/svg">
<path fill-rule="evenodd" clip-rule="evenodd" d="M7 15C6.44771 15 6 15.4477 6 16V18C6 18.5523 6.44771 19 7 19H17C17.5523 19 18 18.5523 18 18V16C18 15.4477 17.5523 15 17 15H7ZM4 16C4 14.3431 5.34315 13 7 13H17C18.6569 13 20 14.3431 20 16V18C20 19.6569 18.6569 21 17 21H7C5.34315 21 4 19.6569 4 18V16Z" fill="black"/>
<path fill-rule="evenodd" clip-rule="evenodd" d="M9 5C8.44771 5 8 5.44772 8 6V8C8 8.55228 8.44771 9 9 9H15C15.5523 9 16 8.55228 16 8V6C16 5.44772 15.5523 5 15 5H9ZM6 6C6 4.34315 7.34315 3 9 3H15C16.6569 3 18 4.34315 18 6V8C18 9.65685 16.6569 11 15 11H9C7.34315 11 6 9.65685 6 8V6Z" fill="black"/>
<path fill-rule="evenodd" clip-rule="evenodd" d="M1 20C1 19.4477 1.44772 19 2 19H22C22.5523 19 23 19.4477 23 20C23 20.5523 22.5523 21 22 21H2C1.44772 21 1 20.5523 1 20Z" fill="black"/>
<path fill-rule="evenodd" clip-rule="evenodd" d="M1 10C1 9.44772 1.44772 9 2 9H22C22.5523 9 23 9.44772 23 10C23 10.5523 22.5523 11 22 11H2C1.44772 11 1 10.5523 1 10Z" fill="black"/>
</svg>
