<svg width="24" height="24" viewBox="0 0 24 24" fill="none" xmlns="http://www.w3.org/2000/svg">
<path d="M14.2929 8.29297C14.6834 7.90244 15.3164 7.90244 15.707 8.29297C16.0975 8.68349 16.0975 9.31651 15.707 9.70703L14.207 11.207C13.8164 11.5976 13.1834 11.5976 12.7929 11.207C12.4024 10.8165 12.4024 10.1835 12.7929 9.79297L14.2929 8.29297Z" fill="black"/>
<path d="M3 19V4C3 3.44772 3.44772 3 4 3C4.55228 3 5 3.44772 5 4V19H20C20.5523 19 21 19.4477 21 20C21 20.5523 20.5523 21 20 21H5C4.46957 21 3.96101 20.7891 3.58594 20.4141C3.21087 20.039 3 19.5304 3 19Z" fill="black"/>
<path d="M5.29289 17.293C5.68341 16.9025 6.31643 16.9024 6.70695 17.293C7.09745 17.6835 7.09745 18.3165 6.70695 18.707L4.99992 20.4141C4.6094 20.8046 3.97646 20.8046 3.58594 20.4141C3.19542 20.0235 3.19535 19.3905 3.58585 19L5.29289 17.293Z" fill="black"/>
<path d="M9.79289 12.793C10.1834 12.4024 10.8164 12.4024 11.207 12.793C11.5975 13.1835 11.5975 13.8165 11.207 14.207L9.70696 15.707C9.31643 16.0976 8.68342 16.0976 8.29289 15.707C7.90237 15.3165 7.90237 14.6835 8.29289 14.293L9.79289 12.793Z" fill="black"/>
</svg>
