<svg width="24" height="24" viewBox="0 0 24 24" fill="none" xmlns="http://www.w3.org/2000/svg">
<path fill-rule="evenodd" clip-rule="evenodd" d="M1.29289 1.29289C1.68342 0.902369 2.31658 0.902369 2.70711 1.29289L4.70681 3.2926C4.70691 3.2927 4.70701 3.29279 4.70711 3.29289C4.70721 3.29299 4.7073 3.29309 4.7074 3.29319L7.56777 6.15355C7.57349 6.15914 7.57915 6.1648 7.58476 6.17055L18.8294 17.4152C18.8352 17.4208 18.8409 17.4265 18.8465 17.4323L22.7071 21.2929C23.0976 21.6834 23.0976 22.3166 22.7071 22.7071C22.3166 23.0976 21.6834 23.0976 21.2929 22.7071L18.1549 19.5691C17.5142 20.1791 16.7857 20.6926 15.9918 21.0917C14.8698 21.6557 13.6422 21.9787 12.3879 22.0399C11.1337 22.101 9.88047 21.8991 8.70894 21.4469C7.83881 21.1111 7.02804 20.6428 6.30464 20.0603L4.71781 21.6962C4.33328 22.0927 3.70019 22.1023 3.30376 21.7178C2.90732 21.3333 2.89767 20.7002 3.28219 20.3038L4.89572 18.6403C4.33358 17.9309 3.8804 17.1392 3.55308 16.2911C3.10094 15.1195 2.89896 13.8663 2.96014 12.6121C3.02132 11.3578 3.3443 10.1302 3.90832 9.00825C4.30742 8.21434 4.82095 7.48576 5.43086 6.84507L4 5.41421L2.70711 6.70711C2.31658 7.09763 1.68342 7.09763 1.29289 6.70711C0.902369 6.31658 0.902369 5.68342 1.29289 5.29289L2.58579 4L1.29289 2.70711C0.902369 2.31658 0.902369 1.68342 1.29289 1.29289ZM6.84562 8.25984C6.38606 8.74944 5.99825 9.30378 5.69524 9.90653C5.25656 10.7792 5.00535 11.734 4.95777 12.7095C4.91018 13.6851 5.06728 14.6598 5.41894 15.5709C5.75634 16.4452 6.26567 17.2423 6.91636 17.9155C6.9299 17.9273 6.9432 17.9395 6.95624 17.9522C6.97984 17.9751 7.00207 17.9989 7.02292 18.0234C7.70885 18.7029 8.52804 19.2333 9.42905 19.5811C10.3402 19.9327 11.3149 20.0898 12.2905 20.0422C13.266 19.9946 14.2208 19.7434 15.0935 19.3048C15.6962 19.0018 16.2506 18.6139 16.7402 18.1544L6.84562 8.25984ZM18.2929 2.29289C18.6834 1.90237 19.3166 1.90237 19.7071 2.29289L22.7071 5.29289C23.0976 5.68342 23.0976 6.31658 22.7071 6.70711C22.3166 7.09763 21.6834 7.09763 21.2929 6.70711L18.2929 3.70711C17.9024 3.31658 17.9024 2.68342 18.2929 2.29289ZM10.594 4.11224C11.9962 3.89079 13.431 4.0042 14.781 4.44318C16.131 4.88217 17.3581 5.63429 18.3619 6.63811C19.3657 7.64192 20.1178 8.86896 20.5568 10.219C20.9958 11.569 21.1092 13.0038 20.8878 14.406C20.8016 14.9515 20.2895 15.3239 19.744 15.2378C19.1985 15.1516 18.8261 14.6395 18.9122 14.094C19.0845 13.0034 18.9963 11.8875 18.6548 10.8375C18.3134 9.78743 17.7284 8.83307 16.9477 8.05232C16.1669 7.27157 15.2126 6.68659 14.1625 6.34516C13.1125 6.00372 11.9966 5.91552 10.906 6.08776C10.3605 6.17391 9.84839 5.80152 9.76224 5.25599C9.67609 4.71047 10.0485 4.19839 10.594 4.11224Z" fill="black"/>
</svg>
