<svg width="24" height="24" viewBox="0 0 24 24" fill="none" xmlns="http://www.w3.org/2000/svg">
<path fill-rule="evenodd" clip-rule="evenodd" d="M8.25 1.25C8.46637 1.08772 8.72954 1 9 1C9.27046 1 9.53363 1.08772 9.75 1.25C9.96637 1.41228 10.1243 1.64035 10.2 1.9C10.2009 1.90314 10.2018 1.90628 10.2027 1.90942L15.0001 18.9783L16.6271 13.19C16.8041 12.5588 17.183 12.0029 17.7058 11.6075C18.2283 11.2122 18.8658 10.9989 19.5209 11H22C22.5523 11 23 11.4477 23 12C23 12.5523 22.5523 13 22 13H19.52L19.5179 13C19.2993 12.9995 19.0867 13.0707 18.9124 13.2025C18.7382 13.3343 18.6119 13.5196 18.5529 13.73L16.2027 22.0906C16.2018 22.0937 16.2009 22.0969 16.2 22.1C16.1243 22.3596 15.9664 22.5877 15.75 22.75C15.5336 22.9123 15.2705 23 15 23C14.7295 23 14.4664 22.9123 14.25 22.75C14.0336 22.5877 13.8757 22.3596 13.8 22.1C13.7991 22.0969 13.7982 22.0937 13.7973 22.0906L8.99995 5.02173L7.37286 10.81C7.19656 11.4387 6.81993 11.9928 6.30016 12.388C5.78038 12.7833 5.14584 12.9981 4.49286 13L4.49 13H2C1.44772 13 1 12.5523 1 12C1 11.4477 1.44772 11 2 11H4.48837C4.70559 10.9991 4.91664 10.9275 5.08957 10.796C5.26283 10.6643 5.38837 10.4796 5.44714 10.27L7.79731 1.90939C7.79819 1.90625 7.79909 1.90312 7.8 1.9C7.87573 1.64035 8.03363 1.41228 8.25 1.25Z" fill="black"/>
</svg>
