<svg width="24" height="24" viewBox="0 0 24 24" fill="none" xmlns="http://www.w3.org/2000/svg">
<path fill-rule="evenodd" clip-rule="evenodd" d="M7.44719 1.10556C7.94117 1.35255 8.14139 1.95323 7.8944 2.4472L2.8944 12.4472C2.64741 12.9412 2.04674 13.1414 1.55276 12.8944C1.05878 12.6474 0.858558 12.0468 1.10555 11.5528L6.10555 1.55278C6.35254 1.0588 6.95321 0.858574 7.44719 1.10556Z" fill="black"/>
<path fill-rule="evenodd" clip-rule="evenodd" d="M12.4472 1.10556C12.9412 1.35255 13.1414 1.95323 12.8944 2.4472L7.8944 12.4472C7.64741 12.9412 7.04674 13.1414 6.55276 12.8944C6.05878 12.6474 5.85856 12.0468 6.10555 11.5528L11.1055 1.55278C11.3525 1.0588 11.9532 0.858574 12.4472 1.10556Z" fill="black"/>
<path fill-rule="evenodd" clip-rule="evenodd" d="M17.4472 1.10556C17.9412 1.35255 18.1414 1.95323 17.8944 2.4472L12.8944 12.4472C12.6474 12.9412 12.0467 13.1414 11.5528 12.8944C11.0588 12.6474 10.8586 12.0468 11.1055 11.5528L16.1055 1.55278C16.3525 1.0588 16.9532 0.858574 17.4472 1.10556Z" fill="black"/>
<path fill-rule="evenodd" clip-rule="evenodd" d="M22.4472 1.10556C22.9412 1.35255 23.1414 1.95323 22.8944 2.4472L17.8944 12.4472C17.6474 12.9412 17.0467 13.1414 16.5528 12.8944C16.0588 12.6474 15.8586 12.0468 16.1055 11.5528L21.1055 1.55278C21.3525 1.0588 21.9532 0.858574 22.4472 1.10556Z" fill="black"/>
<path fill-rule="evenodd" clip-rule="evenodd" d="M3.49999 7.00001C3.49999 6.44772 3.94771 6.00001 4.49999 6.00001H19.5C20.0523 6.00001 20.5 6.44772 20.5 7.00001C20.5 7.55229 20.0523 8.00001 19.5 8.00001H4.49999C3.94771 8.00001 3.49999 7.55229 3.49999 7.00001Z" fill="black"/>
<path fill-rule="evenodd" clip-rule="evenodd" d="M12 15C12.5523 15 13 15.4477 13 16V22C13 22.5523 12.5523 23 12 23C11.4477 23 11 22.5523 11 22V16C11 15.4477 11.4477 15 12 15Z" fill="black"/>
</svg>
