<svg width="24" height="24" viewBox="0 0 24 24" fill="none" xmlns="http://www.w3.org/2000/svg">
<path d="M10.0002 5V10.999C10.0002 11.5294 9.78928 12.038 9.41431 12.4131C9.03932 12.7881 8.53056 12.9989 8.00025 12.999H5.05982C4.99557 12.999 4.93147 12.9928 4.86841 12.9805C4.92167 13.0163 4.97144 13.0572 5.01685 13.1025L11.8538 19.9395C11.8729 19.9586 11.8961 19.974 11.9211 19.9844C11.9462 19.9948 11.9731 20.001 12.0002 20.001C12.0274 20.001 12.0543 19.9948 12.0794 19.9844C12.1045 19.974 12.1275 19.9587 12.1467 19.9395L18.9817 13.1035C19.0271 13.0581 19.0769 13.0173 19.1301 12.9814C19.0671 12.9937 19.0029 13 18.9387 13H16.0002C15.4699 13 14.9612 12.789 14.5862 12.4141C14.2111 12.039 14.0002 11.5304 14.0002 11V5H10.0002ZM16.0002 11H18.8723C19.286 10.9461 19.707 11.0214 20.0764 11.2197C20.4828 11.4379 20.8012 11.7897 20.9778 12.2158C21.1543 12.6421 21.1783 13.1168 21.0452 13.5586C20.9236 13.9618 20.6769 14.3137 20.344 14.5684L13.5608 21.3545C13.3559 21.5593 13.1126 21.7221 12.845 21.833C12.5773 21.9439 12.29 22.001 12.0002 22.001C11.7105 22.001 11.4232 21.9439 11.1555 21.833C10.8878 21.7221 10.6446 21.5593 10.4397 21.3545L3.65064 14.5645C3.31976 14.3101 3.07444 13.9592 2.95338 13.5576C2.82023 13.1158 2.84421 12.6412 3.02076 12.2148C3.19732 11.7888 3.51582 11.437 3.92213 11.2188C4.29171 11.0203 4.71333 10.945 5.1272 10.999H8.00025V5C8.00025 4.46957 8.21111 3.96101 8.58619 3.58594C8.96124 3.21097 9.46989 3 10.0002 3H14.0002C14.5306 3.00009 15.0393 3.21094 15.4143 3.58594C15.7893 3.96099 16.0002 4.46964 16.0002 5V11Z" fill="black"/>
</svg>
