<svg width="24" height="24" viewBox="0 0 24 24" fill="none" xmlns="http://www.w3.org/2000/svg">
<path fill-rule="evenodd" clip-rule="evenodd" d="M1.58579 2.58579C1.96086 2.21071 2.46957 2 3 2H21C21.5304 2 22.0391 2.21071 22.4142 2.58579C22.7893 2.96086 23 3.46957 23 4V6C23 6.79565 22.6839 7.55871 22.1213 8.12132C21.5587 8.68393 20.7956 9 20 9H19.7683L19.1728 11.2331C19.0657 11.7205 18.7995 12.1589 18.4156 12.4787C18.023 12.8059 17.5308 12.9897 17.0198 12.9998C17.0132 12.9999 17.0066 13 17 13H7C6.99339 13 6.98677 12.9999 6.98016 12.9998C6.46923 12.9897 5.97697 12.8059 5.58438 12.4787C5.20052 12.1589 4.93432 11.7205 4.82722 11.2331L4.23172 9H4C3.20435 9 2.44129 8.68393 1.87868 8.12132C1.31607 7.55871 1 6.79565 1 6V4C1 3.46957 1.21071 2.96086 1.58579 2.58579ZM5.0228 7C5.00807 6.99967 4.99329 6.99967 4.97847 7H4C3.73478 7 3.48043 6.89464 3.29289 6.70711C3.10536 6.51957 3 6.26522 3 6V4H21V6C21 6.26522 20.8946 6.51957 20.7071 6.70711C20.5196 6.89464 20.2652 7 20 7H19.0215C19.0067 6.99967 18.9919 6.99967 18.9772 7H5.0228ZM6.30161 9L6.76624 10.7423C6.77134 10.7615 6.77588 10.7808 6.77984 10.8002C6.79118 10.8558 6.82113 10.906 6.86475 10.9423C6.9068 10.9773 6.95914 10.9976 7.01371 11H16.9863C17.0409 10.9976 17.0932 10.9773 17.1353 10.9423C17.1789 10.906 17.2088 10.8558 17.2202 10.8002C17.2241 10.7808 17.2287 10.7615 17.2338 10.7423L17.6984 9H6.30161ZM8 15C8.55228 15 9 15.4477 9 16C9 16.7701 8.84334 17.3873 8.58902 17.9171C8.35168 18.4116 8.04061 18.8002 7.80113 19.0994C7.79432 19.1079 7.78756 19.1163 7.78087 19.1247C7.52285 19.4472 7.34493 19.6756 7.21402 19.9484C7.09334 20.1998 7 20.5201 7 21C7 21.5523 6.55228 22 6 22C5.44772 22 5 21.5523 5 21C5 20.2299 5.15666 19.6127 5.41098 19.0829C5.64831 18.5884 5.95938 18.1998 6.19886 17.9006C6.20568 17.8921 6.21244 17.8837 6.21913 17.8753C6.47715 17.5528 6.65507 17.3244 6.78598 17.0516C6.90666 16.8002 7 16.4799 7 16C7 15.4477 7.44772 15 8 15ZM13 15C13.5523 15 14 15.4477 14 16C14 16.7701 13.8433 17.3873 13.589 17.9171C13.3517 18.4116 13.0406 18.8002 12.8011 19.0994L12.7809 19.1247C12.5229 19.4472 12.3449 19.6756 12.214 19.9484C12.0933 20.1998 12 20.5201 12 21C12 21.5523 11.5523 22 11 22C10.4477 22 10 21.5523 10 21C10 20.2299 10.1567 19.6127 10.411 19.0829C10.6483 18.5884 10.9594 18.1998 11.1989 17.9006C11.2057 17.8921 11.2124 17.8837 11.2191 17.8753C11.4771 17.5528 11.6551 17.3244 11.786 17.0516C11.9067 16.8002 12 16.4799 12 16C12 15.4477 12.4477 15 13 15ZM18 15C18.5523 15 19 15.4477 19 16C19 16.7701 18.8433 17.3873 18.589 17.9171C18.3517 18.4116 18.0406 18.8002 17.8011 19.0994L17.7809 19.1247C17.5229 19.4472 17.3449 19.6756 17.214 19.9484C17.0933 20.1998 17 20.5201 17 21C17 21.5523 16.5523 22 16 22C15.4477 22 15 21.5523 15 21C15 20.2299 15.1567 19.6127 15.411 19.0829C15.6483 18.5884 15.9594 18.1998 16.1989 17.9006L16.2191 17.8753C16.4771 17.5528 16.6551 17.3244 16.786 17.0516C16.9067 16.8002 17 16.4799 17 16C17 15.4477 17.4477 15 18 15Z" fill="black"/>
</svg>
