<svg width="24" height="24" viewBox="0 0 24 24" fill="none" xmlns="http://www.w3.org/2000/svg">
<path d="M11 22V6C11 5.44772 11.4477 5 12 5C12.5523 5 13 5.44772 13 6V22C13 22.5523 12.5523 23 12 23C11.4477 23 11 22.5523 11 22Z" fill="black"/>
<path d="M20.5527 11.1055C20.8626 10.9505 21.2306 10.9673 21.5254 11.1494C21.8202 11.3316 22 11.6534 22 12C22 14.6522 20.9467 17.1959 19.0713 19.0713C17.1959 20.9467 14.6522 22 12 22C9.34784 22 6.80407 20.9467 4.92871 19.0713C3.05335 17.1959 2 14.6522 2 12C2 11.6534 2.17979 11.3316 2.47461 11.1494C2.76939 10.9673 3.13735 10.9505 3.44727 11.1055L5.44727 12.1055C5.94124 12.3525 6.14152 12.9533 5.89453 13.4473C5.64754 13.9412 5.04671 14.1415 4.55273 13.8945L4.1875 13.7119C4.51239 15.1944 5.25285 16.5673 6.34277 17.6572C7.84306 19.1575 9.87827 20 12 20C14.1217 20 16.1569 19.1575 17.6572 17.6572C18.7471 16.5674 19.4866 15.1944 19.8115 13.7119L19.4473 13.8945C18.9533 14.1415 18.3525 13.9412 18.1055 13.4473C17.8585 12.9533 18.0588 12.3525 18.5527 12.1055L20.5527 11.1055Z" fill="black"/>
<path d="M15 10C15.5523 10 16 10.4477 16 11C16 11.5523 15.5523 12 15 12H9C8.44772 12 8 11.5523 8 11C8 10.4477 8.44772 10 9 10H15Z" fill="black"/>
<path d="M13 4C13 3.44772 12.5523 3 12 3C11.4477 3 11 3.44772 11 4C11 4.55228 11.4477 5 12 5C12.5523 5 13 4.55228 13 4ZM15 4C15 5.65685 13.6569 7 12 7C10.3431 7 9 5.65685 9 4C9 2.34315 10.3431 1 12 1C13.6569 1 15 2.34315 15 4Z" fill="black"/>
</svg>
