<svg width="24" height="24" viewBox="0 0 24 24" fill="none" xmlns="http://www.w3.org/2000/svg">
<path fill-rule="evenodd" clip-rule="evenodd" d="M10 12C10 10.8954 10.8955 9.99999 12 9.99999C13.1046 9.99999 14 10.8954 14 12C14 13.1046 13.1046 14 12 14C10.8955 14 10 13.1046 10 12Z" fill="black"/>
<path fill-rule="evenodd" clip-rule="evenodd" d="M9.16268 2.65473C11.4764 3.53027 14.0594 5.25551 16.4056 7.59134L16.4087 7.59446C18.7445 9.94063 20.4697 12.5236 21.3453 14.8373C21.7826 15.993 22.0249 17.1264 21.9926 18.154C21.9602 19.1882 21.6444 20.1724 20.9071 20.9071C20.1724 21.6444 19.1882 21.9602 18.154 21.9926C17.1264 22.0249 15.993 21.7826 14.8373 21.3453C12.5236 20.4697 9.94063 18.7445 7.59446 16.4087L7.59134 16.4056C5.25551 14.0594 3.53027 11.4764 2.65473 9.16268C2.2174 8.00697 1.97512 6.8736 2.00738 5.84597C2.03984 4.81179 2.35562 3.82762 3.0929 3.0929C3.82762 2.35562 4.81179 2.03984 5.84597 2.00738C6.8736 1.97512 8.00697 2.2174 9.16268 2.65473ZM5.90873 4.00639C5.23154 4.02765 4.78894 4.2239 4.50885 4.50538L4.50538 4.50885C4.2239 4.78894 4.02765 5.23154 4.00639 5.90873C3.9849 6.59329 4.14761 7.45679 4.52529 8.45484C5.27957 10.4482 6.8238 12.7996 9.00718 14.993C11.2006 17.1763 13.5519 18.7205 15.5452 19.4747C16.5432 19.8524 17.4067 20.0151 18.0913 19.9936C18.7685 19.9724 19.2111 19.7761 19.4912 19.4946L19.4936 19.4922L19.4946 19.4912C19.7761 19.2111 19.9724 18.7685 19.9936 18.0913C20.0151 17.4067 19.8524 16.5432 19.4747 15.5452C18.7205 13.5519 17.1763 11.2006 14.993 9.00718C12.7996 6.8238 10.4482 5.27957 8.45484 4.52529C7.45679 4.14761 6.59329 3.9849 5.90873 4.00639Z" fill="black"/>
<path fill-rule="evenodd" clip-rule="evenodd" d="M18.154 2.00738C19.1882 2.03984 20.1723 2.35559 20.907 3.09282C21.6444 3.82755 21.9602 4.81175 21.9926 5.84597C22.0249 6.8736 21.7826 8.00697 21.3453 9.16268C20.4697 11.4764 18.7445 14.0594 16.4087 16.4056L16.4056 16.4087C14.0594 18.7445 11.4764 20.4697 9.16268 21.3453C8.00697 21.7826 6.8736 22.0249 5.84597 21.9926C4.81175 21.9602 3.82755 21.6444 3.09282 20.907C2.35559 20.1723 2.03984 19.1882 2.00738 18.154C1.97512 17.1264 2.2174 15.993 2.65473 14.8373C3.53027 12.5236 5.25551 9.94063 7.59134 7.59446L7.59446 7.59134C9.94063 5.25551 12.5236 3.53027 14.8373 2.65473C15.993 2.2174 17.1264 1.97512 18.154 2.00738ZM9.00712 9.00712C6.82377 11.2005 5.27957 13.5519 4.52529 15.5452C4.14761 16.5432 3.9849 17.4067 4.00639 18.0913C4.02765 18.7685 4.2239 19.2111 4.50538 19.4912L4.50885 19.4946C4.78894 19.7761 5.23154 19.9724 5.90873 19.9936C6.59329 20.0151 7.45679 19.8524 8.45484 19.4747C10.4481 18.7205 12.7995 17.1762 14.9929 14.9929C17.1762 12.7995 18.7205 10.4481 19.4747 8.45484C19.8524 7.45679 20.0151 6.59329 19.9936 5.90873C19.9724 5.23154 19.7761 4.78894 19.4946 4.50885L19.4912 4.50538C19.2111 4.2239 18.7685 4.02765 18.0913 4.00639C17.4067 3.9849 16.5432 4.14761 15.5452 4.52529C13.5519 5.27957 11.2005 6.82377 9.00712 9.00712Z" fill="black"/>
</svg>
