<svg width="24" height="24" viewBox="0 0 24 24" fill="none" xmlns="http://www.w3.org/2000/svg">
<path d="M18.5 6.98532C18.9201 6.98532 19.3297 7.11658 19.6719 7.36032C20.0139 7.60397 20.2719 7.94785 20.4092 8.3447L22.9453 15.6728C23.1259 16.1947 22.8491 16.7647 22.3272 16.9453C21.8052 17.1259 21.2353 16.849 21.0547 16.3271L18.5186 8.99899C18.5172 8.99513 18.515 8.99164 18.5117 8.98923C18.5083 8.98681 18.5042 8.98532 18.5 8.98532C18.4959 8.98532 18.4917 8.98681 18.4883 8.98923L18.4815 8.99899L15.9453 16.3271C15.7647 16.849 15.1948 17.1259 14.6729 16.9453C14.151 16.7647 13.8741 16.1947 14.0547 15.6728L16.5908 8.3447C16.7282 7.94785 16.9861 7.60397 17.3281 7.36032C17.6703 7.11658 18.0799 6.98532 18.5 6.98532Z" fill="black"/>
<path d="M21.3035 13C21.8555 13.0002 22.3035 13.4479 22.3035 14C22.3035 14.5521 21.8555 14.9998 21.3035 15H15.697C15.1447 15 14.697 14.5523 14.697 14C14.697 13.4477 15.1447 13 15.697 13H21.3035Z" fill="black"/>
<path d="M6.61134 5.00631C6.86832 5.02534 7.11656 5.11078 7.33204 5.25435C7.57841 5.41856 7.77084 5.65198 7.88478 5.92525L11.9229 15.6157C12.1351 16.1254 11.8945 16.7109 11.3848 16.9233C10.875 17.1357 10.2896 16.894 10.0772 16.3842L6.50001 7.80123L2.92286 16.3852C2.71023 16.8946 2.12485 17.1357 1.61525 16.9233C1.10557 16.7109 0.864892 16.1254 1.07716 15.6157L5.11622 5.92525L5.16212 5.82467C5.27862 5.5946 5.45334 5.39806 5.66896 5.25435L5.76271 5.19674C5.9873 5.06982 6.24177 5.0024 6.50099 5.0024L6.61134 5.00631Z" fill="black"/>
<path d="M9.69561 12C10.2479 12 10.6956 12.4477 10.6956 13C10.6956 13.5523 10.2479 14 9.69561 14H3.30401C2.75173 14 2.30401 13.5523 2.30401 13C2.30401 12.4477 2.75173 12 3.30401 12H9.69561Z" fill="black"/>
</svg>
