<svg width="24" height="24" viewBox="0 0 24 24" fill="none" xmlns="http://www.w3.org/2000/svg">
<path fill-rule="evenodd" clip-rule="evenodd" d="M4 5C3.44772 5 3 5.44772 3 6V18C3 18.5523 3.44772 19 4 19H20C20.5523 19 21 18.5523 21 18V6C21 5.44772 20.5523 5 20 5H4ZM1 6C1 4.34315 2.34315 3 4 3H20C21.6569 3 23 4.34315 23 6V18C23 19.6569 21.6569 21 20 21H4C2.34315 21 1 19.6569 1 18V6Z" fill="black"/>
<path fill-rule="evenodd" clip-rule="evenodd" d="M5 8C5 7.44772 5.44772 7 6 7H6.01C6.56228 7 7.01 7.44772 7.01 8C7.01 8.55228 6.56228 9 6.01 9H6C5.44772 9 5 8.55228 5 8Z" fill="black"/>
<path fill-rule="evenodd" clip-rule="evenodd" d="M9 8C9 7.44772 9.44772 7 10 7H10.01C10.5623 7 11.01 7.44772 11.01 8C11.01 8.55228 10.5623 9 10.01 9H10C9.44772 9 9 8.55228 9 8Z" fill="black"/>
<path fill-rule="evenodd" clip-rule="evenodd" d="M13 8C13 7.44772 13.4477 7 14 7H14.01C14.5623 7 15.01 7.44772 15.01 8C15.01 8.55228 14.5623 9 14.01 9H14C13.4477 9 13 8.55228 13 8Z" fill="black"/>
</svg>
