<svg width="24" height="24" viewBox="0 0 24 24" fill="none" xmlns="http://www.w3.org/2000/svg">
<path d="M21.2929 11.293C21.6834 10.9025 22.3164 10.9025 22.707 11.293C23.0975 11.6835 23.0975 12.3166 22.707 12.7071L18.707 16.7071C18.3164 17.0976 17.6834 17.0976 17.2929 16.7071L13.2929 12.7071C12.9024 12.3166 12.9024 11.6835 13.2929 11.293C13.6834 10.9025 14.3164 10.9025 14.707 11.293L17.9999 14.586L21.2929 11.293Z" fill="black"/>
<path d="M17 16V7C17 6.44772 17.4477 6 18 6C18.5523 6 19 6.44772 19 7V16C19 16.5523 18.5523 17 18 17C17.4477 17 17 16.5523 17 16Z" fill="black"/>
<path d="M6.61134 5.00635C6.86832 5.02538 7.11656 5.11083 7.33204 5.25439C7.57841 5.4186 7.77084 5.65202 7.88478 5.92529L11.9229 15.6157C12.1351 16.1255 11.8945 16.7109 11.3848 16.9233C10.875 17.1358 10.2896 16.8941 10.0772 16.3843L6.50001 7.80127L2.92286 16.3853C2.71023 16.8947 2.12485 17.1357 1.61525 16.9233C1.10557 16.7109 0.864892 16.1254 1.07716 15.6157L5.11622 5.92529L5.16212 5.82471C5.27862 5.59465 5.45334 5.39811 5.66896 5.25439L5.76271 5.19678C5.9873 5.06986 6.24177 5.00244 6.50099 5.00244L6.61134 5.00635Z" fill="black"/>
<path d="M9.69556 12C10.2478 12 10.6956 12.4477 10.6956 13C10.6956 13.5523 10.2478 14 9.69556 14H3.30396C2.75167 14 2.30396 13.5523 2.30396 13C2.30396 12.4477 2.75167 12 3.30396 12H9.69556Z" fill="black"/>
</svg>
