<svg width="24" height="24" viewBox="0 0 24 24" fill="none" xmlns="http://www.w3.org/2000/svg">
<path fill-rule="evenodd" clip-rule="evenodd" d="M7 16C6.44771 16 6 16.4477 6 17V19C6 19.5523 6.44771 20 7 20H17C17.5523 20 18 19.5523 18 19V17C18 16.4477 17.5523 16 17 16H7ZM4 17C4 15.3431 5.34315 14 7 14H17C18.6569 14 20 15.3431 20 17V19C20 20.6569 18.6569 22 17 22H7C5.34315 22 4 20.6569 4 19V17Z" fill="black"/>
<path fill-rule="evenodd" clip-rule="evenodd" d="M9 4C8.44771 4 8 4.44772 8 5V7C8 7.55228 8.44771 8 9 8H15C15.5523 8 16 7.55228 16 7V5C16 4.44772 15.5523 4 15 4H9ZM6 5C6 3.34315 7.34315 2 9 2H15C16.6569 2 18 3.34315 18 5V7C18 8.65685 16.6569 10 15 10H9C7.34315 10 6 8.65685 6 7V5Z" fill="black"/>
<path fill-rule="evenodd" clip-rule="evenodd" d="M1 21C1 20.4477 1.44772 20 2 20H22C22.5523 20 23 20.4477 23 21C23 21.5523 22.5523 22 22 22H2C1.44772 22 1 21.5523 1 21Z" fill="black"/>
<path fill-rule="evenodd" clip-rule="evenodd" d="M1 3C1 2.44772 1.44772 2 2 2H22C22.5523 2 23 2.44772 23 3C23 3.55228 22.5523 4 22 4H2C1.44772 4 1 3.55228 1 3Z" fill="black"/>
</svg>
