<svg width="24" height="24" viewBox="0 0 24 24" fill="none" xmlns="http://www.w3.org/2000/svg">
<path fill-rule="evenodd" clip-rule="evenodd" d="M4 3C4 2.44772 4.44772 2 5 2H19C19.5523 2 20 2.44772 20 3C20 3.55228 19.5523 4 19 4H5C4.44772 4 4 3.55228 4 3Z" fill="black"/>
<path fill-rule="evenodd" clip-rule="evenodd" d="M12 6C12.5523 6 13 6.44772 13 7V21C13 21.5523 12.5523 22 12 22C11.4477 22 11 21.5523 11 21V7C11 6.44772 11.4477 6 12 6Z" fill="black"/>
<path fill-rule="evenodd" clip-rule="evenodd" d="M5.29289 14.2929C5.68342 13.9024 6.31658 13.9024 6.70711 14.2929L12 19.5858L17.2929 14.2929C17.6834 13.9024 18.3166 13.9024 18.7071 14.2929C19.0976 14.6834 19.0976 15.3166 18.7071 15.7071L12.7071 21.7071C12.3166 22.0976 11.6834 22.0976 11.2929 21.7071L5.29289 15.7071C4.90237 15.3166 4.90237 14.6834 5.29289 14.2929Z" fill="black"/>
</svg>
