<svg width="24" height="24" viewBox="0 0 24 24" fill="none" xmlns="http://www.w3.org/2000/svg">
<path fill-rule="evenodd" clip-rule="evenodd" d="M2.29289 15.2929C2.68342 14.9024 3.31658 14.9024 3.70711 15.2929L7 18.5858L10.2929 15.2929C10.6834 14.9024 11.3166 14.9024 11.7071 15.2929C12.0976 15.6834 12.0976 16.3166 11.7071 16.7071L7.70711 20.7071C7.31658 21.0976 6.68342 21.0976 6.29289 20.7071L2.29289 16.7071C1.90237 16.3166 1.90237 15.6834 2.29289 15.2929Z" fill="black"/>
<path fill-rule="evenodd" clip-rule="evenodd" d="M7 3C7.55228 3 8 3.44772 8 4V20C8 20.5523 7.55228 21 7 21C6.44772 21 6 20.5523 6 20V4C6 3.44772 6.44772 3 7 3Z" fill="black"/>
<path fill-rule="evenodd" clip-rule="evenodd" d="M14 4C14 3.44772 14.4477 3 15 3H20C20.388 3 20.741 3.22446 20.9056 3.57584C21.0702 3.92723 21.0166 4.3421 20.7682 4.64018L17.1351 9H20C20.5523 9 21 9.44772 21 10C21 10.5523 20.5523 11 20 11H15C14.612 11 14.259 10.7755 14.0944 10.4242C13.9298 10.0728 13.9834 9.6579 14.2318 9.35982L17.865 5H15C14.4477 5 14 4.55228 14 4Z" fill="black"/>
<path fill-rule="evenodd" clip-rule="evenodd" d="M17.5 15C17.1022 15 16.7206 15.158 16.4393 15.4393C16.158 15.7206 16 16.1022 16 16.5V20C16 20.5523 15.5523 21 15 21C14.4477 21 14 20.5523 14 20V16.5C14 15.5717 14.3687 14.6815 15.0251 14.0251C15.6815 13.3687 16.5717 13 17.5 13C18.4283 13 19.3185 13.3687 19.9749 14.0251C20.6313 14.6815 21 15.5717 21 16.5V20C21 20.5523 20.5523 21 20 21C19.4477 21 19 20.5523 19 20V16.5C19 16.1022 18.842 15.7206 18.5607 15.4393C18.2794 15.158 17.8978 15 17.5 15Z" fill="black"/>
<path fill-rule="evenodd" clip-rule="evenodd" d="M14 18C14 17.4477 14.4477 17 15 17H20C20.5523 17 21 17.4477 21 18C21 18.5523 20.5523 19 20 19H15C14.4477 19 14 18.5523 14 18Z" fill="black"/>
</svg>
