<svg width="24" height="24" viewBox="0 0 24 24" fill="none" xmlns="http://www.w3.org/2000/svg">
<path fill-rule="evenodd" clip-rule="evenodd" d="M3 4V7H21V4H3ZM2.99879 6.99995C2.99873 6.99995 2.99876 6.99995 2.99879 6.99995V6.99995ZM1 4C1 2.89543 1.89543 2 3 2H21C22.1046 2 23 2.89543 23 4V7C23 8.10457 22.1046 9 21 9H3C1.89543 9 1 8.10457 1 7V4Z" fill="black"/>
<path fill-rule="evenodd" clip-rule="evenodd" d="M4 7C4.55228 7 5 7.44772 5 8V19C5 19.2652 5.10536 19.5196 5.29289 19.7071C5.48043 19.8946 5.73478 20 6 20H18C18.2652 20 18.5196 19.8946 18.7071 19.7071C18.8946 19.5196 19 19.2652 19 19V8C19 7.44772 19.4477 7 20 7C20.5523 7 21 7.44772 21 8V19C21 19.7957 20.6839 20.5587 20.1213 21.1213C19.5587 21.6839 18.7957 22 18 22H6C5.20435 22 4.44129 21.6839 3.87868 21.1213C3.31607 20.5587 3 19.7957 3 19V8C3 7.44772 3.44772 7 4 7Z" fill="black"/>
<path fill-rule="evenodd" clip-rule="evenodd" d="M15.2071 11.2929C15.5976 11.6834 15.5976 12.3166 15.2071 12.7071L10.2071 17.7071C9.81658 18.0976 9.18342 18.0976 8.79289 17.7071C8.40237 17.3166 8.40237 16.6834 8.79289 16.2929L13.7929 11.2929C14.1834 10.9024 14.8166 10.9024 15.2071 11.2929Z" fill="black"/>
<path fill-rule="evenodd" clip-rule="evenodd" d="M8.79289 11.2929C9.18342 10.9024 9.81658 10.9024 10.2071 11.2929L15.2071 16.2929C15.5976 16.6834 15.5976 17.3166 15.2071 17.7071C14.8166 18.0976 14.1834 18.0976 13.7929 17.7071L8.79289 12.7071C8.40237 12.3166 8.40237 11.6834 8.79289 11.2929Z" fill="black"/>
</svg>
