<svg width="24" height="24" viewBox="0 0 24 24" fill="none" xmlns="http://www.w3.org/2000/svg">
<path fill-rule="evenodd" clip-rule="evenodd" d="M1.58579 4.58579C1.96086 4.21071 2.46957 4 3 4H7C7.55228 4 8 4.44772 8 5C8 5.55228 7.55228 6 7 6L3 6C3 6.79565 3.31607 7.55871 3.87868 8.12132C4.44129 8.68393 5.20435 9 6 9H7C7.55228 9 8 9.44771 8 10C8 10.5523 7.55228 11 7 11H6C4.67392 11 3.40215 10.4732 2.46447 9.53553C1.52678 8.59785 1 7.32608 1 6C1 5.46957 1.21071 4.96086 1.58579 4.58579Z" fill="black"/>
<path fill-rule="evenodd" clip-rule="evenodd" d="M6.58579 3.58579C6.96086 3.21071 7.46957 3 8 3H21C21.5304 3 22.0391 3.21071 22.4142 3.58579C22.7893 3.96086 23 4.46957 23 5C23 7.12173 22.1571 9.15656 20.6569 10.6569C19.1566 12.1571 17.1217 13 15 13H8C7.46957 13 6.96086 12.7893 6.58579 12.4142C6.21071 12.0391 6 11.5304 6 11V5C6 4.46957 6.21071 3.96086 6.58579 3.58579ZM21 5L8 5V11H15C16.5913 11 18.1174 10.3679 19.2426 9.24264C20.3679 8.11742 21 6.5913 21 5Z" fill="black"/>
<path fill-rule="evenodd" clip-rule="evenodd" d="M9 11C9.55228 11 10 11.4477 10 12V17C10 17.5523 9.55228 18 9 18C8.44772 18 8 17.5523 8 17V12C8 11.4477 8.44772 11 9 11Z" fill="black"/>
<path fill-rule="evenodd" clip-rule="evenodd" d="M15 11C15.5523 11 16 11.4477 16 12V17C16 17.5523 15.5523 18 15 18C14.4477 18 14 17.5523 14 17V12C14 11.4477 14.4477 11 15 11Z" fill="black"/>
<path fill-rule="evenodd" clip-rule="evenodd" d="M8 18C7.46957 18 6.96086 18.2107 6.58579 18.5858C6.21071 18.9609 6 19.4696 6 20H18C18 19.4696 17.7893 18.9609 17.4142 18.5858C17.0391 18.2107 16.5304 18 16 18H8ZM5.17157 17.1716C5.92172 16.4214 6.93913 16 8 16H16C17.0609 16 18.0783 16.4214 18.8284 17.1716C19.5786 17.9217 20 18.9391 20 20C20 20.5304 19.7893 21.0391 19.4142 21.4142C19.0391 21.7893 18.5304 22 18 22H6C5.46957 22 4.96086 21.7893 4.58579 21.4142C4.21071 21.0391 4 20.5304 4 20C4 18.9391 4.42143 17.9217 5.17157 17.1716Z" fill="black"/>
</svg>
