<svg width="24" height="24" viewBox="0 0 24 24" fill="none" xmlns="http://www.w3.org/2000/svg">
<path d="M11 5.12731C10.9462 4.71374 11.0214 4.2925 11.2197 3.9232C11.438 3.5169 11.7898 3.1984 12.2158 3.02184C12.6421 2.84529 13.1168 2.82132 13.5586 2.95445C13.9602 3.07552 14.3111 3.32084 14.5654 3.65172L21.3545 10.4398C21.5593 10.6447 21.7221 10.8879 21.833 11.1556C21.9439 11.4234 22.001 11.7106 22.001 12.0004C22.001 12.2901 21.9439 12.5774 21.833 12.8451C21.7221 13.1127 21.5593 13.356 21.3545 13.5609L14.5684 20.3441C14.3137 20.677 13.9618 20.9237 13.5586 21.0453C13.1168 21.1784 12.6421 21.1544 12.2158 20.9779C11.7897 20.8013 11.4379 20.4829 11.2197 20.0765C11.0213 19.7069 10.9459 19.2854 11 18.8714V16.0004H5C4.46965 16.0004 3.96099 15.7894 3.58594 15.4144C3.21095 15.0394 3.00009 14.5307 3 14.0004V10.0004C3 9.46992 3.21087 8.96039 3.58594 8.58531C3.96098 8.21044 4.46971 8.00035 5 8.00035H11V5.12731ZM13 8.00035C12.9999 8.53066 12.7891 9.03943 12.4141 9.41442C12.039 9.78938 11.5304 10.0004 11 10.0004H5V14.0004H11C11.5303 14.0004 12.039 14.2104 12.4141 14.5853C12.7891 14.9604 13 15.4699 13 16.0004V18.9388C13 19.003 12.9937 19.0672 12.9814 19.1302C13.0173 19.077 13.0581 19.0272 13.1035 18.9818L19.9395 12.1468C19.9587 12.1276 19.974 12.1046 19.9844 12.0795C19.9948 12.0544 20.001 12.0275 20.001 12.0004C20.001 11.9732 19.9948 11.9463 19.9844 11.9213C19.974 11.8962 19.9586 11.873 19.9395 11.8539L13.1035 5.01793C13.0581 4.97252 13.0173 4.92274 12.9814 4.86949C12.9937 4.93255 13 4.99665 13 5.0609V8.00035Z" fill="black"/>
</svg>
