<svg width="24" height="24" viewBox="0 0 24 24" fill="none" xmlns="http://www.w3.org/2000/svg">
<path fill-rule="evenodd" clip-rule="evenodd" d="M10 1C10.5523 1 11 1.44772 11 2V7.632C11 8.50137 10.4497 9.18635 9.78854 9.51124C8.95111 9.92422 8.24604 10.5634 7.7532 11.3565C7.26029 12.1497 6.99937 13.0651 7 13.999C7.00273 15.7428 7.65634 17.292 8.5612 18.5371C9.47302 19.7918 10.6007 20.6823 11.4472 21.1056C11.9412 21.3526 12.1414 21.9532 11.8944 22.4472C11.6474 22.9412 11.0468 23.1414 10.5528 22.8944C9.39934 22.3177 8.02999 21.2082 6.94331 19.7129C5.84975 18.2081 5.00339 16.2575 5 14.0015C4.99904 12.6939 5.36433 11.4115 6.05448 10.3009C6.74463 9.19031 7.73204 8.29523 8.90484 7.71707L8.9064 7.7163C8.94903 7.69537 8.97697 7.66782 8.99086 7.6475C8.99695 7.63859 8.99924 7.63301 9 7.63051V2C9 1.44772 9.44772 1 10 1Z" fill="black"/>
<path fill-rule="evenodd" clip-rule="evenodd" d="M5.87868 4.87868C6.44129 4.31607 7.20435 4 8 4H10C10.5523 4 11 4.44772 11 5C11 5.55228 10.5523 6 10 6H8C7.73478 6 7.48043 6.10536 7.29289 6.29289C7.10536 6.48043 7 6.73478 7 7C7 7.26522 7.10536 7.51957 7.29289 7.70711C7.48043 7.89464 7.73478 8 8 8H8.68C9.23229 8 9.68 8.44772 9.68 9C9.68 9.55228 9.23229 10 8.68 10H8C7.20435 10 6.44129 9.68393 5.87868 9.12132C5.31607 8.55871 5 7.79565 5 7C5 6.20435 5.31607 5.44129 5.87868 4.87868Z" fill="black"/>
<path fill-rule="evenodd" clip-rule="evenodd" d="M14 1C14.5523 1 15 1.44772 15 2V7.63055C15.0007 7.63308 15.003 7.63878 15.0093 7.64791C15.0233 7.66845 15.0513 7.69597 15.0935 7.71676C16.2665 8.29475 17.2546 9.18999 17.945 10.3006C18.6354 11.4112 19.0008 12.693 19 14.0007C18.9998 16.2574 18.1531 18.2084 17.0587 19.7132C15.9711 21.2086 14.6003 22.3179 13.4472 22.8944C12.9532 23.1414 12.3525 22.9412 12.1056 22.4472C11.8586 21.9532 12.0588 21.3526 12.5528 21.1056C13.3997 20.6821 14.5288 19.7914 15.4412 18.5368C16.3468 17.2917 17 15.743 17 14C17.0006 13.0659 16.7395 12.1497 16.2464 11.3565C15.7533 10.5632 15.0478 9.92387 14.21 9.51102C13.5501 9.18609 13 8.5012 13 7.632V2C13 1.44772 13.4477 1 14 1Z" fill="black"/>
<path fill-rule="evenodd" clip-rule="evenodd" d="M13 5C13 4.44772 13.4477 4 14 4H16C16.7956 4 17.5587 4.31607 18.1213 4.87868C18.6839 5.44129 19 6.20435 19 7C19 7.79565 18.6839 8.55871 18.1213 9.12132C17.5587 9.68393 16.7957 10 16 10H15.32C14.7677 10 14.32 9.55228 14.32 9C14.32 8.44772 14.7677 8 15.32 8H16C16.2652 8 16.5196 7.89464 16.7071 7.70711C16.8946 7.51957 17 7.26522 17 7C17 6.73478 16.8946 6.48043 16.7071 6.29289C16.5196 6.10536 16.2652 6 16 6H14C13.4477 6 13 5.55228 13 5Z" fill="black"/>
<path fill-rule="evenodd" clip-rule="evenodd" d="M5 22C5 21.4477 5.44772 21 6 21H18C18.5523 21 19 21.4477 19 22C19 22.5523 18.5523 23 18 23H6C5.44772 23 5 22.5523 5 22Z" fill="black"/>
<path fill-rule="evenodd" clip-rule="evenodd" d="M8 2C8 1.44772 8.44772 1 9 1H15C15.5523 1 16 1.44772 16 2C16 2.55228 15.5523 3 15 3H9C8.44772 3 8 2.55228 8 2Z" fill="black"/>
</svg>
