<svg width="24" height="24" viewBox="0 0 24 24" fill="none" xmlns="http://www.w3.org/2000/svg">
<path d="M17.3692 6.22461C17.7619 5.90426 18.3409 5.92685 18.707 6.29297L22.707 10.293C23.0976 10.6835 23.0976 11.3165 22.707 11.707C22.3165 12.0976 21.6835 12.0976 21.293 11.707L18 8.41406L14.707 11.707C14.3165 12.0976 13.6835 12.0976 13.293 11.707C12.9025 11.3165 12.9025 10.6835 13.293 10.293L17.293 6.29297L17.3692 6.22461Z" fill="black"/>
<path d="M17 16V7C17 6.44771 17.4477 6 18 6C18.5523 6 19 6.44771 19 7V16C19 16.5523 18.5523 17 18 17C17.4477 17 17 16.5523 17 16Z" fill="black"/>
<path d="M6.61134 5.00631C6.86832 5.02534 7.11656 5.11078 7.33204 5.25435C7.57841 5.41856 7.77084 5.65198 7.88478 5.92525L11.9229 15.6157C12.1351 16.1254 11.8945 16.7109 11.3848 16.9233C10.875 17.1357 10.2896 16.894 10.0772 16.3842L6.50001 7.80123L2.92286 16.3852C2.71023 16.8946 2.12485 17.1357 1.61525 16.9233C1.10557 16.7109 0.864892 16.1254 1.07716 15.6157L5.11622 5.92525L5.16212 5.82467C5.27862 5.5946 5.45334 5.39806 5.66896 5.25435L5.76271 5.19674C5.9873 5.06982 6.24177 5.0024 6.50099 5.0024L6.61134 5.00631Z" fill="black"/>
<path d="M9.69561 12C10.2479 12 10.6956 12.4477 10.6956 13C10.6956 13.5523 10.2479 14 9.69561 14H3.30401C2.75173 14 2.30401 13.5523 2.30401 13C2.30401 12.4477 2.75173 12 3.30401 12H9.69561Z" fill="black"/>
</svg>
