<svg width="24" height="24" viewBox="0 0 24 24" fill="none" xmlns="http://www.w3.org/2000/svg">
<path d="M11 6.52832V3C11 2.46957 11.2109 1.96101 11.586 1.58594C11.9611 1.21086 12.4696 1 13 1C13.5523 1 14 1.44772 14 2C14 2.55228 13.5523 3 13 3V6.52832C12.9999 7.08046 12.5522 7.52832 12 7.52832C11.4479 7.52832 11.0002 7.08046 11 6.52832Z" fill="black"/>
<path d="M14.9219 4.08314C16.257 3.87506 17.6239 4.05885 18.8574 4.61048C20.091 5.16213 21.139 6.05864 21.874 7.19251C22.6083 8.32531 22.9993 9.64631 23 10.9962L22.9971 11.3634C22.926 15.1597 21.5068 18.8118 18.9864 21.6622L18.9824 21.6661C18.3856 22.3339 17.582 22.7819 16.7002 22.9386C15.9284 23.0757 15.1356 22.9828 14.4199 22.6749L14.1182 22.5304C13.4663 22.1826 12.7389 22.0001 12 22.0001C11.3536 22.0001 10.7159 22.1396 10.1299 22.4074L9.88186 22.5304C9.09144 22.9518 8.18175 23.0953 7.29983 22.9386C6.41806 22.7819 5.61445 22.3339 5.0176 21.6661L5.01174 21.6603C2.42013 18.7141 0.993297 14.922 1.00002 10.9982C1.0004 9.64759 1.39136 8.32585 2.126 7.19251C2.86104 6.05864 3.90905 5.16213 5.1426 4.61048C6.37615 4.05884 7.74298 3.87506 9.07815 4.08314C10.1322 4.24743 11.1306 4.65059 12 5.25599C12.8694 4.65059 13.8679 4.24743 14.9219 4.08314ZM18.041 6.43568C17.1601 6.04177 16.184 5.91118 15.2305 6.0597C14.2768 6.20833 13.3864 6.63013 12.667 7.27357C12.2874 7.6131 11.7126 7.6131 11.333 7.27357C10.6136 6.63014 9.72321 6.20833 8.76956 6.0597C7.81606 5.91119 6.83995 6.04176 5.95901 6.43568C5.07792 6.8297 4.32974 7.47052 3.80471 8.28041C3.27968 9.09032 3.00005 10.0349 3.00002 11.0001V11.0021C2.99423 14.4361 4.24213 17.7538 6.50881 20.3331L6.62502 20.4533C6.90798 20.7211 7.26445 20.9013 7.65041 20.9699C8.09116 21.048 8.54542 20.9763 8.94045 20.7658L9.29885 20.589C10.1453 20.2022 11.0663 20.0001 12 20.0001C13.0672 20.0001 14.118 20.2634 15.0596 20.7658L15.21 20.838C15.5678 20.992 15.9647 21.0384 16.3506 20.9699C16.7914 20.8915 17.1929 20.6669 17.4912 20.3331C19.7655 17.7592 21.0146 14.4389 21 11.004V11.0001C21 10.0349 20.7204 9.09032 20.1953 8.28041C19.6703 7.47053 18.9221 6.8297 18.041 6.43568Z" fill="black"/>
</svg>
