<svg width="24" height="24" viewBox="0 0 24 24" fill="none" xmlns="http://www.w3.org/2000/svg">
<path fill-rule="evenodd" clip-rule="evenodd" d="M4 5C3.44772 5 3 5.44772 3 6V18C3 18.5523 3.44772 19 4 19H20C20.5523 19 21 18.5523 21 18V6C21 5.44772 20.5523 5 20 5H4ZM1 6C1 4.34315 2.34315 3 4 3H20C21.6569 3 23 4.34315 23 6V18C23 19.6569 21.6569 21 20 21H4C2.34315 21 1 19.6569 1 18V6Z" fill="black"/>
<path fill-rule="evenodd" clip-rule="evenodd" d="M10 3C10.5523 3 11 3.44772 11 4V8C11 8.55228 10.5523 9 10 9C9.44772 9 9 8.55228 9 8V4C9 3.44772 9.44772 3 10 3Z" fill="black"/>
<path fill-rule="evenodd" clip-rule="evenodd" d="M1 8C1 7.44772 1.44772 7 2 7H22C22.5523 7 23 7.44772 23 8C23 8.55228 22.5523 9 22 9H2C1.44772 9 1 8.55228 1 8Z" fill="black"/>
<path fill-rule="evenodd" clip-rule="evenodd" d="M6 3C6.55228 3 7 3.44772 7 4V8C7 8.55228 6.55228 9 6 9C5.44772 9 5 8.55228 5 8V4C5 3.44772 5.44772 3 6 3Z" fill="black"/>
</svg>
