<svg width="24" height="24" viewBox="0 0 24 24" fill="none" xmlns="http://www.w3.org/2000/svg">
<path fill-rule="evenodd" clip-rule="evenodd" d="M6.29289 3.29289C6.68342 2.90237 7.31658 2.90237 7.70711 3.29289L11.7071 7.29289C12.0976 7.68342 12.0976 8.31658 11.7071 8.70711C11.3166 9.09763 10.6834 9.09763 10.2929 8.70711L7 5.41421L3.70711 8.70711C3.31658 9.09763 2.68342 9.09763 2.29289 8.70711C1.90237 8.31658 1.90237 7.68342 2.29289 7.29289L6.29289 3.29289Z" fill="black"/>
<path fill-rule="evenodd" clip-rule="evenodd" d="M7 3C7.55228 3 8 3.44772 8 4V20C8 20.5523 7.55228 21 7 21C6.44772 21 6 20.5523 6 20V4C6 3.44772 6.44772 3 7 3Z" fill="black"/>
<path fill-rule="evenodd" clip-rule="evenodd" d="M14 8C14 7.44772 14.4477 7 15 7H20C20.5523 7 21 7.44772 21 8C21 8.55228 20.5523 9 20 9H15C14.4477 9 14 8.55228 14 8Z" fill="black"/>
<path fill-rule="evenodd" clip-rule="evenodd" d="M17.5 5C17.1022 5 16.7206 5.15804 16.4393 5.43934C16.158 5.72064 16 6.10218 16 6.5V10C16 10.5523 15.5523 11 15 11C14.4477 11 14 10.5523 14 10V6.5C14 5.57174 14.3687 4.6815 15.0251 4.02513C15.6815 3.36875 16.5717 3 17.5 3C18.4283 3 19.3185 3.36875 19.9749 4.02513C20.6313 4.6815 21 5.57174 21 6.5V10C21 10.5523 20.5523 11 20 11C19.4477 11 19 10.5523 19 10V6.5C19 6.10218 18.842 5.72064 18.5607 5.43934C18.2794 5.15804 17.8978 5 17.5 5Z" fill="black"/>
<path fill-rule="evenodd" clip-rule="evenodd" d="M14 14C14 13.4477 14.4477 13 15 13H20C20.388 13 20.741 13.2245 20.9056 13.5758C21.0702 13.9272 21.0166 14.3421 20.7682 14.6402L17.1351 19H20C20.5523 19 21 19.4477 21 20C21 20.5523 20.5523 21 20 21H15C14.612 21 14.259 20.7755 14.0944 20.4242C13.9298 20.0728 13.9834 19.6579 14.2318 19.3598L17.865 15H15C14.4477 15 14 14.5523 14 14Z" fill="black"/>
</svg>
