<svg width="24" height="24" viewBox="0 0 24 24" fill="none" xmlns="http://www.w3.org/2000/svg">
<path d="M10.2927 8.29296C10.6832 7.90255 11.3163 7.90259 11.7068 8.29296C12.0973 8.68353 12.0974 9.31654 11.7068 9.70702L3.32495 18.0869C3.11477 18.2972 2.99686 18.5825 2.99683 18.8799C2.99688 19.1774 3.11554 19.4625 3.32593 19.6728C3.53632 19.8832 3.82141 20.002 4.1189 20.0019C4.26606 20.0019 4.41165 19.9723 4.54761 19.916C4.68368 19.8596 4.80772 19.777 4.91187 19.6728L13.2927 11.293C13.6832 10.9025 14.3163 10.9026 14.7068 11.293C15.0973 11.6835 15.0973 12.3165 14.7068 12.707L6.32593 21.0869C6.03613 21.3768 5.6919 21.6067 5.31323 21.7637C4.93459 21.9205 4.52875 22.0019 4.1189 22.0019C3.29114 22.002 2.49734 21.673 1.91187 21.0879C1.32642 20.5026 0.997054 19.7086 0.996826 18.8808C0.996688 18.0529 1.32556 17.2584 1.91089 16.6728L10.2927 8.29296Z" fill="black"/>
<path d="M23 9.50009C23 10.485 22.8056 11.4603 22.4287 12.3702C22.0518 13.2801 21.4991 14.1064 20.8027 14.8028C20.1063 15.4992 19.28 16.0519 18.3701 16.4288C17.4602 16.8057 16.4849 17.0001 15.5 17.0001C15.1022 17.0001 14.7207 16.8419 14.4395 16.5606C14.1582 16.2794 14 15.8979 14 15.5001V13.8282C14 13.5962 13.9193 13.3723 13.7734 13.1944L13.707 13.1212L8.64453 8.05869C8.23129 7.64523 7.99905 7.08467 7.99902 6.50009C7.99902 5.91535 8.23108 5.35403 8.64453 4.94052L10.9404 2.64462L11.1025 2.49814C11.4949 2.17676 11.9884 1.99911 12.5 1.99911C13.0846 1.99914 13.6451 2.23138 14.0586 2.64462L19.1211 7.70712L19.1943 7.77353C19.3722 7.91935 19.5961 8.00004 19.8281 8.00009H21.5C21.848 8.00012 22.1833 8.1213 22.4502 8.33994L22.5605 8.43954L22.6602 8.54892C22.879 8.81588 23 9.15188 23 9.50009ZM9.99902 6.50009C9.99905 6.55424 10.0204 6.60624 10.0586 6.64462L15.1211 11.7071C15.6836 12.2696 15.9998 13.0328 16 13.8282V14.9757C16.5507 14.9254 17.0918 14.7935 17.6045 14.5811C18.2718 14.3047 18.8779 13.8995 19.3887 13.3888C19.8994 12.878 20.3047 12.2719 20.5811 11.6046C20.7934 11.0918 20.9263 10.5509 20.9766 10.0001H19.8281C19.0327 9.99992 18.2695 9.68366 17.707 9.12119L12.6445 4.05869C12.6061 4.02051 12.5541 3.99914 12.5 3.99911C12.4459 3.99911 12.3939 4.02055 12.3555 4.05869L10.0586 6.35556L10.0576 6.35458C10.0195 6.39298 9.99902 6.44596 9.99902 6.50009Z" fill="black"/>
</svg>
