<svg width="24" height="24" viewBox="0 0 24 24" fill="none" xmlns="http://www.w3.org/2000/svg">
<path fill-rule="evenodd" clip-rule="evenodd" d="M5.70711 2.29289C6.09763 2.68342 6.09763 3.31658 5.70711 3.70711L2.70711 6.70711C2.31658 7.09763 1.68342 7.09763 1.29289 6.70711C0.902369 6.31658 0.902369 5.68342 1.29289 5.29289L4.29289 2.29289C4.68342 1.90237 5.31658 1.90237 5.70711 2.29289ZM18.2929 2.29289C18.6834 1.90237 19.3166 1.90237 19.7071 2.29289L22.7071 5.29289C23.0976 5.68342 23.0976 6.31658 22.7071 6.70711C22.3166 7.09763 21.6834 7.09763 21.2929 6.70711L18.2929 3.70711C17.9024 3.31658 17.9024 2.68342 18.2929 2.29289ZM12 6C8.13401 6 5 9.13401 5 13C5 16.866 8.13401 20 12 20C13.9019 20 15.6267 19.2415 16.8883 18.0104C16.9012 17.9958 16.9145 17.9815 16.9284 17.9674C16.9466 17.949 16.9653 17.9314 16.9846 17.9147C18.2308 16.6508 19 14.9152 19 13C19 9.13401 15.866 6 12 6ZM19.0224 18.6296C20.2597 17.0881 21 15.1305 21 13C21 8.02944 16.9706 4 12 4C7.02944 4 3 8.02944 3 13C3 15.1396 3.7466 17.1048 4.99348 18.6493L3.30508 20.2809C2.90794 20.6647 2.89712 21.2978 3.28091 21.6949C3.6647 22.0921 4.29778 22.1029 4.69492 21.7191L6.41438 20.0574C7.94906 21.2737 9.88971 22 12 22C14.1195 22 16.0679 21.2673 17.6057 20.0414L19.2974 21.7116C19.6904 22.0996 20.3236 22.0956 20.7116 21.7026C21.0996 21.3096 21.0956 20.6764 20.7026 20.2884L19.0224 18.6296ZM8 13C8 12.4477 8.44772 12 9 12H15C15.5523 12 16 12.4477 16 13C16 13.5523 15.5523 14 15 14H9C8.44772 14 8 13.5523 8 13Z" fill="black"/>
</svg>
