<svg width="24" height="24" viewBox="0 0 24 24" fill="none" xmlns="http://www.w3.org/2000/svg">
<path fill-rule="evenodd" clip-rule="evenodd" d="M16.0001 3.99875L16.0001 3.99879C16.0001 3.99873 16.0001 3.99872 16.0001 3.99875ZM14 4C14 2.89543 14.8955 2 16 2C17.1046 2 18 2.89543 18 4C18 5.10457 17.1046 6 16 6C14.8955 6 14 5.10457 14 4ZM16.0001 4.00125C16.0001 4.00128 16.0001 4.00127 16.0001 4.00121L16.0001 4.00125ZM7.29294 4.29289C7.60662 3.97921 8.08946 3.90968 8.4789 4.1221L13.9789 7.1221C14.2261 7.25691 14.4049 7.48966 14.4716 7.76318C14.5383 8.03669 14.4866 8.32565 14.3292 8.55907L12.5412 11.2107C12.6719 11.3071 12.799 11.4091 12.922 11.5164C13.0716 11.6468 13.2142 11.7842 13.3494 11.928L18.8356 11.0136C19.1502 10.9612 19.4708 11.0619 19.6989 11.2847C19.927 11.5075 20.0351 11.8258 19.99 12.1414L18.99 19.1414C18.9119 19.6882 18.4054 20.0681 17.8586 19.99C17.3119 19.9118 16.932 19.4053 17.0101 18.8586L17.8169 13.211L14.5287 13.759C14.6129 13.9641 14.686 14.1744 14.7473 14.389C15.0657 15.5027 15.055 16.6847 14.7164 17.7923C14.5549 18.3205 13.9959 18.6178 13.4677 18.4563C12.9396 18.2949 12.6423 17.7358 12.8037 17.2077C13.0295 16.4692 13.0366 15.6812 12.8244 14.9388C12.6121 14.1964 12.1895 13.5312 11.6075 13.0237C11.0255 12.5162 10.3091 12.188 9.54472 12.0786C8.78032 11.9693 8.00062 12.0836 7.29973 12.4077C6.79844 12.6395 6.20416 12.421 5.97238 11.9197C5.74059 11.4184 5.95907 10.8241 6.46037 10.5923C7.51169 10.1062 8.68125 9.93481 9.82785 10.0988C10.1384 10.1432 10.4436 10.2117 10.741 10.3031L12.0567 8.35182L8.17807 6.23619L5.70715 8.70711C5.31663 9.09763 4.68347 9.09763 4.29294 8.70711C3.90242 8.31658 3.90242 7.68342 4.29294 7.29289L7.29294 4.29289ZM4.53238 13.5437C5.06054 13.7051 5.35781 14.2642 5.19637 14.7923C4.97064 15.5308 4.96347 16.3188 5.17574 17.0612C5.388 17.8036 5.81062 18.4688 6.39259 18.9763C6.97455 19.4838 7.69097 19.812 8.45537 19.9214C9.21978 20.0307 9.99948 19.9164 10.7004 19.5923C11.2017 19.3605 11.7959 19.579 12.0277 20.0803C12.2595 20.5816 12.041 21.1759 11.5397 21.4077C10.4884 21.8938 9.31885 22.0652 8.17224 21.9012C7.02564 21.7372 5.951 21.2449 5.07806 20.4836C4.20512 19.7223 3.57118 18.7246 3.25279 17.611C2.93439 16.4973 2.94513 15.3153 3.28373 14.2077C3.44518 13.6795 4.00422 13.3822 4.53238 13.5437Z" fill="black"/>
</svg>
