<svg width="24" height="24" viewBox="0 0 24 24" fill="none" xmlns="http://www.w3.org/2000/svg">
<path fill-rule="evenodd" clip-rule="evenodd" d="M4.87868 3.87868C5.44129 3.31607 6.20435 3 7 3H17C17.7956 3 18.5587 3.31607 19.1213 3.87868C19.6839 4.44129 20 5.20435 20 6V9C20 9.55228 19.5523 10 19 10C18.4477 10 18 9.55228 18 9V6C18 5.73478 17.8946 5.48043 17.7071 5.29289C17.5196 5.10536 17.2652 5 17 5H7C6.73478 5 6.48043 5.10536 6.29289 5.29289C6.10536 5.48043 6 5.73478 6 6V9C6 9.55228 5.55228 10 5 10C4.44772 10 4 9.55228 4 9V6C4 5.20435 4.31607 4.44129 4.87868 3.87868Z" fill="black"/>
<path fill-rule="evenodd" clip-rule="evenodd" d="M2.87868 8.87868C3.44129 8.31607 4.20435 8 5 8C5.79565 8 6.55871 8.31607 7.12132 8.87868C7.68393 9.44129 8 10.2044 8 11V12H16V11C16 10.2043 16.3161 9.44129 16.8787 8.87868C17.4413 8.31607 18.2043 8 19 8C19.7957 8 20.5587 8.31607 21.1213 8.87868C21.6839 9.44129 22 10.2043 22 11V16C22 16.7956 21.6839 17.5587 21.1213 18.1213C20.5587 18.6839 19.7957 19 19 19H5C4.20435 19 3.44129 18.6839 2.87868 18.1213C2.31607 17.5587 2 16.7956 2 16V11C2 10.2044 2.31607 9.44129 2.87868 8.87868ZM5 10C4.73478 10 4.48043 10.1054 4.29289 10.2929C4.10536 10.4804 4 10.7348 4 11V16C4 16.2652 4.10536 16.5196 4.29289 16.7071C4.48043 16.8946 4.73478 17 5 17H19C19.2652 17 19.5196 16.8946 19.7071 16.7071C19.8946 16.5196 20 16.2652 20 16V11C20 10.7348 19.8946 10.4804 19.7071 10.2929C19.5196 10.1054 19.2652 10 19 10C18.7348 10 18.4804 10.1054 18.2929 10.2929C18.1054 10.4804 18 10.7348 18 11V12.5C18 12.8978 17.842 13.2794 17.5607 13.5607C17.2794 13.842 16.8978 14 16.5 14H7.5C7.10218 14 6.72065 13.842 6.43934 13.5607C6.15804 13.2794 6 12.8978 6 12.5V11C6 10.7348 5.89464 10.4804 5.70711 10.2929C5.51957 10.1054 5.26522 10 5 10Z" fill="black"/>
<path fill-rule="evenodd" clip-rule="evenodd" d="M5 17C5.55228 17 6 17.4477 6 18V20C6 20.5523 5.55228 21 5 21C4.44772 21 4 20.5523 4 20V18C4 17.4477 4.44772 17 5 17Z" fill="black"/>
<path fill-rule="evenodd" clip-rule="evenodd" d="M19 17C19.5523 17 20 17.4477 20 18V20C20 20.5523 19.5523 21 19 21C18.4477 21 18 20.5523 18 20V18C18 17.4477 18.4477 17 19 17Z" fill="black"/>
</svg>
