<svg width="24" height="24" viewBox="0 0 24 24" fill="none" xmlns="http://www.w3.org/2000/svg">
<path fill-rule="evenodd" clip-rule="evenodd" d="M12 3C7.02944 3 3 7.02944 3 12C3 16.9706 7.02944 21 12 21C16.9706 21 21 16.9706 21 12C21 7.02944 16.9706 3 12 3ZM1 12C1 5.92487 5.92487 1 12 1C18.0751 1 23 5.92487 23 12C23 18.0751 18.0751 23 12 23C5.92487 23 1 18.0751 1 12Z" fill="black"/>
<path fill-rule="evenodd" clip-rule="evenodd" d="M13.8099 7.13403C14.2882 6.85784 14.8998 7.02167 15.176 7.49994L20.916 17.4399C21.1922 17.9182 21.0284 18.5298 20.5501 18.806C20.0718 19.0822 19.4602 18.9184 19.184 18.4401L13.444 8.50008C13.1678 8.02182 13.3317 7.41021 13.8099 7.13403Z" fill="black"/>
<path fill-rule="evenodd" clip-rule="evenodd" d="M8.69 8C8.69 7.44772 9.13771 7 9.69 7H21.17C21.7223 7 22.17 7.44772 22.17 8C22.17 8.55228 21.7223 9 21.17 9H9.69C9.13771 9 8.69 8.55228 8.69 8Z" fill="black"/>
<path fill-rule="evenodd" clip-rule="evenodd" d="M13.6201 1.19411C14.0984 1.47029 14.2622 2.08189 13.986 2.56016L8.24599 12.5002C7.96981 12.9784 7.35821 13.1423 6.87994 12.8661C6.40167 12.5899 6.23784 11.9783 6.51403 11.5L12.254 1.56001C12.5302 1.08175 13.1418 0.917923 13.6201 1.19411Z" fill="black"/>
<path fill-rule="evenodd" clip-rule="evenodd" d="M3.44994 5.19411C3.92821 4.91792 4.53981 5.08175 4.81599 5.56001L10.556 15.5C10.8322 15.9783 10.6684 16.5899 10.1901 16.8661C9.71181 17.1423 9.10021 16.9784 8.82403 16.5002L3.08403 6.56016C2.80784 6.08189 2.97167 5.47029 3.44994 5.19411Z" fill="black"/>
<path fill-rule="evenodd" clip-rule="evenodd" d="M1.83 16C1.83 15.4477 2.27772 15 2.83 15H14.31C14.8623 15 15.31 15.4477 15.31 16C15.31 16.5523 14.8623 17 14.31 17H2.83C2.27772 17 1.83 16.5523 1.83 16Z" fill="black"/>
<path fill-rule="evenodd" clip-rule="evenodd" d="M17.1201 11.134C17.5984 11.4102 17.7622 12.0218 17.486 12.5001L11.746 22.4401C11.4698 22.9184 10.8582 23.0822 10.3799 22.806C9.90167 22.5298 9.73785 21.9182 10.014 21.4399L15.754 11.4999C16.0302 11.0217 16.6418 10.8578 17.1201 11.134Z" fill="black"/>
</svg>
