<svg width="24" height="24" viewBox="0 0 24 24" fill="none" xmlns="http://www.w3.org/2000/svg">
<path d="M14.0003 13.0005C14.0003 12.47 14.2102 11.9605 14.5852 11.5854C14.9603 11.2103 15.4698 11.0005 16.0003 11.0005H18.9388L19.0354 11.0044C19.0672 11.0074 19.0988 11.0119 19.1302 11.018C19.077 10.9822 19.0271 10.9413 18.9817 10.896L12.1468 4.061C12.1276 4.04181 12.1045 4.02647 12.0794 4.01608C12.0543 4.00575 12.0274 4.00046 12.0003 4.00046C11.9731 4.00048 11.9462 4.0057 11.9212 4.01608C11.8961 4.02649 11.873 4.04178 11.8538 4.061L5.01786 10.896C4.97245 10.9414 4.92267 10.9822 4.86942 11.018C4.93245 11.0057 4.99661 11.0005 5.06082 11.0005H8.00028C8.53054 11.0006 9.03936 11.2105 9.41434 11.5854C9.78941 11.9605 10.0003 12.47 10.0003 13.0005V19.0005H14.0003V13.0005ZM16.0003 19.0005C16.0002 19.5307 15.7893 20.0396 15.4143 20.4145C15.0394 20.7895 14.5306 21.0004 14.0003 21.0005H10.0003C9.46985 21.0005 8.96031 20.7896 8.58524 20.4145C8.21033 20.0396 8.0004 19.5307 8.00028 19.0005V13.0005H5.12821C4.71435 13.0545 4.29269 12.9792 3.92313 12.7807C3.5166 12.5624 3.19832 12.21 3.02176 11.7837C2.8452 11.3573 2.82118 10.8827 2.95438 10.4409C3.0759 10.038 3.32199 9.68564 3.65457 9.43112L10.4397 2.64694C10.6446 2.44205 10.8879 2.27934 11.1556 2.16843C11.4233 2.05753 11.7105 2.00048 12.0003 2.00046C12.2901 2.00046 12.5772 2.05752 12.845 2.16843C13.1127 2.27933 13.3559 2.44204 13.5608 2.64694L20.345 9.43112C20.6777 9.68564 20.9236 10.0379 21.0452 10.4409C21.1784 10.8827 21.1544 11.3573 20.9778 11.7837C20.8012 12.21 20.483 12.5624 20.0764 12.7807C19.7071 12.979 19.2859 13.0543 18.8723 13.0005H16.0003V19.0005Z" fill="black"/>
</svg>
