<svg width="24" height="24" viewBox="0 0 24 24" fill="none" xmlns="http://www.w3.org/2000/svg">
<path fill-rule="evenodd" clip-rule="evenodd" d="M15.302 11.9054C15.8458 11.8088 16.3649 12.1713 16.4616 12.7151L17.9766 21.2411L17.9774 21.246L17.978 21.2494C18.0289 21.5506 17.9866 21.8601 17.8569 22.1366C17.7271 22.4131 17.516 22.6434 17.2518 22.7967C16.9876 22.9501 16.6829 23.019 16.3784 22.9945C16.083 22.9707 15.8014 22.8599 15.5692 22.6764L12.0035 20.0001L8.43118 22.6759C8.19916 22.8589 7.91804 22.9695 7.62307 22.9933C7.31896 23.0179 7.01459 22.9492 6.75057 22.7963C6.48655 22.6434 6.27541 22.4137 6.14534 22.1377C6.01527 21.8617 5.97244 21.5526 6.02258 21.2517C6.02317 21.2482 6.02377 21.2447 6.02439 21.2412L7.53839 12.7152C7.63495 12.1714 8.15405 11.8089 8.69783 11.9054C9.2416 12.002 9.60415 12.5211 9.50758 13.0649L8.21602 20.3382L10.8065 18.3979C11.1521 18.1397 11.572 18.0001 12.0035 18.0001C12.4349 18.0001 12.8548 18.1397 13.2005 18.3979L15.7847 20.3375L14.4924 13.065C14.3958 12.5212 14.7583 12.0021 15.302 11.9054Z" fill="black"/>
<path fill-rule="evenodd" clip-rule="evenodd" d="M12 3C9.23858 3 7 5.23858 7 8C7 10.7614 9.23858 13 12 13C14.7614 13 17 10.7614 17 8C17 5.23858 14.7614 3 12 3ZM5 8C5 4.13401 8.13401 1 12 1C15.866 1 19 4.13401 19 8C19 11.866 15.866 15 12 15C8.13401 15 5 11.866 5 8Z" fill="black"/>
</svg>
