<svg width="24" height="24" viewBox="0 0 24 24" fill="none" xmlns="http://www.w3.org/2000/svg">
<path d="M11.0005 5.0609C11.0005 4.99668 11.0058 4.93252 11.0181 4.86949C10.9822 4.92275 10.9414 4.97252 10.896 5.01793L4.06104 11.8539C4.04181 11.8731 4.02652 11.8961 4.01611 11.9213C4.00573 11.9463 4.00051 11.9732 4.00049 12.0004C4.00049 12.0274 4.00578 12.0544 4.01611 12.0795C4.0265 12.1045 4.04184 12.1276 4.06104 12.1468L10.896 18.9818C10.9414 19.0272 10.9822 19.077 11.0181 19.1302C11.0058 19.0673 11.0005 19.003 11.0005 18.9388V16.0004C11.0005 15.4699 11.2104 14.9604 11.5854 14.5853C11.9605 14.2103 12.4701 14.0004 13.0005 14.0004H19.0005V10.0004H13.0005C12.4701 10.0004 11.9605 9.78949 11.5854 9.41442C11.2105 9.03944 11.0006 8.53062 11.0005 8.00035V5.0609ZM19.0005 8.00035C19.5307 8.00047 20.0396 8.2104 20.4146 8.58531C20.7896 8.96039 21.0005 9.46992 21.0005 10.0004V14.0004C21.0004 14.5306 20.7895 15.0394 20.4146 15.4144C20.0396 15.7894 19.5308 16.0002 19.0005 16.0004H13.0005V18.8714C13.0546 19.2853 12.9792 19.7069 12.7808 20.0765C12.5625 20.4831 12.21 20.8013 11.7837 20.9779C11.3573 21.1545 10.8828 21.1785 10.4409 21.0453C10.038 20.9237 9.68567 20.6777 9.43115 20.3451L2.64697 13.5609C2.44207 13.356 2.27936 13.1128 2.16846 12.8451C2.05755 12.5773 2.00049 12.2902 2.00049 12.0004C2.00051 11.7106 2.05756 11.4234 2.16846 11.1556C2.27937 10.8879 2.44208 10.6447 2.64697 10.4398L9.43115 3.65465C9.68567 3.32206 10.038 3.07598 10.4409 2.95446C10.8827 2.82126 11.3573 2.84528 11.7837 3.02184C12.21 3.19839 12.5625 3.51668 12.7808 3.92321C12.979 4.29248 13.0543 4.71376 13.0005 5.12731V8.00035H19.0005Z" fill="black"/>
</svg>
