<svg width="24" height="24" viewBox="0 0 24 24" fill="none" xmlns="http://www.w3.org/2000/svg">
<path fill-rule="evenodd" clip-rule="evenodd" d="M7.87868 1.87868C8.44129 1.31607 9.20435 1 10 1H14C14.7956 1 15.5587 1.31607 16.1213 1.87868C16.6839 2.44129 17 3.20435 17 4V20C17 20.5523 16.5523 21 16 21C15.4477 21 15 20.5523 15 20V4C15 3.73478 14.8946 3.48043 14.7071 3.29289C14.5196 3.10536 14.2652 3 14 3H10C9.73478 3 9.48043 3.10536 9.29289 3.29289C9.10536 3.48043 9 3.73478 9 4V20C9 20.5523 8.55228 21 8 21C7.44772 21 7 20.5523 7 20V4C7 3.20435 7.31607 2.44129 7.87868 1.87868Z" fill="black"/>
<path fill-rule="evenodd" clip-rule="evenodd" d="M4 7C3.44772 7 3 7.44771 3 8V18C3 18.5523 3.44772 19 4 19H20C20.5523 19 21 18.5523 21 18V8C21 7.44771 20.5523 7 20 7H4ZM1 8C1 6.34315 2.34315 5 4 5H20C21.6569 5 23 6.34315 23 8V18C23 19.6569 21.6569 21 20 21H4C2.34315 21 1 19.6569 1 18V8Z" fill="black"/>
</svg>
