<svg width="24" height="24" viewBox="0 0 24 24" fill="none" xmlns="http://www.w3.org/2000/svg">
<path fill-rule="evenodd" clip-rule="evenodd" d="M8.91667 0.992019C9.44985 0.980905 9.97987 1.07652 10.4756 1.27324C10.9712 1.46997 11.4226 1.76382 11.803 2.13753C12.1835 2.51124 12.4854 2.95725 12.6909 3.44934C12.8963 3.94087 13.0013 4.46846 13 5.00114L13 18.0011C12.9993 18.6845 12.8585 19.3605 12.5862 19.9874C12.314 20.6143 11.9161 21.1787 11.4172 21.6458C10.9183 22.1128 10.3289 22.4727 9.6855 22.7031C9.04206 22.9335 8.35823 23.0295 7.67623 22.9852C6.99423 22.941 6.32855 22.7574 5.72029 22.4458C5.11203 22.1341 4.5741 21.7011 4.13974 21.1735C3.70538 20.6459 3.38381 20.0348 3.19487 19.378C3.06573 18.929 3.00043 18.4652 3.00002 18.0002C2.52415 17.6434 2.11432 17.2036 1.79122 16.7001C1.35124 16.0145 1.08543 15.2318 1.01692 14.4201C0.948412 13.6083 1.07928 12.7921 1.39814 12.0425C1.61482 11.5331 1.91385 11.0649 2.28165 10.656C2.11768 10.1891 2.02342 9.69915 2.00323 9.20188C1.97244 8.44386 2.11455 7.68877 2.41879 6.9938C2.72304 6.29883 3.18144 5.68221 3.75928 5.19063C4.14609 4.86156 4.57964 4.59431 5.04441 4.39689C5.08494 4.12715 5.15305 3.8616 5.24808 3.60447C5.43295 3.10425 5.71599 2.64604 6.08054 2.25681C6.4451 1.86757 6.8838 1.55516 7.37086 1.33796C7.85792 1.12075 8.38349 1.00313 8.91667 0.992019ZM9.73779 3.1322C9.48995 3.03384 9.22494 2.98603 8.95835 2.99158C8.69176 2.99714 8.42897 3.05595 8.18544 3.16455C7.94191 3.27316 7.72256 3.42936 7.54029 3.62398C7.35801 3.8186 7.21649 4.0477 7.12405 4.29781C7.03161 4.54792 6.99012 4.81399 7.00202 5.08038C7.02312 5.55296 6.71019 5.97568 6.25204 6.09349C5.81119 6.20684 5.40191 6.41902 5.05521 6.71397C4.70851 7.00892 4.43347 7.37889 4.25092 7.79587C4.06837 8.21285 3.98311 8.66591 4.00158 9.12072C4.02005 9.57553 4.14178 10.0202 4.35754 10.421C4.58508 10.8437 4.48016 11.3684 4.10756 11.6711C3.7282 11.9793 3.42988 12.3756 3.23857 12.8253C3.04725 13.2751 2.96873 13.7648 3.00984 14.2519C3.05094 14.7389 3.21042 15.2086 3.47442 15.6199C3.73841 16.0313 4.09891 16.3719 4.52456 16.6121C4.87913 16.8123 5.07695 17.2074 5.02476 17.6112C4.9722 18.0178 5.00357 18.431 5.11693 18.8251C5.23029 19.2191 5.42324 19.5858 5.68385 19.9024C5.94447 20.219 6.26722 20.4788 6.63218 20.6657C6.99714 20.8527 7.39655 20.9629 7.80575 20.9894C8.21495 21.016 8.62524 20.9584 9.0113 20.8201C9.39736 20.6819 9.75099 20.466 10.0503 20.1857C10.3497 19.9055 10.5884 19.5668 10.7517 19.1907C10.915 18.8148 10.9995 18.4093 11 17.9994C11 17.9993 11 17.9996 11 17.9994V4.99999C11 4.99901 11 4.99802 11 4.99704C11.0008 4.7304 10.9483 4.46629 10.8455 4.22024C10.7427 3.9742 10.5918 3.75119 10.4015 3.56434C10.2113 3.37749 9.98563 3.23056 9.73779 3.1322Z" fill="black"/>
<path fill-rule="evenodd" clip-rule="evenodd" d="M12.0545 8.00149C12.6059 8.03156 13.0286 8.50298 12.9985 9.05445C12.9393 10.1406 12.5593 11.1848 11.9067 12.055C11.254 12.9252 10.358 13.5824 9.33186 13.9433C8.81087 14.1266 8.23995 13.8528 8.05667 13.3319C7.8734 12.8109 8.14717 12.2399 8.66816 12.0567C9.32114 11.827 9.89135 11.4088 10.3067 10.855C10.722 10.3012 10.9638 9.63675 11.0015 8.94556C11.0316 8.3941 11.503 7.97142 12.0545 8.00149Z" fill="black"/>
<path fill-rule="evenodd" clip-rule="evenodd" d="M5.96217 4.12583C6.51399 4.10327 6.97962 4.53232 7.00218 5.08415C7.01536 5.40664 7.1064 5.72114 7.26751 6.00081C7.5432 6.47937 7.37874 7.0908 6.90019 7.36649C6.42164 7.64218 5.8102 7.47773 5.53451 6.99917C5.21228 6.43983 5.03021 5.81082 5.00385 5.16584C4.98129 4.61402 5.41034 4.14839 5.96217 4.12583Z" fill="black"/>
<path fill-rule="evenodd" clip-rule="evenodd" d="M4.93639 10.0148C5.20438 10.4977 5.03017 11.1064 4.54726 11.3744C4.39254 11.4602 4.24477 11.5594 4.10756 11.6711C3.67933 12.0199 3.05041 11.9557 2.70164 11.5275C2.35287 11.0993 2.41728 10.4694 2.84551 10.1206C3.07418 9.93439 3.31889 9.76874 3.57676 9.62563C4.05966 9.35763 4.66839 9.53185 4.93639 10.0148Z" fill="black"/>
<path fill-rule="evenodd" clip-rule="evenodd" d="M3.16202 16.9927C3.43334 16.5117 4.04352 16.3408 4.52456 16.6121C4.97476 16.8661 5.48267 17.0002 5.99955 17C6.55183 16.9997 6.99976 17.4472 7.00002 17.9995C7.00027 18.5518 6.55277 18.9997 6.00048 19C5.13902 19.0004 4.29207 18.7782 3.54173 18.355C3.06069 18.0837 2.89069 17.4737 3.16202 16.9927Z" fill="black"/>
<path fill-rule="evenodd" clip-rule="evenodd" d="M11 13C11 12.4477 11.4477 12 12 12H16C16.5523 12 17 12.4477 17 13C17 13.5523 16.5523 14 16 14H12C11.4477 14 11 13.5523 11 13Z" fill="black"/>
<path fill-rule="evenodd" clip-rule="evenodd" d="M11 17.9994C11 17.4472 11.4477 17 12 17H18C18.7957 17 19.5587 17.316 20.1213 17.8787C20.6839 18.4413 21 19.2043 21 20V21C21 21.5523 20.5523 22 20 22C19.4477 22 19 21.5523 19 21V20C19 19.7348 18.8946 19.4804 18.7071 19.2929C18.5196 19.1053 18.2652 19 18 19H12C11.4477 19 11 18.5517 11 17.9994Z" fill="black"/>
<path fill-rule="evenodd" clip-rule="evenodd" d="M11 7.99998C11 7.44769 11.4477 6.99998 12 6.99998H20C20.5523 6.99998 21 7.44769 21 7.99998C21 8.55226 20.5523 8.99998 20 8.99998H12C11.4477 8.99998 11 8.55226 11 7.99998Z" fill="black"/>
<path fill-rule="evenodd" clip-rule="evenodd" d="M18 3.99998C17.7348 3.99998 17.4804 4.10533 17.2929 4.29287C17.1054 4.48041 17 4.73476 17 4.99998V7.99998C17 8.55226 16.5523 8.99998 16 8.99998C15.4477 8.99998 15 8.55226 15 7.99998V4.99998C15 4.20433 15.3161 3.44127 15.8787 2.87866C16.4413 2.31605 17.2044 1.99998 18 1.99998C18.5523 1.99998 19 2.44769 19 2.99998C19 3.55226 18.5523 3.99998 18 3.99998Z" fill="black"/>
<path fill-rule="evenodd" clip-rule="evenodd" d="M16 13.5C16.2761 13.5 16.5 13.2761 16.5 13C16.5 12.7238 16.2761 12.5 16 12.5C15.7239 12.5 15.5 12.7238 15.5 13C15.5 13.2761 15.7239 13.5 16 13.5ZM14.5 13C14.5 12.1716 15.1716 11.5 16 11.5C16.8284 11.5 17.5 12.1716 17.5 13C17.5 13.8284 16.8284 14.5 16 14.5C15.1716 14.5 14.5 13.8284 14.5 13Z" fill="black"/>
<path fill-rule="evenodd" clip-rule="evenodd" d="M18 3.49998C18.2761 3.49998 18.5 3.27612 18.5 2.99998C18.5 2.72384 18.2761 2.49998 18 2.49998C17.7239 2.49998 17.5 2.72384 17.5 2.99998C17.5 3.27612 17.7239 3.49998 18 3.49998ZM16.5 2.99998C16.5 2.17155 17.1716 1.49998 18 1.49998C18.8284 1.49998 19.5 2.17155 19.5 2.99998C19.5 3.82841 18.8284 4.49998 18 4.49998C17.1716 4.49998 16.5 3.82841 16.5 2.99998Z" fill="black"/>
<path fill-rule="evenodd" clip-rule="evenodd" d="M20 21.5C20.2761 21.5 20.5 21.2761 20.5 21C20.5 20.7238 20.2761 20.5 20 20.5C19.7239 20.5 19.5 20.7238 19.5 21C19.5 21.2761 19.7239 21.5 20 21.5ZM18.5 21C18.5 20.1716 19.1716 19.5 20 19.5C20.8284 19.5 21.5 20.1716 21.5 21C21.5 21.8284 20.8284 22.5 20 22.5C19.1716 22.5 18.5 21.8284 18.5 21Z" fill="black"/>
<path fill-rule="evenodd" clip-rule="evenodd" d="M20 8.49998C20.2761 8.49998 20.5 8.27612 20.5 7.99998C20.5 7.72384 20.2761 7.49998 20 7.49998C19.7239 7.49998 19.5 7.72384 19.5 7.99998C19.5 8.27612 19.7239 8.49998 20 8.49998ZM18.5 7.99998C18.5 7.17155 19.1716 6.49998 20 6.49998C20.8284 6.49998 21.5 7.17155 21.5 7.99998C21.5 8.82841 20.8284 9.49998 20 9.49998C19.1716 9.49998 18.5 8.82841 18.5 7.99998Z" fill="black"/>
</svg>
