<svg width="24" height="24" viewBox="0 0 24 24" fill="none" xmlns="http://www.w3.org/2000/svg">
<path fill-rule="evenodd" clip-rule="evenodd" d="M15 6.99999C15 6.4477 15.4477 5.99999 16 5.99999H16.01C16.5623 5.99999 17.01 6.4477 17.01 6.99999C17.01 7.55227 16.5623 7.99999 16.01 7.99999H16C15.4477 7.99999 15 7.55227 15 6.99999Z" fill="black"/>
<path fill-rule="evenodd" clip-rule="evenodd" d="M14.3907 2.25552C15.3991 1.91269 16.4907 1.90085 17.5063 2.22173C18.522 2.5426 19.4086 3.17942 20.037 4.03939C20.6652 4.89896 21.0025 5.93658 21 7.00118V10C21 12.387 20.0518 14.6761 18.364 16.364C16.6762 18.0518 14.387 19 12 19H3.92171L2.819 20.5738C2.50209 21.0261 1.87851 21.1359 1.4262 20.819C0.973893 20.5021 0.864131 19.8785 1.18104 19.4262L2.5538 17.4669C2.57097 17.4397 2.58942 17.4134 2.60906 17.3881L11.9 4.12765L11.9006 4.1268C12.5102 3.25383 13.3826 2.59824 14.3907 2.25552ZM5.32302 17H12C13.8565 17 15.637 16.2625 16.9498 14.9498C18.2625 13.637 19 11.8565 19 10V7.00001L19 6.99737C19.0017 6.3583 18.7993 5.73539 18.4222 5.21941C18.0452 4.70343 17.5132 4.32134 16.9038 4.12881C16.2944 3.93629 15.6395 3.94339 15.0344 4.14909C14.4294 4.35479 13.9058 4.74833 13.54 5.27237L5.32302 17Z" fill="black"/>
<path fill-rule="evenodd" clip-rule="evenodd" d="M19.0299 6.75745C19.1638 6.22166 19.7068 5.8959 20.2426 6.02985L22.2426 6.52985C22.6877 6.64114 23 7.04112 23 7.49999C23 7.95886 22.6877 8.35884 22.2426 8.47013L20.2426 8.97013C19.7068 9.10408 19.1638 8.77832 19.0299 8.24253C18.9644 7.9805 19.0088 7.71676 19.134 7.49999C19.0088 7.28322 18.9644 7.01948 19.0299 6.75745Z" fill="black"/>
<path fill-rule="evenodd" clip-rule="evenodd" d="M10 17C10.5523 17 11 17.4477 11 18V21C11 21.5523 10.5523 22 10 22C9.44773 22 9.00002 21.5523 9.00002 21V18C9.00002 17.4477 9.44773 17 10 17Z" fill="black"/>
<path fill-rule="evenodd" clip-rule="evenodd" d="M14 16.75C14.5523 16.75 15 17.1977 15 17.75V21C15 21.5523 14.5523 22 14 22C13.4477 22 13 21.5523 13 21V17.75C13 17.1977 13.4477 16.75 14 16.75Z" fill="black"/>
<path fill-rule="evenodd" clip-rule="evenodd" d="M10.0717 6.74996C10.4252 6.32562 11.0557 6.26819 11.4801 6.62168C12.5854 7.54248 13.3802 8.78149 13.7563 10.1701C14.1324 11.5587 14.0715 13.0295 13.5819 14.3822C13.0923 15.735 12.1978 16.9041 11.0201 17.7303C9.84238 18.5566 8.43871 18.9999 7.00007 19C6.44778 19 6.00004 18.5523 6.00002 18.0001C5.99999 17.4478 6.44768 17 6.99997 17C8.02757 17 9.03019 16.6833 9.87141 16.0931C10.7126 15.5029 11.3516 14.6679 11.7013 13.7016C12.051 12.7353 12.0945 11.6848 11.8258 10.6929C11.5572 9.70107 10.9895 8.81606 10.2 8.15835C9.77563 7.80486 9.71819 7.1743 10.0717 6.74996Z" fill="black"/>
</svg>
