<svg width="24" height="24" viewBox="0 0 24 24" fill="none" xmlns="http://www.w3.org/2000/svg">
<path fill-rule="evenodd" clip-rule="evenodd" d="M6.48519 9.64266C6.80192 9.45247 7.1977 9.4524 7.5145 9.64248L12.5145 12.6425C12.8157 12.8232 13 13.1487 13 13.5V19C13 19.3514 12.8156 19.677 12.5142 19.8577L8.545 22.2372C8.54494 22.2372 8.54506 22.2371 8.545 22.2372C8.07845 22.5174 7.54426 22.6656 7 22.6656C6.45586 22.6656 5.92198 22.5176 5.4555 22.2375C5.45534 22.2374 5.45567 22.2376 5.4555 22.2375L2.4555 20.4375C2.01264 20.1714 1.64549 19.7952 1.39058 19.3458C1.13567 18.8964 1.00113 18.3888 1 17.8722L1 17.87V14.63L1 14.6278C1.00113 14.1111 1.13567 13.6035 1.39058 13.1542C1.64549 12.7048 2.01214 12.3288 2.455 12.0628L6.48519 9.64266ZM7.00021 11.6663L3.485 13.7772C3.48493 13.7772 3.48506 13.7771 3.485 13.7772C3.33746 13.8658 3.21513 13.9912 3.13019 14.141C3.04537 14.2905 3.00053 14.4594 3 14.6313V17.8687C3.00053 18.0406 3.04537 18.2094 3.13019 18.359C3.21513 18.5087 3.33728 18.634 3.48482 18.7227C3.48476 18.7226 3.48488 18.7227 3.48482 18.7227L6.4845 20.5225C6.64003 20.6159 6.81856 20.6656 7 20.6656C7.18144 20.6656 7.35947 20.6162 7.515 20.5228L11 18.4335V14.0662L7.00021 11.6663Z" fill="black"/>
<path fill-rule="evenodd" clip-rule="evenodd" d="M1.40299 13.1347C1.68758 12.6614 2.30198 12.5084 2.7753 12.7929L7.5153 15.6429C7.98862 15.9275 8.14161 16.5419 7.85702 17.0153C7.57243 17.4886 6.95803 17.6416 6.48471 17.357L1.74471 14.507C1.2714 14.2224 1.1184 13.608 1.40299 13.1347Z" fill="black"/>
<path fill-rule="evenodd" clip-rule="evenodd" d="M12.8575 12.9855C13.1416 13.4591 12.9881 14.0733 12.5145 14.3575L7.51449 17.3575C7.04091 17.6416 6.42665 17.488 6.14251 17.0145C5.85836 16.5409 6.01192 15.9266 6.4855 15.6425L11.4855 12.6425C11.9591 12.3583 12.5733 12.5119 12.8575 12.9855Z" fill="black"/>
<path fill-rule="evenodd" clip-rule="evenodd" d="M7 15.5C7.55228 15.5 8 15.9477 8 16.5V21.67C8 22.2223 7.55228 22.67 7 22.67C6.44772 22.67 6 22.2223 6 21.67V16.5C6 15.9477 6.44772 15.5 7 15.5Z" fill="black"/>
<path fill-rule="evenodd" clip-rule="evenodd" d="M16.4855 9.64248C16.8023 9.4524 17.1981 9.45247 17.5148 9.64266L21.5448 12.0627C21.9877 12.3287 22.3545 12.7048 22.6094 13.1542C22.8643 13.6035 22.9989 14.1111 23 14.6278L23 14.63L23 17.87L23 17.8722C22.9989 18.3888 22.8643 18.8964 22.6094 19.3458C22.3545 19.7952 21.9879 20.1711 21.545 20.4372L18.545 22.2372C18.5448 22.2373 18.5452 22.2371 18.545 22.2372C18.0785 22.5173 17.5441 22.6656 17 22.6656C16.4557 22.6656 15.9216 22.5175 15.4551 22.2372C15.455 22.2372 15.4551 22.2372 15.4551 22.2372L11.4858 19.8577C11.1844 19.677 11 19.3514 11 19V13.5C11 13.1487 11.1843 12.8232 11.4855 12.6425L16.4855 9.64248ZM13 14.0662V18.4335L16.4842 20.5223C16.6397 20.6157 16.8186 20.6656 17 20.6656C17.1814 20.6656 17.3595 20.6162 17.515 20.5228L20.515 18.7228C20.6624 18.6341 20.7849 18.5086 20.8698 18.359C20.9546 18.2095 20.9994 18.0407 21 17.8688V14.6311C20.9994 14.4593 20.9546 14.2904 20.8698 14.141C20.7849 13.9912 20.6627 13.866 20.5152 13.7773C20.5151 13.7772 20.5153 13.7773 20.5152 13.7773L16.9998 11.6663L13 14.0662Z" fill="black"/>
<path fill-rule="evenodd" clip-rule="evenodd" d="M11.1425 12.9855C11.4267 12.5119 12.0409 12.3583 12.5145 12.6425L17.5145 15.6425C17.9881 15.9266 18.1417 16.5409 17.8575 17.0145C17.5734 17.488 16.9591 17.6416 16.4855 17.3575L11.4855 14.3575C11.012 14.0733 10.8584 13.4591 11.1425 12.9855Z" fill="black"/>
<path fill-rule="evenodd" clip-rule="evenodd" d="M22.597 13.1347C22.8816 13.608 22.7286 14.2224 22.2553 14.507L17.5153 17.357C17.042 17.6416 16.4276 17.4886 16.143 17.0153C15.8584 16.5419 16.0114 15.9275 16.4847 15.6429L21.2247 12.7929C21.6981 12.5084 22.3125 12.6614 22.597 13.1347Z" fill="black"/>
<path fill-rule="evenodd" clip-rule="evenodd" d="M17 15.5C17.5523 15.5 18 15.9477 18 16.5V21.67C18 22.2223 17.5523 22.67 17 22.67C16.4477 22.67 16 22.2223 16 21.67V16.5C16 15.9477 16.4477 15.5 17 15.5Z" fill="black"/>
<path fill-rule="evenodd" clip-rule="evenodd" d="M10.4555 1.76248C10.922 1.48234 11.4559 1.33435 12 1.33435C12.5441 1.33435 13.078 1.48234 13.5445 1.76248C13.5443 1.76238 13.5447 1.76258 13.5445 1.76248L16.5445 3.56248C16.9874 3.82855 17.3545 4.20478 17.6094 4.65416C17.8643 5.10354 17.9989 5.61114 18 6.12778L18 6.12997L18 10.5C18 10.8512 17.8157 11.1767 17.5145 11.3575L12.5145 14.3575C12.1978 14.5475 11.8022 14.5475 11.4855 14.3575L6.4855 11.3575C6.1843 11.1767 6 10.8512 6 10.5V6.12778C6.00113 5.61114 6.13567 5.10354 6.39058 4.65416C6.64549 4.20478 7.01214 3.82885 7.455 3.56278L10.4555 1.76248ZM12 3.33435C11.8186 3.33435 11.6405 3.38372 11.485 3.47716L8.485 5.27716C8.48492 5.27721 8.48508 5.27711 8.485 5.27716C8.33748 5.36584 8.21512 5.49124 8.13019 5.64096C8.04537 5.79049 8.00053 5.95936 8 6.13126V9.93378L12 12.3338L16 9.93378V6.13111C15.9994 5.95926 15.9546 5.79044 15.8698 5.64096C15.7849 5.49133 15.6629 5.36614 15.5155 5.27746L12.5155 3.47746C12.36 3.38402 12.1814 3.33435 12 3.33435Z" fill="black"/>
<path fill-rule="evenodd" clip-rule="evenodd" d="M6.40299 4.63467C6.68758 4.16135 7.30198 4.00836 7.7753 4.29295L12.5153 7.14295C12.9886 7.42754 13.1416 8.04194 12.857 8.51525C12.5724 8.98857 11.958 9.14156 11.4847 8.85698L6.74471 6.00698C6.2714 5.72239 6.11841 5.10798 6.40299 4.63467Z" fill="black"/>
<path fill-rule="evenodd" clip-rule="evenodd" d="M17.597 4.63467C17.8816 5.10798 17.7286 5.72239 17.2553 6.00698L12.5153 8.85698C12.042 9.14156 11.4276 8.98857 11.143 8.51525C10.8584 8.04194 11.0114 7.42754 11.4847 7.14295L16.2247 4.29295C16.6981 4.00836 17.3125 4.16135 17.597 4.63467Z" fill="black"/>
<path fill-rule="evenodd" clip-rule="evenodd" d="M12 6.99997C12.5523 6.99997 13 7.44768 13 7.99997V13.5C13 14.0523 12.5523 14.5 12 14.5C11.4477 14.5 11 14.0523 11 13.5V7.99997C11 7.44768 11.4477 6.99997 12 6.99997Z" fill="black"/>
</svg>
