<svg width="24" height="24" viewBox="0 0 24 24" fill="none" xmlns="http://www.w3.org/2000/svg">
<path d="M11 20V11C11 10.4477 11.4477 10 12 10C12.5523 10 13 10.4477 13 11V20C13 20.5523 12.5523 21 12 21C11.4477 21 11 20.5523 11 20Z" fill="black"/>
<path d="M17 11C17 10.2044 16.6837 9.44152 16.1211 8.87891C15.5585 8.3163 14.7956 8 14 8H10C9.20435 8 8.44151 8.3163 7.87891 8.87891C7.3163 9.44151 7 10.2044 7 11V14C7 15.3261 7.52716 16.5975 8.46484 17.5352C9.40252 18.4728 10.6739 19 12 19C13.3261 19 14.5975 18.4728 15.5352 17.5352C16.4728 16.5975 17 15.3261 17 14V11ZM19 14C19 15.8565 18.263 17.6374 16.9502 18.9502C15.6374 20.263 13.8565 21 12 21C10.1435 21 8.36256 20.263 7.0498 18.9502C5.73705 17.6374 5 15.8565 5 14V11C5 9.67392 5.52716 8.40253 6.46484 7.46484C7.40253 6.52716 8.67392 6 10 6H14C15.3261 6 16.5975 6.52716 17.5352 7.46484C18.4728 8.40252 19 9.67392 19 11V14Z" fill="black"/>
<path d="M15.2929 1.29296C15.6834 0.902451 16.3164 0.90249 16.7069 1.29296C17.0975 1.68348 17.0975 2.31649 16.7069 2.70702L14.827 4.5869C14.4365 4.97742 13.8035 4.97742 13.413 4.5869C13.0225 4.19637 13.0225 3.56334 13.413 3.17284L15.2929 1.29296Z" fill="black"/>
<path d="M17.238 16.001C18.5223 16.0621 19.7339 16.6158 20.6208 17.5469C21.5076 18.478 22.0011 19.7151 21.9997 21.001C21.9991 21.5533 21.551 22.0006 20.9987 22C20.4466 21.9992 19.9991 21.5511 19.9997 20.999C20.0006 20.2276 19.7045 19.4854 19.1725 18.9267C18.6404 18.3681 17.913 18.0357 17.1423 17.999C16.5908 17.9726 16.1649 17.5037 16.1911 16.9521C16.2175 16.4006 16.6864 15.9747 17.238 16.001Z" fill="black"/>
<path d="M21.0008 4C21.553 4.00064 22.0003 4.44877 21.9998 5.00098C21.9984 6.2286 21.5456 7.41298 20.7273 8.32813C19.909 9.24329 18.7822 9.82575 17.5623 9.96387C17.0136 10.0259 16.519 9.63074 16.4568 9.08203C16.3949 8.53342 16.7891 8.03868 17.3377 7.97656C18.0695 7.89366 18.7452 7.54412 19.2361 6.99512C19.7271 6.44606 19.9989 5.73558 19.9998 4.99902C20.0004 4.44686 20.4487 3.99956 21.0008 4Z" fill="black"/>
<path d="M22 12C22.5523 12 23 12.4477 23 13C23 13.5523 22.5523 14 22 14H18C17.4477 14 17 13.5523 17 13C17 12.4477 17.4477 12 18 12H22Z" fill="black"/>
<path d="M6.7627 16.001C7.31415 15.9749 7.78218 16.4007 7.8086 16.9522C7.83483 17.5038 7.40909 17.9728 6.85742 17.999C6.08677 18.0357 5.36026 18.3681 4.82813 18.9268C4.29598 19.4855 3.99913 20.2275 4 20.999C4.00054 21.5513 3.55321 21.9994 3.00098 22C2.44877 22.0006 2.00063 21.5532 2 21.001C1.99859 19.7151 2.49301 18.478 3.37989 17.5469C4.26678 16.6159 5.47832 16.0621 6.7627 16.001Z" fill="black"/>
<path d="M2.99902 4C3.55123 3.99946 3.99936 4.4468 4 4.99902C4.00089 5.73557 4.27271 6.44606 4.76367 6.99512C5.2546 7.54413 5.93031 7.89362 6.66211 7.97656C7.21072 8.03868 7.60578 8.53345 7.54395 9.08203C7.48181 9.6308 6.98627 10.026 6.4375 9.96387C5.2176 9.82575 4.09081 9.24329 3.27246 8.32813C2.45426 7.41299 2.00141 6.22855 2 5.00098C1.99946 4.44877 2.4468 4.00064 2.99902 4Z" fill="black"/>
<path d="M6 12C6.55228 12 7 12.4477 7 13C7 13.5523 6.55228 14 6 14H2C1.44772 14 1 13.5523 1 13C1 12.4477 1.44772 12 2 12H6Z" fill="black"/>
<path d="M7.29289 1.29295C7.68342 0.90243 8.31643 0.90243 8.70696 1.29295L10.5868 3.17284C10.9774 3.56336 10.9774 4.19638 10.5868 4.5869C10.1963 4.97742 9.5633 4.97742 9.17278 4.5869L7.29289 2.70702C6.90237 2.31649 6.90237 1.68348 7.29289 1.29295Z" fill="black"/>
<path d="M14 7.12988V6C14 5.46957 13.7891 4.96101 13.4141 4.58594C13.039 4.21087 12.5304 4 12 4C11.4696 4 10.961 4.21087 10.5859 4.58594C10.2109 4.96101 10 5.46957 10 6V7.12988C10 7.68217 9.55228 8.12988 9 8.12988C8.44772 8.12988 8 7.68217 8 7.12988V6C8 4.93913 8.42173 3.92202 9.17188 3.17188C9.92202 2.42173 10.9391 2 12 2C13.0609 2 14.078 2.42173 14.8281 3.17188C15.5783 3.92202 16 4.93913 16 6V7.12988C16 7.68217 15.5523 8.12988 15 8.12988C14.4477 8.12988 14 7.68217 14 7.12988Z" fill="black"/>
</svg>
