<svg width="24" height="24" viewBox="0 0 24 24" fill="none" xmlns="http://www.w3.org/2000/svg">
<path d="M11 20V12C11 11.4477 11.4477 11 12 11C12.5523 11 13 11.4477 13 12V20C13 20.5523 12.5523 21 12 21C11.4477 21 11 20.5523 11 20Z" fill="black"/>
<path d="M15.2929 1.29296C15.6834 0.902451 16.3164 0.90249 16.7069 1.29296C17.0975 1.68348 17.0975 2.31649 16.7069 2.70702L14.827 4.5869C14.4365 4.97742 13.8035 4.97742 13.413 4.5869C13.0225 4.19637 13.0225 3.56334 13.413 3.17284L15.2929 1.29296Z" fill="black"/>
<path d="M14.0001 7.12989V6.00098L13.9942 5.85255C13.9683 5.50798 13.8539 5.17491 13.6602 4.88673C13.4389 4.55746 13.1241 4.30152 12.7569 4.15137C12.3895 4.00128 11.9855 3.96391 11.5967 4.04395C11.208 4.12404 10.8515 4.31749 10.5733 4.60059C10.3851 4.79213 10.1279 4.90057 9.85944 4.9004C9.59089 4.90016 9.33346 4.7915 9.14558 4.59962L7.28522 2.69923C6.89917 2.30455 6.90629 1.67142 7.30085 1.28516C7.69553 0.899107 8.32866 0.90623 8.71491 1.30079L9.95417 2.56739C10.3355 2.34029 10.7531 2.17554 11.1925 2.08497C11.97 1.92478 12.7779 1.99959 13.5128 2.29981C14.2475 2.60001 14.8765 3.11184 15.3194 3.77052C15.7623 4.42929 15.9994 5.20523 16.0001 5.99903V7.12989C16.0001 7.68217 15.5524 8.12989 15.0001 8.12989C14.4478 8.12989 14.0001 7.68217 14.0001 7.12989Z" fill="black"/>
<path d="M16.9998 12.3398V11C16.9998 10.2044 16.6835 9.44152 16.1208 8.87891C15.5582 8.31636 14.7954 8 13.9998 8H12.7C12.1477 8 11.7 7.55228 11.7 7C11.7 6.44772 12.1477 6 12.7 6H13.9998C15.3258 6 16.5982 6.52716 17.5359 7.46484C18.4733 8.40249 18.9998 9.6741 18.9998 11V12.3398C18.9998 12.8921 18.552 13.3398 17.9998 13.3398C17.4476 13.3397 16.9998 12.8921 16.9998 12.3398Z" fill="black"/>
<path d="M1.29289 1.29295C1.68342 0.90243 2.31643 0.90243 2.70696 1.29295L22.707 21.293C23.0975 21.6835 23.0975 22.3165 22.707 22.707C22.3164 23.0975 21.6834 23.0975 21.2929 22.707L1.29289 2.70702C0.902369 2.31649 0.902369 1.68348 1.29289 1.29295Z" fill="black"/>
<path d="M21.0008 4C21.553 4.00064 22.0003 4.44877 21.9998 5.00098C21.9984 6.2286 21.5456 7.41298 20.7273 8.32813C19.909 9.24329 18.7822 9.82575 17.5623 9.96387C17.0136 10.0259 16.519 9.63074 16.4568 9.08203C16.3949 8.53342 16.7891 8.03868 17.3377 7.97656C18.0695 7.89366 18.7452 7.54412 19.2361 6.99512C19.7271 6.44606 19.9989 5.73558 19.9998 4.99902C20.0004 4.44686 20.4487 3.99956 21.0008 4Z" fill="black"/>
<path d="M21.9998 12C22.552 12 22.9998 12.4477 22.9998 13C22.9998 13.5523 22.552 14 21.9998 14H18.6599C18.1076 14 17.6599 13.5523 17.6599 13C17.6599 12.4477 18.1076 12 18.6599 12H21.9998Z" fill="black"/>
<path d="M6.7627 16.001C7.31415 15.9749 7.78218 16.4007 7.8086 16.9522C7.83483 17.5038 7.40909 17.9728 6.85742 17.999C6.08677 18.0357 5.36026 18.3681 4.82813 18.9268C4.29598 19.4855 3.99913 20.2275 4 20.999C4.00054 21.5513 3.55321 21.9994 3.00098 22C2.44877 22.0006 2.00063 21.5532 2 21.001C1.99859 19.7151 2.49301 18.478 3.37989 17.5469C4.26678 16.6159 5.47832 16.0621 6.7627 16.001Z" fill="black"/>
<path d="M6 12C6.55228 12 7 12.4477 7 13C7 13.5523 6.55228 14 6 14H2C1.44772 14 1 13.5523 1 13C1 12.4477 1.44772 12 2 12H6Z" fill="black"/>
<path d="M7.12483 6.88165C7.57669 6.56411 8.20083 6.67297 8.51838 7.12482C8.83591 7.57664 8.72698 8.20079 8.27522 8.51837C7.87859 8.79711 7.55489 9.16752 7.33284 9.59845C7.11081 10.0294 6.99655 10.5082 6.99983 10.993V14.0027C6.9965 15.0953 7.35127 16.1591 8.0096 17.0311C8.66811 17.9031 9.5944 18.536 10.6463 18.8319C11.6982 19.1276 12.8183 19.0707 13.8348 18.6697C14.8512 18.2688 15.7085 17.5454 16.2752 16.6111C16.5617 16.1392 17.1762 15.9889 17.6483 16.2752C18.1203 16.5616 18.2713 17.1761 17.9852 17.6483C17.1918 18.9562 15.9913 19.9688 14.5682 20.5301C13.1453 21.0913 11.5778 21.1707 10.1053 20.7567C8.63273 20.3425 7.3358 19.4578 6.41389 18.2371C5.49197 17.0163 4.99517 15.5267 4.99983 13.9969V10.9998C4.99546 10.1941 5.1855 9.39876 5.55452 8.68243C5.9246 7.96411 6.4637 7.34627 7.12483 6.88165Z" fill="black"/>
</svg>
