<svg width="24" height="24" viewBox="0 0 24 24" fill="none" xmlns="http://www.w3.org/2000/svg">
<path d="M6.66799 14.1421C7.045 14.0092 7.4488 13.9679 7.84475 14.023C8.24079 14.0782 8.61799 14.2285 8.94436 14.4595C9.27063 14.6905 9.53709 14.996 9.72073 15.3511C9.9044 15.7063 10.0001 16.1007 10 16.5005C9.99973 17.0526 9.55208 17.4996 9.00002 17.4996C8.44774 17.4994 7.99986 17.0519 8.00002 16.4996L7.98537 16.3814C7.97602 16.343 7.96264 16.3055 7.94436 16.2701C7.90764 16.1991 7.85432 16.1376 7.78909 16.0914C7.72392 16.0452 7.64843 16.0155 7.56936 16.0044C7.49027 15.9934 7.40932 16.0014 7.33401 16.0279C6.81318 16.2116 6.24137 15.9384 6.05764 15.4175C5.87411 14.8969 6.14747 14.326 6.66799 14.1421Z" fill="black"/>
<path d="M21 8.5C21 7.11929 19.8807 6 18.5 6C17.1193 6 16 7.11929 16 8.5C16 9.88071 17.1193 11 18.5 11C19.8807 11 21 9.88071 21 8.5ZM23 8.5C23 10.9853 20.9853 13 18.5 13C16.0147 13 14 10.9853 14 8.5C14 6.01472 16.0147 4 18.5 4C20.9853 4 23 6.01472 23 8.5Z" fill="black"/>
<path d="M12 16.5C12 14.0147 9.98528 12 7.5 12C5.01472 12 3 14.0147 3 16.5C3 18.9853 5.01472 21 7.5 21C9.98528 21 12 18.9853 12 16.5ZM14 16.5C14 20.0899 11.0899 23 7.5 23C3.91015 23 1 20.0899 1 16.5C1 12.9101 3.91015 10 7.5 10C11.0899 10 14 12.9101 14 16.5Z" fill="black"/>
<path d="M9 4.5C9 3.67157 8.32843 3 7.5 3C6.67157 3 6 3.67157 6 4.5C6 5.32843 6.67157 6 7.5 6C8.32843 6 9 5.32843 9 4.5ZM11 4.5C11 6.433 9.433 8 7.5 8C5.567 8 4 6.433 4 4.5C4 2.567 5.567 1 7.5 1C9.433 1 11 2.567 11 4.5Z" fill="black"/>
</svg>
