<svg width="24" height="24" viewBox="0 0 24 24" fill="none" xmlns="http://www.w3.org/2000/svg">
<path d="M12.8657 20.5C13.1419 20.0218 13.7537 19.8578 14.2319 20.1338C14.7102 20.4099 14.8743 21.0217 14.5982 21.5C14.3349 21.9558 13.9563 22.3344 13.5005 22.5976C13.0446 22.8609 12.5269 22.9999 12.0005 23C11.474 23 10.9565 22.8609 10.5005 22.5976C10.0445 22.3344 9.66519 21.956 9.40187 21.5C9.1258 21.0217 9.28984 20.4099 9.76808 20.1338C10.2463 19.8577 10.8581 20.0217 11.1343 20.5C11.2221 20.6519 11.3485 20.7785 11.5005 20.8662C11.6524 20.9538 11.8251 21 12.0005 21C12.1759 20.9999 12.3486 20.9539 12.5005 20.8662C12.6524 20.7785 12.778 20.6518 12.8657 20.5Z" fill="black"/>
<path d="M4.99957 8.00018C4.99941 7.31163 5.10159 6.62688 5.30133 5.96795C5.46157 5.43945 6.01988 5.14075 6.5484 5.30096C7.07666 5.46129 7.37545 6.01966 7.21539 6.54803C7.07272 7.01871 6.99945 7.50835 6.99957 8.00018C6.99955 10.3542 6.63074 11.9982 6.03277 13.2638C5.44263 14.5129 4.66012 15.3203 4.00055 16.0002H16.9996C17.5519 16.0002 17.9996 16.4479 17.9996 17.0002C17.9995 17.5524 17.5518 18.0002 16.9996 18.0002H3.99957C3.61223 18.0002 3.23339 17.8873 2.90875 17.676C2.5839 17.4645 2.32726 17.1632 2.17047 16.8088C2.01381 16.4545 1.96297 16.0623 2.02496 15.6799C2.08703 15.2974 2.25941 14.9411 2.52008 14.6545L2.54254 14.631C3.20823 13.9448 3.78361 13.3418 4.22418 12.4094C4.63623 11.5372 4.95715 10.31 4.99566 8.39275L4.99957 8.00018Z" fill="black"/>
<path d="M1.29289 1.29295C1.68342 0.90243 2.31643 0.90243 2.70696 1.29295L22.707 21.293C23.0975 21.6835 23.0975 22.3165 22.707 22.707C22.3164 23.0975 21.6834 23.0975 21.2929 22.707L1.29289 2.70702C0.902369 2.31649 0.902369 1.68348 1.29289 1.29295Z" fill="black"/>
<path d="M17 7.99975C17 7.09448 16.7544 6.20597 16.2891 5.42944C15.8237 4.6529 15.1558 4.01746 14.3574 3.59057C13.5592 3.16375 12.66 2.96142 11.7559 3.00561C10.8517 3.04983 9.97651 3.33889 9.22366 3.84155C8.76436 4.14825 8.14267 4.02448 7.83596 3.56518C7.52956 3.10601 7.65336 2.48517 8.11233 2.17846C9.1664 1.47459 10.3923 1.07045 11.6582 1.00854C12.9241 0.946658 14.1831 1.22926 15.3008 1.8269C16.4185 2.42456 17.3534 3.3149 18.0049 4.4021C18.6562 5.4891 19 6.73258 19 7.99975C19 10.4823 19.7073 12.2557 20.5371 13.4929C20.8448 13.9516 20.7224 14.573 20.2637 14.8806C19.8052 15.1879 19.1846 15.0655 18.877 14.6072C17.8328 13.0504 17 10.8911 17 7.99975Z" fill="black"/>
</svg>
