<svg width="24" height="24" viewBox="0 0 24 24" fill="none" xmlns="http://www.w3.org/2000/svg">
<path d="M18.2929 2.29297C18.6834 1.90245 19.3164 1.90245 19.707 2.29297L20.707 3.29297C21.0975 3.68349 21.0975 4.31651 20.707 4.70703C20.3164 5.09756 19.6834 5.09756 19.2929 4.70703L18.2929 3.70703C17.9024 3.31651 17.9024 2.68349 18.2929 2.29297Z" fill="black"/>
<path d="M19.2929 1.29297C19.6834 0.902445 20.3164 0.902445 20.707 1.29297C21.0975 1.68349 21.0975 2.31651 20.707 2.70703L16.207 7.20703C15.8164 7.59756 15.1834 7.59756 14.7929 7.20703C14.4024 6.81651 14.4024 6.18349 14.7929 5.79297L19.2929 1.29297Z" fill="black"/>
<path d="M3 19.4996C3.00012 18.5715 3.36912 17.6812 4.02539 17.025C4.68175 16.3687 5.57185 15.9996 6.5 15.9996H19V7.898C19 7.34572 19.4477 6.898 20 6.898C20.5523 6.898 21 7.34572 21 7.898V20.9996C21 21.53 20.7891 22.0395 20.4141 22.4146C20.039 22.7895 19.5303 22.9996 19 22.9996H6.5C5.57187 22.9996 4.68174 22.6314 4.02539 21.9752C3.36901 21.3188 3 20.4278 3 19.4996ZM5 19.4996C5 19.8974 5.15815 20.2798 5.43945 20.5611C5.72073 20.8422 6.1023 20.9996 6.5 20.9996H19V17.9996H6.5C6.10228 17.9996 5.72074 18.1579 5.43945 18.439C5.15825 18.7202 5.00012 19.1019 5 19.4996Z" fill="black"/>
<path d="M3 19.4996V4.5C3 3.57174 3.36901 2.68177 4.02539 2.02539C4.68177 1.36901 5.57174 1 6.5 1H14.3438C14.896 1 15.3438 1.44772 15.3438 2C15.3438 2.55228 14.896 3 14.3438 3H6.5C6.10218 3 5.72076 3.15815 5.43945 3.43945C5.15815 3.72076 5 4.10218 5 4.5V19.4996C5 20.0518 4.55228 20.5 4 20.5C3.44772 20.5 3 20.0518 3 19.4996Z" fill="black"/>
<path d="M15 8C15 7.44772 14.5523 7 14 7C13.4477 7 13 7.44772 13 8C13 8.55228 13.4477 9 14 9C14.5523 9 15 8.55228 15 8ZM17 8C17 9.65685 15.6569 11 14 11C12.3431 11 11 9.65685 11 8C11 6.34315 12.3431 5 14 5C15.6569 5 17 6.34315 17 8Z" fill="black"/>
</svg>
