<svg width="24" height="24" viewBox="0 0 24 24" fill="none" xmlns="http://www.w3.org/2000/svg">
<path fill-rule="evenodd" clip-rule="evenodd" d="M12 6C12.5523 6 13 6.44772 13 7V21C13 21.5523 12.5523 22 12 22C11.4477 22 11 21.5523 11 21V7C11 6.44772 11.4477 6 12 6Z" fill="black"/>
<path fill-rule="evenodd" clip-rule="evenodd" d="M22.7071 9.29289C23.0976 9.68342 23.0976 10.3166 22.7071 10.7071L18.7071 14.7071C18.3166 15.0976 17.6834 15.0976 17.2929 14.7071L15.2929 12.7071C14.9024 12.3166 14.9024 11.6834 15.2929 11.2929C15.6834 10.9024 16.3166 10.9024 16.7071 11.2929L18 12.5858L21.2929 9.29289C21.6834 8.90237 22.3166 8.90237 22.7071 9.29289Z" fill="black"/>
<path fill-rule="evenodd" clip-rule="evenodd" d="M1.58579 2.58579C1.96086 2.21071 2.46957 2 3 2H8C9.32608 2 10.5979 2.52678 11.5355 3.46447C11.7038 3.63274 11.8589 3.81178 12 3.99997C12.1411 3.81178 12.2962 3.63274 12.4645 3.46447C13.4021 2.52678 14.6739 2 16 2H21C21.5304 2 22.0391 2.21071 22.4142 2.58579C22.7893 2.96086 23 3.46957 23 4V6C23 6.55228 22.5523 7 22 7C21.4477 7 21 6.55228 21 6V4H16C15.2044 4 14.4413 4.31607 13.8787 4.87868C13.3161 5.44129 13 6.20435 13 7C13 7.55228 12.5523 8 12 8C11.4477 8 11 7.55228 11 7C11 6.20435 10.6839 5.44129 10.1213 4.87868C9.55871 4.31607 8.79565 4 8 4H3V17H9C10.0609 17 11.0783 17.4214 11.8284 18.1716C11.8877 18.2308 11.9449 18.2918 12 18.3542C12.0551 18.2918 12.1123 18.2308 12.1716 18.1716C12.9217 17.4214 13.9391 17 15 17H21V15.7C21 15.1477 21.4477 14.7 22 14.7C22.5523 14.7 23 15.1477 23 15.7V17C23 17.5304 22.7893 18.0391 22.4142 18.4142C22.0391 18.7893 21.5304 19 21 19H15C14.4696 19 13.9609 19.2107 13.5858 19.5858C13.2107 19.9609 13 20.4696 13 21C13 21.5523 12.5523 22 12 22C11.4477 22 11 21.5523 11 21C11 20.4696 10.7893 19.9609 10.4142 19.5858C10.0391 19.2107 9.53043 19 9 19H3C2.46957 19 1.96086 18.7893 1.58579 18.4142C1.21071 18.0391 1 17.5304 1 17V4C1 3.46957 1.21071 2.96086 1.58579 2.58579Z" fill="black"/>
</svg>
