<svg width="24" height="24" viewBox="0 0 24 24" fill="none" xmlns="http://www.w3.org/2000/svg">
<path d="M10.0587 1.41103C11.1782 1.02647 12.3729 0.912302 13.545 1.07802C14.7171 1.24376 15.8337 1.68428 16.8028 2.36415C17.7717 3.04394 18.5655 3.94363 19.1202 4.98915C19.6748 6.03483 19.9748 7.19726 19.9942 8.38076C20.0136 9.56441 19.7518 10.7363 19.2315 11.7997C18.7186 12.8481 17.9672 13.7606 17.0391 14.4677L17.0401 14.4686C13.884 17.0986 9.2629 18.9999 5.00008 18.9999C4.17562 18.9993 3.37014 18.7436 2.69637 18.2684C2.02286 17.7933 1.51272 17.1218 1.23543 16.3456C0.958105 15.5691 0.927186 14.7251 1.14754 13.9306C1.36346 13.1523 1.81034 12.4587 2.42781 11.9393L2.81844 11.5731C3.65831 10.7573 4.00635 10.2066 4.25496 9.61122C4.40973 9.24053 4.53377 8.83356 4.69832 8.27919C4.85995 7.73467 5.05274 7.07728 5.33699 6.26845C5.6857 5.15184 6.2902 4.13216 7.10359 3.29091C7.92649 2.43987 8.93907 1.79562 10.0587 1.41103ZM13.2647 3.05751C12.4053 2.93604 11.529 3.01967 10.7081 3.30165C9.88708 3.58368 9.14454 4.0565 8.54109 4.68056C7.93775 5.30454 7.4907 6.06259 7.23641 6.89247C7.23244 6.90541 7.2282 6.91877 7.22371 6.93154C6.95801 7.68758 6.77804 8.30029 6.61531 8.84853C6.45549 9.38696 6.30339 9.89619 6.10066 10.3817C5.6698 11.4137 5.04274 12.266 3.77254 13.4198C3.76016 13.4311 3.74738 13.4424 3.73445 13.453C3.41563 13.7144 3.18447 14.0684 3.0743 14.4657C2.96421 14.8629 2.97963 15.2846 3.11824 15.6727C3.25691 16.061 3.51277 16.3971 3.84969 16.6347C4.18638 16.872 4.58814 16.9985 5.00008 16.9989C8.73712 16.9989 12.9159 15.3015 15.7598 12.9315C15.7727 12.9209 15.7856 12.9103 15.7989 12.9003C16.4929 12.3787 17.0541 11.7006 17.4356 10.9208C17.8171 10.141 18.0084 9.28193 17.9942 8.41396C17.98 7.54594 17.7604 6.69358 17.3536 5.92665C16.9468 5.15976 16.364 4.50043 15.6534 4.00185C14.9427 3.50327 14.1243 3.17904 13.2647 3.05751Z" fill="black"/>
<path d="M18.0621 5.10059C18.5587 4.85891 19.1573 5.06591 19.399 5.56251L21.5894 10.0625L21.6412 10.1904C22.1251 11.6782 22.13 13.2806 21.6558 14.7715C21.1844 16.2535 20.2623 17.5507 19.0191 18.4844C15.8635 21.1057 11.2534 23 6.99958 23C6.25729 22.999 5.52907 22.7912 4.89802 22.4004C4.34577 22.0583 3.88653 21.5876 3.55817 21.0303L3.42536 20.7871L1.50544 16.9473C1.25845 16.4533 1.45873 15.8525 1.95271 15.6055C2.44668 15.3585 3.04751 15.5588 3.2945 16.0527L5.21442 19.8926C5.38019 20.2246 5.63531 20.5048 5.95075 20.7002C6.26607 20.8955 6.62966 20.9984 7.00056 20.999C10.7374 20.9989 14.9156 19.3014 17.7593 16.9316C17.7732 16.9201 17.7879 16.9092 17.8023 16.8984C18.7213 16.2135 19.4022 15.2573 19.7496 14.165C20.0909 13.092 20.0926 11.9408 19.7564 10.8672L17.6011 6.43751C17.3595 5.94096 17.5656 5.34232 18.0621 5.10059Z" fill="black"/>
<path d="M14 8.50001C14 7.67158 13.3284 7.00001 12.5 7.00001C11.6716 7.00001 11 7.67158 11 8.50001C11 9.32843 11.6716 10 12.5 10C13.3284 10 14 9.32843 14 8.50001ZM16 8.50001C16 10.433 14.433 12 12.5 12C10.567 12 9 10.433 9 8.50001C9 6.56701 10.567 5.00001 12.5 5.00001C14.433 5.00001 16 6.56701 16 8.50001Z" fill="black"/>
</svg>
