<svg width="24" height="24" viewBox="0 0 24 24" fill="none" xmlns="http://www.w3.org/2000/svg">
<path d="M9.02443 2.78028C9.14575 2.24159 9.68099 1.90321 10.2197 2.02443C10.7584 2.14575 11.0968 2.68099 10.9756 3.21974C9.67485 9.00099 9.67485 14.999 10.9756 20.7803C11.0968 21.319 10.7584 21.8543 10.2197 21.9756C9.68099 22.0968 9.14575 21.7584 9.02443 21.2197C7.65857 15.1493 7.65857 8.85075 9.02443 2.78028Z" fill="black"/>
<path d="M13.7803 2.02443C14.319 1.90321 14.8543 2.24159 14.9756 2.78028C16.3415 8.85075 16.3415 15.1493 14.9756 21.2197C14.8543 21.7584 14.319 22.0968 13.7803 21.9756C13.2416 21.8543 12.9032 21.319 13.0244 20.7803C14.3252 14.999 14.3252 9.00099 13.0244 3.21974C12.9032 2.68099 13.2416 2.14575 13.7803 2.02443Z" fill="black"/>
<path d="M19.9967 12C19.9967 9.33027 19.2462 6.71443 17.8317 4.45021C17.742 4.31413 17.6202 4.20143 17.4772 4.12306C17.367 4.06271 17.2466 4.02356 17.1227 4.00782L16.9987 4.00001H7.00159L6.87659 4.00782C6.75295 4.02362 6.63304 4.06284 6.52307 4.12306C6.37983 4.2015 6.25834 4.31392 6.16858 4.45021L5.91077 4.87892C4.66293 7.04172 4.00354 9.4972 4.00354 12C4.00354 14.6686 4.75329 17.2833 6.16663 19.5469C6.25657 19.6845 6.37881 19.798 6.52307 19.877C6.6698 19.9573 6.8343 19.9997 7.00159 20H16.9987C17.1659 19.9997 17.3305 19.9573 17.4772 19.877C17.6212 19.798 17.7428 19.6843 17.8326 19.5469C19.2461 17.2832 19.9967 14.6688 19.9967 12ZM21.9967 12C21.9967 15.0444 21.1409 18.0274 19.528 20.6094L19.5221 20.6201C19.2512 21.0424 18.8781 21.3898 18.4381 21.6309C17.9978 21.872 17.5035 21.9992 17.0016 22H6.99866C6.4967 21.9992 6.0024 21.872 5.56213 21.6309C5.12204 21.3898 4.74913 21.0425 4.47815 20.6201L4.47229 20.6104C2.85926 18.0284 2.00354 15.0445 2.00354 12C2.00354 8.95557 2.85926 5.97265 4.47229 3.39064L4.47815 3.37989C4.74913 2.95754 5.12204 2.61024 5.56213 2.36915C6.0024 2.12805 6.4967 2.00085 6.99866 2.00001H17.0016L17.1891 2.00587C17.626 2.03395 18.0528 2.15813 18.4381 2.36915C18.8233 2.58018 19.1568 2.87269 19.4156 3.2256L19.5221 3.37989L19.528 3.38966C21.1409 5.97165 21.9967 8.9556 21.9967 12Z" fill="black"/>
<path d="M20.1603 16C20.7125 16.0002 21.1603 16.4478 21.1603 17C21.1603 17.5522 20.7125 17.9998 20.1603 18H3.84001C3.28773 18 2.84001 17.5523 2.84001 17C2.84001 16.4477 3.28773 16 3.84001 16H20.1603Z" fill="black"/>
<path d="M20.1603 6.00001C20.7125 6.00018 21.1603 6.44783 21.1603 7.00001C21.1603 7.55219 20.7125 7.99984 20.1603 8.00001H3.84001C3.28773 8.00001 2.84001 7.5523 2.84001 7.00001C2.84001 6.44773 3.28773 6.00001 3.84001 6.00001H20.1603Z" fill="black"/>
</svg>
