<svg width="24" height="24" viewBox="0 0 24 24" fill="none" xmlns="http://www.w3.org/2000/svg">
<path d="M17.873 16.5833C18.2949 16.227 18.9258 16.2797 19.2822 16.7015C19.6386 17.1234 19.5849 17.7543 19.1631 18.1107C17.7192 19.3306 15.8902 20.0004 14 20.0003C13.4478 20.0003 13.0002 19.5524 13 19.0003C13 18.448 13.4477 18.0003 14 18.0003C15.4177 18.0004 16.7901 17.4983 17.873 16.5833Z" fill="black"/>
<path d="M19.0002 9C19.0008 7.41996 18.627 5.86178 17.9094 4.4541C17.6586 3.96208 17.8539 3.36023 18.3459 3.10937C18.8379 2.85855 19.4398 3.0539 19.6906 3.5459C20.5517 5.23502 21.0008 7.10405 21.0002 9C21 9.55228 20.5515 10.0002 19.9992 10C19.4473 9.99957 19.0002 9.55198 19.0002 9Z" fill="black"/>
<path d="M9.00977 8C9.56205 8 10.0098 8.44772 10.0098 9C10.0098 9.55228 9.56205 10 9.00977 10H9C8.44772 10 8 9.55228 8 9C8 8.44772 8.44772 8 9 8H9.00977Z" fill="black"/>
<path d="M21 16C21 15.4477 20.5523 15 20 15C19.4477 15 19 15.4477 19 16C19 16.5523 19.4477 17 20 17C20.5523 17 21 16.5523 21 16ZM23 16C23 17.6569 21.6569 19 20 19C18.3431 19 17 17.6569 17 16C17 14.3431 18.3431 13 20 13C21.6569 13 23 14.3431 23 16Z" fill="black"/>
<path d="M15 9C15 5.68629 12.3137 3 9 3C5.68629 3 3 5.68629 3 9C3 12.3137 5.68629 15 9 15C12.3137 15 15 12.3137 15 9ZM17 9C17 13.4183 13.4183 17 9 17C4.58172 17 1 13.4183 1 9C1 4.58172 4.58172 1 9 1C13.4183 1 17 4.58172 17 9Z" fill="black"/>
<path d="M13 18C13 17.4477 12.5523 17 12 17H6C5.44772 17 5 17.4477 5 18V20C5 20.5523 5.44772 21 6 21H12C12.5523 21 13 20.5523 13 20V18ZM15 20C15 21.6569 13.6569 23 12 23H6C4.34315 23 3 21.6569 3 20V18C3 16.3431 4.34315 15 6 15H12C13.6569 15 15 16.3431 15 18V20Z" fill="black"/>
</svg>
