<svg width="24" height="24" viewBox="0 0 24 24" fill="none" xmlns="http://www.w3.org/2000/svg">
<path fill-rule="evenodd" clip-rule="evenodd" d="M9.42588 12.7406C7.88004 12.5274 6.10135 12.951 4.49615 13.8682C4.01664 14.1422 3.40578 13.9756 3.13177 13.4961C2.85776 13.0166 3.02436 12.4057 3.50388 12.1317C5.39868 11.049 7.61999 10.4726 9.69915 10.7594C11.5568 11.0156 13.257 11.9596 14.4265 13.7384C15.1819 13.484 15.9804 13.3698 16.7821 13.4046C17.9038 13.4531 18.9938 13.7914 19.9459 14.3865C20.898 14.9816 21.6798 15.8131 22.215 16.8001C22.7502 17.7871 23.0206 18.8959 22.9998 20.0184C22.9897 20.5706 22.5338 21.01 21.9816 20.9998C21.4294 20.9896 20.99 20.5337 21.0002 19.9815C21.0145 19.2044 20.8273 18.4367 20.4568 17.7534C20.0863 17.0701 19.5451 16.4945 18.8859 16.0825C18.2268 15.6705 17.4722 15.4363 16.6956 15.4027C15.9191 15.3691 15.147 15.5372 14.4547 15.8906C14.2172 16.0119 13.9411 16.0332 13.6878 15.95C13.4344 15.8667 13.2248 15.6857 13.1056 15.4472C12.2602 13.7565 10.9277 12.9478 9.42588 12.7406Z" fill="black"/>
<path fill-rule="evenodd" clip-rule="evenodd" d="M12.7784 3.37084C12.7076 3.89199 12.8209 4.69769 13.1024 5.58527C14.9447 11.2956 11.4217 17.1994 5.41693 18.8537C5.15683 18.9262 4.91219 18.99 4.68827 19.048C4.66052 19.0552 4.63318 19.0622 4.60622 19.0692C4.41217 19.1194 4.23773 19.1646 4.07443 19.2094C3.69333 19.3139 3.44435 19.3984 3.27096 19.4857C3.11171 19.5659 3.07339 19.6205 3.06084 19.6409C3.04696 19.6634 3 19.7505 3 20C3 20.198 3.059 20.2985 3.17316 20.3961C3.32757 20.5281 3.61331 20.6674 4.08101 20.7759C5.02397 20.9947 6.2755 21 7.51 21C13.0909 21 17 16.1188 17 10C17 8.92277 16.5994 7.07549 15.8139 5.5113C14.9941 3.87901 13.9953 3 13 3C12.9268 3 12.8957 3.01155 12.8911 3.01343C12.891 3.01356 12.8913 3.01324 12.8911 3.01343C12.879 3.02673 12.813 3.11587 12.7784 3.37084ZM11.4093 1.67015C11.8191 1.21842 12.3796 1 13 1C15.2247 1 16.7259 2.87099 17.6011 4.6137C18.5106 6.42451 19 8.57723 19 10C19 16.8812 14.5091 23 7.51 23L7.44601 23C6.28985 23.0001 4.81896 23.0002 3.62899 22.7241C3.01919 22.5826 2.37743 22.3469 1.87372 21.9164C1.32975 21.4515 1 20.802 1 20C1 19.4995 1.09554 19.0178 1.35822 18.5916C1.62223 18.1632 1.99454 17.8891 2.37154 17.6993C2.7344 17.5166 3.1473 17.3898 3.54525 17.2806C3.72366 17.2317 3.91347 17.1826 4.10555 17.1329C4.13261 17.1259 4.15972 17.1189 4.18685 17.1119C4.40958 17.0542 4.63975 16.9941 4.88161 16.9267C4.88258 16.9264 4.88355 16.9261 4.88452 16.9259C9.91802 15.5398 12.6541 10.7057 11.1984 6.19727C11.1979 6.19571 11.1974 6.19415 11.1969 6.19258C10.8789 5.19101 10.6674 4.05258 10.7966 3.10166C10.862 2.62038 11.0276 2.09092 11.4093 1.67015Z" fill="black"/>
</svg>
