<svg width="24" height="24" viewBox="0 0 24 24" fill="none" xmlns="http://www.w3.org/2000/svg">
<path d="M12.8657 20.5C13.1419 20.0218 13.7537 19.8578 14.2319 20.1338C14.7102 20.4099 14.8743 21.0217 14.5982 21.5C14.3349 21.9558 13.9563 22.3344 13.5005 22.5976C13.0446 22.8609 12.5269 22.9999 12.0005 23C11.474 23 10.9565 22.8609 10.5005 22.5976C10.0445 22.3344 9.66519 21.956 9.40187 21.5C9.1258 21.0217 9.28984 20.4099 9.76808 20.1338C10.2463 19.8577 10.8581 20.0218 11.1343 20.5C11.2221 20.6519 11.3485 20.7785 11.5005 20.8662C11.6524 20.9538 11.8251 21 12.0005 21C12.1759 20.9999 12.3486 20.9539 12.5005 20.8662C12.6524 20.7785 12.778 20.6518 12.8657 20.5Z" fill="black"/>
<path d="M21 6.99999C21.5523 6.99999 22 7.44771 22 7.99999C22 8.55228 21.5523 8.99999 21 8.99999H15C14.4477 8.99999 14 8.55228 14 7.99999C14 7.44771 14.4477 6.99999 15 6.99999H21Z" fill="black"/>
<path d="M4.99967 8.00025C4.9995 6.61566 5.4102 5.2619 6.17935 4.1106C6.94848 2.95938 8.04186 2.06236 9.32096 1.53248C10.6001 1.00259 12.0079 0.863873 13.3659 1.13404C14.7238 1.40422 15.9709 2.07098 16.9499 3.05005C17.3404 3.44061 17.3404 4.07363 16.9499 4.46412C16.5593 4.85456 15.9263 4.8546 15.5358 4.46412C14.8365 3.76473 13.9452 3.28795 12.9753 3.09498C12.0054 2.9021 11.0002 3.00171 10.0866 3.38013C9.17288 3.75862 8.39184 4.39957 7.84244 5.22193C7.29309 6.04426 6.99955 7.0113 6.99967 8.00025C6.99964 10.3544 6.63064 11.9985 6.03287 13.2639C5.44238 14.5138 4.65885 15.3208 4.00064 16.0002H20.0006C18.9958 14.9524 18.2202 13.7054 17.7262 12.3401C17.5385 11.8208 17.8076 11.2477 18.3268 11.0598C18.846 10.872 19.4191 11.1403 19.6071 11.6594C19.9586 12.631 20.4863 13.5284 21.1618 14.3069L21.4596 14.6331L21.4792 14.6536C21.74 14.9403 21.9122 15.2973 21.9743 15.6799C22.0363 16.0623 21.9864 16.4546 21.8297 16.8088C21.673 17.1632 21.4162 17.4646 21.0915 17.676C20.8072 17.8611 20.481 17.9701 20.1442 17.9944L19.9997 18.0002H3.99967C3.61209 18 3.23247 17.8868 2.90787 17.6751C2.58325 17.4632 2.32694 17.1616 2.17057 16.8069C2.01419 16.4522 1.96441 16.0596 2.02701 15.677C2.08961 15.2945 2.26184 14.938 2.5231 14.6516L2.54361 14.6301C3.20807 13.9441 3.78374 13.3419 4.22428 12.4094C4.66371 11.4792 4.99964 10.1448 4.99967 8.00025Z" fill="black"/>
</svg>
