<svg width="24" height="24" viewBox="0 0 24 24" fill="none" xmlns="http://www.w3.org/2000/svg">
<path fill-rule="evenodd" clip-rule="evenodd" d="M9.70708 8.29289C10.0976 8.68342 10.0976 9.31658 9.70708 9.70711C8.86456 10.5496 7.75636 10.9158 6.83088 11.1375C5.63968 11.4228 4.59463 12.1354 3.89402 13.1401C3.19342 14.1449 2.886 15.3718 3.0301 16.5882C3.17419 17.8046 3.75977 18.9258 4.67574 19.739C5.5917 20.5522 6.77432 21.0009 7.9992 21H8.00123C9.70838 21.0022 11.3991 20.667 12.9764 20.0138C14.5536 19.3606 15.9863 18.4022 17.1921 17.1937C17.5821 16.8027 18.2153 16.802 18.6063 17.1921C18.9972 17.5822 18.998 18.2153 18.6079 18.6063C17.216 20.0013 15.5623 21.1076 13.7416 21.8616C11.9215 22.6154 9.97034 23.0023 8.00026 23C6.28559 23.0012 4.63011 22.373 3.34788 21.2346C2.06553 20.096 1.24572 18.5264 1.04398 16.8235C0.842251 15.1205 1.27264 13.4028 2.25348 11.9962C3.23433 10.5895 4.69739 9.59189 6.36505 9.1925C7.20158 8.99215 7.85537 8.73038 8.29286 8.29289C8.68339 7.90237 9.31655 7.90237 9.70708 8.29289Z" fill="black"/>
<path fill-rule="evenodd" clip-rule="evenodd" d="M19.894 4.93222C18.5238 3.25307 16.1532 2.48873 14.0239 3.40476C13.0056 3.84289 12.1617 4.60706 11.6249 5.57712C11.3576 6.06037 10.7491 6.23537 10.2658 5.968C9.78257 5.70063 9.60757 5.09213 9.87494 4.60888C10.6263 3.25079 11.8078 2.18095 13.2336 1.56757C16.2804 0.256761 19.5787 1.38228 21.4436 3.66779C23.2689 5.90478 23.1741 8.70668 22.6887 11.0526C22.389 12.5016 21.8803 13.874 21.1961 15.1365C20.933 15.622 20.3261 15.8023 19.8405 15.5392C19.3549 15.2761 19.1746 14.6691 19.4377 14.1835C20.0304 13.09 20.4707 11.9018 20.7302 10.6474C21.1797 8.47497 21.1333 6.45107 19.894 4.93222Z" fill="black"/>
<path fill-rule="evenodd" clip-rule="evenodd" d="M9.70627 4.93485C9.93058 4.43017 10.5215 4.20289 11.0262 4.42721C12.1615 4.93179 13.069 5.8398 13.5731 6.9753C13.7971 7.48009 13.5696 8.07094 13.0648 8.29501C12.56 8.51908 11.9691 8.29151 11.7451 7.78672C11.442 7.10406 10.8964 6.55817 10.2139 6.25481C9.70923 6.0305 9.48195 5.43953 9.70627 4.93485ZM4.93622 9.70562C5.44122 9.48203 6.03186 9.71016 6.25546 10.2152C6.45275 10.6608 6.75563 11.0516 7.13789 11.3539C7.52016 11.6561 7.9703 11.8607 8.44939 11.9499C8.92848 12.0391 9.4221 12.0103 9.88754 11.8659C10.353 11.7215 10.7762 11.4659 11.1207 11.1212C11.5111 10.7305 12.1443 10.7303 12.5349 11.1206C12.9256 11.511 12.9258 12.1442 12.5354 12.5349C11.9613 13.1094 11.2559 13.5354 10.4802 13.7761C9.70442 14.0167 8.88173 14.0648 8.08325 13.9161C7.28476 13.7674 6.53452 13.4264 5.89741 12.9227C5.2603 12.4189 4.75551 11.7675 4.42669 11.0249C4.2031 10.5199 4.43122 9.92922 4.93622 9.70562Z" fill="black"/>
<path fill-rule="evenodd" clip-rule="evenodd" d="M1.29289 1.29289C1.68342 0.902369 2.31658 0.902369 2.70711 1.29289L22.7071 21.2929C23.0976 21.6834 23.0976 22.3166 22.7071 22.7071C22.3166 23.0976 21.6834 23.0976 21.2929 22.7071L1.29289 2.70711C0.902369 2.31658 0.902369 1.68342 1.29289 1.29289Z" fill="black"/>
</svg>
