<svg width="24" height="24" viewBox="0 0 24 24" fill="none" xmlns="http://www.w3.org/2000/svg">
<path fill-rule="evenodd" clip-rule="evenodd" d="M3 20C3 19.4477 3.44772 19 4 19H20C20.5523 19 21 19.4477 21 20C21 20.5523 20.5523 21 20 21H4C3.44772 21 3 20.5523 3 20Z" fill="black"/>
<path fill-rule="evenodd" clip-rule="evenodd" d="M12 3C12.3788 3 12.725 3.214 12.8944 3.55279L18.8944 15.5528C19.1414 16.0468 18.9412 16.6474 18.4472 16.8944C17.9532 17.1414 17.3525 16.9412 17.1056 16.4472L12 6.23607L6.89441 16.4472C6.64742 16.9412 6.04675 17.1414 5.55277 16.8944C5.05879 16.6474 4.85857 16.0468 5.10556 15.5528L11.1056 3.55279C11.2749 3.214 11.6212 3 12 3Z" fill="black"/>
<path fill-rule="evenodd" clip-rule="evenodd" d="M7 12C7 11.4477 7.44772 11 8 11H16C16.5523 11 17 11.4477 17 12C17 12.5523 16.5523 13 16 13H8C7.44772 13 7 12.5523 7 12Z" fill="black"/>
</svg>
