<svg width="24" height="24" viewBox="0 0 24 24" fill="none" xmlns="http://www.w3.org/2000/svg">
<path d="M12.8657 20.5C13.1419 20.0218 13.7537 19.8578 14.2319 20.1338C14.7102 20.4099 14.8743 21.0217 14.5982 21.5C14.3349 21.9558 13.9563 22.3344 13.5005 22.5977C13.0446 22.8609 12.5269 22.9999 12.0005 23C11.474 23 10.9565 22.8609 10.5005 22.5977C10.0445 22.3344 9.66519 21.956 9.40187 21.5C9.1258 21.0217 9.28984 20.4099 9.76808 20.1338C10.2463 19.8577 10.8581 20.0218 11.1343 20.5C11.2221 20.652 11.3485 20.7785 11.5005 20.8662C11.6524 20.9538 11.8251 21 12.0005 21C12.1759 20.9999 12.3486 20.9539 12.5005 20.8662C12.6524 20.7785 12.778 20.6519 12.8657 20.5Z" fill="black"/>
<path d="M16.9997 8C16.9997 6.67409 16.4732 5.40249 15.5358 4.46484C14.5981 3.52716 13.3257 3 11.9997 3C10.6737 3.00007 9.40212 3.52722 8.4645 4.46484C7.52689 5.40251 6.99965 6.67398 6.99965 8C6.99965 10.3543 6.63065 11.9982 6.03286 13.2637C5.4424 14.5136 4.65885 15.3205 4.00063 16H19.9997C19.3401 15.3201 18.5576 14.5128 17.9674 13.2637C17.3694 11.998 16.9997 10.3541 16.9997 8ZM18.9997 8C18.9997 10.1447 19.3356 11.4789 19.775 12.4092C20.1055 13.1086 20.5127 13.6223 20.9762 14.125L21.4577 14.6309L21.4791 14.6543C21.74 14.941 21.9122 15.2971 21.9743 15.6797C22.0363 16.0621 21.9863 16.4543 21.8297 16.8086C21.673 17.1629 21.4162 17.4644 21.0915 17.6758C20.8071 17.8608 20.481 17.9708 20.1442 17.9951L19.9997 18H3.99965C3.61203 17.9997 3.23248 17.8866 2.90786 17.6748C2.58322 17.463 2.32693 17.1613 2.17055 16.8066C2.01423 16.452 1.96441 16.0593 2.027 15.6768C2.08962 15.2944 2.262 14.9386 2.52309 14.6523L2.5436 14.6299C3.20805 13.9439 3.78374 13.3417 4.22426 12.4092C4.66371 11.4789 4.99965 10.1447 4.99965 8C4.99965 6.14348 5.73768 4.36256 7.05044 3.0498C8.3631 1.73734 10.1434 1.00007 11.9997 1C13.8561 1 15.6371 1.73713 16.9499 3.0498C18.2626 4.36256 18.9997 6.14349 18.9997 8Z" fill="black"/>
</svg>
