<svg width="24" height="24" viewBox="0 0 24 24" fill="none" xmlns="http://www.w3.org/2000/svg">
<path fill-rule="evenodd" clip-rule="evenodd" d="M5 4C4.44772 4 4 4.44772 4 5V19C4 19.5523 4.44772 20 5 20H19C19.5523 20 20 19.5523 20 19V5C20 4.44772 19.5523 4 19 4H5ZM2 5C2 3.34315 3.34315 2 5 2H19C20.6569 2 22 3.34315 22 5V19C22 20.6569 20.6569 22 19 22H5C3.34315 22 2 20.6569 2 19V5Z" fill="black"/>
<path fill-rule="evenodd" clip-rule="evenodd" d="M12 8C12.5523 8 13 8.44772 13 9V15C13 15.5523 12.5523 16 12 16C11.4477 16 11 15.5523 11 15V9C11 8.44772 11.4477 8 12 8Z" fill="black"/>
<path fill-rule="evenodd" clip-rule="evenodd" d="M16 14C16.5523 14 17 14.4477 17 15V21C17 21.5523 16.5523 22 16 22C15.4477 22 15 21.5523 15 21V15C15 14.4477 15.4477 14 16 14Z" fill="black"/>
<path fill-rule="evenodd" clip-rule="evenodd" d="M16 2C16.5523 2 17 2.44772 17 3V9C17 9.55228 16.5523 10 16 10C15.4477 10 15 9.55228 15 9V3C15 2.44772 15.4477 2 16 2Z" fill="black"/>
<path fill-rule="evenodd" clip-rule="evenodd" d="M2 15C2 14.4477 2.44772 14 3 14H21C21.5523 14 22 14.4477 22 15C22 15.5523 21.5523 16 21 16H3C2.44772 16 2 15.5523 2 15Z" fill="black"/>
<path fill-rule="evenodd" clip-rule="evenodd" d="M2 9C2 8.44772 2.44772 8 3 8H21C21.5523 8 22 8.44772 22 9C22 9.55228 21.5523 10 21 10H3C2.44772 10 2 9.55228 2 9Z" fill="black"/>
<path fill-rule="evenodd" clip-rule="evenodd" d="M8 14C8.55228 14 9 14.4477 9 15V21C9 21.5523 8.55228 22 8 22C7.44772 22 7 21.5523 7 21V15C7 14.4477 7.44772 14 8 14Z" fill="black"/>
<path fill-rule="evenodd" clip-rule="evenodd" d="M8 2C8.55228 2 9 2.44772 9 3V9C9 9.55228 8.55228 10 8 10C7.44772 10 7 9.55228 7 9V3C7 2.44772 7.44772 2 8 2Z" fill="black"/>
</svg>
