<svg width="24" height="24" viewBox="0 0 24 24" fill="none" xmlns="http://www.w3.org/2000/svg">
<path d="M12.8657 20.5C13.1419 20.0218 13.7537 19.8578 14.2319 20.1338C14.7102 20.4099 14.8743 21.0217 14.5982 21.5C14.3349 21.9558 13.9563 22.3344 13.5005 22.5976C13.0446 22.8609 12.5269 22.9999 12.0005 23C11.474 23 10.9565 22.8609 10.5005 22.5976C10.0445 22.3344 9.66519 21.956 9.40187 21.5C9.1258 21.0217 9.28984 20.4099 9.76808 20.1338C10.2463 19.8577 10.8581 20.0217 11.1343 20.5C11.2221 20.6519 11.3485 20.7785 11.5005 20.8662C11.6524 20.9538 11.8251 21 12.0005 21C12.1759 20.9999 12.3486 20.9539 12.5005 20.8662C12.6524 20.7785 12.778 20.6518 12.8657 20.5Z" fill="black"/>
<path d="M4.99963 7.99984C4.99963 6.88897 5.2642 5.79397 5.77112 4.8055C6.27822 3.81686 7.01419 2.96251 7.91662 2.31429C8.81898 1.66622 9.86287 1.24184 10.9615 1.07699C12.0601 0.912199 13.1823 1.01138 14.235 1.36605C14.7584 1.54241 15.0403 2.11026 14.8639 2.63363C14.6874 3.15687 14.1196 3.4379 13.5963 3.26156C12.8444 3.00824 12.0431 2.93782 11.2584 3.0555C10.4736 3.17327 9.72724 3.47628 9.08264 3.93929C8.43835 4.40219 7.91352 5.01174 7.55139 5.71761C7.18919 6.42375 6.99963 7.20623 6.99963 7.99984C6.99963 10.3539 6.63085 11.9979 6.03283 13.2635C5.44258 14.5126 4.65953 15.3202 4.00061 15.9998H20.0006C19.7803 15.7715 19.5703 15.5333 19.3727 15.285C19.0288 14.853 19.1 14.2237 19.5319 13.8797C19.9639 13.5359 20.5931 13.6071 20.9371 14.0389C21.019 14.1417 21.1033 14.243 21.1901 14.3416L21.4576 14.6307L21.4801 14.6541C21.7408 14.9407 21.9122 15.2971 21.9742 15.6795C22.0363 16.0621 21.9865 16.4549 21.8297 16.8094C21.6729 17.1638 21.4162 17.4652 21.0914 17.6766C20.7666 17.888 20.3872 18 19.9996 17.9998H3.99963C3.61241 17.9998 3.23339 17.8878 2.90881 17.6766C2.58406 17.4652 2.32733 17.1637 2.17053 16.8094C2.01375 16.455 1.96293 16.0621 2.02502 15.6795C2.08711 15.297 2.25938 14.9408 2.52014 14.6541L2.54162 14.6307C3.20708 13.9442 3.78349 13.3417 4.22424 12.409C4.66384 11.4787 4.99963 10.1445 4.99963 7.99984Z" fill="black"/>
<path d="M20 7.99998C20 6.89542 19.1046 5.99998 18 5.99998C16.8954 5.99998 16 6.89542 16 7.99998C16 9.10455 16.8954 9.99998 18 9.99998C19.1046 9.99998 20 9.10455 20 7.99998ZM22 7.99998C22 10.2091 20.2091 12 18 12C15.7909 12 14 10.2091 14 7.99998C14 5.79085 15.7909 3.99998 18 3.99998C20.2091 3.99998 22 5.79085 22 7.99998Z" fill="black"/>
</svg>
