<svg width="24" height="24" viewBox="0 0 24 24" fill="none" xmlns="http://www.w3.org/2000/svg">
<path fill-rule="evenodd" clip-rule="evenodd" d="M11 12C11 11.4477 11.4477 11 12 11H12.01C12.5623 11 13.01 11.4477 13.01 12C13.01 12.5523 12.5623 13 12.01 13H12C11.4477 13 11 12.5523 11 12Z" fill="black"/>
<path fill-rule="evenodd" clip-rule="evenodd" d="M7.87867 1.87868C8.44128 1.31607 9.20434 1 9.99999 1H14C14.7956 1 15.5587 1.31607 16.1213 1.87868C16.6839 2.44129 17 3.20435 17 4V6C17 6.55228 16.5523 7 16 7C15.4477 7 15 6.55228 15 6V4C15 3.73478 14.8946 3.48043 14.7071 3.29289C14.5196 3.10536 14.2652 3 14 3H9.99999C9.73477 3 9.48042 3.10536 9.29288 3.29289C9.10535 3.48043 8.99999 3.73478 8.99999 4V6C8.99999 6.55228 8.55228 7 7.99999 7C7.44771 7 6.99999 6.55228 6.99999 6V4C6.99999 3.20435 7.31606 2.44129 7.87867 1.87868Z" fill="black"/>
<path fill-rule="evenodd" clip-rule="evenodd" d="M1.16546 12.4491C1.46975 11.9882 2.09005 11.8612 2.55095 12.1655C5.35468 14.0166 8.64034 15.0033 12 15.0033C15.3596 15.0033 18.6453 14.0166 21.449 12.1655C21.9099 11.8612 22.5302 11.9882 22.8345 12.4491C23.1388 12.91 23.0119 13.5303 22.551 13.8346C19.4203 15.9015 15.7514 17.0033 12 17.0033C8.24854 17.0033 4.57971 15.9015 1.44902 13.8346C0.988127 13.5303 0.86117 12.91 1.16546 12.4491Z" fill="black"/>
<path fill-rule="evenodd" clip-rule="evenodd" d="M3.99999 7C3.44771 7 2.99999 7.44771 2.99999 8V18C2.99999 18.5523 3.44771 19 3.99999 19H20C20.5523 19 21 18.5523 21 18V8C21 7.44771 20.5523 7 20 7H3.99999ZM0.99999 8C0.99999 6.34315 2.34314 5 3.99999 5H20C21.6568 5 23 6.34315 23 8V18C23 19.6569 21.6568 21 20 21H3.99999C2.34314 21 0.99999 19.6569 0.99999 18V8Z" fill="black"/>
</svg>
