<svg width="24" height="24" viewBox="0 0 24 24" fill="none" xmlns="http://www.w3.org/2000/svg">
<path fill-rule="evenodd" clip-rule="evenodd" d="M12 6C12.5523 6 13 6.44772 13 7V21C13 21.5523 12.5523 22 12 22C11.4477 22 11 21.5523 11 21V7C11 6.44772 11.4477 6 12 6Z" fill="black"/>
<path fill-rule="evenodd" clip-rule="evenodd" d="M15 12C15 11.4477 15.4477 11 16 11H18C18.5523 11 19 11.4477 19 12C19 12.5523 18.5523 13 18 13H16C15.4477 13 15 12.5523 15 12Z" fill="black"/>
<path fill-rule="evenodd" clip-rule="evenodd" d="M15 8C15 7.44772 15.4477 7 16 7H18C18.5523 7 19 7.44772 19 8C19 8.55228 18.5523 9 18 9H16C15.4477 9 15 8.55228 15 8Z" fill="black"/>
<path fill-rule="evenodd" clip-rule="evenodd" d="M1.58579 2.58579C1.96086 2.21071 2.46957 2 3 2H8C9.32608 2 10.5979 2.52678 11.5355 3.46447C11.7038 3.63274 11.8589 3.81178 12 3.99997C12.1411 3.81178 12.2962 3.63274 12.4645 3.46447C13.4021 2.52678 14.6739 2 16 2H21C21.5304 2 22.0391 2.21071 22.4142 2.58579C22.7893 2.96086 23 3.46957 23 4V17C23 17.5304 22.7893 18.0391 22.4142 18.4142C22.0391 18.7893 21.5304 19 21 19H15C14.4696 19 13.9609 19.2107 13.5858 19.5858C13.2107 19.9609 13 20.4696 13 21C13 21.5523 12.5523 22 12 22C11.4477 22 11 21.5523 11 21C11 20.4696 10.7893 19.9609 10.4142 19.5858C10.0391 19.2107 9.53043 19 9 19H3C2.46957 19 1.96086 18.7893 1.58579 18.4142C1.21071 18.0391 1 17.5304 1 17V4C1 3.46957 1.21071 2.96086 1.58579 2.58579ZM12 18.3542C12.0551 18.2918 12.1123 18.2308 12.1716 18.1716C12.9217 17.4214 13.9391 17 15 17H21V4H16C15.2044 4 14.4413 4.31607 13.8787 4.87868C13.3161 5.44129 13 6.20435 13 7C13 7.55228 12.5523 8 12 8C11.4477 8 11 7.55228 11 7C11 6.20435 10.6839 5.44129 10.1213 4.87868C9.55871 4.31607 8.79565 4 8 4H3V17H9C10.0609 17 11.0783 17.4214 11.8284 18.1716C11.8877 18.2308 11.9449 18.2918 12 18.3542Z" fill="black"/>
<path fill-rule="evenodd" clip-rule="evenodd" d="M5 12C5 11.4477 5.44772 11 6 11H8C8.55228 11 9 11.4477 9 12C9 12.5523 8.55228 13 8 13H6C5.44772 13 5 12.5523 5 12Z" fill="black"/>
<path fill-rule="evenodd" clip-rule="evenodd" d="M5 8C5 7.44772 5.44772 7 6 7H8C8.55228 7 9 7.44772 9 8C9 8.55228 8.55228 9 8 9H6C5.44772 9 5 8.55228 5 8Z" fill="black"/>
</svg>
