<svg width="24" height="24" viewBox="0 0 24 24" fill="none" xmlns="http://www.w3.org/2000/svg">
<path d="M20 7V4H17C16.4477 4 16 3.55228 16 3C16 2.44772 16.4477 2 17 2H21C21.5523 2 22 2.44772 22 3V7C22 7.55228 21.5523 8 21 8C20.4477 8 20 7.55228 20 7Z" fill="black"/>
<path d="M18.1201 10.1914C18.6118 9.94025 19.2145 10.1353 19.4658 10.6269C20.9987 13.625 21.3982 17.075 20.5938 20.3447L20.5947 20.3457C20.506 20.7092 20.3245 21.0445 20.0684 21.3174C19.8123 21.59 19.4899 21.7919 19.1328 21.9033C18.7756 22.0147 18.3952 22.0319 18.0293 21.9531C17.6635 21.8743 17.3246 21.7017 17.0449 21.4531C17.0304 21.4402 17.0157 21.4268 17.002 21.4131L13.293 17.707C12.9026 17.3166 12.9027 16.6835 13.293 16.2929C13.6834 15.9026 14.3165 15.9027 14.707 16.2929L18.3818 19.9648C18.402 19.9806 18.4251 19.9926 18.4502 19.998C18.4789 20.0042 18.5091 20.0028 18.5371 19.9941C18.565 19.9854 18.5903 19.9695 18.6104 19.9482C18.6304 19.9269 18.6444 19.9005 18.6514 19.872L18.6524 19.8701C19.3428 17.0666 18.999 14.1078 17.6846 11.5371C17.4333 11.0454 17.6284 10.4428 18.1201 10.1914Z" fill="black"/>
<path d="M3.65217 3.40918C6.92381 2.60386 10.3763 3.00524 13.3758 4.54004C13.8672 4.79171 14.0619 5.39419 13.8104 5.88574C13.5588 6.37725 12.9563 6.57173 12.4647 6.32031C9.89339 5.00462 6.93329 4.65999 4.12873 5.35058L4.12775 5.35156C4.09934 5.35851 4.07292 5.37257 4.05158 5.39257C4.03027 5.41257 4.01444 5.43793 4.00568 5.46582C3.99698 5.49366 3.99572 5.52322 4.00177 5.55175C4.00709 5.57683 4.01837 5.59992 4.034 5.62011L7.70685 9.29296C8.09738 9.68349 8.09738 10.3165 7.70685 10.707C7.31632 11.0975 6.68328 11.0975 6.29279 10.707L2.58283 6.99707C2.56801 6.98224 2.55372 6.96689 2.53986 6.95117C2.29306 6.67106 2.1222 6.332 2.04474 5.96679C1.9673 5.60158 1.9856 5.22238 2.09748 4.86621C2.20933 4.51015 2.41119 4.18888 2.68342 3.93359C2.95574 3.67831 3.28959 3.49786 3.65217 3.40918Z" fill="black"/>
<path d="M9.00011 15H6.99816C6.90595 14.9999 6.81481 15.0184 6.72961 15.0537C6.64431 15.089 6.56626 15.1407 6.50109 15.2061L4.70714 17H5.00011C5.53051 17 6.03913 17.2109 6.41418 17.5859C6.78922 17.961 7.00011 18.4696 7.00011 19V19.293L8.79406 17.499C8.85946 17.4339 8.91107 17.3558 8.9464 17.2705C8.98168 17.1853 9.00023 17.0941 9.00011 17.002V15ZM6.14562 20.1475L6.15148 20.1416C6.14951 20.1435 6.14756 20.1455 6.14562 20.1475ZM11.0001 16.998L10.9874 17.2646C10.9616 17.5294 10.8963 17.7894 10.7941 18.0361C10.658 18.3645 10.4578 18.662 10.2062 18.9131L10.2071 18.9141L7.56164 21.5605C7.3519 21.7707 7.08424 21.9136 6.79308 21.9717C6.50193 22.0297 6.20016 22.0003 5.92589 21.8867C5.65151 21.773 5.41685 21.5801 5.25207 21.333C5.08728 21.0858 4.99958 20.7951 5.00011 20.498V19H3.50011C3.20335 18.9999 2.91282 18.912 2.66613 18.7471C2.41943 18.5821 2.22677 18.3475 2.11339 18.0732C2.00003 17.799 1.97125 17.4971 2.02941 17.2061L2.0548 17.0977C2.12405 16.8489 2.25691 16.6218 2.44054 16.4385L5.08605 13.793C5.33716 13.5413 5.63553 13.3411 5.96398 13.2051C6.29242 13.0691 6.64463 13.0006 7.00011 13.001L9.00011 13C9.53051 13 10.0391 13.2109 10.4142 13.5859C10.7892 13.961 11.0001 14.4696 11.0001 15V16.998Z" fill="black"/>
<path d="M20.2929 2.29297C20.6835 1.90245 21.3165 1.90246 21.707 2.29297C22.0975 2.68349 22.0975 3.31651 21.707 3.70703L10.414 15C10.0235 15.3905 9.39064 15.3905 9.00011 15C8.6096 14.6095 8.60946 13.9765 8.99998 13.5859L20.2929 2.29297Z" fill="black"/>
</svg>
