<svg width="24" height="24" viewBox="0 0 24 24" fill="none" xmlns="http://www.w3.org/2000/svg">
<path fill-rule="evenodd" clip-rule="evenodd" d="M9 10C9 9.44772 9.44772 9 10 9H14C14.5523 9 15 9.44772 15 10C15 10.5523 14.5523 11 14 11H10C9.44772 11 9 10.5523 9 10Z" fill="black"/>
<path fill-rule="evenodd" clip-rule="evenodd" d="M14.5858 2.58579C14.9609 2.21071 15.4696 2 16 2H18C18.5304 2 19.0391 2.21071 19.4142 2.58579C19.7893 2.96086 20 3.46957 20 4V7C20 7.55228 19.5523 8 19 8C18.4477 8 18 7.55228 18 7V4H16V7C16 7.55228 15.5523 8 15 8C14.4477 8 14 7.55228 14 7V4C14 3.46957 14.2107 2.96086 14.5858 2.58579Z" fill="black"/>
<path fill-rule="evenodd" clip-rule="evenodd" d="M13.5858 6.58579C13.9609 6.21071 14.4696 6 15 6H19C19.5304 6 20.0391 6.21071 20.4142 6.58579C20.7893 6.96086 21 7.46957 21 8V10.32C21 10.9267 21.3299 11.5542 21.848 12.3834C21.8818 12.4375 21.9167 12.4929 21.9522 12.5494C22.1627 12.884 22.3974 13.2572 22.5805 13.6205C22.7951 14.0463 23 14.5713 23 15.149V19C23 19.7957 22.6839 20.5587 22.1213 21.1213C21.5587 21.6839 20.7957 22 20 22H16C15.2043 22 14.4413 21.6839 13.8787 21.1213C13.3161 20.5587 13 19.7957 13 19V8C13 7.46957 13.2107 6.96086 13.5858 6.58579ZM19 8H15V19C15 19.2652 15.1054 19.5196 15.2929 19.7071C15.4804 19.8946 15.7348 20 16 20H20C20.2652 20 20.5196 19.8946 20.7071 19.7071C20.8946 19.5196 21 19.2652 21 19V15.149C21 15.0317 20.9549 14.8389 20.7945 14.5207C20.6576 14.2491 20.4813 13.9682 20.268 13.6284C20.2304 13.5686 20.1918 13.507 20.152 13.4433C19.6701 12.6723 19 11.5803 19 10.32V8Z" fill="black"/>
<path fill-rule="evenodd" clip-rule="evenodd" d="M1 16C1 15.4477 1.44772 15 2 15H22C22.5523 15 23 15.4477 23 16C23 16.5523 22.5523 17 22 17H2C1.44772 17 1 16.5523 1 16Z" fill="black"/>
<path fill-rule="evenodd" clip-rule="evenodd" d="M3.58579 6.58579C3.96086 6.21071 4.46957 6 5 6H9C9.53043 6 10.0391 6.21071 10.4142 6.58579C10.7893 6.96086 11 7.46957 11 8V19C11 19.7957 10.6839 20.5587 10.1213 21.1213C9.55871 21.6839 8.79565 22 8 22H4C3.20435 22 2.44129 21.6839 1.87868 21.1213C1.31607 20.5587 1 19.7957 1 19V15.149C1 14.5713 1.2049 14.0463 1.41951 13.6205C1.60262 13.2572 1.83735 12.884 2.04782 12.5494C2.08335 12.4929 2.11818 12.4375 2.15196 12.3834C2.67014 11.5542 3 10.9267 3 10.32V8C3 7.46957 3.21071 6.96086 3.58579 6.58579ZM9 8H5V10.32C5 11.5803 4.32986 12.6723 3.84804 13.4433C3.80824 13.507 3.76957 13.5686 3.73205 13.6284C3.5187 13.9682 3.34239 14.2491 3.20549 14.5207C3.0451 14.8389 3 15.0317 3 15.149V19C3 19.2652 3.10536 19.5196 3.29289 19.7071C3.48043 19.8946 3.73478 20 4 20H8C8.26522 20 8.51957 19.8946 8.70711 19.7071C8.89464 19.5196 9 19.2652 9 19V8Z" fill="black"/>
<path fill-rule="evenodd" clip-rule="evenodd" d="M4.58579 2.58579C4.96086 2.21071 5.46957 2 6 2H8C8.53043 2 9.03914 2.21071 9.41421 2.58579C9.78929 2.96086 10 3.46957 10 4V7C10 7.55228 9.55228 8 9 8C8.44772 8 8 7.55228 8 7V4H6V7C6 7.55228 5.55228 8 5 8C4.44772 8 4 7.55228 4 7V4C4 3.46957 4.21071 2.96086 4.58579 2.58579Z" fill="black"/>
</svg>
