<svg width="24" height="24" viewBox="0 0 24 24" fill="none" xmlns="http://www.w3.org/2000/svg">
<path fill-rule="evenodd" clip-rule="evenodd" d="M4.23397 8.34444C3.22016 11.5527 3.06339 15.4621 3.00874 18.196C3.00311 18.4675 3.1073 18.6476 3.22451 18.7347C4.17868 19.4409 5.60297 20.0152 7.33885 20.4096C9.06133 20.8009 11.0241 21 12.9999 21C17.6938 21 20.9999 18.0962 20.9999 15C21.0004 14.0794 20.6833 13.1864 20.1021 12.4724C19.521 11.7585 18.7114 11.2668 17.8098 11.0804C16.9083 10.894 15.9701 11.0243 15.1535 11.4493C14.7163 11.6768 14.3282 11.9813 14.0061 12.3449C14.576 12.5472 15.1137 12.8351 15.6002 13.2002C16.0419 13.5317 16.1313 14.1585 15.7998 14.6002C15.4683 15.042 14.8415 15.1313 14.3997 14.7998C13.9169 14.4375 13.3584 14.1892 12.7659 14.0734C12.6351 14.0479 12.5033 14.0289 12.3711 14.0166C12.3418 14.0155 12.3124 14.013 12.283 14.0093C11.8456 13.9782 11.405 14.0191 10.9789 14.1314C10.3952 14.2854 9.85394 14.5694 9.39564 14.9622C9.19102 15.1376 9.00531 15.3327 8.84093 15.5441C8.82748 15.5629 8.81382 15.5815 8.79994 15.6C8.79056 15.6125 8.78094 15.6247 8.7711 15.6367C8.59783 15.8734 8.45058 16.1292 8.33253 16.3998C8.1117 16.9061 7.52232 17.1374 7.0161 16.9166C6.50989 16.6958 6.27853 16.1064 6.49936 15.6002C6.69295 15.1564 6.9389 14.7391 7.23098 14.3568C7.43394 14.0617 7.58383 13.5931 7.67485 12.909C7.75567 12.3017 7.77843 11.6379 7.80295 10.9227C7.80707 10.8026 7.81124 10.681 7.81574 10.5579C7.84557 9.7428 7.89039 8.84948 8.07465 8.07551C8.16122 7.71182 8.28889 7.3297 8.48741 6.97592C8.36138 6.8341 8.25386 6.68764 8.16054 6.5435C7.86037 6.07991 7.99285 5.46076 8.45644 5.16059C8.92003 4.86042 9.53918 4.99291 9.83935 5.4565C9.96095 5.6443 10.0775 5.76094 10.2155 5.83958C10.2453 5.85655 10.2795 5.8737 10.3191 5.89015C10.3292 5.89398 10.3393 5.89798 10.3493 5.90215C10.4916 5.95625 10.6969 6 10.9999 6C11.2652 6 11.5195 5.89464 11.7071 5.70711C11.8946 5.51957 11.9999 5.26522 11.9999 5C11.9999 4.46957 11.7892 3.96086 11.4142 3.58579C11.0391 3.21071 10.5304 3 9.99994 3C8.4309 3 7.26923 3.55832 6.36468 4.4664C5.43382 5.40088 4.73927 6.74536 4.23397 8.34444ZM10.2419 7.93658C10.4796 7.97892 10.7321 8 10.9999 8C11.7956 8 12.5587 7.68393 13.1213 7.12132C13.6839 6.55871 13.9999 5.79565 13.9999 5C13.9999 3.93913 13.5785 2.92172 12.8284 2.17157C12.0782 1.42143 11.0608 1 9.99994 1C7.88249 1 6.21566 1.78205 4.94771 3.05494C3.70607 4.30143 2.88412 5.97851 2.32692 7.74181C1.21578 11.2581 1.06351 15.4365 1.00915 18.1556C1.00915 18.1558 1.00915 18.1555 1.00915 18.1556C0.993003 18.9437 1.29871 19.7963 2.03317 20.3412C3.297 21.2768 5.02026 21.9338 6.89579 22.3599C8.78506 22.7891 10.8987 23 12.9999 23C18.3059 23 22.9996 19.636 22.9999 15.0005M10.2419 7.93658C10.1636 8.06928 10.0864 8.26079 10.0203 8.53868C9.88831 9.09302 9.84494 9.79645 9.8144 10.6311C9.81029 10.7434 9.80641 10.8581 9.80248 10.9747C9.78652 11.4471 9.76954 11.9498 9.73182 12.444C9.97131 12.3462 10.2175 12.2638 10.4689 12.1975C10.9056 12.0824 11.3525 12.0173 11.801 12.0025C12.3698 11.015 13.2109 10.2055 14.2303 9.6751C15.4552 9.03767 16.8625 8.84227 18.2148 9.12186C19.5671 9.40145 20.7815 10.1389 21.6532 11.2098C22.5249 12.2807 23.0005 13.6198 22.9999 15.0005" fill="black"/>
</svg>
