<svg width="24" height="24" viewBox="0 0 24 24" fill="none" xmlns="http://www.w3.org/2000/svg">
<path d="M15 5.10742V3C15 2.44772 15.4477 2 16 2C16.5523 2 17 2.44772 17 3V5.10742C16.9998 5.65951 16.5521 6.10742 16 6.10742C15.4479 6.10742 15.0002 5.65951 15 5.10742Z" fill="black"/>
<path d="M17 8C17.4303 8 17.812 8.27541 17.9482 8.68359C18.847 11.3799 19.9802 11.5697 21.2002 12.7861L21.4062 12.998C22.4088 14.0824 22.9788 15.5018 23 16.9854C23.0001 16.9901 23 16.9953 23 17C23 18.5913 22.3674 20.117 21.2422 21.2422C20.117 22.3674 18.5913 23 17 23C15.4087 23 13.883 22.3674 12.7578 21.2422C11.6326 20.117 11 18.5913 11 17C11 16.7226 10.9923 16.2617 11.1514 15.7842L11.2148 15.6348C11.389 15.3031 11.7385 15.0923 12.1221 15.1006C12.5602 15.1103 12.9411 15.4038 13.0615 15.8252C13.1038 15.973 13.1798 16.1089 13.2832 16.2227C13.3866 16.3365 13.515 16.4253 13.6582 16.4814C13.8013 16.5375 13.9553 16.56 14.1084 16.5469C14.2616 16.5337 14.4095 16.485 14.541 16.4053C14.6725 16.3256 14.7846 16.2167 14.8672 16.0869C14.9496 15.9573 15.0011 15.81 15.0176 15.6572C15.034 15.5046 15.0148 15.3502 14.9619 15.2061C14.9089 15.0618 14.8234 14.931 14.7119 14.8252C14.696 14.8101 14.68 14.7945 14.665 14.7783C13.9342 13.9866 13.5573 13.1338 13.499 12.2734C13.4416 11.4246 13.701 10.6663 14.0693 10.0576C14.4355 9.45268 14.9285 8.96204 15.4092 8.61816C15.8453 8.30616 16.4324 8 17 8ZM16.4502 10.3398C16.2032 10.538 15.9593 10.797 15.7803 11.0928C15.5738 11.4339 15.4704 11.7879 15.4941 12.1387C15.5171 12.4772 15.665 12.9107 16.1309 13.417C16.4444 13.7268 16.6866 14.1014 16.8389 14.5156C16.998 14.9487 17.0553 15.4134 17.0059 15.8721C16.9564 16.3306 16.8023 16.772 16.5547 17.1611C16.3071 17.5504 15.9726 17.8771 15.5781 18.1162C15.1836 18.3553 14.739 18.4996 14.2793 18.5391C13.9414 18.568 13.6021 18.5392 13.2754 18.4551C13.4746 18.9649 13.7773 19.4336 14.1719 19.8281C14.922 20.5783 15.9391 21 17 21C18.0609 21 19.078 20.5783 19.8281 19.8281C20.5748 19.0814 20.9961 18.0702 21 17.0146L20.9922 16.8174C20.9297 15.8346 20.5064 14.9063 19.7998 14.2139L19.793 14.207C19.1031 13.5172 17.558 12.7977 16.4502 10.3398Z" fill="black"/>
<path d="M20 8.27441V5C20 4.73478 19.8946 4.48051 19.707 4.29297C19.5195 4.10543 19.2652 4 19 4H5C4.73478 4 4.4805 4.10543 4.29297 4.29297C4.10543 4.4805 4 4.73478 4 5V19C4 19.2652 4.10543 19.5195 4.29297 19.707C4.48051 19.8946 4.73478 20 5 20H8.93848C9.49054 20.0003 9.93848 20.4479 9.93848 21C9.93848 21.5521 9.49054 21.9997 8.93848 22H5C4.20435 22 3.44152 21.6837 2.87891 21.1211C2.3163 20.5585 2 19.7957 2 19V5C2 4.20435 2.3163 3.44152 2.87891 2.87891C3.44152 2.3163 4.20435 2 5 2H19C19.7957 2 20.5585 2.3163 21.1211 2.87891C21.6837 3.44152 22 4.20435 22 5V8.27441C21.9998 8.82651 21.5521 9.27441 21 9.27441C20.4479 9.27441 20.0002 8.82651 20 8.27441Z" fill="black"/>
<path d="M8.25293 14C8.80521 14 9.25293 14.4477 9.25293 15C9.25293 15.5523 8.80521 16 8.25293 16H3C2.44772 16 2 15.5523 2 15C2 14.4477 2.44772 14 3 14H8.25293Z" fill="black"/>
<path d="M11.2275 8C11.7798 8 12.2275 8.44772 12.2275 9C12.2275 9.55228 11.7798 10 11.2275 10H3C2.44772 10 2 9.55228 2 9C2 8.44772 2.44772 8 3 8H11.2275Z" fill="black"/>
<path d="M7 21V15C7 14.4477 7.44772 14 8 14C8.55228 14 9 14.4477 9 15V21C9 21.5523 8.55228 22 8 22C7.44772 22 7 21.5523 7 21Z" fill="black"/>
<path d="M7 9V3C7 2.44772 7.44772 2 8 2C8.55228 2 9 2.44772 9 3V9C9 9.55228 8.55228 10 8 10C7.44772 10 7 9.55228 7 9Z" fill="black"/>
</svg>
