<svg width="24" height="24" viewBox="0 0 24 24" fill="none" xmlns="http://www.w3.org/2000/svg">
<path fill-rule="evenodd" clip-rule="evenodd" d="M8 7C7.20435 7 6.44129 7.31607 5.87868 7.87868C5.31607 8.44129 5 9.20435 5 10V20C5 20.2652 5.10536 20.5196 5.29289 20.7071C5.48043 20.8946 5.73478 21 6 21H18C18.2652 21 18.5196 20.8946 18.7071 20.7071C18.8946 20.5196 19 20.2652 19 20V10C19 9.20435 18.6839 8.44129 18.1213 7.87868C17.5587 7.31607 16.7956 7 16 7H8ZM4.46447 6.46447C5.40215 5.52678 6.67392 5 8 5H16C17.3261 5 18.5979 5.52678 19.5355 6.46447C20.4732 7.40215 21 8.67392 21 10V20C21 20.7957 20.6839 21.5587 20.1213 22.1213C19.5587 22.6839 18.7957 23 18 23H6C5.20435 23 4.44129 22.6839 3.87868 22.1213C3.31607 21.5587 3 20.7957 3 20V10C3 8.67392 3.52678 7.40215 4.46447 6.46447Z" fill="black"/>
<path fill-rule="evenodd" clip-rule="evenodd" d="M7 10C7 9.44772 7.44772 9 8 9H16C16.5523 9 17 9.44772 17 10C17 10.5523 16.5523 11 16 11H8C7.44772 11 7 10.5523 7 10Z" fill="black"/>
<path fill-rule="evenodd" clip-rule="evenodd" d="M7 18C7 17.4477 7.44772 17 8 17H16C16.5523 17 17 17.4477 17 18C17 18.5523 16.5523 19 16 19H8C7.44772 19 7 18.5523 7 18Z" fill="black"/>
<path fill-rule="evenodd" clip-rule="evenodd" d="M10 15C9.73478 15 9.48043 15.1054 9.29289 15.2929C9.10536 15.4804 9 15.7348 9 16V22C9 22.5523 8.55228 23 8 23C7.44772 23 7 22.5523 7 22V16C7 15.2043 7.31607 14.4413 7.87868 13.8787C8.44129 13.3161 9.20435 13 10 13H14C14.7957 13 15.5587 13.3161 16.1213 13.8787C16.6839 14.4413 17 15.2043 17 16V22C17 22.5523 16.5523 23 16 23C15.4477 23 15 22.5523 15 22V16C15 15.7348 14.8946 15.4804 14.7071 15.2929C14.5196 15.1054 14.2652 15 14 15H10Z" fill="black"/>
<path fill-rule="evenodd" clip-rule="evenodd" d="M11 3C10.7348 3 10.4804 3.10536 10.2929 3.29289C10.1054 3.48043 10 3.73478 10 4V6C10 6.55228 9.55228 7 9 7C8.44772 7 8 6.55228 8 6V4C8 3.20435 8.31607 2.44129 8.87868 1.87868C9.44129 1.31607 10.2044 1 11 1H13C13.7956 1 14.5587 1.31607 15.1213 1.87868C15.6839 2.44129 16 3.20435 16 4V6C16 6.55228 15.5523 7 15 7C14.4477 7 14 6.55228 14 6V4C14 3.73478 13.8946 3.48043 13.7071 3.29289C13.5196 3.10536 13.2652 3 13 3H11Z" fill="black"/>
</svg>
