<svg width="24" height="24" viewBox="0 0 24 24" fill="none" xmlns="http://www.w3.org/2000/svg">
<path d="M6.5 3C6.10218 3 5.72076 3.15815 5.43945 3.43945C5.15815 3.72076 5 4.10218 5 4.5V16.3379C5.46445 16.1176 5.97614 16 6.5 16H19V3H6.5ZM5 19.5C5 19.8978 5.15815 20.2792 5.43945 20.5605C5.72076 20.8419 6.10218 21 6.5 21H19V18H6.5C6.10218 18 5.72076 18.1581 5.43945 18.4395C5.15815 18.7208 5 19.1022 5 19.5ZM21 21C21 21.5304 20.7891 22.039 20.4141 22.4141C20.039 22.7891 19.5304 23 19 23H6.5C5.57174 23 4.68177 22.631 4.02539 21.9746C3.36901 21.3182 3 20.4283 3 19.5V4.5C3 3.57174 3.36901 2.68177 4.02539 2.02539C4.68177 1.36901 5.57174 1 6.5 1H19C19.5304 1 20.039 1.21086 20.4141 1.58594C20.7891 1.96101 21 2.46957 21 3V21Z" fill="black"/>
<path d="M9.23399 5.15366C9.65114 5.01729 10.0917 4.96674 10.5289 5.00522C10.9661 5.04373 11.391 5.17012 11.7779 5.37729C11.8557 5.41892 11.9306 5.46539 12.0045 5.51303C12.0771 5.46694 12.1509 5.42248 12.2271 5.38217C12.6136 5.17805 13.0377 5.05356 13.4732 5.01694C13.9087 4.98033 14.3472 5.03161 14.7623 5.16831C15.1774 5.30503 15.5608 5.52457 15.8893 5.81284C16.2177 6.10104 16.4849 6.45233 16.6744 6.84604C16.8639 7.23986 16.9715 7.66827 16.9918 8.10483C17.0121 8.54128 16.9447 8.97747 16.7926 9.38706C16.642 9.79233 16.4105 10.1626 16.1148 10.4779L16.1158 10.4789L13.4898 13.3353L13.4889 13.3343C13.3048 13.5402 13.0811 13.7069 12.8297 13.8216C12.5695 13.9403 12.2866 14.0013 12.0006 14.0013C11.7146 14.0013 11.4317 13.9403 11.1715 13.8216C10.9194 13.7067 10.6947 13.5399 10.5104 13.3333L7.8834 10.4769L7.88438 10.4759C7.58766 10.1625 7.35516 9.79394 7.20274 9.38999C7.0478 8.97923 6.97774 8.5405 6.99668 8.1019C7.01567 7.66343 7.12337 7.23301 7.31309 6.83725C7.50285 6.4415 7.77118 6.08854 8.10117 5.79917C8.43123 5.50974 8.81674 5.29011 9.23399 5.15366ZM10.3531 6.99741C10.185 6.98264 10.0155 7.00159 9.85508 7.05405C9.6946 7.10653 9.54648 7.19175 9.41953 7.30307C9.29268 7.41436 9.18975 7.55032 9.1168 7.70249C9.04386 7.8547 9.00201 8.02019 8.99473 8.18882C8.98748 8.35742 9.01427 8.52602 9.07383 8.68393C9.1334 8.84182 9.22462 8.98596 9.34141 9.10776C9.34631 9.11287 9.35127 9.11817 9.35606 9.12339L11.983 11.9808C11.9887 11.987 11.9941 11.994 11.9996 12.0003C12.0054 11.9937 12.0122 11.9873 12.0182 11.9808L14.6441 9.12534L14.6539 9.1146C14.7693 8.99254 14.8591 8.84824 14.9176 8.69077C14.9761 8.53325 15.0015 8.36545 14.9938 8.1976C14.9859 8.02971 14.9446 7.86469 14.8717 7.71323C14.7988 7.56193 14.6962 7.42654 14.5699 7.31577C14.4436 7.20498 14.2959 7.12126 14.1363 7.0687C13.9768 7.01619 13.8085 6.99609 13.6412 7.0101C13.4737 7.02419 13.3104 7.07222 13.1617 7.15073C13.0132 7.22923 12.882 7.33677 12.776 7.46714C12.5854 7.70152 12.2988 7.83726 11.9967 7.83628C11.6944 7.83515 11.4083 7.69718 11.2193 7.46128C11.1138 7.32949 10.9824 7.22067 10.8336 7.14096C10.6848 7.06127 10.5213 7.01221 10.3531 6.99741Z" fill="black"/>
</svg>
