<svg width="24" height="24" viewBox="0 0 24 24" fill="none" xmlns="http://www.w3.org/2000/svg">
<path fill-rule="evenodd" clip-rule="evenodd" d="M1 5C1 4.44772 1.44772 4 2 4C2.79565 4 3.55871 4.31607 4.12132 4.87868C4.68393 5.44129 5 6.20435 5 7V16C5 16.2652 5.10536 16.5196 5.29289 16.7071C5.48043 16.8946 5.73478 17 6 17H22C22.5523 17 23 17.4477 23 18C23 18.5523 22.5523 19 22 19H6C5.20435 19 4.44129 18.6839 3.87868 18.1213C3.31607 17.5587 3 16.7956 3 16V7C3 6.73478 2.89464 6.48043 2.70711 6.29289C2.51957 6.10536 2.26522 6 2 6C1.44772 6 1 5.55228 1 5Z" fill="black"/>
<path fill-rule="evenodd" clip-rule="evenodd" d="M11.8787 1.87868C12.4413 1.31607 13.2044 1 14 1H15C15.7956 1 16.5587 1.31607 17.1213 1.87868C17.6839 2.44129 18 3.20435 18 4V14C18 14.5523 17.5523 15 17 15C16.4477 15 16 14.5523 16 14V4C16 3.73478 15.8946 3.48043 15.7071 3.29289C15.5196 3.10536 15.2652 3 15 3H14C13.7348 3 13.4804 3.10536 13.2929 3.29289C13.1054 3.48043 13 3.73478 13 4V14C13 14.5523 12.5523 15 12 15C11.4477 15 11 14.5523 11 14V4C11 3.20435 11.3161 2.44129 11.8787 1.87868Z" fill="black"/>
<path fill-rule="evenodd" clip-rule="evenodd" d="M9 7V13H20V7H9ZM20 6.99875C19.9999 6.99869 19.9999 6.99872 20 6.99875V6.99875ZM20.0012 13C20.0013 12.9999 20.0013 12.9999 20.0012 13V13ZM7 7C7 5.89543 7.89543 5 9 5H20C21.1046 5 22 5.89543 22 7V13C22 14.1046 21.1046 15 20 15H9C7.89543 15 7 14.1046 7 13V7Z" fill="black"/>
<path fill-rule="evenodd" clip-rule="evenodd" d="M18 19C17.4477 19 17 19.4477 17 20C17 20.5523 17.4477 21 18 21C18.5523 21 19 20.5523 19 20C19 19.4477 18.5523 19 18 19ZM15 20C15 18.3431 16.3431 17 18 17C19.6569 17 21 18.3431 21 20C21 21.6569 19.6569 23 18 23C16.3431 23 15 21.6569 15 20Z" fill="black"/>
<path fill-rule="evenodd" clip-rule="evenodd" d="M9 19C8.44771 19 8 19.4477 8 20C8 20.5523 8.44771 21 9 21C9.55228 21 10 20.5523 10 20C10 19.4477 9.55228 19 9 19ZM6 20C6 18.3431 7.34315 17 9 17C10.6569 17 12 18.3431 12 20C12 21.6569 10.6569 23 9 23C7.34315 23 6 21.6569 6 20Z" fill="black"/>
</svg>
