<svg width="24" height="24" viewBox="0 0 24 24" fill="none" xmlns="http://www.w3.org/2000/svg">
<path d="M9 15V9C9 8.44772 9.44771 8 10 8C10.5523 8 11 8.44772 11 9V15C11 15.5523 10.5523 16 10 16C9.44771 16 9 15.5523 9 15Z" fill="black"/>
<path d="M17.0005 16V8C17.0005 7.73489 16.8949 7.48048 16.7075 7.29297C16.5201 7.10554 16.2655 7.00012 16.0005 7H12.5434C11.9912 7 11.5434 6.55228 11.5434 6C11.5434 5.44772 11.9912 5 12.5434 5H16.0005C16.7959 5.00012 17.5591 5.31641 18.1216 5.87891C18.684 6.44149 19.0005 7.20446 19.0005 8V16C19.0005 16.7955 18.684 17.5585 18.1216 18.1211C17.5591 18.6836 16.7959 18.9999 16.0005 19H12.395C11.8427 19 11.395 18.5523 11.395 18C11.395 17.4477 11.8427 17 12.395 17H16.0005C16.2655 16.9999 16.5201 16.8945 16.7075 16.707C16.8949 16.5195 17.0005 16.2651 17.0005 16Z" fill="black"/>
<path d="M21 14V10C21 9.44772 21.4477 9 22 9C22.5523 9 23 9.44772 23 10V14C23 14.5523 22.5523 15 22 15C21.4477 15 21 14.5523 21 14Z" fill="black"/>
<path d="M13 11C13.5523 11 14 11.4477 14 12C14 12.5523 13.5523 13 13 13H7C6.44772 13 6 12.5523 6 12C6 11.4477 6.44772 11 7 11H13Z" fill="black"/>
<path d="M1 16V8C1 7.20435 1.3163 6.44152 1.87891 5.87891C2.44152 5.3163 3.20435 5 4 5H7.60645C8.15853 5.00024 8.60645 5.44786 8.60645 6C8.60645 6.55214 8.15853 6.99976 7.60645 7H4C3.73478 7 3.4805 7.10543 3.29297 7.29297C3.10543 7.4805 3 7.73478 3 8V16C3 16.2652 3.10543 16.5195 3.29297 16.707C3.48051 16.8946 3.73478 17 4 17H7.60645C8.15853 17.0002 8.60645 17.4479 8.60645 18C8.60645 18.5521 8.15853 18.9998 7.60645 19H4C3.20435 19 2.44151 18.6837 1.87891 18.1211C1.3163 17.5585 1 16.7956 1 16Z" fill="black"/>
</svg>
