<svg width="24" height="24" viewBox="0 0 24 24" fill="none" xmlns="http://www.w3.org/2000/svg">
<path d="M9.92797 14.3892C10.1396 13.8791 10.7255 13.6365 11.2356 13.8482C11.7454 14.0599 11.987 14.6449 11.7756 15.1548L11.3928 16.0786C11.1811 16.5884 10.5961 16.83 10.0862 16.6187C9.57617 16.407 9.33373 15.8221 9.54516 15.312L9.92797 14.3892Z" fill="black"/>
<path d="M10.0861 7.38118C10.5961 7.16984 11.1812 7.41223 11.3928 7.92219L11.7756 8.84504C11.987 9.355 11.7454 9.93995 11.2355 10.1517C10.7255 10.3633 10.1397 10.1216 9.92793 9.61164L9.54512 8.68782C9.33378 8.17781 9.57617 7.59278 10.0861 7.38118Z" fill="black"/>
<path d="M12.7661 13.8482C13.2764 13.6372 13.8607 13.8798 14.0717 14.3902L14.4536 15.314C14.6646 15.8244 14.4219 16.4087 13.9116 16.6197C13.4012 16.8305 12.8169 16.588 12.6059 16.0777L12.2241 15.1538C12.0131 14.6435 12.2557 14.0592 12.7661 13.8482Z" fill="black"/>
<path d="M12.6069 7.9222C12.8186 7.41209 13.4044 7.16951 13.9145 7.38118C14.4244 7.59288 14.6659 8.17788 14.4546 8.68782L14.0718 9.61165C13.8601 10.1215 13.2751 10.363 12.7651 10.1517C12.2551 9.94006 12.0127 9.35508 12.2241 8.84505L12.6069 7.9222Z" fill="black"/>
<path d="M15.3121 9.54516C15.8222 9.33373 16.4071 9.57617 16.6188 10.0862C16.8301 10.5961 16.5885 11.1811 16.0787 11.3928L15.1549 11.7756C14.6449 11.987 14.0599 11.7454 13.8483 11.2356C13.6366 10.7255 13.8792 10.1396 14.3893 9.92797L15.3121 9.54516Z" fill="black"/>
<path d="M13.8481 12.7652C14.0597 12.2552 14.6447 12.0128 15.1547 12.2242L16.0786 12.607C16.5885 12.8187 16.8302 13.4045 16.6186 13.9146C16.4069 14.4244 15.8219 14.6661 15.312 14.4546L14.3891 14.0718C13.8792 13.8602 13.6368 13.2752 13.8481 12.7652Z" fill="black"/>
<path d="M7.41067 1.32638C8.22552 0.973573 9.13459 0.902448 9.99465 1.12325C10.7739 1.3234 11.4714 1.75468 12.0005 2.35568C12.1709 2.16234 12.3592 1.98429 12.565 1.82638C13.0516 1.45295 13.6176 1.19611 14.2193 1.07638C14.821 0.956672 15.443 0.977144 16.0357 1.13595C16.6281 1.29474 17.176 1.58799 17.6372 1.99239C18.0985 2.39692 18.461 2.90215 18.6958 3.46896C18.9306 4.03583 19.0319 4.64967 18.9917 5.26193C18.9515 5.87407 18.7711 6.46894 18.4644 7.00021C18.1883 7.47838 17.5764 7.64234 17.0982 7.36642C16.62 7.0903 16.456 6.47845 16.732 6.00021C16.8853 5.73463 16.9755 5.43707 16.9956 5.13107C17.0157 4.825 16.9655 4.51797 16.8482 4.23458C16.7308 3.95119 16.5495 3.69856 16.3189 3.4963C16.0883 3.29408 15.8143 3.14701 15.5181 3.06759C15.2218 2.98819 14.9108 2.97844 14.6099 3.03829C14.309 3.09814 14.0261 3.22657 13.7827 3.41329C13.5394 3.60005 13.3422 3.8403 13.2066 4.11544C13.0709 4.39059 13.0005 4.69342 13.0005 5.00021C12.9999 5.55217 12.5515 6.00044 11.9995 6.00021C11.4475 5.99992 11.0006 5.55219 11.0005 5.00021C11.0009 4.5561 10.8526 4.12372 10.5806 3.77267C10.3085 3.4216 9.92776 3.17026 9.49758 3.05978C9.06753 2.94935 8.61304 2.9859 8.20559 3.16232C7.84904 3.31675 7.5458 3.57082 7.33254 3.89278L7.24661 4.03536C7.07072 4.35552 6.98609 4.71825 7.00149 5.08321C7.02119 5.55459 6.70835 5.97526 6.25149 6.09298C5.8106 6.20639 5.40092 6.41904 5.05422 6.71407C4.70762 7.00903 4.43299 7.37918 4.25051 7.7961C4.06804 8.21315 3.98291 8.66647 4.00149 9.1213C4.02008 9.57616 4.14105 10.0213 4.35696 10.4221C4.61879 10.9082 4.43774 11.5146 3.95168 11.7766C3.46547 12.0385 2.85815 11.8565 2.59621 11.3703C2.23645 10.7025 2.03348 9.9613 2.00246 9.20333C1.97148 8.44523 2.11337 7.68946 2.4175 6.99435C2.72164 6.29929 3.18053 5.68233 3.75832 5.19064C4.14549 4.86122 4.58015 4.59517 5.04543 4.39767C5.11574 3.935 5.26642 3.48613 5.49368 3.07247C5.92103 2.29396 6.59572 1.67936 7.41067 1.32638Z" fill="black"/>
<path d="M17.0293 4.87597C17.1668 4.34116 17.7122 4.01877 18.247 4.15625C18.9819 4.34527 19.6643 4.69968 20.2422 5.1914C20.8198 5.68309 21.2779 6.30012 21.582 6.99512C21.886 7.69015 22.028 8.44512 21.997 9.20312C21.966 9.96118 21.7631 10.7022 21.4033 11.3701C21.1414 11.8563 20.535 12.0383 20.0488 11.7764C19.5626 11.5145 19.3807 10.9081 19.6425 10.4219C19.8585 10.0211 19.9804 9.57595 19.999 9.12109C20.0175 8.66634 19.9324 8.21287 19.75 7.7959C19.5675 7.37903 19.2928 7.00879 18.9463 6.71387C18.5996 6.41887 18.1898 6.20717 17.749 6.09375C17.2142 5.95617 16.8918 5.41079 17.0293 4.87597Z" fill="black"/>
<path d="M18.5781 9.91804C18.7859 9.40647 19.3693 9.1597 19.8809 9.36726C20.9548 9.80345 21.8444 10.5999 22.3965 11.6192C22.9483 12.6384 23.1286 13.8175 22.9072 14.9551C22.6857 16.093 22.0757 17.1187 21.1816 17.8565C20.2876 18.5942 19.1649 18.9986 18.0059 19.0001C17.4537 19.0006 17.0056 18.5532 17.0049 18.001C17.0043 17.4489 17.4517 17.0008 18.0039 17.0001C18.6993 16.9991 19.3728 16.7562 19.9092 16.3135C20.4455 15.8709 20.8114 15.2559 20.9443 14.5733C21.0772 13.8906 20.9689 13.1829 20.6377 12.5714C20.3065 11.9599 19.7731 11.4825 19.1289 11.2208C18.6173 11.013 18.3706 10.4296 18.5781 9.91804Z" fill="black"/>
<path d="M4.16201 16.4918C4.70952 16.5636 5.09507 17.0654 5.02333 17.6129C4.93307 18.301 5.08434 18.9993 5.45107 19.5885C5.81799 20.1778 6.37853 20.6217 7.03603 20.8443C7.69332 21.0669 8.40724 21.055 9.05654 20.8102C9.70603 20.5651 10.251 20.1021 10.5976 19.5006L10.5985 19.4986C10.7873 19.1727 11.0744 18.9936 11.3026 18.9C11.5363 18.8042 11.78 18.7672 11.9999 18.7672C12.2198 18.7672 12.4635 18.8042 12.6972 18.9C12.9254 18.9936 13.2125 19.1727 13.4013 19.4986L13.4022 19.5006C13.7487 20.1019 14.293 20.5651 14.9423 20.8102C15.5917 21.0552 16.3063 21.0669 16.9638 20.8443C17.621 20.6218 18.1808 20.1784 18.5477 19.5895C18.9147 19.0004 19.0665 18.302 18.9765 17.6139C18.9048 17.0664 19.2904 16.5646 19.8378 16.4928C20.3854 16.4211 20.8881 16.8065 20.9599 17.3541C21.1099 18.5011 20.8577 19.6652 20.246 20.6471C19.6344 21.6288 18.7009 22.3679 17.6054 22.7389C16.5096 23.1098 15.3185 23.0896 14.2362 22.6812C13.3417 22.3437 12.5679 21.7574 11.9999 20.9986C11.4318 21.7576 10.6573 22.3437 9.76259 22.6812C8.68029 23.0895 7.49007 23.1099 6.39443 22.7389C5.29864 22.3678 4.36534 21.6282 3.7538 20.6461C3.14231 19.664 2.88952 18.5002 3.03994 17.3531C3.11177 16.8055 3.61441 16.42 4.16201 16.4918Z" fill="black"/>
<path d="M4.12576 9.36325C4.6378 9.15666 5.22076 9.40495 5.42752 9.91696C5.634 10.4289 5.3867 11.012 4.87478 11.2187C4.22897 11.4795 3.69345 11.9563 3.36111 12.5683C3.02877 13.1804 2.92047 13.8895 3.05349 14.5732C3.18657 15.2568 3.55308 15.8726 4.0906 16.3154C4.62821 16.7582 5.30328 17.0004 5.99978 17C6.5518 16.9998 6.99924 17.447 6.99978 17.999C7.00009 18.5512 6.55298 18.9996 6.00076 19C4.83999 19.0006 3.7151 18.5973 2.81912 17.8593C1.92312 17.1213 1.31135 16.0945 1.08963 14.955C0.867926 13.8157 1.04948 12.6344 1.6033 11.6142C2.1572 10.5941 3.04937 9.79792 4.12576 9.36325Z" fill="black"/>
<path d="M5.96013 4.12599C6.51188 4.1028 6.97824 4.53145 7.00149 5.08321C7.01509 5.40578 7.10618 5.72049 7.26774 6.00001C7.54392 6.47813 7.38058 7.0899 6.90251 7.36622C6.42438 7.64243 5.81263 7.4781 5.5363 7.00001C5.21326 6.441 5.03027 5.81208 5.0031 5.16701C4.9799 4.61525 5.40836 4.14924 5.96013 4.12599Z" fill="black"/>
<path d="M7.38105 10.0862C7.59266 9.57623 8.17769 9.33384 8.68769 9.54518L9.61152 9.92799C10.1215 10.1397 10.3632 10.7256 10.1516 11.2356C9.93983 11.7454 9.35488 11.9871 8.84492 11.7756L7.92207 11.3928C7.41211 11.1812 7.16971 10.5962 7.38105 10.0862Z" fill="black"/>
<path d="M8.84508 12.2242C9.35511 12.0127 9.94009 12.2552 10.1517 12.7652C10.3631 13.2751 10.1215 13.8601 9.61168 14.0718L8.68785 14.4546C8.17791 14.666 7.59291 14.4244 7.38121 13.9146C7.16954 13.4045 7.41212 12.8187 7.92223 12.607L8.84508 12.2242Z" fill="black"/>
<path d="M14 12C14 10.8954 13.1046 10 12 10C10.8954 10 10 10.8954 10 12C10 13.1046 10.8954 14 12 14C13.1046 14 14 13.1046 14 12ZM16 12C16 14.2091 14.2091 16 12 16C9.79086 16 8 14.2091 8 12C8 9.79086 9.79086 8 12 8C14.2091 8 16 9.79086 16 12Z" fill="black"/>
</svg>
