<svg width="24" height="24" viewBox="0 0 24 24" fill="none" xmlns="http://www.w3.org/2000/svg">
<path fill-rule="evenodd" clip-rule="evenodd" d="M11.9961 2.25351C13.4028 1.27267 15.1205 0.842281 16.8234 1.04401C18.5264 1.24575 20.096 2.06556 21.2345 3.34791C22.3731 4.63026 23.0013 6.28593 23 8.00076C22.9996 16.2844 16.2844 22.9996 8.00073 23C6.2859 23.0013 4.63023 22.3731 3.34788 21.2346C2.06553 20.096 1.24572 18.5264 1.04398 16.8235C0.842251 15.1205 1.27264 13.4028 2.25348 11.9962C3.23433 10.5895 4.69739 9.59189 6.36507 9.1925C7.20159 8.99215 7.85537 8.73038 8.29286 8.29289C8.73021 7.85554 8.99202 7.20102 9.19247 6.3651C9.19245 6.36519 9.19249 6.36501 9.19247 6.3651C9.5919 4.69753 10.5896 3.23431 11.9961 2.25351ZM16.5882 3.03013C15.3718 2.88603 14.1448 3.19345 13.1401 3.89405C12.1354 4.59466 11.4227 5.6397 11.1375 6.8309C10.9159 7.75486 10.5497 8.8645 9.70708 9.70711C8.86456 10.5496 7.75636 10.9158 6.83088 11.1375C5.63968 11.4228 4.59463 12.1354 3.89402 13.1401C3.19342 14.1449 2.886 15.3718 3.0301 16.5882C3.17419 17.8046 3.75977 18.9257 4.67574 19.739C5.5917 20.5522 6.77432 21.0009 7.9992 21C15.1789 21 21 15.1797 21 8C21.0009 6.77512 20.5522 5.59173 19.739 4.67577C18.9257 3.7598 17.8045 3.17422 16.5882 3.03013Z" fill="black"/>
<path fill-rule="evenodd" clip-rule="evenodd" d="M9.70605 4.9341C9.93023 4.42936 10.5211 4.20192 11.0259 4.42611C11.7675 4.75552 12.4179 5.2605 12.9207 5.89745C13.4236 6.5344 13.7638 7.28418 13.9121 8.08204C14.0604 8.8799 14.0123 9.70186 13.7718 10.477C13.5314 11.252 13.1059 11.957 12.5322 12.5309C11.9584 13.1047 11.2535 13.5303 10.4785 13.7709C9.70345 14.0115 8.8815 14.0598 8.08361 13.9117C7.28572 13.7635 6.53588 13.4234 5.89883 12.9207C5.26179 12.4179 4.75668 11.7677 4.42713 11.0261C4.20285 10.5214 4.43018 9.93046 4.93487 9.70618C5.43957 9.48191 6.03052 9.70923 6.2548 10.2139C6.45253 10.6589 6.75559 11.049 7.13782 11.3507C7.52005 11.6523 7.96995 11.8564 8.44868 11.9453C8.92742 12.0341 9.42059 12.0052 9.88562 11.8608C10.3506 11.7165 10.7735 11.4611 11.1178 11.1168C11.4621 10.7724 11.7174 10.3495 11.8616 9.88444C12.0059 9.41938 12.0348 8.9262 11.9458 8.44749C11.8568 7.96877 11.6527 7.51891 11.351 7.13673C11.0492 6.75456 10.659 6.45157 10.214 6.25393C9.70931 6.02974 9.48187 5.43884 9.70605 4.9341Z" fill="black"/>
</svg>
