<svg width="24" height="24" viewBox="0 0 24 24" fill="none" xmlns="http://www.w3.org/2000/svg">
<path fill-rule="evenodd" clip-rule="evenodd" d="M5.58579 3.58579C5.96086 3.21071 6.46957 3 7 3H14C15.3261 3 16.5979 3.52678 17.5355 4.46447C18.4732 5.40215 19 6.67392 19 8C19 9.32608 18.4732 10.5979 17.5355 11.5355C17.5025 11.5686 17.4691 11.6011 17.4352 11.6331C17.8352 11.8561 18.206 12.1349 18.5355 12.4645C19.4732 13.4021 20 14.6739 20 16C20 17.3261 19.4732 18.5979 18.5355 19.5355C17.5979 20.4732 16.3261 21 15 21H7C6.46957 21 5.96086 20.7893 5.58579 20.4142C5.21071 20.0391 5 19.5304 5 19V5C5 4.46957 5.21071 3.96086 5.58579 3.58579ZM7 13V19H15C15.7956 19 16.5587 18.6839 17.1213 18.1213C17.6839 17.5587 18 16.7956 18 16C18 15.2044 17.6839 14.4413 17.1213 13.8787C16.5587 13.3161 15.7956 13 15 13H7ZM14 11H7L7 5L14 5C14.7956 5 15.5587 5.31607 16.1213 5.87868C16.6839 6.44129 17 7.20435 17 8C17 8.79565 16.6839 9.55871 16.1213 10.1213C15.5587 10.6839 14.7956 11 14 11Z" fill="black"/>
</svg>
