<svg width="24" height="24" viewBox="0 0 24 24" fill="none" xmlns="http://www.w3.org/2000/svg">
<path fill-rule="evenodd" clip-rule="evenodd" d="M12.3827 11.0761C12.7564 11.2309 13 11.5956 13 12V19.5858L16.2929 16.2929C16.6834 15.9024 17.3166 15.9024 17.7071 16.2929C18.0976 16.6834 18.0976 17.3166 17.7071 17.7071L12.7071 22.7071C12.4211 22.9931 11.991 23.0787 11.6173 22.9239C11.2436 22.7691 11 22.4045 11 22V14.4142L7.70711 17.7071C7.31658 18.0977 6.68342 18.0977 6.29289 17.7071C5.90237 17.3166 5.90237 16.6834 6.29289 16.2929L11.2929 11.2929C11.5789 11.0069 12.009 10.9214 12.3827 11.0761Z" fill="black"/>
<path fill-rule="evenodd" clip-rule="evenodd" d="M1.29289 1.29289C1.68342 0.902369 2.31658 0.902369 2.70711 1.29289L22.7071 21.2929C23.0976 21.6834 23.0976 22.3166 22.7071 22.7071C22.3166 23.0976 21.6834 23.0976 21.2929 22.7071L1.29289 2.70711C0.902369 2.31658 0.902369 1.68342 1.29289 1.29289Z" fill="black"/>
<path fill-rule="evenodd" clip-rule="evenodd" d="M11.6173 1.07615C11.991 0.921369 12.4211 1.00692 12.7071 1.29292L17.7071 6.29292C18.0976 6.68345 18.0976 7.31661 17.7071 7.70714L15.2071 10.2071C14.8166 10.5977 14.1834 10.5977 13.7929 10.2071C13.4024 9.81661 13.4024 9.18345 13.7929 8.79292L15.5858 7.00003L13 4.41424V6.50003C13 7.05231 12.5523 7.50003 12 7.50003C11.4477 7.50003 11 7.05231 11 6.50003V2.00003C11 1.59557 11.2436 1.23093 11.6173 1.07615Z" fill="black"/>
</svg>
