<svg width="24" height="24" viewBox="0 0 24 24" fill="none" xmlns="http://www.w3.org/2000/svg">
<path fill-rule="evenodd" clip-rule="evenodd" d="M4 4V9H15V4H4ZM15 3.99875C14.9999 3.99869 14.9999 3.99872 15 3.99875V3.99875ZM15.0012 8.99995C15.0013 8.99995 15.0013 8.99994 15.0012 8.99995V8.99995ZM2 4C2 2.89543 2.89543 2 4 2H15C16.1046 2 17 2.89543 17 4V9C17 10.1046 16.1046 11 15 11H4C2.89543 11 2 10.1046 2 9V4Z" fill="black"/>
<path fill-rule="evenodd" clip-rule="evenodd" d="M22.7071 8.29289C23.0976 8.68342 23.0976 9.31658 22.7071 9.70711L20.4142 12L22.7071 14.2929C23.0976 14.6834 23.0976 15.3166 22.7071 15.7071C22.3166 16.0976 21.6834 16.0976 21.2929 15.7071L18.2929 12.7071C17.9024 12.3166 17.9024 11.6834 18.2929 11.2929L21.2929 8.29289C21.6834 7.90237 22.3166 7.90237 22.7071 8.29289Z" fill="black"/>
<path fill-rule="evenodd" clip-rule="evenodd" d="M4 15V20H15V15H4ZM15 14.9988C14.9999 14.9987 14.9999 14.9987 15 14.9988V14.9988ZM15.0012 20C15.0013 19.9999 15.0013 19.9999 15.0012 20V20ZM2 15C2 13.8954 2.89543 13 4 13H15C16.1046 13 17 13.8954 17 15V20C17 21.1046 16.1046 22 15 22H4C2.89543 22 2 21.1046 2 20V15Z" fill="black"/>
</svg>
