<svg width="24" height="24" viewBox="0 0 24 24" fill="none" xmlns="http://www.w3.org/2000/svg">
<path fill-rule="evenodd" clip-rule="evenodd" d="M10 19C10.5523 19 11 19.4477 11 20V22C11 22.5523 10.5523 23 10 23C9.44772 23 9 22.5523 9 22V20C9 19.4477 9.44772 19 10 19Z" fill="black"/>
<path fill-rule="evenodd" clip-rule="evenodd" d="M14 19C14.5523 19 15 19.4477 15 20V22C15 22.5523 14.5523 23 14 23C13.4477 23 13 22.5523 13 22V20C13 19.4477 13.4477 19 14 19Z" fill="black"/>
<path fill-rule="evenodd" clip-rule="evenodd" d="M18 19C18.5523 19 19 19.4477 19 20V22C19 22.5523 18.5523 23 18 23C17.4477 23 17 22.5523 17 22V20C17 19.4477 17.4477 19 18 19Z" fill="black"/>
<path fill-rule="evenodd" clip-rule="evenodd" d="M2 20C2 19.4477 2.44772 19 3 19H21C21.5523 19 22 19.4477 22 20C22 20.5523 21.5523 21 21 21H3C2.44772 21 2 20.5523 2 20Z" fill="black"/>
<path fill-rule="evenodd" clip-rule="evenodd" d="M6 19C6.55228 19 7 19.4477 7 20V22C7 22.5523 6.55228 23 6 23C5.44772 23 5 22.5523 5 22V20C5 19.4477 5.44772 19 6 19Z" fill="black"/>
<path fill-rule="evenodd" clip-rule="evenodd" d="M10 3C9.73478 3 9.48043 3.10536 9.29289 3.29289C9.10536 3.48043 9 3.73478 9 4V16C9 16.5523 8.55228 17 8 17C7.44772 17 7 16.5523 7 16V4C7 3.20435 7.31607 2.44129 7.87868 1.87868C8.44129 1.31607 9.20435 1 10 1H14C14.7956 1 15.5587 1.31607 16.1213 1.87868C16.6839 2.44129 17 3.20435 17 4V16C17 16.5523 16.5523 17 16 17C15.4477 17 15 16.5523 15 16V4C15 3.73478 14.8946 3.48043 14.7071 3.29289C14.5196 3.10536 14.2652 3 14 3H10Z" fill="black"/>
<path fill-rule="evenodd" clip-rule="evenodd" d="M6 7C5.44772 7 5 7.44771 5 8V14C5 14.5523 5.44772 15 6 15H18C18.5523 15 19 14.5523 19 14V8C19 7.44771 18.5523 7 18 7H6ZM3 8C3 6.34315 4.34315 5 6 5H18C19.6569 5 21 6.34315 21 8V14C21 15.6569 19.6569 17 18 17H6C4.34315 17 3 15.6569 3 14V8Z" fill="black"/>
</svg>
