<svg width="24" height="24" viewBox="0 0 24 24" fill="none" xmlns="http://www.w3.org/2000/svg">
<path fill-rule="evenodd" clip-rule="evenodd" d="M12.67 8C12.67 7.44772 13.1177 7 13.67 7H18C18.7957 7 19.5587 7.31607 20.1213 7.87868C20.6839 8.44129 21 9.20435 21 10V14.33C21 14.8823 20.5523 15.33 20 15.33C19.4477 15.33 19 14.8823 19 14.33V10C19 9.73478 18.8946 9.48043 18.7071 9.29289C18.5196 9.10536 18.2652 9 18 9H13.67C13.1177 9 12.67 8.55228 12.67 8Z" fill="black"/>
<path fill-rule="evenodd" clip-rule="evenodd" d="M1 14C1 13.4477 1.44772 13 2 13H4C4.55228 13 5 13.4477 5 14C5 14.5523 4.55228 15 4 15H2C1.44772 15 1 14.5523 1 14Z" fill="black"/>
<path fill-rule="evenodd" clip-rule="evenodd" d="M19 14C19 13.4477 19.4477 13 20 13H22C22.5523 13 23 13.4477 23 14C23 14.5523 22.5523 15 22 15H20C19.4477 15 19 14.5523 19 14Z" fill="black"/>
<path fill-rule="evenodd" clip-rule="evenodd" d="M1.29289 1.29289C1.68342 0.902369 2.31658 0.902369 2.70711 1.29289L22.7071 21.2929C23.0976 21.6834 23.0976 22.3166 22.7071 22.7071C22.3166 23.0976 21.6834 23.0976 21.2929 22.7071L1.29289 2.70711C0.902369 2.31658 0.902369 1.68342 1.29289 1.29289Z" fill="black"/>
<path fill-rule="evenodd" clip-rule="evenodd" d="M3.87868 7.87868C4.44129 7.31607 5.20435 7 6 7H8C8.55228 7 9 7.44772 9 8C9 8.55228 8.55228 9 8 9H6C5.73478 9 5.48043 9.10536 5.29289 9.29289C5.10536 9.48043 5 9.73478 5 10V18C5 18.2652 5.10536 18.5196 5.29289 18.7071C5.48043 18.8946 5.73478 19 6 19H17.9998C17.9997 19 17.9999 19 17.9998 19C18.2649 18.9999 18.5193 18.8945 18.7068 18.707C19.0972 18.3164 19.7304 18.3163 20.121 18.7068C20.5116 19.0973 20.5117 19.7304 20.1212 20.121C19.5587 20.6836 18.7958 20.9998 18.0002 21H6C5.20435 21 4.44129 20.6839 3.87868 20.1213C3.31607 19.5587 3 18.7957 3 18V10C3 9.20435 3.31607 8.44129 3.87868 7.87868Z" fill="black"/>
<path fill-rule="evenodd" clip-rule="evenodd" d="M9 12C9.55228 12 10 12.4477 10 13V15C10 15.5523 9.55228 16 9 16C8.44772 16 8 15.5523 8 15V13C8 12.4477 8.44772 12 9 12Z" fill="black"/>
<path fill-rule="evenodd" clip-rule="evenodd" d="M8.67 4C8.67 3.44772 9.11772 3 9.67 3H12C12.5523 3 13 3.44772 13 4V6.33C13 6.88228 12.5523 7.33 12 7.33C11.4477 7.33 11 6.88228 11 6.33V5H9.67C9.11772 5 8.67 4.55228 8.67 4Z" fill="black"/>
</svg>
