<svg width="24" height="24" viewBox="0 0 24 24" fill="none" xmlns="http://www.w3.org/2000/svg">
<path fill-rule="evenodd" clip-rule="evenodd" d="M2 3C2.55228 3 3 3.44772 3 4V20C3 20.5523 2.55228 21 2 21C1.44772 21 1 20.5523 1 20V4C1 3.44772 1.44772 3 2 3Z" fill="black"/>
<path fill-rule="evenodd" clip-rule="evenodd" d="M1 8C1 7.44772 1.44772 7 2 7H20C20.7957 7 21.5587 7.31607 22.1213 7.87868C22.6839 8.44129 23 9.20435 23 10V20C23 20.5523 22.5523 21 22 21C21.4477 21 21 20.5523 21 20V10C21 9.73478 20.8946 9.48043 20.7071 9.29289C20.5196 9.10536 20.2652 9 20 9H2C1.44772 9 1 8.55228 1 8Z" fill="black"/>
<path fill-rule="evenodd" clip-rule="evenodd" d="M1 17C1 16.4477 1.44772 16 2 16H22C22.5523 16 23 16.4477 23 17C23 17.5523 22.5523 18 22 18H2C1.44772 18 1 17.5523 1 17Z" fill="black"/>
<path fill-rule="evenodd" clip-rule="evenodd" d="M6 7C6.55228 7 7 7.44772 7 8V17C7 17.5523 6.55228 18 6 18C5.44772 18 5 17.5523 5 17V8C5 7.44772 5.44772 7 6 7Z" fill="black"/>
</svg>
