<svg width="24" height="24" viewBox="0 0 24 24" fill="none" xmlns="http://www.w3.org/2000/svg">
<path d="M11 18V5.00003C11 4.44775 11.4477 4.00003 12 4.00003C12.5523 4.00003 13 4.44775 13 5.00003V18C13 18.5523 12.5523 19 12 19C11.4477 19 11 18.5523 11 18Z" fill="black"/>
<path d="M12 8.00003C12.552 8.00003 12.9995 8.44718 13 8.99905C13.0004 9.68423 13.2227 10.3513 13.6338 10.8994C14.0449 11.4476 14.6227 11.8478 15.2803 12.0401C15.8103 12.195 16.1147 12.7503 15.96 13.2803C15.8051 13.8103 15.2498 14.1147 14.7198 13.96C13.6471 13.6464 12.7047 12.9936 12.0342 12.0996C12.0225 12.084 12.0116 12.0675 12 12.0518C11.9885 12.0675 11.9776 12.084 11.9658 12.0996C11.2953 12.9936 10.3529 13.6464 9.2803 13.96C8.75029 14.1147 8.19499 13.8103 8.04006 13.2803C7.88532 12.7503 8.18976 12.195 8.71975 12.0401C9.37734 11.8478 9.95516 11.4476 10.3662 10.8994C10.7773 10.3513 10.9996 9.68423 11 8.99905L11.0049 8.89749C11.0562 8.39333 11.4824 8.00003 12 8.00003Z" fill="black"/>
<path d="M11 5.00003C11 4.69328 10.9296 4.39026 10.794 4.11513C10.6583 3.84005 10.4611 3.59971 10.2178 3.41298C9.9745 3.22629 9.69141 3.09787 9.39065 3.03798C9.08976 2.97813 8.77877 2.98886 8.48244 3.06826C8.18625 3.14762 7.91224 3.29386 7.68166 3.49599C7.4511 3.6982 7.26976 3.95096 7.15236 4.23427C7.03498 4.51769 6.98386 4.82465 7.00393 5.13076C7.024 5.43679 7.11428 5.73429 7.2676 5.9999C7.54373 6.47811 7.3805 7.08989 6.90236 7.36611C6.42409 7.64228 5.81232 7.47818 5.53615 6.9999C5.22937 6.46857 5.04896 5.87384 5.00881 5.26162C4.96867 4.64946 5.06999 4.03642 5.30471 3.46962C5.53943 2.90292 5.90121 2.39756 6.36233 1.99306C6.82362 1.5885 7.3722 1.29542 7.96486 1.13662C8.5575 0.977823 9.17854 0.957356 9.78029 1.07705C10.3821 1.19675 10.9488 1.45254 11.4356 1.82607C11.6415 1.98413 11.8295 2.1628 12 2.35634C12.1706 2.1628 12.3585 1.98413 12.5645 1.82607C13.0512 1.45254 13.618 1.19675 14.2197 1.07705C14.8215 0.957356 15.4425 0.977823 16.0352 1.13662C16.6278 1.29542 17.1764 1.5885 17.6377 1.99306C18.0988 2.39756 18.4606 2.90292 18.6953 3.46962C18.93 4.03642 19.0314 4.64946 18.9912 5.26162C18.9511 5.87384 18.7707 6.46857 18.4639 6.9999C18.1877 7.47818 17.576 7.64228 17.0977 7.36611C16.6195 7.08989 16.4563 6.47811 16.7324 5.9999C16.8858 5.73429 16.976 5.43679 16.9961 5.13076C17.0162 4.82465 16.9651 4.51769 16.8477 4.23427C16.7303 3.95096 16.5489 3.6982 16.3184 3.49599C16.0878 3.29386 15.8138 3.14762 15.5176 3.06826C15.2213 2.98886 14.9103 2.97813 14.6094 3.03798C14.3086 3.09787 14.0255 3.22629 13.7822 3.41298C13.5389 3.59971 13.3417 3.84005 13.2061 4.11513C13.0704 4.39026 13 4.69328 13 5.00003C13 5.5523 12.5523 5.9999 12 5.9999C11.4478 5.9999 11 5.5523 11 5.00003Z" fill="black"/>
<path d="M17.0283 4.87601C17.1658 4.34115 17.7112 4.01879 18.2461 4.15629C18.9808 4.34521 19.6633 4.69889 20.2412 5.19047C20.819 5.68202 21.2768 6.29926 21.581 6.99418C21.8852 7.68909 22.0278 8.44423 21.997 9.20218C21.9662 9.96012 21.7629 10.7012 21.4033 11.3692C21.1414 11.8553 20.535 12.0372 20.0488 11.7754C19.5627 11.5136 19.3808 10.9072 19.6426 10.4209C19.8582 10.0203 19.9795 9.57578 19.998 9.12113C20.0165 8.66632 19.9315 8.21292 19.749 7.79593C19.5665 7.37905 19.2919 7.00881 18.9453 6.7139C18.5986 6.41897 18.1888 6.20714 17.748 6.09379C17.2132 5.95626 16.8908 5.41088 17.0283 4.87601Z" fill="black"/>
<path d="M19.1338 10.036C19.4099 9.55779 20.0217 9.39375 20.5 9.66982C21.4531 10.2202 22.198 11.0699 22.6191 12.0868C23.0403 13.1036 23.1139 14.2308 22.8291 15.2938C22.5443 16.3569 21.917 17.2967 21.0439 17.9667C20.1708 18.6367 19.1006 18.9998 18 18.9999C17.4477 18.9999 17 18.5522 17 17.9999C17.0001 17.4477 17.4478 16.9999 18 16.9999C18.6604 16.9999 19.3023 16.7818 19.8262 16.3798C20.35 15.9778 20.7266 15.4141 20.8975 14.7763C21.0683 14.1386 21.024 13.4624 20.7715 12.8524C20.5188 12.2424 20.0718 11.7325 19.5 11.4022C19.0218 11.1261 18.8577 10.5143 19.1338 10.036Z" fill="black"/>
<path d="M19.8389 16.4908C20.3866 16.4201 20.8882 16.8074 20.959 17.3551C21.0466 18.0327 20.9936 18.7209 20.8047 19.3776C20.6158 20.0343 20.2947 20.6458 19.8604 21.1735C19.426 21.7011 18.8876 22.1343 18.2793 22.4459C17.6713 22.7573 17.0059 22.9407 16.3242 22.985C15.6422 23.0292 14.9579 22.9331 14.3145 22.7028C13.6712 22.4724 13.0818 22.113 12.583 21.6461C12.3691 21.4458 12.1749 21.2262 12 20.9928C11.8252 21.2262 11.631 21.4458 11.417 21.6461C10.9182 22.113 10.3288 22.4724 9.68557 22.7028C9.04214 22.9331 8.3578 23.0292 7.67581 22.985C6.99411 22.9407 6.32875 22.7573 5.72073 22.4459C5.11247 22.1343 4.57403 21.7011 4.13967 21.1735C3.70535 20.6458 3.38426 20.0343 3.19534 19.3776C3.0065 18.7209 2.9535 18.0327 3.04104 17.3551C3.11183 16.8074 3.61347 16.4201 4.16116 16.4908C4.70882 16.5616 5.09511 17.0633 5.02444 17.611C4.97188 18.0176 5.00389 18.4308 5.11721 18.8248C5.23053 19.2188 5.42316 19.5855 5.68362 19.902C5.94416 20.2185 6.26703 20.4787 6.63186 20.6657C6.99681 20.8526 7.3965 20.9633 7.80569 20.9899C8.21489 21.0164 8.62568 20.9582 9.01174 20.82C9.39762 20.6817 9.75158 20.4663 10.0508 20.1862C10.3501 19.906 10.5886 19.5671 10.752 19.191C10.9153 18.8149 10.9996 18.4087 11 17.9987L11.0049 17.8971C11.0564 17.3931 11.4825 16.9996 12 16.9996C12.5518 16.9996 12.9993 17.4469 13 17.9987C13.0005 18.4087 13.0847 18.8149 13.2481 19.191C13.4114 19.5671 13.65 19.906 13.9492 20.1862C14.2485 20.4663 14.6024 20.6817 14.9883 20.82C15.3744 20.9582 15.7852 21.0164 16.1944 20.9899C16.6035 20.9633 17.0032 20.8526 17.3682 20.6657C17.733 20.4787 18.0559 20.2185 18.3164 19.902C18.5769 19.5855 18.7695 19.2188 18.8828 18.8248C18.9962 18.4308 19.0282 18.0176 18.9756 17.611C18.9049 17.0633 19.2912 16.5616 19.8389 16.4908Z" fill="black"/>
<path d="M3.50012 9.66982C3.97836 9.39386 4.59021 9.55784 4.86633 10.036C5.14233 10.5143 4.97833 11.1261 4.50012 11.4022C3.92823 11.7325 3.48133 12.2423 3.22863 12.8524C2.97605 13.4624 2.93181 14.1385 3.10266 14.7763C3.27358 15.4141 3.65006 15.9778 4.17395 16.3798C4.69785 16.7818 5.33974 16.9999 6.00012 16.9999C6.55229 17 7.00005 17.4477 7.00012 17.9999C7.00009 18.5521 6.5523 18.9998 6.00012 18.9999C4.89949 18.9999 3.82935 18.6367 2.95617 17.9667C2.08303 17.2967 1.4549 16.3569 1.17004 15.2938C0.885297 14.2308 0.959865 13.1035 1.38098 12.0868C1.80215 11.07 2.54699 10.2202 3.50012 9.66982Z" fill="black"/>
<path d="M5.75386 4.15629C6.28873 4.01879 6.83411 4.34115 6.97164 4.87601C7.10913 5.41088 6.78678 5.95626 6.25191 6.09379C5.81108 6.20714 5.40133 6.41897 5.05464 6.7139C4.70805 7.00881 4.43345 7.37905 4.25093 7.79593C4.06839 8.21292 3.98344 8.66632 4.00191 9.12113C4.02043 9.57578 4.14171 10.0203 4.35738 10.4209C4.61912 10.9072 4.43725 11.5136 3.95113 11.7754C3.4649 12.0372 2.85849 11.8553 2.59664 11.3692C2.23707 10.7012 2.03371 9.96012 2.00289 9.20218C1.9721 8.44423 2.11471 7.68909 2.4189 6.99418C2.72312 6.29926 3.18097 5.68202 3.75875 5.19047C4.33658 4.69889 5.01911 4.34521 5.75386 4.15629Z" fill="black"/>
</svg>
