<svg width="24" height="24" viewBox="0 0 24 24" fill="none" xmlns="http://www.w3.org/2000/svg">
<path fill-rule="evenodd" clip-rule="evenodd" d="M8 5C8.55228 5 9 5.44772 9 6V12C9 12.5523 8.55228 13 8 13C7.44772 13 7 12.5523 7 12V6C7 5.44772 7.44772 5 8 5Z" fill="black"/>
<path fill-rule="evenodd" clip-rule="evenodd" d="M15 5C15.5523 5 16 5.44772 16 6V12C16 12.5523 15.5523 13 15 13C14.4477 13 14 12.5523 14 12V6C14 5.44772 14.4477 5 15 5Z" fill="black"/>
<path fill-rule="evenodd" clip-rule="evenodd" d="M1 12C1 11.4477 1.44772 11 2 11H21.6C22.1523 11 22.6 11.4477 22.6 12C22.6 12.5523 22.1523 13 21.6 13H2C1.44772 13 1 12.5523 1 12Z" fill="black"/>
<path fill-rule="evenodd" clip-rule="evenodd" d="M1.87868 5.87868C2.44129 5.31607 3.20435 5 4 5H18C19.5633 5 20.9373 6.11083 21.3578 7.51265C21.3596 7.51854 21.3613 7.52445 21.363 7.53037L22.763 12.5304C22.7655 12.5394 22.7679 12.5484 22.7701 12.5575C22.7735 12.5711 22.777 12.5848 22.7805 12.5988C22.8739 12.9717 23 13.4751 23 14C23 14.5249 22.8739 15.0283 22.7805 15.4012C22.777 15.4152 22.7735 15.4289 22.7701 15.4425C22.769 15.4473 22.7677 15.452 22.7665 15.4568C22.7659 15.4589 22.7653 15.461 22.7648 15.4631C22.6127 16.0207 22.411 16.7266 22.2482 17.29C22.1666 17.5724 22.0945 17.8202 22.0427 17.9975C22.0279 18.0483 22.0147 18.0932 22.0035 18.1316C21.9951 18.1603 21.9878 18.1852 21.9817 18.2061C21.9745 18.2306 21.9689 18.2495 21.9652 18.2624L21.9598 18.2808L21.9595 18.2818C21.9595 18.2818 21.9594 18.2822 21 18L21.9595 18.2818C21.8343 18.7074 21.4436 19 21 19H18C17.4477 19 17 18.5523 17 18C17 17.4477 17.4477 17 18 17H20.2501C20.2744 16.9162 20.3001 16.8275 20.3268 16.735C20.488 16.1769 20.6848 15.488 20.8324 14.9471C20.9368 14.5295 21 14.2533 21 14C21 13.7473 20.9371 13.472 20.8332 13.0561L19.4399 8.07983C19.2575 7.48508 18.634 7 18 7H4C3.73478 7 3.48043 7.10536 3.29289 7.29289C3.10536 7.48043 3 7.73478 3 8V17H5C5.55228 17 6 17.4477 6 18C6 18.5523 5.55228 19 5 19H2C1.44772 19 1 18.5523 1 18V8C1 7.20435 1.31607 6.44129 1.87868 5.87868Z" fill="black"/>
<path fill-rule="evenodd" clip-rule="evenodd" d="M7 17C6.44771 17 6 17.4477 6 18C6 18.5523 6.44771 19 7 19C7.55228 19 8 18.5523 8 18C8 17.4477 7.55228 17 7 17ZM4 18C4 16.3431 5.34315 15 7 15C8.65685 15 10 16.3431 10 18C10 19.6569 8.65685 21 7 21C5.34315 21 4 19.6569 4 18Z" fill="black"/>
<path fill-rule="evenodd" clip-rule="evenodd" d="M8 18C8 17.4477 8.44772 17 9 17H14C14.5523 17 15 17.4477 15 18C15 18.5523 14.5523 19 14 19H9C8.44772 19 8 18.5523 8 18Z" fill="black"/>
<path fill-rule="evenodd" clip-rule="evenodd" d="M16 17C15.4477 17 15 17.4477 15 18C15 18.5523 15.4477 19 16 19C16.5523 19 17 18.5523 17 18C17 17.4477 16.5523 17 16 17ZM13 18C13 16.3431 14.3431 15 16 15C17.6569 15 19 16.3431 19 18C19 19.6569 17.6569 21 16 21C14.3431 21 13 19.6569 13 18Z" fill="black"/>
</svg>
