<svg width="24" height="24" viewBox="0 0 24 24" fill="none" xmlns="http://www.w3.org/2000/svg">
<path d="M14.7578 17.0303C15.2935 16.8965 15.8358 17.2221 15.9697 17.7578L16.9697 21.7578C17.1035 22.2935 16.7779 22.8358 16.2422 22.9697C15.7065 23.1035 15.1642 22.7779 15.0303 22.2422L14.0303 18.2422C13.8965 17.7065 14.2221 17.1642 14.7578 17.0303Z" fill="black"/>
<path d="M19 12C19 11.7348 18.8946 11.4805 18.707 11.293C18.5195 11.1054 18.2652 11 18 11H15C14.4696 11 13.961 10.7891 13.5859 10.4141C13.2109 10.039 13 9.53043 13 9V4C13 3.73478 12.8946 3.48051 12.707 3.29297C12.5195 3.10543 12.2652 3 12 3C11.7348 3 11.4805 3.10543 11.293 3.29297C11.1054 3.48051 11 3.73478 11 4V9C11 9.53043 10.7891 10.039 10.4141 10.4141C10.039 10.7891 9.53044 11 9.00001 11H6.00001C5.73479 11 5.48051 11.1054 5.29298 11.293C5.10544 11.4805 5.00001 11.7348 5.00001 12V13C5.55229 13 6.00001 13.4477 6.00001 14C6.00001 14.5523 5.55229 15 5.00001 15C4.46957 15 3.96102 14.7891 3.58594 14.4141C3.21087 14.039 3.00001 13.5304 3.00001 13V12C3.00001 11.2044 3.3163 10.4415 3.87891 9.87891C4.44152 9.3163 5.20436 9 6.00001 9H9.00001V4C9.00001 3.20435 9.3163 2.44151 9.87891 1.87891C10.4415 1.3163 11.2044 1 12 1C12.7957 1 13.5585 1.3163 14.1211 1.87891C14.6837 2.44151 15 3.20435 15 4V9H18C18.7957 9 19.5585 9.3163 20.1211 9.87891C20.6837 10.4415 21 11.2043 21 12V13C21 13.5304 20.7891 14.039 20.4141 14.4141C20.039 14.7891 19.5304 15 19 15C18.4477 15 18 14.5523 18 14C18 13.4477 18.4477 13 19 13V12Z" fill="black"/>
<path d="M19 13L19.1635 13.0137C19.5379 13.0756 19.8515 13.3464 19.9604 13.7197L21.9331 20.4873L21.9458 20.5342C22.0162 20.8281 22.0185 21.1345 21.9536 21.4297C21.8886 21.7249 21.758 22.002 21.5708 22.2393C21.3835 22.4765 21.1446 22.668 20.8725 22.7998C20.6007 22.9315 20.3025 23 20.0005 23H4.00046C3.69812 23.0001 3.39951 22.9316 3.12741 22.7998C2.85539 22.668 2.61644 22.4765 2.42917 22.2393C2.2419 22.0019 2.11131 21.7249 2.04636 21.4297C1.98144 21.1345 1.98378 20.8281 2.05417 20.5342L2.06687 20.4873L4.03952 13.7197L4.09909 13.5664C4.26345 13.2246 4.61121 13 5.00001 13H19ZM4.00046 21H19.9995L18.2495 15H5.75046L4.00046 21Z" fill="black"/>
<path d="M8.03028 17.7578C8.16421 17.2221 8.70647 16.8965 9.24219 17.0303C9.77791 17.1642 10.1035 17.7065 9.96973 18.2422L8.96973 22.2422C8.8358 22.7779 8.29354 23.1035 7.75782 22.9697C7.2221 22.8358 6.89648 22.2935 7.03028 21.7578L8.03028 17.7578Z" fill="black"/>
</svg>
