<svg width="24" height="24" viewBox="0 0 24 24" fill="none" xmlns="http://www.w3.org/2000/svg">
<path d="M12.8657 20.5C13.1419 20.0218 13.7537 19.8578 14.2319 20.1338C14.7102 20.4099 14.8743 21.0217 14.5982 21.5C14.3349 21.9558 13.9563 22.3344 13.5005 22.5976C13.0446 22.8609 12.5269 22.9999 12.0005 23C11.474 23 10.9565 22.8609 10.5005 22.5976C10.0445 22.3344 9.66519 21.956 9.40187 21.5C9.1258 21.0217 9.28984 20.4099 9.76808 20.1338C10.2463 19.8577 10.8581 20.0217 11.1343 20.5C11.2221 20.6519 11.3485 20.7785 11.5005 20.8662C11.6524 20.9538 11.8251 21 12.0005 21C12.1759 20.9999 12.3486 20.9539 12.5005 20.8662C12.6524 20.7785 12.778 20.6518 12.8657 20.5Z" fill="black"/>
<path d="M21 7.99999C21 5.9457 20.2882 4.14347 19.1826 2.57714C18.8641 2.12598 18.9717 1.50112 19.4228 1.1826C19.874 0.864138 20.4989 0.971737 20.8174 1.42284C22.1117 3.25648 23 5.45433 23 7.99999C23 8.55227 22.5523 8.99999 22 8.99999C21.4477 8.99999 21 8.55227 21 7.99999Z" fill="black"/>
<path d="M16.9997 7.99998C16.9997 6.67407 16.4732 5.40248 15.5358 4.46483C14.5981 3.52715 13.3257 2.99998 11.9997 2.99998C10.6737 3.00005 9.40212 3.5272 8.4645 4.46483C7.52689 5.4025 6.99965 6.67396 6.99965 7.99998C6.99965 10.3542 6.63065 11.9982 6.03286 13.2637C5.4424 14.5136 4.65885 15.3205 4.00063 16H19.9997C19.3401 15.3201 18.5576 14.5127 17.9674 13.2637C17.3694 11.998 16.9997 10.3541 16.9997 7.99998ZM18.9997 7.99998C18.9997 10.1447 19.3356 11.4789 19.775 12.4092C20.1055 13.1086 20.5127 13.6223 20.9762 14.125L21.4577 14.6308L21.4791 14.6543C21.74 14.941 21.9122 15.2971 21.9743 15.6797C22.0363 16.0621 21.9863 16.4543 21.8297 16.8086C21.673 17.1629 21.4162 17.4643 21.0915 17.6758C20.8071 17.8608 20.481 17.9708 20.1442 17.9951L19.9997 18H3.99965C3.61203 17.9997 3.23248 17.8866 2.90786 17.6748C2.58322 17.463 2.32693 17.1613 2.17055 16.8066C2.01423 16.452 1.96441 16.0592 2.027 15.6767C2.08962 15.2944 2.262 14.9386 2.52309 14.6523L2.5436 14.6299C3.20805 13.9439 3.78374 13.3417 4.22426 12.4092C4.66371 11.4789 4.99965 10.1447 4.99965 7.99998C4.99965 6.14347 5.73768 4.36254 7.05044 3.04979C8.3631 1.73732 10.1434 1.00005 11.9997 0.999985C13.8561 0.999985 15.6371 1.73711 16.9499 3.04979C18.2626 4.36254 18.9997 6.14347 18.9997 7.99998Z" fill="black"/>
<path d="M1 7.99999C1 5.45433 1.88829 3.25648 3.18262 1.42284C3.50114 0.971737 4.12599 0.864138 4.57715 1.1826C5.02825 1.50112 5.13585 2.12598 4.81738 2.57714C3.71176 4.14347 3 5.9457 3 7.99999C3 8.55227 2.55228 8.99999 2 8.99999C1.44772 8.99999 1 8.55227 1 7.99999Z" fill="black"/>
</svg>
