<svg width="24" height="24" viewBox="0 0 24 24" fill="none" xmlns="http://www.w3.org/2000/svg">
<path d="M11 22V18C11 17.4477 11.4477 17 12 17C12.5523 17 13 17.4477 13 18V22C13 22.5523 12.5523 23 12 23C11.4477 23 11 22.5523 11 22Z" fill="black"/>
<path d="M17.9707 6.36404C18.0636 5.81963 18.5796 5.45382 19.124 5.54666C19.6684 5.63951 20.0342 6.15559 19.9414 6.69998L17.9854 18.1678C17.8925 18.7121 17.3764 19.0788 16.832 18.9861C16.2876 18.8933 15.9218 18.3762 16.0146 17.8318L17.9707 6.36404Z" fill="black"/>
<path d="M12 0.999817C12.6337 0.999817 13.2502 1.20161 13.7627 1.57404L13.7637 1.57306L21.583 7.18732C22.0315 7.50934 22.1343 8.13424 21.8125 8.58282C21.4904 9.03139 20.8656 9.13429 20.417 8.81232L12.5967 3.19708L12.5898 3.1922C12.4186 3.06715 12.212 2.99982 12 2.99982C11.788 2.99982 11.5814 3.06715 11.4102 3.1922L11.4033 3.19708L3.58301 8.81232C3.1344 9.13429 2.50958 9.03139 2.1875 8.58282C1.86572 8.13424 1.9685 7.50934 2.41699 7.18732L10.2363 1.57306C10.749 1.20034 11.3661 0.999817 12 0.999817Z" fill="black"/>
<path d="M20 17C20.5523 17 21 17.4477 21 18C21 18.5523 20.5523 19 20 19H4C3.44772 19 3 18.5523 3 18C3 17.4477 3.44772 17 4 17H20Z" fill="black"/>
<path d="M4.87603 5.54666C5.42042 5.45386 5.9365 5.81965 6.02935 6.36404L7.98541 17.8318C8.07826 18.3762 7.71245 18.8933 7.16802 18.9861C6.62366 19.0789 6.10755 18.7121 6.0147 18.1678L4.05865 6.69998C3.96585 6.15559 4.33164 5.63951 4.87603 5.54666Z" fill="black"/>
<path d="M13 10C13 9.44773 12.5523 9.00001 12 9.00001C11.4477 9.00001 11 9.44773 11 10C11 10.5523 11.4477 11 12 11C12.5523 11 13 10.5523 13 10ZM15 10C15 11.6569 13.6569 13 12 13C10.3431 13 9 11.6569 9 10C9 8.34316 10.3431 7.00001 12 7.00001C13.6569 7.00001 15 8.34316 15 10Z" fill="black"/>
</svg>
