<svg width="24" height="24" viewBox="0 0 24 24" fill="none" xmlns="http://www.w3.org/2000/svg">
<path fill-rule="evenodd" clip-rule="evenodd" d="M5 11C4.73478 11 4.48043 11.1054 4.29289 11.2929C4.10536 11.4804 4 11.7348 4 12V20C4 20.5523 3.55228 21 3 21C2.44772 21 2 20.5523 2 20V12C2 11.2044 2.31607 10.4413 2.87868 9.87868C3.44129 9.31607 4.20435 9 5 9H19C19.7957 9 20.5587 9.31607 21.1213 9.87868C21.6839 10.4413 22 11.2043 22 12V20C22 20.5523 21.5523 21 21 21C20.4477 21 20 20.5523 20 20V12C20 11.7348 19.8946 11.4804 19.7071 11.2929C19.5196 11.1054 19.2652 11 19 11H5Z" fill="black"/>
<path fill-rule="evenodd" clip-rule="evenodd" d="M7 5C6.73478 5 6.48043 5.10536 6.29289 5.29289C6.10536 5.48043 6 5.73478 6 6V10C6 10.5523 5.55228 11 5 11C4.44772 11 4 10.5523 4 10V6C4 5.20435 4.31607 4.44129 4.87868 3.87868C5.44129 3.31607 6.20435 3 7 3H17C17.7956 3 18.5587 3.31607 19.1213 3.87868C19.6839 4.44129 20 5.20435 20 6V10C20 10.5523 19.5523 11 19 11C18.4477 11 18 10.5523 18 10V6C18 5.73478 17.8946 5.48043 17.7071 5.29289C17.5196 5.10536 17.2652 5 17 5H7Z" fill="black"/>
<path fill-rule="evenodd" clip-rule="evenodd" d="M2 18C2 17.4477 2.44772 17 3 17H21C21.5523 17 22 17.4477 22 18C22 18.5523 21.5523 19 21 19H3C2.44772 19 2 18.5523 2 18Z" fill="black"/>
</svg>
