<svg width="24" height="24" viewBox="0 0 24 24" fill="none" xmlns="http://www.w3.org/2000/svg">
<path d="M11 10.2578V9C11 8.44772 11.4477 8 12 8C12.5523 8 13 8.44772 13 9V10.2578C13 10.8101 12.5523 11.2578 12 11.2578C11.4477 11.2578 11 10.8101 11 10.2578Z" fill="black"/>
<path d="M15 8.45996V3C15 2.44772 15.4477 2 16 2C16.5523 2 17 2.44772 17 3V8.45996C17 9.01225 16.5523 9.45996 16 9.45996C15.4477 9.45996 15 9.01225 15 8.45996Z" fill="black"/>
<path d="M20 9.11816V5C20 4.73478 19.8946 4.48051 19.707 4.29297C19.5195 4.10543 19.2652 4 19 4H5C4.73478 4 4.4805 4.10543 4.29297 4.29297C4.10543 4.4805 4 4.73478 4 5V19C4 19.2652 4.10543 19.5195 4.29297 19.707C4.48051 19.8946 4.73478 20 5 20H10.75C11.3023 20 11.75 20.4477 11.75 21C11.75 21.5523 11.3023 22 10.75 22H5C4.20435 22 3.44152 21.6837 2.87891 21.1211C2.3163 20.5585 2 19.7957 2 19V5C2 4.20435 2.3163 3.44152 2.87891 2.87891C3.44152 2.3163 4.20435 2 5 2H19C19.7957 2 20.5585 2.3163 21.1211 2.87891C21.6837 3.44152 22 4.20435 22 5V9.11816C21.9999 9.67037 21.5522 10.1182 21 10.1182C20.4478 10.1182 20.0001 9.67037 20 9.11816Z" fill="black"/>
<path d="M15 17.499C15 18.4849 15.3337 19.1727 15.8516 19.7031C16.3674 20.2312 17.1078 20.6402 18.0078 20.9667C18.9003 20.6387 19.6362 20.2305 20.1494 19.704C20.6671 19.1729 21 18.485 21 17.4999V14.4667C19.9401 14.3286 18.8394 13.7772 18.001 13.121C17.1656 13.7743 16.0614 14.3277 15 14.4667V17.499ZM23 17.4999C23 19.0137 22.4582 20.2007 21.5811 21.1005C20.7311 21.9723 19.6105 22.5305 18.499 22.9179L18.4912 22.9208C18.172 23.029 17.826 23.0255 17.5088 22.913C17.5045 22.9116 17.5003 22.9106 17.4961 22.9091C17.4929 22.908 17.4895 22.9074 17.4863 22.9062C16.379 22.5215 15.2653 21.9663 14.4199 21.1005C13.5415 20.2009 13 19.013 13 17.499V13.998L13.0078 13.8496C13.0426 13.5068 13.1945 13.1849 13.4404 12.9394L13.5508 12.8398C13.8175 12.6217 14.1525 12.5009 14.5 12.5009C15.1764 12.5009 16.2014 12.052 16.9619 11.3876L16.9854 11.3681C17.2708 11.1339 17.6288 11.0054 17.998 11.0048L18.1367 11.0107C18.4108 11.0341 18.674 11.1282 18.9014 11.2831L19.0127 11.3652L19.0381 11.3876C19.8026 12.056 20.8229 12.4999 21.5 12.4999C21.848 12.4999 22.1833 12.6212 22.4502 12.8398L22.5605 12.9394L22.6602 13.0497C22.8788 13.3166 23 13.6519 23 13.9999V17.4999Z" fill="black"/>
<path d="M10 14C10.5523 14 11 14.4477 11 15C11 15.5523 10.5523 16 10 16H3C2.44772 16 2 15.5523 2 15C2 14.4477 2.44772 14 3 14H10Z" fill="black"/>
<path d="M15.1416 8C15.6939 8 16.1416 8.44772 16.1416 9C16.1416 9.55228 15.6939 10 15.1416 10H3C2.44772 10 2 9.55228 2 9C2 8.44772 2.44772 8 3 8H15.1416Z" fill="black"/>
<path d="M7 21V15C7 14.4477 7.44772 14 8 14C8.55228 14 9 14.4477 9 15V21C9 21.5523 8.55228 22 8 22C7.44772 22 7 21.5523 7 21Z" fill="black"/>
<path d="M7 9V3C7 2.44772 7.44772 2 8 2C8.55228 2 9 2.44772 9 3V9C9 9.55228 8.55228 10 8 10C7.44772 10 7 9.55228 7 9Z" fill="black"/>
</svg>
