<svg width="24" height="24" viewBox="0 0 24 24" fill="none" xmlns="http://www.w3.org/2000/svg">
<path d="M9.29289 3.29297C9.68342 2.90244 10.3164 2.90244 10.707 3.29297C11.0975 3.68349 11.0975 4.31651 10.707 4.70703L8.70696 6.70703C8.31643 7.09756 7.68342 7.09756 7.29289 6.70703C6.90237 6.31651 6.90237 5.68349 7.29289 5.29297L9.29289 3.29297Z" fill="black"/>
<path d="M16 21V19C16 18.4477 16.4477 18 17 18C17.5523 18 18 18.4477 18 19V21C18 21.5523 17.5523 22 17 22C16.4477 22 16 21.5523 16 21Z" fill="black"/>
<path d="M22 11C22.5523 11 23 11.4477 23 12C23 12.5523 22.5523 13 22 13H2C1.44772 13 1 12.5523 1 12C1 11.4477 1.44772 11 2 11H22Z" fill="black"/>
<path d="M6 21V19C6 18.4477 6.44772 18 7 18C7.55228 18 8 18.4477 8 19V21C8 21.5523 7.55228 22 7 22C6.44772 22 6 21.5523 6 21Z" fill="black"/>
<path d="M3 17.0002V5.0002C3 4.98176 3.00093 4.96295 3.00195 4.94454C3.03534 4.34236 3.2418 3.76252 3.59766 3.27559C3.95356 2.78861 4.44316 2.41507 5.00684 2.20039C5.57053 1.98572 6.18472 1.93876 6.77441 2.06563C7.36408 2.19251 7.90457 2.48775 8.33008 2.91524L8.3291 2.91621L9.70703 4.29317C10.0975 4.6837 10.0975 5.31674 9.70703 5.70723C9.31653 6.09762 8.68347 6.09762 8.29297 5.70723L6.91211 4.32637C6.75929 4.17289 6.56525 4.06725 6.35352 4.02168C6.14171 3.97611 5.92121 3.99243 5.71875 4.06954C5.51628 4.14664 5.34073 4.28133 5.21289 4.45625C5.0883 4.6268 5.01469 4.82878 5 5.03926V17.0002C5.00005 17.2653 5.10548 17.5197 5.29297 17.7072C5.4805 17.8947 5.73483 18.0002 6 18.0002H18C18.2652 18.0002 18.5195 17.8947 18.707 17.7072C18.8945 17.5197 18.9999 17.2653 19 17.0002V12.0002C19 11.4479 19.4477 11.0002 20 11.0002C20.5523 11.0002 21 11.4479 21 12.0002V17.0002C20.9999 17.7958 20.6837 18.5587 20.1211 19.1213C19.5585 19.6838 18.7956 20.0002 18 20.0002H6C5.2044 20.0002 4.44151 19.6838 3.87891 19.1213C3.31634 18.5587 3.00005 17.7958 3 17.0002Z" fill="black"/>
</svg>
