<svg width="24" height="24" viewBox="0 0 24 24" fill="none" xmlns="http://www.w3.org/2000/svg">
<path fill-rule="evenodd" clip-rule="evenodd" d="M12 10.9C11.4477 10.9 11 11.3477 11 11.9C11 12.4523 11.4477 12.9 12 12.9C12.5523 12.9 13 12.4523 13 11.9C13 11.3477 12.5523 10.9 12 10.9ZM9 11.9C9 10.2432 10.3431 8.90001 12 8.90001C13.6569 8.90001 15 10.2432 15 11.9C15 13.5569 13.6569 14.9 12 14.9C10.3431 14.9 9 13.5569 9 11.9Z" fill="black"/>
<path fill-rule="evenodd" clip-rule="evenodd" d="M7.03874 2.45917C7.55838 2.64623 7.82798 3.21913 7.64091 3.73877C6.89827 5.80166 7.63287 8.02576 9.46336 9.27383C9.89269 9.56655 10.0263 10.1393 9.77076 10.5918C9.51523 11.0443 8.95575 11.2256 8.48336 11.0091C6.48272 10.0922 4.16647 10.5953 2.76196 12.2477C2.40427 12.6685 1.77318 12.7197 1.35237 12.362C0.931564 12.0043 0.880394 11.3732 1.23808 10.9524C2.5126 9.45297 4.31265 8.62697 6.17637 8.56012C5.27535 6.92025 5.08215 4.94185 5.75913 3.06133C5.9462 2.5417 6.5191 2.2721 7.03874 2.45917Z" fill="black"/>
<path fill-rule="evenodd" clip-rule="evenodd" d="M8.03177 9.60389C8.30578 9.12437 8.91664 8.95778 9.39615 9.23179L10.7962 10.0318C11.2757 10.3058 11.4423 10.9166 11.1683 11.3962C10.8942 11.8757 10.2834 12.0423 9.80388 11.7683L8.40388 10.9683C7.92436 10.6943 7.75776 10.0834 8.03177 9.60389Z" fill="black"/>
<path fill-rule="evenodd" clip-rule="evenodd" d="M16.9613 2.45917C17.4809 2.2721 18.0538 2.5417 18.2409 3.06133C18.9085 4.9158 18.7299 6.86546 17.8607 8.49178C19.7212 8.55175 21.513 9.40906 22.7773 10.9709C23.1248 11.4001 23.0585 12.0298 22.6292 12.3773C22.2 12.7248 21.5703 12.6585 21.2228 12.2293C19.8182 10.4942 17.5276 10.0043 15.5472 10.9945C15.0766 11.2298 14.5042 11.0602 14.2377 10.6065C13.9713 10.1528 14.102 9.57022 14.5367 9.27383C16.3672 8.02576 17.1018 5.80166 16.3591 3.73877C16.1721 3.21913 16.4417 2.64623 16.9613 2.45917Z" fill="black"/>
<path fill-rule="evenodd" clip-rule="evenodd" d="M15.9683 9.60389C16.2423 10.0834 16.0757 10.6943 15.5962 10.9683L14.1962 11.7683C13.7166 12.0423 13.1058 11.8757 12.8318 11.3962C12.5578 10.9166 12.7244 10.3058 13.2039 10.0318L14.6039 9.23179C15.0834 8.95778 15.6942 9.12437 15.9683 9.60389Z" fill="black"/>
<path fill-rule="evenodd" clip-rule="evenodd" d="M12.0199 14.5002C12.5499 14.5108 12.9797 14.9332 12.9993 15.463C13.0815 17.6811 14.7234 19.4842 16.852 19.8116C17.3979 19.8956 17.7723 20.4062 17.6884 20.9521C17.6044 21.4979 17.0938 21.8724 16.5479 21.7884C14.5999 21.4887 12.9388 20.3344 11.9543 18.7182C10.975 20.2626 9.38338 21.3913 7.45204 21.6884C6.90618 21.7724 6.39559 21.3979 6.31161 20.8521C6.22763 20.3062 6.60206 19.7956 7.14793 19.7116C9.25684 19.3872 10.836 17.5929 11.0029 15.4233C11.0436 14.8947 11.4898 14.4897 12.0199 14.5002Z" fill="black"/>
<path fill-rule="evenodd" clip-rule="evenodd" d="M12 12.9C12.5523 12.9 13 13.3477 13 13.9V15.5C13 16.0523 12.5523 16.5 12 16.5C11.4477 16.5 11 16.0523 11 15.5V13.9C11 13.3477 11.4477 12.9 12 12.9Z" fill="black"/>
<path fill-rule="evenodd" clip-rule="evenodd" d="M10.3039 4.41943C11.4334 4.19354 12.5667 4.19354 13.6962 4.41943C14.2377 4.52775 14.5889 5.05457 14.4806 5.59613C14.3723 6.13769 13.8455 6.48891 13.3039 6.3806C12.4334 6.20649 11.5667 6.20649 10.6962 6.3806C10.1546 6.48891 9.62777 6.13769 9.51946 5.59613C9.41114 5.05457 9.76236 4.52775 10.3039 4.41943Z" fill="black"/>
<path fill-rule="evenodd" clip-rule="evenodd" d="M18.8162 12.9514C19.3402 13.126 19.6233 13.6923 19.4487 14.2163C19.1095 15.2338 18.5371 16.2772 17.7071 17.1072C17.3166 17.4977 16.6834 17.4977 16.2929 17.1072C15.9024 16.7166 15.9024 16.0835 16.2929 15.6929C16.8629 15.1229 17.2905 14.3663 17.5513 13.5838C17.726 13.0599 18.2923 12.7767 18.8162 12.9514Z" fill="black"/>
<path fill-rule="evenodd" clip-rule="evenodd" d="M5.18381 12.9514C5.70775 12.7767 6.27407 13.0599 6.44872 13.5838C6.70953 14.3663 7.1371 15.1229 7.70714 15.6929C8.09767 16.0835 8.09767 16.7166 7.70714 17.1072C7.31662 17.4977 6.68345 17.4977 6.29293 17.1072C5.46297 16.2772 4.89054 15.2338 4.55135 14.2163C4.37671 13.6923 4.65987 13.126 5.18381 12.9514Z" fill="black"/>
</svg>
