<svg width="24" height="24" viewBox="0 0 24 24" fill="none" xmlns="http://www.w3.org/2000/svg">
<path fill-rule="evenodd" clip-rule="evenodd" d="M6 4C5.73478 4 5.48043 4.10536 5.29289 4.29289C5.10536 4.48043 5 4.73478 5 5V9C5 9.55228 4.55228 10 4 10C3.44772 10 3 9.55228 3 9V5C3 4.20435 3.31607 3.44129 3.87868 2.87868C4.44129 2.31607 5.20435 2 6 2H18C18.7957 2 19.5587 2.31607 20.1213 2.87868C20.6839 3.44129 21 4.20435 21 5V9C21 9.55228 20.5523 10 20 10C19.4477 10 19 9.55228 19 9V5C19 4.73478 18.8946 4.48043 18.7071 4.29289C18.5196 4.10536 18.2652 4 18 4H6Z" fill="black"/>
<path fill-rule="evenodd" clip-rule="evenodd" d="M8 7C8.55228 7 9 7.44772 9 8V9C9 9.55228 8.55228 10 8 10C7.44772 10 7 9.55228 7 9V8C7 7.44772 7.44772 7 8 7Z" fill="black"/>
<path fill-rule="evenodd" clip-rule="evenodd" d="M12 7C12.5523 7 13 7.44772 13 8V9C13 9.55228 12.5523 10 12 10C11.4477 10 11 9.55228 11 9V8C11 7.44772 11.4477 7 12 7Z" fill="black"/>
<path fill-rule="evenodd" clip-rule="evenodd" d="M16 7C16.5523 7 17 7.44772 17 8V9C17 9.55228 16.5523 10 16 10C15.4477 10 15 9.55228 15 9V8C15 7.44772 15.4477 7 16 7Z" fill="black"/>
<path fill-rule="evenodd" clip-rule="evenodd" d="M4 10C3.44772 10 3 10.4477 3 11V19C3 19.5523 3.44772 20 4 20H20C20.5523 20 21 19.5523 21 19V11C21 10.4477 20.5523 10 20 10H4ZM1 11C1 9.34315 2.34315 8 4 8H20C21.6569 8 23 9.34315 23 11V19C23 20.6569 21.6569 22 20 22H4C2.34315 22 1 20.6569 1 19V11Z" fill="black"/>
<path fill-rule="evenodd" clip-rule="evenodd" d="M8 14C7.44771 14 7 14.4477 7 15C7 15.5523 7.44771 16 8 16C8.55228 16 9 15.5523 9 15C9 14.4477 8.55228 14 8 14ZM5 15C5 13.3431 6.34315 12 8 12C9.65685 12 11 13.3431 11 15C11 16.6569 9.65685 18 8 18C6.34315 18 5 16.6569 5 15Z" fill="black"/>
<path fill-rule="evenodd" clip-rule="evenodd" d="M16 14C15.4477 14 15 14.4477 15 15C15 15.5523 15.4477 16 16 16C16.5523 16 17 15.5523 17 15C17 14.4477 16.5523 14 16 14ZM13 15C13 13.3431 14.3431 12 16 12C17.6569 12 19 13.3431 19 15C19 16.6569 17.6569 18 16 18C14.3431 18 13 16.6569 13 15Z" fill="black"/>
</svg>
