<svg width="24" height="24" viewBox="0 0 24 24" fill="none" xmlns="http://www.w3.org/2000/svg">
<path fill-rule="evenodd" clip-rule="evenodd" d="M10.5021 1.40284C10.9577 1.14033 11.4742 1.00214 12 1.00214C12.5258 1.00214 13.0423 1.14033 13.4979 1.40284L13.5 1.40406L20.4961 5.40184L20.5 5.40406C20.9556 5.6671 21.334 6.04533 21.5973 6.5008C21.8606 6.95627 21.9995 7.47297 22 7.99906V16.0011C21.9995 16.5272 21.8606 17.0439 21.5973 17.4994C21.334 17.9548 20.9556 18.3331 20.5 18.5961L20.4961 18.5983L13.5 22.5961L13.4981 22.5972C13.0425 22.8598 12.5259 22.998 12 22.998C11.4741 22.998 10.9575 22.8598 10.5019 22.5972L10.5 22.5961L3.50386 18.5983L3.5 18.5961C3.04439 18.3331 2.66597 17.9548 2.40269 17.4994C2.13941 17.0439 2.00054 16.5272 2 16.0011V7.99906C2.00054 7.47297 2.13941 6.95627 2.40269 6.5008C2.66597 6.04533 3.04439 5.6671 3.5 5.40406L3.50386 5.40184L10.5021 1.40284ZM12 3.00214C11.8245 3.00214 11.652 3.04834 11.5 3.13611L11.4961 3.13833L4.49841 7.13703C4.34725 7.22467 4.22168 7.3504 4.13423 7.50169C4.04654 7.65339 4.00025 7.82547 4 8.00068V15.9995C4.00025 16.1747 4.04654 16.3468 4.13423 16.4985C4.22167 16.6497 4.34721 16.7755 4.49834 16.8631L4.5 16.8641L11.4961 20.8618L11.5 20.8641C11.652 20.9518 11.8245 20.998 12 20.998C12.1755 20.998 12.348 20.9518 12.5 20.8641L12.5039 20.8618L19.5 16.8641L19.5016 16.8631C19.6528 16.7755 19.7783 16.6498 19.8658 16.4985C19.9535 16.3467 19.9998 16.1744 20 15.9991V8.00111C19.9998 7.82575 19.9535 7.65352 19.8658 7.50169C19.7783 7.35039 19.6527 7.22466 19.5016 7.13701L19.5 7.13611L12.5039 3.13833L12.5 3.13611C12.348 3.04834 12.1755 3.00214 12 3.00214Z" fill="black"/>
<path fill-rule="evenodd" clip-rule="evenodd" d="M2.433 6.50176C2.70819 6.02292 3.31946 5.85783 3.7983 6.13303L12 10.8467L20.2017 6.13303C20.6806 5.85783 21.2918 6.02292 21.567 6.50176C21.8422 6.98059 21.6771 7.59186 21.1983 7.86705L12.4983 12.8671C12.1898 13.0444 11.8103 13.0444 11.5017 12.8671L2.80173 7.86705C2.32289 7.59186 2.1578 6.98059 2.433 6.50176Z" fill="black"/>
<path fill-rule="evenodd" clip-rule="evenodd" d="M12 11C12.5523 11 13 11.4477 13 12V22C13 22.5523 12.5523 23 12 23C11.4477 23 11 22.5523 11 22V12C11 11.4477 11.4477 11 12 11Z" fill="black"/>
</svg>
