<svg width="24" height="24" viewBox="0 0 24 24" fill="none" xmlns="http://www.w3.org/2000/svg">
<path d="M12.8657 20.5C13.1419 20.0218 13.7537 19.8578 14.2319 20.1338C14.7102 20.4099 14.8743 21.0217 14.5982 21.5C14.3349 21.9558 13.9563 22.3344 13.5005 22.5976C13.0446 22.8608 12.5269 22.9999 12.0005 23C11.474 23 10.9565 22.8609 10.5005 22.5976C10.0445 22.3344 9.66519 21.956 9.40187 21.5C9.1258 21.0217 9.28984 20.4099 9.76808 20.1338C10.2463 19.8577 10.8581 20.0217 11.1343 20.5C11.2221 20.6519 11.3485 20.7785 11.5005 20.8662C11.6524 20.9538 11.8251 21 12.0005 21C12.1759 20.9999 12.3486 20.9539 12.5005 20.8662C12.6524 20.7785 12.778 20.6518 12.8657 20.5Z" fill="black"/>
<path d="M21 6.99998C21.5523 6.99998 22 7.44769 22 7.99998C22 8.55226 21.5523 8.99998 21 8.99998H15C14.4477 8.99998 14 8.55226 14 7.99998C14 7.44769 14.4477 6.99998 15 6.99998H21Z" fill="black"/>
<path d="M17 11V4.99998C17 4.44769 17.4477 3.99998 18 3.99998C18.5523 3.99998 19 4.44769 19 4.99998V11C19 11.5523 18.5523 12 18 12C17.4477 12 17 11.5523 17 11Z" fill="black"/>
<path d="M4.99964 7.99968C4.9998 6.79922 5.30916 5.61858 5.8971 4.57195C6.485 3.52551 7.33212 2.64775 8.35706 2.02312C9.38213 1.39847 10.551 1.04831 11.7506 1.00554C12.9504 0.962832 14.1416 1.22874 15.2086 1.77898C15.6994 2.03215 15.8914 2.63582 15.6383 3.12663C15.385 3.61716 14.7823 3.80937 14.2916 3.55632C13.5295 3.16336 12.6788 2.97308 11.8219 3.00359C10.965 3.03413 10.1303 3.28494 9.39807 3.73113C8.66591 4.17732 8.06021 4.80391 7.64026 5.55144C7.22035 6.29895 6.9998 7.1423 6.99964 7.99968C6.99964 10.3537 6.63076 11.9977 6.03284 13.2634C5.44276 14.5123 4.66016 15.3199 4.00061 15.9997H19.9996C19.7152 15.7047 19.4489 15.3927 19.2028 15.0651C18.8711 14.6237 18.9597 13.9965 19.401 13.6647C19.8425 13.333 20.4696 13.4216 20.8014 13.863C20.9532 14.0651 21.1146 14.2602 21.2848 14.4469L21.4576 14.6305L21.4801 14.654C21.7408 14.9406 21.9121 15.297 21.9742 15.6794C22.0363 16.062 21.9865 16.4548 21.8297 16.8092C21.6729 17.1637 21.4163 17.465 21.0914 17.6764C20.7666 17.8878 20.3872 17.9998 19.9996 17.9997H3.99964C3.61239 17.9997 3.23341 17.8876 2.90882 17.6764C2.58402 17.465 2.32733 17.1636 2.17053 16.8092C2.01375 16.4548 1.96293 16.062 2.02503 15.6794C2.08713 15.2969 2.25937 14.9406 2.52014 14.654L2.5426 14.6305C3.20823 13.9444 3.78372 13.3413 4.22425 12.4089C4.66371 11.4786 4.99964 10.1444 4.99964 7.99968Z" fill="black"/>
</svg>
