<svg width="24" height="24" viewBox="0 0 24 24" fill="none" xmlns="http://www.w3.org/2000/svg">
<path fill-rule="evenodd" clip-rule="evenodd" d="M11.6173 1.07615C11.991 0.921369 12.4211 1.00692 12.7071 1.29292L17.7071 6.29292C18.0976 6.68345 18.0976 7.31661 17.7071 7.70714L13.4142 12L17.7071 16.2929C18.0976 16.6834 18.0976 17.3166 17.7071 17.7071L12.7071 22.7071C12.4211 22.9931 11.991 23.0787 11.6173 22.9239C11.2436 22.7691 11 22.4045 11 22V14.4142L7.70711 17.7071C7.31658 18.0977 6.68342 18.0977 6.29289 17.7071C5.90237 17.3166 5.90237 16.6834 6.29289 16.2929L10.5858 12L6.29289 7.70714C5.90237 7.31661 5.90237 6.68345 6.29289 6.29292C6.68342 5.9024 7.31658 5.9024 7.70711 6.29292L11 9.58582V2.00003C11 1.59557 11.2436 1.23093 11.6173 1.07615ZM13 14.4142L15.5858 17L13 19.5858V14.4142ZM13 9.58582V4.41424L15.5858 7.00003L13 9.58582Z" fill="black"/>
<path fill-rule="evenodd" clip-rule="evenodd" d="M20.1225 8.46329C20.5128 8.07255 21.146 8.07219 21.5367 8.4625C22.0016 8.92687 22.3704 9.47831 22.622 10.0853C22.8736 10.6923 23.0031 11.3429 23.0031 12C23.0031 12.6571 22.8736 13.3077 22.622 13.9147C22.3704 14.5217 22.0016 15.0731 21.5367 15.5375C21.146 15.9278 20.5128 15.9275 20.1225 15.5367C19.7322 15.146 19.7325 14.5128 20.1233 14.1225C20.4022 13.8439 20.6235 13.513 20.7745 13.1488C20.9254 12.7846 21.0031 12.3942 21.0031 12C21.0031 11.6058 20.9254 11.2154 20.7745 10.8512C20.6235 10.487 20.4022 10.1561 20.1233 9.8775C19.7325 9.48719 19.7322 8.85403 20.1225 8.46329Z" fill="black"/>
<path fill-rule="evenodd" clip-rule="evenodd" d="M17 12C17 11.4477 17.4477 11 18 11H18.01C18.5623 11 19.01 11.4477 19.01 12C19.01 12.5523 18.5623 13 18.01 13H18C17.4477 13 17 12.5523 17 12Z" fill="black"/>
</svg>
