<svg width="24" height="24" viewBox="0 0 24 24" fill="none" xmlns="http://www.w3.org/2000/svg">
<path fill-rule="evenodd" clip-rule="evenodd" d="M11 5.00003C6.58172 5.00003 3 8.58175 3 13C3 17.4183 6.58172 21 11 21C15.4183 21 19 17.4183 19 13C19 8.58175 15.4183 5.00003 11 5.00003ZM1 13C1 7.47718 5.47715 3.00003 11 3.00003C16.5228 3.00003 21 7.47718 21 13C21 18.5229 16.5228 23 11 23C5.47715 23 1 18.5229 1 13Z" fill="black"/>
<path fill-rule="evenodd" clip-rule="evenodd" d="M17.0062 3.40804C17.0059 3.40829 17.0057 3.40855 17.0054 3.4088L15.0571 5.35709C14.6666 5.74762 14.0334 5.74762 13.6429 5.35709C13.2524 4.96657 13.2524 4.3334 13.6429 3.94288L15.5929 1.99288L15.5946 1.99117C16.2336 1.35524 17.0985 0.99823 18 0.99823C18.9015 0.99823 19.7664 1.35524 20.4054 1.99117L20.4071 1.99288L22.0059 3.59165C22.0061 3.59189 22.0064 3.59213 22.0066 3.59237C22.3232 3.90809 22.5745 4.28317 22.746 4.69614C22.9176 5.10941 23.0059 5.5525 23.0059 5.99999C23.0059 6.44747 22.9176 6.89056 22.746 7.30384C22.5745 7.71687 22.3232 8.092 22.0065 8.40775C22.0063 8.40794 22.0066 8.40756 22.0065 8.40775L20.0571 10.3571C19.6666 10.7476 19.0334 10.7476 18.6429 10.3571C18.2524 9.96657 18.2524 9.3334 18.6429 8.94288L20.5941 6.99165C20.7246 6.86159 20.8282 6.70704 20.8989 6.53687C20.9695 6.36669 21.0059 6.18425 21.0059 5.99999C21.0059 5.81572 20.9695 5.63328 20.8989 5.46311C20.8282 5.29293 20.7246 5.13838 20.5941 5.00832L18.9946 3.4088C18.9944 3.40855 18.9941 3.40831 18.9939 3.40806C18.7297 3.14557 18.3724 2.99823 18 2.99823C17.6276 2.99823 17.2703 3.14556 17.0062 3.40804Z" fill="black"/>
<path fill-rule="evenodd" clip-rule="evenodd" d="M22.7071 1.29292C23.0976 1.68344 23.0976 2.31661 22.7071 2.70713L21.2071 4.20713C20.8166 4.59766 20.1834 4.59766 19.7929 4.20713C19.4024 3.81661 19.4024 3.18344 19.7929 2.79292L21.2929 1.29292C21.6834 0.902396 22.3166 0.902396 22.7071 1.29292Z" fill="black"/>
</svg>
