<svg width="24" height="24" viewBox="0 0 24 24" fill="none" xmlns="http://www.w3.org/2000/svg">
<path d="M9 14V10C9 9.44772 9.44771 9 10 9C10.5523 9 11 9.44772 11 10V14C11 14.5523 10.5523 15 10 15C9.44771 15 9 14.5523 9 14Z" fill="black"/>
<path d="M13 14V10C13 9.44772 13.4477 9 14 9C14.5523 9 15 9.44772 15 10V14C15 14.5523 14.5523 15 14 15C13.4477 15 13 14.5523 13 14Z" fill="black"/>
<path d="M21 14V10C21 9.44772 21.4477 9 22 9C22.5523 9 23 9.44772 23 10V14C23 14.5523 22.5523 15 22 15C21.4477 15 21 14.5523 21 14Z" fill="black"/>
<path d="M5 14V10C5 9.44772 5.44772 9 6 9C6.55228 9 7 9.44772 7 10V14C7 14.5523 6.55228 15 6 15C5.44772 15 5 14.5523 5 14Z" fill="black"/>
<path d="M17 8C17 7.44772 16.5523 7 16 7H4C3.44772 7 3 7.44772 3 8V16C3 16.5523 3.44772 17 4 17H16C16.5523 17 17 16.5523 17 16V8ZM19 16C19 17.6569 17.6569 19 16 19H4C2.34315 19 1 17.6569 1 16V8C1 6.34315 2.34315 5 4 5H16C17.6569 5 19 6.34315 19 8V16Z" fill="black"/>
</svg>
