<svg width="24" height="24" viewBox="0 0 24 24" fill="none" xmlns="http://www.w3.org/2000/svg">
<path fill-rule="evenodd" clip-rule="evenodd" d="M4.8944 5.55277C5.14139 6.04675 4.94117 6.64742 4.44719 6.89441L2.44719 7.89441C1.95321 8.1414 1.35254 7.94118 1.10555 7.4472C0.858558 6.95322 1.05878 6.35255 1.55276 6.10556L3.55276 5.10556C4.04674 4.85857 4.64741 5.05879 4.8944 5.55277Z" fill="black"/>
<path fill-rule="evenodd" clip-rule="evenodd" d="M8.99999 6C8.99999 5.44772 9.44771 5 9.99999 5H14C14.5523 5 15 5.44772 15 6C15 6.55228 14.5523 7 14 7H9.99999C9.44771 7 8.99999 6.55228 8.99999 6Z" fill="black"/>
<path fill-rule="evenodd" clip-rule="evenodd" d="M19.1055 5.55277C19.3525 5.05879 19.9532 4.85857 20.4472 5.10556L22.4472 6.10556C22.9412 6.35255 23.1414 6.95322 22.8944 7.4472C22.6474 7.94118 22.0467 8.1414 21.5528 7.89441L19.5528 6.89441C19.0588 6.64742 18.8586 6.04675 19.1055 5.55277Z" fill="black"/>
<path fill-rule="evenodd" clip-rule="evenodd" d="M5.99999 4C5.44771 4 4.99999 4.44772 4.99999 5V17C4.99999 17.5523 5.44771 18 5.99999 18H18C18.5523 18 19 17.5523 19 17V5C19 4.44772 18.5523 4 18 4H5.99999ZM2.99999 5C2.99999 3.34315 4.34314 2 5.99999 2H18C19.6568 2 21 3.34315 21 5V17C21 18.6569 19.6568 20 18 20H5.99999C4.34314 20 2.99999 18.6569 2.99999 17V5Z" fill="black"/>
<path fill-rule="evenodd" clip-rule="evenodd" d="M2.99999 11C2.99999 10.4477 3.44771 10 3.99999 10H20C20.5523 10 21 10.4477 21 11C21 11.5523 20.5523 12 20 12H3.99999C3.44771 12 2.99999 11.5523 2.99999 11Z" fill="black"/>
<path fill-rule="evenodd" clip-rule="evenodd" d="M6.99999 15C6.99999 14.4477 7.44771 14 7.99999 14H8.00999C8.56227 14 9.00999 14.4477 9.00999 15C9.00999 15.5523 8.56227 16 8.00999 16H7.99999C7.44771 16 6.99999 15.5523 6.99999 15Z" fill="black"/>
<path fill-rule="evenodd" clip-rule="evenodd" d="M15 15C15 14.4477 15.4477 14 16 14H16.01C16.5623 14 17.01 14.4477 17.01 15C17.01 15.5523 16.5623 16 16.01 16H16C15.4477 16 15 15.5523 15 15Z" fill="black"/>
<path fill-rule="evenodd" clip-rule="evenodd" d="M5.99999 18C6.55227 18 6.99999 18.4477 6.99999 19V21C6.99999 21.5523 6.55227 22 5.99999 22C5.44771 22 4.99999 21.5523 4.99999 21V19C4.99999 18.4477 5.44771 18 5.99999 18Z" fill="black"/>
<path fill-rule="evenodd" clip-rule="evenodd" d="M18 18C18.5523 18 19 18.4477 19 19V21C19 21.5523 18.5523 22 18 22C17.4477 22 17 21.5523 17 21V19C17 18.4477 17.4477 18 18 18Z" fill="black"/>
</svg>
