<svg width="24" height="24" viewBox="0 0 24 24" fill="none" xmlns="http://www.w3.org/2000/svg">
<path fill-rule="evenodd" clip-rule="evenodd" d="M3.5 3C3.5 2.44772 3.94772 2 4.5 2H19.5C20.0523 2 20.5 2.44772 20.5 3C20.5 3.55228 20.0523 4 19.5 4H4.5C3.94772 4 3.5 3.55228 3.5 3Z" fill="black"/>
<path fill-rule="evenodd" clip-rule="evenodd" d="M6 2C6.55228 2 7 2.44772 7 3V19C7 19.2652 7.10536 19.5196 7.29289 19.7071C7.48043 19.8946 7.73478 20 8 20H16C16.2652 20 16.5196 19.8946 16.7071 19.7071C16.8946 19.5196 17 19.2652 17 19V3C17 2.44772 17.4477 2 18 2C18.5523 2 19 2.44772 19 3V19C19 19.7957 18.6839 20.5587 18.1213 21.1213C17.5587 21.6839 16.7957 22 16 22H8C7.20435 22 6.44129 21.6839 5.87868 21.1213C5.31607 20.5587 5 19.7956 5 19V3C5 2.44772 5.44772 2 6 2Z" fill="black"/>
<path fill-rule="evenodd" clip-rule="evenodd" d="M5 14C5 13.4477 5.44772 13 6 13H18C18.5523 13 19 13.4477 19 14C19 14.5523 18.5523 15 18 15H6C5.44772 15 5 14.5523 5 14Z" fill="black"/>
</svg>
