<svg width="24" height="24" viewBox="0 0 24 24" fill="none" xmlns="http://www.w3.org/2000/svg">
<path d="M21 13V8C21 7.73478 20.8946 7.48051 20.707 7.29297C20.5195 7.10543 20.2652 7 20 7H4C3.73478 7 3.4805 7.10543 3.29297 7.29297C3.10543 7.4805 3 7.73478 3 8V16C3 16.2652 3.10543 16.5195 3.29297 16.707C3.48051 16.8946 3.73478 17 4 17H12C12.5523 17 13 17.4477 13 18C13 18.5523 12.5523 19 12 19H4C3.20435 19 2.44151 18.6837 1.87891 18.1211C1.3163 17.5585 1 16.7956 1 16V8C1 7.20435 1.3163 6.44152 1.87891 5.87891C2.44152 5.3163 3.20435 5 4 5H20C20.7957 5 21.5585 5.3163 22.1211 5.87891C22.6837 6.44152 23 7.20435 23 8V13C23 13.5523 22.5523 14 22 14C21.4477 14 21 13.5523 21 13Z" fill="black"/>
<path d="M21.293 18.293C21.6835 17.9024 22.3165 17.9024 22.707 18.293C23.0976 18.6835 23.0976 19.3165 22.707 19.707L19.707 22.707C19.3165 23.0976 18.6835 23.0976 18.293 22.707L15.293 19.707C14.9024 19.3165 14.9024 18.6835 15.293 18.293C15.6835 17.9024 16.3165 17.9024 16.707 18.293L19 20.5859L21.293 18.293Z" fill="black"/>
<path d="M18.0098 11C18.562 11 19.0098 11.4477 19.0098 12C19.0098 12.5523 18.562 13 18.0098 13H18C17.4477 13 17 12.5523 17 12C17 11.4477 17.4477 11 18 11H18.0098Z" fill="black"/>
<path d="M18 22V16C18 15.4477 18.4477 15 19 15C19.5523 15 20 15.4477 20 16V22C20 22.5523 19.5523 23 19 23C18.4477 23 18 22.5523 18 22Z" fill="black"/>
<path d="M6.00977 11C6.56205 11 7.00977 11.4477 7.00977 12C7.00977 12.5523 6.56205 13 6.00977 13H6C5.44772 13 5 12.5523 5 12C5 11.4477 5.44772 11 6 11H6.00977Z" fill="black"/>
<path d="M13 12C13 11.4477 12.5523 11 12 11C11.4477 11 11 11.4477 11 12C11 12.5523 11.4477 13 12 13C12.5523 13 13 12.5523 13 12ZM15 12C15 13.6569 13.6569 15 12 15C10.3431 15 9 13.6569 9 12C9 10.3431 10.3431 9 12 9C13.6569 9 15 10.3431 15 12Z" fill="black"/>
</svg>
