<svg width="24" height="24" viewBox="0 0 24 24" fill="none" xmlns="http://www.w3.org/2000/svg">
<path d="M2 19.5C2 18.5717 2.36901 17.6818 3.02539 17.0254C3.68177 16.369 4.57174 16 5.5 16H10.001C10.5533 16 11.001 16.4477 11.001 17C11.001 17.5523 10.5533 18 10.001 18H5.5C5.10218 18 4.72076 18.1581 4.43945 18.4395C4.15815 18.7208 4 19.1022 4 19.5C4 19.8978 4.15815 20.2792 4.43945 20.5605C4.72076 20.8419 5.10218 21 5.5 21H11C11.5523 21 12 21.4477 12 22C12 22.5523 11.5523 23 11 23H5.5C4.57174 23 3.68177 22.631 3.02539 21.9746C2.36901 21.3182 2 20.4283 2 19.5Z" fill="black"/>
<path d="M18.414 19.415C18.8044 19.0245 19.4375 19.0246 19.828 19.415L21.7069 21.2929C22.0975 21.6833 22.0973 22.3164 21.7069 22.707C21.3165 23.0974 20.6834 23.0973 20.2929 22.707L18.414 20.829C18.0235 20.4386 18.0236 19.8055 18.414 19.415Z" fill="black"/>
<path d="M18 11V3H5.5C5.10218 3 4.72076 3.15815 4.43945 3.43945C4.15815 3.72076 4 4.10218 4 4.5V19.5C4 20.0523 3.55228 20.5 3 20.5C2.44772 20.5 2 20.0523 2 19.5V4.5C2 3.57174 2.36901 2.68177 3.02539 2.02539C3.68177 1.36901 4.57174 1 5.5 1H18C18.5304 1 19.039 1.21086 19.4141 1.58594C19.7891 1.96101 20 2.46957 20 3V11C20 11.5523 19.5523 12 19 12C18.4477 12 18 11.5523 18 11Z" fill="black"/>
<path d="M19 18C19 16.8954 18.1046 16 17 16C15.8954 16 15 16.8954 15 18C15 19.1046 15.8954 20 17 20C18.1046 20 19 19.1046 19 18ZM21 18C21 20.2091 19.2091 22 17 22C14.7909 22 13 20.2091 13 18C13 15.7909 14.7909 14 17 14C19.2091 14 21 15.7909 21 18Z" fill="black"/>
</svg>
