<svg width="24" height="24" viewBox="0 0 24 24" fill="none" xmlns="http://www.w3.org/2000/svg">
<path d="M10.2929 9.29292C10.6834 8.9024 11.3164 8.9024 11.707 9.29292L14.707 12.2929C15.0975 12.6834 15.0975 13.3165 14.707 13.707C14.3164 14.0975 13.6834 14.0975 13.2929 13.707L10.2929 10.707C9.90237 10.3165 9.90237 9.68345 10.2929 9.29292Z" fill="black"/>
<path d="M4.77751 13.3427C5.59978 13.0022 6.50518 12.9133 7.3781 13.0869C8.25091 13.2606 9.05253 13.6891 9.68181 14.3183C10.3111 14.9476 10.7396 15.7492 10.9133 16.622C11.0869 17.4949 10.9979 18.3995 10.6574 19.2217C10.3168 20.0438 9.74007 20.7467 9.00017 21.2412C8.26019 21.7356 7.39013 21.9999 6.50017 22H3.00017C2.60466 22.0004 2.21794 21.8834 1.88884 21.664C1.55928 21.4443 1.30223 21.1315 1.15056 20.7656C0.998965 20.3998 0.959825 19.9967 1.03728 19.6084C1.11266 19.2309 1.29595 18.8843 1.56364 18.6084C1.84491 18.3081 2.00028 17.9114 2.00017 17.5C2.00017 16.6101 2.26361 15.7399 2.75798 15C3.25236 14.2601 3.95543 13.6834 4.77751 13.3427ZM3.99626 17.6719C3.95571 18.5292 3.61105 19.3464 3.02165 19.9756C3.01394 19.9838 3.0062 19.992 2.99821 20H6.50017C6.99446 19.9999 7.47782 19.8536 7.88884 19.5791C8.29988 19.3044 8.6205 18.9137 8.80974 18.457C8.99889 18.0003 9.04865 17.4975 8.95231 17.0127C8.85586 16.5278 8.61733 16.082 8.26774 15.7324C7.91811 15.3828 7.47242 15.1443 6.98747 15.0478C6.50261 14.9514 5.99986 15.0012 5.54314 15.1904C5.0864 15.3796 4.69573 15.7002 4.42106 16.1113C4.14649 16.5224 4.00017 17.0056 4.00017 17.5L3.99626 17.6719Z" fill="black"/>
<path d="M21.0002 4.12329C21.0002 3.82563 20.8815 3.53988 20.6711 3.32935C20.4606 3.11883 20.1748 3.00029 19.8771 3.00024C19.5794 3.00024 19.2937 3.11879 19.0832 3.32935L7.674 14.7385C7.28354 15.1287 6.65039 15.1287 6.25993 14.7385C5.86941 14.348 5.86941 13.714 6.25993 13.3235L17.6691 1.91528C18.2547 1.32966 19.0489 1.00024 19.8771 1.00024C20.7053 1.00029 21.4995 1.32969 22.0851 1.91528C22.6706 2.50089 23.0002 3.2952 23.0002 4.12329C23.0001 4.95138 22.6707 5.74575 22.0851 6.3313L10.676 17.7385C10.2854 18.1288 9.6523 18.128 9.26189 17.7375C8.87159 17.347 8.87139 16.7139 9.26189 16.3235L20.6711 4.91724C20.8815 4.70676 21.0001 4.42095 21.0002 4.12329Z" fill="black"/>
</svg>
