<svg width="24" height="24" viewBox="0 0 24 24" fill="none" xmlns="http://www.w3.org/2000/svg">
<path fill-rule="evenodd" clip-rule="evenodd" d="M10.7797 1.65226C11.3236 1.74817 11.6867 2.26684 11.5908 2.81073L11.4171 3.79607L13.3872 4.14348L13.5613 3.15811C13.6573 2.61425 14.1761 2.25124 14.72 2.34732C15.2638 2.44339 15.6268 2.96216 15.5308 3.50603L15.3422 4.57371C16.3364 4.93394 17.1009 5.54468 17.6122 6.31398C18.2688 7.30202 18.462 8.48285 18.2697 9.57359C18.0774 10.6643 17.492 11.7079 16.5371 12.4117C16.3765 12.5301 16.2073 12.6374 16.0301 12.733C16.1636 12.8832 16.2855 13.0417 16.3957 13.2076C17.0521 14.1956 17.2452 15.3764 17.0528 16.4672C16.8604 17.5579 16.275 18.6014 15.3201 19.3052C14.5769 19.853 13.6502 20.1655 12.5935 20.1644L12.4059 21.2321C12.3104 21.776 11.792 22.1395 11.248 22.044C10.7041 21.9485 10.3405 21.43 10.4361 20.8861L10.6092 19.9003L8.63853 19.5526L8.46481 20.5377C8.3689 21.0816 7.85024 21.4448 7.30635 21.3489C6.76245 21.253 6.39929 20.7343 6.4952 20.1904L6.66893 19.2052L5.68629 19.0319C5.1424 18.9359 4.77927 18.4172 4.87521 17.8734C4.97115 17.3295 5.48984 16.9663 6.03373 17.0623L7.01626 17.2356L9.10012 5.41835L8.11635 5.24487C7.57245 5.14896 7.20929 4.6303 7.3052 4.08641C7.40111 3.54251 7.91978 3.17935 8.46367 3.27526L9.44745 3.44874L9.6212 2.46341C9.71711 1.91951 10.2358 1.55635 10.7797 1.65226ZM11.0697 5.76568L10.2015 10.6895L13.1575 11.2102L13.1578 11.2103C14.1444 11.3844 14.861 11.1625 15.3504 10.8017C15.8545 10.4302 16.1885 9.85894 16.3001 9.2263C16.4116 8.59366 16.2931 7.94256 15.9465 7.421C15.6117 6.91727 15.0187 6.46571 14.0414 6.28973C14.0356 6.28881 14.0298 6.28784 14.0241 6.28682C14.018 6.28575 14.0119 6.28461 14.0058 6.28343L11.0697 5.76568ZM9.85413 12.6592L8.98585 17.583L11.9406 18.1043C12.9272 18.2782 13.6439 18.0562 14.1334 17.6953C14.6375 17.3237 14.9716 16.7524 15.0832 16.1197C15.1948 15.4871 15.0764 14.8359 14.7298 14.3143C14.3933 13.8078 13.7958 13.354 12.8092 13.1798C12.8031 13.1788 12.7971 13.1777 12.791 13.1765L9.85413 12.6592Z" fill="black"/>
</svg>
