<svg width="24" height="24" viewBox="0 0 24 24" fill="none" xmlns="http://www.w3.org/2000/svg">
<path d="M13.793 6.79295C14.1835 6.40243 14.8166 6.40243 15.2071 6.79295C15.5976 7.18348 15.5976 7.81649 15.2071 8.20702L10.2071 13.207C9.81655 13.5975 9.18354 13.5975 8.79302 13.207C8.40249 12.8165 8.40249 12.1835 8.79302 11.793L13.793 6.79295Z" fill="black"/>
<path d="M12 17.0264C12.5219 17.0264 13.0351 17.163 13.4883 17.4219L18 20V5C18 4.73478 17.8946 4.48051 17.707 4.29297C17.5195 4.10543 17.2652 4 17 4H7C6.73478 4 6.4805 4.10543 6.29297 4.29297C6.10543 4.4805 6 4.73478 6 5V20L10.5117 17.4219C10.9649 17.163 11.4781 17.0264 12 17.0264ZM20 20C19.9999 20.3502 19.9082 20.6946 19.7334 20.998C19.5586 21.3015 19.3068 21.5537 19.0039 21.7295C18.701 21.9052 18.357 21.9988 18.0068 22C17.6566 22.0012 17.3119 21.91 17.0078 21.7363L12.4961 19.1582C12.345 19.0719 12.174 19.0264 12 19.0264C11.826 19.0264 11.655 19.0719 11.5039 19.1582L6.99219 21.7363C6.68807 21.91 6.3434 22.0012 5.99316 22C5.64295 21.9988 5.29901 21.9052 4.99609 21.7295C4.69324 21.5537 4.44141 21.3015 4.2666 20.998C4.11362 20.7324 4.02393 20.4356 4.00391 20.1309L4 20V5C4 4.20435 4.3163 3.44152 4.87891 2.87891C5.44152 2.3163 6.20435 2 7 2H17C17.7956 2 18.5585 2.3163 19.1211 2.87891C19.6837 3.44151 20 4.20435 20 5V20Z" fill="black"/>
<path d="M8.79302 6.79295C9.18354 6.40243 9.81655 6.40243 10.2071 6.79295L15.2071 11.793C15.5976 12.1835 15.5976 12.8165 15.2071 13.207C14.8166 13.5975 14.1835 13.5975 13.793 13.207L8.79302 8.20702C8.40249 7.81649 8.40249 7.18348 8.79302 6.79295Z" fill="black"/>
</svg>
