<svg width="24" height="24" viewBox="0 0 24 24" fill="none" xmlns="http://www.w3.org/2000/svg">
<path fill-rule="evenodd" clip-rule="evenodd" d="M9 10.01C9 9.45772 9.44772 9.01 10 9.01H10.01C10.5623 9.01 11.01 9.45772 11.01 10.01C11.01 10.5623 10.5623 11.01 10.01 11.01H10C9.44772 11.01 9 10.5623 9 10.01Z" fill="black"/>
<path fill-rule="evenodd" clip-rule="evenodd" d="M9 14.01C9 13.4577 9.44772 13.01 10 13.01H10.01C10.5623 13.01 11.01 13.4577 11.01 14.01C11.01 14.5623 10.5623 15.01 10.01 15.01H10C9.44772 15.01 9 14.5623 9 14.01Z" fill="black"/>
<path fill-rule="evenodd" clip-rule="evenodd" d="M13 10.01C13 9.45772 13.4477 9.01 14 9.01H14.01C14.5623 9.01 15.01 9.45772 15.01 10.01C15.01 10.5623 14.5623 11.01 14.01 11.01H14C13.4477 11.01 13 10.5623 13 10.01Z" fill="black"/>
<path fill-rule="evenodd" clip-rule="evenodd" d="M13 14.01C13 13.4577 13.4477 13.01 14 13.01H14.01C14.5623 13.01 15.01 13.4577 15.01 14.01C15.01 14.5623 14.5623 15.01 14.01 15.01H14C13.4477 15.01 13 14.5623 13 14.01Z" fill="black"/>
<path fill-rule="evenodd" clip-rule="evenodd" d="M18 5C18.5523 5 19 5.44772 19 6V17.5C19 18.0523 18.5523 18.5 18 18.5C17.4477 18.5 17 18.0523 17 17.5V6C17 5.44772 17.4477 5 18 5Z" fill="black"/>
<path fill-rule="evenodd" clip-rule="evenodd" d="M6 5C6.55228 5 7 5.44772 7 6V18C7 18.5523 6.55228 19 6 19C5.44772 19 5 18.5523 5 18V6C5 5.44772 5.44772 5 6 5Z" fill="black"/>
<path fill-rule="evenodd" clip-rule="evenodd" d="M4 7C3.44772 7 3 7.44772 3 8V16C3 16.5523 3.44772 17 4 17H20C20.5523 17 21 16.5523 21 16V8C21 7.44772 20.5523 7 20 7H4ZM1 8C1 6.34315 2.34315 5 4 5H20C21.6569 5 23 6.34315 23 8V16C23 17.6569 21.6569 19 20 19H4C2.34315 19 1 17.6569 1 16V8Z" fill="black"/>
</svg>
