<svg width="24" height="24" viewBox="0 0 24 24" fill="none" xmlns="http://www.w3.org/2000/svg">
<path d="M5 14V11C5 9.67392 5.52716 8.40253 6.46484 7.46484C7.40253 6.52716 8.67392 6 10 6H14L14.2471 6.00586C15.4768 6.06662 16.6445 6.57977 17.5225 7.45117C18.459 8.38075 18.9901 9.64335 19 10.9629C19.0039 11.5149 18.5598 11.9654 18.0078 11.9697C17.4556 11.9739 17.0042 11.5298 17 10.9775C16.9941 10.1858 16.6752 9.42883 16.1133 8.87109C15.5513 8.31334 14.7918 7.99998 14 8H10C9.20435 8 8.44151 8.3163 7.87891 8.87891C7.3163 9.44151 7 10.2044 7 11V14L7.01465 14.3857C7.08438 15.2828 7.39561 16.1473 7.91797 16.8857C8.51483 17.7295 9.35863 18.3673 10.333 18.7119C10.8537 18.896 11.1265 19.4676 10.9424 19.9883C10.7583 20.5088 10.1876 20.7816 9.66699 20.5977C8.30257 20.1153 7.12088 19.2215 6.28516 18.04C5.50185 16.9325 5.05768 15.6231 5.00488 14.2715L5 14Z" fill="black"/>
<path d="M20 17.999L15.0029 15.0019L15 15V21L15.0029 20.998L20 18.001L20.002 18L20 17.999ZM22.002 18C22.002 18.3463 21.9123 18.6871 21.7412 18.9883C21.5705 19.2887 21.324 19.5386 21.0274 19.7158L21.0283 19.7168L16.0313 22.7139L16.0303 22.7129C15.7271 22.8953 15.3812 22.9951 15.0274 23C14.6724 23.0048 14.3225 22.9152 14.0137 22.7402C13.7048 22.5651 13.4477 22.3101 13.2695 22.0029C13.0916 21.6959 12.9986 21.347 13 20.9922V15.0029C12.9995 14.6491 13.0928 14.3011 13.2705 13.9951C13.4488 13.6883 13.7059 13.4346 14.0147 13.2597C14.3235 13.0849 14.6735 12.995 15.0283 13C15.3819 13.005 15.7273 13.1048 16.0303 13.2871L16.0313 13.2861L21.0264 16.2822L21.1348 16.3515C21.3837 16.5226 21.5914 16.7481 21.7412 17.0117C21.9123 17.3129 22.002 17.6536 22.002 18Z" fill="black"/>
<path d="M15.2929 1.29296C15.6834 0.902451 16.3164 0.90249 16.7069 1.29296C17.0975 1.68348 17.0975 2.31649 16.7069 2.70702L14.827 4.5869C14.4365 4.97742 13.8035 4.97742 13.413 4.5869C13.0225 4.19637 13.0225 3.56334 13.413 3.17284L15.2929 1.29296Z" fill="black"/>
<path d="M21.0008 4C21.553 4.00064 22.0003 4.44877 21.9998 5.00098C21.9984 6.2286 21.5456 7.41298 20.7273 8.32813C19.909 9.24329 18.7822 9.82575 17.5623 9.96387C17.0136 10.0259 16.519 9.63074 16.4568 9.08203C16.3949 8.53342 16.7891 8.03868 17.3377 7.97656C18.0695 7.89366 18.7452 7.54412 19.2361 6.99512C19.7271 6.44606 19.9989 5.73558 19.9998 4.99902C20.0004 4.44686 20.4487 3.99956 21.0008 4Z" fill="black"/>
<path d="M6.7627 16.001C7.31415 15.9749 7.78218 16.4007 7.8086 16.9522C7.83483 17.5038 7.40909 17.9728 6.85742 17.999C6.08677 18.0357 5.36026 18.3681 4.82813 18.9268C4.29598 19.4855 3.99913 20.2275 4 20.999C4.00054 21.5513 3.55321 21.9994 3.00098 22C2.44877 22.0006 2.00063 21.5532 2 21.001C1.99859 19.7151 2.49301 18.478 3.37989 17.5469C4.26678 16.6159 5.47832 16.0621 6.7627 16.001Z" fill="black"/>
<path d="M2.99902 4C3.55123 3.99946 3.99936 4.4468 4 4.99902C4.00089 5.73557 4.27271 6.44606 4.76367 6.99512C5.2546 7.54413 5.93031 7.89362 6.66211 7.97656C7.21072 8.03868 7.60578 8.53345 7.54395 9.08203C7.48181 9.6308 6.98627 10.026 6.4375 9.96387C5.2176 9.82575 4.09081 9.24329 3.27246 8.32813C2.45426 7.41299 2.00141 6.22855 2 5.00098C1.99946 4.44877 2.4468 4.00064 2.99902 4Z" fill="black"/>
<path d="M6 12C6.55228 12 7 12.4477 7 13C7 13.5523 6.55228 14 6 14H2C1.44772 14 1 13.5523 1 13C1 12.4477 1.44772 12 2 12H6Z" fill="black"/>
<path d="M7.29289 1.29295C7.68342 0.90243 8.31643 0.90243 8.70696 1.29295L10.5868 3.17284C10.9774 3.56336 10.9774 4.19638 10.5868 4.5869C10.1963 4.97742 9.5633 4.97742 9.17278 4.5869L7.29289 2.70702C6.90237 2.31649 6.90237 1.68348 7.29289 1.29295Z" fill="black"/>
<path d="M14 7.12988V6C14 5.46957 13.7891 4.96101 13.4141 4.58594C13.039 4.21087 12.5304 4 12 4C11.4696 4 10.961 4.21087 10.5859 4.58594C10.2109 4.96101 10 5.46957 10 6V7.12988C10 7.68217 9.55228 8.12988 9 8.12988C8.44772 8.12988 8 7.68217 8 7.12988V6C8 4.93913 8.42173 3.92202 9.17188 3.17188C9.92202 2.42173 10.9391 2 12 2C13.0609 2 14.078 2.42173 14.8281 3.17188C15.5783 3.92202 16 4.93913 16 6V7.12988C16 7.68217 15.5523 8.12988 15 8.12988C14.4477 8.12988 14 7.68217 14 7.12988Z" fill="black"/>
</svg>
