<svg width="24" height="24" viewBox="0 0 24 24" fill="none" xmlns="http://www.w3.org/2000/svg">
<path d="M10.1425 6.48535C10.4267 6.01188 11.041 5.85846 11.5146 6.14258C11.988 6.42676 12.1415 7.04112 11.8573 7.51465L9.76652 11H11.9999C12.36 11 12.6925 11.1936 12.87 11.5068C13.0475 11.8203 13.0427 12.2057 12.8573 12.5146L9.85734 17.5146C9.57316 17.9881 8.95881 18.1415 8.48527 17.8574C8.01181 17.5732 7.85838 16.9589 8.1425 16.4854L10.2333 13H7.99992C7.6398 13 7.30737 12.8064 7.12981 12.4932C6.9523 12.1797 6.95714 11.7943 7.1425 11.4854L10.1425 6.48535Z" fill="black"/>
<path d="M16.9995 16V8C16.9995 7.73491 16.8949 7.48048 16.7075 7.29297C16.52 7.10543 16.2647 7 15.9995 7H14.856C14.3037 7 13.856 6.55228 13.856 6C13.856 5.44772 14.3037 5 14.856 5H15.9995C16.7952 5 17.559 5.3163 18.1216 5.87891C18.684 6.44149 18.9995 7.20448 18.9995 8V16C18.9995 16.7955 18.684 17.5585 18.1216 18.1211C17.559 18.6837 16.7952 19 15.9995 19H13.0649C12.5127 19 12.0649 18.5523 12.0649 18C12.0649 17.4477 12.5127 17 13.0649 17H15.9995C16.2647 17 16.52 16.8946 16.7075 16.707C16.8949 16.5195 16.9995 16.2651 16.9995 16Z" fill="black"/>
<path d="M21 14V10C21 9.44772 21.4477 9 22 9C22.5523 9 23 9.44772 23 10V14C23 14.5523 22.5523 15 22 15C21.4477 15 21 14.5523 21 14Z" fill="black"/>
<path d="M1 16V8C1 7.20435 1.3163 6.44152 1.87891 5.87891C2.44152 5.3163 3.20435 5 4 5H6.93555C7.48783 5 7.93555 5.44772 7.93555 6C7.93555 6.55228 7.48783 7 6.93555 7H4C3.73478 7 3.4805 7.10543 3.29297 7.29297C3.10543 7.4805 3 7.73478 3 8V16C3 16.2652 3.10543 16.5195 3.29297 16.707C3.48051 16.8946 3.73478 17 4 17H5.13965C5.69193 17 6.13965 17.4477 6.13965 18C6.13965 18.5523 5.69193 19 5.13965 19H4C3.20435 19 2.44151 18.6837 1.87891 18.1211C1.3163 17.5585 1 16.7956 1 16Z" fill="black"/>
</svg>
