<svg width="24" height="24" viewBox="0 0 24 24" fill="none" xmlns="http://www.w3.org/2000/svg">
<path d="M9 5V3C9 2.44772 9.44771 2 10 2C10.5523 2 11 2.44772 11 3V5C11 5.55228 10.5523 6 10 6C9.44771 6 9 5.55228 9 5Z" fill="black"/>
<path d="M13 5V3C13 2.44772 13.4477 2 14 2C14.5523 2 15 2.44772 15 3V5C15 5.55228 14.5523 6 14 6C13.4477 6 13 5.55228 13 5Z" fill="black"/>
<path d="M14 21V18C14 17.4696 13.7891 16.961 13.4141 16.5859C13.039 16.2109 12.5304 16 12 16C11.4696 16 10.961 16.2109 10.5859 16.5859C10.2109 16.961 10 17.4696 10 18V21C10 21.5523 9.55228 22 9 22C8.44772 22 8 21.5523 8 21V18C8 16.9391 8.42173 15.922 9.17188 15.1719C9.92202 14.4217 10.9391 14 12 14C13.0609 14 14.078 14.4217 14.8281 15.1719C15.5783 15.922 16 16.9391 16 18V21C16 21.5523 15.5523 22 15 22C14.4477 22 14 21.5523 14 21Z" fill="black"/>
<path d="M17 11V3C17 2.44772 17.4477 2 18 2C18.5523 2 19 2.44772 19 3V11C19 11.5523 18.5523 12 18 12C17.4477 12 17 11.5523 17 11Z" fill="black"/>
<path d="M18 4C18.5523 4 19 4.44772 19 5C19 5.55228 18.5523 6 18 6H6C5.44772 6 5 5.55228 5 5C5 4.44772 5.44772 4 6 4H18Z" fill="black"/>
<path d="M22 10C22.5523 10 23 10.4477 23 11C23 11.5523 22.5523 12 22 12H2C1.44772 12 1 11.5523 1 11C1 10.4477 1.44772 10 2 10H22Z" fill="black"/>
<path d="M1 19V9C1 8.44772 1.44772 8 2 8C2.55228 8 3 8.44772 3 9V19C3 19.2652 3.10543 19.5195 3.29297 19.707C3.48051 19.8946 3.73478 20 4 20H20C20.2652 20 20.5195 19.8946 20.707 19.707C20.8946 19.5195 21 19.2652 21 19V9C21 8.44772 21.4477 8 22 8C22.5523 8 23 8.44772 23 9V19C23 19.7957 22.6837 20.5585 22.1211 21.1211C21.5585 21.6837 20.7957 22 20 22H4C3.20435 22 2.44151 21.6837 1.87891 21.1211C1.3163 20.5585 1 19.7957 1 19Z" fill="black"/>
<path d="M5 11V3C5 2.44772 5.44772 2 6 2C6.55228 2 7 2.44772 7 3V11C7 11.5523 6.55228 12 6 12C5.44772 12 5 11.5523 5 11Z" fill="black"/>
</svg>
