<svg width="24" height="24" viewBox="0 0 24 24" fill="none" xmlns="http://www.w3.org/2000/svg">
<path fill-rule="evenodd" clip-rule="evenodd" d="M16.8771 7.12284C17.2676 7.51336 17.2676 8.14653 16.8771 8.53705L2.70711 22.7071C2.31658 23.0976 1.68342 23.0976 1.29289 22.7071C0.902369 22.3165 0.902369 21.6834 1.29289 21.2928L15.4629 7.12284C15.8534 6.73232 16.4866 6.73232 16.8771 7.12284Z" fill="black"/>
<path fill-rule="evenodd" clip-rule="evenodd" d="M9.95327 4.00962C9.70709 3.99304 9.46011 4.0265 9.22721 4.10798C8.99431 4.18946 8.78033 4.31727 8.59818 4.4837C8.41602 4.65013 8.26946 4.85173 8.16735 5.07635C8.06523 5.30096 8.00967 5.54393 8.00401 5.79061C7.99835 6.03728 8.04272 6.28254 8.13443 6.5116C8.22615 6.74066 8.36331 6.94877 8.53764 7.12338C8.92765 7.51399 8.92741 8.14673 8.5371 8.53704C8.14678 8.92735 7.51404 8.9276 7.12343 8.53759C6.94882 8.36325 6.74072 8.22609 6.51166 8.13438C6.2826 8.04266 6.03733 7.9983 5.79066 8.00395C5.54399 8.00961 5.30101 8.06517 5.0764 8.16729C4.85179 8.26941 4.65018 8.41597 4.48375 8.59812C4.31732 8.78028 4.18952 8.99426 4.10804 9.22716C4.02656 9.46005 3.9931 9.70704 4.00968 9.95322C4.02625 10.1994 4.09252 10.4397 4.20449 10.6595C4.31646 10.8794 4.4718 11.0743 4.66115 11.2325C5.08498 11.5866 5.1415 12.2173 4.7874 12.6411C4.72802 12.7122 4.66088 12.7729 4.58823 12.8231C4.28398 13.143 4.10452 13.5633 4.08566 14.0072C4.06504 14.4924 4.238 14.9658 4.56648 15.3235C4.89497 15.6811 5.35207 15.8936 5.83724 15.9143C6.32241 15.9349 6.7959 15.7619 7.15354 15.4334C7.55409 15.0656 8.17522 15.0852 8.55168 15.4777C8.92815 15.8702 8.92191 16.4916 8.53764 16.8765C8.36331 17.0511 8.22615 17.2592 8.13443 17.4883C8.04272 17.7173 7.99835 17.9626 8.00401 18.2093C8.00967 18.4559 8.06523 18.6989 8.16735 18.9235C8.26947 19.1481 8.41602 19.3497 8.59818 19.5162C8.78033 19.6826 8.99431 19.8104 9.22721 19.8919C9.46011 19.9734 9.70709 20.0068 9.95327 19.9902C10.1995 19.9737 10.4397 19.9074 10.6596 19.7954C10.8795 19.6835 11.0744 19.5281 11.2326 19.3388C11.4226 19.1114 11.7037 18.9799 12 18.9799C12.2963 18.9799 12.5774 19.1114 12.7674 19.3388C12.9256 19.5281 13.1205 19.6835 13.3404 19.7954C13.5603 19.9074 13.8005 19.9737 14.0467 19.9902C14.2929 20.0068 14.5399 19.9734 14.7728 19.8919C15.0057 19.8104 15.2196 19.6826 15.4018 19.5162C15.584 19.3497 15.7305 19.1481 15.8326 18.9235C15.9347 18.6989 15.9903 18.4559 15.996 18.2093C16.0016 17.9626 15.9573 17.7173 15.8655 17.4883C15.7738 17.2592 15.6367 17.0511 15.4623 16.8765C15.0723 16.4859 15.0726 15.8531 15.4629 15.4628C15.8532 15.0725 16.4859 15.0723 16.8765 15.4623C17.0512 15.6366 17.2593 15.7738 17.4883 15.8655C17.7174 15.9572 17.9626 16.0016 18.2093 15.9959C18.456 15.9903 18.699 15.9347 18.9236 15.8326C19.1482 15.7305 19.3498 15.5839 19.5162 15.4017C19.6827 15.2196 19.8105 15.0056 19.8919 14.7727C19.9734 14.5398 20.0069 14.2928 19.9903 14.0466C19.9737 13.8005 19.9075 13.5602 19.7955 13.3403C19.6835 13.1205 19.5282 12.9255 19.3388 12.7673C19.1114 12.5773 18.98 12.2963 18.98 11.9999C18.98 11.7036 19.1114 11.4225 19.3388 11.2325C19.5282 11.0743 19.6835 10.8794 19.7955 10.6595C19.9075 10.4397 19.9737 10.1994 19.9903 9.95322C20.0069 9.70704 19.9734 9.46005 19.8919 9.22716C19.8105 8.99426 19.6827 8.78028 19.5162 8.59812C19.3498 8.41597 19.1482 8.26941 18.9236 8.16729C18.699 8.06517 18.456 8.00961 18.2093 8.00395C17.9626 7.9983 17.7174 8.04266 17.4883 8.13438C17.2593 8.22609 17.0517 8.36272 16.8771 8.53705C16.4865 8.92706 15.8532 8.92735 15.4629 8.53704C15.0726 8.14673 15.0729 7.51345 15.4629 7.12284C15.6372 6.94824 15.7738 6.74066 15.8655 6.5116C15.9573 6.28254 16.0016 6.03728 15.996 5.79061C15.9903 5.54393 15.9347 5.30096 15.8326 5.07635C15.7305 4.85173 15.584 4.65013 15.4018 4.4837C15.2196 4.31727 15.0057 4.18946 14.7728 4.10798C14.5399 4.0265 14.2929 3.99304 14.0467 4.00962C13.8005 4.0262 13.5602 4.09247 13.3404 4.20444C13.1205 4.3164 12.9256 4.47175 12.7674 4.66109C12.5774 4.8885 12.2963 5.01993 12 5.01993C11.7037 5.01993 11.4226 4.8885 11.2326 4.66109C11.0744 4.47175 10.8795 4.3164 10.6596 4.20444C10.4397 4.09247 10.1995 4.0262 9.95327 4.00962ZM2.69084 12.0158C2.59142 11.8729 2.50164 11.723 2.42227 11.5671C2.18773 11.1066 2.04892 10.6033 2.01419 10.0876C1.97947 9.57192 2.04956 9.05456 2.22023 8.56671C2.3909 8.07886 2.65862 7.63064 3.00724 7.24908C3.35586 6.86752 3.77816 6.56053 4.24865 6.34662C4.71915 6.13272 5.2281 6.01633 5.74481 6.00448C5.83252 6.00247 5.92014 6.00348 6.00753 6.00748C6.00353 5.92009 6.00252 5.83246 6.00453 5.74475C6.01638 5.22805 6.13277 4.7191 6.34668 4.2486C6.56058 3.7781 6.86758 3.35581 7.24914 3.00719C7.63069 2.65857 8.07892 2.39085 8.56676 2.22018C9.05461 2.0495 9.57197 1.97942 10.0876 2.01414C10.6033 2.04886 11.1066 2.18768 11.5672 2.42222C11.7173 2.49866 11.8618 2.58475 12 2.67982C12.1381 2.58475 12.2827 2.49866 12.4328 2.42222C12.8934 2.18768 13.3967 2.04886 13.9123 2.01414C14.428 1.97942 14.9454 2.0495 15.4332 2.22018C15.9211 2.39085 16.3693 2.65857 16.7508 3.00719C17.1324 3.35581 17.4394 3.7781 17.6533 4.2486C17.8672 4.7191 17.9836 5.22805 17.9954 5.74475C17.9975 5.83246 17.9964 5.92009 17.9924 6.00748C18.0798 6.00348 18.1675 6.00247 18.2552 6.00448C18.7719 6.01633 19.2808 6.13272 19.7513 6.34662C20.2218 6.56053 20.6441 6.86752 20.9927 7.24908C21.3414 7.63064 21.6091 8.07886 21.7797 8.56671C21.9504 9.05456 22.0205 9.57192 21.9858 10.0876C21.9511 10.6033 21.8122 11.1066 21.5777 11.5671C21.5013 11.7172 21.4152 11.8618 21.3201 11.9999C21.4152 12.1381 21.5013 12.2826 21.5777 12.4327C21.8122 12.8933 21.9511 13.3966 21.9858 13.9123C22.0205 14.4279 21.9504 14.9453 21.7797 15.4332C21.6091 15.921 21.3414 16.3692 20.9927 16.7508C20.6441 17.1323 20.2218 17.4393 19.7513 17.6532C19.2808 17.8672 18.7719 17.9835 18.2552 17.9954C18.1675 17.9974 18.0798 17.9964 17.9924 17.9924C17.9964 18.0798 17.9975 18.1674 17.9954 18.2551C17.9836 18.7718 17.8672 19.2808 17.6533 19.7513C17.4394 20.2218 17.1324 20.6441 16.7508 20.9927C16.3693 21.3413 15.9211 21.609 15.4332 21.7797C14.9454 21.9504 14.428 22.0205 13.9123 21.9857C13.3967 21.951 12.8934 21.8122 12.4328 21.5777C12.2827 21.5012 12.1381 21.4151 12 21.3201C11.8618 21.4151 11.7173 21.5012 11.5672 21.5777C11.1066 21.8122 10.6033 21.951 10.0876 21.9857C9.57197 22.0205 9.05461 21.9504 8.56676 21.7797C8.07892 21.609 7.63069 21.3413 7.24914 20.9927C6.86757 20.6441 6.56058 20.2218 6.34668 19.7513C6.13277 19.2808 6.01638 18.7718 6.00453 18.2551C6.00193 18.1414 6.00439 18.0278 6.01188 17.9147C5.92563 17.9169 5.83906 17.9161 5.75232 17.9125C4.7372 17.8693 3.78079 17.4247 3.09349 16.6764C2.4062 15.9281 2.04432 14.9374 2.08746 13.9223C2.11651 13.2387 2.32759 12.5818 2.69084 12.0158Z" fill="black"/>
<path fill-rule="evenodd" clip-rule="evenodd" d="M7.12289 7.12284C7.51342 6.73232 8.14712 6.73285 8.53764 7.12338L16.8765 15.4623C17.2671 15.8528 17.2676 16.4865 16.8771 16.8771C16.4866 17.2676 15.8529 17.267 15.4623 16.8765L7.12343 8.53759C6.73291 8.14706 6.73237 7.51336 7.12289 7.12284Z" fill="black"/>
</svg>
