<svg width="24" height="24" viewBox="0 0 24 24" fill="none" xmlns="http://www.w3.org/2000/svg">
<path fill-rule="evenodd" clip-rule="evenodd" d="M3.87868 10.8787C4.44129 10.3161 5.20435 10 6 10H18C18.7957 10 19.5587 10.3161 20.1213 10.8787C20.6839 11.4413 21 12.2043 21 13V21C21 21.5523 20.5523 22 20 22C19.4477 22 19 21.5523 19 21V13C19 12.7348 18.8946 12.4804 18.7071 12.2929C18.5196 12.1054 18.2652 12 18 12H6C5.73478 12 5.48043 12.1054 5.29289 12.2929C5.10536 12.4804 5 12.7348 5 13V21C5 21.5523 4.55228 22 4 22C3.44772 22 3 21.5523 3 21V13C3 12.2044 3.31607 11.4413 3.87868 10.8787Z" fill="black"/>
<path fill-rule="evenodd" clip-rule="evenodd" d="M4.881 16.4731C4.62625 16.9481 4.03803 17.1371 3.55277 16.8944C3.05879 16.6474 2.85857 16.0468 3.10556 15.5528L3.99998 16C3.10556 15.5528 3.10582 15.5523 3.10609 15.5517L3.10663 15.5506C3.107 15.5499 3.10738 15.5492 3.10777 15.5484C3.10824 15.5475 3.10872 15.5465 3.10921 15.5455C3.10954 15.5449 3.10987 15.5443 3.1102 15.5436C3.11191 15.5403 3.11376 15.5367 3.11577 15.5329C3.1198 15.5252 3.12445 15.5165 3.12975 15.5069C3.14035 15.4876 3.15358 15.4645 3.16961 15.4381C3.20162 15.3853 3.24513 15.319 3.30155 15.2437C3.41404 15.0938 3.58062 14.9049 3.81279 14.7191C4.28982 14.3375 5.00707 14 5.99998 14C7.10913 14 7.98432 14.7041 8.54134 15.1522C8.56997 15.1752 8.59775 15.1976 8.62468 15.2191C9.32365 15.7783 9.66612 16 9.99999 16C10.3338 16 10.6763 15.7783 11.3753 15.2191C11.4022 15.1976 11.43 15.1752 11.4586 15.1522C12.0156 14.7041 12.8908 14 14 14C15.1091 14 15.9843 14.7041 16.5413 15.1522C16.57 15.1752 16.5977 15.1976 16.6247 15.2191C17.3237 15.7783 17.6661 16 18 16C18.5071 16 18.7898 15.8375 18.9378 15.7191C19.0181 15.6549 19.0703 15.5938 19.0984 15.5562C19.1091 15.542 19.1159 15.5318 19.119 15.5269C19.3737 15.0519 19.9619 14.8629 20.4472 15.1056C20.9412 15.3526 21.1414 15.9532 20.8944 16.4472L20 16C20.8944 16.4472 20.8941 16.4477 20.8939 16.4483L20.8933 16.4494L20.8922 16.4516C20.8914 16.4531 20.8906 16.4547 20.8898 16.4564C20.8881 16.4597 20.8862 16.4633 20.8842 16.4671C20.8802 16.4748 20.8755 16.4835 20.8702 16.4931C20.8596 16.5124 20.8464 16.5355 20.8304 16.5619C20.7983 16.6147 20.7548 16.681 20.6984 16.7563C20.5859 16.9062 20.4194 17.0951 20.1872 17.2809C19.7101 17.6625 18.9929 18 18 18C16.8908 18 16.0156 17.2959 15.4586 16.8478C15.43 16.8248 15.4022 16.8024 15.3753 16.7809C14.6763 16.2217 14.3338 16 14 16C13.6661 16 13.3237 16.2217 12.6247 16.7809C12.5977 16.8024 12.57 16.8248 12.5413 16.8478C11.9843 17.2959 11.1091 18 9.99999 18C8.89084 18 8.01565 17.2959 7.45863 16.8478C7.43 16.8248 7.40222 16.8024 7.37529 16.7809C6.67632 16.2217 6.33385 16 5.99998 16C5.4929 16 5.21015 16.1625 5.06218 16.2809C4.98185 16.3451 4.92968 16.4062 4.90155 16.4438C4.89087 16.458 4.8841 16.4682 4.881 16.4731ZM19.1065 15.5509C19.1064 15.551 19.1065 15.5508 19.1065 15.5509V15.5509Z" fill="black"/>
<path fill-rule="evenodd" clip-rule="evenodd" d="M1 21C1 20.4477 1.44772 20 2 20H22C22.5523 20 23 20.4477 23 21C23 21.5523 22.5523 22 22 22H2C1.44772 22 1 21.5523 1 21Z" fill="black"/>
<path fill-rule="evenodd" clip-rule="evenodd" d="M7 7C7.55228 7 8 7.44772 8 8V11C8 11.5523 7.55228 12 7 12C6.44772 12 6 11.5523 6 11V8C6 7.44772 6.44772 7 7 7Z" fill="black"/>
<path fill-rule="evenodd" clip-rule="evenodd" d="M12 7C12.5523 7 13 7.44772 13 8V11C13 11.5523 12.5523 12 12 12C11.4477 12 11 11.5523 11 11V8C11 7.44772 11.4477 7 12 7Z" fill="black"/>
<path fill-rule="evenodd" clip-rule="evenodd" d="M17 7C17.5523 7 18 7.44772 18 8V11C18 11.5523 17.5523 12 17 12C16.4477 12 16 11.5523 16 11V8C16 7.44772 16.4477 7 17 7Z" fill="black"/>
<path fill-rule="evenodd" clip-rule="evenodd" d="M6 4C6 3.44772 6.44772 3 7 3H7.01C7.56228 3 8.01 3.44772 8.01 4C8.01 4.55228 7.56228 5 7.01 5H7C6.44772 5 6 4.55228 6 4Z" fill="black"/>
<path fill-rule="evenodd" clip-rule="evenodd" d="M11 4C11 3.44772 11.4477 3 12 3H12.01C12.5623 3 13.01 3.44772 13.01 4C13.01 4.55228 12.5623 5 12.01 5H12C11.4477 5 11 4.55228 11 4Z" fill="black"/>
<path fill-rule="evenodd" clip-rule="evenodd" d="M16 4C16 3.44772 16.4477 3 17 3H17.01C17.5623 3 18.01 3.44772 18.01 4C18.01 4.55228 17.5623 5 17.01 5H17C16.4477 5 16 4.55228 16 4Z" fill="black"/>
</svg>
