<svg width="24" height="24" viewBox="0 0 24 24" fill="none" xmlns="http://www.w3.org/2000/svg">
<path d="M5.00446 12C5.00446 11.3606 5.15802 10.73 5.45173 10.1621C5.74542 9.59438 6.17132 9.1048 6.69294 8.73535C7.21444 8.3661 7.81695 8.12768 8.44977 8.03906C9.08291 7.95048 9.72852 8.01445 10.3316 8.22656C10.8526 8.40984 11.1262 8.98096 10.9429 9.50195C10.7596 10.0227 10.1894 10.2963 9.66852 10.1133C9.36694 10.0072 9.04373 9.97523 8.72712 10.0195C8.4106 10.0639 8.10902 10.1834 7.84821 10.3682C7.58753 10.5529 7.37489 10.7973 7.22809 11.0811C7.08124 11.365 7.00446 11.6803 7.00446 12C7.00446 12.3197 7.08124 12.635 7.22809 12.9189C7.37489 13.2027 7.58753 13.4471 7.84821 13.6318C8.10902 13.8166 8.4106 13.9361 8.72712 13.9805C9.04373 14.0248 9.36694 13.9928 9.66852 13.8867C10.1894 13.7037 10.7596 13.9773 10.9429 14.498C11.1262 15.019 10.8526 15.5902 10.3316 15.7734C9.72852 15.9855 9.08291 16.0495 8.44977 15.9609C7.81695 15.8723 7.21444 15.6339 6.69294 15.2646C6.17132 14.8952 5.74542 14.4056 5.45173 13.8379C5.15802 13.2699 5.00446 12.6394 5.00446 12Z" fill="black"/>
<path d="M12.0045 12C12.0045 11.3606 12.158 10.7301 12.4517 10.1621C12.7454 9.59438 13.1713 9.1048 13.6929 8.73535C14.2144 8.3661 14.817 8.12768 15.4498 8.03906C16.0829 7.95048 16.7285 8.01445 17.3316 8.22656C17.8526 8.40984 18.1262 8.98096 17.9429 9.50195C17.7596 10.0227 17.1894 10.2963 16.6685 10.1133C16.3669 10.0072 16.0437 9.97523 15.7271 10.0195C15.4106 10.0639 15.109 10.1834 14.8482 10.3682C14.5875 10.5529 14.3749 10.7973 14.2281 11.0811C14.0812 11.365 14.0045 11.6803 14.0045 12C14.0045 12.3197 14.0812 12.635 14.2281 12.9189C14.3749 13.2027 14.5875 13.4471 14.8482 13.6318C15.109 13.8166 15.4106 13.9361 15.7271 13.9805C16.0437 14.0248 16.3669 13.9928 16.6685 13.8867C17.1894 13.7037 17.7596 13.9773 17.9429 14.498C18.1262 15.019 17.8526 15.5902 17.3316 15.7734C16.7285 15.9855 16.0829 16.0495 15.4498 15.9609C14.817 15.8723 14.2144 15.6339 13.6929 15.2646C13.1713 14.8952 12.7454 14.4056 12.4517 13.8379C12.158 13.2699 12.0045 12.6394 12.0045 12Z" fill="black"/>
<path d="M21 7C21 6.44772 20.5523 6 20 6H4C3.44772 6 3 6.44772 3 7V17C3 17.5523 3.44772 18 4 18H20C20.5523 18 21 17.5523 21 17V7ZM23 17C23 18.6569 21.6569 20 20 20H4C2.34315 20 1 18.6569 1 17V7C1 5.34315 2.34315 4 4 4H20C21.6569 4 23 5.34315 23 7V17Z" fill="black"/>
</svg>
