<svg width="24" height="24" viewBox="0 0 24 24" fill="none" xmlns="http://www.w3.org/2000/svg">
<path d="M19 20C19 19.7348 18.8946 19.4805 18.707 19.293C18.5195 19.1054 18.2652 19 18 19H6C5.73478 19 5.4805 19.1054 5.29297 19.293C5.10543 19.4805 5 19.7348 5 20V21H19V20ZM21 21C21 21.5304 20.7891 22.039 20.4141 22.4141C20.039 22.7891 19.5304 23 19 23H5C4.46957 23 3.96101 22.7891 3.58594 22.4141C3.21086 22.039 3 21.5304 3 21V20C3 19.2043 3.3163 18.4415 3.87891 17.8789C4.44151 17.3163 5.20435 17 6 17H18C18.7957 17 19.5585 17.3163 20.1211 17.8789C20.6837 18.4415 21 19.2043 21 20V21Z" fill="black"/>
<path d="M12.1927 4.98304C12.7226 4.82781 13.2785 5.13195 13.434 5.66175L14.9994 10.9996L17.6146 7.59925C17.9513 7.16168 18.5793 7.08005 19.017 7.41663C19.4544 7.75337 19.5361 8.38131 19.1996 8.81898L16.5834 12.2203L16.5824 12.2223C16.3571 12.5136 16.0555 12.7378 15.7113 12.8688C15.3671 12.9997 14.9932 13.0333 14.6312 12.9655C14.2693 12.8976 13.9329 12.7307 13.6595 12.484C13.3864 12.2374 13.1869 11.9199 13.0824 11.567L13.0814 11.5641L11.514 6.22425C11.3588 5.69443 11.6629 5.13851 12.1927 4.98304Z" fill="black"/>
<path d="M19.0518 8.68359C19.2265 8.15984 19.7926 7.87714 20.3164 8.05176C20.8402 8.22652 21.1229 8.79256 20.9482 9.31641L17.9482 18.3164C17.7735 18.8402 17.2074 19.1229 16.6836 18.9482C16.1598 18.7735 15.8771 18.2074 16.0518 17.6836L19.0518 8.68359Z" fill="black"/>
<path d="M10.5667 5.66175C10.7222 5.13181 11.2779 4.82753 11.8079 4.98304C12.3376 5.13858 12.6409 5.69446 12.4856 6.22425L10.9182 11.5641V11.566C10.814 11.9193 10.6143 12.2371 10.3411 12.484C10.0678 12.731 9.73138 12.8974 9.36939 12.9655C9.00741 13.0335 8.63361 13.0006 8.28931 12.8698C7.94509 12.7389 7.64362 12.5155 7.41822 12.2242L7.41627 12.2213L4.80103 8.818C4.46471 8.38009 4.54678 7.75212 4.98462 7.41566C5.42245 7.07935 6.05045 7.1616 6.38697 7.59925L8.99927 10.9987L10.5667 5.66175Z" fill="black"/>
<path d="M3.68359 8.05176C4.20744 7.87714 4.77348 8.15984 4.94824 8.68359L7.94824 17.6836C8.12286 18.2074 7.84016 18.7735 7.31641 18.9482C6.79256 19.1229 6.22652 18.8402 6.05176 18.3164L3.05176 9.31641C2.87714 8.79256 3.15984 8.22652 3.68359 8.05176Z" fill="black"/>
<path d="M13 4C13 3.44772 12.5523 3 12 3C11.4477 3 11 3.44772 11 4C11 4.55228 11.4477 5 12 5C12.5523 5 13 4.55228 13 4ZM15 4C15 5.65685 13.6569 7 12 7C10.3431 7 9 5.65685 9 4C9 2.34315 10.3431 1 12 1C13.6569 1 15 2.34315 15 4Z" fill="black"/>
<path d="M21 7C21 6.44772 20.5523 6 20 6C19.4477 6 19 6.44772 19 7C19 7.55228 19.4477 8 20 8C20.5523 8 21 7.55228 21 7ZM23 7C23 8.65685 21.6569 10 20 10C18.3431 10 17 8.65685 17 7C17 5.34315 18.3431 4 20 4C21.6569 4 23 5.34315 23 7Z" fill="black"/>
<path d="M5 7C5 6.44772 4.55228 6 4 6C3.44772 6 3 6.44772 3 7C3 7.55228 3.44772 8 4 8C4.55228 8 5 7.55228 5 7ZM7 7C7 8.65685 5.65685 10 4 10C2.34315 10 1 8.65685 1 7C1 5.34315 2.34315 4 4 4C5.65685 4 7 5.34315 7 7Z" fill="black"/>
</svg>
