<svg width="24" height="24" viewBox="0 0 24 24" fill="none" xmlns="http://www.w3.org/2000/svg">
<path fill-rule="evenodd" clip-rule="evenodd" d="M3.97473 8.19761C4.74496 7.42762 6.0325 7.42762 6.80273 8.19761L9.17984 10.5747C9.94983 11.345 9.94994 12.6326 9.17994 13.4028L6.80273 15.779C6.0325 16.549 4.74496 16.549 3.97473 15.779L1.59752 13.4028C0.827521 12.6326 0.82752 11.3451 1.59752 10.5748L3.97473 8.19761ZM5.38873 9.61204L3.01194 11.9888L5.38869 14.3646L7.76552 11.9888L5.38873 9.61204Z" fill="black"/>
<path fill-rule="evenodd" clip-rule="evenodd" d="M17.2047 8.21739C17.9749 7.44739 19.2625 7.44739 20.0327 8.21739L22.4098 10.5945C23.1798 11.3647 23.1799 12.6524 22.4099 13.4226L20.0327 15.7988C19.2625 16.5688 17.9749 16.5688 17.2047 15.7988L14.8275 13.4226C14.0575 12.6524 14.0575 11.3648 14.8275 10.5946L17.2047 8.21739ZM18.6187 9.63182L16.2419 12.0086L18.6187 14.3843L20.9955 12.0086L18.6187 9.63182Z" fill="black"/>
<path fill-rule="evenodd" clip-rule="evenodd" d="M10.5846 14.8275C11.3548 14.0575 12.6424 14.0575 13.4126 14.8275L15.7897 17.2046C16.5597 17.9748 16.5598 19.2625 15.7898 20.0327L13.4126 22.4089C12.6424 23.1789 11.3548 23.1789 10.5846 22.4089L8.20738 20.0327C7.43738 19.2625 7.43738 17.9749 8.20738 17.2047L10.5846 14.8275ZM11.9986 16.2419L9.62181 18.6187L11.9986 20.9945L14.3754 18.6187L11.9986 16.2419Z" fill="black"/>
<path fill-rule="evenodd" clip-rule="evenodd" d="M10.5861 1.5897C11.3563 0.819708 12.6438 0.819708 13.4141 1.5897L15.7912 3.96681C16.5612 4.73704 16.5613 6.02469 15.7913 6.79492L13.4141 9.17113C12.6438 9.94113 11.3563 9.94113 10.5861 9.17113L8.20885 6.79492C7.43885 6.02469 7.43885 4.73715 8.20885 3.96692L10.5861 1.5897ZM12.0001 3.00413L9.62327 5.38092L12 7.75666L14.3768 5.38092L12.0001 3.00413Z" fill="black"/>
</svg>
