<svg width="24" height="24" viewBox="0 0 24 24" fill="none" xmlns="http://www.w3.org/2000/svg">
<path fill-rule="evenodd" clip-rule="evenodd" d="M1.58579 11.5858C1.96086 11.2107 2.46957 11 3 11H12C12.5523 11 13 11.4477 13 12C13 12.5523 12.5523 13 12 13H3V15H16C16.5523 15 17 15.4477 17 16C17 16.5523 16.5523 17 16 17H3C2.46957 17 1.96086 16.7893 1.58579 16.4142C1.21071 16.0391 1 15.5304 1 15V13C1 12.4696 1.21071 11.9609 1.58579 11.5858Z" fill="black"/>
<path fill-rule="evenodd" clip-rule="evenodd" d="M16 2C16.5523 2 17 2.44772 17 3C17 3.47988 17.0933 3.80022 17.214 4.05164C17.3449 4.32437 17.5229 4.55278 17.7809 4.87531C17.7876 4.88368 17.7943 4.89212 17.8011 4.90063C18.0406 5.19982 18.3517 5.58844 18.589 6.08289C18.8433 6.61272 19 7.22988 19 8C19 8.55228 18.5523 9 18 9C17.4477 9 17 8.55228 17 8C17 7.52012 16.9067 7.19978 16.786 6.94836C16.6551 6.67563 16.4771 6.44722 16.2191 6.12469C16.2124 6.11632 16.2057 6.10788 16.1989 6.09936C15.9594 5.80018 15.6483 5.41156 15.411 4.91711C15.1567 4.38728 15 3.77012 15 3C15 2.44772 15.4477 2 16 2Z" fill="black"/>
<path fill-rule="evenodd" clip-rule="evenodd" d="M1.29289 1.29289C1.68342 0.902369 2.31658 0.902369 2.70711 1.29289L22.7071 21.2929C23.0976 21.6834 23.0976 22.3166 22.7071 22.7071C22.3166 23.0976 21.6834 23.0976 21.2929 22.7071L1.29289 2.70711C0.902369 2.31658 0.902369 1.68342 1.29289 1.29289Z" fill="black"/>
<path fill-rule="evenodd" clip-rule="evenodd" d="M20 12C20 11.4477 20.4477 11 21 11C21.5304 11 22.0391 11.2107 22.4142 11.5858C22.7893 11.9609 23 12.4696 23 13V15C23 15.3511 22.9076 15.696 22.732 16C22.5565 16.304 22.304 16.5565 22 16.732C21.5217 17.0082 20.9101 16.8443 20.634 16.366C20.3578 15.8877 20.5217 15.2761 21 15V13C20.4477 13 20 12.5523 20 12Z" fill="black"/>
<path fill-rule="evenodd" clip-rule="evenodd" d="M20 2C20.5523 2 21 2.44772 21 3C21 3.47988 21.0933 3.80022 21.214 4.05164C21.3449 4.32437 21.5229 4.55278 21.7809 4.87531C21.7876 4.88368 21.7943 4.89212 21.8011 4.90063C22.0406 5.19982 22.3517 5.58844 22.589 6.08289C22.8433 6.61272 23 7.22988 23 8C23 8.55228 22.5523 9 22 9C21.4477 9 21 8.55228 21 8C21 7.52012 20.9067 7.19978 20.786 6.94836C20.6551 6.67563 20.4771 6.44722 20.2191 6.12469C20.2124 6.11632 20.2057 6.10788 20.1989 6.09936C19.9594 5.80018 19.6483 5.41156 19.411 4.91711C19.1567 4.38728 19 3.77012 19 3C19 2.44772 19.4477 2 20 2Z" fill="black"/>
<path fill-rule="evenodd" clip-rule="evenodd" d="M7 11C7.55228 11 8 11.4477 8 12V16C8 16.5523 7.55228 17 7 17C6.44772 17 6 16.5523 6 16V12C6 11.4477 6.44772 11 7 11Z" fill="black"/>
</svg>
