<svg width="24" height="24" viewBox="0 0 24 24" fill="none" xmlns="http://www.w3.org/2000/svg">
<path fill-rule="evenodd" clip-rule="evenodd" d="M9 4C9.55228 4 10 4.44772 10 5V9C10 9.55228 9.55228 10 9 10C8.44772 10 8 9.55228 8 9V5C8 4.44772 8.44772 4 9 4Z" fill="black"/>
<path fill-rule="evenodd" clip-rule="evenodd" d="M8 10V14H10V10H8ZM6 10C6 8.89543 6.89543 8 8 8H10C11.1046 8 12 8.89543 12 10V14C12 15.1046 11.1046 16 10 16H8C6.89543 16 6 15.1046 6 14V10Z" fill="black"/>
<path fill-rule="evenodd" clip-rule="evenodd" d="M9 14C9.55228 14 10 14.4477 10 15V17C10 17.5523 9.55228 18 9 18C8.44772 18 8 17.5523 8 17V15C8 14.4477 8.44772 14 9 14Z" fill="black"/>
<path fill-rule="evenodd" clip-rule="evenodd" d="M17 2C17.5523 2 18 2.44772 18 3V5C18 5.55228 17.5523 6 17 6C16.4477 6 16 5.55228 16 5V3C16 2.44772 16.4477 2 17 2Z" fill="black"/>
<path fill-rule="evenodd" clip-rule="evenodd" d="M16 6V12H18V6H16ZM14 6C14 4.89543 14.8954 4 16 4H18C19.1046 4 20 4.89543 20 6V12C20 13.1046 19.1046 14 18 14H16C14.8954 14 14 13.1046 14 12V6Z" fill="black"/>
<path fill-rule="evenodd" clip-rule="evenodd" d="M17 12C17.5523 12 18 12.4477 18 13V16C18 16.5523 17.5523 17 17 17C16.4477 17 16 16.5523 16 16V13C16 12.4477 16.4477 12 17 12Z" fill="black"/>
<path fill-rule="evenodd" clip-rule="evenodd" d="M3 2C3.55228 2 4 2.44772 4 3V19C4 19.2652 4.10536 19.5196 4.29289 19.7071C4.48043 19.8946 4.73478 20 5 20H21C21.5523 20 22 20.4477 22 21C22 21.5523 21.5523 22 21 22H5C4.20435 22 3.44129 21.6839 2.87868 21.1213C2.31607 20.5587 2 19.7956 2 19V3C2 2.44772 2.44772 2 3 2Z" fill="black"/>
</svg>
