<svg width="24" height="24" viewBox="0 0 24 24" fill="none" xmlns="http://www.w3.org/2000/svg">
<path fill-rule="evenodd" clip-rule="evenodd" d="M7 3C7 1.89543 7.89543 1 9 1H15C16.1046 1 17 1.89543 17 3V5C17 6.10457 16.1046 7 15 7H9C7.89543 7 7 6.10457 7 5V3ZM15 3H9V5H15V3Z" fill="black"/>
<path fill-rule="evenodd" clip-rule="evenodd" d="M3.87868 3.87868C4.44129 3.31607 5.20435 3 6 3H8C8.55228 3 9 3.44772 9 4C9 4.55228 8.55228 5 8 5H6C5.73478 5 5.48043 5.10536 5.29289 5.29289C5.10536 5.48043 5 5.73478 5 6V20C5 20.2652 5.10536 20.5196 5.29289 20.7071C5.48043 20.8946 5.73478 21 6 21H18C18.2652 21 18.5196 20.8946 18.7071 20.7071C18.8946 20.5196 19 20.2652 19 20V19.5C19 18.9477 19.4477 18.5 20 18.5C20.5523 18.5 21 18.9477 21 19.5V20C21 20.7957 20.6839 21.5587 20.1213 22.1213C19.5587 22.6839 18.7957 23 18 23H6C5.20435 23 4.44129 22.6839 3.87868 22.1213C3.31607 21.5587 3 20.7957 3 20V6C3 5.20435 3.31607 4.44129 3.87868 3.87868Z" fill="black"/>
<path fill-rule="evenodd" clip-rule="evenodd" d="M15 4C15 3.44772 15.4477 3 16 3H18.001C18.5271 3.00054 19.0438 3.13942 19.4993 3.40269C19.9548 3.66597 20.333 4.04439 20.596 4.5C20.8722 4.97829 20.7083 5.58988 20.23 5.86603C19.7517 6.14217 19.1401 5.97829 18.864 5.5C18.7763 5.34813 18.6502 5.22199 18.4984 5.13423C18.3467 5.04654 18.1746 5.00026 17.9994 5H16C15.4477 5 15 4.55228 15 4Z" fill="black"/>
<path fill-rule="evenodd" clip-rule="evenodd" d="M19.905 9.99487C19.7606 9.99487 19.6175 10.0233 19.484 10.0786C19.3507 10.1338 19.2296 10.2147 19.1275 10.3167C19.1274 10.3168 19.1276 10.3166 19.1275 10.3167L14.8929 14.5609L14.3769 16.6199L16.4388 16.0979L20.6829 11.8729C20.6827 11.8731 20.6831 11.8726 20.6829 11.8729C20.7848 11.7709 20.8662 11.6491 20.9214 11.516C20.9767 11.3825 21.0051 11.2394 21.0051 11.095C21.0051 10.9505 20.9767 10.8075 20.9214 10.674C20.8661 10.5405 20.7851 10.4192 20.6829 10.3171C20.5808 10.2149 20.4595 10.1339 20.326 10.0786C20.1925 10.0233 20.0495 9.99487 19.905 9.99487ZM18.7187 8.23085C19.0948 8.07506 19.4979 7.99487 19.905 7.99487C20.3121 7.99487 20.7153 8.07506 21.0914 8.23085C21.4675 8.38665 21.8093 8.615 22.0971 8.90287C22.385 9.19074 22.6133 9.5325 22.7691 9.90862C22.9249 10.2847 23.0051 10.6879 23.0051 11.095C23.0051 11.5021 22.9249 11.9052 22.7691 12.2813C22.6133 12.6575 22.385 12.9992 22.0971 13.2871L22.0955 13.2887L17.6555 17.7087C17.5283 17.8353 17.3694 17.9254 17.1954 17.9694L13.2454 18.9694C12.9043 19.0558 12.5429 18.9565 12.2938 18.7079C12.0446 18.4594 11.9445 18.0982 12.03 17.7569L13.02 13.8069C13.0639 13.6316 13.1545 13.4716 13.2821 13.3437L17.7129 8.90287C18.0008 8.615 18.3425 8.38665 18.7187 8.23085Z" fill="black"/>
<path fill-rule="evenodd" clip-rule="evenodd" d="M7 18C7 17.4477 7.44772 17 8 17H9C9.55228 17 10 17.4477 10 18C10 18.5523 9.55228 19 9 19H8C7.44772 19 7 18.5523 7 18Z" fill="black"/>
</svg>
