<svg width="24" height="24" viewBox="0 0 24 24" fill="none" xmlns="http://www.w3.org/2000/svg">
<path fill-rule="evenodd" clip-rule="evenodd" d="M1.29289 1.29289C1.68342 0.902369 2.31658 0.902369 2.70711 1.29289L22.7071 21.2929C23.0976 21.6834 23.0976 22.3166 22.7071 22.7071C22.3166 23.0976 21.6834 23.0976 21.2929 22.7071L1.29289 2.70711C0.902368 2.31658 0.902368 1.68342 1.29289 1.29289Z" fill="black"/>
<path fill-rule="evenodd" clip-rule="evenodd" d="M13.8353 3.19638C12.1231 2.83731 10.3434 2.98504 8.71384 3.6215C8.1994 3.82242 7.61948 3.56827 7.41856 3.05383C7.21763 2.53939 7.47179 1.95947 7.98623 1.75855C9.97791 0.980656 12.1531 0.800096 14.2458 1.23896C16.3385 1.67782 18.2579 2.71707 19.7693 4.2296C21.2806 5.74212 22.3184 7.66234 22.7556 9.75536C23.1929 11.8484 23.0107 14.0235 22.2312 16.0145C22.0299 16.5288 21.4498 16.7825 20.9355 16.5812C20.4212 16.3799 20.1675 15.7998 20.3688 15.2855C21.0066 13.6564 21.1557 11.8768 20.7979 10.1643C20.4402 8.45187 19.5911 6.88078 18.3545 5.64326C17.118 4.40575 15.5475 3.55545 13.8353 3.19638Z" fill="black"/>
<path fill-rule="evenodd" clip-rule="evenodd" d="M5.62708 4.21289C6.01761 4.60342 6.01761 5.23658 5.62708 5.62711C4.79018 6.46401 4.12632 7.45755 3.67339 8.55101C3.22046 9.64448 2.98734 10.8164 2.98734 12C2.98734 13.1836 3.22046 14.3555 3.67339 15.449C4.12632 16.5424 4.79018 17.536 5.62708 18.3729C6.46398 19.2098 7.45753 19.8737 8.55099 20.3266C9.64445 20.7795 10.8164 21.0126 12 21.0126C13.1835 21.0126 14.3555 20.7795 15.449 20.3266C16.5424 19.8737 17.536 19.2098 18.3729 18.3729C18.7634 17.9824 19.3966 17.9824 19.7871 18.3729C20.1776 18.7634 20.1776 19.3966 19.7871 19.7871C18.7645 20.8097 17.5504 21.6209 16.2143 22.1743C14.8782 22.7278 13.4462 23.0126 12 23.0126C10.5538 23.0126 9.12174 22.7278 7.78562 22.1743C6.44951 21.6209 5.23549 20.8097 4.21287 19.7871C3.19025 18.7645 2.37907 17.5505 1.82563 16.2144C1.27219 14.8782 0.987343 13.4462 0.987343 12C0.987343 10.5538 1.27219 9.12176 1.82563 7.78565C2.37907 6.44953 3.19025 5.23551 4.21287 4.21289C4.60339 3.82237 5.23656 3.82237 5.62708 4.21289Z" fill="black"/>
</svg>
