<svg width="24" height="24" viewBox="0 0 24 24" fill="none" xmlns="http://www.w3.org/2000/svg">
<path d="M9 17.9004V10C9 9.44771 9.44771 9 10 9C10.5523 9 11 9.44771 11 10V17.9004C10.9998 18.4525 10.5522 18.9004 10 18.9004C9.44785 18.9004 9.00021 18.4525 9 17.9004Z" fill="black"/>
<path d="M11.5618 5.17393C12.5648 4.92621 13.6153 4.94167 14.6106 5.21885C15.6059 5.49607 16.5128 6.02634 17.2434 6.75694C17.9739 7.4875 18.5033 8.3945 18.7805 9.38975C19.0576 10.385 19.0731 11.4347 18.8254 12.4376C18.693 12.9737 18.1516 13.3013 17.6155 13.169C17.0793 13.0366 16.7516 12.4943 16.884 11.9581C17.0492 11.2894 17.0386 10.5894 16.8538 9.92588C16.669 9.26246 16.3163 8.658 15.8293 8.171C15.3424 7.68401 14.7379 7.33044 14.0745 7.14561C13.4111 6.96085 12.7108 6.95032 12.0422 7.11533C11.5061 7.24774 10.9638 6.92096 10.8313 6.38487C10.6989 5.84882 11.0258 5.30651 11.5618 5.17393Z" fill="black"/>
<path d="M13 8.34314V6.09998C13 5.54769 13.4477 5.09998 14 5.09998C14.5523 5.09998 15 5.54769 15 6.09998V8.34314C14.9999 8.89535 14.5522 9.34314 14 9.34314C13.4478 9.34314 13.0001 8.89535 13 8.34314Z" fill="black"/>
<path d="M5.0011 13C5.0011 11.409 5.63311 9.88295 6.75793 8.75779L7.7218 7.79294C8.11215 7.40248 8.74523 7.40271 9.13586 7.79294C9.52632 8.18328 9.52705 8.81637 9.13684 9.207L8.17297 10.1718C7.42313 10.922 7.0011 11.9393 7.0011 13C7.0011 14.0606 7.42215 15.078 8.172 15.8281C8.92204 16.5781 9.93944 16.9989 11.0001 16.999C12.061 16.999 13.0791 16.5782 13.8292 15.8281L14.7931 14.8642C15.1836 14.4737 15.8166 14.4737 16.2072 14.8642C16.5975 15.2548 16.5976 15.8878 16.2072 16.2783L15.2433 17.2422C14.1181 18.3674 12.5914 18.999 11.0001 18.999C9.40901 18.9989 7.88305 18.3672 6.75793 17.2422C5.63311 16.117 5.0011 14.591 5.0011 13Z" fill="black"/>
<path d="M16.2344 1.15254C16.5996 1.00126 17.0019 0.961273 17.3896 1.03828C17.7292 1.1058 18.0447 1.26062 18.3057 1.48555L18.4141 1.58614L18.4189 1.59102C18.5849 1.75938 18.7884 1.88636 19.0127 1.96114C19.237 2.03587 19.4761 2.05582 19.71 2.02071L19.7178 2.01973C20.025 1.97598 20.3384 2.00455 20.6328 2.10274C20.9272 2.20094 21.1946 2.36669 21.4141 2.58614C21.6335 2.80556 21.7993 3.07304 21.8975 3.36739C21.9956 3.66169 22.0242 3.97529 21.9805 4.28243L21.9785 4.28926C21.9434 4.52304 21.9644 4.76223 22.0391 4.98653C22.0951 5.15484 22.1808 5.31158 22.291 5.44942L22.4092 5.58125L22.4141 5.58614C22.6936 5.86574 22.8837 6.22183 22.9609 6.60957C23.038 6.99733 22.9989 7.39956 22.8477 7.76485C22.6964 8.13011 22.44 8.44255 22.1113 8.66231C21.7825 8.88208 21.3955 9.00011 21 9.0002H17C16.4821 9.0002 16.0559 8.60625 16.0049 8.10176L16 8.0002L15.8975 7.99434C15.3934 7.94298 15.0001 7.51775 15 7.0002V3.0002C15.0001 2.60476 15.1172 2.21766 15.3369 1.88887C15.5566 1.56014 15.8691 1.3039 16.2344 1.15254ZM17 7.0002H21C20.6095 6.61367 20.3153 6.14066 20.1416 5.61934C19.9679 5.09796 19.9194 4.54276 20 3.99922C19.4567 4.07971 18.902 4.03223 18.3809 3.8586C17.8595 3.68491 17.3865 3.39064 17 3.0002V7.0002Z" fill="black"/>
<path d="M1.29302 1.29295C1.68354 0.90243 2.31655 0.90243 2.70708 1.29295L22.7071 21.293C23.0976 21.6835 23.0976 22.3165 22.7071 22.707C22.3166 23.0975 21.6835 23.0975 21.293 22.707L1.29302 2.70702C0.902491 2.31649 0.902491 1.68348 1.29302 1.29295Z" fill="black"/>
<path d="M3.00026 17C3.3907 17.3865 3.68497 17.8595 3.85866 18.3809C4.03229 18.902 4.07977 19.4567 3.99928 20C4.54283 19.9194 5.09802 19.9679 5.6194 20.1416C6.07748 20.2943 6.49814 20.5401 6.85573 20.8623L7.00026 21V17H3.00026ZM9.00026 21C9.00018 21.3955 8.88214 21.7825 8.66237 22.1113C8.44261 22.44 8.13017 22.6964 7.76491 22.8477C7.39962 22.9989 6.9974 23.038 6.60963 22.9609C6.22189 22.8837 5.8658 22.6936 5.5862 22.4141L5.58131 22.4092C5.41525 22.2407 5.21099 22.1138 4.98659 22.0391C4.76229 21.9644 4.5231 21.9434 4.28932 21.9785L4.28249 21.9805C3.97535 22.0242 3.66175 21.9956 3.36745 21.8975C3.0731 21.7993 2.80563 21.6335 2.5862 21.4141C2.36675 21.1946 2.201 20.9272 2.1028 20.6328C2.00461 20.3384 1.97604 20.025 2.01979 19.7178L2.02077 19.71C2.05588 19.4761 2.03593 19.237 1.9612 19.0127C1.88642 18.7884 1.75944 18.5849 1.59108 18.4189L1.5862 18.4141C1.30658 18.1344 1.11548 17.7776 1.03835 17.3896C0.961334 17.0019 1.00132 16.5996 1.1526 16.2344C1.30396 15.8691 1.56021 15.5566 1.88893 15.3369C2.21772 15.1172 2.60482 15.0001 3.00026 15H7.00026C7.51781 15.0001 7.94304 15.3934 7.9944 15.8975L8.00026 16L8.10182 16.0049C8.60631 16.0559 9.00026 16.4821 9.00026 17V21Z" fill="black"/>
</svg>
