<svg width="24" height="24" viewBox="0 0 24 24" fill="none" xmlns="http://www.w3.org/2000/svg">
<path fill-rule="evenodd" clip-rule="evenodd" d="M9 3V5H15V3H9ZM7 3C7 1.89543 7.89543 1 9 1H15C16.1046 1 17 1.89543 17 3V5C17 6.10457 16.1046 7 15 7H9C7.89543 7 7 6.10457 7 5V3Z" fill="black"/>
<path fill-rule="evenodd" clip-rule="evenodd" d="M15 4C15 3.44772 15.4477 3 16 3H18C18.7956 3 19.5587 3.31607 20.1213 3.87868C20.6839 4.44129 21 5.20435 21 6V20C21 20.7957 20.6839 21.5587 20.1213 22.1213C19.5587 22.6839 18.7957 23 18 23H12.5C11.9477 23 11.5 22.5523 11.5 22C11.5 21.4477 11.9477 21 12.5 21H18C18.2652 21 18.5196 20.8946 18.7071 20.7071C18.8946 20.5196 19 20.2652 19 20V6C19 5.73478 18.8946 5.48043 18.7071 5.29289C18.5196 5.10536 18.2652 5 18 5H16C15.4477 5 15 4.55228 15 4Z" fill="black"/>
<path fill-rule="evenodd" clip-rule="evenodd" d="M6 5C5.73478 5 5.48043 5.10536 5.29289 5.29289C5.10536 5.48043 5 5.73478 5 6V13.5C5 14.0523 4.55228 14.5 4 14.5C3.44772 14.5 3 14.0523 3 13.5V6C3 5.20435 3.31607 4.44129 3.87868 3.87868C4.44129 3.31607 5.20435 3 6 3H8C8.55228 3 9 3.44772 9 4C9 4.55228 8.55228 5 8 5H6Z" fill="black"/>
<path fill-rule="evenodd" clip-rule="evenodd" d="M10.6805 11.2377C11.0595 11.0807 11.4657 10.9999 11.876 10.9999C12.2863 10.9999 12.6925 11.0807 13.0716 11.2377C13.4506 11.3947 13.795 11.6248 14.0851 11.9149C14.3752 12.205 14.6054 12.5494 14.7624 12.9285C14.9194 13.3075 15.0002 13.7138 15.0002 14.124C15.0002 14.5343 14.9194 14.9406 14.7624 15.3196C14.6054 15.6986 14.3752 16.043 14.0851 16.3331L9.07232 21.3419C9.0723 21.342 9.07234 21.3419 9.07232 21.3419C8.7159 21.6985 8.27529 21.9596 7.79132 22.1009L4.92102 22.938C4.92101 22.938 4.92102 22.938 4.92102 22.938C4.66287 23.0133 4.38922 23.0178 4.12874 22.9511C3.86825 22.8844 3.63049 22.7488 3.44036 22.5587C3.25022 22.3686 3.11468 22.1308 3.04795 21.8703C2.98121 21.6098 2.98572 21.3362 3.06101 21.0781C3.06101 21.0781 3.06101 21.078 3.06101 21.0781L3.8981 18.2077C4.03939 17.7239 4.30031 17.2834 4.65677 16.9271C4.65666 16.9272 4.65688 16.927 4.65677 16.9271L9.66677 11.9151C9.95687 11.625 10.3014 11.3947 10.6805 11.2377ZM11.0813 13.329C11.0812 13.329 11.0813 13.3289 11.0813 13.329L6.07093 18.3413C5.95213 18.4601 5.86516 18.6068 5.81802 18.768L5.23627 20.7628L7.23071 20.1811C7.23061 20.1812 7.23082 20.1811 7.23071 20.1811C7.39192 20.134 7.53898 20.0469 7.65771 19.9281L12.6709 14.9189C12.7753 14.8145 12.8581 14.6906 12.9146 14.5542C12.9711 14.4178 13.0002 14.2717 13.0002 14.124C13.0002 13.9764 12.9711 13.8302 12.9146 13.6938C12.8581 13.5575 12.7753 13.4335 12.6709 13.3291C12.5665 13.2248 12.4426 13.1419 12.3062 13.0855C12.1698 13.029 12.0236 12.9999 11.876 12.9999C11.7284 12.9999 11.5822 13.029 11.4458 13.0855C11.3095 13.1419 11.1856 13.2247 11.0813 13.329Z" fill="black"/>
</svg>
