<svg width="24" height="24" viewBox="0 0 24 24" fill="none" xmlns="http://www.w3.org/2000/svg">
<path d="M13.3811 16.0862C13.5927 15.5762 14.1777 15.3338 14.6877 15.5452L15.6115 15.928C16.1215 16.1397 16.3632 16.7256 16.1516 17.2356C15.9398 17.7454 15.3549 17.9871 14.8449 17.7756L13.9221 17.3928C13.4121 17.1812 13.1697 16.5962 13.3811 16.0862Z" fill="black"/>
<path d="M14.8451 18.2242C15.3551 18.0127 15.9401 18.2552 16.1517 18.7652C16.3631 19.2751 16.1215 19.8601 15.6117 20.0718L14.6879 20.4546C14.1779 20.666 13.5929 20.4244 13.3812 19.9146C13.1695 19.4045 13.4121 18.8187 13.9222 18.607L14.8451 18.2242Z" fill="black"/>
<path d="M15 6V2C15 1.44772 15.4477 1 16 1C16.5523 1 17 1.44772 17 2V6C17 6.55228 16.5523 7 16 7C15.4477 7 15 6.55228 15 6Z" fill="black"/>
<path d="M16.0873 13.3812C16.5975 13.17 17.1826 13.4121 17.3939 13.9222L17.7758 14.846C17.9867 15.3562 17.7448 15.9404 17.2347 16.1517C16.7245 16.3628 16.1394 16.1208 15.9281 15.6107L15.5463 14.6878C15.3351 14.1776 15.5772 13.5925 16.0873 13.3812Z" fill="black"/>
<path d="M15.928 20.3892C16.1395 19.8791 16.7245 19.6369 17.2347 19.8482C17.7448 20.0597 17.9871 20.6446 17.7757 21.1548L17.3929 22.0787C17.1814 22.5888 16.5964 22.8311 16.0862 22.6197C15.576 22.4082 15.3337 21.8232 15.5452 21.313L15.928 20.3892Z" fill="black"/>
<path d="M18.6069 13.9222C18.8186 13.4121 19.4044 13.1695 19.9145 13.3812C20.4244 13.5929 20.6659 14.1779 20.4546 14.6878L20.0718 15.6117C19.8601 16.1215 19.2751 16.363 18.7651 16.1517C18.2551 15.9401 18.0127 15.3551 18.2241 14.845L18.6069 13.9222Z" fill="black"/>
<path d="M18.7661 19.8482C19.2764 19.6372 19.8607 19.8798 20.0717 20.3902L20.4536 21.314C20.6646 21.8244 20.4219 22.4087 19.9116 22.6197C19.4012 22.8305 18.8169 22.588 18.6059 22.0777L18.2241 21.1538C18.0131 20.6435 18.2557 20.0592 18.7661 19.8482Z" fill="black"/>
<path d="M21.3129 15.5452C21.8231 15.3337 22.4081 15.576 22.6196 16.0862C22.831 16.5964 22.5887 17.1814 22.0786 17.3928L21.1547 17.7756C20.6445 17.9871 20.0596 17.7448 19.8481 17.2346C19.6368 16.7245 19.879 16.1394 20.3891 15.928L21.3129 15.5452Z" fill="black"/>
<path d="M19.8481 18.7652C20.0596 18.255 20.6446 18.0128 21.1548 18.2242L22.0786 18.607C22.5887 18.8184 22.831 19.4035 22.6196 19.9136C22.4082 20.4238 21.8232 20.6661 21.313 20.4547L20.3892 20.0718C19.879 19.8604 19.6367 19.2754 19.8481 18.7652Z" fill="black"/>
<path d="M20 10.5918V6C20 5.73478 19.8946 5.4805 19.707 5.29297C19.5195 5.10543 19.2652 5 19 5H5C4.73478 5 4.4805 5.10543 4.29297 5.29297C4.10543 5.4805 4 5.73478 4 6V20C4 20.2652 4.10543 20.5195 4.29297 20.707C4.48051 20.8946 4.73478 21 5 21H11C11.5523 21 12 21.4477 12 22C12 22.5523 11.5523 23 11 23H5C4.20435 23 3.44152 22.6837 2.87891 22.1211C2.3163 21.5585 2 20.7957 2 20V6C2 5.20435 2.3163 4.44152 2.87891 3.87891C3.44152 3.3163 4.20435 3 5 3H19C19.7957 3 20.5585 3.3163 21.1211 3.87891C21.6837 4.44151 22 5.20435 22 6V10.5918C22 11.1441 21.5523 11.5918 21 11.5918C20.4477 11.5918 20 11.1441 20 10.5918Z" fill="black"/>
<path d="M21 9C21.5523 9 22 9.44771 22 10C22 10.5523 21.5523 11 21 11H3C2.44772 11 2 10.5523 2 10C2 9.44771 2.44772 9 3 9H21Z" fill="black"/>
<path d="M7 6V2C7 1.44772 7.44772 1 8 1C8.55228 1 9 1.44772 9 2V6C9 6.55228 8.55228 7 8 7C7.44772 7 7 6.55228 7 6Z" fill="black"/>
<path d="M20 18C20 16.8954 19.1046 16 18 16C16.8954 16 16 16.8954 16 18C16 19.1046 16.8954 20 18 20C19.1046 20 20 19.1046 20 18ZM22 18C22 20.2091 20.2091 22 18 22C15.7909 22 14 20.2091 14 18C14 15.7909 15.7909 14 18 14C20.2091 14 22 15.7909 22 18Z" fill="black"/>
</svg>
