<svg width="24" height="24" viewBox="0 0 24 24" fill="none" xmlns="http://www.w3.org/2000/svg">
<path fill-rule="evenodd" clip-rule="evenodd" d="M5.85893 7.01001C6.40569 6.93209 6.91209 7.31217 6.99001 7.85893L8.74017 20.1401C8.77413 20.3803 8.8943 20.6001 9.07829 20.7583C9.26227 20.9165 9.49751 21.0024 9.74017 21.0001C9.74345 21 9.74673 21 9.75001 21H14.29C14.2933 21 14.2966 21 14.2999 21.0001C14.5425 21.0024 14.7777 20.9165 14.9617 20.7583C15.1455 20.6002 15.2656 20.3808 15.2997 20.1409C15.2997 20.1411 15.2998 20.1406 15.2997 20.1409L17.0096 7.86209C17.0857 7.31508 17.5909 6.9334 18.1379 7.00957C18.6849 7.08574 19.0666 7.59092 18.9905 8.13793L17.2805 20.4179L17.2802 20.42C17.1783 21.1408 16.8178 21.8 16.2658 22.2747C15.7152 22.7482 15.0117 23.0058 14.2856 23H9.75438C9.02836 23.0058 8.32478 22.7482 7.77421 22.2747C7.22241 21.8001 6.86194 21.1412 6.75994 20.4206C6.75991 20.4204 6.75997 20.4208 6.75994 20.4206L5.01001 8.14109C4.93209 7.59433 5.31217 7.08793 5.85893 7.01001Z" fill="black"/>
<path fill-rule="evenodd" clip-rule="evenodd" d="M4 8C4 7.44772 4.44772 7 5 7H19C19.5523 7 20 7.44772 20 8C20 8.55228 19.5523 9 19 9H5C4.44772 9 4 8.55228 4 8Z" fill="black"/>
<path fill-rule="evenodd" clip-rule="evenodd" d="M9.49999 15.4975C8.77425 15.4975 8.05576 15.6419 7.38639 15.9223C6.877 16.1357 6.29106 15.8958 6.07766 15.3864C5.86425 14.877 6.1042 14.2911 6.61359 14.0777C7.52771 13.6947 8.50889 13.4975 9.49999 13.4975C10.4911 13.4975 11.4723 13.6947 12.3864 14.0777C13.0558 14.3581 13.7742 14.5025 14.5 14.5025C15.2257 14.5025 15.9442 14.3581 16.6136 14.0777C17.123 13.8643 17.7089 14.1042 17.9223 14.6136C18.1357 15.123 17.8958 15.7089 17.3864 15.9223C16.4723 16.3053 15.4911 16.5025 14.5 16.5025C13.5089 16.5025 12.5277 16.3053 11.6136 15.9223C10.9442 15.6419 10.2257 15.4975 9.49999 15.4975Z" fill="black"/>
<path fill-rule="evenodd" clip-rule="evenodd" d="M12.0136 1.8356C12.094 1.35341 12.5112 1 13 1H15C15.5523 1 16 1.44772 16 2C16 2.55228 15.5523 3 15 3H13.8471L12.9864 8.1644C12.8956 8.70917 12.3804 9.07719 11.8356 8.98639C11.2908 8.8956 10.9228 8.38037 11.0136 7.8356L12.0136 1.8356Z" fill="black"/>
</svg>
