<svg width="24" height="24" viewBox="0 0 24 24" fill="none" xmlns="http://www.w3.org/2000/svg">
<path d="M21.2929 1.29295C21.6834 0.90243 22.3164 0.90243 22.707 1.29295C23.0975 1.68348 23.0975 2.31649 22.707 2.70702L2.70696 22.707C2.31643 23.0975 1.68342 23.0975 1.29289 22.707C0.902369 22.3165 0.902369 21.6835 1.29289 21.293L21.2929 1.29295Z" fill="black"/>
<path d="M21 12C21 7.02944 16.9706 3 12 3C7.02944 3 3 7.02944 3 12C3 16.9706 7.02944 21 12 21C16.9706 21 21 16.9706 21 12ZM23 12C23 18.0751 18.0751 23 12 23C5.92487 23 1 18.0751 1 12C1 5.92487 5.92487 1 12 1C18.0751 1 23 5.92487 23 12Z" fill="black"/>
</svg>
