<svg width="24" height="24" viewBox="0 0 24 24" fill="none" xmlns="http://www.w3.org/2000/svg">
<path d="M19.2929 14.293C19.6834 13.9024 20.3164 13.9024 20.707 14.293C21.0975 14.6835 21.0975 15.3165 20.707 15.707L15.707 20.707C15.3164 21.0975 14.6834 21.0975 14.2929 20.707L9.29289 15.707C8.90237 15.3165 8.90237 14.6835 9.29289 14.293C9.68342 13.9024 10.3164 13.9024 10.707 14.293L14.9999 18.5859L19.2929 14.293Z" fill="black"/>
<path d="M14 20V8C14 7.20435 13.6837 6.44152 13.1211 5.87891C12.5585 5.3163 11.7956 5 11 5H4C3.44772 5 3 4.55228 3 4C3 3.44772 3.44772 3 4 3H11C12.3261 3 13.5975 3.52716 14.5352 4.46484C15.4728 5.40253 16 6.67392 16 8V20C16 20.5523 15.5523 21 15 21C14.4477 21 14 20.5523 14 20Z" fill="black"/>
</svg>
