<svg width="24" height="24" viewBox="0 0 24 24" fill="none" xmlns="http://www.w3.org/2000/svg">
<path d="M9.92258 9.5825C10.3945 9.29577 11.0098 9.44562 11.2966 9.91746C11.5833 10.3893 11.4333 11.0046 10.9616 11.2915C10.7027 11.4488 10.4822 11.6628 10.3181 11.9175C10.154 12.1722 10.0505 12.4613 10.0144 12.7622C9.97821 13.063 10.0101 13.3684 10.1091 13.6548C10.2081 13.9411 10.3714 14.2013 10.5857 14.4155C10.7999 14.6297 11.0601 14.7921 11.3464 14.8911C11.6328 14.9901 11.9381 15.023 12.239 14.9868C12.5397 14.9506 12.8281 14.8461 13.0827 14.6821C13.3374 14.518 13.5524 14.2976 13.7097 14.0386C13.9965 13.5669 14.6108 13.4171 15.0827 13.7036C15.5547 13.9902 15.7051 14.6046 15.4187 15.0766C15.1042 15.5946 14.676 16.0345 14.1667 16.3628C13.6573 16.6911 13.0799 16.8997 12.4782 16.9722C11.8766 17.0446 11.2659 16.9796 10.6931 16.7817C10.1204 16.5838 9.60014 16.258 9.1716 15.8296C8.74304 15.4011 8.41751 14.8808 8.21945 14.3081C8.0214 13.7353 7.95571 13.1246 8.02805 12.5229C8.10043 11.9214 8.30933 11.3438 8.63742 10.8345C8.96553 10.3252 9.40487 9.89709 9.92258 9.5825Z" fill="black"/>
<path d="M1.29289 1.29295C1.68342 0.90243 2.31643 0.90243 2.70696 1.29295L22.707 21.293C23.0975 21.6835 23.0975 22.3165 22.707 22.707C22.3164 23.0975 21.6834 23.0975 21.2929 22.707L1.29289 2.70702C0.902369 2.31649 0.902369 1.68348 1.29289 1.29295Z" fill="black"/>
<path d="M1 17.9998V8.9998C1.00005 8.20422 1.31634 7.44127 1.87891 6.8787C2.44151 6.31616 3.2044 5.9998 4 5.9998H5.99707C6.13822 5.99986 6.27843 5.97062 6.40723 5.91288C6.91114 5.68705 7.50258 5.91194 7.72852 6.41581C7.95444 6.91977 7.72857 7.51118 7.22461 7.7371C6.83844 7.91018 6.42025 7.99991 5.99707 7.9998H4C3.73483 7.9998 3.4805 8.10529 3.29297 8.29277C3.10548 8.48026 3.00005 8.73465 3 8.9998V17.9998C3 18.265 3.10549 18.5193 3.29297 18.7068C3.48051 18.8944 3.73478 18.9998 4 18.9998H20C20.5522 18.9998 20.9999 19.4476 21 19.9998C21 20.5521 20.5523 20.9998 20 20.9998H4C3.20435 20.9998 2.44152 20.6835 1.87891 20.1209C1.31636 19.5583 1 18.7954 1 17.9998Z" fill="black"/>
<path d="M20.9997 16.3438V9C20.9997 8.73478 20.8942 8.48051 20.7067 8.29297C20.5192 8.10553 20.2648 8 19.9997 8H18.0026C17.4616 7.99994 16.9302 7.85338 16.4655 7.57617C16.0009 7.29891 15.62 6.90091 15.363 6.4248L14.8766 5.52539C14.791 5.36672 14.6643 5.23402 14.5094 5.1416C14.3545 5.04918 14.1771 5 13.9968 5H10.0036C9.95198 5.00002 9.90029 5.00375 9.84929 5.01172C9.30374 5.09694 8.79211 4.72422 8.70671 4.17871C8.62141 3.63305 8.99504 3.12144 9.5407 3.03613C9.69384 3.0122 9.84858 3.00002 10.0036 3H13.9968C14.5379 2.99999 15.0691 3.14658 15.5339 3.42383C15.9986 3.7011 16.3803 4.09896 16.6374 4.5752L17.1227 5.47461C17.2084 5.63336 17.336 5.76597 17.4909 5.8584C17.6457 5.95075 17.8224 5.99994 18.0026 6H19.9997C20.7953 6 21.5591 6.3163 22.1218 6.87891C22.6842 7.44148 22.9997 8.20451 22.9997 9V16.3438C22.9997 16.896 22.552 17.3438 21.9997 17.3438C21.4475 17.3436 20.9997 16.8959 20.9997 16.3438Z" fill="black"/>
</svg>
