<svg width="24" height="24" viewBox="0 0 24 24" fill="none" xmlns="http://www.w3.org/2000/svg">
<path fill-rule="evenodd" clip-rule="evenodd" d="M11.2368 2.21585C11.468 2.07926 11.7315 2.0072 12 2.0072C12.2685 2.0072 12.532 2.07926 12.7631 2.21585C12.9943 2.35244 13.1845 2.54856 13.314 2.78374C13.317 2.78913 13.3199 2.79454 13.3228 2.79999L16.269 8.393L20.5324 4.74061C20.5389 4.73508 20.5454 4.72962 20.552 4.72425C20.7983 4.52392 21.1018 4.40691 21.4189 4.39006C21.7359 4.37321 22.0501 4.45739 22.3163 4.63049C22.5825 4.8036 22.7868 5.05669 22.9 5.35333C23.0131 5.64996 23.0293 5.97486 22.946 6.28125C22.9456 6.28271 22.9452 6.28417 22.9448 6.28563L20.111 16.531C19.9953 16.9503 19.746 17.3205 19.401 17.5854C19.056 17.8503 18.634 17.9955 18.199 17.999C18.1963 17.999 18.1937 17.999 18.191 17.999H5.81C5.80767 17.999 5.80534 17.999 5.80302 17.999C5.36769 17.996 4.94524 17.851 4.5998 17.586C4.25451 17.3212 4.00502 16.951 3.88917 16.5316L1.05617 6.28657C1.05577 6.28513 1.05538 6.28369 1.05499 6.28225C0.971736 5.97587 0.98785 5.65097 1.10101 5.35433C1.21417 5.05768 1.41853 4.80459 1.68469 4.63149C1.95084 4.45839 2.26506 4.37421 2.58211 4.39106C2.89915 4.40791 3.20268 4.52492 3.44899 4.72525C3.45562 4.73065 3.46218 4.73613 3.46867 4.74169L7.73103 8.394L10.6772 2.80005C10.6801 2.79459 10.683 2.78915 10.686 2.78374C10.8155 2.54856 11.0057 2.35244 11.2368 2.21585ZM12 4.58029L14.5052 9.33611C14.5071 9.33972 14.5091 9.34331 14.511 9.3469C14.6518 9.60642 14.8483 9.83155 15.0864 10.0061C15.3245 10.1807 15.5984 10.3004 15.8882 10.3566C16.1781 10.4128 16.4768 10.4042 16.7629 10.3313C17.049 10.2583 17.3154 10.123 17.543 9.9349C17.5476 9.93113 17.5521 9.92732 17.5566 9.92348L20.5799 7.3335L18.183 15.999H5.81697L3.42106 7.3347L6.44332 9.9244C6.44784 9.92828 6.45239 9.93211 6.45698 9.9359C6.68458 10.124 6.951 10.2593 7.23711 10.3323C7.52322 10.4052 7.82193 10.4138 8.11178 10.3576C8.40164 10.3014 8.67545 10.1817 8.91357 10.0071C9.15168 9.83256 9.34819 9.60742 9.48898 9.3479C9.49094 9.34429 9.49287 9.34067 9.49478 9.33704L12 4.58029Z" fill="black"/>
<path fill-rule="evenodd" clip-rule="evenodd" d="M4 21.0001C4 20.4478 4.44772 20.0001 5 20.0001H19C19.5523 20.0001 20 20.4478 20 21.0001C20 21.5523 19.5523 22.0001 19 22.0001H5C4.44772 22.0001 4 21.5523 4 21.0001Z" fill="black"/>
</svg>
