<svg width="24" height="24" viewBox="0 0 24 24" fill="none" xmlns="http://www.w3.org/2000/svg">
<path fill-rule="evenodd" clip-rule="evenodd" d="M3 2C3.55228 2 4 2.44772 4 3V19C4 19.2652 4.10536 19.5196 4.29289 19.7071C4.48043 19.8946 4.73478 20 5 20H21C21.5523 20 22 20.4477 22 21C22 21.5523 21.5523 22 21 22H5C4.20435 22 3.44129 21.6839 2.87868 21.1213C2.31607 20.5587 2 19.7956 2 19V3C2 2.44772 2.44772 2 3 2Z" fill="black"/>
<path fill-rule="evenodd" clip-rule="evenodd" d="M18 9.41422V16H8V11.4142L9.5 9.91422L12.438 12.8522C12.4378 12.852 12.4382 12.8524 12.438 12.8522C12.4381 12.8523 12.4388 12.853 12.4389 12.8531C12.578 12.9924 12.7433 13.1029 12.9251 13.1784C13.1073 13.254 13.3027 13.2929 13.5 13.2929C13.6973 13.2929 13.8927 13.254 14.0749 13.1784C14.257 13.1028 14.4224 12.9921 14.5617 12.8525C14.5616 12.8526 14.5618 12.8524 14.5617 12.8525L18 9.41422ZM18.2059 6.73623C18.4969 6.67803 18.7987 6.70749 19.073 6.82087C19.3473 6.93424 19.5818 7.12645 19.7468 7.37316C19.9118 7.61987 19.9999 7.90999 20 8.20679V16C20 16.5304 19.7893 17.0391 19.4142 17.4142C19.0391 17.7893 18.5304 18 18 18H8C7.46957 18 6.96086 17.7893 6.58579 17.4142C6.21071 17.0391 6 16.5304 6 16V11.2068C6.00008 10.8097 6.15759 10.4289 6.438 10.1478L8.438 8.14779C8.43782 8.14797 8.43818 8.14761 8.438 8.14779C8.57723 8.00836 8.74311 7.89717 8.9251 7.82165C9.10733 7.74604 9.3027 7.70711 9.5 7.70711C9.6973 7.70711 9.89267 7.74604 10.0749 7.82165C10.2569 7.89717 10.4222 8.00781 10.5615 8.14724C10.5613 8.14706 10.5616 8.14742 10.5615 8.14724L13.5 11.0858L17.438 7.14779C17.4383 7.14749 17.4386 7.1472 17.4389 7.1469M18.2059 6.73623C17.9153 6.79434 17.6484 6.93724 17.4389 7.1469L18.2059 6.73623Z" fill="black"/>
</svg>
