<svg width="24" height="24" viewBox="0 0 24 24" fill="none" xmlns="http://www.w3.org/2000/svg">
<path fill-rule="evenodd" clip-rule="evenodd" d="M10.5021 1.40277C10.9576 1.14026 11.4742 1.00208 12 1.00208C12.5258 1.00208 13.0423 1.14026 13.4979 1.40277L13.5 1.404L20.4961 5.40178L20.5 5.404C20.9556 5.66704 21.334 6.04527 21.5973 6.50074C21.8606 6.95621 21.9994 7.47291 22 7.999V16.0011C21.9994 16.5271 21.8606 17.0438 21.5973 17.4993C21.334 17.9548 20.9556 18.333 20.5 18.5961L20.4961 18.5983L13.5 22.5961L13.4981 22.5972C13.0425 22.8597 12.5259 22.998 12 22.998C11.4741 22.998 10.9575 22.8597 10.5019 22.5972L10.5 22.5961L3.50384 18.5983L3.49998 18.5961C3.04438 18.333 2.66595 17.9548 2.40268 17.4993C2.1394 17.0438 2.00052 16.5271 1.99998 16.0011V7.999C2.00052 7.47291 2.1394 6.95621 2.40268 6.50074C2.66595 6.04527 3.04438 5.66704 3.49998 5.404L3.50384 5.40178L10.5021 1.40277ZM12 3.00208C11.8244 3.00208 11.652 3.04828 11.5 3.13605L11.4961 3.13827L4.4984 7.13697C4.34723 7.22461 4.22167 7.35034 4.13421 7.50163C4.04653 7.65333 4.00024 7.82541 3.99998 8.00062V15.9994C4.00024 16.1746 4.04653 16.3467 4.13421 16.4984C4.22165 16.6497 4.34719 16.7754 4.49832 16.863L4.49998 16.864L11.4961 20.8618L11.5 20.864C11.652 20.9518 11.8244 20.998 12 20.998C12.1755 20.998 12.348 20.9518 12.5 20.864L12.5038 20.8618L19.5 16.864L19.5016 16.8631C19.6528 16.7754 19.7783 16.6497 19.8658 16.4984C19.9535 16.3466 19.9998 16.1744 20 15.999V8.00105C19.9998 7.82569 19.9535 7.65345 19.8658 7.50163C19.7783 7.35033 19.6527 7.22459 19.5015 7.13695L19.5 7.13605L12.5038 3.13827L12.5 3.13605C12.348 3.04828 12.1755 3.00208 12 3.00208Z" fill="black"/>
<path fill-rule="evenodd" clip-rule="evenodd" d="M6.63412 3.70978C6.91041 3.23157 7.52206 3.06789 8.00026 3.34419L12 5.65514L15.9997 3.34419C16.4779 3.06789 17.0896 3.23157 17.3658 3.70978C17.6421 4.18798 17.4785 4.79962 17.0003 5.07592L12.5003 7.67592C12.1907 7.85477 11.8092 7.85477 11.4997 7.67592L6.99971 5.07592C6.5215 4.79962 6.35782 4.18798 6.63412 3.70978Z" fill="black"/>
<path fill-rule="evenodd" clip-rule="evenodd" d="M2.13412 11.4997C2.41041 11.0215 3.02206 10.8579 3.50026 11.1342L8.00026 13.7342C8.30951 13.9128 8.49998 14.2429 8.49998 14.6V19.79C8.49998 20.3423 8.05227 20.79 7.49998 20.79C6.9477 20.79 6.49998 20.3423 6.49998 19.79V15.1772L2.49971 12.8659C2.0215 12.5896 1.85782 11.9779 2.13412 11.4997Z" fill="black"/>
<path fill-rule="evenodd" clip-rule="evenodd" d="M21.8658 11.4997C22.1421 11.9779 21.9785 12.5896 21.5003 12.8659L17.5 15.1772V19.79C17.5 20.3423 17.0523 20.79 16.5 20.79C15.9477 20.79 15.5 20.3423 15.5 19.79V14.6C15.5 14.2429 15.6905 13.9128 15.9997 13.7342L20.4997 11.1342C20.9779 10.8579 21.5896 11.0215 21.8658 11.4997Z" fill="black"/>
<path fill-rule="evenodd" clip-rule="evenodd" d="M2.40438 6.45933C2.68092 5.98127 3.29265 5.8179 3.77071 6.09445L12 10.8548L20.2293 6.09445C20.7073 5.8179 21.319 5.98127 21.5956 6.45933C21.8721 6.93739 21.7088 7.54912 21.2307 7.82566L12.5007 12.8757C12.1909 13.0549 11.809 13.0549 11.4993 12.8757L2.76926 7.82566C2.2912 7.54912 2.12783 6.93739 2.40438 6.45933Z" fill="black"/>
<path fill-rule="evenodd" clip-rule="evenodd" d="M12 11C12.5523 11 13 11.4477 13 12V22.08C13 22.6323 12.5523 23.08 12 23.08C11.4477 23.08 11 22.6323 11 22.08V12C11 11.4477 11.4477 11 12 11Z" fill="black"/>
</svg>
