<svg width="24" height="24" viewBox="0 0 24 24" fill="none" xmlns="http://www.w3.org/2000/svg">
<path fill-rule="evenodd" clip-rule="evenodd" d="M12 3C7.02944 3 3 7.02944 3 12C3 16.9706 7.02944 21 12 21C16.9706 21 21 16.9706 21 12C21 7.02944 16.9706 3 12 3ZM1 12C1 5.92487 5.92487 1 12 1C18.0751 1 23 5.92487 23 12C23 18.0751 18.0751 23 12 23C5.92487 23 1 18.0751 1 12Z" fill="black"/>
<path fill-rule="evenodd" clip-rule="evenodd" d="M12.2582 8.02434C11.7926 7.94449 11.3139 8.03197 10.9067 8.27129C10.4995 8.51061 10.1901 8.88631 10.0334 9.33187C9.8501 9.85286 9.27918 10.1266 8.75819 9.94336C8.23721 9.76009 7.96343 9.18917 8.1467 8.66818C8.46018 7.77707 9.07891 7.02566 9.89331 6.54703C10.7077 6.06839 11.6652 5.89343 12.5963 6.05313C13.5273 6.21283 14.3718 6.69688 14.9801 7.41955C15.5883 8.14201 15.9212 9.05634 15.92 10.0007C15.9197 11.5312 14.785 12.5419 13.9747 13.0821C13.5391 13.3725 13.1106 13.586 12.7949 13.7263C12.6357 13.7971 12.5016 13.8508 12.4049 13.8876C12.3565 13.9061 12.3173 13.9204 12.2887 13.9305C12.2744 13.9356 12.2628 13.9397 12.254 13.9427C12.2496 13.9442 12.2459 13.9455 12.2429 13.9465C12.2415 13.947 12.2402 13.9474 12.239 13.9478L12.2375 13.9483C12.2372 13.9484 12.2363 13.9487 11.92 13L12.2363 13.9487C11.7123 14.1234 11.146 13.8402 10.9714 13.3163C10.7969 12.793 11.0791 12.2275 11.6018 12.052C11.602 12.0519 11.6026 12.0518 11.6033 12.0515C11.6058 12.0506 11.611 12.0488 11.6187 12.0461C11.6341 12.0406 11.6593 12.0315 11.6929 12.0187C11.7604 11.993 11.8607 11.9529 11.9826 11.8987C12.2295 11.789 12.551 11.6276 12.8653 11.418C13.5549 10.9582 13.92 10.4692 13.92 10V9.99854C13.9207 9.52622 13.7543 9.06889 13.4501 8.70755C13.1459 8.34622 12.7237 8.10419 12.2582 8.02434Z" fill="black"/>
<path fill-rule="evenodd" clip-rule="evenodd" d="M11 17C11 16.4477 11.4477 16 12 16H12.01C12.5623 16 13.01 16.4477 13.01 17C13.01 17.5523 12.5623 18 12.01 18H12C11.4477 18 11 17.5523 11 17Z" fill="black"/>
</svg>
