<svg width="24" height="24" viewBox="0 0 24 24" fill="none" xmlns="http://www.w3.org/2000/svg">
<path d="M18 20C18 19.7348 17.8946 19.4805 17.707 19.293C17.5195 19.1055 17.2652 19 17 19H7C6.73478 19 6.48051 19.1055 6.29297 19.293C6.10543 19.4805 6 19.7348 6 20V21H18V20ZM20 21C20 21.5305 19.7891 22.039 19.4141 22.4141C19.039 22.7892 18.5304 23 18 23H6C5.46957 23 4.96101 22.7892 4.58594 22.4141C4.21086 22.039 4 21.5305 4 21V20C4 19.2044 4.3163 18.4416 4.87891 17.879C5.44151 17.3163 6.20435 17 7 17H17C17.7957 17 18.5585 17.3163 19.1211 17.879C19.6837 18.4416 20 19.2044 20 20V21Z" fill="black"/>
<path d="M17 13.0772C17 11.1837 16.2254 9.21583 15.0869 7.37211C14.1668 5.88213 13.0408 4.52719 12 3.42973C10.9592 4.52723 9.8332 5.88202 8.91309 7.37211C7.7745 9.21607 7 11.1841 7 13.0772C7.00006 15.1399 8.26057 16.6166 9.37891 17.0752C9.88983 17.2847 10.1342 17.868 9.9248 18.379C9.71532 18.8899 9.13204 19.1342 8.62109 18.9248C6.73955 18.1534 5.00006 15.9382 5 13.0772C5 10.6633 5.97556 8.32358 7.21191 6.32133C8.45472 4.30866 10.0122 2.55328 11.2979 1.28715L11.374 1.21977C11.7648 0.905512 12.3373 0.92785 12.7021 1.28715C13.9878 2.55326 15.5453 4.30873 16.7881 6.32133C18.0244 8.32345 19 10.6629 19 13.0772C18.9999 15.9382 17.2605 18.1534 15.3789 18.9248C14.868 19.1342 14.2847 18.8899 14.0752 18.379C13.8658 17.868 14.1102 17.2847 14.6211 17.0752C15.7394 16.6166 16.9999 15.1399 17 13.0772Z" fill="black"/>
<path d="M15.293 6.29301C15.6835 5.90249 16.3165 5.90249 16.707 6.29301C17.0976 6.68354 17.0976 7.31655 16.707 7.70708L14.207 10.2071C13.8165 10.5976 13.1835 10.5976 12.793 10.2071C12.4024 9.81655 12.4024 9.18354 12.793 8.79301L15.293 6.29301Z" fill="black"/>
<path d="M15 1.00004C15.5523 1.00004 16 1.44776 16 2.00004C16 2.55233 15.5523 3.00004 15 3.00004H9C8.44772 3.00004 8 2.55233 8 2.00004C8 1.44776 8.44772 1.00004 9 1.00004H15Z" fill="black"/>
</svg>
