<svg width="24" height="24" viewBox="0 0 24 24" fill="none" xmlns="http://www.w3.org/2000/svg">
<path d="M11 22V20C11 19.4477 11.4477 19 12 19C12.5523 19 13 19.4477 13 20V22C13 22.5523 12.5523 23 12 23C11.4477 23 11 22.5523 11 22Z" fill="black"/>
<path d="M11 4V2C11 1.44772 11.4477 1 12 1C12.5523 1 13 1.44772 13 2V4C13 4.55228 12.5523 5 12 5C11.4477 5 11 4.55228 11 4Z" fill="black"/>
<path d="M16 22V20C16 19.4477 16.4477 19 17 19C17.5523 19 18 19.4477 18 20V22C18 22.5523 17.5523 23 17 23C16.4477 23 16 22.5523 16 22Z" fill="black"/>
<path d="M16 4V2C16 1.44772 16.4477 1 17 1C17.5523 1 18 1.44772 18 2V4C18 4.55228 17.5523 5 17 5C16.4477 5 16 4.55228 16 4Z" fill="black"/>
<path d="M4 11C4.55228 11 5 11.4477 5 12C5 12.5523 4.55228 13 4 13H2C1.44772 13 1 12.5523 1 12C1 11.4477 1.44772 11 2 11H4Z" fill="black"/>
<path d="M4 16C4.55228 16 5 16.4477 5 17C5 17.5523 4.55228 18 4 18H2C1.44772 18 1 17.5523 1 17C1 16.4477 1.44772 16 2 16H4Z" fill="black"/>
<path d="M4 6C4.55228 6 5 6.44772 5 7C5 7.55228 4.55228 8 4 8H2C1.44772 8 1 7.55228 1 7C1 6.44772 1.44772 6 2 6H4Z" fill="black"/>
<path d="M22 11C22.5523 11 23 11.4477 23 12C23 12.5523 22.5523 13 22 13H20C19.4477 13 19 12.5523 19 12C19 11.4477 19.4477 11 20 11H22Z" fill="black"/>
<path d="M22 16C22.5523 16 23 16.4477 23 17C23 17.5523 22.5523 18 22 18H20C19.4477 18 19 17.5523 19 17C19 16.4477 19.4477 16 20 16H22Z" fill="black"/>
<path d="M22 6C22.5523 6 23 6.44772 23 7C23 7.55228 22.5523 8 22 8H20C19.4477 8 19 7.55228 19 7C19 6.44772 19.4477 6 20 6H22Z" fill="black"/>
<path d="M6 22V20C6 19.4477 6.44772 19 7 19C7.55228 19 8 19.4477 8 20V22C8 22.5523 7.55228 23 7 23C6.44772 23 6 22.5523 6 22Z" fill="black"/>
<path d="M6 4V2C6 1.44772 6.44772 1 7 1C7.55228 1 8 1.44772 8 2V4C8 4.55228 7.55228 5 7 5C6.44772 5 6 4.55228 6 4Z" fill="black"/>
<path d="M19 6C19 5.44772 18.5523 5 18 5H6C5.44772 5 5 5.44772 5 6V18C5 18.5523 5.44772 19 6 19H18C18.5523 19 19 18.5523 19 18V6ZM21 18C21 19.6569 19.6569 21 18 21H6C4.34315 21 3 19.6569 3 18V6C3 4.34315 4.34315 3 6 3H18C19.6569 3 21 4.34315 21 6V18Z" fill="black"/>
<path d="M9 9V15H15V9H9ZM17 15C17 16.1046 16.1046 17 15 17H9C7.89543 17 7 16.1046 7 15V9C7 7.89543 7.89543 7 9 7H15C16.1046 7 17 7.89543 17 9V15Z" fill="black"/>
</svg>
