<svg width="24" height="24" viewBox="0 0 24 24" fill="none" xmlns="http://www.w3.org/2000/svg">
<path fill-rule="evenodd" clip-rule="evenodd" d="M17.1722 3.06241L3.68739 7.0579L3.68612 7.05829C3.2525 7.18917 2.91185 7.70088 3.05497 8.29855L3.61093 9.7811L18.9456 5.32336L18.4443 3.69416C18.4436 3.69192 18.4429 3.68967 18.4422 3.68742C18.3098 3.2461 17.783 2.90061 17.1722 3.06241ZM20.3567 3.10896C19.8882 1.55485 18.221 0.70329 16.6369 1.13531C16.6299 1.13722 16.6229 1.13921 16.616 1.14128L3.11596 5.14128L3.1127 5.14225C1.55619 5.6092 0.70291 7.27783 1.13528 8.86319C1.1434 8.89295 1.15289 8.92232 1.16372 8.9512L2.06372 11.3512C2.24731 11.8408 2.77709 12.1063 3.27919 11.9603L20.4792 6.96033C20.7365 6.88554 20.953 6.71064 21.0802 6.47484C21.2074 6.23904 21.2346 5.96206 21.1558 5.70599L20.3567 3.10896Z" fill="black"/>
<path fill-rule="evenodd" clip-rule="evenodd" d="M5.5778 4.51721C6.01014 4.17355 6.63921 4.24545 6.98287 4.67779L10.0829 8.57779C10.4265 9.01013 10.3546 9.6392 9.92229 9.98286C9.48995 10.3265 8.86088 10.2546 8.51722 9.82228L5.41722 5.92228C5.07356 5.48994 5.14546 4.86087 5.5778 4.51721Z" fill="black"/>
<path fill-rule="evenodd" clip-rule="evenodd" d="M11.7875 2.60967C12.224 2.27135 12.8522 2.35098 13.1905 2.78751L16.2905 6.78751C16.6288 7.22404 16.5492 7.85218 16.1126 8.1905C15.6761 8.52881 15.0479 8.44919 14.7096 8.01265L11.6096 4.01265C11.2713 3.57612 11.3509 2.94798 11.7875 2.60967Z" fill="black"/>
<path fill-rule="evenodd" clip-rule="evenodd" d="M2 11C2 10.4478 2.44772 10 3 10H21C21.5523 10 22 10.4478 22 11V19C22 19.7957 21.6839 20.5587 21.1213 21.1214C20.5587 21.684 19.7957 22 19 22H5C4.20435 22 3.44129 21.684 2.87868 21.1214C2.31607 20.5587 2 19.7957 2 19V11ZM4 12V19C4 19.2653 4.10536 19.5196 4.2929 19.7071C4.48043 19.8947 4.73479 20 5 20H19C19.2652 20 19.5196 19.8947 19.7071 19.7071C19.8946 19.5196 20 19.2653 20 19V12H4Z" fill="black"/>
</svg>
