<svg width="24" height="24" viewBox="0 0 24 24" fill="none" xmlns="http://www.w3.org/2000/svg">
<path fill-rule="evenodd" clip-rule="evenodd" d="M11 12C11.5523 12 12 12.4477 12 13V17C12 17.5523 11.5523 18 11 18C10.4477 18 10 17.5523 10 17V13C10 12.4477 10.4477 12 11 12Z" fill="black"/>
<path fill-rule="evenodd" clip-rule="evenodd" d="M15 4C15.5523 4 16 4.44772 16 5V9C16 9.55228 15.5523 10 15 10C14.4477 10 14 9.55228 14 9V5C14 4.44772 14.4477 4 15 4Z" fill="black"/>
<path fill-rule="evenodd" clip-rule="evenodd" d="M3 2C3.55228 2 4 2.44772 4 3V19C4 19.2652 4.10536 19.5196 4.29289 19.7071C4.48043 19.8946 4.73478 20 5 20H21C21.5523 20 22 20.4477 22 21C22 21.5523 21.5523 22 21 22H5C4.20435 22 3.44129 21.6839 2.87868 21.1213C2.31607 20.5587 2 19.7956 2 19V3C2 2.44772 2.44772 2 3 2Z" fill="black"/>
<path fill-rule="evenodd" clip-rule="evenodd" d="M8 14V16H15V14H8ZM6 14C6 12.8954 6.89543 12 8 12H15C16.1046 12 17 12.8954 17 14V16C17 17.1046 16.1046 18 15 18H8C6.89543 18 6 17.1046 6 16V14Z" fill="black"/>
<path fill-rule="evenodd" clip-rule="evenodd" d="M8 6V8H18V6H8ZM6 6C6 4.89543 6.89543 4 8 4H18C19.1046 4 20 4.89543 20 6V8C20 9.10457 19.1046 10 18 10H8C6.89543 10 6 9.10457 6 8V6Z" fill="black"/>
</svg>
