<svg width="24" height="24" viewBox="0 0 24 24" fill="none" xmlns="http://www.w3.org/2000/svg">
<path d="M12.0098 10.9999C12.562 10.9999 13.0098 11.4477 13.0098 11.9999C13.0098 12.5522 12.562 12.9999 12.0098 12.9999H12C11.4477 12.9999 11 12.5522 11 11.9999C11 11.4477 11.4477 10.9999 12 10.9999H12.0098Z" fill="black"/>
<path d="M16.0098 10.9999C16.562 10.9999 17.0098 11.4477 17.0098 11.9999C17.0098 12.5522 16.562 12.9999 16.0098 12.9999H16C15.4477 12.9999 15 12.5522 15 11.9999C15 11.4477 15.4477 10.9999 16 10.9999H16.0098Z" fill="black"/>
<path d="M16.2929 6.29289C16.6834 5.90237 17.3164 5.90237 17.707 6.29289L22.707 11.2929C23.0975 11.6834 23.0975 12.3164 22.707 12.707L17.707 17.707C17.3164 18.0975 16.6834 18.0975 16.2929 17.707C15.9024 17.3164 15.9024 16.6834 16.2929 16.2929L20.5859 11.9999L16.2929 7.70696C15.9024 7.31643 15.9024 6.68342 16.2929 6.29289Z" fill="black"/>
<path d="M6.29289 6.29289C6.68342 5.90237 7.31643 5.90237 7.70696 6.29289C8.09748 6.68342 8.09748 7.31643 7.70696 7.70696L3.41399 11.9999L7.70696 16.2929C8.09748 16.6834 8.09748 17.3164 7.70696 17.707C7.31643 18.0975 6.68342 18.0975 6.29289 17.707L1.29289 12.707C0.902369 12.3164 0.902369 11.6834 1.29289 11.2929L6.29289 6.29289Z" fill="black"/>
<path d="M8.00977 10.9999C8.56205 10.9999 9.00977 11.4477 9.00977 11.9999C9.00977 12.5522 8.56205 12.9999 8.00977 12.9999H8C7.44772 12.9999 7 12.5522 7 11.9999C7 11.4477 7.44772 10.9999 8 10.9999H8.00977Z" fill="black"/>
</svg>
