<svg width="24" height="24" viewBox="0 0 24 24" fill="none" xmlns="http://www.w3.org/2000/svg">
<path d="M20 10.5V5C20 4.73478 19.8946 4.48051 19.707 4.29297C19.5195 4.10543 19.2652 4 19 4H5C4.73478 4 4.4805 4.10543 4.29297 4.29297C4.10543 4.4805 4 4.73478 4 5V19C4 19.2652 4.10543 19.5195 4.29297 19.707C4.48051 19.8946 4.73478 20 5 20H10.5C11.0523 20 11.5 20.4477 11.5 21C11.5 21.5523 11.0523 22 10.5 22H5C4.20435 22 3.44152 21.6837 2.87891 21.1211C2.3163 20.5585 2 19.7957 2 19V5C2 4.20435 2.3163 3.44152 2.87891 2.87891C3.44152 2.3163 4.20435 2 5 2H19C19.7957 2 20.5585 2.3163 21.1211 2.87891C21.6837 3.44152 22 4.20435 22 5V10.5C22 11.0523 21.5523 11.5 21 11.5C20.4477 11.5 20 11.0523 20 10.5Z" fill="black"/>
<path d="M14.9289 18.2713C15.4416 18.0664 16.0236 18.3162 16.2287 18.8289C16.4336 19.3416 16.1838 19.9236 15.6711 20.1287L14.6711 20.5281C14.1583 20.7331 13.5764 20.4842 13.3713 19.9715C13.1662 19.4587 13.4161 18.8768 13.9289 18.6717L14.9289 18.2713Z" fill="black"/>
<path d="M14 10.5V3C14 2.44772 14.4477 2 15 2C15.5523 2 16 2.44772 16 3V10.5C16 11.0523 15.5523 11.5 15 11.5C14.4477 11.5 14 11.0523 14 10.5Z" fill="black"/>
<path d="M13.3518 16.2836C13.5265 15.7598 14.0926 15.4771 14.6164 15.6518L15.5158 15.9516C16.0398 16.1262 16.3233 16.6923 16.1486 17.2162C15.974 17.7401 15.4078 18.0235 14.884 17.849L13.9836 17.5482C13.4598 17.3735 13.1771 16.8074 13.3518 16.2836Z" fill="black"/>
<path d="M15.9516 20.4836C16.1263 19.9598 16.6923 19.6771 17.2162 19.8518C17.7401 20.0265 18.0237 20.5925 17.849 21.1164L17.5482 22.0158C17.3736 22.5398 16.8075 22.8233 16.2836 22.6486C15.7598 22.4739 15.4772 21.9079 15.6518 21.384L15.9516 20.4836Z" fill="black"/>
<path d="M16.0289 13.3713C16.5416 13.1664 17.1236 13.4162 17.3287 13.9289L17.7281 14.9289C17.9331 15.4417 17.6842 16.0236 17.1715 16.2287C16.6587 16.4338 16.0768 16.1839 15.8717 15.6711L15.4713 14.6711C15.2664 14.1584 15.5162 13.5764 16.0289 13.3713Z" fill="black"/>
<path d="M18.4516 13.9836C18.6263 13.4598 19.1923 13.1771 19.7162 13.3518C20.2401 13.5265 20.5237 14.0925 20.349 14.6164L20.0482 15.5158C19.8736 16.0398 19.3075 16.3233 18.7836 16.1486C18.2598 15.9739 17.9772 15.4079 18.1518 14.884L18.4516 13.9836Z" fill="black"/>
<path d="M18.8289 19.7713C19.3416 19.5664 19.9236 19.8162 20.1287 20.3289L20.5281 21.3289C20.7331 21.8417 20.4842 22.4236 19.9715 22.6287C19.4587 22.8338 18.8768 22.5839 18.6717 22.0711L18.2713 21.0711C18.0664 20.5584 18.3162 19.9764 18.8289 19.7713Z" fill="black"/>
<path d="M21.3289 15.4713C21.8416 15.2664 22.4236 15.5162 22.6287 16.0289C22.8336 16.5416 22.5838 17.1236 22.0711 17.3287L21.0711 17.7281C20.5583 17.9331 19.9764 17.6842 19.7713 17.1715C19.5662 16.6587 19.8161 16.0768 20.3289 15.8717L21.3289 15.4713Z" fill="black"/>
<path d="M19.8518 18.7836C20.0265 18.2598 20.5926 17.9771 21.1164 18.1518L22.0158 18.4516C22.5398 18.6262 22.8233 19.1923 22.6486 19.7162C22.474 20.2401 21.9078 20.5235 21.384 20.349L20.4836 20.0482C19.9598 19.8735 19.6771 19.3074 19.8518 18.7836Z" fill="black"/>
<path d="M8 21V3C8 2.44772 8.44772 2 9 2C9.55228 2 10 2.44772 10 3V21C10 21.5523 9.55228 22 9 22C8.44772 22 8 21.5523 8 21Z" fill="black"/>
<path d="M20 18C20 16.8954 19.1046 16 18 16C16.8954 16 16 16.8954 16 18C16 19.1046 16.8954 20 18 20C19.1046 20 20 19.1046 20 18ZM22 18C22 20.2091 20.2091 22 18 22C15.7909 22 14 20.2091 14 18C14 15.7909 15.7909 14 18 14C20.2091 14 22 15.7909 22 18Z" fill="black"/>
</svg>
