<svg width="24" height="24" viewBox="0 0 24 24" fill="none" xmlns="http://www.w3.org/2000/svg">
<path fill-rule="evenodd" clip-rule="evenodd" d="M12 1C12.5523 1 13 1.44772 13 2V4C13 4.55228 12.5523 5 12 5C11.4477 5 11 4.55228 11 4V2C11 1.44772 11.4477 1 12 1Z" fill="black"/>
<path fill-rule="evenodd" clip-rule="evenodd" d="M4.22289 4.22289C4.61342 3.83237 5.24658 3.83237 5.6371 4.22289L7.04711 5.63289C7.43763 6.02342 7.43763 6.65658 7.04711 7.04711C6.65658 7.43763 6.02342 7.43763 5.63289 7.04711L4.22289 5.63711C3.83237 5.24658 3.83237 4.61342 4.22289 4.22289Z" fill="black"/>
<path fill-rule="evenodd" clip-rule="evenodd" d="M19 12C19 11.4477 19.4477 11 20 11H22C22.5523 11 23 11.4477 23 12C23 12.5523 22.5523 13 22 13H20C19.4477 13 19 12.5523 19 12Z" fill="black"/>
<path fill-rule="evenodd" clip-rule="evenodd" d="M19.7771 4.22289C20.1676 4.61342 20.1676 5.24658 19.7771 5.63711L18.3671 7.04711C17.9765 7.43763 17.3434 7.43763 16.9529 7.04711C16.5623 6.65658 16.5623 6.02342 16.9529 5.63289L18.3629 4.22289C18.7534 3.83237 19.3865 3.83237 19.7771 4.22289Z" fill="black"/>
<path fill-rule="evenodd" clip-rule="evenodd" d="M9.52736 7.65289C10.3482 7.18574 11.2846 6.96065 12.2281 7.00367C13.1716 7.04669 14.0837 7.35607 14.8586 7.89599C15.6336 8.4359 16.2398 9.18427 16.607 10.0544C16.9742 10.9246 17.0875 11.881 16.9336 12.8129C16.8437 13.3578 16.329 13.7266 15.7841 13.6367C15.2392 13.5467 14.8704 13.032 14.9603 12.4871C15.0526 11.928 14.9847 11.3542 14.7643 10.8321C14.544 10.31 14.1803 9.86093 13.7153 9.53698C13.2504 9.21303 12.7031 9.0274 12.137 9.00159C11.5709 8.97578 11.0091 9.11083 10.5166 9.39112C10.0366 9.66429 9.42601 9.49661 9.15285 9.01661C8.87969 8.53661 9.04736 7.92605 9.52736 7.65289Z" fill="black"/>
<path fill-rule="evenodd" clip-rule="evenodd" d="M7.95859 13.1163C7.22377 12.9351 6.45263 12.9661 5.73474 13.2057C5.01684 13.4453 4.38164 13.8837 3.90293 14.4699C3.42421 15.056 3.12162 15.766 3.03029 16.5173C2.93896 17.2686 3.06265 18.0304 3.38698 18.7142C3.71132 19.398 4.22299 19.9758 4.86258 20.3804C5.50211 20.7849 6.24328 20.9998 7.00004 21C6.99997 21 7.0001 21 7.00004 21H13C13.5305 21 14.0392 20.7893 14.4142 20.4142C14.7893 20.0391 15 19.5304 15 19C15 18.4696 14.7893 17.9609 14.4142 17.5858C14.0392 17.2107 13.5305 17 13 17H11.9C11.4248 17 11.0153 16.6656 10.9202 16.2C10.7689 15.4585 10.4102 14.7751 9.886 14.2292C9.36176 13.6834 8.69341 13.2975 7.95859 13.1163ZM5.10158 11.3086C6.17842 10.9492 7.33513 10.9027 8.43736 11.1745C9.53959 11.4462 10.5421 12.0251 11.3285 12.8439C11.9222 13.4621 12.3743 14.1979 12.6579 15H13C14.0609 15 15.0783 15.4214 15.8285 16.1716C16.5786 16.9217 17 17.9391 17 19C17 20.0609 16.5786 21.0783 15.8285 21.8284C15.0783 22.5786 14.0609 23 13 23H6.99983C5.86459 22.9998 4.75272 22.6775 3.79334 22.0706C2.83396 21.4636 2.06645 20.597 1.57994 19.5713C1.09344 18.5456 0.90791 17.4029 1.0449 16.276C1.18189 15.149 1.63579 14.0841 2.35386 13.2048C3.07194 12.3255 4.02473 11.668 5.10158 11.3086Z" fill="black"/>
</svg>
