<svg width="24" height="24" viewBox="0 0 24 24" fill="none" xmlns="http://www.w3.org/2000/svg">
<path fill-rule="evenodd" clip-rule="evenodd" d="M10.0491 6.09211C8.9535 5.89789 7.82547 6.01216 6.79106 6.42213C5.75666 6.83211 4.85663 7.52165 4.19156 8.4137C3.52649 9.30575 3.12257 10.3652 3.02494 11.4736C2.92732 12.582 3.13983 13.6957 3.63873 14.6902C4.13762 15.6848 4.90326 16.5211 5.85007 17.1055C6.79681 17.69 7.88741 17.9997 9.00001 18C9.00009 18 9.00018 18 9.00026 18H17.5C18.4283 18 19.3185 17.6313 19.9749 16.9749C20.6313 16.3185 21 15.4283 21 14.5C21 13.5717 20.6313 12.6815 19.9749 12.0251C19.3185 11.3688 18.4283 11 17.5 11H15.71C15.2678 11 14.878 10.7095 14.7517 10.2857C14.4338 9.21941 13.8256 8.26251 12.9952 7.52195C12.1647 6.78139 11.1447 6.28633 10.0491 6.09211ZM6.05415 4.56284C7.43336 4.01621 8.9374 3.86386 10.3982 4.12282C11.859 4.38178 13.219 5.04185 14.3263 6.02926C15.2446 6.84821 15.9591 7.86557 16.418 9H17.5C18.9587 9 20.3576 9.57947 21.3891 10.6109C22.4205 11.6424 23 13.0413 23 14.5C23 15.9587 22.4205 17.3576 21.3891 18.3891C20.3576 19.4205 18.9587 20 17.5 20H8.99975C7.51617 19.9996 6.06191 19.5867 4.7995 18.8074C3.53708 18.0281 2.51623 16.9131 1.85103 15.587C1.18583 14.2609 0.902487 12.7759 1.03266 11.2981C1.16283 9.82022 1.70138 8.40767 2.58815 7.21827C3.47491 6.02887 4.67495 5.10948 6.05415 4.56284Z" fill="black"/>
</svg>
