<svg width="24" height="24" viewBox="0 0 24 24" fill="none" xmlns="http://www.w3.org/2000/svg">
<path fill-rule="evenodd" clip-rule="evenodd" d="M4.04439 3.87288C4.01973 3.97544 3.99744 4.13582 3.9913 4.3652C3.97577 4.94588 4.06736 5.72326 4.2132 6.54219C4.35682 7.34862 4.54344 8.14383 4.69546 8.74122C4.7712 9.03886 4.83775 9.28501 4.88512 9.45596C4.9088 9.54138 4.92765 9.6079 4.94043 9.65253L4.95487 9.70264L4.95837 9.71466L4.95914 9.71729C5.02902 9.95477 5.00846 10.2102 4.90119 10.4333C4.40094 11.4738 3.99994 12.4401 3.99994 13.44C3.99994 17.2616 7.37561 20 11.9999 20C16.6147 20 19.9999 17.1694 19.9999 13.44C19.9999 12.4723 19.6505 11.471 19.1174 10.4702C18.9959 10.2422 18.9674 9.97598 19.0378 9.72741M21.0663 9.8876C21.112 9.7139 21.1699 9.48804 21.2341 9.2244C21.3861 8.59976 21.5759 7.7535 21.7213 6.88216C21.8647 6.0233 21.9744 5.08654 21.9442 4.30008C21.9292 3.91062 21.8783 3.49513 21.7434 3.12487C21.6101 2.75922 21.341 2.30019 20.805 2.07714C20.2682 1.85316 19.6386 1.79571 19.0269 1.82866C18.4016 1.86234 17.7246 1.99428 17.0509 2.21026C15.8872 2.58331 14.6563 3.23255 13.6743 4.1614C13.1236 4.05547 12.5599 4.00002 11.9999 4.00002L11.997 4.00003C11.4403 4.00165 10.8849 4.04958 10.3368 4.14316C9.34323 3.20458 8.08391 2.55856 6.89914 2.19216C6.21577 1.98083 5.53011 1.85385 4.89946 1.82366C4.28344 1.79418 3.65033 1.85371 3.11485 2.07714C2.57438 2.30266 2.30832 2.7682 2.1791 3.13524C2.04835 3.50659 2.00243 3.92259 1.99202 4.31172C1.97099 5.09791 2.09128 6.03428 2.24418 6.89286C2.39931 7.76392 2.59832 8.60996 2.75723 9.23445C2.82597 9.50454 2.88766 9.73497 2.93576 9.91027C2.47764 10.8935 1.99994 12.1004 1.99994 13.44C1.99994 18.7384 6.68427 22 11.9999 22C17.3252 22 21.9999 18.6306 21.9999 13.44C21.9999 12.155 21.589 10.9454 21.0663 9.8876ZM19.0378 9.72741L19.0387 9.72435L19.042 9.71235L19.0559 9.66227C19.0682 9.61767 19.0863 9.55119 19.1091 9.46579C19.1546 9.29491 19.2184 9.04882 19.2908 8.75127C19.4362 8.15403 19.614 7.35905 19.7486 6.55288C19.8852 5.73425 19.968 4.95726 19.9457 4.37684C19.9366 4.14116 19.9113 3.97795 19.8844 3.87516C19.7132 3.83373 19.4642 3.80801 19.1345 3.82576C18.7039 3.84896 18.1965 3.94326 17.6615 4.11479C16.581 4.46115 15.4918 5.08791 14.7469 5.92485C14.497 6.20569 14.1106 6.32261 13.7469 6.22748C13.1774 6.07854 12.5829 6.00015 12.0014 6.00002C11.4032 6.00188 10.8071 6.07049 10.2241 6.20458C9.86811 6.28646 9.4958 6.16772 9.25294 5.89485C8.51381 5.06436 7.41101 4.44392 6.30824 4.10288C5.76286 3.93422 5.24414 3.84245 4.80386 3.82138C4.47072 3.80544 4.2183 3.83159 4.04439 3.87288" fill="black"/>
<path fill-rule="evenodd" clip-rule="evenodd" d="M8 13C8.55228 13 9 13.4477 9 14V14.5C9 15.0523 8.55228 15.5 8 15.5C7.44772 15.5 7 15.0523 7 14.5V14C7 13.4477 7.44772 13 8 13Z" fill="black"/>
<path fill-rule="evenodd" clip-rule="evenodd" d="M16 13C16.5523 13 17 13.4477 17 14V14.5C17 15.0523 16.5523 15.5 16 15.5C15.4477 15.5 15 15.0523 15 14.5V14C15 13.4477 15.4477 13 16 13Z" fill="black"/>
<path fill-rule="evenodd" clip-rule="evenodd" d="M10.3261 15.8673C10.4809 15.4937 10.8456 15.25 11.25 15.25H12.75C13.1545 15.25 13.5191 15.4937 13.6739 15.8673C13.8287 16.241 13.7431 16.6711 13.4571 16.9571L12.7071 17.7071C12.3166 18.0977 11.6834 18.0977 11.2929 17.7071L10.5429 16.9571C10.2569 16.6711 10.1714 16.241 10.3261 15.8673Z" fill="black"/>
</svg>
