<svg width="24" height="24" viewBox="0 0 24 24" fill="none" xmlns="http://www.w3.org/2000/svg">
<path d="M18 20C18 19.7348 17.8946 19.4805 17.707 19.293C17.5195 19.1054 17.2652 19 17 19H7C6.73478 19 6.48051 19.1054 6.29297 19.293C6.10543 19.4805 6 19.7348 6 20V21H18V20ZM20 21C20 21.5304 19.7891 22.039 19.4141 22.4141C19.039 22.7891 18.5304 23 18 23H6C5.46957 23 4.96101 22.7891 4.58594 22.4141C4.21086 22.039 4 21.5304 4 21V20C4 19.2043 4.3163 18.4415 4.87891 17.8789C5.44151 17.3163 6.20435 17 7 17H17C17.7957 17 18.5585 17.3163 19.1211 17.8789C19.6837 18.4415 20 19.2043 20 20V21Z" fill="black"/>
<path d="M9 4V2C9 1.44772 9.44772 1 10 1C10.5523 1 11 1.44772 11 2V4C11 4.55228 10.5523 5 10 5C9.44772 5 9 4.55228 9 4Z" fill="black"/>
<path d="M13 4V2C13 1.44772 13.4477 1 14 1C14.5523 1 15 1.44772 15 2V4C15 4.55228 14.5523 5 14 5C13.4477 5 13 4.55228 13 4Z" fill="black"/>
<path d="M15.8896 8.00586C16.4385 7.94493 16.9332 8.34078 16.9941 8.88965L17.9941 17.8896C18.0551 18.4385 17.6592 18.9332 17.1104 18.9941C16.5615 19.0551 16.0668 18.6592 16.0059 18.1104L15.0059 9.11035C14.9449 8.56149 15.3408 8.06684 15.8896 8.00586Z" fill="black"/>
<path d="M5 7V2C5 1.44772 5.44772 1 6 1C6.55228 1 7 1.44772 7 2V7C7 7.26522 7.10543 7.51949 7.29297 7.70703C7.48051 7.89457 7.73478 8 8 8H16C16.2652 8 16.5195 7.89457 16.707 7.70703C16.8946 7.51949 17 7.26522 17 7V2C17 1.44772 17.4477 1 18 1C18.5523 1 19 1.44772 19 2V7C19 7.79565 18.6837 8.55849 18.1211 9.12109C17.5585 9.6837 16.7957 10 16 10H8C7.20435 10 6.44151 9.6837 5.87891 9.12109C5.3163 8.55849 5 7.79565 5 7Z" fill="black"/>
<path d="M18 3C18.5523 3 19 3.44772 19 4C19 4.55228 18.5523 5 18 5H6C5.44772 5 5 4.55228 5 4C5 3.44772 5.44772 3 6 3H18Z" fill="black"/>
<path d="M8.11035 8.00586C8.65922 8.06684 9.05507 8.56149 8.99414 9.11035L7.99414 18.1104C7.93315 18.6592 7.43851 19.0551 6.88965 18.9941C6.34078 18.9332 5.94493 18.4385 6.00586 17.8896L7.00586 8.88965C7.06684 8.34078 7.56149 7.94493 8.11035 8.00586Z" fill="black"/>
</svg>
