<svg width="24" height="24" viewBox="0 0 24 24" fill="none" xmlns="http://www.w3.org/2000/svg">
<path d="M15.0001 19C15.0001 18.4696 14.7892 17.961 14.4142 17.586C14.0391 17.2109 13.5305 17 13.0001 17H11.9005C11.4253 17 11.0151 16.6657 10.92 16.2002C10.7687 15.4587 10.4101 14.7754 9.88584 14.2295C9.36169 13.6838 8.69373 13.2975 7.95908 13.1162C7.22426 12.9351 6.45237 12.9665 5.73447 13.2061C5.01684 13.4457 4.38202 13.8838 3.90341 14.4698C3.4247 15.0559 3.1217 15.7663 3.03037 16.5176C2.93911 17.2687 3.06263 18.0303 3.38681 18.7139C3.71115 19.3977 4.22281 19.9763 4.8624 20.3809C5.50192 20.7854 6.24336 20.9998 7.00009 21H13.0001C13.5305 21 14.0391 20.7892 14.4142 20.4141C14.7892 20.039 15.0001 19.5305 15.0001 19ZM17.0001 19C17.0001 20.0609 16.5784 21.078 15.8282 21.8282C15.0781 22.5783 14.0609 23 13.0001 23H7.00009C5.86486 22.9998 4.75244 22.6773 3.79306 22.0703C2.83386 21.4634 2.06662 20.5969 1.58017 19.5713C1.09372 18.5457 0.908112 17.4032 1.04502 16.2764C1.18199 15.1496 1.63568 14.0843 2.35361 13.2051C3.07169 12.3258 4.02481 11.668 5.10166 11.3086C6.17849 10.9492 7.33538 10.9031 8.43759 11.1748C9.53962 11.4466 10.5419 12.0252 11.3282 12.8438C11.9219 13.4619 12.3737 14.198 12.6573 15H13.0001C14.0609 15 15.0781 15.4218 15.8282 16.1719C16.5784 16.922 17.0001 17.9392 17.0001 19Z" fill="black"/>
<path d="M14.3853 2.18937C15.2569 1.98469 15.906 2.50029 16.191 3.05168C16.4572 3.56708 16.4978 4.23059 16.2476 4.80851C16.0089 5.36023 15.9417 5.97093 16.0542 6.56144C16.1669 7.15214 16.4543 7.69576 16.8794 8.12101C17.3045 8.54612 17.8476 8.83339 18.438 8.94621C19.0287 9.05896 19.64 8.99159 20.1919 8.75285C20.7697 8.50235 21.4327 8.54308 21.9478 8.80851C22.4991 9.09269 23.0167 9.7421 22.8101 10.6152C22.5589 11.6768 22.0628 12.665 21.3619 13.5009C20.6608 14.3369 19.7737 14.9982 18.772 15.4306C18.265 15.6491 17.6764 15.415 17.4576 14.9081C17.2389 14.4011 17.4731 13.8125 17.98 13.5937C18.6954 13.2848 19.3289 12.8128 19.8296 12.2157C20.2081 11.7644 20.5019 11.2505 20.7007 10.6991C19.8579 11.004 18.9471 11.0798 18.063 10.9111C17.0788 10.7231 16.1739 10.2436 15.4654 9.53507C14.7568 8.82633 14.2771 7.92091 14.0894 6.93644C13.9207 6.05201 13.996 5.14082 14.3013 4.29777C13.492 4.59027 12.7688 5.08875 12.2046 5.74699C11.5169 6.54943 11.1013 7.54901 11.0171 8.60246C10.9732 9.15284 10.4913 9.56314 9.94096 9.51945C9.39043 9.4755 8.97904 8.99381 9.02299 8.44328C9.14077 6.96833 9.72319 5.5687 10.6861 4.44523C11.649 3.32172 12.9437 2.5324 14.3833 2.19035L14.3853 2.18937Z" fill="black"/>
</svg>
