<svg width="24" height="24" viewBox="0 0 24 24" fill="none" xmlns="http://www.w3.org/2000/svg">
<path d="M11.0001 6C11.0001 5.44772 11.4478 5 12.0001 5C12.5524 5 13.0001 5.44772 13.0001 6V12C13.0001 12.3788 12.7861 12.7251 12.4473 12.8945L8.44733 14.8945C7.95336 15.1415 7.35253 14.9412 7.10554 14.4473C6.85855 13.9533 7.05882 13.3525 7.5528 13.1055L11.0001 11.3818V6Z" fill="black"/>
<path d="M21 12C21 7.02944 16.9706 3 12 3C7.02944 3 3 7.02944 3 12C3 16.9706 7.02944 21 12 21C16.9706 21 21 16.9706 21 12ZM23 12C23 18.0751 18.0751 23 12 23C5.92487 23 1 18.0751 1 12C1 5.92487 5.92487 1 12 1C18.0751 1 23 5.92487 23 12Z" fill="black"/>
</svg>
