<svg width="24" height="24" viewBox="0 0 24 24" fill="none" xmlns="http://www.w3.org/2000/svg">
<path fill-rule="evenodd" clip-rule="evenodd" d="M5.11657 3.80016C5.33741 4.30637 5.10607 4.89576 4.59986 5.11659C4.42408 5.19328 4.27406 5.3189 4.16768 5.47847C4.06256 5.63614 4.00444 5.82038 4 6.00973V20C4 20.2652 4.10536 20.5196 4.29289 20.7071C4.48043 20.8947 4.73478 21 5 21H18.9989C19.1909 20.9994 19.3787 20.9436 19.5398 20.8391C19.7012 20.7344 19.829 20.5855 19.9079 20.41C20.1343 19.9063 20.7263 19.6815 21.23 19.9079C21.7337 20.1344 21.9585 20.7263 21.7321 21.23C21.4955 21.7564 21.1121 22.2033 20.6279 22.5172C20.1437 22.8312 19.5792 22.9988 19.0021 23L5 23C4.20435 23 3.44129 22.684 2.87868 22.1213C2.31607 21.5587 2 20.7957 2 20V6.00002C2 5.99449 2.00005 5.98897 2.00014 5.98344C2.00967 5.40818 2.18443 4.84779 2.50357 4.36907C2.82272 3.89035 3.27279 3.5135 3.80014 3.28344C4.30635 3.06261 4.89574 3.29395 5.11657 3.80016Z" fill="black"/>
<path fill-rule="evenodd" clip-rule="evenodd" d="M8.5 4C8.5 3.44772 8.94772 3 9.5 3H19C19.7957 3 20.5587 3.31607 21.1213 3.87868C21.6839 4.44129 22 5.20435 22 6V15.5C22 16.0523 21.5523 16.5 21 16.5C20.4477 16.5 20 16.0523 20 15.5V6C20 5.73478 19.8946 5.48043 19.7071 5.29289C19.5196 5.10536 19.2652 5 19 5H9.5C8.94772 5 8.5 4.55228 8.5 4Z" fill="black"/>
<path fill-rule="evenodd" clip-rule="evenodd" d="M16 1C16.5523 1 17 1.44772 17 2V6C17 6.55228 16.5523 7 16 7C15.4477 7 15 6.55228 15 6V2C15 1.44772 15.4477 1 16 1Z" fill="black"/>
<path fill-rule="evenodd" clip-rule="evenodd" d="M2 10C2 9.44772 2.44772 9 3 9H10C10.5523 9 11 9.44772 11 10C11 10.5523 10.5523 11 10 11H3C2.44772 11 2 10.5523 2 10Z" fill="black"/>
<path fill-rule="evenodd" clip-rule="evenodd" d="M14.5 10C14.5 9.44772 14.9477 9 15.5 9H21C21.5523 9 22 9.44772 22 10C22 10.5523 21.5523 11 21 11H15.5C14.9477 11 14.5 10.5523 14.5 10Z" fill="black"/>
<path fill-rule="evenodd" clip-rule="evenodd" d="M1.29289 1.29289C1.68342 0.902369 2.31658 0.902369 2.70711 1.29289L22.7071 21.2929C23.0976 21.6834 23.0976 22.3166 22.7071 22.7071C22.3166 23.0976 21.6834 23.0976 21.2929 22.7071L1.29289 2.70711C0.902369 2.31658 0.902369 1.68342 1.29289 1.29289Z" fill="black"/>
</svg>
