<svg width="24" height="24" viewBox="0 0 24 24" fill="none" xmlns="http://www.w3.org/2000/svg">
<path fill-rule="evenodd" clip-rule="evenodd" d="M12 17C12.5523 17 13 17.4477 13 18V22C13 22.5523 12.5523 23 12 23C11.4477 23 11 22.5523 11 22V18C11 17.4477 11.4477 17 12 17Z" fill="black"/>
<path fill-rule="evenodd" clip-rule="evenodd" d="M12 1C12.3147 1 12.6111 1.14819 12.8 1.4C14.0583 3.07778 14.6662 5.03975 14.8919 7.01933C15.4554 6.65179 16.0732 6.31419 16.7146 6.02558C18.0486 5.42526 19.5663 5 21 5C21.5522 5 22 5.44772 22 6C22 7.33483 21.2069 8.80609 20.3731 9.96049C19.9862 10.4963 19.5541 11.0133 19.1157 11.4732C19.5459 11.6413 19.9714 11.8444 20.3652 12.0659C20.9172 12.3764 21.4556 12.7498 21.9026 13.1689C22.3389 13.5779 22.7501 14.0882 22.9486 14.6838C23.1131 15.1772 22.8719 15.7143 22.3939 15.9191C20.6611 16.6617 19.146 16.95 18.0063 17.0425C18.736 18.3949 19 19.8379 19 21C19 21.5523 18.5522 22 18 22C15.504 22 13.4972 20.7186 12 19.3778C10.5027 20.7186 8.49593 22 5.99995 22C5.44767 22 4.99995 21.5523 4.99995 21C4.99995 19.8379 5.26391 18.3949 5.9936 17.0425C4.85391 16.95 3.33878 16.6617 1.60603 15.9191C1.128 15.7143 0.886803 15.1772 1.05127 14.6838C1.2498 14.0882 1.66104 13.5779 2.09726 13.1689C2.54429 12.7498 3.08273 12.3764 3.63469 12.0659C4.02849 11.8444 4.45398 11.6413 4.88418 11.4732C4.44585 11.0133 4.01374 10.4963 3.62677 9.96049C2.79304 8.80609 1.99995 7.33483 1.99995 6C1.99995 5.44772 2.44767 5 2.99995 5C4.4336 5 5.95128 5.42526 7.28532 6.02558C7.92667 6.31419 8.54452 6.65179 9.10805 7.01933C9.33367 5.03975 9.94162 3.07778 11.2 1.4C11.3888 1.14819 11.6852 1 12 1ZM7.80905 15.0184C8.23946 14.9347 8.67453 15.1412 8.88163 15.5281C9.08956 15.9167 9.01866 16.3955 8.70706 16.7071C7.77898 17.6352 7.29376 18.8069 7.10118 19.8828C8.71248 19.539 10.1038 18.4819 11.2928 17.2929C11.6834 16.9024 12.3165 16.9024 12.7071 17.2929C13.8961 18.4819 15.2874 19.539 16.8987 19.8828C16.7061 18.8069 16.2209 17.6352 15.2928 16.7071C14.9812 16.3955 14.9103 15.9167 15.1183 15.5281C15.3254 15.1412 15.7605 14.9347 16.1909 15.0184C16.1909 15.0184 16.1945 15.0191 16.1984 15.0197C16.2084 15.0214 16.2276 15.0246 16.2556 15.0286C16.3116 15.0366 16.4027 15.048 16.5261 15.058C16.7728 15.078 17.1479 15.0925 17.6287 15.0642C18.3469 15.022 19.3022 14.8842 20.4207 14.525C20.1345 14.276 19.7785 14.0306 19.3847 13.8091C18.4528 13.2849 17.5041 13 17 13C16.5593 13 16.1706 12.7115 16.0429 12.2898C15.9152 11.868 16.0786 11.4124 16.4453 11.1679C17.0673 10.7532 17.9858 9.85012 18.7518 8.78951C19.1746 8.20411 19.5019 7.63779 19.7151 7.13583C18.9996 7.278 18.2548 7.52564 17.5353 7.84942C16.3704 8.37363 15.3537 9.06051 14.7071 9.70711C14.4211 9.99311 13.9909 10.0787 13.6173 9.92388C13.2436 9.7691 13 9.40446 13 9C13 7.17999 12.7206 5.43421 12 3.92613C11.2793 5.43421 11 7.17999 11 9C11 9.40446 10.7563 9.7691 10.3826 9.92388C10.009 10.0787 9.57884 9.99311 9.29285 9.70711C8.64625 9.06051 7.6295 8.37363 6.46459 7.84942C5.74507 7.52564 5.00029 7.278 4.28483 7.13583C4.49801 7.63779 4.82534 8.20411 5.24813 8.78951C6.01413 9.85012 6.93259 10.7532 7.55465 11.1679C7.92131 11.4124 8.08474 11.868 7.95704 12.2898C7.82935 12.7115 7.44062 13 6.99995 13C6.49578 13 5.54709 13.2849 4.61521 13.8091C4.22137 14.0306 3.86538 14.276 3.57923 14.525C4.69767 14.8842 5.653 15.022 6.37117 15.0642C6.852 15.0925 7.22709 15.078 7.47382 15.058C7.59716 15.048 7.68826 15.0366 7.74427 15.0286C7.77227 15.0246 7.79148 15.0214 7.80154 15.0197C7.80412 15.0193 7.80747 15.0187 7.80747 15.0187L7.80905 15.0184Z" fill="black"/>
</svg>
