<svg width="24" height="24" viewBox="0 0 24 24" fill="none" xmlns="http://www.w3.org/2000/svg">
<path d="M12.0271 5.92595C12.4533 5.93135 12.8666 6.07341 13.2068 6.33024C13.5177 6.56499 13.7514 6.88506 13.8826 7.25016L14.5877 8.63884L16.1765 8.88688C16.5602 8.90849 16.9302 9.0396 17.242 9.26677C17.582 9.51467 17.8353 9.86371 17.9656 10.2638C18.0959 10.6639 18.0964 11.0947 17.9675 11.4953C17.8496 11.8619 17.6275 12.1846 17.3308 12.4279L16.1902 13.5656L16.4373 15.1125C16.5455 15.4861 16.5444 15.8837 16.4295 16.257C16.3033 16.6667 16.0482 17.0254 15.7029 17.2795C15.3577 17.5334 14.9401 17.6695 14.5115 17.6681C14.1189 17.6669 13.7365 17.5497 13.4109 17.3332L11.9998 16.6105L10.5779 17.3371C10.2536 17.5495 9.87449 17.6657 9.48512 17.6662C9.05785 17.6666 8.64171 17.5298 8.29762 17.2765C7.95345 17.0231 7.69952 16.6662 7.57301 16.258C7.45804 15.8869 7.45453 15.4914 7.56032 15.1193L7.80934 13.5656L6.69801 12.4572C6.39349 12.2192 6.16279 11.8986 6.03688 11.5314C5.89861 11.128 5.89264 10.6912 6.02028 10.2843C6.14804 9.87739 6.40273 9.52173 6.74684 9.2697C7.06177 9.03909 7.43673 8.90701 7.82497 8.88688L9.40895 8.63884L10.1355 7.21013C10.2754 6.84547 10.518 6.52831 10.8367 6.29997C11.1833 6.05173 11.6008 5.92059 12.0271 5.92595ZM11.9422 8.06852L11.1922 9.54509C11.0487 9.82729 10.8409 10.072 10.5847 10.258C10.3926 10.3975 10.1774 10.5008 9.94997 10.5646L9.71852 10.6154L8.08571 10.8713C8.03371 10.8794 7.98111 10.8831 7.92848 10.883C7.97721 10.9167 8.02321 10.9544 8.0652 10.9963L9.22048 12.1486L9.3777 12.3254C9.52444 12.5109 9.63814 12.7213 9.71169 12.9474C9.80956 13.2485 9.83386 13.5684 9.78395 13.881L9.52614 15.4953C9.5215 15.5242 9.5157 15.5529 9.50856 15.5812L9.48317 15.6662L9.62184 15.5802L11.0867 14.8302L11.3045 14.7345C11.5261 14.6525 11.7612 14.6096 11.9988 14.6095C12.3159 14.6095 12.6287 14.6856 12.9109 14.8302L14.3757 15.5802L14.5183 15.6681C14.4984 15.6117 14.4829 15.5534 14.4734 15.4943L14.2146 13.882V13.88C14.1648 13.5674 14.1898 13.2475 14.2879 12.9465C14.3859 12.6455 14.5538 12.372 14.7781 12.1486L15.95 10.9806C15.9855 10.9453 16.0238 10.9126 16.0642 10.883C16.0137 10.8828 15.9628 10.8791 15.9129 10.8713L14.2791 10.6154C13.9665 10.5665 13.6699 10.4438 13.4138 10.258C13.2216 10.1184 13.0557 9.94579 12.9246 9.74919L12.8054 9.54509L12.0681 8.09294C12.041 8.03949 12.0189 7.98338 12.0017 7.92595L11.9422 8.06852Z" fill="black"/>
<path d="M21 12C21 7.02944 16.9706 3 12 3C7.02944 3 3 7.02944 3 12C3 16.9706 7.02944 21 12 21C16.9706 21 21 16.9706 21 12ZM23 12C23 18.0751 18.0751 23 12 23C5.92487 23 1 18.0751 1 12C1 5.92487 5.92487 1 12 1C18.0751 1 23 5.92487 23 12Z" fill="black"/>
</svg>
