<svg width="24" height="24" viewBox="0 0 24 24" fill="none" xmlns="http://www.w3.org/2000/svg">
<path fill-rule="evenodd" clip-rule="evenodd" d="M12 12.0001C12.5523 12.0001 13 12.4478 13 13.0001V21.0001C13 21.4045 12.7564 21.7692 12.3827 21.9239C12.009 22.0787 11.5789 21.9932 11.2929 21.7072L7.29289 17.7072C6.90237 17.3166 6.90237 16.6835 7.29289 16.293C7.68342 15.9024 8.31658 15.9024 8.70711 16.293L11 18.5858V13.0001C11 12.4478 11.4477 12.0001 12 12.0001Z" fill="black"/>
<path fill-rule="evenodd" clip-rule="evenodd" d="M16.7071 16.293C17.0976 16.6835 17.0976 17.3166 16.7071 17.7072L12.7071 21.7072C12.3166 22.0977 11.6834 22.0977 11.2929 21.7072C10.9024 21.3166 10.9024 20.6835 11.2929 20.293L15.2929 16.293C15.6834 15.9024 16.3166 15.9024 16.7071 16.293Z" fill="black"/>
<path fill-rule="evenodd" clip-rule="evenodd" d="M11.0876 4.37464C10.2155 4.05133 9.28012 3.9352 8.35541 4.03543C7.43071 4.13565 6.54196 4.44949 5.75937 4.95216C4.97678 5.45482 4.32176 6.13255 3.84606 6.93182C3.37035 7.73109 3.08698 8.63001 3.01832 9.5576C2.94967 10.4852 3.0976 11.416 3.45045 12.2766C3.80329 13.1372 4.35139 13.904 5.05145 14.5164C5.46713 14.88 5.50932 15.5118 5.14568 15.9275C4.78205 16.3432 4.15029 16.3853 3.73461 16.0217C2.8012 15.2052 2.07041 14.1828 1.59995 13.0353C1.12948 11.8879 0.932236 10.6467 1.02378 9.40996C1.11532 8.17318 1.49315 6.97462 2.12742 5.90893C2.7617 4.84324 3.63505 3.9396 4.67851 3.26938C5.72197 2.59916 6.90696 2.18071 8.1399 2.04707C9.37284 1.91344 10.62 2.06827 11.7828 2.49936C12.9456 2.93045 13.9923 3.62598 14.8402 4.53102C15.5151 5.25145 16.0493 6.08893 16.418 7.00006H17.4999C17.4999 7.00006 17.4999 7.00006 17.4999 7.00006C18.6879 6.99994 19.8442 7.3845 20.7955 8.09622C21.7468 8.80796 22.442 9.8086 22.7772 10.9484C23.1124 12.0882 23.0694 13.306 22.6548 14.4193C22.2403 15.5327 21.4763 16.4819 20.4772 17.1249C20.0128 17.4238 19.394 17.2897 19.0951 16.8253C18.7962 16.3609 18.9304 15.7421 19.3948 15.4432C20.0306 15.034 20.5167 14.4299 20.7806 13.7214C21.0444 13.0129 21.0717 12.238 20.8584 11.5127C20.6451 10.7873 20.2027 10.1505 19.5973 9.69761C18.992 9.24469 18.2562 8.99996 17.5002 9.00006H15.71C15.2678 9.00006 14.8781 8.70961 14.7517 8.28583C14.4859 7.3945 14.0165 6.57717 13.3806 5.89839C12.7447 5.2196 11.9597 4.69796 11.0876 4.37464Z" fill="black"/>
</svg>
