<svg width="24" height="24" viewBox="0 0 24 24" fill="none" xmlns="http://www.w3.org/2000/svg">
<path d="M19 19.9999V12.9999C19 12.2043 18.6837 11.4415 18.1211 10.8788C17.5585 10.3162 16.7956 9.99994 16 9.99994H4C3.44772 9.99994 3 9.55222 3 8.99994C3 8.44765 3.44772 7.99994 4 7.99994H16C17.3261 7.99994 18.5975 8.5271 19.5352 9.46478C20.4728 10.4025 21 11.6739 21 12.9999V19.9999C21 20.5522 20.5523 20.9999 20 20.9999C19.4477 20.9999 19 20.5522 19 19.9999Z" fill="black"/>
<path d="M8.29289 3.29289C8.68342 2.90237 9.31643 2.90237 9.70696 3.29289C10.0975 3.68342 10.0975 4.31643 9.70696 4.70696L5.41399 8.99992L9.70696 13.2929C10.0975 13.6834 10.0975 14.3164 9.70696 14.707C9.31643 15.0975 8.68342 15.0975 8.29289 14.707L3.29289 9.70696C2.90237 9.31643 2.90237 8.68342 3.29289 8.29289L8.29289 3.29289Z" fill="black"/>
</svg>
