<svg width="24" height="24" viewBox="0 0 24 24" fill="none" xmlns="http://www.w3.org/2000/svg">
<path d="M19.293 3.29302C19.6835 2.90249 20.3165 2.90249 20.707 3.29302C21.0976 3.68354 21.0976 4.31655 20.707 4.70708L9.70703 15.7071C9.31651 16.0976 8.68349 16.0976 8.29297 15.7071C7.90244 15.3166 7.90244 14.6835 8.29297 14.293L19.293 3.29302Z" fill="black"/>
<path d="M21 18C21.5523 18 22 18.4478 22 19C22 19.5523 21.5523 20 21 20H3C2.44772 20 2 19.5523 2 19C2 18.4478 2.44772 18 3 18H21Z" fill="black"/>
<path d="M3.29297 9.29302C3.68349 8.90249 4.31651 8.90249 4.70703 9.29302L9.70703 14.293C10.0976 14.6835 10.0976 15.3166 9.70703 15.7071C9.31651 16.0976 8.68349 16.0976 8.29297 15.7071L3.29297 10.7071C2.90244 10.3166 2.90244 9.68354 3.29297 9.29302Z" fill="black"/>
</svg>
