<svg width="24" height="24" viewBox="0 0 24 24" fill="none" xmlns="http://www.w3.org/2000/svg">
<path d="M10 22V20C10 19.4477 10.4477 19 11 19C11.5523 19 12 19.4477 12 20V22C12 22.5523 11.5523 23 11 23C10.4477 23 10 22.5523 10 22Z" fill="black"/>
<path d="M14.3853 2.18937C15.2569 1.98469 15.906 2.50029 16.191 3.05168C16.4572 3.56708 16.4978 4.23059 16.2476 4.80851C16.0089 5.36023 15.9417 5.97093 16.0542 6.56144C16.1669 7.15214 16.4543 7.69576 16.8794 8.12101C17.3045 8.54612 17.8476 8.83339 18.438 8.94621C19.0287 9.05896 19.64 8.99159 20.1919 8.75285C20.7697 8.50235 21.4327 8.54308 21.9478 8.80851C22.4991 9.09269 23.0167 9.7421 22.8101 10.6152C22.5589 11.6768 22.0628 12.665 21.3619 13.5009C20.6608 14.3369 19.7737 14.9982 18.772 15.4306C18.265 15.6491 17.6764 15.415 17.4576 14.9081C17.2389 14.4011 17.4731 13.8125 17.98 13.5937C18.6954 13.2848 19.3289 12.8128 19.8296 12.2157C20.2081 11.7644 20.5019 11.2505 20.7007 10.6991C19.8579 11.004 18.9471 11.0798 18.063 10.9111C17.0788 10.7231 16.1739 10.2436 15.4654 9.53507C14.7568 8.82633 14.2771 7.92091 14.0894 6.93644C13.9207 6.05201 13.996 5.14082 14.3013 4.29777C13.492 4.59027 12.7688 5.08875 12.2046 5.74699C11.5169 6.54943 11.1013 7.54901 11.0171 8.60246C10.9732 9.15284 10.4913 9.56314 9.94096 9.51945C9.39043 9.4755 8.97904 8.99381 9.02299 8.44328C9.14077 6.96833 9.72319 5.5687 10.6861 4.44523C11.649 3.32172 12.9437 2.5324 14.3833 2.19035L14.3853 2.18937Z" fill="black"/>
<path d="M7.15364 11.0038C8.05283 11.0267 8.93606 11.252 9.73665 11.662C10.5371 12.0721 11.2356 12.6568 11.7796 13.373C12.1554 13.8678 12.4493 14.4173 12.6556 14.9999H13.0003C13.8109 14.9991 14.6029 15.2447 15.2708 15.704C15.9391 16.1636 16.4522 16.8154 16.7415 17.5732C17.0308 18.3311 17.0822 19.16 16.89 19.9482C16.6977 20.736 16.2708 21.4467 15.6654 21.9862C15.253 22.3536 14.6206 22.3176 14.2533 21.9052C13.8859 21.4929 13.922 20.8605 14.3343 20.4931C14.6372 20.2233 14.8515 19.8676 14.9476 19.4736C15.0436 19.0796 15.017 18.6659 14.8724 18.287C14.7277 17.9081 14.4713 17.5823 14.137 17.3525C13.8028 17.1227 13.4069 16.9993 13.0013 16.9999H11.8997C11.4248 16.9998 11.0154 16.6655 10.9202 16.2001C10.8001 15.6127 10.5495 15.0594 10.1868 14.582C9.82415 14.1045 9.3582 13.7147 8.82454 13.4413C8.29089 13.1681 7.70221 13.0181 7.10286 13.0029C6.50354 12.9876 5.90848 13.1077 5.36165 13.3534C4.8147 13.5993 4.33024 13.9653 3.94368 14.4237C3.55715 14.8822 3.27816 15.4213 3.12825 16.0019C2.97837 16.5824 2.96124 17.1891 3.07747 17.7773C3.19376 18.3655 3.44058 18.9204 3.80012 19.4003C4.13127 19.8423 4.04186 20.4695 3.59993 20.8007C3.15795 21.1319 2.5307 21.0415 2.19954 20.5995C1.66033 19.8798 1.29003 19.0481 1.11555 18.1659C0.941117 17.2836 0.966865 16.3728 1.19173 15.5019C1.4166 14.631 1.83454 13.8214 2.41438 13.1337C2.99413 12.4462 3.7211 11.8979 4.54134 11.5292C5.36162 11.1606 6.25461 10.981 7.15364 11.0038Z" fill="black"/>
<path d="M6 21V19C6 18.4477 6.44772 18 7 18C7.55228 18 8 18.4477 8 19V21C8 21.5523 7.55228 22 7 22C6.44772 22 6 21.5523 6 21Z" fill="black"/>
</svg>
