<svg width="24" height="24" viewBox="0 0 24 24" fill="none" xmlns="http://www.w3.org/2000/svg">
<path fill-rule="evenodd" clip-rule="evenodd" d="M2.46447 5.46447C3.40215 4.52678 4.67392 4 6 4H14C15.3261 4 16.5979 4.52678 17.5355 5.46447C18.4732 6.40215 19 7.67392 19 9V19C19 19.5523 18.5523 20 18 20C17.4477 20 17 19.5523 17 19V9C17 8.20435 16.6839 7.44129 16.1213 6.87868C15.5587 6.31607 14.7956 6 14 6H6C5.20435 6 4.44129 6.31607 3.87868 6.87868C3.31607 7.44129 3 8.20435 3 9V17C3 17.2652 3.10536 17.5196 3.29289 17.7071C3.48043 17.8946 3.73478 18 4 18H6C6.55228 18 7 18.4477 7 19C7 19.5523 6.55228 20 6 20H4C3.20435 20 2.44129 19.6839 1.87868 19.1213C1.31607 18.5587 1 17.7956 1 17V9C1 7.67392 1.52678 6.40215 2.46447 5.46447Z" fill="black"/>
<path fill-rule="evenodd" clip-rule="evenodd" d="M1 9C1 8.44772 1.44772 8 2 8H5C5.53043 8 6.03914 8.21071 6.41421 8.58579C6.78929 8.96086 7 9.46957 7 10V12C7 12.5304 6.78929 13.0391 6.41421 13.4142C6.03914 13.7893 5.53043 14 5 14H2C1.44772 14 1 13.5523 1 13C1 12.4477 1.44772 12 2 12H5V10H2C1.44772 10 1 9.55228 1 9Z" fill="black"/>
<path fill-rule="evenodd" clip-rule="evenodd" d="M9.58579 8.58579C9.96086 8.21071 10.4696 8 11 8H13C13.5304 8 14.0391 8.21071 14.4142 8.58579C14.7893 8.96086 15 9.46957 15 10V18H21V17C21 16.4477 21.4477 16 22 16C22.5523 16 23 16.4477 23 17V18C23 18.5304 22.7893 19.0391 22.4142 19.4142C22.0391 19.7893 21.5304 20 21 20H10C9.44772 20 9 19.5523 9 19V10C9 9.46957 9.21071 8.96086 9.58579 8.58579ZM13 18V10H11V18H13Z" fill="black"/>
<path fill-rule="evenodd" clip-rule="evenodd" d="M8 18C7.44771 18 7 18.4477 7 19C7 19.5523 7.44771 20 8 20C8.55228 20 9 19.5523 9 19C9 18.4477 8.55228 18 8 18ZM5 19C5 17.3431 6.34315 16 8 16C9.65685 16 11 17.3431 11 19C11 20.6569 9.65685 22 8 22C6.34315 22 5 20.6569 5 19Z" fill="black"/>
</svg>
