<svg width="24" height="24" viewBox="0 0 24 24" fill="none" xmlns="http://www.w3.org/2000/svg">
<path fill-rule="evenodd" clip-rule="evenodd" d="M16.9471 7.05288C17.2149 7.32073 17.3085 7.71692 17.1887 8.07627L15.3847 13.4872C15.3847 13.4872 15.3847 13.4872 15.3847 13.4872C15.2374 13.929 14.9892 14.3306 14.6599 14.6599C14.3306 14.9893 13.9291 15.2374 13.4872 15.3847C13.4872 15.3847 13.4873 15.3847 13.4872 15.3847L8.07627 17.1887C7.71692 17.3085 7.32073 17.2149 7.05288 16.9471C6.78504 16.6792 6.69152 16.2831 6.81132 15.9237L8.61529 10.5128C8.61528 10.5128 8.6153 10.5128 8.61529 10.5128C8.76257 10.071 9.01073 9.66938 9.34006 9.34006C9.66939 9.01072 10.0709 8.76259 10.5127 8.61531C10.5127 8.61532 10.5128 8.61531 10.5127 8.61531L15.9237 6.81132C16.2831 6.69152 16.6792 6.78504 16.9471 7.05288ZM14.6587 9.3413L11.1452 10.5127C10.9979 10.5618 10.8641 10.6445 10.7543 10.7543C10.6445 10.8641 10.5618 10.9979 10.5127 11.1452L9.3413 14.6587L12.8548 13.4873C13.0021 13.4382 13.1359 13.3555 13.2457 13.2457C13.3555 13.1359 13.4382 13.0021 13.4873 12.8548L14.6587 9.3413Z" fill="black"/>
<path fill-rule="evenodd" clip-rule="evenodd" d="M12 3C7.02944 3 3 7.02944 3 12C3 16.9706 7.02944 21 12 21C16.9706 21 21 16.9706 21 12C21 7.02944 16.9706 3 12 3ZM1 12C1 5.92487 5.92487 1 12 1C18.0751 1 23 5.92487 23 12C23 18.0751 18.0751 23 12 23C5.92487 23 1 18.0751 1 12Z" fill="black"/>
</svg>
