<svg width="24" height="24" viewBox="0 0 24 24" fill="none" xmlns="http://www.w3.org/2000/svg">
<path d="M10 10C10 9.44771 10.4477 9 11 9C11.5523 9 12 9.44771 12 10V13H15C15.5523 13 16 13.4477 16 14C16 14.5523 15.5523 15 15 15H11C10.4477 15 10 14.5523 10 14V10Z" fill="black"/>
<path d="M14.2832 10.251C15.1987 9.97766 16.1664 9.92645 17.1055 10.1025C18.0445 10.2786 18.9283 10.6763 19.6826 11.2627C20.4368 11.849 21.0402 12.6071 21.4424 13.4736C21.6749 13.9745 21.4569 14.5692 20.9561 14.8017C20.4552 15.0342 19.8605 14.8171 19.6279 14.3164C19.3598 13.7387 18.9579 13.2327 18.4551 12.8418C17.9523 12.4509 17.3632 12.1858 16.7373 12.0683C16.1113 11.951 15.4658 11.9848 14.8555 12.167C14.2494 12.3479 13.6947 12.6698 13.2373 13.1064L11.7227 14.6914C11.3409 15.0904 10.7077 15.1043 10.3086 14.7226C9.90961 14.3409 9.89567 13.7077 10.2773 13.3086L11.8125 11.7041L11.8418 11.6738C12.5306 11.0118 13.3678 10.5243 14.2832 10.251Z" fill="black"/>
<path d="M15 6V2C15 1.44772 15.4477 1 16 1C16.5523 1 17 1.44772 17 2V6C17 6.55228 16.5523 7 16 7C15.4477 7 15 6.55228 15 6Z" fill="black"/>
<path d="M20.2775 17.3086C20.6592 16.9097 21.2925 16.8957 21.6916 17.2773C22.0905 17.6591 22.1045 18.2923 21.7228 18.6914L20.1877 20.2959C20.178 20.306 20.1684 20.3165 20.1584 20.3262C19.4696 20.9881 18.6323 21.4757 17.717 21.749C16.8015 22.0223 15.8337 22.0735 14.8947 21.8975C13.9556 21.7214 13.0718 21.3237 12.3175 20.7373C11.5633 20.151 10.96 19.3929 10.5578 18.5264C10.3253 18.0254 10.5432 17.4308 11.0441 17.1982C11.545 16.9658 12.1396 17.1828 12.3722 17.6836C12.6404 18.2613 13.0422 18.7673 13.5451 19.1582C14.0479 19.5491 14.6369 19.8142 15.2629 19.9316C15.8889 20.049 16.5344 20.0152 17.1447 19.833C17.7549 19.6508 18.3125 19.3251 18.7716 18.8838L20.2775 17.3086Z" fill="black"/>
<path d="M20 22V19H17C16.4477 19 16 18.5523 16 18C16 17.4477 16.4477 17 17 17H21C21.5523 17 22 17.4477 22 18V22C22 22.5523 21.5523 23 21 23C20.4477 23 20 22.5523 20 22Z" fill="black"/>
<path d="M20 8.5V6C20 5.73478 19.8946 5.4805 19.707 5.29297C19.5195 5.10543 19.2652 5 19 5H5C4.73478 5 4.4805 5.10543 4.29297 5.29297C4.10543 5.4805 4 5.73478 4 6V20C4 20.2652 4.10543 20.5195 4.29297 20.707C4.48051 20.8946 4.73478 21 5 21H9.2998C9.85209 21 10.2998 21.4477 10.2998 22C10.2998 22.5523 9.85209 23 9.2998 23H5C4.20435 23 3.44152 22.6837 2.87891 22.1211C2.3163 21.5585 2 20.7957 2 20V6C2 5.20435 2.3163 4.44152 2.87891 3.87891C3.44152 3.3163 4.20435 3 5 3H19C19.7957 3 20.5585 3.3163 21.1211 3.87891C21.6837 4.44151 22 5.20435 22 6V8.5C22 9.05228 21.5523 9.5 21 9.5C20.4477 9.5 20 9.05228 20 8.5Z" fill="black"/>
<path d="M7 9C7.55228 9 8 9.44771 8 10C8 10.5523 7.55228 11 7 11H3C2.44772 11 2 10.5523 2 10C2 9.44771 2.44772 9 3 9H7Z" fill="black"/>
<path d="M7 6V2C7 1.44772 7.44772 1 8 1C8.55228 1 9 1.44772 9 2V6C9 6.55228 8.55228 7 8 7C7.44772 7 7 6.55228 7 6Z" fill="black"/>
</svg>
