<svg width="24" height="24" viewBox="0 0 24 24" fill="none" xmlns="http://www.w3.org/2000/svg">
<path d="M8.36907 3.22462C8.76184 2.90427 9.34084 2.92686 9.70696 3.29298L14.707 8.29298C15.0975 8.6835 15.0975 9.31652 14.707 9.70704C14.3164 10.0976 13.6834 10.0976 13.2929 9.70704L8.99992 5.41407L4.70696 9.70704C4.31643 10.0976 3.68342 10.0976 3.29289 9.70704C2.90237 9.31652 2.90237 8.6835 3.29289 8.29298L8.29289 3.29298L8.36907 3.22462Z" fill="black"/>
<path d="M8 16V4C8 3.44772 8.44772 3 9 3C9.55228 3 10 3.44772 10 4V16C10 16.7956 10.3163 17.5585 10.8789 18.1211C11.4415 18.6837 12.2044 19 13 19H20C20.5523 19 21 19.4477 21 20C21 20.5523 20.5523 21 20 21H13C11.6739 21 10.4025 20.4728 9.46484 19.5352C8.52716 18.5975 8 17.3261 8 16Z" fill="black"/>
</svg>
