<svg width="24" height="24" viewBox="0 0 24 24" fill="none" xmlns="http://www.w3.org/2000/svg">
<path fill-rule="evenodd" clip-rule="evenodd" d="M8 1C8.55228 1 9 1.44772 9 2V6C9 6.55228 8.55228 7 8 7C7.44772 7 7 6.55228 7 6V2C7 1.44772 7.44772 1 8 1Z" fill="black"/>
<path fill-rule="evenodd" clip-rule="evenodd" d="M16 1C16.5523 1 17 1.44772 17 2V6C17 6.55228 16.5523 7 16 7C15.4477 7 15 6.55228 15 6V2C15 1.44772 15.4477 1 16 1Z" fill="black"/>
<path fill-rule="evenodd" clip-rule="evenodd" d="M5 5C4.44772 5 4 5.44771 4 6V20C4 20.5523 4.44772 21 5 21H19C19.5523 21 20 20.5523 20 20V6C20 5.44771 19.5523 5 19 5H5ZM2 6C2 4.34315 3.34315 3 5 3H19C20.6569 3 22 4.34315 22 6V20C22 21.6569 20.6569 23 19 23H5C3.34315 23 2 21.6569 2 20V6Z" fill="black"/>
<path fill-rule="evenodd" clip-rule="evenodd" d="M2 10C2 9.44772 2.44772 9 3 9H21C21.5523 9 22 9.44772 22 10C22 10.5523 21.5523 11 21 11H3C2.44772 11 2 10.5523 2 10Z" fill="black"/>
<path fill-rule="evenodd" clip-rule="evenodd" d="M15.7071 13.2929C16.0976 13.6834 16.0976 14.3166 15.7071 14.7071L11.7071 18.7071C11.3166 19.0976 10.6834 19.0976 10.2929 18.7071L8.29289 16.7071C7.90237 16.3166 7.90237 15.6834 8.29289 15.2929C8.68342 14.9024 9.31658 14.9024 9.70711 15.2929L11 16.5858L14.2929 13.2929C14.6834 12.9024 15.3166 12.9024 15.7071 13.2929Z" fill="black"/>
</svg>
