<svg width="24" height="24" viewBox="0 0 24 24" fill="none" xmlns="http://www.w3.org/2000/svg">
<path fill-rule="evenodd" clip-rule="evenodd" d="M9.09315 1.69623C9.99571 1.24495 10.9909 1.01001 12 1.01001C13.0091 1.01001 14.0044 1.24495 14.9069 1.69623C15.8095 2.14751 16.5946 2.80274 17.2 3.61001C17.8055 4.41728 18.2147 5.35444 18.3952 6.34725C18.5129 6.99469 18.5313 7.6542 18.4514 8.30336C19.1376 8.51869 19.7857 8.84716 20.368 9.27744C21.235 9.91809 21.9291 10.7643 22.3877 11.74C22.8464 12.7156 23.0551 13.79 22.9952 14.8664C22.9353 15.9427 22.6086 16.9873 22.0446 17.906C21.4805 18.8248 20.6968 19.5888 19.764 20.1292C18.8313 20.6697 17.7787 20.9697 16.7012 21.0022C15.6236 21.0347 14.5549 20.7987 13.5912 20.3154C13.0044 20.0211 12.4678 19.6407 11.9981 19.1888C11.5282 19.6388 10.9916 20.0173 10.4051 20.31C9.44148 20.7909 8.37345 21.0249 7.29701 20.9908C6.22058 20.9567 5.16948 20.6557 4.23817 20.1148C3.30687 19.574 2.52456 18.8102 1.96155 17.8921C1.39854 16.974 1.07247 15.9304 1.01266 14.8551C0.952844 13.7797 1.16115 12.7064 1.61887 11.7315C2.07658 10.7567 2.76936 9.91081 3.63492 9.26998C4.216 8.83977 4.86273 8.51102 5.54761 8.29502C5.46896 7.64855 5.48767 6.99192 5.60488 6.34725C5.78539 5.35444 6.19458 4.41728 6.80003 3.61001C7.40549 2.80274 8.19059 2.14751 9.09315 1.69623ZM12 3.01001C11.3014 3.01001 10.6124 3.17266 9.98757 3.48509C9.36272 3.79751 8.8192 4.25113 8.40003 4.81001C7.98087 5.36889 7.69759 6.01769 7.57262 6.70503C7.44765 7.39236 7.48443 8.09935 7.68003 8.77001C7.76116 9.04816 7.71766 9.34782 7.56079 9.59142C7.40392 9.83502 7.14911 9.99861 6.86232 10.0398C6.12431 10.1459 5.42423 10.4337 4.82499 10.8774C4.22575 11.321 3.74614 11.9066 3.42926 12.5815C3.11238 13.2565 2.96816 13.9995 3.00957 14.744C3.05098 15.4884 3.27672 16.2109 3.6665 16.8465C4.05627 17.4821 4.59787 18.0109 5.24262 18.3854C5.88737 18.7598 6.61505 18.9682 7.36028 18.9918C8.1055 19.0154 8.84491 18.8534 9.51205 18.5205C10.1792 18.1875 10.7531 17.6941 11.1823 17.0844C11.3699 16.818 11.6755 16.6596 12.0013 16.66C12.3271 16.6604 12.6323 16.8195 12.8192 17.0864C13.2473 17.6978 13.8207 18.193 14.4879 18.5276C15.155 18.8622 15.8949 19.0256 16.6409 19.0031C17.3869 18.9806 18.1156 18.7729 18.7613 18.3988C19.4071 18.0246 19.9497 17.4957 20.3402 16.8596C20.7307 16.2236 20.9568 15.5004 20.9983 14.7552C21.0398 14.01 20.8952 13.2662 20.5777 12.5908C20.2602 11.9154 19.7797 11.3295 19.1795 10.886C18.5792 10.4424 17.8781 10.1552 17.1392 10.05C16.6463 9.9799 16.28 9.55787 16.28 9.06001V9.05001C16.28 8.95525 16.2935 8.86098 16.32 8.77001C16.5156 8.09935 16.5524 7.39236 16.4274 6.70503C16.3025 6.01769 16.0192 5.36889 15.6 4.81001C15.1809 4.25113 14.6373 3.79751 14.0125 3.48509C13.3876 3.17266 12.6986 3.01001 12 3.01001Z" fill="black"/>
<path fill-rule="evenodd" clip-rule="evenodd" d="M12 16.66C12.5523 16.66 13 17.1077 13 17.66V22C13 22.5523 12.5523 23 12 23C11.4477 23 11 22.5523 11 22V17.66C11 17.1077 11.4477 16.66 12 16.66Z" fill="black"/>
</svg>
