<svg width="24" height="24" viewBox="0 0 24 24" fill="none" xmlns="http://www.w3.org/2000/svg">
<path fill-rule="evenodd" clip-rule="evenodd" d="M6.43884 4.99455C6.18733 4.97628 5.93469 5.00773 5.69533 5.0871C5.45598 5.16648 5.23461 5.29223 5.04386 5.45717C4.85375 5.62156 4.69778 5.82167 4.58477 6.04613L3.20618 8.83327C3.20576 8.83413 3.20533 8.835 3.2049 8.83586C2.97847 9.29033 2.94129 9.816 3.10148 10.2978C3.26156 10.7793 3.60567 11.1778 4.05863 11.4063C4.05898 11.4065 4.05934 11.4066 4.0597 11.4068L13.5524 16.1577L15.8486 11.566C15.8527 11.5575 15.857 11.549 15.8614 11.5406L16.6554 9.95263C16.6554 9.95255 16.6555 9.95272 16.6554 9.95263C16.6554 9.95224 16.6552 9.95156 16.6551 9.95112C16.6551 9.95091 16.6552 9.95134 16.6551 9.95112C16.6551 9.9509 16.6549 9.95002 16.6548 9.94978C16.6547 9.94962 16.6548 9.94995 16.6548 9.94978C16.6547 9.94949 16.6545 9.9487 16.6544 9.9484C16.6542 9.94794 16.6541 9.94749 16.6539 9.94705C16.6537 9.9466 16.6535 9.94617 16.6534 9.94577C16.6532 9.94552 16.6535 9.946 16.6534 9.94577L16.6528 9.94462C16.6528 9.94454 16.6529 9.9447 16.6528 9.94462L7.16116 5.19361C6.9358 5.08047 6.69035 5.01283 6.43884 4.99455ZM17.3677 12.9999L16.5735 14.588L18.3475 17.0686L20.3813 12.9999H17.3677ZM15.5617 16.6113L15.3413 17.0522C15.2238 17.2871 15.0611 17.4966 14.8626 17.6687C14.6642 17.8408 14.4337 17.9722 14.1845 18.0552C13.9352 18.1382 13.672 18.1713 13.41 18.1526C13.148 18.1339 12.8922 18.0638 12.6573 17.9462C12.6573 17.9462 12.6573 17.9462 12.6573 17.9462L3.16229 13.1942L3.15998 13.193C2.23413 12.7267 1.5307 11.9125 1.20363 10.9288C0.876725 9.94558 0.952406 8.87293 1.41409 7.94536C1.41432 7.9449 1.41455 7.94444 1.41478 7.94398L2.79349 5.15656C2.79434 5.15485 2.79519 5.15314 2.79605 5.15143C3.02695 4.69126 3.34625 4.28108 3.73569 3.94433C4.12514 3.60757 4.57711 3.35083 5.06578 3.18877C5.55446 3.02671 6.07028 2.9625 6.58378 2.99981C7.09709 3.03711 7.59803 3.17512 8.05801 3.40597C8.05784 3.40588 8.05818 3.40605 8.05801 3.40597L17.5534 8.15868C18.5337 8.64939 18.9373 9.85999 18.4475 10.8407L18.3679 10.9999H20.3824C20.7232 11.0001 21.0582 11.0874 21.3558 11.2534C21.6534 11.4195 21.9036 11.6588 22.0828 11.9487C22.2619 12.2386 22.3639 12.5695 22.3793 12.9099C22.3946 13.2504 22.3227 13.5891 22.1704 13.8939L20.1363 17.963C19.9821 18.2714 19.7506 18.5349 19.4646 18.7275C19.1786 18.9201 18.8477 19.0355 18.5039 19.0624C18.1602 19.0894 17.8153 19.027 17.5028 18.8814C17.1902 18.7358 16.9206 18.5118 16.7202 18.2313L15.5617 16.6113Z" fill="black"/>
<path fill-rule="evenodd" clip-rule="evenodd" d="M6 9C6 8.44772 6.44772 8 7 8H7.01C7.56228 8 8.01 8.44772 8.01 9C8.01 9.55228 7.56228 10 7.01 10H7C6.44772 10 6 9.55228 6 9Z" fill="black"/>
</svg>
