<svg width="24" height="24" viewBox="0 0 24 24" fill="none" xmlns="http://www.w3.org/2000/svg">
<path fill-rule="evenodd" clip-rule="evenodd" d="M9 6C9 5.44772 9.44772 5 10 5H18C18.5523 5 19 5.44772 19 6C19 6.55228 18.5523 7 18 7H10C9.44772 7 9 6.55228 9 6Z" fill="black"/>
<path fill-rule="evenodd" clip-rule="evenodd" d="M11 16C11 15.4477 11.4477 15 12 15H18C18.5523 15 19 15.4477 19 16C19 16.5523 18.5523 17 18 17H12C11.4477 17 11 16.5523 11 16Z" fill="black"/>
<path fill-rule="evenodd" clip-rule="evenodd" d="M3 2C3.55228 2 4 2.44772 4 3V19C4 19.2652 4.10536 19.5196 4.29289 19.7071C4.48043 19.8946 4.73478 20 5 20H21C21.5523 20 22 20.4477 22 21C22 21.5523 21.5523 22 21 22H5C4.20435 22 3.44129 21.6839 2.87868 21.1213C2.31607 20.5587 2 19.7956 2 19V3C2 2.44772 2.44772 2 3 2Z" fill="black"/>
<path fill-rule="evenodd" clip-rule="evenodd" d="M7 11C7 10.4477 7.44772 10 8 10H15C15.5523 10 16 10.4477 16 11C16 11.5523 15.5523 12 15 12H8C7.44772 12 7 11.5523 7 11Z" fill="black"/>
</svg>
