<svg width="24" height="24" viewBox="0 0 24 24" fill="none" xmlns="http://www.w3.org/2000/svg">
<path fill-rule="evenodd" clip-rule="evenodd" d="M6 13C6 12.4477 6.44772 12 7 12H11C11.5523 12 12 12.4477 12 13C12 13.5523 11.5523 14 11 14H7C6.44772 14 6 13.5523 6 13Z" fill="black"/>
<path fill-rule="evenodd" clip-rule="evenodd" d="M14 9C14 8.44772 14.4477 8 15 8H19C19.5523 8 20 8.44772 20 9C20 9.55228 19.5523 10 19 10H15C14.4477 10 14 9.55228 14 9Z" fill="black"/>
<path fill-rule="evenodd" clip-rule="evenodd" d="M3 2C3.55228 2 4 2.44772 4 3V19C4 19.2652 4.10536 19.5196 4.29289 19.7071C4.48043 19.8946 4.73478 20 5 20H21C21.5523 20 22 20.4477 22 21C22 21.5523 21.5523 22 21 22H5C4.20435 22 3.44129 21.6839 2.87868 21.1213C2.31607 20.5587 2 19.7956 2 19V3C2 2.44772 2.44772 2 3 2Z" fill="black"/>
<path fill-rule="evenodd" clip-rule="evenodd" d="M16 6V16H18V6H16ZM14 6C14 4.89543 14.8954 4 16 4H18C19.1046 4 20 4.89543 20 6V16C20 17.1046 19.1046 18 18 18H16C14.8954 18 14 17.1046 14 16V6Z" fill="black"/>
<path fill-rule="evenodd" clip-rule="evenodd" d="M8 9V16H10V9H8ZM6 9C6 7.89543 6.89543 7 8 7H10C11.1046 7 12 7.89543 12 9V16C12 17.1046 11.1046 18 10 18H8C6.89543 18 6 17.1046 6 16V9Z" fill="black"/>
</svg>
