<svg width="24" height="24" viewBox="0 0 24 24" fill="none" xmlns="http://www.w3.org/2000/svg">
<path d="M12.9998 6C13.5595 6.00005 14.1133 6.11736 14.6248 6.34473C15.1362 6.57216 15.5945 6.90471 15.9695 7.32031C16.3445 7.7359 16.6277 8.22573 16.8015 8.75781C16.9754 9.28988 17.0355 9.85237 16.9783 10.4092C16.9218 10.9586 16.431 11.3583 15.8816 11.3018C15.3324 11.2452 14.9328 10.7543 14.989 10.2051C15.0177 9.9267 14.988 9.64492 14.9011 9.37891C14.8142 9.11296 14.6725 8.86791 14.4851 8.66016C14.2976 8.45237 14.068 8.28657 13.8123 8.17285C13.5565 8.05913 13.2796 8.00002 12.9998 8H12.656C12.1037 8 11.656 7.55228 11.656 7C11.656 6.44772 12.1037 6 12.656 6H12.9998Z" fill="black"/>
<path d="M13 12C13.5523 12 14 12.4477 14 13C14 13.5523 13.5523 14 13 14H9C8.44772 14 8 13.5523 8 13C8 12.4477 8.44772 12 9 12H13Z" fill="black"/>
<path d="M1.00122 12.0003C1.00127 9.08319 2.1602 6.28565 4.2229 4.22294C4.61343 3.83243 5.24644 3.83242 5.63696 4.22294C6.02748 4.61347 6.02748 5.24648 5.63696 5.63701C3.94933 7.32464 3.00127 9.61362 3.00122 12.0003C3.00122 14.3869 3.9494 16.6759 5.63696 18.3636C7.3246 20.0512 9.61357 20.9993 12.0002 20.9993C14.387 20.9993 16.6758 20.0512 18.3635 18.3636C18.7539 17.9732 19.387 17.9734 19.7776 18.3636C20.1681 18.7541 20.1681 19.3871 19.7776 19.7776C17.7148 21.8404 14.9174 22.9993 12.0002 22.9993C9.08314 22.9993 6.28561 21.8403 4.2229 19.7776C2.16026 17.7149 1.00122 14.9174 1.00122 12.0003Z" fill="black"/>
<path d="M1.29289 1.29295C1.68342 0.90243 2.31643 0.90243 2.70696 1.29295L22.707 21.293C23.0975 21.6835 23.0975 22.3165 22.707 22.707C22.3164 23.0975 21.6834 23.0975 21.2929 22.707L1.29289 2.70702C0.902369 2.31649 0.902369 1.68348 1.29289 1.29295Z" fill="black"/>
<path d="M7.99276 1.75553C9.98417 0.976478 12.1595 0.79523 14.2525 1.23307C16.3457 1.671 18.2667 2.70918 19.7789 4.22135C21.2909 5.73343 22.3292 7.6537 22.7672 9.74674C23.2051 11.84 23.0238 14.0159 22.2447 16.0075C22.0435 16.5218 21.4631 16.7751 20.9488 16.5739C20.4346 16.3727 20.1805 15.7932 20.3814 15.279C21.0189 13.6496 21.1674 11.8695 20.8092 10.1569C20.4509 8.44427 19.6011 6.87264 18.3639 5.63541C17.1267 4.39838 15.5558 3.54838 13.8433 3.1901C12.1308 2.83181 10.3507 2.9804 8.72127 3.61783C8.20695 3.81905 7.62659 3.56575 7.42538 3.05143C7.22418 2.53711 7.47844 1.95674 7.99276 1.75553Z" fill="black"/>
<path d="M8 17V9C8 8.44772 8.44772 8 9 8C9.55228 8 10 8.44772 10 9V17C10 17.5523 9.55228 18 9 18C8.44772 18 8 17.5523 8 17Z" fill="black"/>
</svg>
