<svg width="24" height="24" viewBox="0 0 24 24" fill="none" xmlns="http://www.w3.org/2000/svg">
<path fill-rule="evenodd" clip-rule="evenodd" d="M10.999 3.00104C10.999 1.92752 11.8902 0.93537 13.0965 1.056C15.622 1.30904 17.9824 2.42765 19.7773 4.22217C21.5722 6.01669 22.6914 8.3767 22.945 10.9021C23.0657 12.1069 22.0742 13 21.0001 13C21.0001 13 21.0001 13 21.0001 13L12.999 13.001C12.4685 13.001 11.9598 12.7903 11.5848 12.4152C11.2097 12.0402 10.999 11.5315 10.999 11.001V3.00104ZM12.999 3.05683V11.001L20.9442 11C20.7172 8.97227 19.8077 7.08062 18.3633 5.63654C16.9188 4.19241 15.0269 3.2833 12.999 3.05683Z" fill="black"/>
<path fill-rule="evenodd" clip-rule="evenodd" d="M8.91651 2.43006C9.1374 2.93625 8.90612 3.52566 8.39994 3.74656C7.05253 4.33454 5.86967 5.24364 4.95478 6.39438C4.03988 7.54512 3.42081 8.90246 3.15167 10.3477C2.88254 11.793 2.97155 13.2822 3.41091 14.6851C3.85027 16.088 4.62661 17.362 5.67205 18.3955C6.7175 19.4291 8.00022 20.1909 9.40807 20.6142C10.8159 21.0375 12.306 21.1095 13.7481 20.8239C15.1902 20.5382 16.5404 19.9037 17.6806 18.9757C18.8208 18.0478 19.7164 16.8546 20.2889 15.5006C20.504 14.9919 21.0908 14.7539 21.5994 14.969C22.1081 15.1841 22.3461 15.7708 22.131 16.2795C21.4312 17.9344 20.3367 19.3927 18.9431 20.5269C17.5495 21.6611 15.8993 22.4367 14.1367 22.7857C12.3741 23.1348 10.5529 23.0469 8.83218 22.5295C7.11147 22.0121 5.5437 21.0811 4.26594 19.8178C2.98817 18.5546 2.03931 16.9975 1.50231 15.2828C0.965318 13.5682 0.856534 11.748 1.18547 9.98159C1.51441 8.21515 2.27106 6.55618 3.38927 5.14972C4.50747 3.74327 5.95319 2.63214 7.60002 1.91349C8.1062 1.6926 8.69562 1.92388 8.91651 2.43006Z" fill="black"/>
</svg>
