<svg width="24" height="24" viewBox="0 0 24 24" fill="none" xmlns="http://www.w3.org/2000/svg">
<path d="M11.0001 6C11.0001 5.44772 11.4478 5 12.0001 5C12.5524 5 13.0001 5.44772 13.0001 6V12C13.0001 12.3466 12.8203 12.6684 12.5255 12.8506C12.2307 13.0327 11.8627 13.0495 11.5528 12.8945L7.5528 10.8945C7.05882 10.6475 6.85855 10.0467 7.10554 9.55273C7.35253 9.05876 7.95336 8.85848 8.44733 9.10547L11.0001 10.3818V6Z" fill="black"/>
<path d="M21 12C21 7.02944 16.9706 3 12 3C7.02944 3 3 7.02944 3 12C3 16.9706 7.02944 21 12 21C16.9706 21 21 16.9706 21 12ZM23 12C23 18.0751 18.0751 23 12 23C5.92487 23 1 18.0751 1 12C1 5.92487 5.92487 1 12 1C18.0751 1 23 5.92487 23 12Z" fill="black"/>
</svg>
