<svg width="24" height="24" viewBox="0 0 24 24" fill="none" xmlns="http://www.w3.org/2000/svg">
<path d="M11 16V12C11 11.4478 11.4477 11 12 11C12.5523 11 13 11.4478 13 12V16C13 16.5523 12.5523 17 12 17C11.4477 17 11 16.5523 11 16Z" fill="black"/>
<path d="M12.0098 19C12.562 19 13.0098 19.4478 13.0098 20C13.0098 20.5523 12.562 21 12.0098 21H12C11.4477 21 11 20.5523 11 20C11 19.4478 11.4477 19 12 19H12.0098Z" fill="black"/>
<path d="M20.9999 13.5004C20.9999 12.5722 20.6309 11.6812 19.9746 11.0248C19.3182 10.3687 18.428 10.0004 17.4999 10.0004H15.7099C15.2677 10.0004 14.8783 9.70932 14.7519 9.28557C14.455 8.29004 13.9041 7.38837 13.1542 6.66936C12.4044 5.95049 11.4806 5.43884 10.4736 5.18401C9.46656 4.92921 8.41061 4.93953 7.40912 5.21526C6.40749 5.49108 5.49442 6.02271 4.75971 6.75725C4.02511 7.49168 3.49381 8.40429 3.21772 9.40569C2.94166 10.4073 2.92988 11.4639 3.18452 12.4711C3.43911 13.4782 3.95117 14.4018 4.66987 15.1518C5.38875 15.9018 6.29056 16.4523 7.28608 16.7494C7.81518 16.9073 8.11566 17.4645 7.95795 17.9936C7.80001 18.5228 7.24303 18.8244 6.71381 18.6664C5.3865 18.2703 4.18499 17.5356 3.22651 16.5356C2.26812 15.5356 1.58555 14.3042 1.24604 12.9614C0.906519 11.6184 0.920934 10.2099 1.28901 8.87444C1.65707 7.53913 2.36615 6.32252 3.34565 5.34319C4.32524 4.36382 5.54239 3.6553 6.87787 3.28752C8.21339 2.91976 9.62189 2.90473 10.9648 3.24455C12.3076 3.5844 13.5392 4.26731 14.539 5.226C15.3562 6.00958 15.9945 6.95617 16.4169 8.00041H17.4999C18.9585 8.00041 20.3572 8.57952 21.3886 9.61076C22.4201 10.6422 22.9999 12.0417 22.9999 13.5004C22.9998 14.959 22.42 16.3577 21.3886 17.3891C20.3572 18.4204 18.9585 19.0004 17.4999 19.0004H16.9999C16.4478 19.0004 16.0001 18.5525 15.9999 18.0004C15.9999 17.4481 16.4477 17.0004 16.9999 17.0004H17.4999C18.4281 17.0004 19.3182 16.6313 19.9746 15.975C20.6308 15.3187 20.9998 14.4285 20.9999 13.5004Z" fill="black"/>
</svg>
