<svg width="24" height="24" viewBox="0 0 24 24" fill="none" xmlns="http://www.w3.org/2000/svg">
<path d="M6.50004 2.47379C6.97836 2.19771 7.59016 2.3617 7.86625 2.84001L11.8663 9.76969C12.1423 10.248 11.9782 10.8598 11.5 11.1359C11.0217 11.412 10.4099 11.248 10.1338 10.7697L6.13383 3.84001C5.85774 3.36169 6.02173 2.74989 6.50004 2.47379Z" fill="black"/>
<path d="M10.1338 13.23C10.4099 12.7517 11.0217 12.5877 11.5 12.8638C11.9783 13.1399 12.1423 13.7517 11.8662 14.23L7.86622 21.1597C7.59013 21.638 6.97833 21.802 6.50001 21.5259C6.0218 21.2498 5.85774 20.638 6.13379 20.1597L10.1338 13.23Z" fill="black"/>
<path d="M11 22V20C11 19.4477 11.4477 19 12 19C12.5523 19 13 19.4477 13 20V22C13 22.5523 12.5523 23 12 23C11.4477 23 11 22.5523 11 22Z" fill="black"/>
<path d="M11 4V2C11 1.44772 11.4477 1 12 1C12.5523 1 13 1.44772 13 2V4C13 4.55228 12.5523 5 12 5C11.4477 5 11 4.55228 11 4Z" fill="black"/>
<path d="M22 11C22.5523 11 23 11.4477 23 12C23 12.5523 22.5523 13 22 13H14C13.4477 13 13 12.5523 13 12C13 11.4477 13.4477 11 14 11H22Z" fill="black"/>
<path d="M15.4999 18.0638C15.978 17.7879 16.5898 17.9521 16.8661 18.43L17.8661 20.1595C18.1424 20.6377 17.978 21.2494 17.4999 21.5257C17.0218 21.8019 16.41 21.6385 16.1337 21.1605L15.1337 19.43C14.8577 18.952 15.0219 18.3401 15.4999 18.0638Z" fill="black"/>
<path d="M16.1339 2.84C16.4102 2.36203 17.022 2.19783 17.5001 2.47379C17.9781 2.75008 18.1423 3.36193 17.8663 3.84L16.8663 5.57047C16.59 6.04852 15.9782 6.21185 15.5001 5.9357C15.022 5.65934 14.8576 5.04762 15.1339 4.56949L16.1339 2.84Z" fill="black"/>
<path d="M4 11C4.55228 11 5 11.4477 5 12C5 12.5523 4.55228 13 4 13H2C1.44772 13 1 12.5523 1 12C1 11.4477 1.44772 11 2 11H4Z" fill="black"/>
<path d="M18.0639 15.5C18.3402 15.022 18.952 14.8578 19.4301 15.1338L21.1606 16.1338C21.6386 16.4101 21.8019 17.0219 21.5258 17.5C21.2494 17.9781 20.6377 18.1425 20.1596 17.8662L18.4301 16.8662C17.9521 16.5899 17.7879 15.978 18.0639 15.5Z" fill="black"/>
<path d="M20.1596 6.13381C20.6377 5.85753 21.2494 6.02191 21.5258 6.50002C21.8019 6.97812 21.6386 7.5899 21.1606 7.86623L19.4301 8.86623C18.952 9.14219 18.3402 8.97799 18.0639 8.50002C17.7879 8.02194 17.9521 7.41009 18.4301 7.13381L20.1596 6.13381Z" fill="black"/>
<path d="M4.56949 15.1338C5.04762 14.8575 5.65934 15.0219 5.9357 15.5C6.21185 15.9781 6.04852 16.5899 5.57047 16.8662L3.84 17.8662C3.36193 18.1422 2.75008 17.978 2.47379 17.5C2.19783 17.0219 2.36203 16.4101 2.84 16.1338L4.56949 15.1338Z" fill="black"/>
<path d="M2.47379 6.49997C2.75008 6.022 3.36193 5.8578 3.84 6.13376L5.57047 7.13376C6.04852 7.41009 6.21185 8.02187 5.9357 8.49997C5.65934 8.97808 5.04762 9.14246 4.56949 8.86619L2.84 7.86619C2.36203 7.5899 2.19783 6.97805 2.47379 6.49997Z" fill="black"/>
<path d="M13 12C13 11.4477 12.5523 11 12 11C11.4477 11 11 11.4477 11 12C11 12.5523 11.4477 13 12 13C12.5523 13 13 12.5523 13 12ZM15 12C15 13.6569 13.6569 15 12 15C10.3431 15 9 13.6569 9 12C9 10.3431 10.3431 9 12 9C13.6569 9 15 10.3431 15 12Z" fill="black"/>
<path d="M19 12C19 8.13401 15.866 5 12 5C8.13401 5 5 8.13401 5 12C5 15.866 8.13401 19 12 19C15.866 19 19 15.866 19 12ZM21 12C21 16.9706 16.9706 21 12 21C7.02944 21 3 16.9706 3 12C3 7.02944 7.02944 3 12 3C16.9706 3 21 7.02944 21 12Z" fill="black"/>
</svg>
