<svg width="24" height="24" viewBox="0 0 24 24" fill="none" xmlns="http://www.w3.org/2000/svg">
<path d="M21 13C21.5523 13 22 13.4477 22 14C22 14.5523 21.5523 15 21 15H11C10.4477 15 10 14.5523 10 14C10 13.4477 10.4477 13 11 13H21Z" fill="black"/>
<path d="M19 7.34375V6C19 5.73478 18.8946 5.4805 18.707 5.29297C18.5195 5.10543 18.2652 5 18 5H16C15.4477 5 15 4.55228 15 4C15 3.44772 15.4477 3 16 3H18C18.7956 3 19.5585 3.3163 20.1211 3.87891C20.6837 4.44151 21 5.20435 21 6V7.34375C21 7.89603 20.5523 8.34375 20 8.34375C19.4477 8.34375 19 7.89603 19 7.34375Z" fill="black"/>
<path d="M16.2929 9.29295C16.6834 8.90243 17.3164 8.90243 17.707 9.29295L21.707 13.293C22.0975 13.6835 22.0975 14.3165 21.707 14.707L17.707 18.707C17.3164 19.0975 16.6834 19.0975 16.2929 18.707C15.9024 18.3165 15.9024 17.6835 16.2929 17.293L19.5859 14L16.2929 10.707C15.9024 10.3165 15.9024 9.68348 16.2929 9.29295Z" fill="black"/>
<path d="M18.8965 20.4434C19.1414 19.9484 19.7413 19.7463 20.2363 19.9912C20.7311 20.2361 20.9341 20.8352 20.6895 21.3301C20.4414 21.8313 20.0581 22.2538 19.583 22.5488C19.1672 22.8069 18.6951 22.9593 18.209 22.9932L18 23H6C5.20435 23 4.44152 22.6837 3.87891 22.1211C3.3163 21.5585 3 20.7957 3 20V6C3 5.20435 3.3163 4.44152 3.87891 3.87891C4.44152 3.3163 5.20435 3 6 3H8C8.55228 3 9 3.44772 9 4C9 4.55228 8.55228 5 8 5H6C5.73478 5 5.4805 5.10543 5.29297 5.29297C5.10543 5.4805 5 5.73478 5 6V20C5 20.2652 5.10543 20.5195 5.29297 20.707C5.48051 20.8946 5.73478 21 6 21H18C18.1865 21 18.3699 20.9479 18.5283 20.8496C18.6866 20.7513 18.8139 20.6104 18.8965 20.4434Z" fill="black"/>
<path d="M9 3V5H15V3H9ZM17 5C17 6.10457 16.1046 7 15 7H9C7.89543 7 7 6.10457 7 5V3C7 1.89543 7.89543 1 9 1H15C16.1046 1 17 1.89543 17 3V5Z" fill="black"/>
</svg>
