<svg width="24" height="24" viewBox="0 0 24 24" fill="none" xmlns="http://www.w3.org/2000/svg">
<path d="M11 21V16C11 15.4477 11.4477 15 12 15C12.5523 15 13 15.4477 13 16V21C13 21.5523 12.5523 22 12 22C11.4477 22 11 21.5523 11 21Z" fill="black"/>
<path d="M15 21V14C15 13.4477 15.4477 13 16 13C16.5523 13 17 13.4477 17 14V21C17 21.5523 16.5523 22 16 22C15.4477 22 15 21.5523 15 21Z" fill="black"/>
<path d="M19 21V10C19 9.44772 19.4477 9 20 9C20.5523 9 21 9.44772 21 10V21C21 21.5523 20.5523 22 20 22C19.4477 22 19 21.5523 19 21Z" fill="black"/>
<path fill-rule="evenodd" clip-rule="evenodd" d="M22.7073 3.70703L14.0622 12.3521C13.4834 12.9324 12.5237 12.9392 11.9382 12.3521L9.00064 9.41461L2.70722 15.7071C1.7952 16.619 0.381095 15.2046 1.29311 14.2928L7.94011 7.64677C8.52317 7.06388 9.47811 7.06383 10.0612 7.64671L13.0002 10.5857L21.2931 2.29282C22.205 1.38087 23.6192 2.79508 22.7073 3.70703Z" fill="black"/>
<path d="M3 21V18C3 17.4477 3.44772 17 4 17C4.55228 17 5 17.4477 5 18V21C5 21.5523 4.55228 22 4 22C3.44772 22 3 21.5523 3 21Z" fill="black"/>
<path d="M7 21V14C7 13.4477 7.44772 13 8 13C8.55228 13 9 13.4477 9 14V21C9 21.5523 8.55228 22 8 22C7.44772 22 7 21.5523 7 21Z" fill="black"/>
</svg>
