<svg width="24" height="24" viewBox="0 0 24 24" fill="none" xmlns="http://www.w3.org/2000/svg">
<path d="M16.293 14.2929C16.6835 13.9024 17.3165 13.9024 17.707 14.2929C18.0975 14.6834 18.0975 15.3165 17.707 15.707L12.207 21.207C11.8165 21.5975 11.1835 21.5975 10.793 21.207L8.29296 18.707C7.90244 18.3165 7.90244 17.6834 8.29296 17.2929C8.68349 16.9024 9.3165 16.9024 9.70703 17.2929L11.5 19.0859L16.293 14.2929Z" fill="black"/>
<path d="M7.81222 4.08842C9.07547 3.89852 10.3664 4.01433 11.5759 4.42533C12.7852 4.83633 13.8785 5.53069 14.7644 6.45072C15.4745 7.1883 16.0324 8.05476 16.4148 8.99955H17.5007C18.7975 9.00014 20.0523 9.45946 21.0437 10.2955C22.0352 11.1317 22.6993 12.2915 22.9187 13.5699C23.138 14.8482 22.8989 16.1629 22.2429 17.2818C21.5869 18.4007 20.5564 19.2522 19.3337 19.6851C18.8131 19.8693 18.2416 19.5963 18.0573 19.0757C17.873 18.5551 18.1461 17.9837 18.6667 17.7994C19.4446 17.5239 20.0999 16.982 20.5173 16.2701C20.9348 15.558 21.0875 14.7212 20.948 13.9078C20.8083 13.0944 20.3854 12.3568 19.7546 11.8247C19.2024 11.3591 18.5219 11.0766 17.8073 11.0132L17.4997 10.9996H15.7097C15.2676 10.9994 14.878 10.7094 14.7517 10.2857C14.478 9.36763 13.9883 8.52855 13.3239 7.83842C12.6595 7.14833 11.8394 6.62715 10.9323 6.31889C10.0253 6.01068 9.0574 5.92361 8.11007 6.06596C7.16264 6.20838 6.26247 6.57592 5.48605 7.13725C4.70979 7.69851 4.07937 8.43765 3.64718 9.29252C3.21495 10.1476 2.99332 11.0942 3.00167 12.0523C3.01009 13.0102 3.24802 13.9521 3.69503 14.7994C4.14211 15.6467 4.7859 16.3747 5.57199 16.9224C6.02497 17.2382 6.13571 17.8619 5.82003 18.315C5.50421 18.7677 4.88142 18.8786 4.42843 18.563C3.38048 17.8328 2.52255 16.8626 1.92648 15.733C1.33037 14.6031 1.01281 13.3463 1.00167 12.0689C0.990604 10.7916 1.28577 9.5301 1.86203 8.39018C2.43831 7.25023 3.27905 6.26455 4.31417 5.51615C5.34934 4.76776 6.54905 4.27834 7.81222 4.08842Z" fill="black"/>
</svg>
