<svg width="24" height="24" viewBox="0 0 24 24" fill="none" xmlns="http://www.w3.org/2000/svg">
<path fill-rule="evenodd" clip-rule="evenodd" d="M3 7V13H21V7H3ZM1 7C1 5.89543 1.89543 5 3 5H21C22.1046 5 23 5.89543 23 7V13C23 14.1046 22.1046 15 21 15H3C1.89543 15 1 14.1046 1 13V7Z" fill="black"/>
<path fill-rule="evenodd" clip-rule="evenodd" d="M17 13C17.5523 13 18 13.4477 18 14V21C18 21.5523 17.5523 22 17 22C16.4477 22 16 21.5523 16 21V14C16 13.4477 16.4477 13 17 13Z" fill="black"/>
<path fill-rule="evenodd" clip-rule="evenodd" d="M7 13C7.55228 13 8 13.4477 8 14V21C8 21.5523 7.55228 22 7 22C6.44772 22 6 21.5523 6 21V14C6 13.4477 6.44772 13 7 13Z" fill="black"/>
<path fill-rule="evenodd" clip-rule="evenodd" d="M17 2C17.5523 2 18 2.44772 18 3V6C18 6.55228 17.5523 7 17 7C16.4477 7 16 6.55228 16 6V3C16 2.44772 16.4477 2 17 2Z" fill="black"/>
<path fill-rule="evenodd" clip-rule="evenodd" d="M7 2C7.55228 2 8 2.44772 8 3V6C8 6.55228 7.55228 7 7 7C6.44772 7 6 6.55228 6 6V3C6 2.44772 6.44772 2 7 2Z" fill="black"/>
<path fill-rule="evenodd" clip-rule="evenodd" d="M1.59289 5.59289C1.98342 5.20237 2.61658 5.20237 3.00711 5.59289L10.7071 13.2929C11.0976 13.6834 11.0976 14.3166 10.7071 14.7071C10.3166 15.0976 9.68342 15.0976 9.29289 14.7071L1.59289 7.00711C1.20237 6.61658 1.20237 5.98342 1.59289 5.59289Z" fill="black"/>
<path fill-rule="evenodd" clip-rule="evenodd" d="M13.2929 5.29289C13.6834 4.90237 14.3166 4.90237 14.7071 5.29289L22.4071 12.9929C22.7976 13.3834 22.7976 14.0166 22.4071 14.4071C22.0166 14.7976 21.3834 14.7976 20.9929 14.4071L13.2929 6.70711C12.9024 6.31658 12.9024 5.68342 13.2929 5.29289Z" fill="black"/>
<path fill-rule="evenodd" clip-rule="evenodd" d="M7.29289 5.29289C7.68342 4.90237 8.31658 4.90237 8.70711 5.29289L16.7071 13.2929C17.0976 13.6834 17.0976 14.3166 16.7071 14.7071C16.3166 15.0976 15.6834 15.0976 15.2929 14.7071L7.29289 6.70711C6.90237 6.31658 6.90237 5.68342 7.29289 5.29289Z" fill="black"/>
</svg>
