<svg width="24" height="24" viewBox="0 0 24 24" fill="none" xmlns="http://www.w3.org/2000/svg">
<path d="M21 12C21 7.02944 16.9706 3 12 3C7.02944 3 3 7.02944 3 12C3 16.9706 7.02944 21 12 21C16.9706 21 21 16.9706 21 12ZM23 12C23 18.0751 18.0751 23 12 23C5.92487 23 1 18.0751 1 12C1 5.92487 5.92487 1 12 1C18.0751 1 23 5.92487 23 12Z" fill="black"/>
<path d="M11.2929 7.29295C11.6834 6.90243 12.3164 6.90243 12.707 7.29295L16.707 11.293C17.0975 11.6835 17.0975 12.3165 16.707 12.707L12.707 16.707C12.3164 17.0975 11.6834 17.0975 11.2929 16.707C10.9024 16.3165 10.9024 15.6835 11.2929 15.293L14.5859 12L11.2929 8.70702C10.9024 8.31649 10.9024 7.68348 11.2929 7.29295Z" fill="black"/>
<path d="M16 11C16.5523 11 17 11.4477 17 12C17 12.5523 16.5523 13 16 13H8C7.44772 13 7 12.5523 7 12C7 11.4477 7.44772 11 8 11H16Z" fill="black"/>
</svg>
