<svg width="24" height="24" viewBox="0 0 24 24" fill="none" xmlns="http://www.w3.org/2000/svg">
<path d="M11 6.00006C11 5.44778 11.4477 5.00006 12 5.00006C12.5523 5.00006 13 5.44778 13 6.00006V11.3819L16.4473 13.1055C16.9412 13.3525 17.1415 13.9533 16.8945 14.4473C16.6475 14.9413 16.0467 15.1416 15.5527 14.8946L11.5527 12.8946C11.214 12.7252 11 12.3788 11 12.0001V6.00006Z" fill="black"/>
<path d="M19 17.0001V12.0001C19 11.4478 19.4477 11.0001 20 11.0001C20.5523 11.0001 21 11.4478 21 12.0001V17.0001C21 17.5523 20.5523 18.0001 20 18.0001C19.4477 18.0001 19 17.5523 19 17.0001Z" fill="black"/>
<path d="M20.0098 20.0001C20.562 20.0001 21.0098 20.4478 21.0098 21.0001C21.0098 21.5523 20.562 22.0001 20.0098 22.0001H20C19.4477 22.0001 19 21.5523 19 21.0001C19 20.4478 19.4477 20.0001 20 20.0001H20.0098Z" fill="black"/>
<path d="M11.9739 0.995632C14.1599 0.990791 16.2976 1.63759 18.1145 2.85305C19.9315 4.06863 21.3453 5.79834 22.1751 7.82083C22.3845 8.33172 22.14 8.91593 21.6292 9.12551C21.1183 9.33482 20.534 9.09043 20.3245 8.57962C19.6456 6.92497 18.4897 5.5097 17.0032 4.51516C15.5167 3.52067 13.7672 2.99175 11.9788 2.99563C10.1903 2.99959 8.44332 3.53661 6.9612 4.53762C5.47903 5.53877 4.32806 6.95897 3.65652 8.61673C2.98506 10.2744 2.82318 12.0949 3.1907 13.8452C3.55823 15.5954 4.43868 17.1963 5.71999 18.4439C7.00157 19.6915 8.62634 20.5297 10.386 20.8501C12.1456 21.1705 13.9608 20.9594 15.5999 20.2437C16.106 20.0227 16.6953 20.2541 16.9163 20.7603C17.1371 21.2664 16.9057 21.8557 16.3997 22.0767C14.3965 22.9513 12.1781 23.2095 10.0276 22.8179C7.87701 22.4262 5.8918 21.4023 4.32546 19.8775C2.75917 18.3526 1.68193 16.3957 1.23269 14.2564C0.783495 12.117 0.982271 9.89186 1.803 7.86575C2.62374 5.83968 4.02964 4.10401 5.84109 2.8804C7.65262 1.65679 9.78784 1.00049 11.9739 0.995632Z" fill="black"/>
</svg>
