<svg width="24" height="24" viewBox="0 0 24 24" fill="none" xmlns="http://www.w3.org/2000/svg">
<path fill-rule="evenodd" clip-rule="evenodd" d="M16.9175 4.46102C15.4548 3.50731 13.7463 2.99968 12.0002 3C11.4479 3.0001 11.0001 2.55247 11 2.00018C10.9999 1.4479 11.4475 1.0001 11.9998 1C14.134 0.999611 16.2222 1.62005 18.0099 2.78569C19.7976 3.95134 21.2076 5.61185 22.0681 7.56484C22.9286 9.51783 23.2023 11.679 22.8561 13.7848C22.5098 15.8907 21.5584 17.8504 20.1178 19.425C19.745 19.8325 19.1125 19.8606 18.705 19.4878C18.2975 19.115 18.2694 18.4825 18.6422 18.075C19.8208 16.7867 20.5992 15.1833 20.8826 13.4603C21.1659 11.7373 20.9419 9.96914 20.2378 8.37123C19.5338 6.77333 18.3802 5.41473 16.9175 4.46102Z" fill="black"/>
<path fill-rule="evenodd" clip-rule="evenodd" d="M12 7C12.5523 7 13 7.44772 13 8V16C13 16.5523 12.5523 17 12 17C11.4477 17 11 16.5523 11 16V8C11 7.44772 11.4477 7 12 7Z" fill="black"/>
<path fill-rule="evenodd" clip-rule="evenodd" d="M7 12C7 11.4477 7.44772 11 8 11H16C16.5523 11 17 11.4477 17 12C17 12.5523 16.5523 13 16 13H8C7.44772 13 7 12.5523 7 12Z" fill="black"/>
<path fill-rule="evenodd" clip-rule="evenodd" d="M2.81249 7.92511C3.33712 8.0977 3.62251 8.6629 3.44992 9.18752C3.16314 10.0593 3.01138 10.9698 2.99992 11.8875C2.99303 12.4398 2.53976 12.8819 1.98751 12.875C1.43527 12.8681 0.993183 12.4148 1.00008 11.8625C1.01409 10.7409 1.19956 9.62807 1.55008 8.56255C1.72266 8.03792 2.28786 7.75253 2.81249 7.92511Z" fill="black"/>
<path fill-rule="evenodd" clip-rule="evenodd" d="M2.43139 15.0829C2.9379 14.8628 3.52698 15.0949 3.74713 15.6014C4.25248 16.764 4.99776 17.8068 5.93413 18.6614C6.34207 19.0337 6.37095 19.6662 5.99865 20.0741C5.62635 20.4821 4.99384 20.5109 4.58591 20.1386C3.44145 19.0942 2.53056 17.8197 1.91291 16.3986C1.69275 15.8921 1.92488 15.3031 2.43139 15.0829Z" fill="black"/>
<path fill-rule="evenodd" clip-rule="evenodd" d="M6.28918 3.73064C6.6467 4.15159 6.59528 4.78267 6.17433 5.14018C5.89138 5.3805 5.62357 5.63809 5.37243 5.91149C4.99881 6.31821 4.36621 6.34505 3.95949 5.97144C3.55276 5.59782 3.52592 4.96522 3.89954 4.55849C4.20648 4.22435 4.53381 3.90951 4.87964 3.61579C5.30058 3.25827 5.93166 3.30969 6.28918 3.73064Z" fill="black"/>
<path fill-rule="evenodd" clip-rule="evenodd" d="M17.179 20.6125C17.4151 21.1118 17.2018 21.7079 16.7025 21.944C14.0701 23.1889 11.0515 23.3392 8.3084 22.362C7.78814 22.1767 7.51663 21.6047 7.70197 21.0844C7.88731 20.5642 8.45931 20.2927 8.97957 20.478C11.2239 21.2775 13.6937 21.1545 15.8475 20.136C16.3467 19.8999 16.9429 20.1132 17.179 20.6125Z" fill="black"/>
</svg>
