<svg width="24" height="24" viewBox="0 0 24 24" fill="none" xmlns="http://www.w3.org/2000/svg">
<path d="M14.293 9.29295C14.6835 8.90243 15.3166 8.90243 15.7071 9.29295L20.7071 14.293C21.0976 14.6835 21.0976 15.3165 20.7071 15.707L15.7071 20.707C15.3166 21.0975 14.6835 21.0975 14.293 20.707C13.9025 20.3165 13.9025 19.6835 14.293 19.293L18.586 15L14.293 10.707C13.9025 10.3165 13.9025 9.68348 14.293 9.29295Z" fill="black"/>
<path d="M3 11V4C3 3.44772 3.44772 3 4 3C4.55228 3 5 3.44772 5 4V11C5 11.7956 5.3163 12.5585 5.87891 13.1211C6.44152 13.6837 7.20435 14 8 14H20C20.5523 14 21 14.4477 21 15C21 15.5523 20.5523 16 20 16H8C6.67392 16 5.40253 15.4728 4.46484 14.5352C3.52716 13.5975 3 12.3261 3 11Z" fill="black"/>
</svg>
