<svg width="24" height="24" viewBox="0 0 24 24" fill="none" xmlns="http://www.w3.org/2000/svg">
<path d="M9.97905 4.99657C10.1321 4.46614 10.6868 4.1601 11.2173 4.31297C12.5056 4.68424 13.6799 5.37332 14.6324 6.31688C15.4051 7.08244 16.0115 7.99606 16.4175 8.9995H17.4996C18.3857 8.99951 19.2589 9.21449 20.0445 9.6245C20.8301 10.0345 21.5055 10.628 22.0123 11.355C22.5189 12.0819 22.8428 12.9205 22.9556 13.7993C23.0685 14.6782 22.9672 15.5715 22.6607 16.4028C22.4696 16.921 21.8937 17.1867 21.3755 16.9956C20.8575 16.8044 20.5927 16.2285 20.7837 15.7104C20.9787 15.1815 21.043 14.6133 20.9712 14.0542C20.8994 13.4949 20.694 12.9611 20.3716 12.4985C20.0492 12.036 19.6195 11.6579 19.1197 11.397C18.6198 11.136 18.0635 10.9995 17.4996 10.9995H15.7095C15.2675 10.9993 14.8778 10.7093 14.7515 10.2856C14.4641 9.32192 13.9395 8.44559 13.2251 7.73778C12.5107 7.02994 11.629 6.5133 10.6626 6.23485C10.1322 6.08176 9.82618 5.52712 9.97905 4.99657Z" fill="black"/>
<path d="M5.33122 4.89125C5.82194 4.63792 6.42551 4.83024 6.67887 5.32094C6.93217 5.81157 6.73969 6.41514 6.24919 6.66859C5.05417 7.28553 4.10037 8.28586 3.54216 9.50941C2.98396 10.7329 2.85278 12.1088 3.17009 13.4157C3.48742 14.7226 4.23499 15.8851 5.29216 16.7164C6.34932 17.5478 7.65528 17.9994 9.00016 17.9996H17.5002C17.8416 17.9998 18.182 17.9503 18.509 17.8522C19.0377 17.6937 19.5953 17.9934 19.7541 18.5221C19.9129 19.0511 19.6121 19.6084 19.0832 19.7672C18.5696 19.9214 18.0364 19.9998 17.5002 19.9996H9.00016C7.207 19.9993 5.46538 19.3971 4.05583 18.2887C2.64627 17.1803 1.64984 15.6299 1.22673 13.8873C0.803704 12.1449 0.978585 10.3107 1.72282 8.67933C2.4671 7.04795 3.73788 5.71383 5.33122 4.89125Z" fill="black"/>
<path d="M1.29289 1.29289C1.68342 0.902369 2.31643 0.902369 2.70696 1.29289L22.707 21.2929C23.0975 21.6834 23.0975 22.3164 22.707 22.707C22.3164 23.0975 21.6834 23.0975 21.2929 22.707L1.29289 2.70696C0.902369 2.31643 0.902369 1.68342 1.29289 1.29289Z" fill="black"/>
</svg>
