<svg width="24" height="24" viewBox="0 0 24 24" fill="none" xmlns="http://www.w3.org/2000/svg">
<path fill-rule="evenodd" clip-rule="evenodd" d="M12 6C12.5523 6 13 6.44772 13 7V11C13 11.5523 12.5523 12 12 12C11.4477 12 11 11.5523 11 11V7C11 6.44772 11.4477 6 12 6Z" fill="black"/>
<path fill-rule="evenodd" clip-rule="evenodd" d="M15.3975 8.19832C15.8391 7.86668 16.4659 7.95583 16.7976 8.39745C17.4667 9.28845 17.8745 10.3482 17.9753 11.4579C18.076 12.5676 17.8658 13.6834 17.3681 14.6804C16.8704 15.6773 16.1049 16.516 15.1574 17.1024C14.2099 17.6888 13.1179 17.9998 12.0036 18.0004C10.8893 18.0011 9.79687 17.6915 8.84865 17.1063C7.90043 16.5211 7.1339 15.6834 6.63496 14.6871C6.13602 13.6908 5.92438 12.5752 6.02376 11.4653C6.12313 10.3555 6.52959 9.29528 7.1976 8.40345C7.52869 7.96141 8.15544 7.87148 8.59747 8.20257C9.03951 8.53367 9.12944 9.16041 8.79835 9.60245C8.35301 10.197 8.08203 10.9038 8.01579 11.6437C7.94954 12.3836 8.09063 13.1273 8.42326 13.7915C8.75588 14.4558 9.2669 15.0142 9.89905 15.4044C10.5312 15.7945 11.2595 16.0009 12.0023 16.0004C12.7452 16 13.4732 15.7927 14.1049 15.4017C14.7366 15.0108 15.2469 14.4517 15.5787 13.7871C15.9105 13.1224 16.0506 12.3785 15.9835 11.6387C15.9163 10.8989 15.6444 10.1924 15.1983 9.59845C14.8667 9.15683 14.9559 8.52997 15.3975 8.19832Z" fill="black"/>
<path fill-rule="evenodd" clip-rule="evenodd" d="M12 3C7.02944 3 3 7.02944 3 12C3 16.9706 7.02944 21 12 21C16.9706 21 21 16.9706 21 12C21 7.02944 16.9706 3 12 3ZM1 12C1 5.92487 5.92487 1 12 1C18.0751 1 23 5.92487 23 12C23 18.0751 18.0751 23 12 23C5.92487 23 1 18.0751 1 12Z" fill="black"/>
</svg>
