<svg width="24" height="24" viewBox="0 0 24 24" fill="none" xmlns="http://www.w3.org/2000/svg">
<path fill-rule="evenodd" clip-rule="evenodd" d="M4 17C3.73478 17 3.48043 17.1054 3.29289 17.2929C3.10536 17.4804 3 17.7348 3 18V19H21V18C21 17.7348 20.8946 17.4804 20.7071 17.2929C20.5196 17.1054 20.2652 17 20 17H4ZM1.87868 15.8787C2.44129 15.3161 3.20435 15 4 15H20C20.7957 15 21.5587 15.3161 22.1213 15.8787C22.6839 16.4413 23 17.2043 23 18V19C23 19.5304 22.7893 20.0391 22.4142 20.4142C22.0391 20.7893 21.5304 21 21 21H3C2.46957 21 1.96086 20.7893 1.58579 20.4142C1.21071 20.0391 1 19.5304 1 19V18C1 17.2044 1.31607 16.4413 1.87868 15.8787Z" fill="black"/>
<path fill-rule="evenodd" clip-rule="evenodd" d="M5.63604 9.63604C7.32387 7.94821 9.61305 7 12 7C14.3869 7 16.6761 7.94821 18.364 9.63604C20.0518 11.3239 21 13.6131 21 16C21 16.5523 20.5523 17 20 17C19.4477 17 19 16.5523 19 16C19 14.1435 18.2625 12.363 16.9497 11.0503C15.637 9.7375 13.8565 9 12 9C10.1435 9 8.36301 9.7375 7.05025 11.0503C5.7375 12.363 5 14.1435 5 16C5 16.5523 4.55228 17 4 17C3.44772 17 3 16.5523 3 16C3 13.6131 3.94821 11.3239 5.63604 9.63604Z" fill="black"/>
<path fill-rule="evenodd" clip-rule="evenodd" d="M12 3C12.5523 3 13 3.44772 13 4V8C13 8.55228 12.5523 9 12 9C11.4477 9 11 8.55228 11 8V4C11 3.44772 11.4477 3 12 3Z" fill="black"/>
<path fill-rule="evenodd" clip-rule="evenodd" d="M9 4C9 3.44772 9.44772 3 10 3H14C14.5523 3 15 3.44772 15 4C15 4.55228 14.5523 5 14 5H10C9.44772 5 9 4.55228 9 4Z" fill="black"/>
</svg>
