<svg width="24" height="24" viewBox="0 0 24 24" fill="none" xmlns="http://www.w3.org/2000/svg">
<path d="M14.2929 3.29289C14.6834 2.90237 15.3164 2.90237 15.707 3.29289L20.707 8.29289C21.0975 8.68342 21.0975 9.31643 20.707 9.70696L15.707 14.707C15.3164 15.0975 14.6834 15.0975 14.2929 14.707C13.9024 14.3164 13.9024 13.6834 14.2929 13.2929L18.5859 8.99992L14.2929 4.70696C13.9024 4.31643 13.9024 3.68342 14.2929 3.29289Z" fill="black"/>
<path d="M3 19.9999V12.9999C3 11.6739 3.52716 10.4025 4.46484 9.46478C5.40253 8.5271 6.67392 7.99994 8 7.99994H20C20.5523 7.99994 21 8.44765 21 8.99994C21 9.55222 20.5523 9.99994 20 9.99994H8C7.20435 9.99994 6.44152 10.3162 5.87891 10.8788C5.3163 11.4415 5 12.2043 5 12.9999V19.9999C5 20.5522 4.55228 20.9999 4 20.9999C3.44772 20.9999 3 20.5522 3 19.9999Z" fill="black"/>
</svg>
