<svg width="24" height="24" viewBox="0 0 24 24" fill="none" xmlns="http://www.w3.org/2000/svg">
<path fill-rule="evenodd" clip-rule="evenodd" d="M5.59123 3.01651C5.57851 3.01134 5.56485 3.00884 5.55112 3.00919C5.53738 3.00953 5.52387 3.01269 5.51141 3.01849C5.50163 3.02304 5.49266 3.02915 5.48484 3.03654C3.76186 5.1439 2.88122 7.81561 3.01387 10.5351C3.14697 13.2639 4.29079 15.8455 6.22263 17.7774C8.15448 19.7092 10.7361 20.853 13.4649 20.9861C16.1876 21.1189 18.8625 20.236 20.971 18.509C20.9777 18.5024 20.9832 18.4947 20.9873 18.4861C20.992 18.476 20.9947 18.465 20.9949 18.4539C20.9952 18.4427 20.9932 18.4316 20.9889 18.4213C20.9846 18.411 20.9782 18.4017 20.9701 18.394C20.9642 18.3883 20.9584 18.3826 20.9527 18.3769L5.63265 3.04688C5.63012 3.04434 5.6276 3.04179 5.62509 3.03923C5.61548 3.02941 5.60396 3.02168 5.59123 3.01651ZM5.50144 1.0098C5.78983 1.00264 6.0766 1.05497 6.34387 1.16353C6.60921 1.2713 6.84968 1.4322 7.05051 1.63631L22.3601 16.9559C22.5654 17.1543 22.7278 17.3928 22.837 17.6567C22.948 17.925 23.0016 18.2136 22.9943 18.5039C22.987 18.7941 22.9191 19.0797 22.7948 19.3421C22.6706 19.6045 22.4928 19.838 22.2728 20.0275C22.2669 20.0326 22.2609 20.0376 22.2549 20.0426C19.7605 22.0926 16.5924 23.1411 13.3675 22.9837C10.1425 22.8264 7.09151 21.4747 4.80842 19.1916C2.52533 16.9085 1.17355 13.8575 1.01624 10.6325C0.858938 7.4076 1.90737 4.23952 3.95742 1.74507C3.96519 1.73562 3.97314 1.7263 3.98125 1.71714C4.17247 1.50115 4.40614 1.32687 4.66769 1.20517C4.92924 1.08347 5.21306 1.01697 5.50144 1.0098Z" fill="black"/>
<path fill-rule="evenodd" clip-rule="evenodd" d="M9.03949 3.6157C9.43954 3.99645 9.45518 4.62943 9.07442 5.02948C7.81588 6.3518 7.12369 8.11345 7.14543 9.93882C7.16717 11.7642 7.90113 13.5088 9.19081 14.8008C10.4805 16.0928 12.2239 16.8298 14.0492 16.8548C15.8745 16.8798 17.6374 16.1907 18.9619 14.9345C19.3626 14.5544 19.9956 14.5712 20.3756 14.9719C20.7557 15.3726 20.7389 16.0056 20.3382 16.3856C18.6352 18.0007 16.3687 18.8867 14.0218 18.8546C11.675 18.8225 9.43351 17.8749 7.77535 16.2138C6.11719 14.5527 5.17353 12.3095 5.14557 9.96264C5.11762 7.61573 6.00758 5.35075 7.62571 3.65063C8.00647 3.25058 8.63944 3.23494 9.03949 3.6157Z" fill="black"/>
<path fill-rule="evenodd" clip-rule="evenodd" d="M14.7071 9.29291C15.0976 9.68343 15.0976 10.3166 14.7071 10.7071L9.20712 16.2071C8.81659 16.5976 8.18343 16.5976 7.79291 16.2071C7.40238 15.8166 7.40238 15.1834 7.79291 14.7929L13.2929 9.29291C13.6834 8.90238 14.3166 8.90238 14.7071 9.29291Z" fill="black"/>
<path fill-rule="evenodd" clip-rule="evenodd" d="M5.15001 10C5.15001 9.44773 5.59773 9.00001 6.15001 9.00001H14C14.5523 9.00001 15 9.44773 15 10V17.85C15 18.4023 14.5523 18.85 14 18.85C13.4477 18.85 13 18.4023 13 17.85V11H6.15001C5.59773 11 5.15001 10.5523 5.15001 10Z" fill="black"/>
</svg>
