<svg width="24" height="24" viewBox="0 0 24 24" fill="none" xmlns="http://www.w3.org/2000/svg">
<path fill-rule="evenodd" clip-rule="evenodd" d="M9 2C9 1.44772 9.44772 1 10 1H14C14.5523 1 15 1.44772 15 2C15 2.55228 14.5523 3 14 3H10C9.44772 3 9 2.55228 9 2Z" fill="black"/>
<path fill-rule="evenodd" clip-rule="evenodd" d="M8.41032 3.99998H15.646C15.6493 3.99998 15.6525 4 15.6558 4.00003C16.2621 4.00595 16.8524 4.19545 17.3488 4.54356C17.8411 4.88875 18.2182 5.37383 18.4314 5.93578L19.3598 8.22593L20.2929 7.29287C20.6834 6.90235 21.3166 6.90235 21.7071 7.29287C22.0976 7.6834 22.0976 8.31656 21.7071 8.70709L19.7071 10.7071C19.47 10.9442 19.1298 11.0467 18.8012 10.98C18.4726 10.9134 18.1992 10.6864 18.0733 10.3757L16.5733 6.67569C16.5698 6.66715 16.5665 6.65856 16.5632 6.64993C16.4925 6.4606 16.3661 6.29715 16.2006 6.18111C16.0362 6.06585 15.841 6.00275 15.6403 5.99998H8.4C8.39234 5.99998 8.38469 5.99989 8.37704 5.99972C8.17329 5.99504 7.97298 6.05272 7.80292 6.16505C7.63287 6.27738 7.5012 6.43898 7.42554 6.62822L5.92849 10.3713C5.80366 10.6834 5.53037 10.912 5.20109 10.9796C4.8718 11.0471 4.53059 10.9448 4.29289 10.7071L2.29289 8.70709C1.90237 8.31656 1.90237 7.6834 2.29289 7.29287C2.68342 6.90235 3.31658 6.90235 3.70711 7.29287L4.6347 8.22046L5.56846 5.88574C5.56845 5.88578 5.56848 5.88571 5.56846 5.88574C5.79544 5.31808 6.19049 4.8332 6.70062 4.49624C7.20726 4.16159 7.80344 3.9886 8.41032 3.99998Z" fill="black"/>
<path fill-rule="evenodd" clip-rule="evenodd" d="M6 14C6 13.4477 6.44772 13 7 13H7.01C7.56228 13 8.01 13.4477 8.01 14C8.01 14.5523 7.56228 15 7.01 15H7C6.44772 15 6 14.5523 6 14Z" fill="black"/>
<path fill-rule="evenodd" clip-rule="evenodd" d="M16 14C16 13.4477 16.4477 13 17 13H17.01C17.5623 13 18.01 13.4477 18.01 14C18.01 14.5523 17.5623 15 17.01 15H17C16.4477 15 16 14.5523 16 14Z" fill="black"/>
<path fill-rule="evenodd" clip-rule="evenodd" d="M5 11C4.44772 11 4 11.4477 4 12V16C4 16.5523 4.44772 17 5 17H19C19.5523 17 20 16.5523 20 16V12C20 11.4477 19.5523 11 19 11H5ZM2 12C2 10.3431 3.34315 9 5 9H19C20.6569 9 22 10.3431 22 12V16C22 17.6569 20.6569 19 19 19H5C3.34315 19 2 17.6569 2 16V12Z" fill="black"/>
<path fill-rule="evenodd" clip-rule="evenodd" d="M5 17C5.55228 17 6 17.4477 6 18V20C6 20.5523 5.55228 21 5 21C4.44772 21 4 20.5523 4 20V18C4 17.4477 4.44772 17 5 17Z" fill="black"/>
<path fill-rule="evenodd" clip-rule="evenodd" d="M19 17C19.5523 17 20 17.4477 20 18V20C20 20.5523 19.5523 21 19 21C18.4477 21 18 20.5523 18 20V18C18 17.4477 18.4477 17 19 17Z" fill="black"/>
</svg>
