<svg width="24" height="24" viewBox="0 0 24 24" fill="none" xmlns="http://www.w3.org/2000/svg">
<path d="M6.61134 5.00629C6.86832 5.02532 7.11656 5.11077 7.33204 5.25433C7.57841 5.41854 7.77084 5.65196 7.88478 5.92523L11.9229 15.6157C12.1351 16.1254 11.8945 16.7109 11.3848 16.9233C10.875 17.1357 10.2896 16.894 10.0772 16.3842L6.50001 7.80121L2.92286 16.3852C2.71023 16.8946 2.12485 17.1356 1.61525 16.9233C1.10557 16.7108 0.864892 16.1254 1.07716 15.6157L5.11622 5.92523L5.16212 5.82465C5.27862 5.59459 5.45334 5.39805 5.66896 5.25433L5.76271 5.19672C5.9873 5.0698 6.24177 5.00238 6.50099 5.00238L6.61134 5.00629Z" fill="black"/>
<path d="M21 16V9C21 8.44772 21.4477 8 22 8C22.5523 8 23 8.44772 23 9V16C23 16.5523 22.5523 17 22 17C21.4477 17 21 16.5523 21 16Z" fill="black"/>
<path d="M9.69556 12C10.2478 12 10.6956 12.4477 10.6956 13C10.6956 13.5523 10.2478 14 9.69556 14H3.30396C2.75167 14 2.30396 13.5523 2.30396 13C2.30396 12.4477 2.75167 12 3.30396 12H9.69556Z" fill="black"/>
<path d="M21 12.5C21 11.1193 19.8807 10 18.5 10C17.1193 10 16 11.1193 16 12.5C16 13.8807 17.1193 15 18.5 15C19.8807 15 21 13.8807 21 12.5ZM23 12.5C23 14.9853 20.9853 17 18.5 17C16.0147 17 14 14.9853 14 12.5C14 10.0147 16.0147 8 18.5 8C20.9853 8 23 10.0147 23 12.5Z" fill="black"/>
</svg>
