<svg width="24" height="24" viewBox="0 0 24 24" fill="none" xmlns="http://www.w3.org/2000/svg">
<path d="M18 20C18 19.7348 17.8946 19.4805 17.707 19.293C17.5195 19.1054 17.2652 19 17 19H7C6.73478 19 6.48051 19.1054 6.29297 19.293C6.10543 19.4805 6 19.7348 6 20V21H18V20ZM20 21C20 21.5304 19.7891 22.039 19.4141 22.4141C19.039 22.7891 18.5304 23 18 23H6C5.46957 23 4.96101 22.7891 4.58594 22.4141C4.21086 22.039 4 21.5304 4 21V20C4 19.2043 4.3163 18.4415 4.87891 17.8789C5.44151 17.3163 6.20435 17 7 17H17C17.7957 17 18.5585 17.3163 19.1211 17.8789C19.6837 18.4415 20 19.2043 20 20V21Z" fill="black"/>
<path d="M14.3154 9.01758C14.8581 8.91582 15.3805 9.2728 15.4824 9.81543L16.9824 17.8154C17.0842 18.3581 16.7272 18.8805 16.1846 18.9824C15.6419 19.0842 15.1195 18.7272 15.0176 18.1846L13.5176 10.1846C13.4158 9.64186 13.7728 9.11952 14.3154 9.01758Z" fill="black"/>
<path d="M17 9C17.5523 9 18 9.44771 18 10C18 10.5523 17.5523 11 17 11H7C6.44772 11 6 10.5523 6 10C6 9.44771 6.44772 9 7 9H17Z" fill="black"/>
<path d="M8.51758 9.81543C8.61952 9.2728 9.14186 8.91582 9.68457 9.01758C10.2272 9.11952 10.5842 9.64186 10.4824 10.1846L8.98242 18.1846C8.88048 18.7272 8.35814 19.0842 7.81543 18.9824C7.2728 18.8805 6.91582 18.3581 7.01758 17.8154L8.51758 9.81543Z" fill="black"/>
<path d="M15 6C15 4.34315 13.6569 3 12 3C10.3431 3 9 4.34315 9 6C9 7.65685 10.3431 9 12 9C13.6569 9 15 7.65685 15 6ZM17 6C17 8.76142 14.7614 11 12 11C9.23858 11 7 8.76142 7 6C7 3.23858 9.23858 1 12 1C14.7614 1 17 3.23858 17 6Z" fill="black"/>
</svg>
