<svg width="24" height="24" viewBox="0 0 24 24" fill="none" xmlns="http://www.w3.org/2000/svg">
<path fill-rule="evenodd" clip-rule="evenodd" d="M12.3769 1.43767C12.8691 1.13552 13.438 0.981877 14.0154 0.995181C14.5918 1.00846 15.1521 1.18753 15.6293 1.51093C15.6301 1.51151 15.631 1.51209 15.6318 1.51267L21.6772 5.56955L21.68 5.57141C22.0871 5.8466 22.4204 6.21759 22.6506 6.65176C22.8806 7.08558 23.0005 7.56922 23 8.06022C23 8.06062 23 8.06101 23 8.06141L23 13.891C22.9994 14.4023 22.8682 14.9049 22.6188 15.3512C22.3694 15.7975 22.0101 16.1726 21.575 16.441L21.5739 16.4417L11.6232 22.5621C11.1309 22.8643 10.562 23.0179 9.98459 23.0046C9.40805 22.9913 8.84758 22.8122 8.37028 22.4886C8.36957 22.4881 8.36886 22.4876 8.36815 22.4871L2.32183 18.4196L2.32 18.4184C1.91287 18.1432 1.57958 17.7722 1.34941 17.338C1.11938 16.9041 0.999403 16.4204 1 15.9293L1 10.1088C1.00057 9.59756 1.13177 9.09494 1.38117 8.64865C1.63057 8.20236 1.98988 7.82721 2.425 7.5588L12.3769 1.43767ZM13.4235 3.1419C13.4234 3.14198 13.4237 3.14182 13.4235 3.1419L3.475 9.26101C3.47482 9.26112 3.47518 9.2609 3.475 9.26101C3.3302 9.35045 3.21009 9.47571 3.12706 9.62429C3.044 9.77292 3.00027 9.9403 3 10.1106L3 15.9314C2.99975 16.0952 3.03975 16.2566 3.11647 16.4013C3.19302 16.5457 3.30378 16.6691 3.43906 16.7608C3.43937 16.761 3.43969 16.7612 3.44 16.7614L9.48818 20.8302L9.48973 20.8312L9.49185 20.8327C9.65111 20.9408 9.8382 21.0007 10.0307 21.0052C10.2231 21.0096 10.4127 20.9584 10.5768 20.8577C10.5767 20.8577 10.5768 20.8577 10.5768 20.8577L20.525 14.7388C20.5249 14.7389 20.5251 14.7387 20.525 14.7388C20.6699 14.6493 20.7899 14.5242 20.8729 14.3755C20.9559 14.227 20.9996 14.0599 21 13.8898C21 13.8895 21 13.8901 21 13.8898V8.0584C21.0002 7.8946 20.9603 7.73324 20.8835 7.58851C20.807 7.44421 20.6964 7.32086 20.5612 7.22921C20.5608 7.22894 20.5604 7.22867 20.56 7.2284L14.5128 3.17026C14.5112 3.16923 14.5097 3.16819 14.5082 3.16715C14.3489 3.05898 14.1618 2.99909 13.9693 2.99465C13.777 2.99022 13.5875 3.04135 13.4235 3.1419Z" fill="black"/>
<path fill-rule="evenodd" clip-rule="evenodd" d="M1.40244 8.61954C1.69542 8.15138 2.31246 8.00936 2.78062 8.30234L10.5306 13.1523C10.8227 13.3351 11.0001 13.6555 11.0001 14V22C11.0001 22.5523 10.5524 23 10.0001 23C9.44785 23 9.00013 22.5523 9.00013 22V14.5539L1.71964 9.99773C1.25148 9.70474 1.10946 9.08771 1.40244 8.61954Z" fill="black"/>
<path fill-rule="evenodd" clip-rule="evenodd" d="M22.6338 6.62595C22.9122 7.10292 22.7512 7.71529 22.2743 7.99369L10.5043 14.8637C10.0273 15.1421 9.41492 14.9811 9.13652 14.5041C8.85811 14.0272 9.01908 13.4148 9.49606 13.1364L21.2661 6.2664C21.743 5.98799 22.3554 6.14897 22.6338 6.62595Z" fill="black"/>
</svg>
