<svg width="24" height="24" viewBox="0 0 24 24" fill="none" xmlns="http://www.w3.org/2000/svg">
<path fill-rule="evenodd" clip-rule="evenodd" d="M11.1953 4.41771C10.3478 4.08499 9.43579 3.94949 8.52822 4.02147C7.62064 4.09345 6.74134 4.37102 5.95693 4.83316C5.17252 5.2953 4.50356 5.92989 4.00073 6.68886C3.49789 7.44783 3.17437 8.31128 3.05467 9.2138C2.93496 10.1163 3.02222 11.0343 3.30982 11.8981C3.59742 12.7619 4.07782 13.5489 4.71464 14.1995C5.10095 14.5942 5.09416 15.2274 4.69946 15.6137C4.30477 16 3.67164 15.9932 3.28533 15.5985C2.43624 14.731 1.7957 13.6816 1.41223 12.5299C1.02876 11.3781 0.912425 10.1542 1.07203 8.95084C1.23164 7.74747 1.663 6.59621 2.33344 5.58425C3.00388 4.57229 3.89583 3.72617 4.94171 3.10998C5.9876 2.4938 7.15999 2.1237 8.37009 2.02773C9.5802 1.93176 10.7963 2.11243 11.9262 2.55605C13.0561 2.99968 14.0703 3.69462 14.8919 4.58825C15.5423 5.29573 16.0585 6.11304 16.4177 7.00002H17.4999C17.4998 7.00002 17.4999 7.00002 17.4999 7.00002C18.6799 6.99991 19.8288 7.37932 20.7766 8.08222C21.7245 8.78515 22.4212 9.7743 22.7637 10.9036C23.1062 12.0328 23.0765 13.2423 22.6788 14.3534C22.2812 15.4644 21.5367 16.4181 20.5554 17.0736C20.0962 17.3803 19.4752 17.2567 19.1684 16.7975C18.8617 16.3382 18.9853 15.7172 19.4445 15.4105C20.069 14.9934 20.5428 14.3865 20.7958 13.6794C21.0489 12.9724 21.0678 12.2027 20.8498 11.4841C20.6318 10.7655 20.1885 10.136 19.5853 9.6887C18.9821 9.24138 18.2511 8.99993 17.5001 9.00002H15.71C15.2679 9.00002 14.8783 8.70973 14.7518 8.28611C14.4913 7.41374 14.0357 6.61208 13.4196 5.94186C12.8034 5.27164 12.0428 4.75043 11.1953 4.41771Z" fill="black"/>
<path fill-rule="evenodd" clip-rule="evenodd" d="M12.5939 14.0808C13.1016 14.2984 13.3367 14.8863 13.1192 15.3939L10.1192 22.3939C9.90161 22.9015 9.31373 23.1367 8.8061 22.9191C8.29847 22.7016 8.06332 22.1137 8.28088 21.6061L11.2809 14.6061C11.4984 14.0984 12.0863 13.8633 12.5939 14.0808Z" fill="black"/>
<path fill-rule="evenodd" clip-rule="evenodd" d="M9.39394 12.0808C9.90157 12.2984 10.1367 12.8863 9.91917 13.3939L6.91917 20.3939C6.70161 20.9015 6.11373 21.1367 5.6061 20.9191C5.09847 20.7016 4.86332 20.1137 5.08088 19.6061L8.08088 12.6061C8.29843 12.0984 8.88631 11.8633 9.39394 12.0808Z" fill="black"/>
<path fill-rule="evenodd" clip-rule="evenodd" d="M17.3939 12.0808C17.9016 12.2984 18.1367 12.8863 17.9192 13.3939L14.9192 20.3939C14.7016 20.9015 14.1137 21.1367 13.6061 20.9191C13.0985 20.7016 12.8633 20.1137 13.0809 19.6061L16.0809 12.6061C16.2984 12.0984 16.8863 11.8633 17.3939 12.0808Z" fill="black"/>
</svg>
