<svg width="24" height="24" viewBox="0 0 24 24" fill="none" xmlns="http://www.w3.org/2000/svg">
<path fill-rule="evenodd" clip-rule="evenodd" d="M10.9378 1.31123C11.2562 1.11169 11.6243 1.00586 12 1.00586C12.3757 1.00586 12.7438 1.11169 13.0622 1.31123C13.3783 1.50939 13.6327 1.79201 13.7966 2.1271L21.7942 18.1023C22.0414 18.5962 21.8415 19.1969 21.3476 19.4442C20.8538 19.6914 20.253 19.4915 20.0058 18.9976L12.0058 3.01763C12.0038 3.01372 12.0019 3.0098 12 3.00586C11.9981 3.0098 11.9961 3.01372 11.9942 3.01763L3.99419 18.9976C3.74695 19.4915 3.14618 19.6914 2.65232 19.4442C2.15847 19.1969 1.95854 18.5962 2.20578 18.1023L10.2034 2.12715C10.3673 1.79204 10.6216 1.5094 10.9378 1.31123Z" fill="black"/>
<path fill-rule="evenodd" clip-rule="evenodd" d="M4 18.9999C4 19.0007 3.9999 19.0049 4.00305 19.0153C4.00645 19.0264 4.01483 19.0485 4.03507 19.0814C4.07752 19.1506 4.16408 19.2545 4.32624 19.3823C4.65642 19.6425 5.19616 19.9206 5.95227 20.1726C7.45402 20.6732 9.59229 21 12 21C14.4077 21 16.546 20.6732 18.0477 20.1726C18.8038 19.9206 19.3436 19.6425 19.6738 19.3823C19.8359 19.2545 19.9225 19.1506 19.9649 19.0814C19.9852 19.0485 19.9935 19.0264 19.9969 19.0153C20.0001 19.0049 20 19.0007 20 19C20 18.9991 20 18.9948 19.9969 18.9847C19.9935 18.9736 19.9852 18.9515 19.9649 18.9186C19.9225 18.8494 19.8359 18.7455 19.6738 18.6177C19.3436 18.3575 18.8038 18.0794 18.0477 17.8274C16.546 17.3268 14.4077 17 12 17C9.59229 17 7.45402 17.3268 5.95227 17.8274C5.19616 18.0794 4.65642 18.3575 4.32624 18.6177C4.16408 18.7455 4.07752 18.8494 4.03507 18.9186C4.01483 18.9515 4.00645 18.9736 4.00305 18.9847C3.99998 18.9948 4 18.999 4 18.9999ZM5.31981 15.93C7.07541 15.3448 9.43715 15 12 15C14.5629 15 16.9246 15.3448 18.6802 15.93C19.5528 16.2209 20.331 16.5892 20.9117 17.0469C21.4811 17.4956 22 18.1481 22 19C22 19.8519 21.4811 20.5044 20.9117 20.9531C20.331 21.4108 19.5528 21.7791 18.6802 22.07C16.9246 22.6552 14.5629 23 12 23C9.43715 23 7.07541 22.6552 5.31981 22.07C4.44724 21.7791 3.66896 21.4108 3.08829 20.9531C2.51889 20.5044 2 19.8519 2 19C2 18.1481 2.51889 17.4956 3.08829 17.0469C3.66896 16.5892 4.44724 16.2209 5.31981 15.93Z" fill="black"/>
</svg>
