<svg width="24" height="24" viewBox="0 0 24 24" fill="none" xmlns="http://www.w3.org/2000/svg">
<path fill-rule="evenodd" clip-rule="evenodd" d="M12.5556 6.83177C13.0152 6.52558 13.636 6.64997 13.9422 7.1096L15.7222 9.7816C16.0284 10.2412 15.904 10.8621 15.4444 11.1683C14.9848 11.4744 14.3639 11.3501 14.0577 10.8904L12.2777 8.21843C11.9716 7.75879 12.0959 7.13796 12.5556 6.83177Z" fill="black"/>
<path fill-rule="evenodd" clip-rule="evenodd" d="M15.0812 12.3943C15.2987 12.9019 15.0634 13.4898 14.5558 13.7073L11.2318 15.1313C10.7241 15.3488 10.1363 15.1135 9.91879 14.6059C9.70131 14.0982 9.93654 13.5103 10.4442 13.2929L13.7682 11.8689C14.2759 11.6514 14.8637 11.8866 15.0812 12.3943Z" fill="black"/>
<path fill-rule="evenodd" clip-rule="evenodd" d="M20.9701 3.75747C21.1041 4.29326 20.7783 4.8362 20.2425 4.97014L14.1825 6.48514C13.6467 6.61909 13.1038 6.29333 12.9699 5.75754C12.8359 5.22174 13.1617 4.67881 13.6975 4.54486L19.7575 3.02986C20.2933 2.89591 20.8362 3.22167 20.9701 3.75747Z" fill="black"/>
<path fill-rule="evenodd" clip-rule="evenodd" d="M3 2C3.55228 2 4 2.44772 4 3V19C4 19.2652 4.10536 19.5196 4.29289 19.7071C4.48043 19.8946 4.73478 20 5 20H21C21.5523 20 22 20.4477 22 21C22 21.5523 21.5523 22 21 22H5C4.20435 22 3.44129 21.6839 2.87868 21.1213C2.31607 20.5587 2 19.7956 2 19V3C2 2.44772 2.44772 2 3 2Z" fill="black"/>
<path fill-rule="evenodd" clip-rule="evenodd" d="M12 5C11.4477 5 11 5.44772 11 6C11 6.55228 11.4477 7 12 7C12.5523 7 13 6.55228 13 6C13 5.44772 12.5523 5 12 5ZM9 6C9 4.34315 10.3431 3 12 3C13.6569 3 15 4.34315 15 6C15 7.65685 13.6569 9 12 9C10.3431 9 9 7.65685 9 6Z" fill="black"/>
<path fill-rule="evenodd" clip-rule="evenodd" d="M16 11C15.4477 11 15 11.4477 15 12C15 12.5523 15.4477 13 16 13C16.5523 13 17 12.5523 17 12C17 11.4477 16.5523 11 16 11ZM13 12C13 10.3431 14.3431 9 16 9C17.6569 9 19 10.3431 19 12C19 13.6569 17.6569 15 16 15C14.3431 15 13 13.6569 13 12Z" fill="black"/>
<path fill-rule="evenodd" clip-rule="evenodd" d="M9 14C8.44771 14 8 14.4477 8 15C8 15.5523 8.44771 16 9 16C9.55228 16 10 15.5523 10 15C10 14.4477 9.55228 14 9 14ZM6 15C6 13.3431 7.34315 12 9 12C10.6569 12 12 13.3431 12 15C12 16.6569 10.6569 18 9 18C7.34315 18 6 16.6569 6 15Z" fill="black"/>
</svg>
