<svg width="24" height="24" viewBox="0 0 24 24" fill="none" xmlns="http://www.w3.org/2000/svg">
<path fill-rule="evenodd" clip-rule="evenodd" d="M12 3C7.02944 3 3 7.02944 3 12C3 16.9706 7.02944 21 12 21C16.9706 21 21 16.9706 21 12C21 7.02944 16.9706 3 12 3ZM1 12C1 5.92487 5.92487 1 12 1C18.0751 1 23 5.92487 23 12C23 18.0751 18.0751 23 12 23C5.92487 23 1 18.0751 1 12Z" fill="black"/>
<path fill-rule="evenodd" clip-rule="evenodd" d="M7.7906 8.19211C8.66151 7.94328 9.59265 8.01371 10.4162 8.39072C10.9184 8.6206 11.1391 9.21404 10.9092 9.71621C10.6794 10.2184 10.0859 10.4391 9.58376 10.2092C9.19365 10.0307 8.75258 9.99729 8.34004 10.1152C7.92821 10.2328 7.57186 10.4935 7.33498 10.8503C7.11139 11.192 6.99229 11.5915 6.99229 12C6.99229 12.4092 7.11182 12.8094 7.33621 13.1516C7.34127 13.1593 7.34622 13.1671 7.35106 13.1749C7.57369 13.5358 7.92315 13.8004 8.33086 13.9169C8.73857 14.0334 9.17509 13.9933 9.55477 13.8046C10.0493 13.5587 10.6495 13.7602 10.8954 14.2548C11.1413 14.7493 10.9397 15.3495 10.4452 15.5954C9.61886 16.0063 8.66878 16.0935 7.78142 15.84C6.89853 15.5877 6.14114 15.0163 5.65627 14.2369C5.22301 13.5714 4.99229 12.7943 4.99229 12C4.99229 11.2011 5.22567 10.4196 5.66376 9.75159L5.66622 9.74786C6.1663 8.99267 6.91969 8.44094 7.7906 8.19211Z" fill="black"/>
<path fill-rule="evenodd" clip-rule="evenodd" d="M14.7906 8.19211C15.6615 7.94328 16.5927 8.01371 17.4162 8.39072C17.9184 8.6206 18.1391 9.21404 17.9093 9.71621C17.6794 10.2184 17.0859 10.4391 16.5838 10.2092C16.1937 10.0307 15.7526 9.99729 15.3401 10.1152C14.9282 10.2328 14.5719 10.4935 14.335 10.8503C14.1114 11.192 13.9923 11.5915 13.9923 12C13.9923 12.4092 14.1118 12.8094 14.3362 13.1516C14.3413 13.1593 14.3462 13.1671 14.3511 13.1749C14.5737 13.5358 14.9232 13.8004 15.3309 13.9169C15.7386 14.0334 16.1751 13.9933 16.5548 13.8046C17.0493 13.5587 17.6495 13.7602 17.8954 14.2548C18.1413 14.7493 17.9397 15.3495 17.4452 15.5954C16.6189 16.0063 15.6688 16.0935 14.7814 15.84C13.8985 15.5877 13.1412 15.0163 12.6563 14.2369C12.223 13.5714 11.9923 12.7943 11.9923 12C11.9923 11.2011 12.2257 10.4196 12.6638 9.75159L12.6662 9.74786C13.1663 8.99267 13.9197 8.44094 14.7906 8.19211Z" fill="black"/>
</svg>
