<svg width="24" height="24" viewBox="0 0 24 24" fill="none" xmlns="http://www.w3.org/2000/svg">
<path d="M11 22V18C11 17.5956 11.2436 17.231 11.6172 17.0762C11.9908 16.9214 12.421 17.007 12.707 17.293C13.8954 18.4814 15.2863 19.5365 16.8965 19.8809C16.7036 18.8056 16.2204 17.6345 15.293 16.707C14.9024 16.3165 14.9024 15.6835 15.293 15.293C15.6835 14.9024 16.3165 14.9024 16.707 15.293C18.4422 17.0281 19 19.3107 19 21C19 21.5523 18.5523 22 18 22C16.0228 22 14.3531 21.1951 13 20.1943V22C13 22.5523 12.5523 23 12 23C11.4477 23 11 22.5523 11 22Z" fill="black"/>
<path d="M11.9974 1C12.313 0.999177 12.6107 1.14784 12.8001 1.40039C14.3282 3.43803 14.897 5.89452 14.9876 8.28907C15.0085 8.84096 14.5776 9.30529 14.0257 9.32618C13.474 9.347 13.0097 8.91689 12.9886 8.36524C12.9283 6.77326 12.6343 5.25832 11.9993 3.92871C11.8046 4.33249 11.6414 4.75202 11.514 5.1836C11.3574 5.71301 10.8013 6.01569 10.2718 5.85938C9.74224 5.70298 9.43983 5.14674 9.596 4.61719C9.93741 3.46122 10.4793 2.37397 11.1966 1.40528L11.2718 1.31446C11.4588 1.11576 11.7211 1.00085 11.9974 1Z" fill="black"/>
<path d="M21.0001 5C21.5523 5.00006 22.0001 5.44775 22.0001 6C22.0001 7.23613 21.3207 8.58116 20.5782 9.66895C19.8106 10.7934 18.8376 11.8416 17.9962 12.5088C17.5636 12.8517 16.9351 12.779 16.5919 12.3467C16.2487 11.9139 16.3213 11.2846 16.754 10.9414C17.4194 10.4137 18.2588 9.51973 18.9269 8.54102C19.2677 8.04168 19.5315 7.5648 19.713 7.1377C17.9875 7.48125 16.1475 8.42625 14.9972 9.43555C14.582 9.79968 13.9502 9.75886 13.586 9.34375C13.2218 8.92861 13.2637 8.29686 13.6788 7.93262C15.3984 6.42389 18.3798 5 21.0001 5Z" fill="black"/>
<path d="M1.29295 1.29297C1.68348 0.902448 2.31649 0.902448 2.70702 1.29297L22.707 21.293C23.0975 21.6835 23.0975 22.3165 22.707 22.707C22.3165 23.0976 21.6835 23.0976 21.293 22.707L1.29295 2.70703C0.90243 2.31651 0.90243 1.6835 1.29295 1.29297Z" fill="black"/>
<path d="M16.7734 11.8772C16.8928 11.3381 17.4268 10.9973 17.9658 11.1164C18.8858 11.3202 19.9514 11.7788 20.8496 12.3577C21.7042 12.9084 22.6233 13.7054 22.9492 14.6838C23.1136 15.1773 22.8717 15.7145 22.3935 15.9192C22.0514 16.0656 21.7041 16.2003 21.3525 16.3225C20.8309 16.5039 20.2605 16.2279 20.0791 15.7063C19.9283 15.2722 20.0946 14.8051 20.4551 14.5559C20.269 14.3904 20.0396 14.2149 19.7656 14.0383C19.0406 13.5712 18.194 13.2158 17.5342 13.0696C16.9951 12.9502 16.6543 12.4162 16.7734 11.8772Z" fill="black"/>
<path d="M2.99999 5C4.47864 5 6.04845 5.45295 7.41405 6.08399C7.91533 6.31565 8.1339 6.90983 7.90233 7.41114C7.67064 7.91247 7.07652 8.1311 6.57518 7.89942C5.82334 7.552 5.03929 7.28548 4.28709 7.13575C4.50024 7.63743 4.82557 8.20407 5.24803 8.78907C6.01403 9.84968 6.93261 10.7533 7.55467 11.168C7.92133 11.4124 8.08472 11.8683 7.95702 12.29C7.82924 12.7117 7.44057 13 6.99999 13C6.49585 13 5.54704 13.2845 4.61522 13.8086C4.22201 14.0298 3.86793 14.2768 3.58202 14.5254C4.69927 14.8839 5.65348 15.0222 6.37108 15.0645C6.85177 15.0927 7.22688 15.0776 7.47362 15.0576C7.59685 15.0476 7.6881 15.0363 7.74413 15.0283C7.77213 15.0243 7.79169 15.0213 7.80174 15.0195C7.80328 15.0193 7.80455 15.0188 7.80565 15.0186C8.23715 14.9331 8.67419 15.1404 8.88182 15.5283C9.08962 15.9168 9.01856 16.3955 8.70702 16.707C7.77955 17.6345 7.29537 18.8055 7.10252 19.8809C8.71312 19.5367 10.1043 18.4816 11.293 17.293C11.6835 16.9024 12.3165 16.9024 12.707 17.293C13.0975 17.6835 13.0975 18.3165 12.707 18.707C11.159 20.2551 8.9126 22 5.99999 22C5.4477 22 4.99999 21.5523 4.99999 21C4.99999 19.8373 5.26356 18.393 5.99413 17.04C4.85446 16.9475 3.33922 16.6615 1.60643 15.9189C1.12839 15.7141 0.887277 15.177 1.05174 14.6836C1.25031 14.0881 1.66149 13.5778 2.09764 13.1689C2.54459 12.75 3.08292 12.3768 3.63475 12.0664C4.02927 11.8445 4.4557 11.6409 4.8867 11.4727C4.44817 11.0126 4.0141 10.497 3.62694 9.96094C2.79321 8.80654 1.99999 7.33484 1.99999 6C1.99999 5.44772 2.4477 5 2.99999 5Z" fill="black"/>
</svg>
