<svg width="24" height="24" viewBox="0 0 24 24" fill="none" xmlns="http://www.w3.org/2000/svg">
<path fill-rule="evenodd" clip-rule="evenodd" d="M9.71899 7.07129C10.3866 6.79537 11.102 6.65365 11.8244 6.65422C12.5467 6.65479 13.2619 6.79763 13.9291 7.07459C14.5962 7.35155 15.2023 7.75721 15.7127 8.2684C16.2231 8.7796 16.6278 9.38631 16.9037 10.0539C17.1796 10.7215 17.3213 11.4369 17.3208 12.1593C17.3202 12.8816 17.1774 13.5968 16.9004 14.264C16.7302 14.674 16.5114 15.0609 16.2493 15.4168C16.2011 15.522 16.1337 15.6205 16.0471 15.7071C16.0128 15.7414 15.9766 15.7727 15.9388 15.8011C15.864 15.8855 15.7866 15.9677 15.7066 16.0476C14.8874 16.8666 13.6312 17.6766 12.2864 18.4164C10.9222 19.167 9.39002 19.8862 7.96242 20.509C6.5326 21.1328 5.19509 21.6654 4.21567 22.0418C3.72559 22.2302 3.32429 22.3798 3.04483 22.4825C2.90508 22.5339 2.79574 22.5736 2.72095 22.6006C2.68355 22.6141 2.65478 22.6244 2.63516 22.6314C2.62535 22.6349 2.61783 22.6376 2.61266 22.6395L2.60452 22.6424C2.60437 22.6424 2.60425 22.6425 2.27003 21.7C1.32765 21.3654 1.32769 21.3653 1.32774 21.3652L1.33064 21.357C1.33248 21.3519 1.33516 21.3443 1.33867 21.3345C1.34569 21.3149 1.35601 21.2862 1.3695 21.2488C1.39649 21.1741 1.43619 21.0649 1.48759 20.9252C1.59037 20.646 1.74003 20.245 1.92847 19.7553C2.30508 18.7767 2.83797 17.4401 3.46243 16.0108C4.08593 14.5838 4.80613 13.0519 5.5581 11.6872C6.29963 10.3414 7.11158 9.0842 7.93293 8.26285C8.44412 7.75246 9.05139 7.3472 9.71899 7.07129ZM2.27003 21.7L1.32774 21.3652C1.19872 21.7286 1.29013 22.1342 1.56281 22.407C1.8355 22.6797 2.24101 22.7713 2.60452 22.6424L2.27003 21.7ZM3.98396 19.9867C4.87897 19.6371 5.99029 19.1874 7.16265 18.6759C8.56005 18.0662 10.0316 17.3742 11.3224 16.6641C12.3889 16.0774 13.2829 15.5045 13.908 14.9822L12.1729 13.2471C11.7824 12.8565 11.7824 12.2234 12.1729 11.8328C12.5635 11.4423 13.1966 11.4423 13.5871 11.8328L15.1088 13.3545C15.2486 12.9714 15.3204 12.5663 15.3208 12.1577C15.3211 11.698 15.2309 11.2427 15.0553 10.8178C14.8797 10.393 14.6222 10.0068 14.2974 9.68151C13.9726 9.35618 13.5868 9.09801 13.1622 8.92175C12.7377 8.74549 12.2825 8.65458 11.8228 8.65422C11.3631 8.65386 10.9078 8.74405 10.4829 8.91965C10.0583 9.09514 9.67235 9.35251 9.34714 9.67706C9.3471 9.6771 9.34718 9.67702 9.34714 9.67706C8.87841 10.1458 8.35812 10.8702 7.81685 11.77L9.34541 13.2911C9.73689 13.6807 9.73844 14.3139 9.34887 14.7053C8.9593 15.0968 8.32614 15.0984 7.93466 14.7088L6.81126 13.5909C6.27667 14.6321 5.76174 15.7436 5.29514 16.8116C4.78344 17.9827 4.33368 19.0927 3.98396 19.9867Z" fill="black"/>
<path fill-rule="evenodd" clip-rule="evenodd" d="M15.5369 7.19857C16.2311 6.68057 17.333 6 18.5 6C19.9022 6 20.9964 6.64581 21.7016 7.22982C22.0587 7.52552 22.3342 7.81987 22.5218 8.0417C22.6161 8.15322 22.6897 8.24808 22.7415 8.31792C22.7675 8.35289 22.7881 8.38174 22.8033 8.40344C22.8109 8.41429 22.8172 8.42337 22.8221 8.43054C22.8245 8.43413 22.8267 8.43724 22.8284 8.43987C22.8293 8.44118 22.8301 8.44237 22.8308 8.44344L22.8318 8.44494C22.832 8.44526 22.8327 8.44626 22 9C22.8327 9.55374 22.8325 9.55405 22.8323 9.55437L22.8308 9.55656C22.8304 9.55725 22.8299 9.55798 22.8293 9.55877L22.8284 9.56013C22.8267 9.56276 22.8245 9.56587 22.8221 9.56946C22.8172 9.57663 22.8109 9.58571 22.8033 9.59656C22.7881 9.61826 22.7675 9.64711 22.7415 9.68208C22.6897 9.75192 22.6161 9.84678 22.5218 9.9583C22.3342 10.1801 22.0587 10.4745 21.7016 10.7702C20.9964 11.3542 19.9022 12 18.5 12C17.0978 12 16.0036 11.3542 15.2984 10.7702C14.9414 10.4745 14.6659 10.1801 14.4782 9.9583C14.3839 9.84678 14.3104 9.75192 14.2585 9.68208C14.2326 9.64711 14.2119 9.61826 14.1967 9.59656C14.1891 9.58571 14.1828 9.57663 14.1779 9.56946C14.1755 9.56587 14.1734 9.56276 14.1716 9.56013C14.1707 9.55882 14.1699 9.55763 14.1692 9.55656L14.1682 9.55506C14.168 9.55474 14.1673 9.55374 15 9C14.2677 8.31899 14.2679 8.31882 14.2681 8.31865L14.2693 8.31736C14.2699 8.31669 14.2706 8.3159 14.2715 8.31499C14.2732 8.31318 14.2753 8.31088 14.2779 8.30811C14.2832 8.30257 14.2902 8.29517 14.299 8.28601C14.3165 8.26771 14.341 8.24238 14.372 8.21103C14.4339 8.1484 14.5221 8.06134 14.6323 7.95796C14.8517 7.75228 15.1644 7.47654 15.5369 7.19857ZM15 9L14.2681 8.31865C13.953 8.65744 13.9111 9.16848 14.1673 9.55374L15 9ZM16.3922 9.0706C16.4491 9.12313 16.5097 9.17652 16.5741 9.22982C17.0764 9.64581 17.7322 10 18.5 10C19.2678 10 19.9236 9.64581 20.4259 9.22982C20.5194 9.15243 20.6051 9.07485 20.6825 9C20.6051 8.92515 20.5194 8.84757 20.4259 8.77018C19.9236 8.35419 19.2678 8 18.5 8C18.027 8 17.379 8.31943 16.7331 8.80143C16.6116 8.89208 16.4973 8.9831 16.3922 9.0706ZM22 9L22.8323 9.55437C23.0554 9.21892 23.0558 8.78172 22.8327 8.44626L22 9Z" fill="black"/>
<path fill-rule="evenodd" clip-rule="evenodd" d="M15.5537 1.16731L15 2L14.4463 1.16731C14.7817 0.94423 15.2183 0.94423 15.5537 1.16731ZM15 9C14.4463 9.83269 14.446 9.83248 14.4456 9.83227L14.4434 9.83081C14.4424 9.83009 14.4412 9.8293 14.4399 9.82841C14.4373 9.82664 14.4341 9.82453 14.4305 9.82208C14.4234 9.81719 14.4143 9.81093 14.4034 9.80332C14.3817 9.78811 14.3529 9.76746 14.3179 9.7415C14.2481 9.68964 14.1532 9.61611 14.0417 9.52179C13.8199 9.33416 13.5255 9.05864 13.2298 8.70158C12.6458 7.99639 12 6.9022 12 5.5C12 4.0978 12.6458 3.00361 13.2298 2.29842C13.5255 1.94136 13.8199 1.66584 14.0417 1.47821C14.1532 1.38389 14.2481 1.31037 14.3179 1.25851C14.3529 1.23254 14.3817 1.21189 14.4034 1.19668C14.4143 1.18907 14.4234 1.18281 14.4305 1.17792C14.4341 1.17547 14.4373 1.17336 14.4399 1.17159C14.4403 1.17129 14.4408 1.171 14.4412 1.17071C14.442 1.17017 14.4427 1.16966 14.4434 1.16919L14.445 1.16819C14.4453 1.16797 14.4463 1.16731 15 2C15.5537 1.16731 15.5534 1.1671 15.5537 1.16731L15.5551 1.16819L15.5566 1.16919C15.5572 1.16961 15.5579 1.17006 15.5586 1.17054C15.5591 1.17088 15.5596 1.17123 15.5601 1.17159C15.5628 1.17336 15.5659 1.17547 15.5695 1.17792C15.5766 1.18281 15.5857 1.18907 15.5966 1.19668C15.6183 1.21189 15.6471 1.23254 15.6821 1.25851C15.7519 1.31037 15.8468 1.38389 15.9583 1.47821C16.1801 1.66584 16.4745 1.94136 16.7702 2.29842C17.3542 3.00361 18 4.0978 18 5.5C18 6.6761 17.3208 7.77726 16.8004 8.47202C16.5218 8.84387 16.2455 9.15518 16.0394 9.37335C15.9357 9.48302 15.8485 9.57063 15.7856 9.63216C15.7542 9.66297 15.7287 9.68734 15.7103 9.70478C15.7011 9.7135 15.6937 9.7205 15.6881 9.72571C15.6853 9.72831 15.683 9.73047 15.6811 9.73218C15.6802 9.73303 15.6794 9.73377 15.6787 9.7344L15.6774 9.73561C15.6772 9.73578 15.6771 9.73593 15 9ZM15 9L14.4456 9.83227C14.8292 10.0873 15.3384 10.0475 15.6774 9.73561L15 9ZM14.9319 7.61052C15.019 7.50654 15.1095 7.39334 15.1996 7.27298C15.6792 6.63274 16 5.9839 16 5.5C16 4.7322 15.6458 4.07639 15.2298 3.57408C15.1524 3.48063 15.0749 3.39495 15 3.31751C14.9252 3.39495 14.8476 3.48063 14.7702 3.57408C14.3542 4.07639 14 4.7322 14 5.5C14 6.2678 14.3542 6.92361 14.7702 7.42592C14.8243 7.49131 14.8786 7.5529 14.9319 7.61052Z" fill="black"/>
</svg>
