<svg width="24" height="24" viewBox="0 0 24 24" fill="none" xmlns="http://www.w3.org/2000/svg">
<path d="M14 4C13.4477 4 13 3.55228 13 3C13 2.44772 13.4477 2 14 2C14.5304 2 15.039 2.21086 15.4141 2.58594C15.7891 2.96101 16 3.46957 16 4V9C16 9.53043 15.7891 10.039 15.4141 10.4141C15.039 10.7891 14.5304 11 14 11C13.4477 11 13 10.5523 13 10C13 9.44772 13.4477 9 14 9V4Z" fill="black"/>
<path d="M19 4C18.4477 4 18 3.55228 18 3C18 2.44772 18.4477 2 19 2C19.5304 2 20.039 2.21086 20.4141 2.58594C20.7891 2.96101 21 3.46957 21 4V9C21 9.53043 20.7891 10.039 20.4141 10.4141C20.039 10.7891 19.5304 11 19 11C18.4477 11 18 10.5523 18 10C18 9.44772 18.4477 9 19 9V4Z" fill="black"/>
<path d="M6.29289 14.293C6.68342 13.9024 7.31643 13.9024 7.70696 14.293L10.707 17.293C11.0975 17.6835 11.0975 18.3165 10.707 18.707C10.3164 19.0975 9.68342 19.0975 9.29289 18.707L6.29289 15.707C5.90237 15.3165 5.90237 14.6835 6.29289 14.293Z" fill="black"/>
<path d="M2 16V14C2 13.4477 2.44772 13 3 13C3.55228 13 4 13.4477 4 14V16C4 16.2652 4.10543 16.5195 4.29297 16.707C4.48051 16.8946 4.73478 17 5 17H10C10.4044 17 10.769 17.2436 10.9238 17.6172C11.0786 17.9909 10.993 18.421 10.707 18.707L7.70703 21.707C7.31651 22.0976 6.68349 22.0976 6.29297 21.707C5.90244 21.3165 5.90244 20.6835 6.29297 20.293L7.58594 19H5C4.20435 19 3.44151 18.6837 2.87891 18.1211C2.3163 17.5585 2 16.7956 2 16Z" fill="black"/>
<path d="M15 15V20H20V15H15ZM22 20C22 21.1046 21.1046 22 20 22H15C13.8954 22 13 21.1046 13 20V15C13 13.8954 13.8954 13 15 13H20C21.1046 13 22 13.8954 22 15V20Z" fill="black"/>
<path d="M4 4V9H9V4H4ZM11 9C11 10.1046 10.1046 11 9 11H4C2.89543 11 2 10.1046 2 9V4C2 2.89543 2.89543 2 4 2H9C10.1046 2 11 2.89543 11 4V9Z" fill="black"/>
</svg>
