<svg width="24" height="24" viewBox="0 0 24 24" fill="none" xmlns="http://www.w3.org/2000/svg">
<path d="M14.3691 3.22462C14.7618 2.90427 15.3408 2.92686 15.707 3.29298L20.707 8.29298C21.0975 8.6835 21.0975 9.31652 20.707 9.70704C20.3164 10.0976 19.6834 10.0976 19.2929 9.70704L14.9999 5.41407L10.707 9.70704C10.3164 10.0976 9.68342 10.0976 9.29289 9.70704C8.90237 9.31652 8.90237 8.6835 9.29289 8.29298L14.2929 3.29298L14.3691 3.22462Z" fill="black"/>
<path d="M14 16V4C14 3.44772 14.4477 3 15 3C15.5523 3 16 3.44772 16 4V16C16 17.3261 15.4728 18.5975 14.5352 19.5352C13.5975 20.4728 12.3261 21 11 21H4C3.44772 21 3 20.5523 3 20C3 19.4477 3.44772 19 4 19H11C11.7956 19 12.5585 18.6837 13.1211 18.1211C13.6837 17.5585 14 16.7956 14 16Z" fill="black"/>
</svg>
