<svg width="24" height="24" viewBox="0 0 24 24" fill="none" xmlns="http://www.w3.org/2000/svg">
<path d="M11 6.00004C11 5.44775 11.4477 5.00004 12 5.00004C12.5523 5.00004 13 5.44775 13 6.00004V11.3819L16.0908 12.9278C16.5848 13.1748 16.7851 13.7756 16.5381 14.2696C16.2911 14.7631 15.691 14.9634 15.1973 14.7168L11.5527 12.8946C11.2139 12.7252 11 12.3788 11 12V6.00004Z" fill="black"/>
<path d="M22 18C22.5523 18 23 18.4478 23 19C23 19.5523 22.5523 20 22 20H16C15.4477 20 15 19.5523 15 19C15 18.4478 15.4477 18 16 18H22Z" fill="black"/>
<path d="M18 22V16C18 15.4478 18.4477 15 19 15C19.5523 15 20 15.4478 20 16V22C20 22.5523 19.5523 23 19 23C18.4477 23 18 22.5523 18 22Z" fill="black"/>
<path d="M10.1978 1.14899C12.4614 0.772985 14.7862 1.1147 16.8462 2.12555C18.9062 3.13641 20.5984 4.76621 21.6861 6.78668C22.7737 8.80725 23.2023 11.1179 22.9116 13.3941C22.8415 13.9416 22.3411 14.3292 21.7935 14.2593C21.2456 14.1894 20.8583 13.688 20.9282 13.1402C21.166 11.278 20.8151 9.38802 19.9253 7.73493C19.0354 6.08174 17.6508 4.74757 15.9654 3.92047C14.2799 3.09345 12.3779 2.815 10.5259 3.12262C8.67379 3.43027 6.96383 4.30871 5.63625 5.63629C4.30867 6.96388 3.43022 8.67383 3.12258 10.5259C2.81495 12.378 3.0934 14.28 3.92043 15.9654C4.74752 17.6509 6.08169 19.0355 7.73488 19.9254C9.38797 20.8152 11.2779 21.166 13.1402 20.9283C13.688 20.8583 14.1893 21.2457 14.2593 21.7935C14.3291 22.3411 13.9416 22.8415 13.3941 22.9117C11.1178 23.2023 8.80721 22.7737 6.78664 21.6861C4.76617 20.5984 3.13637 18.9062 2.12551 16.8463C1.11465 14.7862 0.77294 12.4615 1.14894 10.1978C1.52499 7.93422 2.59964 5.84478 4.22219 4.22223C5.84473 2.59969 7.93417 1.52504 10.1978 1.14899Z" fill="black"/>
</svg>
