<svg width="24" height="24" viewBox="0 0 24 24" fill="none" xmlns="http://www.w3.org/2000/svg">
<path fill-rule="evenodd" clip-rule="evenodd" d="M2.74251 7.3855C3.1514 6.70401 3.92861 6 5 6H12C13.0015 6 13.8159 6.43208 14.4247 6.91913C14.4535 6.94218 14.481 6.9668 14.5071 6.99289C14.9673 7.45308 15.5251 8.03631 15.964 8.5003C16.1843 8.73318 16.3762 8.93768 16.5131 9.08403C16.5156 9.08675 16.5182 9.08946 16.5207 9.09214C16.5666 9.10255 16.6173 9.11405 16.6721 9.12654C16.9553 9.19105 17.3517 9.28228 17.8048 9.38926C18.7041 9.6016 19.839 9.87884 20.7565 10.1334C21.9612 10.4416 23 11.6118 23 13V16C23 16.5272 22.8199 17.0443 22.4321 17.4321C22.0443 17.8199 21.5272 18 21 18H19C18.4477 18 18 17.5523 18 17C18 16.4477 18.4477 16 19 16H21V13C21 12.5936 20.6469 12.1675 20.2575 12.0701C20.2491 12.068 20.2407 12.0658 20.2324 12.0635C19.3518 11.8189 18.2422 11.5475 17.3452 11.3357C16.8983 11.2302 16.5072 11.1402 16.2279 11.0766C16.0883 11.0448 15.9768 11.0196 15.9003 11.0024C15.862 10.9938 15.8325 10.9872 15.8127 10.9828C15.8028 10.9806 15.7953 10.9789 15.7903 10.9778L15.7831 10.9762C15.5852 10.9322 15.4052 10.8291 15.2672 10.6805L15.2529 10.6651C15.2434 10.6548 15.2292 10.6396 15.2107 10.6198C15.1738 10.5802 15.12 10.5225 15.0525 10.4503C14.9176 10.3061 14.7282 10.1043 14.511 9.8747C14.0885 9.42805 13.5664 8.88213 13.1343 8.44857C12.7571 8.15638 12.3845 8 12 8H5C4.87602 8 4.6645 8.08921 4.47823 8.38099L3.1286 11.1766C3.04342 11.4427 3 11.7204 3 12V16H5C5.55228 16 6 16.4477 6 17C6 17.5523 5.55228 18 5 18H3C2.47275 18 1.95567 17.8199 1.56789 17.4321C1.18011 17.0443 1 16.5272 1 16V12C1 11.4814 1.08584 10.9663 1.25405 10.4757C1.26697 10.438 1.28213 10.4011 1.29945 10.3653L2.69945 7.46525C2.71259 7.43803 2.72696 7.41142 2.74251 7.3855Z" fill="black"/>
<path fill-rule="evenodd" clip-rule="evenodd" d="M7 16C6.44771 16 6 16.4477 6 17C6 17.5523 6.44771 18 7 18C7.55228 18 8 17.5523 8 17C8 16.4477 7.55228 16 7 16ZM4 17C4 15.3431 5.34315 14 7 14C8.65685 14 10 15.3431 10 17C10 18.6569 8.65685 20 7 20C5.34315 20 4 18.6569 4 17Z" fill="black"/>
<path fill-rule="evenodd" clip-rule="evenodd" d="M8 17C8 16.4477 8.44772 16 9 16H15C15.5523 16 16 16.4477 16 17C16 17.5523 15.5523 18 15 18H9C8.44772 18 8 17.5523 8 17Z" fill="black"/>
<path fill-rule="evenodd" clip-rule="evenodd" d="M17 16C16.4477 16 16 16.4477 16 17C16 17.5523 16.4477 18 17 18C17.5523 18 18 17.5523 18 17C18 16.4477 17.5523 16 17 16ZM14 17C14 15.3431 15.3431 14 17 14C18.6569 14 20 15.3431 20 17C20 18.6569 18.6569 20 17 20C15.3431 20 14 18.6569 14 17Z" fill="black"/>
</svg>
