<svg width="24" height="24" viewBox="0 0 24 24" fill="none" xmlns="http://www.w3.org/2000/svg">
<path fill-rule="evenodd" clip-rule="evenodd" d="M12 5C8.13401 5 5 8.13401 5 12C5 15.866 8.13401 19 12 19C15.866 19 19 15.866 19 12C19 8.13401 15.866 5 12 5ZM3 12C3 7.02944 7.02944 3 12 3C16.9706 3 21 7.02944 21 12C21 16.9706 16.9706 21 12 21C7.02944 21 3 16.9706 3 12Z" fill="black"/>
<path fill-rule="evenodd" clip-rule="evenodd" d="M2.29289 2.29289C2.68342 1.90237 3.31658 1.90237 3.70711 2.29289L6.70711 5.29289C7.09763 5.68342 7.09763 6.31658 6.70711 6.70711C6.31658 7.09763 5.68342 7.09763 5.29289 6.70711L2.29289 3.70711C1.90237 3.31658 1.90237 2.68342 2.29289 2.29289Z" fill="black"/>
<path fill-rule="evenodd" clip-rule="evenodd" d="M21.7071 2.29289C22.0976 2.68342 22.0976 3.31658 21.7071 3.70711L18.7071 6.70711C18.3166 7.09763 17.6834 7.09763 17.2929 6.70711C16.9024 6.31658 16.9024 5.68342 17.2929 5.29289L20.2929 2.29289C20.6834 1.90237 21.3166 1.90237 21.7071 2.29289Z" fill="black"/>
<path fill-rule="evenodd" clip-rule="evenodd" d="M6.70711 17.2929C7.09763 17.6834 7.09763 18.3166 6.70711 18.7071L3.70711 21.7071C3.31658 22.0976 2.68342 22.0976 2.29289 21.7071C1.90237 21.3166 1.90237 20.6834 2.29289 20.2929L5.29289 17.2929C5.68342 16.9024 6.31658 16.9024 6.70711 17.2929Z" fill="black"/>
<path fill-rule="evenodd" clip-rule="evenodd" d="M17.2929 17.2929C17.6834 16.9024 18.3166 16.9024 18.7071 17.2929L21.7071 20.2929C22.0976 20.6834 22.0976 21.3166 21.7071 21.7071C21.3166 22.0976 20.6834 22.0976 20.2929 21.7071L17.2929 18.7071C16.9024 18.3166 16.9024 17.6834 17.2929 17.2929Z" fill="black"/>
</svg>
