<svg width="24" height="24" viewBox="0 0 24 24" fill="none" xmlns="http://www.w3.org/2000/svg">
<path d="M2.605 10.2286C2.77867 9.70441 3.34445 9.42024 3.86867 9.5938C4.39277 9.76751 4.67699 10.3333 4.50344 10.8575C3.87735 12.7486 3.83102 14.783 4.36867 16.7002C4.40458 16.7826 4.46053 16.8547 4.53371 16.9073C4.6117 16.9632 4.70456 16.9952 4.80031 17H10.1997C10.752 17 11.1997 17.4478 11.1997 18C11.1997 18.5523 10.752 19 10.1997 19H4.77395C4.76255 19 4.75116 18.9995 4.73977 18.9991C4.24667 18.9821 3.7696 18.8198 3.36867 18.5323C2.96768 18.2446 2.65995 17.8447 2.48586 17.3829C2.47631 17.3575 2.46793 17.3317 2.46047 17.3057C1.79585 14.986 1.84657 12.5193 2.605 10.2286Z" fill="black"/>
<path d="M17 10.1998V4.79943C16.995 4.70397 16.9631 4.61157 16.9073 4.53381C16.8549 4.46083 16.7832 4.40472 16.7012 4.36877C14.784 3.83103 12.7496 3.87753 10.8584 4.50353C10.3341 4.67709 9.76833 4.3921 9.59477 3.86779C9.4215 3.3437 9.70555 2.77873 10.2295 2.6051C12.3769 1.89424 14.6787 1.80512 16.8692 2.34435L17.3057 2.46056L17.3829 2.48596C17.8446 2.66001 18.2446 2.96691 18.5323 3.36779C18.82 3.76878 18.9821 4.24664 18.9991 4.73986C18.9995 4.75124 19 4.76266 19 4.77404V10.1998C19 10.7521 18.5523 11.1998 18 11.1998C17.4478 11.1998 17 10.7521 17 10.1998Z" fill="black"/>
<path d="M20.9996 8C20.9996 7.57763 20.7773 7.09058 20.2281 6.67871C19.6735 6.26277 18.8738 6 17.9996 6C17.4475 5.99982 16.9996 5.55218 16.9996 5C16.9996 4.44782 17.4475 4.00018 17.9996 4C19.2471 4 20.4827 4.36988 21.4283 5.0791C22.3794 5.79245 22.9996 6.83114 22.9996 8C22.9996 8.7955 22.6841 9.55852 22.1217 10.1211C21.5591 10.6837 20.7953 11 19.9996 11C18.3707 10.9996 16.7722 11.4416 15.3746 12.2783C14.9008 12.5619 14.2862 12.4074 14.0026 11.9336C13.719 11.4598 13.8735 10.8452 14.3473 10.5615C16.0553 9.53905 18.009 8.99961 19.9996 9C20.2648 9 20.5191 8.89447 20.7067 8.70703C20.8942 8.51949 20.9996 8.26522 20.9996 8Z" fill="black"/>
<path d="M10.5615 14.3463C10.8452 13.8725 11.4598 13.7181 11.9336 14.0016C12.4074 14.2852 12.5619 14.8998 12.2783 15.3736C11.4415 16.7715 10.9994 18.3704 11 19.9996C11 20.7953 10.6837 21.5591 10.1211 22.1217C9.55852 22.6841 8.7955 22.9996 8 22.9996C6.83113 22.9996 5.79245 22.3794 5.0791 21.4283C4.36988 20.4827 4 19.2471 4 17.9996C4.00019 17.4475 4.44783 16.9996 5 16.9996C5.55217 16.9996 5.99981 17.4475 6 17.9996C6 18.8738 6.26278 19.6735 6.67871 20.2281C7.09058 20.7773 7.57763 20.9996 8 20.9996C8.26522 20.9996 8.51949 20.8942 8.70703 20.7067C8.89446 20.5191 9 20.2648 9 19.9996C8.99943 18.0086 9.53888 16.0546 10.5615 14.3463Z" fill="black"/>
<path d="M8.47821 1.58075C8.9908 1.45904 9.52882 1.50257 10.0153 1.70477C10.4412 1.88183 10.8092 2.17255 11.0788 2.54364L11.1882 2.7077L11.2106 2.74677L16.6306 12.5534C16.9453 13.1228 17.0661 13.7793 16.9753 14.4235C16.8843 15.068 16.5859 15.6654 16.1257 16.1257C15.6654 16.5859 15.068 16.8843 14.4235 16.9753C13.7793 17.0661 13.1228 16.9453 12.5534 16.6306L2.74677 11.2106C2.7338 11.2035 2.72034 11.1959 2.7077 11.1882C2.2582 10.9129 1.90712 10.502 1.70477 10.0153C1.50257 9.52882 1.45904 8.9908 1.58075 8.47821L1.61005 8.38055C2.15534 6.81472 3.04699 5.39185 4.21942 4.21942C5.39185 3.04699 6.81472 2.15534 8.38055 1.61005L8.47821 1.58075ZM8.97919 3.5202C7.72135 3.96808 6.57798 4.68899 5.63348 5.63348C4.68899 6.57798 3.96808 7.72135 3.5202 8.97919C3.50613 9.06975 3.51609 9.16265 3.55145 9.24774C3.59105 9.343 3.65962 9.42321 3.74677 9.47821L13.5212 14.8796C13.711 14.9845 13.9295 15.0251 14.1442 14.9948C14.3591 14.9645 14.5582 14.865 14.7116 14.7116C14.865 14.5582 14.9645 14.3591 14.9948 14.1442C15.0251 13.9295 14.9845 13.711 14.8796 13.5212L9.47821 3.74677C9.42321 3.65962 9.343 3.59105 9.24774 3.55145C9.16265 3.51609 9.06975 3.50613 8.97919 3.5202Z" fill="black"/>
</svg>
