<svg width="24" height="24" viewBox="0 0 24 24" fill="none" xmlns="http://www.w3.org/2000/svg">
<path d="M9 17.9004V7C9 6.44772 9.44771 6 10 6C10.5523 6 11 6.44772 11 7V17.9004C10.9998 18.4525 10.5522 18.9004 10 18.9004C9.44785 18.9004 9.00021 18.4525 9 17.9004Z" fill="black"/>
<path d="M13 17.0004V6.09998C13 5.54769 13.4477 5.09998 14 5.09998C14.5523 5.09998 15 5.54769 15 6.09998V17.0004C14.9998 17.5525 14.5522 18.0004 14 18.0004C13.4478 18.0004 13.0002 17.5525 13 17.0004Z" fill="black"/>
<path d="M16.2344 1.15254C16.5996 1.00126 17.0019 0.961273 17.3896 1.03828C17.7292 1.1058 18.0447 1.26062 18.3057 1.48555L18.4141 1.58614L18.4189 1.59102C18.5849 1.75938 18.7884 1.88636 19.0127 1.96114C19.237 2.03587 19.4761 2.05582 19.71 2.02071L19.7178 2.01973C20.025 1.97598 20.3384 2.00455 20.6328 2.10274C20.9272 2.20094 21.1946 2.36669 21.4141 2.58614C21.6335 2.80556 21.7993 3.07304 21.8975 3.36739C21.9956 3.66169 22.0242 3.97529 21.9805 4.28243L21.9785 4.28926C21.9434 4.52304 21.9644 4.76223 22.0391 4.98653C22.0951 5.15484 22.1808 5.31158 22.291 5.44942L22.4092 5.58125L22.4141 5.58614C22.6936 5.86574 22.8837 6.22183 22.9609 6.60957C23.038 6.99733 22.9989 7.39956 22.8477 7.76485C22.6964 8.13011 22.44 8.44255 22.1113 8.66231C21.7825 8.88208 21.3955 9.00011 21 9.0002H17C16.4821 9.0002 16.0559 8.60625 16.0049 8.10176L16 8.0002L15.8975 7.99434C15.3934 7.94298 15.0001 7.51775 15 7.0002V3.0002C15.0001 2.60476 15.1172 2.21766 15.3369 1.88887C15.5566 1.56014 15.8691 1.3039 16.2344 1.15254ZM17 7.0002H21C20.6095 6.61367 20.3153 6.14066 20.1416 5.61934C19.9679 5.09796 19.9194 4.54276 20 3.99922C19.4567 4.07971 18.902 4.03223 18.3809 3.8586C17.8595 3.68491 17.3865 3.39064 17 3.0002V7.0002Z" fill="black"/>
<path d="M17.0001 11.0001C17.0001 9.93948 16.579 8.92203 15.8292 8.17194C15.4579 7.80047 15.0166 7.50583 14.5314 7.30475C14.046 7.10367 13.5255 7.00007 13.0001 7.00006C12.4747 7.00006 11.9542 7.10366 11.4689 7.30475C10.9836 7.50583 10.5424 7.80044 10.171 8.17194L8.17102 10.1719C7.4212 10.922 7.00012 11.9394 7.00012 13.0001C7.00014 14.0607 7.42117 15.0781 8.17102 15.8282C8.54243 16.1997 8.98357 16.4943 9.46887 16.6954C9.95424 16.8965 10.4747 17.0001 11.0001 17.0001C11.5255 17.0001 12.046 16.8964 12.5314 16.6954C13.0166 16.4943 13.4578 16.1997 13.8292 15.8282L15.8292 13.8282C16.579 13.0781 17.0001 12.0606 17.0001 11.0001ZM19.0001 11.0001C19.0001 12.591 18.3681 14.1171 17.2433 15.2422L15.2433 17.2422C14.6862 17.7994 14.0248 18.2414 13.297 18.543C12.569 18.8447 11.7882 19.0001 11.0001 19.0001C10.2121 19.0001 9.4313 18.8447 8.70325 18.543C7.97538 18.2414 7.31402 17.7994 6.75696 17.2422C5.63215 16.1171 5.00014 14.591 5.00012 13.0001C5.00012 11.4091 5.63213 9.88304 6.75696 8.75787L8.75696 6.75787C9.31402 6.20069 9.97537 5.7587 10.7032 5.45709C11.4313 5.15547 12.2121 5.00006 13.0001 5.00006C13.7882 5.00007 14.569 5.15547 15.297 5.45709C16.0249 5.75871 16.6862 6.20069 17.2433 6.75787C18.3681 7.88304 19.0001 9.40908 19.0001 11.0001Z" fill="black"/>
<path d="M3.00026 17C3.3907 17.3865 3.68497 17.8595 3.85866 18.3809C4.03229 18.902 4.07977 19.4567 3.99928 20C4.54283 19.9194 5.09802 19.9679 5.6194 20.1416C6.07748 20.2943 6.49814 20.5401 6.85573 20.8623L7.00026 21V17H3.00026ZM9.00026 21C9.00018 21.3955 8.88214 21.7825 8.66237 22.1113C8.44261 22.44 8.13017 22.6964 7.76491 22.8477C7.39962 22.9989 6.9974 23.038 6.60963 22.9609C6.22189 22.8837 5.8658 22.6936 5.5862 22.4141L5.58131 22.4092C5.41525 22.2407 5.21099 22.1138 4.98659 22.0391C4.76229 21.9644 4.5231 21.9434 4.28932 21.9785L4.28249 21.9805C3.97535 22.0242 3.66175 21.9956 3.36745 21.8975C3.0731 21.7993 2.80563 21.6335 2.5862 21.4141C2.36675 21.1946 2.201 20.9272 2.1028 20.6328C2.00461 20.3384 1.97604 20.025 2.01979 19.7178L2.02077 19.71C2.05588 19.4761 2.03593 19.237 1.9612 19.0127C1.88642 18.7884 1.75944 18.5849 1.59108 18.4189L1.5862 18.4141C1.30658 18.1344 1.11548 17.7776 1.03835 17.3896C0.961334 17.0019 1.00132 16.5996 1.1526 16.2344C1.30396 15.8691 1.56021 15.5566 1.88893 15.3369C2.21772 15.1172 2.60482 15.0001 3.00026 15H7.00026C7.51781 15.0001 7.94304 15.3934 7.9944 15.8975L8.00026 16L8.10182 16.0049C8.60631 16.0559 9.00026 16.4821 9.00026 17V21Z" fill="black"/>
</svg>
