<svg width="24" height="24" viewBox="0 0 24 24" fill="none" xmlns="http://www.w3.org/2000/svg">
<g clip-path="url(#clip0_404_40124)">
<path fill-rule="evenodd" clip-rule="evenodd" d="M18.5003 3.66618C17.3509 3.00306 15.9851 2.82371 14.7035 3.16756C13.4219 3.51142 12.3293 4.35032 11.6662 5.49972C11.6616 5.50768 11.6569 5.51558 11.6521 5.52341L3.06179 19.5076C2.93349 19.739 2.90051 20.0116 2.97022 20.2672C3.04109 20.5271 3.21229 20.7481 3.44614 20.8817C3.68 21.0154 3.95736 21.0506 4.21722 20.9798C4.34589 20.9447 4.46638 20.8846 4.57182 20.8029C4.67726 20.7213 4.76559 20.6196 4.83176 20.5039C4.83677 20.4951 4.8419 20.4864 4.84717 20.4778L13.4115 6.49028C13.6061 6.15275 13.8646 5.8563 14.1726 5.61754C14.4852 5.37513 14.8428 5.19697 15.2246 5.09331C15.6064 4.98965 16.005 4.96253 16.3973 5.01353C16.7897 5.06452 17.168 5.19262 17.5107 5.39045C17.8533 5.58827 18.1534 5.85191 18.3937 6.1662C18.6341 6.48048 18.8099 6.8392 18.911 7.2217C19.0121 7.6042 19.0366 8.00292 18.983 8.39491C18.9294 8.78691 18.7988 9.16443 18.5987 9.50574C18.532 9.61951 18.4885 9.74535 18.4706 9.87601C18.4527 10.0067 18.4609 10.1396 18.4946 10.2671C18.5283 10.3946 18.5869 10.5142 18.667 10.6189C18.7471 10.7237 18.8472 10.8116 18.9614 10.8775C19.0756 10.9434 19.2017 10.9861 19.3325 11.0031C19.4633 11.0201 19.5961 11.0111 19.7234 10.9765C19.8507 10.942 19.9698 10.8826 20.0741 10.8018C20.1783 10.721 20.2655 10.6204 20.3307 10.5057C20.3317 10.5039 20.3328 10.5021 20.3338 10.5003C20.9969 9.35087 21.1763 7.98513 20.8324 6.70349C20.4886 5.42185 19.6497 4.32929 18.5003 3.66618ZM14.1852 1.23587C15.9792 0.754569 17.8909 1.00562 19.4997 1.93381C21.1086 2.86199 22.2828 4.39127 22.7641 6.18523C23.2452 7.97823 22.9946 9.88884 22.0677 11.4972C21.8723 11.8399 21.6112 12.1407 21.2994 12.3825C20.9868 12.6249 20.6292 12.803 20.2474 12.9067C19.8656 13.0103 19.467 13.0375 19.0747 12.9865C18.6823 12.9355 18.304 12.8074 17.9613 12.6095C17.6187 12.4117 17.3186 12.1481 17.0783 11.8338C16.8379 11.5195 16.6622 11.1608 16.561 10.7783C16.4599 10.3958 16.4354 9.99707 16.489 9.60507C16.5426 9.21308 16.6732 8.83556 16.8733 8.49425C16.94 8.38048 16.9836 8.25464 17.0014 8.12397C17.0193 7.99331 17.0111 7.8604 16.9774 7.7329C16.9437 7.6054 16.8851 7.48583 16.805 7.38107C16.7249 7.27631 16.6249 7.18843 16.5106 7.12248C16.3964 7.05654 16.2703 7.01384 16.1395 6.99685C16.0088 6.97985 15.8759 6.98888 15.7486 7.02344C15.6214 7.05799 15.5022 7.11738 15.3979 7.19818C15.2937 7.27898 15.2065 7.3796 15.1413 7.49425C15.136 7.50364 15.1305 7.51295 15.1248 7.52217L6.55995 21.5106C6.36441 21.8484 6.10511 22.1451 5.7964 22.3842C5.4833 22.6267 5.12551 22.8051 4.74345 22.9093C3.97186 23.1197 3.14827 23.015 2.45387 22.6182C1.75946 22.2214 1.25113 21.565 1.0407 20.7934C0.830262 20.0218 0.934961 19.1983 1.33176 18.5039C1.33701 18.4947 1.3424 18.4856 1.34793 18.4766L9.94099 4.48787C10.8699 2.88539 12.3959 1.71594 14.1852 1.23587Z" fill="black"/>
<path fill-rule="evenodd" clip-rule="evenodd" d="M14.5106 1.22797C14.9922 0.957677 15.6018 1.12899 15.8721 1.61061L18.6221 6.51061C18.8924 6.99223 18.721 7.60178 18.2394 7.87208C17.7578 8.14237 17.1483 7.97106 16.878 7.48944L14.128 2.58944C13.8577 2.10782 14.029 1.49827 14.5106 1.22797Z" fill="black"/>
<path fill-rule="evenodd" clip-rule="evenodd" d="M10.4528 3.90556C10.9468 3.65857 11.5474 3.85879 11.7944 4.35277L13.8944 8.55277C14.1414 9.04675 13.9412 9.64742 13.4472 9.89441C12.9532 10.1414 12.3526 9.94118 12.1056 9.4472L10.0056 5.2472C9.75859 4.75322 9.95881 4.15255 10.4528 3.90556Z" fill="black"/>
<path fill-rule="evenodd" clip-rule="evenodd" d="M7.4862 8.78965C7.98898 8.56111 8.58183 8.78343 8.81037 9.28621L10.8104 13.6862C11.0389 14.189 10.8166 14.7818 10.3138 15.0104C9.81103 15.2389 9.21817 15.0166 8.98964 14.5138L6.98964 10.1138C6.7611 9.61103 6.98342 9.01818 7.4862 8.78965Z" fill="black"/>
<path fill-rule="evenodd" clip-rule="evenodd" d="M4.45279 13.8056C4.94677 13.5586 5.54744 13.7588 5.79443 14.2528L7.89443 18.4528C8.14142 18.9468 7.9412 19.5474 7.44722 19.7944C6.95324 20.0414 6.35257 19.8412 6.10558 19.3472L4.00558 15.1472C3.75859 14.6532 3.95881 14.0525 4.45279 13.8056Z" fill="black"/>
</g>
<defs>
<clipPath id="clip0_404_40124">
<rect width="24" height="24" fill="white"/>
</clipPath>
</defs>
</svg>
