<svg width="24" height="24" viewBox="0 0 24 24" fill="none" xmlns="http://www.w3.org/2000/svg">
<path d="M19 20C19 19.7348 18.8946 19.4805 18.707 19.293C18.5195 19.1054 18.2652 19 18 19H6C5.73478 19 5.48051 19.1054 5.29297 19.293C5.10543 19.4805 5 19.7348 5 20V21H19V20ZM21 21C21 21.5304 20.7891 22.039 20.4141 22.4141C20.039 22.7891 19.5304 23 19 23H5C4.46957 23 3.96101 22.7891 3.58594 22.4141C3.21086 22.039 3 21.5304 3 21V20C3 19.2043 3.3163 18.4415 3.87891 17.8789C4.44151 17.3163 5.20435 17 6 17H18C18.7957 17 19.5585 17.3163 20.1211 17.8789C20.6837 18.4415 21 19.2043 21 20V21Z" fill="black"/>
<path d="M20 12C20.0001 10.9461 19.5842 9.93455 18.8428 9.18555C18.102 8.43724 17.0958 8.01131 16.043 8C15.3558 8.00066 14.8269 8.09919 14.3398 8.31348C13.8445 8.53149 13.3292 8.89733 12.7109 9.52148C12.5231 9.7111 12.2669 9.81836 12 9.81836C11.7331 9.81836 11.4769 9.7111 11.2891 9.52148C10.6708 8.89733 10.1555 8.53149 9.66016 8.31348C9.17289 8.09908 8.64366 8.00057 7.95605 8C6.90357 8.01156 5.89782 8.43748 5.15723 9.18555C4.41576 9.93455 3.99995 10.9461 4 12C4 13.6409 5.05588 14.9734 6.39844 16.2842L7.40723 17.293C7.79762 17.6835 7.79762 18.3165 7.40723 18.707C7.01674 19.0975 6.3837 19.0975 5.99316 18.707L5.00098 17.7148C3.64375 16.3897 2 14.5387 2 12C1.99993 10.4191 2.62407 8.90182 3.73633 7.77832C4.84858 6.65493 6.35964 6.01581 7.94043 6H7.9502C8.84356 6.00002 9.66307 6.12922 10.4658 6.48242C11.0038 6.71917 11.5051 7.04522 12 7.45898C12.4949 7.04522 12.9962 6.71917 13.5342 6.48242C14.3369 6.12922 15.1564 6.00002 16.0498 6H16.0596L16.3555 6.01074C17.828 6.09809 19.2209 6.72515 20.2637 7.77832C21.3759 8.90182 22.0001 10.4191 22 12C22 14.5298 20.3457 16.3799 19.0059 17.7061L19.0068 17.707L18.0068 18.707C17.6163 19.0975 16.9833 19.0975 16.5928 18.707C16.2024 18.3165 16.2024 17.6835 16.5928 17.293L17.5967 16.2891C18.9382 14.9615 20 13.6319 20 12Z" fill="black"/>
<path d="M14 3C14.5523 3 15 3.44772 15 4C15 4.55228 14.5523 5 14 5H10C9.44772 5 9 4.55228 9 4C9 3.44772 9.44772 3 10 3H14Z" fill="black"/>
<path d="M11 8.81836V2C11 1.44772 11.4477 1 12 1C12.5523 1 13 1.44772 13 2V8.81836C12.9998 9.37048 12.5522 9.81836 12 9.81836C11.4478 9.81836 11.0002 9.37048 11 8.81836Z" fill="black"/>
</svg>
