<svg width="24" height="24" viewBox="0 0 24 24" fill="none" xmlns="http://www.w3.org/2000/svg">
<path d="M21 13.5C21 13.1022 20.8419 12.7208 20.5605 12.4395C20.2792 12.1581 19.8978 12 19.5 12H16V15H19.5C19.8978 15 20.2792 14.8419 20.5605 14.5605C20.8419 14.2792 21 13.8978 21 13.5ZM20 8.5C20 8.10218 19.8419 7.72076 19.5605 7.43945C19.2792 7.15815 18.8978 7 18.5 7H16V10H18.5C18.8978 10 19.2792 9.84185 19.5605 9.56055C19.8419 9.27924 20 8.89782 20 8.5ZM22 8.5C22 9.23251 21.769 9.94037 21.3496 10.5293C21.5744 10.6692 21.7843 10.8351 21.9746 11.0254C22.631 11.6818 23 12.5717 23 13.5C23 14.4283 22.631 15.3182 21.9746 15.9746C21.3182 16.631 20.4283 17 19.5 17H15.5C15.1022 17 14.7208 16.8419 14.4395 16.5605C14.1581 16.2792 14 15.8978 14 15.5V6.5C14 6.10218 14.1581 5.72076 14.4395 5.43945C14.7208 5.15815 15.1022 5 15.5 5H18.5C19.4283 5 20.3182 5.36901 20.9746 6.02539C21.631 6.68177 22 7.57174 22 8.5Z" fill="black"/>
<path d="M6.61134 5.00629C6.86832 5.02532 7.11656 5.11077 7.33204 5.25433C7.57841 5.41854 7.77084 5.65196 7.88478 5.92523L11.9229 15.6157C12.1351 16.1254 11.8945 16.7109 11.3848 16.9233C10.875 17.1357 10.2896 16.894 10.0772 16.3842L6.50001 7.80121L2.92286 16.3852C2.71023 16.8946 2.12485 17.1356 1.61525 16.9233C1.10557 16.7108 0.864892 16.1254 1.07716 15.6157L5.11622 5.92523L5.16212 5.82465C5.27862 5.59459 5.45334 5.39805 5.66896 5.25433L5.76271 5.19672C5.9873 5.0698 6.24177 5.00238 6.50099 5.00238L6.61134 5.00629Z" fill="black"/>
<path d="M9.69556 12C10.2478 12 10.6956 12.4477 10.6956 13C10.6956 13.5523 10.2478 14 9.69556 14H3.30396C2.75167 14 2.30396 13.5523 2.30396 13C2.30396 12.4477 2.75167 12 3.30396 12H9.69556Z" fill="black"/>
</svg>
