<svg width="24" height="24" viewBox="0 0 24 24" fill="none" xmlns="http://www.w3.org/2000/svg">
<path fill-rule="evenodd" clip-rule="evenodd" d="M5 4C4.44772 4 4 4.44772 4 5V19C4 19.5523 4.44772 20 5 20H19C19.5523 20 20 19.5523 20 19V5C20 4.44772 19.5523 4 19 4H5ZM2 5C2 3.34315 3.34315 2 5 2H19C20.6569 2 22 3.34315 22 5V19C22 20.6569 20.6569 22 19 22H5C3.34315 22 2 20.6569 2 19V5Z" fill="black"/>
<path fill-rule="evenodd" clip-rule="evenodd" d="M7.5 2C8.05228 2 8.5 2.44772 8.5 3V21C8.5 21.5523 8.05228 22 7.5 22C6.94772 22 6.5 21.5523 6.5 21V3C6.5 2.44772 6.94772 2 7.5 2Z" fill="black"/>
<path fill-rule="evenodd" clip-rule="evenodd" d="M12 2C12.5523 2 13 2.44772 13 3V21C13 21.5523 12.5523 22 12 22C11.4477 22 11 21.5523 11 21V3C11 2.44772 11.4477 2 12 2Z" fill="black"/>
<path fill-rule="evenodd" clip-rule="evenodd" d="M16.5 2C17.0523 2 17.5 2.44772 17.5 3V21C17.5 21.5523 17.0523 22 16.5 22C15.9477 22 15.5 21.5523 15.5 21V3C15.5 2.44772 15.9477 2 16.5 2Z" fill="black"/>
</svg>
