<svg width="24" height="24" viewBox="0 0 24 24" fill="none" xmlns="http://www.w3.org/2000/svg">
<path d="M9.07085 2.00882C10.2052 2.01827 11.3249 2.26909 12.355 2.74417C13.385 3.21922 14.3019 3.90814 15.0455 4.76468C15.6233 5.43036 16.0843 6.18648 16.4146 7.00003H17.5132L17.8951 7.01859C18.7824 7.09239 19.641 7.38087 20.3951 7.86136C21.2565 8.41037 21.948 9.18849 22.3921 10.1084C22.8363 11.0286 23.0159 12.055 22.9097 13.0713C22.8035 14.0874 22.4162 15.0539 21.7916 15.8623C21.4539 16.2994 20.8253 16.3797 20.3882 16.042C19.9516 15.7043 19.8711 15.0766 20.2085 14.6397C20.6061 14.1252 20.8529 13.51 20.9205 12.8633C20.988 12.2168 20.8739 11.564 20.5914 10.9785C20.3087 10.393 19.8683 9.8973 19.3199 9.54788C18.8399 9.24208 18.2938 9.05869 17.7291 9.01175L17.4869 9.00003H15.7095C15.2681 8.99982 14.8793 8.71 14.7525 8.28714C14.5083 7.47214 14.0934 6.71772 13.5357 6.07523C12.978 5.43282 12.2896 4.91685 11.5171 4.56058C10.7446 4.20427 9.90499 4.01591 9.05425 4.00882C8.20356 4.00176 7.36092 4.17619 6.58257 4.51956C5.80427 4.86295 5.10787 5.36796 4.5396 6.00101C3.97134 6.63407 3.54436 7.3807 3.28667 8.19144C3.02897 9.00225 2.94596 9.85907 3.04448 10.7041C3.14305 11.549 3.42072 12.3632 3.85796 13.0928C4.14183 13.5665 3.98789 14.181 3.51421 14.4649C3.04049 14.7487 2.42604 14.5948 2.14214 14.1211C1.55909 13.1482 1.18955 12.0622 1.05816 10.9356C0.926797 9.80892 1.03688 8.66698 1.38042 7.58597C1.724 6.50493 2.2936 5.5092 3.05132 4.66507C3.80909 3.82092 4.73806 3.14734 5.77593 2.68948C6.81364 2.23176 7.93671 1.99941 9.07085 2.00882Z" fill="black"/>
<path d="M6.00001 11C6.00001 10.4477 6.44772 9.99997 7.00001 9.99997C7.55229 9.99997 8.00001 10.4477 8.00001 11V14H11C11.5523 14 12 14.4477 12 15C12 15.5523 11.5523 16 11 16H7.00001C6.44772 16 6.00001 15.5523 6.00001 15V11Z" fill="black"/>
<path d="M16 16C16 15.0717 15.631 14.1817 14.9746 13.5254C14.3182 12.869 13.4283 12.5 12.5 12.5C11.9984 12.4996 11.5007 12.5983 11.0371 12.79C10.6312 12.9578 10.2575 13.1941 9.93262 13.4883L9.79688 13.6172L7.70704 15.707C7.31651 16.0975 6.6835 16.0975 6.29297 15.707C5.90245 15.3165 5.90245 14.6835 6.29297 14.2929L8.38282 12.2031C8.92367 11.6628 9.566 11.2335 10.2725 10.9414C10.9787 10.6493 11.7358 10.5005 12.5 10.5009C13.9587 10.5009 15.3572 11.0798 16.3887 12.1113C17.4201 13.1427 18 14.5413 18 16C18 17.2592 17.6034 18.4862 16.8672 19.5078C16.1309 20.5294 15.0921 21.2941 13.8975 21.6924C12.7028 22.0906 11.4129 22.103 10.2109 21.7275C9.00893 21.352 7.95578 20.607 7.2002 19.5996C6.86897 19.1578 6.95862 18.5315 7.4004 18.2002C7.84222 17.8689 8.46848 17.9586 8.79981 18.4004C9.30352 19.0719 10.0063 19.568 10.8076 19.8183C11.6088 20.0685 12.4684 20.0602 13.2647 19.7949C14.0611 19.5294 14.7542 19.0199 15.2451 18.3388C15.736 17.6578 16 16.8395 16 16Z" fill="black"/>
</svg>
