<svg width="24" height="24" viewBox="0 0 24 24" fill="none" xmlns="http://www.w3.org/2000/svg">
<path d="M11 6C11 5.44772 11.4477 5 12 5C12.5523 5 13 5.44772 13 6V11.3818L14.0068 11.8857C14.5008 12.1327 14.7011 12.7336 14.4541 13.2275C14.207 13.7212 13.6062 13.9217 13.1123 13.6748L11.5527 12.8945C11.214 12.7251 11 12.3788 11 12V6Z" fill="black"/>
<path d="M9.58355 1.26913C11.7776 0.775174 14.0704 0.965882 16.1529 1.81503C18.2354 2.66419 20.0079 4.13085 21.231 6.01816C22.4541 7.90555 23.0694 10.1229 22.9937 12.3707C22.9751 12.9226 22.5124 13.355 21.9605 13.3365C21.4085 13.3179 20.9761 12.8553 20.9947 12.3033C21.0566 10.4642 20.553 8.65027 19.5523 7.10605C18.5516 5.56192 17.1018 4.36137 15.398 3.66659C13.6942 2.97186 11.8181 2.8162 10.023 3.2203C8.2279 3.62448 6.59967 4.56943 5.35796 5.92734C4.11633 7.28525 3.32006 8.99107 3.07769 10.815C2.83538 12.6391 3.15837 14.4944 4.0025 16.1295C4.84663 17.7645 6.17205 19.1017 7.79937 19.9605C9.42665 20.8192 11.278 21.158 13.1041 20.9322C13.6522 20.8644 14.1515 21.2542 14.2193 21.8023C14.287 22.3504 13.8973 22.8498 13.3492 22.9176C11.1174 23.1935 8.85463 22.7786 6.86578 21.7291C4.87672 20.6794 3.25687 19.0449 2.22515 17.0465C1.19355 15.0482 0.799186 12.7816 1.09527 10.5523C1.39142 8.32292 2.36379 6.2375 3.8814 4.57773C5.39907 2.91794 7.38943 1.76315 9.58355 1.26913Z" fill="black"/>
<path d="M17.3691 13.2246C17.7618 12.9043 18.3408 12.9269 18.707 13.293L22.707 17.293C23.0975 17.6835 23.0975 18.3165 22.707 18.707C22.3164 19.0976 21.6834 19.0976 21.2929 18.707L17.9999 15.4141L14.707 18.707C14.3164 19.0976 13.6834 19.0976 13.2929 18.707C12.9024 18.3165 12.9024 17.6835 13.2929 17.293L17.2929 13.293L17.3691 13.2246Z" fill="black"/>
<path d="M17 22V14C17 13.4477 17.4477 13 18 13C18.5523 13 19 13.4477 19 14V22C19 22.5523 18.5523 23 18 23C17.4477 23 17 22.5523 17 22Z" fill="black"/>
</svg>
