<svg width="24" height="24" viewBox="0 0 24 24" fill="none" xmlns="http://www.w3.org/2000/svg">
<path fill-rule="evenodd" clip-rule="evenodd" d="M12 3C7.02944 3 3 7.02944 3 12C3 16.9706 7.02944 21 12 21C16.9706 21 21 16.9706 21 12C21 7.02944 16.9706 3 12 3ZM1 12C1 5.92487 5.92487 1 12 1C18.0751 1 23 5.92487 23 12C23 18.0751 18.0751 23 12 23C5.92487 23 1 18.0751 1 12Z" fill="black"/>
<path fill-rule="evenodd" clip-rule="evenodd" d="M11.0234 7.09567C11.9932 6.90319 12.9982 7.00254 13.9116 7.38114C14.8249 7.75974 15.6054 8.4006 16.1546 9.22273C16.7037 10.0449 16.9969 11.0113 16.9969 12C16.9969 12.9887 16.7037 13.9552 16.1546 14.7773C15.6054 15.5994 14.8249 16.2403 13.9116 16.6189C12.9982 16.9975 11.9932 17.0968 11.0234 16.9043C10.0537 16.7119 9.16277 16.2362 8.46329 15.5375C8.07255 15.1472 8.07219 14.514 8.4625 14.1233C8.85281 13.7325 9.48597 13.7322 9.87671 14.1225C10.2964 14.5417 10.831 14.8271 11.4128 14.9426C11.9947 15.0581 12.5977 14.9985 13.1457 14.7713C13.6937 14.5442 14.162 14.1596 14.4915 13.6664C14.821 13.1731 14.9969 12.5932 14.9969 12C14.9969 11.4068 14.821 10.8269 14.4915 10.3336C14.162 9.84036 13.6937 9.45584 13.1457 9.22868C12.5977 9.00152 11.9947 8.94192 11.4128 9.0574C10.831 9.17289 10.2964 9.45828 9.87671 9.8775C9.48597 10.2678 8.85281 10.2675 8.4625 9.87672C8.07219 9.48597 8.07255 8.85281 8.46329 8.4625C9.16277 7.7638 10.0537 7.28814 11.0234 7.09567Z" fill="black"/>
</svg>
