<svg width="24" height="24" viewBox="0 0 24 24" fill="none" xmlns="http://www.w3.org/2000/svg">
<path d="M20.9998 16.5C20.9998 16.0404 20.9091 15.5848 20.7332 15.1602C20.5573 14.7357 20.2993 14.3503 19.9744 14.0254C19.6495 13.7005 19.2641 13.4425 18.8397 13.2666C18.415 13.0907 17.9594 13 17.4998 13H15.7078C15.2658 12.9999 14.8763 12.7097 14.7498 12.2861C14.4319 11.2197 13.8236 10.2621 12.993 9.52148C12.1623 8.78091 11.1416 8.28579 10.0457 8.0918C8.94986 7.89786 7.82134 8.01242 6.78692 8.42285C5.75249 8.83335 4.85204 9.52344 4.18731 10.416C3.52263 11.3086 3.11918 12.3689 3.02227 13.4775C2.92541 14.5863 3.13958 15.7009 3.63946 16.6953C4.13934 17.6895 4.90587 18.5248 5.85333 19.1084C6.80085 19.692 7.89187 20.0009 9.0047 20H17.4998C17.9594 20 18.415 19.9093 18.8397 19.7334C19.2641 19.5575 19.6495 19.2995 19.9744 18.9746C20.2993 18.6497 20.5573 18.2643 20.7332 17.8398C20.9091 17.4152 20.9998 16.9596 20.9998 16.5ZM22.9998 16.5C22.9998 17.2221 22.8581 17.9373 22.5818 18.6045C22.3055 19.2716 21.9 19.878 21.3895 20.3887C20.8787 20.8994 20.2716 21.3047 19.6043 21.5811C18.9371 21.8574 18.222 22 17.4998 22H9.00567C7.52217 22.0011 6.06765 21.5895 4.8045 20.8115C3.54097 20.0333 2.51886 18.9186 1.85235 17.5928C1.18591 16.2669 0.900944 14.782 1.03009 13.3037C1.15924 11.8254 1.69749 10.4119 2.5838 9.22168C3.47 8.03174 4.66961 7.11179 6.04864 6.56445C7.42797 6.01708 8.93308 5.86346 10.3943 6.12207C11.8554 6.38069 13.2155 7.04103 14.3231 8.02832C15.2417 8.84729 15.9558 9.86537 16.4149 11H17.4998C18.222 11 18.9371 11.1426 19.6043 11.4189C20.2716 11.6953 20.8787 12.1006 21.3895 12.6113C21.9 13.122 22.3055 13.7284 22.5818 14.3955C22.8581 15.0627 22.9998 15.7779 22.9998 16.5Z" fill="black"/>
<path d="M11.1316 2.00855C12.6076 1.92456 14.0681 2.34608 15.2722 3.20387C16.266 3.91192 17.0356 4.8827 17.5007 5.99976H18.9997C19.8274 5.99897 20.6352 6.25475 21.3113 6.73219C21.9876 7.20982 22.4991 7.88612 22.7751 8.66676C22.9591 9.18731 22.6862 9.75894 22.1658 9.94312C21.6452 10.1272 21.0737 9.85417 20.8894 9.33375C20.7514 8.94343 20.4951 8.60479 20.157 8.36597C19.8189 8.12733 19.4146 7.99927 19.0007 7.99976H16.7927C16.3454 7.99964 15.9526 7.70263 15.8308 7.27222C15.552 6.28733 14.9457 5.42674 14.1121 4.83277C13.2784 4.23884 12.2668 3.9465 11.2449 4.00465C10.223 4.06287 9.25178 4.46843 8.49096 5.15308C7.73012 5.83776 7.22557 6.76114 7.0603 7.77125C6.97116 8.31622 6.45682 8.68547 5.91186 8.59644C5.36696 8.50732 4.99681 7.99386 5.08569 7.44898C5.32436 5.98979 6.05399 4.65483 7.15307 3.66578C8.2521 2.67689 9.65553 2.09255 11.1316 2.00855Z" fill="black"/>
</svg>
