<svg width="24" height="24" viewBox="0 0 24 24" fill="none" xmlns="http://www.w3.org/2000/svg">
<path fill-rule="evenodd" clip-rule="evenodd" d="M7 12.789C6.42144 12.4525 5.81858 12.2671 5.21201 12.238C4.38336 12.1982 3.62125 12.454 2.98977 12.8952C1.7474 13.7632 1 15.3414 1 17C1 18.5913 1.63214 20.1174 2.75736 21.2426C3.88258 22.3678 5.4087 23 7 23C8.5913 23 10.1174 22.3678 11.2426 21.2426C12.3679 20.1174 13 18.5913 13 17C13 15.3414 12.2526 13.7632 11.0102 12.8952C10.3788 12.454 9.61664 12.1982 8.78799 12.238C8.18142 12.2671 7.57856 12.4525 7 12.789ZM4.13523 14.5347C3.5026 14.9767 3 15.8985 3 17C3 18.0608 3.42143 19.0782 4.17157 19.8284C4.92172 20.5785 5.93913 21 7 21C8.06087 21 9.07828 20.5785 9.82843 19.8284C10.5786 19.0782 11 18.0608 11 17C11 15.8985 10.4974 14.9767 9.86477 14.5347C9.55875 14.3209 9.22711 14.2192 8.88388 14.2357C8.54066 14.2522 8.11239 14.3907 7.62469 14.7808C7.25948 15.073 6.74052 15.073 6.37531 14.7808C5.88761 14.3907 5.45934 14.2522 5.11612 14.2357C4.77289 14.2192 4.44125 14.3209 4.13523 14.5347Z" fill="black"/>
<path fill-rule="evenodd" clip-rule="evenodd" d="M17 12.789C16.4214 12.4525 15.8186 12.2671 15.212 12.238C14.3834 12.1982 13.6212 12.454 12.9898 12.8952C11.7474 13.7632 11 15.3414 11 17C11 18.5913 11.6321 20.1174 12.7574 21.2426C13.8826 22.3678 15.4087 23 17 23C18.5913 23 20.1174 22.3678 21.2426 21.2426C22.3679 20.1174 23 18.5913 23 17C23 15.3414 22.2526 13.7632 21.0102 12.8952C20.3787 12.454 19.6166 12.1982 18.788 12.238C18.1814 12.2671 17.5786 12.4525 17 12.789ZM14.1352 14.5347C13.5026 14.9767 13 15.8985 13 17C13 18.0608 13.4214 19.0782 14.1716 19.8284C14.9217 20.5785 15.9391 21 17 21C18.0609 21 19.0783 20.5785 19.8284 19.8284C20.5786 19.0782 21 18.0608 21 17C21 15.8985 20.4974 14.9767 19.8648 14.5347C19.5588 14.3209 19.2271 14.2192 18.8839 14.2357C18.5407 14.2522 18.1124 14.3907 17.6247 14.7808C17.2595 15.073 16.7405 15.073 16.3753 14.7808C15.8876 14.3907 15.4593 14.2522 15.1161 14.2357C14.7729 14.2192 14.4413 14.3209 14.1352 14.5347Z" fill="black"/>
<path fill-rule="evenodd" clip-rule="evenodd" d="M11.8043 1.01926C12.194 0.941478 12.5929 1.10188 12.8202 1.42784C13.6991 2.68796 14.9637 4.99969 16.0137 7.3611C16.5413 8.54749 17.0239 9.76671 17.3802 10.8921C17.7312 12.0006 17.9819 13.0855 17.9998 13.9799C18.0109 14.5321 17.5722 14.9887 17.02 14.9997C16.4678 15.0108 16.0113 14.5721 16.0002 14.0199C15.9881 13.4143 15.8063 12.5468 15.4735 11.4959C15.1461 10.4619 14.6937 9.31485 14.1863 8.17374C13.6271 6.91627 13.0122 5.69045 12.4419 4.655C12.1681 5.83914 11.8296 7.15149 11.388 8.44953C10.6104 10.7348 9.46971 13.1158 7.6705 14.7418C7.26075 15.1121 6.62839 15.0802 6.25809 14.6704C5.88779 14.2607 5.91977 13.6283 6.32952 13.258C7.75031 11.974 8.75461 9.98004 9.49456 7.80531C10.1332 5.92845 10.5425 4.0213 10.8756 2.46954C10.9263 2.23315 10.9753 2.00502 11.023 1.78649C11.1079 1.39822 11.4146 1.09703 11.8043 1.01926Z" fill="black"/>
<path fill-rule="evenodd" clip-rule="evenodd" d="M11.1276 1.51121C11.3044 1.19548 11.6381 0.999956 12 0.999956C15.1294 0.999956 17.8462 2.2775 19.7738 3.85167C20.739 4.6399 21.5274 5.51916 22.082 6.38301C22.622 7.22419 23 8.14483 23 8.99996C23 9.55224 22.5523 9.99996 22 9.99996C19.652 9.99996 17.6597 9.35535 15.8762 8.0604C14.1183 6.78401 12.6089 4.90901 11.1472 2.52222C10.9582 2.2136 10.9507 1.82694 11.1276 1.51121ZM13.9959 3.21119C14.9981 4.61027 15.9961 5.67584 17.0513 6.44201C18.1365 7.22992 19.3074 7.7196 20.6585 7.90962C20.5857 7.7694 20.4997 7.62039 20.3989 7.46346C19.9707 6.79638 19.3298 6.07126 18.5087 5.40074C17.3027 4.41588 15.7537 3.58467 13.9959 3.21119Z" fill="black"/>
</svg>
