<svg width="24" height="24" viewBox="0 0 24 24" fill="none" xmlns="http://www.w3.org/2000/svg">
<path d="M9.92802 19.3892C10.1395 18.8791 10.7245 18.6369 11.2347 18.8482C11.7448 19.0596 11.9871 19.6446 11.7757 20.1548L11.3929 21.0786C11.1814 21.5888 10.5964 21.8311 10.0862 21.6196C9.57603 21.4082 9.33373 20.8232 9.54521 20.313L9.92802 19.3892Z" fill="black"/>
<path d="M12.6069 12.9222C12.8186 12.4121 13.4044 12.1695 13.9145 12.3812C14.4244 12.5928 14.6659 13.1778 14.4546 13.6878L14.0718 14.6116C13.8601 15.1214 13.2751 15.363 12.7651 15.1517C12.2551 14.94 12.0127 14.3551 12.2241 13.845L12.6069 12.9222Z" fill="black"/>
<path d="M14.0002 17.0003C14.0002 16.7376 13.9484 16.4774 13.8479 16.2347C13.7473 15.992 13.6 15.771 13.4143 15.5853C13.2286 15.3997 13.0076 15.2521 12.7651 15.1517C12.5225 15.0511 12.2628 14.9994 12.0002 14.9993C11.7375 14.9993 11.4772 15.0512 11.2346 15.1517C10.7246 15.3629 10.1396 15.1214 9.92793 14.6116L9.54512 13.6878C9.33378 13.1778 9.57617 12.5928 10.0861 12.3812C10.5961 12.1698 11.1812 12.4122 11.3928 12.9222L11.4406 13.0404C11.6257 13.0142 11.8125 12.9993 12.0002 12.9993C12.5255 12.9994 13.0461 13.103 13.5314 13.304C14.0165 13.505 14.457 13.8 14.8283 14.1712C15.1997 14.5426 15.4945 14.9839 15.6955 15.4691C15.8965 15.9544 16.0002 16.475 16.0002 17.0003C16.0002 17.5256 15.8966 18.0463 15.6955 18.5316C15.4945 19.0166 15.1996 19.4571 14.8283 19.8284C14.4568 20.1999 14.0158 20.4946 13.5305 20.6956C13.0202 20.9069 12.4351 20.6649 12.2238 20.1546C12.0126 19.6445 12.2549 19.0594 12.7648 18.848C13.0075 18.7475 13.2285 18.6001 13.4143 18.4144C13.5999 18.2287 13.7473 18.0085 13.8479 17.7659C13.9484 17.5233 14.0002 17.2629 14.0002 17.0003Z" fill="black"/>
<path d="M10.4695 13.3042C10.9797 13.0929 11.5648 13.335 11.7761 13.8452C11.9874 14.3553 11.7446 14.9402 11.2346 15.1517C10.7444 15.3547 10.3552 15.7447 10.1521 16.2348C9.94924 16.7248 9.94925 17.2751 10.1521 17.7651C10.3551 18.2552 10.7447 18.6451 11.2347 18.8482C11.7248 19.0512 12.2747 19.0509 12.7648 18.848L12.8591 18.8149C13.0793 18.7484 13.3167 18.7593 13.531 18.8481C13.7761 18.9497 13.9707 19.1449 14.072 19.3901L14.4539 20.3139C14.6649 20.8243 14.4223 21.4096 13.9119 21.6206C13.4016 21.8313 12.8172 21.5879 12.6062 21.0776L12.5574 20.9604C11.8559 21.0591 11.1341 20.9715 10.4685 20.6958C9.48861 20.2897 8.71038 19.5107 8.30446 18.5307C7.89854 17.5506 7.89848 16.4493 8.30446 15.4692C8.71053 14.489 9.48928 13.7101 10.4695 13.3042Z" fill="black"/>
<path d="M15.3121 14.5452C15.8222 14.3337 16.4071 14.5762 16.6188 15.0862C16.8301 15.5961 16.5885 16.1811 16.0787 16.3928L15.1549 16.7756C14.6449 16.987 14.0595 16.7445 13.8479 16.2347C13.6362 15.7246 13.8792 15.1396 14.3893 14.928L15.3121 14.5452Z" fill="black"/>
<path d="M13.8479 17.7659C14.0595 17.256 14.6447 17.0129 15.1547 17.2242L16.0786 17.607C16.5885 17.8187 16.8302 18.4046 16.6186 18.9146C16.4069 19.4245 15.8219 19.6661 15.312 19.4547L14.3891 19.0718C13.8792 18.8602 13.6365 18.2759 13.8479 17.7659Z" fill="black"/>
<path d="M9.16278 2.00846C10.2354 2.03013 11.2931 2.26713 12.2722 2.70573C13.2513 3.14436 14.1327 3.77519 14.863 4.56119C15.5261 5.27406 16.0479 6.10157 16.4128 6.99967H17.5134C18.6792 7.01539 19.8096 7.40204 20.7419 8.10221C21.674 8.8023 22.3598 9.78013 22.6999 10.8952C23.0399 12.0103 23.0174 13.2052 22.6345 14.3063C22.2514 15.4075 21.5278 16.3587 20.569 17.0221C20.1149 17.3364 19.4917 17.2234 19.1774 16.7692C18.8632 16.3151 18.9772 15.6919 19.4313 15.3776C20.0413 14.9554 20.5011 14.3497 20.7448 13.6491C20.9885 12.9484 21.0031 12.1887 20.7868 11.4792C20.5704 10.7694 20.134 10.1464 19.5407 9.70084C18.9475 9.25545 18.2278 9.00967 17.486 8.99967H15.7097C15.2681 8.99954 14.8784 8.70979 14.7516 8.28678C14.4875 7.40569 14.0246 6.59704 13.3981 5.9235L13.3972 5.92252C12.8495 5.33313 12.189 4.85986 11.4548 4.53092C10.7204 4.20195 9.92723 4.02374 9.12274 4.00748C8.31841 3.99125 7.51905 4.13725 6.77215 4.43619C6.02513 4.73524 5.34515 5.18179 4.77411 5.74869C4.20326 6.31549 3.75235 6.99138 3.44793 7.736C3.14351 8.48071 2.99228 9.27919 3.00262 10.0837C3.01302 10.8882 3.18486 11.6829 3.50848 12.4196C3.83209 13.1562 4.29998 13.8208 4.88543 14.3727C5.2873 14.7516 5.30627 15.3839 4.92743 15.7858C4.54866 16.1876 3.91622 16.2064 3.51434 15.8278C2.73376 15.0919 2.10892 14.2064 1.67743 13.2243C1.24595 12.242 1.0165 11.1828 1.00262 10.11C0.988759 9.03724 1.19041 7.97226 1.59637 6.97916C2.00232 5.98615 2.60361 5.08459 3.36493 4.32877C4.12619 3.57303 5.03218 2.97848 6.02801 2.57975C7.02391 2.18108 8.09027 1.98685 9.16278 2.00846Z" fill="black"/>
<path d="M7.38105 15.0862C7.59266 14.5762 8.17769 14.3338 8.68769 14.5452L9.61152 14.928C10.1215 15.1397 10.3638 15.7248 10.1521 16.2348C9.94039 16.7447 9.35488 16.9871 8.84492 16.7756L7.92207 16.3928C7.41211 16.1812 7.16971 15.5962 7.38105 15.0862Z" fill="black"/>
<path d="M8.84508 17.2242C9.35511 17.0127 9.94049 17.2551 10.1521 17.7651C10.3635 18.275 10.1215 18.8601 9.61168 19.0718L8.68785 19.4546C8.17791 19.666 7.59291 19.4244 7.38121 18.9146C7.16954 18.4045 7.41212 17.8187 7.92223 17.607L8.84508 17.2242Z" fill="black"/>
</svg>
