<svg width="24" height="24" viewBox="0 0 24 24" fill="none" xmlns="http://www.w3.org/2000/svg">
<g clip-path="url(#clip0_404_39674)">
<path fill-rule="evenodd" clip-rule="evenodd" d="M13.7086 3.16145C12.5801 2.94146 11.4198 2.94146 10.2913 3.16145C9.74923 3.26713 9.22412 2.91335 9.11845 2.37127C9.01277 1.82919 9.36655 1.30408 9.90863 1.1984C11.2899 0.929145 12.7101 0.929145 14.0913 1.1984C14.6334 1.30408 14.9872 1.82919 14.8815 2.37127C14.7758 2.91335 14.2507 3.26713 13.7086 3.16145Z" fill="black"/>
<path fill-rule="evenodd" clip-rule="evenodd" d="M16.7716 3.14987C17.0809 2.69235 17.7026 2.57224 18.1601 2.88159C19.3291 3.67203 20.3344 4.68099 21.1205 5.85295C21.4281 6.31161 21.3057 6.93283 20.847 7.24048C20.3884 7.54813 19.7672 7.42571 19.4595 6.96705C18.817 6.00915 17.9954 5.18447 17.0399 4.5384C16.5823 4.22905 16.4622 3.60739 16.7716 3.14987Z" fill="black"/>
<path fill-rule="evenodd" clip-rule="evenodd" d="M21.6286 9.11848C22.1707 9.01281 22.6958 9.36659 22.8015 9.90867C23.0708 11.2899 23.0708 12.7101 22.8015 14.0913C22.6958 14.6334 22.1707 14.9872 21.6286 14.8815C21.0866 14.7759 20.7328 14.2507 20.8384 13.7087C21.0584 12.5802 21.0584 11.4198 20.8384 10.2913C20.7328 9.74927 21.0866 9.22416 21.6286 9.11848Z" fill="black"/>
<path fill-rule="evenodd" clip-rule="evenodd" d="M20.8501 16.7716C21.3076 17.0809 21.4277 17.7026 21.1184 18.1601C20.3279 19.3292 19.319 20.3344 18.147 21.1205C17.6884 21.4281 17.0672 21.3057 16.7595 20.847C16.4519 20.3884 16.5743 19.7672 17.0329 19.4595C17.9908 18.817 18.8155 17.9954 19.4616 17.0399C19.7709 16.5824 20.3926 16.4622 20.8501 16.7716Z" fill="black"/>
<path fill-rule="evenodd" clip-rule="evenodd" d="M9.11841 21.6289C9.22398 21.0868 9.74901 20.7329 10.2911 20.8384C11.4198 21.0582 12.5802 21.0582 13.7088 20.8384C14.2509 20.7329 14.776 21.0868 14.8815 21.6289C14.9871 22.171 14.6332 22.696 14.0911 22.8016C12.71 23.0705 11.2899 23.0705 9.90882 22.8016C9.36672 22.696 9.01284 22.171 9.11841 21.6289Z" fill="black"/>
<path fill-rule="evenodd" clip-rule="evenodd" d="M3.15293 16.7595C3.6116 16.4519 4.23281 16.5743 4.54046 17.033C5.18298 17.9909 6.0046 18.8155 6.96011 19.4616C7.41763 19.7709 7.53774 20.3926 7.22839 20.8501C6.91904 21.3076 6.29737 21.4278 5.83986 21.1184C4.67082 20.328 3.6656 19.319 2.8795 18.1471C2.57185 17.6884 2.69427 17.0672 3.15293 16.7595Z" fill="black"/>
<path fill-rule="evenodd" clip-rule="evenodd" d="M2.37133 9.11848C2.91341 9.22416 3.26719 9.74927 3.16151 10.2913C2.94152 11.4198 2.94152 12.5802 3.16151 13.7087C3.26719 14.2507 2.91341 14.7759 2.37133 14.8815C1.82925 14.9872 1.30414 14.6334 1.19846 14.0913C0.929207 12.7101 0.929207 11.2899 1.19846 9.90867C1.30414 9.36659 1.82925 9.01281 2.37133 9.11848Z" fill="black"/>
<path fill-rule="evenodd" clip-rule="evenodd" d="M7.24046 3.15295C7.54811 3.61161 7.42569 4.23283 6.96703 4.54048C6.00913 5.183 5.18446 6.00462 4.53839 6.96013C4.22904 7.41764 3.60737 7.53776 3.14985 7.22841C2.69234 6.91906 2.57222 6.29739 2.88157 5.83987C3.67202 4.67084 4.68097 3.66562 5.85293 2.87952C6.31159 2.57187 6.93281 2.69429 7.24046 3.15295Z" fill="black"/>
<path fill-rule="evenodd" clip-rule="evenodd" d="M9.99998 12C9.99998 10.8954 10.8954 9.99998 12 9.99998C13.1045 9.99998 14 10.8954 14 12C14 13.1045 13.1045 14 12 14C10.8954 14 9.99998 13.1045 9.99998 12Z" fill="black"/>
</g>
<defs>
<clipPath id="clip0_404_39674">
<rect width="24" height="24" fill="white"/>
</clipPath>
</defs>
</svg>
