<svg width="24" height="24" viewBox="0 0 24 24" fill="none" xmlns="http://www.w3.org/2000/svg">
<path d="M11 18V14C11 13.4477 11.4477 13 12 13C12.5523 13 13 13.4477 13 14V18C13 18.5523 12.5523 19 12 19C11.4477 19 11 18.5523 11 18Z" fill="black"/>
<path d="M3 20V4C3 3.20435 3.3163 2.44152 3.87891 1.87891C4.44152 1.3163 5.20435 1 6 1H14.1719C14.9674 1.00017 15.7305 1.31636 16.293 1.87891L20.1211 5.70703L20.3203 5.92676C20.7578 6.46048 20.9999 7.13198 21 7.82812V20C21 20.7957 20.6837 21.5585 20.1211 22.1211C19.5585 22.6837 18.7957 23 18 23H6C5.20435 23 4.44152 22.6837 3.87891 22.1211C3.3163 21.5585 3 20.7957 3 20ZM5 20C5 20.2652 5.10543 20.5195 5.29297 20.707C5.48051 20.8946 5.73478 21 6 21H18C18.2652 21 18.5195 20.8946 18.707 20.707C18.8946 20.5195 19 20.2652 19 20V7.82812C18.9999 7.56296 18.8946 7.30857 18.707 7.12109L14.8789 3.29297C14.7148 3.12884 14.4994 3.02764 14.2705 3.00488L14.1719 3H6C5.73478 3 5.4805 3.10543 5.29297 3.29297C5.10543 3.4805 5 3.73478 5 4V20Z" fill="black"/>
<path d="M16 13C16.5523 13 17 13.4477 17 14C17 14.5523 16.5523 15 16 15H8C7.44772 15 7 14.5523 7 14C7 13.4477 7.44772 13 8 13H16Z" fill="black"/>
<path d="M9 11V17H15V11H9ZM17 17C17 18.1046 16.1046 19 15 19H9C7.89543 19 7 18.1046 7 17V11C7 9.89543 7.89543 9 9 9H15C16.1046 9 17 9.89543 17 11V17Z" fill="black"/>
</svg>
