<svg width="24" height="24" viewBox="0 0 24 24" fill="none" xmlns="http://www.w3.org/2000/svg">
<path d="M11.0001 6C11.0001 5.44772 11.4478 5 12.0001 5C12.5524 5 13.0001 5.44772 13.0001 6V12C13.0001 12.1552 12.964 12.3084 12.8946 12.4473L10.8946 16.4473C10.6476 16.9412 10.0468 17.1415 9.5528 16.8945C9.05882 16.6475 8.85855 16.0467 9.10554 15.5527L11.0001 11.7637V6Z" fill="black"/>
<path d="M21 12C21 7.02944 16.9706 3 12 3C7.02944 3 3 7.02944 3 12C3 16.9706 7.02944 21 12 21C16.9706 21 21 16.9706 21 12ZM23 12C23 18.0751 18.0751 23 12 23C5.92487 23 1 18.0751 1 12C1 5.92487 5.92487 1 12 1C18.0751 1 23 5.92487 23 12Z" fill="black"/>
</svg>
