<svg width="24" height="24" viewBox="0 0 24 24" fill="none" xmlns="http://www.w3.org/2000/svg">
<path fill-rule="evenodd" clip-rule="evenodd" d="M11.1953 4.41771C10.3478 4.08499 9.43578 3.94949 8.5282 4.02147C7.62062 4.09345 6.74133 4.37102 5.95691 4.83316C5.1725 5.2953 4.50354 5.92989 4.00071 6.68886C3.49788 7.44783 3.17436 8.31128 3.05465 9.2138C2.93495 10.1163 3.0222 11.0343 3.3098 11.8981C3.5974 12.7619 4.07781 13.5489 4.71463 14.1995C5.10094 14.5942 5.09414 15.2274 4.69945 15.6137C4.30476 16 3.67163 15.9932 3.28532 15.5985C2.43622 14.731 1.79568 13.6816 1.41221 12.5299C1.02875 11.3781 0.91241 10.1542 1.07201 8.95084C1.23162 7.74747 1.66298 6.59621 2.33343 5.58425C3.00387 4.57229 3.89581 3.72617 4.9417 3.10998C5.98758 2.4938 7.15998 2.1237 8.37008 2.02773C9.58018 1.93176 10.7963 2.11243 11.9262 2.55605C13.0561 2.99968 14.0703 3.69462 14.8919 4.58825C15.5423 5.29573 16.0585 6.11304 16.4177 7.00002H17.4999C17.4998 7.00002 17.4999 7.00002 17.4999 7.00002C18.6799 6.99991 19.8288 7.37932 20.7766 8.08222C21.7245 8.78515 22.4212 9.7743 22.7637 10.9036C23.1062 12.0328 23.0765 13.2423 22.6788 14.3534C22.2812 15.4644 21.5367 16.4181 20.5554 17.0736C20.0962 17.3803 19.4752 17.2567 19.1684 16.7975C18.8617 16.3382 18.9853 15.7172 19.4445 15.4105C20.069 14.9934 20.5427 14.3865 20.7958 13.6794C21.0488 12.9724 21.0678 12.2027 20.8498 11.4841C20.6318 10.7655 20.1885 10.136 19.5853 9.6887C18.9821 9.24138 18.251 8.99993 17.5001 9.00002H15.71C15.2679 9.00002 14.8783 8.70973 14.7518 8.28611C14.4913 7.41374 14.0357 6.61208 13.4195 5.94186C12.8034 5.27164 12.0427 4.75043 11.1953 4.41771Z" fill="black"/>
<path fill-rule="evenodd" clip-rule="evenodd" d="M16 13C16.5523 13 17 13.4477 17 14V16C17 16.5523 16.5523 17 16 17C15.4477 17 15 16.5523 15 16V14C15 13.4477 15.4477 13 16 13Z" fill="black"/>
<path fill-rule="evenodd" clip-rule="evenodd" d="M7.99999 13C8.55227 13 8.99999 13.4477 8.99999 14V16C8.99999 16.5523 8.55227 17 7.99999 17C7.4477 17 6.99999 16.5523 6.99999 16V14C6.99999 13.4477 7.4477 13 7.99999 13Z" fill="black"/>
<path fill-rule="evenodd" clip-rule="evenodd" d="M15 20C15 19.4477 15.4477 19 16 19H16.01C16.5623 19 17.01 19.4477 17.01 20C17.01 20.5523 16.5623 21 16.01 21H16C15.4477 21 15 20.5523 15 20Z" fill="black"/>
<path fill-rule="evenodd" clip-rule="evenodd" d="M6.99999 20C6.99999 19.4477 7.4477 19 7.99999 19H8.00999C8.56227 19 9.00999 19.4477 9.00999 20C9.00999 20.5523 8.56227 21 8.00999 21H7.99999C7.4477 21 6.99999 20.5523 6.99999 20Z" fill="black"/>
<path fill-rule="evenodd" clip-rule="evenodd" d="M12 15C12.5523 15 13 15.4477 13 16V18C13 18.5523 12.5523 19 12 19C11.4477 19 11 18.5523 11 18V16C11 15.4477 11.4477 15 12 15Z" fill="black"/>
<path fill-rule="evenodd" clip-rule="evenodd" d="M11 22C11 21.4477 11.4477 21 12 21H12.01C12.5623 21 13.01 21.4477 13.01 22C13.01 22.5523 12.5623 23 12.01 23H12C11.4477 23 11 22.5523 11 22Z" fill="black"/>
</svg>
