<svg width="24" height="24" viewBox="0 0 24 24" fill="none" xmlns="http://www.w3.org/2000/svg">
<path d="M9 16V9C9 8.44772 9.44772 8 10 8C10.5523 8 11 8.44772 11 9V16C11 16.5523 10.5523 17 10 17C9.44772 17 9 16.5523 9 16Z" fill="black"/>
<path d="M13 16V6C13 5.44772 13.4477 5 14 5C14.5523 5 15 5.44772 15 6V16C15 16.5523 14.5523 17 14 17C13.4477 17 13 16.5523 13 16Z" fill="black"/>
<path d="M20 12.5C20 11.1193 18.8807 10 17.5 10C16.1193 10 15 11.1193 15 12.5C15 13.8807 16.1193 15 17.5 15C18.8807 15 20 13.8807 20 12.5ZM22 12.5C22 14.9853 19.9853 17 17.5 17C15.0147 17 13 14.9853 13 12.5C13 10.0147 15.0147 8 17.5 8C19.9853 8 22 10.0147 22 12.5Z" fill="black"/>
<path d="M9 12.5C9 11.1193 7.88071 10 6.5 10C5.11929 10 4 11.1193 4 12.5C4 13.8807 5.11929 15 6.5 15C7.88071 15 9 13.8807 9 12.5ZM11 12.5C11 14.9853 8.98528 17 6.5 17C4.01472 17 2 14.9853 2 12.5C2 10.0147 4.01472 8 6.5 8C8.98528 8 11 10.0147 11 12.5Z" fill="black"/>
</svg>
