<svg width="24" height="24" viewBox="0 0 24 24" fill="none" xmlns="http://www.w3.org/2000/svg">
<path d="M13.2929 14.293C13.6834 13.9024 14.3164 13.9024 14.707 14.293C15.0975 14.6835 15.0975 15.3165 14.707 15.707L9.70696 20.707C9.31643 21.0975 8.68342 21.0975 8.29289 20.707L3.29289 15.707C2.90237 15.3165 2.90237 14.6835 3.29289 14.293C3.68342 13.9024 4.31643 13.9024 4.70696 14.293L8.99992 18.5859L13.2929 14.293Z" fill="black"/>
<path d="M8 20V8C8 6.67392 8.52716 5.40253 9.46484 4.46484C10.4025 3.52716 11.6739 3 13 3H20C20.5523 3 21 3.44772 21 4C21 4.55228 20.5523 5 20 5H13C12.2044 5 11.4415 5.3163 10.8789 5.87891C10.3163 6.44152 10 7.20435 10 8V20C10 20.5523 9.55228 21 9 21C8.44772 21 8 20.5523 8 20Z" fill="black"/>
</svg>
