<svg width="24" height="24" viewBox="0 0 24 24" fill="none" xmlns="http://www.w3.org/2000/svg">
<path fill-rule="evenodd" clip-rule="evenodd" d="M16 1C16.5523 1 17 1.44772 17 2V4C17 4.55228 16.5523 5 16 5C15.4477 5 15 4.55228 15 4V2C15 1.44772 15.4477 1 16 1Z" fill="black"/>
<path fill-rule="evenodd" clip-rule="evenodd" d="M9 19C8.73478 19 8.48043 19.1054 8.29289 19.2929C8.10536 19.4804 8 19.7348 8 20V22C8 22.5523 7.55228 23 7 23C6.44772 23 6 22.5523 6 22V20C6 19.2043 6.31607 18.4413 6.87868 17.8787C7.44129 17.3161 8.20435 17 9 17H15C15.7956 17 16.5587 17.3161 17.1213 17.8787C17.6839 18.4413 18 19.2043 18 20V22C18 22.5523 17.5523 23 17 23C16.4477 23 16 22.5523 16 22V20C16 19.7348 15.8946 19.4804 15.7071 19.2929C15.5196 19.1054 15.2652 19 15 19H9Z" fill="black"/>
<path fill-rule="evenodd" clip-rule="evenodd" d="M8 1C8.55228 1 9 1.44772 9 2V4C9 4.55228 8.55228 5 8 5C7.44772 5 7 4.55228 7 4V2C7 1.44772 7.44772 1 8 1Z" fill="black"/>
<path fill-rule="evenodd" clip-rule="evenodd" d="M12 9C10.8954 9 10 9.89543 10 11C10 12.1046 10.8954 13 12 13C13.1046 13 14 12.1046 14 11C14 9.89543 13.1046 9 12 9ZM8 11C8 8.79086 9.79086 7 12 7C14.2091 7 16 8.79086 16 11C16 13.2091 14.2091 15 12 15C9.79086 15 8 13.2091 8 11Z" fill="black"/>
<path fill-rule="evenodd" clip-rule="evenodd" d="M5 5C4.44772 5 4 5.44771 4 6V20C4 20.5523 4.44772 21 5 21H19C19.5523 21 20 20.5523 20 20V6C20 5.44771 19.5523 5 19 5H5ZM2 6C2 4.34315 3.34315 3 5 3H19C20.6569 3 22 4.34315 22 6V20C22 21.6569 20.6569 23 19 23H5C3.34315 23 2 21.6569 2 20V6Z" fill="black"/>
</svg>
