<svg width="24" height="24" viewBox="0 0 24 24" fill="none" xmlns="http://www.w3.org/2000/svg">
<path d="M19 11V4C19 3.44772 19.4477 3 20 3C20.5523 3 21 3.44772 21 4V11C21 12.3261 20.4728 13.5975 19.5352 14.5352C18.5975 15.4728 17.3261 16 16 16H4C3.44772 16 3 15.5523 3 15C3 14.4477 3.44772 14 4 14H16C16.7956 14 17.5585 13.6837 18.1211 13.1211C18.6837 12.5585 19 11.7956 19 11Z" fill="black"/>
<path d="M8.29302 9.29295C8.68354 8.90243 9.31655 8.90243 9.70708 9.29295C10.0976 9.68348 10.0976 10.3165 9.70708 10.707L5.41411 15L9.70708 19.293C10.0976 19.6835 10.0976 20.3165 9.70708 20.707C9.31655 21.0975 8.68354 21.0975 8.29302 20.707L3.29302 15.707C2.90249 15.3165 2.90249 14.6835 3.29302 14.293L8.29302 9.29295Z" fill="black"/>
</svg>
