<svg width="24" height="24" viewBox="0 0 24 24" fill="none" xmlns="http://www.w3.org/2000/svg">
<path d="M15 11.999L10.0029 9.00191L10 8.99995V15L10.0029 14.998L15 12.0009L15.002 12L15 11.999ZM17.002 12C17.002 12.3463 16.9123 12.6871 16.7412 12.9882C16.5705 13.2887 16.324 13.5385 16.0274 13.7158L16.0283 13.7167L11.0313 16.7138L11.0303 16.7128C10.7271 16.8952 10.3812 16.9951 10.0274 17C9.67244 17.0048 9.32249 16.9152 9.01369 16.7402C8.70477 16.5651 8.44769 16.3101 8.26955 16.0029C8.09161 15.6959 7.99862 15.347 8.00002 14.9921V9.00288C7.9995 8.64902 8.09275 8.30108 8.27052 7.99507C8.44881 7.68822 8.70585 7.43458 9.01466 7.25972C9.32351 7.08484 9.67345 6.99496 10.0283 6.99995C10.3819 7.00496 10.7273 7.10481 11.0303 7.28706L11.0313 7.28609L16.0264 10.2822L16.1348 10.3515C16.3837 10.5226 16.5914 10.7481 16.7412 11.0117C16.9123 11.3128 17.002 11.6536 17.002 12Z" fill="black"/>
<path d="M21 12C21 7.02944 16.9706 3 12 3C7.02944 3 3 7.02944 3 12C3 16.9706 7.02944 21 12 21C16.9706 21 21 16.9706 21 12ZM23 12C23 18.0751 18.0751 23 12 23C5.92487 23 1 18.0751 1 12C1 5.92487 5.92487 1 12 1C18.0751 1 23 5.92487 23 12Z" fill="black"/>
</svg>
