<svg width="24" height="24" viewBox="0 0 24 24" fill="none" xmlns="http://www.w3.org/2000/svg">
<path d="M11 5.99994C11 5.44765 11.4477 4.99994 12 4.99994C12.5523 4.99994 13 5.44765 13 5.99994V11.3818L14.4473 12.1054C14.9412 12.3524 15.1415 12.9532 14.8945 13.4472C14.6475 13.9412 14.0467 14.1415 13.5527 13.8945L11.5527 12.8945C11.214 12.7251 11 12.3787 11 11.9999V5.99994Z" fill="black"/>
<path d="M10.5525 1.09527C12.7818 0.799186 15.0483 1.19355 17.0466 2.22515C19.045 3.25687 20.6795 4.87672 21.7292 6.86578C22.7787 8.85463 23.1936 11.1174 22.9177 13.3492C22.8499 13.8973 22.3505 14.287 21.8025 14.2193C21.2543 14.1515 20.8646 13.6522 20.9323 13.1041C21.1581 11.278 20.8193 9.42665 19.9607 7.79937C19.1019 6.17205 17.7646 4.84663 16.1296 4.0025C14.4945 3.15837 12.6393 2.83538 10.8152 3.07769C8.99119 3.32006 7.28537 4.11633 5.92746 5.35796C4.56955 6.59967 3.6246 8.2279 3.22043 10.023C2.81633 11.8181 2.97198 13.6942 3.66672 15.398C4.36149 17.1018 5.56204 18.5516 7.10617 19.5523C8.65039 20.553 10.4644 21.0566 12.3034 20.9947C12.8554 20.9761 13.3181 21.4085 13.3366 21.9605C13.3551 22.5124 12.9227 22.9751 12.3708 22.9937C10.123 23.0694 7.90567 22.4541 6.01828 21.231C4.13097 20.0079 2.66432 18.2354 1.81515 16.1529C0.966004 14.0704 0.775296 11.7776 1.26925 9.58355C1.76327 7.38943 2.91806 5.39907 4.57785 3.8814C6.23762 2.36379 8.32304 1.39142 10.5525 1.09527Z" fill="black"/>
<path d="M21.2929 17.2929C21.6834 16.9024 22.3164 16.9024 22.707 17.2929C23.0975 17.6834 23.0975 18.3164 22.707 18.707L18.707 22.707C18.3164 23.0975 17.6834 23.0975 17.2929 22.707L13.2929 18.707C12.9024 18.3164 12.9024 17.6834 13.2929 17.2929C13.6834 16.9024 14.3164 16.9024 14.707 17.2929L17.9999 20.5859L21.2929 17.2929Z" fill="black"/>
<path d="M17 21.9999V13.9999C17 13.4477 17.4477 12.9999 18 12.9999C18.5523 12.9999 19 13.4477 19 13.9999V21.9999C19 22.5522 18.5523 22.9999 18 22.9999C17.4477 22.9999 17 22.5522 17 21.9999Z" fill="black"/>
</svg>
