<svg width="24" height="24" viewBox="0 0 24 24" fill="none" xmlns="http://www.w3.org/2000/svg">
<path d="M18 20C18 19.7348 17.8946 19.4805 17.707 19.293C17.5195 19.1054 17.2652 19 17 19H7C6.73478 19 6.4805 19.1054 6.29297 19.293C6.10543 19.4805 6 19.7348 6 20V21H18V20ZM20 21C20 21.5304 19.7891 22.039 19.4141 22.4141C19.039 22.7891 18.5304 23 18 23H6C5.46957 23 4.96101 22.7891 4.58593 22.4141C4.21086 22.039 4 21.5304 4 21V20C4 19.2043 4.31629 18.4415 4.8789 17.8789C5.44151 17.3163 6.20435 17 7 17H17C17.7956 17 18.5585 17.3163 19.1211 17.8789C19.6837 18.4415 20 19.2043 20 20V21Z" fill="black"/>
<path d="M17.9996 9C17.9996 7.40884 17.3678 5.883 16.2428 4.75781C15.1176 3.63259 13.5909 3 11.9996 3H6.63536L7.76817 4.36035C8.00306 4.64244 8.06458 5.03023 7.92833 5.37109L5.60899 11.1729L5.60801 11.1738C5.5153 11.4056 5.51331 11.6638 5.60118 11.8975C5.6891 12.1311 5.8611 12.3234 6.0836 12.4365L8.95274 13.8926C9.44489 14.1425 9.64181 14.744 9.39219 15.2363C9.14232 15.7289 8.53999 15.9256 8.04747 15.6758L5.17735 14.2197C4.50975 13.8801 3.99283 13.3026 3.72911 12.6016C3.46545 11.9005 3.47326 11.126 3.75157 10.4307L5.8502 5.18164L5.09825 4.28027C4.85505 3.98829 4.70058 3.63274 4.65196 3.25586C4.60335 2.87895 4.66266 2.49553 4.82383 2.15137C4.98501 1.80731 5.24155 1.51644 5.56211 1.3125C5.88264 1.10865 6.25452 1.00019 6.63438 1H11.9996C14.1213 1 16.1566 1.8426 17.6568 3.34277C19.1571 4.84306 19.9996 6.87827 19.9996 9C19.9996 13.2548 18.3981 16.4394 17.3941 18.4473C17.1471 18.9411 16.5463 19.1415 16.0523 18.8945C15.5586 18.6475 15.3583 18.0466 15.6051 17.5527C16.6012 15.5606 17.9996 12.7452 17.9996 9Z" fill="black"/>
<path d="M15.7178 2.86797C16.1083 2.47748 16.7413 2.47754 17.1318 2.86797C17.5224 3.25849 17.5224 3.89151 17.1318 4.28203L15.707 5.70684C15.3165 6.09736 14.6835 6.09736 14.293 5.70684C13.9025 5.3163 13.9025 4.68327 14.293 4.29277L15.7178 2.86797Z" fill="black"/>
<path d="M17.8232 5.76297C18.2138 5.37258 18.8468 5.37249 19.2373 5.76297C19.6276 6.15346 19.6276 6.78654 19.2373 7.17703L17.707 8.7073C17.3165 9.09765 16.6835 9.09765 16.293 8.7073C15.9025 8.31683 15.9026 7.68378 16.293 7.29324L17.8232 5.76297Z" fill="black"/>
<path d="M8.80664 11.7621C9.04013 11.2617 9.63526 11.0453 10.1357 11.2788C10.6362 11.5123 10.8526 12.1074 10.6191 12.6079L7.90625 18.4233C7.67264 18.9235 7.07748 19.14 6.57715 18.9067C6.07676 18.6732 5.86048 18.078 6.09375 17.5776L8.80664 11.7621Z" fill="black"/>
</svg>
