<svg width="24" height="24" viewBox="0 0 24 24" fill="none" xmlns="http://www.w3.org/2000/svg">
<path fill-rule="evenodd" clip-rule="evenodd" d="M10.6948 4.24626C9.73549 3.96426 8.72093 3.92647 7.74331 4.13632C6.76569 4.34617 5.85602 4.79701 5.09697 5.44787C4.33792 6.09873 3.75356 6.92897 3.39701 7.86313C3.04045 8.79728 2.92301 9.80573 3.05535 10.7968C3.18769 11.7879 3.56562 12.7302 4.15479 13.5381C4.74396 14.346 5.52568 14.9938 6.42891 15.4227C6.92781 15.6596 7.1402 16.2561 6.9033 16.755C6.6664 17.2538 6.06993 17.4662 5.57103 17.2293C4.36672 16.6575 3.32442 15.7937 2.53887 14.7166C1.75331 13.6394 1.2494 12.383 1.07295 11.0615C0.896493 9.74008 1.05308 8.39548 1.52849 7.14994C2.00389 5.9044 2.78303 4.79742 3.7951 3.9296C4.80717 3.06179 6.02007 2.46067 7.32356 2.18086C8.62705 1.90106 9.9798 1.95145 11.2589 2.32746C12.5379 2.70346 13.7027 3.39316 14.6474 4.33387C15.4129 5.0961 16.0142 6.00354 16.4177 7.00001H17.4991C18.9062 6.99779 20.2606 7.53491 21.2837 8.5009C22.307 9.46709 22.921 10.7888 22.9993 12.194C23.0776 13.5992 22.6143 14.9809 21.7046 16.0549C20.795 17.1288 19.5083 17.8131 18.1093 17.967C17.5604 18.0274 17.0664 17.6313 17.006 17.0824C16.9456 16.5334 17.3416 16.0394 17.8906 15.979C18.7808 15.8811 19.5996 15.4456 20.1785 14.7622C20.7574 14.0788 21.0522 13.1995 21.0024 12.3053C20.9526 11.4111 20.5618 10.57 19.9106 9.95512C19.2594 9.34027 18.3973 8.99845 17.5017 9.00001L17.5 9.00001H15.71C15.2679 9.00001 14.8783 8.70972 14.7518 8.28611C14.4657 7.32801 13.9447 6.4566 13.2362 5.75107C12.5277 5.04554 11.6541 4.52827 10.6948 4.24626Z" fill="black"/>
<path fill-rule="evenodd" clip-rule="evenodd" d="M13.5145 11.1425C13.9881 11.4266 14.1416 12.0409 13.8575 12.5145L11.7662 16H14C14.3603 16 14.6927 16.1938 14.8702 16.5073C15.0477 16.8208 15.0428 17.2056 14.8575 17.5145L11.8575 22.5145C11.5733 22.9881 10.9591 23.1416 10.4855 22.8575C10.0119 22.5733 9.85834 21.9591 10.1425 21.4855L12.2338 18H9.99999C9.63971 18 9.30729 17.8062 9.12979 17.4927C8.95228 17.1792 8.95713 16.7944 9.14249 16.4855L12.1425 11.4855C12.4266 11.0119 13.0409 10.8583 13.5145 11.1425Z" fill="black"/>
</svg>
