<svg width="24" height="24" viewBox="0 0 24 24" fill="none" xmlns="http://www.w3.org/2000/svg">
<path fill-rule="evenodd" clip-rule="evenodd" d="M16.5002 4.20115C14.7171 3.17233 12.6352 2.78588 10.6017 3.10626C8.56817 3.42664 6.70592 4.43448 5.32553 5.96171C3.94513 7.48893 3.13003 9.44323 3.01614 11.4987C2.90225 13.5542 3.49647 15.5866 4.69969 17.2569C5.90292 18.9273 7.64242 20.1347 9.62811 20.6778C11.6138 21.2209 13.7257 21.0668 15.6115 20.2412C17.4973 19.4157 19.0432 17.9686 19.9912 16.1413C20.9392 14.3139 21.2322 12.2168 20.8211 10.1997C20.7109 9.65849 21.0602 9.1304 21.6013 9.02013C22.1425 8.90986 22.6706 9.25917 22.7809 9.80033C23.2832 12.2658 22.9252 14.8289 21.7665 17.0623C20.6078 19.2957 18.7185 21.0644 16.4135 22.0734C14.1086 23.0824 11.5275 23.2707 9.1005 22.6069C6.67354 21.9432 4.54748 20.4675 3.07688 18.4259C1.60627 16.3843 0.880008 13.9003 1.0192 11.3881C1.1584 8.87582 2.15464 6.48723 3.84179 4.62062C5.52894 2.75401 7.80501 1.5222 10.2904 1.13063C12.7759 0.739054 15.3204 1.21138 17.4998 2.46883C17.9781 2.74484 18.1422 3.35639 17.8662 3.83476C17.5902 4.31312 16.9786 4.47717 16.5002 4.20115Z" fill="black"/>
<path fill-rule="evenodd" clip-rule="evenodd" d="M22.7071 3.29291C23.0976 3.68344 23.0976 4.3166 22.7071 4.70713L12.7071 14.7071C12.3166 15.0977 11.6834 15.0977 11.2929 14.7071L8.2929 11.7071C7.90237 11.3166 7.90237 10.6834 8.2929 10.2929C8.68342 9.90239 9.31659 9.90239 9.70711 10.2929L12 12.5858L21.2929 3.29291C21.6834 2.90239 22.3166 2.90239 22.7071 3.29291Z" fill="black"/>
</svg>
