<svg width="24" height="24" viewBox="0 0 24 24" fill="none" xmlns="http://www.w3.org/2000/svg">
<path d="M14 7.99994C14.5523 7.99994 15 8.44765 15 8.99994C15 9.55222 14.5523 9.99994 14 9.99994H10C9.44771 9.99994 9 9.55222 9 8.99994C9 8.44765 9.44771 7.99994 10 7.99994H14Z" fill="black"/>
<path d="M11 11.9999V6.99994C11 6.44765 11.4477 5.99994 12 5.99994C12.5523 5.99994 13 6.44765 13 6.99994V11.9999C13 12.5522 12.5523 12.9999 12 12.9999C11.4477 12.9999 11 12.5522 11 11.9999Z" fill="black"/>
<path d="M13 20.9999V17.9999C13 17.7347 12.8946 17.4804 12.707 17.2929C12.5195 17.1054 12.2652 16.9999 12 16.9999C11.7348 16.9999 11.4805 17.1054 11.293 17.2929C11.1054 17.4804 11 17.7347 11 17.9999V20.9999C11 21.5522 10.5523 21.9999 10 21.9999C9.44771 21.9999 9 21.5522 9 20.9999V17.9999C9 17.2043 9.3163 16.4415 9.87891 15.8788C10.4415 15.3162 11.2043 14.9999 12 14.9999C12.7957 14.9999 13.5585 15.3162 14.1211 15.8788C14.6837 16.4415 15 17.2043 15 17.9999V20.9999C15 21.5522 14.5523 21.9999 14 21.9999C13.4477 21.9999 13 21.5522 13 20.9999Z" fill="black"/>
<path d="M1 19V12.0009C1.00006 11.6578 1.08873 11.3206 1.25684 11.0215C1.42495 10.7224 1.66691 10.4714 1.95996 10.2929L5.47949 8.14645C5.95098 7.85891 6.56594 8.00798 6.85352 8.47946C7.14105 8.95095 6.99199 9.56591 6.52051 9.85348L3.00098 12.0009L3 19C3 19.2652 3.10543 19.5195 3.29297 19.707C3.48051 19.8945 3.73478 20 4 20H20C20.2652 20 20.5195 19.8945 20.707 19.707C20.8946 19.5195 21 19.2652 21 19V12.0009L17.4795 9.85348C17.008 9.56591 16.8589 8.95095 17.1465 8.47946C17.4341 8.00798 18.049 7.85891 18.5205 8.14645L22.041 10.2929C22.3341 10.4714 22.5751 10.7224 22.7432 11.0215C22.9113 11.3206 22.9999 11.6578 23 12.0009V19C23 19.7956 22.6837 20.5585 22.1211 21.1211C21.5585 21.6837 20.7957 22 20 22H4C3.20435 22 2.44151 21.6837 1.87891 21.1211C1.3163 20.5585 1 19.7956 1 19Z" fill="black"/>
<path d="M12 2.99951L7.00098 6.99854L7 6.99951V20.9995C7 21.5518 6.55228 21.9995 6 21.9995C5.44772 21.9995 5 21.5518 5 20.9995V6.99951C4.99998 6.69943 5.06723 6.40278 5.19727 6.13232C5.3274 5.86176 5.51737 5.6244 5.75195 5.43701L10.751 1.43799L10.752 1.43701C11.1067 1.15384 11.548 1.00013 12.002 1.00049C12.4556 1.00096 12.8958 1.15543 13.25 1.43897L18.25 5.43897L18.417 5.58936C18.5747 5.7477 18.7054 5.93192 18.8027 6.13428C18.9324 6.40421 18.9998 6.70003 19 6.99951V20.9995C19 21.5518 18.5523 21.9995 18 21.9995C17.4477 21.9995 17 21.5518 17 20.9995V7.00049L12 2.99951Z" fill="black"/>
</svg>
