<svg width="24" height="24" viewBox="0 0 24 24" fill="none" xmlns="http://www.w3.org/2000/svg">
<path d="M16.2775 17.3086C16.6592 16.9097 17.2925 16.8957 17.6916 17.2774C18.0905 17.6591 18.1045 18.2924 17.7228 18.6914L16.1876 20.2959C16.178 20.306 16.1684 20.3165 16.1584 20.3262C15.4696 20.9881 14.6323 21.4757 13.7169 21.749C12.8015 22.0223 11.8337 22.0735 10.8947 21.8975C9.95564 21.7214 9.07183 21.3237 8.31753 20.7373C7.56332 20.151 6.95998 19.3929 6.55777 18.5264C6.32526 18.0254 6.54316 17.4308 7.0441 17.1983C7.54496 16.9658 8.13962 17.1828 8.37222 17.6836C8.64036 18.2613 9.04224 18.7673 9.54507 19.1582C10.0479 19.5491 10.6369 19.8142 11.2628 19.9317C11.8889 20.049 12.5344 20.0152 13.1447 19.833C13.7549 19.6508 14.3125 19.3251 14.7716 18.8838L16.2775 17.3086Z" fill="black"/>
<path d="M16 22V19H13C12.4477 19 12 18.5523 12 18C12 17.4477 12.4477 17 13 17H17C17.5523 17 18 17.4477 18 18V22C18 22.5523 17.5523 23 17 23C16.4477 23 16 22.5523 16 22Z" fill="black"/>
<path d="M9.06582 2.00553C10.2005 2.0151 11.3207 2.26639 12.351 2.74186C13.381 3.21727 14.298 3.90641 15.0414 4.76335C15.6191 5.42938 16.0805 6.18582 16.4105 6.99967H17.5082C18.53 7.01327 19.5281 7.31201 20.39 7.861C21.2518 8.40997 21.9438 9.18795 22.3881 10.1081C22.8324 11.0283 23.0118 12.0546 22.9057 13.071C22.7995 14.0871 22.4121 15.0535 21.7875 15.862C21.4498 16.299 20.8212 16.3803 20.3842 16.0426C19.9472 15.7049 19.8668 15.0763 20.2045 14.6393C20.6021 14.1247 20.8489 13.5097 20.9164 12.863C20.9839 12.2164 20.8699 11.5637 20.5873 10.9782C20.3046 10.3927 19.8642 9.89687 19.3158 9.54752C18.836 9.24189 18.2895 9.0583 17.725 9.01139L17.4818 8.99967H15.7055C15.2636 8.99967 14.8731 8.71012 14.7465 8.28678C14.5027 7.47141 14.0883 6.71679 13.5307 6.07389C12.9731 5.43111 12.2847 4.91385 11.5121 4.55729C10.7396 4.20086 9.89999 4.01273 9.04922 4.00553C8.1982 3.99836 7.3552 4.17275 6.57656 4.51627C5.79802 4.85977 5.10098 5.36441 4.53262 5.99772C3.96421 6.63112 3.53723 7.37896 3.27969 8.1901C3.02222 9.00115 2.94056 9.85763 3.03945 10.7028C3.13837 11.5481 3.41604 12.3627 3.85391 13.0924C4.13794 13.566 3.98369 14.1804 3.51016 14.4645C3.03661 14.7485 2.42218 14.5952 2.13808 14.1217C1.55427 13.1487 1.18501 12.0623 1.05312 10.9352C0.921254 9.80823 1.03007 8.66611 1.37344 7.58463C1.7168 6.50319 2.28655 5.50725 3.04433 4.66276C3.80214 3.8183 4.73087 3.14422 5.76894 2.6862C6.8071 2.22818 7.93115 1.99598 9.06582 2.00553Z" fill="black"/>
<path d="M5.99999 10C5.99999 9.44773 6.44771 9.00001 6.99999 9.00001C7.55228 9.00001 7.99999 9.44773 7.99999 10V13H11C11.5523 13 12 13.4477 12 14C12 14.5523 11.5523 15 11 15H6.99999C6.44771 15 5.99999 14.5523 5.99999 14V10Z" fill="black"/>
<path d="M10.2832 10.251C11.1987 9.97768 12.1664 9.92647 13.1055 10.1025C14.0445 10.2786 14.9283 10.6763 15.6826 11.2627C16.4368 11.849 17.0402 12.6071 17.4424 13.4736C17.6749 13.9745 17.4569 14.5692 16.956 14.8018C16.4552 15.0342 15.8605 14.8171 15.6279 14.3164C15.3598 13.7387 14.9579 13.2327 14.4551 12.8418C13.9523 12.451 13.3632 12.1858 12.7373 12.0684C12.1113 11.951 11.4658 11.9848 10.8555 12.167C10.2494 12.3479 9.69468 12.6698 9.2373 13.1064L7.72265 14.6914C7.34091 15.0904 6.70767 15.1043 6.30859 14.7227C5.9096 14.3409 5.89566 13.7077 6.27734 13.3086L7.81249 11.7041L7.84179 11.6738C8.53058 11.0118 9.3678 10.5243 10.2832 10.251Z" fill="black"/>
</svg>
