<svg width="24" height="24" viewBox="0 0 24 24" fill="none" xmlns="http://www.w3.org/2000/svg">
<path d="M11 4V2C11 1.44772 11.4477 1 12 1C12.5523 1 13 1.44772 13 2V4C13 4.55228 12.5523 5 12 5C11.4477 5 11 4.55228 11 4Z" fill="black"/>
<path d="M1 20V10C1 9.20435 1.3163 8.44152 1.87891 7.87891C2.44151 7.3163 3.20435 7 4 7C4.55228 7 5 7.44772 5 8C5 8.55228 4.55228 9 4 9C3.73478 9 3.48051 9.10543 3.29297 9.29297C3.10543 9.4805 3 9.73478 3 10V20C3 20.2652 3.10543 20.5195 3.29297 20.707C3.48051 20.8946 3.73478 21 4 21H14L14.1299 20.9912C14.2588 20.9743 14.3835 20.9323 14.4971 20.8672C14.6485 20.7803 14.7751 20.6555 14.8633 20.5049C15.1423 20.0284 15.7548 19.8676 16.2314 20.1465C16.708 20.4254 16.8676 21.038 16.5889 21.5146C16.3244 21.9666 15.9464 22.342 15.4922 22.6025C15.0381 22.863 14.5235 22.9999 14 23H4C3.20435 23 2.44151 22.6837 1.87891 22.1211C1.3163 21.5585 1 20.7957 1 20Z" fill="black"/>
<path d="M17 4V2C17 1.44772 17.4477 1 18 1C18.5523 1 19 1.44772 19 2V4C19 4.55228 18.5523 5 18 5C17.4477 5 17 4.55228 17 4Z" fill="black"/>
<path d="M4 12C4.55228 12 5 12.4477 5 13C5 13.5523 4.55228 14 4 14H2C1.44772 14 1 13.5523 1 13C1 12.4477 1.44772 12 2 12H4Z" fill="black"/>
<path d="M22 7C22.5523 7 23 7.44772 23 8C23 8.55228 22.5523 9 22 9H8C7.44772 9 7 8.55228 7 8C7 7.44772 7.44772 7 8 7H22Z" fill="black"/>
<path d="M21 5C21 4.44772 20.5523 4 20 4H10C9.44772 4 9 4.44772 9 5V15C9 15.5523 9.44772 16 10 16H20C20.5523 16 21 15.5523 21 15V5ZM23 15C23 16.6569 21.6569 18 20 18H10C8.34315 18 7 16.6569 7 15V5C7 3.34315 8.34315 2 10 2H20C21.6569 2 23 3.34315 23 5V15Z" fill="black"/>
</svg>
