<svg width="24" height="24" viewBox="0 0 24 24" fill="none" xmlns="http://www.w3.org/2000/svg">
<path d="M20 11.125V6C20 5.73478 19.8946 5.4805 19.707 5.29297C19.5195 5.10543 19.2652 5 19 5H5C4.73478 5 4.4805 5.10543 4.29297 5.29297C4.10543 5.4805 4 5.73478 4 6V20C4 20.2652 4.10543 20.5195 4.29297 20.707C4.48051 20.8946 4.73478 21 5 21H12.127C12.6792 21 13.127 21.4477 13.127 22C13.127 22.5523 12.6792 23 12.127 23H5C4.20435 23 3.44152 22.6837 2.87891 22.1211C2.3163 21.5585 2 20.7957 2 20V6C2 5.20435 2.3163 4.44152 2.87891 3.87891C3.44152 3.3163 4.20435 3 5 3H19C19.7957 3 20.5585 3.3163 21.1211 3.87891C21.6837 4.44151 22 5.20435 22 6V11.125C22 11.6773 21.5523 12.125 21 12.125C20.4477 12.125 20 11.6773 20 11.125Z" fill="black"/>
<path d="M15.234 14.1537C15.6511 14.0173 16.0917 13.9667 16.5289 14.0052C16.9661 14.0437 17.391 14.1701 17.7779 14.3773C17.8557 14.4189 17.9306 14.4654 18.0045 14.513C18.0771 14.4669 18.1509 14.4225 18.2271 14.3822C18.6136 14.178 19.0377 14.0536 19.4732 14.0169C19.9087 13.9803 20.3472 14.0316 20.7623 14.1683C21.1774 14.305 21.5608 14.5246 21.8893 14.8128C22.2177 15.101 22.4849 15.4523 22.6744 15.846C22.8639 16.2398 22.9715 16.6683 22.9918 17.1048C23.0121 17.5413 22.9447 17.9775 22.7926 18.3871C22.642 18.7923 22.4105 19.1626 22.1148 19.4779L22.1158 19.4788L19.4898 22.3353L19.4889 22.3343C19.3048 22.5402 19.0811 22.7069 18.8297 22.8216C18.5695 22.9403 18.2866 23.0013 18.0006 23.0013C17.7146 23.0013 17.4317 22.9403 17.1715 22.8216C16.9194 22.7067 16.6947 22.5399 16.5104 22.3333L13.8834 19.4769L13.8844 19.4759C13.5877 19.1625 13.3552 18.7939 13.2027 18.39C13.0478 17.9792 12.9777 17.5405 12.9967 17.1019C13.0157 16.6634 13.1234 16.233 13.3131 15.8372C13.5029 15.4415 13.7712 15.0885 14.1012 14.7992C14.4312 14.5097 14.8167 14.2901 15.234 14.1537ZM16.3531 15.9974C16.185 15.9826 16.0155 16.0016 15.8551 16.054C15.6946 16.1065 15.5465 16.1917 15.4195 16.3031C15.2927 16.4144 15.1897 16.5503 15.1168 16.7025C15.0439 16.8547 15.002 17.0202 14.9947 17.1888C14.9875 17.3574 15.0143 17.526 15.0738 17.6839C15.1334 17.8418 15.2246 17.986 15.3414 18.1078C15.3463 18.1129 15.3513 18.1182 15.3561 18.1234L17.983 20.9808C17.9887 20.987 17.9941 20.994 17.9996 21.0003C18.0054 20.9937 18.0122 20.9873 18.0182 20.9808L20.6441 18.1253L20.6539 18.1146C20.7693 17.9925 20.8591 17.8482 20.9176 17.6908C20.9761 17.5332 21.0015 17.3654 20.9938 17.1976C20.9859 17.0297 20.9446 16.8647 20.8717 16.7132C20.7988 16.5619 20.6962 16.4265 20.5699 16.3158C20.4436 16.205 20.2959 16.1212 20.1363 16.0687C19.9768 16.0162 19.8085 15.9961 19.6412 16.0101C19.4737 16.0242 19.3104 16.0722 19.1617 16.1507C19.0132 16.2292 18.882 16.3368 18.776 16.4671C18.5854 16.7015 18.2988 16.8373 17.9967 16.8363C17.6944 16.8351 17.4083 16.6972 17.2193 16.4613C17.1138 16.3295 16.9824 16.2207 16.8336 16.141C16.6848 16.0613 16.5213 16.0122 16.3531 15.9974Z" fill="black"/>
<path d="M15 6V2C15 1.44772 15.4477 1 16 1C16.5523 1 17 1.44772 17 2V6C17 6.55228 16.5523 7 16 7C15.4477 7 15 6.55228 15 6Z" fill="black"/>
<path d="M21 9C21.5523 9 22 9.44771 22 10C22 10.5523 21.5523 11 21 11H3C2.44772 11 2 10.5523 2 10C2 9.44771 2.44772 9 3 9H21Z" fill="black"/>
<path d="M7 6V2C7 1.44772 7.44772 1 8 1C8.55228 1 9 1.44772 9 2V6C9 6.55228 8.55228 7 8 7C7.44772 7 7 6.55228 7 6Z" fill="black"/>
</svg>
