<svg width="24" height="24" viewBox="0 0 24 24" fill="none" xmlns="http://www.w3.org/2000/svg">
<path fill-rule="evenodd" clip-rule="evenodd" d="M8.99999 3C8.99999 2.44772 9.44771 2 9.99999 2H10.01C10.5623 2 11.01 2.44772 11.01 3C11.01 3.55228 10.5623 4 10.01 4H9.99999C9.44771 4 8.99999 3.55228 8.99999 3Z" fill="black"/>
<path fill-rule="evenodd" clip-rule="evenodd" d="M13 2C13 1.44772 13.4477 1 14 1H14.01C14.5623 1 15.01 1.44772 15.01 2C15.01 2.55228 14.5623 3 14.01 3H14C13.4477 3 13 2.55228 13 2Z" fill="black"/>
<path fill-rule="evenodd" clip-rule="evenodd" d="M22.9701 3.75747C23.1041 4.29326 22.7783 4.8362 22.2425 4.97014L2.24253 9.97014C1.70673 10.1041 1.1638 9.77833 1.02985 9.24254C0.895901 8.70674 1.22166 8.16381 1.75746 8.02986L21.7575 3.02986C22.2933 2.89591 22.8362 3.22167 22.9701 3.75747Z" fill="black"/>
<path fill-rule="evenodd" clip-rule="evenodd" d="M12 5.5C12.5523 5.5 13 5.94772 13 6.5V12C13 12.5523 12.5523 13 12 13C11.4477 13 11 12.5523 11 12V6.5C11 5.94772 11.4477 5.5 12 5.5Z" fill="black"/>
<path fill-rule="evenodd" clip-rule="evenodd" d="M6.99999 13C5.89542 13 4.99999 13.8954 4.99999 15V19C4.99999 20.1046 5.89542 21 6.99999 21H17C18.1046 21 19 20.1046 19 19V15C19 13.8954 18.1046 13 17 13H6.99999ZM2.99999 15C2.99999 12.7909 4.79085 11 6.99999 11H17C19.2091 11 21 12.7909 21 15V19C21 21.2091 19.2091 23 17 23H6.99999C4.79085 23 2.99999 21.2091 2.99999 19V15Z" fill="black"/>
<path fill-rule="evenodd" clip-rule="evenodd" d="M8.99999 11C9.55227 11 9.99999 11.4477 9.99999 12V17C9.99999 17.5523 9.55227 18 8.99999 18C8.44771 18 7.99999 17.5523 7.99999 17V12C7.99999 11.4477 8.44771 11 8.99999 11Z" fill="black"/>
<path fill-rule="evenodd" clip-rule="evenodd" d="M15 11C15.5523 11 16 11.4477 16 12V17C16 17.5523 15.5523 18 15 18C14.4477 18 14 17.5523 14 17V12C14 11.4477 14.4477 11 15 11Z" fill="black"/>
<path fill-rule="evenodd" clip-rule="evenodd" d="M2.99999 17C2.99999 16.4477 3.44771 16 3.99999 16H20C20.5523 16 21 16.4477 21 17C21 17.5523 20.5523 18 20 18H3.99999C3.44771 18 2.99999 17.5523 2.99999 17Z" fill="black"/>
</svg>
