<svg width="24" height="24" viewBox="0 0 24 24" fill="none" xmlns="http://www.w3.org/2000/svg">
<path d="M12 1C14.1341 0.999646 16.2221 1.62052 18.0098 2.78613C19.7973 3.95173 21.2079 5.6116 22.0684 7.56445C22.9288 9.51745 23.2027 11.6793 22.8564 13.7852C22.5102 15.8908 21.5585 17.8503 20.1182 19.4248C19.7455 19.8322 19.1126 19.8608 18.7051 19.4883C18.2976 19.1155 18.2698 18.4827 18.6426 18.0752C19.8212 16.7869 20.5995 15.1829 20.8828 13.46C21.166 11.7371 20.9422 9.96886 20.2383 8.37109C19.5343 6.7733 18.3805 5.41464 16.918 4.46094C15.4553 3.50723 13.7461 2.99968 12 3C11.4478 3 11.0001 2.55222 11 2C11 1.4478 11.4478 1.0001 12 1Z" fill="black"/>
<path d="M11 6C11 5.44772 11.4477 5 12 5C12.5523 5 13 5.44772 13 6V11.3818L16.4473 13.1055C16.9412 13.3525 17.1415 13.9533 16.8945 14.4473C16.6475 14.9412 16.0467 15.1415 15.5527 14.8945L11.5527 12.8945C11.214 12.7251 11 12.3788 11 12V6Z" fill="black"/>
<path d="M1.54981 8.5625C1.72238 8.0379 2.2879 7.75227 2.8125 7.92481C3.33711 8.09738 3.62273 8.66289 3.4502 9.1875C3.16341 10.0593 3.01146 10.97 3 11.8877C2.993 12.4398 2.53948 12.8819 1.98731 12.875C1.43516 12.868 0.993108 12.4145 1 11.8623C1.01403 10.7408 1.19933 9.62794 1.54981 8.5625Z" fill="black"/>
<path d="M2.43157 15.083C2.93805 14.8629 3.52686 15.0951 3.747 15.6016C4.25235 16.7642 4.99815 17.8066 5.9345 18.6611C6.34231 19.0334 6.37113 19.6663 5.99895 20.0742C5.62665 20.4822 4.9938 20.511 4.58586 20.1387C3.4414 19.0942 2.53066 17.8194 1.91301 16.3984C1.69294 15.892 1.9251 15.3031 2.43157 15.083Z" fill="black"/>
<path d="M4.88014 3.61628C5.30109 3.25881 5.93182 3.30961 6.28932 3.73054C6.64682 4.15146 6.59496 4.78219 6.17409 5.13972C5.89117 5.38 5.62344 5.63785 5.37233 5.9112C4.99872 6.31793 4.36597 6.34536 3.95925 5.97175C3.55253 5.59814 3.52608 4.96539 3.89968 4.55866C4.20662 4.22452 4.53431 3.91 4.88014 3.61628Z" fill="black"/>
<path d="M15.8471 20.1357C16.3464 19.8996 16.943 20.1131 17.1792 20.6123C17.4153 21.1115 17.2019 21.7082 16.7026 21.9443C14.0702 23.1892 11.0511 23.3395 8.30807 22.3623C7.78796 22.1768 7.51631 21.6041 7.70162 21.0839C7.88707 20.5639 8.45978 20.2932 8.97994 20.4785C11.2241 21.2778 13.6935 21.1541 15.8471 20.1357Z" fill="black"/>
</svg>
