<svg width="24" height="24" viewBox="0 0 24 24" fill="none" xmlns="http://www.w3.org/2000/svg">
<path d="M11 6.00006C11 5.44777 11.4477 5.00006 12 5.00006C12.5523 5.00006 13 5.44777 13 6.00006V11.3819L16.4473 13.1055C16.9412 13.3525 17.1415 13.9533 16.8945 14.4473C16.6475 14.9413 16.0467 15.1416 15.5527 14.8946L11.5527 12.8946C11.214 12.7252 11 12.3788 11 12.0001V6.00006Z" fill="black"/>
<path d="M21 12.0002C21 10.2585 20.4943 8.55405 19.5449 7.09393C18.5955 5.6339 17.2432 4.48015 15.6514 3.77362C14.0596 3.0671 12.2968 2.83813 10.5771 3.11346C8.85754 3.38884 7.25448 4.15718 5.96289 5.32537C4.67126 6.49371 3.74579 8.01192 3.2998 9.69549C2.85383 11.3791 2.90634 13.1562 3.45019 14.8107C3.99407 16.4652 5.00643 17.9262 6.36426 19.0168C7.72203 20.1074 9.36683 20.781 11.0996 20.9553C11.6491 21.0105 12.0503 21.5005 11.9951 22.05C11.9399 22.5994 11.4497 23.0005 10.9004 22.9455C8.78237 22.7326 6.77096 21.9094 5.11133 20.5764C3.45177 19.2433 2.2145 17.4569 1.5498 15.4347C0.885228 13.4127 0.822189 11.2413 1.36719 9.18377C1.91227 7.12605 3.04242 5.26995 4.62109 3.84198C6.19971 2.41415 8.15897 1.47543 10.2607 1.13885C12.3626 0.802271 14.5173 1.0829 16.4629 1.94647C18.4084 2.81007 20.0614 4.21962 21.2217 6.00408C22.382 7.78866 23 9.87153 23 12.0002C22.9999 12.5524 22.5522 13.0002 22 13.0002C21.4478 13.0002 21.0001 12.5524 21 12.0002Z" fill="black"/>
<path d="M21.293 15.293C21.6835 14.9025 22.3165 14.9025 22.707 15.293C23.0976 15.6836 23.0976 16.3166 22.707 16.7071L17.207 22.2071C16.8165 22.5976 16.1835 22.5976 15.793 22.2071L13.293 19.7071C12.9024 19.3166 12.9024 18.6836 13.293 18.293C13.6835 17.9025 14.3165 17.9025 14.707 18.293L16.5 20.086L21.293 15.293Z" fill="black"/>
</svg>
