<svg width="24" height="24" viewBox="0 0 24 24" fill="none" xmlns="http://www.w3.org/2000/svg">
<path fill-rule="evenodd" clip-rule="evenodd" d="M8.61117 1.54951C11.014 0.776815 13.6094 0.853941 15.9621 1.76795C16.4769 1.96795 16.7321 2.54741 16.5321 3.06221C16.3321 3.57701 15.7527 3.83221 15.2379 3.63221C13.3129 2.88438 11.1894 2.82128 9.22345 3.45349C7.25752 4.08569 5.56879 5.37475 4.44058 7.10441C3.31236 8.83407 2.81328 10.8991 3.02708 12.9531C3.24087 15.0071 4.15452 16.9251 5.61475 18.3853C7.07499 19.8456 8.99299 20.7592 11.047 20.973C13.101 21.1868 15.166 20.6877 16.8957 19.5595C18.6253 18.4313 19.9144 16.7426 20.5466 14.7766C21.1788 12.8107 21.1157 10.6871 20.3679 8.76221C20.1679 8.24741 20.4231 7.66795 20.9379 7.46795C21.4527 7.26795 22.0321 7.52315 22.2321 8.03795C23.1461 10.3906 23.2233 12.9861 22.4506 15.3889C21.6779 17.7917 20.1024 19.8557 17.9883 21.2346C15.8743 22.6136 13.3504 23.2236 10.8399 22.9623C8.32949 22.701 5.98528 21.5843 4.20054 19.7995C2.4158 18.0148 1.29912 15.6706 1.03782 13.1601C0.776522 10.6497 1.3865 8.12578 2.76543 6.01175C4.14437 3.89772 6.20836 2.32221 8.61117 1.54951Z" fill="black"/>
<path fill-rule="evenodd" clip-rule="evenodd" d="M12 11C11.4477 11 11 11.4477 11 12C11 12.5523 11.4477 13 12 13C12.5523 13 13 12.5523 13 12C13 11.4477 12.5523 11 12 11ZM8.99999 12C8.99999 10.3432 10.3431 9.00003 12 9.00003C13.6568 9.00003 15 10.3432 15 12C15 13.6569 13.6568 15 12 15C10.3431 15 8.99999 13.6569 8.99999 12Z" fill="black"/>
<path fill-rule="evenodd" clip-rule="evenodd" d="M19.7071 4.29293C20.0976 4.68345 20.0976 5.31662 19.7071 5.70714L14.1071 11.3071C13.7166 11.6977 13.0834 11.6977 12.6929 11.3071C12.3024 10.9166 12.3024 10.2835 12.6929 9.89293L18.2929 4.29293C18.6834 3.9024 19.3166 3.9024 19.7071 4.29293Z" fill="black"/>
</svg>
