<svg width="24" height="24" viewBox="0 0 24 24" fill="none" xmlns="http://www.w3.org/2000/svg">
<path fill-rule="evenodd" clip-rule="evenodd" d="M13.71 3.16382C12.5805 2.94523 11.4195 2.94523 10.29 3.16382C9.74778 3.26876 9.22315 2.91426 9.11822 2.37204C9.01329 1.82981 9.36778 1.30519 9.91 1.20025C11.2905 0.933086 12.7095 0.933086 14.09 1.20025C14.6322 1.30519 14.9867 1.82981 14.8818 2.37204C14.7769 2.91426 14.2522 3.26876 13.71 3.16382Z" fill="black"/>
<path fill-rule="evenodd" clip-rule="evenodd" d="M9.11822 21.628C9.22315 21.0858 9.74778 20.7313 10.29 20.8362C11.4195 21.0548 12.5805 21.0548 13.71 20.8362C14.2522 20.7313 14.7769 21.0858 14.8818 21.628C14.9867 22.1703 14.6322 22.6949 14.09 22.7998C12.7095 23.067 11.2905 23.067 9.91 22.7998C9.36778 22.6949 9.01329 22.1703 9.11822 21.628Z" fill="black"/>
<path fill-rule="evenodd" clip-rule="evenodd" d="M16.7811 3.16014C17.0909 2.70292 17.7127 2.58342 18.1699 2.89321C19.3376 3.68436 20.3421 4.69267 21.1289 5.86321C21.437 6.32157 21.3152 6.94291 20.8569 7.25101C20.3985 7.5591 19.7772 7.43729 19.4691 6.97893C18.8253 6.02121 18.0034 5.19623 17.0481 4.54893C16.5909 4.23913 16.4714 3.61735 16.7811 3.16014Z" fill="black"/>
<path fill-rule="evenodd" clip-rule="evenodd" d="M2.37201 9.11828C2.91423 9.22321 3.26872 9.74784 3.16379 10.2901C2.9452 11.4196 2.9452 12.5805 3.16379 13.7101C3.26872 14.2523 2.91423 14.7769 2.37201 14.8818C1.82978 14.9868 1.30516 14.6323 1.20022 14.0901C0.933056 12.7095 0.933056 11.2906 1.20022 9.91006C1.30516 9.36784 1.82978 9.01335 2.37201 9.11828Z" fill="black"/>
<path fill-rule="evenodd" clip-rule="evenodd" d="M20.8399 16.7812C21.2972 17.091 21.4167 17.7128 21.1069 18.17C20.3157 19.3376 19.3074 20.3422 18.1369 21.129C17.6785 21.4371 17.0572 21.3153 16.7491 20.8569C16.441 20.3985 16.5628 19.7772 17.0212 19.4691C17.9789 18.8254 18.8039 18.0034 19.4512 17.0481C19.7609 16.5909 20.3827 16.4714 20.8399 16.7812Z" fill="black"/>
<path fill-rule="evenodd" clip-rule="evenodd" d="M21.628 9.11828C22.1702 9.01335 22.6949 9.36784 22.7998 9.91006C23.067 11.2906 23.067 12.7095 22.7998 14.0901C22.6949 14.6323 22.1702 14.9868 21.628 14.8818C21.0858 14.7769 20.7313 14.2523 20.8362 13.7101C21.0548 12.5805 21.0548 11.4196 20.8362 10.2901C20.7313 9.74784 21.0858 9.22321 21.628 9.11828Z" fill="black"/>
<path fill-rule="evenodd" clip-rule="evenodd" d="M7.25094 3.14321C7.55904 3.60158 7.43723 4.22291 6.97887 4.53101C6.02115 5.17476 5.19617 5.99669 4.54887 6.95201C4.23907 7.40922 3.61729 7.52873 3.16007 7.21893C2.70286 6.90914 2.58335 6.28735 2.89315 5.83014C3.68429 4.66252 4.6926 3.65795 5.86315 2.87114C6.32151 2.56304 6.94284 2.68485 7.25094 3.14321Z" fill="black"/>
<path fill-rule="evenodd" clip-rule="evenodd" d="M3.14315 16.7491C3.60151 16.441 4.22284 16.5628 4.53094 17.0212C5.17469 17.9789 5.99662 18.8039 6.95194 19.4512C7.40915 19.761 7.52866 20.3828 7.21886 20.84C6.90907 21.2972 6.28728 21.4167 5.83007 21.1069C4.66245 20.3158 3.65788 19.3074 2.87107 18.1369C2.56297 17.6785 2.68478 17.0572 3.14315 16.7491Z" fill="black"/>
</svg>
