<svg width="24" height="24" viewBox="0 0 24 24" fill="none" xmlns="http://www.w3.org/2000/svg">
<path d="M16 12C16.5523 12 17 12.4477 17 13C17 13.5523 16.5523 14 16 14H3C2.44772 14 2 13.5523 2 13C2 12.4477 2.44772 12 3 12H16Z" fill="black"/>
<path d="M16 16C16.5523 16 17 16.4477 17 17C17 17.5523 16.5523 18 16 18H3C2.44772 18 2 17.5523 2 17C2 16.4477 2.44772 16 3 16H16Z" fill="black"/>
<path d="M2 20.0004V12.0102C1.99981 11.5405 2.10979 11.077 2.32129 10.6576C2.53284 10.2383 2.83992 9.87414 3.21777 9.59514L6.60645 7.09514C7.05082 6.76744 7.67702 6.86178 8.00488 7.30608C8.33275 7.7504 8.23816 8.37655 7.79395 8.70451L4.40527 11.2035C4.2793 11.2966 4.17794 11.4192 4.10742 11.559C4.037 11.6987 3.99996 11.8528 4 12.0092V20.0004H20V11.3461C20 10.6601 19.5346 9.36486 18.4746 7.92619C17.4438 6.52716 15.9503 5.13325 14.1123 4.21428L14.0635 4.18791L10.9854 6.41057C10.5377 6.73389 9.91223 6.63362 9.58887 6.18596C9.26553 5.73826 9.36681 5.11285 9.81445 4.78947L12.8926 2.56682C13.2042 2.34192 13.5742 2.21106 13.958 2.19084C14.3227 2.17163 14.6845 2.25422 15.0059 2.42619L15.0068 2.42522C17.1687 3.50617 18.8958 5.12582 20.085 6.73967C21.2449 8.314 22 10.0321 22 11.3461V20.0004C21.9999 20.5307 21.789 21.0395 21.4141 21.4145C21.039 21.7894 20.5303 22.0004 20 22.0004H4C3.46966 22.0004 2.96099 21.7894 2.58594 21.4145C2.21095 21.0395 2.0001 20.5307 2 20.0004Z" fill="black"/>
<path d="M10 7.00003C10 6.44775 9.55228 6.00003 9 6.00003C8.44772 6.00003 8 6.44775 8 7.00003C8 7.55232 8.44772 8.00003 9 8.00003C9.55228 8.00003 10 7.55232 10 7.00003ZM12 7.00003C12 8.65689 10.6569 10 9 10C7.34315 10 6 8.65689 6 7.00003C6 5.34318 7.34315 4.00003 9 4.00003C10.6569 4.00003 12 5.34318 12 7.00003Z" fill="black"/>
</svg>
