<svg width="24" height="24" viewBox="0 0 24 24" fill="none" xmlns="http://www.w3.org/2000/svg">
<path fill-rule="evenodd" clip-rule="evenodd" d="M11.455 1.16156C11.7864 0.946148 12.2136 0.946148 12.545 1.16156L22.545 7.66156C22.8288 7.84602 23 8.16152 23 8.5V15.5C23 15.8385 22.8288 16.154 22.545 16.3384L12.545 22.8384C12.2136 23.0539 11.7864 23.0539 11.455 22.8384L1.45504 16.3384C1.17125 16.154 1.00003 15.8385 1.00003 15.5V8.5C1.00003 8.16152 1.17125 7.84602 1.45504 7.66156L11.455 1.16156ZM3.00003 9.04269V14.9573L12 20.8073L21 14.9573V9.04269L12 3.19269L3.00003 9.04269Z" fill="black"/>
<path fill-rule="evenodd" clip-rule="evenodd" d="M12 14.5C12.5523 14.5 13 14.9477 13 15.5V22C13 22.5523 12.5523 23 12 23C11.4477 23 11 22.5523 11 22V15.5C11 14.9477 11.4477 14.5 12 14.5Z" fill="black"/>
<path fill-rule="evenodd" clip-rule="evenodd" d="M1.18079 7.92655C1.49751 7.4741 2.12104 7.36406 2.57349 7.68078L12 14.2794L21.4266 7.68078C21.879 7.36406 22.5025 7.4741 22.8193 7.92655C23.136 8.37899 23.0259 9.00253 22.5735 9.31924L12.5735 16.3192C12.2292 16.5603 11.7709 16.5603 11.4266 16.3192L1.42656 9.31924C0.974113 9.00253 0.864078 8.37899 1.18079 7.92655Z" fill="black"/>
<path fill-rule="evenodd" clip-rule="evenodd" d="M11.4266 7.68077C11.7709 7.43974 12.2292 7.43974 12.5735 7.68077L22.5735 14.6808C23.0259 14.9975 23.136 15.621 22.8193 16.0735C22.5025 16.5259 21.879 16.6359 21.4266 16.3192L12 9.72066L2.57349 16.3192C2.12104 16.6359 1.49751 16.5259 1.18079 16.0735C0.864078 15.621 0.974113 14.9975 1.42656 14.6808L11.4266 7.68077Z" fill="black"/>
<path fill-rule="evenodd" clip-rule="evenodd" d="M12 1C12.5523 1 13 1.44772 13 2V8.5C13 9.05228 12.5523 9.5 12 9.5C11.4477 9.5 11 9.05228 11 8.5V2C11 1.44772 11.4477 1 12 1Z" fill="black"/>
</svg>
