<svg width="24" height="24" viewBox="0 0 24 24" fill="none" xmlns="http://www.w3.org/2000/svg">
<path fill-rule="evenodd" clip-rule="evenodd" d="M12 1C12.5523 1 13 1.44772 13 2V4C13 4.55228 12.5523 5 12 5C11.4477 5 11 4.55228 11 4V2C11 1.44772 11.4477 1 12 1Z" fill="black"/>
<path fill-rule="evenodd" clip-rule="evenodd" d="M4.22289 4.22289C4.61342 3.83237 5.24658 3.83237 5.6371 4.22289L7.0471 5.63289C7.43763 6.02342 7.43763 6.65658 7.0471 7.04711C6.65658 7.43763 6.02342 7.43763 5.63289 7.04711L4.22289 5.63711C3.83237 5.24658 3.83237 4.61342 4.22289 4.22289Z" fill="black"/>
<path fill-rule="evenodd" clip-rule="evenodd" d="M19 12C19 11.4477 19.4477 11 20 11H22C22.5523 11 23 11.4477 23 12C23 12.5523 22.5523 13 22 13H20C19.4477 13 19 12.5523 19 12Z" fill="black"/>
<path fill-rule="evenodd" clip-rule="evenodd" d="M19.7771 4.22289C20.1676 4.61342 20.1676 5.24658 19.7771 5.63711L18.3671 7.04711C17.9766 7.43763 17.3434 7.43763 16.9529 7.04711C16.5624 6.65658 16.5624 6.02342 16.9529 5.63289L18.3629 4.22289C18.7534 3.83237 19.3866 3.83237 19.7771 4.22289Z" fill="black"/>
<path fill-rule="evenodd" clip-rule="evenodd" d="M9.52736 7.65289C10.3482 7.18574 11.2846 6.96065 12.2281 7.00367C13.1716 7.04669 14.0837 7.35607 14.8586 7.89599C15.6336 8.4359 16.2398 9.18427 16.607 10.0544C16.9742 10.9246 17.0875 11.881 16.9336 12.8129C16.8437 13.3578 16.329 13.7266 15.7841 13.6367C15.2392 13.5467 14.8704 13.032 14.9603 12.4871C15.0526 11.928 14.9847 11.3542 14.7643 10.8321C14.544 10.31 14.1803 9.86093 13.7153 9.53698C13.2504 9.21303 12.7031 9.0274 12.137 9.00159C11.5709 8.97578 11.0091 9.11083 10.5166 9.39112C10.0366 9.66429 9.42601 9.49661 9.15285 9.01661C8.87969 8.53661 9.04736 7.92605 9.52736 7.65289Z" fill="black"/>
<path fill-rule="evenodd" clip-rule="evenodd" d="M7.10329 13.0032C6.50383 12.9879 5.9086 13.1076 5.36165 13.3534C4.8147 13.5992 4.33001 13.9649 3.94345 14.4233C3.55689 14.8818 3.27835 15.4212 3.12843 16.0018C2.97851 16.5825 2.96105 17.1893 3.07735 17.7776C3.19364 18.3659 3.44071 18.9205 3.80028 19.4004C4.13145 19.8424 4.04161 20.4691 3.59963 20.8003C3.15764 21.1314 2.53088 21.0416 2.19972 20.5996C1.66037 19.8798 1.28976 19.0479 1.11532 18.1655C0.940877 17.2831 0.967063 16.3727 1.19194 15.5018C1.41682 14.6309 1.83463 13.8217 2.41447 13.1341C2.99431 12.4464 3.72134 11.8979 4.54177 11.5292C5.3622 11.1605 6.25504 10.9809 7.15423 11.0038C8.05342 11.0267 8.93596 11.2515 9.73655 11.6616C10.5371 12.0716 11.2353 12.6564 11.7794 13.3727C12.1554 13.8678 12.4513 14.417 12.6576 15H12.9992C13.8102 14.9989 14.6024 15.2445 15.2708 15.704C15.9392 16.1636 16.4522 16.8157 16.7415 17.5736C17.0307 18.3316 17.0827 19.1596 16.8905 19.9478C16.6983 20.7359 16.2709 21.447 15.6652 21.9867C15.2528 22.354 14.6207 22.3176 14.2533 21.9052C13.886 21.4928 13.9224 20.8607 14.3348 20.4933C14.6377 20.2235 14.8513 19.868 14.9475 19.4739C15.0436 19.0798 15.0176 18.6658 14.8729 18.2868C14.7283 17.9079 14.4718 17.5818 14.1376 17.352C13.8033 17.1222 13.4071 16.9994 13.0015 17H11.9C11.425 17 11.0155 16.6658 10.9203 16.2004C10.8001 15.6129 10.5494 15.0599 10.1867 14.5824C9.82399 14.1049 9.35856 13.715 8.82483 13.4417C8.29111 13.1683 7.70275 13.0184 7.10329 13.0032Z" fill="black"/>
<path fill-rule="evenodd" clip-rule="evenodd" d="M11 19C11.5523 19 12 19.4477 12 20V22C12 22.5523 11.5523 23 11 23C10.4477 23 10 22.5523 10 22V20C10 19.4477 10.4477 19 11 19Z" fill="black"/>
<path fill-rule="evenodd" clip-rule="evenodd" d="M7 18C7.55228 18 8 18.4477 8 19V21C8 21.5523 7.55228 22 7 22C6.44771 22 6 21.5523 6 21V19C6 18.4477 6.44771 18 7 18Z" fill="black"/>
</svg>
