<svg width="24" height="24" viewBox="0 0 24 24" fill="none" xmlns="http://www.w3.org/2000/svg">
<path fill-rule="evenodd" clip-rule="evenodd" d="M8.70048 2.98465C9.68004 2.3397 10.8271 1.99597 12 1.99597C13.1728 1.99597 14.3199 2.3397 15.2994 2.98465C16.0844 3.50148 16.7342 4.19359 17.1999 5.00258C18.1301 5.03892 19.0369 5.3346 19.8146 5.86302C20.7895 6.52535 21.499 7.51074 21.818 8.64529C22.1371 9.77984 22.0451 10.9906 21.5583 12.064C21.0716 13.137 20.2217 14.0037 19.1584 14.5112C19.089 14.5446 19.0414 14.5883 19.0169 14.6218C19.0052 14.6378 19.0012 14.6476 19 14.6517V20C19 20.5305 18.7892 21.0392 18.4142 21.4142C18.0391 21.7893 17.5304 22 17 22H6.99996C6.46953 22 5.96082 21.7893 5.58575 21.4142C5.21067 21.0392 4.99996 20.5305 4.99996 20V14.6512C4.99866 14.6471 4.99455 14.6373 4.98305 14.6216C4.95825 14.5876 4.91016 14.5435 4.84 14.5094C3.77801 14.0014 2.92934 13.1348 2.44349 12.0625C1.95737 10.9895 1.86568 9.77936 2.18459 8.6454C2.5035 7.51144 3.21252 6.52649 4.18665 5.86419C4.96387 5.33578 5.87004 5.03983 6.79977 5.00297C7.26548 4.19381 7.91537 3.50156 8.70048 2.98465ZM12 3.99597C11.2181 3.99597 10.4533 4.22512 9.8003 4.65509C9.14726 5.08505 8.63455 5.69698 8.32556 6.41522C8.15285 6.81668 7.73943 7.05948 7.30469 7.01479C6.60162 6.9425 5.89562 7.12076 5.31114 7.51814C4.72666 7.91551 4.30125 8.50649 4.1099 9.18686C3.91856 9.86724 3.97357 10.5933 4.26524 11.2371C4.55691 11.8809 5.06651 12.401 5.70419 12.7058C5.70512 12.7062 5.70605 12.7067 5.70697 12.7071C6.35939 13.0214 6.99996 13.7051 6.99996 14.649V20H17V14.65C17 13.7057 17.6399 13.0211 18.2947 12.7073L18.2964 12.7065C18.9346 12.402 19.4448 11.8819 19.7369 11.2379C20.0289 10.5939 20.0841 9.86742 19.8927 9.18669C19.7013 8.50595 19.2756 7.91472 18.6907 7.51733C18.1058 7.11993 17.3993 6.94192 16.6959 7.01472C16.2609 7.05973 15.8472 6.81691 15.6744 6.41522C15.3654 5.69698 14.8527 5.08505 14.1996 4.65509C13.5466 4.22512 12.7818 3.99597 12 3.99597Z" fill="black"/>
<path fill-rule="evenodd" clip-rule="evenodd" d="M4.99997 17C4.99997 16.4478 5.44769 16 5.99997 16H18C18.5523 16 19 16.4478 19 17C19 17.5523 18.5523 18 18 18H5.99997C5.44769 18 4.99997 17.5523 4.99997 17Z" fill="black"/>
</svg>
