<svg width="24" height="24" viewBox="0 0 24 24" fill="none" xmlns="http://www.w3.org/2000/svg">
<path fill-rule="evenodd" clip-rule="evenodd" d="M16 1C16.5523 1 17 1.44772 17 2V4C17 4.55228 16.5523 5 16 5C15.4477 5 15 4.55228 15 4V2C15 1.44772 15.4477 1 16 1Z" fill="black"/>
<path fill-rule="evenodd" clip-rule="evenodd" d="M6.96525 17.0503C8.27801 15.7375 10.0585 15 11.915 15C13.7715 15 15.552 15.7375 16.8647 17.0503C18.1775 18.363 18.915 20.1435 18.915 22C18.915 22.5523 18.4673 23 17.915 23C17.3627 23 16.915 22.5523 16.915 22C16.915 20.6739 16.3882 19.4021 15.4505 18.4645C14.5129 17.5268 13.2411 17 11.915 17C10.5889 17 9.31715 17.5268 8.37947 18.4645C7.44178 19.4021 6.915 20.6739 6.915 22C6.915 22.5523 6.46728 23 5.915 23C5.36272 23 4.915 22.5523 4.915 22C4.915 20.1435 5.6525 18.363 6.96525 17.0503Z" fill="black"/>
<path fill-rule="evenodd" clip-rule="evenodd" d="M8 1C8.55228 1 9 1.44772 9 2V4C9 4.55228 8.55228 5 8 5C7.44772 5 7 4.55228 7 4V2C7 1.44772 7.44772 1 8 1Z" fill="black"/>
<path fill-rule="evenodd" clip-rule="evenodd" d="M12 9C10.3431 9 9 10.3431 9 12C9 13.6569 10.3431 15 12 15C13.6569 15 15 13.6569 15 12C15 10.3431 13.6569 9 12 9ZM7 12C7 9.23858 9.23858 7 12 7C14.7614 7 17 9.23858 17 12C17 14.7614 14.7614 17 12 17C9.23858 17 7 14.7614 7 12Z" fill="black"/>
<path fill-rule="evenodd" clip-rule="evenodd" d="M5 5C4.44772 5 4 5.44771 4 6V20C4 20.5523 4.44772 21 5 21H19C19.5523 21 20 20.5523 20 20V6C20 5.44771 19.5523 5 19 5H5ZM2 6C2 4.34315 3.34315 3 5 3H19C20.6569 3 22 4.34315 22 6V20C22 21.6569 20.6569 23 19 23H5C3.34315 23 2 21.6569 2 20V6Z" fill="black"/>
</svg>
