<svg width="24" height="24" viewBox="0 0 24 24" fill="none" xmlns="http://www.w3.org/2000/svg">
<path fill-rule="evenodd" clip-rule="evenodd" d="M4 4.99994C4 5.00066 3.9999 5.00494 4.00305 5.01529C4.00645 5.02644 4.01483 5.04845 4.03507 5.08143C4.07752 5.15057 4.16408 5.25453 4.32624 5.38232C4.65642 5.64253 5.19616 5.9206 5.95227 6.17264C7.45402 6.67322 9.59229 7 12 7C14.4077 7 16.546 6.67322 18.0477 6.17264C18.8038 5.9206 19.3436 5.64253 19.6738 5.38232C19.8359 5.25453 19.9225 5.15057 19.9649 5.08143C19.9852 5.04845 19.9935 5.02644 19.9969 5.01529C20.0001 5.00494 20 5.00073 20 5C20 4.99911 20 4.99479 19.9969 4.98471C19.9935 4.97356 19.9852 4.95155 19.9649 4.91857C19.9225 4.84943 19.8359 4.74547 19.6738 4.61768C19.3436 4.35747 18.8038 4.0794 18.0477 3.82736C16.546 3.32678 14.4077 3 12 3C9.59229 3 7.45402 3.32678 5.95227 3.82736C5.19616 4.0794 4.65642 4.35747 4.32624 4.61768C4.16408 4.74547 4.07752 4.84943 4.03507 4.91857C4.01483 4.95155 4.00645 4.97356 4.00305 4.98471C3.99998 4.99479 4 4.99905 4 4.99994ZM5.31981 1.93C7.07541 1.3448 9.43715 1 12 1C14.5629 1 16.9246 1.3448 18.6802 1.93C19.5528 2.22085 20.331 2.58923 20.9117 3.04685C21.4811 3.49559 22 4.14805 22 5C22 5.85195 21.4811 6.50441 20.9117 6.95315C20.331 7.41077 19.5528 7.77915 18.6802 8.07C16.9246 8.6552 14.5629 9 12 9C9.43715 9 7.07541 8.6552 5.31981 8.07C4.44724 7.77915 3.66896 7.41077 3.08829 6.95315C2.51889 6.50441 2 5.85195 2 5C2 4.14805 2.51889 3.49559 3.08829 3.04685C3.66896 2.58923 4.44724 2.22085 5.31981 1.93Z" fill="black"/>
<path fill-rule="evenodd" clip-rule="evenodd" d="M3.00258 11C3.55487 11.0014 4.00143 11.4503 4 12.0026C3.99998 12.0023 4 12.0026 4 12.0026C4.00004 12.003 4.00021 12.0046 4.00059 12.0064C4.00131 12.0099 4.00331 12.0179 4.00872 12.0309C4.01978 12.0573 4.04579 12.1059 4.10381 12.1739C4.22458 12.3156 4.44913 12.5007 4.82322 12.702C5.57317 13.1055 6.71885 13.4645 8.16317 13.7034C8.70805 13.7935 9.07672 14.3083 8.9866 14.8532C8.89649 15.398 8.38172 15.7667 7.83684 15.6766C6.27581 15.4184 4.89266 15.0104 3.87565 14.4633C2.92956 13.9543 1.99703 13.1497 2.00001 11.9974C2.00143 11.4451 2.4503 10.9986 3.00258 11Z" fill="black"/>
<path fill-rule="evenodd" clip-rule="evenodd" d="M21 4C21.5523 4 22 4.44772 22 5V9.3C22 9.85229 21.5523 10.3 21 10.3C20.4477 10.3 20 9.85229 20 9.3V5C20 4.44772 20.4477 4 21 4Z" fill="black"/>
<path fill-rule="evenodd" clip-rule="evenodd" d="M3 4C3.55229 4 4 4.44765 4 4.99994L4 19.001C4.00008 19.0017 4.0004 19.0042 4.00109 19.007C4.00242 19.0125 4.00599 19.0247 4.01534 19.0439C4.03466 19.0835 4.07779 19.1512 4.16807 19.2417C4.35445 19.4284 4.68471 19.6551 5.20266 19.8856C6.23662 20.3459 7.76112 20.7084 9.56718 20.8847C10.1169 20.9384 10.5189 21.4275 10.4653 21.9772C10.4116 22.5268 9.92249 22.9289 9.37282 22.8753C7.44374 22.6869 5.68833 22.291 4.38934 21.7128C3.74082 21.4241 3.17276 21.0755 2.7526 20.6546C2.32939 20.2307 1.99952 19.671 2 18.9996L2 5C2 4.44772 2.44772 4 3 4Z" fill="black"/>
<path fill-rule="evenodd" clip-rule="evenodd" d="M12 11C12.5523 11 13 11.4477 13 12V15H16C16.5523 15 17 15.4477 17 16C17 16.5523 16.5523 17 16 17H12C11.4477 17 11 16.5523 11 16V12C11 11.4477 11.4477 11 12 11Z" fill="black"/>
<path fill-rule="evenodd" clip-rule="evenodd" d="M13.3829 13.2029C14.4335 12.1522 15.8952 11.5 17.5 11.5C18.9587 11.5 20.3576 12.0795 21.3891 13.1109C22.4205 14.1424 23 15.5413 23 17C23 18.2593 22.6038 19.4867 21.8675 20.5083C21.1311 21.5299 20.092 22.2939 18.8974 22.6921C17.7027 23.0903 16.413 23.1026 15.211 22.7271C14.009 22.3516 12.9556 21.6074 12.2 20.6C11.8686 20.1582 11.9582 19.5314 12.4 19.2C12.8418 18.8686 13.4686 18.9582 13.8 19.4C14.3037 20.0716 15.006 20.5677 15.8073 20.8181C16.6087 21.0684 17.4685 21.0602 18.2649 20.7947C19.0614 20.5292 19.7541 20.0199 20.245 19.3388C20.7359 18.6578 21 17.8395 21 17C21 16.0717 20.6313 15.1815 19.9749 14.5251C19.3185 13.8687 18.4283 13.5 17.5 13.5C16.4448 13.5 15.4865 13.9278 14.7971 14.6171L12.7071 16.7071C12.3166 17.0976 11.6834 17.0976 11.2929 16.7071C10.9024 16.3166 10.9024 15.6834 11.2929 15.2929L13.3829 13.2029Z" fill="black"/>
</svg>
