<svg width="24" height="24" viewBox="0 0 24 24" fill="none" xmlns="http://www.w3.org/2000/svg">
<path fill-rule="evenodd" clip-rule="evenodd" d="M9.29289 15.2929C9.68342 14.9024 10.3166 14.9024 10.7071 15.2929L12.2071 16.7929C12.5976 17.1834 12.5976 17.8166 12.2071 18.2071C11.8166 18.5976 11.1834 18.5976 10.7929 18.2071L9.29289 16.7071C8.90237 16.3166 8.90237 15.6834 9.29289 15.2929Z" fill="black"/>
<path fill-rule="evenodd" clip-rule="evenodd" d="M11.7929 5.79289C12.1834 5.40237 12.8166 5.40237 13.2071 5.79289L14.7071 7.29289C15.0976 7.68342 15.0976 8.31658 14.7071 8.70711C14.3166 9.09763 13.6834 9.09763 13.2929 8.70711L11.7929 7.20711C11.4024 6.81658 11.4024 6.18342 11.7929 5.79289Z" fill="black"/>
<path fill-rule="evenodd" clip-rule="evenodd" d="M15.6689 1.25668C16.0795 1.62611 16.1128 2.2584 15.7434 2.66893C14.0979 4.49746 13.4481 6.30175 13.1827 8.13616C13.1037 8.68276 12.5965 9.06177 12.0499 8.98271C11.5033 8.90365 11.1243 8.39645 11.2033 7.84985C11.516 5.68827 12.3062 3.49856 14.2567 1.33108C14.6261 0.920555 15.2584 0.887241 15.6689 1.25668Z" fill="black"/>
<path fill-rule="evenodd" clip-rule="evenodd" d="M15.7929 9.79289C16.1834 9.40237 16.8166 9.40237 17.2071 9.79289L18.2071 10.7929C18.5976 11.1834 18.5976 11.8166 18.2071 12.2071C17.8166 12.5976 17.1834 12.5976 16.7929 12.2071L15.7929 11.2071C15.4024 10.8166 15.4024 10.1834 15.7929 9.79289Z" fill="black"/>
<path fill-rule="evenodd" clip-rule="evenodd" d="M13.4019 2.40192C13.7924 2.01139 14.4256 2.01139 14.8161 2.40192L17.7071 5.29292C18.0977 5.68344 18.0977 6.31661 17.7071 6.70713C17.3166 7.09765 16.6834 7.09765 16.2929 6.70713L13.4019 3.81613C13.0114 3.42561 13.0114 2.79244 13.4019 2.40192Z" fill="black"/>
<path fill-rule="evenodd" clip-rule="evenodd" d="M22.7433 8.33106C23.1128 8.74158 23.0795 9.37387 22.669 9.74332C19.0499 13.0003 15.3804 13.0001 12.0619 13L12 13C8.66823 13 5.69443 13.0205 2.66895 15.7433C2.25844 16.1128 1.62615 16.0795 1.2567 15.669C0.887249 15.2584 0.920543 14.6261 1.33106 14.2567C4.95008 10.9997 8.61965 10.9999 11.9381 11L12 11C15.3318 11 18.3056 10.9795 21.3311 8.2567C21.7416 7.88725 22.3739 7.92054 22.7433 8.33106Z" fill="black"/>
<path fill-rule="evenodd" clip-rule="evenodd" d="M19.2929 8.29289C19.6834 7.90237 20.3166 7.90237 20.7071 8.29289L21.5981 9.18389C21.9886 9.57442 21.9886 10.2076 21.5981 10.5981C21.2076 10.9886 20.5744 10.9886 20.1839 10.5981L19.2929 9.70711C18.9024 9.31658 18.9024 8.68342 19.2929 8.29289Z" fill="black"/>
<path fill-rule="evenodd" clip-rule="evenodd" d="M2.40192 13.4019C2.79244 13.0114 3.42561 13.0114 3.81613 13.4019L4.70713 14.2929C5.09765 14.6834 5.09765 15.3166 4.70713 15.7071C4.31661 16.0977 3.68344 16.0977 3.29292 15.7071L2.40192 14.8161C2.01139 14.4256 2.01139 13.7924 2.40192 13.4019Z" fill="black"/>
<path fill-rule="evenodd" clip-rule="evenodd" d="M5.79289 11.7929C6.18342 11.4024 6.81658 11.4024 7.20711 11.7929L8.20711 12.7929C8.59763 13.1834 8.59763 13.8166 8.20711 14.2071C7.81658 14.5976 7.18342 14.5976 6.79289 14.2071L5.79289 13.2071C5.40237 12.8166 5.40237 12.1834 5.79289 11.7929Z" fill="black"/>
<path fill-rule="evenodd" clip-rule="evenodd" d="M6.29289 17.2929C6.68342 16.9024 7.31658 16.9024 7.70711 17.2929L10.5981 20.1839C10.9886 20.5744 10.9886 21.2076 10.5981 21.5981C10.2076 21.9886 9.57442 21.9886 9.18389 21.5981L6.29289 18.7071C5.90237 18.3166 5.90237 17.6834 6.29289 17.2929Z" fill="black"/>
<path fill-rule="evenodd" clip-rule="evenodd" d="M11.9502 15.0173C12.4968 15.0964 12.8758 15.6036 12.7967 16.1502C12.484 18.3117 11.6938 20.5015 9.74334 22.6689C9.3739 23.0795 8.74162 23.1128 8.33109 22.7433C7.92055 22.3739 7.88724 21.7416 8.25668 21.3311C9.90217 19.5026 10.552 17.6983 10.8173 15.8638C10.8964 15.3173 11.4036 14.9382 11.9502 15.0173Z" fill="black"/>
</svg>
