<svg width="24" height="24" viewBox="0 0 24 24" fill="none" xmlns="http://www.w3.org/2000/svg">
<g clip-path="url(#clip0_404_39884)">
<path fill-rule="evenodd" clip-rule="evenodd" d="M19 18C18.4477 18 18 18.4477 18 19C18 19.5523 18.4477 20 19 20C19.5523 20 20 19.5523 20 19C20 18.4477 19.5523 18 19 18ZM16 19C16 17.3432 17.3431 16 19 16C20.6569 16 22 17.3432 22 19C22 20.6569 20.6569 22 19 22C17.3431 22 16 20.6569 16 19Z" fill="black"/>
<path fill-rule="evenodd" clip-rule="evenodd" d="M5 4.00001C4.44772 4.00001 4 4.44772 4 5.00001C4 5.55229 4.44772 6.00001 5 6.00001C5.55229 6.00001 6 5.55229 6 5.00001C6 4.44772 5.55229 4.00001 5 4.00001ZM2 5.00001C2 3.34316 3.34315 2.00001 5 2.00001C6.65686 2.00001 8 3.34316 8 5.00001C8 6.65686 6.65686 8.00001 5 8.00001C3.34315 8.00001 2 6.65686 2 5.00001Z" fill="black"/>
<path fill-rule="evenodd" clip-rule="evenodd" d="M12.9035 3.04038C10.8375 2.833 8.76328 3.34639 7.03249 4.49353C6.57214 4.79865 5.95161 4.67281 5.64649 4.21246C5.34138 3.75211 5.46722 3.13157 5.92757 2.82646C8.04297 1.42439 10.5781 0.79691 13.1033 1.05038C15.6284 1.30385 17.9883 2.42267 19.7828 4.2172C21.5774 6.01174 22.6962 8.37159 22.9496 10.8968C23.2031 13.4219 22.5756 15.9571 21.1736 18.0725C20.8685 18.5328 20.2479 18.6586 19.7876 18.3535C19.3272 18.0484 19.2014 17.4279 19.5065 16.9675C20.6536 15.2368 21.167 13.1626 20.9596 11.0965C20.7523 9.03046 19.8369 7.09967 18.3686 5.63142C16.9004 4.16316 14.9696 3.24776 12.9035 3.04038Z" fill="black"/>
<path fill-rule="evenodd" clip-rule="evenodd" d="M5.70289 5.70286C6.09342 5.31234 6.72658 5.31234 7.11711 5.70286L18.2971 16.8829C18.6876 17.2734 18.6876 17.9066 18.2971 18.2971C17.9066 18.6876 17.2734 18.6876 16.8829 18.2971L5.70289 7.11708C5.31237 6.72655 5.31237 6.09339 5.70289 5.70286Z" fill="black"/>
<path fill-rule="evenodd" clip-rule="evenodd" d="M4.21249 5.64646C4.67284 5.95158 4.79868 6.57211 4.49357 7.03246C3.34642 8.76325 2.83303 10.8374 3.04041 12.9035C3.24779 14.9695 4.16319 16.9003 5.63145 18.3686C7.0997 19.8368 9.03049 20.7522 11.0965 20.9596C13.1626 21.167 15.2368 20.6536 16.9676 19.5065C17.4279 19.2013 18.0484 19.3272 18.3536 19.7875C18.6587 20.2479 18.5328 20.8684 18.0725 21.1735C15.9571 22.5756 13.422 23.2031 10.8968 22.9496C8.37162 22.6961 6.01177 21.5773 4.21723 19.7828C2.4227 17.9883 1.30388 15.6284 1.05041 13.1032C0.796941 10.5781 1.42442 8.04294 2.82649 5.92754C3.1316 5.46719 3.75214 5.34135 4.21249 5.64646Z" fill="black"/>
</g>
<defs>
<clipPath id="clip0_404_39884">
<rect width="24" height="24" fill="white"/>
</clipPath>
</defs>
</svg>
