<svg width="24" height="24" viewBox="0 0 24 24" fill="none" xmlns="http://www.w3.org/2000/svg">
<path d="M20 17C20.5523 17 21 17.4477 21 18C21 18.5523 20.5523 19 20 19H10C9.44772 19 9 18.5523 9 18C9 17.4477 9.44772 17 10 17H20Z" fill="black"/>
<path d="M16.293 14.293C16.6835 13.9024 17.3165 13.9024 17.707 14.293L20.707 17.293C21.0976 17.6835 21.0976 18.3165 20.707 18.707L17.707 21.707C17.3165 22.0976 16.6835 22.0976 16.293 21.707C15.9024 21.3165 15.9024 20.6835 16.293 20.293L18.5859 18L16.293 15.707C15.9024 15.3165 15.9024 14.6835 16.293 14.293Z" fill="black"/>
<path d="M3.00977 10C3.56205 10 4.00977 10.4477 4.00977 11C4.00977 11.5523 3.56205 12 3.00977 12H3C2.44772 12 2 11.5523 2 11C2 10.4477 2.44772 10 3 10H3.00977Z" fill="black"/>
<path d="M19 5.5C19 4.67157 18.3284 4 17.5 4C16.6716 4 16 4.67157 16 5.5V8.5C16 9.32843 16.6716 10 17.5 10C18.3284 10 19 9.32843 19 8.5V5.5ZM21 8.5C21 10.433 19.433 12 17.5 12C15.567 12 14 10.433 14 8.5V5.5C14 3.567 15.567 2 17.5 2C19.433 2 21 3.567 21 5.5V8.5Z" fill="black"/>
<path d="M10 5.5C10 4.67157 9.32843 4 8.5 4C7.67157 4 7 4.67157 7 5.5V8.5C7 9.32843 7.67157 10 8.5 10C9.32843 10 10 9.32843 10 8.5V5.5ZM12 8.5C12 10.433 10.433 12 8.5 12C6.567 12 5 10.433 5 8.5V5.5C5 3.567 6.567 2 8.5 2C10.433 2 12 3.567 12 5.5V8.5Z" fill="black"/>
</svg>
