<svg width="24" height="24" viewBox="0 0 24 24" fill="none" xmlns="http://www.w3.org/2000/svg">
<path fill-rule="evenodd" clip-rule="evenodd" d="M16.4171 13.589C15.8873 13.8433 15.2701 14 14.5 14C13.2799 14 12.4951 13.6325 11.8648 13.1732C11.6797 13.0383 11.4813 12.8734 11.3196 12.739C11.2515 12.6823 11.1898 12.6311 11.1385 12.5898C10.934 12.4255 10.7604 12.3039 10.5683 12.212C10.0701 11.9736 9.85956 11.3764 10.098 10.8783C10.3364 10.3801 10.9336 10.1696 11.4317 10.408C11.8246 10.5961 12.136 10.8257 12.3912 11.0308C12.5008 11.1189 12.5896 11.193 12.6698 11.26C12.7993 11.3681 12.9065 11.4576 13.0427 11.5568C13.3799 11.8025 13.7601 12 14.5 12C14.9799 12 15.3002 11.9067 15.5516 11.786C15.8244 11.6551 16.0528 11.4771 16.3753 11.2191C16.3837 11.2124 16.3921 11.2057 16.4006 11.1989C16.6998 10.9594 17.0884 10.6483 17.5829 10.411C18.1127 10.1567 18.7299 10 19.5 10C20.2888 10 20.9143 10.1541 21.4481 10.4123C21.947 10.6538 22.3275 10.971 22.6152 11.211C22.6236 11.218 22.6319 11.2249 22.6402 11.2318C23.0645 11.5853 23.1218 12.2159 22.7682 12.6402C22.4147 13.0645 21.7841 13.1218 21.3598 12.7682C21.0504 12.5104 20.8384 12.3392 20.5769 12.2127C20.3357 12.0959 20.0112 12 19.5 12C19.0201 12 18.6998 12.0933 18.4484 12.214C18.1756 12.3449 17.9472 12.5229 17.6247 12.7809C17.6163 12.7876 17.6079 12.7943 17.5994 12.8011C17.3002 13.0406 16.9116 13.3517 16.4171 13.589Z" fill="black"/>
<path fill-rule="evenodd" clip-rule="evenodd" d="M16.4171 19.589C15.8873 19.8433 15.2701 20 14.5 20C13.7261 20 13.003 19.852 12.4057 19.6193C11.8408 19.3992 11.2682 19.0555 10.9308 18.5735C10.6141 18.121 10.7241 17.4975 11.1765 17.1808C11.629 16.8641 12.2525 16.9741 12.5692 17.4265C12.5687 17.4259 12.5689 17.4261 12.5692 17.4265C12.5738 17.4319 12.6105 17.4749 12.7061 17.5398C12.8074 17.6085 12.9497 17.6848 13.1318 17.7557C13.497 17.898 13.9739 18 14.5 18C14.9799 18 15.3002 17.9067 15.5517 17.786C15.8244 17.6551 16.0528 17.4771 16.3753 17.2191C16.3837 17.2124 16.3921 17.2057 16.4006 17.1989C16.6998 16.9594 17.0885 16.6483 17.5829 16.411C18.1127 16.1567 18.7299 16 19.5 16C20.2888 16 20.9143 16.1541 21.4481 16.4123C21.947 16.6538 22.3275 16.971 22.6152 17.211C22.6236 17.218 22.632 17.2249 22.6402 17.2318C23.0645 17.5853 23.1218 18.2159 22.7682 18.6402C22.4147 19.0645 21.7841 19.1218 21.3598 18.7682C21.0504 18.5104 20.8385 18.3392 20.5769 18.2127C20.3357 18.0959 20.0112 18 19.5 18C19.0201 18 18.6998 18.0933 18.4484 18.214C18.1756 18.3449 17.9472 18.5229 17.6247 18.7809C17.6163 18.7876 17.6079 18.7943 17.5994 18.8011C17.3002 19.0406 16.9116 19.3517 16.4171 19.589Z" fill="black"/>
<path fill-rule="evenodd" clip-rule="evenodd" d="M1 10C1 9.44772 1.44772 9 2 9H6C6.55228 9 7 9.44772 7 10C7 10.5523 6.55228 11 6 11H2C1.44772 11 1 10.5523 1 10Z" fill="black"/>
<path fill-rule="evenodd" clip-rule="evenodd" d="M1 14C1 13.4477 1.44772 13 2 13H6C6.55228 13 7 13.4477 7 14C7 14.5523 6.55228 15 6 15H2C1.44772 15 1 14.5523 1 14Z" fill="black"/>
<path fill-rule="evenodd" clip-rule="evenodd" d="M1 18C1 17.4477 1.44772 17 2 17H6C6.55228 17 7 17.4477 7 18C7 18.5523 6.55228 19 6 19H2C1.44772 19 1 18.5523 1 18Z" fill="black"/>
<path fill-rule="evenodd" clip-rule="evenodd" d="M1 6C1 5.44772 1.44772 5 2 5H6C6.55228 5 7 5.44772 7 6C7 6.55228 6.55228 7 6 7H2C1.44772 7 1 6.55228 1 6Z" fill="black"/>
<path fill-rule="evenodd" clip-rule="evenodd" d="M5.58579 2.58579C5.96086 2.21071 6.46957 2 7 2H9C9.53043 2 10.0391 2.21071 10.4142 2.58579C10.7721 2.94365 10.9803 3.42316 10.9987 3.92713L12.9923 19.876C12.9974 19.9171 13 19.9585 13 20C13 20.5304 12.7893 21.0391 12.4142 21.4142C12.0391 21.7893 11.5304 22 11 22H7C6.46957 22 5.96086 21.7893 5.58579 21.4142C5.21071 21.0391 5 20.5304 5 20V4C5 3.46957 5.21071 2.96086 5.58579 2.58579ZM9 4H7V20H10.9922L9.00772 4.12403C9.00258 4.08289 9 4.04147 9 4Z" fill="black"/>
</svg>
