<svg width="24" height="24" viewBox="0 0 24 24" fill="none" xmlns="http://www.w3.org/2000/svg">
<g clip-path="url(#clip0_404_39830)">
<path d="M9.646 4.9895C9.646 4.59549 9.72373 4.20509 9.87451 3.84106C10.0253 3.47713 10.2464 3.14598 10.5249 2.86743C10.8035 2.58895 11.1346 2.36777 11.4985 2.21704C11.8623 2.06643 12.2523 1.98956 12.646 1.9895C13.0399 1.9895 13.4305 2.06634 13.7944 2.21704C14.0599 2.327 14.307 2.47576 14.5298 2.65552C14.6761 2.34385 14.8734 2.05496 15.1216 1.80688C15.6842 1.2446 16.4472 0.928882 17.2427 0.928955C18.0382 0.929096 18.8013 1.24531 19.3638 1.80786L22.1919 4.63599L22.3901 4.85376C22.5769 5.08128 22.7292 5.33575 22.8423 5.60864C22.9931 5.9726 23.0707 6.36311 23.0708 6.75708C23.0709 7.15102 22.9939 7.54154 22.8433 7.90552C22.6926 8.26933 22.4712 8.59965 22.1929 8.87817C21.9468 9.12433 21.6577 9.32144 21.3433 9.46899C21.7725 10.0003 22.0112 10.6644 22.0112 11.3538C22.0112 12.1493 21.6948 12.9123 21.1323 13.4749C20.5696 14.0375 19.806 14.3538 19.0103 14.3538C18.2146 14.3537 17.4518 14.0375 16.8892 13.4749L10.5249 7.11157C10.2464 6.83302 10.0253 6.50187 9.87451 6.13794C9.72373 5.77391 9.646 5.38352 9.646 4.9895ZM11.646 4.9895C11.646 5.12087 11.6719 5.25095 11.7222 5.37231C11.7724 5.4936 11.8462 5.60368 11.939 5.69653L18.3032 12.0608C18.4908 12.2483 18.745 12.3537 19.0103 12.3538C19.2756 12.3538 19.5306 12.2484 19.7183 12.0608C19.9056 11.8733 20.0112 11.6189 20.0112 11.3538C20.0112 11.0885 19.9058 10.8334 19.7183 10.6458L17.9497 8.87915C17.5593 8.4887 17.5593 7.85564 17.9497 7.46509C18.3156 7.09902 18.8948 7.07579 19.2876 7.39575L19.3638 7.46509L19.437 7.53149C19.6149 7.67721 19.8388 7.75706 20.0708 7.75708C20.2021 7.75706 20.3323 7.73119 20.4536 7.68091C20.5749 7.63063 20.685 7.55698 20.7778 7.46411C20.8707 7.37124 20.9444 7.26122 20.9946 7.13989C21.0449 7.01856 21.0708 6.8884 21.0708 6.75708C21.0707 6.62584 21.0449 6.49551 20.9946 6.37427C20.957 6.28354 20.9063 6.19897 20.8442 6.12329L20.7778 6.05005L17.9497 3.22192C17.7622 3.03438 17.5079 2.92903 17.2427 2.92896C16.9775 2.92891 16.7232 3.03443 16.5356 3.22192C16.3481 3.40944 16.2427 3.66372 16.2427 3.92896C16.2427 4.19414 16.3482 4.44844 16.5356 4.63599C16.9259 5.02661 16.9252 5.65968 16.5347 6.05005C16.1685 6.41607 15.5895 6.43883 15.1968 6.11841L15.1206 6.05005L13.354 4.28149C13.2611 4.1886 13.1502 4.11595 13.0288 4.06567C12.9075 4.01546 12.7773 3.9895 12.646 3.9895C12.5148 3.98956 12.3844 4.01545 12.2632 4.06567C12.142 4.11594 12.0317 4.18969 11.939 4.28247C11.8462 4.37533 11.7724 4.4854 11.7222 4.60669C11.6719 4.72806 11.646 4.85813 11.646 4.9895Z" fill="black"/>
<path d="M3.19343 19.393C3.58397 19.0026 4.21703 19.0025 4.60749 19.393C4.99776 19.7834 4.99776 20.4165 4.60749 20.807L3.2071 22.2074C2.81663 22.5977 2.18351 22.5977 1.79304 22.2074C1.40258 21.8169 1.40271 21.1839 1.79304 20.7933L3.19343 19.393Z" fill="black"/>
<path d="M20.7933 1.79298C21.1838 1.40265 21.8169 1.40252 22.2073 1.79298C22.5976 2.18345 22.5976 2.81657 22.2073 3.20704L20.807 4.60743C20.4165 4.9977 19.7834 4.9977 19.3929 4.60743C19.0024 4.21697 19.0026 3.58391 19.3929 3.19337L20.7933 1.79298Z" fill="black"/>
<path d="M0.928955 17.2428C0.928882 16.4474 1.2446 15.6843 1.80688 15.1217C2.05496 14.8735 2.34385 14.6762 2.65552 14.5299C2.47576 14.3071 2.327 14.06 2.21704 13.7946C2.06634 13.4306 1.9895 13.04 1.9895 12.6461C1.98956 12.2524 2.06643 11.8624 2.21704 11.4987C2.36777 11.1348 2.58895 10.8036 2.86743 10.525C3.14598 10.2465 3.47713 10.0254 3.84106 9.87463C4.20509 9.72385 4.59549 9.64612 4.9895 9.64612C5.38352 9.64612 5.77391 9.72385 6.13794 9.87463C6.50187 10.0254 6.83302 10.2465 7.11157 10.525L13.4749 16.8893C14.0375 17.4519 14.3537 18.2147 14.3538 19.0104C14.3538 19.8061 14.0375 20.5698 13.4749 21.1324C12.9123 21.6949 12.1493 22.0113 11.3538 22.0114C10.6644 22.0114 10.0003 21.7726 9.46899 21.3434C9.32144 21.6578 9.12433 21.9469 8.87817 22.193C8.59965 22.4713 8.26933 22.6927 7.90552 22.8434C7.54154 22.9941 7.15102 23.071 6.75708 23.0709C6.06084 23.0708 5.3895 22.8288 4.85571 22.3912L4.63599 22.192L1.80786 19.3639C1.24531 18.8014 0.929096 18.0383 0.928955 17.2428ZM3.9895 12.6461C3.9895 12.7774 4.01546 12.9076 4.06567 13.0289C4.11595 13.1503 4.18957 13.2612 4.28247 13.3541L6.05005 15.1207L6.11841 15.1969C6.43883 15.5896 6.41607 16.1686 6.05005 16.5348C5.65968 16.9253 5.02661 16.926 4.63599 16.5358L4.62524 16.525C4.43877 16.3441 4.18918 16.2428 3.92896 16.2428C3.66372 16.2428 3.40944 16.3482 3.22192 16.5358C3.03443 16.7233 2.92891 16.9776 2.92896 17.2428C2.92903 17.508 3.03438 17.7623 3.22192 17.9498L6.05005 20.778L6.12329 20.8444C6.30119 20.9903 6.52499 21.0708 6.75708 21.0709C6.8884 21.0709 7.01856 21.045 7.13989 20.9948C7.26122 20.9445 7.37124 20.8708 7.46411 20.778C7.55698 20.6851 7.63063 20.575 7.68091 20.4537C7.73119 20.3324 7.75706 20.2023 7.75708 20.0709C7.75707 19.9397 7.73209 19.8094 7.68188 19.6881C7.63167 19.5669 7.55784 19.4567 7.46509 19.3639C7.0747 18.9733 7.07451 18.3403 7.46509 17.9498C7.85564 17.5595 8.4887 17.5594 8.87915 17.9498L10.6467 19.7184C10.8343 19.906 11.0885 20.0114 11.3538 20.0114C11.6189 20.0113 11.8733 19.9058 12.0608 19.7184C12.2484 19.5308 12.3538 19.2757 12.3538 19.0104C12.3537 18.7451 12.2483 18.4909 12.0608 18.3033L5.69653 11.9391C5.60368 11.8463 5.4936 11.7725 5.37231 11.7223C5.25095 11.672 5.12087 11.6461 4.9895 11.6461C4.85813 11.6461 4.72806 11.672 4.60669 11.7223C4.4854 11.7725 4.37533 11.8463 4.28247 11.9391C4.18969 12.0319 4.11594 12.1421 4.06567 12.2633C4.01545 12.3846 3.98956 12.5149 3.9895 12.6461Z" fill="black"/>
<path d="M13.6927 8.89294C14.0832 8.50245 14.7163 8.50252 15.1068 8.89294C15.4973 9.28347 15.4973 9.91648 15.1068 10.307L10.307 15.1068C9.91648 15.4973 9.28347 15.4973 8.89294 15.1068C8.50252 14.7163 8.50245 14.0832 8.89294 13.6927L13.6927 8.89294Z" fill="black"/>
</g>
<defs>
<clipPath id="clip0_404_39830">
<rect width="24" height="24" fill="white"/>
</clipPath>
</defs>
</svg>
