<svg width="24" height="24" viewBox="0 0 24 24" fill="none" xmlns="http://www.w3.org/2000/svg">
<path fill-rule="evenodd" clip-rule="evenodd" d="M8.5974 1.5205C10.9286 0.770519 13.4434 0.819888 15.7434 1.66078C16.0192 1.76161 16.2367 1.97857 16.3383 2.25409C16.4398 2.52961 16.4152 2.83584 16.2708 3.09156C16.1025 3.38976 16.0157 3.72703 16.019 4.06945C16.0224 4.41187 16.1159 4.74735 16.2901 5.04216C16.4644 5.33698 16.7131 5.58071 17.0114 5.74886C17.3097 5.91701 17.6471 6.00364 17.9895 6.00003C17.993 6 17.9965 5.99998 18 5.99998H18.1C18.4003 5.99998 18.6847 6.13495 18.8747 6.3676C19.0646 6.60025 19.1399 6.90593 19.0798 7.20017C19.0357 7.41568 19.0396 7.63823 19.0912 7.85205C19.1427 8.06588 19.2407 8.26575 19.3781 8.43751C19.5155 8.60927 19.689 8.7487 19.8863 8.84594C20.0806 8.94173 20.2934 8.99425 20.5099 8.99995C20.8053 8.9981 21.0756 8.91436 21.1453 8.86793C21.4179 8.6862 21.7622 8.64952 22.067 8.76975C22.3717 8.88999 22.5983 9.15188 22.6734 9.47078C23.2346 11.8545 22.9845 14.3573 21.9624 16.5827C20.9404 18.8081 19.205 20.6289 17.0312 21.7564C14.8574 22.884 12.3695 23.254 9.96161 22.8078C7.55374 22.3615 5.36364 21.1245 3.7383 19.2928C2.11296 17.461 1.14533 15.1393 0.988714 12.6954C0.832098 10.2516 1.49545 7.82534 2.87368 5.80113C4.25191 3.77691 6.26619 2.27047 8.5974 1.5205ZM14.1011 3.24881C12.4921 2.85591 10.7989 2.91321 9.20991 3.4244C7.30256 4.03801 5.65451 5.27055 4.52687 6.92673C3.39923 8.58291 2.85648 10.568 2.98462 12.5675C3.11276 14.5671 3.90446 16.4666 5.23428 17.9653C6.56411 19.464 8.356 20.4761 10.3261 20.8412C12.2961 21.2064 14.3317 20.9037 16.1103 19.9811C17.8889 19.0585 19.3088 17.5688 20.1449 15.748C20.8325 14.2509 21.0931 12.6004 20.9088 10.9768C20.763 10.9929 20.6246 11 20.5 11C20.4934 11 20.4868 10.9999 20.4802 10.9998C19.9671 10.9896 19.4625 10.8668 19.0021 10.6399C18.5418 10.413 18.137 10.0877 17.8163 9.6869C17.4957 9.28614 17.2672 8.81977 17.1469 8.32084C17.1131 8.18087 17.0881 8.0393 17.0719 7.89694C16.7084 7.81218 16.3573 7.67597 16.0293 7.49114C15.4251 7.15053 14.9212 6.6568 14.5683 6.05962C14.2154 5.46244 14.026 4.78287 14.0191 4.08925C14.0163 3.8058 14.0441 3.52409 14.1011 3.24881Z" fill="black"/>
<path fill-rule="evenodd" clip-rule="evenodd" d="M12 9.99995C10.8954 9.99995 10 10.8954 10 12C10 13.1045 10.8954 14 12 14C13.1046 14 14 13.1045 14 12C14 10.8954 13.1046 9.99995 12 9.99995ZM8 12C8 9.79081 9.79086 7.99995 12 7.99995C14.2091 7.99995 16 9.79081 16 12C16 14.2091 14.2091 16 12 16C9.79086 16 8 14.2091 8 12Z" fill="black"/>
</svg>
