<svg width="24" height="24" viewBox="0 0 24 24" fill="none" xmlns="http://www.w3.org/2000/svg">
<path fill-rule="evenodd" clip-rule="evenodd" d="M7.98416 4.77832C8.53609 4.2775 9.25468 4.00004 9.99996 4H20C20.7957 4 21.5587 4.31607 22.1213 4.87868C22.684 5.44129 23 6.20435 23 7V17C23 17.7956 22.684 18.5587 22.1213 19.1213C21.5587 19.6839 20.7957 20 20 20H9.99996C9.25459 20 8.53592 19.7224 7.98396 19.2215L1.6561 13.4806C1.44954 13.2932 1.28434 13.0644 1.17138 12.8094C1.05843 12.5543 1.00008 12.2784 1.00008 11.9995C1.00008 11.7206 1.05843 11.4447 1.17138 11.1896C1.28434 10.9346 1.4494 10.706 1.65596 10.5185L7.98416 4.77832C7.98423 4.77826 7.9841 4.77838 7.98416 4.77832ZM3.00008 11.9995L9.32808 6.2595C9.51205 6.09253 9.75158 6.00003 10 6C10 6 10 6 10 6H20C20.2652 6 20.5196 6.10536 20.7071 6.29289C20.8947 6.48043 21 6.73478 21 7V17C21 17.2652 20.8947 17.5196 20.7071 17.7071C20.5196 17.8946 20.2652 18 20 18H10.0001C10.0001 18 10.0001 18 10.0001 18C9.75164 18 9.51205 17.9075 9.32808 17.7405L3.00008 11.9995Z" fill="black"/>
<path fill-rule="evenodd" clip-rule="evenodd" d="M11.2929 8.29289C11.6834 7.90237 12.3166 7.90237 12.7071 8.29289L18.7071 14.2929C19.0976 14.6834 19.0976 15.3166 18.7071 15.7071C18.3166 16.0976 17.6834 16.0976 17.2929 15.7071L11.2929 9.70711C10.9024 9.31658 10.9024 8.68342 11.2929 8.29289Z" fill="black"/>
<path fill-rule="evenodd" clip-rule="evenodd" d="M18.7071 8.29289C19.0976 8.68342 19.0976 9.31658 18.7071 9.70711L12.7071 15.7071C12.3166 16.0976 11.6834 16.0976 11.2929 15.7071C10.9024 15.3166 10.9024 14.6834 11.2929 14.2929L17.2929 8.29289C17.6834 7.90237 18.3166 7.90237 18.7071 8.29289Z" fill="black"/>
</svg>
