<svg width="24" height="24" viewBox="0 0 24 24" fill="none" xmlns="http://www.w3.org/2000/svg">
<path fill-rule="evenodd" clip-rule="evenodd" d="M18.6895 3.35195C17.7164 2.93634 16.4884 2.8705 15.1684 3.2388C13.8489 3.60697 12.544 4.38141 11.4628 5.46266C10.3815 6.54392 9.60707 7.84875 9.23891 9.16828C8.87061 10.4883 8.93645 11.7163 9.35205 12.6894C9.76258 13.6506 10.5102 14.3591 11.5078 14.7239C12.2578 14.9982 13.1418 15.0738 14.0892 14.9207C13.9635 14.2717 13.9884 13.5836 14.1473 12.9068C14.4096 11.7896 15.0278 10.7272 15.8776 9.87745C16.7273 9.02771 17.7897 8.40953 18.9069 8.14721C19.5837 7.98828 20.2718 7.96335 20.9208 8.08914C21.0739 7.14167 20.9983 6.25773 20.724 5.50767C20.3592 4.51006 19.6507 3.76247 18.6895 3.35195ZM14.6309 1.31238C16.3088 0.844227 18.0131 0.888258 19.4751 1.51268C20.949 2.14219 22.0499 3.30985 22.6024 4.82084C23.1503 6.31938 23.1178 8.03597 22.5822 9.70541C22.4901 9.99244 22.2735 10.2226 21.9925 10.3319C21.7116 10.4412 21.3964 10.4179 21.1345 10.2685C20.6979 10.0194 20.084 9.9252 19.364 10.0943C18.6435 10.2635 17.9043 10.6791 17.2918 11.2917C16.6792 11.9042 16.2636 12.6434 16.0944 13.3639C15.9253 14.0839 16.0195 14.6978 16.2686 15.1344C16.418 15.3963 16.4413 15.7115 16.332 15.9924C16.2227 16.2734 15.9925 16.49 15.7055 16.5821C14.0361 17.1177 12.3195 17.1502 10.8209 16.6023C9.30995 16.0498 8.14229 14.9489 7.51278 13.475C6.88836 12.013 6.84433 10.3087 7.31249 8.63079C7.78077 6.95241 8.74493 5.35207 10.0486 4.04845C11.3522 2.74483 12.9525 1.78067 14.6309 1.31238Z" fill="black"/>
<path fill-rule="evenodd" clip-rule="evenodd" d="M8.99711 12.0028C9.38764 12.3934 9.38764 13.0265 8.99711 13.4171L6.39711 16.0171C6.08233 16.3318 5.59737 16.4006 5.20746 16.1858C5.01694 16.0809 4.80586 16.0186 4.58888 16.0033C4.37189 15.9881 4.15418 16.0202 3.95084 16.0974C3.7475 16.1747 3.5634 16.2953 3.4113 16.4508C3.2592 16.6063 3.14274 16.793 3.07 16.998C2.99726 17.203 2.96997 17.4214 2.99004 17.638C3.0101 17.8546 3.07703 18.0642 3.18619 18.2524C3.29535 18.4405 3.44412 18.6027 3.6222 18.7276C3.80027 18.8525 4.00339 18.9372 4.21746 18.9758C4.62198 19.0488 4.94066 19.3618 5.02081 19.7649C5.06282 19.9762 5.14984 20.176 5.27596 20.3506C5.40208 20.5253 5.56433 20.6707 5.75169 20.777C5.93905 20.8834 6.14711 20.9481 6.36171 20.9668C6.57632 20.9855 6.79244 20.9578 6.99537 20.8855C7.1983 20.8132 7.38328 20.698 7.53772 20.5479C7.69217 20.3977 7.81245 20.216 7.89039 20.0152C7.96833 19.8144 8.00211 19.5991 7.98941 19.384C7.97671 19.169 7.91784 18.9592 7.81681 18.7689C7.6107 18.3808 7.68215 17.9036 7.9929 17.5928L10.5829 15.0028C10.9734 14.6123 11.6066 14.6123 11.9971 15.0028C12.3876 15.3934 12.3876 16.0265 11.9971 16.4171L9.86739 18.5468C9.93165 18.7811 9.97153 19.0222 9.98593 19.2662C10.0156 19.7679 9.93676 20.2702 9.75489 20.7388C9.57303 21.2074 9.29236 21.6313 8.93199 21.9817C8.57163 22.3322 8.14001 22.6008 7.6665 22.7695C7.193 22.9382 6.68872 23.0029 6.18797 22.9592C5.68722 22.9156 5.20175 22.7645 4.76459 22.5165C4.32743 22.2684 3.94883 21.929 3.65455 21.5215C3.48651 21.2889 3.34822 21.0371 3.24225 20.7721C2.97088 20.6691 2.71258 20.5325 2.47361 20.3649C2.0581 20.0734 1.71096 19.695 1.45625 19.256C1.20155 18.817 1.04538 18.3278 0.998562 17.8224C0.951748 17.3171 1.01541 16.8075 1.18515 16.3292C1.35488 15.8509 1.62661 15.4152 1.98151 15.0523C2.33641 14.6895 2.76598 14.4081 3.24044 14.2279C3.71489 14.0476 4.22289 13.9726 4.72919 14.0082C4.97399 14.0255 5.21556 14.0683 5.45005 14.1357L7.5829 12.0028C7.97342 11.6123 8.60659 11.6123 8.99711 12.0028Z" fill="black"/>
</svg>
