<svg width="24" height="24" viewBox="0 0 24 24" fill="none" xmlns="http://www.w3.org/2000/svg">
<path fill-rule="evenodd" clip-rule="evenodd" d="M15.6689 1.25671C16.0795 1.62617 16.1127 2.25846 15.7433 2.66897C14.6683 3.86338 14.0232 5.04256 13.6303 6.21616L14.7071 7.2929C15.0976 7.68343 15.0976 8.31659 14.7071 8.70712C14.3166 9.09764 13.6834 9.09764 13.2929 8.70712L11.7929 7.20712C11.5393 6.95354 11.4409 6.58359 11.535 6.23754C11.9827 4.59164 12.7986 2.95118 14.2567 1.33104C14.6261 0.920534 15.2584 0.887255 15.6689 1.25671Z" fill="black"/>
<path fill-rule="evenodd" clip-rule="evenodd" d="M13.4019 2.40192C13.7924 2.01139 14.4256 2.01139 14.8161 2.40192L17.7071 5.29292C18.0977 5.68344 18.0977 6.31661 17.7071 6.70713C17.3166 7.09765 16.6834 7.09765 16.2929 6.70713L13.4019 3.81613C13.0114 3.42561 13.0114 2.79244 13.4019 2.40192Z" fill="black"/>
<path fill-rule="evenodd" clip-rule="evenodd" d="M12 13C8.66841 13 5.69395 13.0205 2.66901 15.7433C2.25852 16.1127 1.62623 16.0795 1.25675 15.669C0.887268 15.2585 0.920515 14.6262 1.33101 14.2567C4.94954 10.9997 8.61991 10.9999 11.9381 11L12 11C12.5523 11 13 11.4477 13 12C13 12.5523 12.5523 13 12 13Z" fill="black"/>
<path fill-rule="evenodd" clip-rule="evenodd" d="M1.29289 1.29289C1.68342 0.902369 2.31658 0.902369 2.70711 1.29289L22.7071 21.2929C23.0976 21.6834 23.0976 22.3166 22.7071 22.7071C22.3166 23.0976 21.6834 23.0976 21.2929 22.7071L1.29289 2.70711C0.902369 2.31658 0.902369 1.68342 1.29289 1.29289Z" fill="black"/>
<path fill-rule="evenodd" clip-rule="evenodd" d="M19.2929 8.29289C19.6834 7.90237 20.3166 7.90237 20.7071 8.29289L21.5981 9.18389C21.9886 9.57442 21.9886 10.2076 21.5981 10.5981C21.2076 10.9886 20.5744 10.9886 20.1839 10.5981L19.2929 9.70711C18.9024 9.31658 18.9024 8.68342 19.2929 8.29289Z" fill="black"/>
<path fill-rule="evenodd" clip-rule="evenodd" d="M22.7433 8.33104C23.1128 8.74155 23.0795 9.37384 22.669 9.7433C21.0488 11.2014 19.4084 12.0173 17.7625 12.465C17.4164 12.5591 17.0465 12.4607 16.7929 12.2071L15.7929 11.2071C15.4024 10.8166 15.4024 10.1834 15.7929 9.7929C16.1834 9.40238 16.8166 9.40238 17.2071 9.7929L17.7838 10.3696C18.9575 9.97678 20.1366 9.33168 21.331 8.25671C21.7415 7.88726 22.3738 7.92053 22.7433 8.33104Z" fill="black"/>
<path fill-rule="evenodd" clip-rule="evenodd" d="M2.40192 13.4019C2.79244 13.0114 3.42561 13.0114 3.81613 13.4019L4.70713 14.2929C5.09765 14.6834 5.09765 15.3166 4.70713 15.7071C4.31661 16.0977 3.68344 16.0977 3.29292 15.7071L2.40192 14.8161C2.01139 14.4256 2.01139 13.7924 2.40192 13.4019Z" fill="black"/>
<path fill-rule="evenodd" clip-rule="evenodd" d="M5.79289 11.7929C6.18342 11.4024 6.81658 11.4024 7.20711 11.7929L8.20711 12.7929C8.59763 13.1834 8.59763 13.8166 8.20711 14.2071C7.81658 14.5976 7.18342 14.5976 6.79289 14.2071L5.79289 13.2071C5.40237 12.8166 5.40237 12.1834 5.79289 11.7929Z" fill="black"/>
<path fill-rule="evenodd" clip-rule="evenodd" d="M6.29289 17.2929C6.68342 16.9024 7.31658 16.9024 7.70711 17.2929L10.5981 20.1839C10.9886 20.5744 10.9886 21.2076 10.5981 21.5981C10.2076 21.9886 9.57442 21.9886 9.18389 21.5981L6.29289 18.7071C5.90237 18.3166 5.90237 17.6834 6.29289 17.2929Z" fill="black"/>
<path fill-rule="evenodd" clip-rule="evenodd" d="M9.2929 15.2929C9.68343 14.9024 10.3166 14.9024 10.7071 15.2929L12.2071 16.7929C12.4607 17.0465 12.5591 17.4164 12.465 17.7625C12.0173 19.4084 11.2014 21.0488 9.7433 22.669C9.37384 23.0795 8.74155 23.1128 8.33104 22.7433C7.92053 22.3738 7.88726 21.7415 8.25671 21.331C9.33168 20.1366 9.97678 18.9575 10.3696 17.7838L9.2929 16.7071C8.90238 16.3166 8.90238 15.6834 9.2929 15.2929Z" fill="black"/>
</svg>
