<svg width="24" height="24" viewBox="0 0 24 24" fill="none" xmlns="http://www.w3.org/2000/svg">
<path d="M3 19C3 19.5304 3.21087 20.039 3.58594 20.4141C3.96101 20.7891 4.46957 21 5 21H10V19H3ZM12 21C12 21.5304 11.7891 22.039 11.4141 22.4141C11.039 22.7891 10.5304 23 10 23H5C3.93913 23 2.92202 22.5783 2.17188 21.8281C1.42173 21.078 1 20.0609 1 19C1 18.4696 1.21086 17.961 1.58594 17.5859C1.96101 17.2109 2.46957 17 3 17H10C10.5304 17 11.039 17.2109 11.4141 17.5859C11.7891 17.961 12 18.4696 12 19V21Z" fill="black"/>
<path d="M4 3C3.73478 3 3.4805 3.10543 3.29297 3.29297C3.10543 3.4805 3 3.73478 3 4V8C3 8.26522 3.10543 8.51949 3.29297 8.70703C3.48051 8.89457 3.73478 9 4 9H13V3H4ZM15 9C15 9.53043 14.7891 10.039 14.4141 10.4141C14.2425 10.5856 14.0419 10.72 13.8252 10.8184L13.1602 13.4844C13.0521 13.9171 12.8026 14.3016 12.4512 14.5762C12.0998 14.8507 11.6666 14.9998 11.2207 15H8C7.44772 15 7 14.5523 7 14C7 13.4477 7.44772 13 8 13H11.2197L11.7197 11H4C3.20435 11 2.44151 10.6837 1.87891 10.1211C1.3163 9.55849 1 8.79565 1 8V4C1 3.20435 1.3163 2.44152 1.87891 1.87891C2.44152 1.3163 3.20435 1 4 1H13C13.5304 1 14.039 1.21086 14.4141 1.58594C14.7891 1.96101 15 2.46957 15 3V9Z" fill="black"/>
<path d="M17 7V5H14C13.4477 5 13 4.55228 13 4C13 3.44772 13.4477 3 14 3H17C17.5304 3 18.039 3.21086 18.4141 3.58594C18.7891 3.96101 19 4.46957 19 5V7C19 7.53043 18.7891 8.03899 18.4141 8.41406C18.039 8.78913 17.5304 9 17 9H14C13.4477 9 13 8.55228 13 8C13 7.44772 13.4477 7 14 7H17Z" fill="black"/>
<path d="M22 5C22.5523 5 23 5.44772 23 6C23 6.55228 22.5523 7 22 7H18C17.4477 7 17 6.55228 17 6C17 5.44772 17.4477 5 18 5H22Z" fill="black"/>
<path d="M4.03029 9.75783C4.16422 9.22211 4.70648 8.89649 5.2422 9.03029C5.77792 9.16422 6.10354 9.70648 5.96974 10.2422L3.96974 18.2422C3.83581 18.7779 3.29355 19.1035 2.75783 18.9697C2.22211 18.8358 1.89649 18.2935 2.03029 17.7578L4.03029 9.75783Z" fill="black"/>
<path d="M8.03029 9.75783C8.16422 9.22211 8.70648 8.89649 9.2422 9.03029C9.77792 9.16422 10.1035 9.70648 9.96974 10.2422L7.96974 18.2422C7.83581 18.7779 7.29355 19.1035 6.75783 18.9697C6.22211 18.8358 5.89649 18.2935 6.03029 17.7578L8.03029 9.75783Z" fill="black"/>
</svg>
