<svg width="24" height="24" viewBox="0 0 24 24" fill="none" xmlns="http://www.w3.org/2000/svg">
<path fill-rule="evenodd" clip-rule="evenodd" d="M10.3261 15.8673C10.4809 15.4937 10.8455 15.25 11.25 15.25H12.75C13.1545 15.25 13.5191 15.4937 13.6739 15.8673C13.8287 16.241 13.7431 16.6711 13.4571 16.9571L12.7071 17.7071C12.3166 18.0977 11.6834 18.0977 11.2929 17.7071L10.5429 16.9571C10.2569 16.6711 10.1713 16.241 10.3261 15.8673Z" fill="black"/>
<path fill-rule="evenodd" clip-rule="evenodd" d="M16 13C16.5523 13 17 13.4477 17 14V14.5C17 15.0523 16.5523 15.5 16 15.5C15.4477 15.5 15 15.0523 15 14.5V14C15 13.4477 15.4477 13 16 13Z" fill="black"/>
<path fill-rule="evenodd" clip-rule="evenodd" d="M19.2198 10.2891C19.7488 10.1305 20.3062 10.4308 20.4649 10.9598C20.8144 12.1252 20.9946 13.3348 21 14.5515C21 14.553 21 14.5545 21 14.556C21 16.9648 19.9499 18.8683 18.2581 20.1415C16.5951 21.393 14.3668 22 12 22C9.6332 22 7.40498 21.393 5.74196 20.1415C4.05023 18.8684 3.00015 16.965 3.00001 14.5565C2.99897 13.3554 3.15083 12.159 3.45195 10.9963C3.5904 10.4617 4.13606 10.1405 4.67071 10.2789C5.20536 10.4174 5.52654 10.9631 5.38808 11.4977C5.12949 12.4962 4.99909 13.5236 5.00001 14.5551C5.00001 16.3183 5.7409 17.6377 6.94456 18.5435C8.17705 19.471 9.94883 20 12 20C14.0512 20 15.823 19.471 17.0555 18.5435C18.2586 17.6381 18.9994 16.3203 19 14.5582C18.9952 13.5339 18.8434 12.5155 18.5492 11.5342C18.3905 11.0052 18.6908 10.4478 19.2198 10.2891Z" fill="black"/>
<path fill-rule="evenodd" clip-rule="evenodd" d="M8.00001 13C8.55229 13 9.00001 13.4477 9.00001 14V14.5C9.00001 15.0523 8.55229 15.5 8.00001 15.5C7.44772 15.5 7.00001 15.0523 7.00001 14.5V14C7.00001 13.4477 7.44772 13 8.00001 13Z" fill="black"/>
<path fill-rule="evenodd" clip-rule="evenodd" d="M8.51225 4.32111C8.05139 4.02973 7.38816 3.8656 6.66469 3.98637C6.27077 4.05195 5.85353 4.30725 5.42662 4.80403C5.00144 5.29878 4.62748 5.96452 4.32036 6.6923C4.01575 7.41416 3.79399 8.15621 3.65622 8.77152C3.58744 9.07869 3.54166 9.34502 3.51642 9.55339C3.50391 9.65672 3.49717 9.73981 3.49453 9.80253C3.50097 9.8091 3.50836 9.81635 3.51683 9.82427C3.60487 9.90668 3.76241 10.0133 3.98984 10.0999C4.43672 10.2701 5.07931 10.3349 5.80548 10.0635C5.80537 10.0635 5.80559 10.0634 5.80548 10.0635C6.71252 9.72384 7.24335 9.02478 7.56087 8.15655C7.75056 7.63786 8.32482 7.37116 8.8435 7.56085C9.36219 7.75054 9.62889 8.3248 9.4392 8.84348C8.98876 10.0751 8.12135 11.3321 6.50659 11.9366C5.3019 12.387 4.15628 12.3034 3.27798 11.9689C2.84279 11.8032 2.45339 11.5683 2.15015 11.2845C1.86781 11.0202 1.56422 10.6208 1.50645 10.1131C1.45742 9.68184 1.55476 9.00342 1.70454 8.33451C1.86508 7.61757 2.12107 6.75987 2.47771 5.91473C2.83185 5.07551 3.30263 4.207 3.90977 3.5005C4.51509 2.79613 5.318 2.18318 6.33539 2.01366C6.33526 2.01368 6.33551 2.01364 6.33539 2.01366M6.33539 2.01366C7.53476 1.81356 8.69729 2.07187 9.58107 2.63067C10.1314 2.97864 10.6125 3.47368 10.8925 4.07635C11.6839 3.97265 12.4861 3.98098 13.2751 4.10109C13.572 3.49047 14.0777 2.99344 14.6348 2.64741C15.5368 2.0872 16.7236 1.81211 17.9313 2.01359C18.9487 2.18311 19.752 2.79613 20.3573 3.5005C20.9644 4.207 21.4352 5.07551 21.7894 5.91473C22.146 6.75987 22.402 7.61757 22.5625 8.33451C22.7123 9.00342 22.8097 9.68173 22.7606 10.113C22.7029 10.6207 22.3993 11.0202 22.1169 11.2845C21.8137 11.5683 21.4243 11.8032 20.9891 11.9689C20.1108 12.3034 18.9655 12.3871 17.7608 11.9367C16.1063 11.3174 15.3625 10.0182 14.9329 8.84348C14.7432 8.3248 15.0099 7.75054 15.5286 7.56085C16.0473 7.37116 16.6215 7.63786 16.8112 8.15655C17.1495 9.08166 17.594 9.73862 18.4613 10.0633C19.1874 10.3348 19.8304 10.2701 20.2772 10.0999C20.5047 10.0133 20.6622 9.90668 20.7502 9.82427C20.7587 9.81635 20.7661 9.8091 20.7725 9.80253C20.7699 9.73981 20.7632 9.65672 20.7507 9.55339C20.7254 9.34502 20.6796 9.07869 20.6109 8.77152C20.4731 8.15621 20.2513 7.41416 19.9467 6.6923C19.6396 5.96452 19.2656 5.29878 18.8405 4.80403C18.4135 4.30725 17.9967 4.05202 17.6028 3.98644C16.8876 3.86706 16.1907 4.0354 15.69 4.34637C15.1691 4.66992 15 5.04294 15 5.27702C15 5.58944 14.854 5.88391 14.6053 6.07302C14.3566 6.26213 14.0339 6.32414 13.7328 6.24064C12.643 5.93842 11.4933 5.92587 10.3972 6.20425C10.0981 6.28021 9.78068 6.21383 9.5371 6.02437C9.29351 5.83491 9.15104 5.54361 9.15104 5.23502C9.15104 4.97771 8.98512 4.6201 8.51225 4.32111" fill="black"/>
</svg>
