<svg width="24" height="24" viewBox="0 0 24 24" fill="none" xmlns="http://www.w3.org/2000/svg">
<path d="M12.293 14.293C12.6835 13.9024 13.3165 13.9024 13.707 14.293C14.0976 14.6835 14.0976 15.3165 13.707 15.707L11.4141 18L13.707 20.293C14.0976 20.6835 14.0976 21.3165 13.707 21.707C13.3165 22.0976 12.6835 22.0976 12.293 21.707L9.29297 18.707C8.90244 18.3165 8.90244 17.6835 9.29297 17.293L12.293 14.293Z" fill="black"/>
<path d="M20 17C20.5523 17 21 17.4477 21 18C21 18.5523 20.5523 19 20 19H10C9.44772 19 9 18.5523 9 18C9 17.4477 9.44772 17 10 17H20Z" fill="black"/>
<path d="M3.00977 10C3.56205 10 4.00977 10.4477 4.00977 11C4.00977 11.5523 3.56205 12 3.00977 12H3C2.44772 12 2 11.5523 2 11C2 10.4477 2.44772 10 3 10H3.00977Z" fill="black"/>
<path d="M10 5.5C10 4.67157 9.32843 4 8.5 4C7.67157 4 7 4.67157 7 5.5V8.5C7 9.32843 7.67157 10 8.5 10C9.32843 10 10 9.32843 10 8.5V5.5ZM12 8.5C12 10.433 10.433 12 8.5 12C6.567 12 5 10.433 5 8.5V5.5C5 3.567 6.567 2 8.5 2C10.433 2 12 3.567 12 5.5V8.5Z" fill="black"/>
</svg>
