<svg width="24" height="24" viewBox="0 0 24 24" fill="none" xmlns="http://www.w3.org/2000/svg">
<path d="M6.29296 6.29297C6.68349 5.90244 7.3165 5.90244 7.70702 6.29297L10.707 9.29297C11.0975 9.68349 11.0975 10.3165 10.707 10.707C10.3165 11.0976 9.68349 11.0976 9.29296 10.707L6.29296 7.70703C5.90244 7.31651 5.90244 6.68349 6.29296 6.29297Z" fill="black"/>
<path d="M9.29296 13.293C9.68349 12.9024 10.3165 12.9024 10.707 13.293C11.0975 13.6835 11.0975 14.3165 10.707 14.707L7.70702 17.707C7.3165 18.0976 6.68349 18.0976 6.29296 17.707C5.90244 17.3165 5.90244 16.6835 6.29296 16.293L9.29296 13.293Z" fill="black"/>
<path d="M16.293 6.29297C16.6835 5.90244 17.3165 5.90244 17.707 6.29297C18.0975 6.68349 18.0975 7.3165 17.707 7.70703L14.707 10.707C14.3165 11.0976 13.6835 11.0976 13.293 10.707C12.9024 10.3165 12.9024 9.68349 13.293 9.29297L16.293 6.29297Z" fill="black"/>
<path d="M13.293 13.293C13.6835 12.9024 14.3165 12.9024 14.707 13.293L17.707 16.293C18.0975 16.6835 18.0975 17.3165 17.707 17.707C17.3165 18.0976 16.6835 18.0976 16.293 17.707L13.293 14.707C12.9024 14.3165 12.9024 13.6835 13.293 13.293Z" fill="black"/>
<path d="M17.123 2.00234C17.7901 2.01876 18.4472 2.16841 19.0556 2.44277C19.664 2.71722 20.212 3.11067 20.6659 3.6C21.1197 4.08921 21.4711 4.66432 21.6991 5.2914C21.9272 5.91868 22.0277 6.58573 21.9941 7.25234C21.9604 7.91891 21.7929 8.57213 21.5028 9.17324C21.2128 9.77426 20.8054 10.3112 20.3046 10.7523C19.8902 11.1172 19.2585 11.0769 18.8935 10.6625C18.5287 10.2481 18.569 9.61632 18.9833 9.25136C19.2837 8.98672 19.5281 8.66465 19.7021 8.3041C19.876 7.9435 19.9758 7.55162 19.996 7.15175C20.0162 6.75179 19.9561 6.35136 19.8193 5.975C19.6824 5.59873 19.4714 5.25388 19.1991 4.96035C18.9268 4.66675 18.5984 4.43068 18.2333 4.26601C17.8684 4.10142 17.4743 4.01125 17.0741 4.00136C16.6738 3.99151 16.275 4.06189 15.9023 4.20839C15.5298 4.35483 15.1905 4.57434 14.9042 4.8539C14.5091 5.23982 13.8751 5.23238 13.4892 4.8373C13.1037 4.4422 13.1109 3.80901 13.5058 3.42324C13.9832 2.95686 14.5497 2.59125 15.1708 2.34707C15.792 2.1029 16.4558 1.98593 17.123 2.00234Z" fill="black"/>
<path d="M18.8827 13.3437C19.2453 12.9272 19.8773 12.8835 20.2939 13.2461C20.7987 13.6856 21.2101 14.2218 21.5038 14.8232C21.7976 15.4248 21.9678 16.0795 22.0038 16.748C22.0398 17.4164 21.9411 18.0853 21.7138 18.7148C21.4864 19.3445 21.1344 19.9228 20.6796 20.4141C20.2249 20.9051 19.6764 21.3001 19.0663 21.5752C18.456 21.8504 17.7962 22.0001 17.1269 22.0156C16.4577 22.0312 15.7922 21.9125 15.1698 21.666C14.5475 21.4195 13.9809 21.0505 13.5038 20.5811C13.1103 20.1938 13.105 19.5606 13.4921 19.167C13.8795 18.7734 14.5125 18.768 14.9062 19.1553C15.1925 19.437 15.5327 19.6587 15.9062 19.8066C16.2796 19.9545 16.6794 20.0259 17.081 20.0166C17.4824 20.0072 17.878 19.917 18.2441 19.752C18.6102 19.5868 18.9399 19.3495 19.2128 19.0547C19.4855 18.76 19.6966 18.4137 19.8329 18.0361C19.9693 17.6583 20.0284 17.2566 20.0068 16.8555C19.9851 16.4545 19.8831 16.062 19.7069 15.7012C19.5307 15.3402 19.2834 15.0176 18.9804 14.7539C18.5641 14.3913 18.5203 13.7603 18.8827 13.3437Z" fill="black"/>
<path d="M6.88503 1.9832C7.5548 1.96881 8.22069 2.08976 8.84304 2.3377C9.46532 2.58564 10.0317 2.95559 10.5081 3.42656C10.9008 3.81489 10.9042 4.4489 10.5159 4.8416C10.1276 5.23394 9.49444 5.23748 9.10183 4.84942C8.81597 4.56674 8.47628 4.34391 8.10281 4.19512C7.7294 4.04636 7.32986 3.97457 6.928 3.9832C6.52608 3.99187 6.12968 4.08115 5.76296 4.2459C5.39632 4.41064 5.06661 4.6475 4.79324 4.94219C4.51985 5.23691 4.30796 5.58372 4.17117 5.96172C4.03449 6.33958 3.97491 6.74113 3.99636 7.14238C4.01784 7.54383 4.11981 7.93736 4.29617 8.29863C4.47252 8.65984 4.72045 8.98207 5.02371 9.2459C5.43998 9.60841 5.48363 10.2395 5.12136 10.6561C4.75886 11.0727 4.1269 11.1172 3.71023 10.7547C3.20478 10.3149 2.7932 9.77767 2.49929 9.17559C2.20543 8.57359 2.03514 7.91873 1.99929 7.24981C1.96349 6.58076 2.0633 5.91108 2.29128 5.28106C2.51925 4.65111 2.87087 4.073 3.32644 3.58184C3.78213 3.09062 4.33244 2.69626 4.94363 2.42168C5.55482 2.14711 6.21516 1.99765 6.88503 1.9832Z" fill="black"/>
<path d="M3.70437 13.239C4.11833 12.8738 4.75005 12.9132 5.1155 13.3269C5.48097 13.741 5.44167 14.3735 5.02761 14.739C4.72798 15.0035 4.48437 15.3253 4.31081 15.6853C4.13722 16.0454 4.03715 16.4364 4.01687 16.8357C3.99658 17.2349 4.05644 17.6346 4.19265 18.0105C4.32884 18.3861 4.53865 18.7307 4.80984 19.0242C5.0812 19.3177 5.40872 19.5542 5.77273 19.7195C6.13673 19.8847 6.53034 19.9759 6.92995 19.987C7.32947 19.9981 7.72735 19.9287 8.09988 19.7839C8.4724 19.6391 8.81269 19.4213 9.09988 19.1433C9.49672 18.7595 10.1299 18.77 10.5139 19.1667C10.8977 19.5636 10.8872 20.1968 10.4905 20.5808C10.0119 21.0441 9.44534 21.4068 8.82448 21.6482C8.2035 21.8895 7.54027 22.0045 6.87429 21.9861C6.20826 21.9676 5.55226 21.8162 4.94558 21.5408C4.33896 21.2653 3.79333 20.8708 3.34109 20.3816C2.88896 19.8924 2.53875 19.3174 2.31179 18.6911C2.08489 18.0649 1.986 17.3994 2.0198 16.7341C2.05361 16.0689 2.21984 15.4172 2.50905 14.8171C2.79839 14.2169 3.20483 13.6799 3.70437 13.239Z" fill="black"/>
<path d="M11 9V15H13V9H11ZM15 15C15 16.1046 14.1046 17 13 17H11C9.89542 17 8.99999 16.1046 8.99999 15V9C8.99999 7.89543 9.89542 7 11 7H13C14.1046 7 15 7.89543 15 9V15Z" fill="black"/>
</svg>
