<svg width="24" height="24" viewBox="0 0 24 24" fill="none" xmlns="http://www.w3.org/2000/svg">
<path fill-rule="evenodd" clip-rule="evenodd" d="M12 3C7.02944 3 3 7.02944 3 12C3 16.9706 7.02944 21 12 21C16.9706 21 21 16.9706 21 12C21 7.02944 16.9706 3 12 3ZM1 12C1 5.92487 5.92487 1 12 1C18.0751 1 23 5.92487 23 12C23 18.0751 18.0751 23 12 23C5.92487 23 1 18.0751 1 12Z" fill="black"/>
<path fill-rule="evenodd" clip-rule="evenodd" d="M8.53994 7.12733C8.91145 7.53599 8.88133 8.16844 8.47267 8.53995C7.58454 9.34734 7 10.5771 7 12C7 12.5523 6.55228 13 6 13C5.44772 13 5 12.5523 5 12C5 10.0229 5.81546 8.25268 7.12733 7.06007C7.53598 6.68856 8.16843 6.71868 8.53994 7.12733Z" fill="black"/>
<path fill-rule="evenodd" clip-rule="evenodd" d="M12 11C11.4477 11 11 11.4477 11 12C11 12.5523 11.4477 13 12 13C12.5523 13 13 12.5523 13 12C13 11.4477 12.5523 11 12 11ZM9 12C9 10.3431 10.3431 9 12 9C13.6569 9 15 10.3431 15 12C15 13.6569 13.6569 15 12 15C10.3431 15 9 13.6569 9 12Z" fill="black"/>
<path fill-rule="evenodd" clip-rule="evenodd" d="M18 11C18.5523 11 19 11.4477 19 12C19 13.9771 18.1846 15.7473 16.8727 16.9399C16.464 17.3114 15.8316 17.2813 15.4601 16.8727C15.0886 16.464 15.1187 15.8316 15.5273 15.4601C16.4155 14.6527 17 13.4229 17 12C17 11.4477 17.4477 11 18 11Z" fill="black"/>
</svg>
