<svg width="24" height="24" viewBox="0 0 24 24" fill="none" xmlns="http://www.w3.org/2000/svg">
<path fill-rule="evenodd" clip-rule="evenodd" d="M7 4.30002C7.47668 4.30002 7.8871 4.63648 7.98058 5.1039C8.22292 6.31561 8.95318 7.49469 9.92213 8.28515C11.2407 9.36085 12 10.726 12 12.25C12 15.0093 9.76515 17.3 7 17.3C4.23484 17.3 2 15.0093 2 12.25C2 10.744 2.74214 9.35368 4.0853 8.27915C5.05247 7.50542 5.77579 6.32207 6.01942 5.1039C6.1129 4.63648 6.52332 4.30002 7 4.30002ZM7.0031 7.94526C6.55461 8.66946 5.98735 9.31876 5.3347 9.84089C4.37786 10.6064 4 11.4561 4 12.25C4 13.9307 5.36516 15.3 7 15.3C8.63484 15.3 10 13.9307 10 12.25C10 11.454 9.61928 10.6192 8.65787 9.83488C8.01647 9.31164 7.45197 8.66599 7.0031 7.94526Z" fill="black"/>
<path fill-rule="evenodd" clip-rule="evenodd" d="M14.0041 2.02003C14.4792 2.02199 14.8874 2.358 14.9806 2.8239C15.4326 5.0838 16.8008 7.28004 18.6247 8.73915C20.8037 10.4823 21.9993 12.6482 22 15.0179C22.0061 16.5976 21.5433 18.1435 20.6701 19.4599C19.7966 20.7768 18.5517 21.8048 17.0932 22.4134C15.6348 23.022 14.0285 23.1838 12.4779 22.8784C10.9274 22.573 9.50241 21.8141 8.38369 20.6979C7.99273 20.3078 7.99201 19.6747 8.3821 19.2837C8.77219 18.8927 9.40535 18.892 9.79631 19.2821C10.6347 20.1186 11.7025 20.6873 12.8644 20.9161C14.0264 21.145 15.2301 21.0237 16.323 20.5676C17.4159 20.1116 18.3488 19.3413 19.0035 18.3544C19.6581 17.3675 20.0049 16.2084 20 15.0242L20 15.02C20 13.3906 19.1957 11.7572 17.3753 10.3009C15.9774 9.1826 14.8042 7.70827 13.9986 6.07047C13.8199 6.43301 13.6228 6.78686 13.4077 7.13055C13.1147 7.5987 12.4976 7.74069 12.0295 7.44768C11.5613 7.15468 11.4193 6.53764 11.7123 6.06949C12.3374 5.07078 12.7805 3.96919 13.0211 2.81583C13.1181 2.35071 13.529 2.01807 14.0041 2.02003Z" fill="black"/>
</svg>
