<svg width="24" height="24" viewBox="0 0 24 24" fill="none" xmlns="http://www.w3.org/2000/svg">
<path d="M12.8564 2.98441C12.958 2.44171 13.4798 2.08336 14.0225 2.1846C16.5445 2.65645 18.8226 3.99597 20.4619 5.96976C22.1008 7.94314 22.9988 10.427 23 12.9922L22.9854 13.2891C22.9182 13.9759 22.6155 14.6223 22.124 15.1153C21.5624 15.6784 20.8003 15.9958 20.0049 15.9971C19.2092 15.9983 18.4453 15.6829 17.8818 15.1211C17.3186 14.5595 17.0013 13.7974 17 13.002V12C17 11.7348 16.8946 11.4805 16.707 11.293C16.5195 11.1055 16.2652 11 16 11C15.7348 11 15.4805 11.1055 15.293 11.293C15.1054 11.4805 15 11.7348 15 12V16C15 16.7957 14.6837 17.5585 14.1211 18.1211C13.5585 18.6837 12.7956 19 12 19C11.2044 19 10.4415 18.6837 9.87891 18.1211C9.3163 17.5585 9 16.7957 9 16V12C9 11.7348 8.89457 11.4805 8.70703 11.293C8.51949 11.1055 8.26522 11 8 11C7.73478 11 7.48051 11.1055 7.29297 11.293C7.10544 11.4805 7 11.7348 7 12V13C7 13.7957 6.6837 14.5585 6.12109 15.1211C5.55849 15.6837 4.79565 16 4 16C3.20435 16 2.44152 15.6837 1.87891 15.1211C1.38671 14.6289 1.08291 13.9835 1.01465 13.2969L1 13C0.999214 10.4329 1.8965 7.94605 3.53613 5.97074C5.17583 3.99546 7.45509 2.65547 9.97852 2.18363C10.5213 2.08236 11.043 2.44068 11.1445 2.98343C11.246 3.52626 10.8885 4.04892 10.3457 4.15042C8.28121 4.5365 6.41672 5.63207 5.0752 7.24808C3.73362 8.86432 2.99929 10.8995 3 13C3 13.2652 3.10543 13.5195 3.29297 13.7071C3.48051 13.8946 3.73479 14 4 14C4.26521 14 4.5195 13.8946 4.70703 13.7071C4.89457 13.5195 5 13.2652 5 13V12C5 11.2044 5.3163 10.4415 5.87891 9.87894C6.44152 9.31633 7.20435 9.00003 8 9.00003C8.79565 9.00003 9.55849 9.31633 10.1211 9.87894C10.6837 10.4415 11 11.2044 11 12V16C11 16.2652 11.1054 16.5195 11.293 16.7071C11.4805 16.8946 11.7348 17 12 17C12.2652 17 12.5195 16.8946 12.707 16.7071C12.8946 16.5195 13 16.2652 13 16V12C13 11.2044 13.3163 10.4415 13.8789 9.87894C14.4415 9.31633 15.2044 9.00003 16 9.00003C16.7957 9.00003 17.5585 9.31633 18.1211 9.87894C18.6837 10.4415 19 11.2044 19 12V12.9981L19.0049 13.0977C19.028 13.3264 19.1297 13.5413 19.2939 13.7051C19.4818 13.8924 19.7367 13.9975 20.002 13.9971C20.2669 13.9966 20.5209 13.8908 20.708 13.7032C20.8953 13.5153 21.0004 13.2604 21 12.9952C20.9992 10.896 20.265 8.86195 18.9238 7.2471C17.5826 5.63225 15.7187 4.5375 13.6553 4.1514C13.1125 4.04985 12.755 3.5272 12.8564 2.98441Z" fill="black"/>
<path d="M19.8259 14.661C19.9407 14.1211 20.4714 13.776 21.0115 13.8905C21.5517 14.0051 21.8966 14.5368 21.782 15.077C21.3062 17.3186 20.0753 19.3289 18.2947 20.7714C16.514 22.2139 14.2915 23.0009 11.9998 23.0009C9.70826 23.0008 7.48642 22.2137 5.70581 20.7714C3.92518 19.3289 2.69325 17.3187 2.21753 15.077C2.10292 14.5369 2.44799 14.0053 2.98804 13.8905C3.52817 13.7759 4.05976 14.121 4.17456 14.661C4.55509 16.4544 5.54002 18.0636 6.9646 19.2177C8.38905 20.3714 10.1666 21.0008 11.9998 21.0009C13.8331 21.0009 15.6113 20.3716 17.0359 19.2177C18.4605 18.0636 19.4454 16.4544 19.8259 14.661Z" fill="black"/>
<path d="M13 4C13 3.44772 12.5523 3 12 3C11.4477 3 11 3.44772 11 4C11 4.55228 11.4477 5 12 5C12.5523 5 13 4.55228 13 4ZM15 4C15 5.65685 13.6569 7 12 7C10.3431 7 9 5.65685 9 4C9 2.34315 10.3431 1 12 1C13.6569 1 15 2.34315 15 4Z" fill="black"/>
</svg>
