<svg width="24" height="24" viewBox="0 0 24 24" fill="none" xmlns="http://www.w3.org/2000/svg">
<path d="M12.0017 2.00005C12.4776 2.00098 12.8868 2.33718 12.9802 2.80376C13.4322 5.0636 14.801 7.25969 16.6248 8.7188C18.1284 9.92144 19.1707 11.3278 19.6677 12.8809C19.8361 13.4069 19.5453 13.9704 19.0193 14.1387C18.4936 14.3067 17.9309 14.0169 17.7625 13.4913C17.4096 12.3886 16.6399 11.2925 15.3758 10.2813C13.9779 9.16301 12.8054 7.68767 11.9998 6.04985C11.7489 6.52849 11.1623 6.72333 10.6746 6.48345C10.1792 6.23957 9.9748 5.64003 10.2185 5.14458C10.5848 4.40061 10.8545 3.61233 11.0203 2.79985L11.0418 2.71391C11.1671 2.29315 11.5557 1.99927 12.0017 2.00005Z" fill="black"/>
<path d="M1.29295 1.29302C1.68348 0.902491 2.31649 0.902491 2.70702 1.29302L22.707 21.293C23.0975 21.6835 23.0975 22.3166 22.707 22.7071C22.3165 23.0976 21.6835 23.0976 21.293 22.7071L1.29295 2.70708C0.90243 2.31655 0.90243 1.68354 1.29295 1.29302Z" fill="black"/>
<path d="M3.99999 15.0002C3.99999 12.6296 5.1954 10.4626 7.37499 8.71892C7.62576 8.51783 7.86739 8.30553 8.09764 8.08123C8.49324 7.69585 9.12632 7.70322 9.5117 8.0988C9.89695 8.49426 9.88833 9.12745 9.49315 9.51287C9.21662 9.78225 8.92716 10.039 8.62596 10.2804C6.80559 11.7367 5.99999 13.3708 5.99999 15.0002C5.99986 16.3454 6.45176 17.6516 7.28319 18.7092C8.11467 19.7666 9.2777 20.514 10.5849 20.8312C11.8923 21.1484 13.2685 21.017 14.4922 20.4582C15.7158 19.8993 16.7166 18.9458 17.333 17.7502C17.586 17.2593 18.1897 17.0665 18.6806 17.3195C19.1711 17.5727 19.3641 18.1755 19.1113 18.6662C18.2894 20.2606 16.9549 21.5323 15.3232 22.2775C13.6916 23.0227 11.8565 23.1985 10.1133 22.7756C8.37019 22.3526 6.81961 21.3555 5.71092 19.9455C4.60233 18.5355 3.99985 16.7938 3.99999 15.0002Z" fill="black"/>
</svg>
