<svg width="24" height="24" viewBox="0 0 24 24" fill="none" xmlns="http://www.w3.org/2000/svg">
<path fill-rule="evenodd" clip-rule="evenodd" d="M1.29289 1.29289C1.68342 0.902369 2.31658 0.902369 2.70711 1.29289L10.7071 9.29289C11.0976 9.68342 11.0976 10.3166 10.7071 10.7071C10.3166 11.0976 9.68342 11.0976 9.29289 10.7071L1.29289 2.70711C0.902369 2.31658 0.902369 1.68342 1.29289 1.29289Z" fill="black"/>
<path fill-rule="evenodd" clip-rule="evenodd" d="M22.7071 1.29289C23.0976 1.68342 23.0976 2.31658 22.7071 2.70711L14.7071 10.7071C14.3166 11.0976 13.6834 11.0976 13.2929 10.7071C12.9024 10.3166 12.9024 9.68342 13.2929 9.29289L21.2929 1.29289C21.6834 0.902369 22.3166 0.902369 22.7071 1.29289Z" fill="black"/>
<path fill-rule="evenodd" clip-rule="evenodd" d="M5.37615 6.35889C3.67281 7.21056 3 8.20212 3 9C3 9.79788 3.67281 10.7894 5.37615 11.6411C7.01967 12.4629 9.36016 13 12 13C14.6398 13 16.9803 12.4629 18.6239 11.6411C20.3272 10.7894 21 9.79788 21 9C21 8.20212 20.3272 7.21056 18.6239 6.35889C16.9803 5.53713 14.6398 5 12 5C9.36016 5 7.01967 5.53713 5.37615 6.35889ZM4.48172 4.57004C6.45748 3.58216 9.11699 3 12 3C14.883 3 17.5425 3.58216 19.5183 4.57004C21.4342 5.52801 23 7.03646 23 9C23 10.9635 21.4342 12.472 19.5183 13.43C17.5425 14.4178 14.883 15 12 15C9.11699 15 6.45748 14.4178 4.48172 13.43C2.56577 12.472 1 10.9635 1 9C1 7.03646 2.56577 5.52801 4.48172 4.57004Z" fill="black"/>
<path fill-rule="evenodd" clip-rule="evenodd" d="M7 12.4C7.55228 12.4 8 12.8477 8 13.4V21.3C8 21.8523 7.55228 22.3 7 22.3C6.44772 22.3 6 21.8523 6 21.3V13.4C6 12.8477 6.44772 12.4 7 12.4Z" fill="black"/>
<path fill-rule="evenodd" clip-rule="evenodd" d="M12 13C12.5523 13 13 13.4477 13 14V22C13 22.5523 12.5523 23 12 23C11.4477 23 11 22.5523 11 22V14C11 13.4477 11.4477 13 12 13Z" fill="black"/>
<path fill-rule="evenodd" clip-rule="evenodd" d="M17 12.4C17.5523 12.4 18 12.8477 18 13.4V21.3C18 21.8523 17.5523 22.3 17 22.3C16.4477 22.3 16 21.8523 16 21.3V13.4C16 12.8477 16.4477 12.4 17 12.4Z" fill="black"/>
<path fill-rule="evenodd" clip-rule="evenodd" d="M2 8C2.55228 8 3 8.44772 3 9V17C3 17.7555 3.6247 18.7654 5.37615 19.6411C7.08081 20.4934 9.46306 21 12 21C14.5369 21 16.9192 20.4934 18.6239 19.6411C20.3753 18.7654 21 17.7555 21 17V9C21 8.44772 21.4477 8 22 8C22.5523 8 23 8.44772 23 9V17C23 18.8967 21.5176 20.4303 19.5183 21.43C17.4722 22.453 14.7674 23 12 23C9.23261 23 6.52778 22.453 4.48172 21.43C2.48244 20.4303 1 18.8967 1 17V9C1 8.44772 1.44772 8 2 8Z" fill="black"/>
</svg>
