<svg width="24" height="24" viewBox="0 0 24 24" fill="none" xmlns="http://www.w3.org/2000/svg">
<path fill-rule="evenodd" clip-rule="evenodd" d="M12 3C7.02944 3 3 7.02944 3 12C3 16.9706 7.02944 21 12 21C16.9706 21 21 16.9706 21 12C21 7.02944 16.9706 3 12 3ZM1 12C1 5.92487 5.92487 1 12 1C18.0751 1 23 5.92487 23 12C23 18.0751 18.0751 23 12 23C5.92487 23 1 18.0751 1 12Z" fill="black"/>
<path fill-rule="evenodd" clip-rule="evenodd" d="M19.8246 4.37057C20.2219 4.75417 20.233 5.38723 19.8494 5.78456C15.6655 10.1183 10.1141 11.4347 2.31438 11.9379C1.76324 11.9735 1.28763 11.5555 1.25207 11.0044C1.21651 10.4532 1.63448 9.97763 2.18561 9.94208C9.88591 9.44528 14.7745 8.1617 18.4106 4.39544C18.7942 3.99811 19.4272 3.98697 19.8246 4.37057Z" fill="black"/>
<path fill-rule="evenodd" clip-rule="evenodd" d="M4.58798 18.5367C9.02872 12.9649 14.9151 10.3618 21.9583 11.8619C22.4985 11.977 22.8431 12.5082 22.7281 13.0483C22.613 13.5885 22.0818 13.9331 21.5417 13.8181C15.3449 12.4982 10.1913 14.7151 6.15201 19.7833C5.8078 20.2152 5.17863 20.2862 4.74674 19.942C4.31484 19.5978 4.24377 18.9686 4.58798 18.5367Z" fill="black"/>
<path fill-rule="evenodd" clip-rule="evenodd" d="M7.97126 1.94166C8.41769 1.61652 9.04317 1.71483 9.36832 2.16126C11.5714 5.18607 13.1151 7.60289 14.3588 10.3329C15.6008 13.0594 16.5259 16.0596 17.5322 20.2357C17.6615 20.7726 17.3312 21.3128 16.7943 21.4422C16.2573 21.5715 15.7172 21.2412 15.5878 20.7042C14.5941 16.5804 13.7042 13.7206 12.5387 11.162C11.3748 8.6071 9.91859 6.31391 7.75166 3.33872C7.42652 2.8923 7.52483 2.26681 7.97126 1.94166Z" fill="black"/>
</svg>
