<svg width="24" height="24" viewBox="0 0 24 24" fill="none" xmlns="http://www.w3.org/2000/svg">
<path fill-rule="evenodd" clip-rule="evenodd" d="M4.00002 4.99994C4.00002 5.00066 3.99992 5.00494 4.00307 5.01529C4.00647 5.02644 4.01484 5.04845 4.03509 5.08143C4.07754 5.15057 4.1641 5.25453 4.32626 5.38232C4.65643 5.64253 5.19618 5.9206 5.95228 6.17264C7.45404 6.67322 9.59231 7 12 7C14.4077 7 16.546 6.67322 18.0478 6.17264C18.8039 5.9206 19.3436 5.64253 19.6738 5.38232C19.8359 5.25453 19.9225 5.15057 19.9649 5.08143C19.9852 5.04845 19.9936 5.02644 19.997 5.01529C20.0001 5.00494 20 5.00073 20 5C20 4.99911 20 4.99479 19.997 4.98471C19.9936 4.97356 19.9852 4.95155 19.9649 4.91857C19.9225 4.84943 19.8359 4.74547 19.6738 4.61768C19.3436 4.35747 18.8039 4.0794 18.0478 3.82736C16.546 3.32678 14.4077 3 12 3C9.59231 3 7.45404 3.32678 5.95228 3.82736C5.19618 4.0794 4.65643 4.35747 4.32626 4.61768C4.1641 4.74547 4.07754 4.84943 4.03509 4.91857C4.01484 4.95155 4.00647 4.97356 4.00307 4.98471C4 4.99479 4.00001 4.99905 4.00002 4.99994ZM5.31983 1.93C7.07543 1.3448 9.43716 1 12 1C14.5629 1 16.9246 1.3448 18.6802 1.93C19.5528 2.22085 20.3311 2.58923 20.9117 3.04685C21.4811 3.49559 22 4.14805 22 5C22 5.85195 21.4811 6.50441 20.9117 6.95315C20.3311 7.41077 19.5528 7.77915 18.6802 8.07C16.9246 8.6552 14.5629 9 12 9C9.43716 9 7.07543 8.6552 5.31983 8.07C4.44725 7.77915 3.66898 7.41077 3.08831 6.95315C2.51891 6.50441 2.00002 5.85195 2.00002 5C2.00002 4.14805 2.51891 3.49559 3.08831 3.04685C3.66898 2.58923 4.44725 2.22085 5.31983 1.93Z" fill="black"/>
<path fill-rule="evenodd" clip-rule="evenodd" d="M3.00001 4C3.5523 4 4.00002 4.44765 4.00002 4.99994L4.00001 19C4.00001 19.0028 4 19.0056 3.99998 19.0083C3.99997 19.0094 3.99996 19.0105 3.99995 19.0116C3.99994 19.0115 3.99995 19.0116 3.99995 19.0116C3.99996 19.0118 4.00003 19.0126 4.00021 19.0137C4.00054 19.0156 4.00153 19.0206 4.00441 19.0288C4.01019 19.0453 4.02477 19.0785 4.05991 19.1273C4.13347 19.2295 4.27887 19.375 4.53947 19.544C5.06562 19.8852 5.90165 20.2199 7.01995 20.4846C8.12626 20.7464 9.42357 20.9197 10.8014 20.9838C12.1782 21.0479 13.5793 21.0005 14.883 20.8469C15.4315 20.7822 15.9285 21.1745 15.9931 21.723C16.0578 22.2714 15.6655 22.7685 15.1171 22.8331C13.7002 23.0001 12.1895 23.0506 10.7084 22.9817C9.22849 22.9128 7.80585 22.7259 6.55934 22.4308C5.32483 22.1387 4.24413 21.7362 3.45122 21.222C2.69375 20.7307 1.99165 19.9918 2.00001 18.9951L2.00002 5C2.00002 4.44772 2.44773 4 3.00001 4Z" fill="black"/>
<path fill-rule="evenodd" clip-rule="evenodd" d="M21 4C21.5523 4 22 4.44772 22 5V8C22 8.55228 21.5523 9 21 9C20.4477 9 20 8.55228 20 8V5C20 4.44772 20.4477 4 21 4Z" fill="black"/>
<path fill-rule="evenodd" clip-rule="evenodd" d="M21.5145 11.1425C21.9881 11.4267 22.1417 12.0409 21.8575 12.5145L19.7662 16H22C22.3603 16 22.6927 16.1938 22.8702 16.5073C23.0477 16.8208 23.0429 17.2056 22.8575 17.5145L19.8575 22.5145C19.5734 22.9881 18.9591 23.1416 18.4855 22.8575C18.0119 22.5733 17.8584 21.9591 18.1425 21.4855L20.2338 18H18C17.6397 18 17.3073 17.8062 17.1298 17.4927C16.9523 17.1792 16.9572 16.7944 17.1425 16.4855L20.1425 11.4855C20.4267 11.0119 21.0409 10.8584 21.5145 11.1425Z" fill="black"/>
<path fill-rule="evenodd" clip-rule="evenodd" d="M2.99693 11C3.54921 10.9983 3.9983 11.4446 4.00001 11.9969C4 11.9968 4.00001 11.9969 4.00001 11.9969C4.00004 11.9972 4.00013 11.9982 4.00034 11.9994C4.00073 12.0015 4.0018 12.0066 4.00472 12.0148C4.01056 12.0313 4.02487 12.0635 4.05849 12.1105C4.12872 12.2089 4.2667 12.3488 4.51349 12.5122C5.01228 12.8424 5.80564 13.17 6.87335 13.4344C7.92944 13.6959 9.17307 13.8758 10.5046 13.9536C11.8347 14.0313 13.2009 14.0041 14.4904 13.875C15.0399 13.8199 15.53 14.2208 15.585 14.7703C15.6401 15.3199 15.2392 15.81 14.6897 15.865C13.2926 16.005 11.8208 16.0339 10.3879 15.9502C8.95634 15.8665 7.58834 15.6719 6.39261 15.3758C5.20851 15.0826 4.1722 14.6849 3.40945 14.1799C2.67652 13.6947 2.00302 12.9723 2.00002 12.0031C1.99831 11.4508 2.44464 11.0017 2.99693 11Z" fill="black"/>
</svg>
