<svg width="24" height="24" viewBox="0 0 24 24" fill="none" xmlns="http://www.w3.org/2000/svg">
<path d="M11 18.9999C11.5523 18.9999 12 19.4477 12 19.9999C12 20.5522 11.5523 20.9999 11 20.9999H2C1.44772 20.9999 1 20.5522 1 19.9999C1 19.4477 1.44772 18.9999 2 18.9999H11Z" fill="black"/>
<path d="M10 4.56125L10.0049 4.39133C10.0276 3.99442 10.1295 3.60459 10.3047 3.24582C10.5047 2.83638 10.795 2.47733 11.1543 2.19699C11.5135 1.91668 11.9322 1.72215 12.3779 1.62766C12.8238 1.53318 13.2854 1.54156 13.7275 1.65207L17.7275 2.65207C18.3764 2.81429 18.9525 3.18844 19.3643 3.71555C19.776 4.24281 19.9999 4.89324 20 5.56223V19.9997C20 20.4586 19.6874 20.8592 19.2422 20.9704L12.4844 22.6589C12.1896 22.7324 11.8811 22.7377 11.584 22.6745C11.287 22.6114 11.0078 22.4815 10.7686 22.2946C10.5293 22.1077 10.3353 21.8683 10.2021 21.5954C10.0691 21.3226 10.0001 21.023 10 20.7195V4.56125ZM12 20.7185L18 19.2185V5.56223C18 5.33928 17.9253 5.12272 17.7881 4.94699C17.6508 4.77124 17.4585 4.64658 17.2422 4.5925L13.2422 3.5925C13.095 3.55574 12.9414 3.5523 12.793 3.58371C12.6444 3.61521 12.5045 3.68069 12.3848 3.77414C12.2651 3.86757 12.1682 3.98733 12.1016 4.12375C12.0353 4.25959 12.0002 4.41006 12 4.56223V20.7185Z" fill="black"/>
<path d="M5 19.9999V5.99994C5 5.20429 5.3163 4.44145 5.87891 3.87885C6.44152 3.31624 7.20435 2.99994 8 2.99994H11C11.5523 2.99994 12 3.44765 12 3.99994C12 4.55222 11.5523 4.99994 11 4.99994H8C7.73478 4.99994 7.4805 5.10537 7.29297 5.29291C7.10543 5.48044 7 5.73472 7 5.99994V19.9999C7 20.5522 6.55228 20.9999 6 20.9999C5.44772 20.9999 5 20.5522 5 19.9999Z" fill="black"/>
<path d="M14.0098 10.9999C14.562 10.9999 15.0098 11.4477 15.0098 11.9999C15.0098 12.5522 14.562 12.9999 14.0098 12.9999H14C13.4477 12.9999 13 12.5522 13 11.9999C13 11.4477 13.4477 10.9999 14 10.9999H14.0098Z" fill="black"/>
<path d="M22 18.9999C22.5523 18.9999 23 19.4477 23 19.9999C23 20.5522 22.5523 20.9999 22 20.9999H19C18.4477 20.9999 18 20.5522 18 19.9999C18 19.4477 18.4477 18.9999 19 18.9999H22Z" fill="black"/>
</svg>
