<svg width="24" height="24" viewBox="0 0 24 24" fill="none" xmlns="http://www.w3.org/2000/svg">
<path fill-rule="evenodd" clip-rule="evenodd" d="M12.5007 5.86787C12.9824 5.59763 13.5919 5.76903 13.8621 6.25069L15.7921 9.69069C16.0623 10.1723 15.891 10.7819 15.4093 11.0521C14.9276 11.3223 14.3181 11.1509 14.0479 10.6693L12.1179 7.22928C11.8476 6.74762 12.019 6.1381 12.5007 5.86787Z" fill="black"/>
<path fill-rule="evenodd" clip-rule="evenodd" d="M4.16439 11.2865C4.55847 10.8995 5.19161 10.9053 5.57854 11.2994C6.4163 12.1526 7.41569 12.8304 8.51832 13.293C9.62096 13.7557 10.8047 13.994 12.0005 13.994C13.1963 13.994 14.38 13.7557 15.4827 13.293C16.5853 12.8304 17.5847 12.1526 18.4224 11.2994C18.8094 10.9053 19.4425 10.8995 19.8366 11.2865C20.2307 11.6734 20.2365 12.3065 19.8495 12.7006C18.8256 13.7434 17.6041 14.5718 16.2565 15.1373C14.9088 15.7027 13.462 15.994 12.0005 15.994C10.539 15.994 9.09217 15.7027 7.7445 15.1373C6.39684 14.5718 5.17537 13.7434 4.15144 12.7006C3.76451 12.3065 3.77031 11.6734 4.16439 11.2865Z" fill="black"/>
<path fill-rule="evenodd" clip-rule="evenodd" d="M18.3497 16.2884C18.8311 16.0177 19.4408 16.1884 19.7116 16.6698L21.8716 20.5098C22.1423 20.9911 21.9716 21.6008 21.4903 21.8716C21.0089 22.1424 20.3992 21.9716 20.1284 21.4903L17.9684 17.6503C17.6977 17.1689 17.8684 16.5592 18.3497 16.2884Z" fill="black"/>
<path fill-rule="evenodd" clip-rule="evenodd" d="M11.5102 5.86837C11.9916 6.13911 12.1623 6.74881 11.8916 7.23019L3.8716 21.4902C3.60087 21.9716 2.99117 22.1423 2.50979 21.8716C2.02842 21.6009 1.85765 20.9912 2.12839 20.5098L10.1484 6.24978C10.4191 5.7684 11.0288 5.59764 11.5102 5.86837Z" fill="black"/>
<path fill-rule="evenodd" clip-rule="evenodd" d="M12 4C11.4477 4 11 4.44772 11 5C11 5.55228 11.4477 6 12 6C12.5523 6 13 5.55228 13 5C13 4.44772 12.5523 4 12 4ZM8.99999 5C8.99999 3.34315 10.3431 2 12 2C13.6568 2 15 3.34315 15 5C15 6.65685 13.6568 8 12 8C10.3431 8 8.99999 6.65685 8.99999 5Z" fill="black"/>
</svg>
