<svg width="24" height="24" viewBox="0 0 24 24" fill="none" xmlns="http://www.w3.org/2000/svg">
<path fill-rule="evenodd" clip-rule="evenodd" d="M4 10.9999C3.44772 10.9999 3 11.4477 3 11.9999V19.9999C3 20.5522 3.44772 20.9999 4 20.9999H12C12.5523 20.9999 13 20.5522 13 19.9999V11.9999C13 11.4477 12.5523 10.9999 12 10.9999H4ZM1 11.9999C1 10.3431 2.34315 8.99995 4 8.99995H12C13.6569 8.99995 15 10.3431 15 11.9999V19.9999C15 21.6568 13.6569 22.9999 12 22.9999H4C2.34315 22.9999 1 21.6568 1 19.9999V11.9999Z" fill="black"/>
<path fill-rule="evenodd" clip-rule="evenodd" d="M12.7504 1.83725C13.3456 1.30057 14.1186 1.00354 14.92 1.00354C15.7214 1.00354 16.4944 1.30057 17.0896 1.83725C17.1004 1.84698 17.111 1.85695 17.1214 1.86714L22.1214 6.78714C22.1356 6.80111 22.1493 6.8155 22.1627 6.83029C22.6994 7.4255 22.9964 8.19849 22.9964 8.99993C22.9964 9.80136 22.6994 10.5744 22.1627 11.1696C22.1511 11.1824 22.1393 11.1949 22.1271 11.207L18.6271 14.707C18.2366 15.0976 17.6034 15.0976 17.2129 14.707C16.8224 14.3165 16.8224 13.6833 17.2129 13.2928L20.6919 9.81377C20.8881 9.58829 20.9964 9.29929 20.9964 8.99993C20.9964 8.70172 20.8889 8.41379 20.6942 8.18869L15.7364 3.31026C15.5106 3.11266 15.2205 3.00354 14.92 3.00354C14.6206 3.00354 14.3316 3.11183 14.1062 3.30799L10.7071 6.70704C10.3166 7.09756 9.68342 7.09756 9.29289 6.70704C8.90237 6.31651 8.90237 5.68335 9.29289 5.29282L12.7129 1.87282C12.7251 1.86064 12.7376 1.84878 12.7504 1.83725Z" fill="black"/>
<path fill-rule="evenodd" clip-rule="evenodd" d="M5 17.9999C5 17.4477 5.44772 16.9999 6 16.9999H6.01C6.56228 16.9999 7.01 17.4477 7.01 17.9999C7.01 18.5522 6.56228 18.9999 6.01 18.9999H6C5.44772 18.9999 5 18.5522 5 17.9999Z" fill="black"/>
<path fill-rule="evenodd" clip-rule="evenodd" d="M9 13.9999C9 13.4477 9.44772 12.9999 10 12.9999H10.01C10.5623 12.9999 11.01 13.4477 11.01 13.9999C11.01 14.5522 10.5623 14.9999 10.01 14.9999H10C9.44772 14.9999 9 14.5522 9 13.9999Z" fill="black"/>
<path fill-rule="evenodd" clip-rule="evenodd" d="M14 5.99995C14 5.44766 14.4477 4.99995 15 4.99995H15.01C15.5623 4.99995 16.01 5.44766 16.01 5.99995C16.01 6.55223 15.5623 6.99995 15.01 6.99995H15C14.4477 6.99995 14 6.55223 14 5.99995Z" fill="black"/>
<path fill-rule="evenodd" clip-rule="evenodd" d="M17 8.99995C17 8.44766 17.4477 7.99995 18 7.99995H18.01C18.5623 7.99995 19.01 8.44766 19.01 8.99995C19.01 9.55223 18.5623 9.99995 18.01 9.99995H18C17.4477 9.99995 17 9.55223 17 8.99995Z" fill="black"/>
</svg>
