<svg width="24" height="24" viewBox="0 0 24 24" fill="none" xmlns="http://www.w3.org/2000/svg">
<path fill-rule="evenodd" clip-rule="evenodd" d="M1.87868 3.87868C2.44129 3.31607 3.20435 3 4 3H20C20.7956 3 21.5587 3.31607 22.1213 3.87868C22.6839 4.44129 23 5.20435 23 6V15C23 15.7957 22.6839 16.5587 22.1213 17.1213C21.5587 17.6839 20.7957 18 20 18H18.4142L15.7071 20.7071C15.5196 20.8946 15.2652 21 15 21H9C8.73478 21 8.48043 20.8946 8.29289 20.7071L5.58579 18H4C3.20435 18 2.44129 17.6839 1.87868 17.1213C1.31607 16.5587 1 15.7956 1 15V6C1 5.20435 1.31607 4.44129 1.87868 3.87868ZM4 5C3.73478 5 3.48043 5.10536 3.29289 5.29289C3.10536 5.48043 3 5.73478 3 6V15C3 15.2652 3.10536 15.5196 3.29289 15.7071C3.48043 15.8946 3.73478 16 4 16H6C6.26522 16 6.51957 16.1054 6.70711 16.2929L9.41421 19H14.5858L17.2929 16.2929C17.4804 16.1054 17.7348 16 18 16H20C20.2652 16 20.5196 15.8946 20.7071 15.7071C20.8946 15.5196 21 15.2652 21 15V6C21 5.73478 20.8946 5.48043 20.7071 5.29289C20.5196 5.10536 20.2652 5 20 5H4Z" fill="black"/>
<path fill-rule="evenodd" clip-rule="evenodd" d="M6 7C6.55228 7 7 7.44772 7 8V9C7 9.55228 6.55228 10 6 10C5.44772 10 5 9.55228 5 9V8C5 7.44772 5.44772 7 6 7Z" fill="black"/>
<path fill-rule="evenodd" clip-rule="evenodd" d="M10 7C10.5523 7 11 7.44772 11 8V9C11 9.55228 10.5523 10 10 10C9.44772 10 9 9.55228 9 9V8C9 7.44772 9.44772 7 10 7Z" fill="black"/>
<path fill-rule="evenodd" clip-rule="evenodd" d="M14 7C14.5523 7 15 7.44772 15 8V9C15 9.55228 14.5523 10 14 10C13.4477 10 13 9.55228 13 9V8C13 7.44772 13.4477 7 14 7Z" fill="black"/>
<path fill-rule="evenodd" clip-rule="evenodd" d="M18 7C18.5523 7 19 7.44772 19 8V9C19 9.55228 18.5523 10 18 10C17.4477 10 17 9.55228 17 9V8C17 7.44772 17.4477 7 18 7Z" fill="black"/>
</svg>
