<svg width="24" height="24" viewBox="0 0 24 24" fill="none" xmlns="http://www.w3.org/2000/svg">
<path d="M14.2929 14.293C14.6834 13.9024 15.3164 13.9024 15.707 14.293L21.707 20.293C22.0975 20.6835 22.0975 21.3165 21.707 21.707C21.3164 22.0975 20.6834 22.0975 20.2929 21.707L14.2929 15.707C13.9024 15.3165 13.9024 14.6835 14.2929 14.293Z" fill="black"/>
<path d="M20.2929 2.29295C20.6834 1.90243 21.3164 1.90243 21.707 2.29295C22.0975 2.68348 22.0975 3.31649 21.707 3.70702L15.707 9.70702C15.3164 10.0975 14.6834 10.0975 14.2929 9.70702C13.9024 9.31649 13.9024 8.68348 14.2929 8.29295L20.2929 2.29295Z" fill="black"/>
<path d="M20 16C20 15.4477 20.4477 15 21 15C21.5523 15 22 15.4477 22 16V21C22 21.5523 21.5523 22 21 22H16C15.4477 22 15 21.5523 15 21C15 20.4477 15.4477 20 16 20H20V16Z" fill="black"/>
<path d="M20 8V4H16C15.4477 4 15 3.55228 15 3C15 2.44772 15.4477 2 16 2H21C21.5523 2 22 2.44772 22 3V8C22 8.55228 21.5523 9 21 9C20.4477 9 20 8.55228 20 8Z" fill="black"/>
<path d="M2 16C2 15.4477 2.44772 15 3 15C3.55228 15 4 15.4477 4 16V20H8C8.55228 20 9 20.4477 9 21C9 21.5523 8.55228 22 8 22H3C2.44772 22 2 21.5523 2 21V16Z" fill="black"/>
<path d="M8.29289 14.293C8.68342 13.9024 9.31643 13.9024 9.70696 14.293C10.0975 14.6835 10.0975 15.3165 9.70696 15.707L3.70696 21.707C3.31643 22.0975 2.68342 22.0975 2.29289 21.707C1.90237 21.3165 1.90237 20.6835 2.29289 20.293L8.29289 14.293Z" fill="black"/>
<path d="M2 8V3C2 2.44772 2.44772 2 3 2H8C8.55228 2 9 2.44772 9 3C9 3.55228 8.55228 4 8 4H4V8C4 8.55228 3.55228 9 3 9C2.44772 9 2 8.55228 2 8Z" fill="black"/>
<path d="M2.29289 2.29295C2.68342 1.90243 3.31643 1.90243 3.70696 2.29295L9.70696 8.29295C10.0975 8.68348 10.0975 9.31649 9.70696 9.70702C9.31643 10.0975 8.68342 10.0975 8.29289 9.70702L2.29289 3.70702C1.90237 3.31649 1.90237 2.68348 2.29289 2.29295Z" fill="black"/>
</svg>
