<svg width="24" height="24" viewBox="0 0 24 24" fill="none" xmlns="http://www.w3.org/2000/svg">
<path fill-rule="evenodd" clip-rule="evenodd" d="M6.99999 2.34C7.55227 2.34 7.99999 2.78772 7.99999 3.34V5C7.99999 5.53043 8.2107 6.03914 8.58577 6.41421C8.96084 6.78929 9.46955 7 9.99999 7C10.5523 7 11 7.44772 11 8C11 8.55228 10.5523 9 9.99999 9C8.93912 9 7.9217 8.57857 7.17156 7.82843C6.42141 7.07828 5.99999 6.06087 5.99999 5V3.34C5.99999 2.78772 6.4477 2.34 6.99999 2.34Z" fill="black"/>
<path fill-rule="evenodd" clip-rule="evenodd" d="M1.04999 11C1.04999 10.4477 1.4977 10 2.04999 10H4.99999C5.79564 10 6.5587 10.3161 7.12131 10.8787C7.68392 11.4413 7.99999 12.2044 7.99999 13V14C7.99999 14.2652 8.10534 14.5196 8.29288 14.7071C8.48042 14.8946 8.73477 15 8.99999 15C9.79564 15 10.5587 15.3161 11.1213 15.8787C11.6839 16.4413 12 17.2043 12 18V21.95C12 22.5023 11.5523 22.95 11 22.95C10.4477 22.95 9.99998 22.5023 9.99998 21.95V18C9.99998 17.7348 9.89463 17.4804 9.70709 17.2929C9.51955 17.1054 9.2652 17 8.99999 17C8.20433 17 7.44127 16.6839 6.87866 16.1213C6.31606 15.5587 5.99999 14.7957 5.99999 14V13C5.99999 12.7348 5.89463 12.4804 5.70709 12.2929C5.51956 12.1054 5.2652 12 4.99999 12H2.04999C1.4977 12 1.04999 11.5523 1.04999 11Z" fill="black"/>
<path fill-rule="evenodd" clip-rule="evenodd" d="M14.8787 14.8787C15.4413 14.3161 16.2043 14 17 14H21.54C22.0923 14 22.54 14.4477 22.54 15C22.54 15.5523 22.0923 16 21.54 16H17C16.7348 16 16.4804 16.1054 16.2929 16.2929C16.1053 16.4804 16 16.7348 16 17V21.54C16 22.0923 15.5523 22.54 15 22.54C14.4477 22.54 14 22.0923 14 21.54V17C14 16.2043 14.3161 15.4413 14.8787 14.8787Z" fill="black"/>
<path fill-rule="evenodd" clip-rule="evenodd" d="M6.24154 2.62807C7.97367 1.56367 9.96691 1.00012 11.9999 1C12.5522 0.999966 13 1.44765 13 1.99994C13 2.55222 12.5524 2.99997 12.0001 3C10.3367 3.0001 8.70585 3.46118 7.28864 4.33206C5.87144 5.20293 4.72331 6.44953 3.97172 7.93344C3.22013 9.41736 2.89449 11.0805 3.03095 12.7383C3.16741 14.3961 3.76063 15.9837 4.74474 17.3247C5.72886 18.6657 7.06538 19.7078 8.60591 20.3352C10.1464 20.9626 11.8307 21.1509 13.4717 20.879C15.1128 20.6071 16.6463 19.8857 17.9022 18.795C19.158 17.7042 20.087 16.2868 20.5861 14.7C20.7518 14.1732 21.3132 13.8804 21.84 14.0461C22.3669 14.2117 22.6596 14.7732 22.4939 15.3C21.884 17.2394 20.7486 18.9718 19.2136 20.305C17.6787 21.6381 15.8043 22.5197 13.7987 22.8521C11.793 23.1844 9.7344 22.9543 7.85153 22.1875C5.96866 21.4207 4.33514 20.147 3.13233 18.508C1.92952 16.8689 1.20447 14.9286 1.03769 12.9024C0.87091 10.8762 1.26892 8.84343 2.18753 7.02976C3.10613 5.21609 4.5094 3.69248 6.24154 2.62807Z" fill="black"/>
<path fill-rule="evenodd" clip-rule="evenodd" d="M15.8787 1.87868C16.4413 1.31607 17.2043 1 18 1C18.7956 1 19.5587 1.31607 20.1213 1.87868C20.6839 2.44129 21 3.20435 21 4V6C21 6.55228 20.5523 7 20 7C19.4477 7 19 6.55228 19 6V4C19 3.73478 18.8946 3.48043 18.7071 3.29289C18.5196 3.10536 18.2652 3 18 3C17.7348 3 17.4804 3.10536 17.2929 3.29289C17.1053 3.48043 17 3.73478 17 4V6C17 6.55228 16.5523 7 16 7C15.4477 7 15 6.55228 15 6V4C15 3.20435 15.3161 2.44129 15.8787 1.87868Z" fill="black"/>
<path fill-rule="evenodd" clip-rule="evenodd" d="M15 7V10H21V7H15ZM21.0012 9.99995C21.0013 9.99995 21.0013 9.99994 21.0012 9.99995V9.99995ZM14.9988 9.99995C14.9987 9.99995 14.9987 9.99995 14.9988 9.99995V9.99995ZM13 7C13 5.89543 13.8954 5 15 5H21C22.1046 5 23 5.89543 23 7V10C23 11.1046 22.1046 12 21 12H15C13.8954 12 13 11.1046 13 10V7Z" fill="black"/>
</svg>
