<svg width="24" height="24" viewBox="0 0 24 24" fill="none" xmlns="http://www.w3.org/2000/svg">
<path fill-rule="evenodd" clip-rule="evenodd" d="M14.8787 14.8787C15.4413 14.3161 16.2043 14 17 14H21.54C22.0923 14 22.54 14.4477 22.54 15C22.54 15.5523 22.0923 16 21.54 16H17C16.7348 16 16.4804 16.1054 16.2929 16.2929C16.1054 16.4804 16 16.7348 16 17V21.54C16 22.0923 15.5523 22.54 15 22.54C14.4477 22.54 14 22.0923 14 21.54V17C14 16.2043 14.3161 15.4413 14.8787 14.8787Z" fill="black"/>
<path fill-rule="evenodd" clip-rule="evenodd" d="M7 2.34C7.55228 2.34 8 2.78772 8 3.34V5C8 5.53043 8.21071 6.03914 8.58579 6.41421C8.96086 6.78929 9.46957 7 10 7C10.7957 7 11.5587 7.31607 12.1213 7.87868C12.6839 8.44129 13 9.20435 13 10C13 10.5477 13.4523 11 14 11C14.2652 11 14.5196 10.8946 14.7071 10.7071C14.8946 10.5196 15 10.2652 15 10C15 8.34772 16.3477 7 18 7H21.17C21.7223 7 22.17 7.44772 22.17 8C22.17 8.55228 21.7223 9 21.17 9H18C17.4523 9 17 9.45228 17 10C17 10.7956 16.6839 11.5587 16.1213 12.1213C15.5587 12.6839 14.7956 13 14 13C12.3477 13 11 11.6523 11 10C11 9.73478 10.8946 9.48043 10.7071 9.29289C10.5196 9.10536 10.2652 9 10 9C8.93913 9 7.92172 8.57857 7.17157 7.82843C6.42143 7.07828 6 6.06087 6 5V3.34C6 2.78772 6.44772 2.34 7 2.34Z" fill="black"/>
<path fill-rule="evenodd" clip-rule="evenodd" d="M1.05 11C1.05 10.4477 1.49772 10 2.05 10H5C5.79565 10 6.55871 10.3161 7.12132 10.8787C7.68393 11.4413 8 12.2044 8 13V14C8 14.2652 8.10536 14.5196 8.29289 14.7071C8.48043 14.8946 8.73478 15 9 15C9.79565 15 10.5587 15.3161 11.1213 15.8787C11.6839 16.4413 12 17.2043 12 18V21.95C12 22.5023 11.5523 22.95 11 22.95C10.4477 22.95 10 22.5023 10 21.95V18C10 17.7348 9.89464 17.4804 9.70711 17.2929C9.51957 17.1054 9.26522 17 9 17C8.20435 17 7.44129 16.6839 6.87868 16.1213C6.31607 15.5587 6 14.7957 6 14V13C6 12.7348 5.89464 12.4804 5.70711 12.2929C5.51957 12.1054 5.26522 12 5 12H2.05C1.49772 12 1.05 11.5523 1.05 11Z" fill="black"/>
<path fill-rule="evenodd" clip-rule="evenodd" d="M12 3C7.02944 3 3 7.02944 3 12C3 16.9706 7.02944 21 12 21C16.9706 21 21 16.9706 21 12C21 7.02944 16.9706 3 12 3ZM1 12C1 5.92487 5.92487 1 12 1C18.0751 1 23 5.92487 23 12C23 18.0751 18.0751 23 12 23C5.92487 23 1 18.0751 1 12Z" fill="black"/>
</svg>
