<svg width="24" height="24" viewBox="0 0 24 24" fill="none" xmlns="http://www.w3.org/2000/svg">
<path fill-rule="evenodd" clip-rule="evenodd" d="M14.0612 13.7738C14.6003 13.6541 15.1344 13.994 15.2542 14.5332L15.9762 17.7832C16.096 18.3223 15.756 18.8565 15.2169 18.9762C14.6777 19.096 14.1436 18.7561 14.0238 18.2169L13.3018 14.9669C13.182 14.4278 13.522 13.8936 14.0612 13.7738Z" fill="black"/>
<path fill-rule="evenodd" clip-rule="evenodd" d="M1.65723 7.06062C2.17605 6.8713 2.75011 7.13841 2.93944 7.65723C3.61749 9.51535 4.85043 11.1201 6.47117 12.2539C8.0919 13.3878 10.0221 13.9959 12 13.9959C13.978 13.9959 15.9082 13.3878 17.5289 12.2539C19.1496 11.1201 20.3826 9.51535 21.0606 7.65723C21.2499 7.13841 21.824 6.8713 22.3428 7.06062C22.8616 7.24994 23.1288 7.82401 22.9394 8.34283C22.1208 10.5863 20.6322 12.5238 18.6754 13.8927C16.7186 15.2617 14.3882 15.9959 12 15.9959C9.6119 15.9959 7.28151 15.2617 5.32469 13.8927C3.36788 12.5238 1.87927 10.5863 1.06062 8.34283C0.871296 7.82401 1.13841 7.24994 1.65723 7.06062Z" fill="black"/>
<path fill-rule="evenodd" clip-rule="evenodd" d="M17.6299 12.185C18.0524 11.8293 18.6833 11.8835 19.039 12.3059L20.765 14.3559C21.1207 14.7784 21.0665 15.4093 20.6441 15.765C20.2216 16.1207 19.5907 16.0666 19.235 15.6441L17.509 13.5941C17.1533 13.1716 17.2074 12.5408 17.6299 12.185Z" fill="black"/>
<path fill-rule="evenodd" clip-rule="evenodd" d="M6.37008 12.185C6.79256 12.5408 6.84669 13.1716 6.49098 13.5941L4.76498 15.6441C4.40927 16.0666 3.77843 16.1207 3.35595 15.765C2.93346 15.4093 2.87934 14.7784 3.23504 14.3559L4.96104 12.3059C5.31675 11.8835 5.9476 11.8293 6.37008 12.185Z" fill="black"/>
<path fill-rule="evenodd" clip-rule="evenodd" d="M9.93884 13.7738C10.478 13.8936 10.8179 14.4278 10.6982 14.9669L9.97617 18.2169C9.8564 18.7561 9.32224 19.096 8.7831 18.9762C8.24396 18.8565 7.904 18.3223 8.02377 17.7832L8.74577 14.5332C8.86554 13.994 9.3997 13.6541 9.93884 13.7738Z" fill="black"/>
</svg>
