<svg width="24" height="24" viewBox="0 0 24 24" fill="none" xmlns="http://www.w3.org/2000/svg">
<path d="M1.29289 1.29295C1.68342 0.90243 2.31643 0.90243 2.70696 1.29295L22.707 21.293C23.0975 21.6835 23.0975 22.3165 22.707 22.707C22.3164 23.0975 21.6834 23.0975 21.2929 22.707L1.29289 2.70702C0.902369 2.31649 0.902369 1.68348 1.29289 1.29295Z" fill="black"/>
<path d="M19.0003 14.3467V14C19.0003 11.208 18.0646 8.39935 16.6682 6.30469C15.2428 4.16648 13.5059 3.00012 12.0003 3C11.1967 3 10.3231 3.32589 9.44459 3.98828C9.00363 4.32059 8.37665 4.2329 8.0442 3.79199C7.71189 3.35102 7.80056 2.72405 8.24147 2.3916C9.3629 1.54611 10.648 1 12.0003 1C14.4945 1.00011 16.7579 2.8337 18.3323 5.19531C19.9358 7.60063 21.0003 10.7921 21.0003 14V14.3467C21.0003 14.8989 20.5524 15.3466 20.0003 15.3467C19.448 15.3467 19.0003 14.899 19.0003 14.3467Z" fill="black"/>
<path d="M3 14C3 11.0041 3.92859 8.0254 5.35254 5.68948C5.64005 5.21805 6.25505 5.06905 6.72656 5.35647C7.19798 5.64399 7.347 6.25899 7.05957 6.7305C5.81357 8.77456 5 11.396 5 14L5.00586 14.2793C5.06132 15.6714 5.53128 17.0173 6.3584 18.1436C7.24068 19.345 8.48304 20.2337 9.90527 20.6797C11.3275 21.1257 12.8554 21.1065 14.2656 20.6241C15.676 20.1415 16.896 19.2209 17.7471 17.9971C18.0624 17.5437 18.6853 17.4319 19.1387 17.7471C19.5921 18.0624 19.704 18.6853 19.3887 19.1387C18.2944 20.7122 16.7265 21.8952 14.9131 22.5157C13.0999 23.136 11.1362 23.1612 9.30762 22.5879C7.47894 22.0145 5.88053 20.8728 4.74609 19.3282C3.61166 17.7834 2.99989 15.9166 3 14Z" fill="black"/>
</svg>
