<svg width="24" height="24" viewBox="0 0 24 24" fill="none" xmlns="http://www.w3.org/2000/svg">
<path fill-rule="evenodd" clip-rule="evenodd" d="M16.9357 7.3405C15.1007 6.26377 12.9638 5.81719 10.8512 6.06895C10.3028 6.1343 9.80527 5.74271 9.73992 5.19431C9.67456 4.6459 10.0662 4.14835 10.6146 4.083C13.1607 3.77957 15.7363 4.31781 17.9479 5.61554C20.1594 6.91328 21.8855 8.89917 22.8625 11.27C22.867 11.2809 22.8713 11.2919 22.8754 11.303C23.0421 11.752 23.0421 12.2459 22.8754 12.695C22.8712 12.7062 22.8669 12.7173 22.8623 12.7283C22.4606 13.7022 21.9298 14.6176 21.284 15.45C20.9454 15.8863 20.3173 15.9656 19.8809 15.6271C19.4445 15.2885 19.3653 14.6603 19.7038 14.224C20.2323 13.5428 20.668 12.7946 20.9996 11.999C20.1867 10.0465 18.7603 8.4112 16.9357 7.3405Z" fill="black"/>
<path fill-rule="evenodd" clip-rule="evenodd" d="M10.5367 9.19673C10.9339 9.58041 10.9449 10.2135 10.5612 10.6107C10.1969 10.9879 9.99534 11.4931 9.9999 12.0175C10.0045 12.5419 10.2148 13.0436 10.5856 13.4144C10.9564 13.7852 11.4581 13.9955 11.9824 14.0001C12.5068 14.0046 13.012 13.803 13.3892 13.4387C13.7865 13.055 14.4196 13.0661 14.8032 13.4633C15.1869 13.8606 15.1759 14.4936 14.7787 14.8773C14.0243 15.6059 13.0139 16.0091 11.9651 16C10.9163 15.9909 9.91303 15.5702 9.1714 14.8286C8.42976 14.0869 8.00909 13.0837 7.99998 12.0349C7.99086 10.9861 8.39404 9.97571 9.12267 9.2213C9.50635 8.82405 10.1394 8.81305 10.5367 9.19673Z" fill="black"/>
<path fill-rule="evenodd" clip-rule="evenodd" d="M7.36766 5.99808C7.64982 6.47285 7.49368 7.08646 7.01892 7.36862C5.21588 8.44021 3.80675 10.0645 3.00027 12C3.5334 13.2795 4.33326 14.4307 5.34665 15.3768C6.36879 16.331 7.58425 17.0543 8.91054 17.4974C10.2368 17.9405 11.6429 18.0932 13.0334 17.945C14.4239 17.7968 15.7662 17.3513 16.9694 16.6386C17.4445 16.3571 18.0579 16.5142 18.3394 16.9893C18.6209 17.4645 18.4638 18.0779 17.9887 18.3594C16.5388 19.2182 14.9211 19.7552 13.2453 19.9337C11.5696 20.1123 9.87511 19.9284 8.27676 19.3943C6.6784 18.8603 5.21363 17.9887 3.98181 16.8387C2.74999 15.6887 1.77996 14.2871 1.13753 12.7292C1.133 12.7182 1.12866 12.7071 1.12452 12.696C0.957841 12.247 0.957841 11.753 1.12452 11.304C1.12866 11.2928 1.133 11.2818 1.13753 11.2708C2.10664 8.92061 3.8118 6.94813 5.99711 5.64934C6.47188 5.36718 7.08549 5.52331 7.36766 5.99808Z" fill="black"/>
<path fill-rule="evenodd" clip-rule="evenodd" d="M1.29287 1.29289C1.6834 0.902369 2.31656 0.902369 2.70709 1.29289L22.7071 21.2929C23.0976 21.6834 23.0976 22.3166 22.7071 22.7071C22.3166 23.0976 21.6834 23.0976 21.2929 22.7071L1.29287 2.70711C0.902349 2.31658 0.902349 1.68342 1.29287 1.29289Z" fill="black"/>
</svg>
