<svg width="24" height="24" viewBox="0 0 24 24" fill="none" xmlns="http://www.w3.org/2000/svg">
<path fill-rule="evenodd" clip-rule="evenodd" d="M3 10C3 9.44775 3.44772 9.00004 4 9.00004H16C16.5523 9.00004 17 9.44775 17 10C17 10.5523 16.5523 11 16 11H4C3.44772 11 3 10.5523 3 10Z" fill="black"/>
<path fill-rule="evenodd" clip-rule="evenodd" d="M3 14C3 13.4478 3.44772 13 4 13H13C13.5523 13 14 13.4478 14 14C14 14.5523 13.5523 15 13 15H4C3.44772 15 3 14.5523 3 14Z" fill="black"/>
<path fill-rule="evenodd" clip-rule="evenodd" d="M13.797 3.00004C15.9689 2.99353 18.0646 3.79958 19.6723 5.25978C20.0812 5.63109 20.1116 6.26353 19.7403 6.67236C19.369 7.08119 18.7365 7.11161 18.3277 6.74029C17.0907 5.61684 15.4787 4.9962 13.8078 5.00002C12.9033 5.01202 12.01 5.20176 11.1786 5.55846C10.3458 5.91579 9.5916 6.43367 8.95897 7.08252C8.32635 7.73137 7.82773 8.49848 7.49159 9.34005C7.15546 10.1816 6.98839 11.0812 6.99993 11.9873C6.99999 11.9915 7.00002 11.9958 7.00002 12C7.00002 15.8726 10.0768 19 13.8 19C15.5254 19 17.1012 18.3105 18.3492 17.2408C18.7685 16.8814 19.3998 16.9299 19.7593 17.3492C20.1187 17.7686 20.0701 18.3999 19.6508 18.7593C18.0988 20.0896 16.0746 21 13.8 21C8.92529 21 5.00339 16.931 5.00002 12.0064C4.98599 10.8398 5.20149 9.68173 5.63426 8.59821C6.06783 7.5127 6.71098 6.52324 7.52697 5.68632C8.34297 4.8494 9.31584 4.18141 10.39 3.72051C11.4642 3.25961 12.6186 3.01481 13.7874 3.00011C13.7906 3.00007 13.7938 3.00005 13.797 3.00004Z" fill="black"/>
</svg>
