<svg width="24" height="24" viewBox="0 0 24 24" fill="none" xmlns="http://www.w3.org/2000/svg">
<path d="M8.49999 12.9772C9.93099 12.9772 11.3322 13.3864 12.5381 14.1569C13.4225 14.722 14.4505 15.0231 15.5 15.0231C16.5495 15.0231 17.5775 14.722 18.4619 14.1569C18.9272 13.8599 19.5455 13.9963 19.8428 14.4615C20.1401 14.9269 20.0034 15.545 19.5381 15.8424C18.3321 16.613 16.9311 17.0231 15.5 17.0231C14.0689 17.0231 12.6679 16.613 11.4619 15.8424C10.5775 15.2773 9.54953 14.9772 8.49999 14.9772C7.45046 14.9772 6.42247 15.2773 5.53808 15.8424C5.07277 16.1396 4.4546 16.0039 4.15722 15.5387C3.85984 15.0733 3.99653 14.4542 4.46191 14.1569C5.66779 13.3864 7.069 12.9772 8.49999 12.9772Z" fill="black"/>
<path d="M8.49999 6.97717C9.93099 6.97717 11.3322 7.38642 12.5381 8.15686C13.4225 8.72199 14.4505 9.02307 15.5 9.02307C16.5495 9.02307 17.5775 8.72199 18.4619 8.15686C18.9272 7.85986 19.5455 7.99632 19.8428 8.46155C20.1401 8.92692 20.0034 9.54504 19.5381 9.84241C18.3321 10.613 16.9311 11.0231 15.5 11.0231C14.0689 11.0231 12.6679 10.613 11.4619 9.84241C10.5775 9.27728 9.54953 8.97717 8.49999 8.97717C7.45046 8.97717 6.42247 9.27728 5.53808 9.84241C5.07277 10.1396 4.4546 10.0039 4.15722 9.5387C3.85984 9.07331 3.99653 8.45424 4.46191 8.15686C5.66779 7.38642 7.069 6.97717 8.49999 6.97717Z" fill="black"/>
</svg>
