<svg width="24" height="24" viewBox="0 0 24 24" fill="none" xmlns="http://www.w3.org/2000/svg">
<path d="M20.9995 11C20.9995 10.7349 20.894 10.4805 20.7065 10.293L14.7075 4.29297C14.6147 4.20015 14.5046 4.12642 14.3833 4.07617C14.262 4.0259 14.1318 4 14.0005 4C13.8692 4.00001 13.739 4.0259 13.6177 4.07617C13.4964 4.12643 13.3863 4.20014 13.2935 4.29297L3.29346 14.293C3.106 14.4805 3.00051 14.7349 3.00049 15C3.00049 15.2652 3.10599 15.5195 3.29346 15.707L7.2876 19.7061C7.38072 19.7993 7.49198 19.8735 7.61377 19.9238C7.73552 19.9741 7.86582 20.0003 7.99756 20H12.4194L20.7065 11.707C20.894 11.5195 20.9995 11.2652 20.9995 11ZM22.9995 11C22.9995 11.7954 22.6839 12.5585 22.1216 13.1211L15.2476 20H21.0005C21.5526 20.0002 22.0004 20.4479 22.0005 21C22.0005 21.5521 21.5526 21.9998 21.0005 22H8.00049C7.60557 22.0007 7.2141 21.9233 6.84912 21.7725C6.48368 21.6213 6.15195 21.399 5.87256 21.1191L1.87842 17.1211C1.31613 16.5585 1.00049 15.7954 1.00049 15C1.00051 14.2046 1.3161 13.4415 1.87842 12.8789L11.8784 2.87988C12.157 2.60122 12.4881 2.37935 12.8521 2.22852C13.2161 2.07768 13.6064 2.00001 14.0005 2C14.3946 2 14.7849 2.07768 15.1489 2.22852C15.513 2.37936 15.844 2.60021 16.1226 2.87891L22.1216 8.87891C22.6839 9.44146 22.9995 10.2046 22.9995 11Z" fill="black"/>
<path d="M4.37492 10.383C4.76545 9.99252 5.39846 9.99252 5.78899 10.383L14.6171 19.2112C15.0075 19.6017 15.0076 20.2347 14.6171 20.6252C14.2266 21.0157 13.5936 21.0156 13.203 20.6252L4.37492 11.7971C3.9844 11.4066 3.9844 10.7736 4.37492 10.383Z" fill="black"/>
</svg>
