<svg width="24" height="24" viewBox="0 0 24 24" fill="none" xmlns="http://www.w3.org/2000/svg">
<path fill-rule="evenodd" clip-rule="evenodd" d="M12 6.00061C10.0691 6.00061 8.18167 6.57395 6.57699 7.64794C4.9823 8.71525 3.73823 10.2292 3.00027 12C3.73823 13.7708 4.9823 15.2847 6.57699 16.3521C8.18167 17.426 10.0691 17.9994 12 17.9994C13.9309 17.9994 15.8184 17.426 17.423 16.3521C19.0177 15.2847 20.2618 13.7708 20.9998 12C20.2618 10.2292 19.0177 8.71525 17.423 7.64794C15.8184 6.57395 13.9309 6.00061 12 6.00061ZM5.46458 5.98585C7.39842 4.69156 9.67302 4.00061 12 4.00061C14.327 4.00061 16.6016 4.69156 18.5355 5.98585C20.4693 7.28014 21.9753 9.1195 22.8625 11.2707C22.867 11.2817 22.8714 11.2928 22.8755 11.304C23.0422 11.753 23.0422 12.247 22.8755 12.696C22.8714 12.7072 22.867 12.7182 22.8625 12.7293C21.9753 14.8805 20.4693 16.7198 18.5355 18.0141C16.6016 19.3084 14.327 19.9994 12 19.9994C9.67302 19.9994 7.39842 19.3084 5.46458 18.0141C3.53074 16.7198 2.02476 14.8805 1.13755 12.7293C1.13301 12.7182 1.12867 12.7072 1.12452 12.696C0.957841 12.247 0.957841 11.753 1.12452 11.304C1.12867 11.2928 1.13301 11.2817 1.13755 11.2707C2.02476 9.1195 3.53074 7.28014 5.46458 5.98585Z" fill="black"/>
<path fill-rule="evenodd" clip-rule="evenodd" d="M12 9.99999C10.8954 9.99999 9.99998 10.8954 9.99998 12C9.99998 13.1046 10.8954 14 12 14C13.1046 14 14 13.1046 14 12C14 10.8954 13.1046 9.99999 12 9.99999ZM7.99998 12C7.99998 9.79085 9.79084 7.99999 12 7.99999C14.2091 7.99999 16 9.79085 16 12C16 14.2091 14.2091 16 12 16C9.79084 16 7.99998 14.2091 7.99998 12Z" fill="black"/>
</svg>
