<svg width="24" height="24" viewBox="0 0 24 24" fill="none" xmlns="http://www.w3.org/2000/svg">
<path fill-rule="evenodd" clip-rule="evenodd" d="M12 3C7.02944 3 3 7.02944 3 12C3 16.9706 7.02944 21 12 21C16.9706 21 21 16.9706 21 12C21 7.02944 16.9706 3 12 3ZM1 12C1 5.92487 5.92487 1 12 1C18.0751 1 23 5.92487 23 12C23 18.0751 18.0751 23 12 23C5.92487 23 1 18.0751 1 12Z" fill="black"/>
<path fill-rule="evenodd" clip-rule="evenodd" d="M12.7072 1.29289C13.0977 1.68342 13.0977 2.31658 12.7072 2.70711C11.5686 3.84565 10.929 5.38985 10.929 7C10.929 8.61015 11.5686 10.1543 12.7072 11.2929C13.8457 12.4314 15.3899 13.0711 17.0001 13.0711C18.6102 13.0711 20.1544 12.4314 21.2929 11.2929C21.6835 10.9024 22.3166 10.9024 22.7072 11.2929C23.0977 11.6834 23.0977 12.3166 22.7072 12.7071C21.1935 14.2207 19.1406 15.0711 17.0001 15.0711C14.8595 15.0711 12.8066 14.2207 11.2929 12.7071C9.77933 11.1935 8.92898 9.14058 8.92898 7C8.92898 4.85942 9.77933 2.80651 11.2929 1.29289C11.6835 0.902369 12.3166 0.902369 12.7072 1.29289Z" fill="black"/>
</svg>
