<svg width="24" height="24" viewBox="0 0 24 24" fill="none" xmlns="http://www.w3.org/2000/svg">
<path d="M3 11V4.00001C3 3.20436 3.3163 2.44152 3.87891 1.87891C4.44152 1.3163 5.20435 1.00001 6 1.00001H14C14.448 0.999229 14.8916 1.08748 15.3057 1.25879C15.7199 1.43024 16.0965 1.68159 16.4131 1.99903L20 5.58594L20.1162 5.70704C20.3799 5.99709 20.591 6.33139 20.7412 6.69434C20.9125 7.10836 21.0008 7.55196 21 8.00001V20C21 20.7957 20.6837 21.5585 20.1211 22.1211C19.5585 22.6837 18.7957 23 18 23H13C12.4477 23 12 22.5523 12 22C12 21.4477 12.4477 21 13 21H18C18.2652 21 18.5195 20.8946 18.707 20.707C18.8946 20.5195 19 20.2652 19 20V7.99708C19.0004 7.81244 18.9641 7.6296 18.8936 7.45899C18.8229 7.28818 18.7188 7.13243 18.5879 7.00196L14.998 3.41211C14.8676 3.28117 14.7118 3.17714 14.541 3.10645C14.3704 3.03587 14.1876 2.99962 14.0029 3.00001H6C5.73479 3.00001 5.4805 3.10544 5.29297 3.29297C5.10543 3.48051 5 3.73479 5 4.00001V11C5 11.5523 4.55228 12 4 12C3.44772 12 3 11.5523 3 11Z" fill="black"/>
<path d="M13 7.00001V2.00001C13 1.44772 13.4477 1.00001 14 1.00001C14.5523 1.00001 15 1.44772 15 2.00001V7.00001H20C20.5523 7.00001 21 7.44772 21 8.00001C21 8.55229 20.5523 9 20 9H15C14.4696 9 13.961 8.78914 13.5859 8.41407C13.2109 8.039 13 7.53044 13 7.00001Z" fill="black"/>
<path d="M4.23399 14.1536C4.65115 14.0173 5.09171 13.9667 5.52891 14.0052C5.96609 14.0437 6.39102 14.1701 6.77793 14.3773C6.85567 14.4189 6.93063 14.4654 7.00449 14.513C7.0771 14.4669 7.15087 14.4225 7.22715 14.3821C7.6136 14.178 8.03773 14.0535 8.47324 14.0169C8.90871 13.9803 9.34723 14.0316 9.76231 14.1683C10.1774 14.305 10.5608 14.5245 10.8893 14.8128C11.2177 15.101 11.4849 15.4523 11.6744 15.846C11.8639 16.2398 11.9715 16.6682 11.9918 17.1048C12.0121 17.5412 11.9447 17.9774 11.7926 18.387C11.642 18.7923 11.4105 19.1626 11.1148 19.4778L11.1158 19.4788L8.48985 22.3353L8.48887 22.3343C8.30432 22.5402 8.07964 22.7071 7.82774 22.8216C7.56798 22.9396 7.2859 23.0003 7.00059 23.0003C6.71505 23.0003 6.4324 22.9398 6.17246 22.8216C5.92003 22.7068 5.69511 22.5399 5.51035 22.3333L2.8834 19.4769L2.88438 19.4759C2.58766 19.1624 2.35516 18.7939 2.20274 18.39C2.0478 17.9792 1.97774 17.5405 1.99668 17.1019C2.01567 16.6634 2.12337 16.233 2.31309 15.8372C2.50285 15.4415 2.77118 15.0885 3.10117 14.7991C3.43123 14.5097 3.81674 14.2901 4.23399 14.1536ZM5.35313 15.9974C5.185 15.9826 5.01549 16.0016 4.85508 16.054C4.6946 16.1065 4.54648 16.1917 4.41953 16.303C4.29268 16.4143 4.18975 16.5503 4.1168 16.7025C4.04386 16.8547 4.00201 17.0202 3.99473 17.1888C3.98748 17.3574 4.01427 17.526 4.07383 17.6839C4.1334 17.8418 4.22461 17.9859 4.34141 18.1077C4.34631 18.1128 4.35127 18.1181 4.35606 18.1234L6.98301 20.9808L7.00059 21.0003L7.01817 20.9808L9.64414 18.1253L9.65391 18.1146C9.76933 17.9925 9.85909 17.8482 9.91758 17.6907C9.97606 17.5332 10.0015 17.3654 9.99375 17.1976C9.98595 17.0297 9.94456 16.8647 9.87168 16.7132C9.79881 16.5619 9.69615 16.4265 9.56992 16.3157C9.44362 16.205 9.2959 16.1212 9.13633 16.0687C8.97684 16.0162 8.80854 15.9961 8.64121 16.0101C8.47371 16.0242 8.31036 16.0722 8.16172 16.1507C8.01316 16.2292 7.882 16.3367 7.77598 16.4671C7.58536 16.7015 7.29878 16.8372 6.99668 16.8362C6.69443 16.8351 6.4083 16.6971 6.21934 16.4612C6.11379 16.3295 5.98244 16.2206 5.8336 16.1409C5.68476 16.0612 5.52131 16.0122 5.35313 15.9974Z" fill="black"/>
</svg>
