<svg width="24" height="24" viewBox="0 0 24 24" fill="none" xmlns="http://www.w3.org/2000/svg">
<path fill-rule="evenodd" clip-rule="evenodd" d="M11.116 6.40124C11.4372 6.714 11.6843 7.09489 11.839 7.51599C11.9981 7.94905 12.0552 8.41297 12.0058 8.87169C11.9564 9.3304 11.8019 9.77153 11.5542 10.1608C11.3066 10.5501 10.9725 10.877 10.5779 11.1161C10.1834 11.3552 9.73897 11.5001 9.2793 11.5395C8.94106 11.5685 8.60126 11.5398 8.27421 11.4555C8.4734 11.9654 8.77701 12.4339 9.17156 12.8284C9.9217 13.5786 10.9391 14 12 14C13.0609 14 14.0783 13.5786 14.8284 12.8284C15.5769 12.08 15.9981 11.0654 16 10.0071C15.9831 8.95464 15.552 7.9511 14.8001 7.21424L14.7964 7.2106L14.7929 7.20711C14.6307 7.04489 14.4211 6.88104 14.181 6.69334C13.4 6.08266 12.2961 5.21949 11.4487 3.33844C11.2017 3.53662 10.9595 3.79709 10.7805 4.0928C10.574 4.43393 10.4708 4.78785 10.4946 5.1387C10.5173 5.4737 10.6617 5.90176 11.116 6.40124ZM10.4087 1.61796C10.8449 1.30591 11.4323 1 12 1C12.4304 1 12.8126 1.27543 12.9487 1.68377C13.6115 3.67241 14.4017 4.29745 15.2603 4.97657C15.5669 5.21908 15.8822 5.46848 16.2035 5.78934C17.3318 6.89679 17.9774 8.40485 17.9999 9.98576C18 9.9905 18 9.99525 18 10C18 11.5913 17.3678 13.1174 16.2426 14.2426C15.1174 15.3679 13.5913 16 12 16C10.4087 16 8.88256 15.3679 7.75734 14.2426C6.63213 13.1174 5.99998 11.5913 5.99998 10C5.99998 9.98782 5.99997 9.97529 5.99995 9.96242C5.99961 9.68204 5.99908 9.24044 6.1513 8.78377C6.28995 8.36784 6.68336 8.09072 7.12169 8.10024C7.56003 8.10975 7.94104 8.40369 8.0615 8.82525C8.10375 8.97312 8.17954 9.10925 8.28297 9.22306C8.3864 9.33687 8.51469 9.42529 8.65786 9.48145C8.80103 9.53761 8.95522 9.55998 9.10844 9.54685C9.26167 9.53371 9.4098 9.48541 9.54132 9.4057C9.67284 9.32599 9.7842 9.21703 9.86675 9.08727C9.9493 8.95751 10.0008 8.81047 10.0173 8.65756C10.0337 8.50466 10.0147 8.35002 9.96168 8.20566C9.90865 8.06131 9.82304 7.93113 9.7115 7.82525C9.69555 7.81011 9.6801 7.79444 9.66518 7.77828C8.93434 6.98654 8.5574 6.13423 8.49914 5.2738C8.44165 4.42465 8.70095 3.66607 9.06948 3.0572C9.43563 2.45226 9.9281 1.96184 10.4087 1.61796Z" fill="black"/>
<path fill-rule="evenodd" clip-rule="evenodd" d="M19.9615 17.7253C20.1132 18.2563 19.8057 18.8098 19.2747 18.9615L5.2747 22.9615C4.74367 23.1133 4.19018 22.8058 4.03846 22.2747C3.88673 21.7437 4.19423 21.1902 4.72526 21.0385L18.7253 17.0385C19.2563 16.8868 19.8098 17.1942 19.9615 17.7253Z" fill="black"/>
<path fill-rule="evenodd" clip-rule="evenodd" d="M4.03846 17.7253C4.19018 17.1942 4.74367 16.8868 5.2747 17.0385L19.2747 21.0385C19.8057 21.1902 20.1132 21.7437 19.9615 22.2747C19.8098 22.8058 19.2563 23.1133 18.7253 22.9615L4.72526 18.9615C4.19423 18.8098 3.88673 18.2563 4.03846 17.7253Z" fill="black"/>
</svg>
