<svg width="24" height="24" viewBox="0 0 24 24" fill="none" xmlns="http://www.w3.org/2000/svg">
<path d="M3 10V4.00001C3 3.20436 3.3163 2.44152 3.87891 1.87891C4.44152 1.3163 5.20435 1.00001 6 1.00001H14C14.448 0.999229 14.8916 1.08748 15.3057 1.25879C15.7199 1.43024 16.0965 1.68159 16.4131 1.99903L20 5.58594L20.1162 5.70704C20.3799 5.99709 20.591 6.33139 20.7412 6.69434C20.9125 7.10836 21.0008 7.55196 21 8.00001V20C21 20.7957 20.6837 21.5585 20.1211 22.1211C19.5585 22.6837 18.7957 23 18 23H12C11.4477 23 11 22.5523 11 22C11 21.4477 11.4477 21 12 21H18C18.2652 21 18.5195 20.8946 18.707 20.707C18.8946 20.5195 19 20.2652 19 20V7.99708C19.0004 7.81244 18.9641 7.6296 18.8936 7.45899C18.8229 7.28818 18.7188 7.13243 18.5879 7.00196L14.998 3.41211C14.8676 3.28117 14.7118 3.17714 14.541 3.10645C14.3704 3.03587 14.1876 2.99962 14.0029 3.00001H6C5.73479 3.00001 5.4805 3.10544 5.29297 3.29297C5.10543 3.48051 5 3.73479 5 4.00001V10C5 10.5523 4.55228 11 4 11C3.44772 11 3 10.5523 3 10Z" fill="black"/>
<path d="M13 7.00001V2.00001C13 1.44773 13.4477 1.00001 14 1.00001C14.5523 1.00001 15 1.44773 15 2.00001V7.00001H20C20.5523 7.00001 21 7.44772 21 8.00001C21 8.55229 20.5523 9.00001 20 9.00001H15C14.4696 9.00001 13.961 8.78915 13.5859 8.41407C13.2109 8.039 13 7.53045 13 7.00001Z" fill="black"/>
<path d="M12 16C12 16.5523 11.5523 17 11 17C10.4477 17 10 16.5523 10 16V15H4V16C4 16.5523 3.55228 17 3 17C2.44772 17 2 16.5523 2 16V14.5C2 14.1022 2.15815 13.7208 2.43945 13.4395C2.72076 13.1582 3.10218 13 3.5 13H10.5C10.8978 13 11.2792 13.1582 11.5605 13.4395C11.8419 13.7208 12 14.1022 12 14.5V16Z" fill="black"/>
<path d="M8 21C8.55228 21 9 21.4477 9 22C9 22.5523 8.55228 23 8 23H6C5.44772 23 5 22.5523 5 22C5 21.4477 5.44772 21 6 21H8Z" fill="black"/>
<path d="M6 22V14C6 13.4477 6.44772 13 7 13C7.55228 13 8 13.4477 8 14V22C8 22.5523 7.55228 23 7 23C6.44772 23 6 22.5523 6 22Z" fill="black"/>
</svg>
