<svg width="24" height="24" viewBox="0 0 24 24" fill="none" xmlns="http://www.w3.org/2000/svg">
<path d="M3 20V4.00001C3 3.20436 3.3163 2.44152 3.87891 1.87891C4.44152 1.3163 5.20435 1.00001 6 1.00001H14C14.448 0.999229 14.8916 1.08748 15.3057 1.25879C15.7199 1.43024 16.0965 1.68159 16.4131 1.99903L18.9336 4.51856C19.324 4.90909 19.3241 5.5431 18.9336 5.9336C18.5431 6.3241 17.9091 6.32405 17.5186 5.9336L14.998 3.41211C14.8676 3.28117 14.7118 3.17713 14.541 3.10645C14.3704 3.03587 14.1876 2.99962 14.0029 3.00001H6C5.73479 3.00001 5.4805 3.10544 5.29297 3.29297C5.10543 3.48051 5 3.73479 5 4.00001V20C5 20.2652 5.10543 20.5195 5.29297 20.707C5.48051 20.8946 5.73478 21 6 21H18C18.2652 21 18.5195 20.8946 18.707 20.707C18.8946 20.5195 19 20.2652 19 20V19.6494C19 19.0971 19.4477 18.6494 20 18.6494C20.5523 18.6494 21 19.0971 21 19.6494V20C21 20.7957 20.6837 21.5585 20.1211 22.1211C19.5585 22.6837 18.7957 23 18 23H6C5.20435 23 4.44152 22.6837 3.87891 22.1211C3.3163 21.5585 3 20.7957 3 20Z" fill="black"/>
<path d="M20.9999 11.1239C20.9999 10.8258 20.8816 10.5398 20.6708 10.329C20.46 10.1182 20.174 9.99988 19.8759 9.99988C19.6148 9.99988 19.3631 10.0906 19.163 10.2548L19.081 10.329L15.0712 14.3407C14.9523 14.4595 14.8654 14.6071 14.8183 14.7684L14.2363 16.7626L16.2314 16.1805C16.3922 16.1334 16.5386 16.047 16.6572 15.9286L20.6708 11.9188L20.745 11.8368C20.9092 11.6367 20.9999 11.385 20.9999 11.1239ZM22.9999 11.1239C22.9999 11.9524 22.6707 12.747 22.0849 13.3329L18.0712 17.3427C17.7149 17.6988 17.2746 17.9592 16.7909 18.1005L13.9208 18.9384C13.6628 19.0136 13.3892 19.0177 13.1288 18.951C12.8683 18.8843 12.6305 18.7486 12.4404 18.5585C12.2502 18.3683 12.1145 18.1305 12.0478 17.87C11.9811 17.6096 11.9852 17.336 12.0605 17.078L12.8984 14.2079L12.957 14.0282C13.1064 13.615 13.3444 13.2384 13.6562 12.9266L17.6669 8.91492C18.2528 8.32906 19.0474 7.99988 19.8759 7.99988C20.7044 7.99988 21.499 8.32906 22.0849 8.91492C22.6707 9.50078 22.9999 10.2954 22.9999 11.1239Z" fill="black"/>
<path d="M9 17C9.55228 17 10 17.4477 10 18C10 18.5523 9.55228 19 9 19H8C7.44772 19 7 18.5523 7 18C7 17.4477 7.44772 17 8 17H9Z" fill="black"/>
</svg>
