<svg width="24" height="24" viewBox="0 0 24 24" fill="none" xmlns="http://www.w3.org/2000/svg">
<path d="M3 7.51172V4C3 3.20435 3.3163 2.44152 3.87891 1.87891C4.44152 1.3163 5.20435 1 6 1H14C14.4486 0.999488 14.8933 1.08782 15.3076 1.25977C15.7214 1.43154 16.097 1.68354 16.4131 2.00098L20 5.58789L20.1162 5.70899C20.3795 5.99862 20.591 6.33198 20.7412 6.69434C20.9127 7.10814 21.0005 7.5521 21 8V20C21 20.7957 20.6837 21.5585 20.1211 22.1211C19.5585 22.6837 18.7957 23 18 23H15.9414C15.3891 23 14.9414 22.5523 14.9414 22C14.9414 21.4477 15.3891 21 15.9414 21H18C18.2652 21 18.5195 20.8946 18.707 20.707C18.8946 20.5195 19 20.2652 19 20V7.99805C19.0003 7.81351 18.9642 7.63046 18.8936 7.45996C18.8229 7.28944 18.7187 7.1342 18.5879 7.00391L14.9971 3.41309C14.8668 3.28199 14.7117 3.17733 14.541 3.10645C14.3703 3.0356 14.1868 2.99975 14.002 3H6C5.73478 3 5.4805 3.10544 5.29297 3.29297C5.10543 3.48051 5 3.73479 5 4V7.51172C5 8.06401 4.55228 8.51172 4 8.51172C3.44772 8.51172 3 8.06401 3 7.51172Z" fill="black"/>
<path d="M13 7V2C13 1.44772 13.4477 1 14 1C14.5523 1 15 1.44772 15 2V7H20C20.5523 7 21 7.44772 21 8C21 8.55229 20.5523 9 20 9H15C14.4696 9 13.961 8.78914 13.5859 8.41406C13.2109 8.03899 13 7.53044 13 7Z" fill="black"/>
<path d="M3.35302 10.764C3.76608 10.3974 4.39853 10.4349 4.76513 10.848C5.13165 11.261 5.09404 11.8935 4.68114 12.2601C4.17146 12.7124 3.75892 13.2639 3.4702 13.8812C3.18149 14.4984 3.02193 15.1688 3.00145 15.8499C2.98105 16.5308 3.10006 17.2088 3.35106 17.8421C3.60219 18.4756 3.98079 19.0514 4.46239 19.5335C4.94391 20.0155 5.51877 20.3941 6.15184 20.6458C6.78496 20.8976 7.46299 21.0171 8.14403 20.9974C8.82517 20.9776 9.49523 20.8186 10.1128 20.5306C10.7304 20.2425 11.283 19.8318 11.7358 19.3226C12.1029 18.9099 12.7353 18.8725 13.1479 19.2396C13.5605 19.6066 13.597 20.239 13.23 20.6517C12.596 21.3645 11.823 21.9398 10.9585 22.3431C10.094 22.7463 9.15617 22.9687 8.20263 22.9964C7.24899 23.024 6.2991 22.8567 5.41259 22.5042C4.52622 22.1517 3.7215 21.6215 3.04735 20.9466C2.37311 20.2716 1.84326 19.4663 1.49169 18.5794C1.14013 17.6925 0.97377 16.743 1.00243 15.7894C1.0311 14.8358 1.25448 13.8977 1.65868 13.0335C2.06287 12.1695 2.63955 11.3971 3.35302 10.764Z" fill="black"/>
<path d="M9.16016 9.09681C10.5954 9.33821 11.9211 10.0208 12.9502 11.0499C13.915 12.0148 14.5749 13.2395 14.8525 14.5714L14.9033 14.839C15.1152 16.1058 14.0498 17.0001 13 17.0001H9C8.46959 17.0001 7.96101 16.7892 7.58594 16.4142C7.21089 16.0391 7.00002 15.5305 7 15.0001V11.0001C7 9.95083 7.89206 8.88508 9.16016 9.09681ZM12.8984 15.0001C12.7026 14.0408 12.2293 13.1581 11.5352 12.464C10.8411 11.7701 9.95907 11.2975 9 11.1017V15.0001H12.8984Z" fill="black"/>
</svg>
