<svg width="24" height="24" viewBox="0 0 24 24" fill="none" xmlns="http://www.w3.org/2000/svg">
<path fill-rule="evenodd" clip-rule="evenodd" d="M2.87868 11.8787C3.44129 11.3161 4.20435 11 5 11H12C12.5523 11 13 11.4477 13 12C13 12.5523 12.5523 13 12 13H5C4.73478 13 4.48043 13.1054 4.29289 13.2929C4.10536 13.4804 4 13.7348 4 14V19C4 19.5523 3.55228 20 3 20C2.44772 20 2 19.5523 2 19V14C2 13.2044 2.31607 12.4413 2.87868 11.8787Z" fill="black"/>
<path fill-rule="evenodd" clip-rule="evenodd" d="M13 18C12.4477 18 12 18.4477 12 19C12 19.5523 12.4477 20 13 20C13.5523 20 14 19.5523 14 19C14 18.4477 13.5523 18 13 18ZM10 19C10 17.3431 11.3431 16 13 16C14.6569 16 16 17.3431 16 19C16 20.6569 14.6569 22 13 22C11.3431 22 10 20.6569 10 19Z" fill="black"/>
<path fill-rule="evenodd" clip-rule="evenodd" d="M5 18C4.44772 18 4 18.4477 4 19C4 19.5523 4.44772 20 5 20C5.55228 20 6 19.5523 6 19C6 18.4477 5.55228 18 5 18ZM2 19C2 17.3431 3.34315 16 5 16C6.65685 16 8 17.3431 8 19C8 20.6569 6.65685 22 5 22C3.34315 22 2 20.6569 2 19Z" fill="black"/>
<path fill-rule="evenodd" clip-rule="evenodd" d="M16 1C16.5523 1 17 1.44772 17 2V18H22C22.5523 18 23 18.4477 23 19C23 19.5523 22.5523 20 22 20H16C15.4477 20 15 19.5523 15 19V10.4142L10.5858 6H8C7.45228 6 7 6.45228 7 7V12C7 12.5523 6.55228 13 6 13C5.44772 13 5 12.5523 5 12V7C5 5.34771 6.34772 4 8 4H11C11.2652 4 11.5196 4.10536 11.7071 4.29289L15 7.58579V2C15 1.44772 15.4477 1 16 1ZM7 19C7 18.4477 7.44772 18 8 18H11C11.5523 18 12 18.4477 12 19C12 19.5523 11.5523 20 11 20H8C7.44772 20 7 19.5523 7 19Z" fill="black"/>
</svg>
