<svg width="24" height="24" viewBox="0 0 24 24" fill="none" xmlns="http://www.w3.org/2000/svg">
<path fill-rule="evenodd" clip-rule="evenodd" d="M8.38965 4.11736C8.24203 4.03874 8.07705 3.99841 7.9098 4.00005C7.90654 4.00008 7.90327 4.0001 7.9 4.0001H4C3.73478 4.0001 3.48043 4.10545 3.29289 4.29299C3.10536 4.48053 3 4.73488 3 5.0001V18.0001C3 18.2653 3.10536 18.5197 3.29289 18.7072C3.48043 18.8947 3.73478 19.0001 4 19.0001H18.45C18.4523 19.0001 18.4545 19.0001 18.4568 19.0001C18.6796 19.0016 18.8966 18.9286 19.0732 18.7928C19.2496 18.6571 19.3757 18.4664 19.4315 18.2509C19.4316 18.2507 19.4317 18.2504 19.4317 18.2501L20.9718 12.2501C21.0099 12.1022 21.0137 11.9475 20.9829 11.7979C20.952 11.6483 20.8872 11.5077 20.7935 11.387C20.6999 11.2663 20.5798 11.1687 20.4426 11.1016C20.3053 11.0346 20.1545 10.9998 20.0018 11.0001L20 11.0001H9.25356C9.07568 11.0059 8.90251 11.0591 8.75197 11.1543C8.59872 11.2512 8.4747 11.3879 8.39316 11.5498C8.39153 11.5531 8.38988 11.5563 8.38822 11.5595L6.88822 14.4595C6.63449 14.9501 6.03113 15.142 5.54058 14.8883C5.05003 14.6346 4.85805 14.0312 5.11178 13.5407L6.60952 10.645C6.85417 10.1616 7.2252 9.75336 7.68325 9.46379C8.14299 9.17315 8.67308 9.01296 9.21684 9.00036C9.22456 9.00019 9.23228 9.0001 9.24 9.0001H19V8.0001C19 7.73488 18.8946 7.48053 18.7071 7.29299C18.5196 7.10545 18.2652 7.0001 18 7.0001H12.07V5.99824L12.0698 7.0001C11.5732 7.00001 11.0843 6.87663 10.6471 6.641C10.2117 6.40637 9.84114 6.06776 9.56829 5.65534L8.76115 4.45957C8.75902 4.45641 8.7569 4.45323 8.7548 4.45005C8.66282 4.31036 8.53728 4.19597 8.38965 4.11736ZM12.07 5.0001C12.0701 5.0001 12.0701 5.0001 12.0702 5.0001H18C18.7957 5.0001 19.5587 5.31617 20.1213 5.87878C20.6839 6.44138 21 7.20445 21 8.0001V9.17043C21.1091 9.20886 21.2162 9.25367 21.3207 9.30472C21.7325 9.50594 22.0926 9.79883 22.3736 10.1609C22.6546 10.523 22.8489 10.9446 22.9415 11.3934C23.0342 11.8423 23.0228 12.3064 22.9082 12.7501L21.3686 18.7487L21.3683 18.7501C21.2011 19.3974 20.8226 19.9704 20.2926 20.378C19.7637 20.7849 19.1143 21.0038 18.447 21.0001H4C3.20435 21.0001 2.44129 20.684 1.87868 20.1214C1.31607 19.5588 1 18.7957 1 18.0001V5.0001C1 4.20445 1.31607 3.44139 1.87868 2.87878C2.44129 2.31617 3.20435 2.0001 4 2.0001H7.8956C8.39548 1.99609 8.88846 2.11707 9.32975 2.35207C9.77076 2.58694 10.1461 2.92822 10.4217 3.3449L11.2288 4.54062C11.231 4.54377 11.2331 4.54693 11.2352 4.5501C11.3262 4.68836 11.4502 4.80186 11.5959 4.8804C11.7416 4.95891 11.9045 5.00004 12.07 5.0001Z" fill="black"/>
</svg>
