<svg width="24" height="24" viewBox="0 0 24 24" fill="none" xmlns="http://www.w3.org/2000/svg">
<path d="M9 4.34277V2C9 1.44772 9.44771 1 10 1C10.5523 1 11 1.44772 11 2V4.34277C11 4.89506 10.5523 5.34277 10 5.34277C9.44771 5.34277 9 4.89506 9 4.34277Z" fill="black"/>
<path d="M13 8.34277V2C13 1.44772 13.4477 1 14 1C14.5523 1 15 1.44772 15 2V8.34277C15 8.89506 14.5523 9.34277 14 9.34277C13.4477 9.34277 13 8.89506 13 8.34277Z" fill="black"/>
<path d="M1.29289 1.29302C1.68342 0.902491 2.31643 0.902491 2.70696 1.29302L22.707 21.293C23.0975 21.6835 23.0975 22.3166 22.707 22.7071C22.3164 23.0976 21.6834 23.0976 21.2929 22.7071L1.29289 2.70708C0.902369 2.31655 0.902369 1.68354 1.29289 1.29302Z" fill="black"/>
<path d="M8.5942 8.99752C8.85906 8.51295 9.46702 8.3343 9.95162 8.59908C10.4362 8.86397 10.614 9.47188 10.3491 9.9565L5.12252 19.52C5.03922 19.6722 4.99651 19.8435 4.99947 20.017C5.00247 20.1906 5.05058 20.3609 5.13912 20.5102C5.22759 20.6594 5.35367 20.7827 5.50435 20.8686C5.65515 20.9545 5.82594 21.0004 5.99947 21.0004H17.9995C18.2647 21.0004 18.5199 20.895 18.7075 20.7075C18.8949 20.52 18.9994 20.2655 18.9995 20.0004C18.9995 19.4483 19.4474 19.0007 19.9995 19.0004C20.5518 19.0004 20.9995 19.4482 20.9995 20.0004C20.9994 20.7959 20.684 21.559 20.1215 22.1215C19.5589 22.6841 18.7951 23.0004 17.9995 23.0004H5.99947C5.47894 23.0004 4.96744 22.8645 4.51509 22.6069C4.06251 22.3491 3.68502 21.9777 3.41939 21.5297C3.15383 21.0819 3.00853 20.5728 2.99947 20.0522C2.99048 19.5315 3.11764 19.0169 3.36763 18.56L8.5942 8.99752Z" fill="black"/>
<path d="M14.9998 14C15.552 14 15.9998 14.4477 15.9998 15C15.9998 15.5523 15.552 16 14.9998 16H6.45288C5.9006 16 5.45288 15.5523 5.45288 15C5.45288 14.4477 5.9006 14 6.45288 14H14.9998Z" fill="black"/>
<path d="M15.5 1C16.0523 1 16.5 1.44772 16.5 2C16.5 2.55228 16.0523 3 15.5 3H8.5C7.94772 3 7.5 2.55228 7.5 2C7.5 1.44772 7.94772 1 8.5 1H15.5Z" fill="black"/>
</svg>
