<svg width="24" height="24" viewBox="0 0 24 24" fill="none" xmlns="http://www.w3.org/2000/svg">
<path d="M8 15V4C8 3.20435 8.3163 2.44151 8.87891 1.87891C9.44152 1.3163 10.2044 1 11 1H15C15.5523 1 16 1.44772 16 2C16 2.55228 15.5523 3 15 3H11C10.7348 3 10.4805 3.10543 10.293 3.29297C10.1054 3.48051 10 3.73478 10 4V15C10 15.2652 10.1054 15.5195 10.293 15.707C10.4805 15.8946 10.7348 16 11 16H19C19.2652 16 19.5195 15.8946 19.707 15.707C19.8946 15.5195 20 15.2652 20 15V8C20 7.44772 20.4477 7 21 7C21.5523 7 22 7.44772 22 8V15C22 15.7957 21.6837 16.5585 21.1211 17.1211C20.5585 17.6837 19.7957 18 19 18H11C10.2043 18 9.44151 17.6837 8.87891 17.1211C8.3163 16.5585 8 15.7957 8 15Z" fill="black"/>
<path d="M14.9971 1.00001C15.4459 0.998909 15.8909 1.08717 16.3057 1.2588C16.7199 1.43024 17.0965 1.6816 17.4131 1.99903L21 5.58595L21.1162 5.70704C21.3799 5.99709 21.591 6.3314 21.7412 6.69435C21.9128 7.10912 22.0011 7.55406 22 8.00294C21.9984 8.55405 21.5512 9.00001 21 9.00001H16C15.4696 9.00001 14.961 8.78914 14.5859 8.41407C14.2109 8.039 14 7.53044 14 7.00001V2.00001C14 1.44885 14.446 1.00162 14.9971 1.00001ZM19.5859 7.00001L16 3.41407V7.00001H19.5859Z" fill="black"/>
<path d="M2 20V9C2 8.20435 2.3163 7.44152 2.87891 6.87891C3.44152 6.3163 4.20435 6 5 6C5.55228 6 6 6.44772 6 7C6 7.55228 5.55228 8 5 8C4.73478 8 4.4805 8.10543 4.29297 8.29297C4.10543 8.4805 4 8.73478 4 9V20C4 20.2652 4.10543 20.5195 4.29297 20.707C4.48051 20.8946 4.73478 21 5 21H13L13.1309 20.9912C13.2605 20.9741 13.386 20.932 13.5 20.8662C13.652 20.7784 13.7784 20.652 13.8662 20.5C14.1424 20.0218 14.7542 19.8577 15.2324 20.1338C15.7105 20.41 15.8738 21.0218 15.5977 21.5C15.3344 21.9559 14.9559 22.3344 14.5 22.5977C14.044 22.861 13.5266 23 13 23H5C4.20435 23 3.44151 22.6837 2.87891 22.1211C2.3163 21.5585 2 20.7957 2 20Z" fill="black"/>
</svg>
