<svg width="24" height="24" viewBox="0 0 24 24" fill="none" xmlns="http://www.w3.org/2000/svg">
<path fill-rule="evenodd" clip-rule="evenodd" d="M10.5858 1.58579C10.9609 1.21071 11.4696 1 12 1H14C14.5304 1 15.0391 1.21071 15.4142 1.58579C15.7893 1.96086 16 2.46957 16 3V6.5C16 7.05228 15.5523 7.5 15 7.5C14.4477 7.5 14 7.05228 14 6.5V3H12V6.5C12 7.05228 11.5523 7.5 11 7.5C10.4477 7.5 10 7.05228 10 6.5V3C10 2.46957 10.2107 1.96086 10.5858 1.58579Z" fill="black"/>
<path fill-rule="evenodd" clip-rule="evenodd" d="M8 18C8 17.4477 8.44772 17 9 17H17C17.5523 17 18 17.4477 18 18C18 18.5523 17.5523 19 17 19H9C8.44772 19 8 18.5523 8 18Z" fill="black"/>
<path fill-rule="evenodd" clip-rule="evenodd" d="M14 3C14 2.44772 14.4477 2 15 2H18C18.5523 2 19 2.44772 19 3C19 3.55228 18.5523 4 18 4H15C14.4477 4 14 3.55228 14 3Z" fill="black"/>
<path fill-rule="evenodd" clip-rule="evenodd" d="M6.05025 4.05025C7.36301 2.7375 9.14348 2 11 2C11.5523 2 12 2.44772 12 3C12 3.55228 11.5523 4 11 4C9.67392 4 8.40215 4.52678 7.46447 5.46447C6.52678 6.40215 6 7.67392 6 9V20C6 20.5523 5.55228 21 5 21C4.44772 21 4 20.5523 4 20V9C4 7.14348 4.7375 5.36301 6.05025 4.05025Z" fill="black"/>
<path fill-rule="evenodd" clip-rule="evenodd" d="M4 13C4 12.4477 4.44772 12 5 12H9C9.55228 12 10 12.4477 10 13C10 13.5523 9.55228 14 9 14H5C4.44772 14 4 13.5523 4 13Z" fill="black"/>
<path fill-rule="evenodd" clip-rule="evenodd" d="M9.46447 6.46447C10.4021 5.52678 11.6739 5 13 5C14.3261 5 15.5979 5.52678 16.5355 6.46447C17.4732 7.40215 18 8.67392 18 10V20C18 20.7957 17.6839 21.5587 17.1213 22.1213C16.5587 22.6839 15.7957 23 15 23H11C10.2043 23 9.44129 22.6839 8.87868 22.1213C8.31607 21.5587 8 20.7957 8 20V10C8 8.67392 8.52678 7.40215 9.46447 6.46447ZM13 7C12.2043 7 11.4413 7.31607 10.8787 7.87868C10.3161 8.44129 10 9.20435 10 10V20C10 20.2652 10.1054 20.5196 10.2929 20.7071C10.4804 20.8946 10.7348 21 11 21H15C15.2652 21 15.5196 20.8946 15.7071 20.7071C15.8946 20.5196 16 20.2652 16 20V10C16 9.20435 15.6839 8.44129 15.1213 7.87868C14.5587 7.31607 13.7956 7 13 7Z" fill="black"/>
</svg>
