<svg width="24" height="24" viewBox="0 0 24 24" fill="none" xmlns="http://www.w3.org/2000/svg">
<path d="M8.99947 8V2C8.99947 1.44787 9.4474 1.00025 9.99947 1C10.5518 1 10.9995 1.44772 10.9995 2V8L10.9946 8.1875C10.9673 8.62555 10.8435 9.05298 10.6323 9.43945L5.12252 19.5195C5.03918 19.6718 4.99647 19.844 4.99947 20.0176C5.00252 20.191 5.05072 20.3606 5.13912 20.5098C5.22764 20.6591 5.35354 20.7832 5.50435 20.8691C5.65515 20.955 5.82594 21 5.99947 21H18.0004C18.174 21 18.3448 20.955 18.4956 20.8691C18.6464 20.7832 18.7723 20.6591 18.8608 20.5098C18.9492 20.3606 18.9974 20.191 19.0004 20.0176C19.0034 19.844 18.9607 19.6718 18.8774 19.5195L13.3676 9.43945C13.1564 9.05297 13.0326 8.62556 13.0053 8.1875L12.9995 8V2C12.9995 1.44787 13.4474 1.00025 13.9995 1C14.5518 1 14.9995 1.44772 14.9995 2V8C14.9994 8.16774 15.0421 8.33328 15.1225 8.48047L20.6313 18.5596C20.8813 19.0165 21.0085 19.531 20.9995 20.0518C20.9905 20.5725 20.8461 21.0823 20.5805 21.5303C20.3149 21.9781 19.9373 22.3488 19.4848 22.6064C19.0322 22.8642 18.5203 23.0001 17.9995 23H5.99947C5.47887 23 4.96748 22.8641 4.51509 22.6064C4.06264 22.3488 3.685 21.9781 3.41939 21.5303C3.15376 21.0823 3.00846 20.5725 2.99947 20.0518C2.99048 19.531 3.11764 19.0165 3.36763 18.5596L8.8774 8.48047C8.95784 8.33328 8.99954 8.16774 8.99947 8Z" fill="black"/>
<path d="M17.5466 14C18.0989 14 18.5466 14.4477 18.5466 15C18.5466 15.5523 18.0989 16 17.5466 16H6.45288C5.9006 16 5.45288 15.5523 5.45288 15C5.45288 14.4477 5.9006 14 6.45288 14H17.5466Z" fill="black"/>
<path d="M15.5 1C16.0523 1 16.5 1.44772 16.5 2C16.5 2.55228 16.0523 3 15.5 3H8.5C7.94772 3 7.5 2.55228 7.5 2C7.5 1.44772 7.94772 1 8.5 1H15.5Z" fill="black"/>
</svg>
