<svg width="24" height="24" viewBox="0 0 24 24" fill="none" xmlns="http://www.w3.org/2000/svg">
<path fill-rule="evenodd" clip-rule="evenodd" d="M10.6247 9.71913C11.056 10.0641 11.1259 10.6934 10.7809 11.1247L9.28062 13L10.7809 14.8753C11.1259 15.3066 11.056 15.9359 10.6247 16.2809C10.1934 16.6259 9.56414 16.556 9.21913 16.1247L7.21913 13.6247C6.92696 13.2595 6.92696 12.7405 7.21913 12.3753L9.21913 9.8753C9.56414 9.44404 10.1934 9.37412 10.6247 9.71913Z" fill="black"/>
<path fill-rule="evenodd" clip-rule="evenodd" d="M13.3753 9.71913C13.8066 9.37412 14.4359 9.44404 14.7809 9.8753L16.7809 12.3753C17.0731 12.7405 17.0731 13.2595 16.7809 13.6247L14.7809 16.1247C14.4359 16.556 13.8066 16.6259 13.3753 16.2809C12.9441 15.9359 12.8742 15.3066 13.2192 14.8753L14.7194 13L13.2192 11.1247C12.8742 10.6934 12.9441 10.0641 13.3753 9.71913Z" fill="black"/>
<path fill-rule="evenodd" clip-rule="evenodd" d="M1.87868 2.87868C2.44129 2.31607 3.20435 2 4 2H7.93C8.42666 2.00008 8.9157 2.12347 9.35291 2.35909C9.78827 2.59372 10.1588 2.93232 10.4317 3.34473L11.2388 4.54053C11.241 4.54369 11.2431 4.54686 11.2452 4.55005C11.3372 4.68974 11.4627 4.80412 11.6103 4.88274C11.758 4.96135 11.923 5.00169 12.0902 5.00005C12.0935 5.00002 12.0967 5 12.1 5H20C20.7956 5 21.5587 5.31607 22.1213 5.87868C22.6839 6.44129 23 7.20435 23 8V18C23 18.7957 22.6839 19.5587 22.1213 20.1213C21.5587 20.6839 20.7957 21 20 21H4C3.20435 21 2.44129 20.6839 1.87868 20.1213C1.31607 19.5587 1 18.7956 1 18V5C1 4.20435 1.31607 3.44129 1.87868 2.87868ZM7.93 4C7.92994 4 7.93006 4 7.93 4H4C3.73478 4 3.48043 4.10536 3.29289 4.29289C3.10536 4.48043 3 4.73478 3 5V18C3 18.2652 3.10536 18.5196 3.29289 18.7071C3.48043 18.8946 3.73478 19 4 19H20C20.2652 19 20.5196 18.8946 20.7071 18.7071C20.8946 18.5196 21 18.2652 21 18V8C21 7.73478 20.8946 7.48043 20.7071 7.29289C20.5196 7.10536 20.2652 7 20 7H12.1044C11.6045 7.004 11.1115 6.88303 10.6703 6.64802C10.2292 6.41316 9.8539 6.07188 9.57827 5.6552L8.77115 4.45947C8.76903 4.45633 8.76692 4.45317 8.76484 4.45C8.67378 4.31173 8.54982 4.19824 8.40408 4.1197C8.2584 4.04118 8.0955 4.00005 7.93 4Z" fill="black"/>
</svg>
