<svg width="24" height="24" viewBox="0 0 24 24" fill="none" xmlns="http://www.w3.org/2000/svg">
<path fill-rule="evenodd" clip-rule="evenodd" d="M7.5438 12.0004C7.98735 13.3478 8.99952 14.5665 10.3312 15.4752C11.7476 16.4418 13.4441 17 15 17C17.9005 17 20.054 15.0212 20.9601 12.0004C20.0536 8.98684 17.8992 7 15 7C13.445 7 11.7486 7.56014 10.3316 8.5282C8.99954 9.43829 7.98735 10.6572 7.5438 12.0004ZM9.20341 6.8768C10.9115 5.70986 12.9951 5 15 5C19.1377 5 21.9435 7.97757 22.965 11.7378C23.0116 11.9093 23.0117 12.09 22.9652 12.2615C21.9434 16.0337 19.1365 19 15 19C12.996 19 10.9125 18.2932 9.20386 17.1273C7.49629 15.962 6.08175 14.2805 5.53481 12.2615C5.48836 12.09 5.48843 11.9093 5.535 11.7378C6.0821 9.72402 7.49654 8.04294 9.20341 6.8768Z" fill="black"/>
<path fill-rule="evenodd" clip-rule="evenodd" d="M18 11C18.5523 11 19 11.4477 19 12V12.5C19 13.0523 18.5523 13.5 18 13.5C17.4477 13.5 17 13.0523 17 12.5V12C17 11.4477 17.4477 11 18 11Z" fill="black"/>
<path fill-rule="evenodd" clip-rule="evenodd" d="M16.607 5.27526C17.0459 5.61048 17.13 6.23804 16.7948 6.67695C15.6271 8.20583 14.9946 10.0762 14.9946 12C14.9946 13.9238 15.6271 15.7942 16.7948 17.323C17.13 17.762 17.0459 18.3895 16.607 18.7247C16.1681 19.0599 15.5405 18.9759 15.2053 18.537C13.7714 16.6594 12.9946 14.3625 12.9946 12C12.9946 9.63751 13.7714 7.34057 15.2053 5.46303C15.5405 5.02412 16.1681 4.94005 16.607 5.27526Z" fill="black"/>
<path fill-rule="evenodd" clip-rule="evenodd" d="M1.89797 4.94529C2.11591 4.61839 2.50508 4.44939 2.89274 4.51332C4.52934 4.78322 5.83252 5.51906 6.71835 6.63996C7.59727 7.75212 8.00002 9.16 8.00002 10.67C8.00002 11.2223 7.55231 11.67 7.00002 11.67C6.44774 11.67 6.00002 11.2223 6.00002 10.67C6.00002 9.50999 5.69278 8.56786 5.1492 7.88003C4.7254 7.34377 4.11757 6.91036 3.28313 6.65323C3.10085 7.19577 2.99012 7.92745 3.00851 8.727C3.0351 9.88323 3.32453 10.8674 3.73329 11.3659C4.03655 11.7357 4.03549 12.2685 3.73077 12.6371C3.31892 13.1353 3.02757 14.1182 3.00101 15.273C2.9826 16.0736 3.09493 16.8058 3.27956 17.3479C4.11584 17.0909 4.7248 16.657 5.1492 16.12C5.69278 15.4321 6.00002 14.49 6.00002 13.33C6.00002 12.7777 6.44774 12.33 7.00002 12.33C7.55231 12.33 8.00002 12.7777 8.00002 13.33C8.00002 14.84 7.59727 16.2479 6.71835 17.36C5.83252 18.4809 4.52934 19.2168 2.89274 19.4867C2.50673 19.5503 2.11904 19.383 1.90053 19.0585C1.23131 18.0646 0.970534 16.575 1.00154 15.227C1.02649 14.1422 1.24504 12.9456 1.76301 11.9976C1.2502 11.0505 1.03394 9.85587 1.00904 8.77299C0.978064 7.42627 1.23594 5.93835 1.89797 4.94529Z" fill="black"/>
<path fill-rule="evenodd" clip-rule="evenodd" d="M14.4522 4.23559C14.2708 4.08263 14.041 3.99913 13.8038 4.00001L13.8 4.00001H10.0733C10.7328 4.9834 11.2516 6.06016 11.4428 7.07487C11.545 7.6176 11.1879 8.14047 10.6452 8.24272C10.1025 8.34498 9.57959 7.9879 9.47733 7.44516C9.26719 6.32978 8.37773 4.85743 7.27271 3.68629C6.99876 3.39595 6.92372 2.9705 7.08182 2.60396C7.23992 2.23742 7.60086 2.00001 8.00005 2.00001H13.7984C14.5094 1.99786 15.1981 2.24832 15.7416 2.70677C16.2857 3.16565 16.6489 3.80303 16.7663 4.50502L16.7666 4.50673L16.9968 5.9079C17.0863 6.45288 16.7171 6.96725 16.1722 7.05679C15.6272 7.14632 15.1128 6.77711 15.0233 6.23213L14.7938 4.83501L14.7936 4.83386C14.7542 4.60032 14.6332 4.3883 14.4522 4.23559Z" fill="black"/>
<path fill-rule="evenodd" clip-rule="evenodd" d="M10.9837 16.02C11.536 16.0165 11.9865 16.4614 11.99 17.0137C11.9966 18.0534 11.7703 19.0725 11.3377 20H13.8L13.8037 20C14.041 20.0009 14.2708 19.9174 14.4522 19.7644C14.6332 19.6117 14.7542 19.3997 14.7936 19.1662L14.7937 19.165L15.0233 17.7679C15.1128 17.2229 15.6272 16.8537 16.1722 16.9432C16.7171 17.0328 17.0863 17.5471 16.9968 18.0921L16.7665 19.4938L16.7663 19.495C16.6489 20.197 16.2857 20.8344 15.7416 21.2932C15.1981 21.7517 14.5094 22.0022 13.7983 22H9.50004C9.10695 22 8.75032 21.7697 8.58859 21.4114C8.42687 21.0531 8.49005 20.6333 8.75006 20.3385C9.55635 19.4243 9.99777 18.2453 9.99006 17.0263C9.98657 16.4741 10.4314 16.0235 10.9837 16.02Z" fill="black"/>
</svg>
