<svg width="24" height="24" viewBox="0 0 24 24" fill="none" xmlns="http://www.w3.org/2000/svg">
<path d="M3 20V4C3 3.20435 3.3163 2.44152 3.87891 1.87891C4.44152 1.3163 5.20435 1 6 1H14C14.4479 0.99949 14.8919 1.08735 15.3057 1.25879C15.7193 1.43023 16.0949 1.68198 16.4111 1.99903L19.9971 5.58496L20.1133 5.70606C20.3773 5.99585 20.5896 6.32952 20.7402 6.69239C20.9122 7.10671 21.0005 7.55143 21 8V20C21 20.7957 20.6837 21.5585 20.1211 22.1211C19.5585 22.6837 18.7957 23 18 23H6C5.20435 23 4.44152 22.6837 3.87891 22.1211C3.3163 21.5585 3 20.7957 3 20ZM5 20C5 20.2652 5.10543 20.5195 5.29297 20.707C5.48051 20.8946 5.73478 21 6 21H18C18.2652 21 18.5195 20.8946 18.707 20.707C18.8946 20.5195 19 20.2652 19 20V7.99805C19.0003 7.81344 18.9642 7.6305 18.8936 7.45996C18.8227 7.28915 18.7181 7.13331 18.5869 7.00293L14.9961 3.41211C14.8658 3.28135 14.7106 3.17713 14.54 3.10645C14.3695 3.03581 14.1865 2.99975 14.002 3H6C5.73478 3 5.4805 3.10544 5.29297 3.29297C5.10543 3.48051 5 3.73479 5 4V20Z" fill="black"/>
<path d="M13 7V2C13 1.44772 13.4477 1 14 1C14.5523 1 15 1.44772 15 2V7H20C20.5523 7 21 7.44772 21 8C21 8.55229 20.5523 9 20 9H15C14.4696 9 13.961 8.78914 13.5859 8.41406C13.2109 8.03899 13 7.53044 13 7Z" fill="black"/>
<path d="M11 12C11 11.4477 10.5523 11 10 11C9.44772 11 9 11.4477 9 12C9 12.5523 9.44772 13 10 13C10.5523 13 11 12.5523 11 12ZM13 12C13 13.6569 11.6569 15 10 15C8.34315 15 7 13.6569 7 12C7 10.3431 8.34315 9 10 9C11.6569 9 13 10.3431 13 12Z" fill="black"/>
<path d="M17.0001 13.9983C17.9044 13.9983 18.7718 14.3579 19.4112 14.9973L20.7071 16.2932C21.0976 16.6837 21.0976 17.3168 20.7071 17.7073C20.3167 18.0977 19.6836 18.0977 19.2931 17.7073L17.9972 16.4114C17.7328 16.147 17.374 15.9983 17.0001 15.9983C16.6262 15.9983 16.2675 16.147 16.003 16.4114L9.70715 22.7073C9.31665 23.0977 8.68358 23.0977 8.29309 22.7073C7.9026 22.3168 7.90267 21.6837 8.29309 21.2932L14.589 14.9973C15.2285 14.3579 16.0958 13.9983 17.0001 13.9983Z" fill="black"/>
</svg>
