<svg width="24" height="24" viewBox="0 0 24 24" fill="none" xmlns="http://www.w3.org/2000/svg">
<path d="M3 20V4C3 3.20435 3.3163 2.44152 3.87891 1.87891C4.44152 1.3163 5.20435 1 6 1H14C14.4479 0.99949 14.8919 1.08735 15.3057 1.25879C15.7193 1.43023 16.0949 1.68198 16.4111 1.99903L19.9971 5.58496L20.1133 5.70606C20.3773 5.99585 20.5896 6.32952 20.7402 6.69239C20.9122 7.10671 21.0005 7.55143 21 8V20C21 20.7957 20.6837 21.5585 20.1211 22.1211C19.5585 22.6837 18.7957 23 18 23H6C5.20435 23 4.44152 22.6837 3.87891 22.1211C3.3163 21.5585 3 20.7957 3 20ZM5 20C5 20.2652 5.10543 20.5195 5.29297 20.707C5.48051 20.8946 5.73478 21 6 21H18C18.2652 21 18.5195 20.8946 18.707 20.707C18.8946 20.5195 19 20.2652 19 20V7.99805C19.0003 7.81344 18.9642 7.6305 18.8936 7.45996C18.8227 7.28915 18.7181 7.13331 18.5869 7.00293L14.9961 3.41211C14.8658 3.28135 14.7106 3.17713 14.54 3.10645C14.3695 3.03581 14.1865 2.99975 14.002 3H6C5.73478 3 5.4805 3.10544 5.29297 3.29297C5.10543 3.48051 5 3.73479 5 4V20Z" fill="black"/>
<path d="M13 7.00001V2.00001C13 1.44772 13.4477 1 14 1C14.5523 1 15 1.44772 15 2.00001V7.00001H20C20.5523 7.00001 21 7.44772 21 8C21 8.55229 20.5523 9.00001 20 9.00001H15C14.4696 9.00001 13.961 8.78914 13.5859 8.41407C13.2109 8.039 13 7.53044 13 7.00001Z" fill="black"/>
<path d="M11 15.7382L14.0029 13.9999L11 12.2626V15.7382ZM16.3555 13.9999C16.3555 14.2888 16.28 14.573 16.1357 14.8232C15.9915 15.0732 15.784 15.2811 15.5342 15.4257L11.4687 17.7773C11.2185 17.922 10.9346 17.9989 10.6455 17.999C10.3563 17.999 10.0717 17.9221 9.82129 17.7773C9.57097 17.6324 9.36291 17.4245 9.21875 17.1738C9.07461 16.9231 8.99926 16.6387 9 16.3495V11.6484C8.99974 11.36 9.07492 11.0761 9.21875 10.8261L9.33886 10.6474C9.46965 10.4765 9.6329 10.3321 9.82031 10.2236L10.0137 10.1279C10.2126 10.0452 10.4268 10.0021 10.6436 10.0019L10.8584 10.0156C11.0718 10.0435 11.2781 10.1135 11.4658 10.2216L11.4678 10.2226L15.5342 12.5741C15.7216 12.6826 15.8847 12.8272 16.0156 12.998L16.1357 13.1777L16.2314 13.371C16.3136 13.5698 16.3555 13.7835 16.3555 13.9999Z" fill="black"/>
</svg>
