<svg width="24" height="24" viewBox="0 0 24 24" fill="none" xmlns="http://www.w3.org/2000/svg">
<path d="M1 17.9998V4.99982C1.00003 4.2042 1.31632 3.44131 1.87891 2.87872C2.44151 2.31614 3.20437 1.99982 4 1.99982H7.98047C8.47868 1.99664 8.97031 2.11812 9.41016 2.35236C9.79744 2.5587 10.1346 2.84662 10.3975 3.19611L10.5049 3.3504L10.5459 3.41779L11.1777 4.56622C11.2676 4.69678 11.3867 4.80539 11.5264 4.88068C11.6719 4.959 11.8347 4.99976 12 4.99982H20C20.7956 4.99982 21.5585 5.31614 22.1211 5.87872C22.6837 6.44131 23 7.2042 23 7.99982V11.2996C23 11.8519 22.5523 12.2996 22 12.2996C21.4477 12.2996 21 11.8519 21 11.2996V7.99982C21 7.73464 20.8945 7.4803 20.707 7.29279C20.5195 7.10528 20.2652 6.99982 20 6.99982H12C11.5033 6.99974 11.0144 6.87607 10.5771 6.64044C10.1401 6.40488 9.76824 6.06482 9.49512 5.65021C9.48057 5.62811 9.46685 5.60503 9.4541 5.58185L8.82227 4.43243C8.73149 4.30082 8.61103 4.19225 8.46973 4.117C8.32223 4.03846 8.15732 3.99825 7.99023 3.99982H4C3.73481 3.99982 3.4805 4.10528 3.29297 4.29279C3.10545 4.4803 3.00003 4.73463 3 4.99982V17.9998C3 18.265 3.10546 18.5193 3.29297 18.7068C3.48051 18.8944 3.73478 18.9998 4 18.9998H10.2998C10.8521 18.9998 11.2998 19.4476 11.2998 19.9998C11.2998 20.5521 10.8521 20.9998 10.2998 20.9998H4C3.20435 20.9998 2.44152 20.6835 1.87891 20.1209C1.31633 19.5583 1 18.7954 1 17.9998Z" fill="black"/>
<path d="M14.8461 18.2241C15.3562 18.0132 15.9404 18.2552 16.1517 18.7651C16.3629 19.2753 16.1208 19.8604 15.6107 20.0717L14.6879 20.4536C14.1777 20.6647 13.5925 20.4227 13.3812 19.9125C13.1701 19.4023 13.4122 18.8172 13.9223 18.6059L14.8461 18.2241Z" fill="black"/>
<path d="M13.3811 16.0861C13.5927 15.5761 14.1777 15.3337 14.6877 15.5451L15.6115 15.9279C16.1215 16.1396 16.3632 16.7254 16.1516 17.2355C15.9398 17.7453 15.3549 17.987 14.8449 17.7755L13.9221 17.3927C13.4121 17.1811 13.1697 16.5961 13.3811 16.0861Z" fill="black"/>
<path d="M16.0861 13.3811C16.5961 13.1698 17.1812 13.4122 17.3928 13.9221L17.7756 14.845C17.987 15.3549 17.7454 15.9399 17.2355 16.1516C16.7255 16.3633 16.1397 16.1216 15.9279 15.6116L15.5451 14.6878C15.3338 14.1778 15.5762 13.5927 16.0861 13.3811Z" fill="black"/>
<path d="M15.928 20.3892C16.1395 19.8791 16.7245 19.6369 17.2347 19.8482C17.7448 20.0596 17.9871 20.6446 17.7757 21.1548L17.3929 22.0786C17.1814 22.5888 16.5964 22.8311 16.0862 22.6196C15.576 22.4082 15.3337 21.8232 15.5452 21.313L15.928 20.3892Z" fill="black"/>
<path d="M18.6069 13.9222C18.8186 13.4121 19.4044 13.1695 19.9145 13.3812C20.4244 13.5928 20.6659 14.1778 20.4546 14.6878L20.0718 15.6116C19.8601 16.1214 19.2751 16.363 18.7651 16.1517C18.2551 15.94 18.0127 15.3551 18.2241 14.845L18.6069 13.9222Z" fill="black"/>
<path d="M18.7661 19.8481C19.2764 19.6372 19.8607 19.8798 20.0717 20.3901L20.4536 21.314C20.6646 21.8244 20.4219 22.4086 19.9116 22.6196C19.4012 22.8305 18.8169 22.588 18.6059 22.0776L18.2241 21.1538C18.0131 20.6434 18.2557 20.0591 18.7661 19.8481Z" fill="black"/>
<path d="M21.3129 15.5451C21.8231 15.3337 22.4081 15.576 22.6196 16.0862C22.831 16.5963 22.5887 17.1813 22.0786 17.3928L21.1547 17.7756C20.6445 17.9871 20.0596 17.7448 19.8481 17.2346C19.6368 16.7245 19.879 16.1394 20.3891 15.928L21.3129 15.5451Z" fill="black"/>
<path d="M19.8481 18.7651C20.0596 18.2549 20.6446 18.0127 21.1548 18.2241L22.0786 18.6069C22.5887 18.8183 22.831 19.4034 22.6196 19.9135C22.4082 20.4237 21.8232 20.666 21.313 20.4545L20.3892 20.0717C19.879 19.8603 19.6367 19.2752 19.8481 18.7651Z" fill="black"/>
<path d="M20 17.9999C20 16.8954 19.1046 15.9999 18 15.9999C16.8954 15.9999 16 16.8954 16 17.9999C16 19.1045 16.8954 19.9999 18 19.9999C19.1046 19.9999 20 19.1045 20 17.9999ZM22 17.9999C22 20.2091 20.2091 21.9999 18 21.9999C15.7909 21.9999 14 20.2091 14 17.9999C14 15.7908 15.7909 13.9999 18 13.9999C20.2091 13.9999 22 15.7908 22 17.9999Z" fill="black"/>
</svg>
