<svg width="24" height="24" viewBox="0 0 24 24" fill="none" xmlns="http://www.w3.org/2000/svg">
<path fill-rule="evenodd" clip-rule="evenodd" d="M15 18C14.4477 18 14 18.4477 14 19C14 19.5523 14.4477 20 15 20C15.5523 20 16 19.5523 16 19C16 18.4477 15.5523 18 15 18ZM12 19C12 17.3431 13.3431 16 15 16C16.6569 16 18 17.3431 18 19C18 20.6569 16.6569 22 15 22C13.3431 22 12 20.6569 12 19Z" fill="black"/>
<path fill-rule="evenodd" clip-rule="evenodd" d="M1.87868 2.87868C2.44129 2.31607 3.20435 2 4 2H7.93C8.42666 2.00008 8.9157 2.12347 9.35291 2.35909C9.78827 2.59372 10.1588 2.93232 10.4317 3.34473L11.2388 4.54053C11.241 4.54369 11.2431 4.54686 11.2452 4.55005C11.3372 4.68974 11.4627 4.80412 11.6103 4.88274C11.758 4.96135 11.923 5.00169 12.0902 5.00005C12.0935 5.00002 12.0967 5 12.1 5H20C20.7957 5 21.5587 5.31607 22.1213 5.87868C22.6839 6.44129 23 7.20435 23 8V17.9969C23.0032 18.5547 22.8508 19.1023 22.5599 19.5783C22.2683 20.0553 21.8493 20.4415 21.35 20.693C20.8568 20.9416 20.2555 20.7432 20.007 20.25C19.7584 19.7568 19.9568 19.1555 20.45 18.907C20.6165 18.8231 20.7561 18.6944 20.8533 18.5354C20.9505 18.3763 21.0013 18.1933 21 18.007C21 18.0046 21 18.0023 21 18V8C21 7.73478 20.8946 7.48043 20.7071 7.29289C20.5196 7.10536 20.2652 7 20 7H12.1044C11.6045 7.004 11.1115 6.88303 10.6703 6.64802C10.2292 6.41316 9.8539 6.07188 9.57827 5.6552L8.77115 4.45947C8.76903 4.45633 8.76692 4.45317 8.76484 4.45C8.67378 4.31173 8.54982 4.19824 8.40409 4.1197C8.2584 4.04118 8.0955 4.00005 7.93 4C7.92995 4 7.93006 4 7.93 4H4C3.73478 4 3.48043 4.10536 3.29289 4.29289C3.10536 4.48043 3 4.73478 3 5V18C3 18.2652 3.10536 18.5196 3.29289 18.7071C3.48043 18.8946 3.73478 19 4 19H9.1C9.65229 19 10.1 19.4477 10.1 20C10.1 20.5523 9.65229 21 9.1 21H4C3.20435 21 2.44129 20.6839 1.87868 20.1213C1.31607 19.5587 1 18.7956 1 18V5C1 4.20435 1.31607 3.44129 1.87868 2.87868Z" fill="black"/>
<path fill-rule="evenodd" clip-rule="evenodd" d="M15 9C15.5523 9 16 9.44772 16 10V11C16 11.5523 15.5523 12 15 12C14.4477 12 14 11.5523 14 11V10C14 9.44772 14.4477 9 15 9Z" fill="black"/>
<path fill-rule="evenodd" clip-rule="evenodd" d="M15 14C15.5523 14 16 14.4477 16 15V17C16 17.5523 15.5523 18 15 18C14.4477 18 14 17.5523 14 17V15C14 14.4477 14.4477 14 15 14Z" fill="black"/>
</svg>
