<svg width="24" height="24" viewBox="0 0 24 24" fill="none" xmlns="http://www.w3.org/2000/svg">
<path d="M3 13.3398V4.00001C3 3.20436 3.3163 2.44152 3.87891 1.87891C4.44152 1.3163 5.20435 1.00001 6 1.00001H14C14.448 0.999229 14.8916 1.08748 15.3057 1.25879C15.7199 1.43024 16.0965 1.68159 16.4131 1.99903L20 5.58594L20.1162 5.70704C20.3799 5.99709 20.591 6.33139 20.7412 6.69434C20.9125 7.10836 21.0008 7.55196 21 8.00001V20C21 20.7957 20.6837 21.5585 20.1211 22.1211C19.5585 22.6837 18.7957 23 18 23H12.6592C12.1069 23 11.6592 22.5523 11.6592 22C11.6592 21.4477 12.1069 21 12.6592 21H18C18.2652 21 18.5195 20.8946 18.707 20.707C18.8946 20.5195 19 20.2652 19 20V7.99708C19.0004 7.81244 18.9641 7.6296 18.8936 7.45899C18.8229 7.28818 18.7188 7.13243 18.5879 7.00196L14.998 3.41211C14.8676 3.28117 14.7118 3.17714 14.541 3.10645C14.3704 3.03587 14.1876 2.99962 14.0029 3.00001H6C5.73479 3.00001 5.4805 3.10544 5.29297 3.29297C5.10543 3.48051 5 3.73479 5 4.00001V13.3398C5 13.8921 4.55228 14.3398 4 14.3398C3.44772 14.3398 3 13.8921 3 13.3398Z" fill="black"/>
<path d="M13 7.00001V2.00001C13 1.44772 13.4477 1.00001 14 1.00001C14.5523 1.00001 15 1.44772 15 2.00001V7.00001H20C20.5523 7.00001 21 7.44772 21 8.00001C21 8.55229 20.5523 9 20 9H15C14.4696 9 13.961 8.78914 13.5859 8.41407C13.2109 8.039 13 7.53044 13 7.00001Z" fill="black"/>
<path d="M11.8798 11.0011C12.7078 11.0016 13.5016 11.3313 14.0868 11.9171C14.672 12.503 15.0003 13.2971 14.9999 14.1251C14.9995 14.9531 14.6706 15.7469 14.0849 16.3322L9.06634 21.3449C8.71007 21.701 8.26964 21.9615 7.78606 22.1027L4.91887 22.9396C4.6608 23.0149 4.3873 23.0199 4.12688 22.9533C3.86643 22.8865 3.62854 22.7508 3.43841 22.5607C3.24826 22.3705 3.11256 22.1327 3.04583 21.8722C2.97914 21.6118 2.98333 21.3382 3.05852 21.0802L3.89446 18.2111L3.89544 18.2101C4.03698 17.7267 4.2979 17.2868 4.65423 16.9308L9.67083 11.9152C10.2567 11.3299 11.0517 11.0007 11.8798 11.0011ZM11.8788 13.0011C11.6183 13.001 11.3667 13.0914 11.1669 13.255L11.0849 13.3292L6.06731 18.3458C5.94919 18.4639 5.86166 18.6095 5.81438 18.7697L5.81536 18.7706L5.2343 20.7638L7.22552 20.1827C7.38682 20.1356 7.53347 20.0487 7.65227 19.9298L12.6708 14.9171C12.8814 14.7068 12.9998 14.4218 12.9999 14.1242L12.995 14.0128C12.9696 13.756 12.8558 13.5144 12.6718 13.3302C12.4615 13.1198 12.1763 13.0013 11.8788 13.0011Z" fill="black"/>
</svg>
