<svg width="24" height="24" viewBox="0 0 24 24" fill="none" xmlns="http://www.w3.org/2000/svg">
<path d="M16.9998 22.0004V16.1166L5.00269 10.1147V10.1137C4.70356 9.96613 4.45044 9.73925 4.27319 9.45649C4.11603 9.20575 4.02433 8.92032 4.00366 8.62641L3.99878 8.50043L4.00366 8.37348C4.02438 8.07985 4.11623 7.79492 4.27319 7.54438L4.34448 7.43989C4.51556 7.20522 4.74124 7.01514 5.00269 6.88618L16.3826 1.19575V1.1977C16.6534 1.05948 16.9545 0.990607 17.2585 1.00043L17.488 1.0229C17.6399 1.0475 17.7878 1.09151 17.9285 1.15375L18.1335 1.2602L18.323 1.39301C18.4433 1.48906 18.5513 1.59969 18.6433 1.72309L18.7693 1.91743L18.8689 2.12543C18.9552 2.33923 18.9999 2.56824 18.9998 2.80024V22.0004C18.9996 22.5526 18.552 23.0004 17.9998 23.0004C17.4477 23.0003 16.9999 22.5525 16.9998 22.0004ZM6.24487 8.49946L16.9998 13.8803V3.1225L6.24487 8.49946ZM5.79858 8.49848L5.79761 8.49946L5.79858 8.50043L5.80347 8.51118L5.80444 8.5102L5.79858 8.49848ZM5.79858 8.49848L5.79761 8.49946L5.79858 8.49848Z" fill="black"/>
</svg>
