<svg width="24" height="24" viewBox="0 0 24 24" fill="none" xmlns="http://www.w3.org/2000/svg">
<path fill-rule="evenodd" clip-rule="evenodd" d="M14.991 5.00004C14.994 5.00001 14.997 5 15 5C19.1377 5 21.9435 7.97757 22.965 11.7378C23.0116 11.9093 23.0117 12.0901 22.9652 12.2616C22.6286 13.5034 22.1044 14.6506 21.4018 15.6378C21.0815 16.0878 20.4571 16.193 20.0072 15.8727C19.5572 15.5525 19.4521 14.9281 19.7723 14.4782C20.2769 13.7691 20.6796 12.9328 20.96 12.0002C20.054 8.98831 17.9014 7.00206 15.0045 7C14.1184 7.00854 13.2401 7.16799 12.4075 7.47152C11.8886 7.66068 11.3147 7.39338 11.1255 6.8745C10.9363 6.35562 11.2036 5.78164 11.7225 5.59248C12.7704 5.21049 13.8757 5.01014 14.991 5.00004ZM9.3495 7.93493C9.72785 8.33725 9.70842 8.97012 9.30609 9.34848C8.47982 10.1255 7.86399 11.031 7.54381 12.0005C7.98738 13.3478 8.99954 14.5665 10.3312 15.4752C11.7476 16.4418 13.4441 17 15 17C15.002 17 15.0041 17 15.0061 17C15.7422 17.0045 16.4723 16.8674 17.1567 16.5963C17.6702 16.3929 18.2513 16.6442 18.4547 17.1577C18.6581 17.6711 18.4068 18.2523 17.8933 18.4557C16.9716 18.8209 15.9884 19.0056 14.997 19C12.9938 18.9993 10.9116 18.2926 9.20386 17.1273C7.49629 15.962 6.08175 14.2805 5.53481 12.2615C5.48834 12.0899 5.48843 11.9091 5.53505 11.7376C5.94063 10.2459 6.8222 8.93892 7.93595 7.89152C8.33828 7.51317 8.97114 7.5326 9.3495 7.93493ZM18 11C18.5523 11 19 11.4477 19 12V12.5C19 13.0523 18.5523 13.5 18 13.5C17.4477 13.5 17 13.0523 17 12.5V12C17 11.4477 17.4477 11 18 11Z" fill="black"/>
<path fill-rule="evenodd" clip-rule="evenodd" d="M1.89797 4.94529C2.11591 4.61839 2.50508 4.44939 2.89274 4.51332C4.52934 4.78322 5.83252 5.51906 6.71835 6.63996C7.59727 7.75212 8.00002 9.16 8.00002 10.67C8.00002 11.2223 7.55231 11.67 7.00002 11.67C6.44774 11.67 6.00002 11.2223 6.00002 10.67C6.00002 9.50999 5.69278 8.56786 5.1492 7.88003C4.7254 7.34377 4.11757 6.91036 3.28313 6.65323C3.10085 7.19577 2.99012 7.92745 3.00851 8.727C3.0351 9.88323 3.32453 10.8674 3.73329 11.3659C4.03655 11.7357 4.03549 12.2685 3.73077 12.6371C3.31892 13.1353 3.02757 14.1182 3.00101 15.273C2.9826 16.0736 3.09493 16.8058 3.27956 17.3479C4.11584 17.0909 4.7248 16.657 5.1492 16.12C5.69278 15.4321 6.00002 14.49 6.00002 13.33C6.00002 12.7777 6.44774 12.33 7.00002 12.33C7.55231 12.33 8.00002 12.7777 8.00002 13.33C8.00002 14.84 7.59727 16.2479 6.71835 17.36C5.83252 18.4809 4.52934 19.2168 2.89274 19.4867C2.50673 19.5503 2.11904 19.383 1.90053 19.0585C1.23131 18.0646 0.970534 16.575 1.00154 15.227C1.02649 14.1422 1.24504 12.9456 1.76301 11.9976C1.2502 11.0505 1.03394 9.85587 1.00904 8.77299C0.978064 7.42627 1.23594 5.93835 1.89797 4.94529ZM16.607 5.2753C17.0459 5.61053 17.13 6.2381 16.7947 6.677C16.1978 7.45852 15.7365 8.33488 15.4303 9.2694C15.2583 9.79422 14.6934 10.0803 14.1686 9.90827C13.6438 9.73629 13.3578 9.17141 13.5297 8.64659C13.9058 7.49895 14.4723 6.42274 15.2053 5.46299C15.5406 5.02409 16.1681 4.94006 16.607 5.2753ZM14.0354 13.3404C14.572 13.2097 15.1129 13.5387 15.2436 14.0753C15.5306 15.2535 16.0587 16.3593 16.7948 17.323C17.13 17.7619 17.0459 18.3895 16.607 18.7247C16.1681 19.0599 15.5405 18.9759 15.2053 18.537C14.3014 17.3535 13.6528 15.9955 13.3004 14.5486C13.1697 14.012 13.4988 13.4711 14.0354 13.3404Z" fill="black"/>
<path fill-rule="evenodd" clip-rule="evenodd" d="M1.29292 1.29289C1.68344 0.902369 2.3166 0.902369 2.70713 1.29289L22.7071 21.2929C23.0977 21.6834 23.0977 22.3166 22.7071 22.7071C22.3166 23.0976 21.6834 23.0976 21.2929 22.7071L16.9518 18.366L16.7668 19.4921L16.7663 19.495C16.6489 20.197 16.2857 20.8344 15.7416 21.2932C15.1981 21.7517 14.5095 22.0021 13.7985 22H9.50002C9.10693 22 8.7503 21.7697 8.58858 21.4114C8.42685 21.0531 8.49003 20.6333 8.75004 20.3385C9.55633 19.4243 9.99775 18.2453 9.99004 17.0263C9.98655 16.4741 10.4314 16.0235 10.9837 16.02C11.536 16.0165 11.9865 16.4614 11.99 17.0137C11.9966 18.0534 11.7703 19.0725 11.3376 20H13.8016L13.8037 20C14.041 20.0009 14.2708 19.9174 14.4522 19.7644C14.6332 19.6117 14.7542 19.3997 14.7935 19.1662L14.7937 19.165L15.0232 17.7679C15.0798 17.4235 15.3061 17.1493 15.6025 17.0167L1.29292 2.70711C0.902391 2.31658 0.902391 1.68342 1.29292 1.29289ZM14.4522 4.23558C14.2708 4.08261 14.041 3.99911 13.8037 3.99999L13.8 4H8.53002C7.97774 4 7.53002 3.55228 7.53002 3C7.53002 2.44772 7.97774 2 8.53002 2H13.7984C14.5094 1.99785 15.1981 2.24831 15.7416 2.70676C16.2857 3.16564 16.6489 3.80301 16.7663 4.50501L16.7668 4.50789L16.9968 5.90789C17.0863 6.45287 16.7171 6.96724 16.1721 7.05677C15.6272 7.1463 15.1128 6.77709 15.0232 6.23211L14.7937 4.83499L14.7935 4.83385C14.7542 4.6003 14.6332 4.38829 14.4522 4.23558Z" fill="black"/>
</svg>
