<svg width="24" height="24" viewBox="0 0 24 24" fill="none" xmlns="http://www.w3.org/2000/svg">
<path d="M3 10.5996V4C3 3.20435 3.3163 2.44152 3.87891 1.87891C4.44152 1.3163 5.20435 1 6 1H14C14.7955 1.00017 15.5586 1.31632 16.1211 1.87891L20.1211 5.87891L20.3203 6.09863C20.7578 6.63237 20.9999 7.30383 21 8V20C21 20.7957 20.6837 21.5585 20.1211 22.1211C19.5585 22.6837 18.7957 23 18 23H13.8496C13.2975 22.9998 12.8496 22.5522 12.8496 22C12.8496 21.4478 13.2975 21.0002 13.8496 21H18C18.2652 21 18.5195 20.8946 18.707 20.707C18.8946 20.5195 19 20.2652 19 20V8C18.9999 7.73488 18.8945 7.48041 18.707 7.29297L14.707 3.29297C14.543 3.12887 14.3275 3.02766 14.0986 3.00488L14 3H6C5.73478 3 5.4805 3.10543 5.29297 3.29297C5.10543 3.4805 5 3.73478 5 4V10.5996C5 11.1519 4.55228 11.5996 4 11.5996C3.44772 11.5996 3 11.1519 3 10.5996Z" fill="black"/>
<path d="M13 7V2C13 1.44772 13.4477 1 14 1C14.5523 1 15 1.44772 15 2V7H20C20.5523 7 21 7.44772 21 8C21 8.55228 20.5523 9 20 9H15C14.4696 9 13.961 8.78913 13.5859 8.41406C13.2109 8.03899 13 7.53043 13 7Z" fill="black"/>
<path d="M3.84608 18.2241C4.35616 18.0132 4.94043 18.2552 5.15174 18.7651C5.3629 19.2754 5.12085 19.8605 4.61073 20.0718L3.68788 20.4536C3.17766 20.6648 2.59253 20.4227 2.38123 19.9126C2.17008 19.4024 2.41218 18.8173 2.92225 18.606L3.84608 18.2241Z" fill="black"/>
<path d="M2.38013 16.0862C2.59159 15.576 3.1766 15.3338 3.68677 15.5452L4.6106 15.928C5.12073 16.1394 5.36295 16.7245 5.15162 17.2346C4.94014 17.7448 4.35517 17.9871 3.84497 17.7756L2.92115 17.3928C2.41099 17.1814 2.16873 16.5964 2.38013 16.0862Z" fill="black"/>
<path d="M5.08613 13.3812C5.59614 13.1698 6.18116 13.4122 6.39277 13.9222L6.77559 14.845C6.98703 15.355 6.74538 15.94 6.23555 16.1517C5.7255 16.3633 5.13967 16.1216 4.92793 15.6116L4.54512 14.6878C4.33378 14.1778 4.57617 13.5928 5.08613 13.3812Z" fill="black"/>
<path d="M4.92802 20.3892C5.13946 19.8791 5.72453 19.6369 6.23466 19.8482C6.74484 20.0597 6.98713 20.6447 6.77567 21.1549L6.39286 22.0787C6.18139 22.5889 5.5964 22.8311 5.08622 22.6197C4.57603 22.4082 4.33373 21.8233 4.54521 21.3131L4.92802 20.3892Z" fill="black"/>
<path d="M7.60693 13.9222C7.8186 13.4121 8.40443 13.1695 8.91455 13.3812C9.42438 13.5929 9.66594 14.1779 9.45458 14.6879L9.07177 15.6117C8.86007 16.1215 8.27506 16.3631 7.76513 16.1517C7.25513 15.9401 7.01268 15.3551 7.22412 14.8451L7.60693 13.9222Z" fill="black"/>
<path d="M7.76605 19.8482C8.27642 19.6373 8.86072 19.8798 9.07171 20.3902L9.45355 21.314C9.66455 21.8244 9.42195 22.4087 8.91156 22.6197C8.40121 22.8306 7.81688 22.588 7.60589 22.0777L7.22406 21.1539C7.01311 20.6435 7.25569 20.0592 7.76605 19.8482Z" fill="black"/>
<path d="M10.311 15.5451C10.821 15.3333 11.4068 15.5752 11.6186 16.0852C11.8305 16.5952 11.5886 17.1809 11.0786 17.3928L10.1567 17.7756C9.6467 17.9875 9.06098 17.7456 8.84911 17.2355C8.63739 16.7257 8.87937 16.1409 9.38915 15.9289L10.311 15.5451Z" fill="black"/>
<path d="M8.8492 18.7642C9.06108 18.2542 9.6468 18.0123 10.1568 18.2242L11.0787 18.608C11.5886 18.8199 11.8305 19.4047 11.6187 19.9146C11.4069 20.4247 10.8211 20.6665 10.3111 20.4547L9.38924 20.0719C8.87923 19.86 8.63734 19.2743 8.8492 18.7642Z" fill="black"/>
<path d="M9 18C9 16.8954 8.10457 16 7 16C5.89543 16 5 16.8954 5 18C5 19.1046 5.89543 20 7 20C8.10457 20 9 19.1046 9 18ZM11 18C11 20.2091 9.20914 22 7 22C4.79086 22 3 20.2091 3 18C3 15.7909 4.79086 14 7 14C9.20914 14 11 15.7909 11 18Z" fill="black"/>
</svg>
