<svg width="24" height="24" viewBox="0 0 24 24" fill="none" xmlns="http://www.w3.org/2000/svg">
<path d="M3 20V4C3 3.20435 3.3163 2.44152 3.87891 1.87891C4.44152 1.3163 5.20435 1 6 1H14C14.4479 0.99949 14.8919 1.08735 15.3057 1.25879C15.7193 1.43023 16.0949 1.68198 16.4111 1.99903L19.9971 5.58496L20.1133 5.70606C20.3773 5.99585 20.5896 6.32952 20.7402 6.69239C20.9122 7.10671 21.0005 7.55143 21 8V20C21 20.7957 20.6837 21.5585 20.1211 22.1211C19.5585 22.6837 18.7957 23 18 23H6C5.20435 23 4.44152 22.6837 3.87891 22.1211C3.3163 21.5585 3 20.7957 3 20ZM5 20C5 20.2652 5.10543 20.5195 5.29297 20.707C5.48051 20.8946 5.73478 21 6 21H18C18.2652 21 18.5195 20.8946 18.707 20.707C18.8946 20.5195 19 20.2652 19 20V7.99805C19.0003 7.81344 18.9642 7.6305 18.8936 7.45996C18.8227 7.28915 18.7181 7.13331 18.5869 7.00293L14.9961 3.41211C14.8658 3.28135 14.7106 3.17713 14.54 3.10645C14.3695 3.03581 14.1865 2.99975 14.002 3H6C5.73478 3 5.4805 3.10544 5.29297 3.29297C5.10543 3.48051 5 3.73479 5 4V20Z" fill="black"/>
<path d="M13 7V2C13 1.44772 13.4477 1 14 1C14.5523 1 15 1.44772 15 2V7H20C20.5523 7 21 7.44772 21 8C21 8.55229 20.5523 9 20 9H15C14.4696 9 13.961 8.78914 13.5859 8.41406C13.2109 8.03899 13 7.53044 13 7Z" fill="black"/>
<path d="M13.7929 11.793C14.1834 11.4025 14.8164 11.4025 15.207 11.793C15.5975 12.1835 15.5975 12.8166 15.207 13.2071L10.207 18.2071C9.81643 18.5976 9.18342 18.5976 8.79289 18.2071C8.40237 17.8166 8.40237 17.1835 8.79289 16.793L13.7929 11.793Z" fill="black"/>
<path d="M8.79289 11.793C9.18342 11.4025 9.81643 11.4025 10.207 11.793L15.207 16.793C15.5975 17.1835 15.5975 17.8166 15.207 18.2071C14.8164 18.5976 14.1834 18.5976 13.7929 18.2071L8.79289 13.2071C8.40237 12.8166 8.40237 12.1835 8.79289 11.793Z" fill="black"/>
</svg>
