<svg width="24" height="24" viewBox="0 0 24 24" fill="none" xmlns="http://www.w3.org/2000/svg">
<path d="M7.00012 9.99989V7.41395L4.3634 10.0507C3.49017 10.9239 2.99925 12.1087 2.99915 13.3436C2.99915 14.5787 3.49008 15.7633 4.3634 16.6366C5.23673 17.5099 6.4213 18.0009 7.65637 18.0009C8.89131 18.0008 10.0761 17.5098 10.9493 16.6366L16.879 10.7069C17.2696 10.3165 17.9026 10.3164 18.2931 10.7069C18.6836 11.0974 18.6835 11.7305 18.2931 12.121L12.3634 18.0507C11.1151 19.299 9.42175 20.0008 7.65637 20.0009C5.89086 20.0009 4.19774 19.2991 2.94934 18.0507C1.70095 16.8023 0.999146 15.1091 0.999146 13.3436C0.999252 11.5783 1.70103 9.88492 2.94934 8.63661L6.08606 5.49989L6.17786 5.41395C6.40057 5.22186 6.67023 5.09077 6.96008 5.03309L7.08411 5.01258C7.33448 4.98171 7.5887 5.00673 7.82825 5.08583L7.94641 5.12977L8.06067 5.18251C8.28588 5.29592 8.48362 5.45739 8.63879 5.65614L8.71204 5.75868L8.77844 5.8661C8.92326 6.12195 9.00013 6.41151 9.00012 6.70692V9.99989C9.00012 10.5521 8.55235 10.9998 8.00012 10.9999C7.44784 10.9999 7.00012 10.5522 7.00012 9.99989Z" fill="black"/>
<path d="M21.2929 6.29301C21.6834 5.90249 22.3164 5.90252 22.707 6.29301C23.0975 6.68353 23.0975 7.31655 22.707 7.70707L21.121 9.29301C20.7305 9.68353 20.0975 9.68353 19.707 9.29301C19.3165 8.90248 19.3165 8.26946 19.707 7.87895L21.2929 6.29301Z" fill="black"/>
<path d="M20 10C20 9.44775 19.5523 9.00004 19 9.00004C18.4477 9.00004 18 9.44775 18 10C18 10.5523 18.4477 11 19 11C19.5523 11 20 10.5523 20 10ZM22 10C22 11.6569 20.6569 13 19 13C17.3431 13 16 11.6569 16 10C16 8.34319 17.3431 7.00004 19 7.00004C20.6569 7.00004 22 8.34319 22 10Z" fill="black"/>
</svg>
