<svg width="24" height="24" viewBox="0 0 24 24" fill="none" xmlns="http://www.w3.org/2000/svg">
<path fill-rule="evenodd" clip-rule="evenodd" d="M15 18.0001V21.0001H21V18.0001H15ZM21.0012 21C21.0013 21 21.0013 21 21.0012 21V21ZM14.9988 21.0001C14.9987 21 14.9988 21 14.9988 21.0001V21.0001ZM13 18.0001C13 16.8955 13.8954 16.0001 15 16.0001H21C22.1046 16.0001 23 16.8955 23 18.0001V21.0001C23 22.1047 22.1046 23.0001 21 23.0001H15C13.8954 23.0001 13 22.1047 13 21.0001V18.0001Z" fill="black"/>
<path fill-rule="evenodd" clip-rule="evenodd" d="M8.38965 4.11736C8.24203 4.03874 8.07705 3.99841 7.9098 4.00005C7.90654 4.00008 7.90327 4.0001 7.9 4.0001H4C3.73478 4.0001 3.48043 4.10545 3.29289 4.29299C3.10536 4.48053 3 4.73488 3 5.0001V18.0001C3 18.2653 3.10536 18.5197 3.29289 18.7072C3.48043 18.8947 3.73478 19.0001 4 19.0001H10C10.5523 19.0001 11 19.4478 11 20.0001C11 20.5524 10.5523 21.0001 10 21.0001H4C3.20435 21.0001 2.44129 20.684 1.87868 20.1214C1.31607 19.5588 1 18.7957 1 18.0001V5.0001C1 4.20445 1.31607 3.44138 1.87868 2.87878C2.44129 2.31617 3.20435 2.0001 4 2.0001H7.89559C8.39548 1.99609 8.88846 2.11707 9.32975 2.35207C9.77076 2.58694 10.1461 2.92822 10.4217 3.3449L11.2288 4.54062C11.231 4.54377 11.2331 4.54693 11.2352 4.5501C11.3262 4.68836 11.4502 4.80186 11.5959 4.8804C11.7416 4.95891 11.9045 5.00004 12.07 5.0001C12.0699 5.0001 12.0701 5.0001 12.07 5.0001H20C20.7956 5.0001 21.5587 5.31617 22.1213 5.87878C22.6839 6.44138 23 7.20445 23 8.0001V10.5001C23 11.0524 22.5523 11.5001 22 11.5001C21.4477 11.5001 21 11.0524 21 10.5001V8.0001C21 7.73488 20.8946 7.48053 20.7071 7.29299C20.5196 7.10545 20.2652 7.0001 20 7.0001H12.07C11.5733 7.00001 11.0843 6.87662 10.6471 6.641C10.2117 6.40637 9.84114 6.06776 9.56829 5.65534L8.76115 4.45957C8.75902 4.45641 8.7569 4.45323 8.7548 4.45005C8.66282 4.31036 8.53728 4.19597 8.38965 4.11736Z" fill="black"/>
<path fill-rule="evenodd" clip-rule="evenodd" d="M15.8787 12.8788C16.4413 12.3162 17.2043 12.0001 18 12.0001C18.7957 12.0001 19.5587 12.3162 20.1213 12.8788C20.6839 13.4414 21 14.2044 21 15.0001V17.0001C21 17.5524 20.5523 18.0001 20 18.0001C19.4477 18.0001 19 17.5524 19 17.0001V15.0001C19 14.7349 18.8946 14.4805 18.7071 14.293C18.5196 14.1055 18.2652 14.0001 18 14.0001C17.7348 14.0001 17.4804 14.1055 17.2929 14.293C17.1054 14.4805 17 14.7349 17 15.0001V17.0001C17 17.5524 16.5523 18.0001 16 18.0001C15.4477 18.0001 15 17.5524 15 17.0001V15.0001C15 14.2044 15.3161 13.4414 15.8787 12.8788Z" fill="black"/>
</svg>
