<svg width="24" height="24" viewBox="0 0 24 24" fill="none" xmlns="http://www.w3.org/2000/svg">
<path d="M3 12V4.00001C3 3.20436 3.3163 2.44152 3.87891 1.87891C4.44152 1.3163 5.20435 1.00001 6 1.00001H14C14.448 0.999229 14.8916 1.08748 15.3057 1.25879C15.7199 1.43024 16.0965 1.68159 16.4131 1.99903L20 5.58594L20.1162 5.70704C20.3799 5.99709 20.591 6.33139 20.7412 6.69434C20.9125 7.10836 21.0008 7.55196 21 8.00001V20C21 20.7957 20.6837 21.5585 20.1211 22.1211C19.5585 22.6837 18.7957 23 18 23C17.4477 23 17 22.5523 17 22C17 21.4477 17.4477 21 18 21C18.2652 21 18.5195 20.8946 18.707 20.707C18.8946 20.5195 19 20.2652 19 20V7.99708C19.0004 7.81244 18.9641 7.6296 18.8936 7.45899C18.8229 7.28818 18.7188 7.13243 18.5879 7.00196L14.998 3.41211C14.8676 3.28117 14.7118 3.17714 14.541 3.10645C14.3704 3.03587 14.1876 2.99962 14.0029 3.00001H6C5.73479 3.00001 5.4805 3.10544 5.29297 3.29297C5.10543 3.48051 5 3.73479 5 4.00001V12C5 12.5523 4.55228 13 4 13C3.44772 13 3 12.5523 3 12Z" fill="black"/>
<path d="M13 7.00001V2.00001C13 1.44772 13.4477 1.00001 14 1.00001C14.5523 1.00001 15 1.44772 15 2.00001V7.00001H20C20.5523 7.00001 21 7.44772 21 8.00001C21 8.55229 20.5523 9 20 9H15C14.4696 9 13.961 8.78914 13.5859 8.41407C13.2109 8.039 13 7.53044 13 7.00001Z" fill="black"/>
<path d="M11 22V17H10C9.44771 17 9 16.5523 9 16C9 15.4477 9.44771 15 10 15H12C12.5523 15 13 15.4477 13 16V22C13 22.5523 12.5523 23 12 23C11.4477 23 11 22.5523 11 22Z" fill="black"/>
<path d="M14 21C14.5523 21 15 21.4477 15 22C15 22.5523 14.5523 23 14 23H10C9.44771 23 9 22.5523 9 22C9 21.4477 9.44771 21 10 21H14Z" fill="black"/>
<path d="M5 18C5 17.4477 4.55228 17 4 17C3.44772 17 3 17.4477 3 18V20C3 20.5523 3.44772 21 4 21C4.55228 21 5 20.5523 5 20V18ZM7 20C7 21.6569 5.65685 23 4 23C2.34315 23 1 21.6569 1 20V18C1 16.3432 2.34315 15 4 15C5.65685 15 7 16.3432 7 18V20Z" fill="black"/>
</svg>
