<svg width="24" height="24" viewBox="0 0 24 24" fill="none" xmlns="http://www.w3.org/2000/svg">
<path d="M14.2929 6.29289C14.6834 5.90237 15.3164 5.90237 15.707 6.29289L20.707 11.2929C21.0975 11.6834 21.0975 12.3164 20.707 12.707L15.707 17.707C15.3164 18.0975 14.6834 18.0975 14.2929 17.707C13.9024 17.3164 13.9024 16.6834 14.2929 16.2929L18.5859 11.9999L14.2929 7.70696C13.9024 7.31643 13.9024 6.68342 14.2929 6.29289Z" fill="black"/>
<path d="M3 17.9999V15.9999C3 14.6738 3.52716 13.4024 4.46484 12.4647C5.40253 11.527 6.67392 10.9999 8 10.9999H20C20.5523 10.9999 21 11.4476 21 11.9999C21 12.5522 20.5523 12.9999 20 12.9999H8C7.20435 12.9999 6.44152 13.3162 5.87891 13.8788C5.3163 14.4414 5 15.2042 5 15.9999V17.9999C5 18.5522 4.55228 18.9999 4 18.9999C3.44772 18.9999 3 18.5522 3 17.9999Z" fill="black"/>
</svg>
