<svg width="24" height="24" viewBox="0 0 24 24" fill="none" xmlns="http://www.w3.org/2000/svg">
<path d="M3 14.0996V4.00001C3 3.20436 3.3163 2.44152 3.87891 1.87891C4.44152 1.3163 5.20435 1.00001 6 1.00001H14C14.448 0.999229 14.8916 1.08748 15.3057 1.25879C15.7199 1.43024 16.0965 1.68159 16.4131 1.99903L20 5.58594L20.1162 5.70704C20.3799 5.99709 20.591 6.33139 20.7412 6.69434C20.9125 7.10836 21.0008 7.55196 21 8.00001V20C21 20.7957 20.6837 21.5585 20.1211 22.1211C19.5585 22.6837 18.7957 23 18 23H10.6504C10.0981 23 9.65039 22.5523 9.65039 22C9.65039 21.4477 10.0981 21 10.6504 21H18C18.2652 21 18.5195 20.8946 18.707 20.707C18.8946 20.5195 19 20.2652 19 20V7.99708C19.0004 7.81244 18.9641 7.6296 18.8936 7.45899C18.8229 7.28818 18.7188 7.13243 18.5879 7.00196L14.998 3.41211C14.8676 3.28117 14.7118 3.17714 14.541 3.10645C14.3704 3.03587 14.1876 2.99962 14.0029 3.00001H6C5.73479 3.00001 5.4805 3.10544 5.29297 3.29297C5.10543 3.48051 5 3.73479 5 4.00001V14.0996C5 14.6519 4.55228 15.0996 4 15.0996C3.44772 15.0996 3 14.6519 3 14.0996Z" fill="black"/>
<path d="M13 7.00001V2.00001C13 1.44772 13.4477 1.00001 14 1.00001C14.5523 1.00001 15 1.44772 15 2.00001V7.00001H20C20.5523 7.00001 21 7.44772 21 8.00001C21 8.55229 20.5523 9 20 9H15C14.4696 9 13.961 8.78914 13.5859 8.41407C13.2109 8.039 13 7.53044 13 7.00001Z" fill="black"/>
<path d="M9.29289 14.293C9.68342 13.9025 10.3164 13.9025 10.707 14.293L11.707 15.293C12.0975 15.6835 12.0975 16.3166 11.707 16.7071C11.3164 17.0976 10.6834 17.0976 10.2929 16.7071L9.29289 15.7071C8.90237 15.3166 8.90237 14.6835 9.29289 14.293Z" fill="black"/>
<path d="M10.2929 13.293C10.6834 12.9025 11.3164 12.9025 11.7069 13.293C12.0975 13.6835 12.0975 14.3165 11.7069 14.7071L7.121 19.293C6.73048 19.6835 6.09746 19.6835 5.70694 19.293C5.31645 18.9025 5.31643 18.2695 5.70694 17.8789L10.2929 13.293Z" fill="black"/>
<path d="M6 20C6 19.4477 5.55228 19 5 19C4.44772 19 4 19.4477 4 20C4 20.5523 4.44772 21 5 21C5.55228 21 6 20.5523 6 20ZM8 20C8 21.6569 6.65685 23 5 23C3.34315 23 2 21.6569 2 20C2 18.3432 3.34315 17 5 17C6.65685 17 8 18.3432 8 20Z" fill="black"/>
</svg>
