<svg width="24" height="24" viewBox="0 0 24 24" fill="none" xmlns="http://www.w3.org/2000/svg">
<path fill-rule="evenodd" clip-rule="evenodd" d="M1.99997 16C1.14248 15.4855 1.14273 15.485 1.14301 15.4846L1.14376 15.4833C1.14433 15.4824 1.14503 15.4812 1.14587 15.4798C1.14689 15.4781 1.14812 15.4761 1.14954 15.4738C1.15047 15.4722 1.15149 15.4706 1.15259 15.4688C1.15817 15.4596 1.16595 15.4469 1.1759 15.4309C1.1958 15.3987 1.2244 15.353 1.26149 15.2951C1.33566 15.1792 1.44389 15.0141 1.58449 14.8099C1.86545 14.4018 2.27706 13.8354 2.80588 13.1927C3.11415 12.8181 3.46444 12.4147 3.85412 12C3.46444 11.5852 3.11415 11.1819 2.80588 10.8072C2.27706 10.1645 1.86545 9.59817 1.58449 9.19007C1.44389 8.98583 1.33566 8.82071 1.26149 8.70484C1.2244 8.64689 1.1958 8.60122 1.1759 8.56907C1.16595 8.553 1.15817 8.54031 1.15259 8.53116C1.1498 8.52658 1.14756 8.52289 1.14587 8.5201C1.14503 8.5187 1.14433 8.51753 1.14376 8.51659L1.14301 8.51535C1.14273 8.51488 1.14248 8.51446 1.99694 8.00178L1.14248 8.51446C0.858327 8.04088 1.01189 7.42662 1.48547 7.14247C1.95883 6.85846 2.57272 7.01174 2.85705 7.48479C2.85708 7.48483 2.8571 7.48487 2.85713 7.48491L2.85735 7.48528C2.85786 7.48612 2.8589 7.48784 2.86048 7.49043C2.86363 7.49561 2.86893 7.50426 2.87635 7.51624C2.89118 7.54019 2.91445 7.5774 2.94596 7.62663C3.009 7.72511 3.10487 7.87151 3.23185 8.05595C3.48605 8.42519 3.8635 8.94482 4.35031 9.53647C4.62978 9.87614 4.9432 10.237 5.28792 10.6051C5.9072 10.0571 6.58883 9.52209 7.32694 9.0385C9.25582 7.77476 11.6232 6.82901 14.2931 6.98606C16.9787 7.14404 19.8234 8.40919 22.7071 11.2929C23.0976 11.6834 23.0976 12.3165 22.7071 12.7071C19.8234 15.5907 16.9787 16.8559 14.2931 17.0139C11.6232 17.1709 9.25582 16.2252 7.32694 14.9614C6.58883 14.4778 5.9072 13.9428 5.28792 13.3948C4.9432 13.763 4.62978 14.1238 4.35031 14.4635C3.8635 15.0551 3.48605 15.5747 3.23185 15.944C3.10487 16.1284 3.009 16.2748 2.94596 16.3733C2.91445 16.4225 2.89118 16.4597 2.87635 16.4837C2.86893 16.4957 2.86363 16.5043 2.86048 16.5095C2.8589 16.5121 2.85786 16.5138 2.85735 16.5146L2.85713 16.515M6.73061 12C7.25301 12.4542 7.81885 12.8927 8.42299 13.2885C10.1191 14.3998 12.0642 15.1415 14.1756 15.0173C16.0706 14.9058 18.2189 14.0898 20.5475 12C18.2189 9.9101 16.0706 9.09408 14.1756 8.98261C12.0642 8.85841 10.1191 9.60017 8.42299 10.7114C7.81885 11.1072 7.25301 11.5457 6.73061 12Z" fill="black"/>
</svg>
