<svg width="24" height="24" viewBox="0 0 24 24" fill="none" xmlns="http://www.w3.org/2000/svg">
<path d="M3 20V4.00001C3 3.20436 3.3163 2.44152 3.87891 1.87891C4.44152 1.3163 5.20435 1.00001 6 1.00001H14C14.448 0.999229 14.8916 1.08748 15.3057 1.25879C15.7199 1.43024 16.0965 1.68159 16.4131 1.99903L20.001 5.58594C20.3187 5.90286 20.5708 6.27963 20.7422 6.69434C20.9132 7.10826 21.0009 7.55215 21 8.00001V11.25C21 11.8023 20.5523 12.25 20 12.25C19.4477 12.25 19 11.8023 19 11.25V7.99708C19.0005 7.81229 18.9641 7.6288 18.8936 7.45801C18.823 7.28742 18.7196 7.13235 18.5889 7.00196L14.998 3.41211C14.8676 3.28117 14.7118 3.17713 14.541 3.10645C14.3704 3.03587 14.1876 2.99962 14.0029 3.00001H6C5.73479 3.00001 5.4805 3.10544 5.29297 3.29297C5.10543 3.48051 5 3.73479 5 4.00001V20C5 20.2652 5.10543 20.5195 5.29297 20.707C5.48051 20.8946 5.73478 21 6 21H11.0996C11.6519 21 12.0996 21.4477 12.0996 22C12.0996 22.5523 11.6519 23 11.0996 23H6C5.20435 23 4.44152 22.6837 3.87891 22.1211C3.3163 21.5585 3 20.7957 3 20Z" fill="black"/>
<path d="M13 7.00001V2.00001C13 1.44773 13.4477 1.00001 14 1.00001C14.5523 1.00001 15 1.44773 15 2.00001V7.00001H20C20.5523 7.00001 21 7.44772 21 8.00001C21 8.55229 20.5523 9.00001 20 9.00001H15C14.4696 9.00001 13.961 8.78915 13.5859 8.41407C13.2109 8.039 13 7.53045 13 7.00001Z" fill="black"/>
<path d="M17.413 18.413C17.8035 18.0225 18.4365 18.0225 18.827 18.413L21.7069 21.2929C22.0974 21.6834 22.0974 22.3164 21.7069 22.7069C21.3164 23.0975 20.6834 23.0975 20.2929 22.7069L17.413 19.827C17.0224 19.4365 17.0224 18.8035 17.413 18.413Z" fill="black"/>
<path d="M18 17C18 15.8954 17.1046 15 16 15C14.8954 15 14 15.8954 14 17C14 18.1046 14.8954 19 16 19C17.1046 19 18 18.1046 18 17ZM20 17C20 19.2092 18.2091 21 16 21C13.7909 21 12 19.2092 12 17C12 14.7909 13.7909 13 16 13C18.2091 13 20 14.7909 20 17Z" fill="black"/>
</svg>
