<svg width="24" height="24" viewBox="0 0 24 24" fill="none" xmlns="http://www.w3.org/2000/svg">
<path fill-rule="evenodd" clip-rule="evenodd" d="M12 11C11.4477 11 11 11.4477 11 12C11 12.5523 11.4477 13 12 13C12.5523 13 13 12.5523 13 12C13 11.4477 12.5523 11 12 11ZM9 12C9 10.3431 10.3431 9 12 9C13.6569 9 15 10.3431 15 12C15 13.6569 13.6569 15 12 15C10.3431 15 9 13.6569 9 12Z" fill="black"/>
<path fill-rule="evenodd" clip-rule="evenodd" d="M12 1C12.5523 1 13 1.44772 13 2V6C13 6.55228 12.5523 7 12 7C11.4477 7 11 6.55228 11 6V2C11 1.44772 11.4477 1 12 1Z" fill="black"/>
<path fill-rule="evenodd" clip-rule="evenodd" d="M7.66824 14.5039C7.94225 14.9834 7.77565 15.5942 7.29613 15.8683L3.79613 17.8683C3.31662 18.1423 2.70576 17.9757 2.43175 17.4962C2.15774 17.0166 2.32434 16.4058 2.80386 16.1318L6.30386 14.1318C6.78337 13.8578 7.39423 14.0244 7.66824 14.5039Z" fill="black"/>
<path fill-rule="evenodd" clip-rule="evenodd" d="M21.5682 6.50388C21.8422 6.98339 21.6756 7.59425 21.1961 7.86826L17.6961 9.86826C17.2166 10.1423 16.6058 9.97567 16.3318 9.49615C16.0577 9.01664 16.2243 8.40578 16.7039 8.13177L20.2039 6.13177C20.6834 5.85776 21.2942 6.02436 21.5682 6.50388Z" fill="black"/>
<path fill-rule="evenodd" clip-rule="evenodd" d="M2.43175 6.50388C2.70576 6.02436 3.31662 5.85776 3.79613 6.13177L7.29613 8.13177C7.77565 8.40578 7.94225 9.01664 7.66824 9.49615C7.39423 9.97567 6.78337 10.1423 6.30386 9.86826L2.80386 7.86826C2.32434 7.59425 2.15774 6.98339 2.43175 6.50388Z" fill="black"/>
<path fill-rule="evenodd" clip-rule="evenodd" d="M16.3318 14.5039C16.6058 14.0244 17.2166 13.8578 17.6961 14.1318L21.1961 16.1318C21.6756 16.4058 21.8422 17.0166 21.5682 17.4962C21.2942 17.9757 20.6834 18.1423 20.2039 17.8683L16.7039 15.8683C16.2243 15.5942 16.0577 14.9834 16.3318 14.5039Z" fill="black"/>
<path fill-rule="evenodd" clip-rule="evenodd" d="M12 13C12.4168 13 12.79 13.2586 12.9363 13.6489L15.9363 21.6489C16.1302 22.166 15.8682 22.7424 15.3511 22.9363C14.834 23.1302 14.2576 22.8682 14.0637 22.3511L12 16.848L9.93633 22.3511C9.74241 22.8682 9.16599 23.1302 8.64887 22.9363C8.13175 22.7424 7.86975 22.166 8.06367 21.6489L11.0637 13.6489C11.21 13.2586 11.5832 13 12 13Z" fill="black"/>
<path fill-rule="evenodd" clip-rule="evenodd" d="M7 22C7 21.4477 7.44772 21 8 21H16C16.5523 21 17 21.4477 17 22C17 22.5523 16.5523 23 16 23H8C7.44772 23 7 22.5523 7 22Z" fill="black"/>
<path fill-rule="evenodd" clip-rule="evenodd" d="M6.32912 3.75523C7.99723 2.60673 9.97475 1.9918 12 1.9918C14.0253 1.9918 16.0028 2.60673 17.6709 3.75523C19.339 4.90372 20.6191 6.53164 21.3417 8.42358C22.0644 10.3155 22.1956 12.3823 21.7179 14.3504C21.2402 16.3185 20.1762 18.0952 18.6667 19.4454C18.255 19.8135 17.6228 19.7783 17.2546 19.3667C16.8865 18.955 16.9217 18.3228 17.3333 17.9546C18.541 16.8745 19.3922 15.4532 19.7743 13.8787C20.1564 12.3042 20.0515 10.6508 19.4734 9.13722C18.8953 7.62367 17.8712 6.32134 16.5367 5.40254C15.2022 4.48374 13.6202 3.9918 12 3.9918C10.3798 3.9918 8.79779 4.48374 7.4633 5.40254C6.12881 6.32134 5.10475 7.62367 4.52662 9.13722C3.9485 10.6508 3.84357 12.3042 4.2257 13.8787C4.60784 15.4532 5.45904 16.8745 6.66667 17.9546C7.07832 18.3228 7.11355 18.955 6.74536 19.3667C6.37717 19.7783 5.74498 19.8135 5.33334 19.4454C3.8238 18.0952 2.7598 16.3185 2.28213 14.3504C1.80446 12.3823 1.93562 10.3155 2.65828 8.42358C3.38093 6.53164 4.66101 4.90372 6.32912 3.75523Z" fill="black"/>
</svg>
