<svg width="24" height="24" viewBox="0 0 24 24" fill="none" xmlns="http://www.w3.org/2000/svg">
<path fill-rule="evenodd" clip-rule="evenodd" d="M8.38965 4.11736C8.24203 4.03874 8.07705 3.99841 7.9098 4.00005C7.90654 4.00008 7.90327 4.0001 7.9 4.0001H4C3.73478 4.0001 3.48043 4.10545 3.29289 4.29299C3.10536 4.48053 3 4.73488 3 5.0001V18.0001C3 18.2653 3.10536 18.5197 3.29289 18.7072C3.48043 18.8947 3.73478 19.0001 4 19.0001H9C9.55228 19.0001 10 19.4478 10 20.0001C10 20.5524 9.55228 21.0001 9 21.0001H4C3.20435 21.0001 2.44129 20.684 1.87868 20.1214C1.31607 19.5588 1 18.7957 1 18.0001V5.0001C1 4.20445 1.31607 3.44138 1.87868 2.87878C2.44129 2.31617 3.20435 2.0001 4 2.0001H7.89559C8.39548 1.99609 8.88846 2.11707 9.32975 2.35207C9.77076 2.58694 10.1461 2.92822 10.4217 3.3449L11.2288 4.54062C11.231 4.54377 11.2331 4.54693 11.2352 4.5501C11.3262 4.68836 11.4502 4.80186 11.5959 4.8804C11.7416 4.95891 11.9045 5.00004 12.07 5.0001C12.0699 5.0001 12.0701 5.0001 12.07 5.0001H20C20.7956 5.0001 21.5587 5.31617 22.1213 5.87878C22.6839 6.44138 23 7.20445 23 8.0001V13.0001C23 13.5524 22.5523 14.0001 22 14.0001C21.4477 14.0001 21 13.5524 21 13.0001V8.0001C21 7.73488 20.8946 7.48053 20.7071 7.29299C20.5196 7.10545 20.2652 7.0001 20 7.0001H12.07C11.5733 7.00001 11.0843 6.87662 10.6471 6.641C10.2117 6.40637 9.84114 6.06776 9.56829 5.65534L8.76115 4.45957C8.75902 4.45641 8.7569 4.45323 8.7548 4.45005C8.66282 4.31036 8.53728 4.19597 8.38965 4.11736Z" fill="black"/>
<path fill-rule="evenodd" clip-rule="evenodd" d="M13 11.0001C12.4477 11.0001 12 11.4478 12 12.0001C12 12.5524 12.4477 13.0001 13 13.0001C13.5523 13.0001 14 12.5524 14 12.0001C14 11.4478 13.5523 11.0001 13 11.0001ZM10 12.0001C10 10.3432 11.3431 9.0001 13 9.0001C14.6569 9.0001 16 10.3432 16 12.0001C16 13.657 14.6569 15.0001 13 15.0001C11.3431 15.0001 10 13.657 10 12.0001Z" fill="black"/>
<path fill-rule="evenodd" clip-rule="evenodd" d="M13 13.0001C13.5523 13.0001 14 13.4478 14 14.0001C14 16.2478 15.7523 18.0001 18 18.0001C18.5523 18.0001 19 18.4478 19 19.0001C19 19.5524 18.5523 20.0001 18 20.0001C16.453 20.0001 15.056 19.4362 14 18.4994V22.0001C14 22.5524 13.5523 23.0001 13 23.0001C12.4477 23.0001 12 22.5524 12 22.0001V14.0001C12 13.4478 12.4477 13.0001 13 13.0001Z" fill="black"/>
<path fill-rule="evenodd" clip-rule="evenodd" d="M20 18.0001C19.4477 18.0001 19 18.4478 19 19.0001C19 19.5524 19.4477 20.0001 20 20.0001C20.5523 20.0001 21 19.5524 21 19.0001C21 18.4478 20.5523 18.0001 20 18.0001ZM17 19.0001C17 17.3432 18.3431 16.0001 20 16.0001C21.6569 16.0001 23 17.3432 23 19.0001C23 20.657 21.6569 22.0001 20 22.0001C18.3431 22.0001 17 20.657 17 19.0001Z" fill="black"/>
</svg>
