<svg width="24" height="24" viewBox="0 0 24 24" fill="none" xmlns="http://www.w3.org/2000/svg">
<path d="M6 14V5C6 4.20435 6.3163 3.44152 6.87891 2.87891C7.44152 2.3163 8.20435 2 9 2H11.5C11.8881 2 12.271 2.0901 12.6182 2.26367C12.9653 2.43724 13.2671 2.68951 13.5 3L14.0996 3.7998C14.1462 3.8619 14.2069 3.91255 14.2764 3.94727C14.3458 3.98198 14.4224 4 14.5 4H20C20.7957 4 21.5585 4.3163 22.1211 4.87891C22.6837 5.44152 23 6.20435 23 7V14C23 14.7957 22.6837 15.5585 22.1211 16.1211C21.5585 16.6837 20.7957 17 20 17H9C8.20435 17 7.44151 16.6837 6.87891 16.1211C6.3163 15.5585 6 14.7956 6 14ZM8 14C8 14.2652 8.10543 14.5195 8.29297 14.707C8.4805 14.8946 8.73478 15 9 15H20C20.2652 15 20.5195 14.8946 20.707 14.707C20.8946 14.5195 21 14.2652 21 14V7C21 6.73478 20.8946 6.48051 20.707 6.29297C20.5195 6.10543 20.2652 6 20 6H14.5C14.1119 6 13.729 5.9099 13.3818 5.73633C13.0347 5.56276 12.7329 5.31049 12.5 5L11.9004 4.2002C11.8538 4.1381 11.7931 4.08745 11.7236 4.05273C11.6542 4.01802 11.5776 4 11.5 4H9C8.73478 4 8.4805 4.10543 8.29297 4.29297C8.10543 4.4805 8 4.73478 8 5V14Z" fill="black"/>
<path d="M1.00001 19.0004V10.0063C0.998913 9.47923 1.13665 8.96118 1.39942 8.5043C1.6628 8.04654 2.04264 7.66582 2.50001 7.40176C2.97829 7.12568 3.59009 7.2897 3.86622 7.76797C4.1423 8.24626 3.97828 8.85806 3.50001 9.13419C3.34759 9.2222 3.2206 9.34881 3.13282 9.50137C3.04511 9.65391 2.99948 9.82737 3.00001 10.0033V19.0004C3.00012 19.2655 3.10554 19.52 3.29298 19.7074C3.48049 19.8948 3.73489 20.0004 4.00001 20.0004H15L15.1309 19.9916C15.2605 19.9745 15.386 19.9314 15.5 19.8656C15.6519 19.7779 15.7785 19.6523 15.8662 19.5004C16.1424 19.0221 16.7541 18.858 17.2324 19.1342C17.7104 19.4104 17.8737 20.0222 17.5977 20.5004C17.3344 20.9562 16.9559 21.3348 16.5 21.5981C16.044 21.8614 15.5266 22.0004 15 22.0004H4.00001C3.20446 22.0004 2.4415 21.684 1.87891 21.1215C1.3164 20.559 1.00012 19.7959 1.00001 19.0004Z" fill="black"/>
</svg>
