<svg width="24" height="24" viewBox="0 0 24 24" fill="none" xmlns="http://www.w3.org/2000/svg">
<path fill-rule="evenodd" clip-rule="evenodd" d="M1.87868 2.87868C2.44129 2.31607 3.20435 2 4 2H7.93C7.93106 2 7.93212 2 7.93318 2.00001L7.93517 2.00001C8.42929 2.00257 8.91513 2.12714 9.34953 2.36265C9.78115 2.59666 10.1487 2.93301 10.42 3.34213L11.2356 4.53581C11.2389 4.54052 11.242 4.54525 11.2452 4.55001C11.3358 4.68757 11.4589 4.80063 11.6037 4.87913C11.7479 4.9573 11.9091 4.9988 12.073 5H20C20.7956 5 21.5587 5.31607 22.1213 5.87868C22.6839 6.44129 23 7.20435 23 8V18C23 18.7957 22.6839 19.5587 22.1213 20.1213C21.5587 20.6839 20.7957 21 20 21H4C2.34772 21 1 19.6523 1 18V5C1 4.20435 1.31607 3.44129 1.87868 2.87868ZM4 4C3.73478 4 3.48043 4.10536 3.29289 4.29289C3.10536 4.48043 3 4.73478 3 5V18C3 18.5477 3.45228 19 4 19H20C20.2652 19 20.5196 18.8946 20.7071 18.7071C20.8946 18.5196 21 18.2652 21 18V8C21 7.73478 20.8946 7.48043 20.7071 7.29289C20.5196 7.10536 20.2652 7 20 7H12.07C12.0683 7 12.0666 7 12.0648 6.99999C11.5707 6.99743 11.0849 6.87286 10.6505 6.63735C10.2189 6.40334 9.8513 6.06699 9.58004 5.65787L8.76436 4.46419C8.76114 4.45948 8.75796 4.45475 8.75483 4.44999C8.66424 4.31243 8.54107 4.19937 8.39628 4.12087C8.25211 4.0427 8.09093 4.0012 7.92697 4H4Z" fill="black"/>
<path fill-rule="evenodd" clip-rule="evenodd" d="M12 12C11.4477 12 11 12.4477 11 13C11 13.5523 11.4477 14 12 14C12.5523 14 13 13.5523 13 13C13 12.4477 12.5523 12 12 12ZM9 13C9 11.3431 10.3431 10 12 10C13.6569 10 15 11.3431 15 13C15 14.6569 13.6569 16 12 16C10.3431 16 9 14.6569 9 13Z" fill="black"/>
<path fill-rule="evenodd" clip-rule="evenodd" d="M12 14C12.5523 14 13 14.4477 13 15V20C13 20.5523 12.5523 21 12 21C11.4477 21 11 20.5523 11 20V15C11 14.4477 11.4477 14 12 14Z" fill="black"/>
</svg>
