<svg width="24" height="24" viewBox="0 0 24 24" fill="none" xmlns="http://www.w3.org/2000/svg">
<path fill-rule="evenodd" clip-rule="evenodd" d="M3.87868 1.87868C4.44129 1.31607 5.20435 1 6 1H15C15.2652 1 15.5196 1.10536 15.7071 1.29289L20.7071 6.29289C20.8946 6.48043 21 6.73478 21 7V20C21 20.7957 20.6839 21.5587 20.1213 22.1213C19.5587 22.6839 18.7957 23 18 23H6C5.20435 23 4.44129 22.6839 3.87868 22.1213C3.31607 21.5587 3 20.7956 3 20V4C3 3.20435 3.31607 2.44129 3.87868 1.87868ZM6 3C5.73478 3 5.48043 3.10536 5.29289 3.29289C5.10536 3.48043 5 3.73478 5 4V20C5 20.2652 5.10536 20.5196 5.29289 20.7071C5.48043 20.8946 5.73478 21 6 21H18C18.2652 21 18.5196 20.8946 18.7071 20.7071C18.8946 20.5196 19 20.2652 19 20V7.41421L14.5858 3H6Z" fill="black"/>
<path fill-rule="evenodd" clip-rule="evenodd" d="M14 1C14.5523 1 15 1.44772 15 2V6C15 6.26522 15.1054 6.51957 15.2929 6.70711C15.4804 6.89464 15.7348 7 16 7H20C20.5523 7 21 7.44772 21 8C21 8.55228 20.5523 9 20 9H16C15.2044 9 14.4413 8.68393 13.8787 8.12132C13.3161 7.55871 13 6.79565 13 6V2C13 1.44772 13.4477 1 14 1Z" fill="black"/>
<path fill-rule="evenodd" clip-rule="evenodd" d="M8.58579 11.5858C8.96086 11.2107 9.46957 11 10 11C10.5523 11 11 11.4477 11 12C11 12.5523 10.5523 13 10 13V14C10 14.3541 9.90609 14.6985 9.73206 15C9.90609 15.3015 10 15.6459 10 16V17C10.5523 17 11 17.4477 11 18C11 18.5523 10.5523 19 10 19C9.46957 19 8.96086 18.7893 8.58579 18.4142C8.21071 18.0391 8 17.5304 8 17V16C7.44772 16 7 15.5523 7 15C7 14.4477 7.44772 14 8 14V13C8 12.4696 8.21071 11.9609 8.58579 11.5858Z" fill="black"/>
<path fill-rule="evenodd" clip-rule="evenodd" d="M13 12C13 11.4477 13.4477 11 14 11C14.5304 11 15.0391 11.2107 15.4142 11.5858C15.7893 11.9609 16 12.4696 16 13V14C16.5523 14 17 14.4477 17 15C17 15.5523 16.5523 16 16 16V17C16 17.5304 15.7893 18.0391 15.4142 18.4142C15.0391 18.7893 14.5304 19 14 19C13.4477 19 13 18.5523 13 18C13 17.4477 13.4477 17 14 17V16C14 15.6459 14.0939 15.3015 14.2679 15C14.0939 14.6985 14 14.3541 14 14V13C13.4477 13 13 12.5523 13 12Z" fill="black"/>
</svg>
