<svg width="24" height="24" viewBox="0 0 24 24" fill="none" xmlns="http://www.w3.org/2000/svg">
<path fill-rule="evenodd" clip-rule="evenodd" d="M5 4C4.44772 4 4 4.44772 4 5V19C4 19.5523 4.44772 20 5 20H19C19.5523 20 20 19.5523 20 19V5C20 4.44772 19.5523 4 19 4H5ZM2 5C2 3.34315 3.34315 2 5 2H19C20.6569 2 22 3.34315 22 5V19C22 20.6569 20.6569 22 19 22H5C3.34315 22 2 20.6569 2 19V5Z" fill="black"/>
<path fill-rule="evenodd" clip-rule="evenodd" d="M7 2C7.55228 2 8 2.44772 8 3V21C8 21.5523 7.55228 22 7 22C6.44772 22 6 21.5523 6 21V3C6 2.44772 6.44772 2 7 2Z" fill="black"/>
<path fill-rule="evenodd" clip-rule="evenodd" d="M2 7.5C2 6.94772 2.44772 6.5 3 6.5H7C7.55228 6.5 8 6.94772 8 7.5C8 8.05228 7.55228 8.5 7 8.5H3C2.44772 8.5 2 8.05228 2 7.5Z" fill="black"/>
<path fill-rule="evenodd" clip-rule="evenodd" d="M2 12C2 11.4477 2.44772 11 3 11H21C21.5523 11 22 11.4477 22 12C22 12.5523 21.5523 13 21 13H3C2.44772 13 2 12.5523 2 12Z" fill="black"/>
<path fill-rule="evenodd" clip-rule="evenodd" d="M2 16.5C2 15.9477 2.44772 15.5 3 15.5H7C7.55228 15.5 8 15.9477 8 16.5C8 17.0523 7.55228 17.5 7 17.5H3C2.44772 17.5 2 17.0523 2 16.5Z" fill="black"/>
<path fill-rule="evenodd" clip-rule="evenodd" d="M17 2C17.5523 2 18 2.44772 18 3V21C18 21.5523 17.5523 22 17 22C16.4477 22 16 21.5523 16 21V3C16 2.44772 16.4477 2 17 2Z" fill="black"/>
<path fill-rule="evenodd" clip-rule="evenodd" d="M16 7.5C16 6.94772 16.4477 6.5 17 6.5H21C21.5523 6.5 22 6.94772 22 7.5C22 8.05228 21.5523 8.5 21 8.5H17C16.4477 8.5 16 8.05228 16 7.5Z" fill="black"/>
<path fill-rule="evenodd" clip-rule="evenodd" d="M16 16.5C16 15.9477 16.4477 15.5 17 15.5H21C21.5523 15.5 22 15.9477 22 16.5C22 17.0523 21.5523 17.5 21 17.5H17C16.4477 17.5 16 17.0523 16 16.5Z" fill="black"/>
</svg>
