<svg width="24" height="24" viewBox="0 0 24 24" fill="none" xmlns="http://www.w3.org/2000/svg">
<path d="M9.00007 2C9.00007 1.44772 9.44779 1.00001 10.0001 1C10.5524 1 11.0001 1.44772 11.0001 2V8.29199C11.0001 8.73407 10.7098 9.1235 10.2862 9.25C8.90507 9.66178 7.71785 10.5576 6.94246 11.7725C6.16723 12.9872 5.8546 14.4403 6.06257 15.8662C6.27064 17.2923 6.98513 18.5964 8.07527 19.5391C9.16544 20.4817 10.5589 21 12.0001 21C13.4413 21 14.8347 20.4817 15.9249 19.5391C17.015 18.5964 17.7295 17.2923 17.9376 15.8662C18.1456 14.4403 17.8329 12.9872 17.0577 11.7725C16.2823 10.5576 15.0951 9.66178 13.7139 9.25C13.2904 9.12349 13.0001 8.73406 13.0001 8.29199V2C13.0001 1.44772 13.4478 1.00001 14.0001 1C14.5524 1 15.0001 1.44772 15.0001 2V7.58398C16.5351 8.20489 17.8457 9.29007 18.7432 10.6963C19.7771 12.3161 20.1935 14.2538 19.9161 16.1553C19.6386 18.0567 18.686 19.7949 17.2325 21.0518C15.779 22.3085 13.9216 23 12.0001 23C10.0785 23 8.22119 22.3086 6.76765 21.0518C5.31412 19.7949 4.36151 18.0567 4.08406 16.1553C3.80664 14.2538 4.22306 12.3161 5.25691 10.6963C6.15445 9.29008 7.46508 8.20489 9.00007 7.58398V2Z" fill="black"/>
<path d="M19 14C19.5523 14 20 14.4477 20 15C20 15.5523 19.5523 16 19 16H5C4.44772 16 4 15.5523 4 15C4 14.4477 4.44772 14 5 14H19Z" fill="black"/>
<path d="M15.5 1C16.0523 1 16.5 1.44772 16.5 2C16.5 2.55228 16.0523 3 15.5 3H8.5C7.94772 3 7.5 2.55228 7.5 2C7.5 1.44772 7.94772 1 8.5 1H15.5Z" fill="black"/>
</svg>
