<svg width="24" height="24" viewBox="0 0 24 24" fill="none" xmlns="http://www.w3.org/2000/svg">
<path d="M11 5.99944C11.0002 5.40631 11.1763 4.82656 11.5059 4.33342C11.8354 3.84034 12.3037 3.45596 12.8516 3.22893C13.3996 3.00194 14.0031 2.94236 14.585 3.05803C15.1667 3.17372 15.7016 3.45901 16.1211 3.87835L22.1211 9.87932C22.6834 10.4419 23 11.205 23 12.0004C22.9999 12.7957 22.6833 13.5581 22.1211 14.1205L16.1211 20.1215C15.7016 20.5409 15.1668 20.8261 14.585 20.9418C14.0031 21.0575 13.3996 20.9979 12.8516 20.7709C12.3037 20.5439 11.8354 20.1595 11.5059 19.6664C11.1763 19.1733 11.0002 18.5936 11 18.0004V5.99944ZM13 17.9994C13 18.1972 13.0591 18.3907 13.1689 18.5551C13.2788 18.7194 13.4346 18.8476 13.6172 18.9233C13.7999 18.9989 14.0014 19.0185 14.1953 18.9799C14.3891 18.9413 14.5673 18.8462 14.707 18.7065L20.707 12.7065C20.8942 12.5191 20.9999 12.2652 21 12.0004C21 11.7354 20.8943 11.4809 20.707 11.2934L14.707 5.29338C14.5673 5.15365 14.3891 5.05856 14.1953 5.01995C14.0014 4.98138 13.7999 5.00092 13.6172 5.07659C13.4346 5.15224 13.2788 5.28046 13.1689 5.44475C13.0591 5.60916 13 5.80266 13 6.00042V17.9994Z" fill="black"/>
<path d="M1 5.99944C1.00019 5.40631 1.17627 4.82656 1.50586 4.33342C1.83542 3.84034 2.30367 3.45596 2.85156 3.22893C3.39962 3.00194 4.00314 2.94236 4.58496 3.05803C5.16674 3.17372 5.70156 3.45901 6.12109 3.87835L12.1211 9.87932C12.6834 10.4419 13 11.205 13 12.0004C12.9999 12.7957 12.6833 13.5581 12.1211 14.1205L6.12109 20.1215C5.70156 20.5409 5.16677 20.8261 4.58496 20.9418C4.00314 21.0575 3.39963 20.9979 2.85156 20.7709C2.30368 20.5439 1.83541 20.1595 1.50586 19.6664C1.17628 19.1733 1.00017 18.5936 1 18.0004V5.99944ZM3 17.9994C3.00004 18.1972 3.05906 18.3907 3.16895 18.5551C3.27879 18.7194 3.4346 18.8476 3.61719 18.9233C3.79989 18.9989 4.00136 19.0185 4.19531 18.9799C4.38913 18.9413 4.56727 18.8462 4.70703 18.7065L10.707 12.7065C10.8942 12.5191 10.9999 12.2652 11 12.0004C11 11.7354 10.8943 11.4809 10.707 11.2934L4.70703 5.29338C4.56726 5.15366 4.38914 5.05856 4.19531 5.01995C4.00136 4.98138 3.79989 5.00092 3.61719 5.07659C3.43461 5.15224 3.27879 5.28046 3.16895 5.44475C3.05906 5.60916 3.00004 5.80267 3 6.00042V17.9994Z" fill="black"/>
</svg>
