<svg width="24" height="24" viewBox="0 0 24 24" fill="none" xmlns="http://www.w3.org/2000/svg">
<path d="M3 6.83497V4.00001C3 3.20436 3.3163 2.44152 3.87891 1.87891C4.44152 1.3163 5.20435 1.00001 6 1.00001H14C14.448 0.999229 14.8916 1.08748 15.3057 1.25879C15.7199 1.43024 16.0965 1.68159 16.4131 1.99903L20 5.58594L20.1162 5.70704C20.3799 5.99709 20.591 6.33139 20.7412 6.69434C20.9125 7.10836 21.0008 7.55196 21 8.00001V20C21 20.7957 20.6837 21.5585 20.1211 22.1211C19.5585 22.6837 18.7957 23 18 23H17.6572C17.1049 23 16.6572 22.5523 16.6572 22C16.6572 21.4477 17.1049 21 17.6572 21H18C18.2652 21 18.5195 20.8946 18.707 20.707C18.8946 20.5195 19 20.2652 19 20V7.99708C19.0004 7.81244 18.9641 7.6296 18.8936 7.45899C18.8229 7.28818 18.7188 7.13243 18.5879 7.00196L14.998 3.41211C14.8676 3.28117 14.7118 3.17714 14.541 3.10645C14.3704 3.03587 14.1876 2.99962 14.0029 3.00001H6C5.73479 3.00001 5.4805 3.10544 5.29297 3.29297C5.10543 3.48051 5 3.73479 5 4.00001V6.83497C5 7.38725 4.55228 7.83497 4 7.83497C3.44772 7.83497 3 7.38725 3 6.83497Z" fill="black"/>
<path d="M13 7.00001V2.00001C13 1.44773 13.4477 1.00001 14 1.00001C14.5523 1.00001 15 1.44773 15 2.00001V7.00001H20C20.5523 7.00001 21 7.44772 21 8.00001C21 8.55229 20.5523 9.00001 20 9.00001H15C14.4696 9.00001 13.961 8.78915 13.5859 8.41407C13.2109 8.039 13 7.53045 13 7.00001Z" fill="black"/>
<path d="M5 19C5 18.7348 4.89457 18.4805 4.70703 18.293C4.51949 18.1054 4.26522 18 4 18C3.73478 18 3.48051 18.1054 3.29297 18.293C3.10543 18.4805 3 18.7348 3 19V20C3 20.2652 3.10543 20.5195 3.29297 20.707C3.48051 20.8946 3.73478 21 4 21C4.26522 21 4.51949 20.8946 4.70703 20.707C4.89457 20.5195 5 20.2652 5 20V19ZM9 20V19C9 18.2044 9.3163 17.4415 9.87891 16.8789C10.4415 16.3163 11.2043 16 12 16C12.3443 16 12.6815 16.0621 13 16.1748V16C13 14.6739 12.4728 13.4025 11.5352 12.4649C10.5975 11.5272 9.32608 11 8 11C6.67392 11 5.40253 11.5272 4.46484 12.4649C3.52716 13.4025 3 14.6739 3 16V16.1748C3.3185 16.0621 3.65569 16 4 16C4.79565 16 5.55849 16.3163 6.12109 16.8789C6.6837 17.4415 7 18.2044 7 19V20C7 20.7957 6.6837 21.5585 6.12109 22.1211C5.55849 22.6837 4.79565 23 4 23C3.20435 23 2.44151 22.6837 1.87891 22.1211C1.3163 21.5585 1 20.7957 1 20V16C1 14.1435 1.73705 12.3626 3.0498 11.0498C4.36256 9.73706 6.14348 9.00001 8 9.00001C9.85652 9.00001 11.6374 9.73706 12.9502 11.0498C14.2629 12.3626 15 14.1435 15 16V20C15 20.7957 14.6837 21.5585 14.1211 22.1211C13.5585 22.6837 12.7957 23 12 23C11.2043 23 10.4415 22.6837 9.87891 22.1211C9.3163 21.5585 9 20.7957 9 20ZM11 20C11 20.2652 11.1054 20.5195 11.293 20.707C11.4805 20.8946 11.7348 21 12 21C12.2652 21 12.5195 20.8946 12.707 20.707C12.8946 20.5195 13 20.2652 13 20V19C13 18.7348 12.8946 18.4805 12.707 18.293C12.5195 18.1054 12.2652 18 12 18C11.7348 18 11.4805 18.1054 11.293 18.293C11.1054 18.4805 11 18.7348 11 19V20Z" fill="black"/>
</svg>
