<svg width="24" height="24" viewBox="0 0 24 24" fill="none" xmlns="http://www.w3.org/2000/svg">
<path fill-rule="evenodd" clip-rule="evenodd" d="M13.3726 3.01212C12.7362 2.97156 12.0949 3.05093 11.4826 3.24934C10.5494 3.55175 9.72365 4.11782 9.10504 4.87919C8.48643 5.64057 8.10141 6.56472 7.99645 7.5401C7.89149 8.51547 8.07108 9.50038 8.51354 10.3759C8.6914 10.7279 8.64581 11.1515 8.39713 11.4576C8.14846 11.7636 7.74314 11.895 7.36223 11.7929L3.01218 10.6274C2.97163 11.2637 3.05099 11.9051 3.2494 12.5174C3.55182 13.4506 4.11788 14.2763 4.87926 14.895C5.64063 15.5136 6.56478 15.8986 7.54016 16.0035C8.51553 16.1085 9.50044 15.9289 10.376 15.4865C10.728 15.3086 11.1516 15.3542 11.4576 15.6029C11.7637 15.8515 11.895 16.2569 11.793 16.6378L10.6275 20.9878C11.2638 21.0284 11.9052 20.949 12.5174 20.7506C13.4506 20.4482 14.2764 19.8821 14.895 19.1207C15.5136 18.3594 15.8986 17.4352 16.0036 16.4598C16.1086 15.4845 15.929 14.4996 15.4865 13.624C15.3087 13.272 15.3542 12.8484 15.6029 12.5424C15.8516 12.2363 16.2569 12.105 16.6378 12.207L20.9879 13.3725C21.0284 12.7362 20.9491 12.0948 20.7507 11.4826C20.4482 10.5493 19.8822 9.72359 19.1208 9.10498C18.3594 8.48637 17.4353 8.10135 16.4599 7.99639C15.4845 7.89143 14.4996 8.07102 13.6241 8.51348C13.2721 8.69134 12.8485 8.64575 12.5424 8.39707C12.2364 8.1484 12.105 7.74308 12.2071 7.36217L13.3726 3.01212ZM10.8661 1.34674C12.1666 0.925307 13.5613 0.889285 14.8818 1.24302C15.138 1.31165 15.3564 1.47924 15.489 1.70893C15.6217 1.93861 15.6576 2.21157 15.589 2.46776L14.6193 6.08698C15.2932 5.96144 15.9852 5.93377 16.6739 6.00787C18.0331 6.15414 19.321 6.69068 20.382 7.55274C21.443 8.4148 22.2318 9.56553 22.6533 10.866C23.0747 12.1665 23.1107 13.5612 22.757 14.8817C22.6883 15.1379 22.5208 15.3563 22.2911 15.489C22.0614 15.6216 21.7884 15.6575 21.5322 15.5889L17.913 14.6192C18.0385 15.2931 18.0662 15.9852 17.9921 16.6738C17.8459 18.033 17.3093 19.3209 16.4473 20.3819C15.5852 21.4429 14.4345 22.2318 13.134 22.6532C11.8335 23.0746 10.4388 23.1106 9.11827 22.7569C8.86208 22.6883 8.64365 22.5207 8.51102 22.291C8.3784 22.0613 8.34246 21.7884 8.41109 21.5322L9.38076 17.913C8.70685 18.0385 8.01481 18.0662 7.32617 17.9921C5.96694 17.8458 4.6791 17.3092 3.61808 16.4472C2.55707 15.5851 1.76824 14.4344 1.3468 13.1339C0.925368 11.8334 0.889346 10.4387 1.24308 9.11821C1.31171 8.86202 1.4793 8.64359 1.70899 8.51096C1.93867 8.37834 2.21163 8.34239 2.46782 8.41103L6.08704 9.3807C5.96151 8.70679 5.93383 8.01475 6.00793 7.32611C6.1542 5.96688 6.69074 4.67904 7.5528 3.61802C8.41486 2.55701 9.56559 1.76818 10.8661 1.34674Z" fill="black"/>
<path fill-rule="evenodd" clip-rule="evenodd" d="M12 11C12.5523 11 13 11.4477 13 12V12.01C13 12.5622 12.5523 13.01 12 13.01C11.4477 13.01 11 12.5622 11 12.01V12C11 11.4477 11.4477 11 12 11Z" fill="black"/>
</svg>
