<svg width="24" height="24" viewBox="0 0 24 24" fill="none" xmlns="http://www.w3.org/2000/svg">
<path d="M17 17.0001V15.0001C17 14.7348 16.8946 14.4806 16.707 14.293C16.5195 14.1055 16.2652 14.0001 16 14.0001H14C13.4477 14.0001 13 13.5523 13 13.0001C13 12.4478 13.4477 12.0001 14 12.0001H16C16.7957 12.0001 17.5585 12.3164 18.1211 12.879C18.6837 13.4416 19 14.2044 19 15.0001V17.0001C19 17.2653 19.1054 17.5195 19.293 17.7071C19.4805 17.8946 19.7348 18.0001 20 18.0001C20.2652 18.0001 20.5195 17.8946 20.707 17.7071C20.8946 17.5195 21 17.2653 21 17.0001V10.001C21.0001 9.86934 20.9743 9.73888 20.9238 9.61724C20.8732 9.49539 20.7987 9.3841 20.7051 9.29107C20.6986 9.28461 20.6919 9.27818 20.6855 9.27154L17.2754 5.68951C16.8948 5.28949 16.9106 4.65619 17.3105 4.27545C17.7106 3.89483 18.3439 3.91065 18.7246 4.3106L22.1348 7.89263C22.4065 8.16767 22.6221 8.49249 22.7705 8.84966C22.9222 9.2149 23.0002 9.60653 23 10.002V17.0001C23 17.7957 22.6837 18.5585 22.1211 19.1211C21.5585 19.6838 20.7957 20.0001 20 20.0001C19.2043 20.0001 18.4415 19.6838 17.8789 19.1211C17.3163 18.5585 17 17.7957 17 17.0001Z" fill="black"/>
<path d="M13 21V5C13 4.73478 12.8946 4.48051 12.707 4.29297C12.5195 4.10543 12.2652 4 12 4H5C4.73478 4 4.4805 4.10543 4.29297 4.29297C4.10543 4.4805 4 4.73478 4 5V21C4 21.5523 3.55228 22 3 22C2.44772 22 2 21.5523 2 21V5C2 4.20435 2.3163 3.44152 2.87891 2.87891C3.44152 2.3163 4.20435 2 5 2H12C12.7956 2 13.5585 2.3163 14.1211 2.87891C14.6837 3.44151 15 4.20435 15 5V21C15 21.5523 14.5523 22 14 22C13.4477 22 13 21.5523 13 21Z" fill="black"/>
<path d="M15 20C15.5523 20 16 20.4477 16 21C16 21.5523 15.5523 22 15 22H2C1.44772 22 1 21.5523 1 21C1 20.4477 1.44772 20 2 20H15Z" fill="black"/>
<path d="M14 8C14.5523 8 15 8.44772 15 9C15 9.55228 14.5523 10 14 10H3C2.44772 10 2 9.55228 2 9C2 8.44772 2.44772 8 3 8H14Z" fill="black"/>
</svg>
