<svg width="24" height="24" viewBox="0 0 24 24" fill="none" xmlns="http://www.w3.org/2000/svg">
<path d="M9.00034 20V14C9.00011 13.7524 8.90766 13.5137 8.74155 13.3301L1.51596 5.34082C1.25682 5.05369 1.08661 4.69642 1.02573 4.31445C0.964914 3.93257 1.0152 3.54089 1.17221 3.1875C1.32927 2.83412 1.58629 2.53404 1.91049 2.32324C2.23463 2.11256 2.61278 2.00019 2.99936 2H13.3539C13.9061 2 14.3539 2.44772 14.3539 3C14.3539 3.55228 13.9061 4 13.3539 4H3.00034L10.2249 11.9883C10.7235 12.5395 11 13.2567 11.0003 14V20.001L12.9994 21L13.0003 14C13.0007 13.2568 13.2762 12.5395 13.7748 11.9883L14.9925 10.6406C15.3628 10.2308 15.9958 10.1991 16.4056 10.5693C16.8151 10.9396 16.8471 11.5718 16.4769 11.9814L15.2591 13.3291L15.2582 13.3301C15.0921 13.5137 15.0006 13.7525 15.0003 14V21L14.9964 21.127C14.9776 21.4236 14.8926 21.713 14.7474 21.9736C14.5815 22.2715 14.342 22.5218 14.0521 22.7012C13.7621 22.8805 13.4308 22.9826 13.0902 22.998C12.7923 23.0115 12.4958 22.9584 12.222 22.8428L12.1058 22.7891L10.1058 21.7891C9.77348 21.6229 9.49349 21.3678 9.29819 21.0518C9.12734 20.7752 9.02759 20.4616 9.00522 20.1387L9.00034 20Z" fill="black"/>
<path d="M22 5C22.5523 5 23 5.44772 23 6C23 6.55228 22.5523 7 22 7H16C15.4477 7 15 6.55228 15 6C15 5.44772 15.4477 5 16 5H22Z" fill="black"/>
<path d="M18 9V3C18 2.44772 18.4477 2 19 2C19.5523 2 20 2.44772 20 3V9C20 9.55228 19.5523 10 19 10C18.4477 10 18 9.55228 18 9Z" fill="black"/>
</svg>
