<svg width="24" height="24" viewBox="0 0 24 24" fill="none" xmlns="http://www.w3.org/2000/svg">
<path d="M15 13.9999C15 13.4477 15.4477 12.9999 16 12.9999C16.5523 12.9999 17 13.4477 17 13.9999V15.6445L18.1299 16.3515C18.5982 16.6442 18.741 17.2621 18.4482 17.7304C18.1555 18.1985 17.5386 18.3403 17.0703 18.0478L15.4697 17.0478C15.1776 16.8651 15.0001 16.5447 15 16.2001V13.9999Z" fill="black"/>
<path d="M1 17.9998V4.99982C1.00003 4.2042 1.31632 3.44131 1.87891 2.87872C2.44151 2.31614 3.20437 1.99982 4 1.99982H7.90039C8.39863 1.99662 8.89021 2.11811 9.33008 2.35236C9.76929 2.58635 10.1427 2.92617 10.418 3.34064L11.2285 4.54083L11.2354 4.54962C11.3264 4.68789 11.45 4.80213 11.5957 4.88068C11.7414 4.95921 11.9048 4.99979 12.0703 4.99982H20C20.7956 4.99982 21.5585 5.31614 22.1211 5.87872C22.6837 6.44131 23 7.2042 23 7.99982C23 8.5521 22.5523 8.99982 22 8.99982C21.4477 8.99982 21 8.5521 21 7.99982C21 7.73464 20.8945 7.4803 20.707 7.29279C20.5195 7.10528 20.2652 6.99982 20 6.99982H12.0703C11.5737 6.99974 11.0846 6.87602 10.6475 6.64044C10.2103 6.40482 9.83762 6.06499 9.56445 5.65021L8.76074 4.45978L8.75488 4.45001C8.6629 4.31032 8.53727 4.19562 8.38965 4.117C8.24215 4.03847 8.07725 3.99824 7.91016 3.99982H4C3.73481 3.99982 3.4805 4.10528 3.29297 4.29279C3.10545 4.4803 3.00003 4.73464 3 4.99982V17.9998C3 18.265 3.10546 18.5193 3.29297 18.7068C3.48051 18.8944 3.73478 18.9998 4 18.9998H7C7.55225 18.9998 7.99995 19.4476 8 19.9998C8 20.5521 7.55228 20.9998 7 20.9998H4C3.20435 20.9998 2.44152 20.6835 1.87891 20.1209C1.31633 19.5583 1 18.7954 1 17.9998Z" fill="black"/>
<path d="M21 15.9999C21 13.2385 18.7614 10.9999 16 10.9999C13.2386 10.9999 11 13.2385 11 15.9999C11 18.7614 13.2386 20.9999 16 20.9999C18.7614 20.9999 21 18.7614 21 15.9999ZM23 15.9999C23 19.8659 19.866 22.9999 16 22.9999C12.134 22.9999 9 19.8659 9 15.9999C9 12.1339 12.134 8.99994 16 8.99994C19.866 8.99994 23 12.1339 23 15.9999Z" fill="black"/>
</svg>
