<svg width="24" height="24" viewBox="0 0 24 24" fill="none" xmlns="http://www.w3.org/2000/svg">
<path d="M12 21.9999V13.9999C12 13.4477 12.4477 12.9999 13 12.9999C13.5523 12.9999 14 13.4477 14 13.9999C14 15.0608 14.4217 16.0779 15.1719 16.8281C15.922 17.5782 16.9391 17.9999 18 17.9999C18.5523 17.9999 19 18.4477 19 18.9999C19 19.5522 18.5523 19.9999 18 19.9999C16.5202 19.9999 15.0971 19.4531 14 18.4716V21.9999C14 22.5522 13.5523 22.9999 13 22.9999C12.4477 22.9999 12 22.5522 12 21.9999Z" fill="black"/>
<path d="M1 17.9998V4.99982C1.00003 4.2042 1.31632 3.44131 1.87891 2.87872C2.44151 2.31614 3.20437 1.99982 4 1.99982H7.90039C8.39863 1.99662 8.89021 2.11811 9.33008 2.35236C9.76929 2.58635 10.1427 2.92617 10.418 3.34064L11.2285 4.54083L11.2354 4.54962C11.3264 4.68789 11.45 4.80213 11.5957 4.88068C11.7414 4.95921 11.9048 4.99979 12.0703 4.99982H20C20.7956 4.99982 21.5585 5.31614 22.1211 5.87872C22.6837 6.44131 23 7.2042 23 7.99982V12.9998C23 13.5521 22.5523 13.9998 22 13.9998C21.4477 13.9998 21 13.5521 21 12.9998V7.99982C21 7.73464 20.8945 7.4803 20.707 7.29279C20.5195 7.10528 20.2652 6.99982 20 6.99982H12.0703C11.5737 6.99974 11.0846 6.87602 10.6475 6.64044C10.2103 6.40482 9.83762 6.06499 9.56445 5.65021L8.76074 4.45978L8.75488 4.45001C8.6629 4.31032 8.53727 4.19562 8.38965 4.117C8.24215 4.03847 8.07725 3.99824 7.91016 3.99982H4C3.73481 3.99982 3.4805 4.10528 3.29297 4.29279C3.10545 4.4803 3.00003 4.73464 3 4.99982V17.9998C3 18.265 3.10546 18.5193 3.29297 18.7068C3.48051 18.8944 3.73478 18.9998 4 18.9998H9C9.55225 18.9998 9.99995 19.4476 10 19.9998C10 20.5521 9.55228 20.9998 9 20.9998H4C3.20435 20.9998 2.44152 20.6835 1.87891 20.1209C1.31633 19.5583 1 18.7954 1 17.9998Z" fill="black"/>
<path d="M14 11.9999C14 11.4477 13.5523 10.9999 13 10.9999C12.4477 10.9999 12 11.4477 12 11.9999C12 12.5522 12.4477 12.9999 13 12.9999C13.5523 12.9999 14 12.5522 14 11.9999ZM16 11.9999C16 13.6568 14.6569 14.9999 13 14.9999C11.3431 14.9999 10 13.6568 10 11.9999C10 10.3431 11.3431 8.99994 13 8.99994C14.6569 8.99994 16 10.3431 16 11.9999Z" fill="black"/>
<path d="M21 18.9999C21 18.4477 20.5523 17.9999 20 17.9999C19.4477 17.9999 19 18.4477 19 18.9999C19 19.5522 19.4477 19.9999 20 19.9999C20.5523 19.9999 21 19.5522 21 18.9999ZM23 18.9999C23 20.6568 21.6569 21.9999 20 21.9999C18.3431 21.9999 17 20.6568 17 18.9999C17 17.3431 18.3431 15.9999 20 15.9999C21.6569 15.9999 23 17.3431 23 18.9999Z" fill="black"/>
</svg>
