<svg width="24" height="24" viewBox="0 0 24 24" fill="none" xmlns="http://www.w3.org/2000/svg">
<path fill-rule="evenodd" clip-rule="evenodd" d="M3.29289 2.29289C3.68342 1.90237 4.31658 1.90237 4.70711 2.29289L6.70711 4.29289C6.89464 4.48043 7 4.73478 7 5V20C7 20.5272 6.81989 21.0443 6.43211 21.4321C6.04433 21.8199 5.52725 22 5 22H3C2.47275 22 1.95567 21.8199 1.56789 21.4321C1.18011 21.0443 1 20.5272 1 20V5C1 4.73478 1.10536 4.48043 1.29289 4.29289L3.29289 2.29289ZM3 5.41421V20H5V5.41421L4 4.41421L3 5.41421Z" fill="black"/>
<path fill-rule="evenodd" clip-rule="evenodd" d="M5 8C5 7.44772 5.44772 7 6 7H10C10.5523 7 11 7.44772 11 8C11 8.55228 10.5523 9 10 9H6C5.44772 9 5 8.55228 5 8Z" fill="black"/>
<path fill-rule="evenodd" clip-rule="evenodd" d="M5 18C5 17.4477 5.44772 17 6 17H10C10.5523 17 11 17.4477 11 18C11 18.5523 10.5523 19 10 19H6C5.44772 19 5 18.5523 5 18Z" fill="black"/>
<path fill-rule="evenodd" clip-rule="evenodd" d="M11.2929 2.29289C11.6834 1.90237 12.3166 1.90237 12.7071 2.29289L14.7071 4.29289C14.8946 4.48043 15 4.73478 15 5V20C15 20.5272 14.8199 21.0443 14.4321 21.4321C14.0443 21.8199 13.5272 22 13 22H11C10.4728 22 9.95567 21.8199 9.56789 21.4321C9.18011 21.0443 9 20.5272 9 20V5C9 4.73478 9.10536 4.48043 9.29289 4.29289L11.2929 2.29289ZM11 5.41421V20H13V5.41421L12 4.41421L11 5.41421Z" fill="black"/>
<path fill-rule="evenodd" clip-rule="evenodd" d="M13 8C13 7.44772 13.4477 7 14 7H18C18.5523 7 19 7.44772 19 8C19 8.55228 18.5523 9 18 9H14C13.4477 9 13 8.55228 13 8Z" fill="black"/>
<path fill-rule="evenodd" clip-rule="evenodd" d="M13 18C13 17.4477 13.4477 17 14 17H18C18.5523 17 19 17.4477 19 18C19 18.5523 18.5523 19 18 19H14C13.4477 19 13 18.5523 13 18Z" fill="black"/>
<path fill-rule="evenodd" clip-rule="evenodd" d="M19.2929 2.29289C19.6834 1.90237 20.3166 1.90237 20.7071 2.29289L22.7071 4.29289C22.8946 4.48043 23 4.73478 23 5V20C23 20.5272 22.8199 21.0443 22.4321 21.4321C22.0443 21.8199 21.5272 22 21 22H19C18.4728 22 17.9557 21.8199 17.5679 21.4321C17.1801 21.0443 17 20.5272 17 20V5C17 4.73478 17.1054 4.48043 17.2929 4.29289L19.2929 2.29289ZM19 5.41421V20H21V5.41421L20 4.41421L19 5.41421Z" fill="black"/>
</svg>
