<svg width="24" height="24" viewBox="0 0 24 24" fill="none" xmlns="http://www.w3.org/2000/svg">
<path d="M13.013 13.7227C13.0729 13.08 13.3385 12.4706 13.7748 11.9883L20.9974 4H3.00034L10.2249 11.9883C10.7235 12.5395 11 13.2567 11.0003 14V20.001L12.9994 21H13.0003V14L13.013 13.7227ZM15.0003 21L14.9964 21.127C14.9776 21.4236 14.8926 21.713 14.7474 21.9736C14.5815 22.2715 14.342 22.5218 14.0521 22.7012C13.7621 22.8805 13.4308 22.9826 13.0902 22.998C12.7923 23.0115 12.4958 22.9584 12.222 22.8428L12.1058 22.7891L10.1058 21.7891C9.77348 21.6229 9.49349 21.3678 9.29819 21.0518C9.12734 20.7752 9.02759 20.4616 9.00522 20.1387L9.00034 20V14C9.00011 13.7524 8.90766 13.5137 8.74155 13.3301L1.51596 5.34082V5.33984C1.25682 5.05271 1.08661 4.69642 1.02573 4.31445C0.964914 3.93257 1.0152 3.54089 1.17221 3.1875C1.32927 2.83412 1.58629 2.53404 1.91049 2.32324C2.23463 2.11256 2.61278 2.00019 2.99936 2H21.0023L21.1468 2.00586C21.4824 2.03097 21.807 2.14046 22.0902 2.3252C22.4138 2.53631 22.6699 2.83619 22.8265 3.18945C22.983 3.54264 23.0339 3.93396 22.973 4.31543C22.912 4.6969 22.7415 5.05301 22.4828 5.33984L22.4818 5.34082L15.2591 13.3301H15.2582C15.0921 13.5137 15.0006 13.7525 15.0003 14V21Z" fill="black"/>
</svg>
