<svg width="24" height="24" viewBox="0 0 24 24" fill="none" xmlns="http://www.w3.org/2000/svg">
<path d="M9.00034 20V14C9.00011 13.7524 8.90766 13.5137 8.74155 13.3301L1.51596 5.34082C1.25682 5.05369 1.08661 4.69642 1.02573 4.31445C0.964914 3.93257 1.0152 3.54089 1.17221 3.1875C1.32927 2.83412 1.58629 2.53404 1.91049 2.32324C2.23463 2.11256 2.61278 2.00019 2.99936 2H12.5306C13.0829 2 13.5306 2.44772 13.5306 3C13.5306 3.55228 13.0829 4 12.5306 4H3.00034L10.2249 11.9883C10.7235 12.5395 11 13.2567 11.0003 14V20.001L12.9994 21L13.0003 14C13.0007 13.2566 13.2769 12.5395 13.7757 11.9883L14.2015 11.5156C14.5715 11.1059 15.2037 11.0737 15.6136 11.4434C16.0236 11.8134 16.056 12.4465 15.6859 12.8564L15.2591 13.3291L15.2582 13.3301C15.0921 13.5137 15.0006 13.7525 15.0003 14V21L14.9964 21.127C14.9776 21.4236 14.8926 21.713 14.7474 21.9736C14.5815 22.2715 14.342 22.5218 14.0521 22.7012C13.7621 22.8805 13.4308 22.9826 13.0902 22.998C12.7923 23.0115 12.4958 22.9584 12.222 22.8428L12.1058 22.7891L10.1058 21.7891C9.77348 21.6229 9.49349 21.3678 9.29819 21.0518C9.12734 20.7752 9.02759 20.4616 9.00522 20.1387L9.00034 20Z" fill="black"/>
<path d="M15.7929 2.79297C16.1835 2.40244 16.8165 2.40244 17.207 2.79297L22.207 7.79297C22.5975 8.18349 22.5975 8.81651 22.207 9.20703C21.8165 9.59756 21.1835 9.59756 20.7929 9.20703L15.7929 4.20703C15.4024 3.81651 15.4024 3.18349 15.7929 2.79297Z" fill="black"/>
<path d="M20.7929 2.79297C21.1835 2.40244 21.8165 2.40244 22.207 2.79297C22.5975 3.18349 22.5975 3.81651 22.207 4.20703L17.207 9.20703C16.8165 9.59756 16.1835 9.59756 15.7929 9.20703C15.4024 8.81651 15.4024 8.18349 15.7929 7.79297L20.7929 2.79297Z" fill="black"/>
</svg>
