<svg width="24" height="24" viewBox="0 0 24 24" fill="none" xmlns="http://www.w3.org/2000/svg">
<path fill-rule="evenodd" clip-rule="evenodd" d="M4.97391 4.52039C4.34821 5.49464 4.01326 6.803 3.99994 8.01103C3.98683 9.10296 4.19952 9.85942 4.44481 10.6593C4.45926 10.7065 4.47391 10.754 4.48869 10.8019C4.72788 11.5774 5 12.4596 5 13.62V16C5 16.2652 5.10536 16.5196 5.29289 16.7071C5.48043 16.8946 5.73478 17 6 17C6.26521 17 6.51957 16.8946 6.70711 16.7071C6.89464 16.5196 7 16.2652 7 16V14.18C7 12.5065 7.54332 10.9822 8.02495 9.63087C8.036 9.59989 8.047 9.56901 8.05797 9.53821C8.56593 8.11212 9 6.85582 9 5.5C9 4.74766 8.85655 4.07203 8.59019 3.62101C8.35765 3.22724 8.04149 3 7.5 3C6.41901 3 5.58521 3.56857 4.97391 4.52039ZM3.29108 3.43961C4.16979 2.07143 5.57098 1 7.5 1C8.8285 1 9.76235 1.67276 10.3123 2.60399C10.8284 3.47797 11 4.55234 11 5.5C11 7.2393 10.4436 8.80118 9.95456 10.1741L9.94202 10.2093C9.43148 11.6426 9 12.8718 9 14.18V16C9 16.7956 8.68393 17.5587 8.12132 18.1213C7.55871 18.6839 6.79565 19 6 19C5.20435 19 4.44129 18.6839 3.87868 18.1213C3.31607 17.5587 3 16.7956 3 16V13.62C3 12.767 2.80782 12.1414 2.563 11.3444C2.55298 11.3118 2.54287 11.2789 2.53269 11.2457C2.2705 10.3907 1.98323 9.39628 2.00006 7.98845C2.01683 6.47661 2.42689 4.7852 3.29108 3.43961Z" fill="black"/>
<path fill-rule="evenodd" clip-rule="evenodd" d="M13.6877 6.60399C14.2377 5.67276 15.1715 5 16.5 5C18.429 5 19.8302 6.07143 20.7089 7.43961C21.573 8.78507 21.9831 10.4763 21.9999 11.988C21.9999 11.9879 21.9999 11.9881 21.9999 11.988C22.0168 13.3959 21.7295 14.3906 21.4673 15.2457C21.4571 15.2789 21.447 15.3118 21.437 15.3444C21.1922 16.1414 21 16.767 21 17.62V20C21 20.7957 20.6839 21.5587 20.1213 22.1213C19.5587 22.6839 18.7957 23 18 23C17.2044 23 16.4413 22.6839 15.8787 22.1213C15.3161 21.5587 15 20.7957 15 20V18.18C15 16.8718 14.5685 15.6426 14.058 14.2093L14.0454 14.1741C13.5564 12.8012 13 11.2393 13 9.5C13 8.55234 13.1716 7.47797 13.6877 6.60399ZM15.4098 7.62101C15.1434 8.07203 15 8.74766 15 9.5C15 10.8558 15.4341 12.1121 15.942 13.5382C15.953 13.569 15.964 13.5999 15.975 13.6309C16.4567 14.9822 17 16.5065 17 18.18V20C17 20.2652 17.1054 20.5196 17.2929 20.7071C17.4804 20.8946 17.7348 21 18 21C18.2652 21 18.5196 20.8946 18.7071 20.7071C18.8946 20.5196 19 20.2652 19 20V17.62C19 16.4596 19.2721 15.5774 19.5113 14.8019C19.5261 14.754 19.5407 14.7065 19.5552 14.6593C19.8005 13.8594 20.0132 13.1039 20.0001 12.012C19.9868 10.804 19.6518 9.49464 19.0261 8.52039C18.4148 7.56857 17.581 7 16.5 7C15.9585 7 15.6424 7.22724 15.4098 7.62101Z" fill="black"/>
<path fill-rule="evenodd" clip-rule="evenodd" d="M15 17C15 16.4477 15.4477 16 16 16H20C20.5523 16 21 16.4477 21 17C21 17.5523 20.5523 18 20 18H16C15.4477 18 15 17.5523 15 17Z" fill="black"/>
<path fill-rule="evenodd" clip-rule="evenodd" d="M3 13C3 12.4477 3.44772 12 4 12H8C8.55229 12 9 12.4477 9 13C9 13.5523 8.55229 14 8 14H4C3.44772 14 3 13.5523 3 13Z" fill="black"/>
</svg>
