<svg width="24" height="24" viewBox="0 0 24 24" fill="none" xmlns="http://www.w3.org/2000/svg">
<path fill-rule="evenodd" clip-rule="evenodd" d="M8.38965 4.11736C8.24203 4.03874 8.07705 3.99841 7.9098 4.00005C7.90654 4.00008 7.90327 4.0001 7.9 4.0001H4C3.73478 4.0001 3.48043 4.10545 3.29289 4.29299C3.10536 4.48053 3 4.73488 3 5.0001V18.0001C3 18.2653 3.10536 18.5197 3.29289 18.7072C3.48043 18.8947 3.73478 19.0001 4 19.0001H10.7C11.2523 19.0001 11.7 19.4478 11.7 20.0001C11.7 20.5524 11.2523 21.0001 10.7 21.0001H4C3.20435 21.0001 2.44129 20.684 1.87868 20.1214C1.31607 19.5588 1 18.7957 1 18.0001V5.0001C1 4.20445 1.31607 3.44138 1.87868 2.87878C2.44129 2.31617 3.20435 2.0001 4 2.0001H7.89559C8.39548 1.99609 8.88846 2.11707 9.32975 2.35207C9.77076 2.58694 10.1461 2.92822 10.4217 3.3449L11.2288 4.54062C11.231 4.54377 11.2331 4.54693 11.2352 4.5501C11.3262 4.68836 11.4502 4.80186 11.5959 4.8804C11.7416 4.95891 11.9045 5.00004 12.07 5.0001C12.0699 5.0001 12.0701 5.0001 12.07 5.0001H20C20.7956 5.0001 21.5587 5.31617 22.1213 5.87878C22.6839 6.44138 23 7.20445 23 8.0001V12.1001C23 12.6524 22.5523 13.1001 22 13.1001C21.4477 13.1001 21 12.6524 21 12.1001V8.0001C21 7.73488 20.8946 7.48053 20.7071 7.29299C20.5196 7.10545 20.2652 7.0001 20 7.0001H12.07C11.5733 7.00001 11.0843 6.87662 10.6471 6.641C10.2117 6.40637 9.84114 6.06776 9.56829 5.65534L8.76115 4.45957C8.75902 4.45641 8.7569 4.45323 8.7548 4.45005C8.66282 4.31036 8.53728 4.19597 8.38965 4.11736Z" fill="black"/>
<path fill-rule="evenodd" clip-rule="evenodd" d="M18.3929 18.393C18.7834 18.0025 19.4165 18.0025 19.8071 18.393L21.7071 20.293C22.0976 20.6835 22.0976 21.3167 21.7071 21.7072C21.3165 22.0977 20.6834 22.0977 20.2929 21.7072L18.3929 19.8072C18.0023 19.4167 18.0023 18.7835 18.3929 18.393Z" fill="black"/>
<path fill-rule="evenodd" clip-rule="evenodd" d="M17 15.0001C15.8954 15.0001 15 15.8955 15 17.0001C15 18.1047 15.8954 19.0001 17 19.0001C18.1046 19.0001 19 18.1047 19 17.0001C19 15.8955 18.1046 15.0001 17 15.0001ZM13 17.0001C13 14.791 14.7909 13.0001 17 13.0001C19.2091 13.0001 21 14.791 21 17.0001C21 19.2092 19.2091 21.0001 17 21.0001C14.7909 21.0001 13 19.2092 13 17.0001Z" fill="black"/>
</svg>
