<svg width="24" height="24" viewBox="0 0 24 24" fill="none" xmlns="http://www.w3.org/2000/svg">
<path d="M3 9.79981V4.00001C3 3.20436 3.3163 2.44152 3.87891 1.87891C4.44152 1.3163 5.20435 1.00001 6 1.00001H14C14.448 0.999229 14.8916 1.08748 15.3057 1.25879C15.7199 1.43024 16.0965 1.68159 16.4131 1.99903L20 5.58594L20.1162 5.70704C20.3799 5.99709 20.591 6.33139 20.7412 6.69434C20.9125 7.10836 21.0008 7.55196 21 8.00001V20C21 20.7957 20.6837 21.5585 20.1211 22.1211C19.5585 22.6837 18.7957 23 18 23H15C14.4477 23 14 22.5523 14 22C14 21.4477 14.4477 21 15 21H18C18.2652 21 18.5195 20.8946 18.707 20.707C18.8946 20.5195 19 20.2652 19 20V7.99708C19.0004 7.81244 18.9641 7.6296 18.8936 7.45899C18.8229 7.28818 18.7188 7.13243 18.5879 7.00196L14.998 3.41211C14.8676 3.28117 14.7118 3.17714 14.541 3.10645C14.3704 3.03587 14.1876 2.99962 14.0029 3.00001H6C5.73479 3.00001 5.4805 3.10544 5.29297 3.29297C5.10543 3.48051 5 3.73479 5 4.00001V9.79981C5 10.3521 4.55228 10.7998 4 10.7998C3.44772 10.7998 3 10.3521 3 9.79981Z" fill="black"/>
<path d="M13 7.00001V2.00001C13 1.44772 13.4477 1.00001 14 1.00001C14.5523 1.00001 15 1.44772 15 2.00001V7.00001H20C20.5523 7.00001 21 7.44772 21 8.00001C21 8.55229 20.5523 9 20 9H15C14.4696 9 13.961 8.78914 13.5859 8.41407C13.2109 8.039 13 7.53044 13 7.00001Z" fill="black"/>
<path d="M8 17V15C8 14.7348 7.89457 14.4805 7.70703 14.293C7.51949 14.1054 7.26522 14 7 14C6.73478 14 6.4805 14.1054 6.29297 14.293C6.10543 14.4805 6 14.7348 6 15V17C6 17.5523 5.55228 18 5 18C4.44772 18 4 17.5523 4 17V15C4 14.2044 4.3163 13.4415 4.87891 12.8789C5.44151 12.3163 6.20435 12 7 12C7.79565 12 8.55849 12.3163 9.12109 12.8789C9.6837 13.4415 10 14.2044 10 15V17C10 17.5523 9.55228 18 9 18C8.44772 18 8 17.5523 8 17Z" fill="black"/>
<path d="M4 18V21H10V18H4ZM12 21C12 22.1046 11.1046 23 10 23H4C2.89543 23 2 22.1046 2 21V18C2 16.8954 2.89543 16 4 16H10C11.1046 16 12 16.8954 12 18V21Z" fill="black"/>
</svg>
