<svg width="24" height="24" viewBox="0 0 24 24" fill="none" xmlns="http://www.w3.org/2000/svg">
<path d="M3 20V4.00001C3 3.20436 3.3163 2.44152 3.87891 1.87891C4.44152 1.3163 5.20435 1.00001 6 1.00001H14C14.448 0.999229 14.8916 1.08748 15.3057 1.25879C15.7199 1.43024 16.0965 1.68159 16.4131 1.99903L20 5.58594L20.1162 5.70704C20.3799 5.99709 20.591 6.33139 20.7412 6.69434C20.9125 7.10836 21.0008 7.55196 21 8.00001V13C21 13.5523 20.5523 14 20 14C19.4477 14 19 13.5523 19 13V7.99708C19.0004 7.81244 18.9641 7.6296 18.8936 7.45899C18.8229 7.28818 18.7188 7.13243 18.5879 7.00196L14.998 3.41211C14.8676 3.28117 14.7118 3.17714 14.541 3.10645C14.3704 3.03587 14.1876 2.99962 14.0029 3.00001H6C5.73479 3.00001 5.4805 3.10544 5.29297 3.29297C5.10543 3.48051 5 3.73479 5 4.00001V20C5 20.2652 5.10543 20.5195 5.29297 20.707C5.48051 20.8946 5.73478 21 6 21H11C11.5523 21 12 21.4477 12 22C12 22.5523 11.5523 23 11 23H6C5.20435 23 4.44152 22.6837 3.87891 22.1211C3.3163 21.5585 3 20.7957 3 20Z" fill="black"/>
<path d="M13 7.00001V2.00001C13 1.44773 13.4477 1.00001 14 1.00001C14.5523 1.00001 15 1.44773 15 2.00001V7.00001H20C20.5523 7.00001 21 7.44772 21 8.00001C21 8.55229 20.5523 9.00001 20 9.00001H15C14.4696 9.00001 13.961 8.78915 13.5859 8.41407C13.2109 8.039 13 7.53045 13 7.00001Z" fill="black"/>
<path d="M14.293 16.293C14.6835 15.9025 15.3165 15.9025 15.707 16.293L20.707 21.293C21.0976 21.6835 21.0976 22.3165 20.707 22.707C20.3165 23.0976 19.6835 23.0976 19.293 22.707L14.293 17.707C13.9024 17.3165 13.9024 16.6835 14.293 16.293Z" fill="black"/>
<path d="M19.293 16.293C19.6835 15.9025 20.3165 15.9025 20.707 16.293C21.0976 16.6835 21.0976 17.3165 20.707 17.707L15.707 22.707C15.3165 23.0976 14.6835 23.0976 14.293 22.707C13.9024 22.3165 13.9024 21.6835 14.293 21.293L19.293 16.293Z" fill="black"/>
</svg>
