<svg width="24" height="24" viewBox="0 0 24 24" fill="none" xmlns="http://www.w3.org/2000/svg">
<path d="M3 12.1504V4.00001C3 3.20436 3.3163 2.44152 3.87891 1.87891C4.44152 1.3163 5.20435 1.00001 6 1.00001H14C14.448 0.999229 14.8916 1.08748 15.3057 1.25879C15.7199 1.43024 16.0965 1.68159 16.4131 1.99903L20 5.58594L20.1162 5.70704C20.3799 5.99709 20.591 6.33139 20.7412 6.69434C20.9125 7.10836 21.0008 7.55196 21 8.00001V20C21 20.7957 20.6837 21.5585 20.1211 22.1211C19.5585 22.6837 18.7957 23 18 23H14.6504C14.0981 23 13.6504 22.5523 13.6504 22C13.6504 21.4477 14.0981 21 14.6504 21H18C18.2652 21 18.5195 20.8946 18.707 20.707C18.8946 20.5195 19 20.2652 19 20V7.99708C19.0004 7.81244 18.9641 7.6296 18.8936 7.45899C18.8229 7.28818 18.7188 7.13243 18.5879 7.00196L14.998 3.41211C14.8676 3.28117 14.7118 3.17714 14.541 3.10645C14.3704 3.03587 14.1876 2.99962 14.0029 3.00001H6C5.73479 3.00001 5.4805 3.10544 5.29297 3.29297C5.10543 3.48051 5 3.73479 5 4.00001V12.1504C4.99979 12.7025 4.55216 13.1504 4 13.1504C3.44784 13.1504 3.00021 12.7025 3 12.1504Z" fill="black"/>
<path d="M13 7.00001V2.00001C13 1.44773 13.4477 1.00001 14 1.00001C14.5523 1.00001 15 1.44773 15 2.00001V7.00001H20C20.5523 7.00001 21 7.44772 21 8.00001C21 8.55229 20.5523 9.00001 20 9.00001H15C14.4696 9.00001 13.961 8.78915 13.5859 8.41407C13.2109 8.039 13 7.53045 13 7.00001Z" fill="black"/>
<path d="M4.29297 15.293C4.68349 14.9025 5.31651 14.9025 5.70703 15.293C6.09756 15.6835 6.09756 16.3165 5.70703 16.707L3.41406 19L5.70703 21.293C6.09756 21.6835 6.09756 22.3165 5.70703 22.707C5.31651 23.0976 4.68349 23.0976 4.29297 22.707L1.29297 19.707C0.902445 19.3165 0.902445 18.6835 1.29297 18.293L4.29297 15.293Z" fill="black"/>
<path d="M8.29297 15.293C8.68349 14.9025 9.31651 14.9025 9.70703 15.293L12.707 18.293C13.0976 18.6835 13.0976 19.3165 12.707 19.707L9.70703 22.707C9.31651 23.0976 8.68349 23.0976 8.29297 22.707C7.90244 22.3165 7.90244 21.6835 8.29297 21.293L10.5859 19L8.29297 16.707C7.90244 16.3165 7.90244 15.6835 8.29297 15.293Z" fill="black"/>
</svg>
