<svg width="24" height="24" viewBox="0 0 24 24" fill="none" xmlns="http://www.w3.org/2000/svg">
<path fill-rule="evenodd" clip-rule="evenodd" d="M9.87869 9.87868C10.4413 9.31607 11.2044 9 12 9C12.5523 9 13 9.44771 13 10C13 10.5523 12.5523 11 12 11C11.7348 11 11.4804 11.1054 11.2929 11.2929C11.1054 11.4804 11 11.7348 11 12C11 13.0699 10.8962 14.599 10.7343 16.1068C10.6753 16.6559 10.1824 17.0533 9.63324 16.9943C9.08411 16.9353 8.68675 16.4424 8.74572 15.8932C8.90381 14.421 9.00001 12.9701 9.00001 12C9.00001 11.2043 9.31608 10.4413 9.87869 9.87868Z" fill="black"/>
<path fill-rule="evenodd" clip-rule="evenodd" d="M14 12.12C14.5523 12.12 15 12.5677 15 13.12V13.1316C15 14.3171 15 15.9437 14.872 17.5924C14.7448 19.2306 14.486 20.9777 13.9285 22.3714C13.7234 22.8842 13.1414 23.1336 12.6286 22.9285C12.1159 22.7234 11.8664 22.1414 12.0716 21.6286C12.5141 20.5223 12.7552 19.0194 12.878 17.4376C12.9996 15.8716 13 14.3135 13 13.12C13 12.5677 13.4477 12.12 14 12.12Z" fill="black"/>
<path fill-rule="evenodd" clip-rule="evenodd" d="M17.8868 17.0047C18.4365 17.0581 18.8388 17.5471 18.7853 18.0968C18.7098 18.8735 18.3899 20.6199 18.2706 21.2161C18.1623 21.7577 17.6355 22.1089 17.0939 22.0006C16.5524 21.8923 16.2011 21.3654 16.3095 20.8239C16.4302 20.2201 16.7302 18.5665 16.7947 17.9032C16.8482 17.3535 17.3371 16.9512 17.8868 17.0047Z" fill="black"/>
<path fill-rule="evenodd" clip-rule="evenodd" d="M14.6835 3.40938C12.8805 2.84616 10.946 2.86451 9.15395 3.46185C7.36194 4.05919 5.8033 5.20522 4.69882 6.73761C3.59434 8.27 3 10.1111 3 12C3 12.5523 2.55228 13 2 13C1.44772 13 1 12.5523 1 12C1 9.69129 1.72641 7.44111 3.07634 5.56819C4.42626 3.69527 6.33126 2.29456 8.5215 1.56448C10.7117 0.834406 13.0762 0.811969 15.2798 1.50035C17.4835 2.18873 19.4148 3.55303 20.8 5.4C21.1314 5.84183 21.0418 6.46863 20.6 6.8C20.1582 7.13137 19.5314 7.04183 19.2 6.6C18.0666 5.08885 16.4865 3.9726 14.6835 3.40938Z" fill="black"/>
<path fill-rule="evenodd" clip-rule="evenodd" d="M1 16C1 15.4477 1.44772 15 2 15H2.01C2.56228 15 3.01 15.4477 3.01 16C3.01 16.5523 2.56228 17 2.01 17H2C1.44772 17 1 16.5523 1 16Z" fill="black"/>
<path fill-rule="evenodd" clip-rule="evenodd" d="M21.6013 9.01995C22.1426 8.91019 22.6703 9.25999 22.7801 9.80126C22.8301 10.0478 22.8609 10.4521 22.8822 10.879C22.9048 11.3325 22.9197 11.8893 22.9241 12.4849C22.9329 13.669 22.9002 15.048 22.7951 16.0995C22.7401 16.649 22.2501 17.05 21.7005 16.995C21.151 16.9401 20.75 16.45 20.805 15.9005C20.8999 14.952 20.9327 13.654 20.9242 12.4996C20.92 11.9259 20.9056 11.3981 20.8847 10.9786C20.8624 10.5324 20.8355 10.2752 20.82 10.1987C20.7102 9.65747 21.06 9.12971 21.6013 9.01995Z" fill="black"/>
<path fill-rule="evenodd" clip-rule="evenodd" d="M6.67189 9.05667C7.19288 9.23994 7.46665 9.81086 7.28337 10.3318C7.09501 10.8673 6.99919 11.4309 7.00004 11.9985L7.00004 12C7.00004 15.0803 6.49034 18.1914 5.94872 19.8162C5.77407 20.3402 5.20775 20.6233 4.68381 20.4487C4.15987 20.274 3.87671 19.7077 4.05135 19.1838C4.5097 17.8087 4.99996 14.9201 5.00004 12.0007C4.99895 11.2063 5.13309 10.4175 5.39671 9.66815C5.57998 9.14716 6.1509 8.87339 6.67189 9.05667Z" fill="black"/>
<path fill-rule="evenodd" clip-rule="evenodd" d="M9.39382 19.0152C9.9377 19.1112 10.3008 19.6299 10.2048 20.1738C10.0942 20.8007 9.89062 21.422 9.71476 21.9588C9.67568 22.0781 9.63797 22.1931 9.60296 22.3032C9.4355 22.8295 8.87312 23.1204 8.34683 22.9529C7.82054 22.7855 7.52965 22.2231 7.69711 21.6968C7.74318 21.552 7.78837 21.4134 7.83202 21.2796C8.00381 20.753 8.15169 20.2997 8.23525 19.8262C8.33123 19.2823 8.84994 18.9192 9.39382 19.0152Z" fill="black"/>
<path fill-rule="evenodd" clip-rule="evenodd" d="M12.0008 6.99615C11.1229 6.99601 10.2603 7.22705 9.50001 7.66603C9.02172 7.94217 8.41013 7.77829 8.13399 7.3C7.85784 6.82171 8.02172 6.21012 8.50001 5.93398C9.56447 5.31941 10.772 4.99596 12.0011 4.99615C13.2303 4.99635 14.4377 5.32019 15.502 5.9351C16.5662 6.55001 17.4498 7.43431 18.0639 8.49907C18.6779 9.56383 19.0008 10.7715 19 12.0006V14C19 14.5523 18.5523 15 18 15C17.4477 15 17 14.5523 17 14V11.9994C17.0006 11.1214 16.77 10.2588 16.3313 9.49824C15.8927 8.73769 15.2616 8.10605 14.5014 7.66683C13.7412 7.22761 12.8788 6.99629 12.0008 6.99615Z" fill="black"/>
</svg>
