<svg width="24" height="24" viewBox="0 0 24 24" fill="none" xmlns="http://www.w3.org/2000/svg">
<path d="M3 11V4.00001C3 3.20436 3.3163 2.44152 3.87891 1.87891C4.44152 1.3163 5.20435 1.00001 6 1.00001H14C14.448 0.999229 14.8916 1.08748 15.3057 1.25879C15.7199 1.43024 16.0965 1.68159 16.4131 1.99903L20 5.58594L20.1162 5.70704C20.3799 5.99709 20.591 6.33139 20.7412 6.69434C20.9125 7.10836 21.0008 7.55196 21 8.00001V20C21 20.7957 20.6837 21.5585 20.1211 22.1211C19.5585 22.6837 18.7957 23 18 23H6C5.20435 23 4.44152 22.6837 3.87891 22.1211C3.3163 21.5585 3 20.7957 3 20V17C3 16.2044 3.3163 15.4415 3.87891 14.8789C4.44151 14.3163 5.20435 14 6 14H13C13.5523 14 14 14.4477 14 15C14 15.5523 13.5523 16 13 16H6C5.73479 16 5.4805 16.1054 5.29297 16.293C5.10543 16.4805 5 16.7348 5 17V20C5 20.2652 5.10543 20.5195 5.29297 20.707C5.48051 20.8946 5.73478 21 6 21H18C18.2652 21 18.5195 20.8946 18.707 20.707C18.8946 20.5195 19 20.2652 19 20V7.99708C19.0004 7.81244 18.9641 7.6296 18.8936 7.45899C18.8229 7.28818 18.7188 7.13243 18.5879 7.00196L14.998 3.41211C14.8676 3.28117 14.7118 3.17714 14.541 3.10645C14.3704 3.03587 14.1876 2.99962 14.0029 3.00001H6C5.73479 3.00001 5.4805 3.10544 5.29297 3.29297C5.10543 3.48051 5 3.73479 5 4.00001V11C5 11.5523 4.55228 12 4 12C3.44772 12 3 11.5523 3 11Z" fill="black"/>
<path d="M13 7.00001V2.00001C13 1.44772 13.4477 1.00001 14 1.00001C14.5523 1.00001 15 1.44772 15 2.00001V7.00001H20C20.5523 7.00001 21 7.44772 21 8.00001C21 8.55229 20.5523 9 20 9H15C14.4696 9 13.961 8.78914 13.5859 8.41407C13.2109 8.039 13 7.53044 13 7.00001Z" fill="black"/>
<path d="M9.29289 11.293C9.68342 10.9025 10.3164 10.9025 10.707 11.293L13.707 14.293C14.0975 14.6835 14.0975 15.3166 13.707 15.7071L10.707 18.7071C10.3164 19.0976 9.68342 19.0976 9.29289 18.7071C8.90237 18.3166 8.90237 17.6835 9.29289 17.293L11.5859 15.0001L9.29289 12.7071C8.90237 12.3166 8.90237 11.6835 9.29289 11.293Z" fill="black"/>
</svg>
