<svg width="24" height="24" viewBox="0 0 24 24" fill="none" xmlns="http://www.w3.org/2000/svg">
<path d="M4 14.9999C4 13.7018 4.42134 12.4389 5.2002 11.4003C5.45845 11.056 5.90806 10.9156 6.31641 11.0517C6.72459 11.1879 7 11.5696 7 11.9999C7 12.3978 7.15815 12.7792 7.43945 13.0605C7.72076 13.3418 8.10218 13.4999 8.5 13.4999C8.89782 13.4999 9.27924 13.3418 9.56055 13.0605C9.84185 12.7792 10 12.3978 10 11.9999C10 11.2641 9.73641 10.7091 9.35547 9.94721C8.98641 9.20909 8.5 8.26407 8.5 6.99994C8.5 5.21838 9.61327 3.62808 11.375 2.21869L11.4795 2.14643C11.73 1.99361 12.0372 1.95757 12.3193 2.05268C12.642 2.16159 12.8871 2.42737 12.9697 2.75775C13.588 5.23075 14.8131 7.20842 16.6406 8.73139C18.7947 10.5265 20 12.6189 20 14.9999C20 17.1217 19.1575 19.1569 17.6572 20.6572C16.1569 22.1575 14.1217 22.9999 12 22.9999C9.87827 22.9999 7.84306 22.1575 6.34277 20.6572C4.84248 19.1569 4 17.1217 4 14.9999ZM10.5 6.99994C10.5 7.73581 10.7636 8.2908 11.1445 9.05268C11.5136 9.7908 12 10.7358 12 11.9999C12 12.9282 11.631 13.8182 10.9746 14.4746C10.3182 15.1309 9.42826 15.4999 8.5 15.4999C7.57658 15.4999 6.69151 15.1343 6.03613 14.4843C6.01397 14.6547 6 14.8267 6 14.9999C6 16.5912 6.63259 18.1169 7.75781 19.2421C8.88303 20.3673 10.4087 20.9999 12 20.9999C13.5913 20.9999 15.117 20.3673 16.2422 19.2421C17.3674 18.1169 18 16.5912 18 14.9999C18 13.381 17.2052 11.8067 15.3594 10.2685C13.5994 8.80181 12.3188 6.97713 11.5156 4.81635C10.7827 5.63942 10.5 6.36813 10.5 6.99994Z" fill="black"/>
</svg>
