<svg width="24" height="24" viewBox="0 0 24 24" fill="none" xmlns="http://www.w3.org/2000/svg">
<path d="M17.9998 5C18.552 5 18.9998 5.44772 18.9998 6C18.9998 6.55228 18.552 7 17.9998 7H11.6521C11.0998 7 10.6521 6.55228 10.6521 6C10.6521 5.44772 11.0998 5 11.6521 5H17.9998Z" fill="black"/>
<path d="M11 14V13C11 12.4477 11.4477 12 12 12C12.5523 12 13 12.4477 13 13V14C13 14.5523 12.5523 15 12 15C11.4477 15 11 14.5523 11 14Z" fill="black"/>
<path d="M7 20V12C7 11.351 6.78971 10.7194 6.40039 10.2002L5.7998 9.40039C5.28052 8.70801 5 7.86548 5 7V6C5 5.44772 5.44772 5 6 5C6.55228 5 7 5.44772 7 6V7C7 7.43274 7.14075 7.854 7.40039 8.2002L8 9C8.64911 9.86548 9 10.9181 9 12V20C9 20.2652 9.10543 20.5195 9.29297 20.707C9.4805 20.8946 9.73478 21 10 21H14C14.2652 21 14.5195 20.8946 14.707 20.707C14.8946 20.5195 15 20.2652 15 20V16C15 15.4477 15.4477 15 16 15C16.5523 15 17 15.4477 17 16V20C17 20.7957 16.6837 21.5585 16.1211 22.1211C15.5585 22.6837 14.7957 23 14 23H10C9.20435 23 8.44151 22.6837 7.87891 22.1211C7.3163 21.5585 7 20.7957 7 20Z" fill="black"/>
<path d="M1.29289 1.29302C1.68342 0.902491 2.31643 0.902491 2.70696 1.29302L22.707 21.293C23.0975 21.6835 23.0975 22.3166 22.707 22.7071C22.3164 23.0976 21.6834 23.0976 21.2929 22.7071L1.29289 2.70708C0.902369 2.31655 0.902369 1.68354 1.29289 1.29302Z" fill="black"/>
<path d="M16.9995 7V3H7.64893C7.09664 3 6.64893 2.55228 6.64893 2C6.64893 1.44772 7.09664 1 7.64893 1H16.9995C17.5299 1 18.0395 1.21086 18.4146 1.58594C18.7894 1.96098 18.9995 2.4697 18.9995 3V7C18.9995 7.86548 18.719 8.70801 18.1997 9.40039L17.6001 10.2002C17.4271 10.4307 17.2875 10.6849 17.187 10.9551C16.9946 11.4726 16.4194 11.7362 15.9019 11.5439C15.3842 11.3515 15.1206 10.7764 15.313 10.2588C15.4804 9.80853 15.7112 9.38424 15.9995 9L16.6001 8.2002C16.8597 7.854 16.9995 7.43274 16.9995 7Z" fill="black"/>
</svg>
