<svg width="24" height="24" viewBox="0 0 24 24" fill="none" xmlns="http://www.w3.org/2000/svg">
<path fill-rule="evenodd" clip-rule="evenodd" d="M11 17C11 16.4477 11.4477 16 12 16H12.01C12.5623 16 13.01 16.4477 13.01 17C13.01 17.5523 12.5623 18 12.01 18H12C11.4477 18 11 17.5523 11 17Z" fill="black"/>
<path fill-rule="evenodd" clip-rule="evenodd" d="M3.87868 1.87868C4.44129 1.31607 5.20435 1 6 1H15C15.2652 1 15.5196 1.10536 15.7071 1.29289L20.7071 6.29289C20.8946 6.48043 21 6.73478 21 7V20C21 20.7957 20.6839 21.5587 20.1213 22.1213C19.5587 22.6839 18.7957 23 18 23H6C5.20435 23 4.44129 22.6839 3.87868 22.1213C3.31607 21.5587 3 20.7956 3 20V4C3 3.20435 3.31607 2.44129 3.87868 1.87868ZM6 3C5.73478 3 5.48043 3.10536 5.29289 3.29289C5.10536 3.48043 5 3.73478 5 4V20C5 20.2652 5.10536 20.5196 5.29289 20.7071C5.48043 20.8946 5.73478 21 6 21H18C18.2652 21 18.5196 20.8946 18.7071 20.7071C18.8946 20.5196 19 20.2652 19 20V7.41421L14.5858 3H6Z" fill="black"/>
<path fill-rule="evenodd" clip-rule="evenodd" d="M12.2588 8.05215C11.7965 7.97273 11.321 8.0583 10.9155 8.29391C10.5099 8.52951 10.2 8.90017 10.04 9.34109C9.85165 9.86025 9.27807 10.1284 8.75891 9.94003C8.23974 9.75165 7.97159 9.17807 8.15997 8.6589C8.47994 7.77708 9.09967 7.03576 9.91081 6.56454C10.722 6.09332 11.6729 5.92218 12.5974 6.08104C13.522 6.23989 14.3613 6.71864 14.9686 7.43358C15.576 8.14852 15.9127 9.05418 15.92 9.99224C15.92 9.99482 15.92 9.99741 15.92 10C15.92 11.5309 14.7851 12.5418 13.9747 13.082C13.5391 13.3725 13.1106 13.586 12.7949 13.7263C12.6356 13.7971 12.5015 13.8508 12.4049 13.8876C12.3565 13.906 12.3173 13.9203 12.2887 13.9305C12.2744 13.9356 12.2628 13.9396 12.254 13.9427C12.2496 13.9442 12.2459 13.9454 12.2429 13.9464C12.2414 13.9469 12.2401 13.9474 12.239 13.9477L12.2375 13.9483C12.2372 13.9484 12.2362 13.9487 11.92 13L12.2362 13.9487C11.7123 14.1233 11.146 13.8402 10.9713 13.3162C10.7969 12.793 11.0791 12.2274 11.6017 12.052C11.602 12.0519 11.6025 12.0517 11.6032 12.0515C11.6058 12.0506 11.611 12.0488 11.6187 12.0461C11.6341 12.0406 11.6593 12.0314 11.6929 12.0186C11.7603 11.9929 11.8606 11.9529 11.9826 11.8987C12.2294 11.789 12.5509 11.6275 12.8653 11.4179C13.5532 10.9594 13.9182 10.4716 13.92 10.0035C13.9154 9.53601 13.7471 9.08482 13.4444 8.72842C13.1407 8.37095 12.721 8.13158 12.2588 8.05215Z" fill="black"/>
</svg>
