<svg width="24" height="24" viewBox="0 0 24 24" fill="none" xmlns="http://www.w3.org/2000/svg">
<path fill-rule="evenodd" clip-rule="evenodd" d="M12 10C10.8954 10 10 10.8954 10 12C10 13.1046 10.8954 14 12 14C13.1046 14 14 13.1046 14 12C14 10.8954 13.1046 10 12 10ZM8 12C8 9.79086 9.79086 8 12 8C14.2091 8 16 9.79086 16 12C16 14.2091 14.2091 16 12 16C9.79086 16 8 14.2091 8 12Z" fill="black"/>
<path fill-rule="evenodd" clip-rule="evenodd" d="M8.8394 4.26642C8.19985 4.00152 7.49612 3.93221 6.81719 4.06725C6.13825 4.2023 5.51461 4.53565 5.02513 5.02513C4.53565 5.51461 4.2023 6.13825 4.06725 6.81719C3.93221 7.49612 4.00152 8.19985 4.26642 8.8394C4.53133 9.47894 4.97993 10.0256 5.55551 10.4101C6.13108 10.7947 6.80777 11 7.5 11C8.05229 11 8.5 11.4477 8.5 12C8.5 12.5523 8.05229 13 7.5 13C6.80777 13 6.13108 13.2053 5.55551 13.5899C4.97993 13.9744 4.53133 14.5211 4.26642 15.1606C4.00152 15.8002 3.93221 16.5039 4.06725 17.1828C4.2023 17.8618 4.53564 18.4854 5.02513 18.9749C5.51461 19.4644 6.13825 19.7977 6.81719 19.9328C7.49612 20.0678 8.19985 19.9985 8.8394 19.7336C9.47894 19.4687 10.0256 19.0201 10.4101 18.4445C10.7947 17.8689 11 17.1922 11 16.5C11 15.9477 11.4477 15.5 12 15.5C12.5523 15.5 13 15.9477 13 16.5C13 17.1922 13.2053 17.8689 13.5899 18.4445C13.9744 19.0201 14.5211 19.4687 15.1606 19.7336C15.8002 19.9985 16.5039 20.0678 17.1828 19.9328C17.8618 19.7977 18.4854 19.4644 18.9749 18.9749C19.4644 18.4854 19.7977 17.8618 19.9328 17.1828C20.0678 16.5039 19.9985 15.8002 19.7336 15.1606C19.4687 14.5211 19.0201 13.9744 18.4445 13.5899C17.8689 13.2053 17.1922 13 16.5 13C15.9477 13 15.5 12.5523 15.5 12C15.5 11.4477 15.9477 11 16.5 11C17.1922 11 17.8689 10.7947 18.4445 10.4101C19.0201 10.0256 19.4687 9.47894 19.7336 8.8394C19.9985 8.19985 20.0678 7.49612 19.9328 6.81719C19.7977 6.13825 19.4644 5.51461 18.9749 5.02513C18.4854 4.53564 17.8618 4.2023 17.1828 4.06725C16.5039 3.93221 15.8002 4.00152 15.1606 4.26642C14.5211 4.53133 13.9744 4.97993 13.5899 5.55551C13.2053 6.13108 13 6.80777 13 7.5C13 8.05229 12.5523 8.5 12 8.5C11.4477 8.5 11 8.05229 11 7.5C11 6.80777 10.7947 6.13108 10.4101 5.55551C10.0256 4.97993 9.47894 4.53133 8.8394 4.26642ZM12 4.33772C11.4004 3.48445 10.5699 2.81844 9.60476 2.41867C8.59977 2.00238 7.4939 1.89346 6.42701 2.10568C5.36011 2.3179 4.3801 2.84173 3.61092 3.61092C2.84173 4.3801 2.3179 5.36011 2.10568 6.42701C1.89346 7.4939 2.00238 8.59977 2.41867 9.60476C2.81844 10.5699 3.48445 11.4004 4.33772 12C3.48445 12.5996 2.81844 13.4301 2.41867 14.3952C2.00238 15.4002 1.89346 16.5061 2.10568 17.573C2.3179 18.6399 2.84173 19.6199 3.61092 20.3891C4.3801 21.1583 5.36011 21.6821 6.42701 21.8943C7.4939 22.1065 8.59977 21.9976 9.60476 21.5813C10.5699 21.1816 11.4004 20.5156 12 19.6623C12.5996 20.5156 13.4301 21.1816 14.3952 21.5813C15.4002 21.9976 16.5061 22.1065 17.573 21.8943C18.6399 21.6821 19.6199 21.1583 20.3891 20.3891C21.1583 19.6199 21.6821 18.6399 21.8943 17.573C22.1065 16.5061 21.9976 15.4002 21.5813 14.3952C21.1816 13.4301 20.5156 12.5996 19.6623 12C20.5156 11.4004 21.1816 10.5699 21.5813 9.60476C21.9976 8.59977 22.1065 7.4939 21.8943 6.42701C21.6821 5.36011 21.1583 4.3801 20.3891 3.61092C19.6199 2.84173 18.6399 2.3179 17.573 2.10568C16.5061 1.89346 15.4002 2.00238 14.3952 2.41867C13.4301 2.81844 12.5996 3.48445 12 4.33772Z" fill="black"/>
<path fill-rule="evenodd" clip-rule="evenodd" d="M12 6.5C12.5523 6.5 13 6.94772 13 7.5L13 9C13 9.55228 12.5523 10 12 10C11.4477 10 11 9.55228 11 9L11 7.5C11 6.94772 11.4477 6.5 12 6.5Z" fill="black"/>
<path fill-rule="evenodd" clip-rule="evenodd" d="M6.5 12C6.5 11.4477 6.94772 11 7.5 11L9 11C9.55228 11 10 11.4477 10 12C10 12.5523 9.55228 13 9 13L7.5 13C6.94772 13 6.5 12.5523 6.5 12Z" fill="black"/>
<path fill-rule="evenodd" clip-rule="evenodd" d="M14 12C14 11.4477 14.4477 11 15 11L16.5 11C17.0523 11 17.5 11.4477 17.5 12C17.5 12.5523 17.0523 13 16.5 13L15 13C14.4477 13 14 12.5523 14 12Z" fill="black"/>
<path fill-rule="evenodd" clip-rule="evenodd" d="M12 14C12.5523 14 13 14.4477 13 15L13 16.5C13 17.0523 12.5523 17.5 12 17.5C11.4477 17.5 11 17.0523 11 16.5L11 15C11 14.4477 11.4477 14 12 14Z" fill="black"/>
<path fill-rule="evenodd" clip-rule="evenodd" d="M7.29289 7.29289C7.68342 6.90237 8.31658 6.90237 8.70711 7.29289L10.5871 9.17289C10.9776 9.56342 10.9776 10.1966 10.5871 10.5871C10.1966 10.9776 9.56342 10.9776 9.17289 10.5871L7.29289 8.70711C6.90237 8.31658 6.90237 7.68342 7.29289 7.29289Z" fill="black"/>
<path fill-rule="evenodd" clip-rule="evenodd" d="M16.7071 7.29289C17.0976 7.68342 17.0976 8.31658 16.7071 8.70711L14.8271 10.5871C14.4366 10.9776 13.8034 10.9776 13.4129 10.5871C13.0224 10.1966 13.0224 9.56342 13.4129 9.17289L15.2929 7.29289C15.6834 6.90237 16.3166 6.90237 16.7071 7.29289Z" fill="black"/>
<path fill-rule="evenodd" clip-rule="evenodd" d="M10.5871 13.4129C10.9776 13.8034 10.9776 14.4366 10.5871 14.8271L8.70711 16.7071C8.31658 17.0976 7.68342 17.0976 7.29289 16.7071C6.90237 16.3166 6.90237 15.6834 7.29289 15.2929L9.17289 13.4129C9.56342 13.0224 10.1966 13.0224 10.5871 13.4129Z" fill="black"/>
<path fill-rule="evenodd" clip-rule="evenodd" d="M13.4129 13.4129C13.8034 13.0224 14.4366 13.0224 14.8271 13.4129L16.7071 15.2929C17.0976 15.6834 17.0976 16.3166 16.7071 16.7071C16.3166 17.0976 15.6834 17.0976 15.2929 16.7071L13.4129 14.8271C13.0224 14.4366 13.0224 13.8034 13.4129 13.4129Z" fill="black"/>
</svg>
