<svg width="24" height="24" viewBox="0 0 24 24" fill="none" xmlns="http://www.w3.org/2000/svg">
<path d="M3 7.12696V4.00001C3 3.20436 3.3163 2.44152 3.8789 1.87891C4.44151 1.3163 5.20435 1.00001 6 1.00001H14C14.448 0.999229 14.8916 1.08748 15.3057 1.25879C15.7199 1.43024 16.0965 1.68159 16.4131 1.99903L20 5.58594L20.1162 5.70704C20.3798 5.99709 20.591 6.33139 20.7412 6.69434C20.9125 7.10836 21.0008 7.55196 21 8.00001V20C21 20.7957 20.6837 21.5585 20.1211 22.1211C19.5585 22.6837 18.7956 23 18 23H6C5.45155 23.0001 4.91339 22.8497 4.44433 22.5654C3.97538 22.2812 3.59352 21.8739 3.33984 21.3877C3.08441 20.898 3.274 20.2935 3.76367 20.0381C4.25329 19.7829 4.85691 19.9733 5.1123 20.4629C5.19688 20.6249 5.32511 20.7607 5.48144 20.8555C5.63773 20.9501 5.8173 21.0001 6 21H18C18.2652 21 18.5195 20.8946 18.707 20.707C18.8946 20.5195 19 20.2652 19 20V7.99708C19.0004 7.81244 18.9641 7.6296 18.8936 7.45899C18.8229 7.28818 18.7188 7.13243 18.5879 7.00196L14.998 3.41211C14.8676 3.28117 14.7118 3.17714 14.541 3.10645C14.3704 3.03587 14.1876 2.99962 14.0029 3.00001H6C5.73478 3.00001 5.4805 3.10544 5.29297 3.29297C5.10543 3.48051 5 3.73479 5 4.00001V7.12696C5 7.67924 4.55228 8.12696 4 8.12696C3.44771 8.12696 3 7.67924 3 7.12696Z" fill="black"/>
<path d="M13 7.00001V2.00001C13 1.44772 13.4477 1.00001 14 1.00001C14.5523 1.00001 15 1.44772 15 2.00001V7.00001H20C20.5523 7.00001 21 7.44772 21 8.00001C21 8.55229 20.5523 9 20 9H15C14.4696 9 13.961 8.78914 13.5859 8.41407C13.2109 8.039 13 7.53044 13 7.00001Z" fill="black"/>
<path d="M4.29289 10.293C4.68341 9.9025 5.31643 9.9025 5.70695 10.293C6.09748 10.6835 6.09748 11.3166 5.70695 11.7071L2.70695 14.7071C2.31643 15.0976 1.68341 15.0976 1.29289 14.7071C0.902366 14.3166 0.902366 13.6835 1.29289 13.293L4.29289 10.293Z" fill="black"/>
<path d="M12 13C12.5523 13 13 13.4477 13 14C13 14.5523 12.5523 15 12 15H4.41403L5.707 16.293C6.09752 16.6835 6.09752 17.3165 5.707 17.707C5.31648 18.0976 4.68346 18.0976 4.29294 17.707L1.29289 14.7071C1.00689 14.4211 0.921359 13.9909 1.07614 13.6172C1.23095 13.2436 1.59555 13 1.99997 13H12Z" fill="black"/>
</svg>
