<svg width="24" height="24" viewBox="0 0 24 24" fill="none" xmlns="http://www.w3.org/2000/svg">
<path fill-rule="evenodd" clip-rule="evenodd" d="M4 4C3.73478 4 3.48043 4.10536 3.29289 4.29289C3.10536 4.48043 3 4.73478 3 5V11.5C3 12.0523 2.55228 12.5 2 12.5C1.44772 12.5 1 12.0523 1 11.5V5C1 4.20435 1.31607 3.44129 1.87868 2.87868C2.44129 2.31607 3.20435 2 4 2H7.9C8.9183 2 9.83786 2.45401 10.4321 3.3453L11.232 4.5453C11.4379 4.85401 11.7183 5 12.1 5H20C20.7956 5 21.5587 5.31607 22.1213 5.87868C22.6839 6.44129 23 7.20435 23 8V18C23 18.7957 22.6839 19.5587 22.1213 20.1213C21.5587 20.6839 20.7957 21 20 21H10.5C9.94771 21 9.5 20.5523 9.5 20C9.5 19.4477 9.94771 19 10.5 19H20C20.2652 19 20.5196 18.8946 20.7071 18.7071C20.8946 18.5196 21 18.2652 21 18V8C21 7.73478 20.8946 7.48043 20.7071 7.29289C20.5196 7.10536 20.2652 7 20 7H12.1C11.0817 7 10.1621 6.54599 9.56795 5.6547L8.76795 4.4547C8.56215 4.14599 8.2817 4 7.9 4H4Z" fill="black"/>
<path fill-rule="evenodd" clip-rule="evenodd" d="M8.68038 9.23765C9.05942 9.08065 9.46567 8.99984 9.87594 8.99984C10.2862 8.99984 10.6925 9.08065 11.0715 9.23765C11.4505 9.39466 11.7949 9.62478 12.085 9.91489C12.3751 10.205 12.6053 10.5494 12.7623 10.9284C12.9193 11.3075 13.0001 11.7137 13.0001 12.124C13.0001 12.5343 12.9193 12.9405 12.7623 13.3196C12.6053 13.6986 12.3751 14.043 12.085 14.3331L7.07224 19.3419C7.07222 19.3419 7.07226 19.3419 7.07224 19.3419C6.71582 19.6985 6.27521 19.9596 5.79124 20.1009L2.92094 20.938C2.92093 20.938 2.92095 20.938 2.92094 20.938C2.6628 21.0133 2.38914 21.0178 2.12867 20.9511C1.86817 20.8843 1.63042 20.7488 1.44028 20.5587C1.25014 20.3685 1.1146 20.1308 1.04787 19.8703C0.981133 19.6098 0.985645 19.3362 1.06093 19.078C1.06093 19.078 1.06093 19.078 1.06093 19.078L1.89803 16.2077C2.03931 15.7238 2.30023 15.2834 2.65669 14.927C2.65658 14.9271 2.6568 14.9269 2.65669 14.927L7.66669 9.91503C7.95679 9.62492 8.30134 9.39466 8.68038 9.23765ZM9.08119 11.329C9.08114 11.329 9.08123 11.3289 9.08119 11.329L4.07085 16.3413C3.95205 16.46 3.86508 16.6068 3.81795 16.768L3.2362 18.7627L5.23064 18.1811C5.23053 18.1811 5.23075 18.181 5.23064 18.1811C5.39184 18.1339 5.5389 18.0469 5.65764 17.9281L10.6708 12.9189C10.7752 12.8145 10.858 12.6906 10.9145 12.5542C10.971 12.4178 11.0001 12.2716 11.0001 12.124C11.0001 11.9764 10.971 11.8302 10.9145 11.6938C10.858 11.5574 10.7752 11.4335 10.6708 11.3291C10.5664 11.2247 10.4425 11.1419 10.3061 11.0854C10.1697 11.0289 10.0236 10.9998 9.87594 10.9998C9.72831 10.9998 9.58213 11.0289 9.44574 11.0854C9.30942 11.1419 9.18554 11.2246 9.08119 11.329Z" fill="black"/>
</svg>
