<svg width="24" height="24" viewBox="0 0 24 24" fill="none" xmlns="http://www.w3.org/2000/svg">
<path fill-rule="evenodd" clip-rule="evenodd" d="M4 4C3.45228 4 3 4.45228 3 5V18C3 18.2652 3.10536 18.5196 3.29289 18.7071C3.48043 18.8946 3.73478 19 4 19H18.4518C18.6738 19.0004 18.8896 18.9269 19.0652 18.7911C19.2408 18.6553 19.3663 18.4649 19.4218 18.25L20.9718 12.25C20.9717 12.25 20.9718 12.25 20.9718 12.25C21.0099 12.1021 21.0137 11.9473 20.9829 11.7978C20.952 11.6482 20.8872 11.5076 20.7935 11.3869C20.6999 11.2662 20.5798 11.1686 20.4426 11.1015C20.3053 11.0345 20.1545 10.9997 20.0018 11L20 11L9.23803 11C9.05251 10.9996 8.87055 11.0509 8.71249 11.148C8.55481 11.2449 8.42711 11.3837 8.34362 11.5488C8.34342 11.5492 8.34323 11.5496 8.34303 11.55L6.89443 14.4472C6.64744 14.9412 6.04677 15.1414 5.55279 14.8944C5.05881 14.6474 4.85858 14.0468 5.10557 13.5528L6.55557 10.6528C6.55604 10.6519 6.5565 10.6509 6.55697 10.65C6.80742 10.153 7.19119 9.73543 7.66536 9.44404C8.13925 9.15283 8.68475 8.99909 9.24095 9H19V8C19 7.73478 18.8946 7.48043 18.7071 7.29289C18.5196 7.10536 18.2652 7 18 7H12.07C12.0683 7 12.0666 7 12.0648 6.99999C11.5707 6.99743 11.0849 6.87286 10.6505 6.63735C10.2189 6.40334 9.8513 6.06699 9.58004 5.65787L8.76436 4.46419C8.76114 4.45948 8.75796 4.45475 8.75483 4.44999C8.66424 4.31243 8.54107 4.19937 8.39628 4.12087C8.25211 4.0427 8.09094 4.0012 7.92697 4H4ZM21 9.17033C21.1091 9.20876 21.2162 9.25357 21.3207 9.30463C21.7325 9.50585 22.0926 9.79873 22.3736 10.1608C22.6546 10.5229 22.8489 10.9445 22.9415 11.3933C23.0342 11.8422 23.0228 12.3063 22.9082 12.75L21.3582 18.75C21.3582 18.75 21.3583 18.75 21.3582 18.75C21.1917 19.3948 20.8154 19.966 20.2885 20.3733C19.7619 20.7805 19.1147 21.001 18.449 21C18.4487 21 18.4492 21 18.449 21H4C3.20435 21 2.44129 20.6839 1.87868 20.1213C1.31607 19.5587 1 18.7956 1 18V5C1 3.34772 2.34772 2 4 2H7.93C7.93106 2 7.93212 2 7.93318 2.00001L7.93517 2.00001C8.4293 2.00257 8.91514 2.12714 9.34953 2.36265C9.78115 2.59666 10.1487 2.93301 10.42 3.34213L11.2356 4.53581C11.2389 4.54052 11.242 4.54525 11.2452 4.55001C11.3358 4.68757 11.4589 4.80063 11.6037 4.87913C11.7479 4.9573 11.9091 4.9988 12.073 5H18C18.7957 5 19.5587 5.31607 20.1213 5.87868C20.6839 6.44129 21 7.20435 21 8V9.17033Z" fill="black"/>
<path fill-rule="evenodd" clip-rule="evenodd" d="M12 15C12 13.8954 12.8954 13 14 13C15.1046 13 16 13.8954 16 15C16 16.1046 15.1046 17 14 17C12.8954 17 12 16.1046 12 15Z" fill="black"/>
</svg>
