<svg width="24" height="24" viewBox="0 0 24 24" fill="none" xmlns="http://www.w3.org/2000/svg">
<path d="M3 10V4.00001C3 3.20436 3.3163 2.44152 3.87891 1.87891C4.44152 1.3163 5.20435 1.00001 6 1.00001H14C14.448 0.999229 14.8916 1.08748 15.3057 1.25879C15.7199 1.43024 16.0965 1.68159 16.4131 1.99903L20 5.58594L20.1162 5.70704C20.3799 5.99709 20.591 6.33139 20.7412 6.69434C20.9125 7.10836 21.0008 7.55196 21 8.00001V20C21 20.7957 20.6837 21.5585 20.1211 22.1211C19.5585 22.6837 18.7957 23 18 23H14C13.4477 23 13 22.5523 13 22C13 21.4477 13.4477 21 14 21H18C18.2652 21 18.5195 20.8946 18.707 20.707C18.8946 20.5195 19 20.2652 19 20V7.99708C19.0004 7.81244 18.9641 7.6296 18.8936 7.45899C18.8229 7.28818 18.7188 7.13243 18.5879 7.00196L14.998 3.41211C14.8676 3.28117 14.7118 3.17714 14.541 3.10645C14.3704 3.03587 14.1876 2.99962 14.0029 3.00001H6C5.73479 3.00001 5.4805 3.10544 5.29297 3.29297C5.10543 3.48051 5 3.73479 5 4.00001V10C5 10.5523 4.55228 11 4 11C3.44772 11 3 10.5523 3 10Z" fill="black"/>
<path d="M13 7.00001V2.00001C13 1.44773 13.4477 1.00001 14 1.00001C14.5523 1.00001 15 1.44773 15 2.00001V7.00001H20C20.5523 7.00001 21 7.44772 21 8.00001C21 8.55229 20.5523 9.00001 20 9.00001H15C14.4696 9.00001 13.961 8.78915 13.5859 8.41407C13.2109 8.039 13 7.53045 13 7.00001Z" fill="black"/>
<path d="M3 21V19C2.44772 19 2 18.5523 2 18C2 17.4477 2.44772 17 3 17V15C3 14.4696 3.21087 13.961 3.58594 13.5859C3.96101 13.2109 4.46957 13 5 13C5.55228 13 6 13.4477 6 14C6 14.5523 5.55228 15 5 15V17C5 17.3546 4.90393 17.6983 4.72949 18C4.90393 18.3017 5 18.6455 5 19V21C5.55228 21 6 21.4477 6 22C6 22.5523 5.55228 23 5 23C4.46957 23 3.96101 22.7891 3.58594 22.4141C3.21086 22.039 3 21.5304 3 21Z" fill="black"/>
<path d="M9 19C9 18.6456 9.09525 18.3016 9.26953 18C9.09525 17.6984 9 17.3544 9 17V15C8.44772 15 8 14.5523 8 14C8 13.4477 8.44772 13 9 13C9.53043 13 10.039 13.2109 10.4141 13.5859C10.7891 13.961 11 14.4696 11 15V17C11.5523 17 12 17.4477 12 18C12 18.5523 11.5523 19 11 19V21C11 21.5304 10.7891 22.039 10.4141 22.4141C10.039 22.7891 9.53043 23 9 23C8.44772 23 8 22.5523 8 22C8 21.4477 8.44772 21 9 21V19Z" fill="black"/>
</svg>
