<svg width="24" height="24" viewBox="0 0 24 24" fill="none" xmlns="http://www.w3.org/2000/svg">
<path d="M3 11.5498V4.00001C3 3.20436 3.3163 2.44152 3.87891 1.87891C4.44152 1.3163 5.20435 1.00001 6 1.00001H14C14.448 0.999229 14.8916 1.08748 15.3057 1.25879C15.7199 1.43024 16.0965 1.68159 16.4131 1.99903L20 5.58594L20.1162 5.70704C20.3799 5.99709 20.591 6.33139 20.7412 6.69434C20.9125 7.10836 21.0008 7.55196 21 8.00001V20C21 20.7957 20.6837 21.5585 20.1211 22.1211C19.5585 22.6837 18.7957 23 18 23H16.0498C15.4976 22.9999 15.0498 22.5522 15.0498 22C15.0498 21.4478 15.4976 21.0001 16.0498 21H18C18.2652 21 18.5195 20.8946 18.707 20.707C18.8946 20.5195 19 20.2652 19 20V7.99708C19.0004 7.81244 18.9641 7.6296 18.8936 7.45899C18.8229 7.28818 18.7188 7.13243 18.5879 7.00196L14.998 3.41211C14.8676 3.28117 14.7118 3.17714 14.541 3.10645C14.3704 3.03587 14.1876 2.99962 14.0029 3.00001H6C5.73479 3.00001 5.4805 3.10544 5.29297 3.29297C5.10543 3.48051 5 3.73479 5 4.00001V11.5498C5 12.1021 4.55228 12.5498 4 12.5498C3.44772 12.5498 3 12.1021 3 11.5498Z" fill="black"/>
<path d="M13 7.00001V2.00001C13 1.44772 13.4477 1.00001 14 1.00001C14.5523 1.00001 15 1.44772 15 2.00001V7.00001H20C20.5523 7.00001 21 7.44772 21 8.00001C21 8.55229 20.5523 9 20 9H15C14.4696 9 13.961 8.78914 13.5859 8.41407C13.2109 8.039 13 7.53044 13 7.00001Z" fill="black"/>
<path d="M12 18C12 17.1345 11.7194 16.292 11.2002 15.5996C10.8689 15.1578 10.9586 14.5315 11.4004 14.2002C11.8422 13.8689 12.4684 13.9586 12.7998 14.4004C13.5786 15.4389 14 16.7018 14 18C14 19.2981 13.5786 20.561 12.7998 21.5996C12.4684 22.0414 11.8422 22.131 11.4004 21.7998C10.9586 21.4684 10.8689 20.8422 11.2002 20.4004C11.7194 19.708 12 18.8654 12 18Z" fill="black"/>
<path d="M7.292 13.0147C7.54129 12.9798 7.79484 13.0083 8.0293 13.0968L8.12793 13.1378L8.22461 13.1866C8.41258 13.2903 8.57609 13.4332 8.7041 13.6055L8.76465 13.6934L8.81934 13.7862C8.93801 14.0055 9.00033 14.2516 9 14.502V21.4971L8.9961 21.6046C8.97863 21.8542 8.89904 22.0959 8.76367 22.3077C8.60892 22.5497 8.38792 22.7423 8.12696 22.8624C7.86595 22.9825 7.57553 23.0254 7.29102 22.9854C7.00667 22.9454 6.74019 22.824 6.52246 22.6368L6.52051 22.6358L4.62793 21.003H3.5C3.30276 21.003 3.10698 20.9643 2.92481 20.8887C2.74279 20.8132 2.5777 20.7021 2.43848 20.5626C2.29923 20.423 2.18849 20.2575 2.11328 20.0753C2.03809 19.893 1.99962 19.6973 2 19.5001V16.4962C1.99985 16.2995 2.03831 16.1047 2.11328 15.9229L2.17578 15.7891C2.24508 15.6591 2.33403 15.5403 2.43848 15.4356L2.54785 15.336C2.66153 15.2426 2.78843 15.1661 2.92481 15.1095L3.06446 15.0596C3.20542 15.0169 3.35216 14.9952 3.5 14.9952H4.62793L6.52149 13.3634L6.52246 13.3624C6.74037 13.1751 7.00747 13.0546 7.292 13.0147ZM5.9336 16.5098C5.57188 16.8217 5.11042 16.9939 4.63282 16.9952H4V19.003H4.63086C5.10919 19.0038 5.57135 19.176 5.9336 19.4884L7 20.4073V15.5909L5.9336 16.5098Z" fill="black"/>
</svg>
