<svg width="24" height="24" viewBox="0 0 24 24" fill="none" xmlns="http://www.w3.org/2000/svg">
<path fill-rule="evenodd" clip-rule="evenodd" d="M8.38965 4.11736C8.24203 4.03874 8.07705 3.99841 7.9098 4.00005C7.90654 4.00008 7.90327 4.0001 7.9 4.0001H4C3.73478 4.0001 3.48043 4.10545 3.29289 4.29299C3.10536 4.48053 3 4.73488 3 5.0001V18.0001C3 18.2653 3.10536 18.5197 3.29289 18.7072C3.48043 18.8947 3.73478 19.0001 4 19.0001H9C9.55228 19.0001 10 19.4478 10 20.0001C10 20.5524 9.55228 21.0001 9 21.0001H4C3.20435 21.0001 2.44129 20.684 1.87868 20.1214C1.31607 19.5588 1 18.7957 1 18.0001V5.0001C1 4.20445 1.31607 3.44138 1.87868 2.87878C2.44129 2.31617 3.20435 2.0001 4 2.0001H7.89559C8.39548 1.99609 8.88846 2.11707 9.32975 2.35207C9.77076 2.58694 10.1461 2.92822 10.4217 3.3449L11.2288 4.54062C11.231 4.54377 11.2331 4.54693 11.2352 4.5501C11.3262 4.68836 11.4502 4.80186 11.5959 4.8804C11.7416 4.95891 11.9045 5.00004 12.07 5.0001C12.0699 5.0001 12.0701 5.0001 12.07 5.0001H20C20.7956 5.0001 21.5587 5.31617 22.1213 5.87878C22.6839 6.44138 23 7.20445 23 8.0001V8.5001C23 9.05238 22.5523 9.5001 22 9.5001C21.4477 9.5001 21 9.05238 21 8.5001V8.0001C21 7.73488 20.8946 7.48053 20.7071 7.29299C20.5196 7.10545 20.2652 7.0001 20 7.0001H12.07C11.5733 7.00001 11.0843 6.87662 10.6471 6.641C10.2117 6.40637 9.84114 6.06776 9.56829 5.65534L8.76115 4.45957C8.75902 4.45641 8.7569 4.45323 8.7548 4.45005C8.66282 4.31036 8.53728 4.19597 8.38965 4.11736Z" fill="black"/>
<path fill-rule="evenodd" clip-rule="evenodd" d="M12 9.0001C12.5523 9.0001 13 9.44781 13 10.0001V13.0001H16C16.5523 13.0001 17 13.4478 17 14.0001C17 14.5524 16.5523 15.0001 16 15.0001H12C11.4477 15.0001 11 14.5524 11 14.0001V10.0001C11 9.44781 11.4477 9.0001 12 9.0001Z" fill="black"/>
<path fill-rule="evenodd" clip-rule="evenodd" d="M17.7368 12.0686C17.1108 11.9512 16.4658 11.985 15.8555 12.1672C15.2515 12.3475 14.6988 12.668 14.2423 13.1023L12.7227 14.6913C12.341 15.0904 11.708 15.1045 11.3088 14.7228C10.9097 14.3411 10.8956 13.7081 11.2773 13.3089L12.8123 11.7039C12.822 11.6938 12.8319 11.6838 12.8421 11.6741C13.5309 11.0121 14.3679 10.5241 15.2834 10.2508C16.1989 9.9775 17.1664 9.92678 18.1054 10.1028C19.0445 10.2789 19.9279 10.6767 20.6822 11.2631C21.4365 11.8495 22.0398 12.6075 22.4421 13.4741C22.6746 13.9751 22.457 14.5696 21.956 14.8022C21.455 15.0347 20.8605 14.817 20.6279 14.3161C20.3598 13.7383 19.9576 13.233 19.4547 12.8421C18.9518 12.4512 18.3629 12.186 17.7368 12.0686Z" fill="black"/>
<path fill-rule="evenodd" clip-rule="evenodd" d="M17 18.0001C17 17.4478 17.4477 17.0001 18 17.0001H22C22.5523 17.0001 23 17.4478 23 18.0001V22.0001C23 22.5524 22.5523 23.0001 22 23.0001C21.4477 23.0001 21 22.5524 21 22.0001V19.0001H18C17.4477 19.0001 17 18.5524 17 18.0001Z" fill="black"/>
<path fill-rule="evenodd" clip-rule="evenodd" d="M22.6912 17.2774C23.0903 17.6591 23.1044 18.2921 22.7227 18.6913L21.1877 20.2963C21.178 20.3064 21.1681 20.3164 21.1579 20.3261C20.4691 20.9881 19.6321 21.4761 18.7166 21.7494C17.8011 22.0227 16.8336 22.0734 15.8946 21.8973C14.9555 21.7213 14.0721 21.3235 13.3178 20.7371C12.5635 20.1507 11.9602 19.3927 11.5579 18.5261C11.3254 18.0251 11.5431 17.4305 12.044 17.198C12.545 16.9655 13.1396 17.1831 13.3721 17.6841C13.6402 18.2618 14.0425 18.7672 14.5453 19.1581C15.0482 19.549 15.6371 19.8142 16.2632 19.9316C16.8892 20.049 17.5342 20.0152 18.1445 19.833C18.7485 19.6527 19.3012 19.3322 19.7577 18.8978L21.2773 17.3089C21.659 16.9098 22.292 16.8957 22.6912 17.2774Z" fill="black"/>
</svg>
