<svg width="24" height="24" viewBox="0 0 24 24" fill="none" xmlns="http://www.w3.org/2000/svg">
<path d="M7.99998 13C9.71913 13 11.1392 13.5786 12.3711 14.0713C13.6392 14.5785 14.7193 15 16 15C16.5523 15 17 15.4477 17 16C17 16.5523 16.5523 17 16 17C14.2808 17 12.8607 16.4214 11.6289 15.9287C10.3608 15.4215 9.28067 15 7.99998 15C6.77014 15 5.58364 15.4535 4.66697 16.2734C4.25533 16.6416 3.62307 16.606 3.25486 16.1943C2.88674 15.7827 2.92138 15.1504 3.33299 14.7822C4.61634 13.6343 6.27814 13 7.99998 13Z" fill="black"/>
<path d="M1.29302 1.29302C1.68354 0.902491 2.31655 0.902491 2.70708 1.29302L22.7071 21.293C23.0976 21.6835 23.0976 22.3166 22.7071 22.7071C22.3166 23.0976 21.6835 23.0976 21.293 22.7071L1.29302 2.70708C0.902491 2.31655 0.902491 1.68354 1.29302 1.29302Z" fill="black"/>
<path d="M3 22V4C3 3.44772 3.44772 3 4 3C4.55228 3 5 3.44772 5 4V22C5 22.5523 4.55228 23 4 23C3.44772 23 3 22.5523 3 22Z" fill="black"/>
<path d="M18.9998 14.3467V4C18.0481 4.71352 16.7796 5 15.3328 5C13.916 4.99993 12.621 4.38987 11.5222 3.91895C10.3606 3.4211 9.2765 3 7.99976 3H7.65601C7.10372 3 6.65601 2.55228 6.65601 2C6.65601 1.44772 7.10372 1 7.65601 1H7.99976C9.72277 1 11.1389 1.579 12.3103 2.08105C13.5446 2.61006 14.4167 2.99993 15.3328 3C16.552 3 17.3285 2.75328 17.7996 2.40039L17.9138 2.32031C18.1855 2.14463 18.4965 2.03704 18.8201 2.00781C19.1899 1.97446 19.5621 2.0449 19.8943 2.21094C20.2264 2.37698 20.5057 2.63247 20.7009 2.94824C20.8962 3.26419 20.9998 3.62858 20.9998 4V14.3467C20.9998 14.899 20.552 15.3467 19.9998 15.3467C19.4476 15.3465 18.9998 14.8989 18.9998 14.3467Z" fill="black"/>
</svg>
