<svg width="24" height="24" viewBox="0 0 24 24" fill="none" xmlns="http://www.w3.org/2000/svg">
<path d="M1 9.34943V4.99982C1.00003 4.2042 1.31632 3.44131 1.87891 2.87872C2.44151 2.31614 3.20437 1.99982 4 1.99982H7.90039C8.39863 1.99662 8.89021 2.11811 9.33008 2.35236C9.76929 2.58635 10.1427 2.92617 10.418 3.34064L11.2285 4.54083L11.2354 4.54962C11.3264 4.68789 11.45 4.80213 11.5957 4.88068C11.7414 4.95921 11.9048 4.99979 12.0703 4.99982H20C20.7956 4.99982 21.5585 5.31614 22.1211 5.87872C22.6837 6.44131 23 7.2042 23 7.99982V17.9998C23 18.7954 22.6837 19.5583 22.1211 20.1209C21.5585 20.6835 20.7957 20.9998 20 20.9998H4C3.20435 20.9998 2.44152 20.6835 1.87891 20.1209C1.31633 19.5583 1 18.7954 1 17.9998V14.9998C1.00003 14.2042 1.31632 13.4413 1.87891 12.8787C2.44151 12.3161 3.20437 11.9998 4 11.9998H11C11.5523 11.9998 11.9999 12.4476 12 12.9998C12 13.5521 11.5523 13.9998 11 13.9998H4C3.73481 13.9998 3.4805 14.1053 3.29297 14.2928C3.10545 14.4803 3.00003 14.7346 3 14.9998V17.9998C3 18.265 3.10546 18.5193 3.29297 18.7068C3.48051 18.8944 3.73478 18.9998 4 18.9998H20C20.2652 18.9998 20.5195 18.8944 20.707 18.7068C20.8945 18.5193 21 18.265 21 17.9998V7.99982C21 7.73464 20.8945 7.4803 20.707 7.29279C20.5195 7.10528 20.2652 6.99982 20 6.99982H12.0703C11.5737 6.99974 11.0846 6.87602 10.6475 6.64044C10.2103 6.40482 9.83762 6.06499 9.56445 5.65021L8.76074 4.45978L8.75488 4.45001C8.6629 4.31032 8.53727 4.19562 8.38965 4.117C8.24215 4.03847 8.07725 3.99824 7.91016 3.99982H4C3.73481 3.99982 3.4805 4.10528 3.29297 4.29279C3.10545 4.4803 3.00003 4.73464 3 4.99982V9.34943C3 9.90171 2.55228 10.3494 2 10.3494C1.44772 10.3494 1 9.90171 1 9.34943Z" fill="black"/>
<path d="M7.29289 9.29295C7.68342 8.90243 8.31643 8.90243 8.70696 9.29295L11.707 12.293C12.0975 12.6835 12.0975 13.3165 11.707 13.707L8.70696 16.707C8.31643 17.0975 7.68342 17.0975 7.29289 16.707C6.90237 16.3165 6.90237 15.6835 7.29289 15.293L9.58586 13L7.29289 10.707C6.90237 10.3165 6.90237 9.68348 7.29289 9.29295Z" fill="black"/>
</svg>
