<svg width="24" height="24" viewBox="0 0 24 24" fill="none" xmlns="http://www.w3.org/2000/svg">
<path d="M3 7.79981V4.00001C3 3.20436 3.3163 2.44152 3.87891 1.87891C4.44152 1.3163 5.20435 1.00001 6 1.00001H14C14.448 0.999229 14.8916 1.08748 15.3057 1.25879C15.7199 1.43024 16.0965 1.68159 16.4131 1.99903L20 5.58594L20.1162 5.70704C20.3799 5.99709 20.591 6.33139 20.7412 6.69434C20.9125 7.10836 21.0008 7.55196 21 8.00001V20C21 20.7957 20.6837 21.5585 20.1211 22.1211C19.5585 22.6837 18.7957 23 18 23H14.5C13.9477 23 13.5 22.5523 13.5 22C13.5 21.4477 13.9477 21 14.5 21H18C18.2652 21 18.5195 20.8946 18.707 20.707C18.8946 20.5195 19 20.2652 19 20V7.99708C19.0004 7.81244 18.9641 7.6296 18.8936 7.45899C18.8229 7.28818 18.7188 7.13243 18.5879 7.00196L14.998 3.41211C14.8676 3.28117 14.7118 3.17714 14.541 3.10645C14.3704 3.03587 14.1876 2.99962 14.0029 3.00001H6C5.73479 3.00001 5.4805 3.10544 5.29297 3.29297C5.10543 3.48051 5 3.73479 5 4.00001V7.79981C5 8.35209 4.55228 8.79981 4 8.79981C3.44772 8.79981 3 8.35209 3 7.79981Z" fill="black"/>
<path d="M13 7.00001V2.00001C13 1.44772 13.4477 1.00001 14 1.00001C14.5523 1.00001 15 1.44772 15 2.00001V7.00001H20C20.5523 7.00001 21 7.44772 21 8.00001C21 8.55229 20.5523 9 20 9H15C14.4696 9 13.961 8.78914 13.5859 8.41407C13.2109 8.039 13 7.53044 13 7.00001Z" fill="black"/>
<path d="M1.44068 13.6882C1.72331 13.2138 2.33733 13.0581 2.81177 13.3406L7.00025 15.8347L11.1887 13.3406C11.6631 13.0583 12.2763 13.214 12.5588 13.6882C12.8415 14.1627 12.6866 14.7766 12.2122 15.0593L7.51197 17.8591C7.19671 18.047 6.80384 18.0469 6.48853 17.8591L1.78834 15.0593C1.31393 14.7767 1.15817 14.1627 1.44068 13.6882Z" fill="black"/>
<path d="M6.9911 10.0182C7.52655 10.0209 8.05158 10.1671 8.51161 10.4411L8.51454 10.443L11.5448 12.2624L11.7128 12.3708C12.0954 12.6365 12.4118 12.9884 12.6356 13.3991C12.8863 13.859 13.0113 14.3768 12.9999 14.9001V18.1257L12.996 18.3258C12.9715 18.7904 12.839 19.244 12.6083 19.6501C12.3485 20.1071 11.9724 20.4863 11.5194 20.7526L11.5204 20.7536L8.55067 22.5641C8.54499 22.5676 8.53884 22.5705 8.53309 22.5739C8.0704 22.8434 7.54412 22.9847 7.00868 22.9821C6.47325 22.9795 5.94819 22.8332 5.48817 22.5592L5.48524 22.5573L2.45497 20.737C1.99698 20.4618 1.62064 20.0695 1.36513 19.6003C1.11486 19.1405 0.990459 18.6232 1.00184 18.1003L1.00087 14.86C0.995847 14.3313 1.13041 13.8102 1.39149 13.3503C1.65106 12.893 2.02646 12.5123 2.47938 12.2458L5.44911 10.4362C5.45479 10.4327 5.46094 10.4288 5.46669 10.4255C5.92932 10.1561 6.45576 10.0156 6.9911 10.0182ZM6.98134 12.0182C6.80416 12.0174 6.62986 12.0635 6.47645 12.152L3.5204 13.9538C3.51378 13.9578 3.50661 13.9616 3.49989 13.9655C3.34604 14.0545 3.2185 14.183 3.13075 14.3376C3.04301 14.4921 2.99841 14.6677 3.00087 14.8454V18.1325C2.99503 18.3105 3.03685 18.4868 3.12196 18.6432C3.20714 18.7997 3.33253 18.9314 3.48524 19.0231L6.51161 20.8405C6.66493 20.9318 6.83999 20.9812 7.01845 20.9821C7.19687 20.983 7.37206 20.9351 7.52626 20.8454L10.4794 19.0456C10.4861 19.0415 10.4931 19.0378 10.4999 19.0339C10.654 18.9449 10.7821 18.8165 10.87 18.6618C10.9578 18.5072 11.0023 18.3318 10.9999 18.154V14.9001C10.9999 14.8894 11.0005 14.8785 11.0009 14.8678C11.0067 14.6897 10.9641 14.5126 10.8788 14.3561C10.8149 14.239 10.7285 14.1361 10.6249 14.0534L10.5155 13.9772L7.48817 12.1589C7.33486 12.0676 7.15976 12.0191 6.98134 12.0182Z" fill="black"/>
<path d="M6 22V17C6 16.4477 6.44772 16 7 16C7.55228 16 8 16.4477 8 17V22C8 22.5523 7.55228 23 7 23C6.44772 23 6 22.5523 6 22Z" fill="black"/>
</svg>
