<svg width="24" height="24" viewBox="0 0 24 24" fill="none" xmlns="http://www.w3.org/2000/svg">
<path fill-rule="evenodd" clip-rule="evenodd" d="M8.38965 4.11736C8.24203 4.03874 8.07705 3.99841 7.9098 4.00005C7.90654 4.00008 7.90327 4.0001 7.9 4.0001H4C3.73478 4.0001 3.48043 4.10545 3.29289 4.29299C3.10536 4.48053 3 4.73488 3 5.0001V9.0001C3 9.55238 2.55228 10.0001 2 10.0001C1.44772 10.0001 1 9.55238 1 9.0001V5.0001C1 4.20445 1.31607 3.44138 1.87868 2.87878C2.44129 2.31617 3.20435 2.0001 4 2.0001H7.89559C8.39548 1.99609 8.88846 2.11707 9.32975 2.35207C9.77076 2.58694 10.1461 2.92822 10.4217 3.3449L11.2288 4.54062C11.231 4.54377 11.2331 4.54693 11.2352 4.5501C11.3262 4.68836 11.4502 4.80186 11.5959 4.8804C11.7416 4.95891 11.9045 5.00004 12.07 5.0001C12.0699 5.0001 12.0701 5.0001 12.07 5.0001H20C20.7956 5.0001 21.5587 5.31617 22.1213 5.87878C22.6839 6.44138 23 7.20445 23 8.0001V18.0001C23 18.7957 22.6839 19.5588 22.1213 20.1214C21.5587 20.684 20.7957 21.0001 20 21.0001H4C3.20435 21.0001 2.44129 20.684 1.87868 20.1214C1.31607 19.5588 1 18.7957 1 18.0001V17.0001C1 16.4478 1.44772 16.0001 2 16.0001C2.55228 16.0001 3 16.4478 3 17.0001V18.0001C3 18.2653 3.10536 18.5197 3.29289 18.7072C3.48043 18.8947 3.73478 19.0001 4 19.0001H20C20.2652 19.0001 20.5196 18.8947 20.7071 18.7072C20.8946 18.5197 21 18.2653 21 18.0001V8.0001C21 7.73488 20.8946 7.48053 20.7071 7.29299C20.5196 7.10545 20.2652 7.0001 20 7.0001H12.07C11.5733 7.00001 11.0843 6.87662 10.6471 6.641C10.2117 6.40637 9.84114 6.06776 9.56829 5.65534L8.76115 4.45957C8.75902 4.45641 8.7569 4.45323 8.7548 4.45005C8.66282 4.31036 8.53728 4.19597 8.38965 4.11736Z" fill="black"/>
<path fill-rule="evenodd" clip-rule="evenodd" d="M1 13.0001C1 12.4478 1.44772 12.0001 2 12.0001H12C12.5523 12.0001 13 12.4478 13 13.0001C13 13.5524 12.5523 14.0001 12 14.0001H2C1.44772 14.0001 1 13.5524 1 13.0001Z" fill="black"/>
<path fill-rule="evenodd" clip-rule="evenodd" d="M8.29289 9.29299C8.68342 8.90247 9.31658 8.90247 9.70711 9.29299L12.7071 12.293C13.0976 12.6835 13.0976 13.3167 12.7071 13.7072L9.70711 16.7072C9.31658 17.0977 8.68342 17.0977 8.29289 16.7072C7.90237 16.3167 7.90237 15.6835 8.29289 15.293L10.5858 13.0001L8.29289 10.7072C7.90237 10.3167 7.90237 9.68352 8.29289 9.29299Z" fill="black"/>
</svg>
