<svg width="24" height="24" viewBox="0 0 24 24" fill="none" xmlns="http://www.w3.org/2000/svg">
<path fill-rule="evenodd" clip-rule="evenodd" d="M8.38965 4.11736C8.24203 4.03874 8.07704 3.99841 7.9098 4.00005C7.90653 4.00008 7.90327 4.0001 7.9 4.0001H4C3.73478 4.0001 3.48043 4.10545 3.29289 4.29299C3.10535 4.48053 3 4.73488 3 5.0001V7.5001C3 8.05238 2.55228 8.5001 2 8.5001C1.44771 8.5001 0.999998 8.05238 0.999998 7.5001V5.0001C0.999998 4.20445 1.31607 3.44139 1.87868 2.87878C2.44129 2.31617 3.20435 2.0001 4 2.0001H7.89559C8.39547 1.99609 8.88846 2.11707 9.32974 2.35207C9.77076 2.58694 10.1461 2.92822 10.4217 3.3449L11.2288 4.54062C11.231 4.54377 11.2331 4.54693 11.2352 4.5501C11.3262 4.68836 11.4502 4.80186 11.5959 4.8804C11.7416 4.95891 11.9045 5.00004 12.07 5.0001C12.0699 5.0001 12.0701 5.0001 12.07 5.0001H20C20.7956 5.0001 21.5587 5.31617 22.1213 5.87878C22.6839 6.44138 23 7.20445 23 8.0001V18.0001C23 18.7957 22.6839 19.5588 22.1213 20.1214C21.5587 20.684 20.7957 21.0001 20 21.0001H4.01421C3.33896 21.0175 2.67739 20.8066 2.13675 20.4011C1.59146 19.9921 1.20169 19.4097 1.03162 18.7496C0.893828 18.2148 1.21568 17.6695 1.7505 17.5317C2.28532 17.3939 2.83058 17.7158 2.96837 18.2506C3.02506 18.4706 3.15498 18.6648 3.33675 18.8011C3.51851 18.9374 3.74128 19.0078 3.96837 19.0006C3.97891 19.0003 3.98945 19.0001 4 19.0001H20C20.2652 19.0001 20.5196 18.8947 20.7071 18.7072C20.8946 18.5197 21 18.2653 21 18.0001V8.0001C21 7.73488 20.8946 7.48053 20.7071 7.29299C20.5196 7.10545 20.2652 7.0001 20 7.0001H12.07C11.5733 7.00001 11.0843 6.87663 10.6471 6.641C10.2117 6.40637 9.84113 6.06776 9.56829 5.65534L8.76115 4.45957C8.75902 4.45641 8.7569 4.45323 8.7548 4.45005C8.66282 4.31036 8.53727 4.19597 8.38965 4.11736Z" fill="black"/>
<path fill-rule="evenodd" clip-rule="evenodd" d="M0.99999 13.0001C0.99999 12.4478 1.44771 12.0001 1.99999 12.0001H12C12.5523 12.0001 13 12.4478 13 13.0001C13 13.5524 12.5523 14.0001 12 14.0001H1.99999C1.44771 14.0001 0.99999 13.5524 0.99999 13.0001Z" fill="black"/>
<path fill-rule="evenodd" clip-rule="evenodd" d="M5.7071 9.29299C6.09762 9.68352 6.09762 10.3167 5.7071 10.7072L3.4142 13.0001L5.7071 15.293C6.09762 15.6835 6.09762 16.3167 5.7071 16.7072C5.31657 17.0977 4.68341 17.0977 4.29288 16.7072L1.29288 13.7072C0.902359 13.3167 0.902359 12.6835 1.29288 12.293L4.29288 9.29299C4.68341 8.90247 5.31657 8.90247 5.7071 9.29299Z" fill="black"/>
</svg>
