<svg width="24" height="24" viewBox="0 0 24 24" fill="none" xmlns="http://www.w3.org/2000/svg">
<path d="M7 13.8811L17.7539 8.49927L7 3.12231V13.8811ZM20.001 8.50024C20.0009 8.83829 19.9061 9.16986 19.7266 9.4563C19.547 9.74265 19.2905 9.973 18.9863 10.1204L18.9854 10.1194L7 16.1165V22.0002C6.99985 22.5524 6.55219 23.0002 6 23.0002C5.44781 23.0002 5.00015 22.5524 5 22.0002V2.80005C4.99987 2.49075 5.07984 2.18684 5.23145 1.91724C5.38318 1.64741 5.60156 1.42061 5.86621 1.26001L6.07129 1.15356C6.28225 1.06015 6.51015 1.00774 6.74219 1.00024L6.97266 1.00806C7.19661 1.02964 7.4146 1.09386 7.61621 1.19653L7.61719 1.19556L18.9854 6.88013H18.9863C19.2525 7.00912 19.4818 7.20175 19.6553 7.4397L19.7266 7.54419L19.79 7.65356C19.9285 7.9135 20.001 8.20443 20.001 8.50024Z" fill="black"/>
</svg>
