<svg width="24" height="24" viewBox="0 0 24 24" fill="none" xmlns="http://www.w3.org/2000/svg">
<path d="M1 17.9998V4.99982C1.00003 4.2042 1.31632 3.44131 1.87891 2.87872C2.44151 2.31614 3.20437 1.99982 4 1.99982H7.90039C8.39863 1.99662 8.89021 2.11811 9.33008 2.35236C9.76929 2.58635 10.1427 2.92617 10.418 3.34064L11.2285 4.54083L11.2354 4.54962C11.3264 4.68789 11.45 4.80213 11.5957 4.88068C11.7414 4.95921 11.9048 4.99979 12.0703 4.99982H20C20.7956 4.99982 21.5585 5.31614 22.1211 5.87872C22.6837 6.44131 23 7.2042 23 7.99982V11.4168C23 11.9691 22.5523 12.4168 22 12.4168C21.4477 12.4168 21 11.9691 21 11.4168V7.99982C21 7.73464 20.8945 7.4803 20.707 7.29279C20.5195 7.10528 20.2652 6.99982 20 6.99982H12.0703C11.5737 6.99974 11.0846 6.87602 10.6475 6.64044C10.2103 6.40482 9.83762 6.06499 9.56445 5.65021L8.76074 4.45978L8.75488 4.45001C8.6629 4.31032 8.53727 4.19562 8.38965 4.117C8.24215 4.03847 8.07725 3.99824 7.91016 3.99982H4C3.73481 3.99982 3.4805 4.10528 3.29297 4.29279C3.10545 4.4803 3.00003 4.73464 3 4.99982V17.9998C3 18.265 3.10546 18.5193 3.29297 18.7068C3.48051 18.8944 3.73478 18.9998 4 18.9998H10.6377C11.1899 18.9998 11.6376 19.4476 11.6377 19.9998C11.6377 20.5521 11.19 20.9998 10.6377 20.9998H4C3.20435 20.9998 2.44152 20.6835 1.87891 20.1209C1.31633 19.5583 1 18.7954 1 17.9998Z" fill="black"/>
<path d="M15.234 14.1536C15.6511 14.0172 16.0917 13.9666 16.5289 14.0051C16.9661 14.0436 17.391 14.17 17.7779 14.3772C17.8557 14.4188 17.9306 14.4653 18.0045 14.5129C18.0771 14.4668 18.1509 14.4224 18.2271 14.3821C18.6136 14.1779 19.0377 14.0535 19.4732 14.0168C19.9087 13.9802 20.3472 14.0315 20.7623 14.1682C21.1774 14.3049 21.5608 14.5245 21.8893 14.8127C22.2177 15.1009 22.4849 15.4522 22.6744 15.8459C22.8639 16.2398 22.9715 16.6682 22.9918 17.1047C23.0121 17.5412 22.9447 17.9774 22.7926 18.387C22.642 18.7922 22.4105 19.1625 22.1148 19.4778L22.1158 19.4788L19.4898 22.3352L19.4889 22.3342C19.3048 22.5401 19.0811 22.7068 18.8297 22.8215C18.5695 22.9402 18.2866 23.0012 18.0006 23.0012C17.7146 23.0012 17.4317 22.9402 17.1715 22.8215C16.9194 22.7066 16.6947 22.5398 16.5104 22.3332L13.8834 19.4768L13.8844 19.4758C13.5877 19.1624 13.3552 18.7938 13.2027 18.3899C13.0478 17.9791 12.9777 17.5404 12.9967 17.1018C13.0157 16.6633 13.1234 16.2329 13.3131 15.8372C13.5029 15.4414 13.7712 15.0884 14.1012 14.7991C14.4312 14.5096 14.8167 14.29 15.234 14.1536ZM16.3531 15.9973C16.185 15.9825 16.0155 16.0015 15.8551 16.054C15.6946 16.1064 15.5465 16.1917 15.4195 16.303C15.2927 16.4143 15.1897 16.5502 15.1168 16.7024C15.0439 16.8546 15.002 17.0201 14.9947 17.1887C14.9875 17.3573 15.0143 17.5259 15.0738 17.6838C15.1334 17.8417 15.2246 17.9859 15.3414 18.1077C15.3463 18.1128 15.3513 18.1181 15.3561 18.1233L17.983 20.9807C17.9887 20.9869 17.9941 20.9939 17.9996 21.0002C18.0054 20.9936 18.0122 20.9872 18.0182 20.9807L20.6441 18.1252L20.6539 18.1145C20.7693 17.9924 20.8591 17.8481 20.9176 17.6907C20.9761 17.5331 21.0015 17.3654 20.9938 17.1975C20.9859 17.0296 20.9446 16.8646 20.8717 16.7131C20.7988 16.5618 20.6962 16.4264 20.5699 16.3157C20.4436 16.2049 20.2959 16.1212 20.1363 16.0686C19.9768 16.0161 19.8085 15.996 19.6412 16.01C19.4737 16.0241 19.3104 16.0721 19.1617 16.1506C19.0132 16.2291 18.882 16.3367 18.776 16.467C18.5854 16.7014 18.2988 16.8372 17.9967 16.8362C17.6944 16.835 17.4083 16.6971 17.2193 16.4612C17.1138 16.3294 16.9824 16.2206 16.8336 16.1409C16.6848 16.0612 16.5213 16.0121 16.3531 15.9973Z" fill="black"/>
</svg>
