<svg width="24" height="24" viewBox="0 0 24 24" fill="none" xmlns="http://www.w3.org/2000/svg">
<path d="M3 15.5V4.00001C3 3.20436 3.3163 2.44152 3.87891 1.87891C4.44152 1.3163 5.20435 1.00001 6 1.00001H14C14.448 0.999229 14.8916 1.08748 15.3057 1.25879C15.7199 1.43024 16.0965 1.68159 16.4131 1.99903L20 5.58594L20.1162 5.70704C20.3799 5.99709 20.591 6.33139 20.7412 6.69434C20.9125 7.10836 21.0008 7.55196 21 8.00001V20C21 20.7957 20.6837 21.5585 20.1211 22.1211C19.5585 22.6837 18.7957 23 18 23H13.6592C13.1069 23 12.6592 22.5523 12.6592 22C12.6592 21.4477 13.1069 21 13.6592 21H18C18.2652 21 18.5195 20.8946 18.707 20.707C18.8946 20.5195 19 20.2652 19 20V7.99708C19.0004 7.81244 18.9641 7.6296 18.8936 7.45899C18.8229 7.28818 18.7188 7.13243 18.5879 7.00196L14.998 3.41211C14.8676 3.28117 14.7118 3.17714 14.541 3.10645C14.3704 3.03587 14.1876 2.99962 14.0029 3.00001H6C5.73479 3.00001 5.4805 3.10544 5.29297 3.29297C5.10543 3.48051 5 3.73479 5 4.00001V15.5C5 16.0523 4.55228 16.5 4 16.5C3.44772 16.5 3 16.0523 3 15.5Z" fill="black"/>
<path d="M13 7.00001V2.00001C13 1.44772 13.4477 1.00001 14 1.00001C14.5523 1.00001 15 1.44772 15 2.00001V7.00001H20C20.5523 7.00001 21 7.44772 21 8.00001C21 8.55229 20.5523 9 20 9H15C14.4696 9 13.961 8.78914 13.5859 8.41407C13.2109 8.039 13 7.53044 13 7.00001Z" fill="black"/>
<path d="M7 12V11C7 10.4477 7.44772 10 8 10C8.55228 10 9 10.4477 9 11V12C9 12.5523 8.55228 13 8 13C7.44772 13 7 12.5523 7 12Z" fill="black"/>
<path d="M7 18V16C7 15.4477 7.44772 15 8 15C8.55228 15 9 15.4477 9 16V18C9 18.5523 8.55228 19 8 19C7.44772 19 7 18.5523 7 18Z" fill="black"/>
<path d="M7 7.00001V6.00001C7 5.44772 7.44772 5.00001 8 5.00001C8.55228 5.00001 9 5.44772 9 6.00001V7.00001C9 7.55229 8.55228 8.00001 8 8.00001C7.44772 8.00001 7 7.55229 7 7.00001Z" fill="black"/>
<path d="M9 20C9 19.4477 8.55228 19 8 19C7.44772 19 7 19.4477 7 20C7 20.5523 7.44772 21 8 21C8.55228 21 9 20.5523 9 20ZM11 20C11 21.6569 9.65685 23 8 23C6.34315 23 5 21.6569 5 20C5 18.3432 6.34315 17 8 17C9.65685 17 11 18.3432 11 20Z" fill="black"/>
</svg>
