<svg width="24" height="24" viewBox="0 0 24 24" fill="none" xmlns="http://www.w3.org/2000/svg">
<path d="M3 12V4.00001C3 3.20436 3.3163 2.44152 3.87891 1.87891C4.44152 1.3163 5.20435 1.00001 6 1.00001H14C14.448 0.999229 14.8916 1.08748 15.3057 1.25879C15.7199 1.43024 16.0965 1.68159 16.4131 1.99903L20 5.58594L20.1162 5.70704C20.3799 5.99709 20.591 6.33139 20.7412 6.69434C20.9125 7.10836 21.0008 7.55196 21 8.00001V20C21 20.7957 20.6837 21.5585 20.1211 22.1211C19.5585 22.6837 18.7957 23 18 23C17.4477 23 17 22.5523 17 22C17 21.4477 17.4477 21 18 21C18.2652 21 18.5195 20.8946 18.707 20.707C18.8946 20.5195 19 20.2652 19 20V7.99708C19.0004 7.81244 18.9641 7.6296 18.8936 7.45899C18.8229 7.28818 18.7188 7.13243 18.5879 7.00196L14.998 3.41211C14.8676 3.28117 14.7118 3.17714 14.541 3.10645C14.3704 3.03587 14.1876 2.99962 14.0029 3.00001H6C5.73479 3.00001 5.4805 3.10544 5.29297 3.29297C5.10543 3.48051 5 3.73479 5 4.00001V12C5 12.5523 4.55228 13 4 13C3.44772 13 3 12.5523 3 12Z" fill="black"/>
<path d="M13 7.00001V2.00001C13 1.44773 13.4477 1.00001 14 1.00001C14.5523 1.00001 15 1.44773 15 2.00001V7.00001H20C20.5523 7.00001 21 7.44772 21 8.00001C21 8.55229 20.5523 9.00001 20 9.00001H15C14.4696 9.00001 13.961 8.78915 13.5859 8.41407C13.2109 8.039 13 7.53045 13 7.00001Z" fill="black"/>
<path d="M13.5684 15.0118C13.7119 15.0302 13.8526 15.0669 13.9863 15.1221L14.1816 15.2188L14.3633 15.3399C14.5353 15.4728 14.6793 15.6397 14.7871 15.8302C14.9283 16.0795 15.0007 16.3612 14.999 16.6475L15 21.3634C14.9967 21.6494 14.9187 21.9298 14.7744 22.1768C14.6301 22.4238 14.4242 22.6292 14.1768 22.7725C13.9293 22.9158 13.6483 22.992 13.3623 22.9942C13.0764 22.9963 12.7945 22.9247 12.5449 22.7852C12.5406 22.7828 12.5365 22.7799 12.5322 22.7774L9.49902 21.0225C9.02109 20.7459 8.85818 20.1343 9.13477 19.6563C9.41136 19.1783 10.023 19.0145 10.501 19.2911L13 20.7374V17.2618L10.501 18.7081C10.023 18.9847 9.4114 18.8218 9.13477 18.3438C8.8582 17.8659 9.02113 17.2543 9.49902 16.9776L12.5215 15.2296C12.5228 15.2288 12.525 15.2274 12.5264 15.2266L12.5322 15.2227C12.7807 15.0773 13.0626 14.9998 13.3506 14.9981L13.5684 15.0118Z" fill="black"/>
<path d="M4 17V21H9V17H4ZM11 21C11 22.1046 10.1046 23 9 23H4C2.89543 23 2 22.1046 2 21V17C2 15.8954 2.89543 15 4 15H9C10.1046 15 11 15.8954 11 17V21Z" fill="black"/>
</svg>
