<svg width="24" height="24" viewBox="0 0 24 24" fill="none" xmlns="http://www.w3.org/2000/svg">
<path d="M13.1153 2.07721C13.625 1.86482 14.2104 2.10564 14.4229 2.6153L16.9229 8.6153C17.0126 8.83071 17.0247 9.07095 16.9561 9.29401L12.9561 22.294C12.827 22.7136 12.439 23.0001 12 23.0001C11.561 23.0001 11.1731 22.7136 11.044 22.294L7.04398 9.29401C6.9754 9.07095 6.98743 8.83071 7.07719 8.6153L9.57719 2.6153C9.78968 2.10564 10.3751 1.86482 10.8848 2.07721C11.3945 2.2897 11.6353 2.87509 11.4229 3.38483L9.06156 9.04987L12 18.5987L14.9375 9.04987L12.5772 3.38483C12.3648 2.87509 12.6056 2.2897 13.1153 2.07721Z" fill="black"/>
<path d="M16.9996 2C17.4652 2 17.9249 2.10821 18.3414 2.31641C18.7579 2.52469 19.1205 2.82761 19.4 3.2002L22.4 7.2002L22.5367 7.39844C22.8354 7.87166 22.9965 8.4206 22.9996 8.9834C23.0031 9.62675 22.7998 10.2545 22.4195 10.7734L14.4341 21.751L14.4351 21.752C14.1573 22.1382 13.7911 22.4529 13.3677 22.6699C12.9443 22.8869 12.4758 23 12 23.0001C11.5243 23.0001 11.0548 22.8868 10.6314 22.6699C10.208 22.4529 9.84188 22.1382 9.56402 21.752L1.57671 10.7705L1.57769 10.7695C1.19891 10.251 0.995789 9.62463 0.999563 8.98242C1.00343 8.3393 1.21417 7.71463 1.60015 7.2002L4.5982 3.20312C4.87728 2.83006 5.2393 2.52716 5.65581 2.31836C6.0729 2.10929 6.53301 2.00009 6.99956 2H16.9996ZM6.99956 4C6.84419 4.00009 6.6912 4.03683 6.5523 4.10645C6.41325 4.17614 6.29187 4.27676 6.19878 4.40137L6.19781 4.40332L3.19976 8.40039C3.07117 8.57179 3.00091 8.77988 2.99956 8.99414C2.99862 9.15496 3.03652 9.31321 3.10894 9.45508L3.19292 9.59082L3.19488 9.59375L11.1851 20.5801L11.188 20.584C11.2806 20.7126 11.4024 20.8174 11.5435 20.8896C11.6846 20.962 11.841 21 11.9996 21C12.1581 21 12.3145 20.962 12.4556 20.8896C12.5967 20.8173 12.7185 20.7126 12.8111 20.584L12.814 20.5801L20.8043 9.59375L20.8062 9.59082C20.933 9.41785 21.0007 9.20859 20.9996 8.99414C20.9984 8.77975 20.928 8.57095 20.7994 8.39941L17.8003 4.40039C17.7072 4.2762 17.5857 4.1749 17.4468 4.10547C17.308 4.03613 17.1547 4 16.9996 4H6.99956Z" fill="black"/>
<path d="M22 8C22.5523 8 23 8.44772 23 9C23 9.55228 22.5523 10 22 10H2C1.44772 10 1 9.55228 1 9C1 8.44772 1.44772 8 2 8H22Z" fill="black"/>
</svg>
