<svg width="24" height="24" viewBox="0 0 24 24" fill="none" xmlns="http://www.w3.org/2000/svg">
<path fill-rule="evenodd" clip-rule="evenodd" d="M5 11C5 10.4477 5.44772 10 6 10H10C10.5523 10 11 10.4477 11 11C11 11.5523 10.5523 12 10 12H6C5.44772 12 5 11.5523 5 11Z" fill="black"/>
<path fill-rule="evenodd" clip-rule="evenodd" d="M8 8C8.55228 8 9 8.44772 9 9V13C9 13.5523 8.55228 14 8 14C7.44772 14 7 13.5523 7 13V9C7 8.44772 7.44772 8 8 8Z" fill="black"/>
<path fill-rule="evenodd" clip-rule="evenodd" d="M14 12C14 11.4477 14.4477 11 15 11H15.01C15.5623 11 16.01 11.4477 16.01 12C16.01 12.5523 15.5623 13 15.01 13H15C14.4477 13 14 12.5523 14 12Z" fill="black"/>
<path fill-rule="evenodd" clip-rule="evenodd" d="M17 10C17 9.44772 17.4477 9 18 9H18.01C18.5623 9 19.01 9.44772 19.01 10C19.01 10.5523 18.5623 11 18.01 11H18C17.4477 11 17 10.5523 17 10Z" fill="black"/>
<path fill-rule="evenodd" clip-rule="evenodd" d="M3.33106 5.28808C4.2495 4.45922 5.44262 4.00029 6.67977 4H17.32C18.5573 4.00032 19.7509 4.45943 20.6694 5.28854C21.7035 6.22212 22.1378 7.40688 22.3053 8.60335L22.3079 8.62268L22.3084 8.62751C22.3869 9.28061 23 14.3818 23 16C23 17.0609 22.5786 18.0783 21.8284 18.8284C21.0783 19.5786 20.0609 20 19 20C17.5847 20 16.8292 19.2439 16.3191 18.7333C16.3103 18.7245 16.3015 18.7158 16.2929 18.7071L14.8789 17.2931C14.7401 17.1543 14.6534 17.0971 14.582 17.0651C14.5142 17.0348 14.3994 17 14.172 17H9.828C9.60061 17 9.48576 17.0348 9.41804 17.0651C9.34662 17.0971 9.26001 17.1542 9.12121 17.293L7.70711 18.7071C7.69846 18.7158 7.68974 18.7245 7.68094 18.7333C7.17075 19.2439 6.41529 20 5 20C3.93913 20 2.92172 19.5786 2.17157 18.8284C1.42143 18.0783 1 17.0609 1 16C1 14.3819 1.61371 9.2753 1.69169 8.62648L1.69214 8.62268L1.69429 8.60602C1.85907 7.40545 2.29904 6.21944 3.33106 5.28808ZM6.68 6C5.93779 6.00023 5.22202 6.27558 4.67101 6.77285C4.0964 7.29141 3.80056 7.97717 3.67682 8.86996C3.5872 9.6159 3 14.539 3 16C3 16.5304 3.21071 17.0391 3.58579 17.4142C3.96086 17.7893 4.46957 18 5 18C5.56032 18 5.8034 17.7824 6.29289 17.2929L7.70679 15.879C7.70675 15.879 7.70682 15.879 7.70679 15.879C7.94295 15.6428 8.22742 15.4068 8.6012 15.2395C8.97873 15.0706 9.38339 15 9.828 15H14.172C14.6166 15 15.0213 15.0706 15.3988 15.2395C15.7726 15.4068 16.0569 15.6427 16.2931 15.8789C16.2931 15.8789 16.2931 15.8789 16.2931 15.8789L17.7071 17.2929C18.1966 17.7824 18.4397 18 19 18C19.5304 18 20.0391 17.7893 20.4142 17.4142C20.7893 17.0391 21 16.5304 21 16C21 14.5389 20.4135 9.62199 20.3234 8.87135C20.1964 7.97454 19.9036 7.29163 19.3292 6.77313C18.7782 6.2757 18.0623 6.00024 17.3199 6C17.3199 6 17.32 6 17.3199 6H6.68C6.68008 6 6.67992 6 6.68 6Z" fill="black"/>
</svg>
