<svg width="24" height="24" viewBox="0 0 24 24" fill="none" xmlns="http://www.w3.org/2000/svg">
<path fill-rule="evenodd" clip-rule="evenodd" d="M11.4743 1.14935C11.7691 0.967144 12.1372 0.95058 12.4472 1.10557L20.4472 5.10557C20.786 5.27497 21 5.62123 21 6C21 6.37877 20.786 6.72504 20.4472 6.89443L13 10.618V13C13 13.5523 12.5523 14 12 14C11.4477 14 11 13.5523 11 13V10.0217C10.9997 10.0077 10.9997 9.99379 11 9.97988V2C11 1.65342 11.1794 1.33156 11.4743 1.14935ZM13 8.38197L17.7639 6L13 3.61803V8.38197Z" fill="black"/>
<path fill-rule="evenodd" clip-rule="evenodd" d="M8.90738 4.48875C9.15218 4.98382 8.94931 5.5836 8.45424 5.8284C7.08032 6.50779 5.93049 7.56756 5.14154 8.88164C4.35258 10.1957 3.95773 11.7088 4.00394 13.2408C4.05016 14.7728 4.5355 16.2593 5.40223 17.5234C6.26896 18.7876 7.48059 19.7761 8.89296 20.3714C10.3053 20.9668 11.859 21.1438 13.3691 20.8816C14.8792 20.6193 16.2822 19.9288 17.4112 18.8921C18.5401 17.8555 19.3475 16.5163 19.7373 15.034C20.1271 13.5516 20.0828 11.9885 19.6098 10.5306C19.4394 10.0053 19.727 9.44127 20.2524 9.27082C20.7777 9.10038 21.3417 9.38807 21.5122 9.91339C22.1035 11.7358 22.1588 13.6896 21.6716 15.5426C21.1843 17.3955 20.1751 19.0694 18.7639 20.3653C17.3527 21.6611 15.599 22.5243 13.7113 22.8521C11.8237 23.1799 9.8816 22.9586 8.11613 22.2144C6.35066 21.4702 4.83612 20.2346 3.75271 18.6544C2.6693 17.0742 2.06262 15.2161 2.00485 13.3011C1.94708 11.3861 2.44065 9.49475 3.42684 7.85216C4.41303 6.20957 5.85033 4.88485 7.56773 4.03562C8.06279 3.79081 8.66258 3.99369 8.90738 4.48875Z" fill="black"/>
<path fill-rule="evenodd" clip-rule="evenodd" d="M8.60262 9.19747C9.04418 9.52919 9.13323 10.1561 8.8015 10.5976C8.40063 11.1312 8.13965 11.7567 8.04234 12.417C7.94503 13.0773 8.01449 13.7514 8.24439 14.378C8.47428 15.0046 8.85731 15.5637 9.35857 16.0043C9.85983 16.445 10.4634 16.7532 11.1143 16.901C11.7651 17.0487 12.4426 17.0312 13.085 16.8501C13.7274 16.669 14.3142 16.33 14.7921 15.8641C15.2699 15.3982 15.6236 14.82 15.8209 14.1824C16.0182 13.5448 16.0527 12.868 15.9215 12.2136C15.8129 11.6721 16.1638 11.1451 16.7053 11.0365C17.2468 10.9279 17.7739 11.2789 17.8825 11.8204C18.0793 12.8019 18.0274 13.8172 17.7315 14.7736C17.4356 15.73 16.9051 16.5971 16.1883 17.2961C15.4715 17.995 14.5912 18.5034 13.6277 18.7751C12.6641 19.0467 11.6479 19.0729 10.6716 18.8514C9.69528 18.6298 8.78994 18.1674 8.03805 17.5064C7.28616 16.8454 6.71163 16.0068 6.36678 15.0669C6.02194 14.127 5.91775 13.1158 6.06371 12.1254C6.20967 11.135 6.60114 10.1968 7.20246 9.39636C7.53418 8.95479 8.16105 8.86575 8.60262 9.19747Z" fill="black"/>
</svg>
