<svg width="24" height="24" viewBox="0 0 24 24" fill="none" xmlns="http://www.w3.org/2000/svg">
<path fill-rule="evenodd" clip-rule="evenodd" d="M5 4C4.73478 4 4.48043 4.10536 4.29289 4.29289C4.10536 4.48043 4 4.73478 4 5V11H11V4H5ZM5 2C4.20435 2 3.44129 2.31607 2.87868 2.87868C2.31607 3.44129 2 4.20435 2 5V19C2 19.7956 2.31607 20.5587 2.87868 21.1213C3.44129 21.6839 4.20435 22 5 22H11C11.5304 22 12.0391 21.7893 12.4142 21.4142C12.7893 21.0391 13 20.5304 13 20V13H20C20.5304 13 21.0391 12.7893 21.4142 12.4142C21.7893 12.0391 22 11.5304 22 11V5C22 4.20435 21.6839 3.44129 21.1213 2.87868C20.5587 2.31607 19.7956 2 19 2H5ZM13 4V11H20V5C20 4.73478 19.8946 4.48043 19.7071 4.29289C19.5196 4.10536 19.2652 4 19 4H13ZM11 13H4V19C4 19.2652 4.10536 19.5196 4.29289 19.7071C4.48043 19.8946 4.73478 20 5 20H11V13Z" fill="black"/>
<path fill-rule="evenodd" clip-rule="evenodd" d="M15 19C15 18.4477 15.4477 18 16 18H22C22.5523 18 23 18.4477 23 19C23 19.5523 22.5523 20 22 20H16C15.4477 20 15 19.5523 15 19Z" fill="black"/>
<path fill-rule="evenodd" clip-rule="evenodd" d="M19 15C19.5523 15 20 15.4477 20 16V22C20 22.5523 19.5523 23 19 23C18.4477 23 18 22.5523 18 22V16C18 15.4477 18.4477 15 19 15Z" fill="black"/>
</svg>
