<svg width="24" height="24" viewBox="0 0 24 24" fill="none" xmlns="http://www.w3.org/2000/svg">
<path d="M15.7066 6.87899C16.0971 6.48852 16.7302 6.48863 17.1207 6.87899C17.5112 7.26952 17.5112 7.90253 17.1207 8.29306L12.607 12.8067C12.2165 13.1973 11.5835 13.1973 11.193 12.8067C10.8026 12.4162 10.8025 11.7831 11.193 11.3927L15.7066 6.87899Z" fill="black"/>
<path d="M19.4002 1.01416C19.8583 1.01424 20.3003 1.17164 20.6541 1.45654L20.7996 1.58545L22.4139 3.19971C22.7803 3.57357 22.9862 4.07659 22.9862 4.6001C22.9861 5.12357 22.7803 5.62665 22.4139 6.00049L21.2928 7.12158C20.7304 7.68396 19.9671 8.00032 19.1717 8.00049H17.8279C17.5958 8.00057 17.3721 8.08106 17.1942 8.22705L17.1207 8.29306C16.7302 8.68331 16.0973 8.6837 15.7069 8.29346C15.3164 7.90301 15.3163 7.26954 15.7066 6.87899L15.7078 6.87842C15.8948 6.69112 15.9996 6.43704 15.9998 6.17236V4.82764C16 4.03211 16.3161 3.26898 16.8787 2.70654L17.993 1.59326L17.9998 1.58545C18.3737 1.21911 18.8768 1.01416 19.4002 1.01416ZM18.2928 4.12158C18.1054 4.30905 17.9999 4.56352 17.9998 4.82861V6.00049H19.1717L19.2703 5.99463C19.4993 5.97188 19.7146 5.87068 19.8787 5.70654L20.9852 4.59912L19.3992 3.01416L18.2928 4.12158Z" fill="black"/>
<path d="M5.29289 15.293C5.68342 14.9025 6.31643 14.9025 6.70696 15.293L8.70696 17.293C9.09748 17.6835 9.09748 18.3166 8.70696 18.7071C8.31643 19.0976 7.68342 19.0976 7.29289 18.7071L5.29289 16.7071C4.90237 16.3166 4.90237 15.6835 5.29289 15.293Z" fill="black"/>
<path d="M15 13C15 11.9391 14.5783 10.922 13.8281 10.1719C13.078 9.42173 12.0609 9 11 9C10.6049 9.00016 10.2182 9.11746 9.88965 9.33691C9.56183 9.55594 9.3049 9.86656 9.15332 10.2305L9.1543 10.2314L8.77441 11.1514L8.77246 11.1553C8.54409 11.7025 8.15884 12.1697 7.66504 12.498C7.1717 12.8261 6.5924 12.9998 6 12.999C5.20435 12.999 4.44152 13.3163 3.87891 13.8789C3.3163 14.4415 3 15.2044 3 16C3 17.3261 3.52716 18.5975 4.46484 19.5352C5.40253 20.4728 6.67392 21 8 21C8.79565 21 9.55848 20.6837 10.1211 20.1211C10.6837 19.5585 11 18.7957 11 18C10.9992 17.4076 11.1739 16.8283 11.502 16.335C11.8303 15.8412 12.2975 15.4559 12.8447 15.2275L12.8486 15.2256L13.7686 14.8457C14.1327 14.6941 14.444 14.4383 14.6631 14.1104C14.8551 13.8228 14.9686 13.4907 14.9941 13.1475L15 13ZM17 13C16.9998 13.7905 16.7652 14.5634 16.3262 15.2207C15.8872 15.878 15.2633 16.3904 14.5332 16.6934L14.5322 16.6943L13.6143 17.0723C13.432 17.1484 13.2764 17.2779 13.167 17.4424C13.0576 17.607 12.9996 17.8004 13 17.998V18C13 19.3261 12.4728 20.5975 11.5352 21.5352C10.5975 22.4728 9.32608 23 8 23C6.14349 23 4.36256 22.263 3.0498 20.9502C1.73705 19.6374 1 17.8565 1 16C1 14.6739 1.52716 13.4025 2.46484 12.4648C3.40253 11.5272 4.67392 11 6 11H6.00195C6.19955 11.0004 6.39303 10.9424 6.55762 10.833C6.72226 10.7235 6.85064 10.5672 6.92676 10.3848L7.30566 9.46777L7.30664 9.4668C7.60964 8.73674 8.12199 8.11284 8.7793 7.67383C9.43663 7.23481 10.2095 7.00022 11 7C12.5913 7 14.117 7.63259 15.2422 8.75781C16.3674 9.88303 17 11.4087 17 13Z" fill="black"/>
</svg>
