<svg width="24" height="24" viewBox="0 0 24 24" fill="none" xmlns="http://www.w3.org/2000/svg">
<path fill-rule="evenodd" clip-rule="evenodd" d="M12 3C7.02944 3 3 7.02944 3 12C3 16.9706 7.02944 21 12 21C16.9706 21 21 16.9706 21 12C21 7.02944 16.9706 3 12 3ZM1 12C1 5.92487 5.92487 1 12 1C18.0751 1 23 5.92487 23 12C23 18.0751 18.0751 23 12 23C5.92487 23 1 18.0751 1 12Z" fill="black"/>
<path fill-rule="evenodd" clip-rule="evenodd" d="M12 1C12.2737 1 12.5354 1.11216 12.7241 1.31034C15.469 4.19244 17 8.01996 17 12C17 15.98 15.469 19.8076 12.7241 22.6897C12.5354 22.8878 12.2737 23 12 23C11.7263 23 11.4646 22.8878 11.2759 22.6897C8.53101 19.8076 7 15.98 7 12C7 8.01996 8.53101 4.19244 11.2759 1.31034C11.4646 1.11216 11.7263 1 12 1ZM12 3.51467C10.0658 5.90796 9 8.90089 9 12C9 15.0991 10.0658 18.092 12 20.4853C13.9342 18.092 15 15.0991 15 12C15 8.90089 13.9342 5.90796 12 3.51467Z" fill="black"/>
<path fill-rule="evenodd" clip-rule="evenodd" d="M1 12C1 11.4477 1.44772 11 2 11H22C22.5523 11 23 11.4477 23 12C23 12.5523 22.5523 13 22 13H2C1.44772 13 1 12.5523 1 12Z" fill="black"/>
</svg>
