<svg width="24" height="24" viewBox="0 0 24 24" fill="none" xmlns="http://www.w3.org/2000/svg">
<path fill-rule="evenodd" clip-rule="evenodd" d="M5 4C3.89543 4 3 4.89543 3 6C3 7.10457 3.89543 8 5 8C6.10457 8 7 7.10457 7 6C7 4.89543 6.10457 4 5 4ZM1 6C1 3.79086 2.79086 2 5 2C7.20914 2 9 3.79086 9 6C9 8.20914 7.20914 10 5 10C2.79086 10 1 8.20914 1 6Z" fill="black"/>
<path fill-rule="evenodd" clip-rule="evenodd" d="M5 8C5.55228 8 6 8.44772 6 9V15C6 15.5523 5.55228 16 5 16C4.44772 16 4 15.5523 4 15V9C4 8.44772 4.44772 8 5 8Z" fill="black"/>
<path fill-rule="evenodd" clip-rule="evenodd" d="M5 16C3.89543 16 3 16.8954 3 18C3 19.1046 3.89543 20 5 20C6.10457 20 7 19.1046 7 18C7 16.8954 6.10457 16 5 16ZM1 18C1 15.7909 2.79086 14 5 14C7.20914 14 9 15.7909 9 18C9 20.2091 7.20914 22 5 22C2.79086 22 1 20.2091 1 18Z" fill="black"/>
<path fill-rule="evenodd" clip-rule="evenodd" d="M12 2C12.5523 2 13 2.44772 13 3V21C13 21.5523 12.5523 22 12 22C11.4477 22 11 21.5523 11 21V3C11 2.44772 11.4477 2 12 2Z" fill="black"/>
<path fill-rule="evenodd" clip-rule="evenodd" d="M19 4C17.8954 4 17 4.89543 17 6C17 7.10457 17.8954 8 19 8C20.1046 8 21 7.10457 21 6C21 4.89543 20.1046 4 19 4ZM15 6C15 3.79086 16.7909 2 19 2C21.2091 2 23 3.79086 23 6C23 8.20914 21.2091 10 19 10C16.7909 10 15 8.20914 15 6Z" fill="black"/>
<path fill-rule="evenodd" clip-rule="evenodd" d="M19 8C19.5523 8.0005 20.0005 8.44863 20 9.00091C19.9987 10.4063 19.7012 11.7957 19.1269 13.0784C18.5525 14.3612 17.7142 15.5084 16.6667 16.4454C16.255 16.8135 15.6228 16.7783 15.2547 16.3667C14.8865 15.955 14.9217 15.3228 15.3333 14.9546C16.1714 14.2051 16.842 13.2873 17.3015 12.2611C17.761 11.2349 17.999 10.1234 18 8.99909C18.0005 8.4468 18.4477 7.9995 19 8Z" fill="black"/>
</svg>
