<svg width="24" height="24" viewBox="0 0 24 24" fill="none" xmlns="http://www.w3.org/2000/svg">
<path d="M5 15V3C5 2.44772 5.44772 2 6 2C6.55228 2 7 2.44772 7 3V9.00098C7.28242 8.62437 7.59195 8.26547 7.92871 7.92871C9.80407 6.05335 12.3478 5 15 5C15.5523 5 16 5.44772 16 6C16 6.55228 15.5523 7 15 7C12.8783 7 10.8431 7.84248 9.34277 9.34277C7.84248 10.8431 7 12.8783 7 15C7 15.5523 6.55228 16 6 16C5.44772 16 5 15.5523 5 15Z" fill="black"/>
<path d="M21 17C21.5523 17 22 17.4477 22 18C22 18.5523 21.5523 19 21 19H15C14.4477 19 14 18.5523 14 18C14 17.4477 14.4477 17 15 17H21Z" fill="black"/>
<path d="M20 6C20 4.89543 19.1046 4 18 4C16.8954 4 16 4.89543 16 6C16 7.10457 16.8954 8 18 8C19.1046 8 20 7.10457 20 6ZM22 6C22 8.20914 20.2091 10 18 10C15.7909 10 14 8.20914 14 6C14 3.79086 15.7909 2 18 2C20.2091 2 22 3.79086 22 6Z" fill="black"/>
<path d="M8 18C8 16.8954 7.10457 16 6 16C4.89543 16 4 16.8954 4 18C4 19.1046 4.89543 20 6 20C7.10457 20 8 19.1046 8 18ZM10 18C10 20.2091 8.20914 22 6 22C3.79086 22 2 20.2091 2 18C2 15.7909 3.79086 14 6 14C8.20914 14 10 15.7909 10 18Z" fill="black"/>
</svg>
