<svg width="24" height="24" viewBox="0 0 24 24" fill="none" xmlns="http://www.w3.org/2000/svg">
<path fill-rule="evenodd" clip-rule="evenodd" d="M6.2419 2.62908C7.97378 1.56442 9.96681 1.00053 11.9998 1C12.3998 0.999896 12.7615 1.23825 12.9191 1.60596C13.0768 1.97367 13.0001 2.39995 12.7242 2.68966C10.3335 5.19987 9.00001 8.53352 9.00001 12C9.00001 15.0991 10.0658 18.092 12 20.4853C13.3358 18.8322 14.2658 16.8826 14.7076 14.7931C14.8219 14.2528 15.3525 13.9074 15.8929 14.0216C16.4332 14.1359 16.7786 14.6665 16.6644 15.2069C16.2478 17.1772 15.453 19.0391 14.3327 20.6932C15.6481 20.3406 16.8704 19.6929 17.9044 18.7948C19.1601 17.7041 20.0891 16.2867 20.5881 14.7C20.7538 14.1732 21.3152 13.8804 21.842 14.0461C22.3689 14.2117 22.6616 14.7732 22.496 15.3C21.8861 17.2393 20.7507 18.9717 19.2159 20.3048C17.681 21.6379 15.8068 22.5196 13.8012 22.852C11.7956 23.1844 9.73714 22.9545 7.8543 22.1878C5.97146 21.4211 4.33791 20.1477 3.13499 18.5088C1.93207 16.87 1.20684 14.9298 1.03981 12.9038C0.872784 10.8777 1.27049 8.84496 2.18879 7.03123C3.10708 5.21751 4.51003 3.69374 6.2419 2.62908ZM9.66602 20.6914C9.30769 20.5951 8.9545 20.4763 8.60854 20.3355C7.06804 19.7082 5.73149 18.6663 4.74728 17.3254C3.76308 15.9845 3.16971 14.3971 3.03305 12.7394C2.89639 11.0817 3.22179 9.4186 3.97312 7.93465C4.72445 6.45069 5.87232 5.20397 7.28931 4.33288C8.03158 3.87657 8.8325 3.53269 9.66602 3.30861C7.9395 5.85805 7.00001 8.88223 7.00001 12C7.00001 15.1178 7.9395 18.142 9.66602 20.6914Z" fill="black"/>
<path fill-rule="evenodd" clip-rule="evenodd" d="M1 12C1 11.4477 1.44772 11 2 11H10.5C11.0523 11 11.5 11.4477 11.5 12C11.5 12.5523 11.0523 13 10.5 13H2C1.44772 13 1 12.5523 1 12Z" fill="black"/>
<path fill-rule="evenodd" clip-rule="evenodd" d="M15.8787 1.87868C16.4413 1.31607 17.2043 1 18 1C18.7957 1 19.5587 1.31607 20.1213 1.87868C20.6839 2.44129 21 3.20435 21 4V6C21 6.55228 20.5523 7 20 7C19.4477 7 19 6.55228 19 6V4C19 3.73478 18.8946 3.48043 18.7071 3.29289C18.5196 3.10536 18.2652 3 18 3C17.7348 3 17.4804 3.10536 17.2929 3.29289C17.1054 3.48043 17 3.73478 17 4V6C17 6.55228 16.5523 7 16 7C15.4477 7 15 6.55228 15 6V4C15 3.20435 15.3161 2.44129 15.8787 1.87868Z" fill="black"/>
<path fill-rule="evenodd" clip-rule="evenodd" d="M15 7V10H21V7H15ZM21.0012 9.99995C21.0013 9.99995 21.0013 9.99994 21.0012 9.99995V9.99995ZM14.9988 9.99995C14.9987 9.99995 14.9988 9.99995 14.9988 9.99995V9.99995ZM13 7C13 5.89543 13.8954 5 15 5H21C22.1046 5 23 5.89543 23 7V10C23 11.1046 22.1046 12 21 12H15C13.8954 12 13 11.1046 13 10V7Z" fill="black"/>
</svg>
