<svg width="24" height="24" viewBox="0 0 24 24" fill="none" xmlns="http://www.w3.org/2000/svg">
<path d="M8.81012 5.4375C10.3357 4.92836 11.9752 4.86208 13.5367 5.24707C15.098 5.6321 16.5184 6.45246 17.6324 7.6123C18.7462 8.77214 19.508 10.2242 19.8297 11.7998C19.9401 12.3408 19.5913 12.8689 19.0504 12.9795C18.5093 13.0899 17.9812 12.7412 17.8707 12.2002C17.6247 10.9952 17.0419 9.88407 16.19 8.99707C15.3381 8.11007 14.2513 7.48386 13.0572 7.18945C11.8633 6.89513 10.6104 6.94474 9.44391 7.33398C8.27735 7.72332 7.24526 8.43615 6.46735 9.38867C5.68943 10.3412 5.19779 11.495 5.04938 12.7158C4.90102 13.9365 5.1016 15.1741 5.62848 16.2852C6.15552 17.3963 6.98759 18.3357 8.02692 18.9932C9.06617 19.6505 10.2708 19.9997 11.5005 20C12.0526 20.0003 12.4996 20.4479 12.4996 21C12.4995 21.5523 12.0519 22.0001 11.4996 22C9.89154 21.9996 8.31656 21.5432 6.95758 20.6836C5.59846 19.8238 4.51105 18.5957 3.82184 17.1426C3.13267 15.6896 2.87002 14.071 3.06403 12.4746C3.2581 10.8781 3.90027 9.36869 4.91754 8.12305C5.9347 6.87756 7.28481 5.94668 8.81012 5.4375Z" fill="black"/>
<path d="M12 12V3C12 2.44772 12.4477 2 13 2C13.5523 2 14 2.44772 14 3V12C14 12.5523 13.5523 13 13 13C12.4477 13 12 12.5523 12 12Z" fill="black"/>
<path d="M20 20C20.5523 20 21 20.4477 21 21C21 21.5523 20.5523 22 20 22H4C3.44772 22 3 21.5523 3 21C3 20.4477 3.44772 20 4 20H20Z" fill="black"/>
<path d="M8 12V3C8 2.44772 8.44772 2 9 2C9.55228 2 10 2.44772 10 3V12C10 12.5523 9.55228 13 9 13C8.44772 13 8 12.5523 8 12Z" fill="black"/>
</svg>
