<svg width="24" height="24" viewBox="0 0 24 24" fill="none" xmlns="http://www.w3.org/2000/svg">
<path fill-rule="evenodd" clip-rule="evenodd" d="M22.3827 1.07615C22.7564 1.23093 23 1.59557 23 2.00003V5.00003C23 5.55231 22.5523 6.00003 22 6.00003C21.4477 6.00003 21 5.55231 21 5.00003V4.41424L16.8171 8.59714C16.4266 8.98766 15.7934 8.98766 15.4029 8.59714C15.0124 8.20661 15.0124 7.57345 15.4029 7.18292L21.2929 1.29292C21.5789 1.00692 22.009 0.921369 22.3827 1.07615Z" fill="black"/>
<path fill-rule="evenodd" clip-rule="evenodd" d="M16.6 13.89C15.4954 13.89 14.6 14.7855 14.6 15.89C14.6 16.9946 15.4954 17.89 16.6 17.89C17.7046 17.89 18.6 16.9946 18.6 15.89C18.6 14.7855 17.7046 13.89 16.6 13.89ZM12.6 15.89C12.6 13.6809 14.3909 11.89 16.6 11.89C18.8091 11.89 20.6 13.6809 20.6 15.89C20.6 18.0992 18.8091 19.89 16.6 19.89C14.3909 19.89 12.6 18.0992 12.6 15.89Z" fill="black"/>
<path fill-rule="evenodd" clip-rule="evenodd" d="M8.11 5.40002C7.00543 5.40002 6.11 6.29545 6.11 7.40002C6.11 8.50459 7.00543 9.40002 8.11 9.40002C9.21457 9.40002 10.11 8.50459 10.11 7.40002C10.11 6.29545 9.21457 5.40002 8.11 5.40002ZM4.11 7.40002C4.11 5.19088 5.90086 3.40002 8.11 3.40002C10.3191 3.40002 12.11 5.19088 12.11 7.40002C12.11 9.60916 10.3191 11.4 8.11 11.4C5.90086 11.4 4.11 9.60916 4.11 7.40002Z" fill="black"/>
<path fill-rule="evenodd" clip-rule="evenodd" d="M12.35 9.65002C11.2454 9.65002 10.35 10.5455 10.35 11.65C10.35 12.7546 11.2454 13.65 12.35 13.65C13.4546 13.65 14.35 12.7546 14.35 11.65C14.35 10.5455 13.4546 9.65002 12.35 9.65002ZM8.35 11.65C8.35 9.44088 10.1409 7.65002 12.35 7.65002C14.5591 7.65002 16.35 9.44088 16.35 11.65C16.35 13.8592 14.5591 15.65 12.35 15.65C10.1409 15.65 8.35 13.8592 8.35 11.65Z" fill="black"/>
<path fill-rule="evenodd" clip-rule="evenodd" d="M13.91 3.85004C12.8054 3.85004 11.91 4.74547 11.91 5.85004C11.91 6.95461 12.8054 7.85004 13.91 7.85004C15.0146 7.85004 15.91 6.95461 15.91 5.85004C15.91 4.74547 15.0146 3.85004 13.91 3.85004ZM9.91 5.85004C9.91 3.6409 11.7009 1.85004 13.91 1.85004C16.1191 1.85004 17.91 3.6409 17.91 5.85004C17.91 8.05918 16.1191 9.85004 13.91 9.85004C11.7009 9.85004 9.91 8.05918 9.91 5.85004Z" fill="black"/>
<path fill-rule="evenodd" clip-rule="evenodd" d="M18.15 8.09003C17.0454 8.09003 16.15 8.98546 16.15 10.09C16.15 11.1946 17.0454 12.09 18.15 12.09C19.2546 12.09 20.15 11.1946 20.15 10.09C20.15 8.98546 19.2546 8.09003 18.15 8.09003ZM14.15 10.09C14.15 7.88089 15.9409 6.09003 18.15 6.09003C20.3591 6.09003 22.15 7.88089 22.15 10.09C22.15 12.2992 20.3591 14.09 18.15 14.09C15.9409 14.09 14.15 12.2992 14.15 10.09Z" fill="black"/>
<path fill-rule="evenodd" clip-rule="evenodd" d="M6.56 11.2C5.45543 11.2 4.56 12.0955 4.56 13.2C4.56 14.3046 5.45543 15.2 6.56 15.2C7.66457 15.2 8.56 14.3046 8.56 13.2C8.56 12.0955 7.66457 11.2 6.56 11.2ZM2.56 13.2C2.56 10.9909 4.35086 9.20003 6.56 9.20003C8.76914 9.20003 10.56 10.9909 10.56 13.2C10.56 15.4092 8.76914 17.2 6.56 17.2C4.35086 17.2 2.56 15.4092 2.56 13.2Z" fill="black"/>
<path fill-rule="evenodd" clip-rule="evenodd" d="M10.8 15.44C9.69543 15.44 8.8 16.3355 8.8 17.44C8.8 18.5446 9.69543 19.44 10.8 19.44C11.9046 19.44 12.8 18.5446 12.8 17.44C12.8 16.3355 11.9046 15.44 10.8 15.44ZM6.8 17.44C6.8 15.2309 8.59086 13.44 10.8 13.44C13.0091 13.44 14.8 15.2309 14.8 17.44C14.8 19.6492 13.0091 21.44 10.8 21.44C8.59086 21.44 6.8 19.6492 6.8 17.44Z" fill="black"/>
<path fill-rule="evenodd" clip-rule="evenodd" d="M5 17C3.89543 17 3 17.8955 3 19C3 20.1046 3.89543 21 5 21C6.10457 21 7 20.1046 7 19C7 17.8955 6.10457 17 5 17ZM1 19C1 16.7909 2.79086 15 5 15C7.20914 15 9 16.7909 9 19C9 21.2092 7.20914 23 5 23C2.79086 23 1 21.2092 1 19Z" fill="black"/>
</svg>
