<svg width="24" height="24" viewBox="0 0 24 24" fill="none" xmlns="http://www.w3.org/2000/svg">
<path fill-rule="evenodd" clip-rule="evenodd" d="M6 12C4.34315 12 3 13.3431 3 15C3 16.6569 4.34315 18 6 18C7.65685 18 9 16.6569 9 15C9 13.3431 7.65685 12 6 12ZM1 15C1 12.2386 3.23858 10 6 10C8.76142 10 11 12.2386 11 15C11 17.7614 8.76142 20 6 20C3.23858 20 1 17.7614 1 15Z" fill="black"/>
<path fill-rule="evenodd" clip-rule="evenodd" d="M18 12C16.3431 12 15 13.3431 15 15C15 16.6569 16.3431 18 18 18C19.6569 18 21 16.6569 21 15C21 13.3431 19.6569 12 18 12ZM13 15C13 12.2386 15.2386 10 18 10C20.7614 10 23 12.2386 23 15C23 17.7614 20.7614 20 18 20C15.2386 20 13 17.7614 13 15Z" fill="black"/>
<path fill-rule="evenodd" clip-rule="evenodd" d="M9.87868 12.8787C10.4413 12.3161 11.2043 12 12 12C12.7957 12 13.5587 12.3161 14.1213 12.8787C14.6839 13.4413 15 14.2043 15 15C15 15.5523 14.5523 16 14 16C13.4477 16 13 15.5523 13 15C13 14.7348 12.8946 14.4804 12.7071 14.2929C12.5196 14.1054 12.2652 14 12 14C11.7348 14 11.4804 14.1054 11.2929 14.2929C11.1054 14.4804 11 14.7348 11 15C11 15.5523 10.5523 16 10 16C9.44772 16 9 15.5523 9 15C9 14.2043 9.31607 13.4413 9.87868 12.8787Z" fill="black"/>
<path fill-rule="evenodd" clip-rule="evenodd" d="M5.90354 7.43152C6.22156 6.84782 6.47951 6.51912 6.75198 6.32029C7.0032 6.13697 7.35616 6 8.00001 6C8.55229 6 9.00001 5.55228 9.00001 5C9.00001 4.44772 8.55229 4 8.00001 4C7.04385 4 6.24682 4.21303 5.57304 4.70471C4.92706 5.1761 4.49086 5.83629 4.11954 6.5259C4.10386 6.55501 4.08964 6.58487 4.07693 6.61538L1.57693 12.6154C1.36451 13.1252 1.60559 13.7107 2.11539 13.9231C2.62519 14.1355 3.21067 13.8944 3.42308 13.3846L5.90354 7.43152Z" fill="black"/>
<path fill-rule="evenodd" clip-rule="evenodd" d="M15 5C15 4.44772 15.4477 4 16 4C16.918 4 17.7054 4.21856 18.3792 4.69732C19.0322 5.16132 19.4962 5.81222 19.8805 6.5259C19.8961 6.55501 19.9104 6.58487 19.9231 6.61538L22.4231 12.6154C22.6355 13.1252 22.3944 13.7107 21.8846 13.9231C21.3748 14.1355 20.7893 13.8944 20.5769 13.3846L18.0966 7.43184C17.7899 6.87092 17.5105 6.53356 17.2208 6.32768C16.9446 6.13144 16.582 6 16 6C15.4477 6 15 5.55228 15 5Z" fill="black"/>
</svg>
