<svg width="24" height="24" viewBox="0 0 24 24" fill="none" xmlns="http://www.w3.org/2000/svg">
<path d="M10.2947 9.29179C10.6853 8.90134 11.3193 8.9012 11.7097 9.29179C12.1 9.68241 12.0993 10.3155 11.7087 10.7059L3.32495 19.0867C3.11476 19.297 2.99686 19.5824 2.99683 19.8797C2.99688 20.1772 3.11554 20.4623 3.32593 20.6727C3.53632 20.883 3.82141 21.0018 4.1189 21.0018C4.26606 21.0017 4.41165 20.9721 4.54761 20.9158C4.68368 20.8594 4.80772 20.7768 4.91187 20.6727L13.2927 12.2928C13.6832 11.9023 14.3163 11.9024 14.7068 12.2928C15.0973 12.6833 15.0973 13.3163 14.7068 13.7068L6.32593 22.0867C6.03612 22.3766 5.6919 22.6066 5.31323 22.7635C4.93459 22.9204 4.52876 23.0017 4.1189 23.0018C3.29114 23.0019 2.49734 22.6728 1.91187 22.0877C1.32641 21.5024 0.997047 20.7085 0.996826 19.8807C0.996688 19.0527 1.32556 18.2582 1.91089 17.6727L10.2947 9.29179Z" fill="black"/>
<path d="M21.2929 9.29289C21.6834 8.90237 22.3164 8.90237 22.707 9.29289C23.0975 9.68342 23.0975 10.3164 22.707 10.707L16.707 16.707C16.3164 17.0975 15.6834 17.0975 15.2929 16.707C14.9024 16.3164 14.9024 15.6834 15.2929 15.2929L21.2929 9.29289Z" fill="black"/>
<path d="M12.7929 1.79289C13.1834 1.40237 13.8164 1.40237 14.207 1.79289L22.207 9.79289C22.5975 10.1834 22.5975 10.8164 22.207 11.207C21.8164 11.5975 21.1834 11.5975 20.7929 11.207L12.7929 3.20696C12.4024 2.81643 12.4024 2.18342 12.7929 1.79289Z" fill="black"/>
<path d="M13.2929 1.29289C13.6834 0.902369 14.3164 0.902369 14.707 1.29289C15.0975 1.68342 15.0975 2.31643 14.707 2.70696L8.70696 8.70696C8.31643 9.09748 7.68342 9.09748 7.29289 8.70696C6.90237 8.31643 6.90237 7.68342 7.29289 7.29289L13.2929 1.29289Z" fill="black"/>
<path d="M7.79289 6.79289C8.18342 6.40237 8.81643 6.40237 9.20696 6.79289L17.207 14.7929C17.5975 15.1834 17.5975 15.8164 17.207 16.207C16.8164 16.5975 16.1834 16.5975 15.7929 16.207L7.79289 8.20696C7.40237 7.81643 7.40237 7.18342 7.79289 6.79289Z" fill="black"/>
</svg>
