<svg width="24" height="24" viewBox="0 0 24 24" fill="none" xmlns="http://www.w3.org/2000/svg">
<path fill-rule="evenodd" clip-rule="evenodd" d="M10.7554 4.2701C11.1461 4.09195 11.5706 3.99976 12 3.99976C12.4294 3.99976 12.8538 4.09194 13.2445 4.27007C13.2443 4.27 13.2447 4.27014 13.2445 4.27007L21.8032 8.16847C22.1569 8.31981 22.4595 8.57001 22.6747 8.88921C22.8935 9.21368 23.0122 9.59521 23.0163 9.98651C23.0203 10.3778 22.9095 10.7617 22.6975 11.0906C22.4866 11.4179 22.1848 11.6764 21.8293 11.8345L13.245 15.7299C13.2448 15.73 13.2452 15.7298 13.245 15.7299C12.8543 15.908 12.4294 16.0005 12 16.0005C11.5704 16.0005 11.1459 15.9082 10.7551 15.73C10.7551 15.73 10.7551 15.73 10.7551 15.73L2.19075 11.8246C1.83818 11.6683 1.53824 11.4134 1.32715 11.0905C1.11445 10.7651 1.00117 10.3848 1.00117 9.99611C1.00117 9.6074 1.11445 9.2271 1.32715 8.90174C1.53833 8.57872 1.83842 8.32374 2.19117 8.16748L10.7554 4.2701C10.7556 4.27003 10.7553 4.27016 10.7554 4.2701ZM12 5.99976C11.8568 5.99976 11.7153 6.03051 11.585 6.08993L3.0142 9.9903C3.00987 9.99227 3.00553 9.99421 3.00117 9.99611C3.00577 9.99812 3.01034 10.0002 3.0149 10.0022L11.5849 13.9102C11.7152 13.9697 11.8568 14.0005 12 14.0005C12.1432 14.0005 12.2847 13.9697 12.415 13.9103L21.0068 10.0115C21.01 10.01 21.0132 10.0086 21.0164 10.0072C21.0063 10.003 20.9964 9.99866 20.9865 9.99415L12.415 6.08993C12.2847 6.03051 12.1432 5.99976 12 5.99976Z" fill="black"/>
<path fill-rule="evenodd" clip-rule="evenodd" d="M22 9.00011C22.5523 9.00011 23 9.44782 23 10.0001V16.0001C23 16.5524 22.5523 17.0001 22 17.0001C21.4477 17.0001 21 16.5524 21 16.0001V10.0001C21 9.44782 21.4477 9.00011 22 9.00011Z" fill="black"/>
<path fill-rule="evenodd" clip-rule="evenodd" d="M6 11.5001C6.55229 11.5001 7 11.9478 7 12.5001V16.0001C7 16.2252 7.20328 16.7264 8.20458 17.227C9.1591 17.7043 10.5239 18.0001 12 18.0001C13.4761 18.0001 14.8409 17.7043 15.7954 17.227C16.7967 16.7264 17 16.2252 17 16.0001V12.5001C17 11.9478 17.4477 11.5001 18 11.5001C18.5523 11.5001 19 11.9478 19 12.5001V16.0001C19 17.3664 17.939 18.3913 16.6899 19.0159C15.3939 19.6638 13.7065 20.0001 12 20.0001C10.2935 20.0001 8.60607 19.6638 7.31015 19.0159C6.06101 18.3913 5 17.3664 5 16.0001V12.5001C5 11.9478 5.44772 11.5001 6 11.5001Z" fill="black"/>
</svg>
