<svg width="24" height="24" viewBox="0 0 24 24" fill="none" xmlns="http://www.w3.org/2000/svg">
<path fill-rule="evenodd" clip-rule="evenodd" d="M6 2C6.55228 2 7 2.44772 7 3V15C7 15.5523 6.55228 16 6 16C5.44772 16 5 15.5523 5 15V3C5 2.44772 5.44772 2 6 2Z" fill="black"/>
<path fill-rule="evenodd" clip-rule="evenodd" d="M15.1716 3.17157C15.9217 2.42143 16.9391 2 18 2C19.0609 2 20.0783 2.42143 20.8284 3.17157C21.5786 3.92172 22 4.93913 22 6C22 7.06087 21.5786 8.07828 20.8284 8.82843C20.0783 9.57857 19.0609 10 18 10C16.9391 10 15.9217 9.57857 15.1716 8.82843C14.4214 8.07828 14 7.06087 14 6C14 4.93913 14.4214 3.92172 15.1716 3.17157ZM18 4C17.4696 4 16.9609 4.21071 16.5858 4.58579C16.2107 4.96086 16 5.46957 16 6C16 6.53043 16.2107 7.03914 16.5858 7.41421C16.9609 7.78929 17.4696 8 18 8C18.5304 8 19.0391 7.78929 19.4142 7.41421C19.7893 7.03914 20 6.53043 20 6C20 5.46957 19.7893 4.96086 19.4142 4.58579C19.0391 4.21071 18.5304 4 18 4Z" fill="black"/>
<path fill-rule="evenodd" clip-rule="evenodd" d="M3.17157 15.1716C3.92172 14.4214 4.93913 14 6 14C7.06087 14 8.07828 14.4214 8.82843 15.1716C9.57857 15.9217 10 16.9391 10 18C10 19.0609 9.57857 20.0783 8.82843 20.8284C8.07828 21.5786 7.06087 22 6 22C4.93913 22 3.92172 21.5786 3.17157 20.8284C2.42143 20.0783 2 19.0609 2 18C2 16.9391 2.42143 15.9217 3.17157 15.1716ZM6 16C5.46957 16 4.96086 16.2107 4.58579 16.5858C4.21071 16.9609 4 17.4696 4 18C4 18.5304 4.21071 19.0391 4.58579 19.4142C4.96086 19.7893 5.46957 20 6 20C6.53043 20 7.03914 19.7893 7.41421 19.4142C7.78929 19.0391 8 18.5304 8 18C8 17.4696 7.78929 16.9609 7.41421 16.5858C7.03914 16.2107 6.53043 16 6 16Z" fill="black"/>
<path fill-rule="evenodd" clip-rule="evenodd" d="M7.92893 7.92893C9.8043 6.05357 12.3478 5 15 5C15.5523 5 16 5.44772 16 6C16 6.55228 15.5523 7 15 7C12.8783 7 10.8434 7.84285 9.34315 9.34315C7.84285 10.8434 7 12.8783 7 15C7 15.5523 6.55228 16 6 16C5.44772 16 5 15.5523 5 15C5 12.3478 6.05357 9.8043 7.92893 7.92893Z" fill="black"/>
<path fill-rule="evenodd" clip-rule="evenodd" d="M18 14C18.5523 14 19 14.4477 19 15V21C19 21.5523 18.5523 22 18 22C17.4477 22 17 21.5523 17 21V15C17 14.4477 17.4477 14 18 14Z" fill="black"/>
<path fill-rule="evenodd" clip-rule="evenodd" d="M14 18C14 17.4477 14.4477 17 15 17H21C21.5523 17 22 17.4477 22 18C22 18.5523 21.5523 19 21 19H15C14.4477 19 14 18.5523 14 18Z" fill="black"/>
</svg>
