<svg width="24" height="24" viewBox="0 0 24 24" fill="none" xmlns="http://www.w3.org/2000/svg">
<path d="M17.8909 2L18.0999 2.01074C18.308 2.03275 18.5124 2.08726 18.7043 2.17285C18.9601 2.28691 19.1889 2.45393 19.3762 2.66211C19.5637 2.87049 19.7058 3.11621 19.7922 3.38281C19.8571 3.58285 19.89 3.79154 19.8899 4.00098L19.8782 4.20996L18.1848 20.3145C18.1069 21.0516 17.7584 21.7347 17.2073 22.2305C16.6563 22.726 15.9415 23.0002 15.2004 23H8.80005C8.05804 23.0027 7.34134 22.7303 6.78833 22.2354C6.23409 21.7393 5.88412 21.0551 5.80591 20.3154L4.12134 4.20801C4.09223 3.92959 4.12174 3.64807 4.20826 3.38184C4.29485 3.11556 4.43694 2.87022 4.62427 2.66211C4.81162 2.45402 5.0404 2.28685 5.29615 2.17285C5.55199 2.05885 5.82953 2.00016 6.10962 2H17.8909ZM6.1106 4L7.79419 20.1055L7.80884 20.1963C7.85113 20.4075 7.96058 20.6004 8.12232 20.7451C8.30702 20.9104 8.54636 21.0013 8.79419 21H15.2004C15.4475 21.0001 15.6857 20.9084 15.8694 20.7432C16.053 20.578 16.1695 20.3511 16.1956 20.1055L17.8899 4H6.1106Z" fill="black"/>
<path d="M8.99996 10C10.2981 10 11.561 10.4213 12.5996 11.2002C13.292 11.7195 14.1345 12 15 12C15.8654 12 16.708 11.7195 17.4004 11.2002C17.8422 10.869 18.4684 10.9586 18.7998 11.4004C19.131 11.8422 19.0413 12.4685 18.5996 12.7998C17.561 13.5787 16.2981 14 15 14C13.7018 14 12.4389 13.5787 11.4004 12.7998C10.708 12.2805 9.86544 12 8.99996 12C8.13448 12 7.29196 12.2805 6.59957 12.7998C6.15775 13.131 5.53149 13.0414 5.20016 12.5996C4.86892 12.1578 4.95858 11.5315 5.40035 11.2002C6.4389 10.4213 7.70181 10 8.99996 10Z" fill="black"/>
</svg>
