<svg width="24" height="24" viewBox="0 0 24 24" fill="none" xmlns="http://www.w3.org/2000/svg">
<path fill-rule="evenodd" clip-rule="evenodd" d="M5 4C3.89543 4 3 4.89543 3 6C3 7.10457 3.89543 8 5 8C6.10457 8 7 7.10457 7 6C7 4.89543 6.10457 4 5 4ZM1 6C1 3.79086 2.79086 2 5 2C7.20914 2 9 3.79086 9 6C9 8.20914 7.20914 10 5 10C2.79086 10 1 8.20914 1 6Z" fill="black"/>
<path fill-rule="evenodd" clip-rule="evenodd" d="M11 6C11 5.44772 11.4477 5 12 5H17C17.7956 5 18.5587 5.31607 19.1213 5.87868C19.6839 6.44129 20 7.20435 20 8V15C20 15.5523 19.5523 16 19 16C18.4477 16 18 15.5523 18 15V8C18 7.73478 17.8946 7.48043 17.7071 7.29289C17.5196 7.10536 17.2652 7 17 7H12C11.4477 7 11 6.55228 11 6Z" fill="black"/>
<path fill-rule="evenodd" clip-rule="evenodd" d="M15.7071 2.29289C16.0976 2.68342 16.0976 3.31658 15.7071 3.70711L13.4142 6L15.7071 8.29289C16.0976 8.68342 16.0976 9.31658 15.7071 9.70711C15.3166 10.0976 14.6834 10.0976 14.2929 9.70711L11.2929 6.70711C10.9024 6.31658 10.9024 5.68342 11.2929 5.29289L14.2929 2.29289C14.6834 1.90237 15.3166 1.90237 15.7071 2.29289Z" fill="black"/>
<path fill-rule="evenodd" clip-rule="evenodd" d="M19 16C17.8954 16 17 16.8954 17 18C17 19.1046 17.8954 20 19 20C20.1046 20 21 19.1046 21 18C21 16.8954 20.1046 16 19 16ZM15 18C15 15.7909 16.7909 14 19 14C21.2091 14 23 15.7909 23 18C23 20.2091 21.2091 22 19 22C16.7909 22 15 20.2091 15 18Z" fill="black"/>
<path fill-rule="evenodd" clip-rule="evenodd" d="M5 8C5.55228 8 6 8.44772 6 9V16C6 16.2652 6.10536 16.5196 6.29289 16.7071C6.48043 16.8946 6.73478 17 7 17H12C12.5523 17 13 17.4477 13 18C13 18.5523 12.5523 19 12 19H7C6.20435 19 5.44129 18.6839 4.87868 18.1213C4.31607 17.5587 4 16.7956 4 16V9C4 8.44772 4.44772 8 5 8Z" fill="black"/>
<path fill-rule="evenodd" clip-rule="evenodd" d="M8.29289 14.2929C8.68342 13.9024 9.31658 13.9024 9.70711 14.2929L12.7071 17.2929C13.0976 17.6834 13.0976 18.3166 12.7071 18.7071L9.70711 21.7071C9.31658 22.0976 8.68342 22.0976 8.29289 21.7071C7.90237 21.3166 7.90237 20.6834 8.29289 20.2929L10.5858 18L8.29289 15.7071C7.90237 15.3166 7.90237 14.6834 8.29289 14.2929Z" fill="black"/>
</svg>
