<svg width="24" height="24" viewBox="0 0 24 24" fill="none" xmlns="http://www.w3.org/2000/svg">
<path fill-rule="evenodd" clip-rule="evenodd" d="M5.71536 1.99994C6.04048 1.98808 6.35989 2.09149 6.61672 2.2927C6.65649 2.32386 6.69384 2.35798 6.72845 2.39478C6.88067 2.55663 6.99266 2.75181 7.05564 2.96449L9.04077 8.91989H14.963L16.9929 2.92898C16.9993 2.91022 17.0062 2.89165 17.0136 2.87329C17.1123 2.63067 17.2761 2.42005 17.487 2.26472C17.494 2.25957 17.501 2.25451 17.5082 2.24954C17.7483 2.08213 18.0352 1.99482 18.3279 2.00005C18.3666 2.00074 18.4053 2.00369 18.4437 2.00887C18.7202 2.04617 18.9783 2.16632 19.1844 2.35257C19.3658 2.50216 19.5075 2.69474 19.5964 2.91329C19.6045 2.93326 19.612 2.95349 19.6188 2.97395L22.9488 12.9739C22.9493 12.9756 22.9499 12.9772 22.9504 12.9788C23.071 13.3473 23.0628 13.7458 22.9272 14.1091C22.797 14.4575 22.557 14.7536 22.2441 14.9529L12.5789 21.8153C12.2328 22.061 11.7693 22.0615 11.4227 21.8164L1.69267 14.9364C1.68992 14.9345 1.68719 14.9325 1.68446 14.9305C1.38543 14.7145 1.16278 14.4091 1.04867 14.0583C0.934551 13.7075 0.934878 13.3295 1.0496 12.9789C1.05006 12.9775 1.05053 12.9761 1.05101 12.9746C1.05133 12.9736 1.05166 12.9727 1.05199 12.9717L4.42199 2.93168C4.4286 2.912 4.43582 2.89253 4.44363 2.87329C4.54227 2.63066 4.70609 2.42004 4.91697 2.26472C4.92396 2.25957 4.93103 2.25451 4.93815 2.24954C5.16667 2.09025 5.43748 2.00347 5.71536 1.99994ZM5.73131 5.31607L7.37133 10.2361C7.50744 10.6445 7.88958 10.9199 8.32001 10.9199H15.68C16.1086 10.9199 16.4896 10.6467 16.6271 10.2408L18.2932 5.32356L20.9815 13.3965L11.9988 19.7743L3.01138 13.4194L5.73131 5.31607Z" fill="black"/>
</svg>
