<svg width="24" height="24" viewBox="0 0 24 24" fill="none" xmlns="http://www.w3.org/2000/svg">
<path fill-rule="evenodd" clip-rule="evenodd" d="M12 16C10.8954 16 10 16.8954 10 18C10 19.1046 10.8954 20 12 20C13.1046 20 14 19.1046 14 18C14 16.8954 13.1046 16 12 16ZM8 18C8 15.7909 9.79086 14 12 14C14.2091 14 16 15.7909 16 18C16 20.2091 14.2091 22 12 22C9.79086 22 8 20.2091 8 18Z" fill="black"/>
<path fill-rule="evenodd" clip-rule="evenodd" d="M6 4C4.89543 4 4 4.89543 4 6C4 7.10457 4.89543 8 6 8C7.10457 8 8 7.10457 8 6C8 4.89543 7.10457 4 6 4ZM2 6C2 3.79086 3.79086 2 6 2C8.20914 2 10 3.79086 10 6C10 8.20914 8.20914 10 6 10C3.79086 10 2 8.20914 2 6Z" fill="black"/>
<path fill-rule="evenodd" clip-rule="evenodd" d="M18 4C16.8954 4 16 4.89543 16 6C16 7.10457 16.8954 8 18 8C19.1046 8 20 7.10457 20 6C20 4.89543 19.1046 4 18 4ZM14 6C14 3.79086 15.7909 2 18 2C20.2091 2 22 3.79086 22 6C22 8.20914 20.2091 10 18 10C15.7909 10 14 8.20914 14 6Z" fill="black"/>
<path fill-rule="evenodd" clip-rule="evenodd" d="M6 8C6.55228 8 7 8.44772 7 9V11H17V9C17 8.44772 17.4477 8 18 8C18.5523 8 19 8.44772 19 9V11C19 11.5272 18.8199 12.0443 18.4321 12.4321C18.0443 12.8199 17.5272 13 17 13H7C6.47275 13 5.95567 12.8199 5.56789 12.4321C5.18011 12.0443 5 11.5272 5 11V9C5 8.44772 5.44772 8 6 8Z" fill="black"/>
<path fill-rule="evenodd" clip-rule="evenodd" d="M12 11C12.5523 11 13 11.4477 13 12V15C13 15.5523 12.5523 16 12 16C11.4477 16 11 15.5523 11 15V12C11 11.4477 11.4477 11 12 11Z" fill="black"/>
</svg>
