<svg width="24" height="24" viewBox="0 0 24 24" fill="none" xmlns="http://www.w3.org/2000/svg">
<path fill-rule="evenodd" clip-rule="evenodd" d="M7.85592 7.92835C8.40018 7.25741 9.21591 7.00003 10 7.00003H13C13.7957 7.00003 14.5587 7.3161 15.1213 7.87871C15.6839 8.44132 16 9.20438 16 10C16 10.7957 15.6839 11.5587 15.1213 12.1213C14.5587 12.684 13.7957 13 13 13H11C10.4477 13 10 12.5523 10 12C10 11.4477 10.4477 11 11 11H13C13.2652 11 13.5196 10.8947 13.7071 10.7071C13.8946 10.5196 14 10.2652 14 10C14 9.73481 13.8946 9.48046 13.7071 9.29292C13.5196 9.10539 13.2652 9.00003 13 9.00003H10C9.61142 9.00003 9.45673 9.12439 9.4 9.20003C9.36797 9.24274 9.33257 9.28282 9.29414 9.31987L3.69414 14.7199C3.29658 15.1032 2.66352 15.0917 2.28016 14.6942C1.8968 14.2966 1.90831 13.6635 2.30587 13.2802L7.85592 7.92835Z" fill="black"/>
<path fill-rule="evenodd" clip-rule="evenodd" d="M17.9666 6.75995C18.5449 6.21521 19.3156 5.92186 20.1098 5.94432C20.9057 5.96681 21.66 6.30453 22.2068 6.88319C22.7537 7.46184 23.0482 8.23402 23.0257 9.02985C23.0033 9.82461 22.6664 10.5779 22.0892 11.1246L22.0869 11.1268L17.5213 15.4939C16.6078 16.516 15.3317 17 14 17H10C9.61144 17 9.45674 17.1244 9.40001 17.2C9.35828 17.2557 9.31086 17.3068 9.25852 17.3526L7.65852 18.7526C7.24288 19.1163 6.61112 19.0742 6.24744 18.6585C5.88376 18.2429 5.92587 17.6111 6.34151 17.2475L7.87346 15.907C8.41761 15.2519 9.2243 15 10 15H14C14.8531 15 15.563 14.6952 16.0474 14.1415C16.0669 14.1192 16.0874 14.0978 16.1088 14.0774L20.7088 9.67739C20.7102 9.67599 20.7117 9.67461 20.7132 9.67322C20.9063 9.49071 21.019 9.23896 21.0265 8.97334C21.034 8.70772 20.9357 8.45 20.7532 8.25687C20.5707 8.06374 20.3189 7.95103 20.0533 7.94352C19.7877 7.93601 19.53 8.03432 19.3369 8.21683C19.3347 8.21884 19.3326 8.22083 19.3305 8.22282L15.1305 12.1228C14.7258 12.4986 14.093 12.4752 13.7172 12.0705C13.3414 11.6658 13.3649 11.033 13.7696 10.6572L17.9666 6.75995Z" fill="black"/>
<path fill-rule="evenodd" clip-rule="evenodd" d="M1.29289 12.2929C1.68342 11.9024 2.31658 11.9024 2.70711 12.2929L8.70711 18.2929C9.09763 18.6834 9.09763 19.3166 8.70711 19.7071C8.31658 20.0977 7.68342 20.0977 7.29289 19.7071L1.29289 13.7071C0.902369 13.3166 0.902369 12.6834 1.29289 12.2929Z" fill="black"/>
</svg>
