<svg width="24" height="24" viewBox="0 0 24 24" fill="none" xmlns="http://www.w3.org/2000/svg">
<path fill-rule="evenodd" clip-rule="evenodd" d="M11.5547 1.16806C12.0142 1.47441 12.1384 2.09528 11.8321 2.55481C11.4178 3.17624 11.4083 3.49622 11.4287 3.64919C11.4558 3.85242 11.5622 4.04058 11.8321 4.44541C11.842 4.46034 11.8523 4.47568 11.8628 4.49142C12.0957 4.83952 12.4601 5.38419 12.5537 6.08669C12.6583 6.87122 12.4178 7.67624 11.8321 8.55481C11.5257 9.01434 10.9048 9.13851 10.4453 8.83216C9.98577 8.5258 9.8616 7.90494 10.168 7.44541C10.5822 6.82397 10.5917 6.50399 10.5713 6.35102C10.5442 6.14779 10.4378 5.95963 10.168 5.55481C10.158 5.53987 10.1477 5.52453 10.1372 5.50879C9.90432 5.16069 9.53994 4.61602 9.44627 3.91352C9.34167 3.12899 9.58224 2.32397 10.168 1.44541C10.4743 0.985877 11.0952 0.861703 11.5547 1.16806Z" fill="black"/>
<path fill-rule="evenodd" clip-rule="evenodd" d="M16.0547 1.16806C16.5142 1.47441 16.6384 2.09528 16.3321 2.55481C15.9178 3.17624 15.9083 3.49622 15.9287 3.64919C15.9558 3.85242 16.0622 4.04058 16.3321 4.44541C16.342 4.46034 16.3523 4.47568 16.3628 4.49142C16.5957 4.83952 16.9601 5.38419 17.0537 6.08669C17.1583 6.87122 16.9178 7.67624 16.3321 8.55481C16.0257 9.01434 15.4048 9.13851 14.9453 8.83216C14.4858 8.5258 14.3616 7.90494 14.668 7.44541C15.0822 6.82397 15.0917 6.50399 15.0713 6.35102C15.0442 6.14779 14.9378 5.95963 14.668 5.55481C14.658 5.53987 14.6477 5.52453 14.6372 5.50879C14.4043 5.16069 14.0399 4.61602 13.9463 3.91352C13.8417 3.12899 14.0822 2.32397 14.668 1.44541C14.9743 0.985877 15.5952 0.861703 16.0547 1.16806Z" fill="black"/>
<path fill-rule="evenodd" clip-rule="evenodd" d="M5 10.0001C5 9.44782 5.44772 9.00011 6 9.00011H6.01C6.56228 9.00011 7.01 9.44782 7.01 10.0001C7.01 10.5524 6.56228 11.0001 6.01 11.0001H6C5.44772 11.0001 5 10.5524 5 10.0001Z" fill="black"/>
<path fill-rule="evenodd" clip-rule="evenodd" d="M5 14.0001C5 13.4478 5.44772 13.0001 6 13.0001H6.01C6.56228 13.0001 7.01 13.4478 7.01 14.0001C7.01 14.5524 6.56228 15.0001 6.01 15.0001H6C5.44772 15.0001 5 14.5524 5 14.0001Z" fill="black"/>
<path fill-rule="evenodd" clip-rule="evenodd" d="M10 11.0001C10.5523 11.0001 11 11.4478 11 12.0001V16.0001C11 16.5524 10.5523 17.0001 10 17.0001C9.44772 17.0001 9 16.5524 9 16.0001V12.0001C9 11.4478 9.44772 11.0001 10 11.0001Z" fill="black"/>
<path fill-rule="evenodd" clip-rule="evenodd" d="M14 11.0001C14.5523 11.0001 15 11.4478 15 12.0001V16.0001C15 16.5524 14.5523 17.0001 14 17.0001C13.4477 17.0001 13 16.5524 13 16.0001V12.0001C13 11.4478 13.4477 11.0001 14 11.0001Z" fill="black"/>
<path fill-rule="evenodd" clip-rule="evenodd" d="M18 11.0001C18.5523 11.0001 19 11.4478 19 12.0001V16.0001C19 16.5524 18.5523 17.0001 18 17.0001C17.4477 17.0001 17 16.5524 17 16.0001V12.0001C17 11.4478 17.4477 11.0001 18 11.0001Z" fill="black"/>
<path fill-rule="evenodd" clip-rule="evenodd" d="M4 7.00011C3.73478 7.00011 3.48043 7.10546 3.29289 7.293C3.10536 7.48054 3 7.73489 3 8.00011V18.0001C3 18.2653 3.10536 18.5197 3.29289 18.7072C3.48043 18.8948 3.73478 19.0001 4 19.0001H20C20.2652 19.0001 20.5196 18.8948 20.7071 18.7072C20.8946 18.5197 21 18.2653 21 18.0001V8.00011C21 7.73489 20.8946 7.48054 20.7071 7.293C20.5196 7.10546 20.2652 7.00011 20 7.00011C19.4477 7.00011 19 6.55239 19 6.00011C19 5.44782 19.4477 5.00011 20 5.00011C20.7956 5.00011 21.5587 5.31618 22.1213 5.87879C22.6839 6.4414 23 7.20446 23 8.00011V18.0001C23 18.7958 22.6839 19.5588 22.1213 20.1214C21.5587 20.684 20.7957 21.0001 20 21.0001H4C3.20435 21.0001 2.44129 20.684 1.87868 20.1214C1.31607 19.5588 1 18.7958 1 18.0001V8.00011C1 7.20446 1.31607 6.4414 1.87868 5.87879C2.44129 5.31618 3.20435 5.00011 4 5.00011H7C7.55228 5.00011 8 5.44782 8 6.00011C8 6.55239 7.55228 7.00011 7 7.00011H4Z" fill="black"/>
<path fill-rule="evenodd" clip-rule="evenodd" d="M5 19.0001C5.55228 19.0001 6 19.4478 6 20.0001V22.0001C6 22.5524 5.55228 23.0001 5 23.0001C4.44772 23.0001 4 22.5524 4 22.0001V20.0001C4 19.4478 4.44772 19.0001 5 19.0001Z" fill="black"/>
<path fill-rule="evenodd" clip-rule="evenodd" d="M19 19.0001C19.5523 19.0001 20 19.4478 20 20.0001V22.0001C20 22.5524 19.5523 23.0001 19 23.0001C18.4477 23.0001 18 22.5524 18 22.0001V20.0001C18 19.4478 18.4477 19.0001 19 19.0001Z" fill="black"/>
</svg>
