<svg width="24" height="24" viewBox="0 0 24 24" fill="none" xmlns="http://www.w3.org/2000/svg">
<path d="M18.0004 7L18.2552 7.01074C18.8463 7.06127 19.4116 7.28655 19.8773 7.66016C20.4094 8.08712 20.78 8.68272 20.9281 9.34863L22.9281 18.3486C23.0256 18.7871 23.023 19.2422 22.9213 19.6797C22.8195 20.1172 22.6212 20.5265 22.3402 20.877C22.0593 21.2273 21.703 21.5097 21.2982 21.7041C20.8933 21.8985 20.4495 21.9999 20.0004 22H3.99938C3.55035 21.9999 3.10732 21.8984 2.7025 21.7041C2.29752 21.5097 1.94058 21.2274 1.65953 20.877C1.37857 20.5266 1.18026 20.1171 1.07848 19.6797C0.97671 19.2422 0.974173 18.7871 1.07164 18.3486L3.07164 9.34863C3.21978 8.68257 3.59117 8.08714 4.1234 7.66016C4.65558 7.23326 5.31714 7.00022 5.99938 7H18.0004ZM6.00035 9C5.77287 9.00004 5.55182 9.07738 5.37438 9.21973C5.19694 9.36208 5.07316 9.56114 5.02379 9.7832L3.02379 18.7832C2.99136 18.9293 2.99281 19.0808 3.02672 19.2266C3.06066 19.3724 3.12641 19.5092 3.22008 19.626C3.31375 19.7427 3.4328 19.8366 3.56774 19.9014C3.70272 19.9662 3.85062 20 4.00035 20H19.9994C20.149 20 20.2971 19.9661 20.432 19.9014C20.5669 19.8366 20.686 19.7427 20.7797 19.626C20.8733 19.5092 20.9401 19.3724 20.974 19.2266C21.0079 19.0808 21.0084 18.9293 20.9759 18.7832L18.9759 9.7832C18.9266 9.56114 18.8028 9.36208 18.6254 9.21973C18.4479 9.07747 18.2268 9.00004 17.9994 9H6.00035Z" fill="black"/>
<path d="M15 11V6C15 5.20435 14.6837 4.44152 14.1211 3.87891C13.5585 3.3163 12.7957 3 12 3C11.2044 3 10.4415 3.3163 9.87892 3.87891C9.31631 4.44152 9.00001 5.20435 9.00001 6V11C9.00001 11.5523 8.5523 12 8.00001 12C7.44773 12 7.00001 11.5523 7.00001 11V6C7.00001 4.67392 7.52717 3.40253 8.46485 2.46484C9.40254 1.52716 10.6739 1 12 1C13.3261 1 14.5975 1.52716 15.5352 2.46484C16.4728 3.40253 17 4.67392 17 6V11C17 11.5523 16.5523 12 16 12C15.4477 12 15 11.5523 15 11Z" fill="black"/>
</svg>
