<svg width="24" height="24" viewBox="0 0 24 24" fill="none" xmlns="http://www.w3.org/2000/svg">
<path fill-rule="evenodd" clip-rule="evenodd" d="M16.7929 4.79289C17.1834 4.40237 17.8166 4.40237 18.2071 4.79289C19.7547 6.34052 21.405 8.49683 21.9702 10.7575C22.0365 11.0228 21.9913 11.3037 21.845 11.5347C21.6988 11.7658 21.4643 11.9269 21.1961 11.9806C18.5161 12.5166 15.8085 12.5059 12.1061 10.9191C11.5985 10.7016 11.3633 10.1137 11.5809 9.60608C11.7984 9.09845 12.3863 8.8633 12.8939 9.08086C15.6564 10.2648 17.7134 10.4494 19.6722 10.2054C19.0588 8.79137 17.9589 7.37312 16.7929 6.20711C16.4024 5.81658 16.4024 5.18342 16.7929 4.79289Z" fill="black"/>
<path fill-rule="evenodd" clip-rule="evenodd" d="M9.60608 11.5809C10.1137 11.3633 10.7016 11.5985 10.9191 12.1061C12.5059 15.8085 12.5166 18.5161 11.9806 21.1961C11.9269 21.4643 11.7658 21.6988 11.5347 21.845C11.3037 21.9913 11.0228 22.0365 10.7575 21.9702C8.49683 21.405 6.34052 19.7547 4.79289 18.2071C4.40237 17.8166 4.40237 17.1834 4.79289 16.7929C5.18342 16.4024 5.81658 16.4024 6.20711 16.7929C7.37312 17.9589 8.79137 19.0588 10.2054 19.6722C10.4494 17.7134 10.2648 15.6564 9.08085 12.8939C8.8633 12.3863 9.09845 11.7984 9.60608 11.5809Z" fill="black"/>
<path fill-rule="evenodd" clip-rule="evenodd" d="M16.0528 10.6055C16.5467 10.3586 17.1474 10.5588 17.3944 11.0528C18.5002 13.2643 18.5001 14.9733 18.5 17.4227C18.5 17.4484 18.5 17.4741 18.5 17.5C18.5 18.0523 18.0523 18.5 17.5 18.5C17.4741 18.5 17.4484 18.5 17.4227 18.5C14.9733 18.5001 13.2643 18.5002 11.0528 17.3944C10.5588 17.1474 10.3586 16.5467 10.6055 16.0528C10.8525 15.5588 11.4532 15.3586 11.9472 15.6055C13.4607 16.3623 14.6164 16.4789 16.4968 16.4968C16.4789 14.6164 16.3623 13.4607 15.6055 11.9472C15.3586 11.4532 15.5588 10.8525 16.0528 10.6055Z" fill="black"/>
<path fill-rule="evenodd" clip-rule="evenodd" d="M19.4453 10.6679C19.9049 10.3616 20.5257 10.4858 20.8321 10.9453C21.3571 11.7329 21.8836 12.6531 22.283 13.5184C22.6603 14.336 23 15.2615 23 16C23 16.4304 22.7246 16.8126 22.3163 16.9487C20.4967 17.5552 18.7144 16.9599 17.3007 16.4877C17.2614 16.4746 17.2225 16.4616 17.1838 16.4487C16.6599 16.274 16.3767 15.7077 16.5513 15.1838C16.726 14.6598 17.2923 14.3767 17.8163 14.5513C18.9887 14.9421 19.9381 15.2385 20.8148 15.2059C20.7304 14.9632 20.6156 14.6784 20.4671 14.3565C20.1165 13.5969 19.6429 12.7671 19.168 12.0547C18.8616 11.5952 18.9858 10.9743 19.4453 10.6679Z" fill="black"/>
<path fill-rule="evenodd" clip-rule="evenodd" d="M15.1838 16.5513C15.7077 16.3767 16.274 16.6599 16.4487 17.1838C16.4616 17.2225 16.4746 17.2614 16.4877 17.3007C16.9599 18.7144 17.5552 20.4967 16.9487 22.3163C16.8126 22.7246 16.4304 23 16 23C15.2615 23 14.336 22.6603 13.5184 22.283C12.6531 21.8836 11.7329 21.3571 10.9453 20.8321C10.4858 20.5257 10.3616 19.9049 10.6679 19.4453C10.9743 18.9858 11.5952 18.8616 12.0547 19.168C12.7671 19.6429 13.5969 20.1165 14.3565 20.4671C14.6784 20.6156 14.9632 20.7304 15.2059 20.8148C15.2385 19.9381 14.9421 18.9887 14.5513 17.8163C14.3767 17.2923 14.6598 16.726 15.1838 16.5513Z" fill="black"/>
<path fill-rule="evenodd" clip-rule="evenodd" d="M20.0528 15.6055C20.5467 15.3586 21.1474 15.5588 21.3944 16.0528C22.4326 18.1291 23 19.7873 23 22C23 22.5523 22.5523 23 22 23C19.7873 23 18.1291 22.4326 16.0528 21.3944C15.5588 21.1474 15.3586 20.5467 15.6055 20.0528C15.8525 19.5588 16.4532 19.3586 16.9472 19.6055C18.475 20.3694 19.6357 20.7995 20.9442 20.9442C20.7995 19.6357 20.3694 18.475 19.6055 16.9472C19.3586 16.4532 19.5588 15.8525 20.0528 15.6055Z" fill="black"/>
<path fill-rule="evenodd" clip-rule="evenodd" d="M16.4046 4.82756C13.259 2.1592 8.5402 2.43898 5.49011 5.48907C2.4399 8.53928 2.15951 13.2588 4.82762 16.4045C5.0214 15.9718 5.20144 15.4461 5.34236 14.8824C5.63844 13.6981 5.72185 12.5105 5.52986 11.7425C5.42966 11.3417 5.58625 10.9205 5.92395 10.6825C6.26166 10.4446 6.71095 10.4387 7.0547 10.6679C7.60684 11.036 8.41442 11.2583 9.31238 11.3144C9.98235 11.3563 10.6402 11.3016 11.1852 11.1852C11.3016 10.6401 11.3563 9.98231 11.3144 9.31234C11.2583 8.41437 11.036 7.60679 10.668 7.05466C10.4388 6.71091 10.4446 6.26162 10.6826 5.92391C10.9206 5.58621 11.3417 5.42962 11.7425 5.52982C12.5105 5.72181 13.6981 5.6384 14.8825 5.34232C15.4461 5.2014 15.9719 5.02135 16.4046 4.82756ZM4.0759 4.07485C8.15906 -0.00830889 14.839 -0.131158 18.7526 4.34145C19.0993 4.73766 19.0794 5.3348 18.7071 5.70707C18.333 6.08122 17.8008 6.39071 17.2565 6.63738C16.6941 6.89219 16.0424 7.1139 15.3675 7.2826C14.6426 7.46383 13.8428 7.59578 13.0646 7.62621C13.2014 8.14378 13.2785 8.67544 13.3106 9.18758C13.3799 10.2968 13.2449 11.4275 12.9487 12.3162C12.8492 12.6148 12.6148 12.8491 12.3162 12.9486C11.4275 13.2449 10.2969 13.3798 9.18762 13.3105C8.67548 13.2785 8.14382 13.2014 7.62626 13.0646C7.59582 13.8428 7.46387 14.6426 7.28264 15.3675C7.11394 16.0423 6.89223 16.6941 6.63742 17.2564C6.39075 17.8008 6.08126 18.3329 5.70711 18.7071C5.33484 19.0793 4.7377 19.0992 4.3415 18.7525C-0.131265 14.8389 -0.00711799 8.15787 4.0759 4.07485Z" fill="black"/>
<path fill-rule="evenodd" clip-rule="evenodd" d="M3.8834 2.46919L5.20711 3.79289C5.59763 4.18342 5.59763 4.81658 5.20711 5.20711C4.81658 5.59763 4.18342 5.59763 3.79289 5.20711L2.29098 3.70519C2.06487 3.47786 1.97134 3.20652 1.92897 3.04432C1.88068 2.85946 1.862 2.67069 1.862 2.49962C1.862 2.3286 1.88067 2.13974 1.92905 1.95478C1.97145 1.79271 2.06532 1.52046 2.29289 1.29289C2.68342 0.902369 3.31658 0.902369 3.70711 1.29289C4.02557 1.61136 4.08433 2.09117 3.8834 2.46919Z" fill="black"/>
</svg>
