<svg width="24" height="24" viewBox="0 0 24 24" fill="none" xmlns="http://www.w3.org/2000/svg">
<path d="M9.23405 9.15365C9.65121 9.01728 10.0918 8.96673 10.529 9.00522C10.9662 9.04373 11.3911 9.17012 11.778 9.37729C11.8557 9.41892 11.9307 9.46538 12.0046 9.51303C12.0772 9.46694 12.1509 9.42248 12.2272 9.38217C12.6137 9.17804 13.0378 9.05356 13.4733 9.01693C13.9088 8.98032 14.3473 9.0316 14.7624 9.1683C15.1775 9.30503 15.5608 9.52457 15.8893 9.81283C16.2177 10.101 16.485 10.4523 16.6745 10.846C16.864 11.2399 16.9716 11.6683 16.9919 12.1048C17.0121 12.5413 16.9447 12.9775 16.7926 13.3871C16.6421 13.7923 16.4106 14.1626 16.1149 14.4779L16.1159 14.4788L13.4899 17.3353L13.4889 17.3343C13.3049 17.5402 13.0812 17.7069 12.8298 17.8216C12.5696 17.9403 12.2866 18.0013 12.0007 18.0013C11.7146 18.0013 11.4318 17.9403 11.1716 17.8216C10.9195 17.7067 10.6948 17.5399 10.5104 17.3333L7.88347 14.4769L7.88444 14.4759C7.58773 14.1625 7.35522 13.7939 7.2028 13.39C7.04787 12.9792 6.9778 12.5405 6.99675 12.1019C7.01574 11.6634 7.12343 11.233 7.31315 10.8372C7.50292 10.4415 7.77125 10.0885 8.10124 9.79916C8.4313 9.50973 8.81681 9.2901 9.23405 9.15365ZM10.3532 10.9974C10.1851 10.9826 10.0156 11.0016 9.85515 11.054C9.69467 11.1065 9.54655 11.1917 9.4196 11.3031C9.29275 11.4144 9.18981 11.5503 9.11686 11.7025C9.04392 11.8547 9.00208 12.0202 8.99479 12.1888C8.98754 12.3574 9.01433 12.526 9.0739 12.6839C9.13347 12.8418 9.22468 12.986 9.34147 13.1078C9.34637 13.1129 9.35133 13.1182 9.35612 13.1234L11.9831 15.9808C11.9888 15.987 11.9942 15.994 11.9997 16.0003C12.0055 15.9937 12.0123 15.9873 12.0182 15.9808L14.6442 13.1253L14.654 13.1146C14.7694 12.9925 14.8592 12.8482 14.9176 12.6908C14.9761 12.5332 15.0016 12.3654 14.9938 12.1976C14.986 12.0297 14.9446 11.8647 14.8717 11.7132C14.7989 11.5619 14.6962 11.4265 14.57 11.3158C14.4437 11.205 14.296 11.1213 14.1364 11.0687C13.9769 11.0162 13.8086 10.9961 13.6413 11.0101C13.4738 11.0242 13.3104 11.0722 13.1618 11.1507C13.0132 11.2292 12.8821 11.3368 12.776 11.4671C12.5854 11.7015 12.2988 11.8373 11.9967 11.8363C11.6945 11.8351 11.4084 11.6972 11.2194 11.4613C11.1139 11.3295 10.9825 11.2207 10.8337 11.141C10.6848 11.0613 10.5214 11.0122 10.3532 10.9974Z" fill="black"/>
<path d="M20 9.99951C20 9.85414 19.9684 9.71048 19.9072 9.57861C19.846 9.44668 19.7566 9.32973 19.6455 9.23584L19.6406 9.23096L12.6455 3.23486C12.465 3.08232 12.2363 2.99951 12 2.99951C11.7637 2.99951 11.535 3.08329 11.3545 3.23584L11.3535 3.23486L4.35938 9.23096L4.35449 9.23584C4.24341 9.32973 4.15399 9.44668 4.09277 9.57861C4.03159 9.71048 4 9.85415 4 9.99951V18.9995C4 19.2647 4.10543 19.52 4.29297 19.7075C4.48048 19.8949 4.7349 19.9995 5 19.9995H19C19.2651 19.9995 19.5195 19.8949 19.707 19.7075C19.8946 19.52 20 19.2647 20 18.9995V9.99951ZM22 18.9995C22 19.7952 21.6837 20.559 21.1211 21.1216C20.5585 21.684 19.7955 21.9995 19 21.9995H5C4.20447 21.9995 3.44149 21.684 2.87891 21.1216C2.3163 20.559 2 19.7952 2 18.9995V9.99951C2 9.56341 2.09478 9.13242 2.27832 8.73682C2.46197 8.34101 2.73024 7.99017 3.06348 7.7085L10.0586 1.7124L10.0635 1.7085C10.605 1.25086 11.291 0.999512 12 0.999512C12.6202 0.999512 13.2229 1.19185 13.7266 1.54639L13.9365 1.7085L13.9414 1.7124L20.9365 7.7085L21.0586 7.81689C21.3356 8.0782 21.561 8.39045 21.7217 8.73682C21.9052 9.13242 22 9.56341 22 9.99951V18.9995Z" fill="black"/>
</svg>
