<svg width="24" height="24" viewBox="0 0 24 24" fill="none" xmlns="http://www.w3.org/2000/svg">
<path d="M20 7C20 6.73478 19.8946 6.4805 19.707 6.29297C19.5195 6.10543 19.2652 6 19 6C18.7348 6 18.4805 6.10543 18.293 6.29297C18.1054 6.4805 18 6.73478 18 7V9C18 9.26522 18.1054 9.51949 18.293 9.70703C18.4805 9.89457 18.7348 10 19 10C19.2652 10 19.5195 9.89457 19.707 9.70703C19.8946 9.51949 20 9.26522 20 9V7ZM22 14C22 16.3869 21.0521 18.6764 19.3643 20.3643C17.6764 22.0521 15.3869 23 13 23H11C8.61305 23 6.32357 22.0521 4.63574 20.3643C2.94791 18.6764 2 16.3869 2 14C2.00021 12.4545 2.61438 10.972 3.70703 9.87891L6.41406 7.17188C6.78553 6.80035 7.22654 6.50575 7.71191 6.30469C8.19738 6.10359 8.71769 5.99994 9.24316 6H12C12.7956 6 13.5585 6.3163 14.1211 6.87891C14.6837 7.44151 15 8.20435 15 9C15 9.79565 14.6837 10.5585 14.1211 11.1211C13.5585 11.6837 12.7957 12 12 12H10.8281C10.563 12.0001 10.3086 12.1054 10.1211 12.293L9.38574 13.0273C10.318 13.1094 11.1963 13.5166 11.8633 14.1836C12.6134 14.9337 13.0351 15.951 13.0352 17.0117C13.0352 17.564 12.5874 18.0116 12.0352 18.0117C11.4829 18.0117 11.0352 17.564 11.0352 17.0117C11.0351 16.4814 10.8242 15.9727 10.4492 15.5977C10.0742 15.2227 9.5655 15.0118 9.03516 15.0117H9.02832L8.71777 15.0098C8.37863 15.0077 8.04778 14.9055 7.7666 14.7158C7.48531 14.5261 7.26665 14.2572 7.1377 13.9434C7.0088 13.6296 6.97537 13.2848 7.04199 12.9521L7.07129 12.8291C7.15048 12.5444 7.30183 12.2842 7.51172 12.0742L8.70703 10.8789L8.92676 10.6797C9.46048 10.2422 10.132 10.0001 10.8281 10H12C12.2652 10 12.5195 9.89457 12.707 9.70703C12.8946 9.51949 13 9.26522 13 9C13 8.73478 12.8946 8.48051 12.707 8.29297C12.5195 8.10543 12.2652 8 12 8H9.24316C8.98051 7.99997 8.72021 8.05186 8.47754 8.15234C8.29541 8.22779 8.12545 8.32947 7.97363 8.4541L7.82812 8.58594L5.12109 11.293C4.40336 12.011 4.00017 12.9847 4 14C4 15.8565 4.73705 17.6374 6.0498 18.9502C7.36256 20.263 9.14348 21 11 21H13C14.8565 21 16.6374 20.263 17.9502 18.9502C19.263 17.6374 20 15.8565 20 14V11.8242C19.6814 11.937 19.3444 12 19 12C18.2043 12 17.4415 11.6837 16.8789 11.1211C16.3163 10.5585 16 9.79565 16 9V7C16 6.20435 16.3163 5.44151 16.8789 4.87891C17.4415 4.3163 18.2043 4 19 4C19.7957 4 20.5585 4.3163 21.1211 4.87891C21.6837 5.44151 22 6.20435 22 7V14Z" fill="black"/>
<path d="M16 8V5C16 4.73478 15.8946 4.48051 15.707 4.29297C15.5195 4.10543 15.2652 4 15 4C14.7348 4 14.4805 4.10543 14.293 4.29297C14.1054 4.48051 14 4.73478 14 5C14 5.55228 13.5523 6 13 6C12.4477 6 12 5.55228 12 5C12 4.20435 12.3163 3.44151 12.8789 2.87891C13.4415 2.3163 14.2044 2 15 2C15.7956 2 16.5585 2.3163 17.1211 2.87891C17.6837 3.44151 18 4.20435 18 5V8C17.9999 8.54335 17.8527 9.077 17.5732 9.54297C17.2938 10.0089 16.8923 10.3896 16.4131 10.6455C15.9338 10.9015 15.3942 11.023 14.8516 10.9961C14.3089 10.9692 13.7837 10.7953 13.332 10.4932C12.8731 10.1862 12.7499 9.56546 13.0566 9.10645C13.3637 8.6474 13.9853 8.52398 14.4443 8.83105C14.5947 8.93156 14.7696 8.98904 14.9502 8.99805C15.131 9.00701 15.311 8.96703 15.4707 8.88184C15.6305 8.79651 15.7643 8.669 15.8574 8.51367C15.9272 8.39721 15.973 8.26838 15.9912 8.13477L16 8Z" fill="black"/>
<path d="M8 5C8 4.73478 7.89457 4.48051 7.70703 4.29297C7.5195 4.10543 7.26522 4 7 4C6.73478 4 6.4805 4.10543 6.29297 4.29297C6.10543 4.4805 6 4.73478 6 5V10C6 10.5523 5.55228 11 5 11C4.44772 11 4 10.5523 4 10V5C4 4.20435 4.3163 3.44152 4.87891 2.87891C5.44152 2.3163 6.20435 2 7 2C7.79565 2 8.55849 2.3163 9.12109 2.87891C9.6837 3.44151 10 4.20435 10 5C10 5.55228 9.55228 6 9 6C8.44772 6 8 5.55228 8 5Z" fill="black"/>
<path d="M12 7.26758V4C12 3.73478 11.8946 3.48051 11.707 3.29297C11.5195 3.10543 11.2652 3 11 3C10.7348 3 10.4805 3.10543 10.293 3.29297C10.1054 3.48051 10 3.73478 10 4V7C10 7.55228 9.55228 8 9 8C8.44772 8 8 7.55228 8 7V4C8 3.20435 8.3163 2.44151 8.87891 1.87891C9.44152 1.3163 10.2044 1 11 1C11.7956 1 12.5585 1.3163 13.1211 1.87891C13.6837 2.44151 14 3.20435 14 4V7.26758C14 7.81986 13.5523 8.26758 13 8.26758C12.4477 8.26758 12 7.81986 12 7.26758Z" fill="black"/>
</svg>
