<svg width="24" height="24" viewBox="0 0 24 24" fill="none" xmlns="http://www.w3.org/2000/svg">
<path fill-rule="evenodd" clip-rule="evenodd" d="M9.87763 15.7853C10.0624 15.2648 10.6341 14.9927 11.1546 15.1775C12.6833 15.7202 14.7549 15.9085 16.0169 15.9695C16.3995 15.6109 17.0002 15.6079 17.3866 15.9729C17.7881 16.3521 17.8062 16.985 17.427 17.3865C17.0421 17.7941 16.5052 17.9886 15.9643 17.9692C15.9605 17.9691 15.9566 17.9689 15.9528 17.9688C14.6717 17.9082 12.3244 17.7151 10.4854 17.0622C9.96497 16.8775 9.69285 16.3058 9.87763 15.7853Z" fill="black"/>
<path fill-rule="evenodd" clip-rule="evenodd" d="M15.391 15.9765C15.9286 15.85 16.4669 16.1832 16.5934 16.7208C16.79 17.5565 17.2509 19.6114 17.1169 21.3086C17.1167 21.3112 17.1165 21.3139 17.1162 21.3165C17.025 22.3662 16.0922 23.0621 15.0907 22.9315C15.0835 22.9305 15.0764 22.9295 15.0693 22.9285C13.2695 22.6541 11.2273 21.7115 10.7218 21.4782C10.2203 21.2468 10.0006 20.6523 10.232 20.1508C10.4635 19.6494 11.0576 19.4305 11.5591 19.6619C12.067 19.8964 13.7075 20.6422 15.1369 20.9114C15.1853 19.6049 14.8381 17.9927 14.6466 17.1789C14.5201 16.6413 14.8534 16.103 15.391 15.9765Z" fill="black"/>
<path fill-rule="evenodd" clip-rule="evenodd" d="M15.1958 20.6932C15.3928 20.1772 15.9707 19.9187 16.4867 20.1157C17.9745 20.6837 19.8573 20.8893 21.0275 20.9597C21.4206 20.602 22.0296 20.6138 22.4085 20.9942C22.7983 21.3855 22.797 22.0186 22.4057 22.4084C22.213 22.6003 21.9814 22.7486 21.7264 22.8433C21.4739 22.9371 21.2044 22.9761 20.9358 22.9578C19.7225 22.8862 17.5695 22.6699 15.7733 21.9841C15.2573 21.7871 14.9988 21.2091 15.1958 20.6932Z" fill="black"/>
<path fill-rule="evenodd" clip-rule="evenodd" d="M17.3135 4.78341C17.7203 4.4098 18.3529 4.43666 18.7265 4.8434C20.0302 6.26279 21.1403 7.84859 22.0277 9.55944C22.0356 9.57462 22.043 9.59 22.0501 9.60556C22.1711 9.87142 22.2257 10.1627 22.2089 10.4543C22.1922 10.746 22.1048 11.0291 21.9542 11.2794C21.8036 11.5297 21.5943 11.7396 21.3445 11.8909C21.0988 12.0397 20.8212 12.1275 20.5349 12.1471C19.2624 12.2548 17.8428 12.1657 16.3706 11.8818C15.8283 11.7772 15.4735 11.2528 15.5781 10.7105C15.6827 10.1682 16.2071 9.81338 16.7494 9.91797C17.9567 10.1508 19.0917 10.2306 20.0899 10.1737C19.3122 8.7365 18.3596 7.4005 17.2535 6.19635C16.8799 5.78961 16.9068 5.15701 17.3135 4.78341Z" fill="black"/>
<path fill-rule="evenodd" clip-rule="evenodd" d="M20.1509 10.2319C20.6524 10.0005 21.2465 10.2194 21.478 10.7208C21.7113 11.2263 22.6542 13.2694 22.9286 15.0692C22.9295 15.0754 22.9304 15.0815 22.9312 15.0877C23.0159 15.7225 22.7677 16.3966 22.2011 16.7908C21.7477 17.1062 21.1245 16.9943 20.8091 16.5409C20.5255 16.1332 20.5874 15.5882 20.9324 15.2532C20.6834 13.7977 19.9029 12.0807 19.662 11.5589C19.4306 11.0575 19.6495 10.4634 20.1509 10.2319Z" fill="black"/>
<path fill-rule="evenodd" clip-rule="evenodd" d="M5.63701 4.2227C6.02757 4.61318 6.02764 5.24635 5.63715 5.63691C4.05962 7.21477 3.12442 9.32236 3.013 11.5508C2.91071 13.5964 3.50933 15.6101 4.70074 17.2628C4.91389 16.5551 5.09643 15.641 5.23393 14.6861C5.41029 13.4613 5.49997 12.2604 5.49997 11.4999C5.49997 11.178 5.65487 10.8759 5.91617 10.688C6.17747 10.5001 6.51323 10.4494 6.81832 10.5519C8.10997 10.9857 9.66669 11.3676 11.1901 11.1373C11.5829 10.7825 12.1892 10.7945 12.5675 11.1732C12.9578 11.5639 12.9574 12.1971 12.5667 12.5874C12.2858 12.8679 11.9223 13.0506 11.5297 13.1086C10.0664 13.3377 8.64292 13.1318 7.44605 12.8253C7.39846 13.4894 7.32004 14.2313 7.21351 14.9712C7.02945 16.2495 6.74873 17.6141 6.35732 18.5841C6.11609 19.1814 5.59305 19.5711 4.98145 19.6226C4.39716 19.6718 3.84696 19.406 3.48513 18.962C1.75945 16.851 0.879328 14.1742 1.01549 11.4509C1.15167 8.72728 2.29469 6.15134 4.22279 4.22284C4.61328 3.83228 5.24644 3.83221 5.63701 4.2227Z" fill="black"/>
<path fill-rule="evenodd" clip-rule="evenodd" d="M9.19583 11.2566C9.70573 11.0444 10.2911 11.2858 10.5033 11.7957C11.7864 14.8793 12.3618 17.9979 12.1472 20.5348C12.1276 20.8211 12.0398 21.0987 11.891 21.3443C11.7397 21.5942 11.5298 21.8034 11.2796 21.954C11.0293 22.1047 10.7461 22.1921 10.4545 22.2088C10.1629 22.2255 9.87155 22.171 9.6057 22.05C9.60472 22.0496 9.60374 22.0491 9.60276 22.0487C7.87284 21.2544 5.92265 19.7027 4.84909 18.7314C4.43956 18.3609 4.40794 17.7285 4.77847 17.319C5.14901 16.9094 5.78138 16.8778 6.19092 17.2483C7.15578 18.1213 8.77749 19.4004 10.173 20.1037C10.295 18.0003 9.80213 15.3167 8.65675 12.5641C8.44457 12.0541 8.68593 11.4688 9.19583 11.2566Z" fill="black"/>
<path fill-rule="evenodd" clip-rule="evenodd" d="M13.3978 3.10437C11.8192 2.85445 10.2026 3.02941 8.71401 3.61126C8.19962 3.81232 7.61964 3.55832 7.41858 3.04393C7.21752 2.52955 7.47152 1.94956 7.9859 1.7485C9.80526 1.03735 11.7812 0.823517 13.7106 1.12897C15.6394 1.43433 17.4521 2.24767 18.9626 3.48542C19.4063 3.84726 19.6719 4.39727 19.6227 4.98135C19.5711 5.59296 19.1818 6.11589 18.5844 6.35712L18.5832 6.3576L18.5813 6.35836C16.9217 7.0222 13.9856 7.40767 12.1795 7.4791C11.6276 7.50092 11.1626 7.07125 11.1407 6.5194C11.1189 5.96754 11.5486 5.50249 12.1004 5.48066C13.612 5.42088 15.8303 5.12857 17.2624 4.69937C16.1194 3.87321 14.7959 3.3257 13.3978 3.10437Z" fill="black"/>
<path fill-rule="evenodd" clip-rule="evenodd" d="M1.29289 1.29277C1.68342 0.902247 2.31658 0.902247 2.70711 1.29277L22.7071 21.2928C23.0976 21.6833 23.0976 22.3165 22.7071 22.707C22.3166 23.0975 21.6834 23.0975 21.2929 22.707L1.29289 2.70698C0.902369 2.31646 0.902369 1.6833 1.29289 1.29277Z" fill="black"/>
</svg>
