<svg width="24" height="24" viewBox="0 0 24 24" fill="none" xmlns="http://www.w3.org/2000/svg">
<path fill-rule="evenodd" clip-rule="evenodd" d="M15.2929 15.2929C15.6834 14.9024 16.3166 14.9024 16.7071 15.2929C16.9969 15.5827 17.2269 15.9268 17.3837 16.3055C17.5406 16.6842 17.6213 17.0901 17.6213 17.5C17.6213 17.9099 17.5406 18.3158 17.3837 18.6945C17.2269 19.0732 16.9969 19.4173 16.7071 19.7071C16.4173 19.997 16.0732 20.2269 15.6945 20.3837C15.3158 20.5406 14.9099 20.6213 14.5 20.6213C14.0901 20.6213 13.6842 20.5406 13.3055 20.3837C12.9268 20.2269 12.5827 19.997 12.2929 19.7071L10.2929 17.7071C9.90237 17.3166 9.90237 16.6834 10.2929 16.2929C10.6834 15.9024 11.3166 15.9024 11.7071 16.2929L13.7071 18.2929C13.8112 18.397 13.9348 18.4796 14.0709 18.536C14.2069 18.5923 14.3527 18.6213 14.5 18.6213C14.6473 18.6213 14.7931 18.5923 14.9291 18.536C15.0652 18.4796 15.1888 18.397 15.2929 18.2929C15.397 18.1888 15.4796 18.0652 15.536 17.9291C15.5923 17.7931 15.6213 17.6473 15.6213 17.5C15.6213 17.3528 15.5923 17.2069 15.536 17.0709C15.4796 16.9349 15.397 16.8112 15.2929 16.7071C14.9024 16.3166 14.9024 15.6834 15.2929 15.2929Z" fill="black"/>
<path fill-rule="evenodd" clip-rule="evenodd" d="M16.8568 4.67831C15.942 4.13133 14.8708 3.90512 13.8129 4.03548C12.7552 4.16582 11.7712 4.64517 11.0166 5.39766C11.0164 5.39779 11.0167 5.39753 11.0166 5.39766L8.2071 8.20712C7.99681 8.41741 7.87867 8.70262 7.87867 9.00002C7.87867 9.29741 7.99681 9.58262 8.2071 9.79291C8.41739 10.0032 8.7026 10.1213 8.99999 10.1213C9.29738 10.1213 9.5826 10.0032 9.79288 9.79291L10.6733 8.91247C11.4233 8.1634 12.44 7.74266 13.5 7.74266C14.56 7.74266 15.5767 8.1634 16.3267 8.91247L20.2071 12.7929C20.7925 13.3783 21.1213 14.1722 21.1213 15C21.1213 15.8278 20.7925 16.6218 20.2071 17.2071C19.6217 17.7925 18.8278 18.1213 18 18.1213C17.1722 18.1213 16.3782 17.7925 15.7929 17.2071L13.2929 14.7071C12.9024 14.3166 12.9024 13.6834 13.2929 13.2929C13.6834 12.9024 14.3166 12.9024 14.7071 13.2929L17.2071 15.7929C17.4174 16.0032 17.7026 16.1213 18 16.1213C18.2974 16.1213 18.5826 16.0032 18.7929 15.7929C19.0032 15.5826 19.1213 15.2974 19.1213 15C19.1213 14.7026 19.0032 14.4174 18.7929 14.2071L14.9133 10.3276C14.5383 9.95303 14.03 9.74266 13.5 9.74266C12.9702 9.74266 12.4621 9.95286 12.0871 10.3271L11.2071 11.2071C10.6217 11.7925 9.82782 12.1213 8.99999 12.1213C8.17217 12.1213 7.37825 11.7925 6.79289 11.2071C6.20752 10.6218 5.87867 9.82784 5.87867 9.00002C5.87867 8.17219 6.20752 7.37827 6.79289 6.79291L9.60381 3.98198C10.6736 2.91499 12.0687 2.23529 13.5683 2.0505C15.0676 1.86574 16.5857 2.18624 17.8824 2.96126C17.8821 2.9611 17.8826 2.96141 17.8824 2.96126L18.3518 3.24092C18.3534 3.2419 18.3551 3.24288 18.3567 3.24387C18.5691 3.37208 18.8216 3.41673 19.0651 3.36919C19.0656 3.36908 19.0662 3.36898 19.0667 3.36887L20.8028 3.01965C21.3442 2.91074 21.8714 3.26138 21.9804 3.80282C22.0893 4.34426 21.7386 4.87147 21.1972 4.98038L19.4572 5.33038C19.4559 5.33064 19.4546 5.3309 19.4533 5.33116C18.7224 5.47514 17.9641 5.34202 17.326 4.95779C17.3251 4.95725 17.3242 4.95671 17.3233 4.95616L16.8568 4.67831Z" fill="black"/>
<path fill-rule="evenodd" clip-rule="evenodd" d="M20.9095 2.00412C21.4595 1.95412 21.9459 2.35946 21.9959 2.90948L22.9959 13.9095C23.0213 14.1893 22.9279 14.4669 22.7384 14.6744C22.549 14.8818 22.281 15 22 15H20C19.4477 15 19 14.5523 19 14C19 13.4477 19.4477 13 20 13H20.905L20.0041 3.09055C19.9541 2.54053 20.3594 2.05412 20.9095 2.00412Z" fill="black"/>
<path fill-rule="evenodd" clip-rule="evenodd" d="M3.09054 2.00412C3.64056 2.05412 4.0459 2.54053 3.9959 3.09055L3.0383 13.6241L9.20711 19.7929C9.4174 20.0032 9.70261 20.1213 10 20.1213C10.2974 20.1213 10.5826 20.0032 10.7929 19.7929C11.0032 19.5826 11.1213 19.2974 11.1213 19C11.1213 18.7026 11.0032 18.4174 10.7929 18.2071C10.4024 17.8166 10.4024 17.1834 10.7929 16.7929C11.1834 16.4024 11.8166 16.4024 12.2071 16.7929C12.7925 17.3783 13.1213 18.1722 13.1213 19C13.1213 19.8278 12.7925 20.6218 12.2071 21.2071C11.6218 21.7925 10.8278 22.1213 10 22.1213C9.17218 22.1213 8.37826 21.7925 7.7929 21.2071L1.2929 14.7071C1.08304 14.4973 0.977242 14.205 1.00411 13.9095L2.00411 2.90948C2.05411 2.35946 2.54052 1.95412 3.09054 2.00412Z" fill="black"/>
<path fill-rule="evenodd" clip-rule="evenodd" d="M2 4.00001C2 3.44773 2.44772 3.00001 3 3.00001H11C11.5523 3.00001 12 3.44773 12 4.00001C12 4.5523 11.5523 5.00001 11 5.00001H3C2.44772 5.00001 2 4.5523 2 4.00001Z" fill="black"/>
</svg>
