<svg width="24" height="24" viewBox="0 0 24 24" fill="none" xmlns="http://www.w3.org/2000/svg">
<path d="M14.2935 10.4997C14.2934 10.8973 14.1351 11.279 13.854 11.5602L11.9146 13.4997L12.7075 14.2927C13.0979 14.6834 13.0972 15.3174 12.7065 15.7077C12.3158 16.0978 11.6827 16.0973 11.2925 15.7067L10.1479 14.5593L10.147 14.5602C9.90082 14.314 9.74933 13.9906 9.71533 13.6472L9.70752 13.4997L9.71533 13.3513C9.74941 13.0079 9.90091 12.6853 10.147 12.4391L12.0864 10.4987L10.2866 8.69696C10.0051 8.41508 9.91744 7.99221 10.064 7.62177C10.3833 6.81452 10.9054 6.01295 11.6606 5.16083C12.0269 4.74756 12.6585 4.70963 13.0718 5.07587C13.485 5.4421 13.5237 6.07369 13.1577 6.487C12.7308 6.96867 12.4224 7.3962 12.2017 7.78388L13.855 9.43915C14.1362 9.72044 14.2935 10.102 14.2935 10.4997Z" fill="black"/>
<path d="M21 9.49998C21 8.58952 20.7239 7.70037 20.208 6.95017C19.6921 6.19996 18.9605 5.62368 18.1104 5.29783C17.2603 4.97207 16.3313 4.91182 15.4463 5.12498C14.5611 5.33819 13.7609 5.81494 13.1523 6.49216C13.1323 6.51441 13.1118 6.53625 13.0898 6.55662C12.7935 6.83203 12.4036 6.98473 11.999 6.98435C11.5942 6.98386 11.204 6.82997 10.9082 6.55369C10.887 6.53387 10.8671 6.51277 10.8477 6.49119C10.2391 5.81392 9.43892 5.3372 8.55371 5.124C7.66848 4.91081 6.73887 4.9709 5.88867 5.29685C5.03858 5.62282 4.30777 6.19992 3.79199 6.95017C3.27625 7.70046 2.99985 8.58952 3 9.49998C3.00003 11.3395 4.18607 12.7707 5.69531 14.2812L11.2031 19.6133C11.2205 19.6301 11.2378 19.6479 11.2539 19.666C11.3484 19.7717 11.4641 19.8565 11.5938 19.914C11.7234 19.9716 11.864 20.0009 12.0059 20C12.1477 19.9991 12.288 19.9674 12.417 19.9082C12.5458 19.849 12.6608 19.7632 12.7539 19.6562L12.8125 19.5937L18.3047 14.2812C19.8131 12.7716 21 11.33 21 9.49998ZM23 9.49998C23 12.2451 21.1931 14.221 19.707 15.707C19.7031 15.7109 19.6993 15.7149 19.6953 15.7187L14.2217 21.0117C13.9493 21.3125 13.6201 21.5561 13.251 21.7256C12.8642 21.9031 12.4442 21.9973 12.0186 22C11.5929 22.0027 11.1712 21.9138 10.7822 21.7412C10.4099 21.5759 10.0754 21.3366 9.79883 21.0381L4.30469 15.7187C4.30081 15.715 4.29678 15.7108 4.29297 15.707C2.85417 14.2682 1.11227 12.378 1.00488 9.75584L1 9.49998C0.999803 8.18478 1.39848 6.90018 2.14355 5.81638C2.88859 4.73271 3.94494 3.90048 5.17285 3.42966C6.40079 2.9589 7.74294 2.87183 9.02148 3.17966C10.1439 3.44998 11.1711 4.01413 12 4.80955C12.8287 4.01451 13.8555 3.45095 14.9775 3.18064C16.2561 2.87266 17.5982 2.95999 18.8262 3.43064C20.0542 3.90131 21.1103 4.73373 21.8555 5.81736C22.6006 6.90097 23 8.18489 23 9.49998Z" fill="black"/>
</svg>
