<svg width="24" height="24" viewBox="0 0 24 24" fill="none" xmlns="http://www.w3.org/2000/svg">
<path d="M10 21V17C10 16.4477 10.4477 16 11 16C11.5523 16 12 16.4477 12 17V21C12 21.5523 11.5523 22 11 22C10.4477 22 10 21.5523 10 21Z" fill="black"/>
<path d="M13 11V3C13 2.44772 13.4477 2 14 2C14.5523 2 15 2.44772 15 3V11C15 11.2652 15.1054 11.5195 15.293 11.707C15.4805 11.8946 15.7348 12 16 12H21.8652C22.4174 12.0001 22.8652 12.4478 22.8652 13C22.8652 13.5522 22.4174 13.9999 21.8652 14H16C15.2043 14 14.4415 13.6837 13.8789 13.1211C13.3163 12.5585 13 11.7957 13 11Z" fill="black"/>
<path d="M16 21V17C16 16.4477 16.4477 16 17 16C17.5523 16 18 16.4477 18 17V21C18 21.5523 17.5523 22 17 22C16.4477 22 16 21.5523 16 21Z" fill="black"/>
<path d="M7 12C7 10.3437 7.79095 8.8015 9.11719 7.69629C10.4381 6.59551 12.1965 6 14 6C16.3083 6 18.5611 6.68528 20.2568 7.95703C21.9581 9.23299 23 11.0354 23 13C23 14.3261 22.4728 15.5975 21.5352 16.5352C20.5975 17.4728 19.3261 18 18 18H10C9.20435 18 8.44151 17.6837 7.87891 17.1211C7.3163 16.5585 7 15.7957 7 15V12ZM9 15C9 15.2652 9.10543 15.5195 9.29297 15.707C9.4805 15.8946 9.73478 16 10 16H18C18.7957 16 19.5585 15.6837 20.1211 15.1211C20.6837 14.5585 21 13.7956 21 13C21 11.782 20.3559 10.5321 19.0566 9.55762C17.7518 8.57901 15.9351 8 14 8C12.621 8 11.327 8.45788 10.3975 9.23242C9.47327 10.0026 9 11.0041 9 12V15Z" fill="black"/>
<path d="M1 15V10C1 9.44772 1.44772 9 2 9C2.55228 9 3 9.44772 3 10V15C3 15.5523 2.55228 16 2 16C1.44772 16 1 15.5523 1 15Z" fill="black"/>
<path d="M22 2C22.5523 2 23 2.44772 23 3C23 3.55228 22.5523 4 22 4H6C5.44772 4 5 3.55228 5 3C5 2.44772 5.44772 2 6 2H22Z" fill="black"/>
<path d="M21 20C21.5523 20 22 20.4477 22 21C22 21.5523 21.5523 22 21 22H7C6.44772 22 6 21.5523 6 21C6 20.4477 6.44772 20 7 20H21Z" fill="black"/>
<path d="M8 12C8.55228 12 9 12.4477 9 13C9 13.5523 8.55228 14 8 14H2C1.44772 14 1 13.5523 1 13C1 12.4477 1.44772 12 2 12H8Z" fill="black"/>
</svg>
