<svg width="24" height="24" viewBox="0 0 24 24" fill="none" xmlns="http://www.w3.org/2000/svg">
<path d="M14 21V13H10V21C10 21.5523 9.55228 22 9 22C8.44772 22 8 21.5523 8 21V13C8 12.4696 8.21087 11.961 8.58594 11.5859C8.96101 11.2109 9.46957 11 10 11H14C14.5304 11 15.039 11.2109 15.4141 11.5859C15.7891 11.961 16 12.4696 16 13V21C16 21.5523 15.5523 22 15 22C14.4477 22 14 21.5523 14 21Z" fill="black"/>
<path d="M20 9.99951C20 9.85414 19.9684 9.71048 19.9072 9.57861C19.846 9.44668 19.7566 9.32973 19.6455 9.23584L19.6406 9.23096L12.6455 3.23486C12.465 3.08232 12.2363 2.99951 12 2.99951C11.7637 2.99951 11.535 3.08329 11.3545 3.23584L11.3535 3.23486L4.35938 9.23096L4.35449 9.23584C4.24341 9.32973 4.15399 9.44668 4.09277 9.57861C4.03159 9.71048 4 9.85415 4 9.99951V18.9995C4 19.2647 4.10543 19.52 4.29297 19.7075C4.48048 19.8949 4.7349 19.9995 5 19.9995H19C19.2651 19.9995 19.5195 19.8949 19.707 19.7075C19.8946 19.52 20 19.2647 20 18.9995V9.99951ZM22 18.9995C22 19.7952 21.6837 20.559 21.1211 21.1216C20.5585 21.684 19.7955 21.9995 19 21.9995H5C4.20447 21.9995 3.44149 21.684 2.87891 21.1216C2.3163 20.559 2 19.7952 2 18.9995V9.99951C2 9.56341 2.09478 9.13242 2.27832 8.73682C2.46197 8.34101 2.73024 7.99017 3.06348 7.7085L10.0586 1.7124L10.0635 1.7085C10.605 1.25086 11.291 0.999512 12 0.999512C12.6202 0.999512 13.2229 1.19185 13.7266 1.54639L13.9365 1.7085L13.9414 1.7124L20.9365 7.7085L21.0586 7.81689C21.3356 8.0782 21.561 8.39045 21.7217 8.73682C21.9052 9.13242 22 9.56341 22 9.99951V18.9995Z" fill="black"/>
</svg>
