<svg width="24" height="24" viewBox="0 0 24 24" fill="none" xmlns="http://www.w3.org/2000/svg">
<path d="M14.293 11.293C14.6835 10.9025 15.3165 10.9025 15.707 11.293C16.0976 11.6835 16.0976 12.3165 15.707 12.707L6.33398 22.0801C6.0442 22.3699 5.69992 22.5999 5.32129 22.7568C4.94266 22.9137 4.53679 22.9951 4.12695 22.9951C3.29924 22.9952 2.50538 22.6662 1.91992 22.0811C1.3344 21.4957 1.00502 20.701 1.00488 19.8731C1.00487 19.0453 1.33373 18.2514 1.91895 17.666L11.293 8.29298C11.6835 7.9025 12.3165 7.9025 12.707 8.29298C13.0975 8.68352 13.0976 9.31654 12.707 9.70704L3.33301 19.0801C3.12284 19.2904 3.00487 19.5757 3.00488 19.8731C3.00493 20.1705 3.12359 20.4557 3.33398 20.666C3.54437 20.8763 3.82951 20.9952 4.12695 20.9951C4.27409 20.9951 4.41972 20.9655 4.55566 20.9092C4.69174 20.8528 4.81578 20.7702 4.91992 20.666L14.293 11.293Z" fill="black"/>
<path d="M21.2929 10.293C21.6834 9.90249 22.3164 9.90249 22.707 10.293C23.0975 10.6835 23.0975 11.3166 22.707 11.7071L18.707 15.7071C18.3164 16.0976 17.6834 16.0976 17.2929 15.7071C16.9024 15.3166 16.9024 14.6835 17.2929 14.293L21.2929 10.293Z" fill="black"/>
<path d="M18 8.17188V7.82812C17.9999 7.56296 17.8945 7.30857 17.707 7.12109L16.0498 5.46387C15.1124 4.52677 13.8411 4.00028 12.5156 4H11.372C12.4187 5.2535 12.9999 6.83919 13 8.48535V9.58594L14.414 11H15.1718C15.9674 11.0002 16.7305 11.3164 17.2929 11.8789L19.207 13.793C19.5975 14.1835 19.5975 14.8165 19.207 15.207C18.8165 15.5976 18.1835 15.5976 17.7929 15.207L15.8789 13.293C15.7148 13.1288 15.4994 13.0276 15.2705 13.0049L15.1718 13H14C13.7348 13 13.4805 12.8946 13.2929 12.707L11.2929 10.707C11.1054 10.5195 11 10.2652 11 10V8.48535C10.9999 7.1596 10.4734 5.88777 9.5361 4.9502L8.29294 3.70703C8.00694 3.42103 7.92136 2.99086 8.07614 2.61719C8.23095 2.24359 8.59556 2 8.99997 2H12.5166C14.3722 2.0005 16.1516 2.73783 17.4638 4.0498L19.1211 5.70703L19.3203 5.92676C19.7577 6.46048 19.9998 7.13198 20 7.82812V8.17188L20.0049 8.27051C20.0276 8.49945 20.1288 8.71482 20.2929 8.87891L22.207 10.793C22.5975 11.1835 22.5975 11.8165 22.207 12.207C21.8165 12.5976 21.1835 12.5976 20.7929 12.207L18.8789 10.293C18.3163 9.73051 18.0001 8.96738 18 8.17188Z" fill="black"/>
</svg>
