<svg width="24" height="24" viewBox="0 0 24 24" fill="none" xmlns="http://www.w3.org/2000/svg">
<path fill-rule="evenodd" clip-rule="evenodd" d="M18.657 14C18.657 13.4477 19.1047 13 19.657 13H21C21.5523 13 22 13.4477 22 14C22 14.5523 21.5523 15 21 15H19.657C19.1047 15 18.657 14.5523 18.657 14Z" fill="black"/>
<path fill-rule="evenodd" clip-rule="evenodd" d="M13.1886 4.08824C11.9329 3.8996 10.6504 4.01254 9.44712 4.41772C8.92371 4.59396 8.35653 4.31252 8.18029 3.78911C8.00405 3.2657 8.28548 2.69852 8.80889 2.52228C10.3131 2.01581 11.9162 1.87463 13.4857 2.11043C15.0552 2.34623 16.5461 2.95223 17.835 3.87833C19.124 4.80443 20.1739 6.02402 20.8982 7.43629C21.6224 8.84853 22.0001 10.4129 22 12C22 12 22 12 22 12V15.343C22 15.8953 21.5523 16.343 21 16.343C20.4477 16.343 20 15.8953 20 15.343V11.9999C20.0001 10.7302 19.6979 9.47873 19.1185 8.34892C18.5392 7.21911 17.6992 6.24343 16.668 5.50255C15.6369 4.76168 14.4442 4.27688 13.1886 4.08824Z" fill="black"/>
<path fill-rule="evenodd" clip-rule="evenodd" d="M1.29289 1.29289C1.68342 0.902369 2.31658 0.902369 2.70711 1.29289L22.7071 21.2929C23.0976 21.6834 23.0976 22.3166 22.7071 22.7071C22.3166 23.0976 21.6834 23.0976 21.2929 22.7071L1.29289 2.70711C0.902369 2.31658 0.902369 1.68342 1.29289 1.29289Z" fill="black"/>
<path fill-rule="evenodd" clip-rule="evenodd" d="M16 15C16.5523 15 17 15.4477 17 16V19C17 19.2652 17.1054 19.5196 17.2929 19.7071C17.4804 19.8946 17.7348 20 18 20H18.9998C18.9997 20 18.9999 20 18.9998 20C19.2649 19.9999 19.5193 19.8945 19.7068 19.707C20.0972 19.3164 20.7304 19.3163 21.121 19.7068C21.5116 20.0972 21.5117 20.7304 21.1212 21.121C20.5587 21.6836 19.7958 21.9998 19.0002 22H18C17.2043 22 16.4413 21.6839 15.8787 21.1213C15.3161 20.5587 15 19.7957 15 19V16C15 15.4477 15.4477 15 16 15Z" fill="black"/>
<path fill-rule="evenodd" clip-rule="evenodd" d="M6.3431 4.92889C6.73363 5.31941 6.73363 5.95258 6.34311 6.3431C5.60024 7.08598 5.01097 7.9679 4.60894 8.93851C4.20691 9.90912 3.99999 10.9494 4 12V13H6C6.79565 13 7.55871 13.3161 8.12132 13.8787C8.68393 14.4413 9 15.2044 9 16V19C9 19.7957 8.68393 20.5587 8.12132 21.1213C7.55871 21.6839 6.79565 22 6 22H5C4.20435 22 3.44129 21.6839 2.87868 21.1213C2.31607 20.5587 2 19.7957 2 19V12C1.99999 10.6868 2.25864 9.38642 2.76118 8.17316C3.26372 6.95989 4.00031 5.85749 4.92889 4.9289C5.31941 4.53837 5.95258 4.53837 6.3431 4.92889ZM4 15V19C4 19.2652 4.10536 19.5196 4.29289 19.7071C4.48043 19.8946 4.73478 20 5 20H6C6.26522 20 6.51957 19.8946 6.70711 19.7071C6.89464 19.5196 7 19.2652 7 19V16C7 15.7348 6.89464 15.4804 6.70711 15.2929C6.51957 15.1054 6.26522 15 6 15H4Z" fill="black"/>
</svg>
