<svg width="24" height="24" viewBox="0 0 24 24" fill="none" xmlns="http://www.w3.org/2000/svg">
<path d="M15.8281 7.99805C16.2761 7.99805 16.72 8.08636 17.1338 8.25782C17.5475 8.42928 17.9236 8.68031 18.2402 8.99708L20.1211 10.8789L20.3203 11.0986C20.402 11.1984 20.4742 11.3045 20.542 11.4131C20.8482 10.8173 21 10.2095 21 9.50001C21 8.58956 20.7239 7.7004 20.208 6.9502C19.6921 6.2 18.9605 5.62371 18.1104 5.29786C17.2603 4.9721 16.3313 4.91185 15.4463 5.12501C14.5611 5.33823 13.7609 5.81497 13.1523 6.49219C13.1381 6.50807 13.1237 6.52414 13.1084 6.53907L10.293 9.29298L10.2266 9.36622C10.0809 9.54413 10 9.76803 10 10C10 10.2651 10.1056 10.5195 10.293 10.707C10.4805 10.8944 10.7349 10.999 11 10.999C11.2651 10.999 11.5195 10.8944 11.707 10.707L13.417 8.99708C13.7336 8.6803 14.1096 8.42927 14.5234 8.25782C14.9371 8.08642 15.3803 7.9981 15.8281 7.99805ZM3.01367 9.84083C3.14976 11.519 4.28056 12.8653 5.69531 14.2813L11.2305 19.6436C11.243 19.6557 11.2557 19.6679 11.2676 19.6807C11.3591 19.779 11.4691 19.8583 11.5918 19.9131C11.7145 19.9679 11.8471 19.9976 11.9814 20C12.1158 20.0024 12.2494 19.9771 12.374 19.9268C12.4984 19.8765 12.6112 19.8018 12.7061 19.707C12.81 19.6029 12.893 19.4797 12.9492 19.3438C13.0054 19.2077 13.0344 19.0613 13.0342 18.9141C13.0339 18.767 13.0048 18.6212 12.9482 18.4854C12.8935 18.3538 12.8134 18.2346 12.7139 18.1328C12.6987 18.1168 12.6828 18.1014 12.668 18.085C12.3044 17.6829 12.3272 17.0634 12.7197 16.6895C13.1121 16.3156 13.7311 16.3229 14.1152 16.7051C14.1275 16.7173 14.1393 16.7308 14.1514 16.7432C14.2536 16.8562 14.3781 16.9472 14.5166 17.0107C14.655 17.0743 14.8048 17.1094 14.957 17.1133C15.1093 17.1171 15.2609 17.0897 15.4023 17.0332C15.5438 16.9767 15.6725 16.8919 15.7803 16.7842C15.888 16.6765 15.9728 16.5477 16.0293 16.4063C16.0858 16.2648 16.1132 16.1132 16.1094 15.9609C16.1055 15.8087 16.0704 15.6589 16.0068 15.5205C15.9433 15.382 15.8523 15.2575 15.7393 15.1553C15.7275 15.1439 15.7147 15.1327 15.7031 15.1211C15.3196 14.7375 15.3117 14.1177 15.6855 13.7246C16.0594 13.3317 16.6787 13.3081 17.0811 13.6719C17.0971 13.6864 17.1122 13.702 17.1279 13.7168C17.23 13.8162 17.3498 13.8956 17.4814 13.9502C17.6178 14.0067 17.7645 14.0361 17.9121 14.0361C18.0596 14.0361 18.2055 14.0066 18.3418 13.9502C18.4782 13.8937 18.6027 13.8114 18.707 13.707C18.8944 13.5195 19 13.2651 19 13C19 12.7349 18.8944 12.4805 18.707 12.293L16.8262 10.4111C16.6953 10.2802 16.5392 10.1764 16.3682 10.1055C16.1971 10.0346 16.0133 9.99805 15.8281 9.99805C15.6431 9.9981 15.46 10.0347 15.2891 10.1055C15.118 10.1764 14.962 10.2801 14.8311 10.4111L13.1211 12.1211C12.5585 12.6835 11.7955 12.999 11 12.999C10.3038 12.999 9.63246 12.7577 9.09863 12.3203L8.87891 12.1211C8.31652 11.5585 8.00003 10.7955 8 10C8 9.20451 8.31649 8.4415 8.87891 7.87891L8.88672 7.8711L10.5752 6.21778C10.0085 5.68694 9.31289 5.30889 8.55371 5.12598C7.66874 4.91284 6.73967 4.97313 5.88965 5.29884C5.03963 5.62458 4.30791 6.20023 3.79199 6.9502C3.27605 7.70025 3.0002 8.58964 3 9.50001L3.01367 9.84083ZM23 9.50001C23 11.9216 21.7432 13.499 20.1211 15.1211C19.831 15.4112 19.4864 15.6409 19.1074 15.7979C18.789 15.9298 18.4515 16.0067 18.1084 16.0283C18.1036 16.4118 18.0293 16.7917 17.8867 17.1484C17.7296 17.5417 17.4938 17.8988 17.1943 18.1982C16.8949 18.4977 16.5378 18.7335 16.1445 18.8906C15.7887 19.0328 15.4099 19.1072 15.0273 19.1123C15.0058 19.4536 14.9287 19.7895 14.7979 20.1065C14.6414 20.4853 14.4116 20.8301 14.1221 21.1201L14.1211 21.1211C13.8362 21.406 13.4967 21.6303 13.123 21.7813C12.7492 21.9322 12.3484 22.0063 11.9453 21.999C11.5422 21.9917 11.1445 21.9036 10.7764 21.7393C10.4241 21.582 10.1062 21.3578 9.83887 21.0801L4.30469 15.7178C4.3009 15.7141 4.29669 15.7108 4.29297 15.707C2.8078 14.2219 1.00004 12.2557 1 9.50001C1.00026 8.18505 1.39934 6.9008 2.14453 5.81739C2.88971 4.73409 3.94607 3.9022 5.17383 3.43165C6.40177 2.96113 7.74404 2.87365 9.02246 3.18165C10.1442 3.45191 11.1705 4.01579 11.999 4.81055C12.8279 4.01501 13.8551 3.45109 14.9775 3.18067C16.2561 2.87269 17.5982 2.96002 18.8262 3.43067C20.0542 3.90134 21.1103 4.73376 21.8555 5.81739C22.6006 6.901 23 8.18493 23 9.50001Z" fill="black"/>
</svg>
