<svg width="24" height="24" viewBox="0 0 24 24" fill="none" xmlns="http://www.w3.org/2000/svg">
<path fill-rule="evenodd" clip-rule="evenodd" d="M7.85592 10.9283C8.40018 10.2574 9.21591 10 10 10H13C13.7957 10 14.5587 10.3161 15.1213 10.8787C15.6839 11.4413 16 12.2043 16 13C16 13.7957 15.6839 14.5587 15.1213 15.1213C14.5587 15.6839 13.7957 16 13 16H11C10.4477 16 10 15.5523 10 15C10 14.4477 10.4477 14 11 14H13C13.2652 14 13.5196 13.8946 13.7071 13.7071C13.8946 13.5196 14 13.2652 14 13C14 12.7348 13.8946 12.4804 13.7071 12.2929C13.5196 12.1054 13.2652 12 13 12H10C9.61142 12 9.45673 12.1244 9.4 12.2C9.36797 12.2427 9.33257 12.2828 9.29414 12.3198L3.69414 17.7198C3.29658 18.1032 2.66352 18.0917 2.28016 17.6941C1.8968 17.2966 1.90831 16.6635 2.30587 16.2802L7.85592 10.9283Z" fill="black"/>
<path fill-rule="evenodd" clip-rule="evenodd" d="M17.9666 9.75992C18.5449 9.21518 19.3156 8.92183 20.1098 8.94429C20.9057 8.96678 21.66 9.3045 22.2068 9.88315C22.7537 10.4618 23.0482 11.234 23.0257 12.0298C23.0033 12.8246 22.6664 13.5779 22.0892 14.1246L22.0869 14.1268L17.5213 18.4939C16.6078 19.516 15.3317 20 14 20H10C9.61144 20 9.45674 20.1244 9.40001 20.2C9.35828 20.2556 9.31086 20.3068 9.25852 20.3526L7.65852 21.7526C7.24288 22.1163 6.61112 22.0741 6.24744 21.6585C5.88376 21.2429 5.92587 20.6111 6.34151 20.2474L7.87346 18.907C8.41761 18.2519 9.2243 18 10 18H14C14.8531 18 15.563 17.6951 16.0474 17.1415C16.0669 17.1192 16.0874 17.0978 16.1088 17.0774L20.7088 12.6774C20.7102 12.676 20.7117 12.6746 20.7132 12.6732C20.9063 12.4907 21.019 12.2389 21.0265 11.9733C21.034 11.7077 20.9357 11.45 20.7532 11.2568C20.5707 11.0637 20.3189 10.951 20.0533 10.9435C19.7877 10.936 19.53 11.0343 19.3369 11.2168C19.3347 11.2188 19.3326 11.2208 19.3305 11.2228L15.1305 15.1228C14.7258 15.4986 14.093 15.4752 13.7172 15.0705C13.3414 14.6657 13.3649 14.033 13.7696 13.6572L17.9666 9.75992Z" fill="black"/>
<path fill-rule="evenodd" clip-rule="evenodd" d="M1.29289 15.2929C1.68342 14.9024 2.31658 14.9024 2.70711 15.2929L8.70711 21.2929C9.09763 21.6834 9.09763 22.3166 8.70711 22.7071C8.31658 23.0976 7.68342 23.0976 7.29289 22.7071L1.29289 16.7071C0.902369 16.3166 0.902369 15.6834 1.29289 15.2929Z" fill="black"/>
<path fill-rule="evenodd" clip-rule="evenodd" d="M16 7.10001C14.9507 7.10001 14.1 7.95067 14.1 9.00001C14.1 10.0494 14.9507 10.9 16 10.9C17.0493 10.9 17.9 10.0494 17.9 9.00001C17.9 7.95067 17.0493 7.10001 16 7.10001ZM12.1 9.00001C12.1 6.8461 13.8461 5.10001 16 5.10001C18.1539 5.10001 19.9 6.8461 19.9 9.00001C19.9 11.1539 18.1539 12.9 16 12.9C13.8461 12.9 12.1 11.1539 12.1 9.00001Z" fill="black"/>
<path fill-rule="evenodd" clip-rule="evenodd" d="M6 3C4.89543 3 4 3.89543 4 5C4 6.10457 4.89543 7 6 7C7.10457 7 8 6.10457 8 5C8 3.89543 7.10457 3 6 3ZM2 5C2 2.79086 3.79086 1 6 1C8.20914 1 10 2.79086 10 5C10 7.20914 8.20914 9 6 9C3.79086 9 2 7.20914 2 5Z" fill="black"/>
</svg>
