<svg width="24" height="24" viewBox="0 0 24 24" fill="none" xmlns="http://www.w3.org/2000/svg">
<path d="M20 12.3501V9.99951C20.0001 9.85387 19.9685 9.70975 19.9072 9.57764C19.8459 9.4455 19.7559 9.32785 19.6445 9.23389L19.6396 9.229L12.6445 3.23291C12.4642 3.0809 12.2359 2.99854 12 2.99854C11.7641 2.99854 11.5358 3.08187 11.3555 3.23389L11.3545 3.23291L4.36035 9.229L4.35547 9.23486L4.35449 9.23389C4.2432 9.32784 4.15408 9.44552 4.09277 9.57764C4.03148 9.70975 3.99988 9.85387 4 9.99951V19.0005C4.00009 19.2656 4.10551 19.5201 4.29297 19.7075C4.48049 19.895 4.73486 20.0005 5 20.0005H12.3496C12.9019 20.0005 13.3496 20.4482 13.3496 21.0005C13.3494 21.5526 12.9018 22.0005 12.3496 22.0005H5C4.20443 22.0005 3.4415 21.6841 2.87891 21.1216C2.31637 20.559 2.00008 19.796 2 19.0005V10.0005C1.99972 9.56373 2.09451 9.13204 2.27832 8.73584C2.46228 8.33942 2.73147 7.98744 3.06543 7.70557L10.0596 1.71045L10.0654 1.70557C10.6066 1.24896 11.2919 0.998535 12 0.998535C12.6198 0.998535 13.2221 1.19039 13.7256 1.54443L13.9346 1.70557L13.9404 1.71045L20.9346 7.70557C21.2685 7.98745 21.5377 8.33942 21.7217 8.73584C21.9055 9.13204 22.0003 9.56373 22 10.0005V12.3501C22 12.9024 21.5523 13.3501 21 13.3501C20.4477 13.3501 20 12.9024 20 12.3501Z" fill="black"/>
<path d="M8 21.0001V13.0001C8 12.4697 8.21087 11.9611 8.58594 11.5861C8.96101 11.211 9.46957 11.0001 10 11.0001H14C14.3105 11.0001 14.6168 11.0722 14.8945 11.2111C15.1721 11.3499 15.4133 11.5517 15.5996 11.7999C15.9309 12.2417 15.8421 12.8689 15.4004 13.2003C14.9862 13.5109 14.409 13.4517 14.0654 13.0792L14 13.0001H10V21.0001C10 21.5524 9.55228 22.0001 9 22.0001C8.44772 22.0001 8 21.5524 8 21.0001Z" fill="black"/>
<path d="M21 17.0001C21.5523 17.0001 22 17.4478 22 18.0001C22 18.5524 21.5523 19.0001 21 19.0001H15C14.4477 19.0001 14 18.5524 14 18.0001C14 17.4478 14.4477 17.0001 15 17.0001H21Z" fill="black"/>
<path d="M17 21.0001V15.0001C17 14.4478 17.4477 14.0001 18 14.0001C18.5523 14.0001 19 14.4478 19 15.0001V21.0001C19 21.5524 18.5523 22.0001 18 22.0001C17.4477 22.0001 17 21.5524 17 21.0001Z" fill="black"/>
</svg>
