<svg width="24" height="24" viewBox="0 0 24 24" fill="none" xmlns="http://www.w3.org/2000/svg">
<path fill-rule="evenodd" clip-rule="evenodd" d="M3 12C3 11.4477 3.44772 11 4 11H12C12.5523 11 13 11.4477 13 12C13 12.5523 12.5523 13 12 13H4C3.44772 13 3 12.5523 3 12Z" fill="black"/>
<path fill-rule="evenodd" clip-rule="evenodd" d="M4 5C4.55228 5 5 5.44772 5 6V18C5 18.5523 4.55228 19 4 19C3.44772 19 3 18.5523 3 18V6C3 5.44772 3.44772 5 4 5Z" fill="black"/>
<path fill-rule="evenodd" clip-rule="evenodd" d="M12 5C12.5523 5 13 5.44772 13 6V18C13 18.5523 12.5523 19 12 19C11.4477 19 11 18.5523 11 18V6C11 5.44772 11.4477 5 12 5Z" fill="black"/>
<path fill-rule="evenodd" clip-rule="evenodd" d="M19.4609 11.2169C19.1136 11.0531 18.5877 11.0204 18.007 11.3619C17.531 11.642 16.9181 11.4831 16.6381 11.007C16.358 10.531 16.5169 9.91809 16.993 9.63807C18.1124 8.97962 19.3364 8.94691 20.3141 9.40807C21.284 9.86558 22 10.818 22 12C22 12.7957 21.6839 13.5587 21.1213 14.1213C20.5587 14.6839 19.7957 15 19 15C18.4477 15 18 14.5523 18 14C18 13.4477 18.4477 13 19 13C19.2652 13 19.5196 12.8946 19.7071 12.7071C19.8946 12.5196 20 12.2652 20 12C20 11.6821 19.816 11.3844 19.4609 11.2169Z" fill="black"/>
<path fill-rule="evenodd" clip-rule="evenodd" d="M18 14C18 13.4477 18.4477 13 19 13C19.7957 13 20.5587 13.3161 21.1213 13.8787C21.6839 14.4413 22 15.2043 22 16C22 17.2853 21.2767 18.3971 20.1603 18.8994C19.0256 19.41 17.642 19.2315 16.4 18.3C15.9582 17.9686 15.8686 17.3418 16.2 16.9C16.5314 16.4582 17.1582 16.3686 17.6 16.7C18.358 17.2685 18.9743 17.24 19.3396 17.0756C19.7233 16.9029 20 16.5147 20 16C20 15.7348 19.8946 15.4804 19.7071 15.2929C19.5196 15.1054 19.2652 15 19 15C18.4477 15 18 14.5523 18 14Z" fill="black"/>
</svg>
