<svg width="24" height="24" viewBox="0 0 24 24" fill="none" xmlns="http://www.w3.org/2000/svg">
<path d="M14.9756 3.16842C16.2565 2.85671 17.602 2.94174 18.833 3.41354C20.0639 3.88535 21.1218 4.7211 21.8662 5.80905C22.6098 6.89597 23.0054 8.18357 23 9.50045L22.9951 9.75533C22.8877 12.3683 21.1466 14.2679 19.707 15.7075C19.7032 15.7113 19.6992 15.7154 19.6953 15.7192L14.2178 21.0171C13.9463 21.3156 13.6181 21.5575 13.251 21.726C12.8642 21.9036 12.4441 21.9968 12.0186 21.9995C11.5929 22.0022 11.1712 21.9143 10.7822 21.7417C10.4066 21.5749 10.07 21.3321 9.79199 21.0297L4.30469 15.7182C4.30088 15.7145 4.29672 15.7112 4.29297 15.7075C2.80786 14.2224 1.0002 12.2559 1 9.50045C1.00002 8.18533 1.39935 6.90049 2.14453 5.81686C2.88969 4.73339 3.94595 3.90175 5.17383 3.43112C6.40185 2.96045 7.74391 2.87313 9.02246 3.18112C10.1436 3.45124 11.1697 4.01396 11.998 4.80807C12.8248 4.00855 13.8525 3.44181 14.9756 3.16842ZM3 9.50045C3.00019 11.3444 4.19247 12.7779 5.70703 14.2924H5.70605L11.2031 19.6137L11.2539 19.6655C11.3484 19.7712 11.4642 19.856 11.5938 19.9135C11.7234 19.9711 11.864 20.0004 12.0059 19.9995C12.1477 19.9986 12.288 19.9678 12.417 19.9087C12.5458 19.8495 12.6608 19.7636 12.7539 19.6567L12.8125 19.5942L18.293 14.2924L18.8438 13.728C20.0864 12.4123 20.9998 11.1058 21 9.50045V9.49557C21.0043 8.58358 20.7307 7.69166 20.2158 6.93893C19.7009 6.18623 18.9687 5.60816 18.1172 5.2817C17.2656 4.95529 16.3344 4.89514 15.4482 5.1108C14.5621 5.32651 13.7626 5.80747 13.1562 6.48873C13.1508 6.49487 13.1453 6.50128 13.1396 6.50729C12.9937 6.66331 12.817 6.78748 12.6211 6.87252C12.4251 6.95757 12.2136 7.00143 12 7.00143C11.7864 7.00143 11.5749 6.95757 11.3789 6.87252C11.183 6.78748 11.0063 6.66331 10.8604 6.50729C10.8559 6.50257 10.852 6.49744 10.8477 6.49264C10.2391 5.81541 9.43887 5.33867 8.55371 5.12545C7.66861 4.91226 6.73977 4.97249 5.88965 5.2983C5.03948 5.62415 4.30789 6.20044 3.79199 6.95065C3.27623 7.70079 3.00002 8.5901 3 9.50045Z" fill="black"/>
</svg>
