<svg width="24" height="24" viewBox="0 0 24 24" fill="none" xmlns="http://www.w3.org/2000/svg">
<path fill-rule="evenodd" clip-rule="evenodd" d="M2.90381 3.90381C4.12279 2.68482 5.77609 2 7.5 2C8.48018 2 9.37318 2.14018 10.2468 2.52068C10.8597 2.78762 11.4321 3.15937 12 3.63935C12.5679 3.15937 13.1403 2.78762 13.7532 2.52068C14.6268 2.14018 15.5198 2 16.5 2C18.2239 2 19.8772 2.68482 21.0962 3.90381C22.3152 5.12279 23 6.77609 23 8.5C23 11.2418 21.1907 13.2531 19.7036 14.7106L12.7071 21.7071C12.3166 22.0976 11.6834 22.0976 11.2929 21.7071L4.29883 14.713C2.7944 13.258 1 11.2494 1 8.5C1 6.77609 1.68482 5.12279 2.90381 3.90381ZM7.5 4C6.30653 4 5.16193 4.47411 4.31802 5.31802C3.47411 6.16193 3 7.30653 3 8.5C3 10.3469 4.2007 11.8365 5.69502 13.281C5.69908 13.2849 5.70311 13.2889 5.70711 13.2929L12 19.5858L18.2929 13.2929C18.2953 13.2905 18.2977 13.2881 18.3001 13.2857C19.7923 11.8236 21 10.3359 21 8.5C21 7.30653 20.5259 6.16193 19.682 5.31802C18.8381 4.47411 17.6935 4 16.5 4C15.7202 4 15.1132 4.10982 14.5518 4.35432C13.984 4.60163 13.4001 5.0141 12.7071 5.70711C12.3166 6.09763 11.6834 6.09763 11.2929 5.70711C10.5999 5.0141 10.016 4.60163 9.44819 4.35432C8.88682 4.10982 8.27982 4 7.5 4Z" fill="black"/>
<path fill-rule="evenodd" clip-rule="evenodd" d="M13.9367 7.50201C14.359 7.47524 14.7525 7.71716 14.9191 8.10608L16.1594 11H20.77C21.3223 11 21.77 11.4477 21.77 12C21.77 12.5523 21.3223 13 20.77 13H15.5C15.1 13 14.7384 12.7616 14.5809 12.3939L14.1888 11.4792L12.9615 15.7747C12.846 16.1792 12.4896 16.4681 12.0699 16.4976C11.6502 16.527 11.257 16.2906 11.0862 15.9061L9.77717 12.9609C9.68836 12.9865 9.59521 13 9.5 13H3.22C2.66772 13 2.22 12.5523 2.22 12C2.22 11.4477 2.66772 11 3.22 11H8.88197L9.10557 10.5528C9.27863 10.2067 9.63584 9.99147 10.0227 10.0003C10.4096 10.009 10.7566 10.2402 10.9138 10.5939L11.7952 12.5769L13.0385 8.22528C13.1547 7.81842 13.5145 7.52877 13.9367 7.50201Z" fill="black"/>
</svg>
