<svg width="24" height="24" viewBox="0 0 24 24" fill="none" xmlns="http://www.w3.org/2000/svg">
<path fill-rule="evenodd" clip-rule="evenodd" d="M3 12C3 11.4477 3.44772 11 4 11H12C12.5523 11 13 11.4477 13 12C13 12.5523 12.5523 13 12 13H4C3.44772 13 3 12.5523 3 12Z" fill="black"/>
<path fill-rule="evenodd" clip-rule="evenodd" d="M4 5C4.55228 5 5 5.44772 5 6V18C5 18.5523 4.55228 19 4 19C3.44772 19 3 18.5523 3 18V6C3 5.44772 3.44772 5 4 5Z" fill="black"/>
<path fill-rule="evenodd" clip-rule="evenodd" d="M12 5C12.5523 5 13 5.44772 13 6V18C13 18.5523 12.5523 19 12 19C11.4477 19 11 18.5523 11 18V6C11 5.44772 11.4477 5 12 5Z" fill="black"/>
<path fill-rule="evenodd" clip-rule="evenodd" d="M20.4718 9.11833C20.797 9.29235 21 9.63121 21 10V18C21 18.5523 20.5522 19 20 19C19.4477 19 19 18.5523 19 18V11.8685L17.5547 12.8321C17.0951 13.1384 16.4743 13.0142 16.1679 12.5547C15.8615 12.0952 15.9857 11.4743 16.4452 11.168L19.4452 9.16795C19.7521 8.96338 20.1467 8.94431 20.4718 9.11833Z" fill="black"/>
</svg>
