<svg width="24" height="24" viewBox="0 0 24 24" fill="none" xmlns="http://www.w3.org/2000/svg">
<path d="M13 10V5H11V10C11 10.5523 10.5523 11 10 11C9.44771 11 9 10.5523 9 10V5C9 4.46957 9.21087 3.96101 9.58594 3.58594C9.96101 3.21087 10.4696 3 11 3H13C13.5304 3 14.039 3.21087 14.4141 3.58594C14.7891 3.96101 15 4.46957 15 5V10C15 10.5523 14.5523 11 14 11C13.4477 11 13 10.5523 13 10Z" fill="black"/>
<path d="M19 15V12C19 10.6739 18.4728 9.40253 17.5352 8.46484C16.5975 7.52716 15.3261 7 14 7C13.4477 7 13 6.55228 13 6C13 5.44772 13.4477 5 14 5C15.8565 5 17.6374 5.73705 18.9502 7.0498C20.263 8.36256 21 10.1435 21 12V15C21 15.5523 20.5523 16 20 16C19.4477 16 19 15.5523 19 15Z" fill="black"/>
<path d="M3 15V12C3 10.1435 3.73705 8.36256 5.0498 7.0498C6.36256 5.73705 8.14348 5 10 5C10.5523 5 11 5.44772 11 6C11 6.55228 10.5523 7 10 7C8.67392 7 7.40253 7.52716 6.46484 8.46484C5.52716 9.40253 5 10.6739 5 12V15C5 15.5523 4.55228 16 4 16C3.44772 16 3 15.5523 3 15Z" fill="black"/>
<path d="M3 16V18H21V16H3ZM23 18C23 19.1046 22.1046 20 21 20H3C1.89543 20 1 19.1046 1 18V16C1 14.8954 1.89543 14 3 14H21C22.1046 14 23 14.8954 23 16V18Z" fill="black"/>
</svg>
