<svg width="24" height="24" viewBox="0 0 24 24" fill="none" xmlns="http://www.w3.org/2000/svg">
<path d="M21 14C21 13.7348 20.8946 13.4805 20.707 13.293C20.5195 13.1054 20.2652 13 20 13H4C3.73478 13 3.48051 13.1054 3.29297 13.293C3.10543 13.4805 3 13.7348 3 14C3 14.2652 3.10543 14.5195 3.29297 14.707C3.48051 14.8946 3.73478 15 4 15H12C12.5523 15 13 15.4477 13 16C13 16.5523 12.5523 17 12 17H4C3.20435 17 2.44151 16.6837 1.87891 16.1211C1.3163 15.5585 1 14.7956 1 14C1 13.2044 1.3163 12.4415 1.87891 11.8789C2.44151 11.3163 3.20435 11 4 11H20C20.7957 11 21.5585 11.3163 22.1211 11.8789C22.6837 12.4415 23 13.2043 23 14C23 14.7957 22.6837 15.5585 22.1211 16.1211C21.5585 16.6837 20.7957 17 20 17H15.75C15.1977 17 14.75 16.5523 14.75 16C14.75 15.4477 15.1977 15 15.75 15H20C20.2652 15 20.5195 14.8946 20.707 14.707C20.8946 14.5195 21 14.2652 21 14Z" fill="black"/>
<path d="M20 10C20 8.50147 19.236 6.99565 17.75 5.83984C16.2581 4.67948 14.1919 4 12 4C9.80812 4 7.74189 4.67948 6.25 5.83984C4.76402 6.99565 4 8.50147 4 10C4 10.2652 4.10543 10.5195 4.29297 10.707C4.48051 10.8946 4.73478 11 5 11C5.55228 11 6 11.4477 6 12C6 12.5523 5.55228 13 5 13C4.20435 13 3.44151 12.6837 2.87891 12.1211C2.3163 11.5585 2 10.7956 2 10C2 7.78553 3.13286 5.73043 5.02246 4.26074C6.90619 2.79574 9.41812 2 12 2C14.5819 2 17.0938 2.79574 18.9775 4.26074C20.8671 5.73043 22 7.78553 22 10C22 10.7957 21.6837 11.5585 21.1211 12.1211C20.5585 12.6837 19.7957 13 19 13C18.4477 13 18 12.5523 18 12C18 11.4477 18.4477 11 19 11C19.2652 11 19.5195 10.8946 19.707 10.707C19.8946 10.5195 20 10.2652 20 10Z" fill="black"/>
<path d="M2 18C2 17.2044 2.3163 16.4415 2.87891 15.8789C3.44151 15.3163 4.20435 15 5 15C5.55228 15 6 15.4477 6 16C6 16.5523 5.55228 17 5 17C4.73478 17 4.48051 17.1054 4.29297 17.293C4.10543 17.4805 4 17.7348 4 18C4 18.5304 4.21087 19.039 4.58594 19.4141C4.96101 19.7891 5.46957 20 6 20H18C18.5304 20 19.039 19.7891 19.4141 19.4141C19.7891 19.039 20 18.5304 20 18C20 17.7348 19.8946 17.4805 19.707 17.293C19.5195 17.1054 19.2652 17 19 17C18.4477 17 18 16.5523 18 16C18 15.4477 18.4477 15 19 15C19.7957 15 20.5585 15.3163 21.1211 15.8789C21.6837 16.4415 22 17.2043 22 18C22 19.0609 21.5783 20.078 20.8281 20.8281C20.078 21.5783 19.0609 22 18 22H6C4.93913 22 3.92202 21.5783 3.17188 20.8281C2.42173 20.078 2 19.0609 2 18Z" fill="black"/>
<path d="M5.8702 11.3994C6.20173 10.9579 6.82893 10.8688 7.27059 11.2002L13.4005 15.7998C13.6126 15.9588 13.8792 16.0277 14.1417 15.9902C14.2716 15.9716 14.3969 15.9272 14.5098 15.8604C14.6227 15.7935 14.7212 15.7046 14.7999 15.5996L17.9503 11.4004C18.2816 10.9586 18.9079 10.8689 19.3497 11.2002C19.7915 11.5315 19.8811 12.1578 19.5499 12.5996L16.4005 16.7998C16.1641 17.1149 15.8674 17.3803 15.5284 17.5811C15.1894 17.7818 14.8139 17.914 14.4239 17.9697C13.6365 18.0821 12.8366 17.8775 12.2003 17.4004L6.06941 12.7998C5.6279 12.4683 5.53877 11.8411 5.8702 11.3994Z" fill="black"/>
</svg>
