<svg width="24" height="24" viewBox="0 0 24 24" fill="none" xmlns="http://www.w3.org/2000/svg">
<path fill-rule="evenodd" clip-rule="evenodd" d="M13.8787 7.87868C14.4413 7.31607 15.2044 7 16 7C16.7957 7 17.5587 7.31607 18.1213 7.87868C18.6839 8.44129 19 9.20435 19 10V12.5C19 13.0523 18.5523 13.5 18 13.5C17.4477 13.5 17 13.0523 17 12.5V10C17 9.73478 16.8946 9.48043 16.7071 9.29289C16.5196 9.10536 16.2652 9 16 9C15.7348 9 15.4804 9.10536 15.2929 9.29289C15.1054 9.48043 15 9.73478 15 10V11.4C15 11.9523 14.5523 12.4 14 12.4C13.4477 12.4 13 11.9523 13 11.4V10C13 9.20435 13.3161 8.44129 13.8787 7.87868Z" fill="black"/>
<path fill-rule="evenodd" clip-rule="evenodd" d="M9.87868 6.87868C10.4413 6.31607 11.2044 6 12 6C12.7957 6 13.5587 6.31607 14.1213 6.87868C14.6839 7.44129 15 8.20435 15 9V11C15 11.5523 14.5523 12 14 12C13.4477 12 13 11.5523 13 11V9C13 8.73478 12.8946 8.48043 12.7071 8.29289C12.5196 8.10536 12.2652 8 12 8C11.7348 8 11.4804 8.10536 11.2929 8.29289C11.1054 8.48043 11 8.73478 11 9V11C11 11.5523 10.5523 12 10 12C9.44772 12 9 11.5523 9 11V9C9 8.20435 9.31608 7.44129 9.87868 6.87868Z" fill="black"/>
<path fill-rule="evenodd" clip-rule="evenodd" d="M5.87868 2.87868C6.44129 2.31607 7.20435 2 8 2C8.79565 2 9.55871 2.31607 10.1213 2.87868C10.6839 3.44129 11 4.20435 11 5V10.5C11 11.0523 10.5523 11.5 10 11.5C9.44772 11.5 9 11.0523 9 10.5V5C9 4.73478 8.89465 4.48043 8.70711 4.29289C8.51957 4.10536 8.26522 4 8 4C7.73479 4 7.48043 4.10536 7.2929 4.29289C7.10536 4.48043 7 4.73478 7 5V14C7 14.5523 6.55229 15 6 15C5.44772 15 5 14.5523 5 14V5C5 4.20435 5.31607 3.44129 5.87868 2.87868Z" fill="black"/>
<path fill-rule="evenodd" clip-rule="evenodd" d="M17.8786 4.87868C18.4412 4.31607 19.2043 4 20 4C20.7956 4 21.5587 4.31607 22.1213 4.87868C22.6839 5.44129 23 6.20435 23 7V14C23 16.3869 22.0517 18.6761 20.3639 20.364C18.6761 22.0518 16.3869 23 13.9999 23H12C8.93114 23 6.97916 22.0322 5.30523 20.3695L5.30284 20.3671L1.70284 16.7671C1.69083 16.7551 1.67912 16.7428 1.66774 16.7302C1.15164 16.1586 0.875117 15.4104 0.895423 14.6406C0.915728 13.8707 1.23131 13.1382 1.77682 12.5946C2.32233 12.051 3.05599 11.738 3.82589 11.7205C4.5958 11.7029 5.34298 11.982 5.91274 12.5002C5.92443 12.5108 5.93588 12.5217 5.94706 12.5329L7.70706 14.2929C8.09758 14.6834 8.09758 15.3166 7.70706 15.7071C7.31653 16.0976 6.68337 16.0976 6.29284 15.7071L4.55249 13.9668C4.36452 13.8024 4.12163 13.7142 3.87155 13.7199C3.61491 13.7258 3.37036 13.8301 3.18853 14.0113C3.00669 14.1925 2.9015 14.4367 2.89473 14.6933C2.88814 14.9429 2.97515 15.1856 3.13818 15.374L6.71467 18.9505L6.71587 18.9517C8.02162 20.2483 9.46953 21 12 21H13.9999C15.8565 21 17.6369 20.2625 18.9497 18.9497C20.2625 17.637 21 15.8565 21 14V7C21 6.73478 20.8946 6.48043 20.7071 6.29289C20.5195 6.10536 20.2652 6 20 6C19.7347 6 19.4804 6.10536 19.2928 6.29289C19.1053 6.48043 19 6.73478 19 7V12C19 12.5523 18.5522 13 18 13C17.4477 13 17 12.5523 17 12V7C17 6.20435 17.316 5.44129 17.8786 4.87868Z" fill="black"/>
</svg>
