<svg width="24" height="24" viewBox="0 0 24 24" fill="none" xmlns="http://www.w3.org/2000/svg">
<path d="M12.0039 11.9935C13.1399 11.9958 14.2416 12.3852 15.127 13.097C15.557 13.4431 15.6251 14.072 15.2793 14.5023C14.9333 14.9327 14.3035 15.0016 13.873 14.6556C13.3419 14.2286 12.6815 13.9949 12 13.9935C11.3184 13.9921 10.656 14.2228 10.123 14.6478C9.69124 14.9919 9.06204 14.9213 8.71777 14.4896C8.37353 14.0578 8.44516 13.4286 8.87695 13.0843C9.76516 12.3761 10.8679 11.9912 12.0039 11.9935Z" fill="black"/>
<path d="M12.0098 16C12.562 16 13.0098 16.4477 13.0098 17C13.0098 17.5523 12.562 18 12.0098 18H12C11.4477 18 11 17.5523 11 17C11 16.4477 11.4477 16 12 16H12.0098Z" fill="black"/>
<path d="M20 9.99951C20 9.85414 19.9684 9.71048 19.9072 9.57861C19.846 9.44668 19.7566 9.32973 19.6455 9.23584L19.6406 9.23096L12.6455 3.23486C12.465 3.08232 12.2363 2.99951 12 2.99951C11.7637 2.99951 11.535 3.08329 11.3545 3.23584L11.3535 3.23486L4.35938 9.23096L4.35449 9.23584C4.24341 9.32973 4.15399 9.44668 4.09277 9.57861C4.03159 9.71048 4 9.85415 4 9.99951V18.9995C4 19.2647 4.10543 19.52 4.29297 19.7075C4.48048 19.8949 4.7349 19.9995 5 19.9995H19C19.2651 19.9995 19.5195 19.8949 19.707 19.7075C19.8946 19.52 20 19.2647 20 18.9995V9.99951ZM22 18.9995C22 19.7952 21.6837 20.559 21.1211 21.1216C20.5585 21.684 19.7955 21.9995 19 21.9995H5C4.20447 21.9995 3.44149 21.684 2.87891 21.1216C2.3163 20.559 2 19.7952 2 18.9995V9.99951C2 9.56341 2.09478 9.13242 2.27832 8.73682C2.46197 8.34101 2.73024 7.99017 3.06348 7.7085L10.0586 1.7124L10.0635 1.7085C10.605 1.25086 11.291 0.999512 12 0.999512C12.6202 0.999512 13.2229 1.19185 13.7266 1.54639L13.9365 1.7085L13.9414 1.7124L20.9365 7.7085L21.0586 7.81689C21.3356 8.0782 21.561 8.39045 21.7217 8.73682C21.9052 9.13242 22 9.56341 22 9.99951V18.9995Z" fill="black"/>
<path d="M12 7.99899C14.0448 7.99899 16.0287 8.69557 17.625 9.9736C18.056 10.3188 18.1254 10.9478 17.7803 11.3789C17.4351 11.8099 16.8061 11.8793 16.375 11.5341C15.1335 10.5402 13.5903 9.99899 12 9.99899C10.4097 9.99899 8.8665 10.5402 7.625 11.5341C7.19391 11.8793 6.56492 11.8099 6.21973 11.3789C5.87458 10.9478 5.94397 10.3188 6.375 9.9736C7.97126 8.69557 9.95515 7.99899 12 7.99899Z" fill="black"/>
</svg>
