<svg width="24" height="24" viewBox="0 0 24 24" fill="none" xmlns="http://www.w3.org/2000/svg">
<path fill-rule="evenodd" clip-rule="evenodd" d="M3 12C3 11.4477 3.44772 11 4 11H12C12.5523 11 13 11.4477 13 12C13 12.5523 12.5523 13 12 13H4C3.44772 13 3 12.5523 3 12Z" fill="black"/>
<path fill-rule="evenodd" clip-rule="evenodd" d="M4 5C4.55228 5 5 5.44772 5 6V18C5 18.5523 4.55228 19 4 19C3.44772 19 3 18.5523 3 18V6C3 5.44772 3.44772 5 4 5Z" fill="black"/>
<path fill-rule="evenodd" clip-rule="evenodd" d="M12 5C12.5523 5 13 5.44772 13 6V18C13 18.5523 12.5523 19 12 19C11.4477 19 11 18.5523 11 18V6C11 5.44772 11.4477 5 12 5Z" fill="black"/>
<path fill-rule="evenodd" clip-rule="evenodd" d="M20.0662 9.42632C21.1662 9.79297 22 10.7611 22 12C22 13.0161 21.6446 13.7621 21.0964 14.3332C20.6782 14.7687 20.1391 15.0991 19.7206 15.3555C19.6536 15.3965 19.5898 15.4356 19.53 15.473C19.0428 15.7775 18.6873 16.0364 18.4337 16.385C18.3175 16.5448 18.2099 16.742 18.131 17H21C21.5523 17 22 17.4477 22 18C22 18.5523 21.5523 19 21 19H17C16.4477 19 16 18.5523 16 18C16 16.8182 16.3006 15.9177 16.8162 15.2087C17.3127 14.5261 17.9571 14.0975 18.47 13.777C18.5529 13.7252 18.6313 13.6767 18.7054 13.6307C19.1377 13.363 19.4274 13.1837 19.6536 12.9481C19.8554 12.7379 20 12.4839 20 12C20 11.7389 19.8338 11.457 19.4338 11.3237C19.0454 11.1942 18.383 11.2128 17.6 11.8C17.1582 12.1314 16.5314 12.0418 16.2 11.6C15.8686 11.1582 15.9582 10.5314 16.4 10.2C17.617 9.28724 18.9546 9.05577 20.0662 9.42632Z" fill="black"/>
</svg>
