<svg width="24" height="24" viewBox="0 0 24 24" fill="none" xmlns="http://www.w3.org/2000/svg">
<path fill-rule="evenodd" clip-rule="evenodd" d="M3 9.00009C3 8.4478 3.44772 8.00009 4 8.00009H20C20.5523 8.00009 21 8.4478 21 9.00009C21 9.55237 20.5523 10.0001 20 10.0001H4C3.44772 10.0001 3 9.55237 3 9.00009Z" fill="black"/>
<path fill-rule="evenodd" clip-rule="evenodd" d="M3 15.0001C3 14.4478 3.44772 14.0001 4 14.0001H20C20.5523 14.0001 21 14.4478 21 15.0001C21 15.5524 20.5523 16.0001 20 16.0001H4C3.44772 16.0001 3 15.5524 3 15.0001Z" fill="black"/>
<path fill-rule="evenodd" clip-rule="evenodd" d="M10.1104 2.0062C10.6593 2.06719 11.0549 2.56161 10.9939 3.11052L8.99389 21.1105C8.9329 21.6594 8.43849 22.055 7.88958 21.994C7.34067 21.933 6.94514 21.4386 7.00613 20.8897L9.00613 2.88966C9.06712 2.34075 9.56153 1.94521 10.1104 2.0062Z" fill="black"/>
<path fill-rule="evenodd" clip-rule="evenodd" d="M16.1104 2.0062C16.6593 2.06719 17.0549 2.56161 16.9939 3.11052L14.9939 21.1105C14.9329 21.6594 14.4385 22.055 13.8896 21.994C13.3407 21.933 12.9451 21.4386 13.0061 20.8897L15.0061 2.88966C15.0671 2.34075 15.5615 1.94521 16.1104 2.0062Z" fill="black"/>
</svg>
