<svg width="24" height="24" viewBox="0 0 24 24" fill="none" xmlns="http://www.w3.org/2000/svg">
<path d="M11 3V2C11 1.44772 11.4477 1 12 1C12.5523 1 13 1.44772 13 2V3C13 3.55228 12.5523 4 12 4C11.4477 4 11 3.55228 11 3Z" fill="black"/>
<path d="M20.0527 13.0344C20.4487 13.0413 20.84 13.1265 21.2031 13.2844C21.5661 13.4423 21.894 13.6706 22.1689 13.9553C22.4439 14.2401 22.6606 14.5763 22.8057 14.9445C22.9508 15.313 23.0216 15.7068 23.0146 16.1028C23.0077 16.4987 22.9236 16.89 22.7656 17.2531C22.6077 17.6161 22.3794 17.944 22.0947 18.219C22.0885 18.2249 22.0825 18.2317 22.0762 18.2375L18.502 21.5119C17.5897 22.5206 16.3231 23.0002 15 23.0002H11C9.65306 23.0002 8.36283 22.5046 7.44727 21.4582L6.15039 20.0002H5C4.4478 20.0002 4.00014 19.5524 4 19.0002C4 18.4479 4.44772 18.0002 5 18.0002H6.15137L6.3623 18.011C6.5721 18.0333 6.77748 18.0891 6.9707 18.176C7.22777 18.2916 7.45723 18.4605 7.64453 18.6711L8.94727 20.135L8.95215 20.1418C9.43659 20.6955 10.1469 21.0002 11 21.0002H15C15.8531 21.0002 16.5634 20.6955 17.0479 20.1418L17.124 20.0627L20.7051 16.7805C20.801 16.6879 20.8785 16.5775 20.9316 16.4553C20.9848 16.333 21.0133 16.2009 21.0156 16.0676C21.0179 15.9344 20.9941 15.8019 20.9453 15.6779C20.8965 15.5539 20.823 15.4409 20.7305 15.3449C20.6379 15.249 20.5275 15.1716 20.4053 15.1184C20.283 15.0652 20.1509 15.0367 20.0176 15.0344C19.8844 15.0321 19.7519 15.0559 19.6279 15.1047C19.5039 15.1536 19.3909 15.2269 19.2949 15.3195C19.2832 15.3309 19.2711 15.342 19.2588 15.3528L16.0586 18.1526C15.643 18.5162 15.0112 18.4742 14.6475 18.0588C14.2839 17.6433 14.3259 17.0114 14.7412 16.6477L17.9414 13.8479C18.2187 13.5885 18.5419 13.3836 18.8955 13.2444C19.2638 13.0994 19.657 13.0275 20.0527 13.0344Z" fill="black"/>
<path d="M15 16C15 15.7348 14.8946 15.4805 14.707 15.293C14.5195 15.1054 14.2652 15 14 15H2C1.44772 15 1 14.5523 1 14C1 13.4477 1.44772 13 2 13H14C14.7957 13 15.5585 13.3163 16.1211 13.8789C16.6837 14.4415 17 15.2043 17 16C17 16.7957 16.6837 17.5585 16.1211 18.1211C15.5585 18.6837 14.7957 19 14 19H12C11.4477 19 11 18.5523 11 18C11 17.4477 11.4477 17 12 17H14C14.2652 17 14.5195 16.8946 14.707 16.707C14.8946 16.5195 15 16.2652 15 16Z" fill="black"/>
<path d="M20 9C20.5523 9 21 9.44771 21 10C21 10.5523 20.5523 11 20 11H4C3.44772 11 3 10.5523 3 10C3 9.44771 3.44772 9 4 9H20Z" fill="black"/>
<path d="M18 10C18 8.4087 17.3674 6.88303 16.2422 5.75781C15.117 4.63259 13.5913 4 12 4C10.4087 4 8.88303 4.63259 7.75781 5.75781C6.63259 6.88303 6 8.4087 6 10C6 10.5523 5.55228 11 5 11C4.44772 11 4 10.5523 4 10C4 7.87827 4.84248 5.84306 6.34277 4.34277C7.84306 2.84248 9.87827 2 12 2C14.1217 2 16.1569 2.84248 17.6572 4.34277C19.1575 5.84306 20 7.87827 20 10C20 10.5523 19.5523 11 19 11C18.4477 11 18 10.5523 18 10Z" fill="black"/>
<path d="M4 20V14C4 13.4477 4.44772 13 5 13C5.55228 13 6 13.4477 6 14V20C6 20.5304 5.78913 21.039 5.41406 21.4141C5.03899 21.7891 4.53043 22 4 22H2C1.44772 22 1 21.5523 1 21C1 20.4477 1.44772 20 2 20H4Z" fill="black"/>
</svg>
