<svg width="24" height="24" viewBox="0 0 24 24" fill="none" xmlns="http://www.w3.org/2000/svg">
<path fill-rule="evenodd" clip-rule="evenodd" d="M10 14.43C10.5523 14.43 11 14.8777 11 15.43V22C11 22.5523 10.5523 23 10 23C9.44772 23 9 22.5523 9 22V15.43C9 14.8777 9.44772 14.43 10 14.43Z" fill="black"/>
<path fill-rule="evenodd" clip-rule="evenodd" d="M11 11C11 10.4477 11.4477 10 12 10H12.01C12.5623 10 13.01 10.4477 13.01 11C13.01 11.5523 12.5623 12 12.01 12H12C11.4477 12 11 11.5523 11 11Z" fill="black"/>
<path fill-rule="evenodd" clip-rule="evenodd" d="M11 7C11 6.44772 11.4477 6 12 6H12.01C12.5623 6 13.01 6.44772 13.01 7C13.01 7.55228 12.5623 8 12.01 8H12C11.4477 8 11 7.55228 11 7Z" fill="black"/>
<path fill-rule="evenodd" clip-rule="evenodd" d="M14 14.43C14.5523 14.43 15 14.8777 15 15.43V22C15 22.5523 14.5523 23 14 23C13.4477 23 13 22.5523 13 22V15.43C13 14.8777 13.4477 14.43 14 14.43Z" fill="black"/>
<path fill-rule="evenodd" clip-rule="evenodd" d="M8.39998 15.2C9.43856 14.4211 10.7018 14 12 14C13.2982 14 14.5614 14.4211 15.6 15.2C16.0418 15.5314 16.1314 16.1582 15.8 16.6C15.4686 17.0418 14.8418 17.1314 14.4 16.8C13.7076 16.2807 12.8655 16 12 16C11.1345 16 10.2924 16.2807 9.59998 16.8C9.15815 17.1314 8.53135 17.0418 8.19998 16.6C7.86861 16.1582 7.95815 15.5314 8.39998 15.2Z" fill="black"/>
<path fill-rule="evenodd" clip-rule="evenodd" d="M15 11C15 10.4477 15.4477 10 16 10H16.01C16.5623 10 17.01 10.4477 17.01 11C17.01 11.5523 16.5623 12 16.01 12H16C15.4477 12 15 11.5523 15 11Z" fill="black"/>
<path fill-rule="evenodd" clip-rule="evenodd" d="M15 7C15 6.44772 15.4477 6 16 6H16.01C16.5623 6 17.01 6.44772 17.01 7C17.01 7.55228 16.5623 8 16.01 8H16C15.4477 8 15 7.55228 15 7Z" fill="black"/>
<path fill-rule="evenodd" clip-rule="evenodd" d="M7 11C7 10.4477 7.44772 10 8 10H8.01C8.56228 10 9.01 10.4477 9.01 11C9.01 11.5523 8.56228 12 8.01 12H8C7.44772 12 7 11.5523 7 11Z" fill="black"/>
<path fill-rule="evenodd" clip-rule="evenodd" d="M7 7C7 6.44772 7.44772 6 8 6H8.01C8.56228 6 9.01 6.44772 9.01 7C9.01 7.55228 8.56228 8 8.01 8H8C7.44772 8 7 7.55228 7 7Z" fill="black"/>
<path fill-rule="evenodd" clip-rule="evenodd" d="M6 3C5.44772 3 5 3.44772 5 4V20C5 20.5523 5.44772 21 6 21H18C18.5523 21 19 20.5523 19 20V4C19 3.44772 18.5523 3 18 3H6ZM3 4C3 2.34315 4.34315 1 6 1H18C19.6569 1 21 2.34315 21 4V20C21 21.6569 19.6569 23 18 23H6C4.34315 23 3 21.6569 3 20V4Z" fill="black"/>
</svg>
