<svg width="24" height="24" viewBox="0 0 24 24" fill="none" xmlns="http://www.w3.org/2000/svg">
<path fill-rule="evenodd" clip-rule="evenodd" d="M10.5021 1.40265C10.9577 1.14014 11.4742 1.00195 12 1.00195C12.5258 1.00195 13.0423 1.14014 13.4979 1.40265C13.4986 1.40306 13.4993 1.40347 13.5 1.40388L20.4961 5.40166C20.4974 5.4024 20.4987 5.40313 20.5 5.40388C20.9556 5.66692 21.334 6.04515 21.5973 6.50062C21.8606 6.95609 21.9995 7.47279 22 7.99888V16.0009C21.9995 16.527 21.8606 17.0437 21.5973 17.4992C21.334 17.9547 20.9556 18.3329 20.5 18.5959C20.4987 18.5967 20.4974 18.5974 20.4961 18.5981L13.5 22.5959C13.4994 22.5963 13.4987 22.5967 13.4981 22.597C13.0425 22.8596 12.5259 22.9979 12 22.9979C11.4741 22.9979 10.9575 22.8596 10.5019 22.597C10.5013 22.5967 10.5006 22.5963 10.5 22.5959L3.50386 18.5981C3.50257 18.5974 3.50129 18.5967 3.5 18.5959C3.04439 18.3329 2.66597 17.9547 2.40269 17.4992C2.13941 17.0437 2.00054 16.527 2 16.0009V7.99888C2.00054 7.47279 2.13941 6.95609 2.40269 6.50062C2.66597 6.04515 3.04439 5.66692 3.5 5.40388C3.50129 5.40313 3.50257 5.4024 3.50386 5.40166L10.5021 1.40265ZM12 3.00195C11.8245 3.00195 11.652 3.04816 11.5 3.13593C11.4987 3.13667 11.4974 3.13741 11.4961 3.13815L4.49841 7.13685C4.34725 7.22449 4.22168 7.35022 4.13423 7.50151C4.04654 7.65321 4.00025 7.82528 4 8.0005V15.9993C4.00025 16.1745 4.04654 16.3466 4.13423 16.4983C4.22167 16.6496 4.34721 16.7753 4.49834 16.8629C4.49889 16.8632 4.49945 16.8636 4.5 16.8639L11.4961 20.8617C11.4974 20.8624 11.4987 20.8631 11.5 20.8639C11.652 20.9516 11.8245 20.9979 12 20.9979C12.1755 20.9979 12.348 20.9516 12.5 20.8639C12.5013 20.8631 12.5026 20.8624 12.5039 20.8617L19.5 16.8639C19.5005 16.8636 19.5011 16.8633 19.5016 16.8629C19.6528 16.7753 19.7783 16.6496 19.8658 16.4983C19.9535 16.3465 19.9998 16.1742 20 15.9989V8.00093C19.9998 7.82556 19.9535 7.65333 19.8658 7.50151C19.7783 7.35021 19.6527 7.22447 19.5016 7.13683C19.501 7.13653 19.5005 7.13623 19.5 7.13593L12.5039 3.13815C12.5026 3.13741 12.5013 3.13667 12.5 3.13593C12.348 3.04816 12.1755 3.00195 12 3.00195Z" fill="black"/>
</svg>
