<svg width="24" height="24" viewBox="0 0 24 24" fill="none" xmlns="http://www.w3.org/2000/svg">
<path fill-rule="evenodd" clip-rule="evenodd" d="M4.49289 5.49289C4.88342 5.10236 5.51658 5.10236 5.90711 5.49289L7.30711 6.89289C7.69763 7.28341 7.69763 7.91658 7.30711 8.3071C6.91658 8.69763 6.28342 8.69763 5.89289 8.3071L4.49289 6.9071C4.10237 6.51658 4.10237 5.88341 4.49289 5.49289Z" fill="black"/>
<path fill-rule="evenodd" clip-rule="evenodd" d="M1 13C1 12.4477 1.44772 12 2 12H4C4.55228 12 5 12.4477 5 13C5 13.5523 4.55228 14 4 14H2C1.44772 14 1 13.5523 1 13Z" fill="black"/>
<path fill-rule="evenodd" clip-rule="evenodd" d="M19 13C19 12.4477 19.4477 12 20 12H22C22.5523 12 23 12.4477 23 13C23 13.5523 22.5523 14 22 14H20C19.4477 14 19 13.5523 19 13Z" fill="black"/>
<path fill-rule="evenodd" clip-rule="evenodd" d="M19.5071 5.49289C19.8976 5.88341 19.8976 6.51658 19.5071 6.9071L18.1071 8.3071C17.7166 8.69763 17.0834 8.69763 16.6929 8.3071C16.3024 7.91658 16.3024 7.28341 16.6929 6.89289L18.0929 5.49289C18.4834 5.10236 19.1166 5.10236 19.5071 5.49289Z" fill="black"/>
<path fill-rule="evenodd" clip-rule="evenodd" d="M1 17C1 16.4477 1.44772 16 2 16H22C22.5523 16 23 16.4477 23 17C23 17.5523 22.5523 18 22 18H2C1.44772 18 1 17.5523 1 17Z" fill="black"/>
<path fill-rule="evenodd" clip-rule="evenodd" d="M1 21C1 20.4477 1.44772 20 2 20H22C22.5523 20 23 20.4477 23 21C23 21.5523 22.5523 22 22 22H2C1.44772 22 1 21.5523 1 21Z" fill="black"/>
<path fill-rule="evenodd" clip-rule="evenodd" d="M8.46447 9.46447C9.40215 8.52678 10.6739 8 12 8C13.3261 8 14.5979 8.52678 15.5355 9.46447C16.4732 10.4021 17 11.6739 17 13C17 13.5523 16.5523 14 16 14C15.4477 14 15 13.5523 15 13C15 12.2043 14.6839 11.4413 14.1213 10.8787C13.5587 10.3161 12.7956 10 12 10C11.2043 10 10.4413 10.3161 9.87868 10.8787C9.31607 11.4413 9 12.2043 9 13C9 13.5523 8.55228 14 8 14C7.44772 14 7 13.5523 7 13C7 11.6739 7.52678 10.4021 8.46447 9.46447Z" fill="black"/>
<path fill-rule="evenodd" clip-rule="evenodd" d="M12 1.5C12.5523 1.5 13 1.94772 13 2.5V5C13 5.55228 12.5523 6 12 6C11.4477 6 11 5.55228 11 5V2.5C11 1.94772 11.4477 1.5 12 1.5Z" fill="black"/>
</svg>
