<svg width="24" height="24" viewBox="0 0 24 24" fill="none" xmlns="http://www.w3.org/2000/svg">
<path fill-rule="evenodd" clip-rule="evenodd" d="M11.9962 2.00001L12 2C13.9778 2 15.9112 2.58649 17.5557 3.6853C19.2002 4.78412 20.4819 6.3459 21.2388 8.17317C21.9957 10.0004 22.1937 12.0111 21.8079 13.9509C21.422 15.8907 20.4696 17.6725 19.0711 19.0711C17.6725 20.4696 15.8907 21.422 13.9509 21.8079C12.0111 22.1937 10.0004 21.9957 8.17317 21.2388C6.3459 20.4819 4.78412 19.2002 3.6853 17.5557C2.58649 15.9112 2 13.9778 2 12C2 11.4477 2.44772 11 3 11C3.55228 11 4 11.4477 4 12C4 13.5822 4.46919 15.129 5.34824 16.4446C6.22729 17.7602 7.47672 18.7855 8.93853 19.391C10.4003 19.9965 12.0089 20.155 13.5607 19.8463C15.1126 19.5376 16.538 18.7757 17.6569 17.6569C18.7757 16.538 19.5376 15.1126 19.8463 13.5607C20.155 12.0089 19.9965 10.4003 19.391 8.93853C18.7855 7.47672 17.7602 6.22729 16.4446 5.34824C15.1295 4.46954 13.5835 4.00037 12.0019 4C9.74731 4.00897 7.58329 4.88785 5.96096 6.45325L3.70711 8.70711C3.31658 9.09763 2.68342 9.09763 2.29289 8.70711C1.90237 8.31658 1.90237 7.68342 2.29289 7.29289L4.55289 5.03289C4.55688 5.02891 4.5609 5.02495 4.56496 5.02103C6.55946 3.09289 9.22213 2.01044 11.9962 2.00001Z" fill="black"/>
<path fill-rule="evenodd" clip-rule="evenodd" d="M3 2C3.55228 2 4 2.44772 4 3V7H8C8.55228 7 9 7.44771 9 8C9 8.55228 8.55228 9 8 9H3C2.44772 9 2 8.55228 2 8V3C2 2.44772 2.44772 2 3 2Z" fill="black"/>
<path fill-rule="evenodd" clip-rule="evenodd" d="M12 6C12.5523 6 13 6.44772 13 7V11.382L16.4472 13.1056C16.9412 13.3526 17.1414 13.9532 16.8944 14.4472C16.6474 14.9412 16.0468 15.1414 15.5528 14.8944L11.5528 12.8944C11.214 12.725 11 12.3788 11 12V7C11 6.44772 11.4477 6 12 6Z" fill="black"/>
</svg>
