<svg width="24" height="24" viewBox="0 0 24 24" fill="none" xmlns="http://www.w3.org/2000/svg">
<path fill-rule="evenodd" clip-rule="evenodd" d="M9.40952 6.15532C10.6923 5.92576 11.9492 5.94522 13.102 6.23813C14.2581 6.53189 15.2813 7.0942 16.0936 7.90649C16.9059 8.71878 17.4682 9.74196 17.7619 10.8981C18.0549 12.0509 18.0743 13.3078 17.8448 14.5906C17.6152 15.8735 17.139 17.1698 16.4545 18.4092C15.7698 19.6492 14.8848 20.8175 13.8511 21.8512C13.4606 22.2417 12.8274 22.2417 12.4369 21.8512C12.0464 21.4606 12.0464 20.8275 12.4369 20.4369C13.3433 19.5306 14.1132 18.5117 14.7038 17.4424C15.2946 16.3725 15.6892 15.2824 15.876 14.2382C16.0629 13.1938 16.0364 12.2285 15.8235 11.3906C15.6115 10.5562 15.2181 9.85945 14.6794 9.3207C14.1406 8.78195 13.4439 8.38856 12.6094 8.17653C11.7716 7.96365 10.8062 7.93714 9.76184 8.12404C8.71768 8.3109 7.62759 8.70548 6.55769 9.29632C5.48833 9.88687 4.4695 10.6568 3.56313 11.5632C3.17261 11.9537 2.53944 11.9537 2.14892 11.5632C1.7584 11.1726 1.7584 10.5395 2.14892 10.1489C3.18256 9.1153 4.35085 8.23032 5.59084 7.54555C6.83029 6.86108 8.12656 6.38492 9.40952 6.15532Z" fill="black"/>
<path fill-rule="evenodd" clip-rule="evenodd" d="M2.14892 10.1489C3.30469 8.99317 5.04601 8.77449 6.78783 9.20984C8.54127 9.64808 10.3288 10.741 11.7939 12.2061C13.2591 13.6713 14.352 15.4588 14.7902 17.2122C15.2256 18.9541 15.0069 20.6954 13.8511 21.8512C12.6954 23.0069 10.954 23.2256 9.21217 22.7903C7.45873 22.3521 5.67123 21.2592 4.20607 19.794C2.74091 18.3288 1.64802 16.5413 1.20977 14.7879C0.774427 13.0461 0.993153 11.3047 2.14892 10.1489ZM6.30288 11.1502C4.95754 10.8139 4.04472 11.0816 3.56313 11.5632C3.08155 12.0447 2.81384 12.9576 3.15008 14.3029C3.48343 15.6367 4.3569 17.1164 5.62028 18.3798C6.88367 19.6432 8.3634 20.5166 9.69712 20.85C11.0425 21.1862 11.9553 20.9185 12.4369 20.4369C12.9185 19.9554 13.1862 19.0425 12.8499 17.6972C12.5166 16.3635 11.6431 14.8837 10.3797 13.6203C9.11633 12.357 7.6366 11.4835 6.30288 11.1502Z" fill="black"/>
<path fill-rule="evenodd" clip-rule="evenodd" d="M16.6235 0.940493C17.097 0.77182 17.6013 0.707115 18.1021 0.75078C18.6028 0.794446 19.0883 0.945457 19.5254 1.19354C19.9626 1.44162 20.3412 1.78096 20.6355 2.18846C20.8032 2.42073 20.9413 2.67204 21.0472 2.93651C21.3191 3.03902 21.578 3.17529 21.8176 3.3427C22.2343 3.63393 22.5826 4.01242 22.8383 4.45188C23.094 4.89133 23.2509 5.3812 23.298 5.88741C23.3452 6.39363 23.2816 6.90406 23.1116 7.3832C22.9416 7.86235 22.6693 8.29871 22.3135 8.66196C21.9578 9.02521 21.5272 9.30662 21.0518 9.48663C20.5763 9.66665 20.0673 9.74094 19.5602 9.70436C19.3152 9.68668 19.0735 9.64332 18.8389 9.57542L17.2721 11.1422C16.8816 11.5327 16.2484 11.5327 15.8579 11.1422C15.4674 10.7516 15.4674 10.1185 15.8579 9.72795L17.8929 7.69295C18.2083 7.37754 18.6945 7.30917 19.0847 7.52536C19.2754 7.631 19.4867 7.69385 19.7041 7.70954C19.9216 7.72523 20.1398 7.69338 20.3436 7.6162C20.5475 7.53902 20.7321 7.41837 20.8846 7.26263C21.0371 7.10689 21.1539 6.91981 21.2268 6.71438C21.2996 6.50896 21.3269 6.29012 21.3067 6.07309C21.2864 5.85605 21.2192 5.64603 21.1096 5.45762C21 5.26921 20.8506 5.10694 20.672 4.98208C20.4933 4.85722 20.2896 4.77278 20.075 4.73462C19.6694 4.6625 19.3495 4.34907 19.2692 3.94506C19.2272 3.73377 19.1402 3.53401 19.0141 3.35937C18.888 3.18472 18.7257 3.0393 18.5383 2.93297C18.351 2.82665 18.1429 2.76193 17.9283 2.74322C17.7137 2.72451 17.4976 2.75224 17.2947 2.82453C17.0917 2.89681 16.9068 3.01196 16.7523 3.16214C16.5979 3.31232 16.4776 3.494 16.3996 3.69483C16.3217 3.89566 16.2879 4.11091 16.3006 4.32596C16.3133 4.54101 16.3722 4.7508 16.4732 4.94106C16.6793 5.32911 16.6079 5.80623 16.2973 6.11699L14.2733 8.14199C13.8829 8.53261 13.2497 8.53277 12.8591 8.14234C12.4685 7.75191 12.4683 7.11875 12.8587 6.72813L14.4227 5.1634C14.3584 4.92901 14.3185 4.68788 14.3041 4.44384C14.2745 3.94207 14.3533 3.4398 14.5351 2.9712C14.717 2.50261 14.9977 2.07868 15.358 1.72827C15.7184 1.37785 16.15 1.10917 16.6235 0.940493Z" fill="black"/>
<path fill-rule="evenodd" clip-rule="evenodd" d="M6.7929 14.793C7.18343 14.4024 7.81659 14.4024 8.20712 14.793L9.20712 15.793C9.59764 16.1835 9.59764 16.8166 9.20712 17.2072C8.81659 17.5977 8.18343 17.5977 7.7929 17.2072L6.7929 16.2072C6.40238 15.8166 6.40238 15.1835 6.7929 14.793Z" fill="black"/>
</svg>
