<svg width="24" height="24" viewBox="0 0 24 24" fill="none" xmlns="http://www.w3.org/2000/svg">
<path d="M14 12C14 11.7348 13.8945 11.4805 13.707 11.293C13.5195 11.1054 13.2652 11 13 11H9.99996C9.61149 11 9.45712 11.1245 9.40035 11.2002C9.36832 11.2429 9.33233 11.2833 9.2939 11.3203L3.69429 16.7197C3.29679 17.103 2.66361 17.0917 2.28023 16.6943C1.89692 16.2968 1.90822 15.6636 2.30562 15.2803L7.86226 9.92188C8.40651 9.25615 9.2186 9 9.99996 9H13C13.7956 9 14.5584 9.3163 15.1211 9.87891C15.6837 10.4415 16 11.2043 16 12C16 12.7957 15.6837 13.5585 15.1211 14.1211C14.5584 14.6837 13.7956 15 13 15H11C10.4477 15 9.99996 14.5523 9.99996 14C9.99996 13.4477 10.4477 13 11 13H13C13.2652 13 13.5195 12.8946 13.707 12.707C13.8945 12.5195 14 12.2652 14 12Z" fill="black"/>
<path d="M20 5.74935C20 5.39545 19.8928 5.0498 19.6924 4.75814C19.4917 4.46634 19.2067 4.24226 18.876 4.11556C18.5452 3.98888 18.1832 3.96503 17.8389 4.04817C17.4947 4.13134 17.1837 4.31689 16.9473 4.5804L16.9385 4.59017C16.819 4.71984 16.6742 4.82402 16.5127 4.89485C16.3512 4.96568 16.1764 5.00228 16 5.00228C15.8236 5.00228 15.6488 4.96568 15.4873 4.89485C15.3258 4.82403 15.181 4.71985 15.0615 4.59017L15.0527 4.5804C14.8163 4.31688 14.5053 4.13134 14.1611 4.04817C13.8168 3.96503 13.4548 3.98888 13.124 4.11556C12.7933 4.24226 12.5083 4.46634 12.3076 4.75814C12.1072 5.0498 12 5.39545 12 5.74935C12.0002 6.52306 12.5392 7.31873 13.1992 7.98079L15.999 10.5833L18.7988 7.98079C19.0921 7.6863 19.4057 7.30003 19.6396 6.88411C19.8798 6.45707 19.9999 6.06584 20 5.74935ZM22 5.75032C21.9999 6.5335 21.7184 7.26797 21.3828 7.86458C21.0427 8.46927 20.6076 9.00203 20.207 9.40267C20.1985 9.41124 20.1895 9.4198 20.1807 9.42806L16.6807 12.682C16.6717 12.6903 16.6625 12.6984 16.6533 12.7064L15.1309 14.1224C14.7263 14.4984 14.0938 14.4751 13.7178 14.0706C13.3418 13.6661 13.365 13.0336 13.7695 12.6575L14.5312 11.9486L11.8193 9.42806C11.8105 9.4198 11.8015 9.41124 11.793 9.40267C11.0608 8.67045 10.0002 7.37309 10 5.75032C9.99983 4.99126 10.23 4.24979 10.6602 3.62435C11.0903 2.99894 11.7003 2.51884 12.4092 2.24739C13.1179 1.97605 13.8922 1.92579 14.6299 2.10384C15.1289 2.22432 15.5936 2.44807 16 2.75325C16.4064 2.44807 16.8711 2.22432 17.3701 2.10384C18.1078 1.92579 18.8821 1.97605 19.5908 2.24739C20.2997 2.51884 20.9097 2.99894 21.3398 3.62435C21.77 4.24979 22.0002 4.99126 22 5.75032Z" fill="black"/>
<path d="M1.29289 14.293C1.68342 13.9025 2.31643 13.9025 2.70696 14.293L8.70696 20.293C9.09748 20.6835 9.09748 21.3166 8.70696 21.7071C8.31643 22.0976 7.68342 22.0976 7.29289 21.7071L1.29289 15.7071C0.902369 15.3166 0.902369 14.6835 1.29289 14.293Z" fill="black"/>
<path d="M20.1095 7.94406C20.9053 7.96655 21.6603 8.30486 22.2071 8.88351C22.7538 9.46213 23.048 10.2343 23.0255 11.03C23.003 11.8239 22.666 12.5753 22.0899 13.1218L22.0909 13.1228L17.5138 17.4997C16.6007 18.517 15.3287 18.9997 14.0001 18.9997H10.0001C9.61191 18.9997 9.45735 19.1243 9.40047 19.1999C9.35882 19.2554 9.31109 19.3065 9.25887 19.3523L7.65828 20.7527C7.24266 21.1161 6.61078 21.0744 6.24715 20.6589C5.88347 20.2433 5.92624 19.6115 6.34188 19.2478L7.87899 17.9011C8.42307 17.2506 9.2268 16.9997 10.0001 16.9997H14.0001C14.8531 16.9997 15.5635 16.695 16.0479 16.1413L16.1085 16.0769L20.7091 11.6775L20.713 11.6735C20.9061 11.4911 21.0189 11.239 21.0264 10.9734C21.034 10.7077 20.9355 10.4497 20.753 10.2566C20.5706 10.0637 20.3191 9.95068 20.0538 9.94308C19.7883 9.93557 19.5301 10.0341 19.337 10.2165C18.9356 10.5959 18.3023 10.5779 17.9229 10.1765C17.544 9.77514 17.5619 9.14264 17.963 8.76339C18.5415 8.21666 19.3138 7.92169 20.1095 7.94406Z" fill="black"/>
</svg>
