<svg width="24" height="24" viewBox="0 0 24 24" fill="none" xmlns="http://www.w3.org/2000/svg">
<path fill-rule="evenodd" clip-rule="evenodd" d="M9.70711 10.2929C10.0976 10.6834 10.0976 11.3166 9.70711 11.7071L4 17.4142V19H11.5858L14.2929 16.2929C14.6834 15.9024 15.3166 15.9024 15.7071 16.2929C16.0976 16.6834 16.0976 17.3166 15.7071 17.7071L12.7071 20.7071C12.5196 20.8946 12.2652 21 12 21H3C2.44772 21 2 20.5523 2 20V17C2 16.7348 2.10536 16.4804 2.29289 16.2929L8.29289 10.2929C8.68342 9.90237 9.31658 9.90237 9.70711 10.2929Z" fill="black"/>
<path fill-rule="evenodd" clip-rule="evenodd" d="M14.7071 3.29289C15.0976 3.68342 15.0976 4.31658 14.7071 4.70711L10.1113 9.30295C9.92984 9.48957 9.82828 9.73962 9.82828 10C9.82828 10.2604 9.92984 10.5104 10.1113 10.6971L15.303 15.8888C15.4896 16.0702 15.7396 16.1717 16 16.1717C16.2604 16.1717 16.5104 16.0702 16.697 15.8888L21.2929 11.2929C21.6834 10.9024 22.3166 10.9024 22.7071 11.2929C23.0976 11.6834 23.0976 12.3166 22.7071 12.7071L18.1071 17.3071C18.1047 17.3095 18.1024 17.3118 18.1 17.3141C17.5392 17.8638 16.7853 18.1717 16 18.1717C15.2147 18.1717 14.4608 17.8638 13.9 17.3141C13.8976 17.3118 13.8952 17.3095 13.8929 17.3071L8.69289 12.1071C8.69053 12.1047 8.68819 12.1024 8.68585 12.1C8.13617 11.5392 7.82828 10.7853 7.82828 10C7.82828 9.21474 8.13617 8.46079 8.68585 7.9C8.68819 7.89762 8.69053 7.89525 8.69289 7.89289L13.2929 3.29289C13.6834 2.90237 14.3166 2.90237 14.7071 3.29289Z" fill="black"/>
</svg>
