<svg width="24" height="24" viewBox="0 0 24 24" fill="none" xmlns="http://www.w3.org/2000/svg">
<path d="M9 12.0001V8.96399C9 8.4117 9.44772 7.96399 10 7.96399C10.5523 7.96399 11 8.4117 11 8.96399V12.0001C10.9999 12.5523 10.5522 13.0001 10 13.0001C9.44776 13.0001 9.00007 12.5523 9 12.0001Z" fill="black"/>
<path d="M13 12.0001V8.96399C13 8.4117 13.4477 7.96399 14 7.96399C14.5523 7.96399 15 8.4117 15 8.96399V12.0001C14.9999 12.5523 14.5522 13.0001 14 13.0001C13.4478 13.0001 13.0001 12.5523 13 12.0001Z" fill="black"/>
<path d="M9 13V15C9 15.2652 9.10543 15.5195 9.29297 15.707C9.48051 15.8946 9.73478 16 10 16H14C14.2652 16 14.5195 15.8946 14.707 15.707C14.8946 15.5195 15 15.2652 15 15V13H9ZM17 15C17 15.7957 16.6837 16.5585 16.1211 17.1211C15.5585 17.6837 14.7957 18 14 18H10C9.20435 18 8.44151 17.6837 7.87891 17.1211C7.3163 16.5585 7 15.7957 7 15V13C7 12.4696 7.21087 11.961 7.58594 11.5859C7.96101 11.2109 8.46957 11 9 11H15C15.5304 11 16.039 11.2109 16.4141 11.5859C16.7891 11.961 17 12.4696 17 13V15Z" fill="black"/>
<path d="M11 18.9995V16.9995C11.0003 16.4474 11.4479 15.9995 12 15.9995C12.5521 15.9995 12.9997 16.4474 13 16.9995V18.9995C13 19.2647 13.1054 19.52 13.293 19.7075C13.4805 19.8949 13.7349 19.9995 14 19.9995H19C19.2651 19.9995 19.5195 19.8949 19.707 19.7075C19.8946 19.52 20 19.2647 20 18.9995V9.99951C20 9.85414 19.9684 9.71048 19.9072 9.57861C19.846 9.44668 19.7566 9.32973 19.6455 9.23584L19.6406 9.23096L12.6455 3.23486C12.465 3.08232 12.2363 2.99951 12 2.99951C11.7637 2.99951 11.535 3.08329 11.3545 3.23584L11.3535 3.23486L4.35938 9.23096L4.35449 9.23584C4.24341 9.32973 4.15399 9.44668 4.09277 9.57861C4.03159 9.71048 4 9.85415 4 9.99951V18.9995C4 19.2647 4.10543 19.52 4.29297 19.7075C4.48048 19.8949 4.7349 19.9995 5 19.9995H8.5C9.05212 19.9995 9.49974 20.4474 9.5 20.9995C9.5 21.5518 9.05228 21.9995 8.5 21.9995H5C4.20447 21.9995 3.44149 21.684 2.87891 21.1216C2.3163 20.559 2 19.7952 2 18.9995V9.99951C2 9.56341 2.09478 9.13242 2.27832 8.73682C2.46197 8.34101 2.73024 7.99017 3.06348 7.7085L10.0586 1.7124L10.0635 1.7085C10.605 1.25086 11.291 0.999512 12 0.999512C12.6202 0.999512 13.2229 1.19185 13.7266 1.54639L13.9365 1.7085L13.9414 1.7124L20.9365 7.7085L21.0586 7.81689C21.3356 8.0782 21.561 8.39045 21.7217 8.73682C21.9052 9.13242 22 9.56341 22 9.99951V18.9995C22 19.7952 21.6837 20.559 21.1211 21.1216C20.5585 21.684 19.7955 21.9995 19 21.9995H14C13.2045 21.9995 12.4415 21.684 11.8789 21.1216C11.3163 20.559 11 19.7952 11 18.9995Z" fill="black"/>
</svg>
