<svg width="24" height="24" viewBox="0 0 24 24" fill="none" xmlns="http://www.w3.org/2000/svg">
<path fill-rule="evenodd" clip-rule="evenodd" d="M13.8787 3.87868C14.4413 3.31607 15.2043 3 16 3C16.7956 3 17.5587 3.31607 18.1213 3.87868C18.6839 4.44129 19 5.20435 19 6V11C19 11.5523 18.5523 12 18 12C17.4477 12 17 11.5523 17 11V6C17 5.73478 16.8946 5.48043 16.7071 5.29289C16.5195 5.10536 16.2652 5 16 5C15.7348 5 15.4804 5.10536 15.2929 5.29289C15.1053 5.48043 15 5.73478 15 6C15 6.55228 14.5523 7 14 7C13.4477 7 13 6.55228 13 6C13 5.20435 13.316 4.44129 13.8787 3.87868Z" fill="black"/>
<path fill-rule="evenodd" clip-rule="evenodd" d="M9.87865 1.87868C10.4413 1.31607 11.2043 1 12 1C12.7956 1 13.5587 1.31607 14.1213 1.87868C14.6839 2.44129 15 3.20435 15 4V10C15 10.5523 14.5523 11 14 11C13.4477 11 13 10.5523 13 10V4C13 3.73478 12.8946 3.48043 12.7071 3.29289C12.5195 3.10536 12.2652 3 12 3C11.7348 3 11.4804 3.10536 11.2929 3.29289C11.1053 3.48043 11 3.73478 11 4V6C11 6.55228 10.5523 7 9.99997 7C9.44769 7 8.99997 6.55228 8.99997 6V4C8.99997 3.20435 9.31604 2.44129 9.87865 1.87868Z" fill="black"/>
<path fill-rule="evenodd" clip-rule="evenodd" d="M5.87865 3.87868C6.44126 3.31607 7.20432 3 7.99997 3C8.79562 3 9.55868 3.31607 10.1213 3.87868C10.6839 4.44129 11 5.20435 11 6V10.5C11 11.0523 10.5523 11.5 9.99997 11.5C9.44769 11.5 8.99997 11.0523 8.99997 10.5V6C8.99997 5.73478 8.89462 5.48043 8.70708 5.29289C8.51954 5.10536 8.26519 5 7.99997 5C7.73476 5 7.4804 5.10536 7.29287 5.29289C7.10533 5.48043 6.99997 5.73478 6.99997 6V14C6.99997 14.5523 6.55226 15 5.99997 15C5.44769 15 4.99997 14.5523 4.99997 14V6C4.99997 5.20435 5.31604 4.44129 5.87865 3.87868Z" fill="black"/>
<path fill-rule="evenodd" clip-rule="evenodd" d="M19.9999 7C19.7347 7 19.4804 7.10536 19.2928 7.29289C19.1053 7.48043 18.9999 7.73478 18.9999 8C18.9999 8.55228 18.5522 9 17.9999 9C17.4476 9 16.9999 8.55228 16.9999 8C16.9999 7.20435 17.316 6.44129 17.8786 5.87868C18.4412 5.31607 19.2043 5 19.9999 5C20.7956 5 21.5586 5.31607 22.1212 5.87868C22.6838 6.44129 22.9999 7.20435 22.9999 8V14C22.9999 16.3869 22.0517 18.6761 20.3639 20.364C18.6761 22.0518 16.3869 23 13.9999 23H11.9999C8.93111 23 6.97913 22.0322 5.3052 20.3695C5.3044 20.3687 5.30361 20.3679 5.30281 20.3671L1.70281 16.7671C1.6908 16.7551 1.67909 16.7428 1.66771 16.7302C1.15161 16.1586 0.875087 15.4104 0.895392 14.6406C0.915698 13.8707 1.23128 13.1382 1.77679 12.5946C2.3223 12.051 3.05596 11.738 3.82586 11.7205C4.59577 11.7029 5.34295 11.982 5.91271 12.5002C5.9244 12.5108 5.93585 12.5217 5.94703 12.5329L7.70703 14.2929C8.09755 14.6834 8.09755 15.3166 7.70703 15.7071C7.3165 16.0976 6.68334 16.0976 6.29281 15.7071L4.55246 13.9668C4.36449 13.8024 4.1216 13.7142 3.87152 13.7199C3.61488 13.7258 3.37033 13.8301 3.18849 14.0113C3.00666 14.1925 2.90147 14.4367 2.8947 14.6933C2.88811 14.9429 2.97511 15.1856 3.13814 15.374L6.71464 18.9505C6.71504 18.9509 6.71544 18.9513 6.71584 18.9517C8.02159 20.2483 9.4695 21 11.9999 21H13.9999C15.8564 21 17.6369 20.2625 18.9497 18.9497C20.2624 17.637 20.9999 15.8565 20.9999 14V8C20.9999 7.73478 20.8946 7.48043 20.707 7.29289C20.5195 7.10536 20.2651 7 19.9999 7Z" fill="black"/>
</svg>
