<svg width="24" height="24" viewBox="0 0 24 24" fill="none" xmlns="http://www.w3.org/2000/svg">
<path d="M13 17.9999C13 17.7347 12.8946 17.4804 12.707 17.2929C12.5195 17.1053 12.2652 16.9999 12 16.9999C11.7348 16.9999 11.4805 17.1053 11.293 17.2929C11.1054 17.4804 11 17.7347 11 17.9999C11 18.5522 10.5523 18.9999 10 18.9999C9.44771 18.9999 9 18.5522 9 17.9999C9 17.2043 9.3163 16.4414 9.87891 15.8788C10.4415 15.3162 11.2043 14.9999 12 14.9999C12.7957 14.9999 13.5585 15.3162 14.1211 15.8788C14.6837 16.4414 15 17.2043 15 17.9999C15 18.5522 14.5523 18.9999 14 18.9999C13.4477 18.9999 13 18.5522 13 17.9999Z" fill="black"/>
<path d="M14.9248 2.00023C15.3466 1.98954 15.7658 2.06829 16.1553 2.23069C16.5449 2.39323 16.8962 2.63612 17.1855 2.94359C17.4386 3.21256 17.6402 3.52528 17.7793 3.86644L17.835 4.01487L17.8428 4.04124L19.9531 10.6975C20.12 11.224 19.8282 11.7865 19.3018 11.9534C18.7754 12.1199 18.2137 11.8283 18.0469 11.302L15.9453 4.67112L15.9053 4.57347C15.8606 4.47849 15.8017 4.39048 15.7295 4.3137C15.6331 4.21122 15.5156 4.13058 15.3857 4.0764C15.2559 4.02225 15.1162 3.99571 14.9756 3.99925C14.8702 4.00193 14.766 4.02181 14.667 4.05687L14.5693 4.09691L13.293 4.70726C12.9396 4.87589 12.5569 4.97369 12.167 4.99534L12 5.00023H8.5C8.2822 5.00018 8.0702 5.07101 7.89648 5.20237C7.72278 5.33376 7.59637 5.51818 7.53711 5.72777L5.96191 11.2737C5.8108 11.8047 5.25768 12.113 4.72656 11.9621C4.19539 11.8112 3.88726 11.258 4.03809 10.7268L5.6123 5.18382C5.79 4.55516 6.1685 4.00184 6.68945 3.60765C7.21059 3.21348 7.84659 3.00014 8.5 3.00023H12C12.1488 3.00027 12.2963 2.96748 12.4307 2.90355L13.707 2.29222C14.0878 2.11027 14.503 2.01095 14.9248 2.00023Z" fill="black"/>
<path d="M22 9.99991C22.5523 9.99991 23 10.4476 23 10.9999C23 11.5522 22.5523 11.9999 22 11.9999H2C1.44772 11.9999 1 11.5522 1 10.9999C1 10.4476 1.44772 9.99991 2 9.99991H22Z" fill="black"/>
<path d="M19 17.9999C19 16.8953 18.1046 15.9999 17 15.9999C15.8954 15.9999 15 16.8953 15 17.9999C15 19.1045 15.8954 19.9999 17 19.9999C18.1046 19.9999 19 19.1045 19 17.9999ZM21 17.9999C21 20.209 19.2091 21.9999 17 21.9999C14.7909 21.9999 13 20.209 13 17.9999C13 15.7908 14.7909 13.9999 17 13.9999C19.2091 13.9999 21 15.7908 21 17.9999Z" fill="black"/>
<path d="M9 17.9999C9 16.8953 8.10457 15.9999 7 15.9999C5.89543 15.9999 5 16.8953 5 17.9999C5 19.1045 5.89543 19.9999 7 19.9999C8.10457 19.9999 9 19.1045 9 17.9999ZM11 17.9999C11 20.209 9.20914 21.9999 7 21.9999C4.79086 21.9999 3 20.209 3 17.9999C3 15.7908 4.79086 13.9999 7 13.9999C9.20914 13.9999 11 15.7908 11 17.9999Z" fill="black"/>
</svg>
