<svg width="24" height="24" viewBox="0 0 24 24" fill="none" xmlns="http://www.w3.org/2000/svg">
<path d="M21 17.999L16.0029 15.0019L16 15V21L16.0029 20.998L21 18.0009L21.002 18L21 17.999ZM23.002 18C23.002 18.3463 22.9123 18.6871 22.7412 18.9882C22.5705 19.2887 22.324 19.5385 22.0274 19.7158L22.0283 19.7167L17.0313 22.7138L17.0303 22.7128C16.7271 22.8952 16.3812 22.9951 16.0274 23C15.6724 23.0048 15.3225 22.9152 15.0137 22.7402C14.7048 22.5651 14.4477 22.3101 14.2695 22.0029C14.0916 21.6959 13.9986 21.347 14 20.9921V15.0029C13.9995 14.649 14.0928 14.3011 14.2705 13.9951C14.4488 13.6882 14.7059 13.4346 15.0147 13.2597C15.3235 13.0848 15.6735 12.995 16.0283 13C16.3819 13.005 16.7273 13.1048 17.0303 13.2871L17.0313 13.2861L22.0264 16.2822L22.1348 16.3515C22.3837 16.5226 22.5914 16.7481 22.7412 17.0117C22.9123 17.3128 23.002 17.6536 23.002 18Z" fill="black"/>
<path d="M20 12.1699V5C20 4.73478 19.8946 4.48051 19.707 4.29297C19.5195 4.10543 19.2652 4 19 4H5C4.73478 4 4.4805 4.10543 4.29297 4.29297C4.10543 4.4805 4 4.73478 4 5V19C4 19.2652 4.10543 19.5195 4.29297 19.707C4.48051 19.8946 4.73478 20 5 20H11C11.5523 20 12 20.4477 12 21C12 21.5523 11.5523 22 11 22H5C4.20435 22 3.44152 21.6837 2.87891 21.1211C2.3163 20.5585 2 19.7957 2 19V5C2 4.20435 2.3163 3.44152 2.87891 2.87891C3.44152 2.3163 4.20435 2 5 2H19C19.7957 2 20.5585 2.3163 21.1211 2.87891C21.6837 3.44152 22 4.20435 22 5V12.1699C22 12.7222 21.5523 13.1699 21 13.1699C20.4477 13.1699 20 12.7222 20 12.1699Z" fill="black"/>
<path d="M10.2929 15.293C10.6834 14.9025 11.3164 14.9025 11.707 15.293C12.0975 15.6835 12.0975 16.3166 11.707 16.7071L6.70696 21.7071C6.31643 22.0976 5.68342 22.0976 5.29289 21.7071C4.90237 21.3166 4.90237 20.6835 5.29289 20.293L10.2929 15.293Z" fill="black"/>
<path d="M10 9C10 8.44772 9.55228 8 9 8C8.44772 8 8 8.44772 8 9C8 9.55228 8.44772 10 9 10C9.55228 10 10 9.55228 10 9ZM12 9C12 10.6569 10.6569 12 9 12C7.34315 12 6 10.6569 6 9C6 7.34315 7.34315 6 9 6C10.6569 6 12 7.34315 12 9Z" fill="black"/>
</svg>
