<svg width="24" height="24" viewBox="0 0 24 24" fill="none" xmlns="http://www.w3.org/2000/svg">
<path d="M3 9.99994C3 8.21998 3.52774 6.47995 4.5166 4.99994C5.50547 3.52 6.91127 2.3667 8.55566 1.68549C10.2002 1.0043 12.01 0.825529 13.7559 1.1728C15.5017 1.52007 17.1056 2.37702 18.3643 3.63569C19.6229 4.89435 20.4799 6.49827 20.8271 8.24409C21.1744 9.98991 20.9956 11.7997 20.3145 13.4443C19.6332 15.0887 18.4799 16.4945 17 17.4833C15.52 18.4722 13.78 18.9999 12 18.9999H4C3.44772 18.9999 3 18.5522 3 17.9999C3 17.4477 3.44772 16.9999 4 16.9999H12C13.3844 16.9999 14.7376 16.5893 15.8887 15.8203C17.0398 15.0511 17.937 13.9577 18.4668 12.6787C18.9966 11.3997 19.1352 9.99248 18.8652 8.63471C18.5951 7.27684 17.9292 6.02872 16.9502 5.04975C15.9712 4.07078 14.7231 3.40481 13.3652 3.13471C12.0075 2.8647 10.6003 3.00338 9.32129 3.53315C8.04223 4.06296 6.94884 4.96015 6.17969 6.11127C5.41062 7.26237 5 8.61557 5 9.99994C5 10.5522 4.55228 10.9999 4 10.9999C3.44772 10.9999 3 10.5522 3 9.99994Z" fill="black"/>
<path d="M7.29302 13.293C7.68354 12.9025 8.31655 12.9025 8.70708 13.293C9.0976 13.6835 9.0976 14.3166 8.70708 14.7071L5.41411 18L8.70708 21.293C9.0976 21.6835 9.0976 22.3166 8.70708 22.7071C8.31655 23.0976 7.68354 23.0976 7.29302 22.7071L3.29302 18.7071C2.90249 18.3166 2.90249 17.6835 3.29302 17.293L7.29302 13.293Z" fill="black"/>
</svg>
