<svg width="24" height="24" viewBox="0 0 24 24" fill="none" xmlns="http://www.w3.org/2000/svg">
<path fill-rule="evenodd" clip-rule="evenodd" d="M8.495 7.50301C8.10582 7.50301 7.72201 7.59387 7.37414 7.76836C7.02627 7.94285 6.72393 8.19614 6.49121 8.50808C6.25849 8.82001 6.10181 9.18197 6.03365 9.56513C6.00803 9.70914 5.99518 9.85465 5.995 10H10.995C10.9948 9.85465 10.982 9.70914 10.9564 9.56513C10.8882 9.18197 10.7315 8.82001 10.4988 8.50808C10.2661 8.19614 9.96373 7.94285 9.61586 7.76836C9.26799 7.59387 8.88418 7.50301 8.495 7.50301ZM12.995 10C12.9948 9.73757 12.9717 9.47484 12.9254 9.21483C12.8027 8.52513 12.5207 7.87361 12.1018 7.31213C11.6829 6.75064 11.1387 6.29471 10.5125 5.98064C9.88638 5.66656 9.19553 5.50301 8.495 5.50301C7.79447 5.50301 7.10362 5.66656 6.47745 5.98064C5.85128 6.29471 5.30708 6.75064 4.88818 7.31213C4.46929 7.87361 4.18726 8.52513 4.06456 9.21483C4.01831 9.47485 3.99518 9.73758 3.995 10C3.44502 10.0027 3 10.4494 3 11C3 14.8091 6.22487 17.6207 11.0006 17.9645C11.0002 17.9763 11 17.9881 11 18V20H8C7.44772 20 7 20.4477 7 21C7 21.5523 7.44772 22 8 22H16C16.5523 22 17 21.5523 17 21C17 20.4477 16.5523 20 16 20H13V18C13 17.9881 12.9998 17.9763 12.9994 17.9645C17.7751 17.6207 21 14.8091 21 11C21 10.4477 20.5523 10 20 10H12.995ZM11.8276 12C11.8428 12.0003 11.8581 12.0003 11.8732 12H18.8785C18.3461 14.1551 16.0621 16 12 16C7.93795 16 5.65402 14.1551 5.12152 12.0001C5.13511 12.0003 5.14874 12.0003 5.1624 12H11.8276Z" fill="black"/>
<path fill-rule="evenodd" clip-rule="evenodd" d="M15.495 7.50301C15.1058 7.50301 14.722 7.59387 14.3741 7.76836C14.0263 7.94285 13.7239 8.19614 13.4912 8.50808C13.2585 8.82001 13.1018 9.18197 13.0336 9.56513C12.9655 9.9483 12.9877 10.3421 13.0986 10.7151C13.2559 11.2445 12.9543 11.8012 12.4249 11.9586C11.8954 12.1159 11.3387 11.8143 11.1814 11.2848C10.9819 10.6133 10.9419 9.90453 11.0646 9.21483C11.1873 8.52513 11.4693 7.87361 11.8882 7.31213C12.3071 6.75065 12.8513 6.29472 13.4775 5.98064C14.1036 5.66656 14.7945 5.50301 15.495 5.50301C16.1955 5.50301 16.8864 5.66656 17.5126 5.98064C18.1387 6.29471 18.6829 6.75064 19.1018 7.31213C19.5207 7.87361 19.8027 8.52513 19.9254 9.21483C20.0481 9.90453 20.0081 10.6133 19.8086 11.2848C19.6513 11.8143 19.0946 12.1159 18.5651 11.9586C18.0357 11.8012 17.7341 11.2445 17.8914 10.7151C18.0023 10.3421 18.0245 9.9483 17.9564 9.56513C17.8882 9.18197 17.7315 8.82001 17.4988 8.50808C17.2661 8.19614 16.9637 7.94285 16.6159 7.76836C16.268 7.59387 15.8842 7.50301 15.495 7.50301Z" fill="black"/>
<path fill-rule="evenodd" clip-rule="evenodd" d="M10.2779 2.34254C10.8239 2.1164 11.4091 2 12 2C12.5909 2 13.1761 2.1164 13.7221 2.34254C14.268 2.56869 14.7641 2.90016 15.182 3.31802C15.5998 3.73588 15.9313 4.23196 16.1575 4.77792C16.3836 5.32389 16.5 5.90905 16.5 6.5C16.5 7.05228 16.0523 7.5 15.5 7.5C14.9477 7.5 14.5 7.05228 14.5 6.5C14.5 6.17169 14.4353 5.8466 14.3097 5.54329C14.1841 5.23998 13.9999 4.96438 13.7678 4.73223C13.5356 4.50009 13.26 4.31594 12.9567 4.1903C12.6534 4.06466 12.3283 4 12 4C11.6717 4 11.3466 4.06466 11.0433 4.1903C10.74 4.31594 10.4644 4.50009 10.2322 4.73223C10.0001 4.96438 9.81594 5.23998 9.6903 5.54329C9.56466 5.8466 9.5 6.17169 9.5 6.5C9.5 7.05228 9.05228 7.5 8.5 7.5C7.94772 7.5 7.5 7.05228 7.5 6.5C7.5 5.90905 7.6164 5.32389 7.84254 4.77792C8.06869 4.23196 8.40016 3.73588 8.81802 3.31802C9.23588 2.90016 9.73196 2.56869 10.2779 2.34254Z" fill="black"/>
</svg>
