<svg width="24" height="24" viewBox="0 0 24 24" fill="none" xmlns="http://www.w3.org/2000/svg">
<path fill-rule="evenodd" clip-rule="evenodd" d="M15 10C15 9.44772 15.4477 9 16 9H18C18.5523 9 19 9.44772 19 10C19 10.5523 18.5523 11 18 11H16C15.4477 11 15 10.5523 15 10Z" fill="black"/>
<path fill-rule="evenodd" clip-rule="evenodd" d="M15 14C15 13.4477 15.4477 13 16 13H18C18.5523 13 19 13.4477 19 14C19 14.5523 18.5523 15 18 15H16C15.4477 15 15 14.5523 15 14Z" fill="black"/>
<path fill-rule="evenodd" clip-rule="evenodd" d="M9.00012 13.9955C8.58599 13.9955 8.18207 14.1241 7.84413 14.3635C7.50618 14.6028 7.25088 14.9412 7.11345 15.3318C6.93018 15.8528 6.35926 16.1266 5.83827 15.9433C5.31728 15.7601 5.04351 15.1891 5.22678 14.6682C5.50164 13.8868 6.01225 13.2101 6.68814 12.7314C7.36403 12.2527 8.17186 11.9955 9.00012 11.9955C9.82837 11.9955 10.6362 12.2527 11.3121 12.7314C11.988 13.2101 12.4986 13.8868 12.7734 14.6682C12.9567 15.1891 12.683 15.7601 12.162 15.9433C11.641 16.1266 11.0701 15.8528 10.8868 15.3318C10.7494 14.9412 10.494 14.6028 10.1561 14.3635C9.81816 14.1241 9.41424 13.9955 9.00012 13.9955Z" fill="black"/>
<path fill-rule="evenodd" clip-rule="evenodd" d="M9 10C8.44771 10 8 10.4477 8 11C8 11.5523 8.44771 12 9 12C9.55228 12 10 11.5523 10 11C10 10.4477 9.55228 10 9 10ZM6 11C6 9.34315 7.34315 8 9 8C10.6569 8 12 9.34315 12 11C12 12.6569 10.6569 14 9 14C7.34315 14 6 12.6569 6 11Z" fill="black"/>
<path fill-rule="evenodd" clip-rule="evenodd" d="M4 6C3.44772 6 3 6.44772 3 7V17C3 17.5523 3.44772 18 4 18H20C20.5523 18 21 17.5523 21 17V7C21 6.44772 20.5523 6 20 6H4ZM1 7C1 5.34315 2.34315 4 4 4H20C21.6569 4 23 5.34315 23 7V17C23 18.6569 21.6569 20 20 20H4C2.34315 20 1 18.6569 1 17V7Z" fill="black"/>
</svg>
