<svg width="24" height="24" viewBox="0 0 24 24" fill="none" xmlns="http://www.w3.org/2000/svg">
<path fill-rule="evenodd" clip-rule="evenodd" d="M5 4C4.73478 4 4.48043 4.10536 4.29289 4.29289C4.10536 4.48043 4 4.73478 4 5V19C4 19.2652 4.10536 19.5196 4.29289 19.7071C4.48043 19.8946 4.73478 20 5 20H5.58579L14.379 11.2068C14.9379 10.648 15.6948 10.3323 16.4851 10.3284C17.2755 10.3245 18.0355 10.6326 18.6 11.1858C18.6024 11.1882 18.6047 11.1905 18.6071 11.1929L20 12.5858V5C20 4.73478 19.8946 4.48043 19.7071 4.29289C19.5196 4.10536 19.2652 4 19 4H5ZM8.41421 20H10.3C10.8523 20 11.3 20.4477 11.3 21C11.3 21.5523 10.8523 22 10.3 22H5C4.20435 22 3.44129 21.6839 2.87868 21.1213C2.31607 20.5587 2 19.7956 2 19V5C2 4.20435 2.31607 3.44129 2.87868 2.87868C3.44129 2.31607 4.20435 2 5 2H19C19.7956 2 20.5587 2.31607 21.1213 2.87868C21.6839 3.44129 22 4.20435 22 5V15C22 15.4045 21.7564 15.7691 21.3827 15.9239C21.009 16.0787 20.5789 15.9931 20.2929 15.7071L17.1971 12.6113C17.0092 12.4287 16.7572 12.3271 16.4951 12.3284C16.2317 12.3297 15.9794 12.4349 15.7931 12.6211C15.7931 12.6211 15.7931 12.6211 15.7931 12.6211L8.41421 20Z" fill="black"/>
<path fill-rule="evenodd" clip-rule="evenodd" d="M17 15.5C17.5523 15.5 18 15.9477 18 16.5V22C18 22.4045 17.7564 22.7691 17.3827 22.9239C17.009 23.0787 16.5789 22.9931 16.2929 22.7071L13.2929 19.7071C12.9024 19.3166 12.9024 18.6834 13.2929 18.2929C13.6834 17.9024 14.3166 17.9024 14.7071 18.2929L16 19.5858V16.5C16 15.9477 16.4477 15.5 17 15.5Z" fill="black"/>
<path fill-rule="evenodd" clip-rule="evenodd" d="M20.7071 18.2929C21.0976 18.6834 21.0976 19.3166 20.7071 19.7071L17.7071 22.7071C17.3166 23.0976 16.6834 23.0976 16.2929 22.7071C15.9024 22.3166 15.9024 21.6834 16.2929 21.2929L19.2929 18.2929C19.6834 17.9024 20.3166 17.9024 20.7071 18.2929Z" fill="black"/>
<path fill-rule="evenodd" clip-rule="evenodd" d="M9 8C8.44771 8 8 8.44771 8 9C8 9.55228 8.44771 10 9 10C9.55228 10 10 9.55228 10 9C10 8.44771 9.55228 8 9 8ZM6 9C6 7.34315 7.34315 6 9 6C10.6569 6 12 7.34315 12 9C12 10.6569 10.6569 12 9 12C7.34315 12 6 10.6569 6 9Z" fill="black"/>
</svg>
