<svg width="24" height="24" viewBox="0 0 24 24" fill="none" xmlns="http://www.w3.org/2000/svg">
<path fill-rule="evenodd" clip-rule="evenodd" d="M9 4.00003C9 3.44774 9.44772 3.00003 10 3.00003H19C19.5523 3.00003 20 3.44774 20 4.00003C20 4.55231 19.5523 5.00003 19 5.00003H10C9.44772 5.00003 9 4.55231 9 4.00003Z" fill="black"/>
<path fill-rule="evenodd" clip-rule="evenodd" d="M4 20C4 19.4477 4.44772 19 5 19H14C14.5523 19 15 19.4477 15 20C15 20.5523 14.5523 21 14 21H5C4.44772 21 4 20.5523 4 20Z" fill="black"/>
<path fill-rule="evenodd" clip-rule="evenodd" d="M15.3511 3.0637C15.8682 3.25762 16.1302 3.83403 15.9363 4.35115L9.93633 20.3511C9.74241 20.8683 9.16599 21.1303 8.64887 20.9364C8.13175 20.7424 7.86975 20.166 8.06367 19.6489L14.0637 3.6489C14.2576 3.13178 14.834 2.86978 15.3511 3.0637Z" fill="black"/>
</svg>
