<svg width="24" height="24" viewBox="0 0 24 24" fill="none" xmlns="http://www.w3.org/2000/svg">
<path fill-rule="evenodd" clip-rule="evenodd" d="M5 3C5 2.44772 5.44772 2 6 2H18C18.5523 2 19 2.44772 19 3C19 3.55228 18.5523 4 18 4H6C5.44772 4 5 3.55228 5 3Z" fill="black"/>
<path fill-rule="evenodd" clip-rule="evenodd" d="M5 8C5 7.44772 5.44772 7 6 7H18C18.5523 7 19 7.44772 19 8C19 8.55228 18.5523 9 18 9H6C5.44772 9 5 8.55228 5 8Z" fill="black"/>
<path fill-rule="evenodd" clip-rule="evenodd" d="M5.2718 12.3146C5.65032 11.9125 6.28319 11.8933 6.68537 12.2718L15.1854 20.2718C15.5875 20.6503 15.6067 21.2832 15.2282 21.6854C14.8497 22.0875 14.2168 22.1067 13.8146 21.7282L5.31464 13.7282C4.91246 13.3497 4.89329 12.7168 5.2718 12.3146Z" fill="black"/>
<path fill-rule="evenodd" clip-rule="evenodd" d="M5 13C5 12.4477 5.44772 12 6 12H9C9.55228 12 10 12.4477 10 13C10 13.5523 9.55228 14 9 14H6C5.44772 14 5 13.5523 5 13Z" fill="black"/>
<path fill-rule="evenodd" clip-rule="evenodd" d="M8 3C8 2.44772 8.44772 2 9 2C10.9381 2 12.4651 2.73669 13.4976 3.89812C14.5137 5.04115 15.0002 6.53692 15.0002 8C15.0002 9.46308 14.5137 10.9589 13.4976 12.1019C12.4651 13.2633 10.9381 14 9 14C8.44772 14 8 13.5523 8 13C8 12.4477 8.44772 12 9 12C10.3954 12 11.3685 11.4867 12.0028 10.7731C12.6535 10.0411 13.0002 9.03692 13.0002 8C13.0002 6.96308 12.6535 5.95885 12.0028 5.22688C11.3685 4.51331 10.3954 4 9 4C8.44772 4 8 3.55228 8 3Z" fill="black"/>
</svg>
