<svg width="24" height="24" viewBox="0 0 24 24" fill="none" xmlns="http://www.w3.org/2000/svg">
<path fill-rule="evenodd" clip-rule="evenodd" d="M6.6333 10.0697C7.1471 9.86713 7.72781 10.1195 7.93036 10.6333L12 20.9571L16.0697 10.6333C16.2723 10.1195 16.853 9.86713 17.3668 10.0697C17.8806 10.2722 18.1329 10.8529 17.9304 11.3667L13.8504 21.7167C13.847 21.7252 13.8436 21.7336 13.84 21.7419C13.6863 22.1027 13.43 22.4103 13.1028 22.6266C12.7757 22.8428 12.3922 22.9581 12 22.9581C11.6079 22.9581 11.2244 22.8428 10.8972 22.6266C10.5701 22.4103 10.3137 22.1027 10.16 21.7419C10.1565 21.7336 10.153 21.7252 10.1497 21.7167L6.06971 11.3667C5.86716 10.8529 6.11949 10.2722 6.6333 10.0697Z" fill="black"/>
<path fill-rule="evenodd" clip-rule="evenodd" d="M7.75736 2.75736C8.88258 1.63214 10.4087 1 12 1C13.5913 1 15.1174 1.63214 16.2426 2.75736C17.3679 3.88258 18 5.4087 18 7C18 7.55228 17.5523 8 17 8C16.4477 8 16 7.55228 16 7C16 5.93913 15.5786 4.92172 14.8284 4.17157C14.0783 3.42143 13.0609 3 12 3C10.9391 3 9.92172 3.42143 9.17157 4.17157C8.42143 4.92172 8 5.93913 8 7C8 7.55228 7.55228 8 7 8C6.44772 8 6 7.55228 6 7C6 5.4087 6.63214 3.88258 7.75736 2.75736Z" fill="black"/>
<path fill-rule="evenodd" clip-rule="evenodd" d="M7 8C6.73478 8 6.48043 8.10536 6.29289 8.29289C6.10536 8.48043 6 8.73478 6 9C6 9.26522 6.10536 9.51957 6.29289 9.70711C6.48043 9.89464 6.73478 10 7 10H17C17.2652 10 17.5196 9.89464 17.7071 9.70711C17.8946 9.51957 18 9.26522 18 9C18 8.73478 17.8946 8.48043 17.7071 8.29289C17.5196 8.10536 17.2652 8 17 8C16.4477 8 16 7.55228 16 7C16 6.44772 16.4477 6 17 6C17.7956 6 18.5587 6.31607 19.1213 6.87868C19.6839 7.44129 20 8.20435 20 9C20 9.79565 19.6839 10.5587 19.1213 11.1213C18.5587 11.6839 17.7957 12 17 12H7C6.20435 12 5.44129 11.6839 4.87868 11.1213C4.31607 10.5587 4 9.79565 4 9C4 8.20435 4.31607 7.44129 4.87868 6.87868C5.44129 6.31607 6.20435 6 7 6C7.55228 6 8 6.44772 8 7C8 7.55228 7.55228 8 7 8Z" fill="black"/>
</svg>
