<svg width="24" height="24" viewBox="0 0 24 24" fill="none" xmlns="http://www.w3.org/2000/svg">
<path d="M13.5 7.00007C14.0523 7.00007 14.5 7.44778 14.5 8.00007C14.5 8.55235 14.0523 9.00007 13.5 9.00007H10.5C9.94772 9.00007 9.5 8.55235 9.5 8.00007C9.5 7.44778 9.94772 7.00007 10.5 7.00007H13.5Z" fill="black"/>
<path d="M4 20.0001V6.00007C4 5.20442 4.3163 4.44158 4.87891 3.87897C5.44152 3.31637 6.20435 3.00007 7 3.00007H10C10.5523 3.00007 11 3.44778 11 4.00007C11 4.55235 10.5523 5.00007 10 5.00007H7C6.73478 5.00007 6.4805 5.1055 6.29297 5.29304C6.10543 5.48057 6 5.73485 6 6.00007V20.0001C6 20.2653 6.10543 20.5196 6.29297 20.7071C6.48051 20.8946 6.73478 21.0001 7 21.0001H17C17.2652 21.0001 17.5195 20.8946 17.707 20.7071C17.8946 20.5196 18 20.2653 18 20.0001V6.00007C18 5.73485 17.8946 5.48057 17.707 5.29304C17.5195 5.1055 17.2652 5.00007 17 5.00007H14C13.6534 5.00007 13.3316 4.82028 13.1494 4.52546C12.9673 4.23068 12.9505 3.86272 13.1055 3.5528L14.1055 1.5528C14.3525 1.05882 14.9533 0.858548 15.4473 1.10554C15.9412 1.35253 16.1415 1.95336 15.8945 2.44733L15.6182 3.00007H17C17.7956 3.00007 18.5585 3.31637 19.1211 3.87897C19.6837 4.44158 20 5.20442 20 6.00007V20.0001C20 20.7957 19.6837 21.5586 19.1211 22.1212C18.5585 22.6838 17.7957 23.0001 17 23.0001H7C6.20435 23.0001 5.44152 22.6838 4.87891 22.1212C4.3163 21.5586 4 20.7957 4 20.0001Z" fill="black"/>
<path d="M11.9994 16.9975C13.3829 16.9975 14.7239 17.4758 15.7953 18.351C16.8667 19.2263 17.6033 20.4446 17.8793 21.8002C17.9895 22.3414 17.6392 22.8698 17.098 22.9799C16.5571 23.0898 16.0295 22.7406 15.9193 22.1997C15.7353 21.2959 15.244 20.4834 14.5297 19.8999C13.8154 19.3165 12.9217 18.9975 11.9994 18.9975C11.0772 18.9975 10.1834 19.3164 9.46914 19.8999C8.75485 20.4834 8.26349 21.2959 8.07949 22.1997C7.96925 22.7407 7.44182 23.0899 6.90078 22.9799C6.3596 22.8698 6.01033 22.3414 6.12051 21.8002C6.39656 20.4447 7.13223 19.2262 8.20352 18.351C9.27493 17.4758 10.6159 16.9975 11.9994 16.9975Z" fill="black"/>
<path d="M8.55273 1.10554C9.04671 0.858548 9.64754 1.05882 9.89453 1.5528L12.8945 7.5528C13.1415 8.04678 12.9412 8.64761 12.4473 8.8946C11.9533 9.14159 11.3525 8.94131 11.1055 8.44733L8.10547 2.44733C7.85848 1.95336 8.05876 1.35253 8.55273 1.10554Z" fill="black"/>
<path d="M14 15.0001C14 13.8955 13.1046 13.0001 12 13.0001C10.8954 13.0001 10 13.8955 10 15.0001C10 16.1046 10.8954 17.0001 12 17.0001C13.1046 17.0001 14 16.1046 14 15.0001ZM16 15.0001C16 17.2092 14.2091 19.0001 12 19.0001C9.79086 19.0001 8 17.2092 8 15.0001C8 12.7909 9.79086 11.0001 12 11.0001C14.2091 11.0001 16 12.7909 16 15.0001Z" fill="black"/>
</svg>
