<svg width="24" height="24" viewBox="0 0 24 24" fill="none" xmlns="http://www.w3.org/2000/svg">
<path d="M18.9999 7.99414C19.4487 7.99414 19.8932 8.08325 20.3075 8.25586C20.7206 8.42796 21.0956 8.67976 21.411 8.99707L22.7069 10.293C23.0975 10.6835 23.0974 11.3165 22.7069 11.707C22.3164 12.0976 21.6834 12.0976 21.2929 11.707L19.9941 10.4082C19.8639 10.277 19.7086 10.1726 19.538 10.1016C19.3675 10.0306 19.1846 9.99414 18.9999 9.99414C18.8152 9.99414 18.6323 10.0306 18.4618 10.1016C18.2912 10.1726 18.1359 10.277 18.0058 10.4082L11.7069 16.707C11.3164 17.0976 10.6834 17.0976 10.2929 16.707C9.90238 16.3165 9.90236 15.6835 10.2929 15.293L16.5888 8.99707C16.9042 8.67976 17.2793 8.42796 17.6923 8.25586C18.1066 8.08325 18.5511 7.99414 18.9999 7.99414Z" fill="black"/>
<path d="M1 20V10C1 9.20435 1.3163 8.44152 1.87891 7.87891C2.44151 7.3163 3.20435 7 4 7C4.55228 7 5 7.44772 5 8C5 8.55228 4.55228 9 4 9C3.73478 9 3.48051 9.10543 3.29297 9.29297C3.10543 9.4805 3 9.73478 3 10V20C3 20.2652 3.10543 20.5195 3.29297 20.707C3.48051 20.8946 3.73478 21 4 21H14C14.2652 21 14.5195 20.8946 14.707 20.707C14.8946 20.5195 15 20.2652 15 20C15 19.4477 15.4477 19 16 19C16.5523 19 17 19.4477 17 20C17 20.7957 16.6837 21.5585 16.1211 22.1211C15.5585 22.6837 14.7957 23 14 23H4C3.20435 23 2.44151 22.6837 1.87891 22.1211C1.3163 21.5585 1 20.7957 1 20Z" fill="black"/>
<path d="M13 8C13.5523 8 14 7.55228 14 7C14 6.44772 13.5523 6 13 6C12.4477 6 12 6.44772 12 7C12 7.55228 12.4477 8 13 8Z" fill="black"/>
<path d="M11 7C11 5.89543 11.8954 5 13 5C14.1046 5 15 5.89543 15 7C15 8.10457 14.1046 9 13 9C11.8954 9 11 8.10457 11 7Z" fill="black"/>
<path d="M21 4C21 3.44772 20.5523 3 20 3H10C9.44772 3 9 3.44772 9 4V14C9 14.5523 9.44772 15 10 15H20C20.5523 15 21 14.5523 21 14V4ZM23 14C23 15.6569 21.6569 17 20 17H10C8.34315 17 7 15.6569 7 14V4C7 2.34315 8.34315 1 10 1H20C21.6569 1 23 2.34315 23 4V14Z" fill="black"/>
</svg>
