<svg width="24" height="24" viewBox="0 0 24 24" fill="none" xmlns="http://www.w3.org/2000/svg">
<path d="M20 8V4H16C15.4477 4 15 3.55228 15 3C15 2.44772 15.4477 2 16 2H21C21.5523 2 22 2.44772 22 3V8C22 8.55228 21.5523 9 21 9C20.4477 9 20 8.55228 20 8Z" fill="black"/>
<path d="M20 19C20 18.4477 20.4477 18 21 18C21.5523 18 22 18.4477 22 19C22 19.7957 21.6837 20.5585 21.1211 21.1211C20.5585 21.6837 19.7957 22 19 22H17C16.4477 22 16 21.5523 16 21C16 20.4477 16.4477 20 17 20H19C19.2652 20 19.5195 19.8946 19.707 19.707C19.8946 19.5195 20 19.2652 20 19Z" fill="black"/>
<path d="M20 15V12C20 11.4477 20.4477 11 21 11C21.5523 11 22 11.4477 22 12V15C22 15.5523 21.5523 16 21 16C20.4477 16 20 15.5523 20 15Z" fill="black"/>
<path d="M20.293 2.29297C20.6835 1.90244 21.3165 1.90244 21.707 2.29297C22.0976 2.68349 22.0976 3.31651 21.707 3.70703L16.707 8.70703C16.3165 9.09756 15.6835 9.09756 15.293 8.70703C14.9024 8.31651 14.9024 7.68349 15.293 7.29297L20.293 2.29297Z" fill="black"/>
<path d="M2 7V5C2 4.20435 2.3163 3.44152 2.87891 2.87891C3.44152 2.3163 4.20435 2 5 2C5.55228 2 6 2.44772 6 3C6 3.55228 5.55228 4 5 4C4.73478 4 4.4805 4.10543 4.29297 4.29297C4.10543 4.4805 4 4.73478 4 5V7C4 7.55228 3.55228 8 3 8C2.44772 8 2 7.55228 2 7Z" fill="black"/>
<path d="M10 15.5012C10.2904 15.5012 10.5784 15.558 10.8467 15.6692C11.1147 15.7803 11.3574 15.9444 11.5625 16.1496L11.5635 16.1487L13.707 18.2932C14.0974 18.6837 14.0975 19.3168 13.707 19.7073C13.3165 20.0976 12.6835 20.0976 12.293 19.7073L10.1484 17.5627C10.129 17.5432 10.1055 17.5274 10.0801 17.5168C10.0547 17.5064 10.0274 17.5012 10 17.5012C9.97256 17.5012 9.94529 17.5064 9.91992 17.5168C9.89447 17.5274 9.87105 17.5432 9.85156 17.5627L5.70703 21.7073C5.31653 22.0976 4.68347 22.0976 4.29297 21.7073C3.90248 21.3168 3.90256 20.6837 4.29297 20.2932L8.43652 16.1487C8.6417 15.9433 8.88515 15.7804 9.15332 15.6692C9.42158 15.558 9.7096 15.5012 10 15.5012Z" fill="black"/>
<path d="M12 2C12.5523 2 13 2.44772 13 3C13 3.55228 12.5523 4 12 4H9C8.44772 4 8 3.55228 8 3C8 2.44772 8.44772 2 9 2H12Z" fill="black"/>
<path d="M4 12V20H12V12H4ZM14 20C14 21.1046 13.1046 22 12 22H4C2.89543 22 2 21.1046 2 20V12C2 10.8954 2.89543 10 4 10H12C13.1046 10 14 10.8954 14 12V20Z" fill="black"/>
</svg>
