<svg width="24" height="24" viewBox="0 0 24 24" fill="none" xmlns="http://www.w3.org/2000/svg">
<path d="M15.2929 13.293C15.6834 12.9025 16.3164 12.9025 16.707 13.293L20.707 17.293C21.0975 17.6835 21.0975 18.3166 20.707 18.7071L16.707 22.7071C16.3164 23.0976 15.6834 23.0976 15.2929 22.7071C14.9024 22.3166 14.9024 21.6835 15.2929 21.293L18.5859 18L15.2929 14.7071C14.9024 14.3166 14.9024 13.6835 15.2929 13.293Z" fill="black"/>
<path d="M18.9999 9.99994C18.9999 8.61557 18.5893 7.26237 17.8203 6.11127C17.0511 4.96015 15.9577 4.06296 14.6787 3.53315C13.3997 3.00338 11.9925 2.8647 10.6347 3.13471C9.27684 3.40481 8.02872 4.07078 7.04975 5.04975C6.07078 6.02872 5.40481 7.27684 5.13471 8.63471C4.8647 9.99248 5.00338 11.3997 5.53315 12.6787C6.06296 13.9577 6.96015 15.0511 8.11127 15.8203C9.26237 16.5893 10.6156 16.9999 11.9999 16.9999H19.9999C20.5522 16.9999 20.9999 17.4477 20.9999 17.9999C20.9999 18.5522 20.5522 18.9999 19.9999 18.9999H11.9999C10.22 18.9999 8.47995 18.4722 6.99994 17.4833C5.52 16.4945 4.3667 15.0887 3.68549 13.4443C3.0043 11.7997 2.82553 9.98991 3.1728 8.24409C3.52007 6.49827 4.37702 4.89435 5.63569 3.63569C6.89435 2.37702 8.49827 1.52007 10.2441 1.1728C11.9899 0.825529 13.7997 1.0043 15.4443 1.68549C17.0887 2.3667 18.4945 3.52 19.4833 4.99994C20.4722 6.47995 20.9999 8.21998 20.9999 9.99994C20.9999 10.5522 20.5522 10.9999 19.9999 10.9999C19.4477 10.9999 18.9999 10.5522 18.9999 9.99994Z" fill="black"/>
</svg>
