<svg width="24" height="24" viewBox="0 0 24 24" fill="none" xmlns="http://www.w3.org/2000/svg">
<path fill-rule="evenodd" clip-rule="evenodd" d="M13.0921 3.42203L9.4221 7.09204C9.17185 7.36786 9.03303 7.72711 9.03303 8.09993C9.03303 8.47275 9.17185 8.832 9.4221 9.10782L14.8921 14.5778C15.1679 14.8281 15.5272 14.9669 15.9 14.9669C16.2728 14.9669 16.6321 14.8281 16.9079 14.5778L20.5779 10.9078C20.8281 10.632 20.967 10.2727 20.967 9.89993C20.967 9.52711 20.8281 9.16785 20.5779 8.89203L15.1079 3.42203C14.8321 3.17179 14.4728 3.03296 14.1 3.03296C13.7272 3.03296 13.3679 3.17179 13.0921 3.42203ZM11.72 1.96672C12.3672 1.36648 13.2173 1.03296 14.1 1.03296C14.9827 1.03296 15.8328 1.36648 16.48 1.96672C16.4892 1.97525 16.4982 1.98395 16.5071 1.99282L22.0071 7.49282C22.016 7.50169 22.0247 7.51073 22.0332 7.51993C22.6334 8.16713 22.967 9.01723 22.967 9.89993C22.967 10.7826 22.6334 11.6327 22.0332 12.2799C22.0247 12.2891 22.016 12.2982 22.0071 12.307L18.3071 16.007C18.2982 16.0159 18.2892 16.0246 18.28 16.0331C17.6328 16.6334 16.7827 16.9669 15.9 16.9669C15.0173 16.9669 14.1672 16.6334 13.52 16.0331C13.5108 16.0246 13.5018 16.0159 13.4929 16.007L7.99289 10.507C7.98402 10.4982 7.97532 10.4891 7.96678 10.4799C7.36655 9.83272 7.03303 8.98262 7.03303 8.09993C7.03303 7.21723 7.36655 6.36713 7.96678 5.71993C7.97532 5.71073 7.98402 5.70169 7.99289 5.69282L11.6929 1.99282C11.7018 1.98395 11.7108 1.97525 11.72 1.96672Z" fill="black"/>
<path fill-rule="evenodd" clip-rule="evenodd" d="M13.2929 6.29282C13.6834 5.9023 14.3166 5.9023 14.7071 6.29282L17.7071 9.29282C18.0976 9.68335 18.0976 10.3165 17.7071 10.707C17.3166 11.0976 16.6834 11.0976 16.2929 10.707L13.2929 7.70704C12.9024 7.31651 12.9024 6.68335 13.2929 6.29282Z" fill="black"/>
<path fill-rule="evenodd" clip-rule="evenodd" d="M10.1071 9.89282C10.4976 10.2833 10.4976 10.9165 10.1071 11.307L3.29311 18.121C3.10561 18.3085 3.00011 18.5628 3 18.8279C3 18.8279 3 18.828 3 18.8279V20.9999H6V19.9999C6 19.4695 6.21071 18.9608 6.58579 18.5857C6.96086 18.2106 7.46957 17.9999 8 17.9999H9V16.9999C9 16.4695 9.21071 15.9608 9.58579 15.5857C9.96086 15.2106 10.4696 14.9999 11 14.9999H11.1718C11.1717 14.9999 11.1719 14.9999 11.1718 14.9999C11.4369 14.9998 11.6913 14.8944 11.8788 14.7069L12.6929 13.8928C13.0834 13.5023 13.7166 13.5023 14.1071 13.8928C14.4976 14.2833 14.4976 14.9165 14.1071 15.307L13.2932 16.1209C12.7307 16.6836 11.9678 16.9998 11.1722 16.9999H11V17.9999C11 18.5304 10.7893 19.0391 10.4142 19.4141C10.0391 19.7892 9.53043 19.9999 9 19.9999L8 19.9999V20.9999C8 21.5304 7.78929 22.0391 7.41421 22.4141C7.03914 22.7892 6.53043 22.9999 6 22.9999H3C2.46957 22.9999 1.96086 22.7892 1.58579 22.4141C1.21071 22.0391 1 21.5304 1 20.9999V18.8277C1.00017 18.0322 1.31631 17.2693 1.87889 16.7068C1.87886 16.7069 1.87893 16.7068 1.87889 16.7068L8.69289 9.89282C9.08342 9.5023 9.71658 9.5023 10.1071 9.89282Z" fill="black"/>
</svg>
