<svg width="24" height="24" viewBox="0 0 24 24" fill="none" xmlns="http://www.w3.org/2000/svg">
<path fill-rule="evenodd" clip-rule="evenodd" d="M19 4C19 3.44772 19.4477 3 20 3C20.7957 3 21.5587 3.31607 22.1213 3.87868C22.6839 4.44129 23 5.20435 23 6C23 6.55228 22.5523 7 22 7C21.4477 7 21 6.55228 21 6C21 5.73478 20.8946 5.48043 20.7071 5.29289C20.5196 5.10536 20.2652 5 20 5C19.4477 5 19 4.55228 19 4Z" fill="black"/>
<path fill-rule="evenodd" clip-rule="evenodd" d="M22 5C22.5523 5 23 5.44772 23 6V16.41C23 16.9623 22.5523 17.41 22 17.41C21.4477 17.41 21 16.9623 21 16.41V6C21 5.44772 21.4477 5 22 5Z" fill="black"/>
<path fill-rule="evenodd" clip-rule="evenodd" d="M6 16C6 15.4477 6.44772 15 7 15H16C16.5523 15 17 15.4477 17 16C17 16.5523 16.5523 17 16 17H7C6.44772 17 6 16.5523 6 16Z" fill="black"/>
<path fill-rule="evenodd" clip-rule="evenodd" d="M8.69 4C8.69 3.44772 9.13771 3 9.69 3H20C20.5523 3 21 3.44772 21 4C21 4.55228 20.5523 5 20 5H9.69C9.13771 5 8.69 4.55228 8.69 4Z" fill="black"/>
<path fill-rule="evenodd" clip-rule="evenodd" d="M13 8C13 7.44772 13.4477 7 14 7H14.01C14.5623 7 15.01 7.44772 15.01 8C15.01 8.55228 14.5623 9 14.01 9H14C13.4477 9 13 8.55228 13 8Z" fill="black"/>
<path fill-rule="evenodd" clip-rule="evenodd" d="M17 8C17 7.44772 17.4477 7 18 7H18.01C18.5623 7 19.01 7.44772 19.01 8C19.01 8.55228 18.5623 9 18.01 9H18C17.4477 9 17 8.55228 17 8Z" fill="black"/>
<path fill-rule="evenodd" clip-rule="evenodd" d="M1.29289 1.29289C1.68342 0.902369 2.31658 0.902369 2.70711 1.29289L22.7071 21.2929C23.0976 21.6834 23.0976 22.3166 22.7071 22.7071C22.3166 23.0976 21.6834 23.0976 21.2929 22.7071L1.29289 2.70711C0.902369 2.31658 0.902369 1.68342 1.29289 1.29289Z" fill="black"/>
<path fill-rule="evenodd" clip-rule="evenodd" d="M4 5C3.73478 5 3.48043 5.10536 3.29289 5.29289C3.10536 5.48043 3 5.73478 3 6V18C3 18.2652 3.10536 18.5196 3.29289 18.7071C3.48043 18.8946 3.73478 19 4 19H20C20.5523 19 21 19.4477 21 20C21 20.5523 20.5523 21 20 21H4C3.20435 21 2.44129 20.6839 1.87868 20.1213C1.31607 19.5587 1 18.7957 1 18V6C1 5.20435 1.31607 4.44129 1.87868 3.87868C2.44129 3.31607 3.20435 3 4 3C4.55228 3 5 3.44772 5 4C5 4.55228 4.55228 5 4 5Z" fill="black"/>
<path fill-rule="evenodd" clip-rule="evenodd" d="M5 8C5 7.44772 5.44772 7 6 7H6.01C6.56228 7 7.01 7.44772 7.01 8C7.01 8.55228 6.56228 9 6.01 9H6C5.44772 9 5 8.55228 5 8Z" fill="black"/>
<path fill-rule="evenodd" clip-rule="evenodd" d="M7 12C7 11.4477 7.44772 11 8 11H8.01C8.56228 11 9.01 11.4477 9.01 12C9.01 12.5523 8.56228 13 8.01 13H8C7.44772 13 7 12.5523 7 12Z" fill="black"/>
</svg>
