<svg width="24" height="24" viewBox="0 0 24 24" fill="none" xmlns="http://www.w3.org/2000/svg">
<path fill-rule="evenodd" clip-rule="evenodd" d="M18.2929 3.29289C18.6834 2.90237 19.3166 2.90237 19.7071 3.29289L22.0071 5.59289L22.0111 5.59689L22.0141 5.6C22.3806 5.97386 22.5859 6.47649 22.5859 7C22.5859 7.52351 22.3806 8.02614 22.0141 8.4L22.0108 8.40341L22.0071 8.40711L19.9071 10.5071C19.9048 10.5095 19.9024 10.5118 19.9 10.5141C19.5261 10.8806 19.0235 11.0859 18.5 11.0859C17.9765 11.0859 17.4739 10.8806 17.1 10.5141C17.0976 10.5118 17.0952 10.5095 17.0929 10.5071L14.7929 8.20711C14.4024 7.81658 14.4024 7.18342 14.7929 6.79289C15.1834 6.40237 15.8166 6.40237 16.2071 6.79289L18.5 9.08579L20.5858 7L18.2929 4.70711C17.9024 4.31658 17.9024 3.68342 18.2929 3.29289Z" fill="black"/>
<path fill-rule="evenodd" clip-rule="evenodd" d="M21.7071 1.29289C22.0976 1.68342 22.0976 2.31658 21.7071 2.70711L12.1071 12.3071C11.7166 12.6976 11.0834 12.6976 10.6929 12.3071C10.3024 11.9166 10.3024 11.2834 10.6929 10.8929L20.2929 1.29289C20.6834 0.902369 21.3166 0.902369 21.7071 1.29289Z" fill="black"/>
<path fill-rule="evenodd" clip-rule="evenodd" d="M7.5 11C5.01472 11 3 13.0147 3 15.5C3 17.9853 5.01472 20 7.5 20C9.98528 20 12 17.9853 12 15.5C12 13.0147 9.98528 11 7.5 11ZM1 15.5C1 11.9101 3.91015 9 7.5 9C11.0899 9 14 11.9101 14 15.5C14 19.0899 11.0899 22 7.5 22C3.91015 22 1 19.0899 1 15.5Z" fill="black"/>
</svg>
