<svg width="24" height="24" viewBox="0 0 24 24" fill="none" xmlns="http://www.w3.org/2000/svg">
<path d="M19 15.9999C19.5933 15.9999 20.1736 16.1762 20.667 16.5058C21.1601 16.8354 21.5444 17.3036 21.7715 17.8515C21.9985 18.3996 22.0581 19.003 21.9424 19.5849C21.8266 20.1668 21.5406 20.7015 21.1211 21.121C20.7015 21.5406 20.1669 21.8266 19.585 21.9423C19.0031 22.058 18.3996 21.9984 17.8516 21.7714C17.3037 21.5444 16.8354 21.16 16.5059 20.6669C16.1762 20.1736 16 19.5933 16 18.9999V17.9999C16 17.4695 16.2109 16.9609 16.5859 16.5859C16.961 16.2108 17.4696 15.9999 18 15.9999H19ZM18 18.9999C18 19.1977 18.0591 19.3912 18.1689 19.5556C18.2788 19.7199 18.4346 19.8481 18.6172 19.9238C18.7999 19.9995 19.0013 20.019 19.1953 19.9804C19.3892 19.9418 19.5672 19.8468 19.707 19.707C19.8468 19.5672 19.9418 19.3891 19.9805 19.1952C20.0191 19.0013 19.9995 18.7999 19.9238 18.6171C19.8482 18.4345 19.7199 18.2787 19.5557 18.1689C19.3912 18.059 19.1978 17.9999 19 17.9999H18V18.9999Z" fill="black"/>
<path d="M20.8545 2.03312L21.0537 2.09172C21.2485 2.16403 21.4261 2.27765 21.5742 2.4257C21.7222 2.57375 21.8359 2.75145 21.9082 2.94621L21.9668 3.14543L21.9961 3.35148C22.0098 3.55055 21.9798 3.75032 21.9121 3.93937L21.914 3.94035C20.1105 9.08823 18.2565 12.7024 15.4795 15.4794C12.7025 18.2564 9.08829 20.1105 3.94041 21.914L3.93943 21.912C3.68489 22.0032 3.41017 22.0237 3.14549 21.9667C2.8728 21.908 2.62301 21.7714 2.42576 21.5741C2.22851 21.3769 2.09193 21.1271 2.03318 20.8544C1.97613 20.5894 1.99637 20.3143 2.08787 20.0595H2.08592C3.88944 14.9116 5.74347 11.2974 8.52049 8.52043C11.2975 5.74341 14.9117 3.88938 20.0596 2.08586V2.08781C20.2489 2.01983 20.4491 1.99014 20.6484 2.00383L20.8545 2.03312ZM3.46092 20.5458L3.47166 20.5439L3.45896 20.54L3.46092 20.5458ZM3.47166 20.5439L3.46092 20.5458L3.45896 20.54L3.47166 20.5439ZM19.6347 4.36418C15.1997 5.99959 12.2161 7.65295 9.93455 9.93449C7.65301 12.216 5.99965 15.1996 4.36424 19.6347C8.79961 17.9992 11.7838 16.347 14.0654 14.0653C16.347 11.7837 17.9993 8.79954 19.6347 4.36418Z" fill="black"/>
<path d="M5.99997 5.99991C6.39049 5.60938 7.02351 5.60938 7.41403 5.99991L18 16.5858C18.3905 16.9764 18.3905 17.6094 18 17.9999C17.6095 18.3905 16.9764 18.3904 16.5859 17.9999L5.99997 7.41397C5.60944 7.02344 5.60944 6.39043 5.99997 5.99991Z" fill="black"/>
<path d="M6 4.99994C6 4.80216 5.94093 4.60872 5.83105 4.44427C5.72121 4.27999 5.56539 4.15176 5.38281 4.07611C5.20008 4.00042 4.99867 3.98088 4.80469 4.01947C4.61081 4.05809 4.43275 4.15312 4.29297 4.29291C4.15318 4.43269 4.05815 4.61075 4.01953 4.80462C3.98094 4.99861 4.00048 5.20002 4.07617 5.38275C4.15182 5.56533 4.28005 5.72114 4.44433 5.83099C4.60878 5.94087 4.80222 5.99994 5 5.99994L5.99997 5.99991L6 4.99994ZM8 5.99994C8 6.53037 7.78913 7.03893 7.41406 7.414C7.03899 7.78907 6.53043 7.99994 6 7.99994H5C4.40665 7.99994 3.82635 7.82372 3.33301 7.49408C2.83993 7.16452 2.45555 6.69627 2.22851 6.14837C2.00149 5.60029 1.94194 4.99683 2.05762 4.41498C2.17337 3.83303 2.45935 3.2984 2.8789 2.87884C3.29846 2.45929 3.83309 2.17331 4.41504 2.05755C4.99689 1.94188 5.60035 2.00143 6.14844 2.22845C6.69633 2.45549 7.16458 2.83987 7.49414 3.33294C7.82378 3.82629 8 4.40659 8 4.99994V5.99994Z" fill="black"/>
</svg>
