<svg width="24" height="24" viewBox="0 0 24 24" fill="none" xmlns="http://www.w3.org/2000/svg">
<path fill-rule="evenodd" clip-rule="evenodd" d="M11.5524 2.10846C12.9909 1.20599 14.6931 0.81841 16.3806 1.00913C18.068 1.19986 19.6407 1.95759 20.8415 3.15838C22.0423 4.35917 22.8001 5.93192 22.9908 7.61934C23.1815 9.30677 22.7939 11.009 21.8915 12.4475C20.989 13.886 19.625 14.9757 18.0227 15.5382C16.6229 16.0297 15.1135 16.0934 13.685 15.7291L13.2932 16.1209C13.2932 16.121 13.2932 16.1209 13.2932 16.1209C12.7307 16.6835 11.9677 16.9997 11.1722 16.9999H11V17.9999C11 18.5303 10.7893 19.0391 10.4142 19.4141C10.0391 19.7892 9.53043 19.9999 9 19.9999H8V20.9999C8 21.5303 7.78929 22.0391 7.41421 22.4141C7.03914 22.7892 6.53043 22.9999 6 22.9999H3C2.46957 22.9999 1.96086 22.7892 1.58579 22.4141C1.21071 22.0391 1 21.5303 1 20.9999V18.8277C1.00017 18.0321 1.31635 17.2692 1.879 16.7067L8.2708 10.3149C7.90651 8.88645 7.97023 7.37705 8.46171 5.97717C9.02426 4.37488 10.1139 3.01094 11.5524 2.10846ZM3.293 18.1211C3.1055 18.3086 3.00011 18.5628 3 18.8279C3 18.8278 3 18.828 3 18.8279V20.9999H6V19.9999C6 19.4695 6.21071 18.9608 6.58579 18.5857C6.96086 18.2106 7.46957 17.9999 8 17.9999H9V16.9999C9 16.4695 9.21071 15.9608 9.58579 15.5857C9.96086 15.2106 10.4696 14.9999 11 14.9999H11.1718C11.1717 14.9999 11.1719 14.9999 11.1718 14.9999C11.4369 14.9998 11.6913 14.8944 11.8788 14.7069L12.6929 13.8928C12.9642 13.6215 13.3667 13.5294 13.729 13.6556C14.905 14.0652 16.1852 14.0637 17.3602 13.6511C18.5352 13.2386 19.5354 12.4395 20.1973 11.3846C20.8591 10.3297 21.1433 9.08141 21.0034 7.84397C20.8636 6.60652 20.3079 5.45317 19.4273 4.57259C18.5467 3.69202 17.3934 3.13634 16.156 2.99648C14.9185 2.85662 13.6702 3.14084 12.6153 3.80265C11.5604 4.46447 10.7613 5.4647 10.3488 6.63971C9.93625 7.81471 9.93468 9.09494 10.3443 10.271C10.4705 10.6332 10.3784 11.0358 10.1071 11.307L3.293 18.1211Z" fill="black"/>
<path d="M16.5 7.99992C16.7761 7.99992 17 7.77606 17 7.49992C17 7.22377 16.7761 6.99992 16.5 6.99992C16.2239 6.99992 16 7.22377 16 7.49992C16 7.77606 16.2239 7.99992 16.5 7.99992Z" fill="black"/>
<path fill-rule="evenodd" clip-rule="evenodd" d="M16.5 7.99992C16.7761 7.99992 17 7.77606 17 7.49992C17 7.22377 16.7761 6.99992 16.5 6.99992C16.2239 6.99992 16 7.22377 16 7.49992C16 7.77606 16.2239 7.99992 16.5 7.99992ZM15 7.49992C15 6.67149 15.6716 5.99992 16.5 5.99992C17.3284 5.99992 18 6.67149 18 7.49992C18 8.32834 17.3284 8.99992 16.5 8.99992C15.6716 8.99992 15 8.32834 15 7.49992Z" fill="black"/>
</svg>
