<svg width="24" height="24" viewBox="0 0 24 24" fill="none" xmlns="http://www.w3.org/2000/svg">
<path fill-rule="evenodd" clip-rule="evenodd" d="M4 5C3.44772 5 3 5.44772 3 6V18C3 18.5523 3.44772 19 4 19H20C20.5523 19 21 18.5523 21 18V6C21 5.44772 20.5523 5 20 5H4ZM1 6C1 4.34315 2.34315 3 4 3H20C21.6569 3 23 4.34315 23 6V18C23 19.6569 21.6569 21 20 21H4C2.34315 21 1 19.6569 1 18V6Z" fill="black"/>
<path fill-rule="evenodd" clip-rule="evenodd" d="M5 8C5 7.44772 5.44772 7 6 7H10C10.5523 7 11 7.44772 11 8C11 8.55228 10.5523 9 10 9H6C5.44772 9 5 8.55228 5 8Z" fill="black"/>
<path fill-rule="evenodd" clip-rule="evenodd" d="M13 8C13 7.44772 13.4477 7 14 7H14.01C14.5623 7 15.01 7.44772 15.01 8C15.01 8.55228 14.5623 9 14.01 9H14C13.4477 9 13 8.55228 13 8Z" fill="black"/>
<path fill-rule="evenodd" clip-rule="evenodd" d="M17 8C17 7.44772 17.4477 7 18 7H18.01C18.5623 7 19.01 7.44772 19.01 8C19.01 8.55228 18.5623 9 18.01 9H18C17.4477 9 17 8.55228 17 8Z" fill="black"/>
<path fill-rule="evenodd" clip-rule="evenodd" d="M1 12C1 11.4477 1.44772 11 2 11H22C22.5523 11 23 11.4477 23 12C23 12.5523 22.5523 13 22 13H2C1.44772 13 1 12.5523 1 12Z" fill="black"/>
<path fill-rule="evenodd" clip-rule="evenodd" d="M6 11C6.55228 11 7 11.4477 7 12V16C7 16.5523 6.55228 17 6 17C5.44772 17 5 16.5523 5 16V12C5 11.4477 5.44772 11 6 11Z" fill="black"/>
<path fill-rule="evenodd" clip-rule="evenodd" d="M10 11C10.5523 11 11 11.4477 11 12V16C11 16.5523 10.5523 17 10 17C9.44772 17 9 16.5523 9 16V12C9 11.4477 9.44772 11 10 11Z" fill="black"/>
<path fill-rule="evenodd" clip-rule="evenodd" d="M14 11C14.5523 11 15 11.4477 15 12V16C15 16.5523 14.5523 17 14 17C13.4477 17 13 16.5523 13 16V12C13 11.4477 13.4477 11 14 11Z" fill="black"/>
<path fill-rule="evenodd" clip-rule="evenodd" d="M18 11C18.5523 11 19 11.4477 19 12V16C19 16.5523 18.5523 17 18 17C17.4477 17 17 16.5523 17 16V12C17 11.4477 17.4477 11 18 11Z" fill="black"/>
</svg>
