<svg width="24" height="24" viewBox="0 0 24 24" fill="none" xmlns="http://www.w3.org/2000/svg">
<path fill-rule="evenodd" clip-rule="evenodd" d="M12.4681 1.11881C13.222 0.941288 14.009 0.96137 14.7529 1.17712C15.2003 1.30685 15.6229 1.50471 16.0067 1.76217C16.7345 1.28474 17.5914 1.02486 18.475 1.02486C19.066 1.02486 19.6511 1.14126 20.1971 1.36742C20.7431 1.59357 21.2392 1.92505 21.6571 2.34293C22.075 2.76081 22.4065 3.25691 22.6326 3.8029C22.8588 4.34888 22.9752 4.93407 22.9752 5.52504C22.9752 6.11601 22.8588 6.70119 22.6326 7.24718C22.5244 7.50835 22.3921 7.7581 22.2378 7.99334C22.4953 8.37709 22.6932 8.79975 22.8229 9.24709C23.0387 9.99099 23.0587 10.778 22.8812 11.5319C22.7037 12.2859 22.3346 12.9812 21.8096 13.5507C21.5262 13.8581 21.2025 14.1232 20.8487 14.3396C20.9742 14.8091 21.0234 15.2981 20.9922 15.7877C20.9382 16.6333 20.6467 17.4466 20.151 18.1338C19.6553 18.821 18.9757 19.3543 18.1903 19.6724C17.6783 19.8797 17.135 19.99 16.5877 20.0005C16.3812 20.4801 16.1003 20.9261 15.7536 21.3213C15.2154 21.9348 14.5351 22.4072 13.7723 22.6973C13.0095 22.9874 12.1873 23.0864 11.3774 22.9856C10.5676 22.8848 9.79467 22.5873 9.12624 22.1191C9.08771 22.0921 9.05112 22.0624 9.01677 22.0303C8.18849 21.2553 7.10178 20.8174 5.96926 20.8005C4.88136 20.9697 4.16114 21.5485 3.11903 22.386C2.96081 22.5132 2.79517 22.6463 2.61969 22.7849C2.22076 23.0999 1.649 23.0655 1.2907 22.705C0.93239 22.3444 0.901543 21.7725 1.219 21.3755C1.31312 21.2578 1.40441 21.1445 1.49278 21.0348C2.40606 19.9011 3.00828 19.1536 3.21221 17.9439C3.27441 17.5182 3.17546 17.0575 2.92336 16.5204C2.66811 15.9766 2.30084 15.4438 1.89801 14.8593L1.88137 14.8352C1.42188 14.1679 1.13142 13.399 1.03499 12.5945C0.938565 11.7901 1.03906 10.9743 1.32783 10.2173C1.6166 9.46036 2.08499 8.78489 2.69269 8.24907C3.08369 7.90432 3.52483 7.62402 3.9994 7.4169C4.00939 6.86804 4.11977 6.32312 4.32765 5.80975C4.64569 5.02436 5.17901 4.34472 5.86624 3.84904C6.55347 3.35336 7.36669 3.06179 8.21231 3.00787C8.70197 2.97665 9.19096 3.02585 9.66045 3.15131C9.87681 2.79751 10.1419 2.47387 10.4493 2.19046C11.0188 1.66546 11.7142 1.29634 12.4681 1.11881ZM14.1958 3.09796C13.7826 2.9781 13.3453 2.96695 12.9265 3.06557C12.5076 3.1642 12.1213 3.36927 11.805 3.66093C11.4886 3.9526 11.2528 4.32099 11.1206 4.73046C11.0291 5.01349 10.8164 5.24112 10.5403 5.35155C10.2641 5.46199 9.95312 5.44376 9.69175 5.30181C9.27807 5.07716 8.80937 4.97386 8.33958 5.00382C7.86979 5.03377 7.418 5.19576 7.0362 5.47113C6.65441 5.74651 6.35812 6.12409 6.18143 6.56042C6.00475 6.99674 5.95484 7.47409 6.03746 7.93753C6.13014 8.45738 5.80266 8.9597 5.2896 9.08464C4.8173 9.19966 4.38001 9.42774 4.0154 9.74923C3.65078 10.0707 3.36974 10.476 3.19648 10.9302C3.02322 11.3844 2.96292 11.8738 3.02078 12.3565C3.07863 12.8392 3.25291 13.3005 3.5286 13.7009C3.54597 13.7261 3.56353 13.7515 3.58126 13.7772C3.9562 14.3207 4.40685 14.974 4.73386 15.6707C5.08157 16.4115 5.33344 17.2886 5.18884 18.2489C5.18805 18.2541 5.18723 18.2593 5.18636 18.2645C5.14578 18.5079 5.09286 18.7397 5.02947 18.9613C5.26312 18.8963 5.5073 18.8448 5.76325 18.8094C5.80848 18.8032 5.85409 18.8 5.89975 18.8C7.53844 18.7997 9.11694 19.4125 10.3255 20.5164C10.7144 20.777 11.1593 20.943 11.6244 21.0009C12.1104 21.0614 12.6037 21.002 13.0614 20.828C13.5191 20.6539 13.9272 20.3704 14.2501 20.0023C14.5731 19.6343 14.801 19.1927 14.914 18.7163C15.0364 18.2002 15.5404 17.8695 16.0625 17.9626C16.5259 18.0452 17.0033 17.9953 17.4396 17.8186C17.8759 17.6419 18.2535 17.3456 18.5289 16.9638C18.8043 16.582 18.9663 16.1302 18.9962 15.6604C19.0262 15.1907 18.9229 14.722 18.6982 14.3083C18.5563 14.0469 18.538 13.7359 18.6485 13.4597C18.7589 13.1836 18.9865 12.9709 19.2696 12.8795C19.679 12.7472 20.0474 12.5114 20.3391 12.1951C20.6308 11.8787 20.8358 11.4924 20.9345 11.0735C21.0331 10.6547 21.0219 10.2175 20.9021 9.80418C20.7822 9.3909 20.5577 9.01556 20.2503 8.71447C20.0595 8.52763 19.9514 8.27226 19.95 8.00524C19.9486 7.73823 20.0541 7.48174 20.2429 7.29293C20.475 7.06077 20.6592 6.78515 20.7848 6.48182C20.9105 6.17848 20.9752 5.85337 20.9752 5.52504C20.9752 5.19671 20.9105 4.8716 20.7848 4.56826C20.6592 4.26493 20.475 3.98931 20.2429 3.75715C20.0107 3.52498 19.7351 3.34082 19.4318 3.21518C19.1284 3.08953 18.8033 3.02486 18.475 3.02486C17.8119 3.02486 17.176 3.28827 16.7071 3.75715C16.5183 3.94596 16.2618 4.05142 15.9948 4.05003C15.7278 4.04864 15.4724 3.94052 15.2856 3.74975C14.9845 3.44233 14.6091 3.21782 14.1958 3.09796Z" fill="black"/>
<path fill-rule="evenodd" clip-rule="evenodd" d="M17.7071 6.29293C18.0976 6.68346 18.0976 7.31662 17.7071 7.70715L2.7071 22.7071C2.31658 23.0977 1.68342 23.0977 1.29289 22.7071C0.902366 22.3166 0.902366 21.6835 1.29289 21.2929L16.2929 6.29293C16.6834 5.90241 17.3166 5.90241 17.7071 6.29293Z" fill="black"/>
</svg>
