<svg width="24" height="24" viewBox="0 0 24 24" fill="none" xmlns="http://www.w3.org/2000/svg">
<path d="M21 4C21.5523 4 22 4.44772 22 5C22 5.55228 21.5523 6 21 6H3C2.44772 6 2 5.55228 2 5C2 4.44772 2.44772 4 3 4H21Z" fill="black"/>
<path d="M7 11C7.55228 11 8 11.4477 8 12C8 12.5523 7.55228 13 7 13H3C2.44772 13 2 12.5523 2 12C2 11.4477 2.44772 11 3 11H7Z" fill="black"/>
<path d="M7 18C7.55228 18 8 18.4477 8 19C8 19.5523 7.55228 20 7 20H3C2.44772 20 2 19.5523 2 19C2 18.4477 2.44772 18 3 18H7Z" fill="black"/>
<path d="M19.9999 15C19.9999 14.0717 19.6309 13.1818 18.9745 12.5254C18.3182 11.869 17.4282 11.5 16.4999 11.5C15.4447 11.5 14.4861 11.9278 13.7968 12.6172L11.707 14.707C11.3164 15.0976 10.6834 15.0976 10.2929 14.707C9.90237 14.3165 9.90237 13.6835 10.2929 13.293L12.3827 11.2031C13.4334 10.1525 14.8951 9.5 16.4999 9.5C17.9586 9.5 19.3571 10.0799 20.3886 11.1113C21.42 12.1428 21.9999 13.5413 21.9999 15C21.9999 16.2592 21.6034 17.4863 20.8671 18.5078C20.1308 19.5294 19.0921 20.2942 17.8974 20.6924C16.7027 21.0906 15.4129 21.103 14.2109 20.7275C13.0088 20.3521 11.9557 19.607 11.2001 18.5996C10.8689 18.1578 10.9585 17.5315 11.4003 17.2002C11.8421 16.869 12.4684 16.9586 12.7997 17.4004C13.3034 18.0719 14.0063 18.5681 14.8075 18.8184C15.6087 19.0685 16.4683 19.0603 17.2646 18.7949C18.061 18.5294 18.7542 18.0199 19.245 17.3389C19.7359 16.6578 19.9999 15.8395 19.9999 15Z" fill="black"/>
<path d="M10 10C10 9.44772 10.4477 9 11 9C11.5523 9 12 9.44772 12 10V13H15C15.5523 13 16 13.4477 16 14C16 14.5523 15.5523 15 15 15H11C10.4477 15 10 14.5523 10 14V10Z" fill="black"/>
</svg>
