<svg width="24" height="24" viewBox="0 0 24 24" fill="none" xmlns="http://www.w3.org/2000/svg">
<g clip-path="url(#clip0_404_40216)">
<path d="M21.0029 7.99805L12.5029 3.12793L12.5 3.12598C12.348 3.03827 12.1755 2.99219 12 2.99219C11.8245 2.99221 11.652 3.03823 11.5 3.12598L11.4971 3.12793L2.99707 7.99805L2.99316 8L2.99707 8.00293L11.4971 12.8721L11.5 12.874C11.652 12.9618 11.8245 13.0078 12 13.0078C12.1755 13.0078 12.348 12.9618 12.5 12.874L12.5029 12.8721L21.0029 8.00293L21.0068 8L21.0029 7.99805ZM23.0068 8C23.0068 8.35368 22.9134 8.70122 22.7354 9.00684C22.5579 9.31138 22.3024 9.56294 21.9961 9.7373L21.9971 9.73828L13.499 14.6055L13.5 14.6064C13.044 14.8697 12.5265 15.0078 12 15.0078C11.4734 15.0078 10.956 14.8697 10.5 14.6064L2.00293 9.73828C1.69707 9.56393 1.44193 9.31108 1.26465 9.00684C1.08667 8.70125 0.993164 8.35364 0.993164 8C0.993188 7.64633 1.08662 7.29876 1.26465 6.99316C1.44277 6.68749 1.69905 6.4342 2.00684 6.25977L10.5029 1.39258C10.9584 1.13017 11.4743 0.992207 12 0.992188C12.5254 0.992188 13.0408 1.13147 13.4961 1.39355L13.4971 1.39258L21.9922 6.25977C22.3 6.4342 22.5572 6.68748 22.7354 6.99316C22.9134 7.29879 23.0068 7.64629 23.0068 8Z" fill="black"/>
<path d="M19.1289 13.7939C19.4001 13.313 20.0101 13.143 20.4912 13.414L21.9912 14.2587L21.9932 14.2597C22.301 14.4341 22.5572 14.6874 22.7354 14.9931C22.9134 15.2987 23.0068 15.6462 23.0068 15.9999C23.0068 16.3536 22.9134 16.7012 22.7354 17.0068C22.5579 17.3113 22.3024 17.5629 21.9961 17.7372L21.9971 17.7382L13.499 22.6054L13.5 22.6064C13.044 22.8696 12.5265 23.0078 12 23.0078C11.4734 23.0077 10.956 22.8697 10.5 22.6064L2.00293 17.7382C1.69707 17.5639 1.44193 17.311 1.26465 17.0068C1.08668 16.7012 0.993164 16.3536 0.993164 15.9999C0.993192 15.6463 1.08662 15.2987 1.26465 14.9931C1.44277 14.6874 1.69904 14.4341 2.00684 14.2597L2.00977 14.2587L3.50977 13.414C3.99077 13.1432 4.59996 13.3131 4.87109 13.7939C5.14211 14.275 4.97218 14.885 4.49121 15.1562L2.99316 15.9999L2.99707 16.0029L11.4971 20.872L11.5 20.874C11.652 20.9617 11.8245 21.0077 12 21.0078C12.1755 21.0078 12.348 20.9617 12.5 20.874L12.5029 20.872L21.0029 16.0029L21.0068 15.9999L19.5098 15.1562C19.0286 14.8851 18.8578 14.2751 19.1289 13.7939Z" fill="black"/>
</g>
<defs>
<clipPath id="clip0_404_40216">
<rect width="24" height="24" fill="white"/>
</clipPath>
</defs>
</svg>
