<svg width="24" height="24" viewBox="0 0 24 24" fill="none" xmlns="http://www.w3.org/2000/svg">
<path d="M15 20V13H14C13.4477 13 13 12.5523 13 12C13 11.4477 13.4477 11 14 11H16C16.5523 11 17 11.4477 17 12V20C17 20.5523 16.5523 21 16 21C15.4477 21 15 20.5523 15 20Z" fill="black"/>
<path d="M18 19C18.5523 19 19 19.4477 19 20C19 20.5523 18.5523 21 18 21H14C13.4477 21 13 20.5523 13 20C13 19.4477 13.4477 19 14 19H18Z" fill="black"/>
<path d="M10 11C10.5523 11 11 11.4477 11 12C11 12.5523 10.5523 13 10 13H6C5.44772 13 5 12.5523 5 12C5 11.4477 5.44772 11 6 11H10Z" fill="black"/>
<path d="M10 19C10.5523 19 11 19.4477 11 20C11 20.5523 10.5523 21 10 21H6C5.44772 21 5 20.5523 5 20C5 19.4477 5.44772 19 6 19H10Z" fill="black"/>
<path d="M7 20.0001V8.00013C7.00005 6.8995 7.36317 5.82936 8.0332 4.95619C8.70324 4.08301 9.64293 3.45492 10.7061 3.17005C11.7691 2.88528 12.8963 2.95989 13.9131 3.38099C14.9299 3.80216 15.7797 4.54699 16.3301 5.50013C16.6061 5.97838 16.4421 6.59021 15.9639 6.86634C15.4856 7.14227 14.8738 6.97831 14.5977 6.50013C14.2675 5.92841 13.7583 5.48137 13.1484 5.22865C12.5383 4.97595 11.8615 4.93175 11.2236 5.10267C10.5858 5.27359 10.0221 5.65005 9.62012 6.17396C9.21811 6.69786 9.00003 7.33977 9 8.00013V20.0001C8.99991 20.5523 8.55223 21.0001 8 21.0001C7.44777 21.0001 7.00009 20.5523 7 20.0001Z" fill="black"/>
</svg>
