<svg width="24" height="24" viewBox="0 0 24 24" fill="none" xmlns="http://www.w3.org/2000/svg">
<path fill-rule="evenodd" clip-rule="evenodd" d="M5 17C5.55228 17 6 17.4477 6 18C6 18.621 6.14458 19.2334 6.42229 19.7889C6.7 20.3443 7.10322 20.8274 7.6 21.2C8.04183 21.5314 8.13137 22.1582 7.8 22.6C7.46863 23.0418 6.84183 23.1314 6.4 22.8C5.65482 22.2411 5.05 21.5164 4.63344 20.6833C4.21687 19.8501 4 18.9315 4 18C4 17.4477 4.44772 17 5 17Z" fill="black"/>
<path fill-rule="evenodd" clip-rule="evenodd" d="M6.08738 16.5212C6.31315 16.0172 6.90476 15.7916 7.4088 16.0174C8.29582 16.4147 9.2134 16.6983 10.1529 16.8533C10.6978 16.9433 11.0666 17.4579 10.9767 18.0028C10.8867 18.5478 10.3721 18.9166 9.82717 18.8267C8.70662 18.6417 7.62421 18.3053 6.59123 17.8426C6.0872 17.6169 5.86162 17.0252 6.08738 16.5212Z" fill="black"/>
<path fill-rule="evenodd" clip-rule="evenodd" d="M3 9.99608C3.0105 11.2243 3.41067 12.4176 4.14291 13.4039C4.47213 13.8473 4.37953 14.4737 3.9361 14.8029C3.49266 15.1321 2.86631 15.0395 2.53709 14.5961C1.5513 13.2683 1.01304 11.6615 1.00003 10.0079C1.00001 10.0052 1 10.0026 1 10C1 4.83074 6.14783 1 12 1C17.8522 1 23 4.83074 23 10C23 10.0074 22.9999 10.0147 22.9998 10.0221C22.9827 10.7954 22.8561 11.5624 22.6239 12.3003C22.458 12.8271 21.8965 13.1197 21.3697 12.9539C20.8429 12.788 20.5503 12.2265 20.7161 11.6997C20.8906 11.1456 20.9861 10.5697 21 9.98902C20.9924 6.32263 17.1827 3 12 3C6.81402 3 3.00272 6.32689 3 9.99608Z" fill="black"/>
<path fill-rule="evenodd" clip-rule="evenodd" d="M2.87868 13.8787C3.44129 13.3161 4.20435 13 5 13C5.79565 13 6.55871 13.3161 7.12132 13.8787C7.68393 14.4413 8 15.2044 8 16C8 16.7956 7.68393 17.5587 7.12132 18.1213C6.55871 18.6839 5.79565 19 5 19C4.20435 19 3.44129 18.6839 2.87868 18.1213C2.31607 17.5587 2 16.7956 2 16C2 15.2044 2.31607 14.4413 2.87868 13.8787ZM5 15C4.73478 15 4.48043 15.1054 4.29289 15.2929C4.10536 15.4804 4 15.7348 4 16C4 16.2652 4.10536 16.5196 4.29289 16.7071C4.48043 16.8946 4.73478 17 5 17C5.26522 17 5.51957 16.8946 5.70711 16.7071C5.89464 16.5196 6 16.2652 6 16C6 15.7348 5.89464 15.4804 5.70711 15.2929C5.51957 15.1054 5.26522 15 5 15Z" fill="black"/>
<path fill-rule="evenodd" clip-rule="evenodd" d="M15 13.0876V19.4746L16.3483 17.4548C16.5338 17.1769 16.8459 17.01 17.18 17.01H19.7984L15 13.0876ZM15.1754 10.6478C14.9665 10.4753 14.6781 10.34 14.33 10.34C14.3202 10.34 14.3104 10.3401 14.3006 10.3404C13.9521 10.3507 13.6213 10.4964 13.3784 10.7466C13.1357 10.9967 13 11.3315 13 11.68V21.68C13 21.6918 13.0002 21.7035 13.0006 21.7152C13.0103 21.9909 13.1043 22.257 13.2698 22.4777C13.4353 22.6983 13.6644 22.863 13.9263 22.9495C14.0275 22.983 14.1334 23 14.24 23H14.33C14.5396 23 14.7463 22.9512 14.9337 22.8575C15.1212 22.7638 15.2842 22.6277 15.41 22.46C15.421 22.4454 15.4316 22.4304 15.4417 22.4152L17.7148 19.01H21.6631C21.9375 19.0128 22.2062 18.9307 22.4322 18.7747C22.6621 18.6161 22.8362 18.3892 22.9299 18.1261C23.0235 17.8629 23.032 17.577 22.954 17.3088C22.8774 17.0454 22.7213 16.8122 22.5072 16.6411L15.1754 10.6478Z" fill="black"/>
</svg>
