<svg width="24" height="24" viewBox="0 0 24 24" fill="none" xmlns="http://www.w3.org/2000/svg">
<path d="M17.0006 3L17.15 3.00586C17.497 3.03207 17.8323 3.14855 18.1217 3.34473C18.4524 3.56894 18.7088 3.8868 18.857 4.25781L20.857 9.25781C20.9783 9.56126 21.024 9.88998 20.9889 10.2148C20.9537 10.5398 20.8392 10.8515 20.6559 11.1221C20.4726 11.3925 20.2257 11.6136 19.9371 11.7666C19.7207 11.8813 19.4856 11.9557 19.2438 11.9854L18.9996 12H8.99962C8.67296 11.9998 8.35062 11.9198 8.06212 11.7666C7.77372 11.6134 7.52741 11.3915 7.34435 11.1211C7.1613 10.8507 7.0474 10.5395 7.01231 10.2148C6.97727 9.89007 7.02198 9.56116 7.14317 9.25781L9.14317 4.25781L9.20372 4.12109C9.35657 3.8086 9.58915 3.54089 9.87853 3.34473C10.2093 3.1205 10.6 3.00025 10.9996 3H17.0006ZM11.0006 5L9.0006 10H19.0006L16.9996 5.00098L11.0006 5Z" fill="black"/>
<path d="M3 16C3 15.4696 3.21087 14.961 3.58594 14.5859C3.96101 14.2109 4.46957 14 5 14H6C6.79565 14 7.55849 14.3163 8.12109 14.8789C8.6837 15.4415 9 16.2044 9 17V19C9 19.7957 8.6837 20.5585 8.12109 21.1211C7.55849 21.6837 6.79565 22 6 22H5C4.46957 22 3.96101 21.7891 3.58594 21.4141C3.21086 21.039 3 20.5304 3 20V16ZM5 20H6C6.26522 20 6.51949 19.8946 6.70703 19.707C6.89457 19.5195 7 19.2652 7 19V17C7 16.7348 6.89457 16.4805 6.70703 16.293C6.51949 16.1054 6.26522 16 6 16H5V20Z" fill="black"/>
<path d="M13 16V11C13 10.4477 13.4477 10 14 10C14.5523 10 15 10.4477 15 11V16C15 16.7957 14.6837 17.5585 14.1211 18.1211C13.5585 18.6837 12.7957 19 12 19H8C7.44772 19 7 18.5523 7 18C7 17.4477 7.44772 17 8 17H12C12.2652 17 12.5195 16.8946 12.707 16.707C12.8946 16.5195 13 16.2652 13 16Z" fill="black"/>
</svg>
