<svg width="24" height="24" viewBox="0 0 24 24" fill="none" xmlns="http://www.w3.org/2000/svg">
<path fill-rule="evenodd" clip-rule="evenodd" d="M12.7753 2.75068C13.9069 1.65773 15.4225 1.05296 16.9957 1.06663C18.5689 1.0803 20.0738 1.71132 21.1862 2.82377C22.2987 3.93621 22.9297 5.44109 22.9433 7.01427C22.957 8.58745 22.3523 10.1031 21.2593 11.2347C21.2553 11.2388 21.2512 11.243 21.2471 11.2471L18.2472 14.2469C18.2472 14.247 18.2473 14.2469 18.2472 14.2469C17.639 14.8554 16.9069 15.326 16.1009 15.6267C15.2948 15.9274 14.4334 16.0512 13.5752 15.9897C12.7171 15.9283 11.8821 15.683 11.1271 15.2705C10.3721 14.858 9.71459 14.2879 9.19925 13.5989C8.86844 13.1567 8.95879 12.53 9.40104 12.1992C9.84329 11.8684 10.47 11.9587 10.8008 12.401C11.1443 12.8603 11.5827 13.2403 12.086 13.5153C12.5894 13.7903 13.146 13.9539 13.7181 13.9949C14.2902 14.0358 14.8644 13.9533 15.4019 13.7528C15.9393 13.5523 16.4273 13.2386 16.8328 12.833L19.8264 9.83934C20.5515 9.08557 20.9525 8.0777 20.9434 7.03165C20.9343 5.98286 20.5136 4.97961 19.772 4.23798C19.0304 3.49635 18.0271 3.07567 16.9783 3.06656C15.9318 3.05746 14.9235 3.45887 14.1696 4.18451L12.4551 5.88913C12.0634 6.27851 11.4302 6.27667 11.0408 5.88501C10.6515 5.49335 10.6533 4.86018 11.045 4.4708L12.765 2.7608C12.7684 2.7574 12.7718 2.75403 12.7753 2.75068Z" fill="black"/>
<path fill-rule="evenodd" clip-rule="evenodd" d="M7.89917 8.37325C8.70528 8.07254 9.56663 7.94872 10.4248 8.01018C11.283 8.07164 12.1179 8.31695 12.8729 8.72945C13.628 9.14196 14.2854 9.71203 14.8008 10.401C15.1316 10.8432 15.0412 11.4699 14.599 11.8007C14.1567 12.1315 13.5301 12.0412 13.1993 11.5989C12.8557 11.1396 12.4174 10.7596 11.914 10.4846C11.4107 10.2096 10.854 10.046 10.2819 10.0051C9.70982 9.9641 9.13558 10.0466 8.59818 10.2471C8.06077 10.4476 7.57276 10.7613 7.16725 11.1669L4.17361 14.1606C3.44857 14.9144 3.04752 15.9222 3.05661 16.9683C3.06572 18.0171 3.4864 19.0203 4.22803 19.7619C4.96966 20.5036 5.97291 20.9243 7.0217 20.9334C8.06775 20.9425 9.07562 20.5414 9.82939 19.8164L11.5329 18.1129C11.9234 17.7223 12.5566 17.7223 12.9471 18.1129C13.3376 18.5034 13.3376 19.1365 12.9471 19.5271L11.2371 21.2371C11.233 21.2412 11.2289 21.2452 11.2247 21.2493C10.0931 22.3422 8.5775 22.947 7.00432 22.9333C5.43114 22.9196 3.92627 22.2886 2.81382 21.1762C1.70137 20.0637 1.07035 18.5588 1.05668 16.9857C1.04301 15.4125 1.64778 13.8969 2.74073 12.7652C2.74475 12.7611 2.74881 12.757 2.75291 12.7529L5.75278 9.75298C5.75274 9.75303 5.75282 9.75294 5.75278 9.75298C6.36102 9.14456 7.09311 8.67393 7.89917 8.37325Z" fill="black"/>
</svg>
