<svg width="24" height="24" viewBox="0 0 24 24" fill="none" xmlns="http://www.w3.org/2000/svg">
<path d="M11 22V19C11 18.4477 11.4477 18 12 18C12.5523 18 13 18.4477 13 19V22C13 22.5523 12.5523 23 12 23C11.4477 23 11 22.5523 11 22Z" fill="black"/>
<path d="M11 5V2C11 1.44772 11.4477 1 12 1C12.5523 1 13 1.44772 13 2V5C13 5.55228 12.5523 6 12 6C11.4477 6 11 5.55228 11 5Z" fill="black"/>
<path d="M10.5821 4.12606C11.8528 3.8972 13.1607 3.97935 14.3927 4.36531C15.6244 4.75126 16.7446 5.42922 17.6573 6.34188C18.5703 7.25479 19.2489 8.37549 19.6349 9.6075C20.0208 10.8395 20.103 12.1465 19.8741 13.4171C19.7763 13.9605 19.2564 14.3214 18.713 14.2237C18.1695 14.1258 17.8075 13.6061 17.9054 13.0626C18.077 12.1096 18.0161 11.1292 17.7267 10.2052C17.4372 9.28127 16.9279 8.44154 16.2433 7.75692C15.5586 7.07223 14.7181 6.56299 13.7941 6.27352C12.8703 5.98419 11.8903 5.92232 10.9376 6.09383C10.3941 6.19173 9.87341 5.83073 9.77551 5.28719C9.67768 4.74384 10.0389 4.22418 10.5821 4.12606Z" fill="black"/>
<path d="M22 11C22.5523 11 23 11.4477 23 12C23 12.5523 22.5523 13 22 13H19C18.4477 13 18 12.5523 18 12C18 11.4477 18.4477 11 19 11H22Z" fill="black"/>
<path d="M5 11C5.55228 11 6 11.4477 6 12C6 12.5523 5.55228 13 5 13H2C1.44772 13 1 12.5523 1 12C1 11.4477 1.44772 11 2 11H5Z" fill="black"/>
<path d="M1.29289 1.29302C1.68342 0.902491 2.31643 0.902491 2.70696 1.29302L22.707 21.293C23.0975 21.6835 23.0975 22.3166 22.707 22.7071C22.3164 23.0976 21.6834 23.0976 21.2929 22.7071L1.29289 2.70708C0.902369 2.31655 0.902369 1.68354 1.29289 1.29302Z" fill="black"/>
<path d="M3.99976 12.0002C3.99976 9.87847 4.84234 7.84327 6.34253 6.34294C6.73305 5.95242 7.36704 5.95242 7.75757 6.34294C8.14781 6.73341 8.14781 7.36653 7.75757 7.757C6.63228 8.88229 6 10.4086 6 12C6.00005 13.5913 6.63233 15.1181 7.75757 16.2433C8.88273 17.3683 10.4089 17.9999 12 18C13.5913 18 15.1177 17.3684 16.2429 16.2433C16.6334 15.8528 17.2665 15.8528 17.657 16.2433C18.0474 16.6339 18.0475 17.2669 17.657 17.6574C16.1567 19.1576 14.1215 20.0002 11.9998 20.0002C9.87806 20.0001 7.8428 19.1577 6.34253 17.6574C4.84227 16.1571 3.99981 14.1219 3.99976 12.0002Z" fill="black"/>
</svg>
