<svg width="24" height="24" viewBox="0 0 24 24" fill="none" xmlns="http://www.w3.org/2000/svg">
<path d="M11.0002 1.00024C11.5305 1.0003 12.0393 1.21129 12.4143 1.58618L14.7014 3.87329L20.4016 5.04028L20.5334 5.07153C20.8368 5.15543 21.1166 5.31042 21.3499 5.52368C21.6164 5.76748 21.8125 6.07903 21.9163 6.42505C22.02 6.77086 22.0279 7.13845 21.9397 7.48853C21.8624 7.79502 21.7133 8.07861 21.5061 8.31567L21.4143 8.41431L14.4143 15.4143C14.159 15.6697 13.8387 15.8513 13.4885 15.9397C13.1384 16.0279 12.7709 16.02 12.425 15.9163C12.079 15.8125 11.7675 15.6164 11.5237 15.3499C11.3104 15.1166 11.1554 14.8368 11.0715 14.5334L11.0403 14.4016L9.87329 8.70142L7.58618 6.41431C7.21129 6.0393 7.0003 5.5305 7.00024 5.00024C7.00024 4.46992 7.21124 3.96124 7.58618 3.58618L9.58618 1.58618C9.96124 1.21124 10.4699 1.00024 11.0002 1.00024ZM11.5002 7.50024L11.5959 7.6106C11.6827 7.72742 11.7432 7.86239 11.7727 8.0061L12.9993 14.0002L20.0002 7.00024L14.0061 5.77271C13.8144 5.7334 13.6386 5.63855 13.5002 5.50024L11.0002 3.00024L9.00024 5.00024L11.5002 7.50024Z" fill="black"/>
<path d="M13.5002 4.08597C13.8907 3.69548 14.5237 3.69545 14.9142 4.08597C15.3047 4.47648 15.3047 5.10951 14.9142 5.50003L11.5002 8.91409C11.1096 9.30458 10.4766 9.30458 10.0861 8.91409C9.69558 8.52358 9.6956 7.89056 10.0861 7.50003L13.5002 4.08597Z" fill="black"/>
<path d="M10 20C10 19.7348 9.89457 19.4805 9.70703 19.293C9.51949 19.1054 9.26522 19 9 19H5C4.73478 19 4.48051 19.1054 4.29297 19.293C4.10543 19.4805 4 19.7348 4 20V21H10V20ZM12 21C12 21.5304 11.7891 22.039 11.4141 22.4141C11.039 22.7891 10.5304 23 10 23H4C3.46957 23 2.96101 22.7891 2.58594 22.4141C2.21086 22.039 2 21.5304 2 21V20C2 19.2043 2.3163 18.4415 2.87891 17.8789C3.44151 17.3163 4.20435 17 5 17H9C9.79565 17 10.5585 17.3163 11.1211 17.8789C11.6837 18.4415 12 19.2043 12 20V21Z" fill="black"/>
<path d="M8.37853 5.79302C8.76905 5.40249 9.40304 5.40249 9.79357 5.79302C10.1837 6.18347 10.1837 6.81663 9.79357 7.20708L4.99962 12L7.88634 17.5381C8.1415 18.0278 7.95205 18.6314 7.46251 18.8868C6.9728 19.1421 6.36824 18.9517 6.1129 18.462L3.22619 12.9258C3.02927 12.5483 2.95831 12.1172 3.02306 11.6963C3.08784 11.2755 3.28528 10.8859 3.58654 10.585L8.37853 5.79302Z" fill="black"/>
</svg>
