<svg width="24" height="24" viewBox="0 0 24 24" fill="none" xmlns="http://www.w3.org/2000/svg">
<path fill-rule="evenodd" clip-rule="evenodd" d="M4 4V20H10V4H4ZM2 4C2 2.89543 2.89543 2 4 2H10C11.1046 2 12 2.89543 12 4V20C12 21.1046 11.1046 22 10 22H4C2.89543 22 2 21.1046 2 20V4Z" fill="black"/>
<path fill-rule="evenodd" clip-rule="evenodd" d="M7 2C7.55228 2 8 2.44772 8 3V21C8 21.5523 7.55228 22 7 22C6.44772 22 6 21.5523 6 21V3C6 2.44772 6.44772 2 7 2Z" fill="black"/>
<path fill-rule="evenodd" clip-rule="evenodd" d="M13.9359 4.04196L12.0706 4.72918C12.0689 4.73034 12.066 4.73246 12.0624 4.73598C12.0545 4.74368 12.047 4.75382 12.0419 4.76416L17.5296 19.93C17.5308 19.9317 17.5328 19.9343 17.536 19.9376C17.5437 19.9455 17.5538 19.9529 17.5641 19.958L19.4294 19.2708C19.4311 19.2697 19.4339 19.2675 19.4376 19.264C19.4455 19.2563 19.4529 19.2462 19.4581 19.2358L13.9704 4.07003C13.9692 4.0683 13.9672 4.06569 13.964 4.06242C13.9563 4.05448 13.9462 4.04708 13.9359 4.04196ZM13.2436 2.16559C14.3164 1.74664 15.4519 2.38707 15.8285 3.32861C15.8326 3.33893 15.8365 3.34931 15.8403 3.35975L21.3357 18.5468C21.7521 19.6186 21.112 20.7522 20.1714 21.1285C20.1629 21.1319 20.1543 21.1352 20.1457 21.1383L18.2564 21.8344C17.1836 22.2534 16.0481 21.6129 15.6715 20.6714C15.6674 20.6611 15.6634 20.6507 15.6597 20.6403L10.1643 5.45318C9.7479 4.38137 10.388 3.24777 11.3286 2.87153C11.3371 2.86812 11.3457 2.86483 11.3543 2.86166L13.2436 2.16559Z" fill="black"/>
</svg>
