<svg width="24" height="24" viewBox="0 0 24 24" fill="none" xmlns="http://www.w3.org/2000/svg">
<path d="M16 4C16.5523 4 17 4.44772 17 5C17 5.55228 16.5523 6 16 6H3C2.44772 6 2 5.55228 2 5C2 4.44772 2.44772 4 3 4H16Z" fill="black"/>
<path d="M11 11C11.5523 11 12 11.4477 12 12C12 12.5523 11.5523 13 11 13H3C2.44772 13 2 12.5523 2 12C2 11.4477 2.44772 11 3 11H11Z" fill="black"/>
<path d="M16 18C16.5523 18 17 18.4477 17 19C17 19.5523 16.5523 20 16 20H3C2.44772 20 2 19.5523 2 19C2 18.4477 2.44772 18 3 18H16Z" fill="black"/>
<path d="M14.7929 8.79302C15.1834 8.40249 15.8164 8.40249 16.207 8.79302L21.207 13.793C21.5975 14.1835 21.5975 14.8166 21.207 15.2071C20.8164 15.5976 20.1834 15.5976 19.7929 15.2071L14.7929 10.2071C14.4024 9.81655 14.4024 9.18354 14.7929 8.79302Z" fill="black"/>
<path d="M19.7929 8.79302C20.1834 8.40249 20.8164 8.40249 21.207 8.79302C21.5975 9.18354 21.5975 9.81655 21.207 10.2071L16.207 15.2071C15.8164 15.5976 15.1834 15.5976 14.7929 15.2071C14.4024 14.8166 14.4024 14.1835 14.7929 13.793L19.7929 8.79302Z" fill="black"/>
</svg>
