<svg width="24" height="24" viewBox="0 0 24 24" fill="none" xmlns="http://www.w3.org/2000/svg">
<path d="M9 3.99988C9.55228 3.99988 10 4.44759 10 4.99988C10 5.55216 9.55228 5.99988 9 5.99988H3C2.44772 5.99988 2 5.55216 2 4.99988C2 4.44759 2.44772 3.99988 3 3.99988H9Z" fill="black"/>
<path d="M16 10.9999C16.5523 10.9999 17 11.4476 17 11.9999C17 12.5522 16.5523 12.9999 16 12.9999H3C2.44772 12.9999 2 12.5522 2 11.9999C2 11.4476 2.44772 10.9999 3 10.9999H16Z" fill="black"/>
<path d="M16 17.9999C16.5523 17.9999 17 18.4476 17 18.9999C17 19.5522 16.5523 19.9999 16 19.9999H3C2.44772 19.9999 2 19.5522 2 18.9999C2 18.4476 2.44772 17.9999 3 17.9999H16Z" fill="black"/>
<path d="M15.2929 1.29289C15.6834 0.902369 16.3164 0.902369 16.707 1.29289C17.0975 1.68342 17.0975 2.31643 16.707 2.70696L14.414 4.99992L16.707 7.29289C17.0975 7.68342 17.0975 8.31643 16.707 8.70696C16.3164 9.09748 15.6834 9.09748 15.2929 8.70696L12.2929 5.70696C11.9024 5.31643 11.9024 4.68342 12.2929 4.29289L15.2929 1.29289Z" fill="black"/>
<path d="M20 18.9999V6.99988C20 6.73466 19.8946 6.48038 19.707 6.29285C19.5195 6.10531 19.2652 5.99988 19 5.99988H13C12.4477 5.99988 12 5.55216 12 4.99988C12 4.44759 12.4477 3.99988 13 3.99988H19C19.7957 3.99988 20.5585 4.31617 21.1211 4.87878C21.6837 5.44139 22 6.20423 22 6.99988V18.9999C22 19.5522 21.5523 19.9999 21 19.9999C20.4477 19.9999 20 19.5522 20 18.9999Z" fill="black"/>
</svg>
