<svg width="24" height="24" viewBox="0 0 24 24" fill="none" xmlns="http://www.w3.org/2000/svg">
<path d="M1.00342 6.99463C1.00346 6.60698 1.116 6.2276 1.32764 5.90283C1.53739 5.58111 1.83566 5.32632 2.18604 5.16943L10.7554 1.27002L10.9028 1.20752C11.2517 1.07041 11.6237 0.999568 11.9995 0.999512C12.429 0.999512 12.8539 1.09183 13.2446 1.27002L21.8345 5.18018C22.1849 5.33706 22.4821 5.59085 22.6919 5.9126C22.9036 6.23738 23.016 6.6167 23.0161 7.00439C23.0161 7.39226 22.9037 7.77225 22.6919 8.09717C22.482 8.41916 22.1833 8.67273 21.8325 8.82959L21.8335 8.83057L13.2544 12.729C12.8637 12.9072 12.4397 13.0004 12.0103 13.0005C11.6342 13.0005 11.2617 12.9297 10.9126 12.7925L10.7651 12.73L2.18506 8.81982C1.83527 8.66289 1.53712 8.40871 1.32764 8.0874C1.11581 7.76249 1.00342 7.3825 1.00342 6.99463ZM3.01514 6.99951L11.5942 10.9097C11.7245 10.9691 11.8671 11.0005 12.0103 11.0005C12.1533 11.0004 12.2951 10.9691 12.4253 10.9097L21.0063 7.00928L21.0161 7.00439L21.0054 7.00049L12.4155 3.09033L12.4146 3.08936C12.2844 3.03007 12.1425 2.99951 11.9995 2.99951C11.8567 2.99958 11.7154 3.03015 11.5854 3.08936L11.5845 3.09033L3.00342 6.99463L3.01514 6.99951Z" fill="black"/>
<path d="M21.9922 10.9999C22.5444 10.9956 22.9956 11.4399 23 11.9921C23.0031 12.3802 22.8931 12.7611 22.6836 13.0878C22.4741 13.4143 22.1741 13.6728 21.8203 13.8319L13.2441 17.7304L13.2422 17.7314C12.8535 17.9073 12.4315 17.998 12.0049 17.998C11.5782 17.9979 11.1563 17.9073 10.7676 17.7314L10.7666 17.7304L2.16602 13.8202L2.16016 13.8173C1.813 13.6566 1.51909 13.3996 1.31348 13.0771C1.10795 12.7545 0.99906 12.3794 1.00001 11.997C1.00162 11.4449 1.4508 10.9985 2.00294 10.9999C2.55484 11.0015 3.00011 11.45 2.99903 12.0019L11.5918 15.9091C11.7213 15.9677 11.8628 15.9979 12.0049 15.998C12.1467 15.998 12.2868 15.9674 12.416 15.9091L20.9961 12.0097L21 12.0077C20.9957 11.4555 21.44 11.0043 21.9922 10.9999Z" fill="black"/>
<path d="M21.9922 15.9999C22.5444 15.9956 22.9956 16.4399 23 16.9921C23.0031 17.3802 22.8931 17.7611 22.6836 18.0878C22.4741 18.4143 22.1741 18.6728 21.8203 18.8319L13.2441 22.7304L13.2422 22.7314C12.8535 22.9073 12.4315 22.998 12.0049 22.998C11.5782 22.9979 11.1563 22.9073 10.7676 22.7314L10.7666 22.7304L2.16602 18.8202L2.16016 18.8173C1.813 18.6566 1.51909 18.3996 1.31348 18.0771C1.10795 17.7545 0.99906 17.3794 1.00001 16.997C1.00162 16.4449 1.4508 15.9985 2.00294 15.9999C2.55484 16.0015 3.00011 16.45 2.99903 17.0019L11.5918 20.9091C11.7213 20.9677 11.8628 20.9979 12.0049 20.998C12.1467 20.998 12.2868 20.9674 12.416 20.9091L20.9961 17.0097L21 17.0077C20.9957 16.4555 21.44 16.0043 21.9922 15.9999Z" fill="black"/>
</svg>
