<svg width="24" height="24" viewBox="0 0 24 24" fill="none" xmlns="http://www.w3.org/2000/svg">
<path d="M21 3.99988C21.5523 3.99988 22 4.44759 22 4.99988C22 5.55216 21.5523 5.99988 21 5.99988H10C9.44772 5.99988 9 5.55216 9 4.99988C9 4.44759 9.44772 3.99988 10 3.99988H21Z" fill="black"/>
<path d="M21 10.9999C21.5523 10.9999 22 11.4476 22 11.9999C22 12.5522 21.5523 12.9999 21 12.9999H10C9.44772 12.9999 9 12.5522 9 11.9999C9 11.4476 9.44772 10.9999 10 10.9999H21Z" fill="black"/>
<path d="M21 17.9999C21.5523 17.9999 22 18.4476 22 18.9999C22 19.5522 21.5523 19.9999 21 19.9999H10C9.44772 19.9999 9 19.5522 9 18.9999C9 18.4476 9.44772 17.9999 10 17.9999H21Z" fill="black"/>
<path d="M2.29289 3.29289C2.68342 2.90237 3.31643 2.90237 3.70696 3.29289L6.70696 6.29289C7.09748 6.68342 7.09748 7.31643 6.70696 7.70696L3.70696 10.707C3.31643 11.0975 2.68342 11.0975 2.29289 10.707C1.90237 10.3164 1.90237 9.68342 2.29289 9.29289L4.58586 6.99992L2.29289 4.70696C1.90237 4.31643 1.90237 3.68342 2.29289 3.29289Z" fill="black"/>
<path d="M2.29289 13.2929C2.68342 12.9024 3.31643 12.9024 3.70696 13.2929L6.70696 16.2929C7.09748 16.6834 7.09748 17.3164 6.70696 17.707L3.70696 20.707C3.31643 21.0975 2.68342 21.0975 2.29289 20.707C1.90237 20.3164 1.90237 19.6834 2.29289 19.2929L4.58586 16.9999L2.29289 14.707C1.90237 14.3164 1.90237 13.6834 2.29289 13.2929Z" fill="black"/>
</svg>
