<svg width="24" height="24" viewBox="0 0 24 24" fill="none" xmlns="http://www.w3.org/2000/svg">
<path d="M11 22V10C11 9.44771 11.4477 9 12 9C12.5523 9 13 9.44771 13 10V22C13 22.5523 12.5523 23 12 23C11.4477 23 11 22.5523 11 22Z" fill="black"/>
<path d="M15.0006 1L15.15 1.00586C15.497 1.03207 15.8323 1.14855 16.1217 1.34473C16.4524 1.56894 16.7088 1.8868 16.857 2.25781L18.857 7.25781C18.9783 7.56126 19.024 7.88998 18.9889 8.21484C18.9537 8.53978 18.8392 8.85151 18.6559 9.12207C18.4726 9.39248 18.2257 9.61356 17.9371 9.7666C17.7207 9.88135 17.4856 9.9557 17.2438 9.98535L16.9996 10H6.99962C6.67296 9.99979 6.35062 9.91982 6.06212 9.7666C5.77372 9.61339 5.52741 9.39154 5.34435 9.12109C5.1613 8.85067 5.0474 8.5395 5.01231 8.21484C4.97727 7.89007 5.02198 7.56116 5.14317 7.25781L7.14317 2.25781L7.20372 2.12109C7.35657 1.8086 7.58915 1.54089 7.87853 1.34473C8.20934 1.1205 8.59997 1.00025 8.99962 1H15.0006ZM9.0006 3L7.0006 8H17.0006L14.9996 3.00098L9.0006 3Z" fill="black"/>
<path d="M15 21C15.5523 21 16 21.4477 16 22C16 22.5523 15.5523 23 15 23H9C8.44772 23 8 22.5523 8 22C8 21.4477 8.44772 21 9 21H15Z" fill="black"/>
</svg>
