<svg width="24" height="24" viewBox="0 0 24 24" fill="none" xmlns="http://www.w3.org/2000/svg">
<path fill-rule="evenodd" clip-rule="evenodd" d="M2.99998 5C2.68827 4.99999 2.38087 5.07284 2.10231 5.21273L2.99998 5ZM2.99998 5H20.9999C20.9999 5 20.9999 5 20.9999 5C21.3116 4.99999 21.6191 5.07284 21.8976 5.21273C22.1762 5.35264 22.4182 5.55573 22.6044 5.80579C22.7905 6.05585 22.9156 6.34596 22.9697 6.65297C23.0238 6.95998 23.0054 7.27538 22.9159 7.574C22.9144 7.57902 22.9129 7.58404 22.9113 7.58904L21.8553 10.922C21.8544 10.9247 21.8536 10.9273 21.8527 10.93C21.6564 11.532 21.2747 12.0564 20.7623 12.4282C20.2499 12.8 19.633 13.0001 19 13C18.9999 13 19.0001 13 19 13H16C15.4477 13 15 12.5523 15 12C15 11.4477 15.4477 11 16 11H19.0002C19.2113 11.0001 19.4169 10.9333 19.5878 10.8094C19.7576 10.6861 19.8844 10.5126 19.9501 10.3133L20.9999 7H3.00004L4.04971 10.314C4.11556 10.5131 4.24233 10.6865 4.41214 10.8096C4.58296 10.9334 4.78857 11.0001 4.99955 11H7.99998C8.55226 11 8.99998 11.4477 8.99998 12C8.99998 12.5523 8.55226 13 7.99998 13H5.0004C5.00026 13 5.00055 13 5.0004 13C4.3676 13.0002 3.75051 12.8003 3.23818 12.4288C2.72574 12.0573 2.34394 11.5332 2.1474 10.9315C2.14648 10.9287 2.14556 10.9258 2.14466 10.923L1.08866 7.58895C1.08708 7.58398 1.08554 7.579 1.08405 7.574C0.99458 7.27538 0.976155 6.95998 1.03025 6.65297C1.08434 6.34597 1.20944 6.05585 1.39558 5.80579C1.58172 5.55573 1.82373 5.35264 2.10231 5.21273" fill="black"/>
<path fill-rule="evenodd" clip-rule="evenodd" d="M13 2C13 1.44772 13.4477 1 14 1H17C17.5304 1 18.0391 1.21071 18.4142 1.58579C18.7893 1.96086 19 2.46957 19 3V6C19 6.55228 18.5523 7 18 7C17.4477 7 17 6.55228 17 6V3H14C13.4477 3 13 2.55228 13 2Z" fill="black"/>
<path fill-rule="evenodd" clip-rule="evenodd" d="M8.99999 11V21H15V11H8.99999ZM6.99999 11C6.99999 9.89543 7.89542 9 8.99999 9H15C16.1046 9 17 9.89543 17 11V21C17 22.1046 16.1046 23 15 23H8.99999C7.89542 23 6.99999 22.1046 6.99999 21V11Z" fill="black"/>
</svg>
