<svg width="24" height="24" viewBox="0 0 24 24" fill="none" xmlns="http://www.w3.org/2000/svg">
<path d="M21 4C21.5523 4 22 4.44772 22 5C22 5.55228 21.5523 6 21 6H11C10.4477 6 10 5.55228 10 5C10 4.44772 10.4477 4 11 4H21Z" fill="black"/>
<path d="M21 11C21.5523 11 22 11.4477 22 12C22 12.5523 21.5523 13 21 13H11C10.4477 13 10 12.5523 10 12C10 11.4477 10.4477 11 11 11H21Z" fill="black"/>
<path d="M21 18C21.5523 18 22 18.4477 22 19C22 19.5523 21.5523 20 21 20H11C10.4477 20 10 19.5523 10 19C10 18.4477 10.4477 18 11 18H21Z" fill="black"/>
<path d="M4 9V5C3.44772 5 3 4.55228 3 4C3 3.44772 3.44772 3 4 3H5C5.55228 3 6 3.44772 6 4V9C6 9.55228 5.55228 10 5 10C4.44772 10 4 9.55228 4 9Z" fill="black"/>
<path d="M6 8C6.55228 8 7 8.44772 7 9C7 9.55228 6.55228 10 6 10H4C3.44772 10 3 9.55228 3 9C3 8.44772 3.44772 8 4 8H6Z" fill="black"/>
<path d="M4.99963 16.4998C4.99963 16.3993 4.96929 16.3015 4.91272 16.2185C4.8561 16.1355 4.77582 16.0707 4.68225 16.034C4.58881 15.9974 4.48613 15.9901 4.38831 16.0125C4.29046 16.0349 4.20168 16.0863 4.13342 16.1599C3.75802 16.5648 3.12535 16.5889 2.72034 16.2136C2.31542 15.8383 2.29141 15.2056 2.66663 14.8006C3.00829 14.432 3.45309 14.1742 3.94299 14.0623C4.43281 13.9503 4.94496 13.9892 5.41272 14.1726C5.88054 14.3562 6.28295 14.6764 6.56604 15.0916C6.84895 15.5066 6.99963 15.9975 6.99963 16.4998C6.99963 17.184 6.71459 17.7445 6.39319 18.1717C6.1575 18.4848 5.87436 18.7624 5.60901 18.9998H6.49963C7.05185 18.9998 7.49953 19.4476 7.49963 19.9998C7.49963 20.5521 7.05192 20.9998 6.49963 20.9998H3.40002C2.84774 20.9998 2.40002 20.5521 2.40002 19.9998C2.40011 19.3283 2.82167 18.8322 3.08752 18.5574C3.37606 18.2591 3.7685 17.9454 4.05237 17.7039C4.3722 17.4317 4.6226 17.1979 4.79456 16.9695C4.96051 16.749 4.99963 16.6028 4.99963 16.4998Z" fill="black"/>
</svg>
