<svg width="24" height="24" viewBox="0 0 24 24" fill="none" xmlns="http://www.w3.org/2000/svg">
<path d="M12.325 1.00296C14.9776 1.06707 17.5363 1.91233 19.5047 3.41311C21.4766 4.9167 22.7402 6.99545 22.9637 9.27639C23.1877 11.5623 22.3414 13.7961 20.6649 15.5498C18.9948 17.2966 16.6146 18.4542 14.0038 18.8487C11.3919 19.2432 8.68115 18.8558 6.38266 17.7422C5.88579 17.5014 5.67817 16.9032 5.91879 16.4063C6.15958 15.9093 6.75771 15.7016 7.25473 15.9424C9.17268 16.8716 11.4731 17.2083 13.7049 16.8711C15.9381 16.5337 17.8948 15.5537 19.2196 14.168C20.5373 12.7895 21.1346 11.1169 20.9735 9.47171C20.8117 7.82123 19.8882 6.22012 18.2918 5.00296C16.6918 3.78301 14.5509 3.05691 12.2762 3.00198C10.0018 2.94711 7.80497 3.56825 6.10825 4.7139C4.41394 5.85793 3.36683 7.4203 3.07993 9.06546C2.79451 10.7023 3.26536 12.3935 4.4686 13.8233C4.82423 14.2458 4.77005 14.8768 4.3475 15.2324C3.92496 15.5878 3.29387 15.5338 2.93833 15.1114C1.38846 13.2698 0.713579 10.9907 1.10922 8.72171C1.50346 6.46121 2.91648 4.45619 4.98911 3.05667C7.05947 1.65874 9.67219 0.938892 12.325 1.00296Z" fill="black"/>
<path d="M4.99902 17.0061C5.55121 17.0056 5.99934 17.4529 6 18.0051C6.00078 18.6252 6.14618 19.2368 6.42383 19.7913C6.70149 20.3456 7.10361 20.8284 7.59961 21.2004C8.04142 21.5318 8.13112 22.158 7.79981 22.5999C7.46849 23.0416 6.84221 23.1312 6.40039 22.8C5.65619 22.2419 5.05129 21.5186 4.63477 20.6868C4.21824 19.855 4.00112 18.9373 4 18.0071C3.99946 17.4549 4.44681 17.0068 4.99902 17.0061Z" fill="black"/>
<path d="M6 16.0001C6 15.4478 5.55228 15.0001 5 15.0001C4.44772 15.0001 4 15.4478 4 16.0001C4 16.5524 4.44772 17.0001 5 17.0001C5.55228 17.0001 6 16.5524 6 16.0001ZM8 16.0001C8 17.657 6.65685 19.0001 5 19.0001C3.34315 19.0001 2 17.657 2 16.0001C2 14.3433 3.34315 13.0001 5 13.0001C6.65685 13.0001 8 14.3433 8 16.0001Z" fill="black"/>
</svg>
