<svg width="24" height="24" viewBox="0 0 24 24" fill="none" xmlns="http://www.w3.org/2000/svg">
<path fill-rule="evenodd" clip-rule="evenodd" d="M10 16C10 14.8954 10.8954 14 12 14C13.1046 14 14 14.8954 14 16C14 17.1046 13.1046 18 12 18C10.8954 18 10 17.1046 10 16Z" fill="black"/>
<path fill-rule="evenodd" clip-rule="evenodd" d="M5 11C4.44772 11 4 11.4477 4 12V20C4 20.5523 4.44772 21 5 21H19C19.5523 21 20 20.5523 20 20V12C20 11.4477 19.5523 11 19 11H5ZM2 12C2 10.3431 3.34315 9 5 9H19C20.6569 9 22 10.3431 22 12V20C22 21.6569 20.6569 23 19 23H5C3.34315 23 2 21.6569 2 20V12Z" fill="black"/>
<path fill-rule="evenodd" clip-rule="evenodd" d="M12 3C10.9391 3 9.92172 3.42143 9.17157 4.17157C8.42143 4.92172 8 5.93913 8 7V10C8 10.5523 7.55228 11 7 11C6.44772 11 6 10.5523 6 10V7C6 5.4087 6.63214 3.88258 7.75736 2.75736C8.88258 1.63214 10.4087 1 12 1C13.5913 1 15.1174 1.63214 16.2426 2.75736C17.3679 3.88258 18 5.4087 18 7V10C18 10.5523 17.5523 11 17 11C16.4477 11 16 10.5523 16 10V7C16 5.93913 15.5786 4.92172 14.8284 4.17157C14.0783 3.42143 13.0609 3 12 3Z" fill="black"/>
</svg>
