<svg width="24" height="24" viewBox="0 0 24 24" fill="none" xmlns="http://www.w3.org/2000/svg">
<path d="M16 4C16.5523 4 17 4.44772 17 5C17 5.55228 16.5523 6 16 6H3C2.44772 6 2 5.55228 2 5C2 4.44772 2.44772 4 3 4H16Z" fill="black"/>
<path d="M16 11C16.5523 11 17 11.4477 17 12C17 12.5523 16.5523 13 16 13H3C2.44772 13 2 12.5523 2 12C2 11.4477 2.44772 11 3 11H16Z" fill="black"/>
<path d="M11 18C11.5523 18 12 18.4477 12 19C12 19.5523 11.5523 20 11 20H3C2.44772 20 2 19.5523 2 19C2 18.4477 2.44772 18 3 18H11Z" fill="black"/>
<path d="M20.2929 15.293C20.6834 14.9025 21.3164 14.9025 21.707 15.293C22.0975 15.6835 22.0975 16.3166 21.707 16.7071L17.707 20.7071C17.3164 21.0976 16.6834 21.0976 16.2929 20.7071L14.2929 18.7071C13.9024 18.3166 13.9024 17.6835 14.2929 17.293C14.6834 16.9025 15.3164 16.9025 15.707 17.293L16.9999 18.586L20.2929 15.293Z" fill="black"/>
</svg>
