<svg width="24" height="24" viewBox="0 0 24 24" fill="none" xmlns="http://www.w3.org/2000/svg">
<path d="M18.9998 7C18.9998 6.73478 18.8943 6.48051 18.7068 6.29297C18.5193 6.10551 18.2649 6 17.9998 6H5.99977C5.73465 6.00007 5.48021 6.10549 5.29274 6.29297C5.10529 6.48049 4.99977 6.73485 4.99977 7V15.5254C4.99997 15.9925 4.89166 16.4535 4.68239 16.8711L4.68141 16.8721L3.61403 18.999L3.61305 19H20.3875L20.3865 18.999L19.3181 16.8721C19.1088 16.4544 18.9996 15.9925 18.9998 15.5254V7ZM20.9998 15.5264L21.0066 15.6426C21.02 15.7579 21.0539 15.8702 21.1062 15.9746L22.1726 18.0996C22.3268 18.4056 22.4007 18.7466 22.3855 19.0889C22.3703 19.431 22.2673 19.7637 22.0867 20.0547C21.906 20.3457 21.6532 20.5855 21.3533 20.751C21.0552 20.9154 20.72 21.0003 20.3797 20.999L3.61989 21C3.27977 21.0012 2.94511 20.9153 2.64723 20.751C2.34724 20.5855 2.09453 20.3458 1.91383 20.0547C1.73318 19.7636 1.63022 19.4311 1.61501 19.0889C1.59982 18.7466 1.67273 18.4056 1.82692 18.0996L2.8943 15.9746L2.9402 15.8682C2.97986 15.7589 2.99982 15.6432 2.99977 15.5264V7C2.99977 6.20441 3.31615 5.4415 3.87868 4.87891C4.44122 4.31636 5.20422 4.00007 5.99977 4H17.9998C18.7954 4 19.5592 4.3163 20.1218 4.87891C20.6842 5.44148 20.9998 6.20452 20.9998 7V15.5264Z" fill="black"/>
<path d="M20.0544 14.9871C20.6065 14.9873 21.0544 15.4349 21.0544 15.9871C21.0544 16.5392 20.6065 16.9868 20.0544 16.9871H3.94604C3.39376 16.9871 2.94604 16.5393 2.94604 15.9871C2.94604 15.4348 3.39376 14.9871 3.94604 14.9871H20.0544Z" fill="black"/>
</svg>
