<svg width="24" height="24" viewBox="0 0 24 24" fill="none" xmlns="http://www.w3.org/2000/svg">
<path d="M16 4C16.5523 4 17 4.44772 17 5C17 5.55228 16.5523 6 16 6H3C2.44772 6 2 5.55228 2 5C2 4.44772 2.44772 4 3 4H16Z" fill="black"/>
<path d="M16 11C16.5523 11 17 11.4477 17 12C17 12.5523 16.5523 13 16 13H3C2.44772 13 2 12.5523 2 12C2 11.4477 2.44772 11 3 11H16Z" fill="black"/>
<path d="M9 18C9.55228 18 10 18.4477 10 19C10 19.5523 9.55228 20 9 20H3C2.44772 20 2 19.5523 2 19C2 18.4477 2.44772 18 3 18H9Z" fill="black"/>
<path d="M15.2929 15.293C15.6834 14.9025 16.3164 14.9025 16.707 15.293C17.0975 15.6835 17.0975 16.3166 16.707 16.7071L14.414 19L16.707 21.293C17.0975 21.6835 17.0975 22.3166 16.707 22.7071C16.3164 23.0976 15.6834 23.0976 15.2929 22.7071L12.2929 19.7071C11.9024 19.3166 11.9024 18.6835 12.2929 18.293L15.2929 15.293Z" fill="black"/>
<path d="M20 17V5C20 4.44772 20.4477 4 21 4C21.5523 4 22 4.44772 22 5V17C22 17.7957 21.6837 18.5585 21.1211 19.1211C20.5585 19.6837 19.7957 20 19 20H13C12.4477 20 12 19.5523 12 19C12 18.4477 12.4477 18 13 18H19C19.2652 18 19.5195 17.8946 19.707 17.707C19.8946 17.5195 20 17.2652 20 17Z" fill="black"/>
</svg>
