<svg width="24" height="24" viewBox="0 0 24 24" fill="none" xmlns="http://www.w3.org/2000/svg">
<path fill-rule="evenodd" clip-rule="evenodd" d="M19.1073 1.00578C19.4456 1.0423 19.7422 1.2484 19.8944 1.5528C20.9264 3.61681 22 5.95848 22 10C22 16.0698 16.755 20.9992 11.0014 21C8.99516 21.0057 7.06003 20.2574 5.57959 18.9033C4.09875 17.549 3.18102 15.6875 3.00841 13.6881C2.83581 11.6888 3.42093 9.69756 4.64774 8.10943C5.87229 6.52421 7.64688 5.45618 9.62064 5.11617C12.4846 4.56333 14.1722 4.1757 15.3911 3.64943C16.5419 3.15253 17.2942 2.52224 18.2216 1.37226C18.4352 1.10734 18.7689 0.969267 19.1073 1.00578ZM16.1839 5.48559C14.7292 6.1137 12.8193 6.53578 9.98946 7.08189C9.98244 7.08325 9.97541 7.08453 9.96837 7.08573C8.48477 7.33919 7.15061 8.14098 6.2305 9.33208C5.31039 10.5232 4.87155 12.0166 5.001 13.5161C5.13046 15.0156 5.81876 16.4117 6.92939 17.4275C8.04002 18.4433 9.49185 19.0046 10.9969 19L10.9985 19H11C15.6858 19 20 14.9298 20 10C20 7.20994 19.443 5.3698 18.7416 3.78144C18.0059 4.49783 17.2154 5.04018 16.1839 5.48559Z" fill="black"/>
<path fill-rule="evenodd" clip-rule="evenodd" d="M13.7071 11.2929C14.0976 11.6834 14.0976 12.3166 13.7071 12.7071C13.1157 13.2985 12.151 13.9826 11.0455 14.5761C9.93211 15.1738 8.60744 15.7165 7.27456 15.9809C4.50508 16.5297 3 18.4852 3 21C3 21.5523 2.55228 22 2 22C1.44772 22 1 21.5523 1 21C1 17.5149 3.19503 14.7504 6.88544 14.0191C7.9725 13.8035 9.10795 13.3462 10.0995 12.8139C11.099 12.2774 11.8843 11.7015 12.2929 11.2929C12.6834 10.9024 13.3166 10.9024 13.7071 11.2929Z" fill="black"/>
</svg>
