<svg width="24" height="24" viewBox="0 0 24 24" fill="none" xmlns="http://www.w3.org/2000/svg">
<path d="M9 18.0001V11.0001C9 10.4478 9.44772 10.0001 10 10.0001C10.5523 10.0001 11 10.4478 11 11.0001V18.0001C11 18.5524 10.5523 19.0001 10 19.0001C9.44772 19.0001 9 18.5524 9 18.0001Z" fill="black"/>
<path d="M12.0037 0.997087C12.4599 0.998642 12.91 1.10418 13.3192 1.30568L21.1854 5.15236C22.6143 5.8518 22.1146 7.99978 20.5262 8.00002H3.47347C1.87988 7.99959 1.39249 5.85077 2.81429 5.15334L10.6805 1.29982L10.6834 1.29884C11.0949 1.09903 11.5464 0.995573 12.0037 0.997087ZM11.9969 2.99709C11.8445 2.99662 11.6936 3.03107 11.5565 3.09767L11.5555 3.0967L5.63168 6.00002H18.3651L12.4403 3.10256L12.4373 3.1006C12.3006 3.03302 12.1494 2.99761 11.9969 2.99709Z" fill="black"/>
<path d="M13 18.0001V11.0001C13 10.4478 13.4477 10.0001 14 10.0001C14.5523 10.0001 15 10.4478 15 11.0001V18.0001C15 18.5524 14.5523 19.0001 14 19.0001C13.4477 19.0001 13 18.5524 13 18.0001Z" fill="black"/>
<path d="M17 18.0001V11.0001C17 10.4478 17.4477 10.0001 18 10.0001C18.5523 10.0001 19 10.4478 19 11.0001V18.0001C19 18.5524 18.5523 19.0001 18 19.0001C17.4477 19.0001 17 18.5524 17 18.0001Z" fill="black"/>
<path d="M21 21.0001C21.5523 21.0001 22 21.4478 22 22.0001C22 22.5524 21.5523 23.0001 21 23.0001H3C2.44772 23.0001 2 22.5524 2 22.0001C2 21.4478 2.44772 21.0001 3 21.0001H21Z" fill="black"/>
<path d="M5 18.0001V11.0001C5 10.4478 5.44772 10.0001 6 10.0001C6.55228 10.0001 7 10.4478 7 11.0001V18.0001C7 18.5524 6.55228 19.0001 6 19.0001C5.44772 19.0001 5 18.5524 5 18.0001Z" fill="black"/>
</svg>
