<svg width="24" height="24" viewBox="0 0 24 24" fill="none" xmlns="http://www.w3.org/2000/svg">
<path d="M21 4C21.5523 4 22 4.44772 22 5C22 5.55228 21.5523 6 21 6H3C2.44772 6 2 5.55228 2 5C2 4.44772 2.44772 4 3 4H21Z" fill="black"/>
<path d="M10 11C10.5523 11 11 11.4477 11 12C11 12.5523 10.5523 13 10 13H3C2.44772 13 2 12.5523 2 12C2 11.4477 2.44772 11 3 11H10Z" fill="black"/>
<path d="M10 18C10.5523 18 11 18.4477 11 19C11 19.5523 10.5523 20 10 20H3C2.44772 20 2 19.5523 2 19C2 18.4477 2.44772 18 3 18H10Z" fill="black"/>
<path d="M21 14.999L16.0029 12.0019L16 12V18L16.0029 17.998L21 15.0009L21.002 15L21 14.999ZM23.002 15C23.002 15.3463 22.9123 15.6871 22.7412 15.9882C22.5705 16.2887 22.324 16.5385 22.0274 16.7158L22.0283 16.7167L17.0313 19.7138L17.0303 19.7128C16.7271 19.8952 16.3812 19.9951 16.0274 20C15.6724 20.0048 15.3225 19.9152 15.0137 19.7402C14.7048 19.5651 14.4477 19.3101 14.2695 19.0029C14.0916 18.6959 13.9986 18.347 14 17.9921V12.0029C13.9995 11.649 14.0928 11.3011 14.2705 10.9951C14.4488 10.6882 14.7059 10.4346 15.0147 10.2597C15.3235 10.0848 15.6735 9.99496 16.0283 9.99995C16.3819 10.005 16.7273 10.1048 17.0303 10.2871L17.0313 10.2861L22.0264 13.2822L22.1348 13.3515C22.3837 13.5226 22.5914 13.7481 22.7412 14.0117C22.9123 14.3128 23.002 14.6536 23.002 15Z" fill="black"/>
</svg>
