<svg width="24" height="24" viewBox="0 0 24 24" fill="none" xmlns="http://www.w3.org/2000/svg">
<path d="M6.62905 2.57139C9.35313 1.48191 11.7514 2.00622 12.7365 3.68077C13.2231 4.50804 13.2616 5.50556 12.8185 6.40343C12.3818 7.28826 11.5239 7.99669 10.3507 8.43663C10.3283 8.44504 10.3054 8.45231 10.2824 8.45909C6.1566 9.67255 4.54505 11.4015 4.13588 12.629C3.78045 13.6959 4.24849 14.5979 5.13393 14.9816L5.31655 15.0509L5.37123 15.0714C6.17867 15.3944 7.0039 15.2098 8.02651 14.505C9.07563 13.7819 10.1179 12.6575 11.2736 11.4376C12.3771 10.2728 13.6003 9.00152 14.9035 8.24425C15.571 7.85633 16.3083 7.57313 17.1056 7.52354C17.9178 7.47311 18.7274 7.67026 19.5148 8.14268C21.0744 9.07861 21.8603 10.5927 22.1056 12.2003C22.348 13.7896 22.0756 15.5128 21.4982 17.0411C21.4282 17.2263 21.3523 17.4095 21.2726 17.5909C21.4672 17.8698 21.6621 18.1651 21.8537 18.4786C22.1414 18.9498 21.9928 19.5657 21.5216 19.8536C21.057 20.1375 20.4523 19.9967 20.1593 19.5411C19.7727 20.0719 19.3407 20.5494 18.8693 20.9454C17.7262 21.9055 16.2455 22.469 14.6837 21.9483C14.6389 21.9334 14.5951 21.9157 14.5529 21.8946C13.0049 21.1207 12.1967 19.826 12.0597 18.4679C11.927 17.1508 12.4321 15.8222 13.3878 14.9493C14.3774 14.0458 15.8119 13.6678 17.3732 14.2218C18.1831 14.5092 18.9973 15.0368 19.8009 15.8253C20.1554 14.6937 20.285 13.5244 20.129 12.5021C19.9524 11.3444 19.4254 10.4215 18.4855 9.85753C18.0229 9.57995 17.6128 9.49585 17.2296 9.51964C16.8319 9.5444 16.3968 9.68992 15.9083 9.97374C14.8991 10.5602 13.8721 11.6025 12.7257 12.8126C11.6316 13.9675 10.4245 15.2809 9.16127 16.1515C7.87151 17.0404 6.32141 17.6055 4.62905 16.9288V16.9278C2.66442 16.2427 1.49975 14.2123 2.23842 11.9962C2.95132 9.8575 5.32412 7.844 9.6642 6.55675C10.4802 6.24735 10.8694 5.83491 11.0255 5.51866C11.1762 5.21342 11.1512 4.92967 11.0128 4.69444C10.7478 4.24406 9.64676 3.51861 7.37123 4.42882C6.85851 4.63374 6.27651 4.38389 6.07143 3.8712C5.86644 3.35846 6.11632 2.77649 6.62905 2.57139ZM16.7042 16.1066C15.8439 15.8014 15.1843 16.017 14.7365 16.4259C14.2551 16.8655 13.9796 17.5685 14.0499 18.2667C14.1146 18.9079 14.4778 19.5934 15.379 20.0685C16.0511 20.2667 16.7975 20.074 17.5831 19.4142C18.0661 19.0085 18.5198 18.4523 18.9132 17.8009C18.0796 16.8301 17.3211 16.3254 16.7042 16.1066Z" fill="black"/>
</svg>
