<svg width="24" height="24" viewBox="0 0 24 24" fill="none" xmlns="http://www.w3.org/2000/svg">
<path fill-rule="evenodd" clip-rule="evenodd" d="M11.6884 1.01792C12.9497 0.961711 14.2027 1.24769 15.3148 1.84555C16.4268 2.44342 17.3564 3.33092 18.0052 4.41405C18.6539 5.49718 18.9977 6.73561 19 7.99817V8C19 9.43469 18.5168 10.7738 17.5474 11.8644C17.1805 12.2771 16.5484 12.3143 16.1356 11.9474C15.7229 11.5805 15.6857 10.9484 16.0526 10.5356C16.683 9.82639 16.9998 8.96581 17 8.00084C16.9982 7.09935 16.7527 6.21512 16.2894 5.44174C15.826 4.66808 15.162 4.03415 14.3677 3.6071C13.5734 3.18005 12.6784 2.97579 11.7774 3.01593C10.8765 3.05608 10.0032 3.33915 9.25 3.83516C8.78875 4.13892 8.16859 4.01125 7.86484 3.55C7.56108 3.08875 7.68875 2.46859 8.15 2.16483C9.20444 1.47042 10.4271 1.07413 11.6884 1.01792Z" fill="black"/>
<path fill-rule="evenodd" clip-rule="evenodd" d="M1.29289 1.29289C1.68342 0.902369 2.31658 0.902369 2.70711 1.29289L22.7071 21.2929C23.0976 21.6834 23.0976 22.3166 22.7071 22.7071C22.3166 23.0976 21.6834 23.0976 21.2929 22.7071L1.29289 2.70711C0.902369 2.31658 0.902369 1.68342 1.29289 1.29289Z" fill="black"/>
<path fill-rule="evenodd" clip-rule="evenodd" d="M6.6722 5.37185C7.18481 5.57742 7.43371 6.15961 7.22815 6.67221C6.94907 7.36813 6.88985 8.13284 7.05844 8.86344C7.22704 9.59403 7.61538 10.2555 8.17119 10.7587C8.18344 10.7698 8.19542 10.7812 8.20711 10.7929C8.96334 11.5491 9.72386 12.5203 9.98058 13.8039C10.0889 14.3454 9.73767 14.8723 9.19611 14.9806C8.65455 15.0889 8.12773 14.7377 8.01942 14.1961C7.87735 13.4858 7.44404 12.8615 6.80911 12.2234C5.96092 11.4481 5.36814 10.4332 5.10966 9.31316C4.84918 8.18442 4.94068 7.00297 5.37185 5.9278C5.57741 5.41519 6.1596 5.16629 6.6722 5.37185Z" fill="black"/>
<path fill-rule="evenodd" clip-rule="evenodd" d="M8 18C8 17.4477 8.44772 17 9 17H15C15.5523 17 16 17.4477 16 18C16 18.5523 15.5523 19 15 19H9C8.44772 19 8 18.5523 8 18Z" fill="black"/>
<path fill-rule="evenodd" clip-rule="evenodd" d="M9 22C9 21.4477 9.44772 21 10 21H14C14.5523 21 15 21.4477 15 22C15 22.5523 14.5523 23 14 23H10C9.44772 23 9 22.5523 9 22Z" fill="black"/>
</svg>
