<svg width="24" height="24" viewBox="0 0 24 24" fill="none" xmlns="http://www.w3.org/2000/svg">
<path fill-rule="evenodd" clip-rule="evenodd" d="M12 1C12.5523 1 13 1.44772 13 2V6C13 6.55228 12.5523 7 12 7C11.4477 7 11 6.55228 11 6V2C11 1.44772 11.4477 1 12 1Z" fill="black"/>
<path fill-rule="evenodd" clip-rule="evenodd" d="M19.807 4.19289C20.1976 4.58342 20.1976 5.21658 19.807 5.60711L16.907 8.50711C16.5165 8.89763 15.8833 8.89763 15.4928 8.50711C15.1023 8.11658 15.1023 7.48342 15.4928 7.09289L18.3928 4.19289C18.7833 3.80237 19.4165 3.80237 19.807 4.19289Z" fill="black"/>
<path fill-rule="evenodd" clip-rule="evenodd" d="M17 12C17 11.4477 17.4477 11 18 11H22C22.5523 11 23 11.4477 23 12C23 12.5523 22.5523 13 22 13H18C17.4477 13 17 12.5523 17 12Z" fill="black"/>
<path fill-rule="evenodd" clip-rule="evenodd" d="M15.4928 15.4929C15.8833 15.1024 16.5165 15.1024 16.907 15.4929L19.807 18.3929C20.1976 18.7834 20.1976 19.4166 19.807 19.8071C19.4165 20.1976 18.7833 20.1976 18.3928 19.8071L15.4928 16.9071C15.1023 16.5166 15.1023 15.8834 15.4928 15.4929Z" fill="black"/>
<path fill-rule="evenodd" clip-rule="evenodd" d="M12 17C12.5523 17 13 17.4477 13 18V22C13 22.5523 12.5523 23 12 23C11.4477 23 11 22.5523 11 22V18C11 17.4477 11.4477 17 12 17Z" fill="black"/>
<path fill-rule="evenodd" clip-rule="evenodd" d="M8.50711 15.4929C8.89763 15.8834 8.89763 16.5166 8.50711 16.9071L5.60711 19.8071C5.21658 20.1976 4.58342 20.1976 4.19289 19.8071C3.80237 19.4166 3.80237 18.7834 4.19289 18.3929L7.09289 15.4929C7.48342 15.1024 8.11658 15.1024 8.50711 15.4929Z" fill="black"/>
<path fill-rule="evenodd" clip-rule="evenodd" d="M1 12C1 11.4477 1.44772 11 2 11H6C6.55228 11 7 11.4477 7 12C7 12.5523 6.55228 13 6 13H2C1.44772 13 1 12.5523 1 12Z" fill="black"/>
<path fill-rule="evenodd" clip-rule="evenodd" d="M4.19289 4.19289C4.58342 3.80237 5.21658 3.80237 5.60711 4.19289L8.50711 7.09289C8.89763 7.48342 8.89763 8.11658 8.50711 8.50711C8.11658 8.89763 7.48342 8.89763 7.09289 8.50711L4.19289 5.60711C3.80237 5.21658 3.80237 4.58342 4.19289 4.19289Z" fill="black"/>
</svg>
