<svg width="24" height="24" viewBox="0 0 24 24" fill="none" xmlns="http://www.w3.org/2000/svg">
<path d="M17.0006 12L17.15 12.0059C17.497 12.0321 17.8323 12.1485 18.1217 12.3447C18.4524 12.5689 18.7088 12.8868 18.857 13.2578L20.857 18.2578C20.9783 18.5613 21.024 18.89 20.9889 19.2148C20.9537 19.5398 20.8392 19.8515 20.6559 20.1221C20.4726 20.3925 20.2257 20.6136 19.9371 20.7666C19.7207 20.8813 19.4856 20.9557 19.2438 20.9854L18.9996 21H8.99962C8.67296 20.9998 8.35062 20.9198 8.06212 20.7666C7.77372 20.6134 7.52741 20.3915 7.34435 20.1211C7.1613 19.8507 7.0474 19.5395 7.01231 19.2148C6.97727 18.8901 7.02198 18.5612 7.14317 18.2578L9.14317 13.2578L9.20372 13.1211C9.35657 12.8086 9.58915 12.5409 9.87853 12.3447C10.2093 12.1205 10.6 12.0003 10.9996 12H17.0006ZM11.0006 14L9.0006 19H19.0006L16.9996 14.001L11.0006 14Z" fill="black"/>
<path d="M3 4C3 3.46957 3.21087 2.96101 3.58594 2.58594C3.96101 2.21086 4.46957 2 5 2H6C6.79565 2 7.55849 2.3163 8.12109 2.87891C8.6837 3.44152 9 4.20435 9 5V7C9 7.79565 8.6837 8.55849 8.12109 9.12109C7.55849 9.6837 6.79565 10 6 10H5C4.46957 10 3.96101 9.78913 3.58594 9.41406C3.21087 9.03899 3 8.53043 3 8V4ZM5 8H6C6.26522 8 6.51949 7.89457 6.70703 7.70703C6.89457 7.51949 7 7.26522 7 7V5C7 4.73478 6.89457 4.4805 6.70703 4.29297C6.5195 4.10543 6.26522 4 6 4H5V8Z" fill="black"/>
<path d="M13 13V8C13 7.73478 12.8946 7.4805 12.707 7.29297C12.5195 7.10543 12.2652 7 12 7H8C7.44772 7 7 6.55228 7 6C7 5.44772 7.44772 5 8 5H12C12.7956 5 13.5585 5.3163 14.1211 5.87891C14.6837 6.44151 15 7.20435 15 8V13C15 13.5523 14.5523 14 14 14C13.4477 14 13 13.5523 13 13Z" fill="black"/>
</svg>
