<svg width="24" height="24" viewBox="0 0 24 24" fill="none" xmlns="http://www.w3.org/2000/svg">
<path d="M1.00346 6.99487C1.00351 6.60723 1.11604 6.22785 1.32768 5.90308C1.53743 5.58135 1.8357 5.32657 2.18608 5.16968L10.7554 1.27026L10.9029 1.20776C11.2518 1.07065 11.6237 0.999812 11.9996 0.999756C12.429 0.999756 12.8539 1.09207 13.2447 1.27026L21.8345 5.17847C22.185 5.33504 22.4819 5.58939 22.6919 5.91089C22.9042 6.23603 23.0181 6.61635 23.0181 7.00464C23.0181 7.39292 22.9042 7.77326 22.6919 8.09839C22.4818 8.42001 22.1832 8.67328 21.8326 8.82983L21.8335 8.83081L13.2535 12.7292L13.2544 12.7302C12.8638 12.9082 12.4395 12.9988 12.0103 12.9988C11.5808 12.9989 11.156 12.9083 10.7652 12.7302L2.1851 8.82007C1.83531 8.66313 1.53716 8.40896 1.32768 8.08765C1.11585 7.76273 1.00346 7.38274 1.00346 6.99487ZM3.01518 6.99976L11.5943 10.9099C11.7245 10.9692 11.8662 10.9998 12.0093 10.9998C12.1525 10.9998 12.295 10.9693 12.4253 10.9099L21.0064 7.00952L21.0181 7.00464L21.0054 6.99976L12.4156 3.09058L12.4146 3.0896C12.2844 3.03031 12.1426 2.99976 11.9996 2.99976C11.8567 2.99982 11.7155 3.03039 11.5855 3.0896L11.5845 3.09058L3.00346 6.99487L3.01518 6.99976Z" fill="black"/>
<path d="M22 16.0001C22.5523 16.0001 23 16.4478 23 17.0001C23 17.5524 22.5523 18.0001 22 18.0001H16C15.4477 18.0001 15 17.5524 15 17.0001C15 16.4478 15.4477 16.0001 16 16.0001H22Z" fill="black"/>
<path d="M18 20.0001V14.0001C18 13.4478 18.4477 13.0001 19 13.0001C19.5523 13.0001 20 13.4478 20 14.0001V20.0001C20 20.5524 19.5523 21.0001 19 21.0001C18.4477 21.0001 18 20.5524 18 20.0001Z" fill="black"/>
<path d="M2.00294 11.0001C2.55484 11.0017 3.00011 11.4502 2.99903 12.0021L11.5918 15.9093C11.7213 15.9679 11.8628 15.9982 12.0049 15.9982C12.5572 15.9981 13.0048 16.4459 13.0049 16.9982C13.0049 17.5504 12.5571 17.9981 12.0049 17.9982C11.5782 17.9982 11.1563 17.9075 10.7676 17.7316L10.7666 17.7306L2.16602 13.8204L2.16016 13.8175C1.813 13.6568 1.51909 13.3998 1.31348 13.0773C1.10795 12.7547 0.99906 12.3796 1.00001 11.9972C1.00162 11.4451 1.4508 10.9987 2.00294 11.0001Z" fill="black"/>
<path d="M2.00294 16.0001C2.55484 16.0017 3.00011 16.4502 2.99903 17.0021L11.5918 20.9093C11.7213 20.9679 11.8628 20.9981 12.0049 20.9982C12.1467 20.9982 12.2868 20.9676 12.416 20.9093L14.5322 19.9474C15.0349 19.719 15.6279 19.9418 15.8565 20.4445C16.0848 20.9471 15.8628 21.54 15.3604 21.7687L13.2441 22.7306L13.2422 22.7316C12.8535 22.9075 12.4315 22.9982 12.0049 22.9982C11.5782 22.9981 11.1563 22.9075 10.7676 22.7316L10.7666 22.7306L2.16602 18.8204L2.16016 18.8175C1.813 18.6568 1.51909 18.3998 1.31348 18.0773C1.10795 17.7547 0.99906 17.3796 1.00001 16.9972C1.00162 16.4451 1.4508 15.9987 2.00294 16.0001Z" fill="black"/>
</svg>
