<svg width="24" height="24" viewBox="0 0 24 24" fill="none" xmlns="http://www.w3.org/2000/svg">
<path fill-rule="evenodd" clip-rule="evenodd" d="M2.75736 7.75736C3.88258 6.63214 5.4087 6 7 6C8.5913 6 10.1174 6.63214 11.2426 7.75736C12.3679 8.88258 13 10.4087 13 12C13 13.0609 13.4214 14.0783 14.1716 14.8284C14.9217 15.5786 15.9391 16 17 16C18.0609 16 19.0783 15.5786 19.8284 14.8284C20.5786 14.0783 21 13.0609 21 12C21 11.4477 21.4477 11 22 11C22.5523 11 23 11.4477 23 12C23 13.5913 22.3679 15.1174 21.2426 16.2426C20.1174 17.3679 18.5913 18 17 18C15.4087 18 13.8826 17.3679 12.7574 16.2426C11.6321 15.1174 11 13.5913 11 12C11 10.9391 10.5786 9.92172 9.82843 9.17157C9.07828 8.42143 8.06087 8 7 8C5.93913 8 4.92172 8.42143 4.17157 9.17157C3.42143 9.92172 3 10.9391 3 12C3 12.5523 2.55228 13 2 13C1.44772 13 1 12.5523 1 12C1 10.4087 1.63214 8.88258 2.75736 7.75736Z" fill="black"/>
<path fill-rule="evenodd" clip-rule="evenodd" d="M16.1355 2.89738C16.4131 2.41992 17.0252 2.2579 17.5027 2.53549C18.1809 2.9298 18.7748 3.45383 19.2505 4.07767C19.7262 4.7015 20.0743 5.41293 20.2751 6.17131C20.4758 6.9297 20.5252 7.7202 20.4205 8.49769C20.3157 9.27517 20.0589 10.0244 19.6646 10.7026C19.2702 11.3808 18.7462 11.9747 18.1224 12.4504C17.4985 12.9261 16.7871 13.2743 16.0287 13.475C15.2703 13.6758 14.4798 13.7252 13.7024 13.6204C12.9258 13.5158 12.1774 13.2594 11.4998 12.8659C10.5765 12.3359 9.48049 12.1941 8.45263 12.4717C7.42405 12.7495 6.54795 13.4245 6.01706 14.3483C5.48617 15.272 5.34399 16.3688 5.62178 17.3974C5.89957 18.426 6.57459 19.3021 7.49833 19.833C7.97717 20.1082 8.14226 20.7194 7.86706 21.1983C7.59187 21.6771 6.9806 21.8422 6.50176 21.567C5.11813 20.7718 4.10705 19.4595 3.69095 17.9189C3.27486 16.3782 3.48784 14.7354 4.28303 13.3517C5.07823 11.9681 6.3905 10.957 7.93117 10.5409C9.47184 10.1248 11.1147 10.3378 12.4983 11.133C12.4998 11.1338 12.5012 11.1347 12.5027 11.1355C12.9538 11.3978 13.4522 11.5687 13.9694 11.6383C14.4866 11.708 15.0125 11.6752 15.5169 11.5416C16.0214 11.4081 16.4947 11.1765 16.9097 10.86C17.3246 10.5436 17.6732 10.1485 17.9355 9.69738C18.1978 9.24622 18.3687 8.74782 18.4384 8.23063C18.5081 7.71344 18.4752 7.18759 18.3417 6.6831C18.2081 6.17861 17.9765 5.70536 17.6601 5.29038C17.3437 4.8754 16.9486 4.5268 16.4974 4.26451C16.02 3.98692 15.858 3.37483 16.1355 2.89738Z" fill="black"/>
<path fill-rule="evenodd" clip-rule="evenodd" d="M10.5169 3.75838C9.49804 3.48868 8.41378 3.63477 7.50263 4.16451C7.02517 4.4421 6.41309 4.28008 6.1355 3.80262C5.85791 3.32517 6.01993 2.71308 6.49739 2.4355C7.8671 1.63915 9.49706 1.41954 11.0287 1.82497C12.5603 2.2304 13.8682 3.22767 14.6645 4.59738C15.4609 5.96709 15.6805 7.59705 15.275 9.12869C14.8696 10.6603 13.8723 11.9682 12.5026 12.7645C11.5915 13.2942 10.9281 14.1642 10.6584 15.1831C10.3887 16.202 10.5348 17.2862 11.0645 18.1974C11.5943 19.1085 12.4642 19.7719 13.4831 20.0416C14.502 20.3113 15.5862 20.1652 16.4974 19.6355C16.9748 19.3579 17.5869 19.5199 17.8645 19.9974C18.1421 20.4748 17.9801 21.0869 17.5026 21.3645C16.1329 22.1609 14.503 22.3805 12.9713 21.975C11.4397 21.5696 10.1318 20.5723 9.3355 19.2026C8.53916 17.8329 8.31954 16.203 8.72498 14.6713C9.13041 13.1397 10.1277 11.8318 11.4974 11.0355C12.4085 10.5058 13.0719 9.63576 13.3416 8.6169C13.6113 7.59804 13.4652 6.51377 12.9355 5.60262C12.4058 4.69147 11.5358 4.02808 10.5169 3.75838Z" fill="black"/>
<path fill-rule="evenodd" clip-rule="evenodd" d="M12 3C7.02944 3 3 7.02944 3 12C3 16.9706 7.02944 21 12 21C16.9706 21 21 16.9706 21 12C21 7.02944 16.9706 3 12 3ZM1 12C1 5.92487 5.92487 1 12 1C18.0751 1 23 5.92487 23 12C23 18.0751 18.0751 23 12 23C5.92487 23 1 18.0751 1 12Z" fill="black"/>
</svg>
