<svg width="24" height="24" viewBox="0 0 24 24" fill="none" xmlns="http://www.w3.org/2000/svg">
<path fill-rule="evenodd" clip-rule="evenodd" d="M4.29289 7.29289C4.68342 6.90237 5.31658 6.90237 5.70711 7.29289L11.7071 13.2929C12.0976 13.6834 12.0976 14.3166 11.7071 14.7071C11.3166 15.0976 10.6834 15.0976 10.2929 14.7071L4.29289 8.70711C3.90237 8.31658 3.90237 7.68342 4.29289 7.29289Z" fill="black"/>
<path fill-rule="evenodd" clip-rule="evenodd" d="M12.5547 4.16795C13.0142 4.4743 13.1384 5.09517 12.8321 5.5547L10.8321 8.5547C10.7955 8.60949 10.7537 8.66054 10.7071 8.70711L4.70711 14.7071C4.31658 15.0976 3.68342 15.0976 3.29289 14.7071C2.90237 14.3166 2.90237 13.6834 3.29289 13.2929L9.22288 7.36291L11.1679 4.4453C11.4743 3.98577 12.0952 3.8616 12.5547 4.16795Z" fill="black"/>
<path fill-rule="evenodd" clip-rule="evenodd" d="M1 5C1 4.44772 1.44772 4 2 4H14C14.5523 4 15 4.44772 15 5C15 5.55228 14.5523 6 14 6H2C1.44772 6 1 5.55228 1 5Z" fill="black"/>
<path fill-rule="evenodd" clip-rule="evenodd" d="M6 2C6 1.44772 6.44772 1 7 1H8C8.55228 1 9 1.44772 9 2C9 2.55228 8.55228 3 8 3H7C6.44772 3 6 2.55228 6 2Z" fill="black"/>
<path fill-rule="evenodd" clip-rule="evenodd" d="M17 11C17.3788 11 17.725 11.214 17.8944 11.5528L22.8944 21.5528C23.1414 22.0468 22.9412 22.6474 22.4472 22.8944C21.9532 23.1414 21.3525 22.9412 21.1056 22.4472L17 14.2361L12.8944 22.4472C12.6474 22.9412 12.0467 23.1414 11.5528 22.8944C11.0588 22.6474 10.8586 22.0468 11.1056 21.5528L16.1056 11.5528C16.275 11.214 16.6212 11 17 11Z" fill="black"/>
<path fill-rule="evenodd" clip-rule="evenodd" d="M13 18C13 17.4477 13.4477 17 14 17H20C20.5523 17 21 17.4477 21 18C21 18.5523 20.5523 19 20 19H14C13.4477 19 13 18.5523 13 18Z" fill="black"/>
</svg>
