<svg width="24" height="24" viewBox="0 0 24 24" fill="none" xmlns="http://www.w3.org/2000/svg">
<path d="M21 4C21.5523 4 22 4.44772 22 5C22 5.55228 21.5523 6 21 6H13C12.4477 6 12 5.55228 12 5C12 4.44772 12.4477 4 13 4H21Z" fill="black"/>
<path d="M21 11C21.5523 11 22 11.4477 22 12C22 12.5523 21.5523 13 21 13H13C12.4477 13 12 12.5523 12 12C12 11.4477 12.4477 11 13 11H21Z" fill="black"/>
<path d="M21 18C21.5523 18 22 18.4477 22 19C22 19.5523 21.5523 20 21 20H13C12.4477 20 12 19.5523 12 19C12 18.4477 12.4477 18 13 18H21Z" fill="black"/>
<path d="M8.29289 14.293C8.68342 13.9025 9.31643 13.9025 9.70696 14.293C10.0975 14.6835 10.0975 15.3166 9.70696 15.7071L5.70696 19.7071C5.31643 20.0976 4.68342 20.0976 4.29289 19.7071L2.29289 17.7071C1.90237 17.3166 1.90237 16.6835 2.29289 16.293C2.68342 15.9025 3.31643 15.9025 3.70696 16.293L4.99992 17.586L8.29289 14.293Z" fill="black"/>
<path d="M4 5V9H8V5H4ZM10 9C10 10.1046 9.10457 11 8 11H4C2.89543 11 2 10.1046 2 9V5C2 3.89543 2.89543 3 4 3H8C9.10457 3 10 3.89543 10 5V9Z" fill="black"/>
</svg>
