<svg width="24" height="24" viewBox="0 0 24 24" fill="none" xmlns="http://www.w3.org/2000/svg">
<path d="M11 7V2C11 1.44772 11.4477 1 12 1C12.5523 1 13 1.44772 13 2V7C13 7.55228 12.5523 8 12 8C11.4477 8 11 7.55228 11 7Z" fill="black"/>
<path d="M14.496 15.0547C15.0168 14.8709 15.5886 15.1443 15.7724 15.665C15.9853 16.2683 16.05 16.9142 15.9618 17.5478C15.8737 18.1813 15.6349 18.7845 15.2655 19.3066C14.896 19.8289 14.406 20.2548 13.8378 20.5488C13.2697 20.8427 12.6395 20.9961 11.9999 20.9961C11.3603 20.9961 10.7301 20.8427 10.162 20.5488C9.59386 20.2548 9.10379 19.8289 8.73429 19.3066C8.36491 18.7845 8.12617 18.1813 8.038 17.5478C7.94984 16.9142 8.01456 16.2683 8.22745 15.665C8.41127 15.1443 8.98303 14.8709 9.50382 15.0547C10.0246 15.2385 10.298 15.8102 10.1142 16.3311C10.0078 16.6327 9.97537 16.9557 10.0194 17.2725C10.0636 17.589 10.1825 17.8904 10.3671 18.1514C10.5518 18.4125 10.7969 18.6255 11.081 18.7725C11.365 18.9194 11.6801 18.9961 11.9999 18.9961C12.3198 18.9961 12.6348 18.9194 12.9189 18.7725C13.2029 18.6255 13.448 18.4125 13.6327 18.1514C13.8173 17.8904 13.9363 17.589 13.9804 17.2725C14.0245 16.9557 13.9921 16.6327 13.8857 16.3311C13.7019 15.8102 13.9752 15.2385 14.496 15.0547Z" fill="black"/>
<path d="M17.0001 6C17.3914 5.99984 17.7739 6.11485 18.1006 6.33008C18.4277 6.54551 18.6846 6.85197 18.8389 7.21191L21.8389 14.2119C21.9693 14.5161 22.0226 14.8481 21.9932 15.1777C21.9637 15.5075 21.8524 15.8252 21.67 16.1016C21.4876 16.3779 21.2398 16.6049 20.9483 16.7617C20.6569 16.9184 20.3309 17.0001 20.0001 17H4.00006C3.66921 17.0002 3.34324 16.9184 3.05182 16.7617C2.76025 16.6049 2.51251 16.3779 2.33014 16.1016C2.14775 15.8252 2.03639 15.5075 2.0069 15.1777C1.97749 14.8481 2.03079 14.5161 2.1612 14.2119L5.1612 7.21191C5.31546 6.85215 5.57167 6.54548 5.8985 6.33008C6.22538 6.11477 6.60866 6.00079 7.00006 6.00098L17.0001 6ZM3.99909 15H20.001L17.001 8H6.99909L3.99909 15Z" fill="black"/>
</svg>
