<svg width="24" height="24" viewBox="0 0 24 24" fill="none" xmlns="http://www.w3.org/2000/svg">
<path fill-rule="evenodd" clip-rule="evenodd" d="M5 11.9999C4.44772 11.9999 4 12.4476 4 12.9999V19.9999C4 20.5522 4.44772 20.9999 5 20.9999H19C19.5523 20.9999 20 20.5522 20 19.9999V12.9999C20 12.4476 19.5523 11.9999 19 11.9999H5ZM2 12.9999C2 11.3431 3.34315 9.99991 5 9.99991H19C20.6569 9.99991 22 11.3431 22 12.9999V19.9999C22 21.6568 20.6569 22.9999 19 22.9999H5C3.34315 22.9999 2 21.6568 2 19.9999V12.9999Z" fill="black"/>
<path fill-rule="evenodd" clip-rule="evenodd" d="M14.3724 3.77436C13.5737 3.18603 12.5849 2.91545 11.598 3.01514C10.6111 3.11483 9.69637 3.57768 9.0315 4.31384C8.36663 5.05 7.999 6.00695 8 6.99891L8 10.9999C8 11.5522 7.55229 11.9999 7 11.9999C6.44772 11.9999 6 11.5522 6 10.9999V7.00036C5.99865 5.51262 6.55006 4.07742 7.54725 2.97332C8.54456 1.86908 9.9166 1.1748 11.397 1.02526C12.8774 0.875727 14.3606 1.2816 15.5586 2.16409C16.7566 3.04658 17.5839 4.34273 17.88 5.80092C17.9899 6.34216 17.6402 6.87001 17.099 6.97991C16.5578 7.08981 16.0299 6.74015 15.92 6.19891C15.7226 5.22678 15.171 4.36268 14.3724 3.77436Z" fill="black"/>
</svg>
