<svg width="24" height="24" viewBox="0 0 24 24" fill="none" xmlns="http://www.w3.org/2000/svg">
<path fill-rule="evenodd" clip-rule="evenodd" d="M6 7C5.73478 7 5.48043 7.10536 5.29289 7.29289C5.10536 7.48043 5 7.73478 5 8V18C5 18.2652 5.10536 18.5196 5.29289 18.7071C5.48043 18.8946 5.73478 19 6 19C6.55228 19 7 19.4477 7 20C7 20.5523 6.55228 21 6 21C5.20435 21 4.44129 20.6839 3.87868 20.1213C3.31607 19.5587 3 18.7957 3 18V8C3 7.20435 3.31607 6.44129 3.87868 5.87868C4.44129 5.31607 5.20435 5 6 5H18C18.7956 5 19.5587 5.31607 20.1213 5.87868C20.6839 6.44129 21 7.20435 21 8V18C21 18.7957 20.6839 19.5587 20.1213 20.1213C19.5587 20.6839 18.7957 21 18 21C17.4477 21 17 20.5523 17 20C17 19.4477 17.4477 19 18 19C18.2652 19 18.5196 18.8946 18.7071 18.7071C18.8946 18.5196 19 18.2652 19 18V8C19 7.73478 18.8946 7.48043 18.7071 7.29289C18.5196 7.10536 18.2652 7 18 7H6Z" fill="black"/>
<path fill-rule="evenodd" clip-rule="evenodd" d="M10 3C9.73478 3 9.48043 3.10536 9.29289 3.29289C9.10536 3.48043 9 3.73478 9 4V18C9 18.5523 8.55228 19 8 19C7.44772 19 7 18.5523 7 18V4C7 3.20435 7.31607 2.44129 7.87868 1.87868C8.44129 1.31607 9.20435 1 10 1H14C14.7956 1 15.5587 1.31607 16.1213 1.87868C16.6839 2.44129 17 3.20435 17 4V18C17 18.5523 16.5523 19 16 19C15.4477 19 15 18.5523 15 18V4C15 3.73478 14.8946 3.48043 14.7071 3.29289C14.5196 3.10536 14.2652 3 14 3H10Z" fill="black"/>
<path fill-rule="evenodd" clip-rule="evenodd" d="M9 20C9 19.4477 9.44772 19 10 19H14C14.5523 19 15 19.4477 15 20C15 20.5523 14.5523 21 14 21H10C9.44772 21 9 20.5523 9 20Z" fill="black"/>
<path fill-rule="evenodd" clip-rule="evenodd" d="M16 19C15.4477 19 15 19.4477 15 20C15 20.5523 15.4477 21 16 21C16.5523 21 17 20.5523 17 20C17 19.4477 16.5523 19 16 19ZM13 20C13 18.3431 14.3431 17 16 17C17.6569 17 19 18.3431 19 20C19 21.6569 17.6569 23 16 23C14.3431 23 13 21.6569 13 20Z" fill="black"/>
<path fill-rule="evenodd" clip-rule="evenodd" d="M8 19C7.44771 19 7 19.4477 7 20C7 20.5523 7.44771 21 8 21C8.55228 21 9 20.5523 9 20C9 19.4477 8.55228 19 8 19ZM5 20C5 18.3431 6.34315 17 8 17C9.65685 17 11 18.3431 11 20C11 21.6569 9.65685 23 8 23C6.34315 23 5 21.6569 5 20Z" fill="black"/>
</svg>
