<svg width="24" height="24" viewBox="0 0 24 24" fill="none" xmlns="http://www.w3.org/2000/svg">
<path fill-rule="evenodd" clip-rule="evenodd" d="M11.4742 1.14935C11.7691 0.967144 12.1372 0.95058 12.4472 1.10557L18.4472 4.10557C18.786 4.27497 19 4.62123 19 5C19 5.37877 18.786 5.72504 18.4472 5.89443L13 8.61804V12C13 12.5523 12.5523 13 12 13C11.4477 13 11 12.5523 11 12V8.02167C10.9997 8.00772 10.9997 7.99379 11 7.97988V2C11 1.65342 11.1794 1.33156 11.4742 1.14935ZM13 6.38197L15.7639 5L13 3.61803V6.38197Z" fill="black"/>
<path fill-rule="evenodd" clip-rule="evenodd" d="M8.86843 11.4942C9.14225 11.9738 8.97541 12.5846 8.49579 12.8584L2.99579 15.9984L2.99304 16L2.99635 16.0019L11.4964 20.8619L11.5 20.864C11.652 20.9517 11.8245 20.998 12 20.998C12.1755 20.998 12.348 20.9517 12.5 20.864L12.5036 20.8619L21.0036 16.0019L21.0069 16L21.0054 15.9991L15.5054 12.8691C15.0254 12.596 14.8577 11.9854 15.1309 11.5054C15.404 11.0254 16.0146 10.8577 16.4946 11.1309L21.993 14.26L21.9941 14.2606C22.3014 14.435 22.5571 14.6877 22.735 14.9931C22.9131 15.2988 23.0069 15.6462 23.0069 16C23.0069 16.3538 22.9131 16.7012 22.735 17.0069C22.5572 17.312 22.3018 17.5646 21.9948 17.739L21.993 17.74L13.5 22.596L13.498 22.5972C13.0424 22.8597 12.5258 22.998 12 22.998C11.4742 22.998 10.9576 22.8597 10.502 22.5972L10.5 22.596L2.00694 17.74L2.00511 17.739C1.69813 17.5646 1.44277 17.312 1.26501 17.0069C1.08689 16.7012 0.993042 16.3538 0.993042 16C0.993042 15.6462 1.08689 15.2988 1.26501 14.9931C1.44282 14.6879 1.69826 14.4353 2.00534 14.2609L2.00694 14.26L7.50419 11.1216C7.98382 10.8477 8.59461 11.0146 8.86843 11.4942Z" fill="black"/>
<path fill-rule="evenodd" clip-rule="evenodd" d="M5.62186 12.3537C5.89597 11.8742 6.50685 11.7078 6.98632 11.9819L18.0063 18.2819C18.4858 18.556 18.6523 19.1668 18.3782 19.6463C18.104 20.1258 17.4932 20.2923 17.0137 20.0181L5.9937 13.7181C5.51424 13.444 5.34776 12.8332 5.62186 12.3537Z" fill="black"/>
<path fill-rule="evenodd" clip-rule="evenodd" d="M18.378 12.3534C18.6523 12.8327 18.486 13.4437 18.0067 13.718L6.99666 20.018C6.5173 20.2922 5.90635 20.126 5.63206 19.6466C5.35777 19.1673 5.524 18.5563 6.00336 18.282L17.0134 11.982C17.4927 11.7078 18.1037 11.874 18.378 12.3534Z" fill="black"/>
</svg>
