<svg width="24" height="24" viewBox="0 0 24 24" fill="none" xmlns="http://www.w3.org/2000/svg">
<path d="M21 5C21 4.73478 20.8946 4.48051 20.707 4.29297C20.5195 4.10543 20.2652 4 20 4H4C3.73478 4 3.4805 4.10543 3.29297 4.29297C3.10543 4.4805 3 4.73478 3 5V20.5859L4.70703 18.8789L4.92676 18.6797C5.46048 18.2422 6.13198 18.0001 6.82812 18H20C20.2652 18 20.5195 17.8946 20.707 17.707C20.8946 17.5195 21 17.2652 21 17V5ZM23 17C23 17.7957 22.6837 18.5585 22.1211 19.1211C21.5585 19.6837 20.7957 20 20 20H6.82812C6.56296 20.0001 6.30857 20.1054 6.12109 20.293L3.91895 22.4951C3.6799 22.7341 3.37545 22.8969 3.04395 22.9629C2.71233 23.0288 2.36805 22.9956 2.05566 22.8662C1.74327 22.7368 1.47598 22.5174 1.28809 22.2363C1.10019 21.9552 1.00004 21.6243 1 21.2861V5C1 4.20435 1.3163 3.44152 1.87891 2.87891C2.44152 2.3163 3.20435 2 4 2H20C20.7957 2 21.5585 2.3163 22.1211 2.87891C22.6837 3.44152 23 4.20435 23 5V17Z" fill="black"/>
<path d="M9.29289 7.29302C9.68342 6.90249 10.3164 6.90249 10.707 7.29302C11.0975 7.68354 11.0975 8.31655 10.707 8.70708L8.41399 11L10.707 13.293C11.0975 13.6835 11.0975 14.3166 10.707 14.7071C10.3164 15.0976 9.68342 15.0976 9.29289 14.7071L6.29289 11.7071C5.90237 11.3166 5.90237 10.6835 6.29289 10.293L9.29289 7.29302Z" fill="black"/>
<path d="M13.2929 7.29302C13.6834 6.90249 14.3164 6.90249 14.707 7.29302L17.707 10.293C18.0975 10.6835 18.0975 11.3166 17.707 11.7071L14.707 14.7071C14.3164 15.0976 13.6834 15.0976 13.2929 14.7071C12.9024 14.3166 12.9024 13.6835 13.2929 13.293L15.5859 11L13.2929 8.70708C12.9024 8.31655 12.9024 7.68354 13.2929 7.29302Z" fill="black"/>
</svg>
