<svg width="24" height="24" viewBox="0 0 24 24" fill="none" xmlns="http://www.w3.org/2000/svg">
<path d="M13.293 5.29297C13.6835 4.90244 14.3165 4.90244 14.707 5.29297L18.707 9.29297C19.0976 9.68349 19.0976 10.3165 18.707 10.707C18.3165 11.0976 17.6835 11.0976 17.293 10.707L13.293 6.70703C12.9024 6.31651 12.9024 5.68349 13.293 5.29297Z" fill="black"/>
<path d="M20 7V4H17C16.4477 4 16 3.55228 16 3C16 2.44772 16.4477 2 17 2H21C21.5523 2 22 2.44772 22 3V7C22 7.55228 21.5523 8 21 8C20.4477 8 20 7.55228 20 7Z" fill="black"/>
<path d="M20.293 2.29297C20.6835 1.90244 21.3165 1.90244 21.707 2.29297C22.0976 2.68349 22.0976 3.31651 21.707 3.70703L13.957 11.457C13.5665 11.8476 12.9335 11.8476 12.543 11.457C12.1524 11.0665 12.1524 10.4335 12.543 10.043L20.293 2.29297Z" fill="black"/>
<path d="M14 15C14 12.2386 11.7614 10 9 10C6.23858 10 4 12.2386 4 15C4 17.7614 6.23858 20 9 20C11.7614 20 14 17.7614 14 15ZM16 15C16 18.866 12.866 22 9 22C5.13401 22 2 18.866 2 15C2 11.134 5.13401 8 9 8C12.866 8 16 11.134 16 15Z" fill="black"/>
</svg>
