<svg width="24" height="24" viewBox="0 0 24 24" fill="none" xmlns="http://www.w3.org/2000/svg">
<path fill-rule="evenodd" clip-rule="evenodd" d="M12 3C10.1435 3 8.36301 3.7375 7.05025 5.05025C5.7375 6.36301 5 8.14348 5 10C5 12.1593 6.21668 14.4867 7.79774 16.564C9.32602 18.572 11.0797 20.198 12 20.9966C12.9203 20.198 14.674 18.572 16.2023 16.564C17.7833 14.4867 19 12.1593 19 10C19 8.14348 18.2625 6.36301 16.9497 5.05025C15.637 3.7375 13.8565 3 12 3ZM5.63604 3.63604C7.32387 1.94821 9.61305 1 12 1C14.3869 1 16.6761 1.94821 18.364 3.63604C20.0518 5.32387 21 7.61305 21 10C21 12.8337 19.4472 15.6028 17.7937 17.7753C16.1171 19.9781 14.2097 21.7312 13.2545 22.5559C13.2375 22.5706 13.22 22.5847 13.202 22.5982C12.8554 22.8588 12.4336 22.9998 12 22.9998C11.5664 22.9998 11.1446 22.8588 10.798 22.5982C10.78 22.5847 10.7625 22.5706 10.7455 22.5559C9.79028 21.7312 7.88287 19.9781 6.20626 17.7753C4.55282 15.6028 3 12.8337 3 10C3 7.61305 3.94821 5.32387 5.63604 3.63604Z" fill="black"/>
<path fill-rule="evenodd" clip-rule="evenodd" d="M15.7071 7.29289C16.0976 7.68342 16.0976 8.31658 15.7071 8.70711L11.7071 12.7071C11.3166 13.0976 10.6834 13.0976 10.2929 12.7071L8.29289 10.7071C7.90237 10.3166 7.90237 9.68342 8.29289 9.29289C8.68342 8.90237 9.31658 8.90237 9.70711 9.29289L11 10.5858L14.2929 7.29289C14.6834 6.90237 15.3166 6.90237 15.7071 7.29289Z" fill="black"/>
</svg>
