<svg width="24" height="24" viewBox="0 0 24 24" fill="none" xmlns="http://www.w3.org/2000/svg">
<path fill-rule="evenodd" clip-rule="evenodd" d="M5.40949 5.40936L10.8937 18.9089L12.095 14.2479C12.2296 13.7292 12.5006 13.2559 12.8799 12.8774C13.2591 12.4989 13.7328 12.2289 14.2517 12.0955C14.2518 12.0954 14.2519 12.0954 14.252 12.0954L18.9095 10.8938L5.40949 5.40936ZM5.07219 3.1136C4.80063 2.99907 4.50116 2.96731 4.21143 3.02251C3.91692 3.07862 3.64609 3.22198 3.43409 3.43397C3.2221 3.64596 3.07874 3.9168 3.02263 4.21131C2.96743 4.50104 2.99919 4.80051 3.11372 5.07206L9.61093 21.0652C9.72984 21.3571 9.93765 21.6041 10.2049 21.7711C10.4721 21.9382 10.7852 22.0169 11.0996 21.9959C11.4141 21.975 11.714 21.8556 11.9567 21.6546C12.1995 21.4536 12.3727 21.1812 12.4519 20.8762L14.031 14.7499C14.031 14.7498 14.031 14.7498 14.0311 14.7497C14.0759 14.5769 14.1662 14.4192 14.2926 14.2931C14.4191 14.1669 14.577 14.0769 14.75 14.0324L14.7508 14.0322L20.8763 12.4518C21.1814 12.3726 21.4537 12.1993 21.6547 11.9566C21.8557 11.7139 21.9751 11.414 21.9961 11.0995C22.017 10.7851 21.9383 10.472 21.7713 10.2048C21.6042 9.93753 21.3572 9.72972 21.0653 9.61081L5.07219 3.1136Z" fill="black"/>
</svg>
