<svg width="24" height="24" viewBox="0 0 24 24" fill="none" xmlns="http://www.w3.org/2000/svg">
<path d="M14.6238 8.07395C14.8317 7.56226 15.4149 7.31533 15.9265 7.52317L21.0642 9.61008L21.0652 9.61106C21.3205 9.71507 21.5417 9.88682 21.7049 10.1072L21.7713 10.2048L21.8299 10.3073C21.9564 10.5505 22.0141 10.8244 21.9959 11.0993C21.975 11.4138 21.856 11.714 21.6551 11.9568C21.4542 12.1994 21.1816 12.3726 20.8767 12.4519H20.8748L14.7508 14.032C14.5779 14.0764 14.4191 14.1667 14.2928 14.2927C14.1664 14.4188 14.0759 14.5769 14.031 14.7497L12.4519 20.8747V20.8767C12.3727 21.1816 12.1994 21.4541 11.9568 21.655C11.7141 21.8559 11.4138 21.9749 11.0994 21.9958C10.785 22.0167 10.472 21.9382 10.2049 21.7712C9.93764 21.6041 9.73003 21.357 9.61112 21.0652L9.61014 21.0642L7.52323 15.9275C7.31535 15.4158 7.56234 14.8326 8.07401 14.6247C8.58562 14.417 9.1689 14.663 9.37674 15.1745L10.8933 18.9079L12.0945 14.2497V14.2478C12.229 13.7291 12.5005 13.2562 12.8797 12.8777C13.2587 12.4994 13.7322 12.229 14.2508 12.0954L18.908 10.8933L15.1736 9.37668C14.662 9.16887 14.4161 8.58559 14.6238 8.07395Z" fill="black"/>
<path d="M21.293 1.29289C21.6835 0.902369 22.3165 0.902369 22.707 1.29289C23.0975 1.68342 23.0975 2.31643 22.707 2.70696L2.70702 22.707C2.31649 23.0975 1.68348 23.0975 1.29295 22.707C0.90243 22.3164 0.90243 21.6834 1.29295 21.2929L21.293 1.29289Z" fill="black"/>
<path d="M4.32235 3.00588C4.57396 2.97728 4.82877 3.01395 5.06356 3.11135L11.9044 5.88967C12.416 6.09758 12.6621 6.68076 12.4542 7.19241C12.2462 7.70397 11.6631 7.95007 11.1515 7.74221L5.40829 5.40823L7.74227 11.1514C7.95014 11.663 7.70403 12.2462 7.19247 12.4541C6.68082 12.662 6.09764 12.4159 5.88973 11.9043L3.11044 5.06448L3.11141 5.0635C2.99965 4.7941 2.9679 4.49781 3.02255 4.21096L3.04794 4.10159C3.11591 3.84975 3.24831 3.61899 3.43368 3.43362L3.51669 3.35745C3.7144 3.18749 3.95364 3.07158 4.21102 3.02249L4.32235 3.00588Z" fill="black"/>
</svg>
