<svg width="24" height="24" viewBox="0 0 24 24" fill="none" xmlns="http://www.w3.org/2000/svg">
<path fill-rule="evenodd" clip-rule="evenodd" d="M6.5 6C4.55228 6 3 7.55228 3 9.5V17C3 17.2652 3.10536 17.5196 3.29289 17.7071C3.48043 17.8946 3.73478 18 4 18H20C20.2652 18 20.5196 17.8946 20.7071 17.7071C20.8946 17.5196 21 17.2652 21 17V9C21 7.35228 19.6477 6 18 6H6.5ZM1 9.5C1 6.44772 3.44772 4 6.5 4H18C20.7523 4 23 6.24771 23 9V17C23 17.7957 22.6839 18.5587 22.1213 19.1213C21.5587 19.6839 20.7957 20 20 20H4C3.20435 20 2.44129 19.6839 1.87868 19.1213C1.31607 18.5587 1 17.7956 1 17V9.5Z" fill="black"/>
<path fill-rule="evenodd" clip-rule="evenodd" d="M14 9C14 8.44772 14.4477 8 15 8H18C18.5523 8 19 8.44772 19 9V11C19 11.5523 18.5523 12 18 12C17.4477 12 17 11.5523 17 11V10H15C14.4477 10 14 9.55228 14 9Z" fill="black"/>
<path fill-rule="evenodd" clip-rule="evenodd" d="M5.5 5C5.5 4.44772 5.94772 4 6.5 4C9.55228 4 12 6.44772 12 9.5V17C12 17.7957 11.6839 18.5587 11.1213 19.1213C10.5587 19.6839 9.79565 20 9 20C8.44772 20 8 19.5523 8 19C8 18.4477 8.44772 18 9 18C9.26522 18 9.51957 17.8946 9.70711 17.7071C9.89464 17.5196 10 17.2652 10 17V9.5C10 7.55228 8.44772 6 6.5 6C5.94772 6 5.5 5.55228 5.5 5Z" fill="black"/>
<path fill-rule="evenodd" clip-rule="evenodd" d="M5 10C5 9.44772 5.44772 9 6 9H7C7.55228 9 8 9.44772 8 10C8 10.5523 7.55228 11 7 11H6C5.44772 11 5 10.5523 5 10Z" fill="black"/>
</svg>
