<svg width="24" height="24" viewBox="0 0 24 24" fill="none" xmlns="http://www.w3.org/2000/svg">
<path d="M20.0003 15.3436V3.99988C17.6184 5.87661 14.6915 6.92978 11.6595 6.99988C11.1074 7.01263 10.6489 6.5753 10.636 6.02332C10.6233 5.4713 11.0606 5.01281 11.6126 4.99988C14.2187 4.93969 16.7349 4.03291 18.7796 2.4159C18.7862 2.41063 18.7933 2.40537 18.8001 2.40027C19.0972 2.17742 19.4507 2.04105 19.8206 2.00769C20.1904 1.97438 20.5627 2.04474 20.8948 2.21082C21.2269 2.3769 21.5062 2.63231 21.7014 2.94812C21.8967 3.26408 22.0003 3.62846 22.0003 3.99988V15.3436C22.0003 15.8958 21.5524 16.3435 21.0003 16.3436C20.448 16.3436 20.0003 15.8959 20.0003 15.3436Z" fill="black"/>
<path d="M2 11.9999V7.99988C2 7.20423 2.3163 6.44139 2.87891 5.87878C3.44152 5.31617 4.20435 4.99988 5 4.99988H6C6.55228 4.99988 7 5.44759 7 5.99988C7 6.55216 6.55228 6.99988 6 6.99988H5C4.73478 6.99988 4.4805 7.10531 4.29297 7.29285C4.10543 7.48038 4 7.73466 4 7.99988V11.9999C4 12.2651 4.10543 12.5194 4.29297 12.7069C4.48051 12.8944 4.73478 12.9999 5 12.9999H10.9746C12.1987 12.9684 13.4218 13.098 14.6123 13.3846C15.149 13.514 15.4796 14.0539 15.3506 14.5907C15.2213 15.1276 14.6805 15.4583 14.1436 15.329C13.1232 15.0833 12.0746 14.9729 11.0254 14.9999H5C4.20435 14.9999 3.44151 14.6836 2.87891 14.121C2.3163 13.5584 2 12.7955 2 11.9999Z" fill="black"/>
<path d="M1.29289 1.29289C1.68342 0.902369 2.31643 0.902369 2.70696 1.29289L22.707 21.2929C23.0975 21.6834 23.0975 22.3164 22.707 22.707C22.3164 23.0975 21.6834 23.0975 21.2929 22.707L1.29289 2.70696C0.902369 2.31643 0.902369 1.68342 1.29289 1.29289Z" fill="black"/>
<path d="M5 13.9999C5 13.4476 5.44772 12.9999 6 12.9999C6.55228 12.9999 7 13.4476 7 13.9999C7 16.3799 7.77223 18.6955 9.2002 20.5995C9.3593 20.8116 9.5959 20.9526 9.8584 20.9901C10.1209 21.0276 10.3875 20.9587 10.5996 20.7997C10.8117 20.6406 10.9527 20.404 10.9902 20.1415C11.0277 19.879 10.9589 19.6124 10.7998 19.4003C9.63141 17.8424 9 15.9472 9 13.9999C9 13.4476 9.44772 12.9999 10 12.9999C10.5523 12.9999 11 13.4476 11 13.9999C11 15.5145 11.4916 16.9884 12.4004 18.2001C12.8775 18.8364 13.0821 19.6363 12.9697 20.4237C12.8572 21.2114 12.4363 21.9229 11.7998 22.4003C11.1634 22.8774 10.3636 23.082 9.57617 22.9696C8.78852 22.8571 8.077 22.4362 7.59961 21.7997C5.91207 19.5495 5 16.8126 5 13.9999Z" fill="black"/>
<path d="M7 13.9999V7.99988C7 7.44759 7.44772 6.99988 8 6.99988C8.55228 6.99988 9 7.44759 9 7.99988V13.9999C9 14.5522 8.55228 14.9999 8 14.9999C7.44772 14.9999 7 14.5522 7 13.9999Z" fill="black"/>
</svg>
