<svg width="24" height="24" viewBox="0 0 24 24" fill="none" xmlns="http://www.w3.org/2000/svg">
<path fill-rule="evenodd" clip-rule="evenodd" d="M11.8789 11.8789C12.2694 11.4884 12.9026 11.4884 13.2931 11.8789L19.7071 18.2929C20.0976 18.6835 20.0976 19.3166 19.7071 19.7072C19.3166 20.0977 18.6834 20.0977 18.2929 19.7072L11.8789 13.2932C11.4884 12.9026 11.4884 12.2695 11.8789 11.8789Z" fill="black"/>
<path fill-rule="evenodd" clip-rule="evenodd" d="M4.06875 2.11237L20.0653 8.61096C20.3571 8.72987 20.6041 8.93769 20.7712 9.20492C20.9383 9.47215 21.0169 9.78521 20.996 10.0997C20.9751 10.4141 20.8557 10.714 20.6547 10.9568C20.4537 11.1995 20.1813 11.3728 19.8763 11.452L13.7504 13.0314C13.5738 13.0769 13.4129 13.1699 13.2853 13.3003C13.1577 13.4306 13.0682 13.5934 13.0264 13.7709C13.0248 13.7779 13.0231 13.7849 13.0213 13.7918L11.4523 19.8748C11.4516 19.8777 11.4508 19.8805 11.45 19.8833C11.369 20.1865 11.195 20.4566 10.9525 20.6557C10.71 20.8548 10.4112 20.973 10.098 20.9935C9.78493 21.014 9.47326 20.9358 9.20685 20.77C8.94045 20.6042 8.73271 20.3591 8.61283 20.0691C8.61205 20.0672 8.61128 20.0653 8.61052 20.0635L2.1123 4.06883C1.99931 3.79656 1.9692 3.49692 2.02585 3.2075C2.08302 2.9154 2.22597 2.64697 2.43643 2.43651C2.6469 2.22604 2.91533 2.08309 3.20743 2.02592C3.49684 1.96928 3.79648 1.99939 4.06875 2.11237ZM4.40948 4.40953L9.89392 17.9088L11.0823 13.3016C11.2087 12.7734 11.4761 12.2893 11.8562 11.9011C12.239 11.5101 12.7214 11.2313 13.2513 11.0947C13.2512 11.0947 13.2514 11.0947 13.2513 11.0947L17.9091 9.89376L4.40948 4.40953Z" fill="black"/>
</svg>
