<svg width="24" height="24" viewBox="0 0 24 24" fill="none" xmlns="http://www.w3.org/2000/svg">
<path d="M11 21V17C11 16.4477 11.4477 16 12 16C12.5523 16 13 16.4477 13 17V21C13 21.5523 12.5523 22 12 22C11.4477 22 11 21.5523 11 21Z" fill="black"/>
<path d="M14.8461 6.22413C15.3562 6.01321 15.9404 6.25525 16.1517 6.76514C16.3629 7.27536 16.1208 7.86049 15.6107 8.07178L14.6879 8.45362C14.1777 8.66478 13.5925 8.42273 13.3812 7.9126C13.1701 7.40241 13.4122 6.81728 13.9223 6.60596L14.8461 6.22413Z" fill="black"/>
<path d="M13.3811 4.08613C13.5927 3.57617 14.1777 3.33378 14.6877 3.54512L15.6115 3.92793C16.1215 4.13967 16.3632 4.7255 16.1516 5.23555C15.9398 5.74538 15.3549 5.98703 14.8449 5.77559L13.9221 5.39277C13.4121 5.18116 13.1697 4.59614 13.3811 4.08613Z" fill="black"/>
<path d="M16.0862 1.38013C16.5964 1.16873 17.1814 1.41099 17.3928 1.92115L17.7756 2.84497C17.9871 3.35517 17.7448 3.94014 17.2346 4.15162C16.7245 4.36295 16.1394 4.12073 15.928 3.6106L15.5452 2.68677C15.3338 2.1766 15.576 1.59159 16.0862 1.38013Z" fill="black"/>
<path d="M15.928 8.38927C16.1396 7.87916 16.7255 7.63658 17.2356 7.84825C17.7454 8.05995 17.987 8.64495 17.7756 9.15489L17.3928 10.0787C17.1811 10.5885 16.5961 10.8301 16.0862 10.6188C15.5762 10.4071 15.3337 9.82216 15.5452 9.31212L15.928 8.38927Z" fill="black"/>
<path d="M18.607 1.92109C18.8184 1.41098 19.4035 1.16879 19.9136 1.38008C20.4238 1.59155 20.6661 2.17653 20.4546 2.68672L20.0718 3.61054C19.8603 4.12072 19.2754 4.36301 18.7652 4.15156C18.255 3.94008 18.0127 3.35511 18.2242 2.84492L18.607 1.92109Z" fill="black"/>
<path d="M18.7661 7.84808C19.2764 7.63714 19.8607 7.87971 20.0717 8.39007L20.4536 9.3139C20.6646 9.82429 20.4219 10.4086 19.9116 10.6196C19.4012 10.8305 18.8169 10.5879 18.6059 10.0776L18.2241 9.15375C18.0131 8.64338 18.2557 8.05907 18.7661 7.84808Z" fill="black"/>
<path d="M21.3129 3.54521C21.8231 3.33373 22.4081 3.57603 22.6196 4.08622C22.831 4.5964 22.5887 5.18139 22.0786 5.39286L21.1547 5.77567C20.6445 5.98713 20.0596 5.74484 19.8481 5.23466C19.6368 4.72453 19.879 4.13946 20.3891 3.92802L21.3129 3.54521Z" fill="black"/>
<path d="M19.8481 6.76514C20.0596 6.25498 20.6446 6.01272 21.1548 6.22412L22.0786 6.60694C22.5887 6.81839 22.831 7.40343 22.6196 7.91358C22.4082 8.42377 21.8232 8.66607 21.313 8.45459L20.3892 8.07178C19.879 7.86032 19.6367 7.27531 19.8481 6.76514Z" fill="black"/>
<path d="M1 15V5C1 4.20435 1.3163 3.44152 1.87891 2.87891C2.44152 2.3163 3.20435 2 4 2H11C11.5523 2 12 2.44772 12 3C12 3.55228 11.5523 4 11 4H4C3.73478 4 3.4805 4.10543 3.29297 4.29297C3.10543 4.4805 3 4.73478 3 5V15C3 15.2652 3.10543 15.5195 3.29297 15.707C3.48051 15.8946 3.73478 16 4 16H20C20.2652 16 20.5195 15.8946 20.707 15.707C20.8946 15.5195 21 15.2652 21 15V13C21 12.4477 21.4477 12 22 12C22.5523 12 23 12.4477 23 13V15C23 15.7957 22.6837 16.5585 22.1211 17.1211C21.5585 17.6837 20.7957 18 20 18H4C3.20435 18 2.44151 17.6837 1.87891 17.1211C1.3163 16.5585 1 15.7956 1 15Z" fill="black"/>
<path d="M16 20C16.5523 20 17 20.4477 17 21C17 21.5523 16.5523 22 16 22H8C7.44772 22 7 21.5523 7 21C7 20.4477 7.44772 20 8 20H16Z" fill="black"/>
<path d="M20 6C20 4.89543 19.1046 4 18 4C16.8954 4 16 4.89543 16 6C16 7.10457 16.8954 8 18 8C19.1046 8 20 7.10457 20 6ZM22 6C22 8.20914 20.2091 10 18 10C15.7909 10 14 8.20914 14 6C14 3.79086 15.7909 2 18 2C20.2091 2 22 3.79086 22 6Z" fill="black"/>
</svg>
