<svg width="24" height="24" viewBox="0 0 24 24" fill="none" xmlns="http://www.w3.org/2000/svg">
<path fill-rule="evenodd" clip-rule="evenodd" d="M7 22C7 21.4477 7.44772 21 8 21H16C16.5523 21 17 21.4477 17 22C17 22.5523 16.5523 23 16 23H8C7.44772 23 7 22.5523 7 22Z" fill="black"/>
<path fill-rule="evenodd" clip-rule="evenodd" d="M12 10C12.5523 10 13 10.4477 13 11V22C13 22.5523 12.5523 23 12 23C11.4477 23 11 22.5523 11 22V11C11 10.4477 11.4477 10 12 10Z" fill="black"/>
<path fill-rule="evenodd" clip-rule="evenodd" d="M4.08938 2.58678C4.25152 2.22947 4.60764 2 5.00002 2H19C19.3924 2 19.7485 2.22947 19.9106 2.58678C20.0728 2.94409 20.011 3.36321 19.7526 3.6585L12.7526 11.6585C12.5627 11.8755 12.2884 12 12 12C11.7117 12 11.4373 11.8755 11.2474 11.6585L4.24744 3.6585C3.98906 3.36321 3.92725 2.94409 4.08938 2.58678ZM7.20378 4L12 9.48141L16.7962 4H7.20378Z" fill="black"/>
</svg>
