<svg width="24" height="24" viewBox="0 0 24 24" fill="none" xmlns="http://www.w3.org/2000/svg">
<path d="M20 13.9998V4.61694L16.3418 6.44702L16.3408 6.448C15.9245 6.65597 15.4654 6.7644 15 6.7644C14.5346 6.7644 14.0755 6.65597 13.6592 6.448L9.44726 4.34155C9.30846 4.27219 9.15516 4.23608 9 4.23608C8.8449 4.23608 8.69148 4.27128 8.55273 4.34058L4 6.61792V19.3835L7.65918 17.5535L7.81738 17.4802C8.19051 17.3202 8.59277 17.2371 9 17.2371C9.46543 17.2371 9.92446 17.3454 10.3408 17.5535L11.4463 18.1052C11.9404 18.3519 12.1412 18.9529 11.8945 19.447C11.6478 19.9408 11.0477 20.1408 10.5537 19.8943L9.44726 19.3425C9.30846 19.2732 9.15516 19.2371 9 19.2371C8.8449 19.2371 8.69148 19.2723 8.55273 19.3416L4.89453 21.1726C4.58934 21.325 4.24899 21.3972 3.9082 21.3816C3.56746 21.3659 3.23623 21.2634 2.94629 21.0837C2.65621 20.9039 2.4166 20.6527 2.25097 20.3542C2.08537 20.0559 1.99918 19.7199 2 19.3787V6.61792L2.00488 6.47827C2.02756 6.15567 2.12797 5.84237 2.29883 5.56616C2.49405 5.25058 2.77358 4.99581 3.10547 4.82983L7.65918 2.55249L7.81738 2.47925C8.19052 2.31918 8.59277 2.23608 9 2.23608C9.46544 2.23608 9.92446 2.34446 10.3408 2.55249L14.5527 4.65894C14.6915 4.72829 14.8448 4.7644 15 4.7644C15.1549 4.7644 15.3077 4.72805 15.4463 4.65894L19.1055 2.82886C19.4105 2.67647 19.7502 2.60439 20.0908 2.61987C20.4315 2.63539 20.7628 2.73728 21.0527 2.91675C21.3427 3.09628 21.5823 3.34724 21.748 3.64526C21.9136 3.94294 22.0002 4.27832 22 4.6189V13.9998C22 14.552 21.5523 14.9998 21 14.9998C20.4477 14.9998 20 14.552 20 13.9998Z" fill="black"/>
<path d="M14 14.0003V5.76402C14 5.21173 14.4477 4.7644 15 4.7644C15.5523 4.7644 16 5.21173 16 5.76402V14.0003C15.9998 14.5525 15.5522 15.0003 15 15.0003C14.4478 15.0003 14.0002 14.5525 14 14.0003Z" fill="black"/>
<path d="M21 17C21.5523 17 22 17.4477 22 18C22 18.5523 21.5523 19 21 19H15C14.4477 19 14 18.5523 14 18C14 17.4477 14.4477 17 15 17H21Z" fill="black"/>
<path d="M8 18.236V3.23602C8 2.68373 8.44771 2.23608 9 2.23608C9.55228 2.23608 10 2.68373 10 3.23602V18.236C10 18.7883 9.55229 19.236 9 19.236C8.44772 19.236 8 18.7883 8 18.236Z" fill="black"/>
</svg>
