<svg width="24" height="24" viewBox="0 0 24 24" fill="none" xmlns="http://www.w3.org/2000/svg">
<path fill-rule="evenodd" clip-rule="evenodd" d="M6.00002 3C5.84477 3 5.69166 3.03614 5.5528 3.10557C5.41395 3.175 5.29316 3.2758 5.20002 3.4L3.5906 5.53923C3.59039 5.5395 3.59019 5.53977 3.58999 5.54004C3.47297 5.6967 3.40445 5.88425 3.39292 6.07947C3.38137 6.27494 3.42746 6.4695 3.52547 6.63901C3.52543 6.63893 3.52551 6.63908 3.52547 6.63901L8.07547 14.499C8.35216 14.977 8.18899 15.5888 7.71101 15.8655C7.23303 16.1421 6.62126 15.979 6.34457 15.501L1.79444 7.64077C1.50014 7.13208 1.36173 6.54816 1.3964 5.96149C1.43107 5.37483 1.63728 4.81126 1.98944 4.34077C1.98993 4.34012 1.99042 4.33946 1.99091 4.33881L3.60002 2.2C3.59986 2.20022 3.60018 2.19978 3.60002 2.2C3.87939 1.82771 4.24205 1.52488 4.65838 1.31672C5.07494 1.10844 5.53428 1 6.00002 1H18C18.4658 1 18.9251 1.10844 19.3417 1.31672C19.7582 1.525 20.1206 1.82741 20.4 2.2L21.9978 4.33701C21.9983 4.33777 21.9989 4.33853 21.9995 4.3393C22.3529 4.80782 22.5612 5.36973 22.5985 5.95546C22.6358 6.54215 22.4999 7.12688 22.2078 7.63701C22.207 7.63834 22.2062 7.63967 22.2055 7.64099L17.6555 15.501C17.3788 15.979 16.767 16.1421 16.289 15.8655C15.811 15.5888 15.6479 14.977 15.9246 14.499L20.4723 6.64299C20.4726 6.64243 20.4729 6.64187 20.4732 6.64131C20.57 6.47167 20.6149 6.2774 20.6025 6.08248C20.5901 5.88691 20.5204 5.69932 20.4023 5.54299C20.4012 5.5416 20.4002 5.5402 20.3991 5.5388L18.8 3.4C18.7999 3.39984 18.8001 3.40016 18.8 3.4C18.7069 3.27602 18.5859 3.17491 18.4472 3.10557C18.3084 3.03614 18.1553 3 18 3H6.00002Z" fill="black"/>
<path fill-rule="evenodd" clip-rule="evenodd" d="M4.6055 1.3425C5.07908 1.05835 5.69334 1.21192 5.97749 1.6855L11.8575 11.4855C12.1416 11.9591 11.9881 12.5733 11.5145 12.8575C11.0409 13.1416 10.4267 12.9881 10.1425 12.5145L4.2625 2.71449C3.97836 2.24091 4.13192 1.62665 4.6055 1.3425Z" fill="black"/>
<path fill-rule="evenodd" clip-rule="evenodd" d="M19.3945 1.3425C19.8681 1.62665 20.0216 2.24091 19.7375 2.71449L13.8575 12.5145C13.5733 12.9881 12.9591 13.1416 12.4855 12.8575C12.0119 12.5733 11.8584 11.9591 12.1425 11.4855L18.0225 1.6855C18.3067 1.21192 18.9209 1.05835 19.3945 1.3425Z" fill="black"/>
<path fill-rule="evenodd" clip-rule="evenodd" d="M7 7C7 6.44772 7.44772 6 8 6H16C16.5523 6 17 6.44772 17 7C17 7.55228 16.5523 8 16 8H8C7.44772 8 7 7.55228 7 7Z" fill="black"/>
<path fill-rule="evenodd" clip-rule="evenodd" d="M12 13C9.79086 13 8 14.7909 8 17C8 19.2091 9.79086 21 12 21C14.2091 21 16 19.2091 16 17C16 14.7909 14.2091 13 12 13ZM6 17C6 13.6863 8.68629 11 12 11C15.3137 11 18 13.6863 18 17C18 20.3137 15.3137 23 12 23C8.68629 23 6 20.3137 6 17Z" fill="black"/>
<path fill-rule="evenodd" clip-rule="evenodd" d="M10.5 16C10.5 15.4477 10.9477 15 11.5 15H12C12.5523 15 13 15.4477 13 16V18C13 18.5523 12.5523 19 12 19C11.4477 19 11 18.5523 11 18V16.8662C10.7011 16.6933 10.5 16.3701 10.5 16Z" fill="black"/>
</svg>
