<svg width="24" height="24" viewBox="0 0 24 24" fill="none" xmlns="http://www.w3.org/2000/svg">
<path fill-rule="evenodd" clip-rule="evenodd" d="M11.2929 1.29289C11.6834 0.902369 12.3166 0.902369 12.7071 1.29289L16.7071 5.29289C17.0976 5.68342 17.0976 6.31658 16.7071 6.70711C16.3166 7.09763 15.6834 7.09763 15.2929 6.70711L12 3.41421L8.70711 6.70711C8.31658 7.09763 7.68342 7.09763 7.29289 6.70711C6.90237 6.31658 6.90237 5.68342 7.29289 5.29289L11.2929 1.29289Z" fill="black"/>
<path fill-rule="evenodd" clip-rule="evenodd" d="M12 1C12.5523 1 13 1.44772 13 2V12.2949C13.0064 12.9588 12.8805 13.6173 12.6296 14.2321C12.378 14.8485 12.0059 15.4086 11.5349 15.8793L4.70711 22.7071C4.31658 23.0976 3.68342 23.0976 3.29289 22.7071C2.90237 22.3166 2.90237 21.6834 3.29289 21.2929L10.1209 14.4649C10.4034 14.1825 10.6269 13.8463 10.7779 13.4764C10.9288 13.1065 11.0043 12.7102 11.0001 12.3107C11 12.3072 11 12.3036 11 12.3V2C11 1.44772 11.4477 1 12 1Z" fill="black"/>
<path fill-rule="evenodd" clip-rule="evenodd" d="M14.2929 16.2929C14.6834 15.9024 15.3166 15.9024 15.7071 16.2929L20.7071 21.2929C21.0976 21.6834 21.0976 22.3166 20.7071 22.7071C20.3166 23.0976 19.6834 23.0976 19.2929 22.7071L14.2929 17.7071C13.9024 17.3166 13.9024 16.6834 14.2929 16.2929Z" fill="black"/>
</svg>
