<svg width="24" height="24" viewBox="0 0 24 24" fill="none" xmlns="http://www.w3.org/2000/svg">
<path d="M1 5C1 4.20435 1.3163 3.44152 1.87891 2.87891C2.44152 2.3163 3.20435 2 4 2H12C12.5523 2 13 2.44772 13 3C13 3.55228 12.5523 4 12 4H4C3.73478 4 3.4805 4.10543 3.29297 4.29297C3.10543 4.4805 3 4.73478 3 5V20.5859L4.70703 18.8789L4.92676 18.6797C5.46048 18.2422 6.13198 18.0001 6.82812 18H20C20.2652 18 20.5195 17.8946 20.707 17.707C20.8946 17.5195 21 17.2652 21 17V13C21 12.4477 21.4477 12 22 12C22.5523 12 23 12.4477 23 13V17C23 17.7957 22.6837 18.5585 22.1211 19.1211C21.5585 19.6837 20.7957 20 20 20H6.82812C6.56296 20.0001 6.30857 20.1054 6.12109 20.293L3.91895 22.4951C3.6799 22.7341 3.37545 22.8969 3.04395 22.9629C2.71233 23.0288 2.36805 22.9956 2.05566 22.8662C1.74327 22.7368 1.47598 22.5174 1.28809 22.2363C1.10019 21.9552 1.00004 21.6243 1 21.2861V5Z" fill="black"/>
<path d="M21 9V4H16C15.4477 4 15 3.55228 15 3C15 2.44772 15.4477 2 16 2H22C22.5523 2 23 2.44772 23 3V9C23 9.55228 22.5523 10 22 10C21.4477 10 21 9.55228 21 9Z" fill="black"/>
<path d="M21.293 2.29289C21.6835 1.90237 22.3166 1.90237 22.7071 2.29289C23.0976 2.68342 23.0976 3.31643 22.7071 3.70696L16.7071 9.70696C16.3166 10.0975 15.6835 10.0975 15.293 9.70696C14.9025 9.31643 14.9025 8.68342 15.293 8.29289L21.293 2.29289Z" fill="black"/>
</svg>
