<svg width="24" height="24" viewBox="0 0 24 24" fill="none" xmlns="http://www.w3.org/2000/svg">
<path d="M21.4629 6.15622C21.9286 5.85971 22.5471 5.99712 22.8437 6.46286C23.1402 6.92864 23.0028 7.54706 22.5371 7.84372L13.5459 13.5703C13.5345 13.5775 13.5233 13.585 13.5117 13.5918C13.0541 13.8575 12.534 13.997 12.0049 13.997C11.4757 13.997 10.9556 13.8575 10.498 13.5918C10.4863 13.585 10.4743 13.5775 10.4629 13.5703L1.46286 7.84372C0.997027 7.54718 0.85975 6.92876 1.15622 6.46286C1.45275 5.99703 2.07118 5.85975 2.53708 6.15622L11.5078 11.8652C11.659 11.9518 11.8305 11.997 12.0049 11.997C12.1787 11.997 12.3491 11.9514 12.5 11.8652L21.4629 6.15622Z" fill="black"/>
<path d="M21 6C21 5.44772 20.5523 5 20 5H4C3.44772 5 3 5.44772 3 6V18C3 18.5523 3.44772 19 4 19H20C20.5523 19 21 18.5523 21 18V6ZM23 18C23 19.6569 21.6569 21 20 21H4C2.34315 21 1 19.6569 1 18V6C1 4.34315 2.34315 3 4 3H20C21.6569 3 23 4.34315 23 6V18Z" fill="black"/>
</svg>
