<svg width="24" height="24" viewBox="0 0 24 24" fill="none" xmlns="http://www.w3.org/2000/svg">
<path fill-rule="evenodd" clip-rule="evenodd" d="M6.99999 2C6.99999 1.44772 7.44771 1 7.99999 1H16C16.5523 1 17 1.44772 17 2C17 2.55228 16.5523 3 16 3H7.99999C7.44771 3 6.99999 2.55228 6.99999 2Z" fill="black"/>
<path fill-rule="evenodd" clip-rule="evenodd" d="M8.99999 1C9.55228 1 9.99999 1.44772 9.99999 2V4.78903C9.99996 5.77623 9.7077 6.74134 9.16004 7.5627C9.16002 7.56273 9.16006 7.56267 9.16004 7.5627L8.50404 8.5467C8.17528 9.03974 7.99986 9.61918 7.99999 10.2118V20C7.99999 20.2652 8.10535 20.5196 8.29288 20.7071C8.48042 20.8946 8.73477 21 8.99999 21H15C15.2652 21 15.5196 20.8946 15.7071 20.7071C15.8946 20.5196 16 20.2652 16 20V10.211C16 10.211 16 10.211 16 10.211C16 9.61869 15.8246 9.0396 15.496 8.54678L14.84 7.56278C14.84 7.56275 14.84 7.5628 14.84 7.56278C14.2921 6.74112 13.9998 5.77555 14 4.788C14 4.78793 14 4.78807 14 4.788V2C14 1.44772 14.4477 1 15 1C15.5523 1 16 1.44772 16 2V4.78822C15.9999 5.38082 16.1752 5.96018 16.504 6.45322L17.16 7.43722C17.16 7.4372 17.16 7.43725 17.16 7.43722C17.7077 8.25859 18 9.22377 18 10.211V20C18 20.7957 17.6839 21.5587 17.1213 22.1213C16.5587 22.6839 15.7956 23 15 23H8.99999C8.20434 23 7.44128 22.6839 6.87867 22.1213C6.31606 21.5587 5.99999 20.7956 5.99999 20L5.99999 10.2122C5.99999 10.2121 5.99999 10.2123 5.99999 10.2122C5.99981 9.22467 6.29208 8.25896 6.83994 7.4373C6.83992 7.43733 6.83996 7.43727 6.83994 7.4373L7.49599 6.45322C7.8246 5.9604 7.99997 5.38133 7.99999 4.789C7.99999 4.78899 7.99999 4.78901 7.99999 4.789V2C7.99999 1.44772 8.44771 1 8.99999 1Z" fill="black"/>
<path fill-rule="evenodd" clip-rule="evenodd" d="M9.50002 15.4977C8.77425 15.4977 8.05573 15.642 7.3863 15.9224C6.87688 16.1357 6.29097 15.8957 6.07763 15.3863C5.8643 14.8769 6.10432 14.291 6.61374 14.0776C7.52785 13.6948 8.50898 13.4977 9.50002 13.4977C10.4911 13.4977 11.4722 13.6948 12.3863 14.0776C13.0557 14.358 13.7743 14.5025 14.5 14.5025C15.2258 14.5025 15.9442 14.3581 16.6136 14.0777C17.123 13.8643 17.7089 14.1042 17.9223 14.6136C18.1357 15.123 17.8958 15.7089 17.3864 15.9223C16.4723 16.3053 15.4911 16.5025 14.5 16.5025C13.509 16.5025 12.5278 16.3053 11.6137 15.9224C11.6137 15.9224 11.6138 15.9224 11.6137 15.9224C10.9443 15.6421 10.2257 15.4977 9.50002 15.4977Z" fill="black"/>
</svg>
