<svg width="24" height="24" viewBox="0 0 24 24" fill="none" xmlns="http://www.w3.org/2000/svg">
<path fill-rule="evenodd" clip-rule="evenodd" d="M8 15C6.34315 15 5 16.3431 5 18C5 19.6569 6.34315 21 8 21C9.65685 21 11 19.6569 11 18C11 16.3431 9.65685 15 8 15ZM3 18C3 15.2386 5.23858 13 8 13C10.7614 13 13 15.2386 13 18C13 20.7614 10.7614 23 8 23C5.23858 23 3 20.7614 3 18Z" fill="black"/>
<path fill-rule="evenodd" clip-rule="evenodd" d="M11.4981 1.13509C11.8064 0.956168 12.1866 0.954898 12.4961 1.13176L19.4961 5.13176C19.9757 5.40577 20.1423 6.01662 19.8682 6.49614C19.5942 6.97566 18.9834 7.14225 18.5039 6.86824L13 3.72318V18C13 18.5523 12.5523 19 12 19C11.4477 19 11 18.5523 11 18V2C11 1.64353 11.1898 1.31401 11.4981 1.13509Z" fill="black"/>
</svg>
