<svg width="24" height="24" viewBox="0 0 24 24" fill="none" xmlns="http://www.w3.org/2000/svg">
<path fill-rule="evenodd" clip-rule="evenodd" d="M5.63604 3.63604C7.32387 1.94821 9.61305 1 12 1C14.3869 1 16.6761 1.94821 18.364 3.63604C20.0518 5.32387 21 7.61305 21 10C21 11.124 20.7561 12.2305 20.3681 13.2813C20.1768 13.7994 19.6018 14.0644 19.0837 13.8731C18.5656 13.6818 18.3006 13.1068 18.4919 12.5887C18.818 11.7055 19 10.836 19 10C19 8.14348 18.2625 6.36301 16.9497 5.05025C15.637 3.7375 13.8565 3 12 3C10.1435 3 8.36301 3.7375 7.05025 5.05025C5.7375 6.36301 5 8.14348 5 10C5 12.1593 6.21668 14.4867 7.79774 16.564C9.32599 18.5719 11.0796 20.1979 11.9999 20.9966C12.2482 20.7808 12.4931 20.561 12.7344 20.3374C13.1395 19.9621 13.7722 19.9862 14.1476 20.3914C14.5229 20.7965 14.4988 21.4292 14.0936 21.8046C13.8185 22.0595 13.539 22.3097 13.2554 22.5552C13.2381 22.5701 13.2203 22.5845 13.202 22.5982C12.8554 22.8588 12.4336 22.9998 12 22.9998C11.5664 22.9998 11.1446 22.8588 10.798 22.5982C10.78 22.5847 10.7625 22.5706 10.7455 22.5559C9.79028 21.7312 7.88287 19.9781 6.20626 17.7753C4.55282 15.6028 3 12.8337 3 10C3 7.61305 3.94821 5.32387 5.63604 3.63604Z" fill="black"/>
<path fill-rule="evenodd" clip-rule="evenodd" d="M12 8C10.8954 8 10 8.89543 10 10C10 11.1046 10.8954 12 12 12C13.1046 12 14 11.1046 14 10C14 8.89543 13.1046 8 12 8ZM8 10C8 7.79086 9.79086 6 12 6C14.2091 6 16 7.79086 16 10C16 12.2091 14.2091 14 12 14C9.79086 14 8 12.2091 8 10Z" fill="black"/>
<path fill-rule="evenodd" clip-rule="evenodd" d="M22.7071 15.2929C23.0976 15.6834 23.0976 16.3166 22.7071 16.7071L18.7071 20.7071C18.3166 21.0976 17.6834 21.0976 17.2929 20.7071L15.2929 18.7071C14.9024 18.3166 14.9024 17.6834 15.2929 17.2929C15.6834 16.9024 16.3166 16.9024 16.7071 17.2929L18 18.5858L21.2929 15.2929C21.6834 14.9024 22.3166 14.9024 22.7071 15.2929Z" fill="black"/>
</svg>
