<svg width="24" height="24" viewBox="0 0 24 24" fill="none" xmlns="http://www.w3.org/2000/svg">
<path fill-rule="evenodd" clip-rule="evenodd" d="M1.87868 3.87868C2.44129 3.31607 3.20436 3 4 3H20C20.7957 3 21.5587 3.31607 22.1213 3.87868C22.6839 4.44129 23 5.20435 23 6V13C23 13.5523 22.5523 14 22 14C21.4477 14 21 13.5523 21 13V6C21 5.73478 20.8946 5.48043 20.7071 5.29289C20.5196 5.10536 20.2652 5 20 5H4C3.73479 5 3.48043 5.10536 3.2929 5.29289C3.10536 5.48043 3 5.73478 3 6V18C3 18.5477 3.45229 19 4 19H12C12.5523 19 13 19.4477 13 20C13 20.5523 12.5523 21 12 21H4C2.34772 21 1 19.6523 1 18V6C1 5.20435 1.31608 4.44129 1.87868 3.87868Z" fill="black"/>
<path fill-rule="evenodd" clip-rule="evenodd" d="M1.15599 6.46367C1.4522 5.99754 2.0702 5.85978 2.53633 6.15599L11.5031 11.854C11.6522 11.9468 11.8243 11.996 12 11.996C12.1756 11.996 12.3477 11.9468 12.4968 11.854L21.4637 6.15599C21.9298 5.85978 22.5478 5.99754 22.844 6.46367C23.1402 6.92981 23.0025 7.5478 22.5363 7.84401L13.5663 13.544C13.5645 13.5452 13.5627 13.5463 13.5609 13.5474C13.0931 13.8405 12.5521 13.996 12 13.996C11.4479 13.996 10.9069 13.8405 10.4391 13.5474C10.4373 13.5463 10.4355 13.5452 10.4337 13.544L1.46368 7.84401C0.997543 7.5478 0.859789 6.92981 1.15599 6.46367Z" fill="black"/>
<path fill-rule="evenodd" clip-rule="evenodd" d="M19 15C19.5523 15 20 15.4477 20 16V22C20 22.5523 19.5523 23 19 23C18.4477 23 18 22.5523 18 22V16C18 15.4477 18.4477 15 19 15Z" fill="black"/>
<path fill-rule="evenodd" clip-rule="evenodd" d="M15 19C15 18.4477 15.4477 18 16 18H22C22.5523 18 23 18.4477 23 19C23 19.5523 22.5523 20 22 20H16C15.4477 20 15 19.5523 15 19Z" fill="black"/>
</svg>
