<svg width="24" height="24" viewBox="0 0 24 24" fill="none" xmlns="http://www.w3.org/2000/svg">
<path fill-rule="evenodd" clip-rule="evenodd" d="M6.11893 3.91008C8.04521 2.50653 10.4095 1.83712 12.7856 2.02249C15.1618 2.20787 17.3936 3.23583 19.0789 4.92113C20.7642 6.60644 21.7922 8.83827 21.9776 11.2144C22.1629 13.5906 21.4935 15.9548 20.09 17.8811C18.6864 19.8074 16.641 21.169 14.3223 21.7207C12.1442 22.2389 9.85943 22.0103 7.83251 21.0788L2.32104 22.9471C1.96059 23.0693 1.56202 22.9763 1.2929 22.7072C1.02377 22.438 0.930751 22.0395 1.05294 21.679L2.92123 16.1675C1.9898 14.1406 1.76118 11.8559 2.27938 9.67771C2.83101 7.35904 4.19265 5.31364 6.11893 3.91008ZM12.6301 4.01644C10.7291 3.86814 8.83774 4.40366 7.29672 5.52651C5.75569 6.64935 4.66638 8.28568 4.22507 10.1406C3.78377 11.9955 4.01949 13.9471 4.88977 15.6436C5.01326 15.8844 5.03393 16.1649 4.94707 16.4211L3.59738 20.4027L7.57897 19.053C7.8352 18.9661 8.1157 18.9868 8.35643 19.1103C10.0529 19.9806 12.0045 20.2163 13.8594 19.775C15.7144 19.3337 17.3507 18.2444 18.4735 16.7033C19.5964 15.1623 20.1319 13.2709 19.9836 11.37C19.8353 9.46905 19.013 7.68359 17.6647 6.33535C16.3165 4.9871 14.531 4.16473 12.6301 4.01644Z" fill="black"/>
<path fill-rule="evenodd" clip-rule="evenodd" d="M12.2581 8.02436C11.7926 7.94451 11.3138 8.03199 10.9066 8.27131C10.4994 8.51062 10.1901 8.88633 10.0333 9.33189C9.85006 9.85288 9.27914 10.1267 8.75815 9.94338C8.23716 9.76011 7.96339 9.18919 8.14666 8.6682C8.46013 7.77709 9.07886 7.02568 9.89327 6.54704C10.7077 6.06841 11.6652 5.89345 12.5962 6.05315C13.5273 6.21285 14.3717 6.6969 14.9801 7.41957C15.5883 8.14203 15.9212 9.05636 15.92 10.0007C15.9197 11.5312 14.785 12.5419 13.9747 13.0821C13.5391 13.3725 13.1105 13.5861 12.7949 13.7264C12.6356 13.7971 12.5015 13.8508 12.4049 13.8877C12.3565 13.9061 12.3173 13.9204 12.2887 13.9305C12.2744 13.9356 12.2628 13.9397 12.254 13.9427C12.2496 13.9442 12.2459 13.9455 12.2429 13.9465C12.2414 13.947 12.2401 13.9474 12.239 13.9478L12.2375 13.9483C12.2372 13.9484 12.2362 13.9487 11.92 13L12.2362 13.9487C11.7123 14.1234 11.146 13.8402 10.9713 13.3163C10.7969 12.793 11.0791 12.2275 11.6017 12.052C11.602 12.0519 11.6025 12.0518 11.6032 12.0515C11.6058 12.0506 11.611 12.0488 11.6187 12.0461C11.6341 12.0406 11.6593 12.0315 11.6929 12.0187C11.7603 11.993 11.8606 11.953 11.9826 11.8987C12.2294 11.789 12.5509 11.6276 12.8653 11.418C13.5549 10.9583 13.92 10.4692 13.92 10L13.92 9.99855C13.9207 9.52624 13.7542 9.06891 13.45 8.70757C13.1459 8.34624 12.7236 8.10421 12.2581 8.02436Z" fill="black"/>
<path fill-rule="evenodd" clip-rule="evenodd" d="M11 17C11 16.4478 11.4477 16 12 16H12.01C12.5623 16 13.01 16.4478 13.01 17C13.01 17.5523 12.5623 18 12.01 18H12C11.4477 18 11 17.5523 11 17Z" fill="black"/>
</svg>
