<svg width="24" height="24" viewBox="0 0 24 24" fill="none" xmlns="http://www.w3.org/2000/svg">
<path fill-rule="evenodd" clip-rule="evenodd" d="M8.5532 4.34145L4 6.61855V19.381L4 19.3835L7.65869 17.5536C8.07509 17.3456 8.53451 17.2371 9 17.2371C9.4655 17.2371 9.9246 17.3454 10.341 17.5535L14.553 19.6595C14.5529 19.6594 14.5531 19.6595 14.553 19.6595C14.6917 19.7288 14.8449 19.7649 15 19.7649C15.1551 19.7649 15.308 19.7289 15.4467 19.6596C15.4466 19.6597 15.4468 19.6596 15.4467 19.6596L19.9997 17.3826L20 4.61755L16.341 6.44755C15.9246 6.65563 15.4655 6.76395 15 6.76395C14.5345 6.76395 14.0754 6.65563 13.659 6.44755L9.447 4.34155C9.44693 4.34151 9.44707 4.34159 9.447 4.34155C9.30826 4.27226 9.15509 4.23608 9 4.23608C8.84495 4.23608 8.69192 4.27219 8.5532 4.34145ZM7.659 2.55248C8.0754 2.34441 8.53451 2.23608 9 2.23608C9.4655 2.23608 9.9246 2.34441 10.341 2.55248L14.553 4.65848C14.5529 4.65845 14.5531 4.65852 14.553 4.65848C14.6917 4.72777 14.8449 4.76395 15 4.76395C15.1551 4.76395 15.308 4.72789 15.4467 4.65864L19.106 2.82848C19.4111 2.676 19.7502 2.6041 20.091 2.61962C20.4318 2.63514 20.7629 2.73756 21.0529 2.91714C21.3429 3.09673 21.5822 3.34751 21.748 3.64565C21.9136 3.94349 22.0003 4.2787 22 4.61948C22 4.61981 22 4.62015 22 4.62048L22 17.3835C21.9998 17.7549 21.8962 18.1188 21.7009 18.4346C21.5056 18.7503 21.2263 19.0054 20.8943 19.1714C20.8942 19.1715 20.8944 19.1714 20.8943 19.1714L16.3413 21.4484C15.9249 21.6565 15.4655 21.7649 15 21.7649C14.5345 21.7649 14.0754 21.6566 13.659 21.4485L9.447 19.3426C9.44693 19.3425 9.44707 19.3426 9.447 19.3426C9.30826 19.2733 9.15509 19.2371 9 19.2371C8.84495 19.2371 8.69203 19.2731 8.55331 19.3424C8.55321 19.3424 8.55342 19.3423 8.55331 19.3424L4.89401 21.1725C4.58871 21.3251 4.24946 21.397 3.90852 21.3814C3.56759 21.3658 3.23632 21.2632 2.94624 21.0834C2.65616 20.9035 2.41693 20.6525 2.2513 20.3541C2.08591 20.0561 1.99941 19.7208 2 19.38L2 6.61748C2.0002 6.24616 2.10377 5.88222 2.29911 5.56643C2.49439 5.25073 2.77368 4.99561 3.10571 4.82963C3.10561 4.82968 3.10581 4.82958 3.10571 4.82963L7.659 2.55248Z" fill="black"/>
<path fill-rule="evenodd" clip-rule="evenodd" d="M15 4.76395C15.5523 4.76395 16 5.21173 16 5.76401V20.764C16 21.3163 15.5523 21.7649 15 21.7649C14.4477 21.7649 14 21.3163 14 20.764V5.76401C14 5.21173 14.4477 4.76395 15 4.76395Z" fill="black"/>
<path fill-rule="evenodd" clip-rule="evenodd" d="M9 2.23608C9.55229 2.23608 10 2.68372 10 3.23601V18.236C10 18.7883 9.55228 19.236 9 19.236C8.44772 19.236 8 18.7883 8 18.236V3.23601C8 2.68372 8.44772 2.23608 9 2.23608Z" fill="black"/>
</svg>
