<svg width="24" height="24" viewBox="0 0 24 24" fill="none" xmlns="http://www.w3.org/2000/svg">
<path fill-rule="evenodd" clip-rule="evenodd" d="M16.8903 13.3359C17.2189 13.1168 17.605 12.9998 18 12.9998C18.395 12.9998 18.7811 13.1168 19.1097 13.3359L22.11 15.3361C22.3838 15.5188 22.6083 15.7663 22.7636 16.0566C22.9188 16.3468 23 16.6709 23 17C23 16.9999 23 17 23 17V21C23 21.5304 22.7893 22.0391 22.4142 22.4142C22.0391 22.7893 21.5304 23 21 23H15C14.4696 23 13.9609 22.7893 13.5858 22.4142C13.2107 22.0391 13 21.5304 13 21V17.0001C13 17.0001 13 17.0002 13 17.0001C13 16.671 13.0812 16.3468 13.2364 16.0566C13.3917 15.7663 13.6162 15.5188 13.89 15.3361L16.8903 13.3359ZM14.9997 17L15 21H21V17L18 14.9998L14.9997 17Z" fill="black"/>
<path fill-rule="evenodd" clip-rule="evenodd" d="M3.63604 3.63604C5.32387 1.94821 7.61305 1 10 1C12.3869 1 14.6761 1.94821 16.364 3.63604C18.0518 5.32387 19 7.61305 19 10C19 10.5523 18.5523 11 18 11C17.4477 11 17 10.5523 17 10C17 8.14348 16.2625 6.36301 14.9497 5.05025C13.637 3.7375 11.8565 3 10 3C8.14348 3 6.36301 3.7375 5.05025 5.05025C3.7375 6.36301 3 8.14348 3 10C3 12.1593 4.21668 14.4867 5.79774 16.564C7.32754 18.574 9.08318 20.2012 10.0027 20.999C10.5533 21.0005 10.9994 21.447 11 21.998C11.0006 22.5503 10.5533 22.9984 10.001 22.999C9.56757 22.9994 9.14574 22.8591 8.799 22.599C8.78067 22.5852 8.76281 22.5709 8.74546 22.5559C7.79028 21.7312 5.88287 19.9781 4.20626 17.7753C2.55282 15.6028 1 12.8337 1 10C1 7.61305 1.94821 5.32387 3.63604 3.63604Z" fill="black"/>
<path fill-rule="evenodd" clip-rule="evenodd" d="M18 18C18.5523 18 19 18.4477 19 19V22C19 22.5523 18.5523 23 18 23C17.4477 23 17 22.5523 17 22V19C17 18.4477 17.4477 18 18 18Z" fill="black"/>
<path fill-rule="evenodd" clip-rule="evenodd" d="M10 8C8.89543 8 8 8.89543 8 10C8 11.1046 8.89543 12 10 12C11.1046 12 12 11.1046 12 10C12 8.89543 11.1046 8 10 8ZM6 10C6 7.79086 7.79086 6 10 6C12.2091 6 14 7.79086 14 10C14 12.2091 12.2091 14 10 14C7.79086 14 6 12.2091 6 10Z" fill="black"/>
</svg>
