<svg width="24" height="24" viewBox="0 0 24 24" fill="none" xmlns="http://www.w3.org/2000/svg">
<path fill-rule="evenodd" clip-rule="evenodd" d="M12 3C11.7836 3 11.5731 3.07018 11.4 3.2L3.4 9.2C3.27581 9.29315 3.17501 9.41393 3.10558 9.55279C3.03615 9.69164 3 9.84475 3 10V20C3 20.2652 3.10536 20.5196 3.2929 20.7071C3.48043 20.8946 3.73479 21 4 21H20C20.2652 21 20.5196 20.8946 20.7071 20.7071C20.8946 20.5196 21 20.2652 21 20V10C21 9.69075 20.8529 9.39316 20.5969 9.19771L12.6 3.2C12.4269 3.07018 12.2164 3 12 3ZM10.2 1.6C10.7193 1.21053 11.3509 1 12 1C12.6491 1 13.2807 1.21053 13.8 1.6L21.8 7.6C21.8017 7.60127 21.8034 7.60255 21.8051 7.60384C22.5479 8.1684 23 9.05007 23 10V20C23 20.7957 22.6839 21.5587 22.1213 22.1213C21.5587 22.6839 20.7957 23 20 23H4C3.20435 23 2.44129 22.6839 1.87868 22.1213C1.31608 21.5587 1 20.7956 1 20V10C1 9.53426 1.10844 9.07493 1.31672 8.65836C1.52501 8.24179 1.82742 7.87944 2.2 7.6L10.2 1.6Z" fill="black"/>
<path fill-rule="evenodd" clip-rule="evenodd" d="M1.15599 9.46367C1.4522 8.99754 2.0702 8.85978 2.53633 9.15599L11.5031 14.854C11.6522 14.9468 11.8243 14.996 12 14.996C12.1756 14.996 12.3477 14.9468 12.4968 14.854L21.4637 9.15599C21.9298 8.85978 22.5478 8.99754 22.844 9.46367C23.1402 9.92981 23.0025 10.5478 22.5363 10.844L13.5663 16.544C13.5645 16.5452 13.5627 16.5463 13.5609 16.5474C13.0931 16.8405 12.5521 16.996 12 16.996C11.4479 16.996 10.9069 16.8405 10.4391 16.5474C10.4373 16.5463 10.4355 16.5452 10.4337 16.544L1.46368 10.844C0.997543 10.5478 0.859789 9.92981 1.15599 9.46367Z" fill="black"/>
</svg>
