<svg width="24" height="24" viewBox="0 0 24 24" fill="none" xmlns="http://www.w3.org/2000/svg">
<path d="M20.2929 2.29289C20.6834 1.90237 21.3164 1.90237 21.707 2.29289C22.0975 2.68342 22.0975 3.31643 21.707 3.70696L14.707 10.707C14.3164 11.0975 13.6834 11.0975 13.2929 10.707C12.9024 10.3164 12.9024 9.68342 13.2929 9.29289L20.2929 2.29289Z" fill="black"/>
<path d="M13 4C13 3.44772 13.4477 3 14 3C14.5523 3 15 3.44772 15 4V9H20C20.5523 9 21 9.44772 21 10C21 10.5523 20.5523 11 20 11H14C13.4477 11 13 10.5523 13 10V4Z" fill="black"/>
<path d="M9.29289 13.2929C9.68342 12.9024 10.3164 12.9024 10.707 13.2929C11.0975 13.6834 11.0975 14.3164 10.707 14.707L3.70696 21.707C3.31643 22.0975 2.68342 22.0975 2.29289 21.707C1.90237 21.3164 1.90237 20.6834 2.29289 20.2929L9.29289 13.2929Z" fill="black"/>
<path d="M9 20V15H4C3.44772 15 3 14.5523 3 14C3 13.4477 3.44772 13 4 13H10C10.5523 13 11 13.4477 11 14V20C11 20.5523 10.5523 21 10 21C9.44772 21 9 20.5523 9 20Z" fill="black"/>
</svg>
