<svg width="24" height="24" viewBox="0 0 24 24" fill="none" xmlns="http://www.w3.org/2000/svg">
<path fill-rule="evenodd" clip-rule="evenodd" d="M12 5.0001C12.5523 5.0001 13 5.44781 13 6.0001V6.3431C13 6.89538 12.5523 7.3431 12 7.3431C11.4477 7.3431 11 6.89538 11 6.3431V6.0001C11 5.44781 11.4477 5.0001 12 5.0001Z" fill="black"/>
<path fill-rule="evenodd" clip-rule="evenodd" d="M6.24129 4.8938C6.73188 5.14746 6.92395 5.75079 6.67029 6.24137C6.22945 7.09396 5.99959 8.03985 6 8.99966V15.0005C5.99943 16.3454 6.4507 17.6514 7.28139 18.7091C8.11208 19.7667 9.27402 20.5146 10.5807 20.8328C11.8874 21.1509 13.2631 21.0208 14.487 20.4633C15.7109 19.9059 16.712 18.9534 17.3297 17.7588C17.5834 17.2682 18.1867 17.0761 18.6773 17.3298C19.1679 17.5835 19.3599 18.1868 19.1063 18.6774C18.2827 20.2702 16.9479 21.5402 15.316 22.2834C13.6841 23.0267 11.8499 23.2002 10.1076 22.776C8.36536 22.3518 6.81611 21.3546 5.70853 19.9444C4.60103 18.5343 3.99934 16.7931 4 15.0001L4 9.00051C3.99953 7.72091 4.30601 6.45944 4.89372 5.32279C5.14738 4.83221 5.75071 4.64014 6.24129 4.8938Z" fill="black"/>
<path fill-rule="evenodd" clip-rule="evenodd" d="M8.06855 2.03119C9.28588 1.3443 10.6619 0.988333 12.0596 0.998758C13.4574 1.00918 14.828 1.38563 16.0349 2.09061C17.2418 2.79559 18.243 3.80449 18.9387 5.01681C19.6343 6.22907 20.0003 7.60243 20 9.00011C20 9.00003 20 9.00019 20 9.00011V13.3431C20 13.8954 19.5523 14.3431 19 14.3431C18.4477 14.3431 18 13.8954 18 13.3431V8.99988C18.0002 7.95157 17.7258 6.92149 17.204 6.01224C16.6823 5.103 15.9314 4.34632 15.0262 3.81759C14.121 3.28886 13.093 3.00652 12.0447 2.9987C10.9964 2.99088 9.96441 3.25786 9.05141 3.77303C8.57042 4.04444 7.96047 3.87453 7.68906 3.39354C7.41765 2.91254 7.58756 2.3026 8.06855 2.03119Z" fill="black"/>
<path fill-rule="evenodd" clip-rule="evenodd" d="M1.29289 1.29299C1.68342 0.902467 2.31658 0.902467 2.70711 1.29299L22.7071 21.293C23.0976 21.6835 23.0976 22.3167 22.7071 22.7072C22.3166 23.0977 21.6834 23.0977 21.2929 22.7072L1.29289 2.7072C0.902369 2.31668 0.902369 1.68352 1.29289 1.29299Z" fill="black"/>
</svg>
