<svg width="24" height="24" viewBox="0 0 24 24" fill="none" xmlns="http://www.w3.org/2000/svg">
<path fill-rule="evenodd" clip-rule="evenodd" d="M5.63604 3.63604C7.32387 1.94821 9.61305 1 12 1C14.3869 1 16.6761 1.94821 18.364 3.63604C20.0518 5.32387 21 7.61305 21 10L21 10.0017C20.9993 10.4223 20.9666 10.8424 20.9022 11.2581C20.8177 11.8039 20.3067 12.1778 19.7609 12.0932C19.2151 12.0087 18.8412 11.4977 18.9258 10.9519C18.9746 10.6366 18.9994 10.3181 19 9.99908C18.9998 8.14289 18.2623 6.36279 16.9497 5.05025C15.637 3.7375 13.8565 3 12 3C10.1435 3 8.36301 3.7375 7.05025 5.05025C5.7375 6.36301 5 8.14348 5 10C5 12.1593 6.21668 14.4867 7.79774 16.564C9.326 18.5719 11.0796 20.1979 12 20.9966C12.2519 20.7777 12.5003 20.5547 12.7451 20.3277C13.15 19.9522 13.7827 19.9761 14.1583 20.3811C14.5338 20.786 14.5099 21.4187 14.1049 21.7943C13.8261 22.0528 13.5428 22.3066 13.2552 22.5553C13.238 22.5702 13.2202 22.5846 13.202 22.5982C12.8554 22.8588 12.4336 22.9998 12 22.9998C11.5664 22.9998 11.1446 22.8588 10.798 22.5982C10.78 22.5847 10.7625 22.5706 10.7455 22.5559C9.79028 21.7312 7.88287 19.9781 6.20626 17.7753C4.55282 15.6028 3 12.8337 3 10C3 7.61305 3.94821 5.32387 5.63604 3.63604Z" fill="black"/>
<path fill-rule="evenodd" clip-rule="evenodd" d="M12 8C10.8954 8 10 8.89543 10 10C10 11.1046 10.8954 12 12 12C13.1046 12 14 11.1046 14 10C14 8.89543 13.1046 8 12 8ZM8 10C8 7.79086 9.79086 6 12 6C14.2091 6 16 7.79086 16 10C16 12.2091 14.2091 14 12 14C9.79086 14 8 12.2091 8 10Z" fill="black"/>
<path fill-rule="evenodd" clip-rule="evenodd" d="M15 18C15 17.4477 15.4477 17 16 17H22C22.5523 17 23 17.4477 23 18C23 18.5523 22.5523 19 22 19H16C15.4477 19 15 18.5523 15 18Z" fill="black"/>
<path fill-rule="evenodd" clip-rule="evenodd" d="M19 14C19.5523 14 20 14.4477 20 15V21C20 21.5523 19.5523 22 19 22C18.4477 22 18 21.5523 18 21V15C18 14.4477 18.4477 14 19 14Z" fill="black"/>
</svg>
