<svg width="24" height="24" viewBox="0 0 24 24" fill="none" xmlns="http://www.w3.org/2000/svg">
<path d="M5.60582 3.0501C7.71517 1.54322 10.2893 0.829698 12.8734 1.03545C15.4576 1.24131 17.8865 2.3532 19.7308 4.1751C21.5749 5.99688 22.717 8.41117 22.9544 10.9925C23.1918 13.5739 22.5096 16.1568 21.0287 18.2845C19.5476 20.4122 17.3621 21.9486 14.8587 22.6224C12.3748 23.2908 9.73618 23.0667 7.40074 21.9915C7.23783 21.9323 7.0627 21.9166 6.89195 21.9456L3.53746 22.9271C3.52965 22.9293 3.52188 22.9318 3.51402 22.9339C3.18481 23.0213 2.83829 23.0226 2.50816 22.9388C2.17815 22.8549 1.87484 22.6882 1.6273 22.4544C1.3797 22.2204 1.19556 21.9268 1.09312 21.6019C0.990728 21.2771 0.972837 20.9315 1.04136 20.5979L1.06968 20.4905L2.11265 17.2688C2.14828 17.0849 2.13313 16.8951 2.06578 16.72C0.962717 14.3982 0.706167 11.7632 1.3441 9.27178C1.98715 6.76056 3.4966 4.55704 5.60582 3.0501ZM12.7152 3.02861C10.6008 2.86019 8.49481 3.44413 6.7689 4.67705C5.04298 5.91001 3.80777 7.71308 3.2816 9.76787C2.78838 11.6941 2.94829 13.7255 3.72886 15.5462L3.89293 15.9075L3.92125 15.9739C4.14171 16.5302 4.19147 17.1395 4.06285 17.7239C4.05596 17.7552 4.04732 17.7862 4.03746 17.8167L3.00718 20.9974L6.38902 20.0091C6.41739 20.0008 6.44694 19.9943 6.47593 19.9886C6.95851 19.8929 7.45616 19.9165 7.92515 20.0579L8.12437 20.1263L8.19175 20.1546C10.1136 21.0521 12.291 21.242 14.3392 20.6907C16.3874 20.1395 18.1753 18.8827 19.3871 17.1419C20.5988 15.4011 21.1565 13.2882 20.9623 11.1761C20.768 9.06406 19.8343 7.08855 18.3255 5.59795C16.8166 4.10734 14.8295 3.19708 12.7152 3.02861Z" fill="black"/>
<path d="M16 11C16.5523 11 17 11.4477 17 12C17 12.5523 16.5523 13 16 13H8C7.44772 13 7 12.5523 7 12C7 11.4477 7.44772 11 8 11H16Z" fill="black"/>
<path d="M11 16V8C11 7.44772 11.4477 7 12 7C12.5523 7 13 7.44772 13 8V16C13 16.5523 12.5523 17 12 17C11.4477 17 11 16.5523 11 16Z" fill="black"/>
</svg>
