<svg width="24" height="24" viewBox="0 0 24 24" fill="none" xmlns="http://www.w3.org/2000/svg">
<path d="M20 8V4H16C15.4477 4 15 3.55228 15 3C15 2.44772 15.4477 2 16 2H21C21.5523 2 22 2.44772 22 3V8C22 8.55228 21.5523 9 21 9C20.4477 9 20 8.55228 20 8Z" fill="black"/>
<path d="M20.293 2.29297C20.6835 1.90244 21.3165 1.90244 21.707 2.29297C22.0976 2.68349 22.0976 3.31651 21.707 3.70703L14.957 10.457C14.5665 10.8476 13.9335 10.8476 13.543 10.457C13.1524 10.0665 13.1524 9.43349 13.543 9.04297L20.293 2.29297Z" fill="black"/>
<path d="M15 14C15 11.2386 12.7614 9 10 9C7.23858 9 5 11.2386 5 14C5 16.7614 7.23858 19 10 19C12.7614 19 15 16.7614 15 14ZM17 14C17 17.866 13.866 21 10 21C6.13401 21 3 17.866 3 14C3 10.134 6.13401 7 10 7C13.866 7 17 10.134 17 14Z" fill="black"/>
</svg>
