<svg width="24" height="24" viewBox="0 0 24 24" fill="none" xmlns="http://www.w3.org/2000/svg">
<path d="M1.29289 1.29289C1.68342 0.902369 2.31643 0.902369 2.70696 1.29289L22.707 21.2929C23.0975 21.6834 23.0975 22.3164 22.707 22.707C22.3164 23.0975 21.6834 23.0975 21.2929 22.707L1.29289 2.70696C0.902369 2.31643 0.902369 1.68342 1.29289 1.29289Z" fill="black"/>
<path d="M4.22325 4.22182C4.6138 3.83137 5.24683 3.8313 5.63731 4.22182C6.02772 4.61232 6.02771 5.24538 5.63731 5.63588C4.31746 6.95564 3.44004 8.65315 3.12755 10.4933C2.83459 12.2184 3.05187 13.9889 3.74767 15.589L3.89317 15.9064L3.92149 15.9728C4.14193 16.529 4.1917 17.1384 4.0631 17.7228C4.05621 17.7541 4.04756 17.7851 4.0377 17.8156L3.00743 20.9962L6.38927 20.0079C6.41751 19.9997 6.44635 19.9932 6.4752 19.9874C6.95764 19.8917 7.45553 19.9156 7.92442 20.0568L8.12364 20.1251L8.192 20.1535C9.86607 20.9353 11.7405 21.1836 13.5602 20.8634C15.38 20.5432 17.0572 19.6699 18.3639 18.3634C18.7543 17.9731 19.3874 17.9732 19.7779 18.3634C20.1684 18.754 20.1685 19.388 19.7779 19.7785C18.181 21.3751 16.1309 22.4417 13.9068 22.8331C11.7028 23.2209 9.43397 22.9256 7.40196 21.9904C7.23882 21.9308 7.06325 21.9155 6.8922 21.9445L3.5377 22.9259C3.52972 22.9282 3.52133 22.9306 3.51329 22.9328C3.18425 23.02 2.83835 23.0214 2.50841 22.9376C2.17823 22.8537 1.87419 22.6873 1.62657 22.4533C1.379 22.2193 1.19581 21.9256 1.09337 21.6007C0.990973 21.2759 0.973077 20.9304 1.04161 20.5968L1.06993 20.4894L2.11192 17.2667C2.14776 17.0809 2.1323 16.8895 2.0631 16.713C1.09576 14.6733 0.777723 12.3851 1.15587 10.1583C1.53783 7.90931 2.61012 5.83483 4.22325 4.22182Z" fill="black"/>
<path d="M7.98568 1.75847C9.97729 0.980602 12.1528 0.800137 14.2454 1.23894C16.338 1.67777 18.2576 2.71679 19.7689 4.22917C21.2802 5.74169 22.318 7.66252 22.7552 9.75554C23.1924 11.8485 23.0102 14.0233 22.2308 16.0143C22.0295 16.5284 21.45 16.7818 20.9359 16.5807C20.4216 16.3794 20.1672 15.7991 20.3685 15.2848C21.0061 13.6559 21.1559 11.8761 20.7982 10.1637C20.4404 8.45152 19.5912 6.88063 18.3548 5.64323C17.1183 4.40572 15.5475 3.55504 13.8353 3.19597C12.1232 2.83692 10.3437 2.98537 8.71419 3.62175C8.19975 3.82267 7.61922 3.56783 7.41829 3.05339C7.21761 2.53916 7.47162 1.95951 7.98568 1.75847Z" fill="black"/>
</svg>
