<svg width="24" height="24" viewBox="0 0 24 24" fill="none" xmlns="http://www.w3.org/2000/svg">
<path fill-rule="evenodd" clip-rule="evenodd" d="M11.5906 6.79404C12.0363 7.12021 12.1331 7.74592 11.807 8.1916L5.81297 16.3816L6.62972 17.1995L14.4833 11.2051C14.9223 10.87 15.5498 10.9543 15.8849 11.3933C16.22 11.8323 16.1357 12.4598 15.6967 12.7949L7.84428 18.7885C7.84409 18.7886 7.84446 18.7884 7.84428 18.7885C7.45953 19.0824 6.98069 19.2271 6.49759 19.1951C6.01426 19.1631 5.55897 18.9568 5.21628 18.6145L4.3991 17.7963C4.39902 17.7962 4.39918 17.7964 4.3991 17.7963C4.06147 17.4588 3.85548 17.0113 3.81881 16.5353C3.78213 16.0592 3.917 15.5857 4.19903 15.2004C4.19901 15.2004 4.19905 15.2004 4.19903 15.2004L10.193 7.01041C10.5192 6.56473 11.1449 6.46786 11.5906 6.79404Z" fill="black"/>
<path fill-rule="evenodd" clip-rule="evenodd" d="M6.24816 16.8364C6.61466 17.2496 6.57683 17.8816 6.16367 18.2481C5.92512 18.4597 5.73989 19.0272 5.95454 19.7592C6.15823 20.4539 6.62036 20.9201 7.1694 21.0144C7.8084 21.1242 8.49035 20.8291 9.52106 20.2586C9.58463 20.2234 9.6497 20.1871 9.71606 20.1502C10.1369 19.9157 10.61 19.6521 11.0883 19.4449C11.6513 19.2011 12.2962 19 13.0001 19C14.6358 19 15.9571 19.6021 17.059 20.3448C17.5169 20.6534 17.638 21.2749 17.3293 21.7329C17.0206 22.1909 16.3991 22.3119 15.9412 22.0032C15.0431 21.3979 14.1083 21 13.0001 21C12.675 21 12.3144 21.0934 11.8832 21.2802C11.5037 21.4445 11.1276 21.6538 10.7001 21.8915C10.6313 21.9298 10.5612 21.9688 10.4896 22.0084C9.55279 22.5269 8.26375 23.2318 6.83074 22.9855C5.30778 22.7239 4.38241 21.5056 4.03535 20.322C3.69925 19.1758 3.80003 17.6713 4.83647 16.7519C5.24963 16.3854 5.88166 16.4232 6.24816 16.8364Z" fill="black"/>
<path fill-rule="evenodd" clip-rule="evenodd" d="M16 3C13.7909 3 12 4.79086 12 7C12 9.20914 13.7909 11 16 11C18.2091 11 20 9.20914 20 7C20 4.79086 18.2091 3 16 3ZM10 7C10 3.68629 12.6863 1 16 1C19.3137 1 22 3.68629 22 7C22 10.3137 19.3137 13 16 13C12.6863 13 10 10.3137 10 7Z" fill="black"/>
</svg>
