<svg width="24" height="24" viewBox="0 0 24 24" fill="none" xmlns="http://www.w3.org/2000/svg">
<path d="M5.60582 3.0501C7.71517 1.54322 10.2893 0.829698 12.8734 1.03545C15.4576 1.24131 17.8865 2.3532 19.7308 4.1751C21.5749 5.99688 22.717 8.41117 22.9544 10.9925C23.1918 13.5739 22.5096 16.1568 21.0287 18.2845C19.5476 20.4122 17.3621 21.9486 14.8587 22.6224C12.3748 23.2908 9.73618 23.0667 7.40074 21.9915C7.23783 21.9323 7.0627 21.9166 6.89195 21.9456L3.53746 22.9271C3.52965 22.9293 3.52188 22.9318 3.51402 22.9339C3.18481 23.0213 2.83829 23.0226 2.50816 22.9388C2.17815 22.8549 1.87484 22.6882 1.6273 22.4544C1.3797 22.2204 1.19556 21.9268 1.09312 21.6019C0.990728 21.2771 0.972837 20.9315 1.04136 20.5979L1.06968 20.4905L2.11265 17.2688C2.14828 17.0849 2.13313 16.8951 2.06578 16.72C0.962717 14.3982 0.706167 11.7632 1.3441 9.27178C1.98715 6.76056 3.4966 4.55704 5.60582 3.0501ZM12.7152 3.02861C10.6008 2.86019 8.49481 3.44413 6.7689 4.67705C5.04298 5.91001 3.80777 7.71308 3.2816 9.76787C2.78838 11.6941 2.94829 13.7255 3.72886 15.5462L3.89293 15.9075L3.92125 15.9739C4.14171 16.5302 4.19147 17.1395 4.06285 17.7239C4.05596 17.7552 4.04732 17.7862 4.03746 17.8167L3.00718 20.9974L6.38902 20.0091C6.41739 20.0008 6.44694 19.9943 6.47593 19.9886C6.95851 19.8929 7.45616 19.9165 7.92515 20.0579L8.12437 20.1263L8.19175 20.1546C10.1136 21.0521 12.291 21.242 14.3392 20.6907C16.3874 20.1395 18.1753 18.8827 19.3871 17.1419C20.5988 15.4011 21.1565 13.2882 20.9623 11.1761C20.768 9.06406 19.8343 7.08855 18.3255 5.59795C16.8166 4.10734 14.8295 3.19708 12.7152 3.02861Z" fill="black"/>
<path d="M13.3804 7.04536C14.1426 6.92504 14.9233 7.02791 15.6284 7.34126C16.3337 7.6547 16.9335 8.16545 17.355 8.81196C17.7764 9.45841 18.0022 10.2131 18.0044 10.9848C18.0077 12.0191 17.6099 13.0147 16.895 13.7622L16.8941 13.7612L13.4497 17.3803C13.2628 17.5768 13.0379 17.7334 12.7886 17.8403C12.5394 17.9471 12.2707 18.0016 11.9995 18.0014C11.7283 18.0012 11.4596 17.9464 11.2105 17.8393C10.9613 17.7321 10.736 17.5752 10.5493 17.3784L7.105 13.7602C6.39065 13.0127 5.9932 12.0178 5.9966 10.9838C6.00006 9.94949 6.40381 8.95619 7.12356 8.21333C7.8433 7.47047 8.82325 7.03561 9.85696 6.99946C10.613 6.97305 11.3542 7.16307 11.9995 7.53657C12.4238 7.29076 12.8914 7.12259 13.3804 7.04536ZM14.8159 9.16938C14.4633 9.01272 14.073 8.96075 13.6919 9.02094C13.3109 9.08116 12.9556 9.25059 12.6685 9.50825C12.2886 9.84929 11.7126 9.84915 11.3325 9.50825C10.9476 9.16286 10.4431 8.98041 9.92629 8.99848C9.40965 9.01666 8.91984 9.23368 8.56008 9.60493C8.20021 9.97636 7.99833 10.4735 7.9966 10.9907C7.99517 11.4429 8.14714 11.8802 8.42434 12.2329L8.55129 12.3793L8.55227 12.3803L11.9995 16.0004L12.0005 16.0014L15.4478 12.3813L15.4497 12.3803C15.8071 12.0067 16.0059 11.5087 16.0044 10.9916C16.0033 10.6059 15.8899 10.2279 15.6792 9.90473C15.4685 9.58145 15.1686 9.32611 14.8159 9.16938Z" fill="black"/>
</svg>
