<svg width="24" height="24" viewBox="0 0 24 24" fill="none" xmlns="http://www.w3.org/2000/svg">
<path d="M0.999512 5.00011C0.999501 4.42084 1.16775 3.85334 1.48291 3.3673C1.79805 2.88144 2.24716 2.49714 2.77588 2.26085C3.28008 2.03553 3.87181 2.26157 4.09717 2.76574C4.32247 3.26989 4.09635 3.86162 3.59229 4.08702C3.416 4.16581 3.2657 4.29415 3.16064 4.45617C3.05574 4.6181 2.99951 4.80716 2.99951 5.00011V20.586L4.70654 18.879C5.26899 18.3164 6.03209 18.0003 6.82764 18.0001H18.9995C19.5518 18.0001 19.9995 18.4478 19.9995 19.0001C19.9994 19.5523 19.5517 20.0001 18.9995 20.0001H6.82861L6.729 20.005C6.5003 20.0278 6.28554 20.1291 6.12158 20.2931L3.91943 22.4952L3.91846 22.4943C3.68572 22.734 3.38807 22.9006 3.06104 22.9718C2.72245 23.0455 2.36947 23.0145 2.04932 22.8819C1.72906 22.7493 1.45642 22.5212 1.26904 22.2296C1.08837 21.9482 0.995606 21.6201 1.00049 21.2862L0.999512 5.00011Z" fill="black"/>
<path d="M1.29289 1.29289C1.68342 0.902369 2.31643 0.902369 2.70696 1.29289L22.707 21.2929C23.0975 21.6834 23.0975 22.3164 22.707 22.707C22.3164 23.0975 21.6834 23.0975 21.2929 22.707L1.29289 2.70696C0.902369 2.31643 0.902369 1.68342 1.29289 1.29289Z" fill="black"/>
<path d="M20.9998 16.3436V4.99988C20.9998 4.73466 20.8943 4.48038 20.7068 4.29285C20.5193 4.10539 20.2649 3.99988 19.9998 3.99988H8.65601C8.10372 3.99988 7.65601 3.55216 7.65601 2.99988C7.65601 2.44759 8.10372 1.99988 8.65601 1.99988H19.9998C20.7953 1.99988 21.5583 2.31625 22.1208 2.87878C22.6835 3.44139 22.9998 4.20423 22.9998 4.99988V16.3436C22.9998 16.8959 22.552 17.3436 21.9998 17.3436C21.4476 17.3435 20.9998 16.8958 20.9998 16.3436Z" fill="black"/>
</svg>
