<svg width="24" height="24" viewBox="0 0 24 24" fill="none" xmlns="http://www.w3.org/2000/svg">
<path d="M11 22V19C11 18.4477 11.4477 18 12 18C12.5523 18 13 18.4477 13 19V22C13 22.5523 12.5523 23 12 23C11.4477 23 11 22.5523 11 22Z" fill="black"/>
<path d="M4 12V10C4 9.44771 4.44772 9 5 9C5.55228 9 6 9.44771 6 10V12C6 13.5913 6.63259 15.117 7.75781 16.2422C8.88303 17.3674 10.4087 18 12 18C13.5913 18 15.117 17.3674 16.2422 16.2422C17.3674 15.117 18 13.5913 18 12V10C18 9.44771 18.4477 9 19 9C19.5523 9 20 9.44771 20 10V12C20 14.1217 19.1575 16.1569 17.6572 17.6572C16.1569 19.1575 14.1217 20 12 20C9.87827 20 7.84306 19.1575 6.34277 17.6572C4.84248 16.1569 4 14.1217 4 12Z" fill="black"/>
<path d="M14 5C14 3.89543 13.1046 3 12 3C10.8954 3 10 3.89543 10 5V12C10 13.1046 10.8954 14 12 14C13.1046 14 14 13.1046 14 12V5ZM16 12C16 14.2091 14.2091 16 12 16C9.79086 16 8 14.2091 8 12V5C8 2.79086 9.79086 1 12 1C14.2091 1 16 2.79086 16 5V12Z" fill="black"/>
</svg>
