<svg width="24" height="24" viewBox="0 0 24 24" fill="none" xmlns="http://www.w3.org/2000/svg">
<path d="M9.90953 1.19989C11.2901 0.93272 12.7097 0.93272 14.0902 1.19989C14.6322 1.3049 14.987 1.82966 14.8822 2.37176C14.7773 2.91387 14.2524 3.26846 13.7103 3.16375C12.5809 2.94519 11.4198 2.94524 10.2904 3.16375C9.74816 3.26869 9.22344 2.91399 9.11851 2.37176C9.01361 1.82967 9.36752 1.30499 9.90953 1.19989Z" fill="black"/>
<path d="M13.7103 20.8364C14.2523 20.7317 14.7771 21.0855 14.8822 21.6274C14.9871 22.1695 14.6323 22.6942 14.0902 22.7993C12.7097 23.0665 11.2901 23.0665 9.90953 22.7993C9.36757 22.6941 9.01361 22.1695 9.11851 21.6274C9.22366 21.0855 9.74832 20.7315 10.2904 20.8364C11.4198 21.0549 12.5809 21.055 13.7103 20.8364Z" fill="black"/>
<path d="M16.7809 3.15928C17.0906 2.70219 17.7124 2.58224 18.1695 2.8917C19.3371 3.68285 20.3417 4.69186 21.1285 5.8624C21.4365 6.32075 21.3154 6.94203 20.857 7.2501C20.3987 7.55815 19.7775 7.43591 19.4693 6.97764C18.8257 6.02005 18.0036 5.19521 17.0484 4.54795C16.5914 4.23824 16.4714 3.61646 16.7809 3.15928Z" fill="black"/>
<path d="M1.20001 9.9094C1.30511 9.3674 1.82979 9.01349 2.37188 9.11839C2.91411 9.22332 3.26881 9.74804 3.16388 10.2903C2.94536 11.4197 2.94531 12.5808 3.16388 13.7102C3.26858 14.2523 2.91399 14.7772 2.37188 14.8821C1.82978 14.9869 1.30502 14.6321 1.20001 14.0901C0.932842 12.7095 0.932842 11.2899 1.20001 9.9094Z" fill="black"/>
<path d="M19.452 17.0494C19.7618 16.5922 20.3835 16.4722 20.8407 16.7818C21.2978 17.0915 21.4177 17.7133 21.1083 18.1704C20.3171 19.3381 19.3081 20.3426 18.1376 21.1294C17.6792 21.4375 17.058 21.3163 16.7499 20.8579C16.4418 20.3996 16.564 19.7784 17.0223 19.4703C17.9799 18.8266 18.8048 18.0045 19.452 17.0494Z" fill="black"/>
<path d="M21.6275 9.11839C22.1696 9.01349 22.6943 9.36745 22.7994 9.9094C23.0666 11.2899 23.0666 12.7095 22.7994 14.0901C22.6944 14.6321 22.1697 14.987 21.6275 14.8821C21.0856 14.777 20.7318 14.2522 20.8365 13.7102C21.0551 12.5808 21.055 11.4196 20.8365 10.2903C20.7316 9.7482 21.0856 9.22354 21.6275 9.11839Z" fill="black"/>
<path d="M5.86355 2.8708C6.32188 2.56302 6.94323 2.68503 7.25125 3.14327C7.55907 3.6016 7.43704 4.22294 6.97879 4.53096C6.02114 5.17468 5.19637 5.99661 4.5491 6.95186C4.23934 7.40903 3.61763 7.52814 3.16043 7.21846C2.70322 6.90867 2.58307 6.287 2.89285 5.82979C3.684 4.66217 4.69301 3.65761 5.86355 2.8708Z" fill="black"/>
<path d="M2.03441 17.5103C2.20455 16.9849 2.76875 16.6966 3.29417 16.8668C3.8193 17.0369 4.10748 17.6003 3.93773 18.1255L3.00609 20.9976L5.88206 20.1568C6.41214 20.0017 6.96725 20.3064 7.1223 20.8365C7.27724 21.3665 6.97361 21.9217 6.44359 22.0767L3.53734 22.9263C3.52952 22.9286 3.52177 22.9311 3.5139 22.9332C3.18444 23.0207 2.83746 23.023 2.50706 22.939C2.17689 22.855 1.87376 22.6877 1.62621 22.4537C1.37854 22.2194 1.19429 21.9254 1.09203 21.6002C0.989849 21.275 0.972229 20.929 1.04124 20.5953L1.06956 20.4898L2.03441 17.5103Z" fill="black"/>
</svg>
