<svg width="24" height="24" viewBox="0 0 24 24" fill="none" xmlns="http://www.w3.org/2000/svg">
<path d="M1 19.0004V11.0004C1.00001 10.4738 1.13909 9.9564 1.40234 9.50039C1.66565 9.04435 2.04395 8.66506 2.5 8.40176C2.97828 8.12568 3.59008 8.28971 3.86621 8.76797C4.14229 9.24625 3.97827 9.85806 3.5 10.1342C3.34802 10.2219 3.22154 10.3484 3.13379 10.5004C3.04616 10.6523 3 10.825 3 11.0004V19.0004C3.00011 19.2655 3.10553 19.52 3.29297 19.7074C3.48049 19.8948 3.73488 20.0004 4 20.0004H15C15.2651 20.0004 15.5195 19.8948 15.707 19.7074C15.8945 19.52 15.9999 19.2655 16 19.0004C16 18.4481 16.4477 18.0004 17 18.0004C17.5523 18.0004 18 18.4481 18 19.0004C17.9999 19.7959 17.6836 20.559 17.1211 21.1215C16.5585 21.684 15.7956 22.0004 15 22.0004H4C3.20445 22.0004 2.44149 21.684 1.87891 21.1215C1.3164 20.559 1.00011 19.7959 1 19.0004Z" fill="black"/>
<path d="M21.4541 4.66212C21.9169 4.36086 22.5365 4.4915 22.8379 4.95411C23.1392 5.41686 23.0085 6.03651 22.5459 6.3379L16.127 10.5166L16.1211 10.5205C15.6375 10.8311 15.0748 10.9961 14.5 10.9961C13.9252 10.9961 13.3626 10.8311 12.8789 10.5205L12.8731 10.5166L6.45411 6.3379C5.9915 6.03651 5.86086 5.41686 6.16212 4.95411C6.46352 4.4915 7.08317 4.36086 7.54591 4.66212L13.96 8.8379L14.085 8.90626C14.2148 8.96546 14.3563 8.99611 14.5 8.99611C14.6915 8.99611 14.8789 8.94131 15.0401 8.8379L21.4541 4.66212Z" fill="black"/>
<path d="M21 5C21 4.44772 20.5523 4 20 4H9C8.44772 4 8 4.44772 8 5V13C8 13.5523 8.44772 14 9 14H20C20.5523 14 21 13.5523 21 13V5ZM23 13C23 14.6569 21.6569 16 20 16H9C7.34315 16 6 14.6569 6 13V5C6 3.34315 7.34315 2 9 2H20C21.6569 2 23 3.34315 23 5V13Z" fill="black"/>
</svg>
