<svg width="24" height="24" viewBox="0 0 24 24" fill="none" xmlns="http://www.w3.org/2000/svg">
<path d="M11 22V19C11 18.4477 11.4477 18 12 18C12.5523 18 13 18.4477 13 19V22C13 22.5523 12.5523 23 12 23C11.4477 23 11 22.5523 11 22Z" fill="black"/>
<path d="M13.9996 9.34034V5.00636L13.9918 4.83839C13.9567 4.44947 13.8081 4.07817 13.5631 3.77101C13.283 3.41995 12.8929 3.1732 12.4557 3.07081C12.0185 2.9685 11.5597 3.01637 11.1529 3.20655C10.7461 3.39677 10.4153 3.71845 10.2135 4.11964C9.96526 4.61292 9.36404 4.81115 8.8707 4.563C8.37734 4.31481 8.1782 3.7136 8.42637 3.22023C8.8299 2.41813 9.49197 1.77546 10.3053 1.39503C11.1189 1.01462 12.0372 0.918822 12.9117 1.12355C13.7863 1.32832 14.5664 1.82182 15.1266 2.52394C15.6866 3.22594 15.9941 4.09567 15.9996 4.99366V9.34034C15.9994 9.89247 15.5518 10.3403 14.9996 10.3403C14.4476 10.3402 13.9998 9.89237 13.9996 9.34034Z" fill="black"/>
<path d="M4 12V10C4 9.44771 4.44772 9 5 9C5.55228 9 6 9.44771 6 10V12C5.99991 13.1868 6.35146 14.3472 7.01074 15.334C7.67002 16.3207 8.60771 17.0898 9.7041 17.5439C10.8004 17.998 12.0071 18.1163 13.1709 17.8848C14.3347 17.6532 15.4041 17.0823 16.2432 16.2432C16.6337 15.8527 17.2667 15.8527 17.6572 16.2432C18.0475 16.6337 18.0477 17.2668 17.6572 17.6572C16.5384 18.7761 15.1125 19.538 13.5605 19.8467C12.0087 20.1553 10.4002 19.9971 8.93848 19.3916C7.4766 18.7861 6.2267 17.76 5.34766 16.4443C4.52372 15.2109 4.06048 13.7743 4.00586 12.2959L4 12Z" fill="black"/>
<path d="M18.0004 10C18.0004 9.44771 18.4482 9 19.0004 9C19.5526 9.00019 20.0004 9.44783 20.0004 10V12.001C20 12.4722 19.9577 12.9424 19.8745 13.4062C19.7769 13.9499 19.2569 14.3114 18.7133 14.2139C18.17 14.1163 17.8084 13.5971 17.9057 13.0537C17.9681 12.706 18.0001 12.3532 18.0004 12V10Z" fill="black"/>
<path d="M1.29289 1.29289C1.68342 0.902369 2.31643 0.902369 2.70696 1.29289L22.707 21.2929C23.0975 21.6834 23.0975 22.3164 22.707 22.707C22.3164 23.0975 21.6834 23.0975 21.2929 22.707L1.29289 2.70696C0.902369 2.31643 0.902369 1.68342 1.29289 1.29289Z" fill="black"/>
<path d="M8 9C8 8.44772 8.44772 8 9 8C9.55228 8 10 8.44772 10 9V11.999L10.0059 12.1465C10.0315 12.4899 10.1455 12.8218 10.3379 13.1094C10.5577 13.4379 10.8702 13.6945 11.2354 13.8457C11.6004 13.9967 12.0021 14.036 12.3896 13.959C12.7774 13.882 13.1334 13.6915 13.4131 13.4121C13.8037 13.022 14.4369 13.0227 14.8271 13.4131C15.2173 13.8037 15.2175 14.4368 14.8271 14.8271C14.2678 15.3858 13.5548 15.7668 12.7793 15.9209C12.0039 16.0749 11.2001 15.9958 10.4697 15.6934C9.73927 15.3909 9.11438 14.8788 8.6748 14.2217C8.23525 13.5646 8.00071 12.7916 8 12.001V9Z" fill="black"/>
</svg>
