<svg width="24" height="24" viewBox="0 0 24 24" fill="none" xmlns="http://www.w3.org/2000/svg">
<path d="M11 12V10C11 9.44772 11.4477 9 12 9C12.5523 9 13 9.44772 13 10V12C13 12.5523 12.5523 13 12 13C11.4477 13 11 12.5523 11 12Z" fill="black"/>
<path d="M11 18V16C11 15.4477 11.4477 15 12 15C12.5523 15 13 15.4477 13 16V18C13 18.5523 12.5523 19 12 19C11.4477 19 11 18.5523 11 18Z" fill="black"/>
<path d="M15 12V10C15 9.44772 15.4477 9 16 9C16.5523 9 17 9.44772 17 10V12C17 12.5523 16.5523 13 16 13C15.4477 13 15 12.5523 15 12Z" fill="black"/>
<path d="M15 18V16C15 15.4477 15.4477 15 16 15C16.5523 15 17 15.4477 17 16V18C17 18.5523 16.5523 19 16 19C15.4477 19 15 18.5523 15 18Z" fill="black"/>
<path d="M3.5 10C4.05228 10 4.5 10.4477 4.5 11C4.5 11.5523 4.05228 12 3.5 12H2C1.44772 12 1 11.5523 1 11C1 10.4477 1.44772 10 2 10H3.5Z" fill="black"/>
<path d="M19 18V16C19 15.4477 19.4477 15 20 15C20.5523 15 21 15.4477 21 16V18C21 18.5523 20.5523 19 20 19C19.4477 19 19 18.5523 19 18Z" fill="black"/>
<path d="M22 10C22.5523 10 23 10.4477 23 11C23 11.5523 22.5523 12 22 12H20.5C19.9477 12 19.5 11.5523 19.5 11C19.5 10.4477 19.9477 10 20.5 10H22Z" fill="black"/>
<path d="M3 18V16C3 15.4477 3.44772 15 4 15C4.55228 15 5 15.4477 5 16V18C5 18.5523 4.55228 19 4 19C3.44772 19 3 18.5523 3 18Z" fill="black"/>
<path d="M7 12V10C7 9.44772 7.44772 9 8 9C8.55228 9 9 9.44772 9 10V12C9 12.5523 8.55228 13 8 13C7.44772 13 7 12.5523 7 12Z" fill="black"/>
<path d="M7 18V16C7 15.4477 7.44772 15 8 15C8.55228 15 9 15.4477 9 16V18C9 18.5523 8.55228 19 8 19C7.44772 19 7 18.5523 7 18Z" fill="black"/>
<path d="M21 8C21 7.44772 20.5523 7 20 7H4C3.44772 7 3 7.44772 3 8V14C3 14.5523 3.44772 15 4 15H20C20.5523 15 21 14.5523 21 14V8ZM23 14C23 15.6569 21.6569 17 20 17H4C2.34315 17 1 15.6569 1 14V8C1 6.34315 2.34315 5 4 5H20C21.6569 5 23 6.34315 23 8V14Z" fill="black"/>
</svg>
