<svg width="24" height="24" viewBox="0 0 24 24" fill="none" xmlns="http://www.w3.org/2000/svg">
<path d="M11 21V17C11 16.4477 11.4477 16 12 16C12.5523 16 13 16.4477 13 17V21C13 21.5523 12.5523 22 12 22C11.4477 22 11 21.5523 11 21Z" fill="black"/>
<path d="M1 15.0002V5.00019C0.99999 4.42092 1.16727 3.85342 1.48242 3.36738C1.79757 2.8814 2.24754 2.49726 2.77637 2.26094C3.28042 2.0359 3.8713 2.26191 4.09668 2.76582C4.32201 3.27004 4.09602 3.86178 3.5918 4.08711C3.4156 4.1659 3.26614 4.2943 3.16113 4.45625C3.05614 4.61823 3 4.80716 3 5.00019V15.0002C3.00005 15.2653 3.10547 15.5197 3.29297 15.7072C3.4805 15.8947 3.73482 16.0002 4 16.0002H17C17.5523 16.0002 18 16.4479 18 17.0002C17.9999 17.5524 17.5522 18.0002 17 18.0002H4C3.20439 18.0002 2.44151 17.6838 1.87891 17.1213C1.31634 16.5587 1.00005 15.7958 1 15.0002Z" fill="black"/>
<path d="M1.29289 1.29289C1.68342 0.902369 2.31643 0.902369 2.70696 1.29289L22.707 21.2929C23.0975 21.6834 23.0975 22.3164 22.707 22.707C22.3164 23.0975 21.6834 23.0975 21.2929 22.707L1.29289 2.70696C0.902369 2.31643 0.902369 1.68342 1.29289 1.29289Z" fill="black"/>
<path d="M16 20C16.5523 20 17 20.4477 17 21C17 21.5523 16.5523 22 16 22H8C7.44772 22 7 21.5523 7 21C7 20.4477 7.44772 20 8 20H16Z" fill="black"/>
<path d="M20.9998 15V5C20.9998 4.73478 20.8943 4.48051 20.7068 4.29297C20.5193 4.10551 20.2649 4 19.9998 4H8.65601C8.10372 4 7.65601 3.55228 7.65601 3C7.65601 2.44772 8.10372 2 8.65601 2H19.9998C20.7953 2 21.5583 2.31638 22.1208 2.87891C22.6835 3.44151 22.9998 4.20435 22.9998 5V15C22.9997 15.5515 22.8477 16.0928 22.5603 16.5635C22.2725 17.0345 21.6575 17.183 21.1863 16.8955C20.7149 16.6077 20.5655 15.9919 20.8533 15.5205C20.9251 15.4028 20.9722 15.2723 20.991 15.1367L20.9998 15Z" fill="black"/>
</svg>
