<svg width="24" height="24" viewBox="0 0 24 24" fill="none" xmlns="http://www.w3.org/2000/svg">
<path fill-rule="evenodd" clip-rule="evenodd" d="M8.79289 6.79289C9.18342 6.40237 9.81658 6.40237 10.2071 6.79289L15.2071 11.7929C15.5976 12.1834 15.5976 12.8166 15.2071 13.2071C14.8166 13.5976 14.1834 13.5976 13.7929 13.2071L8.79289 8.20711C8.40237 7.81658 8.40237 7.18342 8.79289 6.79289Z" fill="black"/>
<path fill-rule="evenodd" clip-rule="evenodd" d="M15.2071 6.79289C15.5976 7.18342 15.5976 7.81658 15.2071 8.20711L10.2071 13.2071C9.81658 13.5976 9.18342 13.5976 8.79289 13.2071C8.40237 12.8166 8.40237 12.1834 8.79289 11.7929L13.7929 6.79289C14.1834 6.40237 14.8166 6.40237 15.2071 6.79289Z" fill="black"/>
<path fill-rule="evenodd" clip-rule="evenodd" d="M4 4C3.44772 4 3 4.44772 3 5V15C3 15.5523 3.44772 16 4 16H20C20.5523 16 21 15.5523 21 15V5C21 4.44772 20.5523 4 20 4H4ZM1 5C1 3.34315 2.34315 2 4 2H20C21.6569 2 23 3.34315 23 5V15C23 16.6569 21.6569 18 20 18H4C2.34315 18 1 16.6569 1 15V5Z" fill="black"/>
<path fill-rule="evenodd" clip-rule="evenodd" d="M12 16C12.5523 16 13 16.4477 13 17V21C13 21.5523 12.5523 22 12 22C11.4477 22 11 21.5523 11 21V17C11 16.4477 11.4477 16 12 16Z" fill="black"/>
<path fill-rule="evenodd" clip-rule="evenodd" d="M7 21C7 20.4477 7.44772 20 8 20H16C16.5523 20 17 20.4477 17 21C17 21.5523 16.5523 22 16 22H8C7.44772 22 7 21.5523 7 21Z" fill="black"/>
</svg>
