<svg width="24" height="24" viewBox="0 0 24 24" fill="none" xmlns="http://www.w3.org/2000/svg">
<path d="M22 4C22.5523 4 23 4.44772 23 5C23 5.55228 22.5523 6 22 6H18C17.4477 6 17 5.55228 17 5C17 4.44772 17.4477 4 18 4H22Z" fill="black"/>
<path d="M19 7V3C19 2.44772 19.4477 2 20 2C20.5523 2 21 2.44772 21 3V7C21 7.55228 20.5523 8 20 8C19.4477 8 19 7.55228 19 7Z" fill="black"/>
<path d="M11.5811 2.01318C12.1854 2.02907 12.6375 2.40742 12.8477 2.84717C13.0629 3.29758 13.0621 3.86893 12.7618 4.34814L12.7608 4.34717C12.1619 5.30581 11.9063 6.43987 12.0342 7.56299C12.1622 8.68628 12.6674 9.73328 13.4668 10.5327C14.2663 11.332 15.3133 11.8364 16.4366 11.9644C17.5599 12.0922 18.6937 11.836 19.6524 11.2368L19.835 11.1382C20.2703 10.9405 20.7565 10.9617 21.1514 11.1499C21.6219 11.3742 22.0196 11.8752 21.9835 12.5405C21.8792 14.4693 21.2183 16.3268 20.0811 17.8882C18.9438 19.4496 17.3783 20.6484 15.5743 21.3394C13.7703 22.0302 11.8045 22.184 9.91509 21.7817C8.02573 21.3794 6.2938 20.4376 4.92779 19.0718C3.56173 17.7059 2.62036 15.9739 2.21783 14.0845C1.81531 12.195 1.96851 10.2294 2.65923 8.42529C3.34999 6.62115 4.54894 5.05596 6.1104 3.91846C7.67185 2.781 9.52906 2.11947 11.4581 2.01514L11.5811 2.01318ZM10.6211 4.12061C9.42062 4.33038 8.27898 4.81214 7.28716 5.53467C6.03822 6.44459 5.07997 7.69705 4.5274 9.14014C3.97481 10.5834 3.8519 12.156 4.17388 13.6675C4.4959 15.179 5.24897 16.5649 6.34185 17.6577C7.43473 18.7505 8.8205 19.5038 10.3321 19.8257C11.8437 20.1475 13.4162 20.0239 14.8594 19.4712C16.3026 18.9184 17.5551 17.9597 18.4649 16.7104C19.1871 15.7188 19.6673 14.5776 19.877 13.3774C18.7336 13.8927 17.4676 14.0949 16.21 13.9517C14.6373 13.7725 13.1711 13.0661 12.0518 11.9468C10.9326 10.8275 10.226 9.36126 10.0469 7.78857C9.90376 6.53075 10.1056 5.26417 10.6211 4.12061Z" fill="black"/>
</svg>
