<svg width="24" height="24" viewBox="0 0 24 24" fill="none" xmlns="http://www.w3.org/2000/svg">
<path fill-rule="evenodd" clip-rule="evenodd" d="M5.63604 3.63604C7.32387 1.94821 9.61305 1 12 1C14.3869 1 16.6761 1.94821 18.364 3.63604C20.0518 5.32387 21 7.61305 21 10C21 10.0021 21 10.0041 21 10.0062C20.9955 10.7301 20.9015 11.4507 20.7201 12.1515C20.5817 12.6862 20.0361 13.0075 19.5015 12.8691C18.9668 12.7307 18.6455 12.1851 18.7839 11.6505C18.9237 11.1103 18.9963 10.5549 19 9.99693C18.9992 8.14152 18.2618 6.36228 16.9497 5.05025C15.637 3.7375 13.8565 3 12 3C10.1435 3 8.36301 3.7375 7.05025 5.05025C5.7375 6.36301 5 8.14348 5 10C5 12.1593 6.21668 14.4867 7.79774 16.564C9.32623 18.5722 11.0802 20.1984 12.0004 20.9969C12.0131 20.986 12.0258 20.9751 12.0385 20.9642C12.4571 20.6038 13.0885 20.651 13.4488 21.0695C13.8092 21.4881 13.762 22.1195 13.3435 22.4798C13.312 22.5069 13.2804 22.534 13.2487 22.5609C13.2335 22.5738 13.2179 22.5863 13.202 22.5982C12.8554 22.8588 12.4336 22.9998 12 22.9998C11.5664 22.9998 11.1446 22.8588 10.798 22.5982C10.78 22.5847 10.7625 22.5706 10.7455 22.5559C9.79028 21.7312 7.88287 19.9781 6.20626 17.7753C4.55282 15.6028 3 12.8337 3 10C3 7.61305 3.94821 5.32387 5.63604 3.63604Z" fill="black"/>
<path fill-rule="evenodd" clip-rule="evenodd" d="M12 8C10.8954 8 10 8.89543 10 10C10 11.1046 10.8954 12 12 12C13.1046 12 14 11.1046 14 10C14 8.89543 13.1046 8 12 8ZM8 10C8 7.79086 9.79086 6 12 6C14.2091 6 16 7.79086 16 10C16 12.2091 14.2091 14 12 14C9.79086 14 8 12.2091 8 10Z" fill="black"/>
<path fill-rule="evenodd" clip-rule="evenodd" d="M22.2071 14.7929C22.5976 15.1834 22.5976 15.8166 22.2071 16.2071L17.2071 21.2071C16.8166 21.5976 16.1834 21.5976 15.7929 21.2071C15.4024 20.8166 15.4024 20.1834 15.7929 19.7929L20.7929 14.7929C21.1834 14.4024 21.8166 14.4024 22.2071 14.7929Z" fill="black"/>
<path fill-rule="evenodd" clip-rule="evenodd" d="M15.7929 14.7929C16.1834 14.4024 16.8166 14.4024 17.2071 14.7929L22.2071 19.7929C22.5976 20.1834 22.5976 20.8166 22.2071 21.2071C21.8166 21.5976 21.1834 21.5976 20.7929 21.2071L15.7929 16.2071C15.4024 15.8166 15.4024 15.1834 15.7929 14.7929Z" fill="black"/>
</svg>
