<svg width="24" height="24" viewBox="0 0 24 24" fill="none" xmlns="http://www.w3.org/2000/svg">
<path d="M14 11C14.5523 11 15 11.4477 15 12C15 12.5523 14.5523 13 14 13H10C9.44772 13 9 12.5523 9 12C9 11.4477 9.44772 11 10 11H14Z" fill="black"/>
<path d="M14 16C14.5523 16 15 16.4477 15 17C15 17.5523 14.5523 18 14 18H10C9.44772 18 9 17.5523 9 17C9 16.4477 9.44772 16 10 16H14Z" fill="black"/>
<path d="M14 6C14.5523 6 15 6.44772 15 7C15 7.55228 14.5523 8 14 8H10C9.44772 8 9 7.55228 9 7C9 6.44772 9.44772 6 10 6H14Z" fill="black"/>
<path d="M20 11C20.5523 11 21 11.4477 21 12C21 12.5523 20.5523 13 20 13H18C17.4477 13 17 12.5523 17 12C17 11.4477 17.4477 11 18 11H20Z" fill="black"/>
<path d="M20 17C20.5523 17 21 17.4477 21 18C21 18.5523 20.5523 19 20 19H18C17.4477 19 17 18.5523 17 18C17 17.4477 17.4477 17 18 17H20Z" fill="black"/>
<path d="M20 5C20.5523 5 21 5.44772 21 6C21 6.55228 20.5523 7 20 7H18C17.4477 7 17 6.55228 17 6C17 5.44772 17.4477 5 18 5H20Z" fill="black"/>
<path d="M6 11C6.55228 11 7 11.4477 7 12C7 12.5523 6.55228 13 6 13H4C3.44772 13 3 12.5523 3 12C3 11.4477 3.44772 11 4 11H6Z" fill="black"/>
<path d="M6 17C6.55228 17 7 17.4477 7 18C7 18.5523 6.55228 19 6 19H4C3.44772 19 3 18.5523 3 18C3 17.4477 3.44772 17 4 17H6Z" fill="black"/>
<path d="M6 5C6.55228 5 7 5.44772 7 6C7 6.55228 6.55228 7 6 7H4C3.44772 7 3 6.55228 3 6C3 5.44772 3.44772 5 4 5H6Z" fill="black"/>
<path d="M17 4C17 3.44772 16.5523 3 16 3H8C7.44772 3 7 3.44772 7 4V20C7 20.5523 7.44772 21 8 21H16C16.5523 21 17 20.5523 17 20V4ZM19 20C19 21.6569 17.6569 23 16 23H8C6.34315 23 5 21.6569 5 20V4C5 2.34315 6.34315 1 8 1H16C17.6569 1 19 2.34315 19 4V20Z" fill="black"/>
</svg>
