<svg width="24" height="24" viewBox="0 0 24 24" fill="none" xmlns="http://www.w3.org/2000/svg">
<path d="M9.29302 8.29302C9.68354 7.90249 10.3166 7.90249 10.7071 8.29302C11.0976 8.68354 11.0976 9.31655 10.7071 9.70708L8.41411 12L10.7071 14.293C11.0976 14.6835 11.0976 15.3166 10.7071 15.7071C10.3166 16.0976 9.68354 16.0976 9.29302 15.7071L6.29302 12.7071C5.90249 12.3166 5.90249 11.6835 6.29302 11.293L9.29302 8.29302Z" fill="black"/>
<path d="M13.293 8.29302C13.6835 7.90249 14.3166 7.90249 14.7071 8.29302L17.7071 11.293C18.0976 11.6835 18.0976 12.3166 17.7071 12.7071L14.7071 15.7071C14.3166 16.0976 13.6835 16.0976 13.293 15.7071C12.9025 15.3166 12.9025 14.6835 13.293 14.293L15.586 12L13.293 9.70708C12.9025 9.31655 12.9025 8.68354 13.293 8.29302Z" fill="black"/>
<path d="M5.60582 3.0501C7.71517 1.54322 10.2893 0.829698 12.8734 1.03545C15.4576 1.24131 17.8865 2.3532 19.7308 4.1751C21.5749 5.99688 22.717 8.41117 22.9544 10.9925C23.1918 13.5739 22.5096 16.1568 21.0287 18.2845C19.5476 20.4122 17.3621 21.9486 14.8587 22.6224C12.3748 23.2908 9.73618 23.0667 7.40074 21.9915C7.23783 21.9323 7.0627 21.9166 6.89195 21.9456L3.53746 22.9271C3.52965 22.9293 3.52188 22.9318 3.51402 22.9339C3.18481 23.0213 2.83829 23.0226 2.50816 22.9388C2.17815 22.8549 1.87484 22.6882 1.6273 22.4544C1.3797 22.2204 1.19556 21.9268 1.09312 21.6019C0.990728 21.2771 0.972837 20.9315 1.04136 20.5979L1.06968 20.4905L2.11265 17.2688C2.14828 17.0849 2.13313 16.8951 2.06578 16.72C0.962717 14.3982 0.706167 11.7632 1.3441 9.27178C1.98715 6.76056 3.4966 4.55704 5.60582 3.0501ZM12.7152 3.02861C10.6008 2.86019 8.49481 3.44413 6.7689 4.67705C5.04298 5.91001 3.80777 7.71308 3.2816 9.76787C2.78838 11.6941 2.94829 13.7255 3.72886 15.5462L3.89293 15.9075L3.92125 15.9739C4.14171 16.5302 4.19147 17.1395 4.06285 17.7239C4.05596 17.7552 4.04732 17.7862 4.03746 17.8167L3.00718 20.9974L6.38902 20.0091C6.41739 20.0008 6.44694 19.9943 6.47593 19.9886C6.95851 19.8929 7.45616 19.9165 7.92515 20.0579L8.12437 20.1263L8.19175 20.1546C10.1136 21.0521 12.291 21.242 14.3392 20.6907C16.3874 20.1395 18.1753 18.8827 19.3871 17.1419C20.5988 15.4011 21.1565 13.2882 20.9623 11.1761C20.768 9.06406 19.8343 7.08855 18.3255 5.59795C16.8166 4.10734 14.8295 3.19708 12.7152 3.02861Z" fill="black"/>
</svg>
