<svg width="24" height="24" viewBox="0 0 24 24" fill="none" xmlns="http://www.w3.org/2000/svg">
<path fill-rule="evenodd" clip-rule="evenodd" d="M5 2C5.55228 2 6 2.44772 6 3V18H21C21.5523 18 22 18.4477 22 19C22 19.5523 21.5523 20 21 20H5C4.44772 20 4 19.5523 4 19V3C4 2.44772 4.44772 2 5 2Z" fill="black"/>
<path fill-rule="evenodd" clip-rule="evenodd" d="M11.7071 12.2929C12.0976 12.6834 12.0976 13.3166 11.7071 13.7071L5.70711 19.7071C5.31658 20.0976 4.68342 20.0976 4.29289 19.7071C3.90237 19.3166 3.90237 18.6834 4.29289 18.2929L10.2929 12.2929C10.6834 11.9024 11.3166 11.9024 11.7071 12.2929Z" fill="black"/>
<path fill-rule="evenodd" clip-rule="evenodd" d="M4.29289 2.29289C4.68342 1.90237 5.31658 1.90237 5.70711 2.29289L8.70711 5.29289C9.09763 5.68342 9.09763 6.31658 8.70711 6.70711C8.31658 7.09763 7.68342 7.09763 7.29289 6.70711L5 4.41421L2.70711 6.70711C2.31658 7.09763 1.68342 7.09763 1.29289 6.70711C0.902369 6.31658 0.902369 5.68342 1.29289 5.29289L4.29289 2.29289Z" fill="black"/>
<path fill-rule="evenodd" clip-rule="evenodd" d="M17.2929 15.2929C17.6834 14.9024 18.3166 14.9024 18.7071 15.2929L21.7071 18.2929C22.0976 18.6834 22.0976 19.3166 21.7071 19.7071L18.7071 22.7071C18.3166 23.0976 17.6834 23.0976 17.2929 22.7071C16.9024 22.3166 16.9024 21.6834 17.2929 21.2929L19.5858 19L17.2929 16.7071C16.9024 16.3166 16.9024 15.6834 17.2929 15.2929Z" fill="black"/>
</svg>
