<svg width="24" height="24" viewBox="0 0 24 24" fill="none" xmlns="http://www.w3.org/2000/svg">
<path fill-rule="evenodd" clip-rule="evenodd" d="M1.87867 3.87868C2.44128 3.31607 3.20435 3 3.99999 3H20C20.7956 3 21.5587 3.31607 22.1213 3.87868C22.6839 4.44129 23 5.20435 23 6V12.5C23 13.0523 22.5523 13.5 22 13.5C21.4477 13.5 21 13.0523 21 12.5V6C21 5.73478 20.8946 5.48043 20.7071 5.29289C20.5196 5.10536 20.2652 5 20 5H3.99999C3.73478 5 3.48042 5.10536 3.29289 5.29289C3.10535 5.48043 2.99999 5.73478 2.99999 6V18C2.99999 18.5477 3.45228 19 3.99999 19H11.5C12.0523 19 12.5 19.4477 12.5 20C12.5 20.5523 12.0523 21 11.5 21H3.99999C2.34771 21 0.999995 19.6523 0.999995 18V6C0.999995 5.20435 1.31607 4.44129 1.87867 3.87868Z" fill="black"/>
<path fill-rule="evenodd" clip-rule="evenodd" d="M1.15599 6.46367C1.4522 5.99754 2.0702 5.85978 2.53633 6.15599L11.5031 11.854C11.6522 11.9468 11.8243 11.996 12 11.996C12.1756 11.996 12.3477 11.9468 12.4968 11.854L21.4637 6.15599C21.9298 5.85978 22.5478 5.99754 22.844 6.46367C23.1402 6.92981 23.0025 7.5478 22.5363 7.84401L13.5663 13.544C13.5645 13.5452 13.5627 13.5463 13.5609 13.5474C13.0931 13.8405 12.5521 13.996 12 13.996C11.4479 13.996 10.9069 13.8405 10.4391 13.5474C10.4373 13.5463 10.4355 13.5452 10.4337 13.544L1.46368 7.84401C0.997543 7.5478 0.859789 6.92981 1.15599 6.46367Z" fill="black"/>
<path fill-rule="evenodd" clip-rule="evenodd" d="M15.1716 15.1716C15.9217 14.4214 16.9391 14 18 14C19.0609 14 20.0783 14.4214 20.8284 15.1716C21.5786 15.9217 22 16.9391 22 18C22 19.0609 21.5786 20.0783 20.8284 20.8284C20.0783 21.5786 19.0609 22 18 22C16.9391 22 15.9217 21.5786 15.1716 20.8284C14.4214 20.0783 14 19.0609 14 18C14 16.9391 14.4214 15.9217 15.1716 15.1716ZM18 16C17.4696 16 16.9609 16.2107 16.5858 16.5858C16.2107 16.9609 16 17.4696 16 18C16 18.5304 16.2107 19.0391 16.5858 19.4142C16.9609 19.7893 17.4696 20 18 20C18.5304 20 19.0391 19.7893 19.4142 19.4142C19.7893 19.0391 20 18.5304 20 18C20 17.4696 19.7893 16.9609 19.4142 16.5858C19.0391 16.2107 18.5304 16 18 16Z" fill="black"/>
<path fill-rule="evenodd" clip-rule="evenodd" d="M18 16C16.8954 16 16 16.8954 16 18C16 19.1046 16.8954 20 18 20C19.1046 20 20 19.1046 20 18C20 16.8954 19.1046 16 18 16ZM14 18C14 15.7909 15.7909 14 18 14C20.2091 14 22 15.7909 22 18C22 20.2091 20.2091 22 18 22C15.7909 22 14 20.2091 14 18Z" fill="black"/>
<path fill-rule="evenodd" clip-rule="evenodd" d="M19.7929 19.7929C20.1834 19.4024 20.8166 19.4024 21.2071 19.7929L22.7071 21.2929C23.0976 21.6834 23.0976 22.3166 22.7071 22.7071C22.3166 23.0976 21.6834 23.0976 21.2929 22.7071L19.7929 21.2071C19.4024 20.8166 19.4024 20.1834 19.7929 19.7929Z" fill="black"/>
</svg>
