<svg width="24" height="24" viewBox="0 0 24 24" fill="none" xmlns="http://www.w3.org/2000/svg">
<path fill-rule="evenodd" clip-rule="evenodd" d="M1.87867 3.87868C2.44128 3.31607 3.20435 3 3.99999 3H20C20.7956 3 21.5587 3.31607 22.1213 3.87868C22.6839 4.44129 23 5.20435 23 6V10.5C23 11.0523 22.5523 11.5 22 11.5C21.4477 11.5 21 11.0523 21 10.5V6C21 5.73478 20.8946 5.48043 20.7071 5.29289C20.5196 5.10536 20.2652 5 20 5H3.99999C3.73478 5 3.48042 5.10536 3.29289 5.29289C3.10535 5.48043 2.99999 5.73478 2.99999 6V18C2.99999 18.5477 3.45228 19 3.99999 19H16.5C17.0523 19 17.5 19.4477 17.5 20C17.5 20.5523 17.0523 21 16.5 21H3.99999C2.34771 21 0.999995 19.6523 0.999995 18V6C0.999995 5.20435 1.31607 4.44129 1.87867 3.87868Z" fill="black"/>
<path fill-rule="evenodd" clip-rule="evenodd" d="M1.15599 6.46367C1.4522 5.99754 2.0702 5.85978 2.53633 6.15599L11.5031 11.854C11.6522 11.9468 11.8243 11.996 12 11.996C12.1756 11.996 12.3477 11.9468 12.4968 11.854L21.4637 6.15599C21.9298 5.85978 22.5478 5.99754 22.844 6.46367C23.1402 6.92981 23.0025 7.5478 22.5363 7.84401L13.5663 13.544C13.5645 13.5452 13.5627 13.5463 13.5609 13.5474C13.0931 13.8405 12.5521 13.996 12 13.996C11.4479 13.996 10.9069 13.8405 10.4391 13.5474C10.4373 13.5463 10.4355 13.5452 10.4337 13.544L1.46368 7.84401C0.997543 7.5478 0.859789 6.92981 1.15599 6.46367Z" fill="black"/>
<path fill-rule="evenodd" clip-rule="evenodd" d="M20 13C20.5523 13 21 13.4477 21 14V18C21 18.5523 20.5523 19 20 19C19.4477 19 19 18.5523 19 18V14C19 13.4477 19.4477 13 20 13Z" fill="black"/>
<path fill-rule="evenodd" clip-rule="evenodd" d="M20 21C20.5523 21 21 21.4477 21 22V22.01C21 22.5623 20.5523 23.01 20 23.01C19.4477 23.01 19 22.5623 19 22.01V22C19 21.4477 19.4477 21 20 21Z" fill="black"/>
</svg>
