<svg width="24" height="24" viewBox="0 0 24 24" fill="none" xmlns="http://www.w3.org/2000/svg">
<path fill-rule="evenodd" clip-rule="evenodd" d="M12 3C10.6739 3 9.40212 3.52678 8.46444 4.46447C7.52676 5.40215 6.99998 6.67392 6.99998 8C6.99998 9.48054 7.81012 11.1217 8.9313 12.6481C10.002 14.1058 11.2542 15.3224 12 15.996C12.746 15.3226 13.9983 14.106 15.069 12.6482C16.19 11.1218 17 9.48061 17 8C17 6.67392 16.4732 5.40215 15.5355 4.46447C14.5978 3.52678 13.3261 3 12 3ZM7.05023 3.05025C8.36298 1.7375 10.1435 1 12 1C13.8565 1 15.637 1.7375 16.9497 3.05025C18.2625 4.36301 19 6.14348 19 8C19 10.1324 17.8754 12.2057 16.681 13.8321C15.4656 15.4869 14.0611 16.8345 13.2744 17.5397C13.2549 17.5571 13.2348 17.5738 13.214 17.5897C12.8653 17.856 12.4387 18.0003 12 18.0003C11.5612 18.0003 11.1347 17.856 10.786 17.5897C10.7651 17.5737 10.7448 17.557 10.7253 17.5394C9.93933 16.8345 8.53485 15.4869 7.3194 13.8321C6.12483 12.2058 4.99998 10.1325 4.99998 8C4.99998 6.14348 5.73747 4.36301 7.05023 3.05025Z" fill="black"/>
<path fill-rule="evenodd" clip-rule="evenodd" d="M12 7C11.4477 7 11 7.44771 11 8C11 8.55228 11.4477 9 12 9C12.5523 9 13 8.55228 13 8C13 7.44771 12.5523 7 12 7ZM8.99998 8C8.99998 6.34315 10.3431 5 12 5C13.6568 5 15 6.34315 15 8C15 9.65685 13.6568 11 12 11C10.3431 11 8.99998 9.65685 8.99998 8Z" fill="black"/>
<path fill-rule="evenodd" clip-rule="evenodd" d="M5.00352 13H8.71394C9.26623 13 9.71394 13.4477 9.71394 14C9.71394 14.5523 9.26623 15 8.71394 15H5.00437L3.00037 21H20.9992L18.9993 15.0002L15.2869 15C14.7347 15 14.2869 14.5523 14.2869 14C14.2869 13.4477 14.7347 13 15.2869 13H18.9987C18.9986 13 18.9988 13 18.9987 13C19.4185 12.9999 19.828 13.132 20.1686 13.3775C20.5093 13.6231 20.764 13.9696 20.8967 14.368L22.8967 20.368C22.9968 20.6685 23.0241 20.9885 22.9763 21.3016C22.9285 21.6147 22.8071 21.912 22.622 22.169C22.4368 22.426 22.1933 22.6353 21.9114 22.7798C21.6296 22.9243 21.3174 22.9998 21.0007 23H2.99952C2.68255 22.9999 2.37015 22.9244 2.08807 22.7798C1.806 22.6352 1.56233 22.4257 1.37716 22.1684C1.19198 21.9112 1.0706 21.6136 1.02302 21.3002C0.975459 20.9869 1.00302 20.6668 1.10345 20.3662C1.10342 20.3663 1.10347 20.3661 1.10345 20.3662L3.10752 14.366C3.24045 13.9683 3.49503 13.6224 3.83526 13.3773C4.1755 13.1322 4.58417 13.0002 5.00352 13Z" fill="black"/>
</svg>
