<svg width="24" height="24" viewBox="0 0 24 24" fill="none" xmlns="http://www.w3.org/2000/svg">
<path d="M20 9V4H15C14.4477 4 14 3.55228 14 3C14 2.44772 14.4477 2 15 2H21C21.5523 2 22 2.44772 22 3V9C22 9.55228 21.5523 10 21 10C20.4477 10 20 9.55228 20 9Z" fill="black"/>
<path d="M20.2929 2.29302C20.6834 1.90249 21.3164 1.90249 21.707 2.29302C22.0975 2.68354 22.0975 3.31655 21.707 3.70708L14.707 10.7071C14.3164 11.0976 13.6834 11.0976 13.2929 10.7071C12.9024 10.3166 12.9024 9.68354 13.2929 9.29302L20.2929 2.29302Z" fill="black"/>
<path d="M9.29289 13.293C9.68342 12.9025 10.3164 12.9025 10.707 13.293C11.0975 13.6835 11.0975 14.3166 10.707 14.7071L3.70696 21.7071C3.31643 22.0976 2.68342 22.0976 2.29289 21.7071C1.90237 21.3166 1.90237 20.6835 2.29289 20.293L9.29289 13.293Z" fill="black"/>
<path d="M2 15C2 14.4477 2.44772 14 3 14C3.55228 14 4 14.4477 4 15V20H9C9.55228 20 10 20.4477 10 21C10 21.5523 9.55228 22 9 22H3C2.44772 22 2 21.5523 2 21V15Z" fill="black"/>
</svg>
