<svg width="24" height="24" viewBox="0 0 24 24" fill="none" xmlns="http://www.w3.org/2000/svg">
<path fill-rule="evenodd" clip-rule="evenodd" d="M5 18C5 17.4477 5.44772 17 6 17H14C14.5523 17 15 17.4477 15 18C15 18.5523 14.5523 19 14 19H6C5.44772 19 5 18.5523 5 18Z" fill="black"/>
<path fill-rule="evenodd" clip-rule="evenodd" d="M2 22C2 21.4477 2.44772 21 3 21H21C21.5523 21 22 21.4477 22 22C22 22.5523 21.5523 23 21 23H3C2.44772 23 2 22.5523 2 22Z" fill="black"/>
<path fill-rule="evenodd" clip-rule="evenodd" d="M12 8C12 7.44772 12.4477 7 13 7H14C16.1217 7 18.1566 7.84286 19.6569 9.34315C21.1571 10.8434 22 12.8783 22 15C22 17.1217 21.1571 19.1566 19.6569 20.6569C18.1566 22.1571 16.1217 23 14 23C13.4477 23 13 22.5523 13 22C13 21.4477 13.4477 21 14 21C15.5913 21 17.1174 20.3679 18.2426 19.2426C19.3679 18.1174 20 16.5913 20 15C20 13.4087 19.3679 11.8826 18.2426 10.7574C17.1174 9.63214 15.5913 9 14 9H13C12.4477 9 12 8.55228 12 8Z" fill="black"/>
<path fill-rule="evenodd" clip-rule="evenodd" d="M8 14C8 13.4477 8.44772 13 9 13H11C11.5523 13 12 13.4477 12 14C12 14.5523 11.5523 15 11 15H9C8.44772 15 8 14.5523 8 14Z" fill="black"/>
<path fill-rule="evenodd" clip-rule="evenodd" d="M6 6C6 5.44772 6.44772 5 7 5H13C13.5523 5 14 5.44772 14 6V10C14 10.7957 13.6839 11.5587 13.1213 12.1213C12.5587 12.6839 11.7957 13 11 13H9C8.20435 13 7.44129 12.6839 6.87868 12.1213C6.31607 11.5587 6 10.7956 6 10V6ZM8 7V10C8 10.2652 8.10536 10.5196 8.29289 10.7071C8.48043 10.8946 8.73478 11 9 11H11C11.2652 11 11.5196 10.8946 11.7071 10.7071C11.8946 10.5196 12 10.2652 12 10V7H8Z" fill="black"/>
<path fill-rule="evenodd" clip-rule="evenodd" d="M7.58579 1.58579C7.96086 1.21071 8.46957 1 9 1H11C11.5304 1 12.0391 1.21071 12.4142 1.58579C12.7893 1.96086 13 2.46957 13 3V6C13 6.55228 12.5523 7 12 7C11.4477 7 11 6.55228 11 6V3H9V6C9 6.55228 8.55228 7 8 7C7.44772 7 7 6.55228 7 6V3C7 2.46957 7.21071 1.96086 7.58579 1.58579Z" fill="black"/>
</svg>
