<svg width="24" height="24" viewBox="0 0 24 24" fill="none" xmlns="http://www.w3.org/2000/svg">
<path d="M1 9.99999C0.998996 7.6803 1.89331 5.44942 3.49707 3.77343C5.10094 2.09733 7.29075 1.10588 9.6084 1.00487C11.9259 0.903937 14.193 1.70135 15.9365 3.23144C17.6801 4.76165 18.7651 6.90661 18.9658 9.21776C19.0134 9.7678 18.6067 10.2519 18.0566 10.2998C17.5065 10.3476 17.0215 9.94075 16.9736 9.39062C16.8175 7.59313 15.9732 5.9255 14.6172 4.73534C13.2611 3.5452 11.4979 2.92438 9.69531 3.00292C7.89274 3.08148 6.18983 3.85266 4.94238 5.15624C3.69503 6.45977 2.99925 8.19484 3 9.99901C3.00002 12.0234 4.06999 14.2009 5.51856 16.1885C6.94848 18.1504 8.64606 19.7919 9.6875 20.7217C10.0995 21.0895 10.1354 21.7218 9.76758 22.1338C9.39982 22.5456 8.7684 22.5814 8.35645 22.2139C7.26289 21.2376 5.44946 19.4899 3.90234 17.3672C2.42162 15.3355 1.08604 12.828 1.00391 10.25L1 9.99999Z" fill="black"/>
<path d="M21 15.1238C21 14.8257 20.8817 14.5397 20.6709 14.3289C20.4601 14.1181 20.1741 13.9998 19.876 13.9998C19.6149 13.9998 19.3632 14.0905 19.1631 14.2547L19.0811 14.3289L15.0713 18.3406C14.9524 18.4594 14.8655 18.607 14.8184 18.7683L14.2364 20.7625L16.2315 20.1804C16.3923 20.1333 16.5387 20.0469 16.6573 19.9285L20.6709 15.9187L20.7451 15.8367C20.9093 15.6366 21 15.3849 21 15.1238ZM23 15.1238C23 15.9524 22.6708 16.7469 22.085 17.3328L18.0713 21.3426C17.715 21.6987 17.2747 21.9591 16.791 22.1004L13.9209 22.9383C13.6629 23.0135 13.3893 23.0176 13.1289 22.951C12.8684 22.8842 12.6306 22.7485 12.4405 22.5584C12.2503 22.3682 12.1146 22.1304 12.0479 21.8699C11.9812 21.6095 11.9853 21.3359 12.0606 21.0779L12.8985 18.2078L12.9571 18.0281C13.1065 17.6149 13.3445 17.2383 13.6563 16.9265L17.667 12.9148C18.2529 12.329 19.0475 11.9998 19.876 11.9998C20.7045 11.9998 21.4991 12.329 22.085 12.9148C22.6708 13.5007 23 14.2953 23 15.1238Z" fill="black"/>
<path d="M12 9.99993C12 8.89536 11.1046 7.99993 10 7.99993C8.89543 7.99993 8 8.89536 8 9.99993C8 11.1045 8.89543 11.9999 10 11.9999C11.1046 11.9999 12 11.1045 12 9.99993ZM14 9.99993C14 12.2091 12.2091 13.9999 10 13.9999C7.79086 13.9999 6 12.2091 6 9.99993C6 7.79079 7.79086 5.99993 10 5.99993C12.2091 5.99993 14 7.79079 14 9.99993Z" fill="black"/>
</svg>
