<svg width="24" height="24" viewBox="0 0 24 24" fill="none" xmlns="http://www.w3.org/2000/svg">
<path d="M16.6836 10.0517C17.2074 9.87708 17.7735 10.1598 17.9482 10.6835L18.9482 13.6835C19.1229 14.2074 18.8402 14.7734 18.3164 14.9482C17.7926 15.1228 17.2265 14.8401 17.0518 14.3163L16.0518 11.3163C15.8771 10.7925 16.1598 10.2265 16.6836 10.0517Z" fill="black"/>
<path d="M13 7.99994L13.2783 8.01263C13.9234 8.07292 14.5346 8.34099 15.0176 8.78021C15.5695 9.28217 15.9144 9.97215 15.9854 10.7148C16.0378 11.2646 15.6347 11.7531 15.085 11.8056C14.5353 11.858 14.0467 11.4549 13.9941 10.9052C13.9705 10.6576 13.8558 10.427 13.6719 10.2597C13.5108 10.1133 13.3069 10.0239 13.0918 10.0038L13 9.99994H11C10.7348 9.99994 10.4805 10.1054 10.293 10.2929C10.1054 10.4804 10 10.7347 10 10.9999C10 11.3214 9.84571 11.6235 9.58496 11.8115C9.32419 11.9994 8.98854 12.0498 8.68359 11.9482L2.68359 9.94818C2.15984 9.77342 1.87714 9.20738 2.05176 8.68353C2.22652 8.15977 2.79256 7.87708 3.31641 8.05169L8.29395 9.71087C8.43952 9.40527 8.63498 9.12277 8.87891 8.87884C9.44151 8.31623 10.2043 7.99994 11 7.99994H13Z" fill="black"/>
<path d="M11 15.9999C11 14.1434 11.7371 12.3625 13.0498 11.0497C14.3626 9.73699 16.1435 8.99994 18 8.99994V8.34076C17.8177 7.32454 17.2502 6.41689 16.4131 5.80951C15.9661 5.48526 15.8663 4.86004 16.1904 4.41302C16.5147 3.96607 17.1399 3.86628 17.5869 4.19037C18.8711 5.12195 19.7344 6.52459 19.9873 8.09076C19.9958 8.14339 20 8.19662 20 8.24994V8.99994C20 9.53037 19.7891 10.0389 19.4141 10.414C19.039 10.7891 18.5304 10.9999 18 10.9999C16.6739 10.9999 15.4025 11.5271 14.4648 12.4648C13.5272 13.4025 13 14.6739 13 15.9999C13 16.5304 12.7891 17.0389 12.4141 17.414C12.039 17.7891 11.5304 17.9999 11 17.9999H8C7.44772 17.9999 7 17.5522 7 16.9999C7 16.4476 7.44772 15.9999 8 15.9999H11Z" fill="black"/>
<path d="M21 16.9999C21 15.8954 20.1046 14.9999 19 14.9999C17.8954 14.9999 17 15.8954 17 16.9999C17 18.1045 17.8954 18.9999 19 18.9999C20.1046 18.9999 21 18.1045 21 16.9999ZM23 16.9999C23 19.2091 21.2091 20.9999 19 20.9999C16.7909 20.9999 15 19.2091 15 16.9999C15 14.7908 16.7909 12.9999 19 12.9999C21.2091 12.9999 23 14.7908 23 16.9999Z" fill="black"/>
<path d="M7 16.9999C7 15.8954 6.10457 14.9999 5 14.9999C3.89543 14.9999 3 15.8954 3 16.9999C3 18.1045 3.89543 18.9999 5 18.9999C6.10457 18.9999 7 18.1045 7 16.9999ZM9 16.9999C9 19.2091 7.20914 20.9999 5 20.9999C2.79086 20.9999 1 19.2091 1 16.9999C1 14.7908 2.79086 12.9999 5 12.9999C7.20914 12.9999 9 14.7908 9 16.9999Z" fill="black"/>
</svg>
