<svg width="24" height="24" viewBox="0 0 24 24" fill="none" xmlns="http://www.w3.org/2000/svg">
<path d="M14.9996 11C14.9996 10.7348 14.8942 10.4805 14.7067 10.293C14.5191 10.1056 14.2647 10 13.9996 10H13.8297C13.406 9.99987 13.0285 9.73246 12.8873 9.33301C12.7651 8.98746 12.5502 8.68193 12.2662 8.45019C11.9823 8.21848 11.64 8.06901 11.277 8.01855C10.9138 7.96814 10.5431 8.01939 10.2067 8.16504C9.87042 8.3107 9.58041 8.54559 9.36876 8.84473C9.15707 9.14393 9.03187 9.4957 9.00646 9.86133C8.98109 10.2271 9.0568 10.5933 9.22521 10.9189C9.39361 11.2445 9.64849 11.5174 9.96153 11.708C10.2746 11.8987 10.634 11.9998 11.0006 12H13.9996C14.2647 12 14.5191 11.8944 14.7067 11.707C14.8942 11.5195 14.9996 11.2652 14.9996 11ZM16.9996 11C16.9996 11.7955 16.6841 12.5585 16.1217 13.1211C15.5591 13.6837 14.7953 14 13.9996 14H10.9996C10.2664 13.9996 9.54676 13.7974 8.92052 13.416C8.29464 13.0347 7.78557 12.4888 7.44884 11.8379C7.11208 11.1867 6.96068 10.455 7.01134 9.72363C7.06207 8.99215 7.31245 8.28803 7.73595 7.68945C8.15944 7.09091 8.73984 6.62039 9.41271 6.3291C10.0855 6.03792 10.8253 5.93732 11.5514 6.03808C12.2776 6.13892 12.9628 6.43777 13.5309 6.90137C13.9205 7.2194 14.2427 7.60795 14.4869 8.04297C15.1018 8.14422 15.6753 8.43252 16.1217 8.87891C16.6841 9.44149 16.9996 10.2045 16.9996 11Z" fill="black"/>
<path d="M11 21V17C11 16.4477 11.4477 16 12 16C12.5523 16 13 16.4477 13 17V21C13 21.5523 12.5523 22 12 22C11.4477 22 11 21.5523 11 21Z" fill="black"/>
<path d="M16 20C16.5523 20 17 20.4477 17 21C17 21.5523 16.5523 22 16 22H8C7.44772 22 7 21.5523 7 21C7 20.4477 7.44772 20 8 20H16Z" fill="black"/>
<path d="M21 5C21 4.44772 20.5523 4 20 4H4C3.44772 4 3 4.44772 3 5V15C3 15.5523 3.44772 16 4 16H20C20.5523 16 21 15.5523 21 15V5ZM23 15C23 16.6569 21.6569 18 20 18H4C2.34315 18 1 16.6569 1 15V5C1 3.34315 2.34315 2 4 2H20C21.6569 2 23 3.34315 23 5V15Z" fill="black"/>
</svg>
