<svg width="24" height="24" viewBox="0 0 24 24" fill="none" xmlns="http://www.w3.org/2000/svg">
<path d="M20 4.00002C17.5945 5.89571 14.6384 6.94707 11.5869 7.00197L10.9746 7.00002H5C4.73478 7.00002 4.4805 7.10545 4.29297 7.29299C4.10543 7.48053 4 7.7348 4 8.00002V12C4 12.2652 4.10543 12.5195 4.29297 12.7071C4.48051 12.8946 4.73478 13 5 13H10.9746C14.2412 12.916 17.4339 13.9778 20 16V4.00002ZM22 16C22 16.3714 21.8964 16.7358 21.7012 17.0518C21.5059 17.3676 21.2266 17.623 20.8945 17.7891C20.5623 17.9552 20.1902 18.0256 19.8203 17.9922C19.4504 17.9588 19.0969 17.8225 18.7998 17.5996C18.793 17.5946 18.7859 17.5893 18.7793 17.584C16.5768 15.8419 13.8327 14.9277 11.0254 15H5C4.20435 15 3.44151 14.6837 2.87891 14.1211C2.3163 13.5585 2 12.7957 2 12V8.00002C2 7.20437 2.3163 6.44154 2.87891 5.87893C3.44152 5.31632 4.20435 5.00002 5 5.00002H11.0254C13.8327 5.07234 16.5768 4.15818 18.7793 2.41604C18.7859 2.41079 18.793 2.40549 18.7998 2.40041C19.0969 2.17757 19.4504 2.0412 19.8203 2.00783C20.1902 1.97448 20.5623 2.04485 20.8945 2.21096C21.2266 2.37702 21.5059 2.63244 21.7012 2.94826C21.8964 3.26422 22 3.6286 22 4.00002V16Z" fill="black"/>
<path d="M5 14C5 13.4477 5.44772 13 6 13C6.55228 13 7 13.4477 7 14C7 16.38 7.77223 18.6956 9.2002 20.5996C9.3593 20.8117 9.5959 20.9527 9.8584 20.9902C10.1209 21.0277 10.3875 20.9589 10.5996 20.7998C10.8117 20.6407 10.9527 20.4041 10.9902 20.1416C11.0277 19.8791 10.9589 19.6125 10.7998 19.4004C9.63141 17.8425 9 15.9473 9 14C9 13.4477 9.44772 13 10 13C10.5523 13 11 13.4477 11 14C11 15.5146 11.4916 16.9885 12.4004 18.2002C12.8775 18.8366 13.0821 19.6364 12.9697 20.4238C12.8572 21.2115 12.4363 21.923 11.7998 22.4004C11.1634 22.8775 10.3636 23.0821 9.57617 22.9697C8.78852 22.8572 8.077 22.4363 7.59961 21.7998C5.91207 19.5496 5 16.8127 5 14Z" fill="black"/>
<path d="M7 14V6C7 5.44772 7.44772 5 8 5C8.55228 5 9 5.44772 9 6V14C9 14.5523 8.55228 15 8 15C7.44772 15 7 14.5523 7 14Z" fill="black"/>
</svg>
