<svg width="24" height="24" viewBox="0 0 24 24" fill="none" xmlns="http://www.w3.org/2000/svg">
<g clip-path="url(#clip0_404_39459)">
<path d="M6.58858 7.9096L5.94661 9.98305L3.37798 3.37799L9.98342 5.94678L7.90802 6.58977M6.58858 7.9096C6.58862 7.90947 6.58854 7.90972 6.58858 7.9096ZM6.58858 7.9096C6.78223 7.2837 7.28215 6.78348 7.90802 6.58977M7.90802 6.58977C7.90821 6.58971 7.90784 6.58983 7.90802 6.58977ZM4.60143 12.0421L1.10309 3.04634C0.639967 1.87283 1.80857 0.614171 3.04644 1.10315L12.0428 4.60174M4.60143 12.0421C4.60153 12.0423 4.60133 12.0418 4.60143 12.0421ZM4.60143 12.0421C5.09982 13.3273 7.02578 13.2609 7.43322 11.9437M7.43322 11.9437C7.43329 11.9435 7.43315 11.944 7.43322 11.9437ZM7.43322 11.9437L8.49809 8.50438M8.49809 8.50438C8.49818 8.50426 8.49798 8.50452 8.49809 8.50438ZM8.49809 8.50438C8.49838 8.50402 8.499 8.50324 8.49937 8.50282C8.49974 8.50241 8.50014 8.50199 8.50055 8.50157C8.50097 8.50116 8.50139 8.50076 8.5018 8.50039C8.50222 8.50002 8.50261 8.49969 8.50298 8.49941M8.50298 8.49941C8.50312 8.4993 8.50286 8.4995 8.50298 8.49941ZM8.50298 8.49941L11.943 7.43345M11.943 7.43345C11.9432 7.43339 11.9429 7.4335 11.943 7.43345ZM11.943 7.43345C13.2601 7.02588 13.3279 5.10009 12.0428 4.60174M12.0428 4.60174C12.0426 4.60164 12.0431 4.60184 12.0428 4.60174ZM11.7998 11.8L20.1998 20.2M8.49738 8.50538C8.49731 8.50552 8.49733 8.50547 8.49738 8.50538ZM22 16C22 19.3137 19.3137 22 16 22C12.6863 22 10 19.3137 10 16C10 12.6863 12.6863 10 16 10C19.3137 10 22 12.6863 22 16Z" stroke="black" stroke-width="2" stroke-linecap="round" stroke-linejoin="round"/>
</g>
<defs>
<clipPath id="clip0_404_39459">
<rect width="24" height="24" fill="white"/>
</clipPath>
</defs>
</svg>
