<svg width="24" height="24" viewBox="0 0 24 24" fill="none" xmlns="http://www.w3.org/2000/svg">
<path fill-rule="evenodd" clip-rule="evenodd" d="M14.725 3.41121C15.1054 3.81162 15.0892 4.44458 14.6888 4.82496L12.6888 6.72496C12.2883 7.10535 11.6554 7.08912 11.275 6.68871C10.8946 6.28831 10.9108 5.65535 11.3113 5.27496L13.3113 3.37496C13.7117 2.99458 14.3446 3.01081 14.725 3.41121Z" fill="black"/>
<path fill-rule="evenodd" clip-rule="evenodd" d="M1.23603 6.93403C1.3829 6.40163 1.93355 6.0891 2.46595 6.23597L5.36595 7.03597C5.89835 7.18284 6.21088 7.73349 6.06401 8.26589C5.91715 8.79829 5.36649 9.11082 4.83409 8.96395L1.93409 8.16395C1.40169 8.01708 1.08916 7.46643 1.23603 6.93403Z" fill="black"/>
<path fill-rule="evenodd" clip-rule="evenodd" d="M6.68875 11.275C7.08916 11.6553 7.10539 12.2883 6.725 12.6887L4.825 14.6887C4.44462 15.0891 3.81166 15.1053 3.41125 14.725C3.01085 14.3446 2.99462 13.7116 3.37501 13.3112L5.275 11.3112C5.65539 10.9108 6.28835 10.8946 6.68875 11.275Z" fill="black"/>
<path fill-rule="evenodd" clip-rule="evenodd" d="M6.93409 1.23597C7.46649 1.0891 8.01714 1.40163 8.16401 1.93403L8.96401 4.83403C9.11088 5.36643 8.79835 5.91708 8.26595 6.06395C7.73355 6.21082 7.1829 5.89829 7.03603 5.36589L6.23603 2.46589C6.08916 1.93349 6.40169 1.38284 6.93409 1.23597Z" fill="black"/>
<path fill-rule="evenodd" clip-rule="evenodd" d="M10.4134 10.4133L13.875 18.8751L14.5547 16.0323C14.6409 15.6734 14.8249 15.3453 15.0861 15.0844C15.3473 14.8236 15.6756 14.6401 16.0347 14.5543L18.8743 13.8746L10.4134 10.4133ZM10.0731 8.11323C9.80035 7.99923 9.49991 7.96846 9.20961 8.02488C8.91658 8.08184 8.64726 8.22504 8.43618 8.43612C8.2251 8.6472 8.0819 8.91652 8.02494 9.20955C7.96852 9.49985 7.99929 9.80029 8.11329 10.073L12.6106 21.0664C12.6108 21.0669 12.611 21.0675 12.6112 21.068C12.7312 21.3622 12.9414 21.6107 13.2117 21.7777C13.4824 21.9451 13.7994 22.0219 14.1167 21.9972C14.4341 21.9725 14.7353 21.8475 14.9769 21.6402C15.2178 21.4335 15.387 21.1558 15.46 20.8469C15.4602 20.846 15.4604 20.8452 15.4606 20.8444L16.4993 16.4996L20.8476 15.4588C20.8473 15.4588 20.8478 15.4587 20.8476 15.4588C21.1561 15.3852 21.4341 15.2155 21.6403 14.9744C21.8466 14.7332 21.971 14.4326 21.9957 14.1162C22.0204 13.7997 21.944 13.4835 21.7776 13.2132C21.6112 12.9428 21.3633 12.7323 21.0696 12.6118L10.0731 8.11323Z" fill="black"/>
</svg>
