<svg width="24" height="24" viewBox="0 0 24 24" fill="none" xmlns="http://www.w3.org/2000/svg">
<path d="M11.2929 14.2931C11.6834 13.9026 12.3164 13.9026 12.707 14.2931L16.707 18.2931C17.0975 18.6837 17.0975 19.3167 16.707 19.7072C16.3164 20.0977 15.6834 20.0977 15.2929 19.7072L11.2929 15.7072C10.9024 15.3167 10.9024 14.6837 11.2929 14.2931Z" fill="black"/>
<path d="M20.9941 9.78076C20.9939 7.98316 20.28 6.25878 19.0088 4.98779C18.3794 4.35856 17.6319 3.85956 16.8096 3.51904C15.9872 3.17853 15.1059 3.00334 14.2158 3.00342C12.4182 3.00358 10.6939 3.71755 9.42285 4.98877L3.05957 11.355C3.02122 11.3934 2.99902 11.4462 2.99902 11.5005C2.99913 11.5546 3.0204 11.6067 3.05859 11.645L5.35547 13.9409C5.39391 13.9794 5.44564 14.0005 5.5 14.0005C5.55426 14.0005 5.60613 13.9792 5.64453 13.9409L11.6738 7.91162C11.9636 7.62189 12.3079 7.39266 12.6865 7.23584C13.0652 7.07898 13.471 6.99756 13.8809 6.99756C14.2908 6.99756 14.6965 7.07898 15.0752 7.23584C15.4538 7.39266 15.7981 7.6219 16.0879 7.91162C16.3777 8.2014 16.6078 8.54572 16.7646 8.92432C16.9215 9.30287 17.0019 9.7089 17.002 10.1187C17.002 10.5286 16.9215 10.9353 16.7646 11.314C16.6078 11.6925 16.3777 12.0369 16.0879 12.3267L10.0586 18.355C10.0202 18.3934 9.99902 18.4462 9.99902 18.5005C9.99913 18.5546 10.0204 18.6067 10.0586 18.645L12.3555 20.9409C12.3939 20.9794 12.4456 21.0005 12.5 21.0005C12.5543 21.0005 12.6061 20.9792 12.6445 20.9409L19.0098 14.5737C20.2807 13.3025 20.9943 11.5784 20.9941 9.78076ZM22.9941 9.78076C22.9944 12.1089 22.0699 14.3414 20.4238 15.9878L14.0596 22.355C13.6461 22.7684 13.0847 23.0005 12.5 23.0005C11.9153 23.0005 11.3539 22.7684 10.9404 22.355L8.64453 20.0591C8.23126 19.6457 7.99913 19.085 7.99902 18.5005C7.99902 17.9158 8.23111 17.3544 8.64453 16.9409L14.6738 10.9116C14.7778 10.8076 14.8607 10.6843 14.917 10.5483C14.9733 10.4123 15.002 10.2659 15.002 10.1187C15.0019 9.97156 14.9733 9.82585 14.917 9.68994C14.8607 9.55401 14.7778 9.43073 14.6738 9.32666C14.5697 9.22254 14.4456 9.13985 14.3096 9.0835C14.1736 9.02721 14.028 8.99756 13.8809 8.99756C13.7337 8.99756 13.5881 9.0272 13.4521 9.0835C13.3161 9.13985 13.192 9.22254 13.0879 9.32666L7.05859 15.355C6.64511 15.7684 6.08469 16.0005 5.5 16.0005C4.91525 16.0005 4.35394 15.7684 3.94043 15.355L1.64453 13.0591C1.23126 12.6457 0.999128 12.085 0.999023 11.5005C0.999023 10.9158 1.23111 10.3544 1.64453 9.94092L8.00879 3.57471C9.65485 1.92846 11.8878 1.00363 14.2158 1.00342C15.3685 1.00334 16.5102 1.23037 17.5752 1.67139C18.6401 2.11241 19.6077 2.75881 20.4229 3.57373C22.0692 5.2198 22.9939 7.45266 22.9941 9.78076Z" fill="black"/>
<path d="M4.29289 7.29314C4.68342 6.90261 5.31643 6.90261 5.70696 7.29314L9.70696 11.2931C10.0975 11.6837 10.0975 12.3167 9.70696 12.7072C9.31643 13.0977 8.68342 13.0977 8.29289 12.7072L4.29289 8.7072C3.90237 8.31668 3.90237 7.68366 4.29289 7.29314Z" fill="black"/>
</svg>
