<svg width="24" height="24" viewBox="0 0 24 24" fill="none" xmlns="http://www.w3.org/2000/svg">
<path fill-rule="evenodd" clip-rule="evenodd" d="M12 12C12.5523 12 13 12.4477 13 13V21C13 21.5523 12.5523 22 12 22C11.4477 22 11 21.5523 11 21V13C11 12.4477 11.4477 12 12 12Z" fill="black"/>
<path fill-rule="evenodd" clip-rule="evenodd" d="M12 2C12.5523 2 13 2.44772 13 3V6C13 6.55228 12.5523 7 12 7C11.4477 7 11 6.55228 11 6V3C11 2.44772 11.4477 2 12 2Z" fill="black"/>
<path fill-rule="evenodd" clip-rule="evenodd" d="M2.58579 5.58579C2.96086 5.21071 3.46957 5 4 5H16.9999C16.9999 5 17 5 16.9999 5C17.6152 4.99997 18.2155 5.18909 18.7195 5.5416L22.1366 7.85491C22.1417 7.8584 22.1469 7.86192 22.1519 7.8655C22.414 8.05011 22.6278 8.29501 22.7754 8.57955C22.923 8.8641 23.0001 9.17995 23.0001 9.5005C23.0001 9.82104 22.923 10.1369 22.7754 10.4214C22.6278 10.706 22.414 10.9509 22.1519 11.1355C22.1468 11.1391 22.1416 11.1427 22.1364 11.1462L18.7194 13.4585C18.2154 13.8109 17.6152 14 17 14C17 14 17 14 17 14H4C3.46957 14 2.96086 13.7893 2.58579 13.4142C2.21071 13.0391 2 12.5304 2 12V7C2 6.46957 2.21071 5.96086 2.58579 5.58579ZM4 7V12H17.0001C17.2063 12 17.4075 11.9363 17.5761 11.8175C17.5812 11.8139 17.5864 11.8103 17.5916 11.8068L20.9998 9.5005L17.5914 7.19309C17.5863 7.1896 17.5811 7.18608 17.5761 7.1825C17.4075 7.06373 17.2063 6.99999 17.0001 7H4Z" fill="black"/>
</svg>
