<svg width="24" height="24" viewBox="0 0 24 24" fill="none" xmlns="http://www.w3.org/2000/svg">
<path fill-rule="evenodd" clip-rule="evenodd" d="M4 5C3.44772 5 3 5.44772 3 6V17C3 17.5523 3.44772 18 4 18H20C20.5523 18 21 17.5523 21 17V6C21 5.44772 20.5523 5 20 5H4ZM1 6C1 4.34315 2.34315 3 4 3H20C21.6569 3 23 4.34315 23 6V17C23 18.6569 21.6569 20 20 20H4C2.34315 20 1 18.6569 1 17V6Z" fill="black"/>
<path fill-rule="evenodd" clip-rule="evenodd" d="M7 9V14H13V9H7ZM5 9C5 7.89543 5.89543 7 7 7H13C14.1046 7 15 7.89543 15 9V14C15 15.1046 14.1046 16 13 16H7C5.89543 16 5 15.1046 5 14V9Z" fill="black"/>
<path fill-rule="evenodd" clip-rule="evenodd" d="M18 7C18.5523 7 19 7.44772 19 8V15C19 15.5523 18.5523 16 18 16C17.4477 16 17 15.5523 17 15V8C17 7.44772 17.4477 7 18 7Z" fill="black"/>
<path fill-rule="evenodd" clip-rule="evenodd" d="M6 18C6.55228 18 7 18.4477 7 19V21C7 21.5523 6.55228 22 6 22C5.44772 22 5 21.5523 5 21V19C5 18.4477 5.44772 18 6 18Z" fill="black"/>
<path fill-rule="evenodd" clip-rule="evenodd" d="M18 18C18.5523 18 19 18.4477 19 19V21C19 21.5523 18.5523 22 18 22C17.4477 22 17 21.5523 17 21V19C17 18.4477 17.4477 18 18 18Z" fill="black"/>
</svg>
