<svg width="24" height="24" viewBox="0 0 24 24" fill="none" xmlns="http://www.w3.org/2000/svg">
<path fill-rule="evenodd" clip-rule="evenodd" d="M11.7814 6.84137C11.9187 6.30643 12.4637 5.98407 12.9986 6.12137C13.6926 6.29949 14.326 6.66074 14.8326 7.16737C15.3392 7.67399 15.7005 8.30739 15.8786 9.00137C16.0159 9.53632 15.6936 10.0813 15.1586 10.2186C14.6237 10.3559 14.0787 10.0335 13.9414 9.49858C13.8523 9.15159 13.6717 8.83489 13.4184 8.58158C13.1651 8.32827 12.8484 8.14764 12.5014 8.05858C11.9665 7.92128 11.6441 7.37632 11.7814 6.84137Z" fill="black"/>
<path fill-rule="evenodd" clip-rule="evenodd" d="M6.00293 4.61098C6.45635 4.9263 6.56832 5.54949 6.253 6.00291C5.43715 7.17612 4.9999 8.57092 5 9.99991C5 12.1592 6.21668 14.4866 7.79774 16.564C9.32603 18.572 11.0797 20.198 12 20.9966C12.9348 20.1855 14.7293 18.5207 16.2732 16.4705C16.6054 16.0293 17.2323 15.9409 17.6735 16.2731C18.1147 16.6054 18.2031 17.2323 17.8709 17.6735C16.1761 19.9242 14.2237 21.7191 13.2545 22.5559C13.2375 22.5706 13.22 22.5847 13.202 22.5982C12.8554 22.8588 12.4336 22.9997 12 22.9997C11.5664 22.9997 11.1446 22.8588 10.798 22.5982C10.78 22.5847 10.7625 22.5706 10.7455 22.5559C9.79028 21.7311 7.88287 19.9781 6.20626 17.7752C4.55284 15.6028 3.00003 12.8337 3 10.0001M6.00293 4.61098C5.5495 4.29567 4.92632 4.40763 4.611 4.86105L6.00293 4.61098ZM4.611 4.86105C3.56206 6.36944 2.99988 8.1628 3 10.0001L4.611 4.86105Z" fill="black"/>
<path fill-rule="evenodd" clip-rule="evenodd" d="M1.29289 1.29287C1.68342 0.902349 2.31658 0.902349 2.70711 1.29287L22.7071 21.2929C23.0976 21.6834 23.0976 22.3166 22.7071 22.7071C22.3166 23.0976 21.6834 23.0976 21.2929 22.7071L1.29289 2.70709C0.902369 2.31656 0.902369 1.6834 1.29289 1.29287Z" fill="black"/>
<path fill-rule="evenodd" clip-rule="evenodd" d="M12.3533 3.00843C11.1659 2.94843 9.98286 3.19183 8.91562 3.71567C8.41983 3.95902 7.82065 3.75439 7.5773 3.25861C7.33395 2.76283 7.53858 2.16364 8.03437 1.92029C9.40653 1.24677 10.9276 0.933836 12.4542 1.01098C13.9808 1.08813 15.4626 1.55282 16.7599 2.36124C18.0572 3.16966 19.1272 4.29517 19.869 5.63164C20.6108 6.96809 21.0001 8.47145 21 9.99998M12.3533 3.00843C13.5406 3.06844 14.6932 3.42987 15.7021 4.05864L12.3533 3.00843ZM15.7021 4.05864C16.7111 4.68741 17.5434 5.5628 18.1203 6.60228L15.7021 4.05864ZM18.1203 6.60228C18.6973 7.64175 19.0001 8.81105 19 9.99992L18.1203 6.60228ZM19 9.99992C19 11.0102 18.7344 12.0672 18.2722 13.136L19 9.99992ZM21 9.99998C21 11.3557 20.6455 12.6868 20.1078 13.93C19.8886 14.4369 19.2999 14.6701 18.793 14.4508C18.2861 14.2316 18.0529 13.6429 18.2722 13.136" fill="black"/>
<path fill-rule="evenodd" clip-rule="evenodd" d="M9.4195 8.1728C9.94814 8.33267 10.2471 8.89083 10.0872 9.41946C9.98243 9.76586 9.97362 10.1342 10.0617 10.4852C10.1498 10.8362 10.3315 11.1568 10.5873 11.4126C10.8432 11.6685 11.1638 11.8502 11.5148 11.9383C11.8658 12.0264 12.2341 12.0176 12.5805 11.9128C13.1092 11.7529 13.6673 12.0519 13.8272 12.5805C13.9871 13.1091 13.6881 13.6673 13.1595 13.8272C12.4667 14.0367 11.73 14.0543 11.028 13.8781C10.326 13.702 9.68493 13.3387 9.17313 12.8269C8.66134 12.3151 8.298 11.674 8.12184 10.972C7.94568 10.27 7.96331 9.53329 8.17283 8.8405C8.33271 8.31186 8.89086 8.01292 9.4195 8.1728Z" fill="black"/>
</svg>
