<svg width="24" height="24" viewBox="0 0 24 24" fill="none" xmlns="http://www.w3.org/2000/svg">
<path d="M21 5C21 4.73478 20.8946 4.48051 20.707 4.29297C20.5195 4.10543 20.2652 4 20 4H4C3.73478 4 3.4805 4.10543 3.29297 4.29297C3.10543 4.4805 3 4.73478 3 5V20.5859L4.70703 18.8789L4.92676 18.6797C5.46048 18.2422 6.13198 18.0001 6.82812 18H20C20.2652 18 20.5195 17.8946 20.707 17.707C20.8946 17.5195 21 17.2652 21 17V5ZM23 17C23 17.7957 22.6837 18.5585 22.1211 19.1211C21.5585 19.6837 20.7957 20 20 20H6.82812C6.56296 20.0001 6.30857 20.1054 6.12109 20.293L3.91895 22.4951C3.6799 22.7341 3.37545 22.8969 3.04395 22.9629C2.71233 23.0288 2.36805 22.9956 2.05566 22.8662C1.74327 22.7368 1.47598 22.5174 1.28809 22.2363C1.10019 21.9552 1.00004 21.6243 1 21.2861V5C1 4.20435 1.3163 3.44152 1.87891 2.87891C2.44152 2.3163 3.20435 2 4 2H20C20.7957 2 21.5585 2.3163 22.1211 2.87891C22.6837 3.44152 23 4.20435 23 5V17Z" fill="black"/>
<path d="M13.7929 7.79289C14.1834 7.40237 14.8164 7.40237 15.207 7.79289C15.5975 8.18342 15.5975 8.81643 15.207 9.20696L10.207 14.207C9.81643 14.5975 9.18342 14.5975 8.79289 14.207C8.40237 13.8164 8.40237 13.1834 8.79289 12.7929L13.7929 7.79289Z" fill="black"/>
<path d="M8.79289 7.79289C9.18342 7.40237 9.81643 7.40237 10.207 7.79289L15.207 12.7929C15.5975 13.1834 15.5975 13.8164 15.207 14.207C14.8164 14.5975 14.1834 14.5975 13.7929 14.207L8.79289 9.20696C8.40237 8.81643 8.40237 8.18342 8.79289 7.79289Z" fill="black"/>
</svg>
