<svg width="24" height="24" viewBox="0 0 24 24" fill="none" xmlns="http://www.w3.org/2000/svg">
<path fill-rule="evenodd" clip-rule="evenodd" d="M7.92912 2.00253C8.33256 1.97386 8.71355 2.19104 8.89444 2.5528L12.274 9.31185L16.2929 5.29291C16.538 5.04784 16.8925 4.94714 17.2298 5.02676C17.5671 5.10639 17.8391 5.35499 17.9487 5.68378L22.9487 20.6838C23.0503 20.9887 22.9992 21.324 22.8113 21.5847C22.6233 21.8455 22.3215 22 22 22H2.00001C1.67856 22 1.37672 21.8455 1.18877 21.5847C1.00081 21.324 0.949675 20.9887 1.05132 20.6838L7.05132 2.68378C7.17923 2.30008 7.52567 2.0312 7.92912 2.00253ZM8.18525 5.60656L3.38743 20H20.6126L16.563 7.85124L12.7071 11.7071C12.4798 11.9344 12.1571 12.0386 11.8398 11.9871C11.5225 11.9356 11.2493 11.7347 11.1056 11.4472L8.18525 5.60656Z" fill="black"/>
<path fill-rule="evenodd" clip-rule="evenodd" d="M8.01664 15.0061C6.9366 14.9484 5.8219 15.238 4.65401 15.9378C4.18027 16.2217 3.5661 16.0678 3.28221 15.594C2.99833 15.1203 3.15224 14.5061 3.62598 14.2222C5.07809 13.3521 6.58339 12.9267 8.12335 13.0089C9.65944 13.091 11.1472 13.6737 12.5768 14.6831L12.5778 14.6839C13.8214 15.5643 15.0045 15.9757 16.1378 16.0015C17.2692 16.0273 18.4447 15.6709 19.6788 14.8556C20.1396 14.5512 20.76 14.678 21.0644 15.1388C21.3688 15.5997 21.242 16.22 20.7812 16.5244C19.2753 17.5192 17.7058 18.0377 16.0922 18.001C14.4806 17.9643 12.9189 17.3758 11.4225 16.3164C10.2323 15.4762 9.10034 15.064 8.01664 15.0061Z" fill="black"/>
</svg>
