<svg width="24" height="24" viewBox="0 0 24 24" fill="none" xmlns="http://www.w3.org/2000/svg">
<path fill-rule="evenodd" clip-rule="evenodd" d="M3.87868 1.87859C4.44129 1.31598 5.20435 0.999912 6 0.999912H13.4C13.9523 0.999912 14.4 1.44763 14.4 1.99991C14.4 2.5522 13.9523 2.99991 13.4 2.99991H6C5.73478 2.99991 5.48043 3.10527 5.29289 3.2928C5.10536 3.48034 5 3.7347 5 3.99991V19.9999C5 20.2651 5.10536 20.5195 5.29289 20.707C5.48043 20.8946 5.73478 20.9999 6 20.9999H18C18.2652 20.9999 18.5196 20.8946 18.7071 20.707C18.8946 20.5195 19 20.2651 19 19.9999V12.5999C19 12.0476 19.4477 11.5999 20 11.5999C20.5523 11.5999 21 12.0476 21 12.5999V19.9999C21 20.7956 20.6839 21.5586 20.1213 22.1212C19.5587 22.6838 18.7957 22.9999 18 22.9999H6C5.20435 22.9999 4.44129 22.6838 3.87868 22.1212C3.31607 21.5586 3 20.7956 3 19.9999V3.99991C3 3.20426 3.31607 2.4412 3.87868 1.87859Z" fill="black"/>
<path fill-rule="evenodd" clip-rule="evenodd" d="M1 5.99991C1 5.44763 1.44772 4.99991 2 4.99991H6C6.55228 4.99991 7 5.44763 7 5.99991C7 6.5522 6.55228 6.99991 6 6.99991H2C1.44772 6.99991 1 6.5522 1 5.99991Z" fill="black"/>
<path fill-rule="evenodd" clip-rule="evenodd" d="M1 9.99991C1 9.44763 1.44772 8.99991 2 8.99991H6C6.55228 8.99991 7 9.44763 7 9.99991C7 10.5522 6.55228 10.9999 6 10.9999H2C1.44772 10.9999 1 10.5522 1 9.99991Z" fill="black"/>
<path fill-rule="evenodd" clip-rule="evenodd" d="M1 13.9999C1 13.4476 1.44772 12.9999 2 12.9999H6C6.55228 12.9999 7 13.4476 7 13.9999C7 14.5522 6.55228 14.9999 6 14.9999H2C1.44772 14.9999 1 14.5522 1 13.9999Z" fill="black"/>
<path fill-rule="evenodd" clip-rule="evenodd" d="M1 17.9999C1 17.4476 1.44772 16.9999 2 16.9999H6C6.55228 16.9999 7 17.4476 7 17.9999C7 18.5522 6.55228 18.9999 6 18.9999H2C1.44772 18.9999 1 18.5522 1 17.9999Z" fill="black"/>
<path fill-rule="evenodd" clip-rule="evenodd" d="M17.6669 1.9148C18.2528 1.32891 19.0474 0.999756 19.876 0.999756C20.7046 0.999756 21.4992 1.32891 22.0851 1.9148C22.671 2.50069 23.0001 3.29533 23.0001 4.1239C23.0001 4.95248 22.671 5.74712 22.0851 6.33301L17.0723 11.3418C17.0723 11.3418 17.0723 11.3418 17.0723 11.3418C16.7159 11.6984 16.2753 11.9595 15.7913 12.1008L12.921 12.9379C12.921 12.9379 12.921 12.9379 12.921 12.9379C12.6629 13.0132 12.3892 13.0177 12.1287 12.951C11.8682 12.8842 11.6305 12.7487 11.4403 12.5586C11.2502 12.3684 11.1147 12.1307 11.0479 11.8702C10.9812 11.6097 10.9857 11.3361 11.061 11.0779C11.061 11.0779 11.061 11.0779 11.061 11.0779L11.8981 8.2076C12.0394 7.72376 12.3003 7.28331 12.6568 6.92694C12.6566 6.92705 12.6569 6.92683 12.6568 6.92694L17.6669 1.9148ZM19.0812 3.32887C19.0812 3.32892 19.0813 3.32882 19.0812 3.32887L14.0709 8.34121C13.9521 8.45994 13.8651 8.60668 13.818 8.76788L13.2363 10.7626L15.2307 10.181C15.392 10.1339 15.5389 10.0469 15.6577 9.92799L20.6709 4.9188C20.6708 4.91889 20.671 4.9187 20.6709 4.9188C20.8815 4.70801 21.0002 4.42191 21.0002 4.1239C21.0002 3.82576 20.8817 3.53983 20.6709 3.32901C20.4601 3.11819 20.1741 2.99976 19.876 2.99976C19.5779 2.99976 19.2921 3.11814 19.0812 3.32887Z" fill="black"/>
</svg>
