<svg width="24" height="24" viewBox="0 0 24 24" fill="none" xmlns="http://www.w3.org/2000/svg">
<path fill-rule="evenodd" clip-rule="evenodd" d="M5.5047 7.4512C5.98448 7.17766 6.59518 7.34485 6.86872 7.82464C7.59395 9.09667 7.97534 10.5357 7.97534 11.9999C7.97534 13.4642 7.59395 14.9032 6.86872 16.1752C6.59518 16.655 5.98448 16.8222 5.5047 16.5487C5.02491 16.2751 4.85772 15.6644 5.13126 15.1846C5.68443 14.2144 5.97534 13.1168 5.97534 11.9999C5.97534 10.8831 5.68443 9.78547 5.13126 8.81522C4.85772 8.33543 5.02491 7.72474 5.5047 7.4512Z" fill="black"/>
<path fill-rule="evenodd" clip-rule="evenodd" d="M8.96765 5.33953C9.44835 5.06762 10.0585 5.23688 10.3304 5.71758C11.4144 7.63396 11.9841 9.79821 11.9841 11.9999C11.9841 14.2016 11.4144 16.3659 10.3304 18.2823C10.0585 18.763 9.44835 18.9322 8.96765 18.6603C8.48694 18.3884 8.31768 17.7783 8.58959 17.2976C9.5037 15.6816 9.9841 13.8566 9.9841 11.9999C9.9841 10.1433 9.5037 8.31828 8.58959 6.70228C8.31768 6.22157 8.48694 5.61145 8.96765 5.33953Z" fill="black"/>
<path fill-rule="evenodd" clip-rule="evenodd" d="M12.4129 3.23223C12.8921 2.95769 13.5031 3.12362 13.7777 3.60283C15.2419 6.15861 16.0131 9.0525 16.0149 11.998C16.0168 14.9434 15.2492 17.8383 13.7883 20.3959C13.5144 20.8755 12.9036 21.0422 12.424 20.7683C11.9444 20.4943 11.7777 19.8835 12.0517 19.4039C13.3398 17.1488 14.0166 14.5963 14.0149 11.9992C14.0133 9.40214 13.3333 6.85051 12.0423 4.59702C11.7678 4.1178 11.9337 3.50676 12.4129 3.23223Z" fill="black"/>
<path fill-rule="evenodd" clip-rule="evenodd" d="M15.874 1.13162C16.3535 0.857672 16.9644 1.02434 17.2383 1.5039C19.0645 4.70058 20.025 8.3184 20.025 11.9999C20.025 15.6815 19.0645 19.2993 17.2383 22.496C16.9644 22.9755 16.3535 23.1422 15.874 22.8682C15.3944 22.5943 15.2277 21.9834 15.5017 21.5039C17.1552 18.6094 18.025 15.3335 18.025 11.9999C18.025 8.66637 17.1552 5.3905 15.5017 2.49596C15.2277 2.01641 15.3944 1.40557 15.874 1.13162Z" fill="black"/>
</svg>
