<svg width="24" height="24" viewBox="0 0 24 24" fill="none" xmlns="http://www.w3.org/2000/svg">
<path fill-rule="evenodd" clip-rule="evenodd" d="M1 6C1 5.44772 1.44772 5 2 5H6C6.55228 5 7 5.44772 7 6C7 6.55228 6.55228 7 6 7H2C1.44772 7 1 6.55228 1 6Z" fill="black"/>
<path fill-rule="evenodd" clip-rule="evenodd" d="M1 10C1 9.44772 1.44772 9 2 9H6C6.55228 9 7 9.44772 7 10C7 10.5523 6.55228 11 6 11H2C1.44772 11 1 10.5523 1 10Z" fill="black"/>
<path fill-rule="evenodd" clip-rule="evenodd" d="M1 14C1 13.4477 1.44772 13 2 13H6C6.55228 13 7 13.4477 7 14C7 14.5523 6.55228 15 6 15H2C1.44772 15 1 14.5523 1 14Z" fill="black"/>
<path fill-rule="evenodd" clip-rule="evenodd" d="M1 18C1 17.4477 1.44772 17 2 17H6C6.55228 17 7 17.4477 7 18C7 18.5523 6.55228 19 6 19H2C1.44772 19 1 18.5523 1 18Z" fill="black"/>
<path fill-rule="evenodd" clip-rule="evenodd" d="M6 3C5.44771 3 5 3.44772 5 4V20C5 20.5523 5.44771 21 6 21H18C18.5523 21 19 20.5523 19 20V4C19 3.44772 18.5523 3 18 3H6ZM3 4C3 2.34315 4.34315 1 6 1H18C19.6569 1 21 2.34315 21 4V20C21 21.6569 19.6569 23 18 23H6C4.34315 23 3 21.6569 3 20V4Z" fill="black"/>
<path fill-rule="evenodd" clip-rule="evenodd" d="M16 1C16.5523 1 17 1.44772 17 2V22C17 22.5523 16.5523 23 16 23C15.4477 23 15 22.5523 15 22V2C15 1.44772 15.4477 1 16 1Z" fill="black"/>
</svg>
