<svg width="24" height="24" viewBox="0 0 24 24" fill="none" xmlns="http://www.w3.org/2000/svg">
<path fill-rule="evenodd" clip-rule="evenodd" d="M9.65594 8.37174C10.1741 8.56279 10.4393 9.13774 10.2483 9.65593L6.88827 18.7692L11.5039 16.1318C11.8113 15.9561 12.1887 15.9561 12.4961 16.1318L17.1105 18.7685L16.8919 18.1763C16.7006 17.6581 16.9656 17.0831 17.4838 16.8919C18.0019 16.7006 18.5769 16.9656 18.7682 17.4837L19.9382 20.6537C20.0837 21.0481 19.9671 21.4915 19.6462 21.7632C19.3254 22.0348 18.8689 22.0768 18.5039 21.8682L12 18.1517L5.49615 21.8682C5.13119 22.0768 4.67477 22.0348 4.35393 21.7633C4.03309 21.4917 3.91634 21.0485 4.06175 20.6541L8.37175 8.96407C8.5628 8.44588 9.13775 8.18069 9.65594 8.37174Z" fill="black"/>
<path fill-rule="evenodd" clip-rule="evenodd" d="M12.0006 1C12.4196 1.00025 12.794 1.26164 12.9386 1.65486L15.4686 8.53486C15.6592 9.05321 15.3935 9.62794 14.8751 9.81855C14.3568 10.0092 13.7821 9.74348 13.5914 9.22514L11.9983 4.89272L11.7681 5.51625C11.5769 6.03437 11.0019 6.29937 10.4837 6.10814C9.96562 5.91691 9.70063 5.34187 9.89186 4.82375L11.0619 1.65375C11.2069 1.2607 11.5816 0.999751 12.0006 1Z" fill="black"/>
<path fill-rule="evenodd" clip-rule="evenodd" d="M1.29289 1.29289C1.68342 0.902369 2.31658 0.902369 2.70711 1.29289L22.7071 21.2929C23.0976 21.6834 23.0976 22.3166 22.7071 22.7071C22.3166 23.0976 21.6834 23.0976 21.2929 22.7071L1.29289 2.70711C0.902369 2.31658 0.902369 1.68342 1.29289 1.29289Z" fill="black"/>
</svg>
