<svg width="24" height="24" viewBox="0 0 24 24" fill="none" xmlns="http://www.w3.org/2000/svg">
<path fill-rule="evenodd" clip-rule="evenodd" d="M12 1C12.5523 1 13 1.44772 13 2V4C13 4.55228 12.5523 5 12 5C11.4477 5 11 4.55228 11 4V2C11 1.44772 11.4477 1 12 1Z" fill="black"/>
<path fill-rule="evenodd" clip-rule="evenodd" d="M5.00001 9C5.55229 9 6.00001 9.44772 6.00001 10V13.9999C6.00001 13.9999 6.00001 13.9999 6.00001 13.9999C6.00017 15.3344 6.44497 16.631 7.26414 17.6846C8.08315 18.738 9.22972 19.4885 10.5228 19.8177C11.027 19.9451 11.5573 20.1813 12 20.5892C12.4427 20.1814 12.9728 19.9452 13.4769 19.8178C14.9283 19.4478 16.1892 18.5493 17.0127 17.2982C17.3163 16.8369 17.9365 16.7091 18.3978 17.0127C18.8591 17.3163 18.9869 17.9365 18.6833 18.3978C17.5856 20.0655 15.9046 21.2632 13.9699 21.7561L13.9678 21.7566C13.6814 21.8289 13.4688 21.9454 13.3281 22.0861L12.7071 22.7071C12.3166 23.0976 11.6834 23.0976 11.2929 22.7071L10.6719 22.0861C10.5312 21.9454 10.3186 21.8289 10.0323 21.7566L10.0304 21.7561C8.30621 21.3174 6.7773 20.3168 5.68523 18.9122C4.59316 17.5076 4.0002 15.7793 4.00001 14.0001V10C4.00001 9.44772 4.44772 9 5.00001 9Z" fill="black"/>
<path fill-rule="evenodd" clip-rule="evenodd" d="M19 9C19.5523 9 20 9.44772 20 10V13.343C20 13.8953 19.5523 14.343 19 14.343C18.4477 14.343 18 13.8953 18 13.343V10C18 9.44772 18.4477 9 19 9Z" fill="black"/>
<path fill-rule="evenodd" clip-rule="evenodd" d="M9.67288 3.20781C10.4186 3.0736 11.1989 3 12 3C14.1589 3 16.1928 3.53789 17.7751 4.36342C19.3071 5.16272 20.6168 6.34395 20.9701 7.75746C21.1655 8.54045 21.5182 9.33533 22.6241 10.2187C22.9391 10.4703 23.0722 10.8864 22.9617 11.2741C22.8512 11.6618 22.5187 11.9452 22.1184 11.993C21.3836 12.0806 20.7247 12.0713 20.0713 11.8492C19.8216 11.7643 19.5876 11.6533 19.3623 11.5205C19.3123 11.5876 19.2592 11.6533 19.2028 11.7177C18.8437 12.1268 18.402 12.4183 17.902 12.676C17.4111 12.9289 16.808 12.736 16.5551 12.245C16.3021 11.7541 16.495 11.151 16.986 10.8981C17.373 10.6987 17.5713 10.5447 17.6995 10.3985C17.822 10.259 17.9331 10.0667 18.0443 9.70562C18.1444 9.3806 18.4029 9.12875 18.7304 9.03704C18.9127 8.98598 19.1025 8.98847 19.2789 9.03968C19.1762 8.77239 19.0957 8.50651 19.0299 8.24254C18.8832 7.65605 18.1929 6.83728 16.8499 6.13659C15.5572 5.46211 13.8412 5 12 5C11.3211 5 10.6594 5.0624 10.0271 5.17619C9.48358 5.27401 8.96364 4.91268 8.86581 4.36913C8.76799 3.82557 9.12932 3.30564 9.67288 3.20781ZM6.61166 5.22003C6.92645 5.67382 6.81377 6.29687 6.35998 6.61166C5.50591 7.20411 5.08073 7.80019 4.97014 8.24254C4.90175 8.51554 4.80778 8.78448 4.69072 9.04903C4.85881 8.99436 5.04013 8.98469 5.21608 9.02363C5.48751 9.0837 5.72169 9.25405 5.86242 9.4938C6.10557 9.90806 6.30148 10.1706 6.52699 10.3955C6.6754 10.5436 6.85067 10.6894 7.08509 10.8557C7.48872 10.6546 7.75569 10.4856 7.95732 10.321C8.21551 10.1102 8.40793 9.87302 8.64452 9.48216C8.8262 9.18203 9.15186 8.99906 9.50269 9C9.85352 9.00095 10.1782 9.18567 10.3583 9.48677C10.6142 9.91479 10.8285 10.1677 11.0899 10.3758C11.3664 10.5958 11.7449 10.8052 12.391 11.0796C12.8993 11.2955 13.1363 11.8826 12.9204 12.391C12.7045 12.8993 12.1174 13.1363 11.609 12.9204C10.9061 12.6218 10.3321 12.3287 9.84456 11.9407C9.71941 11.8411 9.60302 11.7378 9.49356 11.6299C9.40855 11.7116 9.31844 11.7917 9.22219 11.8702C8.74587 12.2591 8.16387 12.5762 7.40702 12.9134C7.10147 13.0496 6.74808 13.0239 6.46538 12.8451C5.92891 12.5057 5.49439 12.1904 5.11452 11.8115C4.96655 11.6639 4.83186 11.5116 4.70525 11.3514C4.45027 11.4841 4.1924 11.595 3.91902 11.6852C3.34493 11.8745 2.7556 11.9547 2.06248 11.998C1.64459 12.0242 1.25465 11.7873 1.08537 11.4043C0.916094 11.0213 1.00332 10.5735 1.30394 10.282C2.32727 9.28993 2.85232 8.46559 3.02986 7.75746C3.3074 6.64802 4.17424 5.69378 5.22003 4.96834C5.67382 4.65355 6.29688 4.76623 6.61166 5.22003Z" fill="black"/>
<path fill-rule="evenodd" clip-rule="evenodd" d="M1.2929 1.29289C1.68343 0.902369 2.31659 0.902369 2.70712 1.29289L22.7071 21.2929C23.0976 21.6834 23.0976 22.3166 22.7071 22.7071C22.3166 23.0976 21.6834 23.0976 21.2929 22.7071L1.2929 2.70711C0.902377 2.31658 0.902377 1.68342 1.2929 1.29289Z" fill="black"/>
</svg>
