<svg width="24" height="24" viewBox="0 0 24 24" fill="none" xmlns="http://www.w3.org/2000/svg">
<path fill-rule="evenodd" clip-rule="evenodd" d="M9.3339 8.00224C9.57017 8.50144 9.35702 9.09765 8.85783 9.33391L5.95473 10.7079L11.2426 12.0299C11.6008 12.1195 11.8806 12.3992 11.9702 12.7575L13.2921 18.0453L14.6662 15.1422C14.9024 14.643 15.4986 14.4299 15.9978 14.6662C16.497 14.9024 16.7102 15.4986 16.4739 15.9978L13.9039 21.4278C13.7232 21.8097 13.322 22.0367 12.9016 21.9952C12.4813 21.9536 12.1323 21.6524 12.0299 21.2426L10.1754 13.8247L2.75749 11.9702C2.34767 11.8677 2.04643 11.5188 2.00488 11.0984C1.96332 10.678 2.1904 10.2769 2.57222 10.0962L8.00223 7.52617C8.50142 7.2899 9.09763 7.50304 9.3339 8.00224Z" fill="black"/>
<path fill-rule="evenodd" clip-rule="evenodd" d="M22.7071 1.29292C23.006 1.59178 23.0847 2.04625 22.9037 2.42819L18.2937 12.1582C18.0572 12.6573 17.4609 12.8702 16.9618 12.6337C16.4627 12.3973 16.2498 11.801 16.4863 11.3019L19.8971 4.10293L12.6982 7.51373C12.1991 7.7502 11.6028 7.5373 11.3663 7.0382C11.1298 6.5391 11.3427 5.9428 11.8418 5.70633L21.5718 1.09633C21.9538 0.915366 22.4083 0.994066 22.7071 1.29292Z" fill="black"/>
<path fill-rule="evenodd" clip-rule="evenodd" d="M1.29289 1.29293C1.68342 0.902408 2.31658 0.902408 2.70711 1.29293L22.7071 21.2929C23.0976 21.6835 23.0976 22.3166 22.7071 22.7071C22.3166 23.0977 21.6834 23.0977 21.2929 22.7071L1.29289 2.70715C0.902369 2.31662 0.902369 1.68346 1.29289 1.29293Z" fill="black"/>
</svg>
