<svg width="24" height="24" viewBox="0 0 24 24" fill="none" xmlns="http://www.w3.org/2000/svg">
<path d="M11 12V2C11 1.44772 11.4477 1 12 1C12.5523 1 13 1.44772 13 2V12C13 12.5523 12.5523 13 12 13C11.4477 13 11 12.5523 11 12Z" fill="black"/>
<path d="M7.63184 3.50391C7.90585 3.02439 8.51658 2.85783 8.99609 3.13184L15.9961 7.13184C16.4756 7.40585 16.6422 8.01658 16.3682 8.49609C16.0942 8.97561 15.4834 9.14217 15.0039 8.86816L8.00391 4.86816C7.52439 4.59415 7.35783 3.98342 7.63184 3.50391Z" fill="black"/>
<path d="M15.0039 3.13184C15.4834 2.85783 16.0942 3.02439 16.3682 3.50391C16.6422 3.98342 16.4756 4.59415 15.9961 4.86816L8.99609 8.86816C8.51658 9.14217 7.90585 8.97561 7.63184 8.49609C7.35783 8.01658 7.52439 7.40585 8.00391 7.13184L15.0039 3.13184Z" fill="black"/>
<path d="M16 17C16 14.7909 14.2091 13 12 13C9.79086 13 8 14.7909 8 17C8 19.2091 9.79086 21 12 21C14.2091 21 16 19.2091 16 17ZM18 17C18 20.3137 15.3137 23 12 23C8.68629 23 6 20.3137 6 17C6 13.6863 8.68629 11 12 11C15.3137 11 18 13.6863 18 17Z" fill="black"/>
</svg>
