<svg width="24" height="24" viewBox="0 0 24 24" fill="none" xmlns="http://www.w3.org/2000/svg">
<path fill-rule="evenodd" clip-rule="evenodd" d="M12 1C12.5523 1 13 1.44772 13 2V4C13 4.55228 12.5523 5 12 5C11.4477 5 11 4.55228 11 4V2C11 1.44772 11.4477 1 12 1Z" fill="black"/>
<path fill-rule="evenodd" clip-rule="evenodd" d="M5.00001 9C5.55229 9 6.00001 9.44772 6.00001 10V13.9999C6.00001 13.9999 6.00001 13.9999 6.00001 13.9999C6.00017 15.3344 6.44497 16.631 7.26414 17.6846C8.08315 18.738 9.22972 19.4885 10.5228 19.8177C11.027 19.9451 11.5573 20.1813 12 20.5892C12.4427 20.1813 12.973 19.9451 13.4772 19.8177C14.7704 19.4887 15.917 18.7382 16.7361 17.6847C17.5553 16.6311 18 15.3346 18 14V10C18 9.44772 18.4477 9 19 9C19.5523 9 20 9.44772 20 10V14C20 15.7792 19.4071 17.5077 18.315 18.9124C17.2229 20.317 15.6938 21.3176 13.9695 21.7562L13.9678 21.7566C13.6814 21.8289 13.4688 21.9454 13.3281 22.0861L12.7071 22.7071C12.3166 23.0976 11.6834 23.0976 11.2929 22.7071L10.6719 22.0861C10.5312 21.9454 10.3186 21.8289 10.0323 21.7566L10.0304 21.7561C8.30621 21.3174 6.7773 20.3168 5.68523 18.9122C4.59316 17.5076 4.0002 15.7793 4.00001 14.0001V10C4.00001 9.44772 4.44772 9 5.00001 9Z" fill="black"/>
<path fill-rule="evenodd" clip-rule="evenodd" d="M6.22494 4.36342C7.8072 3.53789 9.84115 3 12 3C14.1589 3 16.1928 3.53789 17.7751 4.36342C19.3071 5.16272 20.6168 6.34395 20.9701 7.75746C21.1655 8.54045 21.5182 9.33533 22.6241 10.2187C22.9391 10.4703 23.0722 10.8864 22.9617 11.2741C22.8512 11.6618 22.5187 11.9452 22.1184 11.993C21.3836 12.0806 20.7247 12.0713 20.0713 11.8492C19.8215 11.7643 19.5873 11.6532 19.3619 11.5203C19.2645 11.6512 19.1555 11.7764 19.0329 11.8965C18.5948 12.3254 18.0429 12.6252 17.4128 12.9108C17.1563 13.0271 16.8626 13.0298 16.604 12.9183C15.8996 12.6145 15.3375 12.3164 14.8564 11.9284C14.7221 11.8201 14.5978 11.7078 14.4809 11.5907C14.3694 11.698 14.2517 11.8014 14.126 11.9018C13.6556 12.2774 13.1096 12.5807 12.4284 12.9036C12.1702 13.026 11.872 13.0321 11.609 12.9204C10.9061 12.6218 10.3321 12.3287 9.84456 11.9407C9.71941 11.8411 9.60302 11.7378 9.49356 11.6299C9.40855 11.7116 9.31844 11.7917 9.22219 11.8702C8.74587 12.2591 8.16387 12.5762 7.40702 12.9134C7.10147 13.0496 6.74808 13.0239 6.46538 12.8451C5.92891 12.5057 5.49439 12.1904 5.11452 11.8115C4.96655 11.6639 4.83186 11.5116 4.70525 11.3514C4.45027 11.4841 4.1924 11.595 3.91902 11.6852C3.34493 11.8745 2.7556 11.9547 2.06248 11.998C1.64459 12.0242 1.25465 11.7873 1.08537 11.4043C0.916094 11.0213 1.00332 10.5735 1.30394 10.282C2.32727 9.28993 2.85232 8.46559 3.02986 7.75746C3.38341 6.34416 4.69311 5.16263 6.22494 4.36342ZM19.2789 9.03968C19.1762 8.77239 19.0957 8.50651 19.0299 8.24254C18.8832 7.65605 18.1929 6.83728 16.8499 6.13659C15.5572 5.46211 13.8412 5 12 5C10.1589 5 8.44281 5.46211 7.15007 6.13659C5.80707 6.83728 5.11677 7.65605 4.97014 8.24254C4.90175 8.51554 4.80778 8.78448 4.69072 9.04903C4.85881 8.99436 5.04013 8.98468 5.21608 9.02362C5.48751 9.08369 5.72169 9.25405 5.86242 9.4938C6.10557 9.90806 6.30148 10.1706 6.52699 10.3955C6.6754 10.5436 6.85067 10.6894 7.08509 10.8557C7.48872 10.6546 7.75569 10.4856 7.95732 10.321C8.21551 10.1102 8.40793 9.87302 8.64452 9.48216C8.8262 9.18203 9.15186 8.99906 9.50269 9C9.85352 9.00095 10.1782 9.18567 10.3583 9.48677C10.6142 9.91479 10.8285 10.1677 11.0899 10.3758C11.3015 10.5442 11.5729 10.7064 11.9784 10.8962C12.3771 10.6913 12.6545 10.5174 12.878 10.3389C13.1592 10.1144 13.3916 9.85331 13.672 9.43923C13.8604 9.16112 14.1758 8.99615 14.5117 9.00007C14.8475 9.00398 15.159 9.17625 15.3408 9.45868C15.6211 9.89396 15.8443 10.1558 16.1119 10.3716C16.3234 10.5422 16.591 10.7069 16.9876 10.8968C17.3104 10.7305 17.5015 10.5968 17.6338 10.4673C17.7894 10.315 17.9173 10.1158 18.0448 9.7041C18.1453 9.37951 18.4038 9.1282 18.7311 9.03683C18.9132 8.98599 19.1028 8.98854 19.2789 9.03968Z" fill="black"/>
</svg>
