<svg width="24" height="24" viewBox="0 0 24 24" fill="none" xmlns="http://www.w3.org/2000/svg">
<path fill-rule="evenodd" clip-rule="evenodd" d="M16.2097 6.40884C14.9959 5.49496 13.5177 5.0008 11.9984 5.00098C10.479 5.00116 9.00098 5.49567 7.78741 6.40984C6.57385 7.32401 5.69067 8.6082 5.27123 10.0685C4.85179 11.5288 4.91886 13.086 5.46232 14.5048C6.00548 15.9229 6.99503 17.1258 8.28169 17.9323C8.49838 18.0668 8.67776 18.2537 8.80329 18.4757C8.92953 18.6991 8.99718 18.9508 8.99994 19.2073C8.99996 19.2092 8.99998 19.2111 8.99999 19.2131C9 19.2147 9 19.2164 9 19.2181V19.5001C9 19.8979 8.84196 20.2794 8.56066 20.5607C8.27935 20.842 7.89782 21.0001 7.5 21.0001H3C2.44772 21.0001 2 20.5524 2 20.0001C2 19.4478 2.44772 19.0001 3 19.0001H6.34122C5.11384 18.0079 4.16369 16.7058 3.59463 15.2202C2.8959 13.396 2.80967 11.3939 3.34895 9.51638C3.88824 7.63884 5.02375 5.98773 6.58405 4.81237C8.14434 3.63701 10.0447 3.00121 11.9981 3.00098C13.9516 3.00075 15.8521 3.6361 17.4127 4.81109C18.9732 5.98609 20.1091 7.63693 20.6489 9.51435C21.1886 11.3918 21.1028 13.3938 20.4045 15.2182C19.8356 16.7047 18.8851 18.0074 17.6572 19.0001H21C21.5523 19.0001 22 19.4478 22 20.0001C22 20.5524 21.5523 21.0001 21 21.0001H16.5C16.1022 21.0001 15.7206 20.842 15.4393 20.5607C15.158 20.2794 15 19.8979 15 19.5001V19.2181C15 19.2151 15 19.2122 15 19.2093C15.0023 18.9522 15.0697 18.6999 15.196 18.476C15.3215 18.2534 15.5012 18.0661 15.7183 17.9313C17.0047 17.1246 17.9939 15.9214 18.5367 14.5033C19.0798 13.0843 19.1465 11.5271 18.7267 10.0669C18.3069 8.60672 17.4234 7.32273 16.2097 6.40884Z" fill="black"/>
</svg>
