<svg width="24" height="24" viewBox="0 0 24 24" fill="none" xmlns="http://www.w3.org/2000/svg">
<path d="M19.7895 5.64994C20.2501 5.34532 20.8706 5.4716 21.1753 5.93216C22.3619 7.72586 22.997 9.82834 23.0014 11.979C23.0058 14.1297 22.3789 16.2342 21.1997 18.0328C20.0204 19.8314 18.3399 21.2448 16.3657 22.0982C14.3915 22.9516 12.2103 23.2077 10.0923 22.8345C9.54854 22.7385 9.1859 22.2201 9.2817 21.6763C9.37761 21.1325 9.89606 20.769 10.4399 20.8648C12.1728 21.17 13.9576 20.9605 15.5727 20.2622C17.1877 19.564 18.563 18.4075 19.5278 16.9361C20.4925 15.4646 21.0051 13.7425 21.0014 11.9829C20.9978 10.2233 20.4782 8.50323 19.5073 7.03568C19.2026 6.57507 19.3289 5.95467 19.7895 5.64994Z" fill="black"/>
<path d="M7.63942 1.90072C9.61424 1.04804 11.7956 0.793022 13.9138 1.16732C14.4576 1.26341 14.8203 1.7818 14.7244 2.32552C14.6283 2.86932 14.11 3.23305 13.5662 3.13705C11.8331 2.83076 10.0482 3.03905 8.43239 3.73666C6.81667 4.43429 5.44088 5.59046 4.47536 7.06185C3.50983 8.53338 2.99654 10.2559 2.99977 12.016C3.00302 13.7759 3.5221 15.4963 4.49294 16.9642C4.79761 17.4248 4.67134 18.0453 4.21071 18.3499C3.75008 18.6546 3.12965 18.5283 2.82497 18.0677C1.63834 16.2736 1.00378 14.1709 0.999774 12.0199C0.995827 9.86889 1.62257 7.76362 2.80251 5.96517C3.98261 4.16664 5.66452 2.75343 7.63942 1.90072Z" fill="black"/>
<path d="M14 12C14 10.8954 13.1046 10 12 10C10.8954 10 10 10.8954 10 12C10 13.1046 10.8954 14 12 14C13.1046 14 14 13.1046 14 12ZM16 12C16 14.2091 14.2091 16 12 16C9.79086 16 8 14.2091 8 12C8 9.79086 9.79086 8 12 8C14.2091 8 16 9.79086 16 12Z" fill="black"/>
<path d="M20 5C20 4.44772 19.5523 4 19 4C18.4477 4 18 4.44772 18 5C18 5.55228 18.4477 6 19 6C19.5523 6 20 5.55228 20 5ZM22 5C22 6.65685 20.6569 8 19 8C17.3431 8 16 6.65685 16 5C16 3.34315 17.3431 2 19 2C20.6569 2 22 3.34315 22 5Z" fill="black"/>
<path d="M6 19C6 18.4477 5.55228 18 5 18C4.44772 18 4 18.4477 4 19C4 19.5523 4.44772 20 5 20C5.55228 20 6 19.5523 6 19ZM8 19C8 20.6569 6.65685 22 5 22C3.34315 22 2 20.6569 2 19C2 17.3431 3.34315 16 5 16C6.65685 16 8 17.3431 8 19Z" fill="black"/>
</svg>
