<svg width="24" height="24" viewBox="0 0 24 24" fill="none" xmlns="http://www.w3.org/2000/svg">
<path fill-rule="evenodd" clip-rule="evenodd" d="M11 16C11 15.4477 11.4477 15 12 15H12.01C12.5623 15 13.01 15.4477 13.01 16C13.01 16.5523 12.5623 17 12.01 17H12C11.4477 17 11 16.5523 11 16Z" fill="black"/>
<path fill-rule="evenodd" clip-rule="evenodd" d="M12 7C12.5523 7 13 7.44772 13 8V12C13 12.5523 12.5523 13 12 13C11.4477 13 11 12.5523 11 12V8C11 7.44772 11.4477 7 12 7Z" fill="black"/>
<path fill-rule="evenodd" clip-rule="evenodd" d="M7.00689 1.29289C7.19443 1.10536 7.44878 1 7.714 1H16.286C16.5512 1 16.8056 1.10536 16.9931 1.29289L22.7071 7.00689C22.8946 7.19443 23 7.44878 23 7.714V16.286C23 16.5512 22.8946 16.8056 22.7071 16.9931L16.9931 22.7071C16.8056 22.8946 16.5512 23 16.286 23H7.714C7.44878 23 7.19443 22.8946 7.00689 22.7071L1.29289 16.9931C1.10536 16.8056 1 16.5512 1 16.286V7.714C1 7.44878 1.10536 7.19443 1.29289 7.00689L7.00689 1.29289ZM8.12821 3L3 8.12821V15.8718L8.12821 21H15.8718L21 15.8718V8.12821L15.8718 3H8.12821Z" fill="black"/>
</svg>
