<svg width="24" height="24" viewBox="0 0 24 24" fill="none" xmlns="http://www.w3.org/2000/svg">
<path fill-rule="evenodd" clip-rule="evenodd" d="M15.7071 8.29289C16.0976 8.68342 16.0976 9.31658 15.7071 9.70711L9.70711 15.7071C9.31658 16.0976 8.68342 16.0976 8.29289 15.7071C7.90237 15.3166 7.90237 14.6834 8.29289 14.2929L14.2929 8.29289C14.6834 7.90237 15.3166 7.90237 15.7071 8.29289Z" fill="black"/>
<path fill-rule="evenodd" clip-rule="evenodd" d="M8.29289 8.29289C8.68342 7.90237 9.31658 7.90237 9.70711 8.29289L15.7071 14.2929C16.0976 14.6834 16.0976 15.3166 15.7071 15.7071C15.3166 16.0976 14.6834 16.0976 14.2929 15.7071L8.29289 9.70711C7.90237 9.31658 7.90237 8.68342 8.29289 8.29289Z" fill="black"/>
<path fill-rule="evenodd" clip-rule="evenodd" d="M7.00689 1.29289C7.19443 1.10536 7.44878 1 7.714 1H16.286C16.5512 1 16.8056 1.10536 16.9931 1.29289L22.7071 7.00689C22.8946 7.19443 23 7.44878 23 7.714V16.286C23 16.5512 22.8946 16.8056 22.7071 16.9931L16.9931 22.7071C16.8056 22.8946 16.5512 23 16.286 23H7.714C7.44878 23 7.19443 22.8946 7.00689 22.7071L1.29289 16.9931C1.10536 16.8056 1 16.5512 1 16.286V7.714C1 7.44878 1.10536 7.19443 1.29289 7.00689L7.00689 1.29289ZM8.12821 3L3 8.12821V15.8718L8.12821 21H15.8718L21 15.8718V8.12821L15.8718 3H8.12821Z" fill="black"/>
</svg>
