<svg width="24" height="24" viewBox="0 0 24 24" fill="none" xmlns="http://www.w3.org/2000/svg">
<path fill-rule="evenodd" clip-rule="evenodd" d="M13 4.00616V12C13 12.5523 12.5523 13 12 13C11.4477 13 11 12.5523 11 12V4C11 2.90305 11.9031 2 13 2H19.2971C21.1332 2.00017 21.9927 4.32256 20.5991 5.518L15.9028 9.54327C15.4835 9.90268 14.8522 9.85411 14.4927 9.43478C14.1333 9.01545 14.1819 8.38415 14.6012 8.02473L19.2852 4.01003C19.2852 4.00988 19.2853 4.01018 19.2852 4.01003C19.2848 4.00849 19.2841 4.0065 19.2836 4.00495C19.283 4.0034 19.2824 4.00189 19.2817 4.00043C19.2816 4.00028 19.2818 4.00057 19.2817 4.00043L13.0062 4C13.006 4.00016 13.0052 4.00078 13.005 4.00095C13.0048 4.00109 13.0051 4.0008 13.005 4.00095C13.0048 4.0011 13.0041 4.0017 13.0039 4.00186C13.0036 4.00218 13.0032 4.00251 13.0029 4.00286C13.0025 4.0032 13.0022 4.00355 13.0019 4.0039C13.0015 4.00425 13.0012 4.0046 13.001 4.00495C13.0007 4.00529 13.0002 4.00585 13 4.00616C13.0001 4.00609 13 4.00624 13 4.00616Z" fill="black"/>
<path fill-rule="evenodd" clip-rule="evenodd" d="M5.01325 6.42855C5.01107 6.42919 5.0088 6.42999 5.00649 6.43095C5.00419 6.4319 5.00201 6.43295 5.00001 6.43403V12.1719C5.00001 12.1718 5.00001 12.1719 5.00001 12.1719C5.00012 12.437 5.10551 12.6914 5.29301 12.8789L12.7071 20.293C13.0976 20.6835 13.0976 21.3167 12.7071 21.7072C12.3166 22.0977 11.6834 22.0977 11.2929 21.7072L3.87901 14.2933C3.87897 14.2933 3.87904 14.2933 3.87901 14.2933C3.31643 13.7308 3.00018 12.9678 3.00001 12.1723V6.41508C3.00001 6.41341 3.00001 6.41175 3.00002 6.41008C3.00879 4.65597 5.16415 3.76328 6.41061 4.99749C6.41185 4.99871 6.41308 4.99994 6.41431 5.00117L20.7073 19.3022C21.0977 19.6928 21.0975 20.326 20.7069 20.7164C20.3163 21.1068 19.6831 21.1066 19.2927 20.716L5.01325 6.42855Z" fill="black"/>
<path fill-rule="evenodd" clip-rule="evenodd" d="M11.7238 2.50935C12.2052 2.2387 12.8149 2.40955 13.0856 2.89097L21.4998 17.8573C21.9372 18.6361 21.7997 19.6248 21.1665 20.2547L19.9981 21.418C19.623 21.7912 19.1152 22.0005 18.5861 22H6.35136C6.35121 22 6.35152 22 6.35136 22C5.89721 22.0001 5.45607 21.8457 5.10136 21.562L2.62539 19.5811C2.62531 19.581 2.62547 19.5811 2.62539 19.5811C1.87021 18.977 1.75682 18.0512 2.01542 17.3448C2.27029 16.6485 2.94268 16.0129 3.88739 16.0191L8.05238 16.0461C8.60465 16.0496 9.04945 16.5002 9.04587 17.0525C9.04229 17.6048 8.59169 18.0496 8.03941 18.046L3.89951 18.0192C3.89923 18.0197 3.89896 18.0202 3.89868 18.0207C3.89773 18.0225 3.89681 18.0244 3.89594 18.0263C3.89548 18.0274 3.89505 18.0284 3.89463 18.0294C3.89425 18.0304 3.89388 18.0313 3.89353 18.0323C3.89334 18.0328 3.89315 18.0333 3.89297 18.0339L6.35043 20H18.5877L19.7529 18.8398C19.7529 18.8398 19.7529 18.8398 19.7529 18.8398C19.753 18.8394 19.7532 18.8388 19.7533 18.8383C19.7535 18.8377 19.7536 18.837 19.7537 18.8364C19.7537 18.8358 19.7538 18.8351 19.7538 18.8345C19.7539 18.8339 19.7539 18.8334 19.7539 18.833L11.3422 3.8711C11.0716 3.38969 11.2424 2.78001 11.7238 2.50935Z" fill="black"/>
</svg>
