<svg width="24" height="24" viewBox="0 0 24 24" fill="none" xmlns="http://www.w3.org/2000/svg">
<path fill-rule="evenodd" clip-rule="evenodd" d="M14 2C14.5523 2 15 2.44772 15 3V14C15 14.5523 14.5523 15 14 15C13.4477 15 13 14.5523 13 14V3C13 2.44772 13.4477 2 14 2Z" fill="black"/>
<path fill-rule="evenodd" clip-rule="evenodd" d="M11 4C10.4696 4 9.96086 4.21071 9.58578 4.58579C9.21071 4.96086 9 5.46957 9 6C9 6.53043 9.21071 7.03914 9.58578 7.41421C9.96086 7.78929 10.4696 8 11 8H14C14.5523 8 15 8.44772 15 9C15 9.55228 14.5523 10 14 10H11C9.93913 10 8.92172 9.57857 8.17157 8.82843C7.42143 8.07828 7 7.06087 7 6C7 4.93913 7.42143 3.92172 8.17157 3.17157C8.92172 2.42143 9.93913 2 11 2H20C20.5523 2 21 2.44772 21 3C21 3.55228 20.5523 4 20 4H11Z" fill="black"/>
<path fill-rule="evenodd" clip-rule="evenodd" d="M18 2C18.5523 2 19 2.44772 19 3V14C19 14.5523 18.5523 15 18 15C17.4477 15 17 14.5523 17 14V3C17 2.44772 17.4477 2 18 2Z" fill="black"/>
<path fill-rule="evenodd" clip-rule="evenodd" d="M6.70711 13.2929C7.09763 13.6834 7.09763 14.3166 6.70711 14.7071L4.41421 17H22C22.5523 17 23 17.4477 23 18C23 18.5523 22.5523 19 22 19H2C1.59554 19 1.2309 18.7564 1.07612 18.3827C0.921338 18.009 1.00689 17.5789 1.29289 17.2929L5.29289 13.2929C5.68342 12.9024 6.31658 12.9024 6.70711 13.2929Z" fill="black"/>
<path fill-rule="evenodd" clip-rule="evenodd" d="M1.29289 17.2929C1.68342 16.9024 2.31658 16.9024 2.70711 17.2929L6.70711 21.2929C7.09763 21.6834 7.09763 22.3166 6.70711 22.7071C6.31658 23.0976 5.68342 23.0976 5.29289 22.7071L1.29289 18.7071C0.902368 18.3166 0.902368 17.6834 1.29289 17.2929Z" fill="black"/>
</svg>
