<svg width="24" height="24" viewBox="0 0 24 24" fill="none" xmlns="http://www.w3.org/2000/svg">
<path d="M5.29289 1.29289C5.68342 0.902369 6.31643 0.902369 6.70696 1.29289L11.707 6.29289C12.0975 6.68342 12.0975 7.31643 11.707 7.70696C11.3164 8.09748 10.6834 8.09748 10.2929 7.70696L5.29289 2.70696C4.90237 2.31643 4.90237 1.68342 5.29289 1.29289Z" fill="black"/>
<path d="M18.9922 11C19.5444 11.0001 19.9922 11.4478 19.9922 12C19.9922 12.5522 19.5444 12.9999 18.9922 13H2.04102C1.48873 13 1.04102 12.5523 1.04102 12C1.04102 11.4477 1.48873 11 2.04102 11H18.9922Z" fill="black"/>
<path d="M19.9978 15.5C20.4699 15.499 20.8781 15.8285 20.9773 16.29C21.0882 16.8071 21.3715 17.2716 21.78 17.6074C22.5241 18.2153 22.9957 19.025 22.9997 19.9629L22.989 20.2598C22.9633 20.5553 22.8933 20.8459 22.782 21.1221C22.6334 21.4903 22.4135 21.8259 22.1345 22.1084C21.8555 22.3909 21.5233 22.6155 21.157 22.7686C20.7905 22.9217 20.3969 23 19.9997 23C19.6028 23 19.2097 22.9215 18.8435 22.7686C18.477 22.6155 18.144 22.391 17.865 22.1084C17.5859 21.8258 17.3661 21.4904 17.2175 21.1221C17.069 20.7539 16.9948 20.3599 16.9997 19.9629C17.0037 19.0395 17.4626 18.2158 18.2234 17.6045L18.3699 17.4736C18.6985 17.1554 18.9265 16.7456 19.0212 16.2949C19.1183 15.8327 19.5255 15.501 19.9978 15.5ZM20.0007 18.6582C19.8441 18.8366 19.6731 19.0037 19.487 19.1553L19.4792 19.1611C19.0979 19.4663 18.9999 19.7558 18.9997 19.9746V19.9873C18.9981 20.1196 19.0225 20.2513 19.072 20.374C19.1215 20.4968 19.1948 20.6089 19.2878 20.7031C19.3808 20.7973 19.4919 20.8718 19.614 20.9229C19.7361 20.9739 19.8674 21 19.9997 21C20.1321 21 20.2634 20.9739 20.3855 20.9229C20.5076 20.8718 20.6187 20.7972 20.7117 20.7031C20.8047 20.6089 20.878 20.4968 20.9275 20.374C20.977 20.2513 21.0014 20.1197 20.9997 19.9873V19.9746C20.9996 19.7587 20.9036 19.4744 20.5124 19.1553L20.5095 19.1523C20.3256 19.0012 20.1559 18.8355 20.0007 18.6582Z" fill="black"/>
<path d="M19.0012 10.5C19.0012 10.4456 18.9791 10.3929 18.9407 10.3545L11.6448 3.05859C11.6064 3.02041 11.5544 2.99911 11.5002 2.99902C11.4459 2.99902 11.3932 3.02022 11.3547 3.05859L9.20728 5.20703C8.81682 5.59749 8.18375 5.59735 7.79321 5.20703C7.40269 4.81651 7.40269 4.18349 7.79321 3.79297L9.94067 1.64453C10.3542 1.23108 10.9155 0.999023 11.5002 0.999023C12.0848 0.999106 12.6454 1.23127 13.0588 1.64453L20.3547 8.94043C20.7682 9.35394 21.0012 9.91525 21.0012 10.5C21.0012 11.0847 20.7682 11.6451 20.3547 12.0586L12.7629 19.6514C11.8976 20.5165 10.7239 21.0028 9.50024 21.0029C8.27639 21.0029 7.10203 20.5167 6.23657 19.6514L2.34888 15.7627C1.48362 14.8973 0.997342 13.7238 0.997314 12.5C0.997314 11.2762 1.48366 10.1027 2.34888 9.2373L4.96313 6.62305C5.35366 6.23255 5.98668 6.23253 6.3772 6.62305C6.76751 7.01358 6.76763 7.64665 6.3772 8.03711L3.76294 10.6514C3.27279 11.1417 2.99731 11.8067 2.99731 12.5C2.99734 13.1934 3.27275 13.8583 3.76294 14.3486L7.65063 18.2363C8.14103 18.7267 8.80677 19.0029 9.50024 19.0029C10.1936 19.0028 10.8586 18.7266 11.3489 18.2363L18.9407 10.6445C18.979 10.6061 19.0012 10.5543 19.0012 10.5Z" fill="black"/>
</svg>
