<svg width="24" height="24" viewBox="0 0 24 24" fill="none" xmlns="http://www.w3.org/2000/svg">
<path d="M12.75 16.2501C13.1544 16.2501 13.519 16.4937 13.6738 16.8673C13.8286 17.2409 13.743 17.6711 13.457 17.9571L12.707 18.7071C12.3165 19.0976 11.6835 19.0976 11.293 18.7071L10.543 17.9571C10.257 17.6711 10.1714 17.2409 10.3262 16.8673C10.481 16.4937 10.8456 16.2501 11.25 16.2501H12.75Z" fill="black"/>
<path d="M14.293 11.293C14.6835 10.9025 15.3165 10.9025 15.707 11.293L17.707 13.293C18.0975 13.6836 18.0975 14.3166 17.707 14.7071C17.3165 15.0976 16.6835 15.0976 16.293 14.7071L14.293 12.7071C13.9024 12.3166 13.9024 11.6836 14.293 11.293Z" fill="black"/>
<path d="M19 6.50007C19 7.05236 18.5523 7.50007 18 7.50007C17.5944 7.50007 17.2457 7.25829 17.0889 6.91121C16.7418 6.75434 16.5 6.40571 16.5 6.00007C16.5 5.44779 16.9477 5.00007 17.5 5.00007C17.8978 5.00007 18.2792 5.15822 18.5605 5.43953C18.8418 5.72083 19 6.10225 19 6.50007Z" fill="black"/>
<path d="M21.0003 14.5003C21.0003 13.1055 20.5933 11.6239 19.8694 10.2405C19.5979 9.85089 19.6353 9.3111 19.9827 8.9632C20.3326 8.6127 20.6044 8.19204 20.7796 7.72883C20.9548 7.26552 21.0297 6.7701 20.9993 6.2757C20.9689 5.78137 20.8335 5.29895 20.6028 4.86066C20.3721 4.42235 20.0507 4.0377 19.6604 3.73273C19.2701 3.42777 18.8193 3.20897 18.3382 3.09113C17.8571 2.97333 17.3564 2.95911 16.8694 3.04914C16.3823 3.13925 15.9192 3.33143 15.512 3.61359C15.1048 3.89574 14.7626 4.26143 14.5071 4.68586C14.2892 5.04797 13.8667 5.23417 13.4524 5.1507C12.4938 4.95746 11.5058 4.95746 10.5472 5.1507C10.1331 5.23396 9.71135 5.04773 9.49345 4.68586C9.23798 4.26139 8.89479 3.89576 8.48759 3.61359C8.08048 3.33154 7.61814 3.13924 7.13114 3.04914C6.64412 2.95905 6.14347 2.97338 5.66239 3.09113C5.18126 3.20895 4.73049 3.4278 4.34012 3.73273C3.94973 4.03773 3.62851 4.42228 3.39774 4.86066C3.16703 5.29901 3.03169 5.78128 3.00126 6.2757C2.97085 6.77011 3.04576 7.26551 3.22098 7.72883C3.39623 8.19209 3.6679 8.61269 4.01786 8.9632C4.32917 9.27499 4.39982 9.75454 4.19169 10.1429C3.43346 11.5577 3.00028 13.0763 3.00028 14.5003C3.00035 16.6373 3.94259 18.2129 5.4993 19.2913C7.09356 20.3956 9.37554 21.0003 12.0003 21.0003C14.6249 21.0003 16.9061 20.3956 18.5003 19.2913C20.0572 18.2129 21.0002 16.6374 21.0003 14.5003ZM23.0003 14.5003C23.0002 17.333 21.702 19.5069 19.639 20.9359C17.6133 22.3389 14.8953 23.0003 12.0003 23.0003C9.10504 23.0003 6.38638 22.339 4.36063 20.9359C2.29763 19.5069 1.00035 17.333 1.00028 14.5003C1.00028 12.9091 1.41934 11.2978 2.11649 9.81672C1.79713 9.39637 1.53754 8.93203 1.34989 8.43586C1.07458 7.70778 0.957341 6.92957 1.00516 6.15265C1.05299 5.37577 1.26474 4.6178 1.62723 3.92902C1.98986 3.24013 2.4952 2.63584 3.10868 2.15656C3.722 1.67743 4.4299 1.33393 5.18583 1.14875C5.94187 0.963613 6.72902 0.940815 7.49442 1.08234C8.25994 1.22394 8.98734 1.52664 9.62723 1.97004C10.0756 2.28078 10.4724 2.65719 10.8089 3.08332C11.5994 2.98177 12.3992 2.98188 13.1897 3.08332C13.5264 2.65682 13.9246 2.28098 14.3733 1.97004C15.0132 1.52668 15.7397 1.22394 16.5052 1.08234C17.2707 0.94074 18.0576 0.963583 18.8138 1.14875C19.5699 1.33392 20.2784 1.6773 20.8919 2.15656C21.5053 2.63581 22.0098 3.24022 22.3724 3.92902C22.7349 4.61785 22.9476 5.37571 22.9954 6.15265C23.0432 6.92961 22.925 7.70776 22.6497 8.43586C22.4631 8.92923 22.2048 9.39043 21.888 9.8089C22.5869 11.2951 23.0003 12.9088 23.0003 14.5003Z" fill="black"/>
<path d="M6.61227 5.00591C7.1159 5.06217 7.50501 5.49222 7.49996 6.00981C7.49588 6.412 7.25408 6.75494 6.91012 6.9102C6.75486 7.25416 6.41192 7.49596 6.00973 7.50005C5.45766 7.50543 5.00557 7.06193 4.99996 6.50981C4.998 6.31108 5.03617 6.11373 5.11129 5.92973L5.17379 5.79497C5.24335 5.66369 5.33202 5.54299 5.43746 5.43755L5.54782 5.33794C5.66276 5.24385 5.79163 5.16776 5.92965 5.11137L6.07028 5.06157C6.21262 5.0194 6.36073 4.99857 6.50973 5.00005L6.61227 5.00591Z" fill="black"/>
<path d="M8.29296 11.293C8.68348 10.9025 9.3165 10.9025 9.70702 11.293C10.0975 11.6836 10.0975 12.3166 9.70702 12.7071L7.70702 14.7071C7.3165 15.0976 6.68348 15.0976 6.29296 14.7071C5.90243 14.3166 5.90243 13.6836 6.29296 13.293L8.29296 11.293Z" fill="black"/>
</svg>
