<svg width="24" height="24" viewBox="0 0 24 24" fill="none" xmlns="http://www.w3.org/2000/svg">
<path fill-rule="evenodd" clip-rule="evenodd" d="M17.6531 5.93272C18.0437 5.54229 18.6769 5.54245 19.0673 5.93307C20.2624 7.12879 21.1349 8.60799 21.6032 10.2324C22.0715 11.8569 22.1203 13.5735 21.7451 15.222C21.6225 15.7605 21.0866 16.0976 20.548 15.9751C20.0095 15.8525 19.6724 15.3166 19.7949 14.778C20.0951 13.4593 20.0561 12.086 19.6815 10.7864C19.3068 9.48687 18.6088 8.30351 17.6527 7.34693C17.2623 6.95631 17.2624 6.32315 17.6531 5.93272Z" fill="black"/>
<path fill-rule="evenodd" clip-rule="evenodd" d="M6.92575 5.51684C7.28095 5.93975 7.22606 6.57053 6.80315 6.92573C5.95391 7.639 5.26224 8.52105 4.77207 9.51589C4.2819 10.5107 4.00394 11.5966 3.95582 12.7046C3.9077 13.8126 4.09048 14.9185 4.49255 15.9521C4.89463 16.9857 5.50722 17.9244 6.29143 18.7086C7.07564 19.4928 8.01433 20.1054 9.04792 20.5074C10.0815 20.9095 11.1874 21.0923 12.2954 21.0442C13.4034 20.9961 14.4893 20.7181 15.4841 20.2279C16.4789 19.7377 17.361 19.0461 18.0743 18.1968C18.4295 17.7739 19.0602 17.719 19.4831 18.0742C19.9061 18.4294 19.961 19.0602 19.6058 19.4831C18.7142 20.5447 17.6116 21.4093 16.3681 22.022C15.1245 22.6347 13.7672 22.9821 12.3822 23.0423C10.9972 23.1024 9.61481 22.874 8.32282 22.3714C7.03084 21.8688 5.85747 21.103 4.87721 20.1228C3.89695 19.1425 3.13122 17.9691 2.62862 16.6772C2.12603 15.3852 1.89755 14.0028 1.9577 12.6178C2.01785 11.2328 2.36531 9.87548 2.97802 8.63193C3.59073 7.38839 4.45531 6.28582 5.51686 5.39424C5.93978 5.03904 6.57056 5.09393 6.92575 5.51684Z" fill="black"/>
<path fill-rule="evenodd" clip-rule="evenodd" d="M12 1C12.5523 1 13 1.44772 13 2V6C13 6.55228 12.5523 7 12 7C11.4477 7 11 6.55228 11 6V2C11 1.44772 11.4477 1 12 1Z" fill="black"/>
<path fill-rule="evenodd" clip-rule="evenodd" d="M1.29289 1.29289C1.68342 0.902369 2.31658 0.902369 2.70711 1.29289L22.7071 21.2929C23.0976 21.6834 23.0976 22.3166 22.7071 22.7071C22.3166 23.0976 21.6834 23.0976 21.2929 22.7071L1.29289 2.70711C0.902369 2.31658 0.902369 1.68342 1.29289 1.29289Z" fill="black"/>
</svg>
