<svg width="24" height="24" viewBox="0 0 24 24" fill="none" xmlns="http://www.w3.org/2000/svg">
<path d="M12 1.00195C12.5249 1.00195 13.0401 1.14066 13.4951 1.40234L13.4961 1.40137L20.4961 5.40137L20.5 5.4043C20.9555 5.66734 21.3344 6.04557 21.5977 6.50098C21.8608 6.95635 21.9995 7.4731 22 7.99902V16.001C21.9995 16.5269 21.8608 17.0436 21.5977 17.499C21.3344 17.9545 20.9556 18.3327 20.5 18.5957L20.4961 18.5986L13.4961 22.5986L13.4951 22.5977C13.0401 22.8593 12.5249 22.998 12 22.998C11.4748 22.998 10.9591 22.8596 10.5039 22.5977L3.50391 18.5986L3.5 18.5957C3.04444 18.3327 2.6656 17.9545 2.40234 17.499C2.13918 17.0436 2.00055 16.5269 2 16.001V7.99902L2.00684 7.80176C2.03742 7.34449 2.17219 6.89929 2.40234 6.50098C2.66559 6.04557 3.04448 5.66734 3.5 5.4043L3.50391 5.40137L10.5039 1.40137C10.9591 1.13941 11.4748 1.00195 12 1.00195ZM12 3.00195C11.8245 3.00195 11.652 3.048 11.5 3.13574L11.4961 3.1377L4.49902 7.13477L4.5 7.13574C4.34813 7.22342 4.22155 7.35013 4.13379 7.50195C4.04623 7.65365 4.00018 7.82582 4 8.00098V15.999L4.00879 16.1299C4.02601 16.2592 4.06815 16.3844 4.13379 16.498C4.22077 16.6485 4.34602 16.7738 4.49609 16.8613L11.4961 20.8613L11.5 20.8643C11.652 20.952 11.8245 20.998 12 20.998C12.1755 20.998 12.348 20.952 12.5 20.8643L12.5039 20.8613L19.5039 16.8613C19.654 16.7738 19.7792 16.6485 19.8662 16.498C19.9536 16.3466 19.9996 16.1748 20 16V8.00098L19.9912 7.87012C19.974 7.74083 19.9318 7.61564 19.8662 7.50195C19.7785 7.35013 19.6519 7.22342 19.5 7.13574L12.5039 3.1377L12.5 3.13574C12.348 3.048 12.1755 3.00195 12 3.00195Z" fill="black"/>
<path d="M11 22V12C11 11.4477 11.4477 11 12 11C12.5523 11 13 11.4477 13 12V22C13 22.5523 12.5523 23 12 23C11.4477 23 11 22.5523 11 22Z" fill="black"/>
<path d="M20.2118 6.13293C20.6907 5.85801 21.302 6.02326 21.577 6.50207C21.852 6.98101 21.6868 7.59232 21.2079 7.86731L12.4979 12.8673C12.1896 13.0443 11.8101 13.0443 11.5018 12.8673L2.79187 7.86731C2.31303 7.5923 2.1478 6.98099 2.42273 6.50207C2.69773 6.02323 3.30904 5.85801 3.78796 6.13293L11.9999 10.8468L20.2118 6.13293Z" fill="black"/>
<path d="M6.63173 3.77284C6.90609 3.29366 7.51768 3.12749 7.99696 3.40175L16.997 8.55214C17.4759 8.8265 17.6421 9.43721 17.3681 9.9164C17.0938 10.3958 16.4822 10.5618 16.0028 10.2875L7.00282 5.13808C6.52364 4.86372 6.35748 4.25213 6.63173 3.77284Z" fill="black"/>
</svg>
