<svg width="24" height="24" viewBox="0 0 24 24" fill="none" xmlns="http://www.w3.org/2000/svg">
<path fill-rule="evenodd" clip-rule="evenodd" d="M5 4C4.44772 4 4 4.44772 4 5V19C4 19.5523 4.44772 20 5 20H19C19.5523 20 20 19.5523 20 19V5C20 4.44772 19.5523 4 19 4H5ZM2 5C2 3.34315 3.34315 2 5 2H19C20.6569 2 22 3.34315 22 5V19C22 20.6569 20.6569 22 19 22H5C3.34315 22 2 20.6569 2 19V5Z" fill="black"/>
<path fill-rule="evenodd" clip-rule="evenodd" d="M2 15C2 14.4477 2.44772 14 3 14H21C21.5523 14 22 14.4477 22 15C22 15.5523 21.5523 16 21 16H3C2.44772 16 2 15.5523 2 15Z" fill="black"/>
<path fill-rule="evenodd" clip-rule="evenodd" d="M11.2929 6.29289C11.6834 5.90237 12.3166 5.90237 12.7071 6.29289L15.7071 9.29289C16.0976 9.68342 16.0976 10.3166 15.7071 10.7071C15.3166 11.0976 14.6834 11.0976 14.2929 10.7071L12 8.41421L9.70711 10.7071C9.31658 11.0976 8.68342 11.0976 8.29289 10.7071C7.90237 10.3166 7.90237 9.68342 8.29289 9.29289L11.2929 6.29289Z" fill="black"/>
</svg>
