<svg width="24" height="24" viewBox="0 0 24 24" fill="none" xmlns="http://www.w3.org/2000/svg">
<path fill-rule="evenodd" clip-rule="evenodd" d="M5 4C4.44772 4 4 4.44772 4 5V19C4 19.5523 4.44772 20 5 20H19C19.5523 20 20 19.5523 20 19V5C20 4.44772 19.5523 4 19 4H5ZM2 5C2 3.34315 3.34315 2 5 2H19C20.6569 2 22 3.34315 22 5V19C22 20.6569 20.6569 22 19 22H5C3.34315 22 2 20.6569 2 19V5Z" fill="black"/>
<path fill-rule="evenodd" clip-rule="evenodd" d="M15 2C15.5523 2 16 2.44772 16 3V21C16 21.5523 15.5523 22 15 22C14.4477 22 14 21.5523 14 21V3C14 2.44772 14.4477 2 15 2Z" fill="black"/>
<path fill-rule="evenodd" clip-rule="evenodd" d="M10.7071 8.29289C11.0976 8.68342 11.0976 9.31658 10.7071 9.70711L8.41421 12L10.7071 14.2929C11.0976 14.6834 11.0976 15.3166 10.7071 15.7071C10.3166 16.0976 9.68342 16.0976 9.29289 15.7071L6.29289 12.7071C5.90237 12.3166 5.90237 11.6834 6.29289 11.2929L9.29289 8.29289C9.68342 7.90237 10.3166 7.90237 10.7071 8.29289Z" fill="black"/>
</svg>
