<svg width="24" height="24" viewBox="0 0 24 24" fill="none" xmlns="http://www.w3.org/2000/svg">
<path d="M6.56508 16.0211C6.9556 15.6306 7.58862 15.6306 7.97914 16.0211C9.55774 17.5996 11.4322 18.8513 13.4948 19.7056C15.5571 20.5599 17.7674 20.9996 19.9997 20.9996C20.2649 20.9996 20.5201 20.8942 20.7077 20.7066C20.8949 20.5191 20.9997 20.2646 20.9997 19.9996V16.9996C20.9995 16.7345 20.8951 16.48 20.7077 16.2926C20.5201 16.105 20.2649 15.9996 19.9997 15.9996H16.9997C16.8446 15.9997 16.692 16.0367 16.5534 16.106C16.4145 16.1755 16.293 16.2758 16.1998 16.4L16.195 16.4068L15.8395 16.8697L15.8405 16.8707C15.5651 17.2323 15.175 17.4891 14.734 17.5992C14.2931 17.7093 13.8277 17.6668 13.4147 17.4771C13.407 17.4736 13.3989 17.4692 13.3913 17.4654C11.9105 16.7389 10.5597 15.7731 9.39321 14.607C9.00267 14.2165 9.00276 13.5835 9.39321 13.193C9.78368 12.8025 10.4167 12.8025 10.8073 13.193C11.8121 14.1974 12.9745 15.0305 14.2487 15.6588L14.2506 15.6578L14.6051 15.193C14.8839 14.8235 15.2448 14.524 15.6588 14.317C16.0752 14.1088 16.5341 13.9997 16.9997 13.9996H19.9997C20.7953 13.9996 21.5591 14.3159 22.1217 14.8785C22.6842 15.441 22.9995 16.2041 22.9997 16.9996V19.9996C22.9997 20.7952 22.6843 21.5591 22.1217 22.1217C21.5591 22.6842 20.7953 22.9996 19.9997 22.9996C17.5047 22.9996 15.0342 22.5081 12.7291 21.5533C10.424 20.5985 8.32937 19.1994 6.56508 17.4351C6.17457 17.0446 6.17462 16.4116 6.56508 16.0211Z" fill="black"/>
<path d="M21.2929 1.29289C21.6834 0.902369 22.3164 0.902369 22.707 1.29289C23.0975 1.68342 23.0975 2.31643 22.707 2.70696L2.70696 22.707C2.31643 23.0975 1.68342 23.0975 1.29289 22.707C0.902369 22.3164 0.902369 21.6834 1.29289 21.2929L21.2929 1.29289Z" fill="black"/>
<path d="M8 7V4C8 3.73478 7.89457 3.48051 7.70703 3.29297C7.51949 3.10543 7.26522 3 7 3H4C3.73478 3 3.4805 3.10543 3.29297 3.29297C3.10543 3.4805 3 3.73478 3 4C2.99933 7.20178 3.90273 10.3389 5.60645 13.0498C5.90033 13.5174 5.75959 14.1348 5.29199 14.4287C4.8244 14.7225 4.20695 14.5818 3.91309 14.1143C2.12791 11.2738 1.12904 8.01477 1.01172 4.66992L1 4C1 3.20435 1.3163 2.44152 1.87891 1.87891C2.44152 1.3163 3.20435 1 4 1H7C7.79565 1 8.55849 1.3163 9.12109 1.87891C9.6837 2.44152 10 3.20435 10 4V7C10 7.46573 9.89188 7.92523 9.68359 8.3418C9.47531 8.75836 9.17239 9.12095 8.7998 9.40039L8.33789 9.74512C8.41023 9.89207 8.48563 10.0375 8.56348 10.1816C8.82596 10.6676 8.6451 11.2746 8.15918 11.5371C7.67328 11.7995 7.06616 11.6177 6.80371 11.1318C6.71346 10.9647 6.62681 10.7954 6.54297 10.625L6.54102 10.6221C6.33868 10.2069 6.28622 9.73455 6.39258 9.28516C6.49903 8.83567 6.75789 8.4366 7.125 8.15625L7.13184 8.15137L7.59961 7.7998C7.72381 7.70666 7.8251 7.58612 7.89453 7.44727C7.96396 7.30841 8 7.15525 8 7Z" fill="black"/>
</svg>
