<svg width="24" height="24" viewBox="0 0 24 24" fill="none" xmlns="http://www.w3.org/2000/svg">
<path fill-rule="evenodd" clip-rule="evenodd" d="M16.4811 2.11794C17.1974 1.40185 18.1688 0.999629 19.1816 0.999756C20.1944 0.999883 21.1657 1.40235 21.8818 2.11862C22.5979 2.83489 23.0001 3.80628 23 4.81912C22.9999 5.83188 22.5975 6.80311 21.8813 7.51919C21.8812 7.51924 21.8812 7.51929 21.8811 7.51933L8.53428 20.8682L8.5331 20.8694C8.18536 21.216 7.75786 21.472 7.2881 21.6149L7.28731 21.6151L2.93431 22.9351L2.93199 22.9358C2.67265 23.0138 2.39707 23.0201 2.13446 22.954C1.87185 22.888 1.63201 22.7521 1.44038 22.5608C1.24875 22.3695 1.11248 22.1299 1.04604 21.8674C0.979597 21.6049 0.985452 21.3293 1.06299 21.0698C1.0634 21.0684 1.06381 21.0671 1.06423 21.0657L2.38523 16.7137L2.38605 16.711C2.5301 16.2412 2.78735 15.814 3.13518 15.4669C3.13547 15.4666 3.13576 15.4663 3.13605 15.466L16.4811 2.11794ZM17.8951 3.53233L4.5493 16.8812L4.54819 16.8823C4.43238 16.9977 4.34666 17.1399 4.29854 17.2961C4.29842 17.2965 4.2983 17.2969 4.29819 17.2973L3.25036 20.7493L6.70613 19.7014C6.86252 19.6538 7.00486 19.5687 7.1207 19.4533C7.12085 19.4532 7.12099 19.4531 7.12113 19.4529L20.4671 6.10494C20.8082 5.76388 20.9999 5.30126 21 4.81887C21.0001 4.33647 20.8085 3.8738 20.4674 3.53266C20.1264 3.19151 19.6637 2.99982 19.1813 2.99976C18.6989 2.9997 18.2363 3.19127 17.8951 3.53233Z" fill="black"/>
</svg>
