<svg width="24" height="24" viewBox="0 0 24 24" fill="none" xmlns="http://www.w3.org/2000/svg">
<path fill-rule="evenodd" clip-rule="evenodd" d="M6.13469 10.3577C6.65513 10.5425 6.9272 11.1143 6.74237 11.6347L3.64489 20.3565L12.3661 17.2674C12.8867 17.083 13.4582 17.3556 13.6426 17.8761C13.827 18.3967 13.5545 18.9682 13.0339 19.1526L2.33391 22.9426C1.97038 23.0714 1.56521 22.9797 1.29263 22.7068C1.02004 22.434 0.928626 22.0288 1.05769 21.6654L4.85769 10.9654C5.04252 10.4449 5.61425 10.1729 6.13469 10.3577Z" fill="black"/>
<path fill-rule="evenodd" clip-rule="evenodd" d="M3 3.00003C3 2.44774 3.44772 2.00003 4 2.00003H4.01C4.56228 2.00003 5.01 2.44774 5.01 3.00003C5.01 3.55231 4.56228 4.00003 4.01 4.00003H4C3.44772 4.00003 3 3.55231 3 3.00003Z" fill="black"/>
<path fill-rule="evenodd" clip-rule="evenodd" d="M21 8.00003C21 7.44774 21.4477 7.00003 22 7.00003H22.01C22.5623 7.00003 23.01 7.44774 23.01 8.00003C23.01 8.55231 22.5623 9.00003 22.01 9.00003H22C21.4477 9.00003 21 8.55231 21 8.00003Z" fill="black"/>
<path fill-rule="evenodd" clip-rule="evenodd" d="M14 2.00003C14 1.44774 14.4477 1.00003 15 1.00003H15.01C15.5623 1.00003 16.01 1.44774 16.01 2.00003C16.01 2.55231 15.5623 3.00003 15.01 3.00003H15C14.4477 3.00003 14 2.55231 14 2.00003Z" fill="black"/>
<path fill-rule="evenodd" clip-rule="evenodd" d="M21 20C21 19.4477 21.4477 19 22 19H22.01C22.5623 19 23.01 19.4477 23.01 20C23.01 20.5523 22.5623 21 22.01 21H22C21.4477 21 21 20.5523 21 20Z" fill="black"/>
<path fill-rule="evenodd" clip-rule="evenodd" d="M22.9483 1.68253C23.1236 2.20624 22.8412 2.77294 22.3175 2.94829L20.0761 3.69878C19.6583 3.83793 19.3019 4.11785 19.0676 4.4907C18.8334 4.86355 18.736 5.30617 18.7919 5.74292C18.7924 5.74678 18.7929 5.75065 18.7933 5.75453C18.9615 7.20062 17.8361 8.50003 16.35 8.50003H15.97C15.5782 8.50003 15.2603 8.77042 15.1924 9.12714C15.1919 9.12955 15.1914 9.13196 15.191 9.13436L14.981 10.1944C14.8736 10.7361 14.3475 11.0883 13.8057 10.981C13.2639 10.8736 12.9118 10.3474 13.0191 9.80569L13.2285 8.7489C13.4821 7.42776 14.6432 6.50003 15.97 6.50003H16.35C16.6227 6.50003 16.8366 6.26166 16.8072 5.98934C16.6944 5.0954 16.8947 4.1899 17.3741 3.4268C17.8547 2.66174 18.586 2.08729 19.4431 1.80157C19.4428 1.80167 19.4434 1.80147 19.4431 1.80157L21.6825 1.05177C22.2062 0.876419 22.7729 1.15882 22.9483 1.68253Z" fill="black"/>
<path fill-rule="evenodd" clip-rule="evenodd" d="M18.2151 13.6069C18.4843 12.076 20.0964 11.1663 21.5477 11.7401C21.5496 11.7408 21.5514 11.7416 21.5533 11.7424L22.3733 12.0724C22.8857 12.2786 23.1339 12.861 22.9277 13.3734C22.7215 13.8857 22.139 14.1339 21.6267 13.9278L20.8103 13.5992C20.5438 13.4953 20.2395 13.6627 20.1859 13.9478C19.9939 15.13 18.9659 16.0001 17.77 16.0001H17C16.4477 16.0001 16 15.5523 16 15.0001C16 14.4478 16.4477 14.0001 17 14.0001H17.77C17.9899 14.0001 18.1789 13.8362 18.2121 13.6248C18.2131 13.6188 18.2141 13.6129 18.2151 13.6069Z" fill="black"/>
<path fill-rule="evenodd" clip-rule="evenodd" d="M10.6267 1.07233C11.139 0.866137 11.7215 1.11433 11.9277 1.62668L12.2577 2.44668C12.2585 2.44857 12.2592 2.45047 12.26 2.45236C12.8337 3.90366 11.924 5.51575 10.3932 5.78491C10.3826 5.78677 10.372 5.78846 10.3614 5.78997C10.1726 5.81695 10 5.99874 10 6.23002V7.00002C10 7.55231 9.55228 8.00002 9 8.00002C8.44772 8.00002 8 7.55231 8 7.00002V6.23002C8 5.04858 8.85684 3.99604 10.0564 3.81334C10.339 3.75762 10.5042 3.45497 10.4008 3.18973L10.0723 2.37336C9.86612 1.86101 10.1143 1.27852 10.6267 1.07233Z" fill="black"/>
<path fill-rule="evenodd" clip-rule="evenodd" d="M6.71027 11.7103C6.73284 11.7024 6.7802 11.6915 6.86617 11.6909C7.05233 11.6898 7.33796 11.742 7.7157 11.8933C8.46759 12.1945 9.40008 12.8143 10.2929 13.7071C11.1858 14.6 11.8056 15.5325 12.1067 16.2844C12.258 16.6621 12.3103 16.9477 12.3091 17.1339C12.3086 17.2199 12.2976 17.2672 12.2898 17.2898C12.2672 17.2976 12.2199 17.3086 12.1339 17.3091C11.9477 17.3102 11.6621 17.258 11.2844 17.1067C10.5325 16.8056 9.59999 16.1858 8.70714 15.2929C7.8143 14.4001 7.1945 13.4676 6.89334 12.7157C6.74203 12.338 6.68981 12.0523 6.69096 11.8662C6.69148 11.7802 6.70243 11.7328 6.71027 11.7103ZM8.45937 10.0367C9.51749 10.4606 10.67 11.2558 11.7071 12.2929C12.7443 13.3301 13.5395 14.4826 13.9633 15.5407C14.1745 16.068 14.3123 16.6186 14.3091 17.1462C14.3058 17.6799 14.1539 18.2604 13.7071 18.7071C13.2604 19.1539 12.6799 19.3058 12.1462 19.3091C11.6186 19.3123 11.068 19.1745 10.5407 18.9633C9.48259 18.5395 8.33008 17.7443 7.29293 16.7071C6.25577 15.67 5.46057 14.5175 5.03674 13.4594C4.82554 12.9321 4.68776 12.3815 4.69099 11.8539C4.69426 11.3202 4.84621 10.7396 5.29293 10.2929C5.73965 9.8462 6.32017 9.69425 6.85391 9.69098C7.38149 9.68775 7.93211 9.82553 8.45937 10.0367Z" fill="black"/>
</svg>
