<svg width="24" height="24" viewBox="0 0 24 24" fill="none" xmlns="http://www.w3.org/2000/svg">
<path fill-rule="evenodd" clip-rule="evenodd" d="M9 1C9.55228 1 10 1.44772 10 2V8C10 8.55228 9.55228 9 9 9C8.44772 9 8 8.55228 8 8V2C8 1.44772 8.44772 1 9 1Z" fill="black"/>
<path fill-rule="evenodd" clip-rule="evenodd" d="M15 1C15.5523 1 16 1.44772 16 2V8C16 8.55228 15.5523 9 15 9C14.4477 9 14 8.55228 14 8V2C14 1.44772 14.4477 1 15 1Z" fill="black"/>
<path fill-rule="evenodd" clip-rule="evenodd" d="M12 16C12.5523 16 13 16.4477 13 17V22C13 22.5523 12.5523 23 12 23C11.4477 23 11 22.5523 11 22V17C11 16.4477 11.4477 16 12 16Z" fill="black"/>
<path fill-rule="evenodd" clip-rule="evenodd" d="M4 8C4 7.44772 4.44772 7 5 7H19C19.5523 7 20 7.44772 20 8C20 8.55228 19.5523 9 19 9H5C4.44772 9 4 8.55228 4 8Z" fill="black"/>
<path fill-rule="evenodd" clip-rule="evenodd" d="M5 8C5 7.44772 5.44772 7 6 7H18C18.5523 7 19 7.44772 19 8V11C19 12.8565 18.2625 14.637 16.9497 15.9497C15.637 17.2625 13.8565 18 12 18C10.1435 18 8.36301 17.2625 7.05025 15.9497C5.7375 14.637 5 12.8565 5 11V8ZM7 9V11C7 12.3261 7.52678 13.5979 8.46447 14.5355C9.40215 15.4732 10.6739 16 12 16C13.3261 16 14.5979 15.4732 15.5355 14.5355C16.4732 13.5979 17 12.3261 17 11V9H7Z" fill="black"/>
</svg>
