<svg width="24" height="24" viewBox="0 0 24 24" fill="none" xmlns="http://www.w3.org/2000/svg">
<path fill-rule="evenodd" clip-rule="evenodd" d="M10 15.0001C10 14.4478 10.4477 14.0001 11 14.0001H13C13.5523 14.0001 14 14.4478 14 15.0001C14 15.5524 13.5523 16.0001 13 16.0001H11C10.4477 16.0001 10 15.5524 10 15.0001Z" fill="black"/>
<path fill-rule="evenodd" clip-rule="evenodd" d="M12 11.0001C12.5523 11.0001 13 11.4478 13 12.0001V15.0001C13 15.5524 12.5523 16.0001 12 16.0001C11.4477 16.0001 11 15.5524 11 15.0001V12.0001C11 11.4478 11.4477 11.0001 12 11.0001Z" fill="black"/>
<path fill-rule="evenodd" clip-rule="evenodd" d="M12 18.0001C12.5523 18.0001 13 18.4478 13 19.0001V22.0001C13 22.5524 12.5523 23.0001 12 23.0001C11.4477 23.0001 11 22.5524 11 22.0001V19.0001C11 18.4478 11.4477 18.0001 12 18.0001Z" fill="black"/>
<path fill-rule="evenodd" clip-rule="evenodd" d="M8.32265 1.89503C9.45918 1.30677 10.7203 0.999756 12 0.999756C13.2797 0.999756 14.5408 1.30677 15.6774 1.89503C16.8139 2.48329 17.7927 3.33563 18.5316 4.38048C19.2706 5.42534 19.7481 6.63222 19.924 7.89981C20.0997 9.16526 19.9697 10.4543 19.545 11.6592L17.1774 18.6401C17.1773 18.6405 17.1772 18.6409 17.177 18.6413C17.177 18.6413 17.177 18.6412 17.177 18.6413C17.043 19.0374 16.7881 19.3815 16.4483 19.6253C16.1082 19.8693 15.7 20.0004 15.2814 20.0001H8.71858C8.29998 20.0004 7.89185 19.8693 7.5517 19.6253C7.21189 19.3815 6.95704 19.0374 6.82298 18.6413C6.82296 18.6412 6.82301 18.6414 6.82298 18.6413C6.82288 18.641 6.82269 18.6404 6.82258 18.6401L4.45496 11.6591C4.03029 10.4543 3.90032 9.16524 4.07598 7.89981C4.25194 6.63222 4.72942 5.42534 5.46836 4.38048C6.2073 3.33563 7.18612 2.48329 8.32265 1.89503ZM12 2.99976C11.0402 2.99976 10.0944 3.23002 9.24199 3.67121C8.38959 4.11241 7.65548 4.75166 7.10127 5.5353C6.54707 6.31894 6.18895 7.2241 6.05698 8.1748C5.92502 9.12549 6.02305 10.094 6.34286 10.9989C6.34427 11.0029 6.34566 11.0069 6.34702 11.011L8.71742 18.0001H15.2826L17.653 11.011C17.6543 11.0069 17.6557 11.0029 17.6571 10.9989C17.977 10.094 18.075 9.12549 17.943 8.1748C17.8111 7.2241 17.4529 6.31894 16.8987 5.5353C16.3445 4.75166 15.6104 4.11241 14.758 3.67121C13.9056 3.23002 12.9598 2.99976 12 2.99976Z" fill="black"/>
<path fill-rule="evenodd" clip-rule="evenodd" d="M12 7.00011C11.4696 7.00011 10.9609 7.21082 10.5858 7.58589C10.2107 7.96097 10 8.46967 10 9.00011C10 9.55239 9.55228 10.0001 9 10.0001C8.44772 10.0001 8 9.55239 8 9.00011C8 7.93924 8.42143 6.92183 9.17157 6.17168C9.92172 5.42154 10.9391 5.00011 12 5.00011C13.0609 5.00011 14.0783 5.42154 14.8284 6.17168C15.5786 6.92183 16 7.93924 16 9.00011C16 9.55239 15.5523 10.0001 15 10.0001C14.4477 10.0001 14 9.55239 14 9.00011C14 8.46967 13.7893 7.96097 13.4142 7.58589C13.0391 7.21082 12.5304 7.00011 12 7.00011Z" fill="black"/>
</svg>
