<svg width="24" height="24" viewBox="0 0 24 24" fill="none" xmlns="http://www.w3.org/2000/svg">
<path d="M19.0009 6.00049C19.0009 5.20493 18.6845 4.44198 18.122 3.87939C17.5595 3.31687 16.7964 3.00061 16.0009 3.00049C15.2052 3.00049 14.4415 3.31677 13.8788 3.87939L5.50677 12.4233C5.50263 12.4276 5.49829 12.4319 5.49408 12.436C5.02377 12.8988 4.64976 13.4501 4.39349 14.0581C4.13719 14.6663 4.0036 15.32 4.00091 15.98C3.99825 16.6399 4.1266 17.2936 4.37787 17.9038C4.62921 18.5141 4.99904 19.0689 5.46576 19.5356C5.93238 20.0022 6.48647 20.3722 7.09662 20.6235C7.70692 20.8749 8.36139 21.0032 9.02142 21.0005C9.68132 20.9978 10.3342 20.8641 10.9423 20.6079C11.5506 20.3516 12.1025 19.9768 12.5654 19.5063L20.9423 10.9575C21.3288 10.5631 21.9619 10.5566 22.3564 10.9429C22.7509 11.3294 22.7576 11.9625 22.371 12.3569L13.9921 20.9077L13.9911 20.9097C13.3431 21.5684 12.5702 22.0919 11.7187 22.4507C10.8672 22.8094 9.95315 22.9967 9.02923 23.0005C8.10525 23.0042 7.18927 22.825 6.3349 22.4731C5.48055 22.1213 4.70407 21.6031 4.05072 20.9497C3.39746 20.2964 2.88008 19.5198 2.52826 18.6655C2.17643 17.8112 1.99715 16.8952 2.00091 15.9712C2.00473 15.0473 2.19195 14.1331 2.55072 13.2817C2.90954 12.4303 3.43311 11.6582 4.09173 11.0103L12.4579 2.47217L12.4648 2.46533C13.4025 1.52763 14.6748 1.00049 16.0009 1.00049C17.3269 1.00061 18.5985 1.52774 19.5361 2.46533C20.4736 3.40299 21.0009 4.6745 21.0009 6.00049C21.0009 7.3266 20.4738 8.59892 19.5361 9.53662L19.5351 9.53564L11.1288 18.1147L11.122 18.1226C10.5594 18.685 9.79641 19.0013 9.00091 19.0015C8.20524 19.0015 7.44151 18.6851 6.87884 18.1226C6.31616 17.5599 5.99994 16.7962 5.99994 16.0005C5.99996 15.2081 6.31375 14.4482 6.87201 13.8862L15.2861 5.30029C15.6726 4.90594 16.3057 4.89913 16.7001 5.28564C17.0946 5.6722 17.1004 6.30526 16.7138 6.69971L8.29974 15.2856L8.2929 15.2935C8.10545 15.481 7.99996 15.7353 7.99994 16.0005C7.99994 16.2657 8.10549 16.5199 8.2929 16.7075C8.48052 16.8951 8.73559 17.0015 9.00091 17.0015C9.23287 17.0014 9.45681 16.9206 9.6347 16.7749L9.70794 16.7075L18.1152 8.12939L18.122 8.12158C18.6845 7.55898 19.0009 6.79604 19.0009 6.00049Z" fill="black"/>
</svg>
