<svg width="24" height="24" viewBox="0 0 24 24" fill="none" xmlns="http://www.w3.org/2000/svg">
<path fill-rule="evenodd" clip-rule="evenodd" d="M10 1C10.5523 1 11 1.44772 11 2V4C11 4.55228 10.5523 5 10 5C9.44772 5 9 4.55228 9 4V2C9 1.44772 9.44772 1 10 1Z" fill="black"/>
<path fill-rule="evenodd" clip-rule="evenodd" d="M14 1C14.5523 1 15 1.44772 15 2V6C15 6.55228 14.5523 7 14 7C13.4477 7 13 6.55228 13 6V2C13 1.44772 13.4477 1 14 1Z" fill="black"/>
<path fill-rule="evenodd" clip-rule="evenodd" d="M5.58579 1.58579C5.96086 1.21071 6.46957 1 7 1H17C17.5304 1 18.0391 1.21071 18.4142 1.58579C18.7893 1.96086 19 2.46957 19 3V12C19 12.5523 18.5523 13 18 13H6C5.44772 13 5 12.5523 5 12V3C5 2.46957 5.21071 1.96086 5.58579 1.58579ZM17 3H7L7 11H17V3Z" fill="black"/>
<path fill-rule="evenodd" clip-rule="evenodd" d="M4.58579 11.5858C4.96086 11.2107 5.46957 11 6 11C6.55228 11 7 11.4477 7 12C7 12.5523 6.55228 13 6 13V14C6 14.2652 6.10536 14.5196 6.29289 14.7071C6.48043 14.8946 6.73478 15 7 15H9C9.53043 15 10.0391 15.2107 10.4142 15.5858C10.7893 15.9609 11 16.4696 11 17V19.9C11 20.1652 11.1054 20.4196 11.2929 20.6071C11.4804 20.7946 11.7348 20.9 12 20.9C12.2652 20.9 12.5196 20.7946 12.7071 20.6071C12.8946 20.4196 13 20.1652 13 19.9V17C13 16.4696 13.2107 15.9609 13.5858 15.5858C13.9609 15.2107 14.4696 15 15 15H17C17.2652 15 17.5196 14.8946 17.7071 14.7071C17.8946 14.5196 18 14.2652 18 14V13C17.4477 13 17 12.5523 17 12C17 11.4477 17.4477 11 18 11C18.5304 11 19.0391 11.2107 19.4142 11.5858C19.7893 11.9609 20 12.4696 20 13V14C20 14.7957 19.6839 15.5587 19.1213 16.1213C18.5587 16.6839 17.7957 17 17 17L15 17V19.9C15 20.6957 14.6839 21.4587 14.1213 22.0213C13.5587 22.5839 12.7956 22.9 12 22.9C11.2043 22.9 10.4413 22.5839 9.87868 22.0213C9.31607 21.4587 9 20.6957 9 19.9V17H7C6.20435 17 5.44129 16.6839 4.87868 16.1213C4.31607 15.5587 4 14.7956 4 14V13C4 12.4696 4.21071 11.9609 4.58579 11.5858Z" fill="black"/>
</svg>
