<svg width="24" height="24" viewBox="0 0 24 24" fill="none" xmlns="http://www.w3.org/2000/svg">
<path d="M21 11C21 8.91431 20.0806 6.88931 18.4023 5.37891C16.7206 3.86542 14.4189 3 12 3C9.61305 3 7.32357 3.94791 5.63574 5.63574C3.94791 7.32357 3 9.61305 3 12C3 14.3869 3.94791 16.6764 5.63574 18.3643C7.32357 20.0521 9.61305 21 12 21H12.25C12.3893 21 12.5261 20.9609 12.6445 20.8877C12.7629 20.8145 12.8587 20.7094 12.9209 20.585C12.983 20.4605 13.0096 20.3212 12.9971 20.1826C12.9846 20.0439 12.9332 19.9112 12.8496 19.7998L12.5498 19.4004C12.2434 18.9918 12.0566 18.5057 12.0107 17.9971C11.9649 17.4886 12.0618 16.9772 12.29 16.5205C12.5184 16.0637 12.8703 15.6796 13.3047 15.4111C13.7391 15.1427 14.2393 15 14.75 15H17C18.0609 15 19.078 14.5783 19.8281 13.8281C20.5783 13.078 21 12.0609 21 11ZM23 11C23 12.5913 22.3674 14.117 21.2422 15.2422C20.117 16.3674 18.5913 17 17 17H14.75C14.6107 17 14.4739 17.0391 14.3555 17.1123C14.2371 17.1855 14.1413 17.2906 14.0791 17.415C14.017 17.5395 13.9904 17.6788 14.0029 17.8174C14.0154 17.9561 14.0668 18.0888 14.1504 18.2002L14.4502 18.5996C14.7566 19.0082 14.9434 19.4943 14.9893 20.0029C15.0351 20.5114 14.9382 21.0228 14.71 21.4795C14.4816 21.9363 14.1297 22.3204 13.6953 22.5889C13.2609 22.8573 12.7607 23 12.25 23H12C9.08262 23 6.28458 21.8412 4.22168 19.7783C2.15878 17.7154 1 14.9174 1 12C1 9.08262 2.15878 6.28458 4.22168 4.22168C6.28458 2.15878 9.08262 1 12 1C14.8854 1 17.6712 2.03046 19.7402 3.89258C21.8127 5.75783 23 8.31181 23 11Z" fill="black"/>
<path d="M13.5 7C13.7761 7 14 6.77614 14 6.5C14 6.22386 13.7761 6 13.5 6C13.2239 6 13 6.22386 13 6.5C13 6.77614 13.2239 7 13.5 7Z" fill="black"/>
<path d="M13.5 6C13.2239 6 13 6.22386 13 6.5C13 6.77614 13.2239 7 13.5 7C13.7761 7 14 6.77614 14 6.5C14 6.22386 13.7761 6 13.5 6ZM15 6.5C15 7.32843 14.3284 8 13.5 8C12.6716 8 12 7.32843 12 6.5C12 5.67157 12.6716 5 13.5 5C14.3284 5 15 5.67157 15 6.5Z" fill="black"/>
<path d="M17.5 11C17.7761 11 18 10.7761 18 10.5C18 10.2239 17.7761 10 17.5 10C17.2239 10 17 10.2239 17 10.5C17 10.7761 17.2239 11 17.5 11Z" fill="black"/>
<path d="M17.5 10C17.2239 10 17 10.2239 17 10.5C17 10.7761 17.2239 11 17.5 11C17.7761 11 18 10.7761 18 10.5C18 10.2239 17.7761 10 17.5 10ZM19 10.5C19 11.3284 18.3284 12 17.5 12C16.6716 12 16 11.3284 16 10.5C16 9.67157 16.6716 9 17.5 9C18.3284 9 19 9.67157 19 10.5Z" fill="black"/>
<path d="M6.5 13C6.77614 13 7 12.7761 7 12.5C7 12.2239 6.77614 12 6.5 12C6.22386 12 6 12.2239 6 12.5C6 12.7761 6.22386 13 6.5 13Z" fill="black"/>
<path d="M6.5 12C6.22386 12 6 12.2239 6 12.5C6 12.7761 6.22386 13 6.5 13C6.77614 13 7 12.7761 7 12.5C7 12.2239 6.77614 12 6.5 12ZM8 12.5C8 13.3284 7.32843 14 6.5 14C5.67157 14 5 13.3284 5 12.5C5 11.6716 5.67157 11 6.5 11C7.32843 11 8 11.6716 8 12.5Z" fill="black"/>
<path d="M8.5 8C8.77614 8 9 7.77614 9 7.5C9 7.22386 8.77614 7 8.5 7C8.22386 7 8 7.22386 8 7.5C8 7.77614 8.22386 8 8.5 8Z" fill="black"/>
<path d="M8.5 7C8.22386 7 8 7.22386 8 7.5C8 7.77614 8.22386 8 8.5 8C8.77614 8 9 7.77614 9 7.5C9 7.22386 8.77614 7 8.5 7ZM10 7.5C10 8.32843 9.32843 9 8.5 9C7.67157 9 7 8.32843 7 7.5C7 6.67157 7.67157 6 8.5 6C9.32843 6 10 6.67157 10 7.5Z" fill="black"/>
</svg>
