<svg width="24" height="24" viewBox="0 0 24 24" fill="none" xmlns="http://www.w3.org/2000/svg">
<path fill-rule="evenodd" clip-rule="evenodd" d="M9 3C9.55228 3 10 3.44772 10 4V20C10 20.5523 9.55228 21 9 21C8.44772 21 8 20.5523 8 20V4C8 3.44772 8.44772 3 9 3Z" fill="black"/>
<path fill-rule="evenodd" clip-rule="evenodd" d="M7 5C5.85228 5 5 5.85228 5 7C5 7.55228 4.55228 8 4 8C3.44772 8 3 7.55228 3 7C3 4.74771 4.74771 3 7 3H20C20.5523 3 21 3.44772 21 4C21 4.55228 20.5523 5 20 5H7Z" fill="black"/>
<path fill-rule="evenodd" clip-rule="evenodd" d="M15 3C15.5523 3 16 3.44772 16 4V17C16 18.1477 16.8523 19 18 19C18.5523 19 19 19.4477 19 20C19 20.5523 18.5523 21 18 21C15.7477 21 14 19.2523 14 17V4C14 3.44772 14.4477 3 15 3Z" fill="black"/>
</svg>
