<svg width="24" height="24" viewBox="0 0 24 24" fill="none" xmlns="http://www.w3.org/2000/svg">
<path fill-rule="evenodd" clip-rule="evenodd" d="M6.28499 1.34464C6.7071 1.12137 7.1774 1.00464 7.65496 1.00464C8.13401 1.00464 8.60576 1.1221 9.02888 1.34673L9.03185 1.34831L21.3889 7.96212C21.8695 8.22433 22.2726 8.60842 22.5578 9.07574C22.843 9.54306 23.0002 10.0772 23.0136 10.6245C23.027 11.1718 22.8962 11.713 22.6343 12.1937C22.3724 12.6745 21.9885 13.0778 21.5214 13.3633L21.5088 13.3709L17.7188 15.6109C17.7109 15.6155 17.703 15.6201 17.695 15.6245C17.2498 15.8714 16.749 16.0009 16.24 16.0009C15.7309 16.0009 15.2302 15.8714 14.785 15.6245L14.7766 15.6199L2.54577 8.68365C2.06879 8.40521 1.67432 8.00507 1.40258 7.52425C1.13083 7.04343 0.991583 6.49909 0.999066 5.94685C1.00655 5.3946 1.16049 4.85423 1.44517 4.38095C1.72984 3.90767 2.13505 3.51844 2.61939 3.25302L2.63823 3.24296L6.28499 1.34464ZM7.65496 3.00464C7.50291 3.00464 7.35318 3.04192 7.21888 3.11322L7.21171 3.11702L3.57267 5.01128C3.40228 5.10644 3.25967 5.2445 3.15902 5.41183C3.05683 5.58172 3.00157 5.7757 2.99888 5.97394C2.9962 6.17219 3.04618 6.36759 3.14373 6.54019C3.24042 6.71126 3.38039 6.85386 3.54957 6.95369L15.7584 13.8774C15.9059 13.9584 16.0716 14.0009 16.24 14.0009C16.4059 14.0009 16.5691 13.9597 16.715 13.8809L20.4838 11.6534C20.6491 11.5512 20.785 11.4076 20.878 11.2368C20.9721 11.0643 21.019 10.87 21.0142 10.6735C21.0094 10.4771 20.953 10.2853 20.8506 10.1176C20.7488 9.95076 20.6052 9.81352 20.434 9.71943L8.09105 3.11322L8.08985 3.11258C7.95586 3.0417 7.80656 3.00464 7.65496 3.00464Z" fill="black"/>
<path fill-rule="evenodd" clip-rule="evenodd" d="M15.9101 3.11258L15.9089 3.11322L3.56592 9.71944C3.39472 9.81353 3.25109 9.95077 3.14931 10.1176C3.04694 10.2853 2.99051 10.4771 2.98569 10.6735C2.98087 10.87 3.02783 11.0643 3.12186 11.2368C3.2149 11.4076 3.35079 11.5512 3.51611 11.6534L7.28489 13.8809C7.43078 13.9597 7.59403 14.0009 7.75994 14.0009C7.92857 14.0009 8.09444 13.9583 8.24213 13.877L20.4944 6.95704C20.6599 6.85515 20.7962 6.71189 20.8896 6.54129C20.9849 6.36732 21.0323 6.17117 21.0269 5.97289C21.0215 5.77461 20.9636 5.58131 20.859 5.41276C20.755 5.24508 20.6085 5.10787 20.4344 5.01502L20.4317 5.01359L16.781 3.11325C16.6467 3.04195 16.497 3.00464 16.3449 3.00464C16.1933 3.00464 16.044 3.0417 15.9101 3.11258ZM14.971 1.34673C15.3941 1.1221 15.8659 1.00464 16.3449 1.00464C16.8225 1.00464 17.2928 1.12137 17.7149 1.34463L21.3682 3.24634C21.8564 3.50506 22.2672 3.88883 22.5585 4.35836C22.8498 4.82788 23.0112 5.36635 23.0262 5.91871C23.0411 6.47106 22.9091 7.01749 22.6437 7.5021C22.3782 7.98672 21.9888 8.39215 21.5153 8.67693C21.5075 8.68163 21.4996 8.68622 21.4917 8.6907L9.21495 15.6245C8.76975 15.8714 8.26903 16.0009 7.75994 16.0009C7.25085 16.0009 6.75014 15.8714 6.30494 15.6245C6.29694 15.6201 6.28901 15.6155 6.28113 15.6109L2.49113 13.3709L2.47852 13.3633C2.01137 13.0778 1.62755 12.6745 1.36562 12.1937C1.10369 11.713 0.972868 11.1718 0.98629 10.6245C0.999711 10.0772 1.15691 9.54306 1.44209 9.07574C1.72727 8.60842 2.13039 8.22436 2.61097 7.96214L2.61804 7.95829L14.9681 1.34832L14.971 1.34673Z" fill="black"/>
<path fill-rule="evenodd" clip-rule="evenodd" d="M12 12C12.5523 12 13 12.4477 13 13V22C13 22.5523 12.5523 23 12 23C11.4477 23 11 22.5523 11 22V13C11 12.4477 11.4477 12 12 12Z" fill="black"/>
<path fill-rule="evenodd" clip-rule="evenodd" d="M4 12.5C4.55228 12.5 5 12.9477 5 13.5V16.87C5 16.9738 5.04408 17.1731 5.16959 17.3903C5.29259 17.6031 5.44341 17.7457 5.56951 17.8118L11.5711 20.8927C11.8319 21.0282 12.1681 21.0282 12.4289 20.8927L12.4333 20.8904L18.4288 17.8127L18.4305 17.8118C18.5566 17.7457 18.7074 17.6031 18.8304 17.3903C18.9559 17.1731 19 16.9738 19 16.87V13.5C19 12.9477 19.4477 12.5 20 12.5C20.5523 12.5 21 12.9477 21 13.5V16.87C21 17.3962 20.824 17.9378 20.562 18.3911C20.298 18.8479 19.8946 19.3049 19.3512 19.5873L19.3467 19.5896L13.3511 22.6673L13.3486 22.6686C12.511 23.1029 11.489 23.1029 10.6514 22.6686L10.6489 22.6673L4.64883 19.5873C4.10543 19.3049 3.70203 18.8479 3.43804 18.3911C3.176 17.9378 3 17.3962 3 16.87V13.5C3 12.9477 3.44772 12.5 4 12.5Z" fill="black"/>
</svg>
