<svg width="24" height="24" viewBox="0 0 24 24" fill="none" xmlns="http://www.w3.org/2000/svg">
<path fill-rule="evenodd" clip-rule="evenodd" d="M13 3C13.5523 3 14 3.44772 14 4V20C14 20.5523 13.5523 21 13 21C12.4477 21 12 20.5523 12 20V4C12 3.44772 12.4477 3 13 3Z" fill="black"/>
<path fill-rule="evenodd" clip-rule="evenodd" d="M17 3C17.5523 3 18 3.44772 18 4V20C18 20.5523 17.5523 21 17 21C16.4477 21 16 20.5523 16 20V4C16 3.44772 16.4477 3 17 3Z" fill="black"/>
<path fill-rule="evenodd" clip-rule="evenodd" d="M5.61091 4.61091C6.64236 3.57946 8.04131 3 9.5 3H19C19.5523 3 20 3.44772 20 4C20 4.55228 19.5523 5 19 5H9.5C8.57174 5 7.6815 5.36875 7.02513 6.02513C6.36875 6.6815 6 7.57174 6 8.5C6 9.42826 6.36875 10.3185 7.02513 10.9749C7.6815 11.6313 8.57174 12 9.5 12H13C13.5523 12 14 12.4477 14 13C14 13.5523 13.5523 14 13 14H9.5C8.04131 14 6.64236 13.4205 5.61091 12.3891C4.57946 11.3576 4 9.95869 4 8.5C4 7.04131 4.57946 5.64236 5.61091 4.61091Z" fill="black"/>
</svg>
