<svg width="24" height="24" viewBox="0 0 24 24" fill="none" xmlns="http://www.w3.org/2000/svg">
<g clip-path="url(#clip0_404_39365)">
<path d="M10.2927 9.29208C10.6832 8.90163 11.3163 8.9017 11.7068 9.29208C12.0973 9.68263 12.0973 10.3156 11.7068 10.7061L3.32495 19.087C3.11476 19.2973 2.99686 19.5826 2.99683 19.88C2.99688 20.1775 3.11554 20.4626 3.32593 20.6729C3.53632 20.8833 3.82141 21.0021 4.1189 21.002C4.26606 21.002 4.41165 20.9724 4.54761 20.9161C4.68368 20.8597 4.80772 20.7771 4.91187 20.6729L13.2927 12.2931C13.6832 11.9026 14.3163 11.9027 14.7068 12.2931C15.0973 12.6836 15.0973 13.3166 14.7068 13.7071L6.32593 22.087C6.03612 22.3769 5.6919 22.6068 5.31323 22.7638C4.93459 22.9206 4.52876 23.002 4.1189 23.002C3.29114 23.0021 2.49734 22.6731 1.91187 22.088C1.32641 21.5027 0.997047 20.7088 0.996826 19.8809C0.996688 19.053 1.32556 18.2585 1.91089 17.6729L10.2927 9.29208Z" fill="black"/>
<path d="M5.66328 1.40178C7.49775 0.951681 9.40485 0.877893 11.2688 1.18401C13.1325 1.49013 14.915 2.16996 16.509 3.18303C16.975 3.47925 17.1127 4.09683 16.8166 4.56292C16.5204 5.02902 15.9028 5.16678 15.4367 4.87053C14.0703 4.0021 12.5421 3.41905 10.9445 3.15667C9.44674 2.91068 7.91677 2.95187 6.43574 3.27581L6.13985 3.34417C6.06943 3.36139 6.03275 3.38191 6.01778 3.39202C6.01037 3.39704 6.00598 3.40088 6.0041 3.40276C6.00235 3.40455 6.00151 3.40614 6.00117 3.40667C6.00066 3.40746 5.99704 3.41272 5.99434 3.4262C5.99133 3.44127 5.98949 3.46732 5.99434 3.50432C6.01612 3.66934 6.16559 3.91871 6.4875 4.02288C8.68725 4.73595 10.7534 5.80909 12.6018 7.19866C13.0432 7.53054 13.1319 8.1576 12.8 8.59905C12.4681 9.04028 11.841 9.12911 11.3996 8.79729C9.72812 7.54072 7.85956 6.57003 5.87032 5.92522C4.8238 5.58615 4.13585 4.70497 4.01192 3.76604C3.94909 3.28957 4.02947 2.76932 4.32442 2.31585C4.62547 1.85302 5.09737 1.54052 5.66328 1.40178Z" fill="black"/>
<path d="M19.4668 7.22332C19.934 6.9288 20.5512 7.06865 20.8457 7.53582C21.8485 9.12657 22.521 10.9033 22.8223 12.7595C23.1234 14.6155 23.0479 16.5134 22.5996 18.3395C22.4606 18.9059 22.147 19.3774 21.6836 19.6784C21.2299 19.9731 20.7099 20.0539 20.2334 19.9909C19.2943 19.8666 18.4137 19.178 18.0742 18.1315C17.4296 16.1415 16.458 14.2724 15.2012 12.6003C14.8693 12.1588 14.9589 11.5317 15.4004 11.1999C15.8419 10.8681 16.469 10.9567 16.8008 11.3981C18.1905 13.2471 19.2637 15.314 19.9766 17.5143L20.0215 17.6276C20.1414 17.8722 20.3503 17.9891 20.4951 18.0085C20.5324 18.0134 20.559 18.0105 20.5742 18.0075C20.5886 18.0046 20.5944 18.0019 20.5947 18.0016C20.5953 18.0013 20.5961 18.0002 20.5977 17.9987C20.5994 17.997 20.6032 17.9926 20.6084 17.985C20.6185 17.9702 20.6399 17.9337 20.6572 17.863C21.0415 16.2977 21.1058 14.6707 20.8477 13.0798C20.5895 11.4888 20.0138 9.96571 19.1543 8.60223C18.8598 8.13504 18.9996 7.51785 19.4668 7.22332Z" fill="black"/>
<path d="M20.001 6.5C20.001 6.44564 19.9789 6.39294 19.9404 6.35449L17.6445 4.05859C17.6061 4.02042 17.5541 3.99905 17.5 3.99902C17.4459 3.99902 17.3939 4.02046 17.3555 4.05859L12.0586 9.35547L12.0576 9.35449C12.0195 9.39289 11.999 9.44587 11.999 9.5C11.9991 9.55414 12.0204 9.60615 12.0586 9.64453L14.3555 11.9404C14.3939 11.9789 14.4456 12.001 14.5 12.001C14.5543 12.0009 14.6061 11.9788 14.6445 11.9404L19.9404 6.64453C19.9788 6.60611 20.0009 6.55433 20.001 6.5ZM22.001 6.5C22.0009 7.08453 21.7687 7.64515 21.3555 8.05859L16.0586 13.3555C15.6451 13.7686 15.0845 14.0009 14.5 14.001C13.9153 14.001 13.3539 13.7689 12.9404 13.3555L10.6445 11.0586C10.2313 10.6451 9.99905 10.0846 9.99902 9.5C9.99902 8.91525 10.2311 8.35394 10.6445 7.94043L15.9404 2.64453L16.1025 2.49805C16.4949 2.17666 16.9884 1.99902 17.5 1.99902C18.0846 1.99905 18.6451 2.23129 19.0586 2.64453L21.3555 4.94043L21.502 5.10254C21.8233 5.49486 22.001 5.98843 22.001 6.5Z" fill="black"/>
</g>
<defs>
<clipPath id="clip0_404_39365">
<rect width="24" height="24" fill="white"/>
</clipPath>
</defs>
</svg>
