<svg width="24" height="24" viewBox="0 0 24 24" fill="none" xmlns="http://www.w3.org/2000/svg">
<path fill-rule="evenodd" clip-rule="evenodd" d="M7.10556 0.6531C8.97694 0.230984 10.9381 0.506941 12.6203 1.4291C14.2834 2.34078 15.5607 3.82199 16.2183 5.59938C16.6651 6.4526 17.5169 6.99996 18.5 6.99996C20.9522 6.99996 23 9.04768 23 11.5V20C23 20.7956 22.6839 21.5587 22.1213 22.1213C21.5587 22.6839 20.7956 23 20 23H3.99996C3.20431 23 2.44125 22.6839 1.87864 22.1213C1.31603 21.5587 0.999964 20.7956 0.999964 20V9.04716C0.826828 7.15465 1.34436 5.26272 2.45796 3.72135C3.58142 2.16633 5.23418 1.07522 7.10556 0.6531ZM11.6589 3.18288C10.4042 2.49507 8.94144 2.28924 7.54563 2.60408C6.14982 2.91893 4.91708 3.73276 4.07912 4.8926C3.24117 6.05244 2.85571 7.47842 2.9952 8.90247C2.99837 8.93487 2.99996 8.96741 2.99996 8.99996V20C2.99996 20.2652 3.10532 20.5195 3.29286 20.7071C3.48039 20.8946 3.73475 21 3.99996 21H20C20.2652 21 20.5195 20.8946 20.7071 20.7071C20.8946 20.5195 21 20.2652 21 20V11.5C21 10.1522 19.8477 8.99996 18.5 8.99996C16.7008 8.99996 15.1656 7.96732 14.4055 6.44718C14.388 6.41211 14.3725 6.37604 14.3592 6.33916C13.8739 4.99311 12.9136 3.87069 11.6589 3.18288Z" fill="black"/>
<path fill-rule="evenodd" clip-rule="evenodd" d="M0.999978 14C0.999978 13.4477 1.44769 13 1.99998 13H22C22.5523 13 23 13.4477 23 14C23 14.5523 22.5523 15 22 15H1.99998C1.44769 15 0.999978 14.5523 0.999978 14Z" fill="black"/>
<path fill-rule="evenodd" clip-rule="evenodd" d="M5.99998 13C6.55226 13 6.99998 13.4477 6.99998 14V18C6.99998 18.5523 6.55226 19 5.99998 19C5.44769 19 4.99998 18.5523 4.99998 18V14C4.99998 13.4477 5.44769 13 5.99998 13Z" fill="black"/>
<path fill-rule="evenodd" clip-rule="evenodd" d="M9.99998 13C10.5523 13 11 13.4477 11 14V18C11 18.5523 10.5523 19 9.99998 19C9.44769 19 8.99998 18.5523 8.99998 18V14C8.99998 13.4477 9.44769 13 9.99998 13Z" fill="black"/>
<path fill-rule="evenodd" clip-rule="evenodd" d="M14 13C14.5523 13 15 13.4477 15 14V18C15 18.5523 14.5523 19 14 19C13.4477 19 13 18.5523 13 18V14C13 13.4477 13.4477 13 14 13Z" fill="black"/>
<path fill-rule="evenodd" clip-rule="evenodd" d="M18 13C18.5523 13 19 13.4477 19 14V18C19 18.5523 18.5523 19 18 19C17.4477 19 17 18.5523 17 18V14C17 13.4477 17.4477 13 18 13Z" fill="black"/>
</svg>
