<svg width="24" height="24" viewBox="0 0 24 24" fill="none" xmlns="http://www.w3.org/2000/svg">
<path d="M7.00977 1.99953C7.53759 2.00132 8.05582 2.1427 8.51172 2.40871L20.5059 9.4048H20.5068C20.961 9.66831 21.3384 10.0466 21.6006 10.5015C21.8628 10.9564 22.0005 11.4725 22.001 11.9976C22.0014 12.5226 21.864 13.0384 21.6025 13.4937C21.3738 13.8921 21.0573 14.232 20.6777 14.4878L20.5117 14.5923L8.51172 21.5923C8.0559 21.8582 7.53746 21.9987 7.00977 22.0005C6.48212 22.0022 5.9634 21.8649 5.50586 21.6021C5.04822 21.3392 4.66767 20.9602 4.40332 20.5034C4.13896 20.0465 3.99984 19.5274 4 18.9995V5.0005C3.99984 4.47278 4.1391 3.95438 4.40332 3.49757C4.66768 3.04068 5.04815 2.66091 5.50586 2.39797C5.96338 2.1352 6.48216 1.99781 7.00977 1.99953ZM6 19.0005C5.99996 19.1764 6.04666 19.3492 6.13477 19.5015C6.22288 19.6537 6.34942 19.7801 6.50195 19.8677C6.65439 19.9553 6.82714 20.001 7.00293 20.0005C7.1788 19.9999 7.35199 19.9534 7.50391 19.8648L19.5039 12.8648L19.5049 12.8638C19.656 12.7757 19.7811 12.6492 19.8682 12.4976C19.9552 12.3459 20.0011 12.1744 20.001 11.9995C20.0008 11.8245 19.9546 11.6521 19.8672 11.5005C19.7798 11.349 19.6542 11.2231 19.5029 11.1353L19.501 11.1343L7.50391 4.13625C7.35193 4.04757 7.17888 4.00012 7.00293 3.99953C6.82717 3.99901 6.65437 4.04481 6.50195 4.13234C6.34947 4.21994 6.22288 4.34637 6.13477 4.49855C6.0467 4.65076 6 4.82368 6 4.99953V19.0005Z" fill="black"/>
</svg>
