<svg width="24" height="24" viewBox="0 0 24 24" fill="none" xmlns="http://www.w3.org/2000/svg">
<path fill-rule="evenodd" clip-rule="evenodd" d="M8.8 2.40006C9.13067 2.84096 9.0422 3.46605 8.60279 3.79796C8.6024 3.79826 8.6017 3.79879 8.6007 3.79957C8.59724 3.80225 8.59019 3.80775 8.57977 3.81608C8.55893 3.83276 8.52468 3.86071 8.47892 3.89994C8.38733 3.97845 8.25004 4.10173 8.08211 4.26967C7.74575 4.60603 7.28979 5.11815 6.83205 5.80476C5.91914 7.17413 5 9.23436 5 12.0001C5 14.7658 5.91914 16.826 6.83205 18.1954C7.28979 18.882 7.74575 19.3941 8.08211 19.7305C8.25004 19.8984 8.38733 20.0217 8.47892 20.1002C8.52468 20.1394 8.55893 20.1674 8.57977 20.184C8.59019 20.1924 8.59724 20.1979 8.6007 20.2005C8.60169 20.2013 8.60239 20.2018 8.60278 20.2021C9.0422 20.5341 9.13067 21.1592 8.8 21.6001C8.46863 22.0419 7.84183 22.1314 7.4 21.8001L8 21.0001C7.4 21.8001 7.40041 21.8004 7.4 21.8001L7.39626 21.7972C7.39477 21.7961 7.39303 21.7948 7.39106 21.7933C7.38711 21.7903 7.38219 21.7865 7.37635 21.782C7.36467 21.7729 7.34926 21.7609 7.33038 21.7458C7.29263 21.7156 7.24094 21.6732 7.17733 21.6187C7.05017 21.5097 6.87496 21.3517 6.66789 21.1447C6.25425 20.731 5.71021 20.1181 5.16795 19.3048C4.08086 17.6741 3 15.2344 3 12.0001C3 8.76575 4.08086 6.32599 5.16795 4.69536C5.71021 3.88197 6.25425 3.26909 6.66789 2.85545C6.87496 2.64838 7.05017 2.49042 7.17733 2.38143C7.24094 2.3269 7.29263 2.28455 7.33038 2.25435C7.34926 2.23924 7.36467 2.22717 7.37635 2.21812C7.38219 2.2136 7.38711 2.20983 7.39106 2.20682C7.39211 2.20603 7.39309 2.20528 7.394 2.20459C7.39481 2.20397 7.39556 2.2034 7.39626 2.20288L7.39831 2.20133L7.3992 2.20066C7.39961 2.20035 7.4 2.20006 8 3.00006L7.3992 2.20066C7.84103 1.86929 8.46863 1.95823 8.8 2.40006ZM8.60278 20.2021C8.6028 20.2022 8.60284 20.2022 8.60278 20.2021V20.2021Z" fill="black"/>
<path fill-rule="evenodd" clip-rule="evenodd" d="M15.2 2.40006C15.5314 1.95823 16.1582 1.86869 16.6 2.20006L16 3.00006C16.6 2.20006 16.5996 2.19975 16.6 2.20006L16.6017 2.20133L16.6037 2.20288C16.6052 2.204 16.6069 2.20532 16.6089 2.20682C16.6129 2.20983 16.6178 2.2136 16.6236 2.21812C16.6353 2.22717 16.6507 2.23924 16.6696 2.25435C16.7073 2.28455 16.759 2.3269 16.8226 2.38143C16.9498 2.49042 17.125 2.64838 17.3321 2.85545C17.7457 3.26909 18.2898 3.88197 18.832 4.69536C19.9191 6.32599 21 8.76575 21 12.0001C21 15.2344 19.9191 17.6741 18.832 19.3048C18.2898 20.1181 17.7457 20.731 17.3321 21.1447C17.125 21.3517 16.9498 21.5097 16.8226 21.6187C16.759 21.6732 16.7073 21.7156 16.6696 21.7458C16.6507 21.7609 16.6353 21.7729 16.6236 21.782C16.6178 21.7865 16.6129 21.7903 16.6089 21.7933C16.6069 21.7948 16.6052 21.7961 16.6037 21.7972L16.6017 21.7988L16.6008 21.7995C16.6004 21.7998 16.6 21.8001 16 21.0001L16.6008 21.7995C16.1589 22.1308 15.5314 22.0419 15.2 21.6001C14.8693 21.1592 14.9578 20.5341 15.3972 20.2022C15.3976 20.2019 15.3983 20.2013 15.3993 20.2005C15.4027 20.1979 15.4098 20.1924 15.4202 20.184C15.441 20.1674 15.4753 20.1394 15.5211 20.1002C15.6127 20.0217 15.7499 19.8984 15.9179 19.7305C16.2542 19.3941 16.7102 18.882 17.1679 18.1954C18.0808 16.826 19 14.7658 19 12.0001C19 9.23436 18.0808 7.17413 17.1679 5.80476C16.7102 5.11815 16.2542 4.60603 15.9179 4.26967C15.7499 4.10173 15.6127 3.97845 15.5211 3.89994C15.4753 3.86071 15.441 3.83276 15.4202 3.81608C15.4098 3.80775 15.4027 3.80225 15.3993 3.79957C15.3985 3.79895 15.3979 3.79849 15.3975 3.79817C15.3974 3.79809 15.3975 3.79823 15.3975 3.79817C14.9581 3.46626 14.8693 2.84096 15.2 2.40006ZM15.3972 20.2022C15.3971 20.2022 15.3972 20.2022 15.3972 20.2022V20.2022Z" fill="black"/>
</svg>
