<svg width="24" height="24" viewBox="0 0 24 24" fill="none" xmlns="http://www.w3.org/2000/svg">
<path fill-rule="evenodd" clip-rule="evenodd" d="M10 5C10 3.89543 10.8954 3 12 3C13.1046 3 14 3.89543 14 5C14 6.10457 13.1046 7 12 7C10.8954 7 10 6.10457 10 5Z" fill="black"/>
<path fill-rule="evenodd" clip-rule="evenodd" d="M12 13C12.3788 13 12.725 13.214 12.8944 13.5528L15.8944 19.5528C16.1414 20.0468 15.9412 20.6474 15.4472 20.8944C14.9532 21.1414 14.3525 20.9412 14.1056 20.4472L12 16.2361L9.89441 20.4472C9.64742 20.9412 9.04675 21.1414 8.55277 20.8944C8.05879 20.6474 7.85857 20.0468 8.10556 19.5528L11.1056 13.5528C11.2749 13.214 11.6212 13 12 13Z" fill="black"/>
<path fill-rule="evenodd" clip-rule="evenodd" d="M5.05135 7.68377C5.226 7.15983 5.79232 6.87667 6.31626 7.05131L12 8.94591L17.6838 7.05131C18.2078 6.87667 18.7741 7.15983 18.9487 7.68377C19.1234 8.20771 18.8402 8.77403 18.3163 8.94868L12.3163 10.9487C12.111 11.0171 11.8891 11.0171 11.6838 10.9487L5.68381 8.94868C5.15986 8.77403 4.8767 8.20771 5.05135 7.68377Z" fill="black"/>
<path fill-rule="evenodd" clip-rule="evenodd" d="M12 9C12.5523 9 13 9.44772 13 10V14C13 14.5523 12.5523 15 12 15C11.4477 15 11 14.5523 11 14V10C11 9.44772 11.4477 9 12 9Z" fill="black"/>
</svg>
