<svg width="24" height="24" viewBox="0 0 24 24" fill="none" xmlns="http://www.w3.org/2000/svg">
<path fill-rule="evenodd" clip-rule="evenodd" d="M1 3C1 2.44772 1.44772 2 2 2H22C22.5523 2 23 2.44772 23 3C23 3.55228 22.5523 4 22 4H2C1.44772 4 1 3.55228 1 3Z" fill="black"/>
<path fill-rule="evenodd" clip-rule="evenodd" d="M3 2C3.55228 2 4 2.44772 4 3V14C4 14.2652 4.10536 14.5196 4.29289 14.7071C4.48043 14.8946 4.73478 15 5 15H19C19.2652 15 19.5196 14.8946 19.7071 14.7071C19.8946 14.5196 20 14.2652 20 14V3C20 2.44772 20.4477 2 21 2C21.5523 2 22 2.44772 22 3V14C22 14.7957 21.6839 15.5587 21.1213 16.1213C20.5587 16.6839 19.7957 17 19 17H5C4.20435 17 3.44129 16.6839 2.87868 16.1213C2.31607 15.5587 2 14.7956 2 14V3C2 2.44772 2.44772 2 3 2Z" fill="black"/>
<path fill-rule="evenodd" clip-rule="evenodd" d="M11.2929 15.2929C11.6834 14.9024 12.3166 14.9024 12.7071 15.2929L17.7071 20.2929C18.0976 20.6834 18.0976 21.3166 17.7071 21.7071C17.3166 22.0976 16.6834 22.0976 16.2929 21.7071L12 17.4142L7.70711 21.7071C7.31658 22.0976 6.68342 22.0976 6.29289 21.7071C5.90237 21.3166 5.90237 20.6834 6.29289 20.2929L11.2929 15.2929Z" fill="black"/>
</svg>
