<svg width="24" height="24" viewBox="0 0 24 24" fill="none" xmlns="http://www.w3.org/2000/svg">
<path d="M21 11.9998C21 11.8142 20.9636 11.6303 20.8926 11.4588C20.8393 11.3301 20.7667 11.2106 20.6787 11.1033L20.586 10.9998L18.9033 9.31816C18.6517 9.06682 18.4718 8.75306 18.3819 8.40898C18.292 8.06481 18.295 7.70251 18.3916 7.36015C18.4882 7.01785 18.6742 6.70714 18.9307 6.46074C19.1871 6.21445 19.5049 6.04164 19.8506 5.95879L20.041 5.89922C20.2263 5.8277 20.396 5.71936 20.5401 5.58086C20.7322 5.39612 20.872 5.16356 20.9444 4.90703C21.0167 4.65049 21.0194 4.37883 20.9522 4.1209C20.8848 3.86306 20.7499 3.62772 20.5615 3.43926C20.3731 3.25077 20.1378 3.11601 19.8799 3.04863C19.6219 2.98127 19.3504 2.98411 19.0938 3.05644C18.8373 3.12875 18.6047 3.26778 18.4199 3.45976C18.2352 3.65189 18.1043 3.89003 18.042 4.14922C17.9592 4.49492 17.7863 4.81277 17.5401 5.06914C17.2937 5.32563 16.9829 5.5116 16.6406 5.6082C16.2983 5.70479 15.936 5.70785 15.5918 5.61797C15.2477 5.52807 14.934 5.34807 14.6826 5.09648L13 3.41387C12.8687 3.28256 12.7126 3.17829 12.541 3.10722C12.3695 3.03619 12.1856 2.99982 12 2.9998C11.8144 2.9998 11.6305 3.03624 11.459 3.10722C11.2875 3.17828 11.1313 3.28258 11 3.41387L9.31642 5.09648C9.92123 5.24161 10.4773 5.5454 10.9258 5.97637C11.3744 6.40749 11.7002 6.95084 11.8692 7.54961C12.038 8.14813 12.0445 8.78084 11.8877 9.38262C11.7307 9.98464 11.4155 10.5344 10.9756 10.9744C10.5358 11.4143 9.98666 11.7294 9.38478 11.8865C8.78288 12.0436 8.14955 12.0377 7.5508 11.8689C6.9523 11.7002 6.40967 11.3747 5.97853 10.9266C5.54726 10.4781 5.243 9.92213 5.09767 9.31719L3.41408 10.9998C3.28277 11.1311 3.1785 11.2872 3.10744 11.4588C3.03639 11.6303 3.00003 11.8141 3.00002 11.9998C3.00002 12.1854 3.03642 12.3693 3.10744 12.5408C3.1785 12.7124 3.28277 12.8685 3.41408 12.9998L5.0967 14.6814L5.18752 14.7781C5.39186 15.0113 5.53948 15.2895 5.61818 15.5906C5.70806 15.9348 5.70498 16.2971 5.60842 16.6395C5.51182 16.9818 5.3249 17.2924 5.06838 17.5389C4.8119 17.7852 4.49427 17.959 4.14846 18.0418C3.88949 18.1041 3.65202 18.2342 3.45998 18.4187C3.26774 18.6035 3.1281 18.836 3.05568 19.0926C2.98326 19.3492 2.98059 19.6207 3.04787 19.8787C3.11518 20.1366 3.25007 20.3719 3.43849 20.5604C3.62698 20.7489 3.8622 20.8836 4.12014 20.951C4.37812 21.0183 4.64963 21.0165 4.90627 20.9441C5.1628 20.8718 5.39532 20.7319 5.5801 20.5398C5.76466 20.3479 5.89466 20.1102 5.95705 19.8514L5.99221 19.7225C6.08423 19.4266 6.24453 19.1558 6.45998 18.9314C6.70642 18.6749 7.01703 18.488 7.35939 18.3914C7.7017 18.2949 8.0641 18.2918 8.40822 18.3816C8.75223 18.4716 9.0661 18.6516 9.3174 18.9031L11 20.5857C11.1313 20.7171 11.2874 20.8213 11.459 20.8924C11.6305 20.9634 11.8144 20.9998 12 20.9998C12.1857 20.9998 12.3695 20.9634 12.541 20.8924C12.7126 20.8213 12.8687 20.7171 13 20.5857L14.6826 18.9031L14.458 18.8416C13.9403 18.6803 13.4657 18.4004 13.0733 18.0232C12.625 17.5923 12.2999 17.0494 12.1309 16.451C11.9619 15.8523 11.9554 15.2189 12.1123 14.617C12.2693 14.015 12.5836 13.4652 13.0235 13.0252C13.4633 12.5852 14.0133 12.2703 14.6153 12.1131C15.2169 11.9561 15.8497 11.962 16.4483 12.1307C17.0471 12.2994 17.5902 12.6256 18.0215 13.074C18.3988 13.4663 18.6784 13.9403 18.8399 14.4578L18.9024 14.6824L20.586 12.9998C20.7172 12.8685 20.8215 12.7123 20.8926 12.5408C20.9636 12.3693 21 12.1854 21 11.9998ZM23 11.9998C23 12.4481 22.9118 12.8922 22.7403 13.3064C22.5687 13.7206 22.317 14.0969 22 14.4139L20.3174 16.0975L20.3164 16.0965C20.0652 16.3478 19.752 16.5281 19.4082 16.618C19.0641 16.7078 18.7017 16.7048 18.3594 16.6082C18.0171 16.5116 17.7064 16.3256 17.46 16.0691C17.2135 15.8126 17.0398 15.4942 16.957 15.1482C16.8946 14.8898 16.7644 14.6514 16.5801 14.4598C16.3954 14.2678 16.1627 14.1288 15.9063 14.0564C15.6496 13.9841 15.3781 13.9813 15.1201 14.0486C14.8622 14.116 14.627 14.2508 14.4385 14.4393C14.2501 14.6277 14.1152 14.8631 14.0479 15.1209C13.9806 15.3789 13.9833 15.6505 14.0557 15.907C14.1281 16.1636 14.2678 16.3961 14.46 16.5809C14.6522 16.7656 14.8902 16.8966 15.1494 16.9588C15.4952 17.0415 15.8119 17.2145 16.0684 17.4607C16.3249 17.7072 16.5118 18.0178 16.6084 18.3602C16.705 18.7025 16.7081 19.0648 16.6182 19.409C16.5395 19.7102 16.3919 19.9883 16.1875 20.2215L16.0967 20.3182L14.4141 21.9998C14.0971 22.3168 13.7208 22.5685 13.3067 22.74C12.8925 22.9116 12.4483 22.9998 12 22.9998C11.5517 22.9998 11.1076 22.9116 10.6934 22.74C10.2792 22.5685 9.90297 22.3168 9.58596 21.9998L7.90236 20.3172C7.75704 20.9221 7.45278 21.4781 7.0215 21.9266C6.59028 22.3748 6.04694 22.7002 5.44826 22.8689C4.8497 23.0376 4.21696 23.0436 3.61525 22.8865C3.01328 22.7293 2.46331 22.4144 2.02346 21.9744C1.58367 21.5344 1.26929 20.9846 1.11232 20.3826C0.955468 19.7808 0.961995 19.1482 1.13088 18.5496C1.29984 17.9509 1.62478 17.4075 2.07326 16.9764C2.52182 16.5452 3.07764 16.2416 3.68264 16.0965L2.00002 14.4139C1.683 14.0969 1.43136 13.7206 1.25978 13.3064C1.0882 12.8922 1.00002 12.4482 1.00002 11.9998C1.00003 11.5515 1.08821 11.1074 1.25978 10.6932C1.43136 10.279 1.68303 9.90271 2.00002 9.58574L3.68264 7.90312L3.77931 7.8123C4.01254 7.60796 4.29064 7.46032 4.59181 7.38164C4.93599 7.29175 5.29829 7.29481 5.64064 7.3914C5.98296 7.48801 6.29364 7.67495 6.54006 7.93144C6.78609 8.18769 6.95918 8.50494 7.04201 8.85039L7.10158 9.04082C7.17316 9.22597 7.28142 9.39582 7.41994 9.53984C7.60474 9.7319 7.83724 9.87183 8.09377 9.94414C8.35037 10.0164 8.62195 10.0183 8.8799 9.95097C9.13778 9.88359 9.3731 9.74886 9.56154 9.56035C9.74997 9.37185 9.88486 9.1366 9.95217 8.87871C10.0194 8.62072 10.0168 8.34917 9.94435 8.09258C9.87194 7.836 9.73225 7.6035 9.54006 7.41875C9.34801 7.23417 9.11055 7.10309 8.85158 7.04082C8.50563 6.95802 8.18721 6.78531 7.93068 6.53887C7.6742 6.29244 7.4882 5.98177 7.39162 5.63945C7.29503 5.29711 7.29197 4.93479 7.38185 4.59062C7.47178 4.24661 7.65178 3.93275 7.90334 3.68144L9.58596 1.9998L9.70705 1.88359C9.99712 1.62073 10.3309 1.4097 10.6934 1.25957C11.1076 1.088 11.5517 0.999803 12 0.999803C12.4483 0.999821 12.8925 1.08801 13.3067 1.25957C13.7208 1.43115 14.0971 1.68281 14.4141 1.9998L16.0977 3.6834C16.243 3.07845 16.5473 2.52244 16.9785 2.07402C17.4097 1.62569 17.9521 1.29946 18.5508 1.13066C19.1495 0.961903 19.7829 0.95597 20.3848 1.11308C20.9866 1.27023 21.5358 1.58535 21.9756 2.02519C22.4155 2.4652 22.7307 3.01497 22.8877 3.61699C23.0446 4.21892 23.0381 4.85231 22.8692 5.45097C22.7001 6.04956 22.3742 6.59222 21.9258 7.02324C21.4773 7.45424 20.9222 7.75798 20.3174 7.90312L22 9.58574L22.1162 9.70781C22.3789 9.99775 22.5902 10.331 22.7403 10.6932C22.9118 11.1074 23 11.5515 23 11.9998Z" fill="black"/>
</svg>
