<svg width="24" height="24" viewBox="0 0 24 24" fill="none" xmlns="http://www.w3.org/2000/svg">
<path fill-rule="evenodd" clip-rule="evenodd" d="M5 4C4.44772 4 4 4.44772 4 5V19C4 19.5523 4.44772 20 5 20H19C19.5523 20 20 19.5523 20 19V5C20 4.44772 19.5523 4 19 4H5ZM2 5C2 3.34315 3.34315 2 5 2H19C20.6569 2 22 3.34315 22 5V19C22 20.6569 20.6569 22 19 22H5C3.34315 22 2 20.6569 2 19V5Z" fill="black"/>
<path fill-rule="evenodd" clip-rule="evenodd" d="M13 9C13 8.44772 13.4477 8 14 8H15C15.5523 8 16 8.44772 16 9C16 9.55228 15.5523 10 15 10H14C13.4477 10 13 9.55228 13 9Z" fill="black"/>
<path fill-rule="evenodd" clip-rule="evenodd" d="M18 9C18 8.44772 18.4477 8 19 8H21C21.5523 8 22 8.44772 22 9C22 9.55228 21.5523 10 21 10H19C18.4477 10 18 9.55228 18 9Z" fill="black"/>
<path fill-rule="evenodd" clip-rule="evenodd" d="M2 9C2 8.44772 2.44772 8 3 8H5C5.55228 8 6 8.44772 6 9C6 9.55228 5.55228 10 5 10H3C2.44772 10 2 9.55228 2 9Z" fill="black"/>
<path fill-rule="evenodd" clip-rule="evenodd" d="M8 9C8 8.44772 8.44772 8 9 8H10C10.5523 8 11 8.44772 11 9C11 9.55228 10.5523 10 10 10H9C8.44772 10 8 9.55228 8 9Z" fill="black"/>
</svg>
