<svg width="24" height="24" viewBox="0 0 24 24" fill="none" xmlns="http://www.w3.org/2000/svg">
<path fill-rule="evenodd" clip-rule="evenodd" d="M0.999978 22C0.999978 21.4477 1.44769 21 1.99998 21H22C22.5523 21 23 21.4477 23 22C23 22.5523 22.5523 23 22 23H1.99998C1.44769 23 0.999978 22.5523 0.999978 22Z" fill="black"/>
<path fill-rule="evenodd" clip-rule="evenodd" d="M10.6855 1.55072C10.9379 1.46712 11.2132 1.48747 11.4506 1.60728L12.4958 2.13488C12.4967 2.13532 12.4976 2.13576 12.4984 2.13619C12.935 2.35418 13.3119 2.67539 13.5963 3.07197C13.8812 3.46936 14.0647 3.93037 14.1308 4.41488C14.1309 4.41587 14.1311 4.41685 14.1312 4.41784L14.8508 9.81488C14.8509 9.81535 14.8509 9.81582 14.851 9.81629C14.8732 9.97728 14.9343 10.1304 15.029 10.2625C15.124 10.395 15.2499 10.5022 15.3958 10.5749L19.7972 12.7756C19.8028 12.7784 19.8084 12.7813 19.814 12.7842C20.3832 13.0823 20.8925 13.5393 21.2277 14.133L21.824 15.1567C21.8273 15.1622 21.8305 15.1679 21.8337 15.1735C22.6624 16.662 21.7395 18.5437 20.0231 18.7524L18.8466 18.902C18.186 18.9863 17.5024 18.8762 16.8954 18.5608L3.8433 12.0447C3.84142 12.0438 3.83953 12.0428 3.83765 12.0419C3.54976 11.8959 3.28733 11.7043 3.06048 11.4747L1.29286 9.70711C1.00028 9.41453 0.918108 8.97197 1.08616 8.59386L3.08616 4.09386C3.19707 3.8443 3.40522 3.65097 3.66228 3.55874C3.91933 3.46652 4.20292 3.48344 4.44718 3.60557L5.54718 4.15557C5.54934 4.15665 5.5515 4.15774 5.55365 4.15884C6.42989 4.60493 6.99997 5.50387 6.99997 6.5C6.99997 6.72303 7.12892 6.94327 7.35114 7.05755L7.55275 7.15836L10.1055 2.05279C10.2244 1.81498 10.4332 1.63432 10.6855 1.55072ZM11.4455 3.84505L8.8944 8.94721C8.77579 9.18443 8.5678 9.36482 8.3162 9.44868C8.06459 9.53255 7.78997 9.51304 7.55275 9.39443L6.45275 8.84443C6.45059 8.84335 6.44844 8.84226 6.44629 8.84116C5.57004 8.39508 4.99997 7.49613 4.99997 6.5C4.99997 6.27697 4.87101 6.05672 4.64878 5.94244L4.48876 5.86243L3.19272 8.77853L4.47707 10.0629C4.47853 10.0643 4.47997 10.0658 4.48142 10.0673L4.48229 10.0681C4.5575 10.1445 4.64448 10.2082 4.73991 10.2569L17.7966 16.7753C17.8024 16.7782 17.8082 16.7812 17.814 16.7842C18.0446 16.905 18.3173 16.9533 18.5933 16.9181L19.7739 16.768C19.7762 16.7677 19.7785 16.7674 19.7808 16.7671C20.0598 16.7337 20.2342 16.4217 20.0896 16.1526L19.4959 15.1333C19.4932 15.1287 19.4905 15.124 19.4878 15.1193C19.3641 14.8988 19.1581 14.7001 18.8934 14.5597L14.5041 12.3651C14.504 12.3651 14.5042 12.3652 14.5041 12.3651C14.0666 12.1471 13.6886 11.8253 13.4037 11.428C13.1187 11.0306 12.9352 10.5696 12.8691 10.0851C12.869 10.0841 12.8689 10.0831 12.8687 10.0822L12.1491 4.68512C12.1491 4.68475 12.149 4.68437 12.149 4.684C12.1268 4.5229 12.0657 4.36964 11.971 4.23748C11.876 4.10502 11.75 3.99779 11.6041 3.92512C11.6025 3.92432 11.6009 3.92352 11.5994 3.92272L11.4455 3.84505Z" fill="black"/>
</svg>
