<svg width="24" height="24" viewBox="0 0 24 24" fill="none" xmlns="http://www.w3.org/2000/svg">
<path fill-rule="evenodd" clip-rule="evenodd" d="M2.97731 14.7209C3.12264 14.1881 3.67239 13.8739 4.20521 14.0193L14.8852 16.9323C15.418 17.0776 15.7322 17.6273 15.5868 18.1602C15.4415 18.693 14.8918 19.0071 14.3589 18.8618L3.67893 15.9488C3.14611 15.8034 2.83198 15.2537 2.97731 14.7209Z" fill="black"/>
<path fill-rule="evenodd" clip-rule="evenodd" d="M19.877 3.00024C19.7296 3.00024 19.5836 3.02928 19.4473 3.08571C19.3111 3.14213 19.1874 3.22483 19.0831 3.32909L15.0641 7.34809C14.7828 7.62929 14.4012 7.78737 14.0035 7.78737C13.6058 7.78737 13.2243 7.6294 12.943 7.34819L11.9989 6.40414C11.9989 6.40412 11.999 6.40416 11.9989 6.40414C11.7345 6.13979 11.3759 5.99123 11.002 5.99123C10.6281 5.99123 10.2695 6.13974 10.0051 6.40409C10.0051 6.4041 10.0051 6.40407 10.0051 6.40409L9.41473 6.99446L17.0065 14.5853L17.5968 13.9949C17.5968 13.9949 17.5969 13.9949 17.5968 13.9949C17.8612 13.7305 18.0097 13.3719 18.0097 12.998C18.0097 12.6241 17.8612 12.2655 17.5969 12.0011C17.5969 12.0011 17.5969 12.0011 17.5969 12.0011L16.6529 11.0571C16.3717 10.7758 16.2136 10.3942 16.2136 9.99648C16.2136 9.59873 16.3716 9.21727 16.6528 8.93598L20.6708 4.91696C20.7751 4.8127 20.8578 4.68885 20.9143 4.55263C20.9707 4.41642 20.9997 4.27042 20.9997 4.12298C20.9997 3.97554 20.9707 3.82954 20.9143 3.69333C20.8578 3.55711 20.7751 3.43334 20.6709 3.32909C20.5666 3.22483 20.4429 3.14213 20.3066 3.08571C20.1704 3.02928 20.0244 3.00024 19.877 3.00024ZM18.4207 9.99644L19.0111 10.5869C19.6505 11.2264 20.0097 12.0937 20.0097 12.998C20.0097 13.9023 19.6505 14.7695 19.0112 15.409L18.0671 16.3531C17.7858 16.6343 17.4042 16.7924 17.0065 16.7924C16.6087 16.7924 16.2273 16.6344 15.946 16.3532L7.64678 8.05498C7.36558 7.77369 7.2076 7.39223 7.2076 6.99448C7.2076 6.59673 7.36558 6.21527 7.64678 5.93398L8.59089 4.98987C9.23037 4.35048 10.0977 3.99123 11.002 3.99123C11.9063 3.99123 12.7736 4.35043 13.413 4.98982L14.0035 5.58027L17.6689 1.91487C17.9589 1.6249 18.3031 1.39488 18.682 1.23795C19.0608 1.08102 19.4669 1.00024 19.877 1.00024C20.2871 1.00024 20.6931 1.08102 21.072 1.23795C21.4509 1.39488 21.7951 1.6249 22.0851 1.91487C22.3751 2.20484 22.6051 2.54909 22.762 2.92796C22.919 3.30683 22.9997 3.7129 22.9997 4.12298C22.9997 4.53306 22.919 4.93913 22.762 5.318C22.6051 5.69683 22.3751 6.04104 22.0852 6.331C22.0852 6.33103 22.0852 6.33097 22.0852 6.331L18.4207 9.99644Z" fill="black"/>
<path fill-rule="evenodd" clip-rule="evenodd" d="M9.55411 7.16753C10.0139 7.47357 10.1384 8.09436 9.83241 8.55409C8.84472 10.0378 7.73174 11.0187 6.48494 11.6882C5.50412 12.2149 4.46926 12.5328 3.4107 12.7669L10.1591 20.9563C11.1087 20.2838 12.3328 19.1287 13.3321 17.9188C13.8474 17.2949 14.2816 16.6819 14.5816 16.1392C14.8978 15.5675 15 15.1886 15 15C15 14.4477 15.4477 14 16 14C16.5523 14 17 14.4477 17 15C17 15.7073 16.6941 16.452 16.3319 17.107C15.9537 17.7911 15.4395 18.5079 14.8741 19.1924C13.7492 20.5544 12.3372 21.8897 11.1852 22.6789C11.1505 22.7027 11.1143 22.7242 11.0769 22.7435C10.6911 22.9417 10.2512 23.0091 9.82374 22.9355C9.39625 22.8619 9.00427 22.6513 8.70691 22.3355C8.69182 22.3194 8.67725 22.3029 8.66325 22.2859L1.34325 13.4029C1.34207 13.4015 1.34089 13.4 1.33972 13.3986C1.17429 13.1956 1.06463 12.9529 1.02155 12.6945C0.978483 12.4362 1.00349 12.1711 1.0941 11.9253C1.18472 11.6796 1.33781 11.4617 1.5383 11.2932C1.73814 11.1252 1.97819 11.012 2.23491 10.9647C3.50737 10.727 4.58167 10.4401 5.53877 9.92619C6.47922 9.4212 7.35125 8.6721 8.16755 7.44583C8.47359 6.98609 9.09438 6.86149 9.55411 7.16753Z" fill="black"/>
</svg>
