<svg width="24" height="24" viewBox="0 0 24 24" fill="none" xmlns="http://www.w3.org/2000/svg">
<path fill-rule="evenodd" clip-rule="evenodd" d="M2.69289 2.79289C3.82194 1.66384 5.35327 1.02954 6.94999 1.02954C8.54672 1.02954 10.078 1.66384 11.2071 2.79289L19.3071 10.8929C20.4976 12.0834 20.4976 13.9166 19.3071 15.1071L15.1071 19.3071C13.904 20.5102 12.13 20.4568 10.8861 19.4894C10.8533 19.4639 10.8222 19.4364 10.7929 19.4071L2.69289 11.3071C1.56383 10.1781 0.929535 8.64672 0.929535 7.05C0.929535 5.45327 1.56383 3.92195 2.69289 2.79289ZM6.94999 3.02954C5.8837 3.02954 4.86108 3.45312 4.1071 4.20711C3.35312 4.96109 2.92953 5.98371 2.92953 7.05C2.92953 8.11629 3.35312 9.13891 4.1071 9.89289L12.158 17.9438C12.7029 18.3401 13.3065 18.2793 13.6929 17.8929L17.8929 13.6929C18.3024 13.2834 18.3024 12.7166 17.8929 12.3071L9.79289 4.20711C9.0389 3.45312 8.01628 3.02954 6.94999 3.02954Z" fill="black"/>
<path fill-rule="evenodd" clip-rule="evenodd" d="M15.7929 15.7929C16.1834 15.4024 16.8166 15.4024 17.2071 15.7929L22.7071 21.2929C23.0976 21.6834 23.0976 22.3166 22.7071 22.7071C22.3166 23.0976 21.6834 23.0976 21.2929 22.7071L15.7929 17.2071C15.4024 16.8166 15.4024 16.1834 15.7929 15.7929Z" fill="black"/>
</svg>
