<svg width="24" height="24" viewBox="0 0 24 24" fill="none" xmlns="http://www.w3.org/2000/svg">
<path d="M11 9.00003V3.00003C11 2.44775 11.4477 2.00003 12 2.00003C12.5523 2.00003 13 2.44775 13 3.00003V9.00003C13 9.55232 12.5523 10 12 10C11.4477 10 11 9.55232 11 9.00003Z" fill="black"/>
<path d="M2 19V9.47171C2.00008 9.00631 2.10834 8.54719 2.31641 8.13089L4.55566 3.65335L4.55664 3.65042C4.80703 3.15353 5.19102 2.73575 5.66504 2.44437C6.13872 2.15328 6.68428 2.00024 7.24023 2.00101L16.7598 2.00003C17.3165 1.99741 17.8628 2.15015 18.3379 2.44046C18.7554 2.69559 19.1036 3.04809 19.3525 3.46683L19.4531 3.65042L19.4551 3.65433L21.6855 8.13382C21.8923 8.54885 21.9997 9.00608 22 9.46976V19C22 19.7957 21.6837 20.5585 21.1211 21.1211C20.5585 21.6837 19.7957 22 19 22H5C4.20435 22 3.44152 21.6837 2.87891 21.1211C2.31631 20.5585 2 19.7957 2 19ZM4 19C4 19.2652 4.10545 19.5195 4.29297 19.7071C4.48051 19.8946 4.73478 20 5 20H19C19.2652 20 19.5195 19.8946 19.707 19.7071C19.8946 19.5195 20 19.2652 20 19V9.47074L19.9932 9.3555C19.9798 9.24083 19.9463 9.12927 19.8945 9.02542L17.667 4.54984L17.5957 4.4307C17.5167 4.31662 17.4142 4.21942 17.2949 4.14652C17.136 4.04951 16.9528 3.99874 16.7666 4.00003H7.23828C7.05281 3.99967 6.87092 4.05139 6.71289 4.14847C6.55597 4.2449 6.42727 4.38184 6.34375 4.54593L6.34473 4.54691L4.10547 9.02542C4.03624 9.16403 4.00008 9.31678 4 9.47171V19Z" fill="black"/>
<path d="M20.9465 8.01297C21.4988 8.01297 21.9465 8.46069 21.9465 9.01297C21.9465 9.56526 21.4988 10.013 20.9465 10.013H3.05396C2.50167 10.013 2.05396 9.56526 2.05396 9.01297C2.05396 8.46069 2.50167 8.01297 3.05396 8.01297H20.9465Z" fill="black"/>
</svg>
