<svg width="24" height="24" viewBox="0 0 24 24" fill="none" xmlns="http://www.w3.org/2000/svg">
<path fill-rule="evenodd" clip-rule="evenodd" d="M15 15.9999C15 15.4476 15.4477 14.9999 16 14.9999H22C22.5523 14.9999 23 15.4476 23 15.9999C23 16.5522 22.5523 16.9999 22 16.9999H16C15.4477 16.9999 15 16.5522 15 15.9999Z" fill="black"/>
<path fill-rule="evenodd" clip-rule="evenodd" d="M19 11.9999C19.5523 11.9999 20 12.4476 20 12.9999V18.9999C20 19.5522 19.5523 19.9999 19 19.9999C18.4477 19.9999 18 19.5522 18 18.9999V12.9999C18 12.4476 18.4477 11.9999 19 11.9999Z" fill="black"/>
<path fill-rule="evenodd" clip-rule="evenodd" d="M10.5021 1.40265C10.9577 1.14014 11.4742 1.00195 12 1.00195C12.5258 1.00195 13.0423 1.14014 13.4979 1.40265L13.5 1.40388L20.4961 5.40166L20.5 5.40388C20.9556 5.66692 21.334 6.04515 21.5973 6.50062C21.8606 6.95609 21.9995 7.47279 22 7.99888V9.9999C22 10.5522 21.5523 10.9999 21 10.9999C20.4477 10.9999 20 10.5522 20 9.9999V8.00093C19.9998 7.82556 19.9535 7.65333 19.8658 7.50151C19.7783 7.35021 19.6527 7.22447 19.5016 7.13683L19.5 7.13593L12.5039 3.13815L12.5 3.13593C12.348 3.04816 12.1755 3.00195 12 3.00195C11.8245 3.00195 11.652 3.04816 11.5 3.13593L11.4961 3.13815L4.49841 7.13685C4.34725 7.22449 4.22168 7.35022 4.13423 7.50151C4.04654 7.65321 4.00025 7.82528 4 8.0005V15.9993C4.00025 16.1745 4.04654 16.3466 4.13423 16.4983C4.22167 16.6496 4.34721 16.7753 4.49834 16.8629L4.5 16.8639L11.4961 20.8617L11.5 20.8639C11.652 20.9516 11.8245 20.9979 12 20.9979C12.1755 20.9979 12.348 20.9516 12.5 20.8639L12.5048 20.8611L14.5048 19.7211C14.9846 19.4476 15.5953 19.6149 15.8688 20.0947C16.1423 20.5745 15.975 21.1852 15.4952 21.4587L13.5 22.5959L13.4975 22.5974C13.042 22.8597 12.5256 22.9979 12 22.9979C11.4741 22.9979 10.9575 22.8596 10.5019 22.597L10.5 22.5959L3.50386 18.5981L3.5 18.5959C3.04439 18.3329 2.66597 17.9547 2.40269 17.4992C2.13941 17.0437 2.00054 16.527 2 16.0009V7.99888C2.00054 7.47279 2.13941 6.95609 2.40269 6.50062C2.66597 6.04515 3.04439 5.66692 3.5 5.40388L3.50386 5.40166L10.5021 1.40265Z" fill="black"/>
<path fill-rule="evenodd" clip-rule="evenodd" d="M6.63207 3.77328C6.90636 3.29392 7.51732 3.12769 7.99667 3.40199L16.9967 8.55199C17.476 8.82629 17.6423 9.43724 17.368 9.91659C17.0937 10.3959 16.4827 10.5622 16.0034 10.2879L7.00336 5.13788C6.524 4.86359 6.35777 4.25263 6.63207 3.77328Z" fill="black"/>
<path fill-rule="evenodd" clip-rule="evenodd" d="M2.42275 6.50208C2.69771 6.02311 3.30889 5.85772 3.78787 6.13267L12 10.8469L20.2122 6.13267C20.6911 5.85772 21.3023 6.02311 21.5773 6.50208C21.8522 6.98106 21.6868 7.59224 21.2079 7.8672L12.4979 12.8672C12.1896 13.0442 11.8105 13.0442 11.5022 12.8672L2.79216 7.8672C2.31318 7.59224 2.1478 6.98106 2.42275 6.50208Z" fill="black"/>
<path fill-rule="evenodd" clip-rule="evenodd" d="M12 10.9999C12.5523 10.9999 13 11.4476 13 11.9999V21.9999C13 22.5522 12.5523 22.9999 12 22.9999C11.4477 22.9999 11 22.5522 11 21.9999V11.9999C11 11.4476 11.4477 10.9999 12 10.9999Z" fill="black"/>
</svg>
