<svg width="24" height="24" viewBox="0 0 24 24" fill="none" xmlns="http://www.w3.org/2000/svg">
<path fill-rule="evenodd" clip-rule="evenodd" d="M12.7071 13.2929C13.0976 13.6834 13.0976 14.3166 12.7071 14.7071L11.7071 15.7071C11.3166 16.0976 10.6834 16.0976 10.2929 15.7071C9.90237 15.3166 9.90237 14.6834 10.2929 14.2929L11.2929 13.2929C11.6834 12.9024 12.3166 12.9024 12.7071 13.2929Z" fill="black"/>
<path fill-rule="evenodd" clip-rule="evenodd" d="M14.4108 17.4994C14.8253 17.8643 14.8655 18.4962 14.5006 18.9108L13.2506 20.3308C12.8857 20.7453 12.2538 20.7855 11.8393 20.4206C11.4247 20.0557 11.3845 19.4238 11.7494 19.0093L12.9994 17.5893C13.3643 17.1747 13.9962 17.1345 14.4108 17.4994Z" fill="black"/>
<path fill-rule="evenodd" clip-rule="evenodd" d="M18.7536 5.44841C18.8672 5.9889 18.5211 6.5191 17.9806 6.63265C15.1919 7.21852 12.6339 8.60338 10.6189 10.6183C8.60381 12.6332 7.21873 15.191 6.63263 17.9797C6.51904 18.5202 5.98881 18.8662 5.44833 18.7526C4.90786 18.639 4.5618 18.1088 4.67539 17.5683C5.34134 14.3997 6.91512 11.4934 9.20472 9.20401C11.4943 6.9146 14.4007 5.34107 17.5694 4.67537C18.1099 4.56183 18.6401 4.90793 18.7536 5.44841Z" fill="black"/>
<path fill-rule="evenodd" clip-rule="evenodd" d="M19.7648 9.03694C19.9101 9.56976 19.5959 10.1195 19.0631 10.2648C18.2979 10.4735 17.6469 10.9776 17.2534 11.6663C16.8599 12.355 16.7561 13.1717 16.9648 13.9369C17.1735 14.7021 17.6776 15.3531 18.3662 15.7466C19.0549 16.1402 19.8717 16.244 20.6369 16.0353C21.1697 15.89 21.7194 16.2041 21.8648 16.7369C22.0101 17.2698 21.6959 17.8195 21.1631 17.9648C19.8862 18.3131 18.5232 18.1398 17.374 17.4831C16.2248 16.8264 15.3835 15.7401 15.0352 14.4632C14.687 13.1862 14.8602 11.8232 15.5169 10.674C16.1736 9.52482 17.2599 8.68355 18.5369 8.33529C19.0697 8.18998 19.6194 8.50411 19.7648 9.03694Z" fill="black"/>
<path fill-rule="evenodd" clip-rule="evenodd" d="M15.9889 3.00139C9.7453 4.73918 4.73922 9.74526 3.00143 15.9889C3.00134 15.9887 3.0015 15.9891 3.00143 15.9889C3.00165 15.9895 3.00215 15.9907 3.00243 15.9913C3.00229 15.991 3.00256 15.9916 3.00243 15.9913C3.00259 15.9917 3.00318 15.9929 3.00336 15.9933C3.0036 15.9937 3.00385 15.9942 3.00412 15.9947C3.00449 15.9954 3.00518 15.9965 3.00558 15.9972C3.00598 15.9978 3.00638 15.9984 3.00679 15.999C3.0072 15.9996 3.00761 16.0002 3.00801 16.0007C3.00833 16.0011 3.00865 16.0015 3.00896 16.0019L20.9831 20.9947C20.9835 20.9943 20.984 20.9939 20.9844 20.9935C20.9854 20.9926 20.9864 20.9917 20.9873 20.9907C20.9883 20.9898 20.9892 20.9888 20.9901 20.9877C20.991 20.9867 20.9919 20.9857 20.9927 20.9846C20.9933 20.9838 20.9939 20.983 20.9945 20.9822L16.0019 3.00892C16.0015 3.00862 16.0011 3.0083 16.0007 3.00797C16.0002 3.00757 15.9996 3.00717 15.999 3.00676C15.9985 3.00635 15.9978 3.00594 15.9972 3.00554C15.9969 3.00533 15.9965 3.00513 15.9962 3.00493C15.9959 3.00474 15.9956 3.00456 15.9953 3.00438C15.9948 3.00414 15.9944 3.0039 15.994 3.00368C15.9937 3.00356 15.9942 3.0038 15.994 3.00368C15.9933 3.00335 15.992 3.00268 15.9914 3.00239C15.991 3.00226 15.9916 3.00252 15.9914 3.00239C15.991 3.00226 15.9892 3.00151 15.9889 3.00139C15.9891 3.00147 15.9887 3.00131 15.9889 3.00139ZM15.4627 1.07182C16.5203 0.777471 17.6346 1.41669 17.9257 2.46211L22.9256 20.4615C23.3318 21.9172 21.965 23.3451 20.4616 22.9255L2.46214 17.9257C1.41668 17.6346 0.777413 16.5203 1.07186 15.4627C2.99591 8.53592 8.53595 2.99587 15.4627 1.07182Z" fill="black"/>
</svg>
