<svg width="24" height="24" viewBox="0 0 24 24" fill="none" xmlns="http://www.w3.org/2000/svg">
<path fill-rule="evenodd" clip-rule="evenodd" d="M12 1C12.5523 1 13 1.44772 13 2V12C13 12.5523 12.5523 13 12 13C11.4477 13 11 12.5523 11 12V2C11 1.44772 11.4477 1 12 1Z" fill="black"/>
<path fill-rule="evenodd" clip-rule="evenodd" d="M17.693 5.89276C18.0836 5.50231 18.7168 5.50243 19.1072 5.89302C20.5035 7.28981 21.4549 9.06877 21.8414 11.0056C22.228 12.9424 22.0324 14.9502 21.2793 16.776C20.5262 18.6018 19.2493 20.1636 17.6097 21.2647C15.9701 22.3657 14.0412 22.9566 12.0662 22.9627C10.0912 22.9689 8.15861 22.3902 6.51214 21.2994C4.86566 20.2087 3.57903 18.6548 2.8145 16.8338C2.04997 15.0128 1.84178 13.0062 2.21619 11.067C2.5906 9.12786 3.53084 7.34297 4.91834 5.93747C5.30633 5.54443 5.93949 5.54035 6.33252 5.92835C6.72555 6.31635 6.72964 6.9495 6.34164 7.34253C5.23165 8.46694 4.47945 9.89484 4.17993 11.4462C3.8804 12.9975 4.04695 14.6028 4.65857 16.0596C5.27019 17.5164 6.2995 18.7595 7.61668 19.6321C8.93386 20.5047 10.4799 20.9677 12.0599 20.9627C13.6399 20.9578 15.183 20.4851 16.4947 19.6043C17.8064 18.7235 18.8279 17.474 19.4304 16.0134C20.0329 14.5527 20.1894 12.9464 19.8801 11.397C19.5709 9.84757 18.8098 8.4244 17.6927 7.30698C17.3023 6.91638 17.3024 6.28322 17.693 5.89276Z" fill="black"/>
</svg>
