<svg width="24" height="24" viewBox="0 0 24 24" fill="none" xmlns="http://www.w3.org/2000/svg">
<path fill-rule="evenodd" clip-rule="evenodd" d="M12 16C12.5523 16 13 16.4477 13 17V22C13 22.5523 12.5523 23 12 23C11.4477 23 11 22.5523 11 22V17C11 16.4477 11.4477 16 12 16Z" fill="black"/>
<path fill-rule="evenodd" clip-rule="evenodd" d="M6.89 2C6.89 1.44772 7.33772 1 7.89 1H16C16.7957 1 17.5587 1.31607 18.1213 1.87868C18.6839 2.44129 19 3.20435 19 4C19 4.79565 18.6839 5.55871 18.1213 6.12132C17.5587 6.68393 16.7957 7 16 7L16 9.34C16 9.89229 15.5523 10.34 15 10.34C14.4477 10.34 14 9.89229 14 9.34V7C14 6.46957 14.2107 5.96086 14.5858 5.58579C14.9609 5.21071 15.4696 5 16 5C16.2652 5 16.5196 4.89464 16.7071 4.70711C16.8946 4.51957 17 4.26522 17 4C17 3.73478 16.8946 3.48043 16.7071 3.29289C16.5196 3.10536 16.2652 3 16 3H7.89C7.33772 3 6.89 2.55228 6.89 2Z" fill="black"/>
<path fill-rule="evenodd" clip-rule="evenodd" d="M1.29289 1.29289C1.68342 0.902369 2.31658 0.902369 2.70711 1.29289L22.7071 21.2929C23.0976 21.6834 23.0976 22.3166 22.7071 22.7071C22.3166 23.0976 21.6834 23.0976 21.2929 22.7071L1.29289 2.70711C0.902369 2.31658 0.902369 1.68342 1.29289 1.29289Z" fill="black"/>
<path fill-rule="evenodd" clip-rule="evenodd" d="M9 8C9.55228 8 10 8.44772 10 9V10.7605C9.9997 11.3187 9.84372 11.8656 9.54958 12.34C9.25612 12.8132 8.83676 13.1954 8.33846 13.4438L6.56122 14.3424C6.55915 14.3435 6.55708 14.3445 6.555 14.3455C6.38839 14.4283 6.24819 14.5559 6.15014 14.7141C6.05213 14.8721 6.00014 15.0543 6 15.2403V16H17C17.5523 16 18 16.4477 18 17C18 17.5523 17.5523 18 17 18H6C5.46957 18 4.96086 17.7893 4.58579 17.4142C4.21071 17.0391 4 16.5304 4 16L4 15.2395C4.0003 14.6813 4.15628 14.1344 4.45042 13.66C4.74388 13.1868 5.16324 12.8046 5.66155 12.5562L7.43878 11.6576C7.44085 11.6565 7.44292 11.6555 7.445 11.6545C7.61161 11.5717 7.75181 11.4441 7.84986 11.2859C7.94791 11.1278 7.9999 10.9455 8 10.7595V9C8 8.44772 8.44772 8 9 8Z" fill="black"/>
</svg>
