<svg width="24" height="24" viewBox="0 0 24 24" fill="none" xmlns="http://www.w3.org/2000/svg">
<path fill-rule="evenodd" clip-rule="evenodd" d="M5.87868 1.87868C6.44129 1.31607 7.20436 1 8 1C8.73983 1 9.45148 1.27328 10 1.76393C10.5485 1.27328 11.2602 1 12 1C12.7398 1 13.4515 1.27328 14 1.76393C14.5485 1.27328 15.2602 1 16 1C16.7957 1 17.5587 1.31607 18.1213 1.87868C18.4734 2.23073 18.7289 2.66127 18.8708 3.12917C19.3387 3.27111 19.7693 3.52663 20.1213 3.87868C20.6839 4.44129 21 5.20435 21 6C21 6.79565 20.6839 7.55871 20.1213 8.12132C19.5587 8.68393 18.7957 9 18 9C17.4477 9 17 8.55228 17 8C17 7.44772 17.4477 7 18 7C18.2652 7 18.5196 6.89464 18.7071 6.70711C18.8946 6.51957 19 6.26522 19 6C19 5.73478 18.8946 5.48043 18.7071 5.29289C18.5196 5.10536 18.2652 5 18 5C17.4477 5 17 4.55228 17 4C17 3.73478 16.8946 3.48043 16.7071 3.29289C16.5196 3.10536 16.2652 3 16 3C15.7348 3 15.4804 3.10536 15.2929 3.29289C15.1054 3.48043 15 3.73478 15 4C15 4.55228 14.5523 5 14 5C13.4477 5 13 4.55228 13 4C13 3.73478 12.8946 3.48043 12.7071 3.29289C12.5196 3.10536 12.2652 3 12 3C11.7348 3 11.4804 3.10536 11.2929 3.29289C11.1054 3.48043 11 3.73478 11 4C11 4.55228 10.5523 5 10 5C9.44772 5 9 4.55228 9 4C9 3.73478 8.89465 3.48043 8.70711 3.29289C8.51957 3.10536 8.26522 3 8 3C7.73479 3 7.48043 3.10536 7.2929 3.29289C7.10536 3.48043 7 3.73478 7 4C7 4.55228 6.55229 5 6 5C5.73479 5 5.48043 5.10536 5.2929 5.29289C5.10536 5.48043 5 5.73478 5 6C5 6.26522 5.10536 6.51957 5.2929 6.70711C5.48043 6.89464 5.73479 7 6 7C6.55229 7 7 7.44772 7 8C7 8.55228 6.55229 9 6 9C5.20436 9 4.44129 8.68393 3.87868 8.12132C3.31608 7.55871 3 6.79565 3 6C3 5.20435 3.31608 4.44129 3.87868 3.87868C4.23073 3.52663 4.66127 3.27111 5.12917 3.12917C5.27112 2.66127 5.52663 2.23073 5.87868 1.87868Z" fill="black"/>
<path fill-rule="evenodd" clip-rule="evenodd" d="M8.92872 7.00254C9.4796 6.9632 9.95808 7.37788 9.99743 7.92876L10.9974 21.9288C11.0368 22.4796 10.6221 22.9581 10.0712 22.9975C9.52034 23.0368 9.04186 22.6221 9.00251 22.0713L8.00251 8.07125C7.96316 7.52037 8.37784 7.04189 8.92872 7.00254Z" fill="black"/>
<path fill-rule="evenodd" clip-rule="evenodd" d="M15.0712 7.00254C15.6221 7.04189 16.0368 7.52037 15.9974 8.07125L14.9974 22.0713C14.9581 22.6221 14.4796 23.0368 13.9287 22.9975C13.3778 22.9581 12.9632 22.4796 13.0025 21.9288L14.0025 7.92876C14.0419 7.37788 14.5203 6.9632 15.0712 7.00254Z" fill="black"/>
<path fill-rule="evenodd" clip-rule="evenodd" d="M4.22316 9H19.7768L17.2226 20.7882C17.2226 20.7885 17.2227 20.788 17.2226 20.7882C17.2205 20.7926 17.216 20.8013 17.2085 20.8125C17.188 20.8433 17.1545 20.882 17.1098 20.9193C17.065 20.9566 17.0224 20.9813 16.9918 20.9943C16.9857 20.9969 16.9809 20.9987 16.9773 21H6.99996C6.92452 21 6.87601 20.976 6.84817 20.9531C6.82234 20.9318 6.7967 20.8977 6.78635 20.8356C6.78371 20.8197 6.78069 20.804 6.77728 20.7882L4.22316 9ZM2.6157 7.62421C2.97032 7.21048 3.4813 7 3.99996 7H20C20.5186 7 21.0296 7.21048 21.3842 7.62421C21.7463 8.04659 21.8799 8.60321 21.7864 9.1644C21.7837 9.18025 21.7807 9.19604 21.7773 9.21175L19.1786 21.2055C19.0686 21.7411 18.7289 22.1734 18.3901 22.4557C18.0512 22.7382 17.5572 23 17 23H6.99996C5.94431 23 5.01323 22.2822 4.81824 21.1915L2.22264 9.21175C2.21923 9.19604 2.21621 9.18025 2.21356 9.1644C2.12003 8.60321 2.25366 8.04659 2.6157 7.62421Z" fill="black"/>
</svg>
