<svg width="24" height="24" viewBox="0 0 24 24" fill="none" xmlns="http://www.w3.org/2000/svg">
<path fill-rule="evenodd" clip-rule="evenodd" d="M11.0752 1.22901C11.3607 1.0801 11.678 1.00234 12 1.00234C12.322 1.00234 12.6393 1.0801 12.9248 1.22901C13.2103 1.37791 13.4557 1.59356 13.64 1.85762C13.6408 1.85877 13.6416 1.85991 13.6424 1.86107L22.6392 14.8665C22.6399 14.8674 22.6406 14.8684 22.6413 14.8694C22.7993 15.096 22.9087 15.3529 22.9625 15.6239C23.0165 15.896 23.0134 16.1765 22.9532 16.4474C22.893 16.7182 22.7771 16.9736 22.6129 17.1973C22.4486 17.4209 22.2396 17.608 21.9992 17.7465L21.9959 17.7483L13.4859 22.6083L13.485 22.6089C13.0325 22.8666 12.5208 23.0022 12 23.0022C11.4793 23.0022 10.9675 22.8666 10.515 22.6089L10.5141 22.6083L2.00409 17.7483C2.00134 17.7468 1.9986 17.7452 1.99586 17.7436C1.75833 17.6049 1.55194 17.4188 1.3896 17.1967C1.22727 16.9747 1.11249 16.7215 1.05242 16.4531C0.992356 16.1847 0.988302 15.9068 1.04051 15.6367C1.09272 15.3667 1.20008 15.1103 1.35586 14.8836C1.35638 14.8829 1.35689 14.8821 1.35741 14.8814L10.3574 1.86136C10.3583 1.86011 10.3591 1.85886 10.36 1.85762C10.5443 1.59356 10.7897 1.37791 11.0752 1.22901ZM20.9976 16.0089L12 3.00234L3.00418 16.0163L11.505 20.8711C11.5048 20.871 11.5052 20.8712 11.505 20.8711C11.6557 20.9568 11.8267 21.0022 12 21.0022C12.1733 21.0022 12.3437 20.9571 12.4943 20.8715C12.4941 20.8716 12.4946 20.8713 12.4943 20.8715L21.0008 16.0135C20.9997 16.012 20.9987 16.0104 20.9976 16.0089Z" fill="black"/>
<path fill-rule="evenodd" clip-rule="evenodd" d="M12 1C12.5523 1 13 1.44772 13 2V22C13 22.5523 12.5523 23 12 23C11.4477 23 11 22.5523 11 22V2C11 1.44772 11.4477 1 12 1Z" fill="black"/>
</svg>
