<svg width="24" height="24" viewBox="0 0 24 24" fill="none" xmlns="http://www.w3.org/2000/svg">
<g clip-path="url(#clip0_404_39344)">
<path fill-rule="evenodd" clip-rule="evenodd" d="M3 1.00003C3.55228 1.00003 4 1.44774 4 2.00003V2.86138C4.08459 2.92026 4.2171 2.99055 4.44721 3.1056C4.45874 3.11137 4.47066 3.11731 4.48293 3.12343C4.70661 3.23497 5.04865 3.40553 5.32768 3.63806C5.65495 3.91078 6 4.35491 6 5.00003C6 5.64515 5.65495 6.08928 5.32768 6.362C5.04865 6.59452 4.70661 6.76509 4.48293 6.87663C4.47066 6.88275 4.45874 6.88869 4.44721 6.89446C4.36686 6.93463 4.29841 6.96935 4.23974 7.00003C4.29841 7.03071 4.36686 7.06542 4.44721 7.1056C4.45874 7.11137 4.47066 7.11731 4.48293 7.12343C4.70661 7.23497 5.04865 7.40553 5.32768 7.63806C5.65495 7.91078 6 8.35491 6 9.00003C6 9.64515 5.65495 10.0893 5.32768 10.362C5.04866 10.5945 4.70661 10.7651 4.48293 10.8766C4.47066 10.8827 4.45874 10.8887 4.44721 10.8945C4.36686 10.9346 4.29841 10.9694 4.23974 11C4.29841 11.0307 4.36686 11.0654 4.44721 11.1056C4.45874 11.1114 4.47066 11.1173 4.48293 11.1234C4.70661 11.235 5.04866 11.4055 5.32768 11.6381C5.65495 11.9108 6 12.3549 6 13C6 13.5523 5.55228 14 5 14C4.49736 14 4.08134 13.6292 4.0106 13.1462C3.92657 13.0857 3.79275 13.0144 3.55278 12.8945C3.54125 12.8887 3.52933 12.8827 3.51706 12.8766C3.29338 12.7651 2.95134 12.5945 2.67231 12.362C2.34504 12.0893 2 11.6452 2 11C2 10.3549 2.34504 9.91078 2.67231 9.63806C2.95134 9.40554 3.29338 9.23497 3.51706 9.12343C3.52934 9.11731 3.54125 9.11137 3.55278 9.1056C3.63314 9.06543 3.70159 9.03071 3.76026 9.00003C3.70159 8.96935 3.63314 8.93463 3.55278 8.89446C3.54125 8.88869 3.52934 8.88275 3.51706 8.87663C3.29338 8.76509 2.95134 8.59452 2.67231 8.362C2.34504 8.08928 2 7.64515 2 7.00003C2 6.35491 2.34504 5.91078 2.67231 5.63806C2.95134 5.40553 3.29339 5.23497 3.51707 5.12343C3.52934 5.11731 3.54125 5.11137 3.55278 5.1056C3.63314 5.06543 3.70159 5.03071 3.76026 5.00003C3.70159 4.96935 3.63314 4.93463 3.55278 4.89446C3.54125 4.88869 3.52934 4.88275 3.51707 4.87663C3.29339 4.76509 2.95134 4.59452 2.67231 4.362C2.34504 4.08928 2 3.64515 2 3.00003V2.00003C2 1.44774 2.44771 1.00003 3 1.00003Z" fill="black"/>
<path fill-rule="evenodd" clip-rule="evenodd" d="M17 6.00003C17 5.44774 17.4477 5.00003 18 5.00003H18.01C18.5623 5.00003 19.01 5.44774 19.01 6.00003C19.01 6.55231 18.5623 7.00003 18.01 7.00003H18C17.4477 7.00003 17 6.55231 17 6.00003Z" fill="black"/>
<path fill-rule="evenodd" clip-rule="evenodd" d="M5 18C5 17.4477 5.44771 17 6 17H6.01C6.56228 17 7.01 17.4477 7.01 18C7.01 18.5523 6.56228 19 6.01 19H6C5.44771 19 5 18.5523 5 18Z" fill="black"/>
<path fill-rule="evenodd" clip-rule="evenodd" d="M16.0858 1.37857C16.6927 1.12719 17.3431 0.997803 18 0.997803C18.6569 0.997803 19.3074 1.12719 19.9143 1.37857C20.5212 1.62996 21.0726 1.99842 21.5371 2.46292C22.0016 2.92742 22.3701 3.47886 22.6215 4.08576C22.8729 4.69266 23.0023 5.34313 23.0023 6.00003C23.0023 6.65693 22.8729 7.3074 22.6215 7.9143C22.3701 8.52119 22.0016 9.07263 21.5371 9.53713L9.53714 21.5371C8.59904 22.4752 7.32671 23.0023 6.00003 23.0023C5.34313 23.0023 4.69266 22.8729 4.08577 22.6215C3.47887 22.3701 2.92743 22.0016 2.46293 21.5371C1.99843 21.0726 1.62997 20.5212 1.37858 19.9143C1.1272 19.3074 0.99781 18.6569 0.99781 18C0.99781 16.6734 1.52483 15.401 2.46293 14.4629L14.4629 2.46292C14.9274 1.99842 15.4789 1.62996 16.0858 1.37857ZM18 2.9978C17.6058 2.9978 17.2154 3.07546 16.8511 3.22633C16.4869 3.37721 16.1559 3.59835 15.8771 3.87713L3.87714 15.8771C3.31412 16.4402 2.99781 17.2038 2.99781 18C2.99781 18.3943 3.07547 18.7847 3.22634 19.1489C3.37722 19.5132 3.59836 19.8441 3.87714 20.1229C4.15592 20.4017 4.48689 20.6228 4.85113 20.7737C5.21538 20.9246 5.60578 21.0023 6.00003 21.0023C6.79627 21.0023 7.5599 20.6859 8.12293 20.1229L20.1229 8.12292C20.4017 7.84414 20.6229 7.51318 20.7737 7.14893C20.9246 6.78468 21.0023 6.39428 21.0023 6.00003C21.0023 5.60577 20.9246 5.21537 20.7737 4.85113C20.6229 4.48688 20.4017 4.15592 20.1229 3.87713C19.8441 3.59835 19.5132 3.37721 19.1489 3.22633C18.7847 3.07546 18.3943 2.9978 18 2.9978Z" fill="black"/>
<path fill-rule="evenodd" clip-rule="evenodd" d="M22 5.00003C22.5523 5.00003 23 5.44774 23 6.00003V18C23 19.3261 22.4732 20.5979 21.5355 21.5356C20.5978 22.4732 19.3261 23 18 23C17.4477 23 17 22.5523 17 22V11.66C17 11.1077 17.4477 10.66 18 10.66C18.5523 10.66 19 11.1077 19 11.66V20.8285C19.4179 20.6807 19.8019 20.4408 20.1213 20.1213C20.6839 19.5587 21 18.7957 21 18V6.00003C21 5.44774 21.4477 5.00003 22 5.00003Z" fill="black"/>
</g>
<defs>
<clipPath id="clip0_404_39344">
<rect width="24" height="24" fill="white"/>
</clipPath>
</defs>
</svg>
