<svg width="24" height="24" viewBox="0 0 24 24" fill="none" xmlns="http://www.w3.org/2000/svg">
<path d="M14.2928 11.2929C14.6833 10.9024 15.3164 10.9024 15.7069 11.2929C16.0974 11.6834 16.0974 12.3164 15.7069 12.7069L7.29282 21.121C6.73037 21.6835 5.96722 21.9997 5.17173 21.9999H3.82798C3.59592 22 3.37209 22.0806 3.19419 22.2265L3.12095 22.2929C2.73041 22.6833 2.09737 22.6834 1.70689 22.2929C1.31644 21.9024 1.31647 21.2693 1.70689 20.8788L1.77329 20.8056C1.91917 20.6277 1.99979 20.4039 1.99986 20.1718V18.828C2.00003 18.0325 2.31624 17.2694 2.87876 16.7069L11.2928 8.29288C11.6833 7.90236 12.3164 7.90238 12.7069 8.29288C13.0974 8.6834 13.0974 9.31642 12.7069 9.70694L4.29282 18.121C4.1053 18.3085 3.99994 18.5629 3.99986 18.828V19.9999H5.17173L5.27036 19.995C5.49933 19.9723 5.71466 19.8711 5.87876 19.7069L14.2928 11.2929Z" fill="black"/>
<path d="M21.0217 4.09985C21.0217 3.80254 20.9029 3.51712 20.6926 3.30688C20.4824 3.0968 20.1969 2.97876 19.8997 2.97876C19.6026 2.97887 19.3178 3.09694 19.1077 3.30688L15.7073 6.70728C15.5198 6.89477 15.2654 7.0002 15.0002 7.00024C14.7351 7.00024 14.4807 6.89471 14.2932 6.70728L13.8928 6.30688C13.6826 6.09674 13.3971 5.97876 13.0999 5.97876C12.9528 5.97879 12.807 6.00748 12.6711 6.06372C12.5351 6.12007 12.411 6.20276 12.3069 6.30688C12.2028 6.41101 12.1201 6.5351 12.0637 6.67114C12.0075 6.80704 11.9788 6.95278 11.9788 7.09985C11.9788 7.39714 12.0967 7.68256 12.3069 7.89282L16.1077 11.6926C16.2117 11.7967 16.335 11.8795 16.4709 11.9358C16.6069 11.9921 16.7525 12.0217 16.8997 12.0217C17.0469 12.0217 17.1933 11.9921 17.3293 11.9358C17.4653 11.8794 17.5886 11.7967 17.6926 11.6926C17.7967 11.5886 17.8794 11.4653 17.9358 11.3293C17.9921 11.1933 18.0217 11.0469 18.0217 10.8997C18.0217 10.7525 17.9921 10.6069 17.9358 10.4709C17.8795 10.335 17.7967 10.2117 17.6926 10.1077L17.2932 9.70728C16.9027 9.31675 16.9027 8.68374 17.2932 8.29321L20.6926 4.89282C20.9029 4.68253 21.0217 4.39725 21.0217 4.09985ZM23.0217 4.09985C23.0217 4.9275 22.6928 5.72156 22.1077 6.30688L19.3918 9.02173C19.5502 9.23184 19.6823 9.46116 19.7834 9.70532C19.9403 10.0839 20.0217 10.4899 20.0217 10.8997C20.0217 11.3096 19.9403 11.7163 19.7834 12.095C19.6266 12.4735 19.3974 12.8179 19.1077 13.1077C18.8179 13.3974 18.4735 13.6266 18.095 13.7834C17.7163 13.9403 17.3096 14.0217 16.8997 14.0217C16.4899 14.0217 16.0839 13.9403 15.7053 13.7834C15.3268 13.6266 14.9824 13.3974 14.6926 13.1077L10.8928 9.30688C10.3076 8.72155 9.97876 7.92757 9.97876 7.09985C9.97879 6.69004 10.0592 6.28413 10.2161 5.90552C10.3729 5.52682 10.603 5.18266 10.8928 4.89282C11.1827 4.60298 11.5268 4.37293 11.9055 4.21606C12.2841 4.05924 12.69 3.97879 13.0999 3.97876C13.7814 3.97876 14.4397 4.20226 14.9778 4.60767L17.6926 1.89282C18.2779 1.30756 19.072 0.978871 19.8997 0.97876C20.7275 0.97876 21.5223 1.30746 22.1077 1.89282C22.6929 2.47811 23.0217 3.27219 23.0217 4.09985Z" fill="black"/>
<path d="M1.70689 20.8788C2.09741 20.4883 2.73049 20.4885 3.121 20.8791C3.51148 21.2696 3.51143 21.9024 3.12095 22.2929L2.70694 22.7072C2.31642 23.0977 1.68339 23.0977 1.29288 22.7072C0.902364 22.3167 0.902385 21.6836 1.29288 21.2931L1.70689 20.8788Z" fill="black"/>
</svg>
