<svg width="24" height="24" viewBox="0 0 24 24" fill="none" xmlns="http://www.w3.org/2000/svg">
<path fill-rule="evenodd" clip-rule="evenodd" d="M5.58579 13.5858C5.96086 13.2107 6.46957 13 7 13H17C17.5304 13 18.0391 13.2107 18.4142 13.5858C18.7893 13.9609 19 14.4696 19 15V15.5C19 16.0523 18.5523 16.5 18 16.5C17.4477 16.5 17 16.0523 17 15.5V15H7V21H13.5C14.0523 21 14.5 21.4477 14.5 22C14.5 22.5523 14.0523 23 13.5 23H7C6.46957 23 5.96086 22.7893 5.58579 22.4142C5.21071 22.0391 5 21.5304 5 21V15C5 14.4696 5.21071 13.9609 5.58579 13.5858Z" fill="black"/>
<path fill-rule="evenodd" clip-rule="evenodd" d="M22.7071 16.2929C23.0976 16.6834 23.0976 17.3166 22.7071 17.7071L18.7071 21.7071C18.3166 22.0976 17.6834 22.0976 17.2929 21.7071L15.2929 19.7071C14.9024 19.3166 14.9024 18.6834 15.2929 18.2929C15.6834 17.9024 16.3166 17.9024 16.7071 18.2929L18 19.5858L21.2929 16.2929C21.6834 15.9024 22.3166 15.9024 22.7071 16.2929Z" fill="black"/>
<path fill-rule="evenodd" clip-rule="evenodd" d="M4 10C3.73478 10 3.48043 10.1054 3.29289 10.2929C3.10536 10.4804 3 10.7348 3 11V16C3 16.2652 3.10536 16.5196 3.29289 16.7071C3.48043 16.8946 3.73478 17 4 17H6C6.55228 17 7 17.4477 7 18C7 18.5523 6.55228 19 6 19H4C3.20435 19 2.44129 18.6839 1.87868 18.1213C1.31607 17.5587 1 16.7956 1 16V11C1 10.2044 1.31607 9.44129 1.87868 8.87868C2.44129 8.31607 3.20435 8 4 8H20C20.7957 8 21.5587 8.31607 22.1213 8.87868C22.6839 9.44129 23 10.2043 23 11V13C23 13.5523 22.5523 14 22 14C21.4477 14 21 13.5523 21 13V11C21 10.7348 20.8946 10.4804 20.7071 10.2929C20.5196 10.1054 20.2652 10 20 10H4Z" fill="black"/>
<path fill-rule="evenodd" clip-rule="evenodd" d="M5.58579 1.58579C5.96086 1.21071 6.46957 1 7 1H17C17.5304 1 18.0391 1.21071 18.4142 1.58579C18.7893 1.96086 19 2.46957 19 3V9C19 9.55228 18.5523 10 18 10C17.4477 10 17 9.55228 17 9V3H7V9C7 9.55228 6.55228 10 6 10C5.44772 10 5 9.55228 5 9V3C5 2.46957 5.21071 1.96086 5.58579 1.58579Z" fill="black"/>
</svg>
