<svg width="24" height="24" viewBox="0 0 24 24" fill="none" xmlns="http://www.w3.org/2000/svg">
<path fill-rule="evenodd" clip-rule="evenodd" d="M12.5858 10.5858C12.9609 10.2107 13.4696 10 14 10H18C18.5523 10 19 10.4477 19 11C19 11.5523 18.5523 12 18 12H14V17H18C18.5523 17 19 17.4477 19 18C19 18.5523 18.5523 19 18 19H14C13.4696 19 12.9609 18.7893 12.5858 18.4142C12.2107 18.0391 12 17.5304 12 17V12C12 11.4696 12.2107 10.9609 12.5858 10.5858Z" fill="black"/>
<path fill-rule="evenodd" clip-rule="evenodd" d="M6 6C6.55228 6 7 6.44772 7 7V20C7 20.2652 7.10536 20.5196 7.29289 20.7071C7.48043 20.8946 7.73478 21 8 21H16C16.2652 21 16.5196 20.8946 16.7071 20.7071C16.8946 20.5196 17 20.2652 17 20V7C17 6.44772 17.4477 6 18 6C18.5523 6 19 6.44772 19 7V20C19 20.7957 18.6839 21.5587 18.1213 22.1213C17.5587 22.6839 16.7957 23 16 23H8C7.20435 23 6.44129 22.6839 5.87868 22.1213C5.31607 21.5587 5 20.7957 5 20V7C5 6.44772 5.44772 6 6 6Z" fill="black"/>
<path fill-rule="evenodd" clip-rule="evenodd" d="M5 3V6H19V3H5ZM19.0012 3.00005C19.0012 3.00005 19.0013 3.00005 19.0012 3.00005V3.00005ZM4.99879 5.99995C4.99873 5.99995 4.99876 5.99995 4.99879 5.99995V5.99995ZM3 3C3 1.89543 3.89543 1 5 1H19C20.1046 1 21 1.89543 21 3V6C21 7.10457 20.1046 8 19 8H5C3.89543 8 3 7.10457 3 6V3Z" fill="black"/>
</svg>
