<svg width="24" height="24" viewBox="0 0 24 24" fill="none" xmlns="http://www.w3.org/2000/svg">
<path fill-rule="evenodd" clip-rule="evenodd" d="M17.586 11.9998C17.9611 11.6248 18.4697 11.4142 19 11.4142C19.5303 11.4142 20.039 11.6248 20.414 11.9998L22.0001 13.5859C22.3751 13.961 22.5858 14.4697 22.5858 15C22.5858 15.5303 22.3752 16.039 22.0002 16.414L16.4141 22.0001C16.0391 22.3751 15.5303 22.5858 15 22.5858C14.4697 22.5858 13.9611 22.3752 13.586 22.0002L11.9999 20.4141C11.625 20.0391 11.4142 19.5303 11.4142 19C11.4142 18.4697 11.6248 17.9611 11.9998 17.586L17.586 11.9998ZM19 13.4142L13.4142 19L15 20.5858L20.5858 15L19 13.4142Z" fill="black"/>
<path fill-rule="evenodd" clip-rule="evenodd" d="M2.45866 1.07465C2.78861 0.981885 3.13687 0.975466 3.47001 1.05601C3.4764 1.05756 3.48276 1.05916 3.48911 1.06083L16.1251 4.38071C16.4913 4.4714 16.8246 4.66388 17.0862 4.93603C17.3506 5.21101 17.5308 5.55584 17.6056 5.92986C17.6056 5.92985 17.6056 5.92988 17.6056 5.92986L18.9806 12.8039C19.0889 13.3454 18.7377 13.8723 18.1961 13.9806C17.6546 14.0889 17.1278 13.7377 17.0194 13.1961L15.6444 6.32215C15.6401 6.32111 15.6358 6.31999 15.6315 6.3189C15.6293 6.31833 15.6271 6.31776 15.6249 6.31718L3.00027 3.00027L6.31718 15.6249C6.31889 15.6314 6.32053 15.6379 6.3221 15.6444L13.1961 17.0194C13.7377 17.1278 14.0889 17.6546 13.9806 18.1961C13.8723 18.7377 13.3454 19.0889 12.8039 18.9806L5.92991 17.6056C5.92989 17.6056 5.92993 17.6056 5.92991 17.6056C5.55589 17.5308 5.21101 17.3506 4.93603 17.0862C4.66388 16.8246 4.4714 16.4913 4.38071 16.1251L1.06083 3.48911C1.05916 3.48276 1.05756 3.4764 1.05601 3.47001C0.975466 3.13687 0.981885 2.78861 1.07465 2.45866C1.16742 2.12871 1.34343 1.82814 1.58579 1.58579C1.82814 1.34343 2.12871 1.16742 2.45866 1.07465Z" fill="black"/>
<path fill-rule="evenodd" clip-rule="evenodd" d="M1.59297 1.59289C1.9835 1.20237 2.61666 1.20237 3.00718 1.59289L10.2932 8.87889C10.6837 9.26942 10.6837 9.90258 10.2932 10.2931C9.90266 10.6836 9.2695 10.6836 8.87897 10.2931L1.59297 3.00711C1.20245 2.61658 1.20245 1.98342 1.59297 1.59289Z" fill="black"/>
<path fill-rule="evenodd" clip-rule="evenodd" d="M11 10C10.4477 10 10 10.4477 10 11C10 11.5523 10.4477 12 11 12C11.5523 12 12 11.5523 12 11C12 10.4477 11.5523 10 11 10ZM8 11C8 9.34315 9.34315 8 11 8C12.6569 8 14 9.34315 14 11C14 12.6569 12.6569 14 11 14C9.34315 14 8 12.6569 8 11Z" fill="black"/>
</svg>
