<svg width="24" height="24" viewBox="0 0 24 24" fill="none" xmlns="http://www.w3.org/2000/svg">
<path fill-rule="evenodd" clip-rule="evenodd" d="M12.0001 3.00195C11.7901 3.00195 11.5854 3.06807 11.4151 3.19092C11.4144 3.19141 11.4137 3.1919 11.413 3.19238L3.4146 8.93125C3.4144 8.9314 3.4142 8.93154 3.41399 8.93169C3.24173 9.05599 3.11352 9.23193 3.04796 9.434C2.98232 9.63632 2.98289 9.85429 3.0496 10.0562L6.08915 19.3149C6.08929 19.3153 6.08943 19.3157 6.08957 19.3161C6.15591 19.5152 6.28318 19.6883 6.45338 19.811C6.62392 19.934 6.82889 20.0001 7.03915 19.9999H7.04006H16.9601H16.961C17.1712 20.0001 17.3762 19.934 17.5467 19.811C17.7169 19.6883 17.8442 19.5152 17.9106 19.3161C17.9107 19.3157 17.9108 19.3153 17.911 19.3149L20.9499 10.058L20.9505 10.0562C21.0172 9.85429 21.0178 9.63631 20.9522 9.434C20.8866 9.2319 20.7584 9.05594 20.586 8.93163C20.5859 8.9315 20.5857 8.93138 20.5855 8.93125L12.5871 3.19238L12.5851 3.19092C12.4147 3.06807 12.2101 3.00195 12.0001 3.00195ZM10.2461 1.56812C10.7568 1.20003 11.3705 1.00195 12.0001 1.00195C12.6296 1.00195 13.2432 1.2 13.7539 1.56803C13.7543 1.5683 13.7547 1.56858 13.7551 1.56885L21.7546 7.30852C22.2723 7.68151 22.6576 8.20985 22.8545 8.81679C23.0514 9.42356 23.0497 10.0773 22.8498 10.683C22.8497 10.6832 22.8497 10.6834 22.8496 10.6835L19.8102 19.9418L19.8092 19.9449C19.6105 20.5436 19.2281 21.0644 18.7165 21.4333C18.2048 21.8022 17.5899 22.0005 16.9592 21.9999H7.04097C6.4102 22.0005 5.79529 21.8022 5.28364 21.4333C4.772 21.0644 4.38966 20.5435 4.19097 19.9449L4.18995 19.9418L1.15052 10.6835C1.15041 10.6832 1.1503 10.6829 1.1502 10.6826C0.950389 10.0769 0.948765 9.4234 1.14558 8.81679C1.34249 8.20985 1.7278 7.68151 2.24552 7.30852L10.2451 1.56885C10.2454 1.56861 10.2457 1.56836 10.2461 1.56812Z" fill="black"/>
</svg>
