<svg width="24" height="24" viewBox="0 0 24 24" fill="none" xmlns="http://www.w3.org/2000/svg">
<path fill-rule="evenodd" clip-rule="evenodd" d="M5 4C4.44772 4 4 4.44772 4 5V19C4 19.5523 4.44772 20 5 20H19C19.5523 20 20 19.5523 20 19V5C20 4.44772 19.5523 4 19 4H5ZM2 5C2 3.34315 3.34315 2 5 2H19C20.6569 2 22 3.34315 22 5V19C22 20.6569 20.6569 22 19 22H5C3.34315 22 2 20.6569 2 19V5Z" fill="black"/>
<path fill-rule="evenodd" clip-rule="evenodd" d="M9 2C9.55228 2 10 2.44772 10 3V21C10 21.5523 9.55228 22 9 22C8.44772 22 8 21.5523 8 21V3C8 2.44772 8.44772 2 9 2Z" fill="black"/>
<path fill-rule="evenodd" clip-rule="evenodd" d="M13.2929 8.29289C13.6834 7.90237 14.3166 7.90237 14.7071 8.29289L17.7071 11.2929C18.0976 11.6834 18.0976 12.3166 17.7071 12.7071L14.7071 15.7071C14.3166 16.0976 13.6834 16.0976 13.2929 15.7071C12.9024 15.3166 12.9024 14.6834 13.2929 14.2929L15.5858 12L13.2929 9.70711C12.9024 9.31658 12.9024 8.68342 13.2929 8.29289Z" fill="black"/>
</svg>
