<svg width="24" height="24" viewBox="0 0 24 24" fill="none" xmlns="http://www.w3.org/2000/svg">
<path fill-rule="evenodd" clip-rule="evenodd" d="M5.99995 11C6.26517 11 6.51953 11.1054 6.70706 11.2929L12.7071 17.2929C12.8946 17.4804 13 17.7348 13 18C13 18.2652 12.8946 18.5196 12.7071 18.7071L10.4083 21.0059C10.408 21.0061 10.4078 21.0064 10.4075 21.0067C10.0918 21.3233 9.71674 21.5745 9.30381 21.746C8.89053 21.9176 8.44744 22.0059 7.99995 22.0059C7.55247 22.0059 7.10938 21.9176 6.6961 21.746C6.28321 21.5745 5.90819 21.3233 5.5925 21.0068C5.59221 21.0065 5.59192 21.0062 5.59162 21.0059L2.99408 18.4083C2.99391 18.4082 2.99424 18.4085 2.99408 18.4083C2.67734 18.0926 2.42552 17.7169 2.254 17.3038C2.0824 16.8906 1.99406 16.4475 1.99406 16C1.99406 15.5525 2.0824 15.1094 2.254 14.6962C2.42548 14.2832 2.67674 13.9081 2.99339 13.5924C2.99316 13.5926 2.99362 13.5921 2.99339 13.5924L5.29285 11.2929C5.48038 11.1054 5.73474 11 5.99995 11ZM5.99996 13.4142L4.40583 15.0083C4.27532 15.1384 4.17176 15.2929 4.1011 15.4631C4.03044 15.6333 3.99406 15.8157 3.99406 16C3.99406 16.1843 4.03044 16.3667 4.1011 16.5369C4.17176 16.7071 4.27532 16.8616 4.40583 16.9917L7.00829 19.5941C7.13835 19.7246 7.2929 19.8282 7.46307 19.8989C7.63325 19.9695 7.81569 20.0059 7.99995 20.0059C8.18421 20.0059 8.36666 19.9695 8.53683 19.8989C8.70701 19.8282 8.86156 19.7246 8.99162 19.5941L10.5857 18L5.99996 13.4142Z" fill="black"/>
<path fill-rule="evenodd" clip-rule="evenodd" d="M5.70711 18.2929C6.09763 18.6834 6.09763 19.3166 5.70711 19.7071L2.70711 22.7071C2.31658 23.0976 1.68342 23.0976 1.29289 22.7071C0.902369 22.3166 0.902369 21.6834 1.29289 21.2929L4.29289 18.2929C4.68342 17.9024 5.31658 17.9024 5.70711 18.2929Z" fill="black"/>
<path fill-rule="evenodd" clip-rule="evenodd" d="M10.7071 10.2929C11.0976 10.6834 11.0976 11.3166 10.7071 11.7071L8.20711 14.2071C7.81658 14.5976 7.18342 14.5976 6.79289 14.2071C6.40237 13.8166 6.40237 13.1834 6.79289 12.7929L9.29289 10.2929C9.68342 9.90237 10.3166 9.90237 10.7071 10.2929Z" fill="black"/>
<path fill-rule="evenodd" clip-rule="evenodd" d="M13.7071 13.2929C14.0976 13.6834 14.0976 14.3166 13.7071 14.7071L11.2071 17.2071C10.8166 17.5976 10.1834 17.5976 9.79289 17.2071C9.40237 16.8166 9.40237 16.1834 9.79289 15.7929L12.2929 13.2929C12.6834 12.9024 13.3166 12.9024 13.7071 13.2929Z" fill="black"/>
<path fill-rule="evenodd" clip-rule="evenodd" d="M18.7071 2.29289C19.0977 2.68342 19.0977 3.31658 18.7071 3.70711L16.4142 6H20C20.4045 6 20.7691 6.24364 20.9239 6.61732C21.0787 6.99099 20.9931 7.42111 20.7071 7.70711L16.7071 11.7071C16.3166 12.0976 15.6834 12.0976 15.2929 11.7071C14.9024 11.3166 14.9024 10.6834 15.2929 10.2929L17.5858 8H14C13.5956 8 13.2309 7.75636 13.0761 7.38268C12.9214 7.00901 13.0069 6.57889 13.2929 6.29289L17.2929 2.29289C17.6834 1.90237 18.3166 1.90237 18.7071 2.29289Z" fill="black"/>
</svg>
