<svg width="24" height="24" viewBox="0 0 24 24" fill="none" xmlns="http://www.w3.org/2000/svg">
<path fill-rule="evenodd" clip-rule="evenodd" d="M0.99999 22.0001C0.99999 21.4478 1.44771 21.0001 1.99999 21.0001H22C22.5523 21.0001 23 21.4478 23 22.0001C23 22.5524 22.5523 23.0001 22 23.0001H1.99999C1.44771 23.0001 0.99999 22.5524 0.99999 22.0001Z" fill="black"/>
<path fill-rule="evenodd" clip-rule="evenodd" d="M6.3438 6.44625L6.34162 6.44734L8.8944 11.5529C9.01384 11.7918 9.03276 12.0685 8.94696 12.3214C8.86115 12.5743 8.67775 12.7824 8.43761 12.8993L7.31319 13.4466C6.89625 13.6553 6.43634 13.7641 5.96997 13.7641C5.50108 13.7641 5.03871 13.6542 4.61998 13.4432C4.60064 13.4334 4.58162 13.423 4.56295 13.4121L4.42577 13.3314C4.29268 13.2687 4.14729 13.2362 3.99997 13.2362C3.84368 13.2362 3.68955 13.2728 3.54997 13.3432L3.54719 13.3446L3.34162 13.4473L4.66744 16.099L6.32892 16.3806C6.39439 16.3786 6.46043 16.383 6.52612 16.394C6.73386 16.429 6.94735 16.3975 7.13612 16.304L19.9697 9.93722C20.2441 9.79588 20.4601 9.57386 20.5955 9.30291L20.9755 8.54291C20.9773 8.53934 20.9791 8.53578 20.981 8.53223C21.0082 8.4794 21.0233 8.42117 21.0252 8.36177C21.027 8.30237 21.0157 8.2433 20.9919 8.18884C20.9681 8.13439 20.9324 8.08593 20.8875 8.04698C20.8427 8.00802 20.7897 7.97956 20.7324 7.96366C20.7291 7.96276 20.7259 7.96184 20.7226 7.9609L19.7581 7.68247C19.4213 7.59 19.0621 7.62582 18.7501 7.78309C18.7471 7.78458 18.7442 7.78606 18.7412 7.78753L14.5544 9.84593L14.5526 9.84681C14.0522 10.0947 13.4926 10.1979 12.9367 10.145C12.3818 10.0922 11.8526 9.88578 11.4085 9.54905L7.39189 6.55156C7.39005 6.55019 7.38822 6.54881 7.38639 6.54743C7.23859 6.43554 7.0626 6.36693 6.87807 6.34928C6.69443 6.3317 6.50952 6.36527 6.3438 6.44625ZM6.43771 18.3971C6.35672 18.4034 6.27452 18.3999 6.19287 18.3861L3.83287 17.9861C3.51838 17.9328 3.24819 17.7326 3.10555 17.4473L1.10555 13.4473C0.858559 12.9534 1.05878 12.3527 1.55276 12.1057L2.64997 11.5571L2.65162 11.5563C3.06993 11.3458 3.5317 11.2362 3.99997 11.2362C4.46887 11.2362 4.93124 11.3461 5.34998 11.5571C5.36931 11.5668 5.38833 11.5772 5.407 11.5882L5.54418 11.6689C5.67727 11.7315 5.82266 11.7641 5.96997 11.7641C6.12627 11.7641 6.2804 11.7274 6.41997 11.6571C6.42408 11.655 6.4282 11.653 6.43233 11.651L6.65353 11.5433L4.10555 6.44734C3.98694 6.21012 3.96742 5.9355 4.05129 5.6839C4.13516 5.43229 4.31554 5.22431 4.55276 5.1057L5.45276 4.6557L5.45607 4.65405L5.45856 4.65282C5.95757 4.40734 6.51499 4.30539 7.06859 4.35837C7.62092 4.41122 8.14774 4.61622 8.59051 4.95052L12.6081 7.94869C12.6106 7.95056 12.613 7.95243 12.6155 7.95432C12.7638 8.06718 12.9407 8.13634 13.1263 8.15401C13.3118 8.17168 13.4986 8.13715 13.6655 8.05432L13.6688 8.05272L17.8547 5.99473C18.6112 5.61489 19.482 5.52998 20.2977 5.75662C20.3009 5.75752 20.3041 5.75843 20.3073 5.75935L21.2731 6.03813C21.6145 6.13383 21.9306 6.30402 22.1984 6.53648C22.4677 6.77019 22.6816 7.06098 22.8244 7.38769C22.9672 7.7144 23.0355 8.06884 23.0242 8.42523C23.0129 8.77934 22.9234 9.12653 22.7621 9.4419L22.3844 10.1973C22.0606 10.8449 21.5382 11.382 20.8748 11.7207C20.8713 11.7225 20.8679 11.7242 20.8644 11.7259L8.02383 18.0962C7.53116 18.3402 6.98241 18.4435 6.43771 18.3971Z" fill="black"/>
</svg>
