<svg width="24" height="24" viewBox="0 0 24 24" fill="none" xmlns="http://www.w3.org/2000/svg">
<path d="M15 14C15.5523 14 16 14.4477 16 15C16 15.5523 15.5523 16 15 16H14C13.4477 16 13 15.5523 13 15C13 14.4477 13.4477 14 14 14H15Z" fill="black"/>
<path d="M15 8C15.5523 8 16 8.44772 16 9C16 9.55228 15.5523 10 15 10H14C13.4477 10 13 9.55228 13 9C13 8.44772 13.4477 8 14 8H15Z" fill="black"/>
<path d="M21 14C21.5523 14 22 14.4477 22 15C22 15.5523 21.5523 16 21 16H19C18.4477 16 18 15.5523 18 15C18 14.4477 18.4477 14 19 14H21Z" fill="black"/>
<path d="M21 8C21.5523 8 22 8.44772 22 9C22 9.55228 21.5523 10 21 10H19C18.4477 10 18 9.55228 18 9C18 8.44772 18.4477 8 19 8H21Z" fill="black"/>
<path d="M5 14C5.55228 14 6 14.4477 6 15C6 15.5523 5.55228 16 5 16H3C2.44772 16 2 15.5523 2 15C2 14.4477 2.44772 14 3 14H5Z" fill="black"/>
<path d="M5 8C5.55228 8 6 8.44772 6 9C6 9.55228 5.55228 10 5 10H3C2.44772 10 2 9.55228 2 9C2 8.44772 2.44772 8 3 8H5Z" fill="black"/>
<path d="M10 14C10.5523 14 11 14.4477 11 15C11 15.5523 10.5523 16 10 16H9C8.44772 16 8 15.5523 8 15C8 14.4477 8.44772 14 9 14H10Z" fill="black"/>
<path d="M10 8C10.5523 8 11 8.44772 11 9C11 9.55228 10.5523 10 10 10H9C8.44772 10 8 9.55228 8 9C8 8.44772 8.44772 8 9 8H10Z" fill="black"/>
<path d="M20 5C20 4.44772 19.5523 4 19 4H5C4.44772 4 4 4.44772 4 5V19C4 19.5523 4.44772 20 5 20H19C19.5523 20 20 19.5523 20 19V5ZM22 19C22 20.6569 20.6569 22 19 22H5C3.34315 22 2 20.6569 2 19V5C2 3.34315 3.34315 2 5 2H19C20.6569 2 22 3.34315 22 5V19Z" fill="black"/>
</svg>
