<svg width="24" height="24" viewBox="0 0 24 24" fill="none" xmlns="http://www.w3.org/2000/svg">
<path d="M7 4C7 3.44772 7.44772 3 8 3C8.55228 3 9 3.44772 9 4V10C9 10.5523 8.55228 11 8 11H2C1.44772 11 1 10.5523 1 10C1 9.44772 1.44772 9 2 9H7V4Z" fill="black"/>
<path d="M1.29289 3.29289C1.68342 2.90237 2.31643 2.90237 2.70696 3.29289L8.70696 9.29289C9.09748 9.68342 9.09748 10.3164 8.70696 10.707C8.31643 11.0975 7.68342 11.0975 7.29289 10.707L1.29289 4.70696C0.902369 4.31643 0.902369 3.68342 1.29289 3.29289Z" fill="black"/>
<path d="M20 10V7C20 6.73478 19.8946 6.48051 19.707 6.29297C19.5195 6.10543 19.2652 6 19 6H12C11.4477 6 11 5.55228 11 5C11 4.44772 11.4477 4 12 4H19C19.7957 4 20.5585 4.3163 21.1211 4.87891C21.6837 5.44151 22 6.20435 22 7V10C22 10.5523 21.5523 11 21 11C20.4477 11 20 10.5523 20 10Z" fill="black"/>
<path d="M2 16V14C2 13.4477 2.44772 13 3 13C3.55228 13 4 13.4477 4 14V16C4 16.2652 4.10543 16.5195 4.29297 16.707C4.48051 16.8946 4.73478 17 5 17H8C8.55228 17 9 17.4477 9 18C9 18.5523 8.55228 19 8 19H5C4.20435 19 3.44151 18.6837 2.87891 18.1211C2.3163 17.5585 2 16.7956 2 16Z" fill="black"/>
<path d="M13 15V20H21V15H13ZM23 20C23 21.1046 22.1046 22 21 22H13C11.8954 22 11 21.1046 11 20V15C11 13.8954 11.8954 13 13 13H21C22.1046 13 23 13.8954 23 15V20Z" fill="black"/>
</svg>
