<svg width="24" height="24" viewBox="0 0 24 24" fill="none" xmlns="http://www.w3.org/2000/svg">
<g clip-path="url(#clip0_404_39376)">
<path fill-rule="evenodd" clip-rule="evenodd" d="M4.59465 1.99123C5.23367 1.3553 6.09852 0.998291 7.00005 0.998291C7.90158 0.998291 8.76642 1.3553 9.40544 1.99123L9.40715 1.99294L13.7072 6.29294C14.0977 6.68346 14.0977 7.31663 13.7072 7.70715C13.3166 8.09768 12.6835 8.09768 12.2929 7.70715L7.99465 3.40886C7.99443 3.40864 7.99488 3.40908 7.99465 3.40886C7.73049 3.14632 7.37251 2.99829 7.00005 2.99829C6.62763 2.99829 6.27036 3.14562 6.00621 3.4081C6.00595 3.40835 6.0057 3.40861 6.00544 3.40886L3.40886 6.00544C3.40861 6.0057 3.40835 6.00595 3.4081 6.00621C3.14562 6.27036 2.99829 6.62763 2.99829 7.00005C2.99829 7.37251 3.14566 7.72982 3.4082 7.99399C3.40798 7.99376 3.40842 7.99421 3.4082 7.99399L7.70715 12.2929C8.09768 12.6835 8.09768 13.3166 7.70715 13.7072C7.31663 14.0977 6.68346 14.0977 6.29294 13.7072L1.99294 9.40715L1.99123 9.40544C1.3553 8.76642 0.998291 7.90158 0.998291 7.00005C0.998291 6.09852 1.3553 5.23367 1.99123 4.59465L1.99294 4.59294L4.59294 1.99294L4.59465 1.99123Z" fill="black"/>
<path fill-rule="evenodd" clip-rule="evenodd" d="M10.7071 3.29294C11.0976 3.68347 11.0976 4.31663 10.7071 4.70716L8.70712 6.70716C8.31659 7.09768 7.68343 7.09768 7.2929 6.70716C6.90238 6.31663 6.90238 5.68347 7.2929 5.29294L9.2929 3.29294C9.68343 2.90242 10.3166 2.90242 10.7071 3.29294Z" fill="black"/>
<path fill-rule="evenodd" clip-rule="evenodd" d="M20.7071 13.2929C21.0976 13.6835 21.0976 14.3166 20.7071 14.7072L18.7071 16.7072C18.3166 17.0977 17.6834 17.0977 17.2929 16.7072C16.9024 16.3166 16.9024 15.6835 17.2929 15.2929L19.2929 13.2929C19.6834 12.9024 20.3166 12.9024 20.7071 13.2929Z" fill="black"/>
<path fill-rule="evenodd" clip-rule="evenodd" d="M16.2929 10.2929C16.6834 9.90242 17.3166 9.90242 17.7071 10.2929L22.0071 14.5929C23.3376 15.9235 23.3376 18.0766 22.0071 19.4072L19.4071 22.0072C18.0766 23.3377 15.9234 23.3377 14.5929 22.0072L10.2929 17.7072C9.90238 17.3166 9.90238 16.6835 10.2929 16.2929C10.6834 15.9024 11.3166 15.9024 11.7071 16.2929L16.0071 20.5929C16.5566 21.1424 17.4434 21.1424 17.9929 20.5929L20.5929 17.9929C21.1424 17.4435 21.1424 16.5566 20.5929 16.0072L16.2929 11.7072C15.9024 11.3166 15.9024 10.6835 16.2929 10.2929Z" fill="black"/>
<path fill-rule="evenodd" clip-rule="evenodd" d="M16.4811 2.11788C17.1974 1.40179 18.1687 0.99957 19.1816 0.999697C20.1944 0.999824 21.1657 1.40229 21.8818 2.11856C22.5979 2.83483 23.0001 3.80623 23 4.81906C22.9999 5.83182 22.5974 6.80306 21.8813 7.51913C21.8812 7.51918 21.8813 7.51908 21.8813 7.51913L8.53426 20.8681L8.53308 20.8693C8.18535 21.2159 7.75784 21.4719 7.28808 21.6148L2.93197 22.9357C2.67264 23.0137 2.39705 23.02 2.13444 22.954C1.87184 22.888 1.63199 22.7521 1.44036 22.5608C1.24873 22.3694 1.11247 22.1298 1.04602 21.8673C0.97958 21.6048 0.985435 21.3292 1.06297 21.0697C1.06338 21.0684 1.06379 21.067 1.06421 21.0656L2.38521 16.7136L2.38603 16.7109C2.53008 16.2411 2.78733 15.8139 3.13516 15.4668C3.13545 15.4665 3.13574 15.4662 3.13603 15.4659L16.4811 2.11788ZM17.8951 3.53227L4.54817 16.8822C4.43236 16.9977 4.34664 17.1398 4.29852 17.2961C4.2984 17.2965 4.29829 17.2968 4.29817 17.2972L3.25034 20.7493L6.70612 19.7014C6.8625 19.6538 7.00485 19.5686 7.12068 19.4533C7.12054 19.4534 7.12083 19.4531 7.12068 19.4533L20.4671 6.10488C20.8082 5.76382 20.9999 5.3012 21 4.81881C21 4.33641 20.8085 3.87375 20.4674 3.5326C20.1263 3.19145 19.6637 2.99976 19.1813 2.9997C18.6989 2.99964 18.2363 3.19121 17.8951 3.53227Z" fill="black"/>
<path fill-rule="evenodd" clip-rule="evenodd" d="M14.2929 4.29294C14.6834 3.90242 15.3166 3.90242 15.7071 4.29294L19.7071 8.29294C20.0976 8.68347 20.0976 9.31663 19.7071 9.70716C19.3166 10.0977 18.6834 10.0977 18.2929 9.70716L14.2929 5.70716C13.9024 5.31663 13.9024 4.68347 14.2929 4.29294Z" fill="black"/>
</g>
<defs>
<clipPath id="clip0_404_39376">
<rect width="24" height="24" fill="white"/>
</clipPath>
</defs>
</svg>
