<svg width="24" height="24" viewBox="0 0 24 24" fill="none" xmlns="http://www.w3.org/2000/svg">
<path fill-rule="evenodd" clip-rule="evenodd" d="M10.7068 9.29261C11.0975 9.68297 11.0978 10.3161 10.7074 10.7068L4.54974 16.8695C4.43353 16.9856 4.34771 17.1285 4.29985 17.2856C4.29981 17.2857 4.29989 17.2855 4.29985 17.2856L3.24946 20.7498L6.70786 19.6999C6.70823 19.6998 6.7086 19.6997 6.70896 19.6996C6.86526 19.6515 7.00738 19.5658 7.12286 19.4499L13.2926 13.2752C13.683 12.8845 14.3161 12.8842 14.7068 13.2746C15.0975 13.665 15.0978 14.2981 14.7074 14.6888L8.53915 20.8621C8.53905 20.8622 8.53926 20.862 8.53915 20.8621C8.19196 21.2102 7.76421 21.4679 7.29415 21.6121L2.9335 22.9359C2.93233 22.9362 2.93117 22.9366 2.93 22.9369C2.67024 23.0148 2.39424 23.0207 2.13137 22.9542C1.86851 22.8876 1.62859 22.751 1.43715 22.559C1.24571 22.3669 1.10992 22.1266 1.04421 21.8635C0.978507 21.6004 0.985346 21.3244 1.064 21.0649L2.38628 16.704C2.52974 16.2323 2.78723 15.8033 3.13597 15.4548C3.13587 15.4549 3.13607 15.4547 3.13597 15.4548L9.29261 9.29318C9.68298 8.9025 10.3161 8.90224 10.7068 9.29261Z" fill="black"/>
<path fill-rule="evenodd" clip-rule="evenodd" d="M19.181 3.00047C18.9422 3.00047 18.7057 3.04751 18.485 3.1389C18.2644 3.23029 18.0639 3.36424 17.8951 3.5331L13.535 7.88016C13.1439 8.2701 12.5107 8.26915 12.1208 7.87805C11.7309 7.48694 11.7318 6.85378 12.1229 6.46383L16.4809 2.11889C16.4807 2.11906 16.481 2.11872 16.4809 2.11889C16.8353 1.76455 17.2566 1.48294 17.7197 1.29114C18.183 1.09924 18.6795 1.00047 19.181 1.00047C19.6824 1.00047 20.179 1.09924 20.6423 1.29114C21.1055 1.48304 21.5265 1.76431 21.8811 2.11889C22.2357 2.47347 22.5169 2.89442 22.7088 3.35771C22.9007 3.821 22.9995 4.31754 22.9995 4.819C22.9995 5.32045 22.9007 5.817 22.7088 6.28028C22.5169 6.74357 22.2357 7.16452 21.8811 7.5191L17.5281 11.8721C17.1375 12.2626 16.5044 12.2626 16.1139 11.8721C15.7233 11.4816 15.7233 10.8484 16.1139 10.4579L20.4669 6.10489C20.6357 5.93602 20.7697 5.73555 20.8611 5.51492C20.9525 5.29429 20.9995 5.05781 20.9995 4.819C20.9995 4.58018 20.9525 4.34371 20.8611 4.12308C20.7697 3.90244 20.6357 3.70197 20.4669 3.5331C20.298 3.36424 20.0975 3.23029 19.8769 3.1389C19.6562 3.04751 19.4198 3.00047 19.181 3.00047Z" fill="black"/>
<path fill-rule="evenodd" clip-rule="evenodd" d="M1.29287 1.29289C1.6834 0.902369 2.31656 0.902369 2.70709 1.29289L22.7071 21.2929C23.0976 21.6834 23.0976 22.3166 22.7071 22.7071C22.3166 23.0976 21.6834 23.0976 21.2929 22.7071L1.29287 2.70711C0.902349 2.31658 0.902349 1.68342 1.29287 1.29289Z" fill="black"/>
</svg>
