<svg width="24" height="24" viewBox="0 0 24 24" fill="none" xmlns="http://www.w3.org/2000/svg">
<path fill-rule="evenodd" clip-rule="evenodd" d="M5 4C4.44772 4 4 4.44772 4 5V19C4 19.5523 4.44772 20 5 20H19C19.5523 20 20 19.5523 20 19V5C20 4.44772 19.5523 4 19 4H5ZM2 5C2 3.34315 3.34315 2 5 2H19C20.6569 2 22 3.34315 22 5V19C22 20.6569 20.6569 22 19 22H5C3.34315 22 2 20.6569 2 19V5Z" fill="black"/>
<path fill-rule="evenodd" clip-rule="evenodd" d="M9 2C9.55228 2 10 2.44772 10 3V21C10 21.5523 9.55228 22 9 22C8.44772 22 8 21.5523 8 21V3C8 2.44772 8.44772 2 9 2Z" fill="black"/>
<path fill-rule="evenodd" clip-rule="evenodd" d="M16.7071 8.29289C17.0976 8.68342 17.0976 9.31658 16.7071 9.70711L14.4142 12L16.7071 14.2929C17.0976 14.6834 17.0976 15.3166 16.7071 15.7071C16.3166 16.0976 15.6834 16.0976 15.2929 15.7071L12.2929 12.7071C11.9024 12.3166 11.9024 11.6834 12.2929 11.2929L15.2929 8.29289C15.6834 7.90237 16.3166 7.90237 16.7071 8.29289Z" fill="black"/>
</svg>
