<svg width="24" height="24" viewBox="0 0 24 24" fill="none" xmlns="http://www.w3.org/2000/svg">
<path fill-rule="evenodd" clip-rule="evenodd" d="M10 2C10.5523 2 11 2.44772 11 3V14C11 14.5523 10.5523 15 10 15C9.44772 15 9 14.5523 9 14V3C9 2.44772 9.44772 2 10 2Z" fill="black"/>
<path fill-rule="evenodd" clip-rule="evenodd" d="M7 4C6.46957 4 5.96086 4.21071 5.58579 4.58579C5.21071 4.96086 5 5.46957 5 6C5 6.53043 5.21071 7.03914 5.58579 7.41421C5.96086 7.78929 6.46957 8 7 8H10C10.5523 8 11 8.44772 11 9C11 9.55228 10.5523 10 10 10H7C5.93913 10 4.92172 9.57857 4.17157 8.82843C3.42143 8.07828 3 7.06087 3 6C3 4.93913 3.42143 3.92172 4.17157 3.17157C4.92172 2.42143 5.93913 2 7 2H15C15.5523 2 16 2.44772 16 3C16 3.55228 15.5523 4 15 4H7Z" fill="black"/>
<path fill-rule="evenodd" clip-rule="evenodd" d="M14 2C14.5523 2 15 2.44772 15 3V14C15 14.5523 14.5523 15 14 15C13.4477 15 13 14.5523 13 14V3C13 2.44772 13.4477 2 14 2Z" fill="black"/>
<path fill-rule="evenodd" clip-rule="evenodd" d="M17.2929 13.2929C17.6834 12.9024 18.3166 12.9024 18.7071 13.2929L22.7071 17.2929C22.9931 17.5789 23.0787 18.009 22.9239 18.3827C22.7691 18.7564 22.4045 19 22 19H2C1.44772 19 1 18.5523 1 18C1 17.4477 1.44772 17 2 17H19.5858L17.2929 14.7071C16.9024 14.3166 16.9024 13.6834 17.2929 13.2929Z" fill="black"/>
<path fill-rule="evenodd" clip-rule="evenodd" d="M22.7071 17.2929C23.0976 17.6834 23.0976 18.3166 22.7071 18.7071L18.7071 22.7071C18.3166 23.0976 17.6834 23.0976 17.2929 22.7071C16.9024 22.3166 16.9024 21.6834 17.2929 21.2929L21.2929 17.2929C21.6834 16.9024 22.3166 16.9024 22.7071 17.2929Z" fill="black"/>
</svg>
