<svg width="24" height="24" viewBox="0 0 24 24" fill="none" xmlns="http://www.w3.org/2000/svg">
<path d="M21 5C21 4.73478 20.8946 4.48051 20.707 4.29297C20.5195 4.10543 20.2652 4 20 4H4C3.73478 4 3.4805 4.10543 3.29297 4.29297C3.10543 4.4805 3 4.73478 3 5V11C3 13.3869 3.94791 15.6764 5.63574 17.3643C7.32357 19.0521 9.61305 20 12 20C14.3869 20 16.6764 19.0521 18.3643 17.3643C20.0521 15.6764 21 13.3869 21 11V5ZM23 11C23 13.9174 21.8412 16.7154 19.7783 18.7783C17.7154 20.8412 14.9174 22 12 22C9.08262 22 6.28458 20.8412 4.22168 18.7783C2.15878 16.7154 1 13.9174 1 11V5C1 4.20435 1.3163 3.44152 1.87891 2.87891C2.44152 2.3163 3.20435 2 4 2H20C20.7957 2 21.5585 2.3163 22.1211 2.87891C22.6837 3.44152 23 4.20435 23 5V11Z" fill="black"/>
<path d="M15.2929 9.29289C15.6834 8.90237 16.3164 8.90237 16.707 9.29289C17.0975 9.68342 17.0975 10.3164 16.707 10.707L12.707 14.707C12.3164 15.0975 11.6834 15.0975 11.2929 14.707L7.29289 10.707C6.90237 10.3164 6.90237 9.68342 7.29289 9.29289C7.68342 8.90237 8.31643 8.90237 8.70696 9.29289L11.9999 12.5859L15.2929 9.29289Z" fill="black"/>
</svg>
