<svg width="24" height="24" viewBox="0 0 24 24" fill="none" xmlns="http://www.w3.org/2000/svg">
<path fill-rule="evenodd" clip-rule="evenodd" d="M7.38496 1.06422C7.82158 0.972774 8.27309 0.979846 8.70662 1.08492C9.14015 1.19 9.5448 1.39043 9.89109 1.67163C10.2374 1.95283 10.5166 2.30772 10.7084 2.71046C10.9003 3.11319 10.9998 3.55364 11 3.99972V4.49998C11 5.05227 10.5522 5.49998 9.99996 5.49998C9.44768 5.49998 8.99996 5.05227 8.99996 4.49998V4.00025C8.99996 4.00016 8.99996 4.00033 8.99996 4.00025C8.99989 3.85164 8.96669 3.70466 8.90279 3.57049C8.83884 3.43625 8.74577 3.31795 8.63034 3.22422C8.51491 3.13048 8.38003 3.06367 8.23552 3.02865C8.091 2.99362 7.9405 2.99126 7.79496 3.02175C7.25441 3.13496 6.72442 2.78854 6.6112 2.24798C6.49798 1.70743 6.84441 1.17744 7.38496 1.06422Z" fill="black"/>
<path fill-rule="evenodd" clip-rule="evenodd" d="M11.6941 6.78056C11.8733 6.25815 12.4421 5.97991 12.9645 6.15909C13.4098 6.31185 13.813 6.56729 14.1413 6.90475C14.4697 7.24221 14.714 7.65221 14.8545 8.10159C15.0193 8.62871 14.7256 9.18963 14.1984 9.35444C13.6713 9.51924 13.1104 9.22553 12.9456 8.69841C12.8988 8.54861 12.8173 8.41194 12.7079 8.29946C12.5984 8.18697 12.4641 8.10182 12.3156 8.05091C11.7932 7.87172 11.5149 7.30297 11.6941 6.78056Z" fill="black"/>
<path fill-rule="evenodd" clip-rule="evenodd" d="M15.0507 7.15505C15.6541 6.95379 16.3058 6.9495 16.9118 7.1428C17.5177 7.33611 18.0466 7.71701 18.4219 8.23049C18.459 8.28127 18.4945 8.33308 18.5282 8.38584C18.9736 8.13507 19.4798 7.99998 20 7.99998C20.7956 7.99998 21.5587 8.31605 22.1213 8.87866C22.6839 9.44127 23 10.2043 23 11V13.9982C23.0029 14.8342 22.8893 15.6666 22.6625 16.4713C22.5127 17.0029 21.9603 17.3123 21.4287 17.1625C20.8971 17.0126 20.5877 16.4602 20.7375 15.9287C20.9141 15.3023 21.0024 14.6544 21 14.0037C21 14.0024 21 14.0012 21 14V11C21 10.7348 20.8946 10.4804 20.7071 10.2929C20.5196 10.1053 20.2652 9.99998 20 9.99998C19.7348 9.99998 19.4804 10.1053 19.2929 10.2929C19.1054 10.4804 19 10.7348 19 11C19 11.5523 18.5523 12 18 12C17.4477 12 17 11.5523 17 11V10.0004C16.9998 9.78858 16.9323 9.5818 16.8073 9.41076C16.6822 9.2396 16.5059 9.11264 16.3039 9.0482C16.1019 8.98376 15.8847 8.98519 15.6836 9.05228C15.4824 9.11937 15.3079 9.24864 15.185 9.42144C14.865 9.87155 14.2406 9.977 13.7905 9.65698C13.3404 9.33695 13.235 8.71263 13.555 8.26252C13.9236 7.74414 14.4473 7.35631 15.0507 7.15505Z" fill="black"/>
<path fill-rule="evenodd" clip-rule="evenodd" d="M3.76458 11.6985C4.53499 11.6706 5.28657 11.9403 5.86341 12.4517C5.87839 12.465 5.89296 12.4787 5.90712 12.4929L7.70712 14.2929C8.09764 14.6834 8.09764 15.3166 7.70712 15.7071C7.31659 16.0976 6.68343 16.0976 6.2929 15.7071L4.51778 13.932C4.32812 13.7721 4.0855 13.6882 3.83699 13.6972C3.58019 13.7065 3.33683 13.8143 3.15739 13.9982C2.97795 14.1822 2.8762 14.4281 2.87327 14.6851C2.87037 14.9381 2.96351 15.1827 3.13365 15.3696L6.71325 18.9991C7.3899 19.6876 8.20657 20.2228 9.10799 20.5683C10.0094 20.9139 10.9745 21.0617 11.9381 21.0019C11.9587 21.0006 11.9793 21 12 21H14C14.9193 21 15.8296 20.819 16.6789 20.4672C17.5282 20.1155 18.2999 19.5999 18.9499 18.9499C19.3405 18.5594 19.9736 18.5594 20.3641 18.9499C20.7546 19.3405 20.7546 19.9736 20.3641 20.3641C19.5283 21.1998 18.5362 21.8628 17.4442 22.315C16.3522 22.7673 15.1819 23 14 23C14 23 14 23 14 23H12.0301C10.7912 23.0724 9.55107 22.8801 8.39212 22.4358C7.22355 21.9879 6.16481 21.2942 5.28751 20.4017C5.28727 20.4014 5.28702 20.4012 5.28677 20.4009L1.69803 16.7622C1.69139 16.7555 1.68486 16.7487 1.67841 16.7417C1.15285 16.1777 0.86458 15.4331 0.873396 14.6622C0.882212 13.8914 1.18744 13.1535 1.72576 12.6016C2.26408 12.0498 2.99418 11.7264 3.76458 11.6985Z" fill="black"/>
<path fill-rule="evenodd" clip-rule="evenodd" d="M6 5C6.55228 5 7 5.44772 7 6V14C7 14.5523 6.55228 15 6 15C5.44771 15 5 14.5523 5 14V6C5 5.44772 5.44771 5 6 5Z" fill="black"/>
<path fill-rule="evenodd" clip-rule="evenodd" d="M1.29289 1.29289C1.68341 0.902369 2.31658 0.902369 2.7071 1.29289L22.7071 21.2929C23.0976 21.6834 23.0976 22.3166 22.7071 22.7071C22.3166 23.0976 21.6834 23.0976 21.2929 22.7071L1.29289 2.70711C0.902365 2.31658 0.902365 1.68342 1.29289 1.29289Z" fill="black"/>
</svg>
