<svg width="24" height="24" viewBox="0 0 24 24" fill="none" xmlns="http://www.w3.org/2000/svg">
<path d="M13 17C13 16.7348 12.8946 16.4804 12.7071 16.2929C12.5196 16.1054 12.2652 16 12 16C11.7348 16 11.4804 16.1054 11.2929 16.2929C11.1054 16.4804 11 16.7348 11 17L11.5 21.5C11.5 21.6326 11.5527 21.7598 11.6464 21.8536C11.7402 21.9473 11.8674 22 12 22C12.1326 22 12.2598 21.9473 12.3536 21.8536C12.4473 21.7598 12.5 21.6326 12.5 21.5L13 17Z" fill="black"/>
<path d="M12 15C12.5304 15 13.039 15.2109 13.4141 15.5859C13.7891 15.961 14 16.4696 14 17C14 17.0369 13.9982 17.0737 13.9941 17.1104L13.4941 21.6104C13.4678 21.9678 13.3157 22.3054 13.0605 22.5605C12.7792 22.8419 12.3978 23 12 23C11.6022 23 11.2208 22.8419 10.9395 22.5605C10.6843 22.3054 10.5322 21.9678 10.5059 21.6104L10.0059 17.1104C10.0018 17.0737 10 17.0369 10 17C10 16.4696 10.2109 15.961 10.5859 15.5859C10.961 15.2109 11.4696 15 12 15Z" fill="black"/>
<path d="M11.9999 0.998535C14.1623 0.998535 16.2666 1.69981 17.997 2.99658C19.7272 4.29328 20.9905 6.11571 21.5976 8.19092C22.2046 10.2662 22.1228 12.4826 21.3642 14.5073C20.6053 16.5322 19.2101 18.2571 17.3886 19.4224C16.9234 19.7198 16.3053 19.5838 16.0077 19.1187C15.7101 18.6534 15.8462 18.0354 16.3114 17.7378C17.7685 16.8056 18.8841 15.4259 19.4911 13.8062C20.0982 12.1863 20.1643 10.4128 19.6786 8.75244C19.193 7.0923 18.1818 5.63455 16.7978 4.59717C15.4134 3.55975 13.7298 2.99854 11.9999 2.99854C10.27 2.99854 8.58638 3.55975 7.20205 4.59717C5.81796 5.63455 4.8068 7.0923 4.32119 8.75244C3.83554 10.4128 3.90162 12.1863 4.50869 13.8062C5.11575 15.4259 6.23128 16.8056 7.68838 17.7378C8.1536 18.0354 8.28968 18.6534 7.99209 19.1187C7.69451 19.5838 7.07644 19.7198 6.61123 19.4224C4.78968 18.2571 3.39448 16.5322 2.63564 14.5073C1.87697 12.4826 1.79524 10.2662 2.40225 8.19092C3.00931 6.11571 4.27263 4.29328 6.00283 2.99658C7.73324 1.69981 9.83751 0.998535 11.9999 0.998535Z" fill="black"/>
<path d="M12.0001 5C13.1143 5 14.2065 5.31068 15.1544 5.89648C16.102 6.48221 16.868 7.31998 17.3663 8.31641C17.8646 9.31304 18.0757 10.4293 17.9756 11.5391C17.8756 12.6487 17.4683 13.7083 16.7999 14.5996C16.4685 15.0414 15.8423 15.131 15.4005 14.7998C14.9587 14.4685 14.869 13.8422 15.2003 13.4004C15.6459 12.8062 15.9167 12.0992 15.9835 11.3594C16.0502 10.6195 15.9104 9.87536 15.5782 9.21094C15.246 8.54651 14.7345 7.98819 14.1026 7.59766C13.4707 7.20718 12.7428 7 12.0001 7C11.2573 7 10.5294 7.20718 9.89753 7.59766C9.26562 7.98819 8.75415 8.54651 8.42194 9.21094C8.08973 9.87536 7.94995 10.6195 8.01667 11.3594C8.08341 12.0992 8.3542 12.8062 8.79987 13.4004C9.1311 13.8422 9.04145 14.4685 8.59967 14.7998C8.15785 15.131 7.53159 15.0414 7.20026 14.5996C6.53182 13.7083 6.12458 12.6487 6.02448 11.5391C5.92441 10.4293 6.13554 9.31304 6.63385 8.31641C7.13216 7.31998 7.89809 6.48221 8.84577 5.89648C9.79362 5.31068 10.8858 5 12.0001 5Z" fill="black"/>
<path d="M12 12C12.5523 12 13 11.5523 13 11C13 10.4477 12.5523 10 12 10C11.4477 10 11 10.4477 11 11C11 11.5523 11.4477 12 12 12Z" fill="black"/>
<path d="M10 11C10 9.89543 10.8954 9 12 9C13.1046 9 14 9.89543 14 11C14 12.1046 13.1046 13 12 13C10.8954 13 10 12.1046 10 11Z" fill="black"/>
</svg>
