<svg width="24" height="24" viewBox="0 0 24 24" fill="none" xmlns="http://www.w3.org/2000/svg">
<path fill-rule="evenodd" clip-rule="evenodd" d="M4 5C3.44772 5 3 5.44772 3 6V18C3 18.5523 3.44772 19 4 19H20C20.5523 19 21 18.5523 21 18V6C21 5.44772 20.5523 5 20 5H4ZM1 6C1 4.34315 2.34315 3 4 3H20C21.6569 3 23 4.34315 23 6V18C23 19.6569 21.6569 21 20 21H4C2.34315 21 1 19.6569 1 18V6Z" fill="black"/>
<path fill-rule="evenodd" clip-rule="evenodd" d="M12 8C12.5523 8 13 8.44772 13 9V20C13 20.5523 12.5523 21 12 21C11.4477 21 11 20.5523 11 20V9C11 8.44772 11.4477 8 12 8Z" fill="black"/>
<path fill-rule="evenodd" clip-rule="evenodd" d="M1 9C1 8.44772 1.44772 8 2 8H15C15.7957 8 16.5587 8.31607 17.1213 8.87868C17.6839 9.44129 18 10.2043 18 11V20C18 20.5523 17.5523 21 17 21C16.4477 21 16 20.5523 16 20V11C16 10.7348 15.8946 10.4804 15.7071 10.2929C15.5196 10.1054 15.2652 10 15 10H2C1.44772 10 1 9.55228 1 9Z" fill="black"/>
</svg>
