<svg width="24" height="24" viewBox="0 0 24 24" fill="none" xmlns="http://www.w3.org/2000/svg">
<path fill-rule="evenodd" clip-rule="evenodd" d="M13.8787 2.87868C14.4413 2.31607 15.2044 2 16 2H19C19.7956 2 20.5587 2.31607 21.1213 2.87868C21.6839 3.44129 22 4.20435 22 5V15C22 16.8565 21.2625 18.637 19.9497 19.9497C18.637 21.2625 16.8565 22 15 22C14.4696 22 13.9609 21.7893 13.5858 21.4142C13.2107 21.0391 13 20.5304 13 20V18C13 17.4696 13.2107 16.9609 13.5858 16.5858C13.9609 16.2107 14.4696 16 15 16C15.2652 16 15.5196 15.8946 15.7071 15.7071C15.8946 15.5196 16 15.2652 16 15V14C15.2043 14 14.4413 13.6839 13.8787 13.1213C13.3161 12.5587 13 11.7956 13 11V5C13 4.20435 13.3161 3.44129 13.8787 2.87868ZM16 4C15.7348 4 15.4804 4.10536 15.2929 4.29289C15.1054 4.48043 15 4.73478 15 5V11C15 11.2652 15.1054 11.5196 15.2929 11.7071C15.4804 11.8946 15.7348 12 16 12C16.5304 12 17.0391 12.2107 17.4142 12.5858C17.7893 12.9609 18 13.4696 18 14V15C18 15.7957 17.6839 16.5587 17.1213 17.1213C16.5587 17.6839 15.7957 18 15 18V20C16.3261 20 17.5979 19.4732 18.5355 18.5355C19.4732 17.5979 20 16.3261 20 15V5C20 4.73478 19.8946 4.48043 19.7071 4.29289C19.5196 4.10536 19.2652 4 19 4H16Z" fill="black"/>
<path fill-rule="evenodd" clip-rule="evenodd" d="M2.87868 2.87868C3.44129 2.31607 4.20435 2 5 2H8C8.79565 2 9.55871 2.31607 10.1213 2.87868C10.6839 3.44129 11 4.20435 11 5V15C11 16.8565 10.2625 18.637 8.94975 19.9497C7.63699 21.2625 5.85652 22 4 22C3.46957 22 2.96086 21.7893 2.58579 21.4142C2.21071 21.0391 2 20.5304 2 20V18C2 17.4696 2.21071 16.9609 2.58579 16.5858C2.96086 16.2107 3.46957 16 4 16C4.26522 16 4.51957 15.8946 4.70711 15.7071C4.89464 15.5196 5 15.2652 5 15V14C4.20435 14 3.44129 13.6839 2.87868 13.1213C2.31607 12.5587 2 11.7956 2 11V5C2 4.20435 2.31607 3.44129 2.87868 2.87868ZM5 4C4.73478 4 4.48043 4.10536 4.29289 4.29289C4.10536 4.48043 4 4.73478 4 5V11C4 11.2652 4.10536 11.5196 4.29289 11.7071C4.48043 11.8946 4.73478 12 5 12C5.53043 12 6.03914 12.2107 6.41421 12.5858C6.78929 12.9609 7 13.4696 7 14V15C7 15.7956 6.68393 16.5587 6.12132 17.1213C5.55871 17.6839 4.79565 18 4 18V20C5.32608 20 6.59785 19.4732 7.53553 18.5355C8.47322 17.5979 9 16.3261 9 15V5C9 4.73478 8.89464 4.48043 8.70711 4.29289C8.51957 4.10536 8.26522 4 8 4H5Z" fill="black"/>
</svg>
