<svg width="24" height="24" viewBox="0 0 24 24" fill="none" xmlns="http://www.w3.org/2000/svg">
<path d="M1 20C1 19.2043 1.3163 18.4415 1.87891 17.8789C2.44151 17.3163 3.20435 17 4 17H16C16.5523 17 17 17.4477 17 18C17 18.5523 16.5523 19 16 19H4C3.73478 19 3.48051 19.1054 3.29297 19.293C3.10543 19.4805 3 19.7348 3 20C3 20.2652 3.10543 20.5195 3.29297 20.707C3.48051 20.8946 3.73478 21 4 21H13C13.5523 21 14 21.4477 14 22C14 22.5523 13.5523 23 13 23H4C3.20435 23 2.44151 22.6837 1.87891 22.1211C1.3163 21.5585 1 20.7957 1 20Z" fill="black"/>
<path d="M11.0477 12.0001C11.8158 12.0093 12.5651 12.2396 13.2059 12.6632C13.8466 13.0867 14.3516 13.6858 14.661 14.3887C14.9703 15.0918 15.0706 15.8694 14.95 16.628C14.8294 17.3865 14.4934 18.0946 13.9813 18.6671C13.613 19.0786 12.9807 19.1134 12.5692 18.7452C12.1577 18.3769 12.1228 17.7447 12.491 17.3331C12.7469 17.0469 12.9151 16.6927 12.9754 16.3135C13.0356 15.9344 12.9855 15.5458 12.8309 15.1944C12.6762 14.8429 12.4237 14.5429 12.1033 14.3311C11.783 14.1194 11.4082 14.0047 11.0242 14.0001C10.4721 13.9935 10.0295 13.5405 10.036 12.9884C10.0426 12.4362 10.4955 11.9936 11.0477 12.0001Z" fill="black"/>
<path d="M16.0098 8C16.562 8 17.0098 8.44772 17.0098 9C17.0098 9.55228 16.562 10 16.0098 10H16C15.4477 10 15 9.55228 15 9C15 8.44772 15.4477 8 16 8H16.0098Z" fill="black"/>
<path d="M17.5749 2.26276C18.1371 2.04828 18.7409 1.96361 19.3405 2.01471C19.9401 2.06583 20.5208 2.2511 21.0387 2.55768C21.5566 2.86426 21.9984 3.28408 22.3317 3.78522C22.6649 4.28632 22.8811 4.85611 22.9635 5.45221C23.0459 6.04836 22.9921 6.65583 22.8073 7.22858C22.6225 7.80121 22.3114 8.32531 21.8961 8.7608C21.7721 8.8909 21.6383 9.01043 21.4987 9.12213L22.6901 10.8204C22.7277 10.8739 22.7603 10.9314 22.7868 10.9913C22.9619 11.3883 23.0303 11.8242 22.986 12.2559C22.9416 12.6875 22.786 13.1001 22.5338 13.4532C22.2816 13.8063 21.9415 14.0876 21.5475 14.2696C21.1535 14.4515 20.7191 14.5282 20.2868 14.4913C20.2632 14.4893 20.2398 14.4862 20.2165 14.4825L17.3444 14.0294L17.3336 14.0284C17.0447 13.9795 16.7479 13.9941 16.4655 14.0723C16.1829 14.1507 15.9205 14.2907 15.6979 14.4815C15.4753 14.6723 15.2971 14.9096 15.1764 15.1768C15.0558 15.4441 14.9955 15.7352 14.9997 16.0284C15.0072 16.5803 14.5662 17.0341 14.0143 17.0421C13.4621 17.0498 13.0074 16.608 12.9997 16.0557C12.9915 15.4694 13.1129 14.888 13.3541 14.3536C13.5954 13.8193 13.9511 13.3445 14.3961 12.963C14.8413 12.5814 15.3653 12.3023 15.9303 12.1456C16.4916 11.9899 17.0804 11.9584 17.6549 12.0538L20.4801 12.4991C20.5589 12.5022 20.6378 12.4873 20.7096 12.4542C20.7882 12.4178 20.8565 12.3616 20.9069 12.2911C20.9572 12.2206 20.9878 12.138 20.9967 12.0518C21.0032 11.989 20.9971 11.9257 20.9801 11.8653L19.2379 9.3819C19.0606 9.12887 19.01 8.80797 19.1012 8.51276C19.1925 8.21742 19.4154 7.981 19.7047 7.87213C19.9863 7.76621 20.2403 7.59769 20.4479 7.37994C20.6555 7.16221 20.8115 6.90062 20.904 6.61432C20.9963 6.32808 21.0232 6.02457 20.9821 5.72662C20.9409 5.42862 20.8332 5.14316 20.6666 4.89264C20.5 4.64207 20.2781 4.43265 20.0192 4.27936C19.7603 4.12614 19.4703 4.03245 19.1706 4.0069C18.8708 3.98137 18.5688 4.0237 18.2877 4.13092C18.0066 4.23817 17.7531 4.40828 17.5465 4.62701C17.1673 5.02811 16.5348 5.04605 16.1334 4.66705C15.732 4.28781 15.7142 3.65448 16.0934 3.25299C16.5065 2.81576 17.0128 2.47719 17.5749 2.26276Z" fill="black"/>
<path d="M12.5323 1.27971C13.1374 1.04096 13.7919 0.953553 14.4385 1.02483C15.0852 1.09614 15.7046 1.32403 16.2432 1.68889C16.7819 2.05383 17.2242 2.54437 17.5303 3.11858C17.8364 3.69275 17.9973 4.33315 18 4.98381C18.0023 5.53609 17.5562 5.98543 17.0039 5.98772C16.4519 5.98986 16.0026 5.54458 16 4.9926C15.9987 4.66732 15.9177 4.34703 15.7647 4.05998C15.6116 3.77289 15.3915 3.52663 15.1221 3.34416C14.8527 3.16169 14.5422 3.04777 14.2188 3.01213C13.8955 2.97658 13.5682 3.02069 13.2657 3.14006C12.9632 3.25948 12.6943 3.4509 12.4825 3.69768C12.2706 3.94456 12.122 4.2398 12.0498 4.55705C11.9778 4.87411 11.9842 5.20392 12.0684 5.51799C12.1526 5.83212 12.3122 6.12124 12.5332 6.35979C12.8177 6.66658 12.8813 7.11838 12.6924 7.49162C12.5033 7.86492 12.1013 8.08144 11.6856 8.03361C10.8439 7.93681 9.99113 8.01933 9.18363 8.2758C8.37618 8.53228 7.63256 8.95718 7.00101 9.5219C6.36951 10.0866 5.86436 10.7783 5.51957 11.5522C5.17488 12.3259 4.99763 13.1641 5.00004 14.0112C5.00301 14.8049 5.32056 15.5652 5.88285 16.1254C6.44512 16.6855 7.2064 17.0004 8.00004 17.0004C8.55232 17.0004 9.00003 17.4481 9.00004 18.0004C8.99981 18.5525 8.55218 19.0004 8.00004 19.0004C6.67721 19.0004 5.40787 18.476 4.47074 17.5424C3.5337 16.6088 3.00505 15.3417 3.00004 14.019C2.99667 12.8892 3.2327 11.7706 3.69242 10.7387C4.15212 9.70679 4.82497 8.78372 5.66703 8.03068C6.50912 7.27766 7.50149 6.71155 8.57816 6.36955C9.08708 6.20791 9.6098 6.09965 10.1377 6.0424C10.1372 6.0405 10.1373 6.03845 10.1368 6.03654C9.96825 5.40804 9.9553 4.74721 10.0996 4.11272C10.244 3.47836 10.5411 2.88861 10.9649 2.39494C11.3887 1.90125 11.927 1.51854 12.5323 1.27971Z" fill="black"/>
</svg>
