<svg width="24" height="24" viewBox="0 0 24 24" fill="none" xmlns="http://www.w3.org/2000/svg">
<path fill-rule="evenodd" clip-rule="evenodd" d="M4 15.0001C3.44772 15.0001 3 15.4478 3 16.0001V20.0001C3 20.5524 3.44772 21.0001 4 21.0001H20C20.5523 21.0001 21 20.5524 21 20.0001V16.0001C21 15.4478 20.5523 15.0001 20 15.0001H4ZM1 16.0001C1 14.3432 2.34315 13.0001 4 13.0001H20C21.6569 13.0001 23 14.3432 23 16.0001V20.0001C23 21.6569 21.6569 23.0001 20 23.0001H4C2.34315 23.0001 1 21.6569 1 20.0001V16.0001Z" fill="black"/>
<path fill-rule="evenodd" clip-rule="evenodd" d="M5 18.0001C5 17.4478 5.44772 17.0001 6 17.0001H6.01C6.56228 17.0001 7.01 17.4478 7.01 18.0001C7.01 18.5524 6.56228 19.0001 6.01 19.0001H6C5.44772 19.0001 5 18.5524 5 18.0001Z" fill="black"/>
<path fill-rule="evenodd" clip-rule="evenodd" d="M9 18.0001C9 17.4478 9.44772 17.0001 10 17.0001H10.01C10.5623 17.0001 11.01 17.4478 11.01 18.0001C11.01 18.5524 10.5623 19.0001 10.01 19.0001H10C9.44772 19.0001 9 18.5524 9 18.0001Z" fill="black"/>
<path fill-rule="evenodd" clip-rule="evenodd" d="M15 9.00007C15.5523 9.00007 16 9.44778 16 10.0001V14.0001C16 14.5524 15.5523 15.0001 15 15.0001C14.4477 15.0001 14 14.5524 14 14.0001V10.0001C14 9.44778 14.4477 9.00007 15 9.00007Z" fill="black"/>
<path fill-rule="evenodd" clip-rule="evenodd" d="M13.0953 5.37804C13.7023 5.12642 14.3529 4.9969 15.01 4.9969C15.6671 4.9969 16.3177 5.12642 16.9247 5.37804C17.5317 5.62966 18.0831 5.99846 18.5475 6.46334C18.9378 6.85408 18.9375 7.48724 18.5467 7.87755C18.156 8.26786 17.5228 8.26751 17.1325 7.87676C16.8539 7.59784 16.523 7.37656 16.1588 7.22558C15.7946 7.07461 15.4042 6.9969 15.01 6.9969C14.6158 6.9969 14.2254 7.07461 13.8612 7.22558C13.497 7.37656 13.1661 7.59783 12.8875 7.87676C12.4972 8.26751 11.864 8.26786 11.4733 7.87755C11.0825 7.48724 11.0822 6.85408 11.4725 6.46334C11.9369 5.99846 12.4883 5.62966 13.0953 5.37804Z" fill="black"/>
<path fill-rule="evenodd" clip-rule="evenodd" d="M8.64313 3.63273C10.3308 1.94618 12.6191 0.998779 15.005 0.998779C17.3909 0.998779 19.6792 1.94618 21.3669 3.63273C21.7575 4.02313 21.7577 4.65629 21.3673 5.04695C20.9769 5.4376 20.3438 5.43781 19.9531 5.04741C18.6405 3.73565 16.8607 2.99878 15.005 2.99878C13.1493 2.99878 11.3695 3.73565 10.0569 5.04741C9.66622 5.43781 9.03306 5.4376 8.64266 5.04695C8.25227 4.65629 8.25247 4.02313 8.64313 3.63273Z" fill="black"/>
</svg>
