<svg width="24" height="24" viewBox="0 0 24 24" fill="none" xmlns="http://www.w3.org/2000/svg">
<path d="M11.0005 6.00043C11.0004 5.8027 10.9414 5.60917 10.8315 5.44477C10.7217 5.28036 10.565 5.15228 10.3823 5.07661C10.1997 5.00105 9.99899 4.98144 9.80518 5.01997C9.61127 5.05852 9.43329 5.15365 9.29346 5.2934L3.29346 11.2934C3.10605 11.4809 3.00049 11.7353 3.00049 12.0004C3.0006 12.2651 3.10552 12.5191 3.29248 12.7065L9.29346 18.7065C9.4333 18.8463 9.61124 18.9414 9.80518 18.9799C9.99902 19.0185 10.1997 18.9989 10.3823 18.9233C10.565 18.8476 10.7217 18.7195 10.8315 18.5551C10.9413 18.3909 11.0003 18.1979 11.0005 18.0004V6.00043ZM13.0005 18.0004C13.0003 18.5935 12.8241 19.1733 12.4946 19.6665C12.165 20.1597 11.696 20.5439 11.1479 20.7709C10.5998 20.998 9.99641 21.0575 9.41455 20.9418C8.833 20.8261 8.2988 20.5407 7.87939 20.1215L1.87842 14.1206C1.31638 13.5581 1.0006 12.7956 1.00049 12.0004C1.00049 11.2051 1.31624 10.4419 1.87842 9.87934L7.87939 3.87934C8.2988 3.46022 8.83302 3.17377 9.41455 3.05805C9.99641 2.94235 10.5999 3.00194 11.1479 3.22895C11.696 3.45596 12.165 3.84021 12.4946 4.33344C12.8241 4.82654 13.0003 5.4064 13.0005 5.99946V18.0004Z" fill="black"/>
<path d="M21.0005 6.00043C21.0004 5.8027 20.9414 5.60917 20.8315 5.44477C20.7217 5.28036 20.565 5.15228 20.3823 5.07661C20.1997 5.00105 19.999 4.98144 19.8052 5.01997C19.6113 5.05852 19.4333 5.15365 19.2935 5.2934L13.2935 11.2934C13.1061 11.4809 13.0005 11.7353 13.0005 12.0004C13.0006 12.2651 13.1055 12.5191 13.2925 12.7065L19.2935 18.7065C19.4333 18.8463 19.6112 18.9414 19.8052 18.9799C19.999 19.0185 20.1997 18.9989 20.3823 18.9233C20.565 18.8476 20.7217 18.7195 20.8315 18.5551C20.9413 18.3909 21.0003 18.1979 21.0005 18.0004V6.00043ZM23.0005 18.0004C23.0003 18.5935 22.8241 19.1733 22.4946 19.6665C22.165 20.1597 21.696 20.5439 21.1479 20.7709C20.5998 20.998 19.9964 21.0575 19.4146 20.9418C18.833 20.8261 18.2988 20.5407 17.8794 20.1215L11.8784 14.1206C11.3164 13.5581 11.0006 12.7956 11.0005 12.0004C11.0005 11.2051 11.3162 10.4419 11.8784 9.87934L17.8794 3.87934C18.2988 3.46022 18.833 3.17377 19.4146 3.05805C19.9964 2.94235 20.5998 3.00194 21.1479 3.22895C21.696 3.45596 22.165 3.84021 22.4946 4.33344C22.8241 4.82654 23.0003 5.4064 23.0005 5.99946V18.0004Z" fill="black"/>
</svg>
