<svg width="24" height="24" viewBox="0 0 24 24" fill="none" xmlns="http://www.w3.org/2000/svg">
<path fill-rule="evenodd" clip-rule="evenodd" d="M3.47427 1.14935C3.76909 0.967144 4.13723 0.95058 4.44721 1.10557L6 1.88197L7.55279 1.10557C7.83431 0.96481 8.16569 0.96481 8.44721 1.10557L10 1.88197L11.5528 1.10557C11.8343 0.96481 12.1657 0.96481 12.4472 1.10557L14 1.88197L15.5528 1.10557C15.8343 0.96481 16.1657 0.96481 16.4472 1.10557L18 1.88197L19.5528 1.10557C19.8628 0.95058 20.2309 0.967144 20.5257 1.14935C20.8205 1.33156 21 1.65342 21 2V22C21 22.3466 20.8205 22.6684 20.5257 22.8507C20.2309 23.0329 19.8628 23.0494 19.5528 22.8944L18 22.118L16.4472 22.8944C16.1657 23.0352 15.8343 23.0352 15.5528 22.8944L14 22.118L12.4472 22.8944C12.1657 23.0352 11.8343 23.0352 11.5528 22.8944L10 22.118L8.44721 22.8944C8.16569 23.0352 7.83431 23.0352 7.55279 22.8944L6 22.118L4.44721 22.8944C4.13723 23.0494 3.76909 23.0329 3.47427 22.8507C3.17945 22.6684 3 22.3466 3 22V2C3 1.65342 3.17945 1.33156 3.47427 1.14935ZM5 3.61803V20.382L5.55279 20.1056C5.83431 19.9648 6.16569 19.9648 6.44721 20.1056L8 20.882L9.55279 20.1056C9.83431 19.9648 10.1657 19.9648 10.4472 20.1056L12 20.882L13.5528 20.1056C13.8343 19.9648 14.1657 19.9648 14.4472 20.1056L16 20.882L17.5528 20.1056C17.8343 19.9648 18.1657 19.9648 18.4472 20.1056L19 20.382V3.61803L18.4472 3.89443C18.1657 4.03519 17.8343 4.03519 17.5528 3.89443L16 3.11803L14.4472 3.89443C14.1657 4.03519 13.8343 4.03519 13.5528 3.89443L12 3.11804L10.4472 3.89443C10.1657 4.03519 9.83431 4.03519 9.55279 3.89443L8 3.11804L6.44721 3.89443C6.16569 4.03519 5.83431 4.03519 5.55279 3.89443L5 3.61803Z" fill="black"/>
<path fill-rule="evenodd" clip-rule="evenodd" d="M7 12C7 11.4477 7.44772 11 8 11H13C13.5523 11 14 11.4477 14 12C14 12.5523 13.5523 13 13 13H8C7.44772 13 7 12.5523 7 12Z" fill="black"/>
<path fill-rule="evenodd" clip-rule="evenodd" d="M11.228 7.40967C12.1868 7.05557 13.231 7.00379 14.2201 7.26132C15.2092 7.51884 16.0956 8.0733 16.7599 8.85C17.1189 9.2697 17.0697 9.90095 16.65 10.2599C16.2303 10.6189 15.5991 10.5697 15.2401 10.15C14.8415 9.68398 14.3096 9.35131 13.7162 9.19679C13.1227 9.04228 12.4962 9.07334 11.9209 9.2858C11.3456 9.49827 10.8493 9.88192 10.4988 10.3851C10.1482 10.8883 9.96027 11.4868 9.96027 12.1C9.96027 12.7132 10.1482 13.3118 10.4988 13.8149C10.8493 14.3181 11.3456 14.7017 11.9209 14.9142C12.4962 15.1267 13.1227 15.1577 13.7162 15.0032C14.3096 14.8487 14.8415 14.516 15.2401 14.05C15.5991 13.6303 16.2303 13.5811 16.65 13.9401C17.0697 14.2991 17.1189 14.9303 16.7599 15.35C16.0956 16.1267 15.2092 16.6812 14.2201 16.9387C13.231 17.1962 12.1868 17.1444 11.228 16.7903C10.2692 16.4362 9.442 15.7968 8.85775 14.9582C8.27349 14.1196 7.96027 13.1221 7.96027 12.1C7.96027 11.0779 8.27349 10.0804 8.85775 9.24181C9.442 8.4032 10.2692 7.76378 11.228 7.40967Z" fill="black"/>
</svg>
