<svg width="24" height="24" viewBox="0 0 24 24" fill="none" xmlns="http://www.w3.org/2000/svg">
<path d="M12.0098 11C12.562 11 13.0098 11.4477 13.0098 12C13.0098 12.5523 12.562 13 12.0098 13H12C11.4477 13 11 12.5523 11 12C11 11.4477 11.4477 11 12 11H12.0098Z" fill="black"/>
<path d="M13.5911 14.5509C14.0533 14.3433 14.6066 14.5158 14.8655 14.964L17.3382 19.2462C17.4788 19.4898 17.5661 19.7604 17.595 20.0402C17.624 20.32 17.5939 20.603 17.5062 20.8703C17.4184 21.1373 17.2753 21.3829 17.0862 21.591C16.897 21.7992 16.6653 21.9655 16.4075 22.0783C15.0177 22.6861 13.5172 23.0001 12.0003 23.0002C10.4832 23.0002 8.98204 22.6862 7.59209 22.0783C7.33433 21.9655 7.10363 21.7992 6.91436 21.591C6.72512 21.3828 6.58126 21.1375 6.49346 20.8703C6.40567 20.603 6.37566 20.32 6.40459 20.0402C6.43353 19.7605 6.52089 19.4898 6.66143 19.2462L9.13408 14.964L9.18975 14.8781C9.48624 14.4671 10.0519 14.3389 10.5003 14.5978C10.9563 14.861 11.4737 15.0002 12.0003 15.0002C12.5268 15.0001 13.0443 14.8611 13.5003 14.5978L13.5911 14.5509ZM13.5823 16.7414C13.0741 16.911 12.5404 17.0001 12.0003 17.0002C11.4597 17.0002 10.9249 16.9112 10.4163 16.7414L8.39385 20.2462L8.82451 20.421C9.83828 20.8033 10.9143 21.0002 12.0003 21.0002C13.2412 21.0001 14.4688 20.7434 15.6058 20.2462L13.5823 16.7414Z" fill="black"/>
<path d="M16.9297 2.79554C17.2052 2.73806 17.4898 2.73945 17.7647 2.79945C18.0397 2.85947 18.2989 2.97708 18.5254 3.14417L18.9737 3.49281C19.9977 4.33231 20.8629 5.35112 21.5264 6.50062C22.2844 7.81377 22.7631 9.26922 22.9317 10.776C22.9623 11.0465 22.9374 11.3211 22.8584 11.5817C22.7795 11.8421 22.6482 12.0837 22.4727 12.2916C22.2971 12.4997 22.0806 12.6701 21.837 12.7916C21.5934 12.9131 21.3275 12.9835 21.0557 12.9987C21.0372 12.9997 21.0186 12.9996 21 12.9996H16C15.4478 12.9996 15.0001 12.5519 15 11.9996C15 11.4731 14.861 10.9556 14.5977 10.4996C14.3344 10.0438 13.9559 9.6652 13.5 9.40199C13.0218 9.12585 12.8577 8.51406 13.1338 8.03577L15.6055 3.75355C15.7462 3.50979 15.9371 3.2985 16.1651 3.13343C16.3931 2.96828 16.6541 2.85312 16.9297 2.79554ZM15.3145 8.25843C15.7157 8.61383 16.0599 9.03171 16.3301 9.49964C16.6002 9.96749 16.7903 10.4746 16.8975 10.9996H20.9444C20.8065 9.76631 20.4154 8.57444 19.795 7.49964C19.1745 6.42479 18.338 5.48977 17.3389 4.75355L15.3145 8.25843Z" fill="black"/>
<path d="M6.23536 2.79945C6.5103 2.73945 6.79485 2.73806 7.07032 2.79554C7.34594 2.85312 7.60691 2.96829 7.83497 3.13343C8.06278 3.29841 8.25291 3.50998 8.39356 3.75355L10.8662 8.03577C11.1423 8.51406 10.9783 9.12585 10.5 9.40199C10.0441 9.6652 9.66564 10.0438 9.40235 10.4996C9.1391 10.9556 9.00007 11.4731 9.00001 11.9996C8.99999 12.5519 8.55228 12.9996 8.00001 12.9996H3.00001C2.98145 12.9996 2.96287 12.9997 2.94434 12.9987C2.6726 12.9835 2.40666 12.9131 2.16309 12.7916C1.91946 12.6701 1.70299 12.4997 1.52735 12.2916C1.35182 12.0837 1.22055 11.8421 1.14161 11.5817C1.06266 11.3211 1.03772 11.0465 1.06837 10.776C1.23699 9.26922 1.71569 7.81377 2.47364 6.50062C3.23193 5.18696 4.25356 4.044 5.47462 3.14417L5.6504 3.02796C5.83172 2.92169 6.02917 2.84445 6.23536 2.79945ZM6.66114 4.75355C5.66202 5.48977 4.82554 6.42479 4.20509 7.49964C3.58467 8.57445 3.19352 9.76631 3.05567 10.9996H7.10255C7.20979 10.4746 7.39981 9.96749 7.66993 9.49964C7.94001 9.03192 8.28361 8.61373 8.68458 8.25843L6.66114 4.75355Z" fill="black"/>
</svg>
