<svg width="24" height="24" viewBox="0 0 24 24" fill="none" xmlns="http://www.w3.org/2000/svg">
<path fill-rule="evenodd" clip-rule="evenodd" d="M11.9962 2.00001L12 2C14.6522 2 17.1957 3.05357 19.0711 4.92893C20.9464 6.8043 22 9.34784 22 12C22 12.5523 21.5523 13 21 13C20.4477 13 20 12.5523 20 12C20 9.87827 19.1571 7.84344 17.6569 6.34315C16.157 4.8433 14.1229 4.0005 12.0019 4C9.74731 4.00897 7.58329 4.88785 5.96096 6.45325L3.70711 8.70711C3.31658 9.09763 2.68342 9.09763 2.29289 8.70711C1.90237 8.31658 1.90237 7.68342 2.29289 7.29289L4.55289 5.03289C4.55688 5.02891 4.5609 5.02495 4.56496 5.02103C6.55946 3.09289 9.22213 2.01044 11.9962 2.00001Z" fill="black"/>
<path fill-rule="evenodd" clip-rule="evenodd" d="M3 2C3.55228 2 4 2.44772 4 3V7H8C8.55228 7 9 7.44771 9 8C9 8.55228 8.55228 9 8 9H3C2.44772 9 2 8.55228 2 8V3C2 2.44772 2.44772 2 3 2Z" fill="black"/>
<path fill-rule="evenodd" clip-rule="evenodd" d="M3 11C3.55228 11 4 11.4477 4 12C4 14.1217 4.84285 16.1566 6.34315 17.6569C7.84301 19.1567 9.87711 19.9995 11.9982 20C14.2527 19.991 16.4167 19.1121 18.039 17.5467L20.2929 15.2929C20.6834 14.9024 21.3166 14.9024 21.7071 15.2929C22.0976 15.6834 22.0976 16.3166 21.7071 16.7071L19.4471 18.9671C19.4431 18.9711 19.4391 18.975 19.435 18.979C17.4405 20.9071 14.7779 21.9896 12.0038 22L12 22C9.34784 22 6.8043 20.9464 4.92893 19.0711C3.05357 17.1957 2 14.6522 2 12C2 11.4477 2.44772 11 3 11Z" fill="black"/>
<path fill-rule="evenodd" clip-rule="evenodd" d="M15 16C15 15.4477 15.4477 15 16 15H21C21.5523 15 22 15.4477 22 16V21C22 21.5523 21.5523 22 21 22C20.4477 22 20 21.5523 20 21V17H16C15.4477 17 15 16.5523 15 16Z" fill="black"/>
</svg>
