<svg width="24" height="24" viewBox="0 0 24 24" fill="none" xmlns="http://www.w3.org/2000/svg">
<path d="M11.2929 6.29289C11.6834 5.90237 12.3164 5.90237 12.707 6.29289C13.0975 6.68342 13.0975 7.31643 12.707 7.70696L8.41399 11.9999L12.707 16.2929C13.0975 16.6834 13.0975 17.3164 12.707 17.707C12.3164 18.0975 11.6834 18.0975 11.2929 17.707L6.29289 12.707C5.90237 12.3164 5.90237 11.6834 6.29289 11.2929L11.2929 6.29289Z" fill="black"/>
<path d="M21 18V16C21 15.2044 20.6837 14.4415 20.1211 13.8789C19.5585 13.3163 18.7957 13 18 13H7C6.44772 13 6 12.5523 6 12C6 11.4477 6.44772 11 7 11H18C19.3261 11 20.5975 11.5272 21.5352 12.4648C22.4728 13.4025 23 14.6739 23 16V18C23 18.5523 22.5523 19 22 19C21.4477 19 21 18.5523 21 18Z" fill="black"/>
<path d="M6.29289 6.29289C6.68342 5.90237 7.31643 5.90237 7.70696 6.29289C8.09748 6.68342 8.09748 7.31643 7.70696 7.70696L3.41399 11.9999L7.70696 16.2929C8.09748 16.6834 8.09748 17.3164 7.70696 17.707C7.31643 18.0975 6.68342 18.0975 6.29289 17.707L1.29289 12.707C0.902369 12.3164 0.902369 11.6834 1.29289 11.2929L6.29289 6.29289Z" fill="black"/>
</svg>
