<svg width="24" height="24" viewBox="0 0 24 24" fill="none" xmlns="http://www.w3.org/2000/svg">
<path fill-rule="evenodd" clip-rule="evenodd" d="M3.87868 4.87868C4.44129 4.31607 5.20435 4 6 4H12C12.5523 4 13 4.44772 13 5C13 5.55228 12.5523 6 12 6H6C5.73478 6 5.48043 6.10536 5.29289 6.29289C5.10536 6.48043 5 6.73478 5 7V10C5 10.5523 4.55228 11 4 11C3.44772 11 3 10.5523 3 10V7C3 6.20435 3.31607 5.44129 3.87868 4.87868Z" fill="black"/>
<path fill-rule="evenodd" clip-rule="evenodd" d="M8.29289 1.29289C8.68342 0.902369 9.31658 0.902369 9.70711 1.29289L12.7071 4.29289C13.0976 4.68342 13.0976 5.31658 12.7071 5.70711L9.70711 8.70711C9.31658 9.09763 8.68342 9.09763 8.29289 8.70711C7.90237 8.31658 7.90237 7.68342 8.29289 7.29289L10.5858 5L8.29289 2.70711C7.90237 2.31658 7.90237 1.68342 8.29289 1.29289Z" fill="black"/>
<path fill-rule="evenodd" clip-rule="evenodd" d="M15 5C15 4.44772 15.4477 4 16 4H18C18.7956 4 19.5587 4.31607 20.1213 4.87868C20.6839 5.44129 21 6.20435 21 7V18C21 18.7957 20.6839 19.5587 20.1213 20.1213C19.5587 20.6839 18.7957 21 18 21H6C5.20435 21 4.44129 20.6839 3.87868 20.1213C3.31607 19.5587 3 18.7957 3 18V14C3 13.4477 3.44772 13 4 13C4.55228 13 5 13.4477 5 14V18C5 18.2652 5.10536 18.5196 5.29289 18.7071C5.48043 18.8946 5.73478 19 6 19H18C18.2652 19 18.5196 18.8946 18.7071 18.7071C18.8946 18.5196 19 18.2652 19 18V7C19 6.73478 18.8946 6.48043 18.7071 6.29289C18.5196 6.10536 18.2652 6 18 6H16C15.4477 6 15 5.55228 15 5Z" fill="black"/>
</svg>
