<svg width="24" height="24" viewBox="0 0 24 24" fill="none" xmlns="http://www.w3.org/2000/svg">
<path d="M19.9999 12C19.9999 9.87827 19.1574 7.84306 17.6572 6.34277C16.1573 4.84294 14.1229 4.00052 12.0019 4C9.74454 4.00896 7.578 4.88999 5.955 6.45898L3.70696 8.70703C3.31643 9.09756 2.68342 9.09756 2.29289 8.70703C1.90237 8.31651 1.90237 7.68349 2.29289 7.29297L4.55266 5.0332L4.94621 4.66992C6.89235 2.96203 9.39517 2.00982 11.996 2H11.9999C14.6521 2 17.1958 3.05335 19.0712 4.92871C20.9466 6.80407 21.9999 9.34784 21.9999 12C21.9999 12.5523 21.5522 13 20.9999 13C20.4476 13 19.9999 12.5523 19.9999 12Z" fill="black"/>
<path d="M2 3C2 2.44772 2.44772 2 3 2C3.55228 2 4 2.44772 4 3V7H8C8.55228 7 9 7.44772 9 8C9 8.55228 8.55228 9 8 9H3C2.44772 9 2 8.55228 2 8V3Z" fill="black"/>
<path d="M2 12C2 11.4477 2.44772 11 3 11C3.55228 11 4 11.4477 4 12C4 14.1217 4.84248 16.1569 6.34277 17.6572C7.84237 19.1568 9.8764 19.9982 11.9971 19.999C14.2548 19.9903 16.4217 19.1102 18.0449 17.541L20.293 15.293C20.6835 14.9024 21.3165 14.9024 21.707 15.293C22.0976 15.6835 22.0976 16.3165 21.707 16.707L19.4473 18.9668L19.0537 19.3301C17.1076 21.038 14.6048 21.9902 12.0039 22H12C9.34784 22 6.80407 20.9467 4.92871 19.0713C3.05335 17.1959 2 14.6522 2 12Z" fill="black"/>
<path d="M20 21V17H16C15.4477 17 15 16.5523 15 16C15 15.4477 15.4477 15 16 15H21C21.5523 15 22 15.4477 22 16V21C22 21.5523 21.5523 22 21 22C20.4477 22 20 21.5523 20 21Z" fill="black"/>
<path d="M10 12C10 10.8954 10.8954 10 12 10C13.1046 10 14 10.8954 14 12C14 13.1046 13.1046 14 12 14C10.8954 14 10 13.1046 10 12Z" fill="black"/>
</svg>
