<svg width="24" height="24" viewBox="0 0 24 24" fill="none" xmlns="http://www.w3.org/2000/svg">
<path d="M9 6.50001C9 5.94772 9.44772 5.50001 10 5.50001C10.5523 5.50001 11 5.94772 11 6.50001V16.3858C11.8197 16.1988 12.5777 15.7856 13.1816 15.1816C14.0256 14.3377 14.5 13.1935 14.5 12C14.5 11.4477 14.9477 11 15.5 11C16.0523 11 16.5 11.4477 16.5 12C16.5 13.7239 15.8157 15.3777 14.5967 16.5967C13.3777 17.8157 11.7239 18.5 10 18.5C9.44772 18.5 9 18.0523 9 17.5V6.50001Z" fill="black"/>
<path d="M13.5527 7.10548C14.0467 6.85849 14.6475 7.05876 14.8945 7.55274C15.1415 8.04672 14.9412 8.64755 14.4473 8.89454L8.44727 11.8945C7.95329 12.1415 7.35246 11.9413 7.10547 11.4473C6.85848 10.9533 7.05876 10.3525 7.55273 10.1055L13.5527 7.10548Z" fill="black"/>
<path d="M15.6602 1.05958C15.9161 0.967056 16.2008 0.98225 16.4473 1.10548L18 1.88184L19.5527 1.10548C19.8626 0.950521 20.2306 0.967342 20.5254 1.14942C20.8202 1.33163 21 1.65343 21 2.00001V22C21 22.3466 20.8202 22.6684 20.5254 22.8506C20.2306 23.0327 19.8626 23.0495 19.5527 22.8945L18 22.1182L16.4473 22.8945C16.1657 23.0353 15.8343 23.0353 15.5527 22.8945L14 22.1182L12.4473 22.8945C12.1657 23.0353 11.8343 23.0353 11.5527 22.8945L10 22.1182L8.44727 22.8945C8.16574 23.0353 7.83426 23.0353 7.55273 22.8945L6 22.1182L4.44727 22.8945C4.13735 23.0495 3.76939 23.0327 3.47461 22.8506C3.17979 22.6684 3 22.3466 3 22V2.00001C3 1.65343 3.17979 1.33163 3.47461 1.14942C3.76939 0.967342 4.13735 0.950521 4.44727 1.10548L6 1.88184L7.55273 1.10548L7.66016 1.05958C7.91613 0.967056 8.20081 0.98225 8.44727 1.10548L10 1.88184L11.5527 1.10548L11.6602 1.05958C11.9161 0.967056 12.2008 0.98225 12.4473 1.10548L14 1.88184L15.5527 1.10548L15.6602 1.05958ZM14.4473 3.89454C14.1657 4.0353 13.8343 4.0353 13.5527 3.89454L12 3.11817L10.4473 3.89454C10.1657 4.0353 9.83426 4.0353 9.55273 3.89454L8 3.11817L6.44727 3.89454C6.16574 4.0353 5.83426 4.0353 5.55273 3.89454L5 3.61817V20.3818L5.55273 20.1055C5.83426 19.9647 6.16574 19.9647 6.44727 20.1055L8 20.8818L9.55273 20.1055C9.83426 19.9647 10.1657 19.9647 10.4473 20.1055L12 20.8818L13.5527 20.1055C13.8343 19.9647 14.1657 19.9647 14.4473 20.1055L16 20.8818L17.5527 20.1055C17.8343 19.9647 18.1657 19.9647 18.4473 20.1055L19 20.3818V3.61817L18.4473 3.89454C18.1657 4.0353 17.8343 4.0353 17.5527 3.89454L16 3.11817L14.4473 3.89454Z" fill="black"/>
</svg>
