<svg width="24" height="24" viewBox="0 0 24 24" fill="none" xmlns="http://www.w3.org/2000/svg">
<path d="M19 18V16C19 15.2044 18.6837 14.4415 18.1211 13.8789C17.5585 13.3163 16.7956 13 16 13H4C3.44772 13 3 12.5523 3 12C3 11.4477 3.44772 11 4 11H16C17.3261 11 18.5975 11.5272 19.5352 12.4648C20.4728 13.4025 21 14.6739 21 16V18C21 18.5523 20.5523 19 20 19C19.4477 19 19 18.5523 19 18Z" fill="black"/>
<path d="M8.29289 6.29289C8.68342 5.90237 9.31643 5.90237 9.70696 6.29289C10.0975 6.68342 10.0975 7.31643 9.70696 7.70696L5.41399 11.9999L9.70696 16.2929C10.0975 16.6834 10.0975 17.3164 9.70696 17.707C9.31643 18.0975 8.68342 18.0975 8.29289 17.707L3.29289 12.707C2.90237 12.3164 2.90237 11.6834 3.29289 11.2929L8.29289 6.29289Z" fill="black"/>
</svg>
