<svg width="24" height="24" viewBox="0 0 24 24" fill="none" xmlns="http://www.w3.org/2000/svg">
<path fill-rule="evenodd" clip-rule="evenodd" d="M3 4.00003C3 3.44774 3.44772 3.00003 4 3.00003H20C20.5523 3.00003 21 3.44774 21 4.00003V7.00003C21 7.55231 20.5523 8.00003 20 8.00003C19.4477 8.00003 19 7.55231 19 7.00003V5.00003H5V7.00003C5 7.55231 4.55228 8.00003 4 8.00003C3.44772 8.00003 3 7.55231 3 7.00003V4.00003Z" fill="black"/>
<path fill-rule="evenodd" clip-rule="evenodd" d="M4 20C4 19.4477 4.44772 19 5 19H11C11.5523 19 12 19.4477 12 20C12 20.5523 11.5523 21 11 21H5C4.44772 21 4 20.5523 4 20Z" fill="black"/>
<path fill-rule="evenodd" clip-rule="evenodd" d="M13.2983 3.04554C13.8254 3.21028 14.1192 3.77115 13.9545 4.2983L8.95447 20.2983C8.78974 20.8254 8.22886 21.1192 7.70172 20.9545C7.17457 20.7898 6.88078 20.2289 7.04551 19.7017L12.0455 3.70175C12.2102 3.1746 12.7711 2.88081 13.2983 3.04554Z" fill="black"/>
<path fill-rule="evenodd" clip-rule="evenodd" d="M14.2929 14.2929C14.6834 13.9024 15.3166 13.9024 15.7071 14.2929L20.7071 19.2929C21.0976 19.6834 21.0976 20.3166 20.7071 20.7071C20.3166 21.0977 19.6834 21.0977 19.2929 20.7071L14.2929 15.7071C13.9024 15.3166 13.9024 14.6834 14.2929 14.2929Z" fill="black"/>
<path fill-rule="evenodd" clip-rule="evenodd" d="M20.7071 14.2929C21.0976 14.6834 21.0976 15.3166 20.7071 15.7071L15.7071 20.7071C15.3166 21.0977 14.6834 21.0977 14.2929 20.7071C13.9024 20.3166 13.9024 19.6834 14.2929 19.2929L19.2929 14.2929C19.6834 13.9024 20.3166 13.9024 20.7071 14.2929Z" fill="black"/>
</svg>
