<svg width="24" height="24" viewBox="0 0 24 24" fill="none" xmlns="http://www.w3.org/2000/svg">
<path d="M13.793 8.79297C14.1835 8.40244 14.8165 8.40244 15.207 8.79297L16.207 9.79297C16.5976 10.1835 16.5976 10.8165 16.207 11.207C15.8165 11.5976 15.1835 11.5976 14.793 11.207L13.793 10.207C13.4024 9.81651 13.4024 9.18349 13.793 8.79297Z" fill="black"/>
<path d="M14.793 7.79297C15.1835 7.40244 15.8165 7.40244 16.207 7.79297C16.5976 8.18349 16.5976 8.81651 16.207 9.20703L12.207 13.207C11.8165 13.5976 11.1835 13.5976 10.793 13.207C10.4024 12.8165 10.4024 12.1835 10.793 11.793L14.793 7.79297Z" fill="black"/>
<path d="M12 2C13.9778 2 15.9112 2.58673 17.5557 3.68555C19.2001 4.78434 20.4824 6.34567 21.2393 8.17285C21.9961 10.0001 22.1935 12.0114 21.8076 13.9512C21.4217 15.8909 20.4697 17.6728 19.0713 19.0713C17.6728 20.4697 15.8909 21.4217 13.9512 21.8076C12.0114 22.1935 10.0001 21.9961 8.17285 21.2393C6.34567 20.4824 4.78434 19.2001 3.68555 17.5557C2.58673 15.9112 2 13.9778 2 12C2 11.4477 2.44772 11 3 11C3.55228 11 4 11.4477 4 12C4 13.5823 4.46958 15.1287 5.34863 16.4443C6.22764 17.7599 7.47676 18.7851 8.93848 19.3906C10.4002 19.9961 12.0088 20.1553 13.5605 19.8467C15.1124 19.538 16.5384 18.776 17.6572 17.6572C18.776 16.5384 19.538 15.1124 19.8467 13.5605C20.1553 12.0088 19.9961 10.4002 19.3906 8.93848C18.7851 7.47676 17.7599 6.22764 16.4443 5.34863C15.129 4.46976 13.5829 4.00019 12.001 4C9.74392 4.00817 7.57723 4.88951 5.95508 6.45898L3.70703 8.70703C3.31651 9.09756 2.68349 9.09756 2.29297 8.70703C1.90244 8.31651 1.90244 7.68349 2.29297 7.29297L4.56445 5.02148C6.55851 3.09218 9.22248 2.00929 11.9971 2H12Z" fill="black"/>
<path d="M2 3C2 2.44772 2.44772 2 3 2C3.55228 2 4 2.44772 4 3V7H8C8.55228 7 9 7.44772 9 8C9 8.55228 8.55228 9 8 9H3C2.44772 9 2 8.55228 2 8V3Z" fill="black"/>
<path d="M11 14C11 13.4477 10.5523 13 10 13C9.44772 13 9 13.4477 9 14C9 14.5523 9.44772 15 10 15C10.5523 15 11 14.5523 11 14ZM13 14C13 15.6569 11.6569 17 10 17C8.34315 17 7 15.6569 7 14C7 12.3431 8.34315 11 10 11C11.6569 11 13 12.3431 13 14Z" fill="black"/>
</svg>
