<svg width="24" height="24" viewBox="0 0 24 24" fill="none" xmlns="http://www.w3.org/2000/svg">
<path fill-rule="evenodd" clip-rule="evenodd" d="M3.85623 15.7348C4.45549 15.23 5.22001 14.9643 6.00316 14.9885C6.78659 15.0127 7.53347 15.3254 8.10046 15.8666C8.10455 15.8705 8.10859 15.8744 8.11261 15.8784C9.30102 17.0518 9.28578 18.9352 8.26475 20.1444C7.82207 20.6708 7.21241 21.0575 6.6261 21.3438C6.02792 21.636 5.38238 21.8581 4.80253 22.0239C4.2195 22.1907 3.68176 22.3066 3.29062 22.3809C3.09436 22.4181 2.93328 22.4453 2.81975 22.4633C2.76295 22.4723 2.71793 22.479 2.68624 22.4836C2.67039 22.4859 2.65787 22.4877 2.64886 22.4889C2.64435 22.4896 2.64072 22.4901 2.63799 22.4904L2.63291 22.4911C2.63272 22.4912 2.63253 22.4912 2.50002 21.5C1.50884 21.3675 1.50886 21.3673 1.50889 21.3671L1.50912 21.3654L1.50958 21.362C1.50995 21.3593 1.51045 21.3557 1.51108 21.3512C1.51234 21.3422 1.51411 21.3296 1.51641 21.3138C1.52102 21.2821 1.52776 21.2371 1.53677 21.1803C1.55477 21.0667 1.58187 20.9057 1.61914 20.7094C1.6934 20.3183 1.80931 19.7805 1.97608 19.1975C2.14194 18.6176 2.36398 17.9721 2.65617 17.3739C2.94265 16.7874 3.32944 16.1775 3.85623 15.7348ZM2.50002 21.5L1.50889 21.3671C1.4676 21.676 1.57259 21.9868 1.79291 22.2071C2.01324 22.4274 2.32407 22.5324 2.63291 22.4911L2.50002 21.5ZM3.77047 20.2296C3.92551 20.1911 4.08725 20.1483 4.25251 20.1011C4.76517 19.9544 5.29088 19.7702 5.74831 19.5468C6.21721 19.3177 6.54707 19.0797 6.73432 18.8568C6.73497 18.856 6.73563 18.8552 6.73629 18.8545C7.13228 18.386 7.09898 17.6948 6.71328 17.3074C6.50367 17.1103 6.22915 16.9964 5.94133 16.9875C5.65063 16.9786 5.36684 17.0772 5.14444 17.2647L5.14321 17.2657C4.9203 17.4529 4.68228 17.7828 4.45325 18.2517C4.22981 18.7091 4.0456 19.2349 3.89896 19.7475C3.85169 19.9128 3.80893 20.0745 3.77047 20.2296Z" fill="black"/>
<path fill-rule="evenodd" clip-rule="evenodd" d="M20.9592 3.03868C19.2918 3.174 17.6676 3.66036 16.1949 4.47031C14.4191 5.44705 12.9226 6.8619 11.8479 8.58027C11.846 8.58326 11.8441 8.58624 11.8422 8.58921C11.1968 9.5972 10.639 10.6582 10.1747 11.7605L12.242 13.8277C13.3576 13.3645 14.4322 12.8073 15.4542 12.162C19.6794 9.32381 20.7549 5.61275 20.9592 3.03868ZM15.2311 2.71788C17.306 1.5767 19.6383 0.985336 22.0062 1.00002C22.5561 1.00343 23 1.45014 23 2C23 4.91618 22.1511 10.0797 16.5569 13.8306C16.5495 13.8356 16.542 13.8404 16.5345 13.8452C15.2148 14.6797 13.8149 15.3797 12.3555 15.9347C11.9874 16.0747 11.5714 15.9856 11.2929 15.7071L8.29292 12.7071C8.01329 12.4275 7.92471 12.0093 8.06694 11.6403C8.62264 10.1987 9.3222 8.81664 10.155 7.51523C11.4105 5.50961 13.1578 3.8582 15.2311 2.71788Z" fill="black"/>
<path fill-rule="evenodd" clip-rule="evenodd" d="M6.5554 8.83158C6.12055 9.12292 5.70923 9.84213 5.39634 10.7047C5.35994 10.8051 5.32608 10.9039 5.2947 11H9.00002C9.55231 11 10 11.4477 10 12C10 12.5523 9.55231 13 9.00002 13H4.00002C3.70355 13 3.42236 12.8684 3.23236 12.6408C3.04237 12.4133 2.96315 12.1131 3.0161 11.8214L4.00002 12C3.0161 11.8214 3.01606 11.8216 3.0161 11.8214L3.01649 11.8193L3.01708 11.816C3.01755 11.8135 3.01816 11.8102 3.01891 11.8062C3.0204 11.7983 3.02247 11.7875 3.02511 11.774C3.03039 11.7469 3.03799 11.709 3.04801 11.6616C3.06801 11.5667 3.09776 11.433 3.13803 11.2706C3.21818 10.9475 3.34185 10.5034 3.5162 10.0227C3.84066 9.12826 4.42909 7.84776 5.444 7.16882L5.44532 7.16793C6.04031 6.77127 6.7381 6.60758 7.37216 6.54865C8.01485 6.48892 8.66797 6.53006 9.23534 6.60319C9.80667 6.67682 10.3184 6.78654 10.686 6.87719C10.8707 6.92273 11.0212 6.96401 11.1274 6.99446C11.1805 7.0097 11.2226 7.02227 11.2525 7.03136C11.2675 7.0359 11.2794 7.03958 11.2881 7.04229C11.29 7.04288 11.2917 7.04342 11.2933 7.04392C11.2954 7.04457 11.2972 7.04513 11.2987 7.04562C11.3001 7.04605 11.3012 7.04642 11.3022 7.04672L11.3039 7.04729C11.3042 7.04736 11.3044 7.04743 11 7.99998L11.3039 7.04729C11.83 7.21538 12.1207 7.77827 11.9526 8.30435C11.7846 8.83011 11.2224 9.12028 10.6966 8.95284L10.6957 8.95254M10.6957 8.95254L10.6947 8.95223L10.6925 8.95154C10.6883 8.95023 10.681 8.94798 10.6708 8.94488C10.6504 8.93867 10.6183 8.9291 10.5759 8.91691C10.4908 8.89252 10.3647 8.85786 10.2072 8.81903C9.89043 8.74093 9.45587 8.64815 8.9797 8.58678C8.49957 8.5249 8.00395 8.49855 7.55725 8.54007C7.10242 8.58234 6.77043 8.68847 6.5554 8.83158M4.98376 12.1796C4.98372 12.1798 4.98373 12.1798 4.98376 12.1796V12.1796Z" fill="black"/>
<path fill-rule="evenodd" clip-rule="evenodd" d="M15.6957 12.0474C16.2217 11.8793 16.7845 12.1695 16.9526 12.6956L16 13C16.9526 12.6956 16.9525 12.6954 16.9526 12.6956L16.9533 12.6978C16.9536 12.6988 16.954 12.6999 16.9544 12.7013C16.9552 12.704 16.9564 12.7076 16.9577 12.7119C16.9604 12.7206 16.9641 12.7325 16.9686 12.7475C16.9777 12.7774 16.9903 12.8195 17.0055 12.8726C17.036 12.9788 17.0773 13.1293 17.1228 13.314C17.2135 13.6816 17.3232 14.1933 17.3968 14.7647C17.4699 15.332 17.5111 15.9852 17.4514 16.6278C17.3924 17.2619 17.2287 17.9597 16.8321 18.5547L16.8312 18.556C16.1522 19.5709 14.8717 20.1593 13.9773 20.4838C13.4966 20.6582 13.0525 20.7818 12.7294 20.862C12.567 20.9022 12.4333 20.932 12.3385 20.952C12.291 20.962 12.2531 20.9696 12.226 20.9749C12.2125 20.9775 12.2017 20.9796 12.1938 20.9811C12.1898 20.9818 12.1865 20.9825 12.184 20.9829L12.1807 20.9835L12.179 20.9838C12.1788 20.9839 12.1786 20.9839 12 20L12.179 20.9838C11.8873 21.0368 11.5868 20.9576 11.3592 20.7676C11.1316 20.5776 11 20.2965 11 20V15C11 14.4477 11.4477 14 12 14C12.5523 14 13 14.4477 13 15V18.7053C13.0961 18.6739 13.1949 18.6401 13.2953 18.6037C14.1579 18.2908 14.8771 17.8795 15.1684 17.4446C15.3115 17.2296 15.4177 16.8976 15.4599 16.4428C15.5015 15.9961 15.4751 15.5004 15.4132 15.0203C15.3519 14.5441 15.2591 14.1096 15.181 13.7928C15.1421 13.6353 15.1075 13.5092 15.0831 13.4241C15.0709 13.3817 15.0613 13.3496 15.0551 13.3292C15.052 13.319 15.0498 13.3117 15.0485 13.3075C15.0478 13.3054 15.0474 13.3041 15.0472 13.3036C14.8798 12.7778 15.1699 12.2154 15.6957 12.0474Z" fill="black"/>
</svg>
