<svg width="24" height="24" viewBox="0 0 24 24" fill="none" xmlns="http://www.w3.org/2000/svg">
<path fill-rule="evenodd" clip-rule="evenodd" d="M11.4491 1.01484C14.1722 0.878056 16.8491 1.75748 18.9605 3.48254C21.072 5.2076 22.4675 7.65535 22.8765 10.3511C23.2854 13.0468 22.6787 15.7983 21.1739 18.072C20.8691 18.5325 20.2486 18.6588 19.7881 18.354C19.3275 18.0491 19.2013 17.4287 19.5061 16.9681C20.7373 15.1079 21.2337 12.8566 20.8991 10.651C20.5645 8.44547 19.4227 6.44276 17.6951 5.03135C15.9676 3.61993 13.7774 2.90041 11.5494 3.01232C9.32143 3.12423 7.21439 4.0596 5.63696 5.63703C4.05954 7.21445 3.12417 9.32149 3.01226 11.5495C2.90035 13.7775 3.61987 15.9677 5.03129 17.6952C6.4427 19.4228 8.44541 20.5646 10.651 20.8992C12.8566 21.2338 15.1078 20.7373 16.9681 19.5061C17.4286 19.2013 18.0491 19.3276 18.3539 19.7881C18.6587 20.2487 18.5324 20.8691 18.0719 21.174C15.7982 22.6788 13.0467 23.2855 10.351 22.8765C7.65529 22.4676 5.20754 21.072 3.48248 18.9606C1.75742 16.8491 0.877995 14.1723 1.01478 11.4492C1.15156 8.72604 2.29479 6.15077 4.22275 4.22281C6.15071 2.29485 8.72598 1.15162 11.4491 1.01484Z" fill="black"/>
<path fill-rule="evenodd" clip-rule="evenodd" d="M19 18.0001C18.4477 18.0001 18 18.4478 18 19.0001C18 19.5524 18.4477 20.0001 19 20.0001C19.5523 20.0001 20 19.5524 20 19.0001C20 18.4478 19.5523 18.0001 19 18.0001ZM16 19.0001C16 17.3432 17.3431 16.0001 19 16.0001C20.6568 16.0001 22 17.3432 22 19.0001C22 20.6569 20.6568 22.0001 19 22.0001C17.3431 22.0001 16 20.6569 16 19.0001Z" fill="black"/>
<path fill-rule="evenodd" clip-rule="evenodd" d="M12.7029 12.7029C13.0934 12.3124 13.7266 12.3124 14.1171 12.7029L18.2971 16.8829C18.6876 17.2735 18.6876 17.9066 18.2971 18.2971C17.9066 18.6877 17.2734 18.6877 16.8829 18.2971L12.7029 14.1171C12.3123 13.7266 12.3123 13.0935 12.7029 12.7029Z" fill="black"/>
<path fill-rule="evenodd" clip-rule="evenodd" d="M12 11.0001C11.4477 11.0001 11 11.4478 11 12.0001C11 12.5524 11.4477 13.0001 12 13.0001C12.5523 13.0001 13 12.5524 13 12.0001C13 11.4478 12.5523 11.0001 12 11.0001ZM8.99998 12.0001C8.99998 10.3432 10.3431 9.00008 12 9.00008C13.6568 9.00008 15 10.3432 15 12.0001C15 13.6569 13.6568 15.0001 12 15.0001C10.3431 15.0001 8.99998 13.6569 8.99998 12.0001Z" fill="black"/>
</svg>
