<svg width="24" height="24" viewBox="0 0 24 24" fill="none" xmlns="http://www.w3.org/2000/svg">
<path fill-rule="evenodd" clip-rule="evenodd" d="M14.7906 3L21 3C21.5523 3 22 3.44772 22 4C22 4.55228 21.5523 5 21 5H14.7937L11.4645 20.7804C11.4626 20.7891 11.4607 20.7977 11.4587 20.8062C11.3831 21.1228 11.2066 21.4062 10.9558 21.6137C10.705 21.8212 10.3935 21.9414 10.0683 21.9563C9.7432 21.9712 9.42203 21.88 9.15331 21.6963C8.88459 21.5127 8.68289 21.2466 8.57866 20.9382C8.57396 20.9243 8.56956 20.9103 8.56548 20.8962L6.27843 13H3C2.44772 13 2 12.5523 2 12C2 11.4477 2.44772 11 3 11H6.28076C6.70035 11.0003 7.10921 11.1326 7.44947 11.3781C7.78974 11.6236 8.04417 11.9699 8.17676 12.368C8.18093 12.3805 8.18485 12.3931 8.18852 12.4058L9.9235 18.3959L12.8415 4.56457C12.8431 4.55703 12.8448 4.5495 12.8466 4.542C12.9497 4.10365 13.1977 3.71293 13.5505 3.43308C13.9033 3.15324 14.3403 3.00064 14.7906 3Z" fill="black"/>
</svg>
