<svg width="24" height="24" viewBox="0 0 24 24" fill="none" xmlns="http://www.w3.org/2000/svg">
<path fill-rule="evenodd" clip-rule="evenodd" d="M12 7C11.7348 7 11.4804 7.10536 11.2929 7.29289C11.1053 7.48043 11 7.73478 11 8C11 8.17574 11.0931 8.45927 11.4398 8.94669C11.6058 9.17999 11.7916 9.41072 11.9993 9.65998C12.2084 9.4106 12.3952 9.17942 12.56 8.948C12.9067 8.46148 13 8.17634 13 8C13 7.73478 12.8946 7.48043 12.7071 7.29289C12.5195 7.10536 12.2652 7 12 7ZM12.8423 11.7594C12.9451 11.6369 13.0516 11.5118 13.1594 11.3852C13.5207 10.9607 13.8958 10.52 14.1889 10.1085C14.5943 9.53952 15 8.82366 15 8C15 7.20435 14.6839 6.44129 14.1213 5.87868C13.5587 5.31607 12.7956 5 12 5C11.2043 5 10.4413 5.31607 9.87866 5.87868C9.31605 6.44129 8.99998 7.20435 8.99998 8C8.99998 8.82426 9.40689 9.53923 9.81013 10.1061C10.0897 10.4991 10.4484 10.9249 10.7941 11.3355C10.9133 11.4771 11.031 11.6168 11.1434 11.7527C11.1982 11.8398 11.2675 11.9198 11.3509 11.9892C11.5391 12.1455 11.7677 12.2212 11.9946 12.22C12.2192 12.2213 12.4455 12.1474 12.633 11.9942C12.7169 11.9255 12.7868 11.846 12.8423 11.7594Z" fill="black"/>
<path fill-rule="evenodd" clip-rule="evenodd" d="M15.1618 13.6939C15.607 14.0208 15.7029 14.6467 15.376 15.0919L12.806 18.5919C12.4791 19.037 11.8533 19.1329 11.4081 18.806C10.9629 18.4791 10.8671 17.8533 11.1939 17.4081L13.7639 13.9081C14.0908 13.463 14.7167 13.3671 15.1618 13.6939Z" fill="black"/>
<path fill-rule="evenodd" clip-rule="evenodd" d="M14.7788 7.68118C13.9196 7.2321 12.9644 6.99792 11.9949 6.99867C11.0254 6.99943 10.0705 7.23511 9.21203 7.68553C8.35352 8.13595 7.61694 8.7877 7.06535 9.58499C6.75113 10.0392 6.12821 10.1526 5.67403 9.83842C5.21984 9.52419 5.10638 8.90128 5.4206 8.44709C6.15606 7.38405 7.13816 6.51505 8.28284 5.91448C9.42752 5.31392 10.7007 4.99969 11.9933 4.99867C13.286 4.99766 14.5596 5.30991 15.7053 5.90868C16.8509 6.50745 17.8343 7.37491 18.5715 8.43681C18.8864 8.8905 18.7739 9.51359 18.3202 9.82852C17.8665 10.1435 17.2434 10.031 16.9285 9.57727C16.3757 8.78085 15.6381 8.13026 14.7788 7.68118Z" fill="black"/>
<path fill-rule="evenodd" clip-rule="evenodd" d="M12.625 10.4393C13.0561 10.7845 13.1258 11.4138 12.7806 11.8449L10.1306 15.1549C9.78545 15.5861 9.15613 15.6558 8.72499 15.3106C8.29386 14.9654 8.22417 14.3361 8.56934 13.905L11.2193 10.595C11.5645 10.1638 12.1938 10.0942 12.625 10.4393Z" fill="black"/>
<path fill-rule="evenodd" clip-rule="evenodd" d="M12 3C10.6209 3 9.32703 3.4581 8.39752 4.23269C7.47333 5.00284 6.99998 6.00409 6.99998 7C6.99998 9.55421 8.20027 11.2202 9.6728 13.2641C9.83411 13.4879 9.99868 13.7164 10.1653 13.951C10.4204 14.3102 10.4103 14.7941 10.1405 15.1424L6.6535 19.6434L8.51819 20.9966L11.1983 17.4023C11.3878 17.1481 11.6865 16.9989 12.0035 17C12.3205 17.0011 12.6182 17.1525 12.8059 17.408L15.4476 21.0041L17.3406 19.6448L13.7837 15.1178C13.507 14.7657 13.4981 14.2725 13.762 13.9107C13.9351 13.6734 14.1061 13.4425 14.2736 13.2163C15.7727 11.1915 16.9958 9.5396 17 6.99926C16.9997 6.0036 16.5264 5.00265 15.6024 4.23269C14.6729 3.4581 13.379 3 12 3ZM5.47863 21.2623C5.26175 21.1049 5.07871 20.9056 4.94039 20.6761C4.80206 20.4466 4.71126 20.1916 4.67339 19.9263C4.63552 19.661 4.65135 19.3908 4.71993 19.1318C4.78849 18.8728 4.90837 18.6303 5.07245 18.4186C5.07239 18.4186 5.07251 18.4185 5.07245 18.4186L8.10196 14.5081C8.08189 14.4804 8.06178 14.4527 8.04165 14.425C6.59082 12.4266 4.99998 10.2354 4.99998 7C4.99998 5.34374 5.7909 3.80145 7.11715 2.69624C8.43808 1.59547 10.1964 1 12 1C13.8035 1 15.5619 1.59547 16.8828 2.69624C18.2091 3.80145 19 5.34374 19 7L19 7.00155C18.9949 10.238 17.3639 12.4233 15.8873 14.4016C15.8673 14.4284 15.8474 14.4551 15.8274 14.4818L18.9133 18.4092C19.08 18.6214 19.2021 18.8652 19.2721 19.1259C19.3422 19.3865 19.3587 19.6587 19.3208 19.9259C19.2828 20.1931 19.1912 20.4499 19.0514 20.6807C18.9116 20.9116 18.7265 21.1118 18.5073 21.2692L16.6124 22.6299C16.1866 22.935 15.6581 23.0608 15.1405 22.9804C14.623 22.9 14.1576 22.6198 13.8444 22.1999C13.8429 22.1979 13.8415 22.196 13.8401 22.194L11.994 19.681L10.1237 22.1894C10.1235 22.1897 10.1233 22.1899 10.1231 22.1902C9.80905 22.6124 9.34131 22.8939 8.82121 22.9735C8.30078 23.0533 7.7699 22.9246 7.34376 22.6154C7.34373 22.6154 7.34379 22.6154 7.34376 22.6154L5.47863 21.2623Z" fill="black"/>
</svg>
