<svg width="24" height="24" viewBox="0 0 24 24" fill="none" xmlns="http://www.w3.org/2000/svg">
<path d="M17.001 12.0002C17.001 10.6756 16.4749 9.40446 15.539 8.46703C15.1492 8.07614 15.1503 7.44303 15.541 7.05296C15.9319 6.66314 16.565 6.66418 16.9551 7.05492C18.265 8.36729 19.001 10.146 19.001 12.0002C19.0009 13.8545 18.2651 15.6332 16.9551 16.9455C16.5649 17.3364 15.9319 17.3366 15.541 16.9465C15.1502 16.5564 15.149 15.9233 15.539 15.5325C16.4748 14.5951 17.0009 13.3247 17.001 12.0002Z" fill="black"/>
<path d="M20.9998 12.0005C20.9998 9.61549 20.0533 7.32759 18.368 5.6401C17.9778 5.24949 17.9776 4.61637 18.368 4.22604C18.7586 3.83588 19.3917 3.8357 19.782 4.22604C21.8422 6.28858 22.9998 9.08527 22.9998 12.0005C22.9997 14.9155 21.8421 17.7114 19.782 19.7739C19.3917 20.1643 18.7586 20.1651 18.368 19.7749C17.9772 19.3846 17.9777 18.7515 18.368 18.3608C20.0534 16.6734 20.9997 14.3855 20.9998 12.0005Z" fill="black"/>
<path d="M1.00012 12.0005C1.00012 9.08528 2.15773 6.28859 4.2179 4.22606C4.60823 3.83568 5.24133 3.83588 5.63196 4.22606C6.02231 4.61637 6.02306 5.24949 5.63293 5.64012C3.94735 7.32765 3.00012 9.61531 3.00012 12.0005C3.00022 14.3855 3.94744 16.6734 5.63293 18.3608C6.0228 18.7516 6.02256 19.3847 5.63196 19.7749C5.2413 20.1651 4.60821 20.1644 4.2179 19.7739C2.15782 17.7115 1.00022 14.9155 1.00012 12.0005Z" fill="black"/>
<path d="M4.99927 12.0003C4.99927 10.146 5.73518 8.36734 7.04517 7.05496C7.43526 6.6642 8.06835 6.6631 8.45923 7.05301C8.84993 7.44304 8.85091 8.07618 8.46118 8.46707C7.52535 9.40451 6.99927 10.6757 6.99927 12.0003C6.99934 13.3248 7.52542 14.5951 8.46118 15.5325C8.85114 15.9234 8.85001 16.5565 8.45923 16.9466C8.06837 17.3367 7.43534 17.3364 7.04517 16.9456C5.73508 15.6332 4.99934 13.8546 4.99927 12.0003Z" fill="black"/>
<path d="M13 12C13 11.4477 12.5523 11 12 11C11.4477 11 11 11.4477 11 12C11 12.5523 11.4477 13 12 13C12.5523 13 13 12.5523 13 12ZM15 12C15 13.6569 13.6569 15 12 15C10.3431 15 9 13.6569 9 12C9 10.3431 10.3431 9 12 9C13.6569 9 15 10.3431 15 12Z" fill="black"/>
</svg>
