<svg width="24" height="24" viewBox="0 0 24 24" fill="none" xmlns="http://www.w3.org/2000/svg">
<path fill-rule="evenodd" clip-rule="evenodd" d="M10 17C10 15.8954 10.8954 15 12 15C13.1046 15 14 15.8954 14 17C14 18.1046 13.1046 19 12 19C10.8954 19 10 18.1046 10 17Z" fill="black"/>
<path fill-rule="evenodd" clip-rule="evenodd" d="M21 6C21.5523 6 22 6.44772 22 7V13C22 13.5523 21.5523 14 21 14H15C14.4477 14 14 13.5523 14 13C14 12.4477 14.4477 12 15 12H20V7C20 6.44772 20.4477 6 21 6Z" fill="black"/>
<path fill-rule="evenodd" clip-rule="evenodd" d="M11.9995 9C9.87795 9.00013 7.84332 9.84297 6.34315 11.3431C4.84285 12.8434 4 14.8783 4 17C4 17.5523 3.55228 18 3 18C2.44772 18 2 17.5523 2 17C2 14.3478 3.05357 11.8043 4.92893 9.92893C6.8043 8.05357 9.34784 7 12 7L12.001 7C14.462 7.00251 16.8356 7.9124 18.6677 9.55556L21.669 12.2567C22.0795 12.6262 22.1128 13.2585 21.7433 13.669C21.3738 14.0795 20.7415 14.1128 20.331 13.7433L17.3323 11.0444C17.3321 11.0443 17.3325 11.0446 17.3323 11.0444C15.8669 9.73035 13.9678 9.00213 11.9995 9Z" fill="black"/>
</svg>
