<svg width="24" height="24" viewBox="0 0 24 24" fill="none" xmlns="http://www.w3.org/2000/svg">
<path d="M14 15C13.4477 15 13 14.5523 13 14C13 13.4477 13.4477 13 14 13C14.5304 13 15.039 13.2109 15.4141 13.5859C15.7891 13.961 16 14.4696 16 15V20C16 20.5304 15.7891 21.039 15.4141 21.4141C15.039 21.7891 14.5304 22 14 22C13.4477 22 13 21.5523 13 21C13 20.4477 13.4477 20 14 20V15Z" fill="black"/>
<path d="M13 4C13 3.46957 13.2109 2.96101 13.5859 2.58594C13.961 2.21086 14.4696 2 15 2C15.5523 2 16 2.44772 16 3C16 3.55228 15.5523 4 15 4C15 4.55228 14.5523 5 14 5C13.4477 5 13 4.55228 13 4Z" fill="black"/>
<path d="M13 9C13 8.44772 13.4477 8 14 8C14.5523 8 15 8.44772 15 9C15.5523 9 16 9.44772 16 10C16 10.5523 15.5523 11 15 11C14.4696 11 13.961 10.7891 13.5859 10.4141C13.2109 10.039 13 9.53043 13 9Z" fill="black"/>
<path d="M19 15C18.4477 15 18 14.5523 18 14C18 13.4477 18.4477 13 19 13C19.5304 13 20.039 13.2109 20.4141 13.5859C20.7891 13.961 21 14.4696 21 15V20C21 20.5304 20.7891 21.039 20.4141 21.4141C20.039 21.7891 19.5304 22 19 22C18.4477 22 18 21.5523 18 21C18 20.4477 18.4477 20 19 20V15Z" fill="black"/>
<path d="M20 4C19.4477 4 19 3.55228 19 3C19 2.44772 19.4477 2 20 2C20.5304 2 21.039 2.21086 21.4141 2.58594C21.7891 2.96101 22 3.46957 22 4C22 4.55228 21.5523 5 21 5C20.4477 5 20 4.55228 20 4Z" fill="black"/>
<path d="M20 9C20 8.44772 20.4477 8 21 8C21.5523 8 22 8.44772 22 9C22 9.53043 21.7891 10.039 21.4141 10.4141C21.039 10.7891 20.5304 11 20 11C19.4477 11 19 10.5523 19 10C19 9.44772 19.4477 9 20 9Z" fill="black"/>
<path d="M8.29289 6.29289C8.68342 5.90237 9.31643 5.90237 9.70696 6.29289C10.0975 6.68342 10.0975 7.31643 9.70696 7.70696L6.70696 10.707C6.31643 11.0975 5.68342 11.0975 5.29289 10.707L2.29289 7.70696C1.90237 7.31643 1.90237 6.68342 2.29289 6.29289C2.68342 5.90237 3.31643 5.90237 3.70696 6.29289L5.99992 8.58586L8.29289 6.29289Z" fill="black"/>
<path d="M5 10V5C5 4.20435 5.3163 3.44152 5.87891 2.87891C6.44152 2.3163 7.20435 2 8 2H10C10.5523 2 11 2.44772 11 3C11 3.55228 10.5523 4 10 4H8C7.73478 4 7.4805 4.10543 7.29297 4.29297C7.10543 4.4805 7 4.73478 7 5V10C7 10.5523 6.55228 11 6 11C5.44772 11 5 10.5523 5 10Z" fill="black"/>
<path d="M4 15V20H9V15H4ZM11 20C11 21.1046 10.1046 22 9 22H4C2.89543 22 2 21.1046 2 20V15C2 13.8954 2.89543 13 4 13H9C10.1046 13 11 13.8954 11 15V20Z" fill="black"/>
</svg>
