<svg width="24" height="24" viewBox="0 0 24 24" fill="none" xmlns="http://www.w3.org/2000/svg">
<path fill-rule="evenodd" clip-rule="evenodd" d="M5.60711 1.1928C5.99764 1.58332 5.99764 2.21648 5.60711 2.60701C2.09764 6.11648 2.09764 11.8833 5.60711 15.3928C5.99764 15.7833 5.99764 16.4165 5.60711 16.807C5.21659 17.1975 4.58342 17.1975 4.1929 16.807C-0.0976253 12.5165 -0.0976253 5.48332 4.1929 1.1928C4.58342 0.802271 5.21659 0.802271 5.60711 1.1928Z" fill="black"/>
<path fill-rule="evenodd" clip-rule="evenodd" d="M8.49446 3.98036C8.89185 4.3639 8.90308 4.99696 8.51955 5.39435C7.72536 6.21724 7.22829 7.28148 7.10699 8.41865C6.98569 9.55582 7.2471 10.701 7.84984 11.6729C8.14092 12.1422 7.99641 12.7587 7.52706 13.0497C7.05771 13.3408 6.44125 13.1963 6.15017 12.727C5.3129 11.3769 4.94977 9.78617 5.11827 8.20652C5.28677 6.62687 5.97726 5.14853 7.08047 4.00545C7.464 3.60806 8.09707 3.59683 8.49446 3.98036Z" fill="black"/>
<path fill-rule="evenodd" clip-rule="evenodd" d="M12 7.9999C11.4477 7.9999 11 8.44762 11 8.9999C11 9.55219 11.4477 9.9999 12 9.9999C12.5523 9.9999 13 9.55219 13 8.9999C13 8.44762 12.5523 7.9999 12 7.9999ZM9.00001 8.9999C9.00001 7.34305 10.3432 5.9999 12 5.9999C13.6569 5.9999 15 7.34305 15 8.9999C15 10.6568 13.6569 11.9999 12 11.9999C10.3432 11.9999 9.00001 10.6568 9.00001 8.9999Z" fill="black"/>
<path fill-rule="evenodd" clip-rule="evenodd" d="M15.4929 4.0928C15.8834 3.70227 16.5166 3.70227 16.9071 4.0928C19.254 6.4397 19.5402 10.0646 17.8504 12.796C17.5599 13.2657 16.9436 13.4109 16.4739 13.1203C16.0042 12.8298 15.859 12.2135 16.1496 11.7438C17.3798 9.75521 17.146 7.1601 15.4929 5.50701C15.1024 5.11648 15.1024 4.48332 15.4929 4.0928Z" fill="black"/>
<path fill-rule="evenodd" clip-rule="evenodd" d="M18.3922 1.19352C18.7823 0.802596 19.4155 0.801947 19.8064 1.19207C20.8265 2.21009 21.6358 3.41931 22.188 4.7505C22.7402 6.08169 23.0244 7.50872 23.0244 8.9499C23.0244 10.3911 22.7402 11.8181 22.188 13.1493C21.6358 14.4805 20.8265 15.6897 19.8064 16.7077C19.4155 17.0979 18.7823 17.0972 18.3922 16.7063C18.0021 16.3154 18.0027 15.6822 18.3936 15.2921C19.2276 14.4598 19.8892 13.4713 20.3406 12.383C20.7921 11.2947 21.0244 10.1281 21.0244 8.9499C21.0244 7.77171 20.7921 6.60509 20.3406 5.51682C19.8892 4.42854 19.2276 3.43999 18.3936 2.60773C18.0027 2.21761 18.0021 1.58445 18.3922 1.19352Z" fill="black"/>
<path fill-rule="evenodd" clip-rule="evenodd" d="M8.50001 17.9999C8.50001 17.4476 8.94772 16.9999 9.50001 16.9999H14.5C15.0523 16.9999 15.5 17.4476 15.5 17.9999C15.5 18.5522 15.0523 18.9999 14.5 18.9999H9.50001C8.94772 18.9999 8.50001 18.5522 8.50001 17.9999Z" fill="black"/>
<path fill-rule="evenodd" clip-rule="evenodd" d="M12 9.9999C12.4205 9.9999 12.7961 10.263 12.9398 10.6582L16.9398 21.6582C17.1285 22.1772 16.8608 22.751 16.3417 22.9397C15.8227 23.1284 15.249 22.8607 15.0602 22.3416L12 13.9261L8.9398 22.3416C8.75106 22.8607 8.1773 23.1284 7.65826 22.9397C7.13923 22.751 6.87147 22.1772 7.06021 21.6582L11.0602 10.6582C11.2039 10.263 11.5795 9.9999 12 9.9999Z" fill="black"/>
</svg>
