<svg width="24" height="24" viewBox="0 0 24 24" fill="none" xmlns="http://www.w3.org/2000/svg">
<path fill-rule="evenodd" clip-rule="evenodd" d="M7.57021 4.48164C8.52822 2.56575 10.0367 1 12 1C13.3889 1 14.559 1.79808 15.4388 2.90369C16.3221 4.01365 17.0008 5.53135 17.4356 7.25544C17.5707 7.79095 17.2461 8.33457 16.7106 8.46963C16.175 8.6047 15.6314 8.28008 15.4964 7.74456C15.1082 6.20565 14.5299 4.97335 13.8739 4.14906C13.2145 3.32042 12.5631 3 12 3C11.2023 3 10.2108 3.67275 9.35904 5.37611C8.53723 7.01963 8 9.36011 8 12C8 14.6399 8.53723 16.9804 9.35904 18.6239C10.2108 20.3272 11.2023 21 12 21C12.2049 21 12.4126 20.9591 12.6242 20.8733C13.136 20.6657 13.7191 20.9124 13.9267 21.4242C14.1343 21.936 13.8876 22.5191 13.3758 22.7267C12.9414 22.9029 12.4791 23 12 23C10.0367 23 8.52822 21.4343 7.57021 19.5184C6.58227 17.5426 6 14.8831 6 12C6 9.11689 6.58227 6.45737 7.57021 4.48164Z" fill="black"/>
<path fill-rule="evenodd" clip-rule="evenodd" d="M14.2952 13.2686C14.5373 12.7722 15.1359 12.566 15.6323 12.8081L19.4463 14.6681C19.9427 14.9102 20.1489 15.5089 19.9068 16.0053L18.0468 19.8193C17.8047 20.3157 17.2061 20.5218 16.7097 20.2798C16.2133 20.0377 16.0071 19.439 16.2492 18.9426L17.6709 16.0274L14.7557 14.6058C14.2593 14.3637 14.0531 13.765 14.2952 13.2686Z" fill="black"/>
<path fill-rule="evenodd" clip-rule="evenodd" d="M5.37611 9.35904C3.67275 10.2108 3 11.2023 3 12C3 12.7977 3.67275 13.7892 5.37611 14.641C7.01963 15.4628 9.36011 16 12 16C14.6055 16 16.9189 15.4771 18.5596 14.6722C19.0554 14.429 19.6545 14.6337 19.8978 15.1296C20.141 15.6254 19.9363 16.2245 19.4404 16.4678C17.4731 17.4329 14.8465 18 12 18C9.11689 18 6.45737 17.4177 4.48164 16.4298C2.56575 15.4718 1 13.9633 1 12C1 10.0367 2.56575 8.52822 4.48164 7.57021C6.45737 6.58227 9.11689 6 12 6C14.5294 6 16.8804 6.44793 18.7486 7.22007C20.5784 7.97634 22.1149 9.11813 22.7265 10.6236C22.9343 11.1353 22.688 11.7186 22.1764 11.9265C21.6647 12.1343 21.0814 11.888 20.8735 11.3764C20.5581 10.5999 19.6136 9.74166 17.9847 9.06843C16.3941 8.41107 14.3086 8 12 8C9.36011 8 7.01963 8.53723 5.37611 9.35904Z" fill="black"/>
</svg>
