<svg width="24" height="24" viewBox="0 0 24 24" fill="none" xmlns="http://www.w3.org/2000/svg">
<path d="M19 6.53413V5.99995C19 5.4066 18.8238 4.8263 18.4941 4.33295C18.1646 3.83988 17.6963 3.4555 17.1484 3.22846C16.6004 3.00144 15.9969 2.94189 15.415 3.05756C14.8331 3.17332 14.2985 3.45929 13.8789 3.87885C13.4593 4.29841 13.1734 4.83304 13.0576 5.41498C12.9419 5.99683 13.0015 6.6003 13.2285 7.14838C13.4556 7.69628 13.8399 8.16453 14.333 8.49409C14.8264 8.82373 15.4067 8.99995 16 8.99995H17C17.5523 8.99995 18 9.44766 18 9.99995C18 10.5522 17.5523 10.9999 17 10.9999H16C15.0111 10.9999 14.0439 10.7066 13.2217 10.1572C12.3996 9.60778 11.7592 8.82652 11.3809 7.91303C11.0025 6.99945 10.9028 5.9942 11.0957 5.02436C11.2886 4.05448 11.7656 3.16404 12.4648 2.46479C13.1641 1.76554 14.0545 1.28858 15.0244 1.09565C15.9943 0.902736 16.9995 1.00243 17.9131 1.38081C18.8266 1.75918 19.6078 2.39956 20.1572 3.22163C20.7066 4.04387 21 5.01104 21 5.99995V6.53413C20.9999 7.08633 20.5522 7.53413 20 7.53413C19.4478 7.53412 19.0001 7.08633 19 6.53413Z" fill="black"/>
<path d="M13.3249 1.77522C13.7915 1.47982 14.4093 1.61833 14.7048 2.08479C15.0002 2.55132 14.8616 3.16917 14.3952 3.46467L12.3259 4.77522C11.2779 5.43741 10.5123 6.46582 10.1794 7.65999C9.84661 8.85406 9.9689 10.1293 10.5231 11.2381C11.0775 12.347 12.0244 13.2106 13.1794 13.661C14.3344 14.1113 15.6165 14.1166 16.7751 13.6756L19.0651 12.8055C19.7214 12.5566 20.2702 12.0849 20.6149 11.4735C20.9596 10.8621 21.0785 10.1491 20.9519 9.45881C20.8252 8.76852 20.4608 8.14436 19.9216 7.69514C19.3823 7.24598 18.7025 6.99966 18.0007 6.99983H16.9997C16.4476 6.99967 15.9997 6.55202 15.9997 5.99983C15.9998 5.4477 16.4476 4.99999 16.9997 4.99983H17.9997L18.2185 5.00471C19.3102 5.05213 20.3591 5.45609 21.2019 6.15803C22.1006 6.90671 22.7085 7.94697 22.9196 9.09749C23.1307 10.2482 22.9317 11.4368 22.3571 12.4559C21.8184 13.4113 20.9811 14.1607 19.9773 14.5926L19.7751 14.6746L17.4851 15.5438C15.863 16.161 14.0698 16.1547 12.4528 15.5242C10.8359 14.8938 9.51118 13.6849 8.73506 12.1326C7.95903 10.5803 7.78668 8.79467 8.25264 7.12288C8.71861 5.45139 9.7888 4.01188 11.2556 3.08479L13.3249 1.77522Z" fill="black"/>
<path d="M4.32422 16.0156C7.32453 15.4798 9.21789 15.9949 10.5879 16.9912C11.9519 17.9832 12.7343 19.6394 13.249 21.1835C13.3397 21.4556 13.309 21.7538 13.165 22.0019C13.0211 22.25 12.7774 22.4242 12.4961 22.4804C10.4382 22.892 8.65878 22.9467 7.05274 22.0927V22.0947C5.53417 21.3354 4.2954 19.7632 3.54297 17.291C3.45983 17.0176 3.49826 16.7212 3.64746 16.4775C3.79673 16.2339 4.04298 16.0658 4.32422 16.0156ZM9.41211 18.6084C8.72002 18.105 7.69639 17.6858 5.86817 17.8291C6.42899 19.1065 7.12005 19.8323 7.78125 20.2158L7.94727 20.3056L7.97364 20.3193C8.74292 20.7335 9.64871 20.8559 10.9248 20.708C10.5138 19.7813 10.0218 19.0518 9.41211 18.6084Z" fill="black"/>
<path d="M9.3086 11.1123C9.79859 10.8576 10.4025 11.049 10.6572 11.539C10.9118 12.029 10.7214 12.6329 10.2314 12.8876C7.58169 14.2654 5.75896 16.5853 4.58789 18.623C4.00631 19.635 3.59679 20.5586 3.33301 21.2265C3.20133 21.56 3.10676 21.8287 3.0459 22.0107C3.01551 22.1016 2.99337 22.1708 2.97949 22.2158L2.96192 22.2744L2.92871 22.372C2.74089 22.8425 2.2232 23.1038 1.72559 22.9619C1.19468 22.8102 0.886624 22.2565 1.03809 21.7255L2 21.9999C1.10738 21.7449 1.04355 21.7262 1.03906 21.7246V21.7216C1.03955 21.72 1.04028 21.7173 1.04102 21.7148C1.04246 21.7098 1.04448 21.7033 1.04688 21.6953C1.05182 21.6786 1.05929 21.6553 1.06836 21.6259C1.08659 21.5669 1.1129 21.4822 1.14844 21.3759C1.21949 21.1634 1.32672 20.8617 1.47266 20.4921C1.76419 19.7539 2.21489 18.7398 2.85449 17.6269C4.12592 15.4146 6.1884 12.7345 9.3086 11.1123Z" fill="black"/>
<path d="M18 7.99995C18 7.44766 17.552 6.99983 16.9997 6.99983C16.4474 6.99983 16 7.44766 16 7.99995C16 8.55223 16.4477 8.99995 17 8.99995C17.5523 8.99995 18 8.55223 18 7.99995ZM20 7.99995C20 9.6568 18.6569 10.9999 17 10.9999C15.3431 10.9999 14 9.6568 14 7.99995C14 6.34309 15.3429 4.99983 16.9997 4.99983C18.6566 4.99983 20 6.34309 20 7.99995Z" fill="black"/>
</svg>
