<svg width="24" height="24" viewBox="0 0 24 24" fill="none" xmlns="http://www.w3.org/2000/svg">
<path d="M14 3C14.5523 3 15 3.44772 15 4V20C15 20.5523 14.5523 21 14 21H3C2.46957 21 1.96101 20.7891 1.58594 20.4141C1.21086 20.039 1 19.5304 1 19V5C1 4.46957 1.21086 3.96101 1.58594 3.58594C1.96101 3.21087 2.46957 3 3 3H14ZM3 19H13V5H3V19Z" fill="black"/>
<path d="M21 12C21 8.13401 17.866 5 14 5C10.134 5 7 8.13401 7 12C7 15.866 10.134 19 14 19C17.866 19 21 15.866 21 12ZM23 12C23 16.9706 18.9706 21 14 21C9.02944 21 5 16.9706 5 12C5 7.02944 9.02944 3 14 3C18.9706 3 23 7.02944 23 12Z" fill="black"/>
</svg>
