<svg width="24" height="24" viewBox="0 0 24 24" fill="none" xmlns="http://www.w3.org/2000/svg">
<path d="M9 15V12C9 11.4477 9.44771 11 10 11C10.5523 11 11 11.4477 11 12V15C11 15.5523 10.5523 16 10 16C9.44771 16 9 15.5523 9 15Z" fill="black"/>
<path d="M13 15V12C13 11.4477 13.4477 11 14 11C14.5523 11 15 11.4477 15 12V15C15 15.5523 14.5523 16 14 16C13.4477 16 13 15.5523 13 15Z" fill="black"/>
<path d="M17 15V12C17 11.4477 17.4477 11 18 11C18.5523 11 19 11.4477 19 12V15C19 15.5523 18.5523 16 18 16C17.4477 16 17 15.5523 17 15Z" fill="black"/>
<path d="M1 8V4C1 3.44772 1.44772 3 2 3C2.55228 3 3 3.44772 3 4V8C3 8.55228 2.55228 9 2 9C1.44772 9 1 8.55228 1 8Z" fill="black"/>
<path d="M22 5C22.5523 5 23 5.44772 23 6C23 6.55228 22.5523 7 22 7H2C1.44772 7 1 6.55228 1 6C1 5.44772 1.44772 5 2 5H22Z" fill="black"/>
<path d="M21 8V4C21 3.44772 21.4477 3 22 3C22.5523 3 23 3.44772 23 4V8C23 8.55228 22.5523 9 22 9C21.4477 9 21 8.55228 21 8Z" fill="black"/>
<path d="M5 15V12C5 11.4477 5.44772 11 6 11C6.55228 11 7 11.4477 7 12V15C7 15.5523 6.55228 16 6 16C5.44772 16 5 15.5523 5 15Z" fill="black"/>
<path d="M21 14C21 13.4477 20.5523 13 20 13H4C3.44772 13 3 13.4477 3 14V18C3 18.5523 3.44772 19 4 19H20C20.5523 19 21 18.5523 21 18V14ZM23 18C23 19.6569 21.6569 21 20 21H4C2.34315 21 1 19.6569 1 18V14C1 12.3431 2.34315 11 4 11H20C21.6569 11 23 12.3431 23 14V18Z" fill="black"/>
</svg>
