<svg width="24" height="24" viewBox="0 0 24 24" fill="none" xmlns="http://www.w3.org/2000/svg">
<path fill-rule="evenodd" clip-rule="evenodd" d="M17 2C17.5523 2 18 2.44772 18 3V13C18 13.5523 17.5523 14 17 14C16.4477 14 16 13.5523 16 13V3C16 2.44772 16.4477 2 17 2Z" fill="black"/>
<path fill-rule="evenodd" clip-rule="evenodd" d="M11.804 5C12.0801 4.52171 12.6917 4.35784 13.17 4.63399L21.83 9.63399C22.3083 9.91014 22.4722 10.5217 22.196 11C21.9199 11.4783 21.3083 11.6422 20.83 11.366L12.17 6.36603C11.6917 6.08988 11.5278 5.47829 11.804 5Z" fill="black"/>
<path fill-rule="evenodd" clip-rule="evenodd" d="M22.196 5C22.4722 5.47829 22.3083 6.08988 21.83 6.36603L13.17 11.366C12.6917 11.6422 12.0801 11.4783 11.804 11C11.5278 10.5217 11.6917 9.91014 12.17 9.63399L20.83 4.63399C21.3083 4.35784 21.9199 4.52171 22.196 5Z" fill="black"/>
<path fill-rule="evenodd" clip-rule="evenodd" d="M2.87868 14.8787C3.44129 14.3161 4.20435 14 5 14H7C7.79565 14 8.55871 14.3161 9.12132 14.8787C9.68393 15.4413 10 16.2043 10 17V19C10 19.7957 9.68393 20.5587 9.12132 21.1213C8.55871 21.6839 7.79565 22 7 22H5C4.20435 22 3.44129 21.6839 2.87868 21.1213C2.31607 20.5587 2 19.7957 2 19V17C2 16.2044 2.31607 15.4413 2.87868 14.8787ZM5 16C4.73478 16 4.48043 16.1054 4.29289 16.2929C4.10536 16.4804 4 16.7348 4 17V19C4 19.2652 4.10536 19.5196 4.29289 19.7071C4.48043 19.8946 4.73478 20 5 20H7C7.26522 20 7.51957 19.8946 7.70711 19.7071C7.89464 19.5196 8 19.2652 8 19V17C8 16.7348 7.89464 16.4804 7.70711 16.2929C7.51957 16.1054 7.26522 16 7 16H5Z" fill="black"/>
</svg>
