<svg width="24" height="24" viewBox="0 0 24 24" fill="none" xmlns="http://www.w3.org/2000/svg">
<path fill-rule="evenodd" clip-rule="evenodd" d="M3.22528 1.03849C3.75632 0.886765 4.3098 1.19426 4.46153 1.72529L7.25431 11.5H18C18.5523 11.5 19 11.9477 19 12.5C19 13.0523 18.5523 13.5 18 13.5H6.5C6.05352 13.5 5.66114 13.204 5.53848 12.7747L2.53848 2.27473C2.38676 1.7437 2.69425 1.19021 3.22528 1.03849Z" fill="black"/>
<path fill-rule="evenodd" clip-rule="evenodd" d="M9.97059 11.6177C10.4579 11.8776 10.6423 12.4833 10.3824 12.9706L6.38235 20.4706C6.12246 20.9579 5.51672 21.1423 5.02941 20.8824C4.5421 20.6225 4.35775 20.0168 4.61765 19.5294L8.61765 12.0294C8.87755 11.5421 9.48328 11.3578 9.97059 11.6177Z" fill="black"/>
<path fill-rule="evenodd" clip-rule="evenodd" d="M14.5771 11.5939C15.0776 11.3603 15.6726 11.5767 15.9062 12.0771L19.4062 19.5771C19.6397 20.0776 19.4234 20.6727 18.9229 20.9062C18.4224 21.1398 17.8274 20.9234 17.5938 20.4229L14.0938 12.9229C13.8603 12.4224 14.0766 11.8274 14.5771 11.5939Z" fill="black"/>
<path fill-rule="evenodd" clip-rule="evenodd" d="M2.04735 17.2885C2.44032 16.9004 3.07348 16.9044 3.46154 17.2974C4.57774 18.4277 5.90725 19.3252 7.37297 19.9377C8.83869 20.5502 10.4114 20.8656 12 20.8656C13.5886 20.8656 15.1613 20.5502 16.627 19.9377C18.0927 19.3252 19.4223 18.4277 20.5385 17.2974C20.9265 16.9044 21.5597 16.9004 21.9526 17.2885C22.3456 17.6766 22.3496 18.3097 21.9615 18.7027C20.6593 20.0214 19.1082 21.0684 17.3982 21.783C15.6882 22.4976 13.8533 22.8656 12 22.8656C10.1467 22.8656 8.3118 22.4976 6.6018 21.783C4.89179 21.0684 3.34069 20.0214 2.03846 18.7027C1.6504 18.3097 1.65438 17.6766 2.04735 17.2885Z" fill="black"/>
</svg>
