<svg width="24" height="24" viewBox="0 0 24 24" fill="none" xmlns="http://www.w3.org/2000/svg">
<path fill-rule="evenodd" clip-rule="evenodd" d="M7.69685 8.63447C8.17487 8.91107 8.33816 9.52282 8.06155 10.0008L4.10832 16.8328C4.10809 16.8332 4.10786 16.8336 4.10763 16.834C4.03953 16.9531 4.00384 17.088 4.00415 17.2253C4.00445 17.3598 4.03928 17.4918 4.10523 17.6089C4.17907 17.7274 4.28166 17.8254 4.40355 17.8938C4.52831 17.9639 4.66906 18.0004 4.81212 18C4.81308 18 4.81405 18 4.81501 18H7.00001C7.5523 18 8.00001 18.4477 8.00001 19C8.00001 19.5523 7.5523 20 7.00001 20H4.81652C4.3292 20.0012 3.84982 19.8765 3.42482 19.638C2.99942 19.3993 2.64294 19.0547 2.38998 18.6376C2.38658 18.632 2.38324 18.6263 2.37995 18.6207C2.13485 18.198 2.00525 17.7184 2.00416 17.2298C2.00306 16.7412 2.13051 16.261 2.37371 15.8372C2.37429 15.8362 2.37488 15.8352 2.37547 15.8342L6.33047 8.99917C6.60707 8.52115 7.21882 8.35786 7.69685 8.63447Z" fill="black"/>
<path fill-rule="evenodd" clip-rule="evenodd" d="M19.0324 13.3494C19.5105 13.0729 20.1222 13.2363 20.3987 13.7144L21.6247 15.8344C21.6253 15.8355 21.6259 15.8365 21.6265 15.8376C21.8682 16.2591 21.9954 16.7366 21.9954 17.2225C21.9954 17.7085 21.8682 18.186 21.6265 18.6075C21.6234 18.6129 21.6202 18.6183 21.617 18.6237C21.3677 19.0402 21.0153 19.3856 20.5939 19.6266C20.1725 19.8677 19.6962 19.9963 19.2107 20C19.2082 20 19.2056 20 19.203 20H11C10.4477 20 10 19.5523 10 19C10 18.4478 10.4477 18 11 18H19.1984C19.3397 17.9984 19.4782 17.9608 19.6009 17.8906C19.7218 17.8214 19.8233 17.723 19.8961 17.6045C19.9612 17.4878 19.9954 17.3563 19.9954 17.2225C19.9954 17.0862 19.9599 16.9522 19.8922 16.8338C19.892 16.8334 19.8918 16.8329 19.8915 16.8325L18.6673 14.7157C18.3909 14.2376 18.5543 13.6259 19.0324 13.3494Z" fill="black"/>
<path fill-rule="evenodd" clip-rule="evenodd" d="M14.7071 15.2929C15.0976 15.6834 15.0976 16.3166 14.7071 16.7071L12.4142 19L14.7071 21.2929C15.0976 21.6834 15.0976 22.3166 14.7071 22.7071C14.3166 23.0976 13.6834 23.0976 13.2929 22.7071L10.2929 19.7071C9.90238 19.3166 9.90238 18.6834 10.2929 18.2929L13.2929 15.2929C13.6834 14.9024 14.3166 14.9024 14.7071 15.2929Z" fill="black"/>
<path fill-rule="evenodd" clip-rule="evenodd" d="M7.69685 8.63447C7.92657 8.7671 8.09336 8.98507 8.16198 9.2413L9.25898 13.3373C9.40186 13.8708 9.08521 14.4191 8.55173 14.562C8.01825 14.7048 7.46995 14.3882 7.32707 13.8547L6.48883 10.7249L3.35895 11.5639C2.8255 11.7069 2.27713 11.3904 2.13413 10.8569C1.99113 10.3235 2.30765 9.7751 2.8411 9.6321L6.9371 8.5341C7.19331 8.46542 7.46713 8.50184 7.69685 8.63447Z" fill="black"/>
<path fill-rule="evenodd" clip-rule="evenodd" d="M11.9966 4.00004C11.857 4.00471 11.7208 4.04453 11.6007 4.11588C11.4777 4.18891 11.3756 4.29249 11.3044 4.41659C11.3039 4.41747 11.3034 4.41835 11.3029 4.41923L10.2099 6.31123C9.93363 6.78945 9.322 6.95317 8.84378 6.6769C8.36556 6.40063 8.20184 5.789 8.47811 5.31078L9.57043 3.41995C9.81311 2.99749 10.1607 2.64482 10.5797 2.3961C10.9991 2.1471 11.4758 2.01073 11.9635 2.00023C11.97 2.00009 11.9766 2.00002 11.9831 2C12.4715 1.99909 12.9515 2.12666 13.375 2.36989C13.7984 2.61313 14.1505 2.96347 14.3957 3.38576C14.3961 3.38645 14.3965 3.38713 14.3969 3.38782L18.3405 10.2317C18.6162 10.7103 18.4518 11.3217 17.9733 11.5975C17.4947 11.8732 16.8833 11.7088 16.6076 11.2303L12.6663 4.39024C12.666 4.38985 12.6658 4.38945 12.6656 4.38905C12.5965 4.27066 12.4977 4.17243 12.3788 4.10417C12.2624 4.03729 12.1308 4.00146 11.9966 4.00004Z" fill="black"/>
<path fill-rule="evenodd" clip-rule="evenodd" d="M18.8298 5.66906C19.3633 5.81194 19.6799 6.36023 19.537 6.89372L18.44 10.9897C18.3714 11.2459 18.203 11.4648 17.9733 11.5975C17.7435 11.7301 17.4714 11.7656 17.2151 11.6969L13.1191 10.5989C12.5857 10.4559 12.2692 9.90754 12.4122 9.37409C12.5552 8.84064 13.1035 8.52412 13.637 8.66712L16.7669 9.50613L17.6051 6.37631C17.748 5.84283 18.2963 5.52618 18.8298 5.66906Z" fill="black"/>
</svg>
