<svg width="24" height="24" viewBox="0 0 24 24" fill="none" xmlns="http://www.w3.org/2000/svg">
<path fill-rule="evenodd" clip-rule="evenodd" d="M6 4C6.55228 4 7 4.44772 7 5V19C7 19.5523 6.55228 20 6 20C5.44772 20 5 19.5523 5 19V5C5 4.44772 5.44772 4 6 4Z" fill="black"/>
<path fill-rule="evenodd" clip-rule="evenodd" d="M10 5.8C10.5523 5.8 11 6.24772 11 6.8V19C11 19.5523 10.5523 20 10 20C9.44772 20 9 19.5523 9 19V6.8C9 6.24772 9.44772 5.8 10 5.8Z" fill="black"/>
<path fill-rule="evenodd" clip-rule="evenodd" d="M14 10.2C14.5523 10.2 15 10.6477 15 11.2V19C15 19.5523 14.5523 20 14 20C13.4477 20 13 19.5523 13 19V11.2C13 10.6477 13.4477 10.2 14 10.2Z" fill="black"/>
<path fill-rule="evenodd" clip-rule="evenodd" d="M18 4C18.5523 4 19 4.44772 19 5V9C19 9.55228 18.5523 10 18 10C17.4477 10 17 9.55228 17 9V5C17 4.44772 17.4477 4 18 4Z" fill="black"/>
<path fill-rule="evenodd" clip-rule="evenodd" d="M18 12C18.5523 12 19 12.4477 19 13V19C19 19.5523 18.5523 20 18 20C17.4477 20 17 19.5523 17 19V13C17 12.4477 17.4477 12 18 12Z" fill="black"/>
<path fill-rule="evenodd" clip-rule="evenodd" d="M22 8C22.5523 8 23 8.44772 23 9V19C23 19.5523 22.5523 20 22 20C21.4477 20 21 19.5523 21 19V9C21 8.44772 21.4477 8 22 8Z" fill="black"/>
<path fill-rule="evenodd" clip-rule="evenodd" d="M6 6C5.20435 6 4.44129 6.31607 3.87868 6.87868C3.31607 7.44129 3 8.20435 3 9V19C3 19.5523 2.55228 20 2 20C1.44772 20 1 19.5523 1 19V9C1 7.67392 1.52678 6.40215 2.46447 5.46447C3.40215 4.52678 4.67392 4 6 4C8.47623 4 10.7355 5.64395 12.8004 8.40048C14.7354 10.9838 16.4763 11.9999 18 12C18.5008 11.9994 18.9932 11.8735 19.4328 11.6337C19.8726 11.3938 20.2454 11.0475 20.517 10.6266C20.7887 10.2056 20.9505 9.72327 20.9879 9.22366C21.0253 8.72404 20.9369 8.22303 20.7309 7.76634C20.5248 7.30966 20.2077 6.91184 19.8084 6.6092C19.4092 6.30656 18.9405 6.10873 18.4451 6.03377C17.9497 5.95881 17.4435 6.00911 16.9725 6.18007C16.5016 6.35103 16.081 6.63721 15.7491 7.0125C15.3832 7.4262 14.7512 7.46495 14.3375 7.09906C13.9238 6.73317 13.8851 6.10119 14.2509 5.6875C14.8041 5.06202 15.5052 4.58505 16.2901 4.30011C17.075 4.01518 17.9187 3.93135 18.7443 4.05628C19.5699 4.18121 20.3511 4.51092 21.0166 5.01533C21.682 5.51973 22.2106 6.18276 22.5539 6.9439C22.8973 7.70505 23.0446 8.54007 22.9823 9.37276C22.9201 10.2055 22.6503 11.0093 22.1975 11.7109C21.7448 12.4125 21.1236 12.9896 20.3905 13.3895C19.6575 13.7893 18.836 13.9992 18.0009 14C15.5247 14 13.2645 12.3561 11.1996 9.59952C9.26446 7.01605 7.52377 6 6 6Z" fill="black"/>
</svg>
