<svg width="24" height="24" viewBox="0 0 24 24" fill="none" xmlns="http://www.w3.org/2000/svg">
<g clip-path="url(#clip0_404_39307)">
<path fill-rule="evenodd" clip-rule="evenodd" d="M6.00612 3.40812L6.00538 3.40886L3.4088 6.00544L3.40806 6.00618C3.14557 6.27034 2.99823 6.62762 2.99823 7.00005C2.99823 7.37247 3.14557 7.72976 3.40806 7.99391L3.4088 7.99465L16.0083 20.5942C16.1384 20.7247 16.2929 20.8282 16.4631 20.8989C16.6333 20.9696 16.8157 21.0059 17 21.0059C17.1842 21.0059 17.3667 20.9696 17.5369 20.8989C17.707 20.8282 17.8616 20.7247 17.9917 20.5942L20.5941 17.9917C20.7246 17.8616 20.8282 17.7071 20.8988 17.5369C20.9695 17.3668 21.0059 17.1843 21.0059 17C21.0059 16.8158 20.9695 16.6333 20.8988 16.4632C20.8282 16.293 20.7246 16.1384 20.5941 16.0084L7.99459 3.40886L7.99385 3.40813C7.7297 3.14563 7.37241 2.99829 6.99999 2.99829C6.62756 2.99829 6.27028 3.14563 6.00612 3.40812ZM4.59459 1.99123C5.23361 1.3553 6.09845 0.998291 6.99999 0.998291C7.90152 0.998291 8.76636 1.3553 9.40538 1.99123L22.0059 14.5917L22.0066 14.5925C22.3232 14.9082 22.5745 15.2833 22.7459 15.6962C22.9175 16.1095 23.0059 16.5526 23.0059 17C23.0059 17.4475 22.9175 17.8906 22.7459 18.3039C22.5745 18.7168 22.3232 19.0919 22.0066 19.4076L22.0059 19.4084L19.4083 22.0059L19.4075 22.0067C19.0918 22.3233 18.7168 22.5745 18.3038 22.746C17.8906 22.9176 17.4475 23.0059 17 23.0059C16.5525 23.0059 16.1094 22.9176 15.6961 22.746C15.2832 22.5745 14.9081 22.3233 14.5924 22.0067L14.5917 22.0059L1.99117 9.40544C1.35524 8.76642 0.99823 7.90158 0.99823 7.00005C0.99823 6.09852 1.35524 5.23367 1.99117 4.59465L1.99288 4.59294L4.59288 1.99294L4.59459 1.99123Z" fill="black"/>
<path fill-rule="evenodd" clip-rule="evenodd" d="M17.2071 9.79294C17.5977 10.1835 17.5977 10.8166 17.2071 11.2072L15.2071 13.2072C14.8166 13.5977 14.1834 13.5977 13.7929 13.2072C13.4024 12.8166 13.4024 12.1835 13.7929 11.7929L15.7929 9.79294C16.1834 9.40242 16.8166 9.40242 17.2071 9.79294Z" fill="black"/>
<path fill-rule="evenodd" clip-rule="evenodd" d="M14.2071 6.79294C14.5977 7.18347 14.5977 7.81663 14.2071 8.20716L12.2071 10.2072C11.8166 10.5977 11.1834 10.5977 10.7929 10.2072C10.4024 9.81663 10.4024 9.18347 10.7929 8.79294L12.7929 6.79294C13.1834 6.40242 13.8166 6.40242 14.2071 6.79294Z" fill="black"/>
<path fill-rule="evenodd" clip-rule="evenodd" d="M11.2071 3.79294C11.5977 4.18347 11.5977 4.81663 11.2071 5.20716L9.20713 7.20716C8.81661 7.59768 8.18344 7.59768 7.79292 7.20716C7.4024 6.81663 7.4024 6.18347 7.79292 5.79294L9.79292 3.79294C10.1834 3.40242 10.8166 3.40242 11.2071 3.79294Z" fill="black"/>
<path fill-rule="evenodd" clip-rule="evenodd" d="M20.2071 12.7929C20.5977 13.1835 20.5977 13.8166 20.2071 14.2072L18.2071 16.2072C17.8166 16.5977 17.1834 16.5977 16.7929 16.2072C16.4024 15.8166 16.4024 15.1835 16.7929 14.7929L18.7929 12.7929C19.1834 12.4024 19.8166 12.4024 20.2071 12.7929Z" fill="black"/>
</g>
<defs>
<clipPath id="clip0_404_39307">
<rect width="24" height="24" fill="white"/>
</clipPath>
</defs>
</svg>
