<svg width="24" height="24" viewBox="0 0 24 24" fill="none" xmlns="http://www.w3.org/2000/svg">
<path fill-rule="evenodd" clip-rule="evenodd" d="M3.47427 1.14935C3.76909 0.967144 4.13723 0.95058 4.44721 1.10557L6 1.88197L7.55279 1.10557C7.83431 0.96481 8.16569 0.96481 8.44721 1.10557L10 1.88197L11.5528 1.10557C11.8343 0.96481 12.1657 0.96481 12.4472 1.10557L14 1.88197L15.5528 1.10557C15.8343 0.96481 16.1657 0.96481 16.4472 1.10557L18 1.88197L19.5528 1.10557C19.8628 0.95058 20.2309 0.967144 20.5257 1.14935C20.8205 1.33156 21 1.65342 21 2V22C21 22.3466 20.8205 22.6684 20.5257 22.8507C20.2309 23.0329 19.8628 23.0494 19.5528 22.8944L18 22.118L16.4472 22.8944C16.1657 23.0352 15.8343 23.0352 15.5528 22.8944L14 22.118L12.4472 22.8944C12.1657 23.0352 11.8343 23.0352 11.5528 22.8944L10 22.118L8.44721 22.8944C8.16569 23.0352 7.83431 23.0352 7.55279 22.8944L6 22.118L4.44721 22.8944C4.13723 23.0494 3.76909 23.0329 3.47427 22.8507C3.17945 22.6684 3 22.3466 3 22V2C3 1.65342 3.17945 1.33156 3.47427 1.14935ZM5 3.61803V20.382L5.55279 20.1056C5.83431 19.9648 6.16569 19.9648 6.44721 20.1056L8 20.882L9.55279 20.1056C9.83431 19.9648 10.1657 19.9648 10.4472 20.1056L12 20.882L13.5528 20.1056C13.8343 19.9648 14.1657 19.9648 14.4472 20.1056L16 20.882L17.5528 20.1056C17.8343 19.9648 18.1657 19.9648 18.4472 20.1056L19 20.382V3.61803L18.4472 3.89443C18.1657 4.03519 17.8343 4.03519 17.5528 3.89443L16 3.11803L14.4472 3.89443C14.1657 4.03519 13.8343 4.03519 13.5528 3.89443L12 3.11804L10.4472 3.89443C10.1657 4.03519 9.83431 4.03519 9.55279 3.89443L8 3.11804L6.44721 3.89443C6.16569 4.03519 5.83431 4.03519 5.55279 3.89443L5 3.61803Z" fill="black"/>
<path fill-rule="evenodd" clip-rule="evenodd" d="M12 5.5C12.5523 5.5 13 5.94772 13 6.5V17.5C13 18.0523 12.5523 18.5 12 18.5C11.4477 18.5 11 18.0523 11 17.5V6.5C11 5.94772 11.4477 5.5 12 5.5Z" fill="black"/>
<path fill-rule="evenodd" clip-rule="evenodd" d="M10.228 7.30967C11.1867 6.95557 12.231 6.90379 13.2201 7.16132C14.2092 7.41884 15.0956 7.9733 15.7599 8.75C16.1189 9.1697 16.0697 9.80095 15.65 10.1599C15.2303 10.5189 14.5991 10.4697 14.2401 10.05C13.8415 9.58398 13.3096 9.25131 12.7162 9.09679C12.1227 8.94228 11.4962 8.97334 10.9209 9.1858C10.3456 9.39827 9.84931 9.78192 9.49876 10.2851C9.14821 10.7883 8.96027 11.3868 8.96027 12C8.96027 12.6132 9.14821 13.2118 9.49876 13.7149C9.84931 14.2181 10.3456 14.6017 10.9209 14.8142C11.4962 15.0267 12.1227 15.0577 12.7162 14.9032C13.3096 14.7487 13.8415 14.416 14.2401 13.95C14.5991 13.5303 15.2303 13.4811 15.65 13.8401C16.0697 14.1991 16.1189 14.8303 15.7599 15.25C15.0956 16.0267 14.2092 16.5812 13.2201 16.8387C12.231 17.0962 11.1867 17.0444 10.228 16.6903C9.26922 16.3362 8.442 15.6968 7.85775 14.8582C7.27349 14.0196 6.96027 13.0221 6.96027 12C6.96027 10.9779 7.27349 9.98042 7.85775 9.14181C8.442 8.30319 9.26922 7.66378 10.228 7.30967Z" fill="black"/>
</svg>
