<svg width="24" height="24" viewBox="0 0 24 24" fill="none" xmlns="http://www.w3.org/2000/svg">
<path fill-rule="evenodd" clip-rule="evenodd" d="M14.0902 17.3207C13.7658 17.1109 13.3876 16.9995 13.0013 17C12.449 17.0007 12.0007 16.5536 12 16.0013C11.9993 15.449 12.4464 15.0007 12.9987 15C13.7713 14.999 14.5277 15.2218 15.1764 15.6414C15.8251 16.061 16.3385 16.6595 16.6543 17.3646C16.9702 18.0697 17.0752 18.8512 16.9564 19.6146C16.8377 20.3781 16.5004 21.0908 15.9854 21.6667C15.6172 22.0783 14.985 22.1135 14.5733 21.7454C14.1617 21.3772 14.1265 20.745 14.4946 20.3333C14.7522 20.0454 14.9208 19.689 14.9802 19.3073C15.0395 18.9256 14.9871 18.5349 14.8291 18.1823C14.6712 17.8298 14.4145 17.5305 14.0902 17.3207Z" fill="black"/>
<path fill-rule="evenodd" clip-rule="evenodd" d="M17 12C17 11.4477 17.4477 11 18 11H18.01C18.5623 11 19.01 11.4477 19.01 12C19.01 12.5523 18.5623 13 18.01 13H18C17.4477 13 17 12.5523 17 12Z" fill="black"/>
<path fill-rule="evenodd" clip-rule="evenodd" d="M11 4.02012C10.7401 4.02012 10.4909 4.12336 10.3071 4.30712C10.1233 4.49089 10.0201 4.74013 10.0201 5.00002C10.0201 5.1287 10.0454 5.25612 10.0947 5.37501C10.1439 5.49389 10.2161 5.60192 10.3071 5.69291L13.9071 9.29291C14.1931 9.57891 14.2787 10.009 14.1239 10.3827C13.9691 10.7564 13.6045 11 13.2 11H13C11.4087 11 9.88258 11.6322 8.75736 12.7574C7.63214 13.8826 7 15.4087 7 17C7 17.7957 7.31607 18.5587 7.87868 19.1213C8.44129 19.6839 9.20435 20 10 20H16H18C18.5523 20 19 20.4477 19 21C19 21.5523 18.5523 22 18 22H10C8.67392 22 7.40215 21.4732 6.46447 20.5355C5.52679 19.5979 5 18.3261 5 17C5 14.8783 5.84286 12.8435 7.34315 11.3432C8.37007 10.3162 9.64744 9.59734 11.0317 9.24591L8.8929 7.10712C8.61619 6.83041 8.39669 6.50191 8.24693 6.14037C8.09718 5.77884 8.0201 5.39134 8.0201 5.00002C8.0201 4.2097 8.33406 3.45175 8.8929 2.89291C9.45173 2.33407 10.2097 2.02012 11 2.02012C11.3913 2.02012 11.7788 2.09719 12.1404 2.24695C12.5019 2.3967 12.8304 2.6162 13.1071 2.89291L16.5071 6.29291L15.8 7.00002V6.00002H16C19.8523 6.00002 23 9.14773 23 13V14C23 14.7957 22.6839 15.5587 22.1213 16.1213C21.5587 16.6839 20.7957 17 20 17H19C18.4696 17 17.9609 17.2107 17.5858 17.5858C17.2107 17.9609 17 18.4696 17 19C17 19.5523 16.5523 20 16 20C15.4477 20 15 19.5523 15 19C15 17.9391 15.4214 16.9217 16.1716 16.1716C16.9217 15.4214 17.9391 15 19 15H20C20.2652 15 20.5196 14.8947 20.7071 14.7071C20.8946 14.5196 21 14.2652 21 14V13C21 10.2523 18.7477 8.00002 16 8.00002H15.8C15.5348 8.00002 15.2804 7.89466 15.0929 7.70712L11.6929 4.30712C11.6019 4.21613 11.4939 4.14395 11.375 4.09471C11.2561 4.04546 11.1287 4.02012 11 4.02012Z" fill="black"/>
<path fill-rule="evenodd" clip-rule="evenodd" d="M15.8787 1.87868C16.4413 1.31607 17.2044 1 18 1C18.7957 1 19.5587 1.31607 20.1213 1.87868C20.6839 2.44129 21 3.20435 21 4V8.54C21 9.09228 20.5523 9.54 20 9.54C19.4477 9.54 19 9.09228 19 8.54V4C19 3.73478 18.8946 3.48043 18.7071 3.29289C18.5196 3.10536 18.2652 3 18 3C17.7348 3 17.4804 3.10536 17.2929 3.29289C17.1054 3.48043 17 3.73478 17 4V7C17 7.55228 16.5523 8.00002 16 8.00002C15.4477 8.00002 15 7.55228 15 7V4C15 3.20435 15.3161 2.44129 15.8787 1.87868Z" fill="black"/>
<path fill-rule="evenodd" clip-rule="evenodd" d="M4.68425 10.0123C5.44401 9.95212 6.20516 10.1102 6.87808 10.4681C7.55101 10.8259 8.1077 11.3685 8.48263 12.0321C8.75431 12.5129 8.58477 13.1229 8.10393 13.3946C7.62309 13.6663 7.01305 13.4968 6.74136 13.0159C6.5539 12.6842 6.27555 12.4128 5.93909 12.2339C5.60263 12.055 5.22206 11.976 4.84217 12.0061C4.46229 12.0361 4.09891 12.1741 3.79481 12.4038C3.49071 12.6334 3.25855 12.9452 3.12566 13.3023C2.99276 13.6595 2.96467 14.0472 3.04469 14.4197C3.1247 14.7923 3.30949 15.1343 3.5773 15.4054C3.84512 15.6765 4.18481 15.8654 4.55638 15.95C4.92796 16.0345 5.31596 16.0111 5.6747 15.8826C6.19462 15.6963 6.76711 15.9668 6.95339 16.4867C7.13968 17.0066 6.86921 17.5791 6.34929 17.7654C5.63181 18.0225 4.85582 18.0692 4.11267 17.9001C3.36952 17.731 2.69014 17.3532 2.15451 16.811C1.61888 16.2688 1.2493 15.5848 1.08927 14.8397C0.929241 14.0945 0.985427 13.3192 1.25121 12.6049C1.517 11.8906 1.98132 11.2671 2.58952 10.8078C3.19772 10.3485 3.92448 10.0725 4.68425 10.0123Z" fill="black"/>
</svg>
