<svg width="24" height="24" viewBox="0 0 24 24" fill="none" xmlns="http://www.w3.org/2000/svg">
<path fill-rule="evenodd" clip-rule="evenodd" d="M6 17C4.89543 17 4 17.8954 4 19C4 20.1046 4.89543 21 6 21C7.10457 21 8 20.1046 8 19C8 17.8954 7.10457 17 6 17ZM2 19C2 16.7909 3.79086 15 6 15C8.20914 15 10 16.7909 10 19C10 21.2091 8.20914 23 6 23C3.79086 23 2 21.2091 2 19Z" fill="black"/>
<path fill-rule="evenodd" clip-rule="evenodd" d="M19.7701 18.5575C19.9041 19.0933 19.5783 19.6362 19.0425 19.7701C18.6284 19.8737 18.0291 20 17.5 20H9C8.44772 20 8 19.5523 8 19C8 18.4477 8.44772 18 9 18H17.5C17.7709 18 18.1716 17.9263 18.5575 17.8299C19.0933 17.6959 19.6362 18.0217 19.7701 18.5575Z" fill="black"/>
<path fill-rule="evenodd" clip-rule="evenodd" d="M6.12523 4.82058C6.33477 5.33157 6.0904 5.91568 5.57941 6.12522C5.04454 6.34455 4.59972 6.74507 4.32249 7.26045C4.04518 7.776 3.95343 8.3735 4.06376 8.95059C4.17407 9.5276 4.47913 10.0464 4.9248 10.4195C5.36967 10.7919 5.92734 10.9964 6.50282 11H12C12.5523 11 13 11.4477 13 12C13 12.5523 12.5523 13 12 13L6.49781 13C6.49679 13 6.49577 13 6.49475 13C5.45083 12.9945 4.4423 12.6239 3.64102 11.9531C2.83992 11.2825 2.29579 10.3537 2.09934 9.32614C1.9029 8.29862 2.06581 7.23387 2.56114 6.31302C3.05656 5.392 3.85451 4.67092 4.8206 4.27476C5.33159 4.06522 5.91569 4.30959 6.12523 4.82058Z" fill="black"/>
<path fill-rule="evenodd" clip-rule="evenodd" d="M1.29289 1.29289C1.68342 0.902369 2.31658 0.902369 2.70711 1.29289L22.7071 21.2929C23.0976 21.6834 23.0976 22.3166 22.7071 22.7071C22.3166 23.0976 21.6834 23.0976 21.2929 22.7071L1.29289 2.70711C0.902369 2.31658 0.902369 1.68342 1.29289 1.29289Z" fill="black"/>
<path fill-rule="evenodd" clip-rule="evenodd" d="M16.7015 11.9444C16.7322 11.393 17.2042 10.9708 17.7556 11.0015C18.8608 11.0631 19.9046 11.5299 20.6874 12.3126C21.4701 13.0953 21.9369 14.1391 21.9984 15.2444C22.0291 15.7958 21.607 16.2677 21.0556 16.2984C20.5042 16.3291 20.0322 15.907 20.0015 15.3556C19.9673 14.7416 19.708 14.1617 19.2732 13.7268C18.8383 13.2919 18.2584 13.0326 17.6444 12.9984C17.093 12.9677 16.6708 12.4958 16.7015 11.9444Z" fill="black"/>
<path fill-rule="evenodd" clip-rule="evenodd" d="M9.7 5C9.7 4.44772 10.1477 4 10.7 4H15C15.5523 4 16 4.44772 16 5C16 5.55228 15.5523 6 15 6H10.7C10.1477 6 9.7 5.55228 9.7 5Z" fill="black"/>
<path fill-rule="evenodd" clip-rule="evenodd" d="M18 3C16.8954 3 16 3.89543 16 5C16 6.10457 16.8954 7 18 7C19.1046 7 20 6.10457 20 5C20 3.89543 19.1046 3 18 3ZM14 5C14 2.79086 15.7909 1 18 1C20.2091 1 22 2.79086 22 5C22 7.20914 20.2091 9 18 9C15.7909 9 14 7.20914 14 5Z" fill="black"/>
</svg>
