<svg width="24" height="24" viewBox="0 0 24 24" fill="none" xmlns="http://www.w3.org/2000/svg">
<path fill-rule="evenodd" clip-rule="evenodd" d="M11 5C11 4.44772 11.4477 4 12 4H18C18.7956 4 19.5587 4.31607 20.1213 4.87868C20.6839 5.44129 21 6.20435 21 7V9C21 9.55228 20.5523 10 20 10C19.4477 10 19 9.55228 19 9V7C19 6.73478 18.8946 6.48043 18.7071 6.29289C18.5196 6.10536 18.2652 6 18 6H12C11.4477 6 11 5.55228 11 5Z" fill="black"/>
<path fill-rule="evenodd" clip-rule="evenodd" d="M15.7071 1.29289C16.0976 1.68342 16.0976 2.31658 15.7071 2.70711L13.4142 5L15.7071 7.29289C16.0976 7.68342 16.0976 8.31658 15.7071 8.70711C15.3166 9.09763 14.6834 9.09763 14.2929 8.70711L11.2929 5.70711C10.9024 5.31658 10.9024 4.68342 11.2929 4.29289L14.2929 1.29289C14.6834 0.902369 15.3166 0.902369 15.7071 1.29289Z" fill="black"/>
<path fill-rule="evenodd" clip-rule="evenodd" d="M6 6C5.73478 6 5.48043 6.10536 5.29289 6.29289C5.10536 6.48043 5 6.73478 5 7V18C5 18.2652 5.10536 18.5196 5.29289 18.7071C5.48043 18.8946 5.73478 19 6 19H18C18.2652 19 18.5196 18.8946 18.7071 18.7071C18.8946 18.5196 19 18.2652 19 18V13C19 12.4477 19.4477 12 20 12C20.5523 12 21 12.4477 21 13V18C21 18.7957 20.6839 19.5587 20.1213 20.1213C19.5587 20.6839 18.7957 21 18 21H6C5.20435 21 4.44129 20.6839 3.87868 20.1213C3.31607 19.5587 3 18.7957 3 18V7C3 6.20435 3.31607 5.44129 3.87868 4.87868C4.44129 4.31607 5.20435 4 6 4H8C8.55228 4 9 4.44772 9 5C9 5.55228 8.55228 6 8 6H6Z" fill="black"/>
</svg>
