<svg width="24" height="24" viewBox="0 0 24 24" fill="none" xmlns="http://www.w3.org/2000/svg">
<path fill-rule="evenodd" clip-rule="evenodd" d="M6.48948 2.47432C8.58766 1.26127 11.0277 0.775121 13.4306 1.09139C15.8335 1.40767 18.0646 2.50866 19.7775 4.22332C20.1678 4.61405 20.1674 5.24722 19.7767 5.63753C19.386 6.02785 18.7528 6.02751 18.3625 5.63678C16.9611 4.23387 15.1356 3.33306 13.1696 3.07429C11.2036 2.81552 9.2072 3.21328 7.49051 4.20578C7.01238 4.4822 6.40069 4.31869 6.12426 3.84056C5.84784 3.36244 6.01135 2.75075 6.48948 2.47432Z" fill="black"/>
<path fill-rule="evenodd" clip-rule="evenodd" d="M3 6.00005C3 5.44776 3.44772 5.00005 4 5.00005H4.01C4.56229 5.00005 5.01 5.44776 5.01 6.00005C5.01 6.55233 4.56229 7.00005 4.01 7.00005H4C3.44772 7.00005 3 6.55233 3 6.00005Z" fill="black"/>
<path fill-rule="evenodd" clip-rule="evenodd" d="M20.9446 7.4192C21.4587 7.21738 22.039 7.47053 22.2408 7.98462C22.8729 9.59464 23.1164 11.331 22.9515 13.0528C22.7867 14.7746 22.2181 16.4332 21.292 17.894C20.3659 19.3549 19.1083 20.5767 17.6215 21.4604C16.1346 22.3441 14.4603 22.8646 12.7345 22.9799C11.0087 23.0951 9.27999 22.8018 7.68883 22.1236C6.09766 21.4455 4.68884 20.4017 3.57674 19.0769C2.46464 17.7522 1.6806 16.1839 1.28829 14.4993C0.895976 12.8147 0.906443 11.0614 1.31884 9.38161C1.45052 8.84526 1.99207 8.5172 2.52843 8.64888C3.06478 8.78056 3.39284 9.32211 3.26116 9.85847C2.92374 11.2328 2.91518 12.6674 3.23616 14.0457C3.55715 15.424 4.19863 16.7071 5.10853 17.791C6.01843 18.8749 7.17111 19.7289 8.47297 20.2837C9.77483 20.8386 11.1892 21.0786 12.6012 20.9843C14.0132 20.89 15.3831 20.4641 16.5997 19.7411C17.8162 19.0181 18.8451 18.0184 19.6028 16.8232C20.3605 15.628 20.8257 14.2709 20.9606 12.8622C21.0955 11.4534 20.8963 10.0328 20.3792 8.71547C20.1773 8.20138 20.4305 7.62102 20.9446 7.4192Z" fill="black"/>
<path fill-rule="evenodd" clip-rule="evenodd" d="M11.8092 4.99257C12.7612 4.96865 13.7081 5.13922 14.5918 5.49384C15.4756 5.84847 16.2777 6.37969 16.9491 7.055C17.3385 7.44665 17.3367 8.07981 16.945 8.4692C16.5534 8.85859 15.9202 8.85676 15.5308 8.4651C15.0513 7.98274 14.4783 7.60329 13.847 7.34999C13.2158 7.09669 12.5395 6.97485 11.8595 6.99194C11.1795 7.00902 10.5101 7.16467 9.89239 7.44935C9.27464 7.73404 8.72147 8.14177 8.26672 8.64761C7.81198 9.15345 7.46523 9.74676 7.24768 10.3912C7.03014 11.0357 6.94637 11.7178 7.00152 12.3957C7.05667 13.0737 7.24956 13.7333 7.5684 14.3341C7.88724 14.9349 8.32532 15.4644 8.85584 15.8901C9.28659 16.2357 9.35558 16.8651 9.00994 17.2959C8.6643 17.7266 8.0349 17.7956 7.60415 17.45C6.86142 16.854 6.24811 16.1128 5.80173 15.2716C5.35536 14.4304 5.08531 13.507 5.0081 12.5579C4.9309 11.6087 5.04817 10.6538 5.35273 9.75157C5.65729 8.84932 6.14275 8.01869 6.77939 7.31051C7.41603 6.60234 8.19047 6.03151 9.05533 5.63295C9.92018 5.23439 10.8573 5.01649 11.8092 4.99257Z" fill="black"/>
<path fill-rule="evenodd" clip-rule="evenodd" d="M11 18C11 17.4478 11.4477 17 12 17H12.01C12.5623 17 13.01 17.4478 13.01 18C13.01 18.5523 12.5623 19 12.01 19H12C11.4477 19 11 18.5523 11 18Z" fill="black"/>
<path fill-rule="evenodd" clip-rule="evenodd" d="M17.9329 10.6617C18.4843 10.6301 18.9568 11.0516 18.9884 11.603C19.0518 12.7129 18.85 13.822 18.3996 14.8384C17.9492 15.8548 17.2632 16.7494 16.3984 17.448C15.9687 17.795 15.3391 17.728 14.9921 17.2984C14.645 16.8688 14.712 16.2392 15.1416 15.8921C15.7594 15.3931 16.2494 14.7542 16.5711 14.0282C16.8928 13.3021 17.037 12.5099 16.9916 11.7171C16.9601 11.1657 17.3815 10.6932 17.9329 10.6617Z" fill="black"/>
<path fill-rule="evenodd" clip-rule="evenodd" d="M12 11C11.4477 11 11 11.4478 11 12C11 12.5523 11.4477 13 12 13C12.5523 13 13 12.5523 13 12C13 11.4478 12.5523 11 12 11ZM9 12C9 10.3432 10.3431 9.00005 12 9.00005C13.6569 9.00005 15 10.3432 15 12C15 13.6569 13.6569 15 12 15C10.3431 15 9 13.6569 9 12Z" fill="black"/>
<path fill-rule="evenodd" clip-rule="evenodd" d="M19.7775 4.22332C20.1678 4.61405 20.1674 5.24722 19.7767 5.63753L14.1171 11.2972C13.7266 11.6877 13.0934 11.6877 12.7029 11.2972C12.3124 10.9066 12.3124 10.2735 12.7029 9.88294L18.3629 4.22294C18.7534 3.83242 19.387 3.8328 19.7775 4.22332Z" fill="black"/>
</svg>
