<svg width="24" height="24" viewBox="0 0 24 24" fill="none" xmlns="http://www.w3.org/2000/svg">
<path fill-rule="evenodd" clip-rule="evenodd" d="M8.80437 2.52452C9.81326 2.17701 10.8936 2 12 2L12.0038 2.00001C14.7779 2.01044 17.4406 3.09289 19.4351 5.02103C19.4391 5.02495 19.4432 5.02891 19.4471 5.03289L21.7071 7.29289C22.0977 7.68342 22.0977 8.31658 21.7071 8.70711C21.3166 9.09763 20.6835 9.09763 20.2929 8.70711L18.0391 6.45326C16.4168 4.88785 14.2527 4.00897 11.9982 4C11.1052 4.0002 10.2463 4.14318 9.4557 4.41548C8.93353 4.59535 8.36441 4.31784 8.18455 3.79567C8.00469 3.27349 8.28219 2.70438 8.80437 2.52452Z" fill="black"/>
<path fill-rule="evenodd" clip-rule="evenodd" d="M2 16C2 15.4477 2.44772 15 3 15H8C8.55228 15 9 15.4477 9 16C9 16.5523 8.55228 17 8 17H4V21C4 21.5523 3.55228 22 3 22C2.44772 22 2 21.5523 2 21V16Z" fill="black"/>
<path fill-rule="evenodd" clip-rule="evenodd" d="M6.35143 4.93724C6.73955 5.33016 6.73567 5.96331 6.34276 6.35143C4.8886 7.78785 4 9.78339 4 12C4 12.5523 3.55228 13 3 13C2.44772 13 2 12.5523 2 12C2 9.23661 3.1114 6.73215 4.93724 4.92857C5.33016 4.54045 5.96331 4.54433 6.35143 4.93724Z" fill="black"/>
<path fill-rule="evenodd" clip-rule="evenodd" d="M2.29289 15.2929C2.68342 14.9024 3.31658 14.9024 3.70711 15.2929L5.96097 17.5468C7.5833 19.1122 9.74732 19.991 12.0019 20C14.2177 19.9995 16.2126 19.111 17.6486 17.6572C18.0367 17.2643 18.6698 17.2604 19.0628 17.6486C19.4557 18.0367 19.4596 18.6698 19.0714 19.0628C17.2679 20.8886 14.7634 22 12 22L11.9973 22L11.9962 22C9.22213 21.9896 6.55946 20.9071 4.56496 18.979C4.5609 18.975 4.55688 18.9711 4.55289 18.9671L2.29289 16.7071C1.90237 16.3166 1.90237 15.6834 2.29289 15.2929Z" fill="black"/>
<path fill-rule="evenodd" clip-rule="evenodd" d="M21 11C21.5523 11 22 11.4477 22 12C22 13.1064 21.823 14.1868 21.4755 15.1957C21.2957 15.7178 20.7265 15.9953 20.2044 15.8155C19.6822 15.6356 19.4047 15.0665 19.5846 14.5443C19.857 13.7532 20 12.8936 20 12C20 11.4477 20.4478 11 21 11Z" fill="black"/>
<path fill-rule="evenodd" clip-rule="evenodd" d="M21 2C21.5523 2 22 2.44772 22 3V8C22 8.55228 21.5523 9 21 9H16C15.4477 9 15 8.55228 15 8C15 7.44771 15.4477 7 16 7H20V3C20 2.44772 20.4477 2 21 2Z" fill="black"/>
<path fill-rule="evenodd" clip-rule="evenodd" d="M1.29289 1.29289C1.68342 0.902369 2.31658 0.902369 2.70711 1.29289L22.7071 21.2929C23.0976 21.6834 23.0976 22.3166 22.7071 22.7071C22.3166 23.0976 21.6834 23.0976 21.2929 22.7071L1.29289 2.70711C0.902369 2.31658 0.902369 1.68342 1.29289 1.29289Z" fill="black"/>
</svg>
