<svg width="24" height="24" viewBox="0 0 24 24" fill="none" xmlns="http://www.w3.org/2000/svg">
<path d="M2 19V5.00001C2 4.20436 2.3163 3.44152 2.87891 2.87891C3.44152 2.3163 4.20435 2.00001 5 2.00001H15C15.448 1.99923 15.8916 2.08748 16.3057 2.25879C16.7199 2.43024 17.0965 2.68159 17.4131 2.99903L21 6.58594L21.1162 6.70704C21.3799 6.99709 21.591 7.33139 21.7412 7.69434C21.9125 8.10836 22.0008 8.55196 22 9.00001V19C22 19.7957 21.6837 20.5585 21.1211 21.1211C20.5585 21.6837 19.7957 22 19 22H5C4.20435 22 3.44152 21.6837 2.87891 21.1211C2.3163 20.5585 2 19.7957 2 19ZM4 19C4 19.2652 4.10543 19.5195 4.29297 19.707C4.48051 19.8946 4.73478 20 5 20H19C19.2652 20 19.5195 19.8946 19.707 19.707C19.8946 19.5195 20 19.2652 20 19V8.99708C20.0004 8.81244 19.9641 8.6296 19.8936 8.45899C19.8229 8.28818 19.7188 8.13243 19.5879 8.00196L15.998 4.41211C15.8676 4.28117 15.7118 4.17713 15.541 4.10645C15.3704 4.03587 15.1876 3.99962 15.0029 4.00001H5C4.73479 4.00001 4.4805 4.10544 4.29297 4.29297C4.10543 4.48051 4 4.73479 4 5.00001V19Z" fill="black"/>
<path d="M14 8.00001V3.00001C14 2.44772 14.4477 2.00001 15 2.00001C15.5523 2.00001 16 2.44772 16 3.00001V8.00001H21C21.5523 8.00001 22 8.44772 22 9.00001C22 9.55229 21.5523 10 21 10H16C15.4696 10 14.961 9.78914 14.5859 9.41407C14.2109 9.039 14 8.53044 14 8.00001Z" fill="black"/>
<path d="M8.00977 12C8.56205 12 9.00977 12.4477 9.00977 13C9.00977 13.5523 8.56205 14 8.00977 14H8C7.44772 14 7 13.5523 7 13C7 12.4477 7.44772 12 8 12H8.00977Z" fill="black"/>
<path d="M16.0098 12C16.562 12 17.0098 12.4477 17.0098 13C17.0098 13.5523 16.562 14 16.0098 14H16C15.4477 14 15 13.5523 15 13C15 12.4477 15.4477 12 16 12H16.0098Z" fill="black"/>
<path d="M13.1815 15.4259C13.4984 14.9742 14.121 14.8644 14.5731 15.1807C15.0255 15.4974 15.1358 16.1209 14.8192 16.5733L14.8183 16.5743L14.8173 16.5763C14.8165 16.5773 14.8152 16.579 14.8144 16.5802C14.8127 16.5824 14.8114 16.5853 14.8095 16.588C14.8053 16.5937 14.7995 16.5999 14.7938 16.6075C14.7825 16.6228 14.7684 16.642 14.7509 16.6641C14.7158 16.7084 14.6679 16.7661 14.6073 16.8321C14.487 16.9634 14.3122 17.1339 14.0829 17.3038C13.6236 17.644 12.9195 18.0001 11.9999 18.0001C11.1188 18.0001 10.4175 17.6342 9.96865 17.3136C9.73998 17.1502 9.5605 16.9874 9.43642 16.8634C9.37398 16.8009 9.32423 16.7471 9.28799 16.7061C9.26982 16.6856 9.25457 16.6681 9.24306 16.6544C9.23741 16.6476 9.23244 16.6417 9.22842 16.6368C9.22645 16.6344 9.2251 16.6319 9.22353 16.63L9.21963 16.6261C9.22252 16.6233 9.27002 16.584 9.9999 16.0001L9.21865 16.6251C8.87364 16.1938 8.94364 15.5638 9.3749 15.2188C9.80382 14.8757 10.4291 14.9432 10.7753 15.3682L10.7851 15.38C10.7972 15.3937 10.8193 15.4181 10.8505 15.4493C10.9139 15.5127 11.0096 15.6 11.1308 15.6866C11.3819 15.866 11.681 16.0001 11.9999 16.0001C12.3803 16.0001 12.6767 15.8562 12.8925 15.6964C13.0003 15.6164 13.0812 15.5367 13.1327 15.4806C13.1579 15.453 13.1752 15.4325 13.1835 15.422L13.1815 15.4259Z" fill="black"/>
</svg>
