<svg width="24" height="24" viewBox="0 0 24 24" fill="none" xmlns="http://www.w3.org/2000/svg">
<path fill-rule="evenodd" clip-rule="evenodd" d="M12 12C12.5523 12 13 12.4477 13 13V21C13 21.5523 12.5523 22 12 22C11.4477 22 11 21.5523 11 21V13C11 12.4477 11.4477 12 12 12Z" fill="black"/>
<path fill-rule="evenodd" clip-rule="evenodd" d="M12 2C12.5523 2 13 2.44772 13 3V6C13 6.55228 12.5523 7 12 7C11.4477 7 11 6.55228 11 6V3C11 2.44772 11.4477 2 12 2Z" fill="black"/>
<path fill-rule="evenodd" clip-rule="evenodd" d="M5.99947 5H18.0004C18.7762 5.00037 19.5216 5.30124 20.0803 5.83944L22.3879 8.06C22.5815 8.24657 22.7354 8.47025 22.8406 8.71766C22.9458 8.96508 23 9.23116 23 9.5C23 9.76884 22.9458 10.0349 22.8406 10.2823C22.7354 10.5298 22.5815 10.7534 22.3879 10.94L20.0809 13.16C19.5222 13.6982 18.7762 13.9996 18.0004 14H5.99947C5.22362 13.9996 4.4781 13.6987 3.9194 13.1604C3.91925 13.1603 3.91954 13.1606 3.9194 13.1604L1.61297 10.94C1.4194 10.7534 1.26544 10.5298 1.16028 10.2823C1.05512 10.0349 1.00092 9.76884 1.00092 9.5C1.00092 9.23116 1.05512 8.96508 1.16028 8.71766C1.26544 8.47025 1.4194 8.24657 1.61297 8.06L3.91897 5.84C4.47767 5.30171 5.22362 5.00037 5.99947 5ZM17.9995 7H6.00042C6.00037 7 6.00046 7 6.00042 7C5.74178 7.00016 5.49313 7.10051 5.30692 7.28L3.00092 9.5L5.30692 11.72C5.49317 11.8995 5.74173 11.9999 6.00042 12H17.9995C18.2581 11.9999 18.5067 11.8995 18.693 11.72L21 9.5L18.693 7.28C18.5067 7.10051 18.2581 7.00016 17.9995 7C17.9995 7 17.9994 7 17.9995 7Z" fill="black"/>
</svg>
