<svg width="24" height="24" viewBox="0 0 24 24" fill="none" xmlns="http://www.w3.org/2000/svg">
<path fill-rule="evenodd" clip-rule="evenodd" d="M5 4C4.73478 4 4.48043 4.10536 4.29289 4.29289C4.10536 4.48043 4 4.73478 4 5V7C4 7.55228 3.55228 8 3 8C2.44772 8 2 7.55228 2 7V5C2 4.20435 2.31607 3.44129 2.87868 2.87868C3.44129 2.31607 4.20435 2 5 2H7C7.55228 2 8 2.44772 8 3C8 3.55228 7.55228 4 7 4H5Z" fill="black"/>
<path fill-rule="evenodd" clip-rule="evenodd" d="M16 3C16 2.44772 16.4477 2 17 2H19C19.7957 2 20.5587 2.31607 21.1213 2.87868C21.6839 3.44129 22 4.20435 22 5V7C22 7.55228 21.5523 8 21 8C20.4477 8 20 7.55228 20 7V5C20 4.73478 19.8946 4.48043 19.7071 4.29289C19.5196 4.10536 19.2652 4 19 4H17C16.4477 4 16 3.55228 16 3Z" fill="black"/>
<path fill-rule="evenodd" clip-rule="evenodd" d="M21 16C21.5523 16 22 16.4477 22 17V19C22 19.7957 21.6839 20.5587 21.1213 21.1213C20.5587 21.6839 19.7957 22 19 22H17C16.4477 22 16 21.5523 16 21C16 20.4477 16.4477 20 17 20H19C19.2652 20 19.5196 19.8946 19.7071 19.7071C19.8946 19.5196 20 19.2652 20 19V17C20 16.4477 20.4477 16 21 16Z" fill="black"/>
<path fill-rule="evenodd" clip-rule="evenodd" d="M3 16C3.55228 16 4 16.4477 4 17V19C4 19.2652 4.10536 19.5196 4.29289 19.7071C4.48043 19.8946 4.73478 20 5 20H7C7.55228 20 8 20.4477 8 21C8 21.5523 7.55228 22 7 22H5C4.20435 22 3.44129 21.6839 2.87868 21.1213C2.31607 20.5587 2 19.7957 2 19V17C2 16.4477 2.44772 16 3 16Z" fill="black"/>
<path fill-rule="evenodd" clip-rule="evenodd" d="M10 12C10 10.8954 10.8954 10 12 10C13.1046 10 14 10.8954 14 12C14 13.1046 13.1046 14 12 14C10.8954 14 10 13.1046 10 12Z" fill="black"/>
<path fill-rule="evenodd" clip-rule="evenodd" d="M7.25922 7.44878C8.66088 6.50692 10.3113 6.00391 12 6.00391C13.6887 6.00391 15.3392 6.50692 16.7408 7.44878C18.1425 8.39064 19.2318 9.72866 19.8699 11.2922C19.8763 11.308 19.8824 11.3239 19.888 11.34C20.0374 11.7673 20.0374 12.2327 19.888 12.66C19.8824 12.6761 19.8763 12.6921 19.8699 12.7079C19.2318 14.2714 18.1425 15.6094 16.7408 16.5513C15.3392 17.4931 13.6887 17.9962 12 17.9962C10.3113 17.9962 8.66087 17.4931 7.25922 16.5513C5.85757 15.6094 4.76823 14.2714 4.13015 12.7079C4.12371 12.6921 4.11767 12.6761 4.11204 12.66C3.96265 12.2327 3.96265 11.7673 4.11204 11.34C4.11767 11.3239 4.12371 11.308 4.13015 11.2922C4.76823 9.72866 5.85757 8.39064 7.25922 7.44878ZM12 8.00391C10.7087 8.00391 9.44656 8.38856 8.3747 9.10881C7.31718 9.81943 6.49214 10.8249 6.00164 12C6.49214 13.1751 7.31718 14.1806 8.3747 14.8912C9.44656 15.6115 10.7087 15.9962 12 15.9962C13.2914 15.9962 14.5535 15.6115 15.6253 14.8912C16.6829 14.1806 17.5079 13.1751 17.9984 12C17.5079 10.8249 16.6829 9.81943 15.6253 9.10881C14.5535 8.38856 13.2914 8.00391 12 8.00391Z" fill="black"/>
</svg>
