<svg width="24" height="24" viewBox="0 0 24 24" fill="none" xmlns="http://www.w3.org/2000/svg">
<path fill-rule="evenodd" clip-rule="evenodd" d="M3.29289 3.29289C3.68342 2.90237 4.31658 2.90237 4.70711 3.29289L7.20711 5.79289C7.59763 6.18342 7.59763 6.81658 7.20711 7.20711C6.81658 7.59763 6.18342 7.59763 5.79289 7.20711L3.29289 4.70711C2.90237 4.31658 2.90237 3.68342 3.29289 3.29289Z" fill="black"/>
<path fill-rule="evenodd" clip-rule="evenodd" d="M10.0053 4.08539C11.5729 4.07747 13.0803 4.68852 14.1999 5.78574C14.5944 6.1723 14.6008 6.80544 14.2142 7.19989C13.8277 7.59433 13.1945 7.60073 12.8001 7.21417C12.0568 6.48576 11.0561 6.08011 10.0154 6.08536C8.97472 6.09062 7.97816 6.50636 7.24228 7.24224C6.5064 7.97812 6.09066 8.97468 6.0854 10.0154C6.08015 11.056 6.4858 12.0568 7.21421 12.8C7.60077 13.1945 7.59437 13.8276 7.19992 14.2142C6.80548 14.6007 6.17234 14.5943 5.78578 14.1999C4.68856 13.0803 4.07751 11.5729 4.08543 10.0053C4.09334 8.43765 4.71959 6.93651 5.82807 5.82803C6.93655 4.71955 8.43769 4.09331 10.0053 4.08539Z" fill="black"/>
<path fill-rule="evenodd" clip-rule="evenodd" d="M15.7071 4.29289C16.0976 4.68342 16.0976 5.31658 15.7071 5.70711L5.70711 15.7071C5.31658 16.0976 4.68342 16.0976 4.29289 15.7071C3.90237 15.3166 3.90237 14.6834 4.29289 14.2929L14.2929 4.29289C14.6834 3.90237 15.3166 3.90237 15.7071 4.29289Z" fill="black"/>
<path fill-rule="evenodd" clip-rule="evenodd" d="M14 16C14.5523 16 15 16.4477 15 17V17.01C15 17.5623 14.5523 18.01 14 18.01C13.4477 18.01 13 17.5623 13 17.01V17C13 16.4477 13.4477 16 14 16Z" fill="black"/>
<path fill-rule="evenodd" clip-rule="evenodd" d="M10 15C10.5523 15 11 15.4477 11 16V16.01C11 16.5623 10.5523 17.01 10 17.01C9.44772 17.01 9 16.5623 9 16.01V16C9 15.4477 9.44772 15 10 15Z" fill="black"/>
<path fill-rule="evenodd" clip-rule="evenodd" d="M13 12C13.5523 12 14 12.4477 14 13V13.01C14 13.5623 13.5523 14.01 13 14.01C12.4477 14.01 12 13.5623 12 13.01V13C12 12.4477 12.4477 12 13 12Z" fill="black"/>
<path fill-rule="evenodd" clip-rule="evenodd" d="M16 9C16.5523 9 17 9.44772 17 10V10.01C17 10.5623 16.5523 11.01 16 11.01C15.4477 11.01 15 10.5623 15 10.01V10C15 9.44772 15.4477 9 16 9Z" fill="black"/>
<path fill-rule="evenodd" clip-rule="evenodd" d="M11 19C11.5523 19 12 19.4477 12 20V20.01C12 20.5623 11.5523 21.01 11 21.01C10.4477 21.01 10 20.5623 10 20.01V20C10 19.4477 10.4477 19 11 19Z" fill="black"/>
<path fill-rule="evenodd" clip-rule="evenodd" d="M17 13C17.5523 13 18 13.4477 18 14V14.01C18 14.5623 17.5523 15.01 17 15.01C16.4477 15.01 16 14.5623 16 14.01V14C16 13.4477 16.4477 13 17 13Z" fill="black"/>
<path fill-rule="evenodd" clip-rule="evenodd" d="M20 10C20.5523 10 21 10.4477 21 11V11.01C21 11.5623 20.5523 12.01 20 12.01C19.4477 12.01 19 11.5623 19 11.01V11C19 10.4477 19.4477 10 20 10Z" fill="black"/>
</svg>
