<svg width="24" height="24" viewBox="0 0 24 24" fill="none" xmlns="http://www.w3.org/2000/svg">
<path d="M20 5C20 4.44772 19.5523 4 19 4H5C4.44772 4 4 4.44772 4 5V19C4 19.5523 4.44772 20 5 20H19C19.5523 20 20 19.5523 20 19V5ZM22 19C22 20.6569 20.6569 22 19 22H5C3.34315 22 2 20.6569 2 19V5C2 3.34315 3.34315 2 5 2H19C20.6569 2 22 3.34315 22 5V19Z" fill="black"/>
<path d="M15 11.999L10.0029 9.00191L10 8.99995V15L10.0029 14.998L15 12.0009L15.002 12L15 11.999ZM17.002 12C17.002 12.3463 16.9123 12.6871 16.7412 12.9882C16.5705 13.2887 16.324 13.5385 16.0274 13.7158L16.0283 13.7167L11.0313 16.7138L11.0303 16.7128C10.7271 16.8952 10.3812 16.9951 10.0274 17C9.67244 17.0048 9.32249 16.9152 9.01369 16.7402C8.70477 16.5651 8.44769 16.3101 8.26955 16.0029C8.09161 15.6959 7.99862 15.347 8.00002 14.9921V9.00288C7.9995 8.64902 8.09275 8.30108 8.27052 7.99507C8.44881 7.68822 8.70585 7.43458 9.01466 7.25972C9.32351 7.08484 9.67345 6.99496 10.0283 6.99995C10.3819 7.00496 10.7273 7.10481 11.0303 7.28706L11.0313 7.28609L16.0264 10.2822L16.1348 10.3515C16.3837 10.5226 16.5914 10.7481 16.7412 11.0117C16.9123 11.3128 17.002 11.6536 17.002 12Z" fill="black"/>
</svg>
