<svg width="24" height="24" viewBox="0 0 24 24" fill="none" xmlns="http://www.w3.org/2000/svg">
<path d="M12.0111 5.99995C12.4373 6.00535 12.8506 6.14741 13.1908 6.40424C13.5017 6.63899 13.7354 6.95906 13.8666 7.32416L14.5717 8.71284L16.1605 8.96088C16.5442 8.98249 16.9142 9.1136 17.226 9.34077C17.566 9.58867 17.8193 9.93771 17.9496 10.3378C18.0799 10.7379 18.0804 11.1687 17.9515 11.5693C17.8336 11.9359 17.6115 12.2586 17.3148 12.5019L16.1742 13.6396L16.4213 15.1865C16.5295 15.5601 16.5284 15.9577 16.4135 16.331C16.2873 16.7407 16.0322 17.0994 15.6869 17.3535C15.3417 17.6074 14.924 17.7435 14.4955 17.7421C14.1029 17.7409 13.7205 17.6237 13.3949 17.4072L11.9838 16.6845L10.5619 17.4111C10.2376 17.6235 9.85849 17.7397 9.46912 17.7402C9.04186 17.7406 8.62572 17.6039 8.28162 17.3505C7.93745 17.0971 7.68351 16.7402 7.55701 16.332C7.44204 15.9609 7.43853 15.5654 7.54432 15.1933L7.79334 13.6406L6.68201 12.5312C6.37749 12.2932 6.14679 11.9726 6.02088 11.6054C5.88261 11.2021 5.87664 10.7652 6.00428 10.3583C6.13204 9.95139 6.38673 9.59573 6.73084 9.3437C7.04577 9.11309 7.42073 8.98101 7.80897 8.96088L9.39295 8.71284L10.1195 7.28413C10.2594 6.91947 10.502 6.60231 10.8207 6.37397C11.1673 6.12573 11.5848 5.99459 12.0111 5.99995ZM11.9262 8.14252L11.1762 9.61909C11.0327 9.90129 10.8249 10.146 10.5687 10.332C10.3766 10.4715 10.1614 10.5748 9.93397 10.6386L9.70252 10.6894L8.06971 10.9453L7.91248 10.957L7.98377 11.0107C8.00654 11.0297 8.02819 11.0503 8.0492 11.0712L9.20545 12.2236C9.4298 12.447 9.59666 12.7204 9.69471 13.0214C9.79272 13.3224 9.81868 13.6424 9.76893 13.955L9.51014 15.5693C9.5055 15.5982 9.4997 15.6269 9.49256 15.6552L9.46717 15.7402L9.60584 15.6542L11.0707 14.9042L11.2885 14.8085C11.5101 14.7264 11.7452 14.6836 11.9828 14.6835C12.2999 14.6835 12.6126 14.7596 12.8949 14.9042L14.3597 15.6542L14.5023 15.7421C14.4824 15.6857 14.4669 15.6274 14.4574 15.5683L14.1986 13.956V13.954C14.1488 13.6414 14.1738 13.3215 14.2719 13.0205C14.3699 12.7195 14.5378 12.446 14.7621 12.2226L15.934 11.0546C15.9695 11.0193 16.0078 10.9866 16.0482 10.957C15.9977 10.9568 15.9468 10.9531 15.8969 10.9453L14.2631 10.6894C13.9505 10.6405 13.6539 10.5178 13.3978 10.332C13.2056 10.1924 13.0397 10.0198 12.9086 9.82319L12.7894 9.61909L12.0521 8.16694C12.025 8.11349 12.0029 8.05738 11.9857 7.99995C11.9697 8.049 11.9495 8.09652 11.9262 8.14252Z" fill="black"/>
<path d="M20 5C20 4.44772 19.5523 4 19 4H5C4.44772 4 4 4.44772 4 5V19C4 19.5523 4.44772 20 5 20H19C19.5523 20 20 19.5523 20 19V5ZM22 19C22 20.6569 20.6569 22 19 22H5C3.34315 22 2 20.6569 2 19V5C2 3.34315 3.34315 2 5 2H19C20.6569 2 22 3.34315 22 5V19Z" fill="black"/>
</svg>
