<svg width="24" height="24" viewBox="0 0 24 24" fill="none" xmlns="http://www.w3.org/2000/svg">
<path d="M19 5.99951C16.6805 5.99951 13.9706 4.66292 12.1104 3.03955C12.0796 3.01346 12.0403 2.99951 12 2.99951C11.9595 2.99951 11.9204 3.01423 11.8896 3.04053L11.8887 3.03955C10.0393 4.65195 7.32008 5.99951 5 5.99951V12.9995C5 15.2352 5.7706 16.8607 6.98633 18.106C8.22945 19.3791 9.98355 20.2996 11.9961 20.9946C12.0034 20.9971 12.0113 20.9988 12.0186 21.0015C14.0236 20.3017 15.7728 19.381 17.0137 18.1079C18.229 16.861 19 15.2354 19 12.9995V5.99951ZM21 12.9995C21 15.7636 20.021 17.8888 18.4463 19.5044C16.8988 21.0921 14.8204 22.1441 12.6689 22.894L12.6611 22.897C12.233 23.042 11.7688 23.0368 11.3438 22.8843C11.3379 22.8822 11.3321 22.8805 11.3262 22.8784C11.3246 22.8778 11.3228 22.878 11.3213 22.8774C9.17204 22.1329 7.09956 21.0846 5.55566 19.5034C3.97919 17.8888 3 15.7635 3 12.9995V5.99951C3.00012 5.46924 3.21097 4.96042 3.58594 4.58545C3.96099 4.21052 4.46967 3.99951 5 3.99951C6.67637 3.99951 8.95154 2.95117 10.582 1.52686L10.5908 1.52002C10.9837 1.18434 11.4832 0.999512 12 0.999512C12.5168 0.999512 13.0163 1.18434 13.4092 1.52002L13.418 1.52686C15.0575 2.96026 17.3229 3.99951 19 3.99951C19.5303 3.99951 20.039 4.21052 20.4141 4.58545C20.789 4.96042 20.9999 5.46924 21 5.99951V12.9995Z" fill="black"/>
<path d="M12.002 14.0007C13.4306 14.0011 14.8253 14.4388 15.9981 15.2546C17.1707 16.0705 18.0655 17.2259 18.5625 18.5652C18.7546 19.0829 18.4904 19.6582 17.9727 19.8503C17.455 20.0424 16.8797 19.7782 16.6875 19.2605C16.3324 18.304 15.6931 17.4789 14.8555 16.8962C14.0178 16.3134 13.0215 16.001 12.001 16.0007C10.9806 16.0005 9.98444 16.313 9.14651 16.8953C8.30867 17.4776 7.66904 18.3021 7.3135 19.2585C7.12104 19.7762 6.54502 20.0398 6.02737 19.8474C5.50977 19.6549 5.24607 19.0789 5.4385 18.5613C5.93628 17.2224 6.83196 16.0679 8.00491 15.2527C9.17811 14.4374 10.5733 14.0003 12.002 14.0007Z" fill="black"/>
<path d="M15 11C15 9.34311 13.6569 7.99996 12 7.99996C10.3431 7.99996 9 9.34311 9 11C9 12.6568 10.3431 14 12 14C13.6569 14 15 12.6568 15 11ZM17 11C17 13.7614 14.7614 16 12 16C9.23858 16 7 13.7614 7 11C7 8.23854 9.23858 5.99996 12 5.99996C14.7614 5.99996 17 8.23854 17 11Z" fill="black"/>
</svg>
