<svg width="24" height="24" viewBox="0 0 24 24" fill="none" xmlns="http://www.w3.org/2000/svg">
<path fill-rule="evenodd" clip-rule="evenodd" d="M12 9C10.3431 9 9 10.3431 9 12C9 13.6569 10.3431 15 12 15C13.6569 15 15 13.6569 15 12C15 10.3431 13.6569 9 12 9ZM7 12C7 9.23858 9.23858 7 12 7C14.7614 7 17 9.23858 17 12C17 14.7614 14.7614 17 12 17C9.23858 17 7 14.7614 7 12Z" fill="black"/>
<path fill-rule="evenodd" clip-rule="evenodd" d="M12 2C12.5523 2 13 2.44772 13 3V4C13 4.55228 12.5523 5 12 5C11.4477 5 11 4.55228 11 4V3C11 2.44772 11.4477 2 12 2Z" fill="black"/>
<path fill-rule="evenodd" clip-rule="evenodd" d="M12 19C12.5523 19 13 19.4477 13 20V21C13 21.5523 12.5523 22 12 22C11.4477 22 11 21.5523 11 21V20C11 19.4477 11.4477 19 12 19Z" fill="black"/>
<path fill-rule="evenodd" clip-rule="evenodd" d="M2 12C2 11.4477 2.44772 11 3 11H4C4.55228 11 5 11.4477 5 12C5 12.5523 4.55228 13 4 13H3C2.44772 13 2 12.5523 2 12Z" fill="black"/>
<path fill-rule="evenodd" clip-rule="evenodd" d="M19 12C19 11.4477 19.4477 11 20 11H21C21.5523 11 22 11.4477 22 12C22 12.5523 21.5523 13 21 13H20C19.4477 13 19 12.5523 19 12Z" fill="black"/>
<path fill-rule="evenodd" clip-rule="evenodd" d="M19.0711 4.92891C19.4616 5.31943 19.4616 5.9526 19.0711 6.34312L18.3641 7.05012C17.9736 7.44065 17.3404 7.44065 16.9499 7.05012C16.5594 6.6596 16.5594 6.02643 16.9499 5.63591L17.6569 4.92891C18.0474 4.53838 18.6806 4.53838 19.0711 4.92891Z" fill="black"/>
<path fill-rule="evenodd" clip-rule="evenodd" d="M7.0501 16.9498C7.44063 17.3404 7.44063 17.9735 7.0501 18.3641L6.3431 19.0711C5.95258 19.4616 5.31941 19.4616 4.92889 19.0711C4.53836 18.6805 4.53836 18.0474 4.92889 17.6568L5.63589 16.9498C6.02641 16.5593 6.65958 16.5593 7.0501 16.9498Z" fill="black"/>
<path fill-rule="evenodd" clip-rule="evenodd" d="M4.92889 4.92891C5.31941 4.53838 5.95258 4.53838 6.3431 4.92891L7.0501 5.63591C7.44063 6.02643 7.44063 6.6596 7.0501 7.05012C6.65958 7.44065 6.02641 7.44065 5.63589 7.05012L4.92889 6.34312C4.53836 5.9526 4.53836 5.31943 4.92889 4.92891Z" fill="black"/>
<path fill-rule="evenodd" clip-rule="evenodd" d="M16.9499 16.9498C17.3404 16.5593 17.9736 16.5593 18.3641 16.9498L19.0711 17.6568C19.4616 18.0474 19.4616 18.6805 19.0711 19.0711C18.6806 19.4616 18.0474 19.4616 17.6569 19.0711L16.9499 18.3641C16.5594 17.9735 16.5594 17.3404 16.9499 16.9498Z" fill="black"/>
</svg>
