<svg width="24" height="24" viewBox="0 0 24 24" fill="none" xmlns="http://www.w3.org/2000/svg">
<path d="M15.2929 15.2926C15.6834 14.9021 16.3164 14.9021 16.707 15.2926C17.0975 15.6832 17.0975 16.3162 16.707 16.7067L12.707 20.7067C12.3164 21.0972 11.6834 21.0972 11.2929 20.7067L7.29289 16.7067C6.90237 16.3162 6.90237 15.6832 7.29289 15.2926C7.68342 14.9021 8.31643 14.9021 8.70696 15.2926L11.9999 18.5856L15.2929 15.2926Z" fill="black"/>
<path d="M21 10.9998C21.5523 10.9998 22 11.4475 22 11.9998C22 12.552 21.5523 12.9998 21 12.9998H3C2.44772 12.9998 2 12.552 2 11.9998C2 11.4475 2.44772 10.9998 3 10.9998H21Z" fill="black"/>
<path d="M11.3691 3.22437C11.7618 2.90402 12.3408 2.92662 12.707 3.29273L16.707 7.29273C17.0975 7.68326 17.0975 8.31627 16.707 8.7068C16.3164 9.09732 15.6834 9.09732 15.2929 8.7068L11.9999 5.41383L8.70696 8.7068C8.31643 9.09732 7.68342 9.09732 7.29289 8.7068C6.90237 8.31627 6.90237 7.68326 7.29289 7.29273L11.2929 3.29273L11.3691 3.22437Z" fill="black"/>
</svg>
