<svg width="24" height="24" viewBox="0 0 24 24" fill="none" xmlns="http://www.w3.org/2000/svg">
<path d="M14 16C14.5523 16 15 16.4477 15 17C15 17.5523 14.5523 18 14 18H5C4.44772 18 4 17.5523 4 17C4 16.4477 4.44772 16 5 16H14Z" fill="black"/>
<path d="M19 6C19.5523 6 20 6.44772 20 7C20 7.55228 19.5523 8 19 8H10C9.44772 8 9 7.55228 9 7C9 6.44772 9.44772 6 10 6H19Z" fill="black"/>
<path d="M19 17C19 15.8954 18.1046 15 17 15C15.8954 15 15 15.8954 15 17C15 18.1046 15.8954 19 17 19C18.1046 19 19 18.1046 19 17ZM21 17C21 19.2091 19.2091 21 17 21C14.7909 21 13 19.2091 13 17C13 14.7909 14.7909 13 17 13C19.2091 13 21 14.7909 21 17Z" fill="black"/>
<path d="M9 7C9 5.89543 8.10457 5 7 5C5.89543 5 5 5.89543 5 7C5 8.10457 5.89543 9 7 9C8.10457 9 9 8.10457 9 7ZM11 7C11 9.20914 9.20914 11 7 11C4.79086 11 3 9.20914 3 7C3 4.79086 4.79086 3 7 3C9.20914 3 11 4.79086 11 7Z" fill="black"/>
</svg>
