<svg width="24" height="24" viewBox="0 0 24 24" fill="none" xmlns="http://www.w3.org/2000/svg">
<path fill-rule="evenodd" clip-rule="evenodd" d="M6 2C6 1.44772 6.44772 1 7 1H20C20.7957 1 21.5587 1.31607 22.1213 1.87868C22.6839 2.44129 23 3.20435 23 4V8C23 8.79565 22.6839 9.55871 22.1213 10.1213C21.5587 10.6839 20.7957 11 20 11H15C14.4477 11 14 10.5523 14 10C14 9.44771 14.4477 9 15 9H20C20.2652 9 20.5196 8.89464 20.7071 8.70711C20.8946 8.51957 21 8.26522 21 8V4C21 3.73478 20.8946 3.48043 20.7071 3.29289C20.5196 3.10536 20.2652 3 20 3H7C6.44772 3 6 2.55228 6 2Z" fill="black"/>
<path fill-rule="evenodd" clip-rule="evenodd" d="M2.85715 1.50845C3.00542 1.59922 3.12569 1.71142 3.20714 1.79286L10.7071 9.29286C10.9931 9.57886 11.0787 10.009 10.9239 10.3827C10.7691 10.7563 10.4045 11 10 11H4.00003C3.20438 11 2.44132 10.6839 1.87871 10.1213C1.3161 9.55868 1.00003 8.79562 1.00003 7.99997V4.99997C1.00003 4.94525 1.00002 4.8912 1.00002 4.83784C0.999843 3.73108 0.999716 2.91911 1.07614 2.46057C1.09754 2.33219 1.13689 2.14644 1.22768 1.96487C1.31966 1.78089 1.54448 1.45181 1.99404 1.35191C2.40544 1.26049 2.72644 1.42842 2.85715 1.50845ZM3.00051 4.41466C3.00014 4.5928 3.00003 4.78745 3.00003 4.99997V7.99997C3.00003 8.26519 3.10539 8.51954 3.29293 8.70708C3.48046 8.89461 3.73482 8.99997 4.00003 8.99997H7.58582L3.00051 4.41466Z" fill="black"/>
<path fill-rule="evenodd" clip-rule="evenodd" d="M18 14C18 13.4477 18.4477 13 19 13H20C20.7957 13 21.5587 13.3161 22.1213 13.8787C22.6839 14.4413 23 15.2043 23 16V17C23 17.5523 22.5523 18 22 18C21.4477 18 21 17.5523 21 17V16C21 15.7348 20.8946 15.4804 20.7071 15.2929C20.5196 15.1054 20.2652 15 20 15H19C18.4477 15 18 14.5523 18 14Z" fill="black"/>
<path fill-rule="evenodd" clip-rule="evenodd" d="M1.87868 13.8787C2.44129 13.3161 3.20435 13 4 13H14C14.2652 13 14.5196 13.1054 14.7071 13.2929L22.207 20.7928C22.207 20.7928 22.2071 20.7928 22.207 20.7928L22.7071 21.2929C23.0976 21.6834 23.0976 22.3166 22.7071 22.7071C22.3198 23.0944 21.6939 23.0976 21.3026 22.7167L20.9472 22.8944C20.8084 22.9639 20.6552 23 20.5 23H4C3.20435 23 2.44129 22.6839 1.87868 22.1213C1.31607 21.5587 1 20.7956 1 20V16C1 15.2044 1.31607 14.4413 1.87868 13.8787ZM19.5858 21L13.5858 15H4C3.73478 15 3.48043 15.1054 3.29289 15.2929C3.10536 15.4804 3 15.7348 3 16V20C3 20.2652 3.10536 20.5196 3.29289 20.7071C3.48043 20.8946 3.73478 21 4 21H19.5858Z" fill="black"/>
<path fill-rule="evenodd" clip-rule="evenodd" d="M5 18C5 17.4477 5.44772 17 6 17H6.01C6.56228 17 7.01 17.4477 7.01 18C7.01 18.5523 6.56228 19 6.01 19H6C5.44772 19 5 18.5523 5 18Z" fill="black"/>
<path fill-rule="evenodd" clip-rule="evenodd" d="M1.29289 1.29289C1.68342 0.902369 2.31658 0.902369 2.70711 1.29289L22.7071 21.2929C23.0976 21.6834 23.0976 22.3166 22.7071 22.7071C22.3166 23.0976 21.6834 23.0976 21.2929 22.7071L1.29289 2.70711C0.902369 2.31658 0.902369 1.68342 1.29289 1.29289Z" fill="black"/>
</svg>
