<svg width="24" height="24" viewBox="0 0 24 24" fill="none" xmlns="http://www.w3.org/2000/svg">
<path fill-rule="evenodd" clip-rule="evenodd" d="M4.71289 8.71289C5.10342 8.32237 5.73658 8.32237 6.12711 8.71289L8.70711 11.2929C9.09763 11.6834 9.09763 12.3166 8.70711 12.7071C8.31658 13.0976 7.68342 13.0976 7.29289 12.7071L4.71289 10.1271C4.32237 9.73658 4.32237 9.10342 4.71289 8.71289Z" fill="black"/>
<path fill-rule="evenodd" clip-rule="evenodd" d="M4 7C3.44772 7 3 7.44772 3 8C3 8.55228 3.44772 9 4 9C4.55228 9 5 8.55228 5 8C5 7.44772 4.55228 7 4 7ZM1 8C1 6.34315 2.34315 5 4 5C5.65685 5 7 6.34315 7 8C7 9.65685 5.65685 11 4 11C2.34315 11 1 9.65685 1 8Z" fill="black"/>
<path fill-rule="evenodd" clip-rule="evenodd" d="M14.7071 5.29289C15.0976 5.68342 15.0976 6.31658 14.7071 6.70711L6.12711 15.2871C5.73658 15.6776 5.10342 15.6776 4.71289 15.2871C4.32237 14.8966 4.32237 14.2634 4.71289 13.8729L13.2929 5.29289C13.6834 4.90237 14.3166 4.90237 14.7071 5.29289Z" fill="black"/>
<path fill-rule="evenodd" clip-rule="evenodd" d="M4 15C3.44772 15 3 15.4477 3 16C3 16.5523 3.44772 17 4 17C4.55228 17 5 16.5523 5 16C5 15.4477 4.55228 15 4 15ZM1 16C1 14.3431 2.34315 13 4 13C5.65685 13 7 14.3431 7 16C7 17.6569 5.65685 19 4 19C2.34315 19 1 17.6569 1 16Z" fill="black"/>
<path fill-rule="evenodd" clip-rule="evenodd" d="M10.0929 14.0929C10.4834 13.7024 11.1166 13.7024 11.5071 14.0929L14.7071 17.2929C15.0976 17.6834 15.0976 18.3166 14.7071 18.7071C14.3166 19.0976 13.6834 19.0976 13.2929 18.7071L10.0929 15.5071C9.70237 15.1166 9.70237 14.4834 10.0929 14.0929Z" fill="black"/>
<path fill-rule="evenodd" clip-rule="evenodd" d="M13 12C13 11.4477 13.4477 11 14 11H16C16.5523 11 17 11.4477 17 12C17 12.5523 16.5523 13 16 13H14C13.4477 13 13 12.5523 13 12Z" fill="black"/>
<path fill-rule="evenodd" clip-rule="evenodd" d="M19 12C19 11.4477 19.4477 11 20 11H22C22.5523 11 23 11.4477 23 12C23 12.5523 22.5523 13 22 13H20C19.4477 13 19 12.5523 19 12Z" fill="black"/>
</svg>
