<svg width="24" height="24" viewBox="0 0 24 24" fill="none" xmlns="http://www.w3.org/2000/svg">
<path fill-rule="evenodd" clip-rule="evenodd" d="M5 4C4.44772 4 4 4.44772 4 5V19C4 19.5523 4.44772 20 5 20H19C19.5523 20 20 19.5523 20 19V5C20 4.44772 19.5523 4 19 4H5ZM2 5C2 3.34315 3.34315 2 5 2H19C20.6569 2 22 3.34315 22 5V19C22 20.6569 20.6569 22 19 22H5C3.34315 22 2 20.6569 2 19V5Z" fill="black"/>
<path fill-rule="evenodd" clip-rule="evenodd" d="M7.09871 6.56681C7.26523 6.22035 7.6156 6 8.00001 6H16C16.5523 6 17 6.44772 17 7V8.9C17 9.45228 16.5523 9.9 16 9.9C15.4477 9.9 15 9.45228 15 8.9V8H10.0806L12.7809 11.3753C13.0731 11.7405 13.0731 12.2595 12.7809 12.6247L10.0806 16H15V15.1C15 14.5477 15.4477 14.1 16 14.1C16.5523 14.1 17 14.5477 17 15.1V17C17 17.5523 16.5523 18 16 18H8.00001C7.6156 18 7.26523 17.7797 7.09871 17.4332C6.93219 17.0867 6.979 16.6755 7.21914 16.3753L10.7194 12L7.21914 7.62469C6.979 7.32452 6.93219 6.91328 7.09871 6.56681Z" fill="black"/>
</svg>
