<svg width="24" height="24" viewBox="0 0 24 24" fill="none" xmlns="http://www.w3.org/2000/svg">
<path d="M20 20.0002V4.00024C20 3.44796 20.4477 3.00024 21 3.00024C21.5523 3.00024 22 3.44796 22 4.00024V20.0002C22 20.5525 21.5523 21.0002 21 21.0002C20.4477 21.0002 20 20.5525 20 20.0002Z" fill="black"/>
<path d="M5.03809 3.00024C5.56886 3.00698 6.08878 3.15487 6.54395 3.42797L16.5439 9.42797C16.9884 9.6947 17.3561 10.0725 17.6113 10.5237C17.8665 10.9749 18.0005 11.4847 18 12.0032C17.9995 12.5216 17.8644 13.0309 17.6084 13.4817C17.3523 13.9325 16.9841 14.3095 16.5391 14.5754L16.5381 14.5745L6.54395 20.5725C6.08878 20.8456 5.56886 20.9935 5.03809 21.0002C4.50724 21.0069 3.98347 20.8722 3.52148 20.6106C3.0597 20.349 2.67549 19.9695 2.4082 19.511C2.14089 19.0524 1.99999 18.5311 2 18.0002V6.00024C2 5.46941 2.14088 4.9481 2.4082 4.4895C2.6755 4.03099 3.05969 3.65145 3.52148 3.38989C3.98347 3.12832 4.50724 2.99354 5.03809 3.00024ZM4 18.0002C4 18.1772 4.04662 18.3513 4.13574 18.5041C4.22479 18.6569 4.35303 18.7832 4.50684 18.8704C4.66083 18.9575 4.83575 19.0025 5.0127 19.0002C5.18962 18.998 5.36292 18.9487 5.51465 18.8577L15.5117 12.8596L15.5127 12.8586C15.6611 12.77 15.7847 12.6447 15.8701 12.4944C15.9555 12.3441 15.9998 12.174 16 12.0012C16.0001 11.8284 15.9552 11.6585 15.8701 11.5081C15.785 11.3577 15.6628 11.2317 15.5146 11.1428L5.51465 5.14282C5.36293 5.05178 5.18962 5.00248 5.0127 5.00024C4.83575 4.99801 4.66083 5.04293 4.50684 5.13012C4.35303 5.21729 4.22479 5.3436 4.13574 5.49633C4.04662 5.64921 4 5.82328 4 6.00024V18.0002Z" fill="black"/>
</svg>
