<svg width="24" height="24" viewBox="0 0 24 24" fill="none" xmlns="http://www.w3.org/2000/svg">
<path fill-rule="evenodd" clip-rule="evenodd" d="M19 4C18.4477 4 18 4.44772 18 5C18 5.55228 18.4477 6 19 6C19.5523 6 20 5.55228 20 5C20 4.44772 19.5523 4 19 4ZM16 5C16 3.34315 17.3431 2 19 2C20.6569 2 22 3.34315 22 5C22 6.65685 20.6569 8 19 8C17.3431 8 16 6.65685 16 5Z" fill="black"/>
<path fill-rule="evenodd" clip-rule="evenodd" d="M5 18C4.44772 18 4 18.4477 4 19C4 19.5523 4.44772 20 5 20C5.55228 20 6 19.5523 6 19C6 18.4477 5.55228 18 5 18ZM2 19C2 17.3431 3.34315 16 5 16C6.65685 16 8 17.3431 8 19C8 20.6569 6.65685 22 5 22C3.34315 22 2 20.6569 2 19Z" fill="black"/>
<path fill-rule="evenodd" clip-rule="evenodd" d="M17 6C14.0826 6 11.2847 7.15893 9.22183 9.22183C7.15893 11.2847 6 14.0826 6 17C6 17.5523 5.55228 18 5 18C4.44772 18 4 17.5523 4 17C4 13.5522 5.36964 10.2456 7.80761 7.80761C10.2456 5.36964 13.5522 4 17 4C17.5523 4 18 4.44772 18 5C18 5.55228 17.5523 6 17 6Z" fill="black"/>
</svg>
