<svg width="24" height="24" viewBox="0 0 24 24" fill="none" xmlns="http://www.w3.org/2000/svg">
<path fill-rule="evenodd" clip-rule="evenodd" d="M3 3C3 2.44772 3.44772 2 4 2H17C17.7957 2 18.5587 2.31607 19.1213 2.87868C19.6839 3.44129 20 4.20435 20 5V17C20 17.5523 19.5523 18 19 18C18.4477 18 18 17.5523 18 17V5C18 4.73478 17.8946 4.48043 17.7071 4.29289C17.5196 4.10536 17.2652 4 17 4H4C3.44772 4 3 3.55228 3 3Z" fill="black"/>
<path fill-rule="evenodd" clip-rule="evenodd" d="M1.87868 2.87868C2.44129 2.31607 3.20435 2 4 2C4.79565 2 5.55871 2.31607 6.12132 2.87868C6.68393 3.44129 7 4.20435 7 5V19C7 19.2652 7.10536 19.5196 7.29289 19.7071C7.48043 19.8946 7.73478 20 8 20C8.26522 20 8.51957 19.8946 8.70711 19.7071C8.89464 19.5196 9 19.2652 9 19V18C9 17.4696 9.21071 16.9609 9.58579 16.5858C9.96086 16.2107 10.4696 16 11 16H21C21.5304 16 22.0391 16.2107 22.4142 16.5858C22.7893 16.9609 23 17.4696 23 18V19C23 19.7957 22.6839 20.5587 22.1213 21.1213C21.5587 21.6839 20.7957 22 20 22H8C7.20435 22 6.44129 21.6839 5.87868 21.1213C5.31607 20.5587 5 19.7956 5 19V9H3C2.46957 9 1.96086 8.78929 1.58579 8.41421C1.21071 8.03914 1 7.53043 1 7V5C1 4.20435 1.31607 3.44129 1.87868 2.87868ZM5 7V5C5 4.73478 4.89464 4.48043 4.70711 4.29289C4.51957 4.10536 4.26522 4 4 4C3.73478 4 3.48043 4.10536 3.29289 4.29289C3.10536 4.48043 3 4.73478 3 5V7H5ZM10.8284 20H20C20.2652 20 20.5196 19.8946 20.7071 19.7071C20.8946 19.5196 21 19.2652 21 19V18L11 18V19C11 19.3439 10.9409 19.6818 10.8284 20Z" fill="black"/>
</svg>
