<svg width="24" height="24" viewBox="0 0 24 24" fill="none" xmlns="http://www.w3.org/2000/svg">
<path fill-rule="evenodd" clip-rule="evenodd" d="M12 15.0002C12.3788 15.0002 12.725 15.2142 12.8944 15.5529L13.3944 16.5529C13.5494 16.8629 13.5329 17.2311 13.3507 17.5259C13.1684 17.8207 12.8466 18.0002 12.5 18.0002H11.5C11.1534 18.0002 10.8316 17.8207 10.6494 17.5259C10.4671 17.2311 10.4506 16.8629 10.6056 16.5529L11.1056 15.5529C11.275 15.2142 11.6212 15.0002 12 15.0002Z" fill="black"/>
<path fill-rule="evenodd" clip-rule="evenodd" d="M6.96815 3.53611C8.45478 2.53363 10.207 1.99805 12 1.99805C13.7931 1.99805 15.5452 2.53363 17.0319 3.53611C18.5185 4.53859 19.6718 5.96228 20.3439 7.62461C21.0159 9.28693 21.1762 11.1121 20.804 12.8661C20.4859 14.3652 19.7913 15.7539 18.7913 16.9039C18.8861 17.1453 18.9496 17.3992 18.9793 17.6594C19.0435 18.2208 18.9478 18.7889 18.7033 19.2983C18.4588 19.8077 18.0754 20.2377 17.5973 20.5388C17.4086 20.6576 17.2082 20.7544 17 20.8281V21.0001C17 21.5306 16.7893 22.0393 16.4142 22.4143C16.0391 22.7894 15.5304 23.0001 15 23.0001H9C8.46957 23.0001 7.96086 22.7894 7.58579 22.4143C7.21072 22.0393 7 21.5306 7 21.0001V20.8281C6.7918 20.7544 6.59141 20.6576 6.40274 20.5388C5.9246 20.2377 5.5412 19.8077 5.29668 19.2983C5.05217 18.7889 4.95649 18.2208 5.02066 17.6594C5.0504 17.3992 5.11394 17.1453 5.20873 16.9039C4.20869 15.7539 3.51409 14.3652 3.19601 12.8661C2.82384 11.1121 2.98407 9.28693 3.65615 7.62461C4.32823 5.96228 5.48153 4.53859 6.96815 3.53611ZM12 3.99805C10.6054 3.99805 9.2426 4.41461 8.08634 5.19432C6.93008 5.97403 6.03307 7.08134 5.51034 8.37426C4.98761 9.66718 4.86299 11.0868 5.15245 12.451C5.44192 13.8152 6.13228 15.0619 7.135 16.0311C7.50615 16.3899 7.54325 16.9722 7.22063 17.3751C7.10291 17.5222 7.02911 17.6994 7.00772 17.8866C6.98633 18.0737 7.01823 18.2631 7.09973 18.4329C7.18123 18.6027 7.30903 18.746 7.46841 18.8463C7.6278 18.9467 7.81228 19 8.00063 19.0001C8.55267 19.0005 9 19.4481 9 20.0001V21.0001H15V20.0001C15 19.4481 15.4473 19.0005 15.9994 19.0001C16.1877 19 16.3722 18.9467 16.5316 18.8463C16.691 18.746 16.8188 18.6027 16.9003 18.4329C16.9818 18.2631 17.0137 18.0737 16.9923 17.8866C16.9709 17.6994 16.8971 17.5222 16.7794 17.3751C16.4568 16.9722 16.4939 16.3899 16.865 16.0311C17.8677 15.0619 18.5581 13.8152 18.8476 12.451C19.137 11.0868 19.0124 9.66718 18.4897 8.37426C17.9669 7.08134 17.0699 5.97403 15.9137 5.19432C14.7574 4.41461 13.3946 3.99805 12 3.99805Z" fill="black"/>
<path fill-rule="evenodd" clip-rule="evenodd" d="M13 12.0002C13 10.8956 13.8954 10.0002 15 10.0002C16.1046 10.0002 17 10.8956 17 12.0002C17 13.1047 16.1046 14.0002 15 14.0002C13.8954 14.0002 13 13.1047 13 12.0002Z" fill="black"/>
<path fill-rule="evenodd" clip-rule="evenodd" d="M7 12.0002C7 10.8956 7.89543 10.0002 9 10.0002C10.1046 10.0002 11 10.8956 11 12.0002C11 13.1047 10.1046 14.0002 9 14.0002C7.89543 14.0002 7 13.1047 7 12.0002Z" fill="black"/>
</svg>
