<svg width="24" height="24" viewBox="0 0 24 24" fill="none" xmlns="http://www.w3.org/2000/svg">
<path fill-rule="evenodd" clip-rule="evenodd" d="M5 4C4.44772 4 4 4.44772 4 5V19C4 19.5523 4.44772 20 5 20H19C19.5523 20 20 19.5523 20 19V5C20 4.44772 19.5523 4 19 4H5ZM2 5C2 3.34315 3.34315 2 5 2H19C20.6569 2 22 3.34315 22 5V19C22 20.6569 20.6569 22 19 22H5C3.34315 22 2 20.6569 2 19V5Z" fill="black"/>
<path fill-rule="evenodd" clip-rule="evenodd" d="M9.5 8C9.10218 8 8.72064 8.15804 8.43934 8.43934C8.15804 8.72064 8 9.10218 8 9.5C8 9.89782 8.15804 10.2794 8.43934 10.5607C8.72064 10.842 9.10218 11 9.5 11H12C12.5523 11 13 11.4477 13 12C13 12.5523 12.5523 13 12 13H9.5C8.57174 13 7.6815 12.6313 7.02513 11.9749C6.36875 11.3185 6 10.4283 6 9.5C6 8.57174 6.36875 7.6815 7.02513 7.02513C7.6815 6.36875 8.57174 6 9.5 6H17C17.5523 6 18 6.44772 18 7C18 7.55228 17.5523 8 17 8H9.5Z" fill="black"/>
<path fill-rule="evenodd" clip-rule="evenodd" d="M12 6C12.5523 6 13 6.44772 13 7V17C13 17.5523 12.5523 18 12 18C11.4477 18 11 17.5523 11 17V7C11 6.44772 11.4477 6 12 6Z" fill="black"/>
<path fill-rule="evenodd" clip-rule="evenodd" d="M16 6C16.5523 6 17 6.44772 17 7V17C17 17.5523 16.5523 18 16 18C15.4477 18 15 17.5523 15 17V7C15 6.44772 15.4477 6 16 6Z" fill="black"/>
</svg>
