<svg width="24" height="24" viewBox="0 0 24 24" fill="none" xmlns="http://www.w3.org/2000/svg">
<path fill-rule="evenodd" clip-rule="evenodd" d="M6 4C4.89543 4 4 4.89543 4 6C4 7.10457 4.89543 8 6 8C7.10457 8 8 7.10457 8 6C8 4.89543 7.10457 4 6 4ZM2 6C2 3.79086 3.79086 2 6 2C8.20914 2 10 3.79086 10 6C10 8.20914 8.20914 10 6 10C3.79086 10 2 8.20914 2 6Z" fill="black"/>
<path fill-rule="evenodd" clip-rule="evenodd" d="M7.41289 7.41289C7.80342 7.02237 8.43658 7.02237 8.82711 7.41289L12.7071 11.2929C13.0976 11.6834 13.0976 12.3166 12.7071 12.7071C12.3166 13.0976 11.6834 13.0976 11.2929 12.7071L7.41289 8.82711C7.02237 8.43658 7.02237 7.80342 7.41289 7.41289Z" fill="black"/>
<path fill-rule="evenodd" clip-rule="evenodd" d="M20.7071 3.29289C21.0976 3.68342 21.0976 4.31658 20.7071 4.70711L8.82711 16.5871C8.43658 16.9776 7.80342 16.9776 7.41289 16.5871C7.02237 16.1966 7.02237 15.5634 7.41289 15.1729L19.2929 3.29289C19.6834 2.90237 20.3166 2.90237 20.7071 3.29289Z" fill="black"/>
<path fill-rule="evenodd" clip-rule="evenodd" d="M6 16C4.89543 16 4 16.8954 4 18C4 19.1046 4.89543 20 6 20C7.10457 20 8 19.1046 8 18C8 16.8954 7.10457 16 6 16ZM2 18C2 15.7909 3.79086 14 6 14C8.20914 14 10 15.7909 10 18C10 20.2091 8.20914 22 6 22C3.79086 22 2 20.2091 2 18Z" fill="black"/>
<path fill-rule="evenodd" clip-rule="evenodd" d="M14.0929 14.0929C14.4834 13.7024 15.1166 13.7024 15.5071 14.0929L20.7071 19.2929C21.0976 19.6834 21.0976 20.3166 20.7071 20.7071C20.3166 21.0976 19.6834 21.0976 19.2929 20.7071L14.0929 15.5071C13.7024 15.1166 13.7024 14.4834 14.0929 14.0929Z" fill="black"/>
</svg>
