<svg width="24" height="24" viewBox="0 0 24 24" fill="none" xmlns="http://www.w3.org/2000/svg">
<path d="M10.1782 2.04452C11.392 1.98126 12.6081 1.98125 13.8218 2.04452C14.3733 2.07327 14.7978 2.54376 14.7691 3.0953C14.7401 3.6465 14.2695 4.07013 13.7183 4.04159C12.5738 3.98192 11.4263 3.98192 10.2818 4.04159C9.73051 4.07016 9.25996 3.64651 9.23098 3.0953C9.20223 2.54376 9.62671 2.07327 10.1782 2.04452Z" fill="black"/>
<path d="M13.7173 19.9567C14.2687 19.9271 14.7393 20.3507 14.7691 20.9021C14.7987 21.4535 14.3761 21.925 13.8247 21.9548C12.6096 22.0204 11.3915 22.0207 10.1763 21.9558C9.62495 21.9261 9.20151 21.4544 9.23098 20.903C9.26063 20.3517 9.73233 19.9283 10.2837 19.9577C11.4274 20.0188 12.5737 20.0185 13.7173 19.9567Z" fill="black"/>
<path d="M19.2654 17.3345C19.4893 16.8296 20.0809 16.6018 20.5857 16.8257C21.0903 17.0497 21.3182 17.6403 21.0945 18.145C20.484 19.5218 19.522 20.4836 18.1463 21.0943C17.6416 21.3179 17.0509 21.0901 16.8269 20.5855C16.6029 20.0807 16.8309 19.4902 17.3357 19.2661C18.2578 18.8568 18.856 18.2575 19.2654 17.3345Z" fill="black"/>
<path d="M16.8259 3.41549C17.0497 2.91074 17.6404 2.68306 18.1453 2.90671C19.5212 3.5163 20.483 4.47869 21.0935 5.85299C21.3177 6.3577 21.0904 6.94811 20.5857 7.17233C20.081 7.39646 19.4906 7.1692 19.2664 6.66452C18.857 5.74298 18.2566 5.14322 17.3347 4.73483C16.83 4.51104 16.6023 3.92035 16.8259 3.41549Z" fill="black"/>
<path d="M20.9033 9.23074C21.4548 9.20112 21.9264 9.62459 21.956 10.1761C22.0213 11.3909 22.0213 12.6086 21.956 13.8235C21.9264 14.375 21.4548 14.7975 20.9033 14.7679C20.3519 14.7382 19.9284 14.2676 19.958 13.7161C20.0194 12.5727 20.0194 11.4269 19.958 10.2835C19.9284 9.73201 20.3518 9.26039 20.9033 9.23074Z" fill="black"/>
<path d="M3.09503 9.23074C3.64647 9.25946 4.06991 9.73006 4.04132 10.2815C3.98195 11.4263 3.9823 12.5734 4.0423 13.718C4.07121 14.2696 3.64754 14.7409 3.09601 14.7698C2.54477 14.7985 2.07434 14.3747 2.04523 13.8235C1.98157 12.6093 1.98128 11.3922 2.04425 10.178C2.07286 9.62647 2.54349 9.20214 3.09503 9.23074Z" fill="black"/>
<path d="M3.41376 16.8267C3.91843 16.6025 4.5098 16.8299 4.73407 17.3345C5.1438 18.2568 5.74247 18.8572 6.66376 19.2642C7.1689 19.4873 7.39755 20.0774 7.1745 20.5826C6.95135 21.0877 6.36131 21.3164 5.85614 21.0933C4.47759 20.4843 3.51619 19.5206 2.90594 18.147C2.68174 17.6423 2.90914 17.051 3.41376 16.8267Z" fill="black"/>
<path d="M5.85419 2.90571C6.35898 2.68165 6.95044 2.9097 7.1745 3.41449C7.39816 3.91917 7.17033 4.50985 6.66571 4.73383C5.74331 5.14325 5.14349 5.74307 4.73407 6.66547C4.51009 7.17009 3.91941 7.39792 3.41473 7.17426C2.90994 6.9502 2.68189 6.35874 2.90594 5.85395C3.51651 4.47843 4.47867 3.51627 5.85419 2.90571Z" fill="black"/>
</svg>
