<svg width="24" height="24" viewBox="0 0 24 24" fill="none" xmlns="http://www.w3.org/2000/svg">
<path d="M19 2C19.5523 2 20 2.44772 20 3C20 3.55228 19.5523 4 19 4H5C4.44772 4 4 3.55228 4 3C4 2.44772 4.44772 2 5 2H19Z" fill="black"/>
<path d="M2 19V5C2 4.44772 2.44772 4 3 4C3.55228 4 4 4.44772 4 5V19C4 19.5523 3.55228 20 3 20C2.44772 20 2 19.5523 2 19Z" fill="black"/>
<path d="M20 19V5C20 4.44772 20.4477 4 21 4C21.5523 4 22 4.44772 22 5V19C22 19.5523 21.5523 20 21 20C20.4477 20 20 19.5523 20 19Z" fill="black"/>
<path d="M10 20C10.5523 20 11 20.4477 11 21C11 21.5523 10.5523 22 10 22H9C8.44772 22 8 21.5523 8 21C8 20.4477 8.44772 20 9 20H10Z" fill="black"/>
<path d="M15 20C15.5523 20 16 20.4477 16 21C16 21.5523 15.5523 22 15 22H14C13.4477 22 13 21.5523 13 21C13 20.4477 13.4477 20 14 20H15Z" fill="black"/>
<path d="M2 5C2 4.20435 2.3163 3.44152 2.87891 2.87891C3.44152 2.3163 4.20435 2 5 2C5.55228 2 6 2.44772 6 3C6 3.55228 5.55228 4 5 4C4.73478 4 4.4805 4.10543 4.29297 4.29297C4.10543 4.4805 4 4.73478 4 5C4 5.55228 3.55228 6 3 6C2.44772 6 2 5.55228 2 5Z" fill="black"/>
<path d="M20 5C20 4.73478 19.8946 4.48051 19.707 4.29297C19.5195 4.10543 19.2652 4 19 4C18.4477 4 18 3.55228 18 3C18 2.44772 18.4477 2 19 2C19.7957 2 20.5585 2.3163 21.1211 2.87891C21.6837 3.44151 22 4.20435 22 5C22 5.55228 21.5523 6 21 6C20.4477 6 20 5.55228 20 5Z" fill="black"/>
<path d="M2 19C2 18.4477 2.44772 18 3 18C3.55228 18 4 18.4477 4 19C4 19.2652 4.10543 19.5195 4.29297 19.707C4.48051 19.8946 4.73478 20 5 20C5.55228 20 6 20.4477 6 21C6 21.5523 5.55228 22 5 22C4.20435 22 3.44151 21.6837 2.87891 21.1211C2.3163 20.5585 2 19.7957 2 19Z" fill="black"/>
<path d="M20 19C20 18.4477 20.4477 18 21 18C21.5523 18 22 18.4477 22 19C22 19.7957 21.6837 20.5585 21.1211 21.1211C20.5585 21.6837 19.7957 22 19 22C18.4477 22 18 21.5523 18 21C18 20.4477 18.4477 20 19 20C19.2652 20 19.5195 19.8946 19.707 19.707C19.8946 19.5195 20 19.2652 20 19Z" fill="black"/>
<path d="M9 8.5C9 8.22386 8.77614 8 8.5 8C8.22386 8 8 8.22386 8 8.5C8 8.77614 8.22386 9 8.5 9C8.77614 9 9 8.77614 9 8.5ZM11 8.5C11 9.88071 9.88071 11 8.5 11C7.11929 11 6 9.88071 6 8.5C6 7.11929 7.11929 6 8.5 6C9.88071 6 11 7.11929 11 8.5Z" fill="black"/>
<path d="M8.85368 8.85368C9.24421 8.46316 9.87722 8.46316 10.2677 8.85368L12.7072 11.2931C13.0976 11.6837 13.0977 12.3167 12.7072 12.7072C12.3167 13.0977 11.6837 13.0976 11.2931 12.7072L8.85368 10.2677C8.46316 9.87722 8.46316 9.24421 8.85368 8.85368Z" fill="black"/>
<path d="M14.113 14.113C14.5035 13.7224 15.1365 13.7224 15.527 14.113L17.7067 16.2926C18.0972 16.6832 18.0972 17.3162 17.7067 17.7067C17.3162 18.0972 16.6832 18.0972 16.2926 17.7067L14.113 15.527C13.7224 15.1365 13.7224 14.5035 14.113 14.113Z" fill="black"/>
<path d="M9 15.5C9 15.2239 8.77614 15 8.5 15C8.22386 15 8 15.2239 8 15.5C8 15.7761 8.22386 16 8.5 16C8.77614 16 9 15.7761 9 15.5ZM11 15.5C11 16.8807 9.88071 18 8.5 18C7.11929 18 6 16.8807 6 15.5C6 14.1193 7.11929 13 8.5 13C9.88071 13 11 14.1193 11 15.5Z" fill="black"/>
<path d="M16.2931 6.29286C16.6836 5.9024 17.3167 5.90236 17.7072 6.29286C18.0976 6.68337 18.0976 7.31642 17.7072 7.70693L10.2677 15.1464C9.87721 15.5368 9.24417 15.5368 8.85366 15.1464C8.46315 14.7559 8.46319 14.1228 8.85366 13.7323L16.2931 6.29286Z" fill="black"/>
</svg>
