<svg width="24" height="24" viewBox="0 0 24 24" fill="none" xmlns="http://www.w3.org/2000/svg">
<path fill-rule="evenodd" clip-rule="evenodd" d="M7.05025 16.0503C8.36301 14.7375 10.1435 14 12 14C13.8565 14 15.637 14.7375 16.9497 16.0503C18.2625 17.363 19 19.1435 19 21C19 21.5523 18.5523 22 18 22C17.4477 22 17 21.5523 17 21C17 19.6739 16.4732 18.4021 15.5355 17.4645C14.5979 16.5268 13.3261 16 12 16C10.6739 16 9.40215 16.5268 8.46447 17.4645C7.52678 18.4021 7 19.6739 7 21C7 21.5523 6.55228 22 6 22C5.44772 22 5 21.5523 5 21C5 19.1435 5.7375 17.363 7.05025 16.0503Z" fill="black"/>
<path fill-rule="evenodd" clip-rule="evenodd" d="M12 8C10.3431 8 9 9.34315 9 11C9 12.6569 10.3431 14 12 14C13.6569 14 15 12.6569 15 11C15 9.34315 13.6569 8 12 8ZM7 11C7 8.23858 9.23858 6 12 6C14.7614 6 17 8.23858 17 11C17 13.7614 14.7614 16 12 16C9.23858 16 7 13.7614 7 11Z" fill="black"/>
<path fill-rule="evenodd" clip-rule="evenodd" d="M5 4C4.44772 4 4 4.44772 4 5V19C4 19.5523 4.44772 20 5 20H19C19.5523 20 20 19.5523 20 19V5C20 4.44772 19.5523 4 19 4H5ZM2 5C2 3.34315 3.34315 2 5 2H19C20.6569 2 22 3.34315 22 5V19C22 20.6569 20.6569 22 19 22H5C3.34315 22 2 20.6569 2 19V5Z" fill="black"/>
</svg>
