<svg width="24" height="24" viewBox="0 0 24 24" fill="none" xmlns="http://www.w3.org/2000/svg">
<path fill-rule="evenodd" clip-rule="evenodd" d="M12 5C8.13401 5 5 8.13401 5 12C5 15.866 8.13401 19 12 19C15.866 19 19 15.866 19 12C19 8.13401 15.866 5 12 5ZM3 12C3 7.02944 7.02944 3 12 3C16.9706 3 21 7.02944 21 12C21 16.9706 16.9706 21 12 21C7.02944 21 3 16.9706 3 12Z" fill="black"/>
<path fill-rule="evenodd" clip-rule="evenodd" d="M12 1C12.5523 1 13 1.44772 13 2V9.5C13 10.0523 12.5523 10.5 12 10.5C11.4477 10.5 11 10.0523 11 9.5V2C11 1.44772 11.4477 1 12 1Z" fill="black"/>
<path fill-rule="evenodd" clip-rule="evenodd" d="M19.7071 4.29289C20.0976 4.68342 20.0976 5.31658 19.7071 5.70711L14.4771 10.9371C14.0866 11.3276 13.4534 11.3276 13.0629 10.9371C12.6724 10.5466 12.6724 9.91342 13.0629 9.52289L18.2929 4.29289C18.6834 3.90237 19.3166 3.90237 19.7071 4.29289Z" fill="black"/>
<path fill-rule="evenodd" clip-rule="evenodd" d="M13.5 12C13.5 11.4477 13.9477 11 14.5 11H22C22.5523 11 23 11.4477 23 12C23 12.5523 22.5523 13 22 13H14.5C13.9477 13 13.5 12.5523 13.5 12Z" fill="black"/>
<path fill-rule="evenodd" clip-rule="evenodd" d="M13.0629 13.0629C13.4534 12.6724 14.0866 12.6724 14.4771 13.0629L19.7071 18.2929C20.0976 18.6834 20.0976 19.3166 19.7071 19.7071C19.3166 20.0976 18.6834 20.0976 18.2929 19.7071L13.0629 14.4771C12.6724 14.0866 12.6724 13.4534 13.0629 13.0629Z" fill="black"/>
<path fill-rule="evenodd" clip-rule="evenodd" d="M12 13.5C12.5523 13.5 13 13.9477 13 14.5V22C13 22.5523 12.5523 23 12 23C11.4477 23 11 22.5523 11 22V14.5C11 13.9477 11.4477 13.5 12 13.5Z" fill="black"/>
<path fill-rule="evenodd" clip-rule="evenodd" d="M10.9371 13.0629C11.3276 13.4534 11.3276 14.0866 10.9371 14.4771L5.70711 19.7071C5.31658 20.0976 4.68342 20.0976 4.29289 19.7071C3.90237 19.3166 3.90237 18.6834 4.29289 18.2929L9.52289 13.0629C9.91342 12.6724 10.5466 12.6724 10.9371 13.0629Z" fill="black"/>
<path fill-rule="evenodd" clip-rule="evenodd" d="M1 12C1 11.4477 1.44772 11 2 11H9.5C10.0523 11 10.5 11.4477 10.5 12C10.5 12.5523 10.0523 13 9.5 13H2C1.44772 13 1 12.5523 1 12Z" fill="black"/>
<path fill-rule="evenodd" clip-rule="evenodd" d="M4.29289 4.29289C4.68342 3.90237 5.31658 3.90237 5.70711 4.29289L10.9371 9.52289C11.3276 9.91342 11.3276 10.5466 10.9371 10.9371C10.5466 11.3276 9.91342 11.3276 9.52289 10.9371L4.29289 5.70711C3.90237 5.31658 3.90237 4.68342 4.29289 4.29289Z" fill="black"/>
<path fill-rule="evenodd" clip-rule="evenodd" d="M12 10.5C11.1716 10.5 10.5 11.1716 10.5 12C10.5 12.8284 11.1716 13.5 12 13.5C12.8284 13.5 13.5 12.8284 13.5 12C13.5 11.1716 12.8284 10.5 12 10.5ZM8.5 12C8.5 10.067 10.067 8.5 12 8.5C13.933 8.5 15.5 10.067 15.5 12C15.5 13.933 13.933 15.5 12 15.5C10.067 15.5 8.5 13.933 8.5 12Z" fill="black"/>
</svg>
