<svg width="24" height="24" viewBox="0 0 24 24" fill="none" xmlns="http://www.w3.org/2000/svg">
<path fill-rule="evenodd" clip-rule="evenodd" d="M3 6.99977V16.9998H8V6.99977H3ZM1 6.99977C1 5.8952 1.89543 4.99977 3 4.99977H8C9.10457 4.99977 10 5.8952 10 6.99977V16.9998C10 18.1043 9.10457 18.9998 8 18.9998H3C1.89543 18.9998 1 18.1043 1 16.9998V6.99977Z" fill="black"/>
<path fill-rule="evenodd" clip-rule="evenodd" d="M12.5047 7.45105C12.9845 7.17751 13.5952 7.34471 13.8687 7.82449C14.594 9.09653 14.9754 10.5355 14.9754 11.9998C14.9754 13.464 14.594 14.903 13.8687 16.1751C13.5952 16.6549 12.9845 16.8221 12.5047 16.5485C12.0249 16.275 11.8577 15.6643 12.1313 15.1845C12.6845 14.2142 12.9754 13.1166 12.9754 11.9998C12.9754 10.8829 12.6845 9.78532 12.1313 8.81507C11.8577 8.33529 12.0249 7.72459 12.5047 7.45105Z" fill="black"/>
<path fill-rule="evenodd" clip-rule="evenodd" d="M15.9677 5.33939C16.4484 5.06747 17.0585 5.23673 17.3304 5.71744C18.4144 7.63381 18.9841 9.79807 18.9841 11.9998C18.9841 14.2015 18.4144 16.3658 17.3304 18.2821C17.0585 18.7628 16.4484 18.9321 15.9677 18.6602C15.487 18.3883 15.3177 17.7781 15.5896 17.2974C16.5037 15.6814 16.9841 13.8564 16.9841 11.9998C16.9841 10.1432 16.5037 8.31813 15.5896 6.70213C15.3177 6.22142 15.487 5.6113 15.9677 5.33939Z" fill="black"/>
<path fill-rule="evenodd" clip-rule="evenodd" d="M19.4129 3.23208C19.8921 2.95755 20.5032 3.12347 20.7777 3.60269C22.2419 6.15846 23.0131 9.05235 23.0149 11.9978C23.0168 14.9433 22.2493 17.8381 20.7883 20.3958C20.5144 20.8753 19.9036 21.042 19.424 20.7681C18.9445 20.4942 18.7778 19.8833 19.0517 19.4038C20.3398 17.1487 21.0166 14.5962 21.0149 11.9991C21.0133 9.40199 20.3333 6.85037 19.0423 4.59687C18.7678 4.11766 18.9337 3.50662 19.4129 3.23208Z" fill="black"/>
</svg>
