<svg width="24" height="24" viewBox="0 0 24 24" fill="none" xmlns="http://www.w3.org/2000/svg">
<path d="M17.2929 13.2929C17.6834 12.9024 18.3164 12.9024 18.707 13.2929L22.707 17.2929C23.0975 17.6834 23.0975 18.3164 22.707 18.707L18.707 22.707C18.3164 23.0975 17.6834 23.0975 17.2929 22.707C16.9024 22.3164 16.9024 21.6834 17.2929 21.2929L20.5859 17.9999L17.2929 14.707C16.9024 14.3164 16.9024 13.6834 17.2929 13.2929Z" fill="black"/>
<path d="M17.2929 1.29289C17.6834 0.902369 18.3164 0.902369 18.707 1.29289L22.707 5.29289C23.0975 5.68342 23.0975 6.31643 22.707 6.70696L18.707 10.707C18.3164 11.0975 17.6834 11.0975 17.2929 10.707C16.9024 10.3164 16.9024 9.68342 17.2929 9.29289L20.5859 5.99992L17.2929 2.70696C16.9024 2.31643 16.9024 1.68342 17.2929 1.29289Z" fill="black"/>
<path d="M22 5C22.5523 5 23 5.44776 23 6C23 6.55228 22.5523 7 22 7H16.0205C15.5357 6.99669 15.057 7.11101 14.626 7.33301C14.1979 7.55351 13.8289 7.87368 13.5508 8.2666L8.11719 16.8359C8.10879 16.8492 8.09983 16.8622 8.09082 16.875C7.62617 17.5361 7.00841 18.0752 6.29004 18.4453C5.57359 18.8144 4.77849 19.0035 3.97266 18.999L2 19C1.44772 19 1 18.5523 1 18C1.00005 17.4478 1.44775 17 2 17H3.97949C4.46433 17.0033 4.943 16.889 5.37402 16.667C5.80009 16.4475 6.16667 16.1287 6.44434 15.7383L11.8828 7.16406L11.9092 7.125C12.3738 6.46392 12.9916 5.92473 13.71 5.55469C14.4264 5.18566 15.2215 4.99652 16.0273 5.00098L22 5Z" fill="black"/>
<path d="M3.97168 5C4.90121 4.99476 5.81418 5.24864 6.60742 5.7334C7.40242 6.21927 8.04556 6.91796 8.46484 7.75C8.71327 8.24304 8.51528 8.84409 8.02246 9.09277C7.5293 9.34126 6.92727 9.14349 6.67871 8.65039C6.42718 8.1512 6.04138 7.73197 5.56445 7.44043C5.08738 7.14888 4.53761 6.99611 3.97852 7H2C1.44772 7 1 6.55228 1 6C1.00005 5.44776 1.44775 5 2 5H3.97168Z" fill="black"/>
<path d="M11.676 14.9687C12.1076 14.6244 12.7368 14.6946 13.0813 15.1259L13.4406 15.5761L13.4944 15.6504C13.7647 16.0608 14.1322 16.3984 14.5637 16.6338C14.9951 16.869 15.4776 16.9949 15.969 17H22.0002C22.5524 17.0001 23.0002 17.4478 23.0002 18C23.0002 18.5522 22.5524 18.9999 22.0002 19H15.9485C15.1293 18.9916 14.3248 18.7819 13.6057 18.3896C12.9043 18.0071 12.3067 17.4611 11.8596 16.7998L11.5188 16.374C11.1745 15.9424 11.2447 15.3132 11.676 14.9687Z" fill="black"/>
</svg>
