<svg width="24" height="24" viewBox="0 0 24 24" fill="none" xmlns="http://www.w3.org/2000/svg">
<path fill-rule="evenodd" clip-rule="evenodd" d="M10 1C10.5523 1 11 1.44772 11 2V5H16C16.5523 5 17 5.44772 17 6C17 6.55228 16.5523 7 16 7H11C10.4696 7 9.96086 6.78929 9.58579 6.41421C9.21071 6.03914 9 5.53043 9 5V2C9 1.44772 9.44772 1 10 1Z" fill="black"/>
<path fill-rule="evenodd" clip-rule="evenodd" d="M9.58579 10.5858C9.96086 10.2107 10.4696 10 11 10H17C17.5304 10 18.0391 10.2107 18.4142 10.5858C18.7893 10.9609 19 11.4696 19 12V18C19 18.5523 18.5523 19 18 19C17.4477 19 17 18.5523 17 18V12H11V18C11 18.5523 10.5523 19 10 19C9.44772 19 9 18.5523 9 18V12C9 11.4696 9.21071 10.9609 9.58579 10.5858Z" fill="black"/>
<path fill-rule="evenodd" clip-rule="evenodd" d="M2 5C2.55228 5 3 5.44772 3 6V20C3 20.2652 3.10536 20.5196 3.29289 20.7071C3.48043 20.8946 3.73478 21 4 21H18C18.5523 21 19 21.4477 19 22C19 22.5523 18.5523 23 18 23H4C3.20435 23 2.44129 22.6839 1.87868 22.1213C1.31607 21.5587 1 20.7957 1 20V6C1 5.44772 1.44772 5 2 5Z" fill="black"/>
<path fill-rule="evenodd" clip-rule="evenodd" d="M8 3C7.73478 3 7.48043 3.10536 7.29289 3.29289C7.10536 3.48043 7 3.73478 7 4V16C7 16.2652 7.10536 16.5196 7.29289 16.7071C7.48043 16.8946 7.73478 17 8 17H19.99C19.9917 17 19.9933 17 19.995 17C20.1267 17.0007 20.2573 16.9753 20.3792 16.9253C20.5011 16.8754 20.612 16.8018 20.7053 16.7089C20.7987 16.616 20.8728 16.5055 20.9234 16.3839C20.974 16.2622 21 16.1318 21 16V6.82821C21 6.82814 21 6.82828 21 6.82821C20.9999 6.5631 20.8945 6.30866 20.707 6.12121L17.8789 3.29311C17.6915 3.10561 17.4371 3.00011 17.172 3C17.1719 3 17.1721 3 17.172 3H8ZM19.2931 1.87889C18.7306 1.31631 17.9677 1.00017 17.1722 1H8C7.20435 1 6.44129 1.31607 5.87868 1.87868C5.31607 2.44129 5 3.20435 5 4V16C5 16.7956 5.31607 17.5587 5.87868 18.1213C6.44129 18.6839 7.20435 19 8 19H19.9877C20.382 19.0016 20.7728 18.9255 21.1377 18.7759C21.5034 18.6261 21.8359 18.4054 22.116 18.1266C22.3962 17.8479 22.6185 17.5165 22.7702 17.1515C22.9219 16.7866 23 16.3952 23 16V6.82779C22.9998 6.0322 22.6836 5.26926 22.121 4.70679L19.2931 1.87889C19.2931 1.87893 19.2931 1.87886 19.2931 1.87889Z" fill="black"/>
</svg>
