<svg width="24" height="24" viewBox="0 0 24 24" fill="none" xmlns="http://www.w3.org/2000/svg">
<path fill-rule="evenodd" clip-rule="evenodd" d="M4.14533 2.14581L22.1416 10.644C22.3984 10.7655 22.6155 10.9575 22.7675 11.1975C22.9196 11.4376 23.0003 11.7159 23.0003 12C23.0003 12.2842 22.9196 12.5625 22.7675 12.8025C22.6155 13.0426 22.3984 13.2346 22.1416 13.356L4.1445 21.8547C3.87552 21.9836 3.5741 22.0294 3.27886 21.986C2.98151 21.9423 2.7042 21.8101 2.48296 21.6067C2.26172 21.4033 2.10677 21.138 2.03825 20.8454C1.97025 20.555 1.99051 20.2509 2.09635 19.9722L4.93692 12.349C4.9369 12.3491 4.93694 12.349 4.93692 12.349C5.02066 12.1241 5.02073 11.8763 4.93702 11.6513C4.93699 11.6512 4.93706 11.6514 4.93702 11.6513L2.09554 4.0284C1.98939 3.74949 1.96895 3.44516 2.03692 3.15447C2.10547 2.86132 2.26076 2.59563 2.48253 2.39204C2.70431 2.18845 2.98228 2.0564 3.28021 2.01312C3.57542 1.97023 3.87665 2.01647 4.14533 2.14581ZM6.8111 13.0472L4.39801 19.5232L20.3293 12L4.39698 4.47642L6.81116 10.953C7.06267 11.6284 7.06261 12.3719 6.8111 13.0472Z" fill="black"/>
<path fill-rule="evenodd" clip-rule="evenodd" d="M5 12.0001C5 11.4478 5.44771 11.0001 6 11.0001H22C22.5523 11.0001 23.0003 11.4478 23.0003 12C23.0003 12.5523 22.5523 13.0001 22 13.0001H6C5.44771 13.0001 5 12.5523 5 12.0001Z" fill="black"/>
</svg>
