<svg width="24" height="24" viewBox="0 0 24 24" fill="none" xmlns="http://www.w3.org/2000/svg">
<path fill-rule="evenodd" clip-rule="evenodd" d="M2.87868 2.87891C3.44129 2.3163 4.20435 2.00023 5 2.00023H12C12.5523 2.00023 13 2.44795 13 3.00023C13 3.55252 12.5523 4.00023 12 4.00023H5C4.73478 4.00023 4.48043 4.10559 4.29289 4.29313C4.10536 4.48066 4 4.73502 4 5.00023V19.0002C4 19.2654 4.10536 19.5198 4.29289 19.7073C4.48043 19.8949 4.73478 20.0002 5 20.0002H19C19.2652 20.0002 19.5196 19.8949 19.7071 19.7073C19.8946 19.5198 20 19.2654 20 19.0002V12.0002C20 11.4479 20.4477 11.0002 21 11.0002C21.5523 11.0002 22 11.4479 22 12.0002V19.0002C22 19.7959 21.6839 20.5589 21.1213 21.1216C20.5587 21.6842 19.7957 22.0002 19 22.0002H5C4.20435 22.0002 3.44129 21.6842 2.87868 21.1216C2.31607 20.5589 2 19.7959 2 19.0002V5.00023C2 4.20459 2.31607 3.44152 2.87868 2.87891Z" fill="black"/>
<path fill-rule="evenodd" clip-rule="evenodd" d="M19.0822 3.33229C19.0821 3.33231 19.0822 3.33228 19.0822 3.33229L10.0685 12.3469C9.94989 12.4654 9.86294 12.6117 9.81564 12.7725C9.8156 12.7726 9.81569 12.7724 9.81564 12.7725L9.23219 14.7681L11.2284 14.1844C11.3893 14.1374 11.5362 14.0506 11.6549 13.9322L20.6679 4.91812C20.8782 4.70783 20.9963 4.42262 20.9963 4.12523C20.9963 3.82783 20.8782 3.54262 20.6679 3.33233C20.4576 3.12205 20.1724 3.00391 19.875 3.00391C19.5776 3.00391 19.2924 3.12203 19.0822 3.33229ZM17.6679 1.91812C18.2533 1.33276 19.0472 1.00391 19.875 1.00391C20.7028 1.00391 21.4968 1.33276 22.0821 1.91812C22.6675 2.50348 22.9963 3.2974 22.9963 4.12523C22.9963 4.95303 22.6675 5.74694 22.0822 6.33229C22.0821 6.33231 22.0822 6.33228 22.0822 6.33229L13.0688 15.3466C12.7127 15.7024 12.2728 15.9629 11.7896 16.104C11.7895 16.1041 11.7898 16.104 11.7896 16.104L8.91602 16.9442C8.65787 17.0195 8.38423 17.024 8.12374 16.9573C7.86326 16.8906 7.6255 16.755 7.43536 16.5649C7.24521 16.3747 7.10968 16.137 7.04295 15.8765C6.97621 15.616 6.98072 15.3424 7.05602 15.0842L7.89652 12.2095C8.03828 11.7267 8.29924 11.2872 8.65535 10.9317C8.65529 10.9317 8.6554 10.9316 8.65535 10.9317L17.6679 1.91812Z" fill="black"/>
</svg>
