<svg width="24" height="24" viewBox="0 0 24 24" fill="none" xmlns="http://www.w3.org/2000/svg">
<path d="M12.3023 11.0113C12.5526 10.9786 12.8076 11.0096 13.0435 11.1021L22.0435 14.6021C22.2968 14.7011 22.5195 14.8669 22.6851 15.0806L22.7525 15.1754L22.8121 15.275C22.9428 15.5119 23.0071 15.7805 22.9976 16.0523C22.9867 16.3628 22.8804 16.6627 22.692 16.9097C22.5035 17.1568 22.2425 17.3386 21.9459 17.4312L21.9439 17.4322L18.5006 18.5006L17.4322 21.9439L17.4312 21.9459C17.3386 22.2425 17.1568 22.5035 16.9097 22.692C16.6627 22.8804 16.3628 22.9867 16.0523 22.9976C15.7417 23.0085 15.435 22.9233 15.1754 22.7525C14.9157 22.5818 14.7152 22.3339 14.6021 22.0445L11.1021 13.0435L11.1031 13.0425C10.9974 12.7728 10.9715 12.4788 11.0299 12.1949L11.0552 12.0884C11.1248 11.8429 11.2558 11.6184 11.4371 11.4371L11.5172 11.3629C11.7102 11.196 11.9438 11.0816 12.1949 11.0299L12.3023 11.0113ZM15.9459 19.981L16.5884 17.9088C16.6846 17.5983 16.8557 17.3163 17.0855 17.0865C17.3154 16.8567 17.5973 16.6855 17.9078 16.5894L19.982 15.9459L13.3775 13.3775L15.9459 19.981Z" fill="black"/>
<path d="M4 17C4 13.5522 5.36964 10.2456 7.80762 7.80762C10.2456 5.36964 13.5522 4 17 4C17.5523 4 18 4.44772 18 5C18 5.55228 17.5523 6 17 6C14.0826 6 11.2846 7.15878 9.22168 9.22168C7.15878 11.2846 6 14.0826 6 17C6 17.5523 5.55228 18 5 18C4.44772 18 4 17.5523 4 17Z" fill="black"/>
<path d="M20 5C20 4.44772 19.5523 4 19 4C18.4477 4 18 4.44772 18 5C18 5.55228 18.4477 6 19 6C19.5523 6 20 5.55228 20 5ZM22 5C22 6.65685 20.6569 8 19 8C17.3431 8 16 6.65685 16 5C16 3.34315 17.3431 2 19 2C20.6569 2 22 3.34315 22 5Z" fill="black"/>
<path d="M6 19C6 18.4477 5.55228 18 5 18C4.44772 18 4 18.4477 4 19C4 19.5523 4.44772 20 5 20C5.55228 20 6 19.5523 6 19ZM8 19C8 20.6569 6.65685 22 5 22C3.34315 22 2 20.6569 2 19C2 17.3431 3.34315 16 5 16C6.65685 16 8 17.3431 8 19Z" fill="black"/>
</svg>
