<svg width="24" height="24" viewBox="0 0 24 24" fill="none" xmlns="http://www.w3.org/2000/svg">
<path fill-rule="evenodd" clip-rule="evenodd" d="M11.8918 3.03837C10.0424 4.65169 7.32107 5.99996 5 5.99996V13C5 15.2359 5.77079 16.861 6.98675 18.1063C8.22994 19.3796 9.98374 20.2997 11.9964 20.9947C12.004 20.9973 12.0115 21 12.019 21.0028C14.0241 20.3031 15.773 19.3813 17.0139 18.1082C18.2292 16.8613 19 15.2358 19 13V5.99996C16.6797 5.99996 13.9684 4.66242 12.1081 3.0383C12.0777 3.01325 12.0395 2.99951 12 2.99951C11.9605 2.99951 11.9223 3.01327 11.8918 3.03837ZM10.5904 1.51966C10.9834 1.18396 11.4832 0.999512 12 0.999512C12.5168 0.999512 13.0166 1.18396 13.4096 1.51966C13.4125 1.52213 13.4153 1.52462 13.4182 1.52712C15.0577 2.96053 17.3229 3.99996 19 3.99996C19.5304 3.99996 20.0391 4.21068 20.4142 4.58575C20.7893 4.96082 21 5.46953 21 5.99996V13C21 15.7641 20.0208 17.8886 18.4461 19.5042C16.8987 21.0919 14.8206 22.1443 12.6691 22.8942C12.6664 22.8952 12.6637 22.8961 12.6609 22.8971C12.2297 23.0432 11.7616 23.0378 11.334 22.8819C9.1801 22.1371 7.10277 21.088 5.55575 19.5036C3.97921 17.8889 3 15.764 3 13V5.99996C3 5.46953 3.21071 4.96082 3.58579 4.58575C3.96086 4.21068 4.46957 3.99996 5 3.99996C6.67639 3.99996 8.95161 2.95119 10.5821 1.52685C10.5849 1.52444 10.5876 1.52204 10.5904 1.51966Z" fill="black"/>
<path fill-rule="evenodd" clip-rule="evenodd" d="M12.2588 8.05208C11.7965 7.97265 11.321 8.05822 10.9155 8.29383C10.5099 8.52944 10.2 8.90009 10.04 9.34101C9.85165 9.86017 9.27807 10.1283 8.75891 9.93995C8.23974 9.75157 7.97159 9.17799 8.15997 8.65883C8.47994 7.777 9.09967 7.03568 9.91081 6.56446C10.722 6.09325 11.6729 5.92211 12.5974 6.08096C13.522 6.23982 14.3613 6.71856 14.9686 7.4335C15.576 8.14845 15.9127 9.0541 15.92 9.99216C15.92 9.99474 15.92 9.99733 15.92 9.99992C15.92 11.5308 14.7851 12.5417 13.9747 13.082C13.5391 13.3724 13.1106 13.5859 12.7949 13.7262C12.6356 13.797 12.5015 13.8507 12.4049 13.8875C12.3565 13.906 12.3173 13.9203 12.2887 13.9304C12.2744 13.9355 12.2628 13.9395 12.254 13.9426C12.2496 13.9441 12.2459 13.9454 12.2429 13.9464C12.2414 13.9469 12.2401 13.9473 12.239 13.9477L12.2375 13.9482C12.2372 13.9483 12.2362 13.9486 11.92 12.9999L12.2362 13.9486C11.7123 14.1232 11.146 13.8401 10.9713 13.3161C10.7969 12.7929 11.0791 12.2274 11.6017 12.0519C11.602 12.0518 11.6025 12.0516 11.6032 12.0514C11.6058 12.0505 11.611 12.0487 11.6187 12.046C11.6341 12.0405 11.6593 12.0314 11.6929 12.0186C11.7603 11.9929 11.8606 11.9528 11.9826 11.8986C12.2294 11.7889 12.5509 11.6274 12.8653 11.4179C13.5532 10.9593 13.9182 10.4715 13.92 10.0035C13.9154 9.53593 13.7471 9.08475 13.4444 8.72835C13.1407 8.37087 12.721 8.1315 12.2588 8.05208Z" fill="black"/>
<path fill-rule="evenodd" clip-rule="evenodd" d="M11 16.9999C11 16.4476 11.4477 15.9999 12 15.9999H12.01C12.5623 15.9999 13.01 16.4476 13.01 16.9999C13.01 17.5522 12.5623 17.9999 12.01 17.9999H12C11.4477 17.9999 11 17.5522 11 16.9999Z" fill="black"/>
</svg>
