<svg width="24" height="24" viewBox="0 0 24 24" fill="none" xmlns="http://www.w3.org/2000/svg">
<path d="M11 4V2C11 1.44772 11.4477 1 12 1C12.5523 1 13 1.44772 13 2V4C13 4.55228 12.5523 5 12 5C11.4477 5 11 4.55228 11 4Z" fill="black"/>
<path d="M7.38445 8.18929C8.25759 7.98359 8.90537 8.50308 9.18913 9.05257C9.45475 9.56703 9.49745 10.2299 9.24675 10.8084C9.00817 11.3602 8.94069 11.9709 9.05339 12.5614C9.16614 13.152 9.45333 13.6958 9.87859 14.1209C10.3038 14.5461 10.8475 14.8335 11.4382 14.9461C12.0289 15.0588 12.6402 14.9906 13.1921 14.7518C13.7699 14.5018 14.4329 14.5428 14.9479 14.8084C15.4989 15.0926 16.0168 15.742 15.8102 16.6151C15.5228 17.8272 14.9168 18.9417 14.0553 19.8416C13.1938 20.7416 12.1074 21.3952 10.9089 21.7352C9.71018 22.0751 8.44183 22.0889 7.23601 21.7752C6.03041 21.4615 4.93044 20.8318 4.04948 19.951C3.16848 19.0701 2.53815 17.9701 2.22429 16.7645C1.91045 15.5587 1.92454 14.2904 2.26433 13.0916C2.60412 11.8931 3.25721 10.8068 4.15691 9.94514C5.0568 9.08341 6.17116 8.47783 7.38347 8.19026L7.38445 8.18929ZM7.29851 10.3006C6.64514 10.537 6.04555 10.9061 5.5407 11.3895C4.89791 12.005 4.43086 12.7813 4.18816 13.6375C3.9455 14.4937 3.93569 15.3994 4.15984 16.2606C4.38402 17.1218 4.83425 17.9077 5.46355 18.5369C6.09284 19.1661 6.87873 19.6156 7.73991 19.8397C8.60121 20.0637 9.50677 20.0542 10.363 19.8114C11.219 19.5686 11.9946 19.1015 12.61 18.4588C13.0936 17.9537 13.4617 17.3528 13.6979 16.6991C12.856 17.0032 11.9462 17.0784 11.0632 16.91C10.0788 16.7222 9.17316 16.2435 8.46452 15.535C7.75584 14.8264 7.27646 13.9208 7.08855 12.9364C6.91996 12.053 6.99427 11.1428 7.29851 10.3006Z" fill="black"/>
<path d="M15 12C15 11.2044 14.6837 10.4415 14.1211 9.87891C13.5585 9.3163 12.7956 9 12 9C11.4477 9 11 8.55228 11 8C11 7.44772 11.4477 7 12 7C13.3261 7 14.5975 7.52716 15.5352 8.46484C16.4728 9.40253 17 10.6739 17 12C17 12.5523 16.5523 13 16 13C15.4477 13 15 12.5523 15 12Z" fill="black"/>
<path d="M18.2929 4.29286C18.6834 3.90236 19.3164 3.9024 19.7069 4.29286C20.0974 4.68338 20.0974 5.3164 19.7069 5.70692L18.4511 6.96278C18.0605 7.3533 17.4275 7.3533 17.037 6.96278C16.6465 6.57225 16.6465 5.93922 17.037 5.54872L18.2929 4.29286Z" fill="black"/>
<path d="M22 11C22.5523 11 23 11.4477 23 12C23 12.5523 22.5523 13 22 13H20C19.4477 13 19 12.5523 19 12C19 11.4477 19.4477 11 20 11H22Z" fill="black"/>
</svg>
