<svg width="24" height="24" viewBox="0 0 24 24" fill="none" xmlns="http://www.w3.org/2000/svg">
<path d="M9.03809 3.00024C9.56886 3.00698 10.0888 3.15487 10.5439 3.42797L20.5439 9.42797C20.9884 9.6947 21.3561 10.0725 21.6113 10.5237C21.8665 10.9749 22.0005 11.4847 22 12.0032C21.9995 12.5216 21.8644 13.0309 21.6084 13.4817C21.3523 13.9325 20.9841 14.3095 20.5391 14.5754L20.5381 14.5745L10.5439 20.5725C10.0888 20.8456 9.56886 20.9935 9.03809 21.0002C8.50724 21.0069 7.98347 20.8722 7.52148 20.6106C7.0597 20.349 6.67549 19.9695 6.4082 19.511C6.14089 19.0524 5.99999 18.5311 6 18.0002V6.00024C6 5.46941 6.14088 4.9481 6.4082 4.4895C6.6755 4.03099 7.05969 3.65145 7.52148 3.38989C7.98347 3.12832 8.50724 2.99354 9.03809 3.00024ZM8 18.0002C8 18.1772 8.04662 18.3513 8.13574 18.5041C8.22479 18.6569 8.35303 18.7832 8.50684 18.8704C8.66083 18.9575 8.83574 19.0025 9.0127 19.0002C9.18962 18.998 9.36292 18.9487 9.51465 18.8577L19.5117 12.8596L19.5127 12.8586C19.6611 12.77 19.7847 12.6447 19.8701 12.4944C19.9555 12.3441 19.9998 12.174 20 12.0012C20.0001 11.8284 19.9552 11.6585 19.8701 11.5081C19.785 11.3577 19.6628 11.2317 19.5146 11.1428L9.51465 5.14282C9.36293 5.05178 9.18962 5.00248 9.0127 5.00024C8.83575 4.99801 8.66083 5.04293 8.50684 5.13012C8.35303 5.21729 8.22479 5.3436 8.13574 5.49633C8.04662 5.64921 8 5.82328 8 6.00024V18.0002Z" fill="black"/>
<path d="M2 20.0002V4.00024C2 3.44796 2.44772 3.00024 3 3.00024C3.55228 3.00024 4 3.44796 4 4.00024V20.0002C4 20.5525 3.55228 21.0002 3 21.0002C2.44772 21.0002 2 20.5525 2 20.0002Z" fill="black"/>
</svg>
