<svg width="24" height="24" viewBox="0 0 24 24" fill="none" xmlns="http://www.w3.org/2000/svg">
<path d="M11 21V3C11 2.44772 11.4477 2 12 2C12.5523 2 13 2.44772 13 3V21C13 21.5523 12.5523 22 12 22C11.4477 22 11 21.5523 11 21Z" fill="black"/>
<path d="M17.9999 7C17.9999 6.44772 18.4476 6 18.9999 6C19.5522 6 19.9999 6.44772 19.9999 7V7.81738L22.9364 15.6484C23.0924 16.0643 22.9548 16.5333 22.5995 16.7998C21.561 17.5787 20.2981 18 18.9999 18C17.7018 18 16.4389 17.5787 15.4003 16.7998C15.045 16.5333 14.9075 16.0643 15.0634 15.6484L17.9999 7.81738V7ZM17.2245 15.5811C17.7739 15.8534 18.3802 16 18.9999 16C19.6193 16 20.2252 15.8531 20.7743 15.5811L18.9999 10.8486L17.2245 15.5811Z" fill="black"/>
<path d="M11.6426 4.06638C11.9111 3.96354 12.2134 3.97999 12.4707 4.11716C14.788 5.35304 17.3737 5.99997 20 5.99997H21C21.5523 5.99997 22 6.44768 22 6.99997C22 7.55225 21.5523 7.99997 21 7.99997H20C17.222 7.99997 14.4843 7.35659 12 6.12399C9.51571 7.35659 6.77803 7.99997 4 7.99997H3C2.44772 7.99997 2 7.55225 2 6.99997C2 6.44768 2.44772 5.99997 3 5.99997H4C6.62625 5.99997 9.21202 5.35304 11.5293 4.11716L11.6426 4.06638Z" fill="black"/>
<path d="M3.99991 7C3.99991 6.44772 4.44763 6 4.99991 6C5.5522 6 5.99991 6.44772 5.99991 7V7.81738L8.93644 15.6484C9.09237 16.0643 8.9548 16.5333 8.59952 16.7998C7.56097 17.5787 6.29807 18 4.99991 18C3.70176 18 2.43885 17.5787 1.4003 16.7998C1.04502 16.5333 0.907456 16.0643 1.06339 15.6484L3.99991 7.81738V7ZM3.22452 15.5811C3.77387 15.8534 4.38024 16 4.99991 16C5.61929 16 6.22519 15.8531 6.77433 15.5811L4.99991 10.8486L3.22452 15.5811Z" fill="black"/>
<path d="M17 20C17.5523 20 18 20.4477 18 21C18 21.5523 17.5523 22 17 22H7C6.44772 22 6 21.5523 6 21C6 20.4477 6.44772 20 7 20H17Z" fill="black"/>
</svg>
