<svg width="24" height="24" viewBox="0 0 24 24" fill="none" xmlns="http://www.w3.org/2000/svg">
<path d="M21 3C21.5523 3 22 3.44772 22 4C22 4.55228 21.5523 5 21 5H18.6973L20.4844 14.8721C20.5826 15.4154 20.2211 15.9358 19.6777 16.0342C19.1345 16.1323 18.6141 15.7717 18.5156 15.2285L16.5156 4.17773C16.463 3.88635 16.5427 3.5867 16.7324 3.35938C16.9224 3.1319 17.2036 3 17.5 3H21Z" fill="black"/>
<path d="M18.3465 10.0867C18.8921 10.002 19.4032 10.376 19.4881 10.9217C19.5727 11.4671 19.1995 11.9782 18.6541 12.0633C17.5616 12.2333 16.5449 12.7281 15.7381 13.4842C14.9318 14.2398 14.3713 15.2211 14.1307 16.2996C13.935 17.1826 13.1653 17.9998 12.0916 17.9998H6.95C6.39772 17.9998 5.95 17.5521 5.95 16.9998C5.95011 16.4476 6.39778 15.9998 6.95 15.9998H12.0926C12.0951 15.9988 12.1023 15.9947 12.1131 15.9852C12.1384 15.9627 12.1666 15.9214 12.1785 15.868C12.5064 14.3963 13.2707 13.0562 14.3709 12.0252C15.4711 10.9942 16.8567 10.3185 18.3465 10.0867Z" fill="black"/>
<path d="M21 17.5C21 16.6716 20.3284 16 19.5 16C18.6716 16 18 16.6716 18 17.5C18 18.3284 18.6716 19 19.5 19C20.3284 19 21 18.3284 21 17.5ZM23 17.5C23 19.433 21.433 21 19.5 21C17.567 21 16 19.433 16 17.5C16 15.567 17.567 14 19.5 14C21.433 14 23 15.567 23 17.5Z" fill="black"/>
<path d="M6 17.5C6 16.6716 5.32843 16 4.5 16C3.67157 16 3 16.6716 3 17.5C3 18.3284 3.67157 19 4.5 19C5.32843 19 6 18.3284 6 17.5ZM8 17.5C8 19.433 6.433 21 4.5 21C2.567 21 1 19.433 1 17.5C1 15.567 2.567 14 4.5 14C6.433 14 8 15.567 8 17.5Z" fill="black"/>
</svg>
