<svg width="24" height="24" viewBox="0 0 24 24" fill="none" xmlns="http://www.w3.org/2000/svg">
<path fill-rule="evenodd" clip-rule="evenodd" d="M17.2929 1.29289C17.6834 0.902369 18.3166 0.902369 18.7071 1.29289L22.7071 5.29289C23.0976 5.68342 23.0976 6.31658 22.7071 6.70711C22.3166 7.09763 21.6834 7.09763 21.2929 6.70711L17.2929 2.70711C16.9024 2.31658 16.9024 1.68342 17.2929 1.29289Z" fill="black"/>
<path fill-rule="evenodd" clip-rule="evenodd" d="M20.7071 3.29289C21.0976 3.68342 21.0976 4.31658 20.7071 4.70711L17.7071 7.70711C17.3166 8.09763 16.6834 8.09763 16.2929 7.70711C15.9024 7.31658 15.9024 6.68342 16.2929 6.29289L19.2929 3.29289C19.6834 2.90237 20.3166 2.90237 20.7071 3.29289Z" fill="black"/>
<path fill-rule="evenodd" clip-rule="evenodd" d="M15.7071 4.29289C16.0976 4.68342 16.0976 5.31658 15.7071 5.70711L5.40712 16.0071C5.39472 16.0195 5.382 16.0316 5.36898 16.0433C4.83222 16.5264 4.77578 17.3616 5.40712 17.9929L6.00712 18.5929C6.01951 18.6053 6.03158 18.618 6.04331 18.631C6.52639 19.1678 7.36157 19.2242 7.9929 18.5929L18.2929 8.29289C18.6834 7.90237 19.3166 7.90237 19.7071 8.29289C20.0976 8.68342 20.0976 9.31658 19.7071 9.70711L9.40712 20.0071C8.04506 21.3692 5.89453 21.4316 4.57586 19.9901L3.9929 19.4071C2.63085 18.0451 2.56838 15.8945 4.00996 14.5758L14.2929 4.29289C14.6834 3.90237 15.3166 3.90237 15.7071 4.29289Z" fill="black"/>
<path fill-rule="evenodd" clip-rule="evenodd" d="M8.29289 10.2929C8.68342 9.90237 9.31658 9.90237 9.70711 10.2929L13.7071 14.2929C14.0976 14.6834 14.0976 15.3166 13.7071 15.7071C13.3166 16.0976 12.6834 16.0976 12.2929 15.7071L8.29289 11.7071C7.90237 11.3166 7.90237 10.6834 8.29289 10.2929Z" fill="black"/>
<path fill-rule="evenodd" clip-rule="evenodd" d="M5.70711 18.2929C6.09763 18.6834 6.09763 19.3166 5.70711 19.7071L2.70711 22.7071C2.31658 23.0976 1.68342 23.0976 1.29289 22.7071C0.902369 22.3166 0.902369 21.6834 1.29289 21.2929L4.29289 18.2929C4.68342 17.9024 5.31658 17.9024 5.70711 18.2929Z" fill="black"/>
<path fill-rule="evenodd" clip-rule="evenodd" d="M13.2929 3.29289C13.6834 2.90237 14.3166 2.90237 14.7071 3.29289L20.7071 9.29289C21.0976 9.68342 21.0976 10.3166 20.7071 10.7071C20.3166 11.0976 19.6834 11.0976 19.2929 10.7071L13.2929 4.70711C12.9024 4.31658 12.9024 3.68342 13.2929 3.29289Z" fill="black"/>
</svg>
