<svg width="24" height="24" viewBox="0 0 24 24" fill="none" xmlns="http://www.w3.org/2000/svg">
<path fill-rule="evenodd" clip-rule="evenodd" d="M13.9369 3.06688C13.7038 2.99569 13.4569 2.98237 13.2175 3.02808C12.9781 3.07378 12.7534 3.17713 12.5629 3.32919C12.3725 3.48124 12.2219 3.67742 12.1243 3.90074C12.0458 4.0807 11.9481 4.41566 11.8324 4.93201C11.7204 5.43183 11.6052 6.03682 11.4769 6.72355C11.4591 6.81877 11.4411 6.91542 11.4228 7.0134C11.1803 8.31393 10.8945 9.84727 10.5195 11.3234C10.4923 11.4302 10.4646 11.537 10.4364 11.6439C10.9337 11.7855 11.4039 11.9508 11.8392 12.1399C13.5145 12.8675 15 14.1132 15 16.0003H17V15.504C16.9983 15.2117 17.082 14.9252 17.2409 14.6798C17.401 14.4325 17.6304 14.2378 17.9005 14.1201C18.1705 14.0024 18.4692 13.9667 18.7594 14.0177C19.0402 14.067 19.3009 14.1953 19.5112 14.3872L21.6548 16.2445C22.0722 16.6061 22.1174 17.2377 21.7558 17.6551C21.3941 18.0725 20.7626 18.1177 20.3452 17.756L18.9289 16.5289C18.8379 16.8609 18.6619 17.1668 18.4142 17.4145C18.0391 17.7896 17.5304 18.0003 17 18.0003H15C14.4696 18.0003 13.9609 17.7895 13.5858 17.4145C13.2107 17.0394 13 16.5307 13 16.0003C13 15.3423 12.49 14.603 11.0425 13.9744C10.6818 13.8177 10.2825 13.6781 9.85123 13.5568C9.57156 14.3404 9.24745 15.0783 8.8665 15.7146C8.14524 16.9194 7.0659 18.0003 5.5 18.0003C4.57174 18.0003 3.6815 17.6315 3.02513 16.9751C2.36875 16.3188 2 15.4285 2 14.5003C2 13.572 2.36875 12.6818 3.02513 12.0254C3.6815 11.369 4.57174 11.0003 5.5 11.0003C5.50193 11.0003 5.50386 11.0003 5.50579 11.0003C6.52249 11.007 7.52681 11.0818 8.47801 11.2256C8.51296 11.0953 8.5473 10.9637 8.58105 10.8309C8.93948 9.42019 9.21417 7.94715 9.45864 6.63618C9.47621 6.54198 9.49362 6.44862 9.51089 6.35619C9.63838 5.67393 9.75982 5.03475 9.88077 4.49481C9.99797 3.97167 10.1294 3.47138 10.2916 3.10003C10.5193 2.57894 10.8707 2.12095 11.3152 1.76615C11.7596 1.41136 12.2838 1.17021 12.8424 1.06356C13.401 0.956914 13.9772 0.987986 14.521 1.15409C15.0649 1.32019 15.5602 1.61632 15.9639 2.01685C16.3676 2.41738 16.6676 2.91025 16.838 3.45281C17.0084 3.99537 17.044 4.57128 16.9417 5.1307C16.8395 5.69012 16.6025 6.2162 16.2512 6.66342C15.8999 7.11064 15.445 7.46553 14.9257 7.69738C14.4214 7.92254 13.83 7.69626 13.6049 7.19196C13.3797 6.68765 13.606 6.09631 14.1103 5.87114C14.3329 5.77178 14.5278 5.61968 14.6784 5.42802C14.8289 5.23635 14.9305 5.01089 14.9743 4.77114C15.0181 4.53139 15.0029 4.28457 14.9299 4.05204C14.8568 3.81952 14.7282 3.60829 14.5552 3.43663C14.3822 3.26497 14.17 3.13806 13.9369 3.06688ZM7.8668 13.1589C7.11857 13.0603 6.32146 13.0059 5.49704 13.0003C5.10028 13.001 4.71995 13.159 4.43934 13.4396C4.15804 13.7209 4 14.1024 4 14.5003C4 14.8981 4.15804 15.2796 4.43934 15.5609C4.72064 15.8422 5.10218 16.0003 5.5 16.0003C6.0106 16.0003 6.56263 15.6693 7.1505 14.6873C7.41114 14.2519 7.64884 13.7351 7.8668 13.1589Z" fill="black"/>
<path fill-rule="evenodd" clip-rule="evenodd" d="M2 21.0002C2 20.4479 2.44772 20.0002 3 20.0002H21C21.5523 20.0002 22 20.4479 22 21.0002C22 21.5525 21.5523 22.0002 21 22.0002H3C2.44772 22.0002 2 21.5525 2 21.0002Z" fill="black"/>
</svg>
