<svg width="24" height="24" viewBox="0 0 24 24" fill="none" xmlns="http://www.w3.org/2000/svg">
<path fill-rule="evenodd" clip-rule="evenodd" d="M5 4C4.73478 4 4.48043 4.10536 4.29289 4.29289C4.10536 4.48043 4 4.73478 4 5V17C4 17.7956 4.31607 18.5587 4.87868 19.1213C5.44129 19.6839 6.20435 20 7 20C7.79565 20 8.55871 19.6839 9.12132 19.1213C9.68393 18.5587 10 17.7956 10 17V5C10 4.73478 9.89464 4.48043 9.70711 4.29289C9.51957 4.10536 9.26522 4 9 4H5ZM2.87868 2.87868C3.44129 2.31607 4.20435 2 5 2H9C9.79565 2 10.5587 2.31607 11.1213 2.87868C11.6839 3.44129 12 4.20435 12 5V17C12 18.3261 11.4732 19.5979 10.5355 20.5355C9.59785 21.4732 8.32608 22 7 22C5.67392 22 4.40215 21.4732 3.46447 20.5355C2.52678 19.5979 2 18.3261 2 17V5C2 4.20435 2.31607 3.44129 2.87868 2.87868Z" fill="black"/>
<path fill-rule="evenodd" clip-rule="evenodd" d="M15.7 13C15.7 12.4477 16.1477 12 16.7 12H19C19.7957 12 20.5587 12.3161 21.1213 12.8787C21.6839 13.4413 22 14.2043 22 15V19C22 19.7957 21.6839 20.5587 21.1213 21.1213C20.5587 21.6839 19.7957 22 19 22H7C6.44772 22 6 21.5523 6 21C6 20.4477 6.44772 20 7 20H19C19.2652 20 19.5196 19.8946 19.7071 19.7071C19.8946 19.5196 20 19.2652 20 19V15C20 14.7348 19.8946 14.4804 19.7071 14.2929C19.5196 14.1054 19.2652 14 19 14H16.7C16.1477 14 15.7 13.5523 15.7 13Z" fill="black"/>
<path fill-rule="evenodd" clip-rule="evenodd" d="M6 17C6 16.4477 6.44772 16 7 16H7.01C7.56228 16 8.01 16.4477 8.01 17C8.01 17.5523 7.56228 18 7.01 18H7C6.44772 18 6 17.5523 6 17Z" fill="black"/>
<path fill-rule="evenodd" clip-rule="evenodd" d="M15.0017 5.99406C14.8171 5.99385 14.6344 6.03012 14.4639 6.10078C14.2934 6.17145 14.1386 6.27512 14.0083 6.40584L11.7071 8.70707C11.3166 9.0976 10.6834 9.0976 10.2929 8.70707C9.90237 8.31655 9.90237 7.68338 10.2929 7.29286L12.5917 4.99409C12.5914 4.99432 12.5919 4.99387 12.5917 4.99409C12.9079 4.67696 13.2843 4.42474 13.698 4.25324C14.112 4.08162 14.5558 3.99354 15.004 3.99406C15.4522 3.99459 15.8958 4.08371 16.3094 4.25631C16.7223 4.42862 17.0971 4.68072 17.4124 4.99816C17.4129 4.99869 17.4135 4.99923 17.414 4.99976L19.3008 6.88659C19.624 7.19934 19.8819 7.5731 20.0596 7.98626C20.2387 8.40265 20.3327 8.85065 20.3361 9.30392C20.3396 9.75718 20.2523 10.2066 20.0795 10.6256C19.9072 11.0436 19.6533 11.423 19.3325 11.7416L10.6087 20.5055C10.2191 20.8969 9.58593 20.8983 9.19451 20.5087C8.80309 20.1191 8.80165 19.4859 9.19128 19.0945L17.9173 10.3285C17.9188 10.3269 17.9204 10.3254 17.9219 10.3238C18.0545 10.1924 18.1594 10.0358 18.2305 9.86329C18.3017 9.69074 18.3376 9.5057 18.3362 9.31906C18.3348 9.13243 18.2961 8.94796 18.2223 8.7765C18.1486 8.60504 18.0413 8.45006 17.9068 8.32067C17.9021 8.31618 17.8975 8.31165 17.8929 8.30707L15.9969 6.41107C15.9959 6.41011 15.995 6.40914 15.994 6.40817C15.8641 6.27715 15.7095 6.17312 15.5392 6.10205C15.3689 6.03098 15.1862 5.99428 15.0017 5.99406Z" fill="black"/>
</svg>
