<svg width="24" height="24" viewBox="0 0 24 24" fill="none" xmlns="http://www.w3.org/2000/svg">
<g clip-path="url(#clip0_404_39231)">
<path d="M21.0005 11.9995L15.4419 10.9487C14.8493 10.8367 14.3039 10.548 13.8774 10.1216C13.4513 9.69524 13.1633 9.15043 13.0513 8.55811L12.0005 2.99951H11.9995L10.9487 8.55811C10.8367 9.15064 10.548 9.69517 10.1216 10.1216C9.69505 10.5481 9.14985 10.8358 8.55713 10.9478L2.99951 11.9995V12.0005L8.55811 13.0513C9.15043 13.1633 9.69524 13.4513 10.1216 13.8774C10.548 14.3039 10.8367 14.8493 10.9487 15.4419L11.9995 21.0005V21.0024L12.0005 21.0005L13.0513 15.4419C13.1633 14.8493 13.451 14.3039 13.8774 13.8774C14.3039 13.451 14.8493 13.1633 15.4419 13.0513L21.0005 12.0005L21.0024 11.9995H21.0005ZM23.0024 11.9995C23.0024 12.4662 22.8387 12.9188 22.5405 13.2778C22.2424 13.6367 21.8283 13.8806 21.3696 13.9663L21.3687 13.9653L15.814 15.0161C15.6164 15.0534 15.4347 15.1503 15.2925 15.2925C15.1503 15.4347 15.0534 15.6164 15.0161 15.814L13.9653 21.3687C13.8797 21.8273 13.6367 22.2424 13.2778 22.5405C12.9188 22.8387 12.4662 23.0024 11.9995 23.0024C11.5329 23.0023 11.0811 22.8386 10.7222 22.5405C10.3632 22.2424 10.1194 21.8283 10.0337 21.3696V21.3687L8.98291 15.814C8.94559 15.6164 8.84967 15.4347 8.70752 15.2925C8.56534 15.1503 8.38361 15.0534 8.18604 15.0161L2.63037 13.9653V13.9663C2.17158 13.8806 1.75669 13.6369 1.4585 13.2778C1.16041 12.9188 0.997559 12.4662 0.997559 11.9995C0.997661 11.533 1.16053 11.0811 1.4585 10.7222C1.71938 10.408 2.06976 10.1827 2.46045 10.0737L2.63037 10.0337L8.18604 8.98291C8.38361 8.94559 8.56534 8.8497 8.70752 8.70752C8.8497 8.56534 8.94559 8.38361 8.98291 8.18604L10.0337 2.63037L10.0737 2.46045C10.1827 2.06976 10.408 1.71938 10.7222 1.4585C11.0811 1.16053 11.533 0.997661 11.9995 0.997559C12.4662 0.997559 12.9188 1.16041 13.2778 1.4585C13.6369 1.75669 13.8806 2.17158 13.9663 2.63037H13.9653L15.0161 8.18604C15.0534 8.38361 15.1503 8.56534 15.2925 8.70752C15.4347 8.84967 15.6164 8.94559 15.814 8.98291L21.3687 10.0337C21.8274 10.1194 22.2423 10.3632 22.5405 10.7222C22.8386 11.0811 23.0023 11.5329 23.0024 11.9995Z" fill="black"/>
</g>
<defs>
<clipPath id="clip0_404_39231">
<rect width="24" height="24" fill="white"/>
</clipPath>
</defs>
</svg>
