<svg width="24" height="24" viewBox="0 0 24 24" fill="none" xmlns="http://www.w3.org/2000/svg">
<path fill-rule="evenodd" clip-rule="evenodd" d="M11.3712 5.22343C11.3712 5.22347 11.3713 5.22338 11.3712 5.22343L2.99921 12.0004C2.56994 12.3479 1.94026 12.2816 1.59277 11.8523C1.24529 11.4231 1.31158 10.7934 1.74085 10.4459L10.113 3.66876C10.647 3.2367 11.3131 3.00098 12 3.00098C12.6869 3.00098 13.353 3.2367 13.887 3.66876L22.2583 10.4459C22.6875 10.7935 22.7538 11.4231 22.4063 11.8524C22.0587 12.2816 21.4291 12.3479 20.9998 12.0004L12.629 5.22357C12.451 5.07955 12.229 5.00098 12 5.00098C11.7711 5.00098 11.5492 5.0795 11.3712 5.22343Z" fill="black"/>
<path fill-rule="evenodd" clip-rule="evenodd" d="M20 15.0002C20 14.4479 20.4477 14.0002 21 14.0002C21.5304 14.0002 22.0391 14.2109 22.4142 14.586C22.7893 14.9611 23 15.4698 23 16.0002V18.0002C23 18.5306 22.7893 19.0393 22.4142 19.4144C22.0391 19.7895 21.5304 20.0002 21 20.0002H15.75C15.1977 20.0002 14.75 19.5525 14.75 19.0002C14.75 18.4479 15.1977 18.0002 15.75 18.0002H21V16.0002C20.4477 16.0002 20 15.5525 20 15.0002Z" fill="black"/>
<path fill-rule="evenodd" clip-rule="evenodd" d="M1.58579 14.586C1.96086 14.2109 2.46957 14.0002 3 14.0002C3.55228 14.0002 4 14.4479 4 15.0002C4 15.5525 3.55228 16.0002 3 16.0002V18.0002H12C12.5523 18.0002 13 18.4479 13 19.0002C13 19.5525 12.5523 20.0002 12 20.0002H3C2.46957 20.0002 1.96086 19.7895 1.58579 19.4144C1.21071 19.0393 1 18.5306 1 18.0002V16.0002C1 15.4698 1.21071 14.9611 1.58579 14.586Z" fill="black"/>
<path fill-rule="evenodd" clip-rule="evenodd" d="M19.3501 14.2002C19.7919 14.5315 19.8814 15.1583 19.5501 15.6002L16.4001 19.8002C16.1637 20.1154 15.8675 20.3809 15.5285 20.5816C15.1895 20.7823 14.8143 20.9143 14.4243 20.97C14.0343 21.0257 13.6372 21.0041 13.2555 20.9063C12.8739 20.8085 12.5152 20.6366 12.2001 20.4002L6.06985 15.8C5.62811 15.4685 5.53873 14.8417 5.87022 14.4C6.2017 13.9582 6.82853 13.8688 7.27027 14.2003L13.4001 18.8002C13.5051 18.8789 13.6247 18.9363 13.7519 18.9689C13.8791 19.0015 14.0115 19.0087 14.1415 18.9901C14.2715 18.9716 14.3966 18.9276 14.5096 18.8607C14.6226 18.7937 14.7213 18.7052 14.8001 18.6002L17.9501 14.4002C18.2814 13.9583 18.9082 13.8688 19.3501 14.2002Z" fill="black"/>
<path fill-rule="evenodd" clip-rule="evenodd" d="M2.99921 12.0004L3 14.0002H21L20.9998 12.0004L2.99921 12.0004ZM1 12.0002C1 10.8956 1.89543 10.0002 3 10.0002H21C22.1046 10.0002 23 10.8956 23 12.0002V14.0002C23 15.1048 22.1046 16.0002 21 16.0002H3C1.89543 16.0002 1 15.1048 1 14.0002V12.0002Z" fill="black"/>
</svg>
