<svg width="24" height="24" viewBox="0 0 24 24" fill="none" xmlns="http://www.w3.org/2000/svg">
<path d="M9.99997 17.3154C9.90666 17.2615 9.81643 17.2017 9.73239 17.1328L9.58591 17L7.99997 15.4141L4.41403 19H9.99997V17.3154ZM20.9912 5.12988C20.9911 4.83257 20.8733 4.54715 20.6631 4.33691C20.4528 4.12669 20.1674 4.00882 19.8701 4.00879C19.5728 4.00879 19.2874 4.12673 19.0771 4.33691L9.41403 14L11 15.5859L20.6631 5.92285C20.8732 5.71258 20.9912 5.4272 20.9912 5.12988ZM22.9912 5.12988C22.9912 5.95763 22.6624 6.75157 22.0771 7.33691L12.414 17C12.2898 17.1242 12.1496 17.2289 12 17.3154V19C12 19.5304 11.7891 20.039 11.414 20.4141C11.039 20.7891 10.5304 21 9.99997 21H1.99997C1.59552 21 1.23093 20.7565 1.07614 20.3828C0.921363 20.0091 1.00694 19.579 1.29294 19.293L17.6631 2.92285C18.2484 2.3376 19.0423 2.00879 19.8701 2.00879C20.6978 2.00882 21.4918 2.33755 22.0771 2.92285C22.6624 3.50816 22.9911 4.30214 22.9912 5.12988Z" fill="black"/>
</svg>
