<svg width="24" height="24" viewBox="0 0 24 24" fill="none" xmlns="http://www.w3.org/2000/svg">
<path fill-rule="evenodd" clip-rule="evenodd" d="M12.3753 7.71917C12.8066 7.37416 13.4359 7.44408 13.7809 7.87534L15.7809 10.3753C16.073 10.7406 16.073 11.2595 15.7809 11.6247L13.7809 14.1247C13.4359 14.556 12.8066 14.6259 12.3753 14.2809C11.944 13.9359 11.8741 13.3066 12.2191 12.8753L13.7194 11L12.2191 9.12473C11.8741 8.69347 11.944 8.06418 12.3753 7.71917Z" fill="black"/>
<path fill-rule="evenodd" clip-rule="evenodd" d="M15.9929 15.9929C16.3834 15.6024 17.0166 15.6024 17.4071 15.9929L21.7071 20.2929C22.0976 20.6834 22.0976 21.3166 21.7071 21.7071C21.3166 22.0976 20.6834 22.0976 20.2929 21.7071L15.9929 17.4071C15.6024 17.0166 15.6024 16.3834 15.9929 15.9929Z" fill="black"/>
<path fill-rule="evenodd" clip-rule="evenodd" d="M9.62469 7.71917C10.056 8.06418 10.1259 8.69347 9.78087 9.12473L8.28062 11L9.78087 12.8753C10.1259 13.3066 10.056 13.9359 9.62469 14.2809C9.19343 14.6259 8.56414 14.556 8.21913 14.1247L6.21913 11.6247C5.92696 11.2595 5.92696 10.7406 6.21913 10.3753L8.21913 7.87534C8.56414 7.44408 9.19343 7.37416 9.62469 7.71917Z" fill="black"/>
<path fill-rule="evenodd" clip-rule="evenodd" d="M11 4C7.13401 4 4 7.13401 4 11C4 14.866 7.13401 18 11 18C14.866 18 18 14.866 18 11C18 7.13401 14.866 4 11 4ZM2 11C2 6.02944 6.02944 2 11 2C15.9706 2 20 6.02944 20 11C20 15.9706 15.9706 20 11 20C6.02944 20 2 15.9706 2 11Z" fill="black"/>
</svg>
