<svg width="24" height="24" viewBox="0 0 24 24" fill="none" xmlns="http://www.w3.org/2000/svg">
<path fill-rule="evenodd" clip-rule="evenodd" d="M11 1C11.5523 1 12 1.44772 12 2V4C12 4.55228 11.5523 5 11 5C10.4477 5 10 4.55228 10 4V2C10 1.44772 10.4477 1 11 1Z" fill="black"/>
<path fill-rule="evenodd" clip-rule="evenodd" d="M5 1C5.55228 1 6 1.44772 6 2V4C6 4.55228 5.55228 5 5 5C4.44772 5 4 4.55228 4 4V2C4 1.44772 4.44772 1 5 1Z" fill="black"/>
<path fill-rule="evenodd" clip-rule="evenodd" d="M1.87868 2.87868C2.44129 2.31607 3.20435 2 4 2H5C5.55228 2 6 2.44772 6 3C6 3.55228 5.55228 4 5 4H4C3.73478 4 3.48043 4.10536 3.29289 4.29289C3.10536 4.48043 3 4.73478 3 5V9C3 10.3261 3.52678 11.5979 4.46447 12.5355C5.40215 13.4732 6.67392 14 8 14C9.32608 14 10.5979 13.4732 11.5355 12.5355C12.4732 11.5979 13 10.3261 13 9V5C13 4.73478 12.8946 4.48043 12.7071 4.29289C12.5196 4.10536 12.2652 4 12 4H11C10.4477 4 10 3.55228 10 3C10 2.44772 10.4477 2 11 2H12C12.7956 2 13.5587 2.31607 14.1213 2.87868C14.6839 3.44129 15 4.20435 15 5V9C15 10.8565 14.2625 12.637 12.9497 13.9497C11.637 15.2625 9.85651 16 8 16C6.14348 16 4.36301 15.2625 3.05025 13.9497C1.7375 12.637 1 10.8565 1 9V5C1 4.20435 1.31607 3.44129 1.87868 2.87868Z" fill="black"/>
<path fill-rule="evenodd" clip-rule="evenodd" d="M20 11C20.5523 11 21 11.4477 21 12V15C21 16.8565 20.2625 18.637 18.9497 19.9497C17.637 21.2625 15.8565 22 14 22C12.1435 22 10.363 21.2625 9.05025 19.9497C7.7375 18.637 7 16.8565 7 15C7 14.4477 7.44772 14 8 14C8.55228 14 9 14.4477 9 15C9 16.3261 9.52678 17.5979 10.4645 18.5355C11.4021 19.4732 12.6739 20 14 20C15.3261 20 16.5979 19.4732 17.5355 18.5355C18.4732 17.5979 19 16.3261 19 15V12C19 11.4477 19.4477 11 20 11Z" fill="black"/>
<path fill-rule="evenodd" clip-rule="evenodd" d="M20 9C19.4477 9 19 9.44771 19 10C19 10.5523 19.4477 11 20 11C20.5523 11 21 10.5523 21 10C21 9.44771 20.5523 9 20 9ZM17 10C17 8.34315 18.3431 7 20 7C21.6569 7 23 8.34315 23 10C23 11.6569 21.6569 13 20 13C18.3431 13 17 11.6569 17 10Z" fill="black"/>
</svg>
