<svg width="24" height="24" viewBox="0 0 24 24" fill="none" xmlns="http://www.w3.org/2000/svg">
<path d="M2 19V5C2 4.20435 2.3163 3.44152 2.87891 2.87891C3.44152 2.3163 4.20435 2 5 2H17.3438C17.896 2 18.3438 2.44772 18.3438 3C18.3438 3.55228 17.896 4 17.3438 4H5C4.73478 4 4.4805 4.10543 4.29297 4.29297C4.10543 4.4805 4 4.73478 4 5V19C4 19.2652 4.10543 19.5195 4.29297 19.707C4.48051 19.8946 4.73478 20 5 20H19C19.2652 20 19.5195 19.8946 19.707 19.707C19.8946 19.5195 20 19.2652 20 19V10.6562C20 10.104 20.4477 9.65625 21 9.65625C21.5523 9.65625 22 10.104 22 10.6562V19C22 19.7957 21.6837 20.5585 21.1211 21.1211C20.5585 21.6837 19.7957 22 19 22H5C4.20435 22 3.44152 21.6837 2.87891 21.1211C2.3163 20.5585 2 19.7957 2 19Z" fill="black"/>
<path d="M21.2929 3.29289C21.6834 2.90237 22.3164 2.90237 22.707 3.29289C23.0975 3.68342 23.0975 4.31643 22.707 4.70696L12.707 14.707C12.3164 15.0975 11.6834 15.0975 11.2929 14.707L8.29289 11.707C7.90237 11.3164 7.90237 10.6834 8.29289 10.2929C8.68342 9.90237 9.31643 9.90237 9.70696 10.2929L11.9999 12.5859L21.2929 3.29289Z" fill="black"/>
</svg>
