<svg width="24" height="24" viewBox="0 0 24 24" fill="none" xmlns="http://www.w3.org/2000/svg">
<path d="M8.08468 1.38032C9.19702 0.91968 10.4387 0.875237 11.5808 1.2563L17.5798 3.25728C18.3161 3.50275 18.9851 3.91649 19.5339 4.46528C20.0828 5.0142 20.4965 5.68392 20.7419 6.42036L22.7419 12.4204C23.0883 13.4607 23.0832 14.5864 22.7273 15.6235C22.3713 16.6606 21.6844 17.5523 20.7722 18.1606L14.7722 22.1606C13.9508 22.7083 12.985 23.0004 11.9978 23.0004C11.0107 23.0004 10.0456 22.7081 9.22433 22.1606L3.22433 18.1606C2.21045 17.4847 1.47861 16.4613 1.16573 15.2836C0.852951 14.1059 0.980276 12.8541 1.52511 11.7641L5.52511 3.76411C6.06333 2.6873 6.9725 1.841 8.08468 1.38032ZM10.948 3.15376C10.2627 2.92513 9.5177 2.95161 8.8503 3.22798C8.1829 3.50437 7.63714 4.01249 7.31417 4.65864L3.31417 12.6586C2.98735 13.3126 2.9107 14.0634 3.09835 14.77C3.28605 15.4767 3.72532 16.091 4.3337 16.4965L10.3337 20.4965C10.8264 20.825 11.4056 21.0004 11.9978 21.0004C12.5899 21.0004 13.1691 20.8249 13.6618 20.4965L19.6618 16.4965L19.861 16.351C20.3095 15.9957 20.6488 15.5185 20.8357 14.9741C21.0225 14.4296 21.0485 13.8444 20.9128 13.2885L20.8444 13.0522L18.8444 7.0522C18.6972 6.61036 18.4492 6.20868 18.1198 5.87935C17.8317 5.59123 17.4883 5.36497 17.111 5.21431L16.947 5.15474L10.948 3.15376Z" fill="black"/>
<path d="M13.5271 11.1193C13.7896 10.9784 14.1008 10.9621 14.3767 11.0743L22.199 14.2579C22.7104 14.4661 22.9559 15.0492 22.7478 15.5607C22.5396 16.0721 21.9566 16.3186 21.4451 16.1105L14.742 13.381L12.9705 22.1974C12.8616 22.7387 12.3341 23.0894 11.7928 22.9806C11.2514 22.8717 10.9007 22.3442 11.0095 21.8028L13.0193 11.8028L13.0476 11.6954C13.1262 11.4499 13.2975 11.2426 13.5271 11.1193Z" fill="black"/>
<path d="M7.9749 1.43297C8.45461 1.15969 9.06566 1.32735 9.33916 1.80699L14.8685 11.5052C15.1418 11.9849 14.975 12.5949 14.4954 12.8685C14.0156 13.1421 13.4047 12.9752 13.1312 12.4955L7.60088 2.79723C7.3276 2.31751 7.49526 1.70647 7.9749 1.43297Z" fill="black"/>
</svg>
