<svg width="24" height="24" viewBox="0 0 24 24" fill="none" xmlns="http://www.w3.org/2000/svg">
<path fill-rule="evenodd" clip-rule="evenodd" d="M15.1104 10.0063C15.6593 10.0673 16.0549 10.5617 15.9939 11.1106L14.9939 20.1106C14.9329 20.6595 14.4385 21.055 13.8896 20.994C13.3407 20.9331 12.9451 20.4386 13.0061 19.8897L14.0061 10.8897C14.0671 10.3408 14.5615 9.94529 15.1104 10.0063Z" fill="black"/>
<path fill-rule="evenodd" clip-rule="evenodd" d="M14.5039 3.13193C14.9834 2.85792 15.5942 3.02451 15.8682 3.50403L19.8682 10.504C20.1422 10.9835 19.9757 11.5944 19.4961 11.8684C19.0166 12.1424 18.4058 11.9758 18.1318 11.4963L14.1318 4.49631C13.8577 4.01679 14.0243 3.40594 14.5039 3.13193Z" fill="black"/>
<path fill-rule="evenodd" clip-rule="evenodd" d="M1 11.0002C1 10.4479 1.44772 10.0002 2 10.0002H22C22.5523 10.0002 23 10.4479 23 11.0002C23 11.5524 22.5523 12.0002 22 12.0002H2C1.44772 12.0002 1 11.5524 1 11.0002Z" fill="black"/>
<path fill-rule="evenodd" clip-rule="evenodd" d="M20.8239 10.0255C21.3622 10.1492 21.6983 10.6858 21.5746 11.224L19.8771 18.6132C19.7347 19.2957 19.359 19.9075 18.8144 20.3432C18.2691 20.7794 17.5889 21.0116 16.8909 21.0001H7.10907C6.41111 21.0116 5.73085 20.7794 5.18559 20.3432C4.63912 19.906 4.26274 19.2916 4.12147 18.6063L2.52258 11.2115C2.40587 10.6717 2.74885 10.1394 3.28867 10.0227C3.82848 9.90601 4.3607 10.249 4.47741 10.7888L6.07741 18.1888L6.0779 18.1911C6.07856 18.1942 6.07921 18.1973 6.07984 18.2003C6.12659 18.4296 6.25226 18.6352 6.43498 18.7814C6.6177 18.9276 6.84589 19.0051 7.07984 19.0003C7.08656 19.0002 7.09328 19.0001 7.1 19.0001H16.9C16.9067 19.0001 16.9134 19.0002 16.9202 19.0003C17.1541 19.0051 17.3823 18.9276 17.565 18.7814C17.7477 18.6352 17.8734 18.4296 17.9202 18.2003C17.9218 18.1923 17.9235 18.1843 17.9254 18.1762L19.6254 10.7762C19.749 10.238 20.2856 9.90187 20.8239 10.0255Z" fill="black"/>
<path fill-rule="evenodd" clip-rule="evenodd" d="M3.5 15.5002C3.5 14.9479 3.94772 14.5002 4.5 14.5002H19.5C20.0523 14.5002 20.5 14.9479 20.5 15.5002C20.5 16.0524 20.0523 16.5002 19.5 16.5002H4.5C3.94772 16.5002 3.5 16.0524 3.5 15.5002Z" fill="black"/>
<path fill-rule="evenodd" clip-rule="evenodd" d="M9.49614 3.13193C9.97566 3.40594 10.1423 4.01679 9.86824 4.49631L5.86824 11.4963C5.59423 11.9758 4.98338 12.1424 4.50386 11.8684C4.02434 11.5944 3.85775 10.9835 4.13176 10.504L8.13176 3.50403C8.40577 3.02451 9.01662 2.85792 9.49614 3.13193Z" fill="black"/>
<path fill-rule="evenodd" clip-rule="evenodd" d="M8.88957 10.0063C9.43848 9.94529 9.93289 10.3408 9.99388 10.8897L10.9939 19.8897C11.0549 20.4386 10.6593 20.9331 10.1104 20.994C9.56153 21.055 9.06711 20.6595 9.00612 20.1106L8.00612 11.1106C7.94513 10.5617 8.34066 10.0673 8.88957 10.0063Z" fill="black"/>
</svg>
