<svg width="24" height="24" viewBox="0 0 24 24" fill="none" xmlns="http://www.w3.org/2000/svg">
<path d="M14 21V16H10V21C10 21.5523 9.55228 22 9 22C8.44772 22 8 21.5523 8 21V16C8 15.4696 8.21087 14.961 8.58594 14.5859C8.96101 14.2109 9.46957 14 10 14H14C14.5304 14 15.039 14.2109 15.4141 14.5859C15.7891 14.961 16 15.4696 16 16V21C16 21.5523 15.5523 22 15 22C14.4477 22 14 21.5523 14 21Z" fill="black"/>
<path d="M17 1C17.4885 0.999883 17.9694 1.11954 18.4014 1.34766C18.8335 1.57588 19.2041 1.90585 19.4795 2.30957L22.3652 6.48926C22.8657 7.20041 23.0838 8.07259 22.9766 8.93555C22.8692 9.7986 22.4447 10.5913 21.7852 11.1582C21.1257 11.7251 20.2785 12.0264 19.4092 12.0029C18.546 11.9796 17.7221 11.6377 17.0957 11.0439C17.0914 11.04 17.0863 11.0363 17.082 11.0322C17.0597 11.011 17.0298 10.999 16.999 10.999C16.9683 10.9991 16.9383 11.0109 16.916 11.0322L16.9151 11.0332C16.2641 11.6541 15.3987 12.001 14.499 12.001C13.5996 12.0009 12.7349 11.654 12.084 11.0332C12.0617 11.0119 12.0309 11 12 11C11.9691 11 11.9393 11.0119 11.917 11.0332C11.266 11.6545 10.3999 12.001 9.50001 12.001C8.6001 12.001 7.73504 11.6545 7.084 11.0332L7.08205 11.0322C7.05974 11.011 7.02983 10.999 6.99904 10.999C6.96827 10.9991 6.93826 11.0109 6.91603 11.0322L6.91505 11.0332C6.28624 11.6333 5.4568 11.9779 4.5879 12C3.71918 12.0221 2.87329 11.7204 2.21486 11.1533C1.55636 10.586 1.1321 9.79328 1.0254 8.93066C0.919178 8.07116 1.13615 7.20337 1.63283 6.49414L4.5215 2.30957C4.79592 1.90727 5.16441 1.57777 5.59474 1.34961C6.02765 1.12014 6.51004 0.999932 7.00001 1H17ZM7.00001 3C6.83671 2.99997 6.67556 3.03975 6.53126 3.11621C6.38692 3.19274 6.26354 3.30421 6.17189 3.43945L6.16701 3.44629L3.27833 7.62988L3.27248 7.6377C3.05802 7.94226 2.96503 8.31587 3.01076 8.68555C3.05649 9.05507 3.23752 9.3946 3.51955 9.6377C3.80175 9.88082 4.16475 10.0104 4.53712 10.001C4.90933 9.99151 5.26475 9.84385 5.53419 9.58691C5.9286 9.20972 6.45328 8.99913 6.99904 8.99902C7.54529 8.99902 8.07124 9.21015 8.46583 9.58789C8.74475 9.85363 9.11474 10.001 9.50001 10.001C9.88552 10.001 10.2562 9.85296 10.5352 9.58691L10.6885 9.4541C11.0607 9.16095 11.5223 9 12 9C12.5452 9.00001 13.0695 9.20951 13.4639 9.58594C13.7428 9.85195 14.1136 10.0009 14.499 10.001C14.8846 10.001 15.2562 9.85205 15.5352 9.58594C15.9295 9.20934 16.4537 8.99913 16.999 8.99902C17.507 8.99902 17.9955 9.18338 18.3789 9.5127C18.4089 9.53553 18.438 9.56023 18.4658 9.58691C18.7349 9.84474 19.0904 9.99284 19.4629 10.0029C19.8355 10.013 20.1988 9.88455 20.4815 9.6416C20.764 9.39873 20.9461 9.05917 20.9922 8.68945C21.0382 8.31965 20.9449 7.9454 20.7305 7.64062L20.7246 7.63281L17.8301 3.44141L17.8272 3.43652C17.7354 3.30202 17.6117 3.19228 17.4678 3.11621C17.3598 3.0592 17.2426 3.02255 17.1221 3.00781L17 3H7.00001Z" fill="black"/>
<path d="M3 18.9998V10.95C3 10.3977 3.44772 9.94995 4 9.94995C4.55228 9.94995 5 10.3977 5 10.95V18.9998C5 19.2649 5.10549 19.5193 5.29297 19.7068C5.48051 19.8943 5.73478 19.9998 6 19.9998H18C18.2652 19.9998 18.5195 19.8943 18.707 19.7068C18.8945 19.5193 19 19.2649 19 18.9998V10.95C19 10.3977 19.4477 9.94995 20 9.94995C20.5523 9.94995 21 10.3977 21 10.95V18.9998C21 19.7954 20.6836 20.5583 20.1211 21.1208C19.5585 21.6835 18.7957 21.9998 18 21.9998H6C5.20435 21.9998 4.44151 21.6835 3.87891 21.1208C3.31636 20.5583 3 19.7954 3 18.9998Z" fill="black"/>
</svg>
