<svg width="24" height="24" viewBox="0 0 24 24" fill="none" xmlns="http://www.w3.org/2000/svg">
<path d="M11 21V3C11 2.44772 11.4477 2 12 2C12.5523 2 13 2.44772 13 3V21C13 21.5523 12.5523 22 12 22C11.4477 22 11 21.5523 11 21Z" fill="black"/>
<path d="M15.2929 7.29289C15.6834 6.90237 16.3164 6.90237 16.707 7.29289L20.707 11.2929C21.0975 11.6834 21.0975 12.3164 20.707 12.707L16.707 16.707C16.3164 17.0975 15.6834 17.0975 15.2929 16.707C14.9024 16.3164 14.9024 15.6834 15.2929 15.2929L18.5859 11.9999L15.2929 8.70696C14.9024 8.31643 14.9024 7.68342 15.2929 7.29289Z" fill="black"/>
<path d="M7.29289 7.29289C7.68342 6.90237 8.31643 6.90237 8.70696 7.29289C9.09748 7.68342 9.09748 8.31643 8.70696 8.70696L5.41399 11.9999L8.70696 15.2929C9.09748 15.6834 9.09748 16.3164 8.70696 16.707C8.31643 17.0975 7.68342 17.0975 7.29289 16.707L3.29289 12.707C2.90237 12.3164 2.90237 11.6834 3.29289 11.2929L7.29289 7.29289Z" fill="black"/>
</svg>
