<svg width="24" height="24" viewBox="0 0 24 24" fill="none" xmlns="http://www.w3.org/2000/svg">
<path d="M15.953 15.953C16.3436 15.5625 16.9766 15.5625 17.3671 15.953L21.707 20.2929C22.0975 20.6834 22.0975 21.3164 21.707 21.707C21.3164 22.0975 20.6834 22.0975 20.2929 21.707L15.953 17.3671C15.5625 16.9766 15.5625 16.3436 15.953 15.953Z" fill="black"/>
<path d="M18 11C18 7.13401 14.866 4 11 4C7.13401 4 4 7.13401 4 11C4 14.866 7.13401 18 11 18C14.866 18 18 14.866 18 11ZM20 11C20 15.9706 15.9706 20 11 20C6.02944 20 2 15.9706 2 11C2 6.02944 6.02944 2 11 2C15.9706 2 20 6.02944 20 11Z" fill="black"/>
</svg>
