<svg width="24" height="24" viewBox="0 0 24 24" fill="none" xmlns="http://www.w3.org/2000/svg">
<path fill-rule="evenodd" clip-rule="evenodd" d="M3.29289 4.29289C3.48043 4.10536 3.73478 4 4 4H10C10.5523 4 11 4.44772 11 5C11 5.55228 10.5523 6 10 6H4.41421L3.41421 7L4.41421 8H10C10.5523 8 11 8.44772 11 9C11 9.55228 10.5523 10 10 10H4C3.73478 10 3.48043 9.89464 3.29289 9.70711L1.29289 7.70711C0.902369 7.31658 0.902369 6.68342 1.29289 6.29289L3.29289 4.29289Z" fill="black"/>
<path fill-rule="evenodd" clip-rule="evenodd" d="M13 5C13 4.44772 13.4477 4 14 4H20C20.2652 4 20.5196 4.10536 20.7071 4.29289L22.7071 6.29289C23.0976 6.68342 23.0976 7.31658 22.7071 7.70711L20.7071 9.70711C20.5196 9.89464 20.2652 10 20 10H14C13.4477 10 13 9.55228 13 9C13 8.44772 13.4477 8 14 8H19.5858L20.5858 7L19.5858 6H14C13.4477 6 13 5.55228 13 5Z" fill="black"/>
<path fill-rule="evenodd" clip-rule="evenodd" d="M12 3C11.7348 3 11.4804 3.10536 11.2929 3.29289C11.1054 3.48043 11 3.73478 11 4V22C11 22.5523 10.5523 23 10 23C9.44772 23 9 22.5523 9 22V4C9 3.20435 9.31607 2.44129 9.87868 1.87868C10.4413 1.31607 11.2044 1 12 1C12.7956 1 13.5587 1.31607 14.1213 1.87868C14.6839 2.44129 15 3.20435 15 4V22C15 22.5523 14.5523 23 14 23C13.4477 23 13 22.5523 13 22V4C13 3.73478 12.8946 3.48043 12.7071 3.29289C12.5196 3.10536 12.2652 3 12 3Z" fill="black"/>
<path fill-rule="evenodd" clip-rule="evenodd" d="M7 22C7 21.4477 7.44772 21 8 21H16C16.5523 21 17 21.4477 17 22C17 22.5523 16.5523 23 16 23H8C7.44772 23 7 22.5523 7 22Z" fill="black"/>
</svg>
