<svg width="24" height="24" viewBox="0 0 24 24" fill="none" xmlns="http://www.w3.org/2000/svg">
<path d="M19.7871 18.5234C20.3266 18.4058 20.8588 18.7476 20.9766 19.2871C21.0942 19.8266 20.7524 20.3588 20.2129 20.4766L14.7129 21.6768C14.1734 21.7944 13.6412 21.4526 13.5234 20.9131C13.4057 20.3735 13.7475 19.8404 14.2871 19.7227L19.7871 18.5234Z" fill="black"/>
<path d="M19.7734 14.2256C20.3114 14.1005 20.8486 14.4357 20.9736 14.9736C21.0987 15.5115 20.7644 16.0487 20.2266 16.1738L15.9687 17.1641L15.9678 17.1631C15.6779 17.2329 15.3758 17.2378 15.084 17.1758C14.787 17.1126 14.5078 16.9828 14.2685 16.7959C14.0293 16.6089 13.8353 16.3696 13.7021 16.0967C13.5691 15.8239 13.5001 15.5242 13.5 15.2207V4C13.5 3.44772 13.9477 3 14.5 3C15.0523 3 15.5 3.44772 15.5 4V15.2197L15.5156 15.2158L19.7734 14.2256Z" fill="black"/>
<path d="M9.00045 2C9.00045 1.44772 9.44817 1 10.0005 1C10.5525 1.00025 11.0005 1.44787 11.0005 2V16C11.0134 16.6627 10.8065 17.3117 10.4116 17.8447C10.0109 18.3855 9.4398 18.776 8.79049 18.9531C8.78234 18.9553 8.77331 18.957 8.7651 18.959L3.21628 20.3223C2.68015 20.4538 2.13918 20.1259 2.00729 19.5898C1.87555 19.0535 2.20337 18.5116 2.73971 18.3799L8.27096 17.0205C8.48444 16.9606 8.67207 16.8316 8.80417 16.6533C8.93763 16.4731 9.00699 16.2535 9.00045 16.0293V2Z" fill="black"/>
<path d="M19.7861 9.02344C20.3256 8.90543 20.8584 9.24674 20.9766 9.78613C21.0946 10.3256 20.7533 10.8584 20.2139 10.9766L4.21386 14.4766C3.67441 14.5946 3.14156 14.2533 3.02343 13.7139C2.90543 13.1744 3.24673 12.6416 3.78613 12.5234L19.7861 9.02344Z" fill="black"/>
</svg>
