<svg width="24" height="24" viewBox="0 0 24 24" fill="none" xmlns="http://www.w3.org/2000/svg">
<path d="M2 19V5.00001C2 4.20436 2.3163 3.44152 2.87891 2.87891C3.44152 2.3163 4.20435 2.00001 5 2.00001H15C15.448 1.99923 15.8916 2.08748 16.3057 2.25879C16.7199 2.43024 17.0965 2.68159 17.4131 2.99903L21 6.58594L21.1162 6.70704C21.3799 6.99709 21.591 7.33139 21.7412 7.69434C21.9125 8.10836 22.0008 8.55196 22 9.00001V19C22 19.7957 21.6837 20.5585 21.1211 21.1211C20.5585 21.6837 19.7957 22 19 22H5C4.20435 22 3.44152 21.6837 2.87891 21.1211C2.3163 20.5585 2 19.7957 2 19ZM4 19C4 19.2652 4.10543 19.5195 4.29297 19.707C4.48051 19.8946 4.73478 20 5 20H19C19.2652 20 19.5195 19.8946 19.707 19.707C19.8946 19.5195 20 19.2652 20 19V8.99708C20.0004 8.81244 19.9641 8.6296 19.8936 8.45899C19.8229 8.28818 19.7188 8.13243 19.5879 8.00196L15.998 4.41211C15.8676 4.28117 15.7118 4.17713 15.541 4.10645C15.3704 4.03587 15.1876 3.99962 15.0029 4.00001H5C4.73479 4.00001 4.4805 4.10544 4.29297 4.29297C4.10543 4.48051 4 4.73479 4 5.00001V19Z" fill="black"/>
<path d="M14 8.00001V3.00001C14 2.44772 14.4477 2.00001 15 2.00001C15.5523 2.00001 16 2.44772 16 3.00001V8.00001H21C21.5523 8.00001 22 8.44772 22 9.00001C22 9.55229 21.5523 10 21 10H16C15.4696 10 14.961 9.78914 14.5859 9.41407C14.2109 9.039 14 8.53044 14 8.00001Z" fill="black"/>
</svg>
