<svg width="24" height="24" viewBox="0 0 24 24" fill="none" xmlns="http://www.w3.org/2000/svg">
<path fill-rule="evenodd" clip-rule="evenodd" d="M2.29289 11.2931C2.48043 11.1056 2.73478 11.0002 3 11.0002H21C21.2652 11.0002 21.5196 11.1056 21.7071 11.2931C21.8946 11.4807 22 11.735 22 12.0002C22 14.6524 20.9464 17.1959 19.0711 19.0713C17.1957 20.9467 14.6522 22.0002 12 22.0002C9.34784 22.0002 6.8043 20.9467 4.92893 19.0713C3.05357 17.1959 2 14.6524 2 12.0002C2 11.735 2.10536 11.4807 2.29289 11.2931ZM4.06272 13.0002C4.28353 14.7532 5.08052 16.3945 6.34315 17.6571C7.84344 19.1574 9.87827 20.0002 12 20.0002C14.1217 20.0002 16.1566 19.1574 17.6569 17.6571C18.9195 16.3945 19.7165 14.7532 19.9373 13.0002H4.06272Z" fill="black"/>
<path fill-rule="evenodd" clip-rule="evenodd" d="M6 21.0002C6 20.448 6.44772 20.0002 7 20.0002H17C17.5523 20.0002 18 20.448 18 21.0002C18 21.5525 17.5523 22.0002 17 22.0002H7C6.44772 22.0002 6 21.5525 6 21.0002Z" fill="black"/>
<path fill-rule="evenodd" clip-rule="evenodd" d="M22.3846 5.07718C22.8944 5.2896 23.1355 5.87507 22.9231 6.38488L20.4231 12.3849C20.2106 12.8947 19.6252 13.1358 19.1154 12.9233C18.6056 12.7109 18.3645 12.1254 18.5769 11.6156L21.0769 5.61565C21.2893 5.10584 21.8748 4.86477 22.3846 5.07718Z" fill="black"/>
<path fill-rule="evenodd" clip-rule="evenodd" d="M15.3123 2.65296C15.5041 2.13505 16.0794 1.87071 16.5973 2.06252C17.2118 2.29011 18.0788 3.08185 17.9982 4.4204C17.998 4.42439 17.9977 4.42838 17.9974 4.43237C17.9448 5.15967 17.5407 5.67321 17.321 5.95251C17.3107 5.9656 17.3008 5.97818 17.2913 5.99024C17.0391 6.31266 17.0047 6.39122 16.9972 6.45695C16.9872 6.64492 17.0266 6.76609 17.0805 6.86617C17.1461 6.98811 17.2513 7.11205 17.4279 7.28404C17.8234 7.66946 17.8317 8.30257 17.4462 8.69814C17.0608 9.0937 16.4277 9.10192 16.0321 8.7165C15.5842 8.28006 14.9231 7.54733 15.0021 6.3163C15.0025 6.30927 15.003 6.30224 15.0036 6.29522C15.0643 5.58395 15.4646 5.07675 15.6808 4.80274C15.6932 4.78699 15.7051 4.77201 15.7162 4.7578C15.9666 4.43774 15.9963 4.36053 16.0022 4.29326C16.0069 4.20252 15.9957 4.13856 15.9829 4.09512C15.9695 4.04979 15.9508 4.01509 15.9316 3.98819C15.9115 3.96006 15.8905 3.94022 15.8755 3.92859C15.8744 3.92773 15.8733 3.92695 15.8724 3.92624C15.3745 3.72356 15.1242 3.16066 15.3123 2.65296Z" fill="black"/>
<path fill-rule="evenodd" clip-rule="evenodd" d="M10.3122 2.65296C10.504 2.13505 11.0794 1.87071 11.5973 2.06252C12.211 2.28983 13.0822 3.08364 12.9878 4.42669C12.9417 5.15517 12.5374 5.67117 12.3204 5.94817C12.3095 5.96212 12.299 5.97546 12.2891 5.98819C12.0277 6.32417 12.0114 6.38644 12.0081 6.44113C12.0078 6.44641 12.0074 6.45169 12.007 6.45697C11.9922 6.6496 12.0306 6.77042 12.0834 6.86946C12.1473 6.98907 12.251 7.11174 12.4278 7.28404C12.8234 7.66946 12.8316 8.30257 12.4462 8.69814C12.0608 9.0937 11.4277 9.10192 11.0321 8.7165C10.5855 8.28139 9.92027 7.54527 10.0123 6.31097C10.0592 5.59031 10.462 5.07693 10.6768 4.80332C10.6887 4.78808 10.7001 4.77359 10.7108 4.75985C10.9685 4.42868 10.9881 4.3616 10.9918 4.30014C10.992 4.29615 10.9923 4.29216 10.9926 4.28817C10.9993 4.19459 10.9886 4.12995 10.9763 4.08727C10.9639 4.04379 10.9463 4.01074 10.9281 3.98517C10.9091 3.95831 10.889 3.93926 10.8746 3.92805C10.8737 3.92736 10.8728 3.92672 10.8721 3.92613C10.3744 3.72335 10.1242 3.16057 10.3122 2.65296Z" fill="black"/>
<path fill-rule="evenodd" clip-rule="evenodd" d="M5.31226 2.65296C5.50407 2.13505 6.07942 1.87071 6.59732 2.06252C7.21182 2.29011 8.07883 3.08185 7.9982 4.4204C7.99796 4.42439 7.99769 4.42838 7.9974 4.43237C7.94483 5.15967 7.54074 5.67321 7.32097 5.95251C7.31066 5.9656 7.30077 5.97818 7.29133 5.99024C7.03906 6.31266 7.00471 6.39122 6.99721 6.45695C6.9872 6.64485 7.02662 6.76472 7.07996 6.8629C7.14503 6.98268 7.25058 7.10601 7.42876 7.27527C7.82916 7.65566 7.84539 8.28861 7.46501 8.68902C7.08462 9.08943 6.45166 9.10566 6.05126 8.72527C5.58606 8.28334 4.92298 7.54986 5.00205 6.3163C5.00251 6.30927 5.00303 6.30224 5.00363 6.29522C5.06435 5.58395 5.46459 5.07675 5.68081 4.80274C5.69324 4.78699 5.70507 4.77201 5.71618 4.7578C5.9666 4.43774 5.99629 4.36053 6.0022 4.29326C6.00694 4.20252 5.99573 4.13856 5.98289 4.09512C5.96949 4.04979 5.95081 4.01509 5.93158 3.98819C5.91146 3.96006 5.89047 3.94022 5.87547 3.92859C5.87436 3.92773 5.87333 3.92695 5.87238 3.92624C5.37455 3.72356 5.12422 3.16066 5.31226 2.65296Z" fill="black"/>
</svg>
