<svg width="24" height="24" viewBox="0 0 24 24" fill="none" xmlns="http://www.w3.org/2000/svg">
<path fill-rule="evenodd" clip-rule="evenodd" d="M21.0084 1.08291C21.2728 0.989546 21.5582 0.972359 21.832 1.03342C22.1094 1.09526 22.3634 1.23481 22.5643 1.43573C22.7652 1.63665 22.9048 1.89063 22.9666 2.16797C23.0277 2.4418 23.0105 2.7272 22.9171 2.99161L16.4189 21.9864C16.3196 22.276 16.1341 22.5282 15.8874 22.7092C15.6406 22.8903 15.3444 22.9915 15.0384 22.9994C14.7324 23.0072 14.4314 22.9213 14.1757 22.7531C13.92 22.5849 13.7219 22.3425 13.6079 22.0584L10.4283 14.1274C10.4282 14.1272 10.4283 14.1276 10.4283 14.1274C10.3779 14.0024 10.3025 13.8883 10.2071 13.793C10.1115 13.6976 9.99761 13.6226 9.87227 13.5724L1.94157 10.3921C1.65752 10.2782 1.41513 10.08 1.24694 9.82431C1.07875 9.56861 0.992808 9.26757 1.00064 8.96161C1.00848 8.65565 1.10972 8.35941 1.29078 8.11265C1.47185 7.86588 1.72406 7.68042 2.01357 7.58113L21.0084 1.08291ZM20.6967 3.30334L3.93621 9.03719L10.6156 11.7157C10.9915 11.8662 11.3335 12.0915 11.62 12.3775C11.9067 12.6637 12.1324 13.0049 12.2836 13.3807L12.2841 13.3819L14.9629 20.0636L20.6967 3.30334Z" fill="black"/>
<path fill-rule="evenodd" clip-rule="evenodd" d="M22.5611 1.43994C22.9516 1.83048 22.9516 2.46364 22.5611 2.85415L11.6211 13.7931C11.2305 14.1837 10.5976 14.1836 10.2071 13.793C9.81655 13.4025 9.81636 12.7694 10.2069 12.3789L21.1469 1.43987C21.5374 1.04937 22.1706 1.0494 22.5611 1.43994Z" fill="black"/>
</svg>
