<svg width="24" height="24" viewBox="0 0 24 24" fill="none" xmlns="http://www.w3.org/2000/svg">
<path fill-rule="evenodd" clip-rule="evenodd" d="M6.46447 9.4647C7.40215 8.52702 8.67392 8.00023 10 8.00023C11.3261 8.00023 12.5979 8.52702 13.5355 9.4647C14.4732 10.4024 15 11.6742 15 13.0002C15 13.9195 14.8189 14.8297 14.4672 15.679C14.1154 16.5283 13.5998 17.3 12.9497 17.95C12.2997 18.6 11.5281 19.1156 10.6788 19.4674C9.8295 19.8192 8.91925 20.0002 8 20.0002C7.08075 20.0002 6.1705 19.8192 5.32122 19.4674C4.47194 19.1156 3.70026 18.6 3.05025 17.95C2.40024 17.3 1.88463 16.5283 1.53284 15.679C1.18106 14.8297 1 13.9195 1 13.0002C1 12.448 1.44772 12.0002 2 12.0002C2.55228 12.0002 3 12.448 3 13.0002C3 13.6568 3.12933 14.307 3.3806 14.9137C3.63188 15.5203 4.00017 16.0715 4.46447 16.5358C4.92876 17.0001 5.47995 17.3684 6.08658 17.6196C6.69321 17.8709 7.34339 18.0002 8 18.0002C8.65661 18.0002 9.30679 17.8709 9.91342 17.6196C10.52 17.3684 11.0712 17.0001 11.5355 16.5358C11.9998 16.0715 12.3681 15.5203 12.6194 14.9137C12.8707 14.307 13 13.6568 13 13.0002C13 12.2046 12.6839 11.4415 12.1213 10.8789C11.5587 10.3163 10.7956 10.0002 10 10.0002C9.20435 10.0002 8.44129 10.3163 7.87868 10.8789C7.31607 11.4415 7 12.2046 7 13.0002C7 13.2655 7.10536 13.5198 7.29289 13.7073C7.48043 13.8949 7.73478 14.0002 8 14.0002C8.26522 14.0002 8.51957 13.8949 8.70711 13.7073C8.89464 13.5198 9 13.2655 9 13.0002C9 12.448 9.44771 12.0002 10 12.0002C10.5523 12.0002 11 12.448 11 13.0002C11 13.7959 10.6839 14.5589 10.1213 15.1216C9.55871 15.6842 8.79565 16.0002 8 16.0002C7.20435 16.0002 6.44129 15.6842 5.87868 15.1216C5.31607 14.5589 5 13.7959 5 13.0002C5 11.6742 5.52678 10.4024 6.46447 9.4647Z" fill="black"/>
<path fill-rule="evenodd" clip-rule="evenodd" d="M10 6.00023C6.13401 6.00023 3 9.13424 3 13.0002C3 16.8662 6.13401 20.0002 10 20.0002C13.866 20.0002 17 16.8662 17 13.0002C17 9.13424 13.866 6.00023 10 6.00023ZM1 13.0002C1 8.02967 5.02944 4.00023 10 4.00023C14.9706 4.00023 19 8.02967 19 13.0002C19 17.9708 14.9706 22.0002 10 22.0002C5.02944 22.0002 1 17.9708 1 13.0002Z" fill="black"/>
<path fill-rule="evenodd" clip-rule="evenodd" d="M17.8787 4.87891C18.4413 4.3163 19.2043 4.00023 20 4.00023C20.7956 4.00023 21.5587 4.3163 22.1213 4.87891C22.6839 5.44152 23 6.20458 23 7.00023V13.0002C23 17.9525 18.9523 22.0002 14 22.0002H2C1.44772 22.0002 1 21.5525 1 21.0002C1 20.4479 1.44772 20.0002 2 20.0002H14C17.8477 20.0002 21 16.8479 21 13.0002V7.00023C21 6.73502 20.8946 6.48066 20.7071 6.29313C20.5196 6.10559 20.2652 6.00023 20 6.00023C19.7348 6.00023 19.4804 6.10559 19.2929 6.29313C19.1054 6.48066 19 6.73502 19 7.00023V13.0002C19 13.5525 18.5523 14.0002 18 14.0002C17.4477 14.0002 17 13.5525 17 13.0002V7.00023C17 6.20458 17.3161 5.44152 17.8787 4.87891Z" fill="black"/>
<path fill-rule="evenodd" clip-rule="evenodd" d="M17.5528 2.10579C18.0467 1.8588 18.6474 2.05903 18.8944 2.55301L19.9944 4.75301C20.2414 5.24698 20.0412 5.84766 19.5472 6.09465C19.0532 6.34164 18.4525 6.14141 18.2056 5.64743L17.1056 3.44743C16.8586 2.95345 17.0588 2.35278 17.5528 2.10579Z" fill="black"/>
<path fill-rule="evenodd" clip-rule="evenodd" d="M22.4472 2.10579C22.9412 2.35278 23.1414 2.95345 22.8945 3.44743L21.7945 5.64743C21.5475 6.14141 20.9468 6.34164 20.4528 6.09465C19.9588 5.84766 19.7586 5.24698 20.0056 4.75301L21.1056 2.55301C21.3526 2.05903 21.9533 1.8588 22.4472 2.10579Z" fill="black"/>
</svg>
