<svg width="24" height="24" viewBox="0 0 24 24" fill="none" xmlns="http://www.w3.org/2000/svg">
<path d="M16.0004 14.7704L4.72016 18.0428L4.71918 18.0418C4.49208 18.1103 4.29715 18.2585 4.1684 18.4579C4.0386 18.6589 3.98536 18.8995 4.01801 19.1366C4.05068 19.3736 4.16677 19.5914 4.34613 19.7498C4.52549 19.9083 4.75626 19.9967 4.99555 19.9998H19.0004C19.2413 20 19.4747 19.9135 19.6567 19.7557C19.8387 19.5979 19.9577 19.379 19.9916 19.1405C20.0255 18.9021 19.9719 18.6591 19.8412 18.4569C19.7105 18.2547 19.511 18.1069 19.2797 18.0399L18.1674 17.7205L18.1645 17.7196C17.5401 17.5385 16.9914 17.1594 16.601 16.6395C16.2107 16.1196 16.0001 15.4868 16.0004 14.8368V14.7704ZM18.0004 14.8377C18.0003 15.0544 18.0705 15.265 18.2006 15.4383C18.3301 15.6107 18.5114 15.737 18.7182 15.7977L19.8334 16.118L19.8364 16.119C20.5305 16.3201 21.1287 16.7649 21.5209 17.3719C21.9132 17.979 22.073 18.7071 21.9711 19.4227C21.8693 20.1381 21.5131 20.793 20.9672 21.2664C20.4214 21.7397 19.7228 22.0001 19.0004 21.9998H4.96918C4.25132 21.9904 3.56 21.7241 3.02191 21.2489C2.48395 20.7737 2.13462 20.121 2.03656 19.41C1.93856 18.6989 2.0984 17.9759 2.48773 17.3729C2.87715 16.7699 3.47019 16.3262 4.15863 16.1229L4.16351 16.1219L16.0004 12.6883V7.66C16.0004 7.10772 16.4481 6.66 17.0004 6.66C17.5525 6.66022 18.0004 7.10785 18.0004 7.66V14.8377Z" fill="black"/>
<path d="M5.99955 16.3408V9.16211C5.9996 8.94549 5.92941 8.73476 5.79935 8.56152C5.66965 8.38884 5.48806 8.26175 5.2808 8.20117L4.16654 7.88184H4.16361C3.46938 7.68069 2.87133 7.23499 2.47904 6.62793C2.08682 6.0209 1.92702 5.29266 2.02884 4.57715C2.13071 3.86175 2.48685 3.20686 3.03275 2.7334C3.57853 2.26013 4.27718 2.00074 4.99955 2.00098L19.0308 2C19.7487 2.00942 20.44 2.27572 20.9781 2.75098C21.516 3.22614 21.8653 3.87881 21.9634 4.58984C22.0614 5.3009 21.9015 6.02393 21.5122 6.62695C21.1228 7.22999 20.5298 7.67367 19.8413 7.87695L19.8365 7.87891L7.99955 11.3105V16.3408C7.99955 16.8931 7.55183 17.3408 6.99955 17.3408C6.44748 17.3406 5.99955 16.8929 5.99955 16.3408ZM7.99955 9.22852L19.2749 5.95898L19.3589 5.92969C19.5524 5.85329 19.7179 5.71801 19.8316 5.54199C19.9613 5.34098 20.0146 5.1003 19.982 4.86328C19.9493 4.62624 19.8332 4.4084 19.6538 4.25C19.497 4.11147 19.301 4.02617 19.0943 4.00488L19.0044 4H4.99955C4.75865 3.99983 4.52531 4.08635 4.3433 4.24414C4.16127 4.40198 4.04228 4.62085 4.00833 4.85938C3.97447 5.09781 4.02801 5.3407 4.15873 5.54297C4.28895 5.7444 4.4872 5.89254 4.71732 5.95996L5.83255 6.28027H5.83548C6.45985 6.46132 7.00859 6.84053 7.39896 7.36035C7.78925 7.88019 7.99981 8.51305 7.99955 9.16309V9.22852Z" fill="black"/>
</svg>
