<svg width="24" height="24" viewBox="0 0 24 24" fill="none" xmlns="http://www.w3.org/2000/svg">
<path d="M8.73432 16.5001C9.11376 16.4941 9.47052 16.705 9.64447 17.0529L10.8945 19.5529C11.1415 20.0468 10.9412 20.6477 10.4472 20.8947C9.95323 21.1416 9.3524 20.9414 9.10541 20.4474L8.19037 18.6173L6.17865 18.9835C5.63531 19.0823 5.11533 18.7222 5.01654 18.1788C4.9178 17.6355 5.27788 17.1155 5.82123 17.0167L8.57123 16.5167L8.73432 16.5001Z" fill="black"/>
<path d="M9.10541 3.55305C9.3524 3.05907 9.95323 2.85879 10.4472 3.10578C10.9412 3.35277 11.1415 3.9536 10.8945 4.44758L9.64447 6.94758C9.44572 7.34508 9.00848 7.56317 8.57123 7.48371L5.82123 6.98371C5.27788 6.88492 4.9178 6.36495 5.01654 5.8216C5.11533 5.27825 5.63531 4.91817 6.17865 5.01691L8.19037 5.38215L9.10541 3.55305Z" fill="black"/>
<path d="M15.4288 16.517L18.1788 17.017C18.7221 17.1158 19.0822 17.6357 18.9835 18.1791C18.8847 18.7224 18.3647 19.0825 17.8214 18.9838L15.8087 18.6175L14.8946 20.4476C14.6476 20.9416 14.0468 21.1419 13.5528 20.8949C13.0588 20.6479 12.8585 20.0471 13.1055 19.5531L14.3555 17.0531L14.4405 16.9125C14.6633 16.6054 15.0462 16.4474 15.4288 16.517Z" fill="black"/>
<path d="M13.5528 3.10578C14.0468 2.85879 14.6476 3.05907 14.8946 3.55305L15.8087 5.38215L17.8214 5.01691C18.3647 4.91817 18.8847 5.27825 18.9835 5.8216C19.0822 6.36495 18.7221 6.88492 18.1788 6.98371L15.4288 7.48371C14.9915 7.56317 14.5543 7.34508 14.3555 6.94758L13.1055 4.44758C12.8585 3.9536 13.0588 3.35277 13.5528 3.10578Z" fill="black"/>
<path d="M14 14.0002C14.3788 14.0002 14.7251 14.2142 14.8945 14.553L17.8945 20.553C18.1415 21.047 17.9412 21.6478 17.4473 21.8948C16.9533 22.1418 16.3525 21.9415 16.1055 21.4475L13.3818 16.0002H10C9.44771 16.0002 9 15.5525 9 15.0002C9 14.448 9.44771 14.0002 10 14.0002H14Z" fill="black"/>
<path d="M16.1056 2.55305C16.3526 2.05907 16.9534 1.85879 17.4474 2.10578C17.9413 2.35277 18.1416 2.9536 17.8946 3.44758L15.1183 9.00031L16.3946 11.553C16.6416 12.047 16.4413 12.6479 15.9474 12.8948C15.4534 13.1418 14.8526 12.9416 14.6056 12.4476L13.1056 9.44758C12.9648 9.16605 12.9648 8.83457 13.1056 8.55305L16.1056 2.55305Z" fill="black"/>
<path d="M9.10547 8.55305C9.35246 8.05907 9.95329 7.85879 10.4473 8.10578C10.9412 8.35277 11.1415 8.9536 10.8945 9.44758L9.39453 12.4476C9.22514 12.7864 8.87877 13.0003 8.5 13.0003H2C1.44772 13.0003 1 12.5526 1 12.0003C1 11.448 1.44772 11.0003 2 11.0003H7.88184L9.10547 8.55305Z" fill="black"/>
<path d="M19.2001 9.4006C19.5315 8.95882 20.1577 8.86917 20.5995 9.2004C21.0413 9.53173 21.131 10.158 20.7997 10.5998L19.749 12.0002L20.7997 13.4006C21.131 13.8424 21.0413 14.4687 20.5995 14.8C20.1577 15.1312 19.5315 15.0416 19.2001 14.5998L17.7001 12.5998C17.4336 12.2443 17.4336 11.7561 17.7001 11.4006L19.2001 9.4006Z" fill="black"/>
<path d="M22.0001 11.0002C22.5524 11.0002 23.0001 11.448 23.0001 12.0002C23.0001 12.5525 22.5524 13.0002 22.0001 13.0002H16.1182L14.8946 15.4475C14.6476 15.9415 14.0468 16.1418 13.5528 15.8948C13.0588 15.6478 12.8585 15.047 13.1055 14.553L14.6055 11.553L14.6768 11.4319C14.8618 11.1639 15.1686 11.0002 15.5001 11.0002H22.0001Z" fill="black"/>
<path d="M3.40035 9.2004C3.84217 8.86917 4.46844 8.95882 4.79977 9.4006L6.29977 11.4006C6.56628 11.7561 6.56628 12.2443 6.29977 12.5998L4.79977 14.5998C4.46844 15.0416 3.84217 15.1312 3.40035 14.8C2.95858 14.4687 2.86893 13.8424 3.20016 13.4006L4.24996 12.0002L3.20016 10.5998C2.86893 10.158 2.95858 9.53173 3.40035 9.2004Z" fill="black"/>
<path d="M8.0528 11.1058C8.54678 10.8588 9.14761 11.0591 9.3946 11.553L10.8946 14.553C11.0354 14.8346 11.0354 15.1661 10.8946 15.4476L7.8946 21.4476C7.64761 21.9416 7.04678 22.1418 6.5528 21.8948C6.05882 21.6479 5.85855 21.047 6.10554 20.553L8.8819 15.0003L7.60554 12.4476C7.35855 11.9536 7.55882 11.3528 8.0528 11.1058Z" fill="black"/>
<path d="M6.5528 2.10578C7.04678 1.85879 7.64761 2.05907 7.8946 2.55305L10.6182 8.00031H14.0001C14.5524 8.00031 15.0001 8.44803 15.0001 9.00031C15.0001 9.5526 14.5524 10.0003 14.0001 10.0003H10.0001C9.6213 10.0003 9.27493 9.78636 9.10554 9.44758L6.10554 3.44758C5.85855 2.9536 6.05882 2.35277 6.5528 2.10578Z" fill="black"/>
</svg>
