<svg width="24" height="24" viewBox="0 0 24 24" fill="none" xmlns="http://www.w3.org/2000/svg">
<path fill-rule="evenodd" clip-rule="evenodd" d="M6 20.9999C6 20.4477 6.44772 19.9999 7 19.9999H17C17.5523 19.9999 18 20.4477 18 20.9999C18 21.5522 17.5523 21.9999 17 21.9999H7C6.44772 21.9999 6 21.5522 6 20.9999Z" fill="black"/>
<path fill-rule="evenodd" clip-rule="evenodd" d="M2.29289 11.2928C2.48043 11.1053 2.73478 10.9999 3 10.9999H21C21.2652 10.9999 21.5196 11.1053 21.7071 11.2928C21.8946 11.4804 22 11.7347 22 11.9999C22 14.6521 20.9464 17.1956 19.0711 19.071C17.1957 20.9464 14.6522 21.9999 12 21.9999C9.34784 21.9999 6.8043 20.9464 4.92893 19.071C3.05357 17.1956 2 14.6521 2 11.9999C2 11.7347 2.10536 11.4804 2.29289 11.2928ZM4.06272 12.9999C4.28353 14.7529 5.08052 16.3942 6.34315 17.6568C7.84344 19.1571 9.87827 19.9999 12 19.9999C14.1217 19.9999 16.1566 19.1571 17.6569 17.6568C18.9195 16.3942 19.7165 14.7529 19.9373 12.9999H4.06272Z" fill="black"/>
<path fill-rule="evenodd" clip-rule="evenodd" d="M19.2165 4.31939C18.8747 4.29898 18.5372 4.40457 18.268 4.61619C17.9113 4.89652 17.4106 4.90164 17.0483 4.62866C16.8939 4.51238 16.7172 4.42931 16.5292 4.38468C16.3411 4.34005 16.1459 4.33483 15.9558 4.36935C15.7656 4.40387 15.5847 4.47739 15.4244 4.58526C15.264 4.69314 15.1277 4.83304 15.0241 4.99616C14.769 5.39774 14.2663 5.564 13.8221 5.39372C13.5855 5.30301 13.3286 5.27823 13.079 5.32204C12.8294 5.36585 12.5963 5.47659 12.4047 5.64246C12.2131 5.80833 12.0701 6.0231 11.991 6.26386C11.9119 6.50462 11.8996 6.76235 11.9554 7.00955C12.0164 7.27912 11.963 7.56188 11.808 7.79071C11.6531 8.01953 11.4103 8.17403 11.1374 8.21751C10.7885 8.2731 10.4735 8.45856 10.2556 8.73667C10.0377 9.01478 9.93304 9.365 9.96256 9.71706C9.99208 10.0691 10.1536 10.397 10.4148 10.635C10.676 10.8729 11.0174 11.0033 11.3707 11C11.923 10.9949 12.3748 11.4384 12.38 11.9907C12.3851 12.5429 11.9416 12.9948 11.3894 12.9999C10.5314 13.0079 9.70208 12.6912 9.06783 12.1134C8.43358 11.5355 8.04125 10.7392 7.96955 9.88419C7.89786 9.02917 8.15208 8.17866 8.68123 7.50324C9.01513 7.07705 9.44291 6.74046 9.92603 6.51617C9.94219 6.21929 9.99729 5.92446 10.091 5.63942C10.2831 5.05471 10.6304 4.53312 11.0958 4.1303C11.5611 3.72748 12.1271 3.45853 12.7333 3.35215C13.0901 3.28953 13.453 3.28461 13.8083 3.33607C13.961 3.18418 14.1283 3.04675 14.3079 2.92588C14.6973 2.66389 15.1367 2.48536 15.5985 2.40152C16.0603 2.31768 16.5344 2.33036 16.991 2.43874C17.2143 2.49174 17.4311 2.56706 17.6381 2.66321C18.1615 2.40695 18.746 2.28773 19.3357 2.32294C20.1659 2.37251 20.9492 2.72465 21.5373 3.31273C22.1254 3.90082 22.4775 4.68406 22.5271 5.51426C22.5623 6.10412 22.443 6.68861 22.1867 7.21212C22.3088 7.47513 22.3971 7.75357 22.4488 8.04087C22.5431 8.5643 22.5132 9.10255 22.3617 9.61235C22.2101 10.1221 21.9411 10.5893 21.5762 10.9762C21.4013 11.1616 21.2068 11.3261 20.9966 11.4671C21.0001 11.7098 20.9783 11.9529 20.9313 12.1925C20.825 12.7344 20.2995 13.0876 19.7575 12.9813C19.2156 12.8749 18.8624 12.3494 18.9687 11.8074C19.0117 11.5882 19.0056 11.3622 18.9507 11.1457C18.8244 10.6475 19.0963 10.1348 19.5795 9.95975C19.7854 9.88517 19.9709 9.76332 20.1212 9.604C20.2714 9.44467 20.3822 9.25233 20.4446 9.04241C20.507 8.83249 20.5193 8.61086 20.4805 8.39533C20.4417 8.1798 20.3528 7.97638 20.2211 7.80142C19.9484 7.4391 19.9536 6.93859 20.2338 6.58202C20.4454 6.31278 20.551 5.97531 20.5306 5.63346C20.5102 5.29161 20.3652 4.9691 20.1231 4.72695C19.8809 4.4848 19.5584 4.3398 19.2165 4.31939Z" fill="black"/>
<path fill-rule="evenodd" clip-rule="evenodd" d="M17.7071 7.29283C18.0976 7.68336 18.0976 8.31652 17.7071 8.70705L13.7071 12.707C13.3166 13.0976 12.6834 13.0976 12.2929 12.707C11.9024 12.3165 11.9024 11.6834 12.2929 11.2928L16.2929 7.29283C16.6834 6.90231 17.3166 6.90231 17.7071 7.29283Z" fill="black"/>
<path fill-rule="evenodd" clip-rule="evenodd" d="M6.14255 5.34434C7.07397 4.97312 8.09562 4.8911 9.07433 5.10898C10.053 5.32686 10.9434 5.83453 11.6294 6.56581C12.0072 6.96861 11.987 7.60145 11.5842 7.9793C11.1814 8.35715 10.5486 8.33692 10.1707 7.93412C9.75968 7.49594 9.22617 7.19175 8.63973 7.06119C8.05329 6.93064 7.44112 6.97978 6.88301 7.20222C6.32491 7.42465 5.84676 7.81005 5.51088 8.3082C5.17501 8.80634 4.99699 9.39411 5.00004 9.9949L5.00005 9.99997C5.00005 10.5438 5.14839 11.0528 5.40648 11.5007C5.68224 11.9792 5.51787 12.5906 5.03935 12.8664C4.56083 13.1422 3.94938 12.9778 3.67362 12.4993C3.25211 11.7678 3.00052 10.9177 3.00005 10.0025C2.99548 9.00073 3.29254 8.02075 3.85261 7.1901C4.41315 6.35876 5.21114 5.71555 6.14255 5.34434Z" fill="black"/>
</svg>
