<svg width="24" height="24" viewBox="0 0 24 24" fill="none" xmlns="http://www.w3.org/2000/svg">
<path d="M12.2121 1.01465C12.4225 1.0441 12.6251 1.11762 12.8069 1.23047C12.9887 1.34335 13.1442 1.49245 13.2639 1.66797L13.3713 1.85156L15.6819 6.53125L15.7493 6.64941C15.8234 6.76264 15.9175 6.86235 16.0276 6.94238C16.1743 7.04904 16.3451 7.11832 16.5246 7.14453L21.6907 7.90039C21.9729 7.94135 22.2371 8.06042 22.4553 8.24414C22.6192 8.3822 22.7517 8.55294 22.845 8.74414L22.925 8.94141L22.9768 9.14844C23.0137 9.35762 23.0065 9.57349 22.9553 9.78125C22.8869 10.0582 22.7425 10.3106 22.5383 10.5098L22.5373 10.5107L19.301 13.6621C18.9054 14.0473 18.2723 14.039 17.8869 13.6436C17.5017 13.2479 17.5098 12.6148 17.9055 12.2295L20.4602 9.74121L16.2356 9.12305C15.7353 9.04999 15.2597 8.85696 14.8508 8.55957C14.442 8.2622 14.1115 7.86942 13.8879 7.41602L11.9993 3.5918L11.2405 5.13086C10.996 5.62571 10.3967 5.8291 9.9016 5.58496C9.40634 5.34054 9.20307 4.74037 9.44749 4.24512L10.6282 1.85254L10.6291 1.85156C10.7556 1.59611 10.9505 1.38088 11.1926 1.23047C11.4349 1.08005 11.715 1 12.0002 1L12.2121 1.01465Z" fill="black"/>
<path d="M7.75411 7.07121C8.28648 6.92487 8.83703 7.23718 8.98361 7.76945C9.13003 8.30189 8.81676 8.85239 8.28439 8.99894C8.13538 9.03992 7.98511 9.07702 7.83419 9.11027C7.81088 9.11541 7.78749 9.12049 7.76388 9.12394L3.53732 9.74113L6.59396 12.7157C6.95684 13.0689 7.22838 13.5056 7.38497 13.9872C7.52196 14.4087 7.56709 14.8538 7.51876 15.2929L7.49239 15.4804L6.77169 19.6825L10.5481 17.6972L10.718 17.6142C11.1201 17.433 11.5567 17.3388 11.9992 17.3388C12.4419 17.3388 12.8791 17.4329 13.2815 17.6142L13.4514 17.6972L17.2287 19.6825L16.9592 18.1142C16.8659 17.57 17.2315 17.0535 17.7756 16.9599C18.3199 16.8664 18.8374 17.232 18.9309 17.7763L19.3596 20.2763L19.382 20.4892C19.3894 20.7025 19.3522 20.9158 19.2717 21.1152C19.1643 21.3811 18.9842 21.6116 18.7522 21.7802C18.5201 21.9487 18.2453 22.0484 17.9592 22.0683C17.6748 22.088 17.3909 22.0276 17.1389 21.8945L12.5207 19.4667C12.36 19.3823 12.1807 19.3388 11.9992 19.3388C11.8178 19.3388 11.6393 19.3833 11.4787 19.4677L11.4777 19.4667L6.86154 21.8954L6.86056 21.8945C6.60819 22.0274 6.32382 22.0885 6.03927 22.0683C5.7538 22.0479 5.47973 21.9475 5.24825 21.7792C5.0167 21.6108 4.83703 21.3806 4.7297 21.1152C4.62238 20.8497 4.59136 20.5593 4.64083 20.2773L5.52169 15.1425C5.55252 14.9633 5.53886 14.7783 5.48263 14.6054C5.42639 14.4324 5.32881 14.2752 5.19845 14.1484L1.46212 10.5116L1.4631 10.5107C1.25855 10.312 1.11319 10.0608 1.04415 9.7841C0.974784 9.50604 0.984018 9.21391 1.07247 8.94133L1.15255 8.74308C1.24607 8.55129 1.37958 8.38037 1.54415 8.24211C1.76241 8.0588 2.02773 7.94102 2.30978 7.90031L7.42599 7.15226C7.5359 7.12767 7.64551 7.10108 7.75411 7.07121ZM17.3899 20.6239V20.6191L17.3879 20.6112C17.3885 20.6155 17.3891 20.6197 17.3899 20.6239ZM5.92794 20.1259L5.93087 20.1249L5.9338 20.123C5.93187 20.124 5.92986 20.1249 5.92794 20.1259Z" fill="black"/>
<path d="M1.29289 1.29289C1.68342 0.902369 2.31643 0.902369 2.70696 1.29289L22.707 21.2929C23.0975 21.6834 23.0975 22.3164 22.707 22.707C22.3164 23.0975 21.6834 23.0975 21.2929 22.707L1.29289 2.70696C0.902369 2.31643 0.902369 1.68342 1.29289 1.29289Z" fill="black"/>
</svg>
