<svg width="24" height="24" viewBox="0 0 24 24" fill="none" xmlns="http://www.w3.org/2000/svg">
<path fill-rule="evenodd" clip-rule="evenodd" d="M12.7071 10.2931C13.0976 10.6836 13.0976 11.3168 12.7071 11.7073L4.70711 19.7073C4.31658 20.0978 3.68342 20.0978 3.29289 19.7073C2.90237 19.3168 2.90237 18.6836 3.29289 18.2931L11.2929 10.2931C11.6834 9.90258 12.3166 9.90258 12.7071 10.2931Z" fill="black"/>
<path fill-rule="evenodd" clip-rule="evenodd" d="M3.29289 10.2931C3.68342 9.90258 4.31658 9.90258 4.70711 10.2931L12.7071 18.2931C13.0976 18.6836 13.0976 19.3168 12.7071 19.7073C12.3166 20.0978 11.6834 20.0978 11.2929 19.7073L3.29289 11.7073C2.90237 11.3168 2.90237 10.6836 3.29289 10.2931Z" fill="black"/>
<path fill-rule="evenodd" clip-rule="evenodd" d="M16.405 4.40682C17.0246 4.0548 17.7463 3.92658 18.4492 4.04369C19.1521 4.16079 19.7933 4.51608 20.2653 5.04994C20.2667 5.05161 20.2682 5.05328 20.2697 5.05495C20.7431 5.59774 21 6.28946 21 7.00227C21 8.08604 20.3952 8.8435 19.7727 9.34314C19.1966 9.80555 18.4941 10.137 17.9941 10.3729C17.9714 10.3836 17.9491 10.3941 17.9273 10.4044C17.4487 10.6306 17.2814 10.7818 17.1928 10.9187C17.1778 10.9418 17.1625 10.9686 17.1474 11.0003H20C20.5523 11.0003 21 11.448 21 12.0003C21 12.5526 20.5523 13.0003 20 13.0003H16C15.4478 13.0003 15 12.5526 15 12.0003C15 11.1703 15.1183 10.4428 15.5138 9.83186C15.9107 9.21878 16.4934 8.86996 17.0728 8.59615C17.6281 8.33372 18.1376 8.091 18.5208 7.78341C18.8839 7.49204 19 7.25051 19 7.00227C19 6.77216 18.9178 6.5489 18.7646 6.37208C18.5968 6.18349 18.3696 6.05798 18.1205 6.01649C17.8705 5.97484 17.6138 6.0204 17.3934 6.14554C17.1762 6.26918 17.0191 6.45848 16.9406 6.67581C16.7531 7.19529 16.18 7.46439 15.6605 7.27686C15.141 7.08934 14.8719 6.51621 15.0594 5.99673C15.303 5.32214 15.7823 4.76118 16.405 4.40682Z" fill="black"/>
</svg>
