<svg width="24" height="24" viewBox="0 0 24 24" fill="none" xmlns="http://www.w3.org/2000/svg">
<path fill-rule="evenodd" clip-rule="evenodd" d="M12.0112 3.90612L8.80583 8.99981H15.1842L12.0112 3.90612ZM11.951 1.64074C12.2437 1.63024 12.5341 1.69553 12.7942 1.83028C13.0542 1.96504 13.275 2.16469 13.4352 2.40989C13.4391 2.41591 13.443 2.42197 13.4468 2.42808L17.1382 8.35412C17.3048 8.60287 17.4028 8.89136 17.422 9.19046C17.442 9.49994 17.3769 9.80897 17.2338 10.0841C17.0908 10.3593 16.8752 10.59 16.6104 10.7514C16.3456 10.9128 16.0416 10.9987 15.7315 10.9998L15.7299 10.9998L8.32134 10.9998C8.01947 11.0104 7.72001 10.9403 7.4539 10.7966C7.17804 10.6476 6.94877 10.4251 6.79143 10.154C6.63409 9.88276 6.55481 9.57333 6.56237 9.25989C6.56986 8.94892 6.66253 8.64603 6.83021 8.38415L10.5423 2.48532C10.6837 2.24203 10.8834 2.03749 11.1236 1.89025C11.3733 1.73719 11.6583 1.65125 11.951 1.64074Z" fill="black"/>
<path fill-rule="evenodd" clip-rule="evenodd" d="M4 14.9998V19.9998H9V14.9998H4ZM2 14.9998C2 13.8952 2.89543 12.9998 4 12.9998H9C10.1046 12.9998 11 13.8952 11 14.9998V19.9998C11 21.1044 10.1046 21.9998 9 21.9998H4C2.89543 21.9998 2 21.1044 2 19.9998V14.9998Z" fill="black"/>
<path fill-rule="evenodd" clip-rule="evenodd" d="M17.5 14.9998C16.1193 14.9998 15 16.1191 15 17.4998C15 18.8805 16.1193 19.9998 17.5 19.9998C18.8807 19.9998 20 18.8805 20 17.4998C20 16.1191 18.8807 14.9998 17.5 14.9998ZM13 17.4998C13 15.0145 15.0147 12.9998 17.5 12.9998C19.9853 12.9998 22 15.0145 22 17.4998C22 19.9851 19.9853 21.9998 17.5 21.9998C15.0147 21.9998 13 19.9851 13 17.4998Z" fill="black"/>
</svg>
