<svg width="24" height="24" viewBox="0 0 24 24" fill="none" xmlns="http://www.w3.org/2000/svg">
<path fill-rule="evenodd" clip-rule="evenodd" d="M5 4C4.73478 4 4.48043 4.10536 4.29289 4.29289C4.10536 4.48043 4 4.73478 4 5V7C4 7.55228 3.55228 8 3 8C2.44772 8 2 7.55228 2 7V5C2 4.20435 2.31607 3.44129 2.87868 2.87868C3.44129 2.31607 4.20435 2 5 2H7C7.55228 2 8 2.44772 8 3C8 3.55228 7.55228 4 7 4H5Z" fill="black"/>
<path fill-rule="evenodd" clip-rule="evenodd" d="M16 3C16 2.44772 16.4477 2 17 2H19C19.7957 2 20.5587 2.31607 21.1213 2.87868C21.6839 3.44129 22 4.20435 22 5V7C22 7.55228 21.5523 8 21 8C20.4477 8 20 7.55228 20 7V5C20 4.73478 19.8946 4.48043 19.7071 4.29289C19.5196 4.10536 19.2652 4 19 4H17C16.4477 4 16 3.55228 16 3Z" fill="black"/>
<path fill-rule="evenodd" clip-rule="evenodd" d="M21 16C21.5523 16 22 16.4477 22 17V19C22 19.7957 21.6839 20.5587 21.1213 21.1213C20.5587 21.6839 19.7957 22 19 22H17C16.4477 22 16 21.5523 16 21C16 20.4477 16.4477 20 17 20H19C19.2652 20 19.5196 19.8946 19.7071 19.7071C19.8946 19.5196 20 19.2652 20 19V17C20 16.4477 20.4477 16 21 16Z" fill="black"/>
<path fill-rule="evenodd" clip-rule="evenodd" d="M3 16C3.55228 16 4 16.4477 4 17V19C4 19.2652 4.10536 19.5196 4.29289 19.7071C4.48043 19.8946 4.73478 20 5 20H7C7.55228 20 8 20.4477 8 21C8 21.5523 7.55228 22 7 22H5C4.20435 22 3.44129 21.6839 2.87868 21.1213C2.31607 20.5587 2 19.7957 2 19V17C2 16.4477 2.44772 16 3 16Z" fill="black"/>
<path fill-rule="evenodd" clip-rule="evenodd" d="M8.79699 13.396C8.46485 12.9576 7.84048 12.8696 7.39998 13.2C6.95815 13.5314 6.86861 14.1582 7.19998 14.6L7.99998 14C7.19998 14.6 7.19973 14.5997 7.19998 14.6L7.20099 14.6013L7.20214 14.6029C7.20255 14.6034 7.20298 14.604 7.20343 14.6046C7.20389 14.6052 7.20437 14.6058 7.20488 14.6065C7.2069 14.6091 7.20931 14.6123 7.21209 14.6159C7.21766 14.6231 7.22477 14.6323 7.23339 14.6431C7.25063 14.6649 7.27399 14.6938 7.30334 14.7288C7.36199 14.7987 7.44498 14.8933 7.55143 15.0044C7.76351 15.2257 8.07341 15.5172 8.47431 15.8087C9.27225 16.389 10.4745 17 12 17C13.5255 17 14.7277 16.389 15.5257 15.8087C15.9265 15.5172 16.2365 15.2257 16.4485 15.0044C16.555 14.8933 16.638 14.7987 16.6966 14.7288C16.726 14.6938 16.7493 14.6649 16.7666 14.6431C16.7752 14.6323 16.7823 14.6231 16.7879 14.6159C16.7907 14.6123 16.7931 14.6091 16.7951 14.6065L16.796 14.6052C16.7967 14.6044 16.7973 14.6036 16.7978 14.6029L16.799 14.6013C16.7992 14.601 16.8 14.6 16 14L16.8 14.6C17.1314 14.1582 17.0418 13.5314 16.6 13.2C16.1595 12.8696 15.5351 12.9576 15.203 13.396C15.2023 13.3969 15.2008 13.3988 15.1985 13.4017C15.1925 13.4093 15.1812 13.4233 15.1647 13.443C15.1315 13.4825 15.0778 13.5442 15.0046 13.6206C14.8573 13.7743 14.6359 13.9828 14.3493 14.1912C13.7722 14.6109 12.9745 15 12 15C11.0255 15 10.2277 14.6109 9.65065 14.1912C9.36405 13.9828 9.14271 13.7743 8.99541 13.6206C8.92217 13.5442 8.86844 13.4825 8.83529 13.443C8.81875 13.4233 8.80744 13.4093 8.80148 13.4017C8.79915 13.3988 8.79765 13.3969 8.79699 13.396ZM15.2009 13.3987C15.2008 13.399 15.2011 13.3985 15.2009 13.3987V13.3987Z" fill="black"/>
<path fill-rule="evenodd" clip-rule="evenodd" d="M8 9C8 8.44772 8.44772 8 9 8H9.01C9.56228 8 10.01 8.44772 10.01 9C10.01 9.55228 9.56228 10 9.01 10H9C8.44772 10 8 9.55228 8 9Z" fill="black"/>
<path fill-rule="evenodd" clip-rule="evenodd" d="M14 9C14 8.44772 14.4477 8 15 8H15.01C15.5623 8 16.01 8.44772 16.01 9C16.01 9.55228 15.5623 10 15.01 10H15C14.4477 10 14 9.55228 14 9Z" fill="black"/>
</svg>
