<svg width="24" height="24" viewBox="0 0 24 24" fill="none" xmlns="http://www.w3.org/2000/svg">
<path fill-rule="evenodd" clip-rule="evenodd" d="M6.32219 3.93329C6.1899 3.89959 6.05211 3.89334 5.91731 3.91491C5.78252 3.93649 5.65356 3.98543 5.5384 4.05874C5.42323 4.13204 5.3243 4.22815 5.24769 4.34114C5.23788 4.35559 5.22771 4.36979 5.21716 4.38371C3.77537 6.28725 2.99663 8.61058 3.00001 10.9985L3.00001 10.9999C3.00001 13.3869 3.94822 15.6761 5.63605 17.3639C7.32388 19.0517 9.61306 19.9999 12 19.9999C14.387 19.9999 16.6761 19.0517 18.364 17.3639C20.0518 15.6761 21 13.3869 21 10.9999C21 9.14341 20.2625 7.36293 18.9498 6.05018C17.637 4.73742 15.8565 3.99993 14 3.99993C12.1435 3.99993 10.363 4.73743 9.05026 6.05018C8.85064 6.24981 8.66431 6.46025 8.49186 6.68013C8.46632 6.71485 8.44002 6.74903 8.41296 6.78267C7.5013 7.9904 7.00001 9.46932 7.00001 10.9999C7.00001 12.326 7.5268 13.5978 8.46448 14.5355C9.40216 15.4731 10.6739 15.9999 12 15.9999C13.3261 15.9999 14.5979 15.4731 15.5355 14.5355C16.4732 13.5978 17 12.326 17 10.9999C17 10.2043 16.6839 9.44122 16.1213 8.87861C15.5587 8.316 14.7957 7.99993 14 7.99993C13.2044 7.99993 12.4413 8.316 11.8787 8.87861C11.3161 9.44122 11 10.2043 11 10.9999C11 11.2651 11.1054 11.5195 11.2929 11.707C11.4804 11.8946 11.7348 11.9999 12 11.9999C12.2652 11.9999 12.5196 11.8946 12.7071 11.707C12.8947 11.5195 13 11.2651 13 10.9999C13 10.4476 13.4477 9.99993 14 9.99993C14.5523 9.99993 15 10.4476 15 10.9999C15 11.7956 14.6839 12.5586 14.1213 13.1212C13.5587 13.6839 12.7957 13.9999 12 13.9999C11.2044 13.9999 10.4413 13.6839 9.87869 13.1212C9.31608 12.5586 9.00001 11.7956 9.00001 10.9999C9.00001 9.67384 9.5268 8.40208 10.4645 7.46439C11.4022 6.52671 12.6739 5.99993 14 5.99993C15.3261 5.99993 16.5979 6.52671 17.5355 7.46439C18.4732 8.40208 19 9.67384 19 10.9999C19 12.8564 18.2625 14.6369 16.9498 15.9497C15.637 17.2624 13.8565 17.9999 12 17.9999C10.1435 17.9999 8.36302 17.2624 7.05026 15.9497C5.73751 14.6369 5.00001 12.8564 5.00001 10.9999C5.00001 9.08466 5.6105 7.23234 6.72371 5.70312C6.75364 5.65367 6.78828 5.60613 6.82769 5.56114C6.83226 5.55591 6.83679 5.55063 6.84125 5.54532C6.85842 5.52278 6.87571 5.50032 6.8931 5.47793C6.95108 5.39556 6.9964 5.30472 7.02736 5.20844C7.06915 5.07848 7.08388 4.94134 7.07066 4.80547C7.05743 4.6696 7.01653 4.53787 6.95046 4.41841C6.8844 4.29894 6.79458 4.19427 6.68652 4.11084C6.57847 4.02741 6.45448 3.96698 6.32219 3.93329ZM8.80254 3.65234C8.77118 3.58393 8.73721 3.5166 8.70067 3.45053C8.50248 3.09214 8.233 2.77812 7.90885 2.52783C7.58469 2.27753 7.21272 2.09626 6.81585 1.99517C6.41898 1.89408 6.00562 1.87532 5.60122 1.94005C5.19683 2.00478 4.80997 2.15162 4.46448 2.37152C4.12695 2.58636 3.83589 2.86649 3.60834 3.19535C1.91216 5.44343 0.99618 8.18404 1.00001 11.0006C1.0002 13.9178 2.15911 16.7154 4.22184 18.7781C6.28474 20.841 9.08263 21.9999 12 21.9999C14.9174 21.9999 17.7153 20.841 19.7782 18.7781C21.8411 16.7152 23 13.9173 23 10.9999C23 8.61298 22.0518 6.32379 20.364 4.63597C18.6761 2.94814 16.387 1.99993 14 1.99993C12.126 1.99993 10.3123 2.58438 8.80254 3.65234Z" fill="black"/>
</svg>
