<svg width="24" height="24" viewBox="0 0 24 24" fill="none" xmlns="http://www.w3.org/2000/svg">
<path fill-rule="evenodd" clip-rule="evenodd" d="M5 4C4.44772 4 4 4.44772 4 5V19C4 19.5523 4.44772 20 5 20H19C19.5523 20 20 19.5523 20 19V5C20 4.44772 19.5523 4 19 4H5ZM2 5C2 3.34315 3.34315 2 5 2H19C20.6569 2 22 3.34315 22 5V19C22 20.6569 20.6569 22 19 22H5C3.34315 22 2 20.6569 2 19V5Z" fill="black"/>
<path fill-rule="evenodd" clip-rule="evenodd" d="M9 9V15H15V9H9ZM15.0012 15C15.0013 14.9999 15.0013 14.9999 15.0012 15V15ZM7 9C7 7.89543 7.89543 7 9 7H15C16.1046 7 17 7.89543 17 9V15C17 16.1046 16.1046 17 15 17H9C7.89543 17 7 16.1046 7 15V9Z" fill="black"/>
</svg>
