<svg width="24" height="24" viewBox="0 0 24 24" fill="none" xmlns="http://www.w3.org/2000/svg">
<path d="M11.0098 10.9999C11.562 10.9999 12.0098 11.4476 12.0098 11.9999C12.0098 12.5522 11.562 12.9999 11.0098 12.9999H11C10.4477 12.9999 9.99999 12.5522 9.99999 11.9999C9.99999 11.4476 10.4477 10.9999 11 10.9999H11.0098Z" fill="black"/>
<path d="M12.293 19.2929C12.6835 18.9023 13.3165 18.9023 13.707 19.2929C13.9278 19.5136 14.1139 19.6708 14.3535 19.786C14.5884 19.8989 14.9363 19.9999 15.5 19.9999C16.0523 19.9999 16.5 20.4476 16.5 20.9999C16.5 21.5522 16.0523 21.9999 15.5 21.9999C14.9363 21.9999 14.5884 22.1009 14.3535 22.2138C14.1139 22.3289 13.9278 22.4862 13.707 22.7069C13.3165 23.0975 12.6835 23.0975 12.293 22.7069C11.9024 22.3164 11.9024 21.6834 12.293 21.2929C12.3862 21.1996 12.4923 21.1018 12.6094 20.9999C12.4923 20.898 12.3862 20.8002 12.293 20.7069C11.9024 20.3164 11.9024 19.6834 12.293 19.2929Z" fill="black"/>
<path d="M4.00013 8.97744C3.67564 8.94134 3.35679 8.86002 3.05482 8.73232C2.63208 8.55348 2.2498 8.29085 1.93177 7.95986C1.61369 7.62877 1.36601 7.23622 1.20423 6.80654C1.0425 6.37688 0.970593 5.91848 0.991343 5.45986C1.01215 5.00114 1.12533 4.55094 1.32533 4.13759C1.52534 3.72424 1.80762 3.35558 2.15443 3.05458C2.50118 2.75369 2.90561 2.52643 3.34291 2.38662C3.78017 2.24681 4.24141 2.19721 4.69837 2.24111L10.8634 2.80166C11.3196 2.84274 11.7768 2.74529 12.1769 2.52236C12.5769 2.29943 12.9005 1.96114 13.1056 1.55166C13.3529 1.05818 13.9538 0.858459 14.4474 1.10537C14.9412 1.35268 15.141 1.95432 14.8937 2.44814C14.5087 3.21667 13.9014 3.85202 13.1505 4.27041C12.3996 4.68878 11.5399 4.87087 10.6837 4.79384L4.51283 4.23232H4.50697C4.31994 4.21437 4.13126 4.2347 3.95228 4.29189C3.77316 4.34916 3.607 4.44207 3.46498 4.56533C3.32307 4.68852 3.20798 4.83954 3.12611 5.00869C3.04426 5.17785 2.99698 5.36198 2.98841 5.5497C2.9799 5.73752 3.01008 5.9255 3.0763 6.10146C3.14255 6.27745 3.24388 6.43851 3.37416 6.57412C3.50441 6.70967 3.66097 6.8173 3.83412 6.89052C4.00731 6.96377 4.19392 7.00089 4.38197 6.9999H15.5001C17.489 6.99994 19.3964 7.78996 20.8029 9.19619C22.2094 10.6027 23.0001 12.5108 23.0001 14.4999C23.0001 16.489 22.2094 18.3971 20.8029 19.8036C19.4382 21.1681 17.6017 21.9496 15.6769 21.995C15.6182 21.998 15.5591 21.9999 15.5 21.9999C14.9477 21.9999 14.5001 21.5522 14.5001 20.9999C14.5001 20.4476 14.9477 19.9999 15.5 19.9999C15.8978 19.9999 16.2794 19.8417 16.5607 19.5604C16.8419 19.2791 17.0001 18.8977 17.0001 18.4999C17.0001 18.1021 16.8419 17.7206 16.5607 17.4394C16.2794 17.1581 15.8979 16.9999 15.5001 16.9999H12.0001C9.87843 16.9999 7.84319 16.1574 6.34291 14.6571C4.84261 13.1568 4.00013 11.1216 4.00013 8.9999V8.97744ZM6.00013 8.9999C6.00013 10.591 6.63201 12.1169 7.75697 13.2421C8.88219 14.3673 10.4088 14.9999 12.0001 14.9999H15.5001C16.4283 14.9999 17.3184 15.3689 17.9747 16.0253C18.6311 16.6817 19.0001 17.5717 19.0001 18.4999C19.0001 18.584 18.9954 18.6676 18.9894 18.7509C19.1278 18.6373 19.2611 18.5163 19.3888 18.3886C20.4202 17.3571 21.0001 15.9586 21.0001 14.4999C21.0001 13.0412 20.4202 11.6427 19.3888 10.6112C18.3574 9.57981 16.9588 8.99994 15.5001 8.9999H6.00013Z" fill="black"/>
<path d="M14 11.9999C14 10.7688 13.6965 9.55683 13.1172 8.4706C12.8574 7.98331 13.042 7.37697 13.5293 7.11708C14.0166 6.85727 14.6229 7.04192 14.8828 7.52919C15.6166 8.90506 16 10.4406 16 11.9999C16 13.5592 15.6166 15.0947 14.8828 16.4706C14.6229 16.9579 14.0166 17.1425 13.5293 16.8827C13.042 16.6228 12.8574 16.0165 13.1172 15.5292C13.6965 14.443 14 13.231 14 11.9999Z" fill="black"/>
<path d="M19.7578 9.03017C20.2935 8.89637 20.8358 9.22199 20.9697 9.75771C21.1557 10.5018 21.0459 11.3247 20.8252 12.0663C20.599 12.8261 20.2276 13.6005 19.7764 14.2948C19.3262 14.9873 18.7736 15.6373 18.1641 16.1249C17.5708 16.5995 16.8219 16.9999 16 16.9999C15.4477 16.9999 15 16.5522 15 15.9999C15 15.4476 15.4477 14.9999 16 14.9999C16.1781 14.9999 16.4917 14.9003 16.9141 14.5624C17.3201 14.2376 17.7363 13.7624 18.0986 13.205C18.4598 12.6494 18.7447 12.0486 18.9092 11.496C19.0791 10.9252 19.0942 10.4979 19.0303 10.2421C18.8965 9.70636 19.2221 9.1641 19.7578 9.03017Z" fill="black"/>
</svg>
