<svg width="24" height="24" viewBox="0 0 24 24" fill="none" xmlns="http://www.w3.org/2000/svg">
<path d="M20 5C20 4.44772 19.5523 4 19 4H5C4.44772 4 4 4.44772 4 5V19C4 19.5523 4.44772 20 5 20H19C19.5523 20 20 19.5523 20 19V5ZM22 19C22 20.6569 20.6569 22 19 22H5C3.34315 22 2 20.6569 2 19V5C2 3.34315 3.34315 2 5 2H19C20.6569 2 22 3.34315 22 5V19Z" fill="black"/>
<path d="M9 8.5C9 8.22386 8.77614 8 8.5 8C8.22386 8 8 8.22386 8 8.5C8 8.77614 8.22386 9 8.5 9C8.77614 9 9 8.77614 9 8.5ZM11 8.5C11 9.88071 9.88071 11 8.5 11C7.11929 11 6 9.88071 6 8.5C6 7.11929 7.11929 6 8.5 6C9.88071 6 11 7.11929 11 8.5Z" fill="black"/>
<path d="M8.85368 8.85368C9.24421 8.46316 9.87722 8.46316 10.2677 8.85368L12.7072 11.2931C13.0976 11.6837 13.0977 12.3167 12.7072 12.7072C12.3167 13.0977 11.6837 13.0976 11.2931 12.7072L8.85368 10.2677C8.46316 9.87722 8.46316 9.24421 8.85368 8.85368Z" fill="black"/>
<path d="M14.113 14.113C14.5035 13.7224 15.1365 13.7224 15.527 14.113L17.7067 16.2926C18.0972 16.6832 18.0972 17.3162 17.7067 17.7067C17.3162 18.0972 16.6832 18.0972 16.2926 17.7067L14.113 15.527C13.7224 15.1365 13.7224 14.5035 14.113 14.113Z" fill="black"/>
<path d="M9 15.5C9 15.2239 8.77614 15 8.5 15C8.22386 15 8 15.2239 8 15.5C8 15.7761 8.22386 16 8.5 16C8.77614 16 9 15.7761 9 15.5ZM11 15.5C11 16.8807 9.88071 18 8.5 18C7.11929 18 6 16.8807 6 15.5C6 14.1193 7.11929 13 8.5 13C9.88071 13 11 14.1193 11 15.5Z" fill="black"/>
<path d="M16.2931 6.29286C16.6836 5.9024 17.3167 5.90236 17.7072 6.29286C18.0976 6.68337 18.0976 7.31642 17.7072 7.70693L10.2677 15.1464C9.87721 15.5368 9.24417 15.5368 8.85366 15.1464C8.46315 14.7559 8.46319 14.1228 8.85366 13.7323L16.2931 6.29286Z" fill="black"/>
</svg>
