<svg width="24" height="24" viewBox="0 0 24 24" fill="none" xmlns="http://www.w3.org/2000/svg">
<path d="M4.99902 6.5C4.99902 5.91525 5.23108 5.35394 5.64453 4.94043L7.94043 2.64453L8.10254 2.49805C8.49488 2.17666 8.98839 1.99902 9.5 1.99902C10.0846 1.99905 10.6451 2.23128 11.0586 2.64453L14.207 5.79297C14.5975 6.1835 14.5975 6.81654 14.207 7.20703C13.8165 7.59752 13.1835 7.59745 12.793 7.20703L9.64453 4.05859C9.60615 4.02042 9.55414 3.99905 9.5 3.99902C9.44587 3.99902 9.39386 4.02046 9.35547 4.05859L7.05859 6.35547L7.05762 6.35449C7.01948 6.39289 6.99902 6.44587 6.99902 6.5C6.99905 6.55414 7.02042 6.60615 7.05859 6.64453L10.207 9.79297C10.5975 10.1835 10.5975 10.8165 10.207 11.207C9.81654 11.5975 9.1835 11.5975 8.79297 11.207L5.64453 8.05859C5.23129 7.64514 4.99905 7.08458 4.99902 6.5Z" fill="black"/>
<path d="M18.2929 4.29289C18.6834 3.90237 19.3164 3.90237 19.707 4.29289C20.0975 4.68342 20.0975 5.31643 19.707 5.70696L17.207 8.20696C16.8164 8.59748 16.1834 8.59748 15.7929 8.20696C15.4024 7.81643 15.4024 7.18342 15.7929 6.79289L18.2929 4.29289Z" fill="black"/>
<path d="M12.7929 13.7929C13.1834 13.4024 13.8164 13.4024 14.207 13.7929L17.3554 16.9404C17.3938 16.9788 17.4456 17.0009 17.4999 17.0009C17.5543 17.0009 17.606 16.9788 17.6445 16.9404L19.9404 14.6445C19.9788 14.606 20.0009 14.5543 20.0009 14.4999C20.0009 14.4456 19.9788 14.3938 19.9404 14.3554L16.7929 11.207C16.4024 10.8164 16.4024 10.1834 16.7929 9.79289C17.1834 9.40237 17.8164 9.40237 18.207 9.79289L21.3554 12.9404C21.7686 13.3538 22.0009 13.9154 22.0009 14.4999C22.0009 15.0845 21.7686 15.645 21.3554 16.0585L19.0595 18.3554C18.646 18.7686 18.0845 19.0009 17.4999 19.0009C16.9154 19.0009 16.3548 18.7686 15.9413 18.3554L12.7929 15.207C12.4024 14.8164 12.4024 14.1834 12.7929 13.7929Z" fill="black"/>
<path d="M8 21C8 19.6739 7.47284 18.4025 6.53516 17.4648C5.59747 16.5272 4.32608 16 3 16C2.44772 16 2 15.5523 2 15C2 14.4477 2.44772 14 3 14C4.85652 14 6.63744 14.7371 7.9502 16.0498C9.26295 17.3626 10 19.1435 10 21C10 21.5523 9.55228 22 9 22C8.44772 22 8 21.5523 8 21Z" fill="black"/>
<path d="M17.001 9.5C17.001 9.44564 16.9789 9.39294 16.9404 9.35449L14.6445 7.05859C14.6061 7.02042 14.5541 6.99905 14.5 6.99902C14.4459 6.99902 14.3939 7.02046 14.3555 7.05859L10.0586 11.3555C10.0205 11.3939 9.99902 11.4459 9.99902 11.5C9.99905 11.5541 10.0204 11.6061 10.0586 11.6445L12.3555 13.9404C12.3939 13.9789 12.4456 14.001 12.5 14.001C12.5543 14.0009 12.6061 13.9788 12.6445 13.9404L16.9404 9.64453C16.9788 9.60611 17.0009 9.55433 17.001 9.5ZM19.001 9.5C19.0009 10.0845 18.7687 10.6451 18.3555 11.0586L14.0586 15.3555C13.6451 15.7686 13.0845 16.0009 12.5 16.001C11.9153 16.001 11.3539 15.7689 10.9404 15.3555L8.64453 13.0586C8.23129 12.6451 7.99905 12.0846 7.99902 11.5C7.99902 10.9153 8.23108 10.3539 8.64453 9.94043L12.9404 5.64453L13.1025 5.49805C13.4949 5.17666 13.9884 4.99902 14.5 4.99902C15.0846 4.99905 15.6451 5.23129 16.0586 5.64453L18.3555 7.94043L18.502 8.10254C18.8233 8.49486 19.001 8.98843 19.001 9.5Z" fill="black"/>
</svg>
