<svg width="24" height="24" viewBox="0 0 24 24" fill="none" xmlns="http://www.w3.org/2000/svg">
<path d="M10.9999 21.9999V16.828C10.9998 16.5629 10.8945 16.3085 10.707 16.121L8.79289 14.207C8.40237 13.8164 8.40237 13.1834 8.79289 12.7929C9.18342 12.4024 9.81643 12.4024 10.207 12.7929L12.121 14.707L12.3202 14.9267C12.7577 15.4604 12.9998 16.1319 12.9999 16.828V21.9999C12.9999 22.5522 12.5522 22.9999 11.9999 22.9999C11.4476 22.9999 10.9999 22.5522 10.9999 21.9999Z" fill="black"/>
<path d="M13.7929 13.7929C14.1834 13.4024 14.8164 13.4024 15.207 13.7929C15.5975 14.1834 15.5975 14.8164 15.207 15.207L12.707 17.707C12.3164 18.0975 11.6834 18.0975 11.2929 17.707C10.9024 17.3164 10.9024 16.6834 11.2929 16.2929L13.7929 13.7929Z" fill="black"/>
<path d="M11.9998 2C13.5911 2 15.1178 2.63259 16.243 3.75781C17.3679 4.88299 17.9998 6.4089 17.9998 8V8.24902C19.1151 9.0216 19.9852 10.1052 20.4988 11.3701C21.0872 12.819 21.1735 14.4232 20.7439 15.9268C20.3144 17.4303 19.3936 18.7467 18.1287 19.666C16.8732 20.5785 15.3503 21.0464 13.7996 20.999L9.99981 21C9.97733 21 9.95484 20.9996 9.93242 20.998C8.35044 20.8906 6.84277 20.2842 5.62676 19.2666C4.41082 18.249 3.54842 16.8722 3.16387 15.334C2.77933 13.7958 2.89215 12.1751 3.48613 10.7051C4.0129 9.40152 4.8944 8.2756 6.0252 7.45215C6.15263 6.06181 6.76231 4.75315 7.75762 3.75781C8.8828 2.63263 10.4086 2.00004 11.9998 2ZM11.9998 4C10.939 4.00004 9.92179 4.42176 9.17168 5.17188C8.42158 5.92201 7.99981 6.93917 7.99981 8C7.99981 8.34509 7.8219 8.66598 7.5291 8.84863C6.54263 9.46406 5.77626 10.3761 5.34063 11.4541C4.905 12.5321 4.82236 13.7206 5.1043 14.8486C5.38632 15.9767 6.01919 16.9862 6.91094 17.7324C7.79703 18.4739 8.89364 18.9171 10.0457 19H13.7996C13.8115 19 13.8239 19.0006 13.8357 19.001C14.9519 19.0406 16.0495 18.7054 16.9529 18.0488C17.8565 17.3921 18.5142 16.451 18.8211 15.377C19.1278 14.3033 19.0663 13.1577 18.6463 12.123C18.226 11.0881 17.4705 10.223 16.5018 9.66699C16.1914 9.48864 15.9998 9.15781 15.9998 8.7998V8C15.9998 6.93913 15.5781 5.92202 14.8279 5.17188C14.0778 4.42178 13.0606 4 11.9998 4Z" fill="black"/>
</svg>
