<svg width="24" height="24" viewBox="0 0 24 24" fill="none" xmlns="http://www.w3.org/2000/svg">
<path fill-rule="evenodd" clip-rule="evenodd" d="M2 3C2 2.44772 2.44772 2 3 2H3.01C3.56228 2 4.01 2.44772 4.01 3C4.01 3.55228 3.56228 4 3.01 4H3C2.44772 4 2 3.55228 2 3Z" fill="black"/>
<path fill-rule="evenodd" clip-rule="evenodd" d="M6 5C6 4.44772 6.44772 4 7 4H7.01C7.56228 4 8.01 4.44772 8.01 5C8.01 5.55228 7.56228 6 7.01 6H7C6.44772 6 6 5.55228 6 5Z" fill="black"/>
<path fill-rule="evenodd" clip-rule="evenodd" d="M10 7C10 6.44772 10.4477 6 11 6H11.01C11.5623 6 12.01 6.44772 12.01 7C12.01 7.55228 11.5623 8 11.01 8H11C10.4477 8 10 7.55228 10 7Z" fill="black"/>
<path fill-rule="evenodd" clip-rule="evenodd" d="M2 7C2 6.44772 2.44772 6 3 6H3.01C3.56228 6 4.01 6.44772 4.01 7C4.01 7.55228 3.56228 8 3.01 8H3C2.44772 8 2 7.55228 2 7Z" fill="black"/>
<path fill-rule="evenodd" clip-rule="evenodd" d="M6 9C6 8.44772 6.44772 8 7 8H7.01C7.56228 8 8.01 8.44772 8.01 9C8.01 9.55228 7.56228 10 7.01 10H7C6.44772 10 6 9.55228 6 9Z" fill="black"/>
<path fill-rule="evenodd" clip-rule="evenodd" d="M2 11C2 10.4477 2.44772 10 3 10H3.01C3.56228 10 4.01 10.4477 4.01 11C4.01 11.5523 3.56228 12 3.01 12H3C2.44772 12 2 11.5523 2 11Z" fill="black"/>
<path fill-rule="evenodd" clip-rule="evenodd" d="M14 5C14 4.44772 14.4477 4 15 4H19C19.5523 4 20 4.44772 20 5V9C20 9.55228 19.5523 10 19 10H15C14.4477 10 14 9.55228 14 9V5ZM16 6V8H18V6H16Z" fill="black"/>
<path fill-rule="evenodd" clip-rule="evenodd" d="M15.7071 8.29289C16.0976 8.68342 16.0976 9.31658 15.7071 9.70711L14 11.4142V21H20V11.4142L18.2929 9.70711C17.9024 9.31658 17.9024 8.68342 18.2929 8.29289C18.6834 7.90237 19.3166 7.90237 19.7071 8.29289L21.7071 10.2929C21.8946 10.4804 22 10.7348 22 11V21C22 21.5272 21.8199 22.0443 21.4321 22.4321C21.0443 22.8199 20.5272 23 20 23H14C13.4728 23 12.9557 22.8199 12.5679 22.4321C12.1801 22.0443 12 21.5272 12 21V11C12 10.7348 12.1054 10.4804 12.2929 10.2929L14.2929 8.29289C14.6834 7.90237 15.3166 7.90237 15.7071 8.29289Z" fill="black"/>
<path fill-rule="evenodd" clip-rule="evenodd" d="M21.9701 11.7575C22.1041 12.2933 21.7783 12.8362 21.2425 12.9701L13.2425 14.9701C12.7067 15.1041 12.1638 14.7783 12.0299 14.2425C11.8959 13.7067 12.2217 13.1638 12.7575 13.0299L20.7575 11.0299C21.2933 10.8959 21.8362 11.2217 21.9701 11.7575Z" fill="black"/>
<path fill-rule="evenodd" clip-rule="evenodd" d="M21.9701 16.7575C22.1041 17.2933 21.7783 17.8362 21.2425 17.9701L13.2425 19.9701C12.7067 20.1041 12.1638 19.7783 12.0299 19.2425C11.8959 18.7067 12.2217 18.1638 12.7575 18.0299L20.7575 16.0299C21.2933 15.8959 21.8362 16.2217 21.9701 16.7575Z" fill="black"/>
</svg>
