<svg width="24" height="24" viewBox="0 0 24 24" fill="none" xmlns="http://www.w3.org/2000/svg">
<path fill-rule="evenodd" clip-rule="evenodd" d="M11.8918 3.03837C10.0424 4.65169 7.32107 5.99996 5 5.99996V13C5 15.2359 5.77079 16.861 6.98675 18.1063C8.22994 19.3796 9.98374 20.2997 11.9964 20.9947C12.004 20.9973 12.0115 21 12.019 21.0028C14.0241 20.3031 15.773 19.3813 17.0139 18.1082C18.2292 16.8613 19 15.2358 19 13V5.99996C16.6797 5.99996 13.9684 4.66242 12.1081 3.0383C12.0777 3.01325 12.0395 2.99951 12 2.99951C11.9605 2.99951 11.9223 3.01327 11.8918 3.03837ZM10.5904 1.51966C10.9834 1.18396 11.4832 0.999512 12 0.999512C12.5168 0.999512 13.0166 1.18396 13.4096 1.51966C13.4125 1.52213 13.4153 1.52462 13.4182 1.52712C15.0577 2.96053 17.3229 3.99996 19 3.99996C19.5304 3.99996 20.0391 4.21068 20.4142 4.58575C20.7893 4.96082 21 5.46953 21 5.99996V13C21 15.7641 20.0208 17.8886 18.4461 19.5042C16.8987 21.0919 14.8206 22.1443 12.6691 22.8942C12.6664 22.8952 12.6637 22.8961 12.6609 22.8971C12.2297 23.0432 11.7616 23.0378 11.334 22.8819C9.1801 22.1371 7.10277 21.088 5.55575 19.5036C3.97921 17.8889 3 15.764 3 13V5.99996C3 5.46953 3.21071 4.96082 3.58579 4.58575C3.96086 4.21068 4.46957 3.99996 5 3.99996C6.67639 3.99996 8.95161 2.95119 10.5821 1.52685C10.5849 1.52444 10.5876 1.52204 10.5904 1.51966Z" fill="black"/>
<path fill-rule="evenodd" clip-rule="evenodd" d="M12 6.9999C12.5523 6.9999 13 7.44762 13 7.9999V11.9999C13 12.5522 12.5523 12.9999 12 12.9999C11.4477 12.9999 11 12.5522 11 11.9999V7.9999C11 7.44762 11.4477 6.9999 12 6.9999Z" fill="black"/>
<path fill-rule="evenodd" clip-rule="evenodd" d="M11 15.9999C11 15.4476 11.4477 14.9999 12 14.9999H12.01C12.5623 14.9999 13.01 15.4476 13.01 15.9999C13.01 16.5522 12.5623 16.9999 12.01 16.9999H12C11.4477 16.9999 11 16.5522 11 15.9999Z" fill="black"/>
</svg>
