<svg width="24" height="24" viewBox="0 0 24 24" fill="none" xmlns="http://www.w3.org/2000/svg">
<path fill-rule="evenodd" clip-rule="evenodd" d="M10.6247 8.71917C11.056 9.06418 11.1259 9.69347 10.7809 10.1247L9.28062 12L10.7809 13.8753C11.1259 14.3066 11.056 14.9359 10.6247 15.2809C10.1934 15.6259 9.56414 15.556 9.21913 15.1247L7.21913 12.6247C6.92696 12.2595 6.92696 11.7406 7.21913 11.3753L9.21913 8.87534C9.56414 8.44408 10.1934 8.37416 10.6247 8.71917Z" fill="black"/>
<path fill-rule="evenodd" clip-rule="evenodd" d="M13 21C13 20.4477 13.4477 20 14 20H15C15.5523 20 16 20.4477 16 21C16 21.5523 15.5523 22 15 22H14C13.4477 22 13 21.5523 13 21Z" fill="black"/>
<path fill-rule="evenodd" clip-rule="evenodd" d="M13.3753 8.71917C13.8066 8.37416 14.4359 8.44408 14.7809 8.87534L16.7809 11.3753C17.0731 11.7406 17.0731 12.2595 16.7809 12.6247L14.7809 15.1247C14.4359 15.556 13.8066 15.6259 13.3753 15.2809C12.9441 14.9359 12.8742 14.3066 13.2192 13.8753L14.7194 12L13.2192 10.1247C12.8742 9.69347 12.9441 9.06418 13.3753 8.71917Z" fill="black"/>
<path fill-rule="evenodd" clip-rule="evenodd" d="M5 4C4.73478 4 4.48043 4.10536 4.29289 4.29289C4.10536 4.48043 4 4.73478 4 5V19C4 19.2652 4.10536 19.5196 4.29289 19.7071C4.48043 19.8946 4.73478 20 5 20C5.55228 20 6 20.4477 6 21C6 21.5523 5.55228 22 5 22C4.20435 22 3.44129 21.6839 2.87868 21.1213C2.31607 20.5587 2 19.7956 2 19V5C2 4.20435 2.31607 3.44129 2.87868 2.87868C3.44129 2.31607 4.20435 2 5 2H19C19.7956 2 20.5587 2.31607 21.1213 2.87868C21.6839 3.44129 22 4.20435 22 5V19C22 19.7957 21.6839 20.5587 21.1213 21.1213C20.5587 21.6839 19.7957 22 19 22C18.4477 22 18 21.5523 18 21C18 20.4477 18.4477 20 19 20C19.2652 20 19.5196 19.8946 19.7071 19.7071C19.8946 19.5196 20 19.2652 20 19V5C20 4.73478 19.8946 4.48043 19.7071 4.29289C19.5196 4.10536 19.2652 4 19 4H5Z" fill="black"/>
<path fill-rule="evenodd" clip-rule="evenodd" d="M8 21C8 20.4477 8.44772 20 9 20H10C10.5523 20 11 20.4477 11 21C11 21.5523 10.5523 22 10 22H9C8.44772 22 8 21.5523 8 21Z" fill="black"/>
</svg>
