<svg width="24" height="24" viewBox="0 0 24 24" fill="none" xmlns="http://www.w3.org/2000/svg">
<path fill-rule="evenodd" clip-rule="evenodd" d="M8.58469 1.18877C8.84546 1.37672 8.99998 1.67856 8.99998 2.00001C8.99998 2.79566 9.31605 3.55872 9.87866 4.12133C10.4413 4.68394 11.2043 5.00001 12 5.00001C12.7956 5.00001 13.5587 4.68394 14.1213 4.12133C14.6839 3.55872 15 2.79566 15 2.00001C15 1.67856 15.1545 1.37672 15.4153 1.18877C15.676 1.00081 16.0113 0.949675 16.3162 1.05132L20.6961 2.51127C20.6961 2.51129 20.6962 2.51131 20.6962 2.51132C21.3751 2.73753 21.9507 3.19894 22.3193 3.81229C22.6878 4.42562 22.825 5.15049 22.7061 5.85607C22.7061 5.85614 22.7061 5.85621 22.7061 5.85628L22.1271 9.32C22.1269 9.32094 22.1268 9.32188 22.1266 9.32282C22.05 9.79153 21.809 10.2177 21.4468 10.525C21.0843 10.8326 20.6242 11.001 20.1488 11H19V20C19 20.7957 18.6839 21.5587 18.1213 22.1213C17.5587 22.6839 16.7956 23 16 23H7.99998C6.3477 23 4.99998 21.6523 4.99998 20V11H3.85112C3.37578 11.001 2.91562 10.8326 2.55314 10.525C2.19095 10.2177 1.94999 9.79155 1.87333 9.32284L1.2939 5.85628C1.29386 5.85603 1.29382 5.85579 1.29378 5.85555C1.17501 5.15012 1.31222 4.42547 1.68068 3.81229C2.04924 3.19894 2.62489 2.73753 3.30375 2.51132C3.30378 2.51132 3.3038 2.51131 3.30382 2.5113C3.30385 2.51129 3.30387 2.51128 3.3039 2.51127L7.68375 1.05132C7.9887 0.949675 8.32392 1.00081 8.58469 1.18877ZM3.61999 3.46004L3.93606 4.40874C3.70975 4.48414 3.51785 4.63795 3.39499 4.84241C3.27213 5.04688 3.2264 5.28852 3.26606 5.52374L3.8463 8.99515C3.84657 8.99677 3.84684 8.99839 3.8471 9.00001L3.84878 9.00001L5.99998 9.00001C6.55227 9.00001 6.99998 9.44772 6.99998 10V20C6.99998 20.5477 7.45227 21 7.99998 21H16C16.2652 21 16.5196 20.8946 16.7071 20.7071C16.8946 20.5196 17 20.2652 17 20V10C17 9.44772 17.4477 9.00001 18 9.00001H20.15L20.1529 9.00001L20.1532 8.9981L20.1537 8.99515L20.7337 5.52515L20.7339 5.52374C20.7736 5.28852 20.7278 5.04687 20.605 4.84241C20.4821 4.63795 20.2902 4.48414 20.0639 4.40874L20.38 3.46008L20.0638 4.40869L16.8205 3.32761C16.5926 4.15524 16.1532 4.91787 15.5355 5.53554C14.5978 6.47322 13.3261 7.00001 12 7.00001C10.6739 7.00001 9.40213 6.47322 8.46445 5.53554C7.84678 4.91787 7.4074 4.15524 7.17944 3.32761L3.93621 4.40869L3.61999 3.46004Z" fill="black"/>
</svg>
