<svg width="24" height="24" viewBox="0 0 24 24" fill="none" xmlns="http://www.w3.org/2000/svg">
<path fill-rule="evenodd" clip-rule="evenodd" d="M8.57157 2.07868C9.5172 1.36946 10.7525 1 12 1C13.2475 1 14.4828 1.36946 15.4284 2.07868C16.3796 2.79203 17 3.83107 17 5C17 5.55228 16.5523 6 16 6C15.4477 6 15 5.55228 15 5C15 4.57763 14.7776 4.09055 14.2284 3.67868C13.6738 3.26268 12.8743 3 12 3C11.1257 3 10.3262 3.26268 9.77157 3.67868C9.22241 4.09055 9 4.57763 9 5C9 5.58461 9.25847 5.9993 9.82802 6.40273C10.4511 6.84406 11.3166 7.17572 12.3511 7.56367C12.3734 7.57202 12.3957 7.5804 12.4182 7.58881C13.3688 7.94512 14.4713 8.35838 15.328 8.96523C16.2585 9.6243 17 10.5846 17 12C17 13.1689 16.3796 14.208 15.4284 14.9213C14.4828 15.6305 13.2475 16 12 16C10.7525 16 9.5172 15.6305 8.57157 14.9213C7.62044 14.208 7 13.1689 7 12C7 11.4477 7.44772 11 8 11C8.55228 11 9 11.4477 9 12C9 12.4224 9.22241 12.9095 9.77157 13.3213C10.3262 13.7373 11.1257 14 12 14C12.8743 14 13.6738 13.7373 14.2284 13.3213C14.7776 12.9095 15 12.4224 15 12C15 11.4154 14.7415 11.0007 14.172 10.5973C13.5489 10.1559 12.6834 9.82428 11.6489 9.43633C11.6266 9.42798 11.6043 9.41961 11.5818 9.4112C10.6312 9.05488 9.5287 8.64162 8.67198 8.03477C7.74153 7.3757 7 6.41539 7 5C7 3.83107 7.62044 2.79203 8.57157 2.07868Z" fill="black"/>
<path fill-rule="evenodd" clip-rule="evenodd" d="M12 10C11.1257 10 10.3262 10.2627 9.77157 10.6787C9.22241 11.0905 9 11.5776 9 12C9 12.5846 9.25847 12.9993 9.82802 13.4027C10.4511 13.8441 11.3166 14.1757 12.3511 14.5637C12.3734 14.572 12.3957 14.5804 12.4182 14.5888C13.3688 14.9451 14.4713 15.3584 15.328 15.9652C16.2585 16.6243 17 17.5846 17 19C17 20.1689 16.3796 21.208 15.4284 21.9213C14.4828 22.6305 13.2475 23 12 23C10.7525 23 9.5172 22.6305 8.57157 21.9213C7.62044 21.208 7 20.1689 7 19C7 18.4477 7.44772 18 8 18C8.55228 18 9 18.4477 9 19C9 19.4224 9.22241 19.9095 9.77157 20.3213C10.3262 20.7373 11.1257 21 12 21C12.8743 21 13.6738 20.7373 14.2284 20.3213C14.7776 19.9095 15 19.4224 15 19C15 18.4154 14.7415 18.0007 14.172 17.5973C13.5489 17.1559 12.6834 16.8243 11.6489 16.4363C11.6266 16.428 11.6043 16.4196 11.5818 16.4112C10.6312 16.0549 9.5287 15.6416 8.67198 15.0348C7.74153 14.3757 7 13.4154 7 12C7 10.8311 7.62044 9.79203 8.57157 9.07868C9.5172 8.36946 10.7525 8 12 8C13.2475 8 14.4828 8.36946 15.4284 9.07868C16.3796 9.79203 17 10.8311 17 12C17 12.5523 16.5523 13 16 13C15.4477 13 15 12.5523 15 12C15 11.5776 14.7776 11.0905 14.2284 10.6787C13.6738 10.2627 12.8743 10 12 10Z" fill="black"/>
</svg>
