<svg width="24" height="24" viewBox="0 0 24 24" fill="none" xmlns="http://www.w3.org/2000/svg">
<path d="M20 7V5C20 4.73478 19.8946 4.48051 19.707 4.29297C19.5195 4.10543 19.2652 4 19 4H17C16.4477 4 16 3.55228 16 3C16 2.44772 16.4477 2 17 2H19C19.7957 2 20.5585 2.3163 21.1211 2.87891C21.6837 3.44151 22 4.20435 22 5V7C22 7.55228 21.5523 8 21 8C20.4477 8 20 7.55228 20 7Z" fill="black"/>
<path d="M20 19V17C20 16.4477 20.4477 16 21 16C21.5523 16 22 16.4477 22 17V19C22 19.7957 21.6837 20.5585 21.1211 21.1211C20.5585 21.6837 19.7957 22 19 22H17C16.4477 22 16 21.5523 16 21C16 20.4477 16.4477 20 17 20H19C19.2652 20 19.5195 19.8946 19.707 19.707C19.8946 19.5195 20 19.2652 20 19Z" fill="black"/>
<path d="M2 7V5C2 4.20435 2.3163 3.44152 2.87891 2.87891C3.44152 2.3163 4.20435 2 5 2H7C7.55228 2 8 2.44772 8 3C8 3.55228 7.55228 4 7 4H5C4.73478 4 4.4805 4.10543 4.29297 4.29297C4.10543 4.4805 4 4.73478 4 5V7C4 7.55228 3.55228 8 3 8C2.44772 8 2 7.55228 2 7Z" fill="black"/>
<path d="M2 19V17C2 16.4477 2.44772 16 3 16C3.55228 16 4 16.4477 4 17V19C4 19.2652 4.10543 19.5195 4.29297 19.707C4.48051 19.8946 4.73478 20 5 20H7C7.55228 20 8 20.4477 8 21C8 21.5523 7.55228 22 7 22H5C4.20435 22 3.44151 21.6837 2.87891 21.1211C2.3163 20.5585 2 19.7957 2 19Z" fill="black"/>
<path d="M14.143 6.99986C15.1767 7.03601 16.1566 7.47086 16.8764 8.21373C17.596 8.9565 17.9998 9.94909 18.0033 10.9833C18.0068 12.017 17.6089 13.0111 16.8949 13.7586L16.8959 13.7596L13.4496 17.3797C13.2628 17.576 13.0375 17.7319 12.7885 17.8387C12.5395 17.9455 12.2713 18.0008 12.0004 18.0008C11.7294 18.0008 11.4614 17.9455 11.2123 17.8387C10.9633 17.7319 10.738 17.5761 10.5512 17.3797L7.10392 13.7596C6.39028 13.0122 5.99304 12.0167 5.9965 10.9833C6.00003 9.94912 6.40391 8.95649 7.12345 8.21373C7.8432 7.47086 8.82313 7.03601 9.85685 6.99986C10.6128 6.97345 11.3542 7.16258 11.9994 7.53599C12.6448 7.16228 13.3867 6.97347 14.143 6.99986ZM14.0736 8.99791C13.5568 8.97983 13.0523 9.16326 12.6674 9.50865C12.2875 9.8491 11.7123 9.84916 11.3324 9.50865C10.9475 9.16326 10.443 8.97983 9.92619 8.99791C9.40948 9.01608 8.91975 9.23399 8.55998 9.60533C8.2002 9.97671 7.99827 10.473 7.9965 10.9901C7.99498 11.4426 8.14682 11.8805 8.42423 12.2333L8.55119 12.3788L8.55216 12.3807L12.0004 15.9999L15.4477 12.3807L15.4496 12.3788C15.8068 12.005 16.0051 11.5071 16.0033 10.9901C16.0016 10.473 15.7997 9.97672 15.4399 9.60533C15.08 9.23395 14.5904 9.01604 14.0736 8.99791Z" fill="black"/>
</svg>
