<svg width="24" height="24" viewBox="0 0 24 24" fill="none" xmlns="http://www.w3.org/2000/svg">
<path d="M15.0177 18.6011C15.5481 18.448 16.1026 18.7543 16.2559 19.2847L16.961 21.7222C17.1144 22.2527 16.808 22.807 16.2774 22.9604C15.747 23.1137 15.1925 22.8083 15.0391 22.2778L14.3341 19.8393C14.181 19.3089 14.4873 18.7544 15.0177 18.6011Z" fill="black"/>
<path d="M16.127 15.5127C16.3962 15.0305 17.0051 14.8578 17.4873 15.127L21.2451 17.2246C21.7273 17.4938 21.9001 18.1037 21.6309 18.5859C21.3615 19.0678 20.7526 19.2398 20.2705 18.9707L16.5127 16.873C16.0305 16.6038 15.8578 15.9949 16.127 15.5127Z" fill="black"/>
<path d="M21.832 10.9206C22.3737 10.8135 22.8995 11.1661 23.0068 11.7077C23.1139 12.2495 22.7615 12.7764 22.2197 12.8834L19.1943 13.4811C18.6525 13.5882 18.1256 13.2358 18.0186 12.694C17.9115 12.1523 18.2641 11.6265 18.8057 11.5192L21.832 10.9206Z" fill="black"/>
<path d="M5.0762 5.21871C5.98773 4.9165 6.97546 4.95296 7.8594 5.31734L8.03519 5.39449L8.07327 5.41402L14.9639 9.01168C15.4307 9.25016 15.7853 9.66238 15.9512 10.1601C16.1186 10.6628 16.0794 11.2115 15.8428 11.6855L12.7364 17.8974C12.6189 18.1323 12.4562 18.3416 12.2578 18.5136C12.0594 18.6857 11.8284 18.8173 11.5791 18.9004C11.33 18.9833 11.0666 19.0167 10.8047 18.998C10.5429 18.9793 10.2875 18.9084 10.0528 18.791C10.0477 18.7884 10.0422 18.7858 10.0371 18.7832L3.14749 15.1865L3.13675 15.1806C2.23689 14.6973 1.5557 13.8882 1.23343 12.9189C0.911192 11.9496 0.971993 10.8936 1.40335 9.96774L1.41409 9.94625L2.79397 7.15621L2.80862 7.12789C3.2921 6.22472 4.10383 5.54118 5.0762 5.21871ZM7.17679 7.20113C6.71506 6.98692 6.18845 6.95686 5.70511 7.11715C5.219 7.27844 4.813 7.62065 4.57132 8.07223L3.21585 10.8115C3.00013 11.2745 2.97072 11.8034 3.13187 12.288C3.29183 12.769 3.62834 13.1708 4.07327 13.413L10.9473 17.0019L14.0537 10.792C14.0487 10.7894 14.0432 10.7868 14.0381 10.7841L7.17679 7.20113Z" fill="black"/>
<path d="M7 9V2C7 1.44772 7.44772 1 8 1C8.55229 1 9 1.44772 9 2V9C9 9.55228 8.55229 10 8 10C7.44772 10 7 9.55228 7 9Z" fill="black"/>
</svg>
