<svg width="24" height="24" viewBox="0 0 24 24" fill="none" xmlns="http://www.w3.org/2000/svg">
<path fill-rule="evenodd" clip-rule="evenodd" d="M2.90481 3.7058C4.11659 2.50512 5.75571 1.83499 7.46158 1.84284C9.16745 1.85069 10.8003 2.53588 12.001 3.74766C13.2011 4.95885 13.8712 6.59697 13.864 8.30194V13.9998C13.864 14.0283 13.8628 14.0568 13.8603 14.0852C13.7924 14.8772 13.441 15.618 12.8706 16.1716C12.3001 16.7251 11.5491 17.0542 10.7555 17.0983C10.702 17.1013 10.6485 17.0999 10.5953 17.0943L9.79998 17.0106V19.9998C9.79998 20.5521 9.35226 20.9998 8.79998 20.9998C8.24769 20.9998 7.79998 20.5521 7.79998 19.9998V15.8998C7.79998 15.6164 7.92026 15.3463 8.13091 15.1566C8.34156 14.967 8.62278 14.8757 8.90466 14.9053L10.7133 15.0957C11.0004 15.0644 11.2696 14.9383 11.4777 14.7363C11.6936 14.5268 11.8299 14.2491 11.864 13.951V8.29983L11.864 8.29523C11.8694 7.11979 11.4076 5.99034 10.5803 5.15535C9.75297 4.32036 8.62782 3.84823 7.45238 3.84282C6.27693 3.83741 5.14749 4.29917 4.3125 5.1265C3.47803 5.95332 3.00597 7.07758 2.99998 8.25221C3.00016 9.56158 3.15212 10.2114 3.31638 10.6879C3.37934 10.8706 3.44061 11.0205 3.51237 11.1961C3.54802 11.2833 3.58625 11.3768 3.62857 11.4839C3.74782 11.7855 3.87095 12.1289 3.97164 12.5632C4.24116 13.6189 4.25188 14.7242 4.00283 15.785L4.00245 15.7866L2.97418 20.2255C2.84954 20.7635 2.31234 21.0987 1.7743 20.974C1.23626 20.8494 0.901138 20.3122 1.02578 19.7742L2.05478 15.3322L2.0555 15.329C2.23195 14.5783 2.22372 13.7959 2.03153 13.049C2.02938 13.0407 2.02734 13.0323 2.02541 13.0239C1.95463 12.7161 1.86799 12.4705 1.76863 12.2192C1.74325 12.155 1.71441 12.0843 1.68358 12.0087C1.60234 11.8097 1.50732 11.5769 1.42557 11.3397C1.17593 10.6155 0.999978 9.73887 0.999978 8.24983L0.999989 8.24523C1.00784 6.53936 1.69302 4.90648 2.90481 3.7058Z" fill="black"/>
<path fill-rule="evenodd" clip-rule="evenodd" d="M19.0963 6.48929C19.4871 6.09901 20.1202 6.0994 20.5105 6.49017C22.1029 8.08451 22.997 10.2459 22.9964 12.4992C22.9957 14.7526 22.1004 16.9135 20.5071 18.5069C20.1166 18.8974 19.4835 18.8975 19.0929 18.507C18.7024 18.1165 18.7023 17.4833 19.0928 17.0928C20.3112 15.8743 20.9959 14.2218 20.9964 12.4987C20.9969 10.7755 20.3131 9.12271 19.0954 7.9035C18.7052 7.51274 18.7055 6.87957 19.0963 6.48929Z" fill="black"/>
<path fill-rule="evenodd" clip-rule="evenodd" d="M16.2607 9.32491C16.6473 8.93044 17.2804 8.92402 17.6749 9.31056C18.0997 9.72687 18.4378 10.2233 18.6696 10.7711C18.9014 11.3189 19.0223 11.9072 19.0253 12.5021C19.0283 13.0969 18.9133 13.6864 18.687 14.2365C18.4608 14.7866 18.1277 15.2864 17.707 15.707C17.3165 16.0975 16.6833 16.0974 16.2928 15.7068C15.9023 15.3163 15.9024 14.6831 16.2929 14.2926C16.5266 14.059 16.7117 13.7813 16.8374 13.4757C16.9631 13.1701 17.027 12.8426 17.0253 12.5121C17.0237 12.1817 16.9565 11.8548 16.8277 11.5505C16.699 11.2461 16.5111 10.9703 16.2751 10.7391C15.8806 10.3525 15.8742 9.71938 16.2607 9.32491Z" fill="black"/>
</svg>
