<svg width="24" height="24" viewBox="0 0 24 24" fill="none" xmlns="http://www.w3.org/2000/svg">
<path d="M11 22.0002V18.0002C11 17.448 11.4477 17.0002 12 17.0002C12.5523 17.0002 13 17.448 13 18.0002V22.0002C13 22.5525 12.5523 23.0002 12 23.0002C11.4477 23.0002 11 22.5525 11 22.0002Z" fill="black"/>
<path d="M1 14.4991C1.00006 11.7435 2.80781 9.77722 4.29297 8.29206L4.30469 8.28034L9.8125 2.94929C10.0868 2.65691 10.4162 2.42158 10.7832 2.25886C11.1723 2.08632 11.5939 1.99821 12.0195 2.00104C12.445 2.00393 12.8653 2.09779 13.252 2.27546C13.6209 2.44506 13.9505 2.68848 14.2227 2.98932L19.6953 8.28132L19.707 8.29304C21.1931 9.77907 22.9999 11.755 23 14.5001C22.9997 15.815 22.6006 17.0993 21.8555 18.1827C21.1103 19.266 20.0539 20.0979 18.8262 20.5684C17.5982 21.0389 16.256 21.1264 14.9775 20.8184C13.8549 20.5479 12.8279 19.9834 11.999 19.1876C11.1704 19.9826 10.1444 20.5471 9.02246 20.8174C7.74403 21.1255 6.40178 21.038 5.17383 20.5674C3.94608 20.0969 2.8897 19.265 2.14453 18.1817C1.39935 17.0983 1.00026 15.814 1 14.4991ZM3.0127 14.8389C3.07272 15.6293 3.34047 16.3925 3.79199 17.0489C4.30791 17.7989 5.03963 18.3745 5.88965 18.7003C6.73967 19.026 7.66874 19.0863 8.55371 18.8731C9.43879 18.6599 10.2392 18.1831 10.8477 17.5059L10.9102 17.4415C11.2065 17.1661 11.5964 17.0134 12.001 17.0137L12.1523 17.0206C12.4522 17.0493 12.738 17.1628 12.9766 17.3467L13.0918 17.4444L13.1523 17.5069C13.7608 18.1841 14.5612 18.6608 15.4463 18.8741C16.3313 19.0872 17.2603 19.0269 18.1104 18.7012C18.9604 18.3755 19.6921 17.7999 20.208 17.0499C20.6595 16.3935 20.9273 15.6303 20.9873 14.8399L21 14.5001C20.9999 12.67 19.813 11.2285 18.3047 9.71882L12.8125 4.40729C12.792 4.38743 12.7727 4.36634 12.7539 4.34479C12.6609 4.23787 12.5457 4.15207 12.417 4.09284C12.2881 4.0336 12.1477 4.00199 12.0059 4.00104C11.864 4.0001 11.7234 4.02947 11.5938 4.08698C11.4641 4.14449 11.3484 4.22927 11.2539 4.33503C11.2378 4.35299 11.2204 4.37003 11.2031 4.38679L5.69531 9.71784C4.18608 11.2283 3.00006 12.6596 3 14.4991L3.0127 14.8389Z" fill="black"/>
</svg>
