<svg width="24" height="24" viewBox="0 0 24 24" fill="none" xmlns="http://www.w3.org/2000/svg">
<path d="M4 18V7C4 6.44772 4.44772 6 5 6C5.55228 6 6 6.44772 6 7V18H17C17.5523 18 18 18.4477 18 19C18 19.5523 17.5523 20 17 20H6C5.46957 20 4.96101 19.7891 4.58594 19.4141C4.21086 19.039 4 18.5304 4 18Z" fill="black"/>
<path d="M10.2929 12.2929C10.6834 11.9024 11.3164 11.9024 11.7069 12.2929C12.0975 12.6834 12.0975 13.3164 11.7069 13.7069L5.99992 19.414C5.6094 19.8045 4.97646 19.8046 4.58594 19.4141C4.19542 19.0235 4.19535 18.3904 4.58585 17.9999L10.2929 12.2929Z" fill="black"/>
<path d="M20 19C20 18.4477 19.5523 18 19 18C18.4477 18 18 18.4477 18 19C18 19.5523 18.4477 20 19 20C19.5523 20 20 19.5523 20 19ZM22 19C22 20.6569 20.6569 22 19 22C17.3431 22 16 20.6569 16 19C16 17.3431 17.3431 16 19 16C20.6569 16 22 17.3431 22 19Z" fill="black"/>
<path d="M6 5C6 4.44772 5.55228 4 5 4C4.44772 4 4 4.44772 4 5C4 5.55228 4.44772 6 5 6C5.55228 6 6 5.55228 6 5ZM8 5C8 6.65685 6.65685 8 5 8C3.34315 8 2 6.65685 2 5C2 3.34315 3.34315 2 5 2C6.65685 2 8 3.34315 8 5Z" fill="black"/>
</svg>
