<svg width="24" height="24" viewBox="0 0 24 24" fill="none" xmlns="http://www.w3.org/2000/svg">
<path fill-rule="evenodd" clip-rule="evenodd" d="M12 9C10.3431 9 9 10.3431 9 12C9 13.6569 10.3431 15 12 15C13.6569 15 15 13.6569 15 12C15 10.3431 13.6569 9 12 9ZM7 12C7 9.23858 9.23858 7 12 7C14.7614 7 17 9.23858 17 12C17 14.7614 14.7614 17 12 17C9.23858 17 7 14.7614 7 12Z" fill="black"/>
<path fill-rule="evenodd" clip-rule="evenodd" d="M11 4C11 3.44772 11.4477 3 12 3H12.01C12.5623 3 13.01 3.44772 13.01 4C13.01 4.55228 12.5623 5 12.01 5H12C11.4477 5 11 4.55228 11 4Z" fill="black"/>
<path fill-rule="evenodd" clip-rule="evenodd" d="M19 12C19 11.4477 19.4477 11 20 11H20.01C20.5623 11 21.01 11.4477 21.01 12C21.01 12.5523 20.5623 13 20.01 13H20C19.4477 13 19 12.5523 19 12Z" fill="black"/>
<path fill-rule="evenodd" clip-rule="evenodd" d="M11 20C11 19.4477 11.4477 19 12 19H12.01C12.5623 19 13.01 19.4477 13.01 20C13.01 20.5523 12.5623 21 12.01 21H12C11.4477 21 11 20.5523 11 20Z" fill="black"/>
<path fill-rule="evenodd" clip-rule="evenodd" d="M3 12C3 11.4477 3.44772 11 4 11H4.01C4.56228 11 5.01 11.4477 5.01 12C5.01 12.5523 4.56228 13 4.01 13H4C3.44772 13 3 12.5523 3 12Z" fill="black"/>
<path fill-rule="evenodd" clip-rule="evenodd" d="M16.657 6.34305C16.657 5.79076 17.1047 5.34305 17.657 5.34305H17.667C18.2193 5.34305 18.667 5.79076 18.667 6.34305C18.667 6.89533 18.2193 7.34305 17.667 7.34305H17.657C17.1047 7.34305 16.657 6.89533 16.657 6.34305Z" fill="black"/>
<path fill-rule="evenodd" clip-rule="evenodd" d="M16.657 17.657C16.657 17.1047 17.1047 16.657 17.657 16.657H17.667C18.2193 16.657 18.667 17.1047 18.667 17.657C18.667 18.2092 18.2193 18.657 17.667 18.657H17.657C17.1047 18.657 16.657 18.2092 16.657 17.657Z" fill="black"/>
<path fill-rule="evenodd" clip-rule="evenodd" d="M5.34301 17.657C5.34301 17.1047 5.79072 16.657 6.34301 16.657H6.35301C6.90529 16.657 7.35301 17.1047 7.35301 17.657C7.35301 18.2092 6.90529 18.657 6.35301 18.657H6.34301C5.79072 18.657 5.34301 18.2092 5.34301 17.657Z" fill="black"/>
<path fill-rule="evenodd" clip-rule="evenodd" d="M5.34301 6.34305C5.34301 5.79076 5.79072 5.34305 6.34301 5.34305H6.35301C6.90529 5.34305 7.35301 5.79076 7.35301 6.34305C7.35301 6.89533 6.90529 7.34305 6.35301 7.34305H6.34301C5.79072 7.34305 5.34301 6.89533 5.34301 6.34305Z" fill="black"/>
</svg>
