<svg width="24" height="24" viewBox="0 0 24 24" fill="none" xmlns="http://www.w3.org/2000/svg">
<path d="M18 11C18 7.13401 14.866 4 11 4C7.13401 4 4 7.13401 4 11C4 14.866 7.13401 18 11 18C14.866 18 18 14.866 18 11ZM20 11C20 15.9706 15.9706 20 11 20C6.02944 20 2 15.9706 2 11C2 6.02944 6.02944 2 11 2C15.9706 2 20 6.02944 20 11Z" fill="black"/>
<path d="M15.993 15.993C16.3835 15.6024 17.0165 15.6024 17.407 15.993L21.7068 20.2928C22.0974 20.6833 22.0974 21.3163 21.7068 21.7068C21.3163 22.0974 20.6833 22.0974 20.2928 21.7068L15.993 17.407C15.6024 17.0165 15.6024 16.3835 15.993 15.993Z" fill="black"/>
<path d="M10 11V7C10 6.44772 10.4477 6 11 6C11.5523 6 12 6.44772 12 7V11C12 11.5523 11.5523 12 11 12C10.4477 12 10 11.5523 10 11Z" fill="black"/>
<path d="M11.0098 14C11.562 14 12.0098 14.4477 12.0098 15C12.0098 15.5523 11.562 16 11.0098 16H11C10.4477 16 10 15.5523 10 15C10 14.4477 10.4477 14 11 14H11.0098Z" fill="black"/>
</svg>
