<svg width="24" height="24" viewBox="0 0 24 24" fill="none" xmlns="http://www.w3.org/2000/svg">
<path fill-rule="evenodd" clip-rule="evenodd" d="M12.9001 2.99482C11.0927 2.81319 9.2726 3.18273 7.67915 4.05487C6.0857 4.92701 4.79345 6.26091 3.97228 7.88122C3.15112 9.50153 2.83948 11.3324 3.07834 13.1331C3.31719 14.9339 4.09536 16.6202 5.31055 17.9704C6.52573 19.3206 8.12104 20.2715 9.88676 20.6981C11.6525 21.1246 13.5059 21.0069 15.2035 20.3604C16.9011 19.7138 18.3632 18.5687 19.3978 17.0756C20.432 15.5832 20.9905 13.8128 21.0001 11.9972V10.9998C21.0001 10.4475 21.4478 9.99983 22.0001 9.99983C22.5524 9.99983 23.0001 10.4475 23.0001 10.9998V11.9998C23.0001 12.0015 23.0001 12.0032 23.0001 12.0048C22.9889 14.225 22.3062 16.3898 21.0418 18.2147C19.7773 20.0396 17.9901 21.4392 15.9153 22.2294C13.8406 23.0196 11.5752 23.1635 9.41711 22.6421C7.25901 22.1208 5.30918 20.9586 3.82396 19.3083C2.33873 17.6581 1.38764 15.597 1.0957 13.3961C0.803767 11.1952 1.18466 8.95749 2.1883 6.97711C3.19195 4.99673 4.77136 3.3664 6.71892 2.30046C8.66647 1.23452 10.891 0.78285 13.1001 1.00484C13.6496 1.06006 14.0503 1.5503 13.9951 2.09982C13.9398 2.64933 13.4496 3.05004 12.9001 2.99482Z" fill="black"/>
<path fill-rule="evenodd" clip-rule="evenodd" d="M8.79701 13.3958C8.46487 12.9574 7.84051 12.8694 7.40001 13.1998C6.95818 13.5311 6.86864 14.1579 7.20001 14.5998L8.00001 13.9998C7.20001 14.5998 7.19976 14.5994 7.20001 14.5998L7.20102 14.6011L7.20217 14.6026C7.20258 14.6032 7.203 14.6037 7.20345 14.6043C7.20392 14.6049 7.2044 14.6056 7.20491 14.6063C7.20693 14.6089 7.20933 14.6121 7.21212 14.6157C7.21769 14.6229 7.22479 14.632 7.23342 14.6429C7.25066 14.6647 7.27401 14.6936 7.30337 14.7286C7.36201 14.7984 7.44501 14.8931 7.55146 15.0042C7.76353 15.2255 8.07344 15.5169 8.47434 15.8085C9.27227 16.3888 10.4745 16.9998 12 16.9998C13.5255 16.9998 14.7277 16.3888 15.5257 15.8085C15.9266 15.5169 16.2365 15.2255 16.4486 15.0042C16.555 14.8931 16.638 14.7984 16.6966 14.7286C16.726 14.6936 16.7494 14.6647 16.7666 14.6429C16.7752 14.632 16.7823 14.6229 16.7879 14.6157C16.7907 14.6121 16.7931 14.6089 16.7951 14.6063L16.7961 14.605C16.7967 14.6041 16.7973 14.6034 16.7978 14.6026L16.799 14.6011C16.7992 14.6008 16.8 14.5998 16 13.9998L16.8 14.5998C17.1314 14.1579 17.0418 13.5311 16.6 13.1998C16.1595 12.8694 15.5351 12.9574 15.203 13.3958C15.2023 13.3966 15.2008 13.3986 15.1985 13.4015C15.1926 13.409 15.1812 13.4231 15.1647 13.4428C15.1315 13.4823 15.0778 13.5439 15.0046 13.6204C14.8573 13.7741 14.6359 13.9826 14.3493 14.191C13.7723 14.6107 12.9745 14.9998 12 14.9998C11.0255 14.9998 10.2277 14.6107 9.65068 14.191C9.36407 13.9826 9.14273 13.7741 8.99543 13.6204C8.9222 13.5439 8.86847 13.4823 8.83532 13.4428C8.81877 13.4231 8.80746 13.409 8.80151 13.4015C8.79918 13.3986 8.79768 13.3967 8.79701 13.3958ZM15.2009 13.3985C15.2008 13.3987 15.2011 13.3983 15.2009 13.3985V13.3985Z" fill="black"/>
<path fill-rule="evenodd" clip-rule="evenodd" d="M8.00003 8.99979C8.00003 8.4475 8.44774 7.99979 9.00003 7.99979H9.01003C9.56231 7.99979 10.01 8.4475 10.01 8.99979C10.01 9.55207 9.56231 9.99979 9.01003 9.99979H9.00003C8.44774 9.99979 8.00003 9.55207 8.00003 8.99979Z" fill="black"/>
<path fill-rule="evenodd" clip-rule="evenodd" d="M14 8.99979C14 8.4475 14.4477 7.99979 15 7.99979H15.01C15.5623 7.99979 16.01 8.4475 16.01 8.99979C16.01 9.55207 15.5623 9.99979 15.01 9.99979H15C14.4477 9.99979 14 9.55207 14 8.99979Z" fill="black"/>
<path fill-rule="evenodd" clip-rule="evenodd" d="M15 4.99979C15 4.4475 15.4477 3.99979 16 3.99979H22C22.5523 3.99979 23 4.4475 23 4.99979C23 5.55207 22.5523 5.99979 22 5.99979H16C15.4477 5.99979 15 5.55207 15 4.99979Z" fill="black"/>
<path fill-rule="evenodd" clip-rule="evenodd" d="M19 0.999785C19.5523 0.999785 20 1.4475 20 1.99979V7.99979C20 8.55207 19.5523 8.99979 19 8.99979C18.4477 8.99979 18 8.55207 18 7.99979V1.99979C18 1.4475 18.4477 0.999785 19 0.999785Z" fill="black"/>
</svg>
