<svg width="24" height="24" viewBox="0 0 24 24" fill="none" xmlns="http://www.w3.org/2000/svg">
<path d="M13 21V18C13 17.7348 12.8946 17.4805 12.707 17.293C12.5195 17.1054 12.2652 17 12 17C11.7348 17 11.4805 17.1054 11.293 17.293C11.1054 17.4805 11 17.7348 11 18V21C11 21.5523 10.5523 22 10 22C9.44771 22 9 21.5523 9 21V18C9 17.2043 9.3163 16.4415 9.87891 15.8789C10.4415 15.3163 11.2043 15 12 15C12.7957 15 13.5585 15.3163 14.1211 15.8789C14.6837 16.4415 15 17.2043 15 18V21C15 21.5523 14.5523 22 14 22C13.4477 22 13 21.5523 13 21Z" fill="black"/>
<path d="M17 21V5C17 4.44772 17.4477 4 18 4C18.5523 4 19 4.44772 19 5V21C19 21.5523 18.5523 22 18 22C17.4477 22 17 21.5523 17 21Z" fill="black"/>
<path d="M12.0001 0.999023C12.4655 0.999023 12.9245 1.1074 13.3409 1.31543C13.3486 1.31931 13.3567 1.32307 13.3643 1.32715L20.4708 5.11719C20.958 5.37708 21.1427 5.98341 20.8829 6.4707C20.623 6.95801 20.0167 7.14174 19.5294 6.88184L12.4395 3.10059C12.3027 3.03369 12.1524 2.99902 12.0001 2.99902C11.8474 2.99902 11.6966 3.03343 11.5596 3.10059L4.47076 6.88184C3.98346 7.14174 3.37715 6.95801 3.11725 6.4707C2.8574 5.98341 3.04208 5.37708 3.52936 5.11719L10.6358 1.32715L10.6592 1.31543C11.0756 1.1074 11.5346 0.999023 12.0001 0.999023Z" fill="black"/>
<path d="M1 18.9999V14.0009C1.00006 13.6578 1.08873 13.3205 1.25684 13.0214C1.42495 12.7223 1.66691 12.4713 1.95996 12.2929L5.47949 10.1464C5.95098 9.85885 6.56594 10.0079 6.85352 10.4794C7.14105 10.9509 6.99199 11.5658 6.52051 11.8534L3.00098 14.0009L3 18.9999C3 19.2651 3.10543 19.5194 3.29297 19.7069C3.48051 19.8945 3.73478 19.9999 4 19.9999H20C20.2652 19.9999 20.5195 19.8945 20.707 19.7069C20.8946 19.5194 21 19.2651 21 18.9999V14.0009L17.4795 11.8534C17.008 11.5658 16.8589 10.9509 17.1465 10.4794C17.4341 10.0079 18.049 9.85885 18.5205 10.1464L22.041 12.2929C22.3338 12.4711 22.5751 12.7217 22.7432 13.0204C22.9112 13.3191 22.9996 13.6562 23 13.9989V18.9999C23 19.7956 22.6837 20.5584 22.1211 21.121C21.5585 21.6836 20.7957 21.9999 20 21.9999H4C3.20435 21.9999 2.44151 21.6836 1.87891 21.121C1.3163 20.5584 1 19.7956 1 18.9999Z" fill="black"/>
<path d="M5 21V5C5 4.44772 5.44772 4 6 4C6.55228 4 7 4.44772 7 5V21C7 21.5523 6.55228 22 6 22C5.44772 22 5 21.5523 5 21Z" fill="black"/>
<path d="M13 9C13 8.44772 12.5523 8 12 8C11.4477 8 11 8.44772 11 9C11 9.55228 11.4477 10 12 10C12.5523 10 13 9.55228 13 9ZM15 9C15 10.6569 13.6569 12 12 12C10.3431 12 9 10.6569 9 9C9 7.34315 10.3431 6 12 6C13.6569 6 15 7.34315 15 9Z" fill="black"/>
</svg>
