<svg width="24" height="24" viewBox="0 0 24 24" fill="none" xmlns="http://www.w3.org/2000/svg">
<path fill-rule="evenodd" clip-rule="evenodd" d="M5 4C4.44772 4 4 4.44772 4 5V19C4 19.5523 4.44772 20 5 20H19C19.5523 20 20 19.5523 20 19V5C20 4.44772 19.5523 4 19 4H5ZM2 5C2 3.34315 3.34315 2 5 2H19C20.6569 2 22 3.34315 22 5V19C22 20.6569 20.6569 22 19 22H5C3.34315 22 2 20.6569 2 19V5Z" fill="black"/>
<path fill-rule="evenodd" clip-rule="evenodd" d="M12 7C12.5523 7 13 7.44772 13 8V16C13 16.5523 12.5523 17 12 17C11.4477 17 11 16.5523 11 16V8C11 7.44772 11.4477 7 12 7Z" fill="black"/>
<path fill-rule="evenodd" clip-rule="evenodd" d="M16.3683 9.50388C16.6423 9.98339 16.4757 10.5942 15.9962 10.8683L8.99615 14.8683C8.51664 15.1423 7.90578 14.9757 7.63177 14.4962C7.35776 14.0166 7.52436 13.4058 8.00388 13.1318L15.0039 9.13177C15.4834 8.85776 16.0942 9.02436 16.3683 9.50388Z" fill="black"/>
<path fill-rule="evenodd" clip-rule="evenodd" d="M7.63177 9.50388C7.90578 9.02436 8.51664 8.85776 8.99615 9.13177L15.9962 13.1318C16.4757 13.4058 16.6423 14.0166 16.3683 14.4962C16.0942 14.9757 15.4834 15.1423 15.0039 14.8683L8.00388 10.8683C7.52436 10.5942 7.35776 9.98339 7.63177 9.50388Z" fill="black"/>
</svg>
