<svg width="24" height="24" viewBox="0 0 24 24" fill="none" xmlns="http://www.w3.org/2000/svg">
<path fill-rule="evenodd" clip-rule="evenodd" d="M3.87868 3.87868C4.44129 3.31607 5.20435 3 6 3H18C18.7957 3 19.5587 3.31607 20.1213 3.87868C20.6839 4.44129 21 5.20435 21 6V9C21 9.55228 20.5523 10 20 10C19.4477 10 19 9.55228 19 9V6C19 5.73478 18.8946 5.48043 18.7071 5.29289C18.5196 5.10536 18.2652 5 18 5H6C5.73478 5 5.48043 5.10536 5.29289 5.29289C5.10536 5.48043 5 5.73478 5 6V9C5 9.55228 4.55228 10 4 10C3.44772 10 3 9.55228 3 9V6C3 5.20435 3.31607 4.44129 3.87868 3.87868Z" fill="black"/>
<path fill-rule="evenodd" clip-rule="evenodd" d="M1.87868 8.87868C2.44129 8.31607 3.20435 8 4 8C4.79565 8 5.55871 8.31607 6.12132 8.87868C6.68393 9.44129 7 10.2044 7 11V12H17V11C17 10.2043 17.3161 9.44129 17.8787 8.87868C18.4413 8.31607 19.2043 8 20 8C20.7957 8 21.5587 8.31607 22.1213 8.87868C22.6839 9.44129 23 10.2043 23 11V16C23 16.7956 22.6839 17.5587 22.1213 18.1213C21.5587 18.6839 20.7957 19 20 19H4C3.20435 19 2.44129 18.6839 1.87868 18.1213C1.31607 17.5587 1 16.7956 1 16V11C1 10.2044 1.31607 9.44129 1.87868 8.87868ZM4 10C3.73478 10 3.48043 10.1054 3.29289 10.2929C3.10536 10.4804 3 10.7348 3 11V16C3 16.2652 3.10536 16.5196 3.29289 16.7071C3.48043 16.8946 3.73478 17 4 17H20C20.2652 17 20.5196 16.8946 20.7071 16.7071C20.8946 16.5196 21 16.2652 21 16V11C21 10.7348 20.8946 10.4804 20.7071 10.2929C20.5196 10.1054 20.2652 10 20 10C19.7348 10 19.4804 10.1054 19.2929 10.2929C19.1054 10.4804 19 10.7348 19 11V12.5C19 12.8978 18.842 13.2794 18.5607 13.5607C18.2794 13.842 17.8978 14 17.5 14H6.5C6.10218 14 5.72065 13.842 5.43934 13.5607C5.15804 13.2794 5 12.8978 5 12.5V11C5 10.7348 4.89464 10.4804 4.70711 10.2929C4.51957 10.1054 4.26522 10 4 10Z" fill="black"/>
<path fill-rule="evenodd" clip-rule="evenodd" d="M4 17C4.55228 17 5 17.4477 5 18V20C5 20.5523 4.55228 21 4 21C3.44772 21 3 20.5523 3 20V18C3 17.4477 3.44772 17 4 17Z" fill="black"/>
<path fill-rule="evenodd" clip-rule="evenodd" d="M20 17C20.5523 17 21 17.4477 21 18V20C21 20.5523 20.5523 21 20 21C19.4477 21 19 20.5523 19 20V18C19 17.4477 19.4477 17 20 17Z" fill="black"/>
<path fill-rule="evenodd" clip-rule="evenodd" d="M12 3C12.5523 3 13 3.44772 13 4V13C13 13.5523 12.5523 14 12 14C11.4477 14 11 13.5523 11 13V4C11 3.44772 11.4477 3 12 3Z" fill="black"/>
</svg>
