<svg width="24" height="24" viewBox="0 0 24 24" fill="none" xmlns="http://www.w3.org/2000/svg">
<path d="M9 21.0002V20.0002C9 19.448 9.44771 19.0002 10 19.0002C10.5523 19.0002 11 19.448 11 20.0002V21.0002C11 21.5525 10.5523 22.0002 10 22.0002C9.44771 22.0002 9 21.5525 9 21.0002Z" fill="black"/>
<path d="M9 4.00024V3.00024C9 2.44796 9.44771 2.00024 10 2.00024C10.5523 2.00024 11 2.44796 11 3.00024V4.00024C11 4.55253 10.5523 5.00024 10 5.00024C9.44771 5.00024 9 4.55253 9 4.00024Z" fill="black"/>
<path d="M6 12.0002C6 10.9394 6.42173 9.92226 7.17188 9.17212C7.92202 8.42197 8.93913 8.00024 10 8.00024C10.5523 8.00024 11 8.44796 11 9.00024C11 9.55253 10.5523 10.0002 10 10.0002C9.46957 10.0002 8.96101 10.2111 8.58594 10.5862C8.21087 10.9613 8 11.4698 8 12.0002C8 12.5307 8.21087 13.0392 8.58594 13.4143C8.96101 13.7894 9.46957 14.0002 10 14.0002C10.5523 14.0002 11 14.448 11 15.0002C11 15.5525 10.5523 16.0002 10 16.0002C8.93913 16.0002 7.92202 15.5785 7.17188 14.8284C6.42173 14.0782 6 13.0611 6 12.0002Z" fill="black"/>
<path d="M15.4288 16.517L18.1788 17.017C18.7221 17.1158 19.0822 17.6357 18.9835 18.1791C18.8847 18.7224 18.3647 19.0825 17.8214 18.9838L15.8087 18.6175L14.8946 20.4476C14.6476 20.9416 14.0468 21.1419 13.5528 20.8949C13.0588 20.6479 12.8585 20.0471 13.1055 19.5531L14.3555 17.0531L14.4405 16.9125C14.6633 16.6054 15.0462 16.4474 15.4288 16.517Z" fill="black"/>
<path d="M13.5528 3.10578C14.0468 2.85879 14.6476 3.05907 14.8946 3.55305L15.8087 5.38215L17.8214 5.01691C18.3647 4.91817 18.8847 5.27825 18.9835 5.8216C19.0822 6.36495 18.7221 6.88492 18.1788 6.98371L15.4288 7.48371C14.9915 7.56317 14.5543 7.34508 14.3555 6.94758L13.1055 4.44758C12.8585 3.9536 13.0588 3.35277 13.5528 3.10578Z" fill="black"/>
<path d="M22.0001 11.0002C22.5524 11.0002 23.0001 11.448 23.0001 12.0002C23.0001 12.5525 22.5524 13.0002 22.0001 13.0002H16.1183L15.1183 15.0002L17.8946 20.553C18.1416 21.047 17.9413 21.6478 17.4474 21.8948C16.9534 22.1418 16.3526 21.9415 16.1056 21.4475L13.1056 15.4475C12.9648 15.166 12.9648 14.8345 13.1056 14.553L14.6056 11.553L14.6769 11.4319C14.8618 11.1639 15.1686 11.0002 15.5001 11.0002H22.0001Z" fill="black"/>
<path d="M16.1056 2.55305C16.3526 2.05907 16.9534 1.85879 17.4474 2.10578C17.9413 2.35277 18.1416 2.9536 17.8946 3.44758L15.1183 9.00031L16.3946 11.553C16.6416 12.047 16.4413 12.6479 15.9474 12.8948C15.4534 13.1418 14.8526 12.9416 14.6056 12.4476L13.1056 9.44758C12.9648 9.16605 12.9648 8.83457 13.1056 8.55305L16.1056 2.55305Z" fill="black"/>
<path d="M3 11.0002C3.55228 11.0002 4 11.448 4 12.0002C4 12.5525 3.55228 13.0002 3 13.0002H2C1.44772 13.0002 1 12.5525 1 12.0002C1 11.448 1.44772 11.0002 2 11.0002H3Z" fill="black"/>
<path d="M19.2001 9.4006C19.5315 8.95882 20.1577 8.86917 20.5995 9.2004C21.0413 9.53173 21.131 10.158 20.7997 10.5998L19.749 12.0002L20.7997 13.4006C21.131 13.8424 21.0413 14.4687 20.5995 14.8C20.1577 15.1312 19.5315 15.0416 19.2001 14.5998L17.7001 12.5998C17.4336 12.2443 17.4336 11.7561 17.7001 11.4006L19.2001 9.4006Z" fill="black"/>
<path d="M3.63318 16.9532C4.02371 16.5628 4.65675 16.5628 5.04724 16.9532C5.43763 17.3437 5.43763 17.9768 5.04724 18.3673L4.34704 19.0675C3.95654 19.4579 3.32348 19.4579 2.93298 19.0675C2.54249 18.677 2.54255 18.044 2.93298 17.6534L3.63318 16.9532Z" fill="black"/>
<path d="M2.93303 4.93327C3.32355 4.54275 3.95657 4.54275 4.34709 4.93327L5.04729 5.63347C5.43762 6.02401 5.43775 6.65707 5.04729 7.04753C4.65683 7.43799 4.02377 7.43786 3.63323 7.04753L2.93303 6.34734C2.54251 5.95681 2.54251 5.3238 2.93303 4.93327Z" fill="black"/>
</svg>
