<svg width="24" height="24" viewBox="0 0 24 24" fill="none" xmlns="http://www.w3.org/2000/svg">
<path d="M14.999 5.00098C14.999 4.47563 15.1026 3.95507 15.3037 3.46973C15.5048 2.98442 15.7994 2.54329 16.1709 2.17188L16.6104 1.73242C17.0791 1.26385 17.7152 1.00012 18.3779 1C19.0408 1 19.6767 1.26374 20.1455 1.73242L22.2656 3.85254C22.4979 4.08471 22.6838 4.36064 22.8096 4.66406C22.9353 4.96742 23 5.29273 23 5.62109C23 5.94943 22.9352 6.27479 22.8096 6.57812C22.6838 6.88154 22.4989 7.15748 22.2666 7.38965L21.7871 7.86914C21.0335 8.60154 20.0216 9.00844 18.9707 9.00098C17.9198 8.99349 16.9141 8.57219 16.1709 7.8291C15.7994 7.45768 15.5048 7.01656 15.3037 6.53125C15.1027 6.04606 14.9991 5.52614 14.999 5.00098ZM16.999 5.00098C16.9991 5.26355 17.0509 5.52402 17.1514 5.7666C17.2519 6.0091 17.3993 6.22943 17.585 6.41504C17.9564 6.78647 18.4591 6.99711 18.9844 7.00098C19.5098 7.00472 20.0157 6.80078 20.3926 6.43457L20.8525 5.97461C20.899 5.92818 20.9368 5.87318 20.9619 5.8125C20.987 5.75188 21 5.68669 21 5.62109C21 5.55547 20.987 5.49032 20.9619 5.42969C20.9368 5.369 20.899 5.31401 20.8525 5.26758L18.7314 3.14648C18.6377 3.05286 18.5104 3 18.3779 3C18.2456 3.00012 18.1181 3.05201 18.0244 3.14551L18.0254 3.14648L17.585 3.58594C17.3992 3.77166 17.2519 3.99268 17.1514 4.23535C17.0509 4.478 16.999 4.73833 16.999 5.00098Z" fill="black"/>
<path d="M1 17.4143C1.00011 16.884 1.21096 16.3752 1.58594 16.0002L4.94043 12.6448C5.35391 12.2315 5.91541 11.9993 6.5 11.9993C7.08459 11.9993 7.64512 12.2315 8.05859 12.6448L11.3555 15.9407L11.502 16.1028C11.8233 16.4951 12.001 16.9887 12.001 17.5002C12.0009 18.0848 11.7687 18.6454 11.3555 19.0588L8 22.4143C7.62503 22.7893 7.11624 23.0001 6.58594 23.0002H3C2.46959 23.0002 1.96101 22.7893 1.58594 22.4143C1.21089 22.0393 1.00003 21.5306 1 21.0002V17.4143ZM3 21.0002H6.58594L9.94043 17.6448C9.97884 17.6064 10.0009 17.5546 10.001 17.5002C10.001 17.4459 9.97887 17.3932 9.94043 17.3547L6.64453 14.0588C6.60613 14.0207 6.55416 13.9993 6.5 13.9993C6.44584 13.9993 6.39387 14.0207 6.35547 14.0588L3 17.4143V21.0002Z" fill="black"/>
<path d="M16.1718 6.41516C16.5623 6.02469 17.1945 6.02458 17.585 6.41504C17.9755 6.80559 17.9764 7.43872 17.5859 7.82922L9.70695 15.7072C9.31641 16.0977 8.68339 16.0977 8.29289 15.7072C7.90239 15.3166 7.90235 14.6836 8.29289 14.2931L16.1718 6.41516Z" fill="black"/>
</svg>
