<svg width="24" height="24" viewBox="0 0 24 24" fill="none" xmlns="http://www.w3.org/2000/svg">
<path fill-rule="evenodd" clip-rule="evenodd" d="M12.3176 2.9485C12.7142 2.81573 13 2.44118 13 1.9999C12.9999 1.44762 12.5521 0.999945 11.9999 1C11.422 1.00006 10.8849 1.33364 10.6286 1.8516L8.31919 6.53152C8.16057 6.85298 7.83024 7.09292 7.47549 7.14435L2.31118 7.89924C1.03838 8.08141 0.579544 9.65619 1.46351 10.5126C1.46409 10.5132 1.46467 10.5137 1.46525 10.5143L5.19841 14.1485L5.19865 14.1488C5.45586 14.399 5.58229 14.7878 5.52144 15.1414L4.64101 20.2772C4.64088 20.278 4.64074 20.2787 4.64061 20.2795C4.42032 21.5454 5.77432 22.469 6.86224 21.8946C6.86278 21.8944 6.86331 21.8941 6.86384 21.8938L11.4784 19.4671L11.4808 19.4658C11.6401 19.3815 11.8176 19.3376 11.9978 19.338C12.5501 19.3392 12.9988 18.8924 13 18.3401C13.0011 17.7879 12.5544 17.3392 12.0021 17.338C11.4947 17.3369 10.9947 17.4604 10.5461 17.6976C10.5458 17.6978 10.5455 17.698 10.5451 17.6982L6.77216 19.6823L7.49249 15.4806C7.66512 14.4771 7.32307 13.4252 6.59328 12.7152L3.53822 9.74113L7.76244 9.12365C7.76283 9.1236 7.76322 9.12354 7.7636 9.12348C8.76961 8.97724 9.66287 8.32819 10.1127 7.41653L10.1127 7.41648L12.3176 2.9485Z" fill="black"/>
</svg>
