<svg width="24" height="24" viewBox="0 0 24 24" fill="none" xmlns="http://www.w3.org/2000/svg">
<path d="M11 15V2C11 1.44772 11.4477 1 12 1C12.5523 1 13 1.44772 13 2V15C13 15.5523 12.5523 16 12 16C11.4477 16 11 15.5523 11 15Z" fill="black"/>
<path d="M11.3692 1.22462C11.762 0.904269 12.341 0.926863 12.7071 1.29298L16.7071 5.29298C17.0976 5.6835 17.0976 6.31652 16.7071 6.70704C16.3166 7.09757 15.6835 7.09757 15.293 6.70704L12 3.41407L8.70708 6.70704C8.31655 7.09757 7.68354 7.09757 7.29302 6.70704C6.90249 6.31652 6.90249 5.6835 7.29302 5.29298L11.293 1.29298L11.3692 1.22462Z" fill="black"/>
<path d="M3 20V12C3 11.4477 3.44772 11 4 11C4.55228 11 5 11.4477 5 12V20C5 20.2652 5.10543 20.5195 5.29297 20.707C5.48051 20.8946 5.73478 21 6 21H18C18.2652 21 18.5195 20.8946 18.707 20.707C18.8946 20.5195 19 20.2652 19 20V12C19 11.4477 19.4477 11 20 11C20.5523 11 21 11.4477 21 12V20C21 20.7957 20.6837 21.5585 20.1211 22.1211C19.5585 22.6837 18.7957 23 18 23H6C5.20435 23 4.44151 22.6837 3.87891 22.1211C3.3163 21.5585 3 20.7957 3 20Z" fill="black"/>
</svg>
