<svg width="24" height="24" viewBox="0 0 24 24" fill="none" xmlns="http://www.w3.org/2000/svg">
<path d="M3 13V4.00001C3 3.20436 3.3163 2.44152 3.87891 1.87891C4.44152 1.3163 5.20435 1.00001 6 1.00001H14C14.448 0.999229 14.8916 1.08748 15.3057 1.25879C15.7199 1.43024 16.0965 1.68159 16.4131 1.99903L20 5.58594L20.1162 5.70704C20.3799 5.99709 20.591 6.33139 20.7412 6.69434C20.9125 7.10836 21.0008 7.55196 21 8.00001V13C21 13.5523 20.5523 14 20 14C19.4477 14 19 13.5523 19 13V7.99708C19.0004 7.81244 18.9641 7.6296 18.8936 7.45899C18.8229 7.28818 18.7188 7.13243 18.5879 7.00196L14.998 3.41211C14.8676 3.28117 14.7118 3.17714 14.541 3.10645C14.3704 3.03587 14.1876 2.99962 14.0029 3.00001H6C5.73479 3.00001 5.4805 3.10544 5.29297 3.29297C5.10543 3.48051 5 3.73479 5 4.00001V13C5 13.5523 4.55228 14 4 14C3.44772 14 3 13.5523 3 13Z" fill="black"/>
<path d="M13 7.00001V2.00001C13 1.44773 13.4477 1.00001 14 1.00001C14.5523 1.00001 15 1.44773 15 2.00001V7.00001H20C20.5523 7.00001 21 7.44772 21 8.00001C21 8.55229 20.5523 9.00001 20 9.00001H15C14.4696 9.00001 13.961 8.78915 13.5859 8.41407C13.2109 8.039 13 7.53045 13 7.00001Z" fill="black"/>
<path d="M9 22V17C9 16.4477 9.44771 16 10 16C10.5523 16 11 16.4477 11 17V22C11 22.5523 10.5523 23 10 23C9.44771 23 9 22.5523 9 22Z" fill="black"/>
<path d="M13 19V17C13 16.4477 13.4477 16 14 16C14.5523 16 15 16.4477 15 17V19C15 19.5523 14.5523 20 14 20C13.4477 20 13 19.5523 13 19Z" fill="black"/>
<path d="M17 20V17C17 16.4477 17.4477 16 18 16C18.5523 16 19 16.4477 19 17V20C19 20.5523 18.5523 21 18 21C17.4477 21 17 20.5523 17 20Z" fill="black"/>
<path d="M22 12C22.5523 12 23 12.4477 23 13C23 13.5523 22.5523 14 22 14H2C1.44772 14 1 13.5523 1 13C1 12.4477 1.44772 12 2 12H22Z" fill="black"/>
<path d="M5 20V17C5 16.4477 5.44772 16 6 16C6.55228 16 7 16.4477 7 17V20C7 20.5523 6.55228 21 6 21C5.44772 21 5 20.5523 5 20Z" fill="black"/>
</svg>
