<svg width="24" height="24" viewBox="0 0 24 24" fill="none" xmlns="http://www.w3.org/2000/svg">
<path d="M11 13.9995V10.189C11 9.63668 11.4477 9.18896 12 9.18896C12.5523 9.18896 13 9.63668 13 10.189V13.9995C13 14.5518 12.5523 14.9995 12 14.9995C11.4477 14.9995 11 14.5518 11 13.9995Z" fill="black"/>
<path d="M11 5V2C11 1.44772 11.4477 1 12 1C12.5523 1 13 1.44772 13 2V5C13 5.55228 12.5523 6 12 6C11.4477 6 11 5.55228 11 5Z" fill="black"/>
<path d="M18 13V7C18 6.73478 17.8946 6.4805 17.707 6.29297C17.5195 6.10543 17.2652 6 17 6H7C6.73478 6 6.4805 6.10543 6.29297 6.29297C6.10543 6.4805 6 6.73478 6 7V13C6 13.5523 5.55228 14 5 14C4.44772 14 4 13.5523 4 13V7C4 6.20435 4.3163 5.44152 4.87891 4.87891C5.44152 4.3163 6.20435 4 7 4H17C17.7957 4 18.5585 4.3163 19.1211 4.87891C19.6837 5.44151 20 6.20435 20 7V13C20 13.5523 19.5523 14 19 14C18.4477 14 18 13.5523 18 13Z" fill="black"/>
<path d="M12 9.18896C12.4195 9.18902 12.8349 9.27721 13.2182 9.44751L21.4057 13.0862L21.5346 13.1545C21.8194 13.3345 21.9979 13.649 22.0005 13.9924C22.0176 16.2845 21.4091 18.5381 20.2407 20.51C19.9592 20.985 19.3456 21.1418 18.8706 20.8606C18.3955 20.5791 18.2385 19.9656 18.52 19.4905C19.3949 18.0139 19.8943 16.3495 19.9838 14.6418L12.4057 11.2747C12.2781 11.218 12.1401 11.1888 12.0005 11.1887C11.8607 11.1887 11.722 11.2179 11.5942 11.2747L4.01022 14.6438C4.1122 17.0185 5.00852 19.2976 6.56783 21.1077C6.92802 21.5261 6.88069 22.1574 6.46236 22.5178C6.04394 22.878 5.41259 22.8307 5.05221 22.4124C3.03605 20.0719 1.95017 17.0723 2.00045 13.9836C2.00681 13.5944 2.23847 13.2443 2.5942 13.0862L10.7817 9.44751C11.1652 9.27715 11.5804 9.18896 12 9.18896Z" fill="black"/>
<path d="M19.5 19C20.2888 19 20.9145 19.1538 21.4482 19.4121C21.9617 19.6606 22.35 19.9893 22.6406 20.2314C23.0648 20.585 23.1221 21.2164 22.7686 21.6406C22.415 22.0648 21.7836 22.1221 21.3594 21.7686C21.0501 21.5109 20.8385 21.3394 20.5771 21.2129C20.3359 21.0962 20.0112 21 19.5 21C19.0201 21 18.6997 21.0932 18.4482 21.2139C18.1755 21.3448 17.9475 21.5232 17.625 21.7812C17.3225 22.0232 16.9255 22.3448 16.417 22.5889C15.8872 22.8432 15.2701 23 14.5 23C13.7112 23 13.0855 22.8462 12.5518 22.5879C12.0383 22.3394 11.65 22.0107 11.3594 21.7686C11.0501 21.5109 10.8385 21.3394 10.5771 21.2129C10.3359 21.0962 10.0112 21 9.5 21C9.02011 21 8.69966 21.0932 8.44824 21.2139C8.17553 21.3448 7.9475 21.5232 7.625 21.7812C7.32252 22.0232 6.92551 22.3448 6.41699 22.5889C5.88717 22.8432 5.2701 23 4.5 23C3.71121 23 3.08551 22.8462 2.55175 22.5879C2.03829 22.3394 1.64998 22.0107 1.35937 21.7686C0.935182 21.415 0.877905 20.7836 1.23144 20.3594C1.58502 19.9352 2.21638 19.8779 2.64062 20.2314C2.94985 20.4891 3.16149 20.6606 3.42285 20.7871C3.66409 20.9038 3.98879 21 4.5 21C4.97988 21 5.30033 20.9068 5.55175 20.7861C5.82446 20.6552 6.05249 20.4768 6.375 20.2188C6.67748 19.9768 7.07448 19.6552 7.583 19.4111C8.11283 19.1568 8.72989 19 9.5 19C10.2888 19 10.9145 19.1538 11.4482 19.4121C11.9617 19.6606 12.35 19.9893 12.6406 20.2314C12.9499 20.4891 13.1615 20.6606 13.4228 20.7871C13.6641 20.9038 13.9888 21 14.5 21C14.9799 21 15.3003 20.9068 15.5518 20.7861C15.8245 20.6552 16.0525 20.4768 16.375 20.2188C16.6775 19.9768 17.0745 19.6552 17.583 19.4111C18.1128 19.1568 18.7299 19 19.5 19Z" fill="black"/>
</svg>
