<svg width="24" height="24" viewBox="0 0 24 24" fill="none" xmlns="http://www.w3.org/2000/svg">
<path fill-rule="evenodd" clip-rule="evenodd" d="M5 4C4.73478 4 4.48043 4.10536 4.29289 4.29289C4.10536 4.48043 4 4.73478 4 5V19C4 19.2652 4.10536 19.5196 4.29289 19.7071C4.48043 19.8946 4.73478 20 5 20H19C19.2652 20 19.5196 19.8946 19.7071 19.7071C19.8946 19.5196 20 19.2652 20 19V8.80835C19.9947 8.54673 19.8871 8.2975 19.7001 8.11424C19.6977 8.11188 19.6953 8.1095 19.6929 8.10711L15.8929 4.30711C15.8905 4.30472 15.8881 4.30231 15.8858 4.2999C15.7025 4.11289 15.4533 4.00527 15.1917 4H5ZM2.87868 2.87868C3.44129 2.31607 4.20435 2 5 2H15.2C15.2047 2 15.2095 2.00003 15.2142 2.0001C16.0037 2.01135 16.7568 2.33336 17.3104 2.89617L21.1039 6.68966C21.6667 7.24319 21.9887 7.99631 21.9999 8.78576C21.9999 8.78915 22 8.79255 22 8.79594L22 8.8V19C22 19.7957 21.6839 20.5587 21.1213 21.1213C20.5587 21.6839 19.7957 22 19 22H5C4.20435 22 3.44129 21.6839 2.87868 21.1213C2.31607 20.5587 2 19.7956 2 19V5C2 4.20435 2.31607 3.44129 2.87868 2.87868Z" fill="black"/>
<path fill-rule="evenodd" clip-rule="evenodd" d="M6.58579 12.5858C6.96086 12.2107 7.46957 12 8 12H16C16.5304 12 17.0391 12.2107 17.4142 12.5858C17.7893 12.9609 18 13.4696 18 14V21C18 21.5523 17.5523 22 17 22C16.4477 22 16 21.5523 16 21V14H8V21C8 21.5523 7.55228 22 7 22C6.44772 22 6 21.5523 6 21V14C6 13.4696 6.21071 12.9609 6.58579 12.5858Z" fill="black"/>
<path fill-rule="evenodd" clip-rule="evenodd" d="M7 2C7.55228 2 8 2.44772 8 3V7H15C15.5523 7 16 7.44771 16 8C16 8.55228 15.5523 9 15 9H8C7.46957 9 6.96086 8.78929 6.58579 8.41421C6.21071 8.03914 6 7.53043 6 7V3C6 2.44772 6.44772 2 7 2Z" fill="black"/>
</svg>
