<svg width="24" height="24" viewBox="0 0 24 24" fill="none" xmlns="http://www.w3.org/2000/svg">
<path d="M4.29289 12.2929C4.68342 11.9024 5.31643 11.9024 5.70696 12.2929L11.707 18.2929C12.0975 18.6834 12.0975 19.3164 11.707 19.707C11.3164 20.0975 10.6834 20.0975 10.2929 19.707L4.29289 13.707C3.90237 13.3164 3.90237 12.6834 4.29289 12.2929Z" fill="black"/>
<path d="M2.29289 18.2929C2.68342 17.9024 3.31643 17.9024 3.70696 18.2929L5.70696 20.2929C6.09748 20.6834 6.09748 21.3164 5.70696 21.707C5.31643 22.0975 4.68342 22.0975 4.29289 21.707L2.29289 19.707C1.90237 19.3164 1.90237 18.6834 2.29289 18.2929Z" fill="black"/>
<path d="M7.29289 15.2929C7.68342 14.9024 8.31643 14.9024 8.70696 15.2929C9.09748 15.6834 9.09748 16.3164 8.70696 16.707L4.70696 20.707C4.31643 21.0975 3.68342 21.0975 3.29289 20.707C2.90237 20.3164 2.90237 19.6834 3.29289 19.2929L7.29289 15.2929Z" fill="black"/>
<path d="M20.9999 2C21.5522 2 21.9999 2.44772 21.9999 3V6C21.9999 6.26522 21.8945 6.5195 21.707 6.70703L10.207 18.207C9.81643 18.5976 9.18342 18.5976 8.79289 18.207C8.40237 17.8165 8.40237 17.1835 8.79289 16.793L19.9999 5.58594V4H18.414L7.20696 15.207C6.81643 15.5976 6.18342 15.5976 5.79289 15.207C5.40237 14.8165 5.40237 14.1835 5.79289 13.793L17.2929 2.29297L17.3661 2.22656C17.5441 2.08073 17.7678 2 17.9999 2H20.9999Z" fill="black"/>
</svg>
