<svg width="24" height="24" viewBox="0 0 24 24" fill="none" xmlns="http://www.w3.org/2000/svg">
<path fill-rule="evenodd" clip-rule="evenodd" d="M5.7114 3.22402C5.94837 3.07757 6.22143 3 6.5 3H17C17.5304 3 18.0391 3.21071 18.4142 3.58579C18.7893 3.96086 19 4.46957 19 5V7C19 7.55228 18.5523 8 18 8C17.4477 8 17 7.55228 17 7L17 5L7.5 5L11.4 10.2C11.7895 10.7193 12 11.3509 12 12C12 12.6491 11.7895 13.2807 11.4 13.8L7.5 19H17V17C17 16.4477 17.4477 16 18 16C18.5523 16 19 16.4477 19 17V19C19 19.5304 18.7893 20.0391 18.4142 20.4142C18.0391 20.7893 17.5304 21 17 21H6.5C6.22143 21 5.94837 20.9224 5.7114 20.776C5.47444 20.6295 5.28294 20.42 5.15836 20.1708C5.03378 19.9217 4.98104 19.6427 5.00606 19.3653C5.03108 19.0878 5.13286 18.8229 5.3 18.6L9.8 12.6C9.92982 12.4269 10 12.2164 10 12C10 11.7836 9.92982 11.5731 9.8 11.4L5.3 5.4C5.13286 5.17714 5.03108 4.91215 5.00606 4.63471C4.98104 4.35727 5.03378 4.07834 5.15836 3.82918C5.28294 3.58002 5.47444 3.37048 5.7114 3.22402Z" fill="black"/>
</svg>
