<svg width="24" height="24" viewBox="0 0 24 24" fill="none" xmlns="http://www.w3.org/2000/svg">
<path d="M9.29289 8.29289C9.68342 7.90237 10.3164 7.90237 10.707 8.29289C11.0975 8.68342 11.0975 9.31643 10.707 9.70696L8.41399 11.9999L10.707 14.2929C11.0975 14.6834 11.0975 15.3164 10.707 15.707C10.3164 16.0975 9.68342 16.0975 9.29289 15.707L6.29289 12.707C5.90237 12.3164 5.90237 11.6834 6.29289 11.2929L9.29289 8.29289Z" fill="black"/>
<path d="M13.2929 8.29289C13.6834 7.90237 14.3164 7.90237 14.707 8.29289L17.707 11.2929C18.0975 11.6834 18.0975 12.3164 17.707 12.707L14.707 15.707C14.3164 16.0975 13.6834 16.0975 13.2929 15.707C12.9024 15.3164 12.9024 14.6834 13.2929 14.2929L15.5859 11.9999L13.2929 9.70696C12.9024 9.31643 12.9024 8.68342 13.2929 8.29289Z" fill="black"/>
<path d="M20 5C20 4.44772 19.5523 4 19 4H5C4.44772 4 4 4.44772 4 5V19C4 19.5523 4.44772 20 5 20H19C19.5523 20 20 19.5523 20 19V5ZM22 19C22 20.6569 20.6569 22 19 22H5C3.34315 22 2 20.6569 2 19V5C2 3.34315 3.34315 2 5 2H19C20.6569 2 22 3.34315 22 5V19Z" fill="black"/>
</svg>
