<svg width="24" height="24" viewBox="0 0 24 24" fill="none" xmlns="http://www.w3.org/2000/svg">
<path fill-rule="evenodd" clip-rule="evenodd" d="M1.29289 1.2928C1.68342 0.902271 2.31658 0.902271 2.70711 1.2928L22.7071 21.2928C23.0976 21.6833 23.0976 22.3165 22.7071 22.707C22.3166 23.0975 21.6834 23.0975 21.2929 22.707L1.29289 2.70701C0.902369 2.31648 0.902369 1.68332 1.29289 1.2928Z" fill="black"/>
<path fill-rule="evenodd" clip-rule="evenodd" d="M3.58579 4.58569C3.96086 4.21062 4.46957 3.9999 5 3.9999C5.55228 3.9999 6 4.44762 6 4.9999C6 5.55219 5.55229 5.9999 5 5.9999L5 12.9999C5 15.2358 5.77079 16.8609 6.98675 18.1063C8.22994 19.3795 9.98374 20.2997 11.9964 20.9947C12.004 20.9973 12.0115 21 12.019 21.0028C14.2885 20.2099 16.2151 19.1395 17.4653 17.6076C17.8144 17.1798 18.4444 17.116 18.8723 17.4652C19.3001 17.8143 19.3639 18.4443 19.0147 18.8722C17.4264 20.8184 15.0962 22.0473 12.6695 22.8941C12.6666 22.8951 12.6638 22.896 12.6609 22.897C12.2297 23.0431 11.7616 23.0377 11.3341 22.8818C9.18014 22.1371 7.10278 21.0879 5.55575 19.5035C3.97921 17.8889 3 15.764 3 12.9999V5.9999C3 5.46947 3.21071 4.96076 3.58579 4.58569Z" fill="black"/>
<path fill-rule="evenodd" clip-rule="evenodd" d="M11.8912 3.03895C11.2457 3.59843 10.5476 4.09419 9.80672 4.51932C9.32769 4.79418 8.71654 4.62867 8.44168 4.14964C8.16681 3.67062 8.33232 3.05947 8.81135 2.7846C9.44179 2.42286 10.0357 2.00088 10.5847 1.52458C10.5866 1.52294 10.5886 1.5213 10.5905 1.51966C10.9834 1.18396 11.4832 0.999512 12 0.999512C12.5168 0.999512 13.0167 1.18396 13.4096 1.51966C13.4125 1.52213 13.4154 1.52462 13.4182 1.52712C15.0578 2.96053 17.3229 3.99996 19 3.99996C19.5305 3.99996 20.0392 4.21068 20.4143 4.58575C20.7893 4.96082 21 5.46953 21 5.99996V12.9984C21 12.9981 21 12.9987 21 12.9984C21.0007 13.4639 20.9713 13.9298 20.9119 14.3916C20.8414 14.9394 20.3402 15.3263 19.7924 15.2558C19.2446 15.1853 18.8577 14.6841 18.9282 14.1363C18.9766 13.76 19.0006 13.3809 19 13.0015V5.99996C16.6798 5.99996 13.9684 4.66242 12.1081 3.0383C12.0777 3.01324 12.0395 2.99951 12 2.99951C11.9602 2.99951 11.9217 3.01348 11.8912 3.03895Z" fill="black"/>
</svg>
