<svg width="24" height="24" viewBox="0 0 24 24" fill="none" xmlns="http://www.w3.org/2000/svg">
<path fill-rule="evenodd" clip-rule="evenodd" d="M12.0001 3.59189L10.1126 7.41682C9.88852 7.87037 9.5576 8.26267 9.1483 8.55997C8.73901 8.85726 8.2636 9.05065 7.76299 9.12348L3.53829 9.74103L6.59358 12.7154L5.89781 13.4301L6.5937 12.7155C6.95652 13.0688 7.22794 13.5051 7.38455 13.9867C7.54115 14.4683 7.57825 14.9807 7.49265 15.4799C7.49265 15.4799 7.49264 15.4799 7.49263 15.48L6.77222 19.6822L10.5481 17.6965C10.9958 17.4615 11.4939 17.3386 11.9995 17.3386C12.5052 17.3386 13.0032 17.4615 13.4509 17.6965L17.2288 19.6828L16.5074 15.479L16.5073 15.4783C16.4221 14.9795 16.4594 14.4674 16.6159 13.9861C16.7725 13.5049 17.0437 13.0689 17.4061 12.7157L20.4603 9.74166L16.2348 9.12329C15.7348 9.04991 15.2602 8.8563 14.8515 8.55908C14.4428 8.26187 14.1124 7.86993 13.8885 7.4169L12.0001 3.59189ZM5.19848 14.1484C5.19844 14.1484 5.1984 14.1484 5.19836 14.1483L1.46531 10.5142C1.46468 10.5136 1.46405 10.513 1.46342 10.5123C1.25828 10.3135 1.11289 10.0612 1.04373 9.78403C0.97436 9.50597 0.984479 9.21402 1.07294 8.94143C1.16139 8.66883 1.32463 8.42657 1.54405 8.24222C1.76274 8.05849 2.02848 7.93966 2.31117 7.89915L7.47506 7.14431C7.65497 7.11814 7.82583 7.04864 7.97292 6.94179C8.12002 6.83495 8.23895 6.69396 8.31947 6.53096L10.6288 1.8513C10.7553 1.5957 10.9507 1.38055 11.193 1.23013C11.4353 1.07971 11.7148 1 12 1C12.2852 1 12.5647 1.07971 12.807 1.23013C13.0493 1.38055 13.2447 1.5957 13.3713 1.8513L15.6816 6.53089C15.762 6.6938 15.8809 6.83474 16.0278 6.94161C16.1748 7.04849 16.3455 7.11811 16.5253 7.14449L21.6894 7.90023C21.6898 7.90028 21.6902 7.90034 21.6906 7.9004C21.6907 7.90041 21.6908 7.90042 21.6908 7.90043C21.9729 7.94156 22.2378 8.06067 22.4558 8.24433C22.6742 8.4283 22.8367 8.6697 22.925 8.94122C23.0133 9.21274 23.0239 9.50356 22.9555 9.78079C22.8871 10.058 22.7426 10.3106 22.5381 10.5099L18.8019 14.1481C18.6716 14.2751 18.5741 14.4319 18.5178 14.6049C18.4615 14.7779 18.4481 14.9619 18.4787 15.1412C18.4787 15.1413 18.4787 15.1414 18.4787 15.1415L19.3598 20.276C19.36 20.277 19.3601 20.2779 19.3603 20.2789C19.4095 20.5604 19.3788 20.8501 19.2717 21.1151C19.1643 21.3811 18.9843 21.6114 18.7522 21.78C18.5202 21.9485 18.2454 22.0485 17.9593 22.0684C17.6743 22.0882 17.3894 22.0278 17.137 21.8941C17.136 21.8936 17.1351 21.8931 17.1341 21.8926L12.5211 19.4673C12.3602 19.3828 12.1812 19.3386 11.9995 19.3386C11.8178 19.3386 11.6388 19.3828 11.4779 19.4673C11.4779 19.4673 11.4779 19.4673 11.4779 19.4673L6.8639 21.8937C6.86337 21.894 6.86283 21.8943 6.8623 21.8945C6.60961 22.0279 6.32462 22.0879 6.03958 22.0676C5.75395 22.0473 5.47974 21.9473 5.24815 21.7788C5.01657 21.6104 4.83689 21.3804 4.72957 21.1149C4.62257 20.8502 4.59177 20.5608 4.64064 20.2796C4.64079 20.2787 4.64093 20.2779 4.64107 20.2771L5.52142 15.1418C5.5522 14.9624 5.53886 14.7783 5.48258 14.6052C5.42632 14.4321 5.32881 14.2754 5.19848 14.1484Z" fill="black"/>
</svg>
