<svg width="24" height="24" viewBox="0 0 24 24" fill="none" xmlns="http://www.w3.org/2000/svg">
<path d="M9 17V2C9 1.44772 9.44772 1 10 1C10.5523 1 11 1.44772 11 2V17C11 17.5523 10.5523 18 10 18C9.44772 18 9 17.5523 9 17Z" fill="black"/>
<path d="M4 18C4 18.7957 4.3163 19.5585 4.87891 20.1211C5.44152 20.6837 6.20435 21 7 21H17C17.7956 21 18.5585 20.6837 19.1211 20.1211C19.6837 19.5585 20 18.7956 20 18H4ZM22 18C22 19.3261 21.4728 20.5975 20.5352 21.5352C19.5975 22.4728 18.3261 23 17 23H7C5.67392 23 4.40253 22.4728 3.46484 21.5352C2.52716 20.5975 2 19.3261 2 18C2 17.4696 2.21086 16.961 2.58594 16.5859C2.96101 16.2109 3.46957 16 4 16H20C20.5304 16 21.039 16.2109 21.4141 16.5859C21.7891 16.961 22 17.4696 22 18Z" fill="black"/>
<path d="M9.74866 1.01604C10.0385 0.979299 10.3328 1.00691 10.611 1.09612C10.8848 1.18401 11.136 1.33091 11.3483 1.52483L11.3492 1.52386L21.3151 10.4936L21.4254 10.5981C21.6737 10.8508 21.8511 11.1659 21.9381 11.5112C22.0375 11.9055 22.0144 12.3208 21.8717 12.7016C21.729 13.0825 21.4735 13.4111 21.1393 13.643C20.805 13.8749 20.4075 13.999 20.0006 13.9994H3.99964C3.63527 13.9994 3.27739 13.9007 2.96546 13.7123C2.65349 13.5239 2.39878 13.2536 2.22913 12.9311C2.05946 12.6084 1.98192 12.2452 2.00355 11.8813C2.02518 11.5174 2.14547 11.166 2.35218 10.8657L8.32679 1.90472L8.32776 1.90569C8.48469 1.66595 8.69081 1.46201 8.93323 1.30901C9.18038 1.1531 9.45877 1.05283 9.74866 1.01604ZM9.99085 3.01507L4.00745 11.9877C4.00485 11.9916 4.0023 11.9956 3.99964 11.9994H19.9987C19.9952 11.9964 19.9914 11.9937 19.9879 11.9907L10.0114 3.01018C10.0078 3.00702 10.0041 3.00363 10.0006 3.00042C9.99755 3.00519 9.994 3.01034 9.99085 3.01507Z" fill="black"/>
</svg>
