<svg width="24" height="24" viewBox="0 0 24 24" fill="none" xmlns="http://www.w3.org/2000/svg">
<path d="M19.9998 6.00024C19.9998 5.82328 19.9531 5.64921 19.864 5.49633C19.7749 5.34359 19.6468 5.21728 19.4929 5.13012C19.3389 5.04293 19.164 4.99801 18.9871 5.00024C18.8102 5.00252 18.6368 5.05182 18.4851 5.14282L8.48511 11.1428C8.33699 11.2317 8.21471 11.3577 8.12964 11.5081C8.04454 11.6585 7.99961 11.8284 7.99976 12.0012C7.99991 12.1741 8.04525 12.3441 8.13062 12.4944C8.19462 12.607 8.27956 12.7057 8.38062 12.7854L8.48706 12.8586L8.48804 12.8596L18.4851 18.8577C18.6368 18.9487 18.8102 18.998 18.9871 19.0002C19.164 19.0025 19.3389 18.9575 19.4929 18.8704C19.6468 18.7832 19.7749 18.6569 19.864 18.5041C19.9531 18.3513 19.9998 18.1772 19.9998 18.0002V6.00024ZM21.9998 18.0002C21.9998 18.5311 21.8589 19.0523 21.5916 19.511C21.3242 19.9695 20.9401 20.349 20.4783 20.6106C20.0163 20.8722 19.4925 21.0069 18.9617 21.0002C18.431 20.9935 17.9119 20.8455 17.4568 20.5725L7.46069 14.5745C7.01571 14.3085 6.64739 13.9325 6.39136 13.4817C6.13535 13.0309 6.00024 12.5216 5.99976 12.0032C5.9993 11.4848 6.13325 10.9749 6.38843 10.5237C6.64375 10.0723 7.0121 9.69472 7.45679 9.42797L17.4568 3.42797C17.9119 3.15496 18.431 3.00701 18.9617 3.00024C19.4925 2.99354 20.0163 3.12832 20.4783 3.38989C20.9401 3.65145 21.3242 4.03093 21.5916 4.4895C21.8589 4.94812 21.9998 5.46937 21.9998 6.00024V18.0002Z" fill="black"/>
<path d="M2 20.0002V4.00024C2 3.44796 2.44772 3.00024 3 3.00024C3.55228 3.00024 4 3.44796 4 4.00024V20.0002C4 20.5525 3.55228 21.0002 3 21.0002C2.44772 21.0002 2 20.5525 2 20.0002Z" fill="black"/>
</svg>
