<svg width="24" height="24" viewBox="0 0 24 24" fill="none" xmlns="http://www.w3.org/2000/svg">
<path fill-rule="evenodd" clip-rule="evenodd" d="M12 3C12.3787 3 12.725 3.214 12.8944 3.55279L18.8944 15.5528C19.1414 16.0468 18.9412 16.6474 18.4472 16.8944C17.9532 17.1414 17.3525 16.9412 17.1055 16.4472L12 6.23607L6.8944 16.4472C6.64741 16.9412 6.04674 17.1414 5.55276 16.8944C5.05878 16.6474 4.85856 16.0468 5.10555 15.5528L11.1055 3.55279C11.2749 3.214 11.6212 3 12 3Z" fill="black"/>
<path fill-rule="evenodd" clip-rule="evenodd" d="M6.99997 12C6.99997 11.4477 7.44769 11 7.99997 11H16C16.5523 11 17 11.4477 17 12C17 12.5523 16.5523 13 16 13H7.99997C7.44769 13 6.99997 12.5523 6.99997 12Z" fill="black"/>
<path fill-rule="evenodd" clip-rule="evenodd" d="M22.7071 17.2929C23.0976 17.6834 23.0976 18.3166 22.7071 18.7071L18.7071 22.7071C18.3166 23.0976 17.6834 23.0976 17.2929 22.7071L15.2929 20.7071C14.9023 20.3166 14.9023 19.6834 15.2929 19.2929C15.6834 18.9024 16.3166 18.9024 16.7071 19.2929L18 20.5858L21.2929 17.2929C21.6834 16.9024 22.3166 16.9024 22.7071 17.2929Z" fill="black"/>
</svg>
