<svg width="24" height="24" viewBox="0 0 24 24" fill="none" xmlns="http://www.w3.org/2000/svg">
<path fill-rule="evenodd" clip-rule="evenodd" d="M6 20.9998C6 19.8952 6.89543 18.9998 8 18.9998C9.10457 18.9998 10 19.8952 10 20.9998C10 22.1044 9.10457 22.9998 8 22.9998C6.89543 22.9998 6 22.1044 6 20.9998Z" fill="black"/>
<path fill-rule="evenodd" clip-rule="evenodd" d="M17 20.9998C17 19.8952 17.8954 18.9998 19 18.9998C20.1046 18.9998 21 19.8952 21 20.9998C21 22.1044 20.1046 22.9998 19 22.9998C17.8954 22.9998 17 22.1044 17 20.9998Z" fill="black"/>
<path fill-rule="evenodd" clip-rule="evenodd" d="M1.05 2.0498C1.05 1.49752 1.49772 1.0498 2.05 1.0498H4.05C4.52158 1.0498 4.92907 1.37926 5.02783 1.84038L5.92936 6.0498H22.09C22.3933 6.0498 22.6802 6.18745 22.87 6.42402C23.0598 6.66059 23.132 6.97051 23.0662 7.2666L21.4166 14.6948C21.4166 14.695 21.4167 14.6946 21.4166 14.6948C21.2697 15.3613 20.8998 15.9585 20.3682 16.3866C19.8363 16.8147 19.1744 17.0487 18.4916 17.0498L8.72005 17.0498C8.02667 17.0624 7.35019 16.8344 6.80582 16.4043C6.25826 15.9718 5.87862 15.3618 5.73225 14.6796L4.15272 7.30449C4.14507 7.27533 4.1387 7.24565 4.13367 7.21551L3.2415 3.0498H2.05C1.49772 3.0498 1.05 2.60209 1.05 2.0498ZM6.3577 8.0498L7.68776 14.2601C7.68773 14.2599 7.68778 14.2602 7.68776 14.2601C7.7366 14.4873 7.86318 14.6909 8.04561 14.835C8.22813 14.9792 8.45521 15.0552 8.68776 15.05C8.69517 15.0499 8.70259 15.0498 8.71 15.0498L18.4884 15.0498C18.4882 15.0498 18.4886 15.0498 18.4884 15.0498C18.7158 15.0493 18.9368 14.9713 19.1139 14.8287C19.2912 14.686 19.4145 14.4871 19.4634 14.2648L19.4638 14.263L20.8436 8.0498H6.3577Z" fill="black"/>
</svg>
