<svg width="24" height="24" viewBox="0 0 24 24" fill="none" xmlns="http://www.w3.org/2000/svg">
<path d="M13 1C13.5523 1 14 1.44772 14 2C14 2.55228 13.5523 3 13 3H11C10.4477 3 10 2.55228 10 2C10 1.44772 10.4477 1 11 1H13Z" fill="black"/>
<path d="M13.4114 13.5049C13.6849 13.0251 14.2959 12.8574 14.7757 13.1309C15.2553 13.4044 15.4221 14.0154 15.1487 14.4951L10.5891 22.4951C10.3157 22.9749 9.70466 23.1425 9.22489 22.8691C8.74515 22.5957 8.57755 21.9847 8.85086 21.5049L13.4114 13.5049Z" fill="black"/>
<path d="M19.4418 17C19.8539 17 20.2237 17.2528 20.3734 17.6367L21.932 21.6367C22.1325 22.1513 21.8773 22.7312 21.3627 22.9316C20.8482 23.132 20.2682 22.8778 20.0678 22.3633L18.7582 19H4.558C4.00572 19 3.558 18.5523 3.558 18C3.558 17.4477 4.00572 17 4.558 17H19.4418Z" fill="black"/>
<path d="M2 12V10C2 9.44771 2.44772 9 3 9C3.55229 9 4 9.44771 4 10V12C4 12.5523 3.55229 13 3 13C2.44772 13 2 12.5523 2 12Z" fill="black"/>
<path d="M19.9995 13L20.1304 13.0039C20.4369 13.0238 20.7356 13.1142 21.0025 13.2686C21.3073 13.4449 21.5605 13.6985 21.7359 14.0039C21.9111 14.3092 22.0019 14.6558 22.0005 15.0078C21.9991 15.356 21.9059 15.6975 21.732 15.999L21.7329 16L18.6294 21.4424L18.6304 21.4434C18.3717 21.9147 17.9915 22.3082 17.5288 22.582C17.066 22.856 16.5374 23.0002 15.9995 23H3.99954C3.64762 23 3.30214 22.9068 2.99758 22.7305C2.6927 22.5539 2.43936 22.2998 2.26418 21.9941C2.08916 21.6886 1.99782 21.3423 1.99954 20.9902C2.00131 20.642 2.09477 20.3003 2.26907 19.999L5.37649 14.5449C5.63474 14.0794 6.01206 13.6905 6.47024 13.4189C6.93318 13.1446 7.46143 13.001 7.99954 13.001L19.9995 13ZM7.99954 15C7.82017 15 7.64408 15.0482 7.48977 15.1396C7.33554 15.231 7.20872 15.3623 7.12258 15.5195C7.11981 15.5246 7.11665 15.5301 7.11379 15.5352L4.00539 20.9893L3.99954 21H16.0005C16.1797 21 16.3561 20.9516 16.5103 20.8604C16.6643 20.7691 16.7913 20.6384 16.8775 20.4814L16.8853 20.4668L19.9956 15.0098L20.0005 15H7.99954Z" fill="black"/>
<path d="M6 2C6 1.44772 6.44772 1 7 1C7.55229 1 8 1.44772 8 2C8 3.32608 7.47284 4.59747 6.53516 5.53516C5.59748 6.47284 4.32608 7 3 7C2.44772 7 2 6.55228 2 6C2 5.44772 2.44772 5 3 5C3.79565 5 4.55849 4.6837 5.1211 4.12109C5.6837 3.55848 6 2.79565 6 2Z" fill="black"/>
<path d="M7.95297 6.95297C8.34349 6.56244 8.97651 6.56244 9.36703 6.95297L10.7772 8.36312C11.1676 8.75366 11.1677 9.38671 10.7772 9.77719C10.3867 10.1677 9.75366 10.1676 9.36313 9.77719L7.95297 8.36703C7.56245 7.97651 7.56245 7.34349 7.95297 6.95297Z" fill="black"/>
</svg>
