<svg width="24" height="24" viewBox="0 0 24 24" fill="none" xmlns="http://www.w3.org/2000/svg">
<path d="M15.9998 6.00024C15.9998 5.82328 15.9531 5.64921 15.864 5.49633C15.7749 5.34359 15.6468 5.21728 15.4929 5.13012C15.3389 5.04293 15.164 4.99801 14.9871 5.00024C14.8102 5.00252 14.6368 5.05182 14.4851 5.14282L4.48511 11.1428C4.33699 11.2317 4.21471 11.3577 4.12964 11.5081C4.04454 11.6585 3.99961 11.8284 3.99976 12.0012C3.99991 12.1741 4.04525 12.3441 4.13062 12.4944C4.19462 12.607 4.27956 12.7057 4.38062 12.7854L4.48706 12.8586L4.48804 12.8596L14.4851 18.8577C14.6368 18.9487 14.8102 18.998 14.9871 19.0002C15.164 19.0025 15.3389 18.9575 15.4929 18.8704C15.6468 18.7832 15.7749 18.6569 15.864 18.5041C15.9531 18.3513 15.9998 18.1772 15.9998 18.0002V6.00024ZM17.9998 18.0002C17.9998 18.5311 17.8589 19.0523 17.5916 19.511C17.3242 19.9695 16.9401 20.349 16.4783 20.6106C16.0163 20.8722 15.4925 21.0069 14.9617 21.0002C14.431 20.9935 13.9119 20.8455 13.4568 20.5725L3.46069 14.5745C3.01571 14.3085 2.64739 13.9325 2.39136 13.4817C2.13535 13.0309 2.00024 12.5216 1.99976 12.0032C1.9993 11.4848 2.13325 10.9749 2.38843 10.5237C2.64375 10.0723 3.0121 9.69472 3.45679 9.42797L13.4568 3.42797C13.9119 3.15496 14.431 3.00701 14.9617 3.00024C15.4925 2.99354 16.0163 3.12832 16.4783 3.38989C16.9401 3.65145 17.3242 4.03094 17.5916 4.4895C17.8589 4.94812 17.9998 5.46937 17.9998 6.00024V18.0002Z" fill="black"/>
<path d="M20 20.0002V4.00024C20 3.44796 20.4477 3.00024 21 3.00024C21.5523 3.00024 22 3.44796 22 4.00024V20.0002C22 20.5525 21.5523 21.0002 21 21.0002C20.4477 21.0002 20 20.5525 20 20.0002Z" fill="black"/>
</svg>
