<svg width="24" height="24" viewBox="0 0 24 24" fill="none" xmlns="http://www.w3.org/2000/svg">
<path d="M19 4H18C17.2044 4 16.4415 4.3163 15.8789 4.87891C15.3163 5.44152 15 6.20435 15 7V8.10059C15.3267 8.03391 15.6616 8 16 8C16.7956 8 17.5585 7.6837 18.1211 7.12109C18.6837 6.55848 19 5.79565 19 5V4ZM21 5C21 6.32608 20.4728 7.59748 19.5352 8.53516C18.5975 9.47284 17.3261 10 16 10C15.2044 10 14.4415 10.3163 13.8789 10.8789C13.3163 11.4415 13 12.2044 13 13C13 13.8215 13.1984 14.4341 13.4482 15.1836C13.6984 15.934 14 16.8216 14 18C14 19.2982 13.5787 20.5611 12.7998 21.5996C12.4685 22.0414 11.8422 22.131 11.4004 21.7998C10.9586 21.4685 10.869 20.8422 11.2002 20.4004C11.7195 19.708 12 18.8655 12 18C12 17.1785 11.8016 16.5659 11.5518 15.8164C11.3016 15.066 11 14.1784 11 13C11 11.6739 11.5272 10.4025 12.4648 9.46484C12.633 9.2967 12.812 9.14203 13 9.00098V7C13 5.67392 13.5272 4.40253 14.4648 3.46484C15.4025 2.52716 16.6739 2 18 2H19.5C19.8978 2 20.2792 2.15815 20.5605 2.43945C20.8419 2.72076 21 3.10218 21 3.5V5Z" fill="black"/>
<path d="M6.46094 7.02448C7.57071 6.92441 8.68696 7.13554 9.68359 7.63385C10.68 8.13216 11.5178 8.89809 12.1035 9.84577C12.6893 10.7936 13 11.8857 13 13C13 13.3148 12.8514 13.611 12.5996 13.7999C11.7083 14.4683 10.6487 14.8756 9.53906 14.9757C8.42929 15.0757 7.31304 14.8646 6.31641 14.3663C5.31998 13.868 4.48221 13.102 3.89648 12.1544C3.31068 11.2065 3 10.1143 3 9.00006C3 8.68531 3.14859 8.38911 3.40039 8.20026C4.29171 7.53182 5.35132 7.12458 6.46094 7.02448ZM6.64062 9.01667C6.07376 9.06781 5.52645 9.23886 5.03418 9.51667C5.10723 10.0774 5.29832 10.6182 5.59766 11.1026C5.98819 11.7345 6.54651 12.246 7.21094 12.5782C7.87536 12.9104 8.61953 13.0502 9.35938 12.9835C9.92611 12.9323 10.4727 12.7602 10.9648 12.4825C10.8917 11.9221 10.7015 11.3816 10.4023 10.8975C10.0118 10.2656 9.45349 9.75415 8.78906 9.42194C8.12464 9.08973 7.38047 8.94995 6.64062 9.01667Z" fill="black"/>
<path d="M19 20C19.5523 20 20 20.4477 20 21C20 21.5523 19.5523 22 19 22H5C4.44772 22 4 21.5523 4 21C4 20.4477 4.44772 20 5 20H19Z" fill="black"/>
</svg>
