<svg width="24" height="24" viewBox="0 0 24 24" fill="none" xmlns="http://www.w3.org/2000/svg">
<path d="M9.92797 14.3893C10.1396 13.8792 10.7255 13.6366 11.2356 13.8483C11.7454 14.0599 11.987 14.6449 11.7756 15.1549L11.3928 16.0787C11.1811 16.5885 10.5961 16.8301 10.0862 16.6188C9.57617 16.4071 9.33373 15.8222 9.54516 15.3121L9.92797 14.3893Z" fill="black"/>
<path d="M14.0002 12.0002C14.0002 11.7375 13.9484 11.4773 13.8479 11.2346C13.7473 10.9919 13.6 10.7709 13.4143 10.5852C13.2286 10.3996 13.0083 10.252 12.7658 10.1516C12.5232 10.051 12.2628 9.99925 12.0002 9.99922C11.7375 9.9992 11.4772 10.0511 11.2346 10.1516C10.7246 10.3628 10.1396 10.1213 9.92793 9.61152L9.54512 8.68769C9.33378 8.17769 9.57617 7.59266 10.0861 7.38105C10.5961 7.16971 11.1812 7.41211 11.3928 7.92207L11.4406 8.04023C11.6257 8.0141 11.8125 7.99921 12.0002 7.99922C12.5255 7.99925 13.0461 8.10284 13.5314 8.30391C14.0165 8.5049 14.457 8.79985 14.8283 9.17109C15.1997 9.54248 15.4945 9.98374 15.6955 10.4689C15.8965 10.9543 16.0002 11.4749 16.0002 12.0002C16.0002 12.5255 15.8966 13.0461 15.6955 13.5314C15.4945 14.0165 15.1996 14.457 14.8283 14.8283C14.4568 15.1998 14.0158 15.4945 13.5305 15.6955C13.0202 15.9068 12.4351 15.6647 12.2238 15.1545C12.0126 14.6444 12.2549 14.0593 12.7648 13.8479C13.0075 13.7473 13.2285 13.6 13.4143 13.4143C13.5999 13.2286 13.7473 13.0084 13.8479 12.7658C13.9484 12.5232 14.0002 12.2628 14.0002 12.0002Z" fill="black"/>
<path d="M12.6069 7.92223C12.8186 7.41212 13.4044 7.16954 13.9145 7.38121C14.4244 7.59291 14.6659 8.17791 14.4546 8.68785L14.0718 9.61168C13.8601 10.1215 13.2758 10.3629 12.7658 10.1516C12.2558 9.93994 12.0127 9.35511 12.2241 8.84508L12.6069 7.92223Z" fill="black"/>
<path d="M7.99976 11.9995C7.99982 11.4743 8.10347 10.9544 8.30444 10.4692C8.50549 9.98391 8.80018 9.54278 9.17163 9.17135C9.54312 8.79991 9.98413 8.50517 10.4695 8.30416C10.9797 8.09286 11.5648 8.335 11.7761 8.84518C11.9874 9.35531 11.7446 9.94011 11.2346 10.1516C10.9919 10.2521 10.7714 10.3997 10.5857 10.5854C10.3999 10.7711 10.2526 10.9921 10.1521 11.2348C10.0517 11.4773 9.99982 11.7371 9.99976 11.9995C9.99974 12.2621 10.0516 12.5225 10.1521 12.7651C10.2526 13.0078 10.4 13.2288 10.5857 13.4145C10.7713 13.6001 10.9916 13.7476 11.2341 13.8481C11.4768 13.9486 11.7371 14.0004 11.9998 14.0005C12.2624 14.0005 12.5222 13.9483 12.7648 13.8479L12.8591 13.8149C13.0793 13.7484 13.3167 13.7593 13.531 13.8481C13.7761 13.9497 13.9707 14.1449 14.072 14.3901L14.4539 15.3139C14.6649 15.8243 14.4223 16.4096 13.9119 16.6206C13.4016 16.8313 12.8172 16.5879 12.6062 16.0776L12.5574 15.9604C12.373 15.9864 12.1867 16.0005 11.9998 16.0005C11.4744 16.0004 10.9538 15.8968 10.4685 15.6958C9.98344 15.4947 9.54292 15.1998 9.17163 14.8286C8.80024 14.4571 8.50545 14.016 8.30444 13.5307C8.10344 13.0454 7.99972 12.5248 7.99976 11.9995Z" fill="black"/>
<path d="M15.3121 9.54516C15.8222 9.33373 16.4071 9.57617 16.6188 10.0862C16.8301 10.5961 16.5885 11.1811 16.0787 11.3928L15.1549 11.7756C14.6449 11.987 14.0599 11.7454 13.8483 11.2356C13.6366 10.7255 13.8792 10.1396 14.3893 9.92797L15.3121 9.54516Z" fill="black"/>
<path d="M13.8479 12.7658C14.0595 12.2559 14.6447 12.0127 15.1547 12.2241L16.0786 12.6069C16.5885 12.8186 16.8302 13.4045 16.6186 13.9145C16.4069 14.4243 15.8219 14.666 15.312 14.4545L14.3891 14.0717C13.8792 13.8601 13.6365 13.2758 13.8479 12.7658Z" fill="black"/>
<path d="M21 8V4C21 3.73478 20.8946 3.48051 20.707 3.29297C20.5195 3.10543 20.2652 3 20 3H4C3.73478 3 3.4805 3.10543 3.29297 3.29297C3.10543 3.4805 3 3.73478 3 4V8C3 8.26522 3.10543 8.51949 3.29297 8.70703C3.48051 8.89457 3.73478 9 4 9H4.5C5.05228 9 5.5 9.44772 5.5 10C5.5 10.5523 5.05228 11 4.5 11H4C3.20435 11 2.44151 10.6837 1.87891 10.1211C1.3163 9.55849 1 8.79565 1 8V4C1 3.20435 1.3163 2.44152 1.87891 1.87891C2.44152 1.3163 3.20435 1 4 1H20C20.7957 1 21.5585 1.3163 22.1211 1.87891C22.6837 2.44152 23 3.20435 23 4V8C23 8.79565 22.6837 9.55849 22.1211 10.1211C21.5585 10.6837 20.7957 11 20 11H19.5C18.9477 11 18.5 10.5523 18.5 10C18.5 9.44772 18.9477 9 19.5 9H20C20.2652 9 20.5195 8.89457 20.707 8.70703C20.8946 8.51949 21 8.26522 21 8Z" fill="black"/>
<path d="M1 20V16C1 15.2044 1.3163 14.4415 1.87891 13.8789C2.44151 13.3163 3.20435 13 4 13H4.5C5.05228 13 5.5 13.4477 5.5 14C5.5 14.5523 5.05228 15 4.5 15H4C3.73478 15 3.48051 15.1054 3.29297 15.293C3.10543 15.4805 3 15.7348 3 16V20C3 20.2652 3.10543 20.5195 3.29297 20.707C3.48051 20.8946 3.73478 21 4 21H20C20.2652 21 20.5195 20.8946 20.707 20.707C20.8946 20.5195 21 20.2652 21 20V16C21 15.7348 20.8946 15.4805 20.707 15.293C20.5195 15.1054 20.2652 15 20 15H19.5C18.9477 15 18.5 14.5523 18.5 14C18.5 13.4477 18.9477 13 19.5 13H20C20.7957 13 21.5585 13.3163 22.1211 13.8789C22.6837 14.4415 23 15.2043 23 16V20C23 20.7957 22.6837 21.5585 22.1211 22.1211C21.5585 22.6837 20.7957 23 20 23H4C3.20435 23 2.44151 22.6837 1.87891 22.1211C1.3163 21.5585 1 20.7957 1 20Z" fill="black"/>
<path d="M6.00977 17C6.56205 17 7.00977 17.4477 7.00977 18C7.00977 18.5523 6.56205 19 6.00977 19H6C5.44772 19 5 18.5523 5 18C5 17.4477 5.44772 17 6 17H6.00977Z" fill="black"/>
<path d="M6.00977 5C6.56205 5 7.00977 5.44772 7.00977 6C7.00977 6.55228 6.56205 7 6.00977 7H6C5.44772 7 5 6.55228 5 6C5 5.44772 5.44772 5 6 5H6.00977Z" fill="black"/>
<path d="M7.38105 10.0861C7.59266 9.57617 8.17769 9.33378 8.68769 9.54512L9.61152 9.92793C10.1215 10.1397 10.3637 10.7248 10.1521 11.2348C9.94037 11.7447 9.35488 11.987 8.84492 11.7756L7.92207 11.3928C7.41211 11.1812 7.16971 10.5961 7.38105 10.0861Z" fill="black"/>
<path d="M8.84508 12.2241C9.35511 12.0127 9.94047 12.2551 10.1521 12.7651C10.3634 13.275 10.1215 13.8601 9.61168 14.0718L8.68785 14.4546C8.17791 14.6659 7.59291 14.4244 7.38121 13.9145C7.16954 13.4044 7.41212 12.8186 7.92223 12.6069L8.84508 12.2241Z" fill="black"/>
</svg>
