<svg width="24" height="24" viewBox="0 0 24 24" fill="none" xmlns="http://www.w3.org/2000/svg">
<path d="M15 16.0001V9.99909L13.2002 12.3995C13.0605 12.5857 12.8791 12.7368 12.6709 12.8409C12.4626 12.945 12.2329 12.9991 12 12.9991C11.7671 12.9991 11.5374 12.945 11.3291 12.8409C11.1209 12.7368 10.9395 12.5857 10.7998 12.3995L9 10.0001V16.0001C9 16.5524 8.55228 17.0001 8 17.0001C7.44772 17.0001 7 16.5524 7 16.0001V8.50007C7 8.18527 7.09914 7.8785 7.2832 7.62312C7.46723 7.36779 7.72685 7.1768 8.02539 7.07722C8.2868 6.99008 8.5668 6.97618 8.83398 7.03718L8.94727 7.06843L9.05859 7.10749C9.27651 7.1949 9.47083 7.33262 9.62598 7.50886L9.7002 7.59968L11.999 10.6651L14.2998 7.5987L14.374 7.50788C14.5551 7.30219 14.7897 7.14962 15.0527 7.06745C15.3157 6.98532 15.5954 6.97705 15.8613 7.04304L15.9746 7.07624L16.084 7.11726C16.3365 7.22398 16.5556 7.39851 16.7168 7.62214C16.9009 7.87753 17 8.18429 17 8.49909V16.0001C17 16.5524 16.5523 17.0001 16 17.0001C15.4477 17.0001 15 16.5524 15 16.0001Z" fill="black"/>
<path d="M20 5C20 4.44772 19.5523 4 19 4H5C4.44772 4 4 4.44772 4 5V19C4 19.5523 4.44772 20 5 20H19C19.5523 20 20 19.5523 20 19V5ZM22 19C22 20.6569 20.6569 22 19 22H5C3.34315 22 2 20.6569 2 19V5C2 3.34315 3.34315 2 5 2H19C20.6569 2 22 3.34315 22 5V19Z" fill="black"/>
</svg>
