<svg width="24" height="24" viewBox="0 0 24 24" fill="none" xmlns="http://www.w3.org/2000/svg">
<path d="M17.9831 12C17.9831 11.4636 18.1127 10.9349 18.3601 10.459C18.6075 9.98311 18.966 9.5737 19.405 9.26562C19.6712 9.07196 19.857 8.7868 19.9265 8.46484C19.9967 8.13971 19.9434 7.79978 19.7771 7.51172C19.6107 7.22375 19.3427 7.00795 19.0261 6.90625C18.7092 6.80462 18.3652 6.82435 18.0622 6.96191C17.5784 7.18554 17.048 7.28984 16.5154 7.2666C15.9794 7.24317 15.4566 7.09131 14.9919 6.82324C14.5273 6.55515 14.134 6.17877 13.8454 5.72656C13.5569 5.2743 13.381 4.75897 13.3337 4.22461C13.3007 3.89539 13.147 3.58894 12.9021 3.36621C12.6555 3.14193 12.3341 3.01762 12.0007 3.01758C11.6674 3.01758 11.346 3.14199 11.0994 3.36621C10.8528 3.59048 10.6984 3.89865 10.6667 4.23047C10.6636 4.26382 10.6584 4.2969 10.6521 4.3291C10.5923 4.82592 10.4236 5.30393 10.154 5.72656C9.86549 6.17883 9.47223 6.55512 9.00756 6.82324C8.54283 7.09138 8.02013 7.24315 7.48412 7.2666C6.94807 7.29004 6.41386 7.18458 5.92748 6.95801C5.62718 6.82523 5.28817 6.80667 4.97533 6.90723C4.6589 7.00897 4.39163 7.22492 4.22533 7.5127C4.05905 7.80064 4.00585 8.14078 4.07591 8.46582C4.14605 8.79066 4.33424 9.0777 4.60423 9.27148C5.03966 9.57892 5.39443 9.98598 5.64037 10.459C5.88778 10.9349 6.01732 11.4636 6.01732 12C6.01726 12.5361 5.88765 13.0643 5.64037 13.54C5.39434 14.0132 5.03794 14.4201 4.60228 14.7275L4.60326 14.7285C4.33301 14.9222 4.14425 15.2092 4.07396 15.5342C4.00373 15.8594 4.05691 16.2002 4.22338 16.4883C4.38985 16.7762 4.65762 16.9922 4.97435 17.0938C5.29103 17.1953 5.63437 17.1754 5.93724 17.0381C6.42134 16.814 6.95206 16.7093 7.48509 16.7324C8.02121 16.7557 8.54367 16.9077 9.00853 17.1758C9.47343 17.4439 9.86734 17.82 10.156 18.2725C10.4434 18.7231 10.6177 19.2363 10.6658 19.7686C10.6973 20.1005 10.8527 20.4085 11.0994 20.6328C11.346 20.8571 11.6673 20.9814 12.0007 20.9814C12.3341 20.9814 12.6555 20.8571 12.9021 20.6328C13.1487 20.4085 13.3032 20.1004 13.3347 19.7686C13.3828 19.2365 13.5581 18.7239 13.8454 18.2734C14.134 17.8211 14.5272 17.4449 14.9919 17.1768C15.4567 16.9086 15.9793 16.7559 16.5154 16.7324C17.0481 16.7092 17.5783 16.8144 18.0622 17.0381L18.1775 17.084C18.4506 17.1786 18.7488 17.1827 19.0261 17.0938C19.3428 16.9921 19.6107 16.7762 19.7771 16.4883C19.9435 16.2001 19.9967 15.8594 19.9265 15.5342C19.8562 15.2093 19.6673 14.9222 19.3972 14.7285C18.9617 14.4211 18.606 14.0131 18.3601 13.54C18.1128 13.0643 17.9832 12.5362 17.9831 12ZM19.9831 12C19.9832 12.2151 20.0353 12.4273 20.1345 12.6182C20.2089 12.7611 20.3083 12.889 20.4275 12.9961L20.5535 13.0967L20.5613 13.1025C21.2355 13.5855 21.7065 14.3017 21.8816 15.1123C22.0566 15.923 21.9234 16.7701 21.5085 17.4883C21.0936 18.2065 20.4263 18.7447 19.6365 18.998C18.8468 19.2513 17.9912 19.2012 17.2361 18.8584L17.2263 18.8545C17.0313 18.7637 16.8172 18.7211 16.6023 18.7305C16.3873 18.7399 16.1774 18.8006 15.991 18.9082C15.8045 19.0158 15.6468 19.1672 15.531 19.3486C15.4153 19.5301 15.3449 19.7368 15.3259 19.9512V19.958C15.2472 20.7852 14.8625 21.5532 14.2478 22.1123C13.633 22.6715 12.8318 22.9814 12.0007 22.9814C11.1696 22.9814 10.3685 22.6715 9.75365 22.1123C9.13885 21.5532 8.75422 20.7853 8.67552 19.958L8.67455 19.9512C8.65562 19.7367 8.58523 19.5301 8.46947 19.3486C8.35366 19.1671 8.19604 19.0158 8.00951 18.9082C7.82299 18.8006 7.6133 18.7398 7.39818 18.7305C7.18318 18.7211 6.96921 18.7636 6.77416 18.8545L6.76439 18.8584C6.00928 19.2012 5.15369 19.2512 4.364 18.998C3.57425 18.7448 2.90685 18.2064 2.49193 17.4883C2.07701 16.7701 1.94383 15.923 2.11888 15.1123C2.29397 14.3017 2.76497 13.5855 3.4392 13.1025L3.44701 13.0967C3.62301 12.9731 3.76672 12.8089 3.86595 12.6182C3.96517 12.4273 4.01726 12.2151 4.01732 12C4.01732 11.7849 3.96513 11.5727 3.86595 11.3818C3.76669 11.1909 3.62315 11.0259 3.44701 10.9023L3.43822 10.8965C2.76489 10.4132 2.29547 9.6969 2.12084 8.88672C1.94621 8.07655 2.07845 7.2304 2.49291 6.5127C2.90737 5.79498 3.57402 5.25662 4.36302 5.00293C5.05321 4.78104 5.7942 4.79082 6.47435 5.02539L6.76244 5.13965L6.7722 5.14453C6.96721 5.23537 7.18131 5.27788 7.39623 5.26855C7.61119 5.25916 7.82117 5.19831 8.00756 5.09082C8.19401 4.98324 8.35174 4.83188 8.46752 4.65039C8.58327 4.46892 8.65363 4.26226 8.67259 4.04785C8.67628 4.0063 8.68264 3.96556 8.69115 3.92578C8.79329 3.14283 9.16764 2.41966 9.75365 1.88672C10.3685 1.32761 11.1697 1.01758 12.0007 1.01758C12.8318 1.01762 13.633 1.32757 14.2478 1.88672C14.7858 2.37602 15.1473 3.02539 15.282 3.73438L15.3259 4.04199V4.04785C15.3449 4.26216 15.4153 4.46898 15.531 4.65039C15.6467 4.83182 15.8046 4.98324 15.991 5.09082C16.1774 5.19838 16.3873 5.25913 16.6023 5.26855C16.8172 5.27795 17.0313 5.23532 17.2263 5.14453L17.2361 5.14062C17.9912 4.7979 18.8468 4.74775 19.6365 5.00098C20.4262 5.25427 21.0936 5.79264 21.5085 6.51074C21.9234 7.22888 22.0566 8.07603 21.8816 8.88672C21.7065 9.69745 21.2355 10.4145 20.5613 10.8975L20.5535 10.9023C20.3773 11.0259 20.2338 11.1909 20.1345 11.3818C20.0353 11.5727 19.9831 11.7849 19.9831 12Z" fill="black"/>
<path d="M14 12.0002C14 10.8957 13.1046 10.0002 12 10.0002C10.8954 10.0002 10 10.8957 10 12.0002C10 13.1048 10.8954 14.0002 12 14.0002C13.1046 14.0002 14 13.1048 14 12.0002ZM16 12.0002C16 14.2094 14.2091 16.0002 12 16.0002C9.79086 16.0002 8 14.2094 8 12.0002C8 9.79111 9.79086 8.00024 12 8.00024C14.2091 8.00024 16 9.79111 16 12.0002Z" fill="black"/>
</svg>
