<svg width="24" height="24" viewBox="0 0 24 24" fill="none" xmlns="http://www.w3.org/2000/svg">
<path d="M15.4813 10.1427C15.9357 9.82887 16.559 9.94319 16.8729 10.3976C17.1867 10.852 17.0724 11.4753 16.618 11.7892C16.0334 12.1928 15.3082 12.4945 14.5213 12.6954C13.7297 12.8975 12.8665 13.0001 11.9998 13.0001C11.1334 13.0001 10.2708 12.8975 9.47933 12.6954C8.69222 12.4945 7.96634 12.1929 7.38168 11.7892C6.92728 11.4754 6.81306 10.852 7.1268 10.3976C7.44061 9.94319 8.06397 9.82897 8.5184 10.1427C8.8608 10.3792 9.35268 10.5994 9.97348 10.7579C10.5899 10.9153 11.2856 11.0001 11.9998 11.0001C12.714 11.0001 13.4098 10.9153 14.0262 10.7579C14.647 10.5995 15.1389 10.3792 15.4813 10.1427Z" fill="black"/>
<path d="M16.0132 13.6347C16.242 13.1321 16.8348 12.9099 17.3374 13.1386L21.8179 15.1786C22.1681 15.3351 22.4653 15.5889 22.6753 15.9101C22.8877 16.2351 23.0013 16.6155 23.0015 17.0038C23.0016 17.392 22.8883 17.7724 22.6763 18.0976C22.4663 18.4194 22.1675 18.6723 21.8169 18.829L21.8179 18.83L13.2437 22.7304L13.2427 22.7294C12.8525 22.9071 12.4293 22.9999 12.0005 22.9999C11.5709 22.9999 11.1462 22.9077 10.7554 22.7294L2.18115 18.8202C1.83131 18.6633 1.53324 18.4082 1.32373 18.0868C1.11211 17.7621 0.999527 17.3827 0.999512 16.9951C0.999512 16.6072 1.1119 16.2272 1.32373 15.9023C1.53346 15.5806 1.83184 15.3267 2.18213 15.1699L6.66553 13.1298C7.16823 12.9011 7.76202 13.1232 7.99072 13.6259C8.21921 14.1284 7.99698 14.7213 7.49463 14.9501L2.99951 16.9951L3.01123 16.9999L11.5854 20.9101C11.7156 20.9694 11.8574 20.9999 12.0005 20.9999C12.1435 20.9999 12.2854 20.9695 12.4155 20.9101L20.9897 17.0097L21.0015 17.0048L20.9888 16.999L16.5083 14.9589C16.0059 14.7299 15.7844 14.1372 16.0132 13.6347Z" fill="black"/>
<path d="M12 0.998047C12.6654 0.998047 13.312 1.2193 13.8379 1.62695C14.3574 2.02976 14.7286 2.5927 14.8974 3.22754H14.8994L17.9111 13.8662L17.9658 14.1064C18.0629 14.6662 17.9439 15.2189 17.6562 15.707C17.3403 16.2431 16.8427 16.6701 16.2754 16.9971C15.7022 17.3274 15.0239 17.5763 14.2969 17.7422C13.5674 17.9086 12.7847 17.9932 11.999 17.9932C11.2134 17.9932 10.4307 17.9086 9.70116 17.7422C8.97415 17.5763 8.29578 17.3274 7.72264 16.9971C7.15533 16.6701 6.65777 16.2431 6.34178 15.707C6.01302 15.1492 5.90441 14.5069 6.0869 13.8662L9.10057 3.22754C9.26936 2.5926 9.64255 2.02982 10.1621 1.62695C10.688 1.21929 11.3346 0.998052 12 0.998047ZM12 2.99805C11.7782 2.99805 11.563 3.07214 11.3877 3.20801C11.2123 3.34396 11.0865 3.53414 11.0312 3.74902C11.0292 3.75682 11.0276 3.76471 11.0254 3.77246L8.01073 14.4121V14.4141C7.99129 14.4823 7.98847 14.5624 8.06444 14.6914C8.15324 14.8421 8.35052 15.0508 8.72167 15.2646C9.08717 15.4753 9.5695 15.6605 10.1455 15.792C10.7191 15.9229 11.3523 15.9932 11.999 15.9932C12.6457 15.9932 13.2789 15.9229 13.8525 15.792C14.4285 15.6605 14.9109 15.4753 15.2764 15.2646C15.6475 15.0508 15.8448 14.8421 15.9336 14.6914C16.0095 14.5624 16.0067 14.4823 15.9873 14.4141V14.4121L12.9746 3.77246C12.9724 3.76471 12.9707 3.75682 12.9687 3.74902C12.9135 3.53431 12.7884 3.34394 12.6133 3.20801C12.4379 3.07205 12.2219 2.99805 12 2.99805Z" fill="black"/>
<path d="M14.4831 5.62274C15.006 5.44558 15.5733 5.72596 15.7507 6.24871C15.9279 6.77179 15.6478 7.34003 15.1247 7.51727C14.1798 7.83739 13.0923 8.00067 11.9987 8.00067C10.9051 8.00064 9.81758 7.83742 8.87274 7.51727C8.34985 7.33992 8.06955 6.77169 8.24676 6.24871C8.42411 5.72582 8.99234 5.44553 9.51532 5.62274C10.226 5.8635 11.0926 6.00064 11.9987 6.00067C12.9051 6.00067 13.7723 5.86359 14.4831 5.62274Z" fill="black"/>
</svg>
