<svg width="24" height="24" viewBox="0 0 24 24" fill="none" xmlns="http://www.w3.org/2000/svg">
<path fill-rule="evenodd" clip-rule="evenodd" d="M12 2C12.2778 2 12.543 2.11552 12.7322 2.3189L16.7232 6.60924C17.0047 6.89854 17.1922 7.26638 17.2608 7.66446C17.3305 8.06867 17.2741 8.48452 17.0995 8.85564C17.0035 9.05956 16.8744 9.24456 16.7185 9.4037L18.7295 11.6158C18.9951 11.8928 19.1756 12.2405 19.249 12.6175C19.3239 13.0018 19.2844 13.3996 19.1353 13.7616C19.037 14.0005 18.8938 14.2168 18.7147 14.3996L20.7294 16.6158C20.9951 16.8928 21.1756 17.2405 21.249 17.6175C21.3239 18.0018 21.2844 18.3996 21.1353 18.7616C20.9863 19.1236 20.7342 19.4339 20.4105 19.654C20.0867 19.8741 19.7055 19.9944 19.3141 19.9999C19.3094 20 19.3047 20 19.3 20H4.7C4.69532 20 4.69064 20 4.68596 19.9999C4.29451 19.9944 3.91328 19.8741 3.58953 19.654C3.26578 19.4339 3.01375 19.1236 2.86469 18.7616C2.71563 18.3996 2.6761 18.0018 2.75098 17.6175C2.82445 17.2405 3.00491 16.8928 3.27057 16.6158L5.28527 14.3996C5.10624 14.2168 4.96305 14.0005 4.86469 13.7616C4.71564 13.3996 4.6761 13.0018 4.75098 12.6175C4.82445 12.2405 5.00491 11.8928 5.27057 11.6158L7.28154 9.4037C7.12563 9.24456 6.99649 9.05956 6.90052 8.85564C6.72588 8.48451 6.66956 8.06867 6.7392 7.66446C6.80779 7.26638 6.99528 6.89855 7.27679 6.60925L11.2678 2.3189C11.457 2.11552 11.7222 2 12 2ZM6.71415 13H7C7.39582 13 7.75439 13.2335 7.91452 13.5954C8.07465 13.9574 8.0062 14.3798 7.73994 14.6727L4.73994 17.9727C4.73152 17.9819 4.72292 17.9911 4.71415 18H19.2859C19.2771 17.9911 19.2685 17.9819 19.2601 17.9727L16.2601 14.6727C15.9938 14.3798 15.9254 13.9574 16.0855 13.5954C16.2456 13.2335 16.6042 13 17 13H17.2859C17.2771 12.9911 17.2685 12.9819 17.2601 12.9727L14.2601 9.67267C13.9938 9.37979 13.9254 8.95743 14.0855 8.59545C14.2456 8.23347 14.6042 8 15 8H15.2C15.23 8 15.26 8.00135 15.2898 8.00404C15.2824 7.99651 15.275 7.98887 15.2678 7.9811L12 4.4682L8.73219 7.9811C8.72497 7.98887 8.71763 7.99651 8.71016 8.00404C8.74003 8.00135 8.77001 8 8.80001 8H9.00001C9.39582 8 9.75439 8.23347 9.91452 8.59545C10.0746 8.95743 10.0062 9.37979 9.73995 9.67267L6.73994 12.9727C6.73152 12.9819 6.72292 12.9911 6.71415 13Z" fill="black"/>
<path fill-rule="evenodd" clip-rule="evenodd" d="M12 18C12.5523 18 13 18.4477 13 19V22C13 22.5523 12.5523 23 12 23C11.4477 23 11 22.5523 11 22V19C11 18.4477 11.4477 18 12 18Z" fill="black"/>
</svg>
