<svg width="24" height="24" viewBox="0 0 24 24" fill="none" xmlns="http://www.w3.org/2000/svg">
<path fill-rule="evenodd" clip-rule="evenodd" d="M17.7071 1.29289C18.0976 1.68342 18.0976 2.31658 17.7071 2.70711L2.70711 17.7071C2.31658 18.0976 1.68342 18.0976 1.29289 17.7071C0.902369 17.3166 0.902369 16.6834 1.29289 16.2929L16.2929 1.29289C16.6834 0.902369 17.3166 0.902369 17.7071 1.29289Z" fill="black"/>
<path fill-rule="evenodd" clip-rule="evenodd" d="M1.29289 13.2929C1.68342 12.9024 2.31658 12.9024 2.70711 13.2929L10.7071 21.2929C11.0976 21.6834 11.0976 22.3166 10.7071 22.7071C10.3166 23.0976 9.68342 23.0976 9.29289 22.7071L1.29289 14.7071C0.902369 14.3166 0.902369 13.6834 1.29289 13.2929Z" fill="black"/>
<path fill-rule="evenodd" clip-rule="evenodd" d="M4.29289 10.2929C4.68342 9.90237 5.31658 9.90237 5.70711 10.2929L13.7071 18.2929C14.0976 18.6834 14.0976 19.3166 13.7071 19.7071C13.3166 20.0976 12.6834 20.0976 12.2929 19.7071L4.29289 11.7071C3.90237 11.3166 3.90237 10.6834 4.29289 10.2929Z" fill="black"/>
<path fill-rule="evenodd" clip-rule="evenodd" d="M7.29289 7.29289C7.68342 6.90237 8.31658 6.90237 8.70711 7.29289L16.7071 15.2929C17.0976 15.6834 17.0976 16.3166 16.7071 16.7071C16.3166 17.0976 15.6834 17.0976 15.2929 16.7071L7.29289 8.70711C6.90237 8.31658 6.90237 7.68342 7.29289 7.29289Z" fill="black"/>
<path fill-rule="evenodd" clip-rule="evenodd" d="M10.2929 4.29289C10.6834 3.90237 11.3166 3.90237 11.7071 4.29289L19.7071 12.2929C20.0976 12.6834 20.0976 13.3166 19.7071 13.7071C19.3166 14.0976 18.6834 14.0976 18.2929 13.7071L10.2929 5.70711C9.90237 5.31658 9.90237 4.68342 10.2929 4.29289Z" fill="black"/>
<path fill-rule="evenodd" clip-rule="evenodd" d="M13.2929 1.29289C13.6834 0.902369 14.3166 0.902369 14.7071 1.29289L22.7071 9.29289C23.0976 9.68342 23.0976 10.3166 22.7071 10.7071C22.3166 11.0976 21.6834 11.0976 21.2929 10.7071L13.2929 2.70711C12.9024 2.31658 12.9024 1.68342 13.2929 1.29289Z" fill="black"/>
<path fill-rule="evenodd" clip-rule="evenodd" d="M22.7071 6.29289C23.0976 6.68342 23.0976 7.31658 22.7071 7.70711L7.70711 22.7071C7.31658 23.0976 6.68342 23.0976 6.29289 22.7071C5.90237 22.3166 5.90237 21.6834 6.29289 21.2929L21.2929 6.29289C21.6834 5.90237 22.3166 5.90237 22.7071 6.29289Z" fill="black"/>
</svg>
