<svg width="24" height="24" viewBox="0 0 24 24" fill="none" xmlns="http://www.w3.org/2000/svg">
<path fill-rule="evenodd" clip-rule="evenodd" d="M17.385 4.94185C17.5575 5.46651 17.272 6.03166 16.7473 6.20417L3.25405 10.6406C3.23876 10.6466 3.22603 10.6578 3.21814 10.6723C3.20996 10.6872 3.20754 10.7047 3.21129 10.7213L3.73563 12.8206L9.85642 11.5152C10.3966 11.4 10.9278 11.7445 11.043 12.2846C11.1582 12.8248 10.8137 13.356 10.2736 13.4712L4.09708 14.7884C4.09644 14.7886 4.09579 14.7887 4.09514 14.7889C3.59902 14.896 3.08063 14.8038 2.65184 14.5321C2.22534 14.2619 1.92153 13.8357 1.8051 13.3447L1.2698 11.2015C1.26952 11.2004 1.26925 11.1993 1.26897 11.1982C1.26879 11.1974 1.26862 11.1967 1.26844 11.196C1.1463 10.6949 1.21566 10.1662 1.46293 9.7135C1.7102 9.26082 2.11757 8.91678 2.60523 8.74875C2.6097 8.74721 2.61417 8.7457 2.61866 8.74423L16.1227 4.30423C16.6473 4.13172 17.2125 4.4172 17.385 4.94185Z" fill="black"/>
<path fill-rule="evenodd" clip-rule="evenodd" d="M18.87 10.6144C18.9852 11.1546 18.6407 11.6858 18.1006 11.801L13.7686 12.725C13.2285 12.8402 12.6972 12.4958 12.582 11.9556C12.4668 11.4155 12.8112 10.8842 13.3514 10.769L17.6834 9.84504C18.2235 9.72983 18.7548 10.0743 18.87 10.6144Z" fill="black"/>
<path fill-rule="evenodd" clip-rule="evenodd" d="M12.4478 13.8957C12.9418 13.6487 13.5424 13.8489 13.7894 14.3429L16.8944 20.5529C17.1414 21.0468 16.9412 21.6475 16.4472 21.8945C15.9532 22.1415 15.3526 21.9413 15.1056 21.4473L12.0006 15.2373C11.7536 14.7433 11.9538 14.1426 12.4478 13.8957Z" fill="black"/>
<path fill-rule="evenodd" clip-rule="evenodd" d="M18.788 2.27285C19.3022 2.14457 19.8463 2.22565 20.3008 2.49827C20.7553 2.7709 21.083 3.21278 21.212 3.72685L22.727 9.78714C22.727 9.78699 22.7271 9.78729 22.727 9.78714C22.8558 10.3015 22.775 10.8464 22.5025 11.3013C22.2298 11.7562 21.7875 12.0842 21.273 12.2131L20.1824 12.4853C19.4107 12.678 18.5938 12.5565 17.9117 12.1472C17.2296 11.738 16.7379 11.0745 16.5449 10.3028L15.5149 6.18265C15.322 5.41088 15.4436 4.59398 15.8529 3.91185C16.2622 3.22971 16.9256 2.73806 17.6973 2.54501L18.788 2.27285ZM18.4851 9.81744C18.4851 9.81739 18.4851 9.81749 18.4851 9.81744C18.5495 10.0746 18.7134 10.2959 18.9407 10.4323C19.1681 10.5687 19.4403 10.6092 19.6976 10.5449L20.787 10.2731L19.272 4.21338L18.1827 4.48523C18.1826 4.48525 18.1828 4.4852 18.1827 4.48523C17.9256 4.54963 17.7042 4.71354 17.5679 4.94084C17.4315 5.16817 17.3909 5.44037 17.4551 5.69758" fill="black"/>
<path fill-rule="evenodd" clip-rule="evenodd" d="M5.91547 7.66293C6.45126 7.52898 6.9942 7.85474 7.12815 8.39053L8.24215 12.8465C8.3761 13.3823 8.05033 13.9253 7.51454 14.0592C6.97874 14.1932 6.43581 13.8674 6.30186 13.3316L5.18786 8.8756C5.05391 8.33981 5.37967 7.79688 5.91547 7.66293Z" fill="black"/>
<path fill-rule="evenodd" clip-rule="evenodd" d="M11.5522 13.8957C12.0462 14.1426 12.2464 14.7433 11.9994 15.2373L8.89443 21.4473C8.64744 21.9413 8.04676 22.1415 7.55278 21.8945C7.05881 21.6475 6.85858 21.0468 7.10557 20.5529L10.2106 14.3429C10.4576 13.8489 11.0582 13.6487 11.5522 13.8957Z" fill="black"/>
<path fill-rule="evenodd" clip-rule="evenodd" d="M12 12.0001C11.4477 12.0001 11 12.4478 11 13.0001C11 13.5524 11.4477 14.0001 12 14.0001C12.5523 14.0001 13 13.5524 13 13.0001C13 12.4478 12.5523 12.0001 12 12.0001ZM8.99999 13.0001C8.99999 11.3432 10.3431 10.0001 12 10.0001C13.6568 10.0001 15 11.3432 15 13.0001C15 14.657 13.6568 16.0001 12 16.0001C10.3431 16.0001 8.99999 14.657 8.99999 13.0001Z" fill="black"/>
</svg>
