<svg width="24" height="24" viewBox="0 0 24 24" fill="none" xmlns="http://www.w3.org/2000/svg">
<path d="M11 20V14C11 13.4477 11.4477 13 12 13C12.5523 13 13 13.4477 13 14V20C13 20.5523 12.5523 21 12 21C11.4477 21 11 20.5523 11 20Z" fill="black"/>
<path d="M21.9998 13C22.552 13 22.9998 13.4477 22.9998 14C22.9998 14.5523 22.552 15 21.9998 15H19.656C19.1037 15 18.656 14.5523 18.656 14C18.656 13.4477 19.1037 13 19.656 13H21.9998Z" fill="black"/>
<path d="M14 13C14.5523 13 15 13.4477 15 14C15 14.5523 14.5523 15 14 15H2C1.44772 15 1 14.5523 1 14C1 13.4477 1.44772 13 2 13H14Z" fill="black"/>
<path d="M1.29289 1.29289C1.68342 0.902369 2.31643 0.902369 2.70696 1.29289L22.707 21.2929C23.0975 21.6834 23.0975 22.3164 22.707 22.707C22.3164 23.0975 21.6834 23.0975 21.2929 22.707L1.29289 2.70696C0.902369 2.31643 0.902369 1.68342 1.29289 1.29289Z" fill="black"/>
<path d="M1 18V6C1 5.20435 1.3163 4.44152 1.87891 3.87891C2.44152 3.3163 3.20435 3 4 3C4.55228 3 5 3.44772 5 4C5 4.55228 4.55228 5 4 5C3.73478 5 3.4805 5.10543 3.29297 5.29297C3.10543 5.4805 3 5.73478 3 6V18C3 18.2652 3.10543 18.5195 3.29297 18.707C3.48051 18.8946 3.73478 19 4 19H20C20.5523 19 21 19.4477 21 20C21 20.5523 20.5523 21 20 21H4C3.20435 21 2.44152 20.6837 1.87891 20.1211C1.3163 19.5585 1 18.7957 1 18Z" fill="black"/>
<path d="M20.9998 16.3438V6C20.9998 5.73478 20.8943 5.48051 20.7068 5.29297C20.5193 5.10551 20.2649 5 19.9998 5H9.65601C9.10372 5 8.65601 4.55228 8.65601 4C8.65601 3.44772 9.10372 3 9.65601 3H19.9998C20.7953 3 21.5583 3.31638 22.1208 3.87891C22.6835 4.44151 22.9998 5.20435 22.9998 6V16.3438C22.9998 16.896 22.552 17.3438 21.9998 17.3438C21.4476 17.3436 20.9998 16.896 20.9998 16.3438Z" fill="black"/>
</svg>
