<svg width="24" height="24" viewBox="0 0 24 24" fill="none" xmlns="http://www.w3.org/2000/svg">
<path d="M14 14.0001C14.5523 14.0001 15 14.4479 15 15.0001C15 15.5524 14.5523 16.0001 14 16.0001H10C9.44773 16.0001 9.00001 15.5524 9.00001 15.0001C9.00001 14.4479 9.44773 14.0001 10 14.0001H14Z" fill="black"/>
<path d="M7.64494 2.06329C8.2278 1.94312 8.83319 1.99955 9.3842 2.22442C9.92461 2.44497 10.388 2.81862 10.7192 3.29864L11.4682 4.33184L12.6586 4.09454C13.2603 3.94906 13.8928 3.99198 14.4692 4.22051C15.0639 4.45632 15.5674 4.87635 15.9067 5.41875C16.2459 5.96122 16.4032 6.59815 16.3549 7.23614C16.3069 7.87009 16.0573 8.47125 15.6449 8.95489L15.6459 8.95586L15.0942 9.61211L15.6479 10.4383C15.9552 10.8972 15.8323 11.5187 15.3735 11.826C14.9146 12.1333 14.2931 12.0105 13.9858 11.5516L13.0151 10.1014C12.7676 9.7317 12.7945 9.24291 13.0805 8.90215L14.1137 7.67071L14.1215 7.66094C14.2604 7.49923 14.3447 7.29737 14.3608 7.08477C14.3768 6.87223 14.3243 6.66003 14.2113 6.4793C14.0983 6.29848 13.9301 6.15849 13.7319 6.07989C13.5336 6.00128 13.3151 5.98858 13.1088 6.04278C13.0898 6.04777 13.0705 6.05161 13.0512 6.05547L11.2309 6.41973C10.8473 6.49634 10.4544 6.34202 10.225 6.0252L9.10002 4.47149C9.09333 4.46225 9.08686 4.45264 9.08049 4.44317C8.9697 4.27861 8.81201 4.15094 8.62834 4.07598C8.44467 4.00107 8.24253 3.98218 8.04826 4.02227C7.85406 4.06242 7.67647 4.16007 7.53752 4.30157C7.40686 4.43466 7.31754 4.60149 7.27678 4.78301L7.1381 6.62481C7.10573 7.05574 6.79984 7.41768 6.38029 7.52129L4.6967 7.93633C4.5052 7.99761 4.33606 8.1155 4.21232 8.27422C4.08629 8.4361 4.01279 8.63281 4.00236 8.8377C3.99198 9.04291 4.04538 9.24674 4.15471 9.42071C4.26404 9.59466 4.42431 9.7307 4.61369 9.81036L5.2631 10.077C5.77394 10.2869 6.01796 10.8718 5.80803 11.3826C5.59807 11.8931 5.01395 12.137 4.50334 11.9275L3.84611 11.657L3.8383 11.6541C3.27018 11.4152 2.78933 11.007 2.46135 10.4852C2.13338 9.96328 1.97418 9.35271 2.00529 8.73711C2.03643 8.12148 2.25619 7.52991 2.63518 7.04375C3.01415 6.55767 3.53408 6.20072 4.12346 6.02032L4.17619 6.00567L5.19768 5.75274L5.28752 4.5584L5.30217 4.44903C5.41189 3.86392 5.69365 3.32494 6.11076 2.9002C6.52788 2.47546 7.06192 2.18359 7.64494 2.06329Z" fill="black"/>
<path d="M15.8223 1.98493C16.2997 1.78637 16.8356 1.78032 17.3174 1.96833L17.3183 1.96931L20.8896 3.36579C21.1379 3.46313 21.3647 3.60942 21.5557 3.79548C21.7466 3.98153 21.8982 4.20418 22.0019 4.44978C22.1057 4.69536 22.1598 4.95955 22.1601 5.22614C22.1604 5.49261 22.107 5.75679 22.0039 6.00251L19.7441 11.3824C19.5302 11.8916 18.9437 12.1314 18.4346 11.9175C17.9254 11.7037 17.6865 11.1172 17.9004 10.608L20.1601 5.2281L16.5898 3.83161L15.666 5.95466C15.4455 6.46089 14.8559 6.6927 14.3496 6.47224C13.8433 6.25173 13.6115 5.66217 13.832 5.15583L14.7558 3.03376C14.9621 2.55953 15.3448 2.18361 15.8223 1.98493Z" fill="black"/>
<path d="M5 12.0001V19.0001C5 19.2654 5.10543 19.5196 5.29297 19.7072C5.4805 19.8947 5.73479 20.0001 6 20.0001H18C18.2652 20.0001 18.5195 19.8947 18.707 19.7072C18.8946 19.5196 19 19.2654 19 19.0001V12.0001H5ZM21 19.0001C21 19.7958 20.6837 20.5586 20.1211 21.1212C19.5585 21.6838 18.7956 22.0001 18 22.0001H6C5.20435 22.0001 4.44151 21.6838 3.8789 21.1212C3.3163 20.5586 3 19.7958 3 19.0001V12.006C2.99923 11.7456 3.04928 11.4875 3.14746 11.2462C3.24645 11.0031 3.39269 10.7816 3.57715 10.5949C3.76173 10.4081 3.98162 10.2593 4.22363 10.1574C4.46568 10.0554 4.72563 10.0017 4.98828 10.0001H19C19.5304 10.0001 20.039 10.211 20.4141 10.5861C20.7891 10.9612 21 11.4697 21 12.0001V19.0001Z" fill="black"/>
</svg>
