<svg width="24" height="24" viewBox="0 0 24 24" fill="none" xmlns="http://www.w3.org/2000/svg">
<path fill-rule="evenodd" clip-rule="evenodd" d="M14.4996 5.36207C13.3848 5.94289 12.6281 7.15883 12.9778 8.79069C13.04 9.08095 12.9701 9.38384 12.7868 9.6174C12.6036 9.85097 12.3261 9.99106 12.0294 9.99979C8.85324 10.0932 5.68317 8.90778 3.33188 6.77816C2.17217 10.5586 4.34465 14.8596 8.28737 16.0424C8.63589 16.147 8.90012 16.4326 8.97728 16.7882C9.05444 17.1437 8.93237 17.5132 8.65853 17.7528C7.72713 18.5678 6.62534 19.1673 5.44467 19.5427C12.655 21.746 20.3025 15.6204 19.0126 7.55821C18.9619 7.24158 19.0662 6.91986 19.2929 6.69312C19.4741 6.51196 19.6444 6.30804 19.8028 6.09257C19.5441 6.15625 19.27 6.20022 19 6.20022C18.7467 6.20022 18.5029 6.1041 18.3177 5.93128C17.1476 4.83916 15.636 4.76999 14.4996 5.36207ZM22 4.00022C22.9487 4.31645 22.9486 4.31663 22.9486 4.31682L22.9481 4.31822L22.9473 4.32076C22.9466 4.32271 22.9458 4.32517 22.9448 4.32812C22.9428 4.33404 22.9401 4.34196 22.9366 4.35179C22.9298 4.37144 22.9202 4.39876 22.9078 4.43302C22.8831 4.50149 22.8471 4.59795 22.8002 4.71659C22.7065 4.95331 22.5678 5.28134 22.3852 5.6534C22.0842 6.26658 21.6424 7.04387 21.0565 7.7289C22.3642 18.3197 10.6485 25.9321 1.44756 19.8338C1.07282 19.5854 0.909898 19.1175 1.04934 18.6901C1.18879 18.2626 1.59632 17.9808 2.04543 18.0013C3.40592 18.0631 4.7523 17.7816 5.9118 17.2018C1.55039 14.7956 -0.367473 9.10223 2.1214 4.52271C2.27902 4.23268 2.56962 4.03912 2.89799 4.00544C3.22635 3.97176 3.55019 4.10229 3.76341 4.35428C5.53204 6.44448 8.16421 7.75923 10.8911 7.97383C10.9017 5.98049 12.024 4.39669 13.5755 3.58837C15.2933 2.69335 17.5349 2.7488 19.3144 4.15302C19.4009 4.13205 19.5003 4.10333 19.6126 4.06538C19.8907 3.97138 20.1894 3.8409 20.4727 3.70216C20.7536 3.56455 21.0052 3.42584 21.1868 3.32119C21.2772 3.26912 21.3492 3.22612 21.3977 3.19675C21.4219 3.18208 21.4401 3.17086 21.4517 3.16365C21.4575 3.16005 21.4617 3.15746 21.4641 3.15595L21.466 3.15473C21.4661 3.15469 21.4662 3.15465 21.4662 3.15461C21.4661 3.15467 21.466 3.15473 22 4.00022ZM21.4662 3.15461C21.4663 3.15459 21.4663 3.15458 21.4663 3.15456C21.4664 3.15451 21.4665 3.15446 21.4665 3.15442C21.8238 2.92905 22.2842 2.95251 22.6168 3.21307C22.9495 3.47375 23.0824 3.91547 22.9487 4.31645L22 4.00022" fill="black"/>
</svg>
