<svg width="24" height="24" viewBox="0 0 24 24" fill="none" xmlns="http://www.w3.org/2000/svg">
<path d="M16.2929 1.29289C16.6834 0.902369 17.3164 0.902369 17.707 1.29289C18.0975 1.68342 18.0975 2.31643 17.707 2.70696L12.707 7.70696C12.3164 8.09748 11.6834 8.09748 11.2929 7.70696L6.29289 2.70696C5.90237 2.31643 5.90237 1.68342 6.29289 1.29289C6.68342 0.902369 7.31643 0.902369 7.70696 1.29289L11.9999 5.58586L16.2929 1.29289Z" fill="black"/>
<path d="M21 9C21 8.44772 20.5523 8 20 8H4C3.44772 8 3 8.44772 3 9V20C3 20.5523 3.44772 21 4 21H20C20.5523 21 21 20.5523 21 20V9ZM23 20C23 21.6569 21.6569 23 20 23H4C2.34315 23 1 21.6569 1 20V9C1 7.34315 2.34315 6 4 6H20C21.6569 6 23 7.34315 23 9V20Z" fill="black"/>
</svg>
