<svg width="24" height="24" viewBox="0 0 24 24" fill="none" xmlns="http://www.w3.org/2000/svg">
<path d="M13 18.9999V6.99992C13 6.7347 12.8946 6.48042 12.707 6.29289C12.5195 6.10535 12.2652 5.99992 12 5.99992H9C8.44771 5.99992 8 5.5522 8 4.99992C8 4.44763 8.44771 3.99992 9 3.99992H12C12.7956 3.99992 13.5585 4.31621 14.1211 4.87882C14.6837 5.44143 15 6.20427 15 6.99992V18.9999C15 19.5522 14.5523 19.9999 14 19.9999C13.4477 19.9999 13 19.5522 13 18.9999Z" fill="black"/>
<path d="M15 17.9999C15.5523 17.9999 16 18.4476 16 18.9999C16 19.5522 15.5523 19.9999 15 19.9999H9C8.44771 19.9999 8 19.5522 8 18.9999C8 18.4476 8.44771 17.9999 9 17.9999H15Z" fill="black"/>
<path d="M21 17.9999V14.3554L20.999 14.3544L17.5156 9.99992H14C13.4477 9.99992 13 9.5522 13 8.99992C13 8.44763 13.4477 7.99992 14 7.99992H17.5244L17.749 8.01359C17.9717 8.03977 18.1891 8.10342 18.3916 8.20206C18.6597 8.33272 18.8955 8.52142 19.0811 8.7548L22.5596 13.1044L22.6602 13.2402C22.8788 13.5655 22.9976 13.9492 23 14.3437V17.9999C23 18.5303 22.7891 19.0389 22.4141 19.414C22.039 19.7891 21.5304 19.9999 21 19.9999H19C18.4477 19.9999 18 19.5522 18 18.9999C18 18.4476 18.4477 17.9999 19 17.9999H21Z" fill="black"/>
<path d="M0.999999 17.9999V12.9999C0.999999 12.4476 1.44771 11.9999 2 11.9999C2.55228 11.9999 3 12.4476 3 12.9999V17.9999H5C5.55228 17.9999 6 18.4476 6 18.9999C6 19.5522 5.55228 19.9999 5 19.9999H3C2.46957 19.9999 1.96101 19.7891 1.58594 19.414C1.21086 19.0389 0.999999 18.5303 0.999999 17.9999Z" fill="black"/>
<path d="M3.24201 2.34757C3.60225 1.929 4.23356 1.8819 4.65217 2.2421C5.07076 2.60234 5.11785 3.23364 4.75764 3.65226L3.58967 5.00968H4.57209C4.82338 4.97779 5.07863 5.01137 5.3133 5.10734L5.43244 5.16203L5.54573 5.22648C5.76595 5.36641 5.94489 5.56283 6.06428 5.79484L6.11897 5.913L6.16291 6.03703C6.25193 6.32768 6.2486 6.64004 6.15217 6.93058C6.06154 7.20353 5.89209 7.44113 5.66877 7.61808L3.73225 9.70109C3.35609 10.1055 2.72354 10.128 2.31916 9.75187C1.91485 9.37576 1.89142 8.74317 2.26741 8.33878L3.50373 7.00968H2.49983C2.20564 7.01278 1.91686 6.92899 1.66975 6.76847C1.41376 6.60214 1.21457 6.36176 1.09944 6.07902C0.98431 5.79614 0.958081 5.48438 1.02522 5.18644L1.05549 5.07609C1.12593 4.84689 1.25033 4.63785 1.41877 4.46671L3.24201 2.34757Z" fill="black"/>
<path d="M18 18.9999C18 18.4476 17.5523 17.9999 17 17.9999C16.4477 17.9999 16 18.4476 16 18.9999C16 19.5522 16.4477 19.9999 17 19.9999C17.5523 19.9999 18 19.5522 18 18.9999ZM20 18.9999C20 20.6568 18.6569 21.9999 17 21.9999C15.3431 21.9999 14 20.6568 14 18.9999C14 17.3431 15.3431 15.9999 17 15.9999C18.6569 15.9999 20 17.3431 20 18.9999Z" fill="black"/>
<path d="M8 18.9999C8 18.4476 7.55228 17.9999 7 17.9999C6.44771 17.9999 6 18.4476 6 18.9999C6 19.5522 6.44771 19.9999 7 19.9999C7.55228 19.9999 8 19.5522 8 18.9999ZM10 18.9999C10 20.6568 8.65685 21.9999 7 21.9999C5.34315 21.9999 4 20.6568 4 18.9999C4 17.3431 5.34315 15.9999 7 15.9999C8.65685 15.9999 10 17.3431 10 18.9999Z" fill="black"/>
</svg>
