<svg width="24" height="24" viewBox="0 0 24 24" fill="none" xmlns="http://www.w3.org/2000/svg">
<path fill-rule="evenodd" clip-rule="evenodd" d="M6.99997 8C6.46954 8 5.96083 8.21071 5.58576 8.58579C5.21069 8.96086 4.99998 9.46957 4.99997 10V10.2C4.99997 10.6141 4.74478 10.9853 4.35818 11.1336C3.92594 11.2995 3.56461 11.6101 3.33584 12.0126C3.10707 12.4151 3.02501 12.8845 3.10367 13.3407C3.18233 13.797 3.41684 14.2118 3.76719 14.5144C4.11471 14.8146 4.55487 14.986 5.01367 15H8.89997L8.90544 15L8.90771 15C9.37613 15.0037 9.83095 14.8427 10.1929 14.5454C10.5548 14.248 10.8009 13.833 10.8881 13.3728C10.9754 12.9125 10.8984 12.4363 10.6705 12.027C10.4426 11.6178 10.0783 11.3015 9.64104 11.1334C9.25483 10.9848 8.99997 10.6138 8.99997 10.2V10C8.99997 9.46957 8.78926 8.96086 8.41419 8.58579C8.03912 8.21071 7.53041 8 6.99997 8ZM4.17155 7.17157C4.92169 6.42143 5.93911 6 6.99997 6C8.06084 6 9.07826 6.42143 9.8284 7.17157C10.4759 7.81903 10.8784 8.66558 10.9765 9.56733C11.5757 9.92573 12.0743 10.437 12.4178 11.0539C12.8736 11.8724 13.0277 12.825 12.8531 13.7454C12.6786 14.6659 12.1864 15.4959 11.4626 16.0906C10.7398 16.6845 9.83176 17.0063 8.89639 17H4.99997C4.99168 17 4.98339 16.9999 4.9751 16.9997C4.04946 16.9767 3.16048 16.6332 2.45978 16.0279C1.75908 15.4226 1.29007 14.593 1.13275 13.6806C0.97543 12.7681 1.13954 11.8293 1.59709 11.0243C1.94055 10.4201 2.4334 9.91928 3.02349 9.56683C3.12167 8.66527 3.52421 7.81891 4.17155 7.17157Z" fill="black"/>
<path fill-rule="evenodd" clip-rule="evenodd" d="M6.99998 15C7.55226 15 7.99998 15.4477 7.99998 16V22C7.99998 22.5523 7.55226 23 6.99998 23C6.44769 23 5.99998 22.5523 5.99998 22V16C5.99998 15.4477 6.44769 15 6.99998 15Z" fill="black"/>
<path fill-rule="evenodd" clip-rule="evenodd" d="M13 18C13.5523 18 14 18.4477 14 19V22C14 22.5523 13.5523 23 13 23C12.4477 23 12 22.5523 12 22V19C12 18.4477 12.4477 18 13 18Z" fill="black"/>
<path fill-rule="evenodd" clip-rule="evenodd" d="M13.0008 2C13.2783 2.00023 13.5432 2.11574 13.7322 2.3189L17.7232 6.60925C18.0047 6.89855 18.1922 7.26638 18.2608 7.66446C18.3304 8.06867 18.2741 8.48452 18.0995 8.85564C18.0035 9.05956 17.8744 9.24456 17.7184 9.4037L19.7294 11.6158C19.9951 11.8928 20.1755 12.2405 20.249 12.6175C20.3239 13.0018 20.2843 13.3996 20.1353 13.7616C20.0369 14.0005 19.8937 14.2168 19.7147 14.3996L21.7294 16.6158C21.9951 16.8928 22.1755 17.2405 22.249 17.6175C22.3239 18.0018 22.2844 18.3996 22.1353 18.7616C21.9862 19.1236 21.7342 19.4339 21.4105 19.654C21.0867 19.8741 20.7055 19.9944 20.314 19.9999C20.3093 20 20.3047 20 20.3 20H12C11.4477 20 11 19.5523 11 19C11 18.4477 11.4477 18 12 18H20.2858C20.2771 17.9911 20.2685 17.9819 20.26 17.9727L17.26 14.6727C16.9938 14.3798 16.9253 13.9574 17.0855 13.5954C17.2456 13.2335 17.6042 13 18 13H18.2858C18.2771 12.9911 18.2685 12.9819 18.26 12.9727L15.26 9.67267C14.9938 9.37979 14.9253 8.95743 15.0855 8.59545C15.2456 8.23347 15.6042 8 16 8H16.2C16.23 8 16.26 8.00135 16.2898 8.00404C16.2824 7.99651 16.275 7.98887 16.2678 7.9811L12.9988 4.4669L12.331 5.18232C11.9542 5.58607 11.3214 5.60789 10.9177 5.23106C10.5139 4.85422 10.4921 4.22143 10.8689 3.81768L12.2689 2.31768C12.4582 2.11484 12.7233 1.99977 13.0008 2Z" fill="black"/>
</svg>
