<svg width="24" height="24" viewBox="0 0 24 24" fill="none" xmlns="http://www.w3.org/2000/svg">
<path fill-rule="evenodd" clip-rule="evenodd" d="M14.5039 2.13638C14.9809 2.41466 15.1421 3.02698 14.8638 3.50403L4.36379 21.504C4.08551 21.9811 3.47319 22.1422 2.99614 21.8639C2.51908 21.5857 2.35795 20.9733 2.63623 20.4963L13.1362 2.49629C13.4145 2.01924 14.0268 1.8581 14.5039 2.13638Z" fill="black"/>
<path fill-rule="evenodd" clip-rule="evenodd" d="M9.49614 2.13638C9.97319 1.8581 10.5855 2.01924 10.8638 2.49629L21.3638 20.4963C21.6421 20.9733 21.4809 21.5857 21.0039 21.8639C20.5268 22.1422 19.9145 21.9811 19.6362 21.504L9.13623 3.50403C8.85795 3.02698 9.01908 2.41466 9.49614 2.13638Z" fill="black"/>
<path fill-rule="evenodd" clip-rule="evenodd" d="M12 14.0002C12.3557 14.0002 12.6846 14.1891 12.8638 14.4963L16.3638 20.4963C16.6421 20.9733 16.4809 21.5857 16.0039 21.8639C15.5268 22.1422 14.9145 21.9811 14.6362 21.504L12 16.9848L9.36378 21.504C9.08549 21.9811 8.47318 22.1422 7.99613 21.8639C7.51907 21.5857 7.35794 20.9733 7.63622 20.4963L11.1362 14.4963C11.3154 14.1891 11.6443 14.0002 12 14.0002Z" fill="black"/>
<path fill-rule="evenodd" clip-rule="evenodd" d="M1 21.0002C1 20.4479 1.44772 20.0002 2 20.0002H22C22.5523 20.0002 23 20.4479 23 21.0002C23 21.5524 22.5523 22.0002 22 22.0002H2C1.44772 22.0002 1 21.5524 1 21.0002Z" fill="black"/>
</svg>
