<svg width="24" height="24" viewBox="0 0 24 24" fill="none" xmlns="http://www.w3.org/2000/svg">
<path d="M15 16V12C15 11.4477 15.4477 11 16 11C16.5523 11 17 11.4477 17 12V16C17 16.5523 16.5523 17 16 17C15.4477 17 15 16.5523 15 16Z" fill="black"/>
<path d="M21 12C20.9999 11.7349 20.8945 11.4804 20.707 11.293L16.707 7.29297C16.543 7.12887 16.3275 7.02766 16.0986 7.00488L16 7H8C7.73488 7.00011 7.48041 7.10547 7.29297 7.29297L3.29297 11.293C3.10547 11.4804 3.00011 11.7349 3 12V19C3 19.2652 3.10543 19.5195 3.29297 19.707C3.48051 19.8946 3.73478 20 4 20H20C20.2652 20 20.5195 19.8946 20.707 19.707C20.8946 19.5195 21 19.2652 21 19V12ZM23 19C23 19.7957 22.6837 20.5585 22.1211 21.1211C21.5585 21.6837 20.7957 22 20 22H4C3.20435 22 2.44151 21.6837 1.87891 21.1211C1.3163 20.5585 1 19.7957 1 19V12C1.00017 11.2045 1.31632 10.4414 1.87891 9.87891L5.87891 5.87891L6.09863 5.67969C6.63237 5.24219 7.30383 5.00015 8 5H16C16.7955 5.00017 17.5586 5.31633 18.1211 5.87891L22.1211 9.87891L22.3203 10.0986C22.7578 10.6324 22.9999 11.3038 23 12V19Z" fill="black"/>
<path d="M15 6V4C15 3.73478 14.8946 3.48051 14.707 3.29297C14.5195 3.10543 14.2652 3 14 3H10C9.73478 3 9.4805 3.10543 9.29297 3.29297C9.10543 3.48051 9 3.73478 9 4V6C9 6.55228 8.55228 7 8 7C7.44772 7 7 6.55228 7 6V4C7 3.20435 7.3163 2.44151 7.87891 1.87891C8.44152 1.3163 9.20435 1 10 1H14C14.7956 1 15.5585 1.3163 16.1211 1.87891C16.6837 2.44151 17 3.20435 17 4V6C17 6.55228 16.5523 7 16 7C15.4477 7 15 6.55228 15 6Z" fill="black"/>
<path d="M22 13C22.5523 13 23 13.4477 23 14C23 14.5523 22.5523 15 22 15H2C1.44772 15 1 14.5523 1 14C1 13.4477 1.44772 13 2 13H22Z" fill="black"/>
<path d="M7 16V12C7 11.4477 7.44772 11 8 11C8.55228 11 9 11.4477 9 12V16C9 16.5523 8.55228 17 8 17C7.44772 17 7 16.5523 7 16Z" fill="black"/>
</svg>
