<svg width="24" height="24" viewBox="0 0 24 24" fill="none" xmlns="http://www.w3.org/2000/svg">
<path fill-rule="evenodd" clip-rule="evenodd" d="M5.00001 1C5.55229 1 6.00001 1.44772 6.00001 2C6.00001 4.70449 5.1881 6.86848 4.3779 8.35385C3.97271 9.0967 3.56597 9.6737 3.25626 10.0694C3.10123 10.2675 2.96997 10.4209 2.87457 10.5277C2.82685 10.5811 2.78804 10.6229 2.75965 10.6528C2.74545 10.6678 2.73385 10.6799 2.72503 10.6889C2.72063 10.6934 2.71691 10.6972 2.71392 10.7003C2.71242 10.7018 2.7111 10.7031 2.70997 10.7042L2.7084 10.7058C2.70809 10.7061 2.70711 10.7071 2.00001 10L2.70711 10.7071C2.31659 11.0976 1.68342 11.0976 1.2929 10.7071C0.903097 10.3173 0.902377 9.68576 1.29074 9.29506C1.29102 9.29477 1.29151 9.29427 1.29219 9.29357C1.29473 9.29097 1.29997 9.28555 1.30774 9.27734C1.3233 9.26093 1.34894 9.23339 1.38326 9.195C1.45192 9.11816 1.55503 8.9981 1.68125 8.83682C1.93404 8.5138 2.2773 8.0283 2.62211 7.39615C3.31191 6.13152 4.00001 4.29551 4.00001 2C4.00001 1.44772 4.44772 1 5.00001 1ZM1.29074 9.29506C1.2907 9.2951 1.29071 9.29508 1.29074 9.29506V9.29506Z" fill="black"/>
<path fill-rule="evenodd" clip-rule="evenodd" d="M19 1C19.5523 1 20 1.44772 20 2C20 4.29551 20.6881 6.13152 21.3779 7.39615C21.7227 8.0283 22.066 8.5138 22.3188 8.83682C22.445 8.9981 22.5481 9.11816 22.6168 9.195C22.6511 9.23339 22.6767 9.26093 22.6923 9.27734C22.7 9.28555 22.7053 9.29097 22.7078 9.29357C22.7085 9.29426 22.709 9.29476 22.7093 9.29505C23.0976 9.68575 23.0969 10.3173 22.7071 10.7071C22.3166 11.0976 21.6834 11.0976 21.2929 10.7071L22 10C21.2929 10.7071 21.2932 10.7074 21.2929 10.7071L21.2916 10.7058L21.29 10.7042C21.2889 10.7031 21.2876 10.7018 21.2861 10.7003C21.2831 10.6972 21.2794 10.6934 21.275 10.6889C21.2662 10.6799 21.2546 10.6678 21.2404 10.6528C21.212 10.6229 21.1732 10.5811 21.1254 10.5277C21.03 10.4209 20.8988 10.2675 20.7438 10.0694C20.434 9.6737 20.0273 9.0967 19.6221 8.35385C18.8119 6.86848 18 4.70449 18 2C18 1.44772 18.4477 1 19 1ZM22.7093 9.29505C22.7093 9.29507 22.7093 9.29509 22.7093 9.29505V9.29505Z" fill="black"/>
<path fill-rule="evenodd" clip-rule="evenodd" d="M10 1C10.5523 1 11 1.44772 11 2C11 6.95228 6.95229 11 2.00001 11C1.44772 11 1.00001 10.5523 1.00001 10C1.00001 9.44771 1.44772 9 2.00001 9C5.84772 9 9.00001 5.84772 9.00001 2C9.00001 1.44772 9.44772 1 10 1Z" fill="black"/>
<path fill-rule="evenodd" clip-rule="evenodd" d="M14 1C14.5523 1 15 1.44772 15 2C15 5.84772 18.1523 9 22 9C22.5523 9 23 9.44771 23 10C23 10.5523 22.5523 11 22 11C17.0477 11 13 6.95228 13 2C13 1.44772 13.4477 1 14 1Z" fill="black"/>
<path fill-rule="evenodd" clip-rule="evenodd" d="M1.29219 9.29357C1.68271 8.90305 2.31659 8.90237 2.70711 9.29289L2.00001 10C2.70711 9.29289 2.70684 9.29262 2.70711 9.29289L2.70824 9.29402L2.70956 9.29534C2.71049 9.29629 2.71155 9.29736 2.71273 9.29855C2.7151 9.30094 2.71794 9.30383 2.72125 9.30722C2.72787 9.314 2.73637 9.32279 2.7466 9.33354C2.76708 9.35503 2.79456 9.38444 2.82805 9.42151C2.89496 9.4956 2.98614 9.60064 3.09337 9.73468C3.30736 10.0022 3.58819 10.3888 3.86825 10.8789C4.426 11.8549 5.00001 13.2762 5.00001 15C5.00001 15.5523 4.55229 16 4.00001 16C3.44772 16 3.00001 15.5523 3.00001 15C3.00001 13.7238 2.57401 12.6451 2.13176 11.8711C1.91183 11.4862 1.69266 11.1853 1.53164 10.9841C1.45137 10.8837 1.3863 10.8091 1.34384 10.7621C1.32264 10.7386 1.30715 10.7221 1.29833 10.7128C1.29392 10.7082 1.29118 10.7054 1.29024 10.7044C1.29023 10.7044 1.29024 10.7044 1.29024 10.7044C0.902401 10.3137 0.902563 9.6832 1.29219 9.29357Z" fill="black"/>
<path fill-rule="evenodd" clip-rule="evenodd" d="M22.7078 9.29357C23.0975 9.6832 23.0976 10.3137 22.7098 10.7044C22.7089 10.7053 22.708 10.7062 22.7071 10.7071L22.0148 10.0148C22.7071 10.7071 22.7069 10.7073 22.7071 10.7071L22.7081 10.7062L22.7098 10.7044C22.7089 10.7054 22.7061 10.7082 22.7017 10.7128C22.6929 10.7221 22.6774 10.7386 22.6562 10.7621C22.6137 10.8091 22.5486 10.8837 22.4684 10.9841C22.3074 11.1853 22.0882 11.4862 21.8682 11.8711C21.426 12.6451 21 13.7238 21 15C21 15.5523 20.5523 16 20 16C19.4477 16 19 15.5523 19 15C19 13.2762 19.574 11.8549 20.1318 10.8789C20.4118 10.3888 20.6927 10.0022 20.9066 9.73468C21.0139 9.60064 21.105 9.4956 21.172 9.42151C21.2055 9.38444 21.2329 9.35503 21.2534 9.33354C21.2636 9.32279 21.2721 9.314 21.2788 9.30722C21.2821 9.30383 21.2849 9.30094 21.2873 9.29855C21.2885 9.29736 21.2895 9.29629 21.2905 9.29534L21.2918 9.29402C21.292 9.29375 21.2929 9.29289 22 10L21.2929 9.29289C21.6834 8.90237 22.3173 8.90305 22.7078 9.29357Z" fill="black"/>
<path fill-rule="evenodd" clip-rule="evenodd" d="M7.00001 15C7.00001 14.4477 7.44772 14 8.00001 14H16C16.5523 14 17 14.4477 17 15C17 15.5523 16.5523 16 16 16H8.00001C7.44772 16 7.00001 15.5523 7.00001 15Z" fill="black"/>
<path fill-rule="evenodd" clip-rule="evenodd" d="M4.00001 20C3.73479 20 3.48044 20.1054 3.2929 20.2929C3.10536 20.4804 3.00001 20.7348 3.00001 21V22C3.00001 22.5523 2.55229 23 2.00001 23C1.44772 23 1.00001 22.5523 1.00001 22V21C1.00001 20.2043 1.31608 19.4413 1.87869 18.8787C2.44129 18.3161 3.20436 18 4.00001 18H8.00001C8.79566 18 9.55872 18.3161 10.1213 18.8787C10.6839 19.4413 11 20.2043 11 21V22C11 22.5523 10.5523 23 10 23C9.44772 23 9.00001 22.5523 9.00001 22V21C9.00001 20.7348 8.89465 20.4804 8.70711 20.2929C8.51958 20.1054 8.26522 20 8.00001 20H4.00001Z" fill="black"/>
<path fill-rule="evenodd" clip-rule="evenodd" d="M16 20C15.7348 20 15.4804 20.1054 15.2929 20.2929C15.1054 20.4804 15 20.7348 15 21V22C15 22.5523 14.5523 23 14 23C13.4477 23 13 22.5523 13 22V21C13 20.2043 13.3161 19.4413 13.8787 18.8787C14.4413 18.3161 15.2044 18 16 18H20C20.7957 18 21.5587 18.3161 22.1213 18.8787C22.6839 19.4413 23 20.2043 23 21V22C23 22.5523 22.5523 23 22 23C21.4477 23 21 22.5523 21 22V21C21 20.7348 20.8946 20.4804 20.7071 20.2929C20.5196 20.1054 20.2652 20 20 20H16Z" fill="black"/>
</svg>
