<svg width="24" height="24" viewBox="0 0 24 24" fill="none" xmlns="http://www.w3.org/2000/svg">
<path d="M21 13V8H16C15.4477 8 15 7.55228 15 7C15 6.44772 15.4477 6 16 6H22C22.5523 6 23 6.44772 23 7V13C23 13.5523 22.5523 14 22 14C21.4477 14 21 13.5523 21 13Z" fill="black"/>
<path d="M21.2929 6.29289C21.6834 5.90237 22.3164 5.90237 22.707 6.29289C23.0975 6.68342 23.0975 7.31643 22.707 7.70696L14.207 16.207C13.8164 16.5975 13.1834 16.5975 12.7929 16.207L8.49992 11.914L2.70696 17.707C2.31643 18.0975 1.68342 18.0975 1.29289 17.707C0.902369 17.3164 0.902369 16.6834 1.29289 16.2929L7.79289 9.79289L7.86907 9.72453C8.26184 9.40418 8.84084 9.42678 9.20696 9.79289L13.4999 14.0859L21.2929 6.29289Z" fill="black"/>
</svg>
