<svg width="24" height="24" viewBox="0 0 24 24" fill="none" xmlns="http://www.w3.org/2000/svg">
<path d="M20 18C20.5523 18 21 18.4477 21 19C21 19.5523 20.5523 20 20 20H12C11.4477 20 11 19.5523 11 19C11 18.4477 11.4477 18 12 18H20Z" fill="black"/>
<path d="M3.29289 4.29289C3.68342 3.90237 4.31643 3.90237 4.70696 4.29289L10.707 10.2929C11.0975 10.6834 11.0975 11.3164 10.707 11.707L4.70696 17.707C4.31643 18.0975 3.68342 18.0975 3.29289 17.707C2.90237 17.3164 2.90237 16.6834 3.29289 16.2929L8.58586 10.9999L3.29289 5.70696C2.90237 5.31643 2.90237 4.68342 3.29289 4.29289Z" fill="black"/>
</svg>
