<svg width="24" height="24" viewBox="0 0 24 24" fill="none" xmlns="http://www.w3.org/2000/svg">
<path fill-rule="evenodd" clip-rule="evenodd" d="M4 3C3.44772 3 3 3.44772 3 4C3 4.55228 3.44772 5 4 5C4.55228 5 5 4.55228 5 4C5 3.44772 4.55228 3 4 3ZM1 4C1 2.34315 2.34315 1 4 1C5.65685 1 7 2.34315 7 4C7 5.65685 5.65685 7 4 7C2.34315 7 1 5.65685 1 4Z" fill="black"/>
<path fill-rule="evenodd" clip-rule="evenodd" d="M16.2929 1.29289C16.6834 0.902369 17.3166 0.902369 17.7071 1.29289L20.7071 4.29289C21.0976 4.68342 21.0976 5.31658 20.7071 5.70711C20.3166 6.09763 19.6834 6.09763 19.2929 5.70711L17 3.41421L14.7071 5.70711C14.3166 6.09763 13.6834 6.09763 13.2929 5.70711C12.9024 5.31658 12.9024 4.68342 13.2929 4.29289L16.2929 1.29289Z" fill="black"/>
<path fill-rule="evenodd" clip-rule="evenodd" d="M16.2929 6.29289C16.6834 5.90237 17.3166 5.90237 17.7071 6.29289L20.7071 9.29289C21.0976 9.68342 21.0976 10.3166 20.7071 10.7071C20.3166 11.0976 19.6834 11.0976 19.2929 10.7071L17 8.41421L14.7071 10.7071C14.3166 11.0976 13.6834 11.0976 13.2929 10.7071C12.9024 10.3166 12.9024 9.68342 13.2929 9.29289L16.2929 6.29289Z" fill="black"/>
<path fill-rule="evenodd" clip-rule="evenodd" d="M17 1C17.5523 1 18 1.44772 18 2V14C18 14.5523 17.5523 15 17 15C16.4477 15 16 14.5523 16 14V2C16 1.44772 16.4477 1 17 1Z" fill="black"/>
<path fill-rule="evenodd" clip-rule="evenodd" d="M6.152 13.47C6.33474 13.1776 6.65521 13 7 13H17C17.3448 13 17.6653 13.1776 17.848 13.47L22.848 21.47C23.0407 21.7783 23.0509 22.1668 22.8746 22.4848C22.6984 22.8027 22.3635 23 22 23H2C1.63648 23 1.30158 22.8027 1.12536 22.4848C0.949132 22.1668 0.959334 21.7783 1.152 21.47L6.152 13.47ZM7.55425 15L3.80425 21H20.1958L16.4458 15H7.55425Z" fill="black"/>
<path fill-rule="evenodd" clip-rule="evenodd" d="M8 13C8.55228 13 9 13.4477 9 14V22C9 22.5523 8.55228 23 8 23C7.44772 23 7 22.5523 7 22V14C7 13.4477 7.44772 13 8 13Z" fill="black"/>
<path fill-rule="evenodd" clip-rule="evenodd" d="M8.47 13.152C8.93833 12.8593 9.55529 13.0016 9.848 13.47L14.848 21.47C15.1407 21.9383 14.9983 22.5553 14.53 22.848C14.0617 23.1407 13.4447 22.9983 13.152 22.53L8.152 14.53C7.85929 14.0616 8.00166 13.4447 8.47 13.152Z" fill="black"/>
</svg>
