<svg width="24" height="24" viewBox="0 0 24 24" fill="none" xmlns="http://www.w3.org/2000/svg">
<path d="M19.9997 13H6.99966C6.44753 12.9998 5.99966 12.5522 5.99966 12C5.99966 11.4478 6.44753 11.0002 6.99966 11H19.9997C20.5301 11 21.0396 11.2109 21.4147 11.5859C21.7896 11.961 21.9997 12.4697 21.9997 13C21.9997 14.5912 21.3678 16.117 20.2428 17.2422C19.1882 18.2968 17.7811 18.9174 16.2985 18.9912L17.3698 20.7051C17.4762 20.8754 17.5471 21.0647 17.5788 21.2617L17.5973 21.4609L17.5895 21.6602C17.5682 21.8586 17.5072 22.0518 17.4098 22.2275C17.28 22.4616 17.0896 22.6562 16.859 22.792C16.6284 22.9278 16.3659 23 16.0983 23H5.402C5.13424 23 4.87098 22.9279 4.64028 22.792C4.40994 22.6562 4.22018 22.4614 4.09048 22.2275C3.96072 21.9934 3.896 21.7285 3.90298 21.4609L3.92153 21.2617C3.95322 21.0648 4.02318 20.8753 4.12954 20.7051L6.152 17.4697C6.44477 17.0015 7.06166 16.8597 7.52993 17.1523C7.99819 17.4451 8.141 18.062 7.84829 18.5303L6.30434 21H15.1969L14.1305 19.2949C13.9887 19.0679 13.91 18.8066 13.903 18.5391C13.896 18.2715 13.9607 18.0066 14.0905 17.7725L14.1989 17.6045C14.3178 17.4448 14.4676 17.3098 14.6403 17.208L14.819 17.1182C15.0029 17.0406 15.201 17 15.402 17H15.9997C17.0605 17 18.0786 16.5783 18.8288 15.8281C19.5787 15.078 19.9997 14.0607 19.9997 13Z" fill="black"/>
<path d="M14 12V4C14 3.73478 13.8946 3.48051 13.707 3.29297C13.5195 3.10543 13.2652 3 13 3H5C4.73478 3 4.4805 3.10543 4.29297 3.29297C4.10543 3.4805 4 3.73478 4 4V13C4 14.0609 4.42173 15.078 5.17188 15.8281C5.92202 16.5783 6.93913 17 8 17C8.55228 17 9 17.4477 9 18C9 18.5523 8.55228 19 8 19C6.4087 19 4.88303 18.3674 3.75781 17.2422C2.63259 16.117 2 14.5913 2 13V4C2 3.20435 2.3163 2.44152 2.87891 1.87891C3.44152 1.3163 4.20435 1 5 1H13C13.7956 1 14.5585 1.3163 15.1211 1.87891C15.6837 2.44151 16 3.20435 16 4V12C16 12.5523 15.5523 13 15 13C14.4477 13 14 12.5523 14 12Z" fill="black"/>
</svg>
