<svg width="24" height="24" viewBox="0 0 24 24" fill="none" xmlns="http://www.w3.org/2000/svg">
<path fill-rule="evenodd" clip-rule="evenodd" d="M12 3C9.61305 3 7.32387 3.94821 5.63604 5.63604C3.94821 7.32387 3 9.61305 3 12V22C3 22.5523 2.55228 23 2 23C1.44772 23 1 22.5523 1 22V12C1 9.08262 2.15893 6.28473 4.22183 4.22183C6.28473 2.15893 9.08262 1 12 1C14.9174 1 17.7153 2.15893 19.7782 4.22183C21.8411 6.28473 23 9.08262 23 12V22C23 22.5523 22.5523 23 22 23C21.4477 23 21 22.5523 21 22V12C21 9.61305 20.0518 7.32387 18.364 5.63604C16.6761 3.94821 14.3869 3 12 3Z" fill="black"/>
<path fill-rule="evenodd" clip-rule="evenodd" d="M9 5.8C9.55228 5.8 10 6.24772 10 6.8V8.2C10 8.65425 10.1927 9.10511 10.561 9.44884C10.9316 9.79475 11.4482 10 12 10C12.5518 10 13.0684 9.79475 13.439 9.44884C13.8073 9.10511 14 8.65425 14 8.2V6.8C14 6.24772 14.4477 5.8 15 5.8C15.5523 5.8 16 6.24772 16 6.8V8.2C16 9.23096 15.5606 10.2045 14.8036 10.911C14.049 11.6152 13.0395 12 12 12C10.9605 12 9.95096 11.6152 9.19636 10.911C8.43943 10.2045 8 9.23096 8 8.2V6.8C8 6.24772 8.44772 5.8 9 5.8Z" fill="black"/>
<path fill-rule="evenodd" clip-rule="evenodd" d="M9 15C9 14.4477 9.44772 14 10 14H10.01C10.5623 14 11.01 14.4477 11.01 15C11.01 15.5523 10.5623 16 10.01 16H10C9.44772 16 9 15.5523 9 15Z" fill="black"/>
<path fill-rule="evenodd" clip-rule="evenodd" d="M13 15C13 14.4477 13.4477 14 14 14H14.01C14.5623 14 15.01 14.4477 15.01 15C15.01 15.5523 14.5623 16 14.01 16H14C13.4477 16 13 15.5523 13 15Z" fill="black"/>
<path fill-rule="evenodd" clip-rule="evenodd" d="M12 7C10.6739 7 9.40215 7.52678 8.46447 8.46447C7.52678 9.40215 7 10.6739 7 12V15C7 15.7956 7.31607 16.5587 7.87868 17.1213C8.44129 17.6839 9.20435 18 10 18H14C14.7956 18 15.5587 17.6839 16.1213 17.1213C16.6839 16.5587 17 15.7956 17 15V12C17 10.6739 16.4732 9.40215 15.5355 8.46447C14.5979 7.52678 13.3261 7 12 7ZM7.05025 7.05025C8.36301 5.7375 10.1435 5 12 5C13.8565 5 15.637 5.7375 16.9497 7.05025C18.2625 8.36301 19 10.1435 19 12V15C19 16.3261 18.4732 17.5979 17.5355 18.5355C16.5979 19.4732 15.3261 20 14 20H10C8.67392 20 7.40215 19.4732 6.46447 18.5355C5.52678 17.5979 5 16.3261 5 15V12C5 10.1435 5.7375 8.36301 7.05025 7.05025Z" fill="black"/>
<path fill-rule="evenodd" clip-rule="evenodd" d="M9.55469 18.168C10.0142 18.4743 10.1384 19.0952 9.83204 19.5547L7.83204 22.5547C7.52569 23.0143 6.90482 23.1384 6.44529 22.8321C5.98576 22.5257 5.86159 21.9049 6.16794 21.4453L8.16794 18.4453C8.47429 17.9858 9.09516 17.8616 9.55469 18.168Z" fill="black"/>
<path fill-rule="evenodd" clip-rule="evenodd" d="M14.4453 18.168C14.9048 17.8616 15.5257 17.9858 15.832 18.4453L17.832 21.4453C18.1384 21.9049 18.0142 22.5257 17.5547 22.8321C17.0952 23.1384 16.4743 23.0143 16.1679 22.5547L14.1679 19.5547C13.8616 19.0952 13.9858 18.4743 14.4453 18.168Z" fill="black"/>
</svg>
