<svg width="24" height="24" viewBox="0 0 24 24" fill="none" xmlns="http://www.w3.org/2000/svg">
<path fill-rule="evenodd" clip-rule="evenodd" d="M4 9V19H20V9H4ZM2 9C2 7.89543 2.89543 7 4 7H20C21.1046 7 22 7.89543 22 9V19C22 20.1046 21.1046 21 20 21H4C2.89543 21 2 20.1046 2 19V9Z" fill="black"/>
<path fill-rule="evenodd" clip-rule="evenodd" d="M4.58579 3.58579C4.96086 3.21071 5.46957 3 6 3H9C9.52725 3 10.0443 3.18011 10.4321 3.56789C10.8199 3.95567 11 4.47275 11 5V8C11 8.55228 10.5523 9 10 9C9.44771 9 9 8.55228 9 8V5L6 5V8C6 8.55228 5.55228 9 5 9C4.44772 9 4 8.55228 4 8V5C4 4.46957 4.21071 3.96086 4.58579 3.58579Z" fill="black"/>
<path fill-rule="evenodd" clip-rule="evenodd" d="M13.5858 3.58579C13.9609 3.21071 14.4696 3 15 3H18C18.5272 3 19.0443 3.18011 19.4321 3.56789C19.8199 3.95567 20 4.47275 20 5V8C20 8.55228 19.5523 9 19 9C18.4477 9 18 8.55228 18 8V5L15 5V8C15 8.55228 14.5523 9 14 9C13.4477 9 13 8.55228 13 8V5C13 4.46957 13.2107 3.96086 13.5858 3.58579Z" fill="black"/>
</svg>
