<svg width="24" height="24" viewBox="0 0 24 24" fill="none" xmlns="http://www.w3.org/2000/svg">
<path d="M8.73432 16.4999C9.11376 16.4938 9.47052 16.7047 9.64447 17.0526L10.8945 19.5526C11.1415 20.0466 10.9412 20.6474 10.4472 20.8944C9.95323 21.1414 9.3524 20.9411 9.10541 20.4471L8.19037 18.6171L6.17865 18.9833C5.63531 19.082 5.11533 18.7219 5.01654 18.1786C4.9178 17.6353 5.27788 17.1153 5.82123 17.0165L8.57123 16.5165L8.73432 16.4999Z" fill="black"/>
<path d="M9.10541 3.5528C9.3524 3.05882 9.95323 2.85855 10.4472 3.10554C10.9412 3.35253 11.1415 3.95336 10.8945 4.44733L9.64447 6.94733C9.44572 7.34483 9.00848 7.56293 8.57123 7.48347L5.82123 6.98347C5.27788 6.88468 4.9178 6.3647 5.01654 5.82136C5.11533 5.27801 5.63531 4.91793 6.17865 5.01667L8.19037 5.3819L9.10541 3.5528Z" fill="black"/>
<path d="M10.585 14C11.1372 14 11.585 14.4477 11.585 15C11.585 15.5523 11.1372 16 10.585 16H10C9.44771 16 9 15.5523 9 15C9 14.4477 9.44771 14 10 14H10.585Z" fill="black"/>
<path d="M9.10547 8.5528C9.35246 8.05882 9.95329 7.85855 10.4473 8.10554C10.9412 8.35253 11.1415 8.95336 10.8945 9.44733L9.39453 12.4473C9.22514 12.7861 8.87877 13.0001 8.5 13.0001H2C1.44772 13.0001 1 12.5524 1 12.0001C1 11.4478 1.44772 11.0001 2 11.0001H7.88184L9.10547 8.5528Z" fill="black"/>
<path d="M18.9999 4C18.9999 3.73478 18.8944 3.48051 18.7069 3.29297C18.5194 3.10543 18.2651 3 17.9999 3C17.7347 3 17.4804 3.10543 17.2928 3.29297C17.1053 3.48051 16.9999 3.73478 16.9999 4V14.54C16.9999 14.8973 16.8093 15.2276 16.4999 15.4062C15.928 15.7365 15.4811 16.2463 15.2284 16.8564C14.9758 17.4664 14.9316 18.1425 15.1024 18.7803C15.2733 19.4181 15.6498 19.9818 16.1737 20.3838C16.6976 20.7858 17.3395 21.0039 17.9999 21.0039C18.6603 21.0039 19.3021 20.7858 19.8261 20.3838C20.3499 19.9818 20.7264 19.4181 20.8973 18.7803C21.0682 18.1425 21.024 17.4664 20.7714 16.8564C20.5187 16.2463 20.0718 15.7365 19.4999 15.4062C19.1905 15.2276 18.9999 14.8973 18.9999 14.54V4ZM20.9999 14.0039C21.7141 14.5395 22.2746 15.2593 22.619 16.0908C23.0402 17.1076 23.1147 18.2348 22.83 19.2979C22.5451 20.361 21.917 21.3007 21.0438 21.9707C20.1706 22.6407 19.1006 23.0039 17.9999 23.0039C16.8992 23.0039 15.8292 22.6407 14.9559 21.9707C14.0828 21.3007 13.4547 20.3609 13.1698 19.2979C12.8851 18.2348 12.9596 17.1076 13.3807 16.0908C13.7252 15.2593 14.2857 14.5395 14.9999 14.0039V4C14.9999 3.20435 15.3162 2.44151 15.8788 1.87891C16.4414 1.3163 17.2042 1 17.9999 1C18.7955 1 19.5584 1.3163 20.121 1.87891C20.6836 2.44152 20.9999 3.20435 20.9999 4V14.0039Z" fill="black"/>
<path d="M3.40035 9.20016C3.84217 8.86892 4.46844 8.95858 4.79977 9.40035L6.29977 11.4004C6.56628 11.7558 6.56628 12.2441 6.29977 12.5996L4.79977 14.5996C4.46844 15.0413 3.84217 15.131 3.40035 14.7998C2.95858 14.4684 2.86893 13.8422 3.20016 13.4004L4.24996 12L3.20016 10.5996C2.86893 10.1578 2.95858 9.53149 3.40035 9.20016Z" fill="black"/>
<path d="M8.0528 11.1055C8.54678 10.8585 9.14761 11.0588 9.3946 11.5528L10.8946 14.5528C11.0354 14.8343 11.0354 15.1658 10.8946 15.4473L7.8946 21.4473C7.64761 21.9413 7.04678 22.1416 6.5528 21.8946C6.05882 21.6476 5.85855 21.0468 6.10554 20.5528L8.8819 15.0001L7.60554 12.4473C7.35855 11.9534 7.55882 11.3525 8.0528 11.1055Z" fill="black"/>
<path d="M6.5528 2.10554C7.04678 1.85855 7.64761 2.05882 7.8946 2.5528L10.6182 8.00007H12.0001C12.5524 8.00007 13.0001 8.44778 13.0001 9.00007C13.0001 9.55235 12.5524 10.0001 12.0001 10.0001H10.0001C9.6213 10.0001 9.27493 9.78612 9.10554 9.44733L6.10554 3.44733C5.85855 2.95336 6.05882 2.35253 6.5528 2.10554Z" fill="black"/>
</svg>
