<svg width="24" height="24" viewBox="0 0 24 24" fill="none" xmlns="http://www.w3.org/2000/svg">
<path fill-rule="evenodd" clip-rule="evenodd" d="M12 4C11.4696 4 10.9608 4.21071 10.5858 4.58579C10.2107 4.96086 9.99999 5.46957 9.99999 6V6.03C9.99999 6.32052 9.87365 6.59667 9.65384 6.78663C9.43402 6.97658 9.14247 7.06155 8.85502 7.01944C8.35841 6.94667 7.8514 7.02508 7.39996 7.24444C6.94852 7.4638 6.57356 7.81397 6.32388 8.24937C6.0742 8.68478 5.96135 9.18525 6.00003 9.68567C6.03871 10.1861 6.22711 10.6633 6.54073 11.0552C6.71549 11.2735 6.79082 11.5551 6.74845 11.8315C6.70608 12.1079 6.54988 12.354 6.31775 12.51C5.78364 12.8689 5.37909 13.3901 5.16384 13.9965C4.94859 14.6029 4.93404 15.2625 5.12234 15.8779C5.31064 16.4932 5.69181 17.0317 6.20957 17.4138C6.72733 17.7959 7.35425 18.0014 7.99775 18L15.9985 18C15.9983 18 15.9988 18 15.9985 18C16.6397 17.9989 17.2644 17.7924 17.7796 17.4108C18.295 17.0291 18.6746 16.4922 18.8625 15.879C19.0504 15.2657 19.0368 14.6083 18.8237 14.0034C18.6107 13.3984 18.2093 12.8776 17.6785 12.5175C17.4477 12.3609 17.2928 12.1151 17.2512 11.8393C17.2096 11.5635 17.285 11.2829 17.4592 11.0652C17.7729 10.6733 17.9613 10.1961 17.9999 9.69567C18.0386 9.19525 17.9258 8.69478 17.6761 8.25937C17.4264 7.82397 17.0515 7.4738 16.6 7.25444C16.1486 7.03508 15.6416 6.95667 15.145 7.02944C14.8575 7.07155 14.566 6.98658 14.3461 6.79663C14.1263 6.60667 14 6.33052 14 6.04V6C14 5.46957 13.7893 4.96086 13.4142 4.58579C13.0391 4.21071 12.5304 4 12 4ZM9.17156 3.17157C9.92171 2.42143 10.9391 2 12 2C13.0609 2 14.0783 2.42143 14.8284 3.17157C15.3425 3.68564 15.7022 4.32522 15.8777 5.01829C16.4294 5.06384 16.9709 5.21106 17.4741 5.45557C18.2867 5.85043 18.9616 6.48073 19.4111 7.26445C19.8605 8.04818 20.0636 8.94903 19.994 9.84979C19.9499 10.4205 19.7976 10.9745 19.5483 11.4832C20.0651 12.0055 20.4634 12.6383 20.7102 13.3389C21.0653 14.3472 21.0879 15.4428 20.7747 16.4649C20.4615 17.487 19.829 18.3818 18.9699 19.0181C18.1108 19.6543 17.0705 19.9984 16.0015 20L8.00108 20C6.92898 20.0022 5.88456 19.6597 5.02193 19.023C4.159 18.3861 3.52371 17.4887 3.20988 16.4631C2.89605 15.4375 2.9203 14.3382 3.27905 13.3275C3.52827 12.6254 3.92973 11.9918 4.45007 11.4699C4.20174 10.9621 4.04999 10.4093 4.00598 9.83979C3.93636 8.93903 4.13948 8.03818 4.58891 7.25445C5.03834 6.47073 5.71326 5.84043 6.52585 5.44557C7.02983 5.20067 7.5723 5.05338 8.12492 5.00807C8.30134 4.31894 8.66002 3.68311 9.17156 3.17157Z" fill="black"/>
<path fill-rule="evenodd" clip-rule="evenodd" d="M12 18C12.5523 18 13 18.4477 13 19V22C13 22.5523 12.5523 23 12 23C11.4477 23 11 22.5523 11 22V19C11 18.4477 11.4477 18 12 18Z" fill="black"/>
</svg>
