<svg width="24" height="24" viewBox="0 0 24 24" fill="none" xmlns="http://www.w3.org/2000/svg">
<path fill-rule="evenodd" clip-rule="evenodd" d="M3.63604 7.63604C5.32387 5.94821 7.61305 5 10 5C12.3869 5 14.6761 5.94821 16.364 7.63604C18.0518 9.32387 19 11.6131 19 14V17C19 17.5304 18.7893 18.0391 18.4142 18.4142C18.0391 18.7893 17.5304 19 17 19H15C14.4696 19 13.9609 18.7893 13.5858 18.4142C13.2107 18.0391 13 17.5304 13 17V14.2361L11.382 11H8.61803L7 14.2361V17C7 17.5304 6.78929 18.0391 6.41421 18.4142C6.03914 18.7893 5.53043 19 5 19H3C2.46957 19 1.96086 18.7893 1.58579 18.4142C1.21071 18.0391 1 17.5304 1 17V14C1 11.6131 1.94821 9.32387 3.63604 7.63604ZM10 7C8.14348 7 6.36301 7.7375 5.05025 9.05025C3.7375 10.363 3 12.1435 3 14V17H5V14C5 13.8448 5.03614 13.6916 5.10557 13.5528L7.10557 9.55279C7.27496 9.214 7.62123 9 8 9H12C12.3788 9 12.725 9.214 12.8944 9.55279L14.8944 13.5528C14.9639 13.6916 15 13.8448 15 14V17H17V14C17 12.1435 16.2625 10.363 14.9497 9.05025C13.637 7.7375 11.8565 7 10 7Z" fill="black"/>
<path fill-rule="evenodd" clip-rule="evenodd" d="M3.98549 7.34897C4.28983 6.88811 4.91015 6.76122 5.37102 7.06557L8.55101 9.16557C9.01188 9.46991 9.13876 10.0902 8.83442 10.5511C8.53008 11.012 7.90975 11.1388 7.44889 10.8345L4.26889 8.7345C3.80803 8.43015 3.68115 7.80983 3.98549 7.34897Z" fill="black"/>
<path fill-rule="evenodd" clip-rule="evenodd" d="M16.0145 7.34897C16.3188 7.80983 16.192 8.43015 15.7311 8.7345L12.5511 10.8345C12.0902 11.1388 11.4699 11.012 11.1656 10.5511C10.8612 10.0902 10.9881 9.46991 11.449 9.16557L14.629 7.06557C15.0898 6.76122 15.7102 6.88811 16.0145 7.34897Z" fill="black"/>
<path fill-rule="evenodd" clip-rule="evenodd" d="M15.93 10C15.93 9.44772 16.3777 9 16.93 9H20C20.7957 9 21.5587 9.31607 22.1213 9.87868C22.6839 10.4413 23 11.2043 23 12C23 12.7957 22.6839 13.5587 22.1213 14.1213C21.5587 14.6839 20.7957 15 20 15H2C1.44772 15 1 14.5523 1 14C1 13.4477 1.44772 13 2 13H20C20.2652 13 20.5196 12.8946 20.7071 12.7071C20.8946 12.5196 21 12.2652 21 12C21 11.7348 20.8946 11.4804 20.7071 11.2929C20.5196 11.1054 20.2652 11 20 11H16.93C16.3777 11 15.93 10.5523 15.93 10Z" fill="black"/>
</svg>
