<svg width="24" height="24" viewBox="0 0 24 24" fill="none" xmlns="http://www.w3.org/2000/svg">
<path fill-rule="evenodd" clip-rule="evenodd" d="M8.99999 2C8.99999 1.44772 9.4477 1 9.99999 1H14C14.5523 1 15 1.44772 15 2C15 2.55228 14.5523 3 14 3H9.99999C9.4477 3 8.99999 2.55228 8.99999 2Z" fill="black"/>
<path fill-rule="evenodd" clip-rule="evenodd" d="M12 9C12.5523 9 13 9.44772 13 10V14C13 14.5523 12.5523 15 12 15C11.4477 15 11 14.5523 11 14V10C11 9.44772 11.4477 9 12 9Z" fill="black"/>
<path fill-rule="evenodd" clip-rule="evenodd" d="M11.9922 6.99998C10.2778 6.98654 8.61803 7.60275 7.32777 8.73173C6.0375 9.86071 5.20643 11.424 4.99218 13.125C4.92316 13.6729 4.423 14.0612 3.87505 13.9922C3.32709 13.9232 2.93884 13.423 3.00785 12.875C3.28333 10.688 4.35184 8.67813 6.01076 7.22658C7.66882 5.77577 9.80143 4.98357 12.0045 5.00002C13.4591 5.00211 14.8916 5.35676 16.1792 6.03362C17.4678 6.711 18.5729 7.69087 19.3996 8.88916C20.2263 10.0875 20.75 11.4684 20.9257 12.9136C21.1014 14.3587 20.924 15.825 20.4086 17.1865C19.8931 18.548 19.0551 19.7641 17.9664 20.7306C16.8777 21.6971 15.5708 22.385 14.1578 22.7354C12.7448 23.0858 11.2679 23.0882 9.85371 22.7424C8.43958 22.3966 7.13043 21.7129 6.03858 20.75L6.03565 20.7474L3.33565 18.3474C2.92287 17.9805 2.88569 17.3484 3.25261 16.9356C3.61952 16.5229 4.2516 16.4857 4.66438 16.8526L7.36145 19.25L7.36283 19.2512C8.21177 19.9995 9.22949 20.5309 10.3288 20.7997C11.4287 21.0686 12.5774 21.0667 13.6764 20.7942C14.7754 20.5217 15.7919 19.9866 16.6386 19.2349C17.4854 18.4832 18.1372 17.5373 18.5381 16.4784C18.939 15.4194 19.077 14.279 18.9403 13.155C18.8036 12.031 18.3963 10.9569 17.7533 10.0249C17.1103 9.0929 16.2508 8.33078 15.2486 7.80393C14.2463 7.27707 13.1312 7.00121 11.999 7.00001C11.9967 7.00001 11.9944 7 11.9922 6.99998Z" fill="black"/>
<path fill-rule="evenodd" clip-rule="evenodd" d="M2.99999 17C2.99999 16.4477 3.4477 16 3.99999 16H8.99999C9.55227 16 9.99999 16.4477 9.99999 17C9.99999 17.5523 9.55227 18 8.99999 18H4.99999V22C4.99999 22.5523 4.55227 23 3.99999 23C3.4477 23 2.99999 22.5523 2.99999 22V17Z" fill="black"/>
</svg>
