<svg width="24" height="24" viewBox="0 0 24 24" fill="none" xmlns="http://www.w3.org/2000/svg">
<path d="M11 22V16C11 15.4477 11.4477 15 12 15C12.5523 15 13 15.4477 13 16V22C13 22.5523 12.5523 23 12 23C11.4477 23 11 22.5523 11 22Z" fill="black"/>
<path d="M14 19C14.5523 19 15 19.4477 15 20C15 20.5523 14.5523 21 14 21H10C9.44771 21 9 20.5523 9 20C9 19.4477 9.44771 19 10 19H14Z" fill="black"/>
<path d="M21 6V3H18C17.4477 3 17 2.55228 17 2C17 1.44772 17.4477 1 18 1H22C22.5523 1 23 1.44772 23 2V6C23 6.55228 22.5523 7 22 7C21.4477 7 21 6.55228 21 6Z" fill="black"/>
<path d="M1.29297 1.29297C1.68349 0.902444 2.31651 0.902444 2.70703 1.29297L9.87695 8.46289C10.2675 8.85341 10.2675 9.48643 9.87695 9.87695C9.48643 10.2675 8.85341 10.2675 8.46289 9.87695L1.29297 2.70703C0.902444 2.31651 0.902444 1.68349 1.29297 1.29297Z" fill="black"/>
<path d="M1 5.35547V2C1 1.44772 1.44772 1 2 1H5.35742C5.90951 1.00023 6.35742 1.44786 6.35742 2C6.35742 2.55214 5.90951 2.99977 5.35742 3H3V5.35547C2.99975 5.90754 2.55213 6.35547 2 6.35547C1.44787 6.35547 1.00025 5.90754 1 5.35547Z" fill="black"/>
<path d="M21.2929 1.29297C21.6834 0.902457 22.3164 0.902483 22.707 1.29297C23.0975 1.68349 23.0975 2.31651 22.707 2.70703L15.537 9.87695C15.1465 10.2675 14.5135 10.2675 14.123 9.87695C13.7325 9.48643 13.7325 8.8534 14.123 8.46289L21.2929 1.29297Z" fill="black"/>
<path d="M7.29297 4.29297C7.68349 3.90244 8.31651 3.90244 8.70703 4.29297C9.09756 4.68349 9.09756 5.31651 8.70703 5.70703L5.70703 8.70703C5.31651 9.09756 4.68349 9.09756 4.29297 8.70703C3.90244 8.31651 3.90244 7.68349 4.29297 7.29297L7.29297 4.29297Z" fill="black"/>
<path d="M15 12C15 10.3431 13.6569 9 12 9C10.3431 9 9 10.3431 9 12C9 13.6569 10.3431 15 12 15C13.6569 15 15 13.6569 15 12ZM17 12C17 14.7614 14.7614 17 12 17C9.23858 17 7 14.7614 7 12C7 9.23858 9.23858 7 12 7C14.7614 7 17 9.23858 17 12Z" fill="black"/>
</svg>
