<svg width="24" height="24" viewBox="0 0 24 24" fill="none" xmlns="http://www.w3.org/2000/svg">
<path fill-rule="evenodd" clip-rule="evenodd" d="M4 4C3.73478 4 3.48043 4.10536 3.29289 4.29289C3.10536 4.48043 3 4.73478 3 5V8C3 8.26522 3.10536 8.51957 3.29289 8.70711C3.48043 8.89464 3.73478 9 4 9C4.26522 9 4.51957 8.89464 4.70711 8.70711C4.89464 8.51957 5 8.26522 5 8V7.5C5 7.10217 5.15804 6.72064 5.43934 6.43934C5.72064 6.15804 6.10217 6 6.5 6H9.5C9.89782 6 10.2794 6.15804 10.5607 6.43934C10.842 6.72065 11 7.10218 11 7.5V16.5C11 16.8978 10.842 17.2794 10.5607 17.5607C10.2794 17.842 9.89782 18 9.5 18H9C8.73478 18 8.48043 18.1054 8.29289 18.2929C8.10536 18.4804 8 18.7348 8 19C8 19.2652 8.10536 19.5196 8.29289 19.7071C8.48043 19.8946 8.73478 20 9 20H15C15.2652 20 15.5196 19.8946 15.7071 19.7071C15.8946 19.5196 16 19.2652 16 19C16 18.7348 15.8946 18.4804 15.7071 18.2929C15.5196 18.1054 15.2652 18 15 18H14.5C14.1022 18 13.7206 17.842 13.4393 17.5607C13.158 17.2794 13 16.8978 13 16.5V7.5C13 7.10218 13.158 6.72065 13.4393 6.43934C13.7206 6.15804 14.1022 6 14.5 6H17.5C17.8978 6 18.2794 6.15804 18.5607 6.43934C18.842 6.72065 19 7.10218 19 7.5V8C19 8.26522 19.1054 8.51957 19.2929 8.70711C19.4804 8.89464 19.7348 9 20 9C20.2652 9 20.5196 8.89464 20.7071 8.70711C20.8946 8.51957 21 8.26522 21 8V5C21 4.73478 20.8946 4.48043 20.7071 4.29289C20.5196 4.10536 20.2652 4 20 4H4ZM1.87868 2.87868C2.44129 2.31607 3.20435 2 4 2H20C20.7956 2 21.5587 2.31607 22.1213 2.87868C22.6839 3.44129 23 4.20435 23 5V8C23 8.79565 22.6839 9.55871 22.1213 10.1213C21.5587 10.6839 20.7957 11 20 11C19.2043 11 18.4413 10.6839 17.8787 10.1213C17.3161 9.55871 17 8.79565 17 8H15V16C15.7957 16 16.5587 16.3161 17.1213 16.8787C17.6839 17.4413 18 18.2043 18 19C18 19.7957 17.6839 20.5587 17.1213 21.1213C16.5587 21.6839 15.7957 22 15 22H9C8.20435 22 7.44129 21.6839 6.87868 21.1213C6.31607 20.5587 6 19.7956 6 19C6 18.2043 6.31607 17.4413 6.87868 16.8787C7.44129 16.3161 8.20435 16 9 16V8H7C7 8.79565 6.68393 9.55871 6.12132 10.1213C5.55871 10.6839 4.79565 11 4 11C3.20435 11 2.44129 10.6839 1.87868 10.1213C1.31607 9.55871 1 8.79565 1 8V5C1 4.20435 1.31607 3.44129 1.87868 2.87868Z" fill="black"/>
</svg>
