<svg width="24" height="24" viewBox="0 0 24 24" fill="none" xmlns="http://www.w3.org/2000/svg">
<path d="M12.0108 1.99953C12.5945 2.0016 13.1652 2.17419 13.6524 2.49562C14.1395 2.81704 14.5224 3.27343 14.754 3.8091C14.9731 4.31605 14.7394 4.90442 14.2325 5.12355C13.7256 5.34258 13.1372 5.10981 12.918 4.60305C12.8408 4.42444 12.7133 4.27172 12.5509 4.16457C12.3885 4.05751 12.1984 4.00027 12.004 3.99953C11.8094 3.99884 11.6183 4.05467 11.4551 4.16066C11.292 4.26665 11.1635 4.4182 11.085 4.59621C10.8623 5.1016 10.2721 5.33065 9.76667 5.10793C9.26135 4.88518 9.03225 4.29492 9.25495 3.78957C9.49036 3.25548 9.87682 2.80185 10.3663 2.48391C10.8558 2.166 11.4272 1.99746 12.0108 1.99953Z" fill="black"/>
<path d="M16 20C16.5523 20 17 20.4477 17 21C17 21.5523 16.5523 22 16 22H14C13.4477 22 13 21.5523 13 21C13 20.4477 13.4477 20 14 20H16Z" fill="black"/>
<path d="M15.374 6.87678C15.8523 6.60071 16.4641 6.76473 16.7402 7.24299L17.7402 8.97541C18.016 9.45359 17.852 10.0645 17.374 10.3406C16.8958 10.6168 16.284 10.4535 16.0078 9.97541L15.0078 8.24299C14.7317 7.76472 14.8957 7.15291 15.374 6.87678Z" fill="black"/>
<path d="M18.349 12.0858C18.8273 11.8097 19.4391 11.9737 19.7152 12.452L20.7152 14.1844C20.991 14.6626 20.827 15.2735 20.349 15.5496C19.8708 15.8258 19.259 15.6625 18.9828 15.1844L17.9828 13.452C17.7067 12.9737 17.8707 12.3619 18.349 12.0858Z" fill="black"/>
<path d="M21.4118 17.2689C21.915 17.0413 22.5075 17.2647 22.7351 17.7679C22.9423 18.2262 23.0309 18.7293 22.9929 19.2308C22.9548 19.7324 22.7914 20.2171 22.5173 20.639C22.2433 21.0606 21.8673 21.4063 21.4245 21.6448C20.9818 21.8834 20.486 22.0073 19.9831 22.0042C19.4309 22.0007 18.9855 21.5497 18.989 20.9974C18.9926 20.4454 19.4429 20.001 19.9949 20.0042C20.1625 20.0053 20.3287 19.9636 20.4763 19.8841C20.6237 19.8046 20.7493 19.6896 20.8406 19.5491C20.9319 19.4085 20.9861 19.2466 20.9988 19.0794C21.0114 18.9123 20.9818 18.7448 20.9128 18.5921C20.6853 18.0889 20.9087 17.4965 21.4118 17.2689Z" fill="black"/>
<path d="M1.27681 17.7411C1.50857 17.2398 2.10365 17.0211 2.60493 17.2528C3.10617 17.4846 3.32394 18.0796 3.09224 18.5809C3.02154 18.7341 2.99142 18.9029 3.00337 19.0711C3.01536 19.2395 3.06981 19.4021 3.16157 19.5438C3.25336 19.6854 3.37905 19.802 3.52778 19.8817C3.67659 19.9615 3.84333 20.0018 4.01216 19.9999C4.56438 19.9934 5.01733 20.4359 5.02388 20.9881C5.03038 21.5404 4.58784 21.9934 4.0356 21.9999C3.5293 22.0058 3.02974 21.8835 2.58345 21.6444C2.13699 21.405 1.75827 21.0559 1.48286 20.6307C1.20753 20.2056 1.04415 19.718 1.00825 19.2127C0.972359 18.7075 1.06427 18.2009 1.27681 17.7411Z" fill="black"/>
<path d="M4.26978 12.452C4.54591 11.9737 5.15772 11.8097 5.63599 12.0858C6.11425 12.3619 6.27828 12.9737 6.0022 13.452L5.0022 15.1844C4.72599 15.6625 4.11421 15.8258 3.63599 15.5496C3.15796 15.2735 2.99399 14.6626 3.26978 14.1844L4.26978 12.452Z" fill="black"/>
<path d="M9.99999 20C10.5523 20 11 20.4477 11 21C11 21.5523 10.5523 22 9.99999 22H7.99999C7.44771 22 6.99999 21.5523 6.99999 21C6.99999 20.4477 7.44771 20 7.99999 20H9.99999Z" fill="black"/>
<path d="M7.23578 7.24299C7.51191 6.76473 8.12372 6.60071 8.60199 6.87678C9.08025 7.15291 9.24428 7.76472 8.9682 8.24299L7.9682 9.97541C7.69199 10.4535 7.08021 10.6168 6.60199 10.3406C6.12396 10.0645 5.95999 9.45359 6.23578 8.97541L7.23578 7.24299Z" fill="black"/>
</svg>
