<svg width="24" height="24" viewBox="0 0 24 24" fill="none" xmlns="http://www.w3.org/2000/svg">
<path fill-rule="evenodd" clip-rule="evenodd" d="M7 3C4.79086 3 3 4.79086 3 7C3 9.20914 4.79086 11 7 11C9.20914 11 11 9.20914 11 7C11 4.79086 9.20914 3 7 3ZM1 7C1 3.68629 3.68629 1 7 1C10.3137 1 13 3.68629 13 7C13 10.3137 10.3137 13 7 13C3.68629 13 1 10.3137 1 7Z" fill="black"/>
<path fill-rule="evenodd" clip-rule="evenodd" d="M17 13C14.7909 13 13 14.7909 13 17C13 19.2091 14.7909 21 17 21C19.2091 21 21 19.2091 21 17C21 14.7909 19.2091 13 17 13ZM11 17C11 13.6863 13.6863 11 17 11C20.3137 11 23 13.6863 23 17C23 20.3137 20.3137 23 17 23C13.6863 23 11 20.3137 11 17Z" fill="black"/>
<path fill-rule="evenodd" clip-rule="evenodd" d="M11 17C11 16.4477 11.4477 16 12 16H22C22.5523 16 23 16.4477 23 17C23 17.5523 22.5523 18 22 18H12C11.4477 18 11 17.5523 11 17Z" fill="black"/>
<path fill-rule="evenodd" clip-rule="evenodd" d="M11.2471 2.75289C11.6376 3.14342 11.6376 3.77658 11.2471 4.16711L4.16711 11.2471C3.77658 11.6376 3.14342 11.6376 2.75289 11.2471C2.36237 10.8566 2.36237 10.2234 2.75289 9.83289L9.83289 2.75289C10.2234 2.36237 10.8566 2.36237 11.2471 2.75289Z" fill="black"/>
</svg>
