<svg width="24" height="24" viewBox="0 0 24 24" fill="none" xmlns="http://www.w3.org/2000/svg">
<path d="M10.0098 11.01C10.562 11.01 11.0098 11.4577 11.0098 12.01C11.0098 12.5623 10.562 13.01 10.0098 13.01H10C9.44771 13.01 9 12.5623 9 12.01C9 11.4577 9.44771 11.01 10 11.01H10.0098Z" fill="black"/>
<path d="M17.0003 12V8C17.0003 7.44772 17.448 7 18.0003 7C18.5525 7.00017 19.0003 7.44782 19.0003 8V12L18.9954 12.2959C18.9474 13.7728 18.536 15.2173 17.7962 16.5C17.5202 16.9782 16.9083 17.1421 16.43 16.8662C15.9518 16.5902 15.7879 15.9783 16.0638 15.5C16.6775 14.4358 17.0008 13.2285 17.0003 12Z" fill="black"/>
<path d="M13 12C13 10.3431 11.6569 9 10 9C8.34315 9 7 10.3431 7 12C7 13.6569 8.34315 15 10 15C11.6569 15 13 13.6569 13 12ZM15 12C15 14.7614 12.7614 17 10 17C7.23858 17 5 14.7614 5 12C5 9.23858 7.23858 7 10 7C12.7614 7 15 9.23858 15 12Z" fill="black"/>
<path d="M21 6C21 5.44772 20.5523 5 20 5H4C3.44772 5 3 5.44772 3 6V18C3 18.5523 3.44772 19 4 19H20C20.5523 19 21 18.5523 21 18V6ZM23 18C23 19.6569 21.6569 21 20 21H4C2.34315 21 1 19.6569 1 18V6C1 4.34315 2.34315 3 4 3H20C21.6569 3 23 4.34315 23 6V18Z" fill="black"/>
</svg>
