<svg width="24" height="24" viewBox="0 0 24 24" fill="none" xmlns="http://www.w3.org/2000/svg">
<path d="M21 4C21.5523 4 22 4.44772 22 5C22 5.55228 21.5523 6 21 6H3C2.44772 6 2 5.55228 2 5C2 4.44772 2.44772 4 3 4H21Z" fill="black"/>
<path d="M10 11C10.5523 11 11 11.4477 11 12C11 12.5523 10.5523 13 10 13H3C2.44772 13 2 12.5523 2 12C2 11.4477 2.44772 11 3 11H10Z" fill="black"/>
<path d="M10 18C10.5523 18 11 18.4477 11 19C11 19.5523 10.5523 20 10 20H3C2.44772 20 2 19.5523 2 19C2 18.4477 2.44772 18 3 18H10Z" fill="black"/>
<path d="M19 15C19 13.8954 18.1046 13 17 13C15.8954 13 15 13.8954 15 15C15 16.1046 15.8954 17 17 17C18.1046 17 19 16.1046 19 15ZM21 15C21 17.2091 19.2091 19 17 19C14.7909 19 13 17.2091 13 15C13 12.7909 14.7909 11 17 11C19.2091 11 21 12.7909 21 15Z" fill="black"/>
<path d="M18.393 16.393C18.7835 16.0025 19.4165 16.0025 19.8071 16.393L21.7074 18.2934C22.0976 18.6839 22.0978 19.317 21.7074 19.7074C21.317 20.0978 20.6839 20.0976 20.2934 19.7074L18.393 17.8071C18.0025 17.4165 18.0025 16.7835 18.393 16.393Z" fill="black"/>
</svg>
