<svg width="24" height="24" viewBox="0 0 24 24" fill="none" xmlns="http://www.w3.org/2000/svg">
<path fill-rule="evenodd" clip-rule="evenodd" d="M10.5027 2.40381C10.9581 2.14149 11.4745 2.00342 12.0001 2.00342C12.5256 2.00342 13.042 2.14149 13.4974 2.40381C13.9528 2.66613 14.3313 3.04349 14.5951 3.4981C14.5961 3.49998 14.5972 3.50185 14.5983 3.50374L22.5961 17.4999C22.5964 17.5005 22.5968 17.5011 22.5971 17.5017C22.8596 17.9571 22.9979 18.4734 22.998 18.9991C22.9981 19.5255 22.8598 20.0426 22.5969 20.4985C22.3339 20.9545 21.9556 21.3333 21.5 21.5968C21.0444 21.8603 20.5274 21.9993 20.0011 21.9999L20.0001 21.9999H4.00006L3.99903 21.9999C3.47268 21.9993 2.95574 21.8603 2.50011 21.5968C2.04448 21.3333 1.6662 20.9545 1.40326 20.4985C1.14032 20.0426 1.00197 19.5255 1.00211 18.9991C1.00224 18.4735 1.14044 17.9572 1.40286 17.5019C1.40325 17.5012 1.40364 17.5006 1.40403 17.4999L9.40181 3.50374C9.40289 3.50185 9.40397 3.49998 9.40506 3.4981C9.66877 3.04349 10.0473 2.66613 10.5027 2.40381ZM12.0001 4.00342C11.8249 4.00342 11.6528 4.04944 11.5009 4.13688C11.3499 4.22387 11.2243 4.34881 11.1364 4.4993L3.1383 18.496C3.13756 18.4973 3.13682 18.4986 3.13608 18.4999C3.04836 18.6518 3.00215 18.8242 3.00211 18.9996C3.00206 19.1751 3.04818 19.3474 3.13582 19.4994C3.22347 19.6514 3.34956 19.7777 3.50144 19.8655C3.65332 19.9534 3.82563 19.9997 4.00108 19.9999H19.999C20.1745 19.9997 20.3468 19.9534 20.4987 19.8655C20.6505 19.7777 20.7766 19.6514 20.8643 19.4994C20.9519 19.3474 20.9981 19.1751 20.998 18.9996C20.998 18.8242 20.9518 18.6518 20.864 18.4999L20.8629 18.498L12.8637 4.4993C12.7758 4.34881 12.6502 4.22387 12.4992 4.13688C12.3474 4.04944 12.1752 4.00342 12.0001 4.00342Z" fill="black"/>
</svg>
