<svg width="24" height="24" viewBox="0 0 24 24" fill="none" xmlns="http://www.w3.org/2000/svg">
<path fill-rule="evenodd" clip-rule="evenodd" d="M14 12C14 11.4477 14.4477 11 15 11H21C21.5523 11 22 11.4477 22 12C22 12.5522 21.5523 13 21 13H15C14.4477 13 14 12.5522 14 12Z" fill="black"/>
<path fill-rule="evenodd" clip-rule="evenodd" d="M14 5.99996C14 5.44768 14.4477 4.99996 15 4.99996H21C21.5523 4.99996 22 5.44768 22 5.99996C22 6.55225 21.5523 6.99996 21 6.99996H15C14.4477 6.99996 14 6.55225 14 5.99996Z" fill="black"/>
<path fill-rule="evenodd" clip-rule="evenodd" d="M6.21202 4.22365C6.44884 4.07744 6.72168 4 7.00001 4C7.27833 4 7.55117 4.07744 7.78799 4.22365C8.02482 4.36986 8.2163 4.57908 8.34101 4.8279C8.346 4.83787 8.35084 4.84793 8.3555 4.85806L11.9085 12.5821C12.1393 13.0838 11.9197 13.6777 11.4179 13.9085C10.9162 14.1393 10.3223 13.9196 10.0915 13.4179L7.00001 6.69712L3.9085 13.4179C3.6777 13.9196 3.08385 14.1393 2.5821 13.9085C2.08036 13.6777 1.86071 13.0838 2.09151 12.5821L5.64451 4.85806C5.64918 4.84793 5.65401 4.83787 5.65901 4.8279C5.78371 4.57908 5.97519 4.36986 6.21202 4.22365Z" fill="black"/>
<path fill-rule="evenodd" clip-rule="evenodd" d="M2 18C2 17.4477 2.44771 17 3 17H21C21.5523 17 22 17.4477 22 18C22 18.5522 21.5523 19 21 19H3C2.44771 19 2 18.5522 2 18Z" fill="black"/>
<path fill-rule="evenodd" clip-rule="evenodd" d="M3 11C3 10.4477 3.44771 9.99996 4 9.99996H10C10.5523 9.99996 11 10.4477 11 11C11 11.5522 10.5523 12 10 12H4C3.44771 12 3 11.5522 3 11Z" fill="black"/>
</svg>
