<svg width="24" height="24" viewBox="0 0 24 24" fill="none" xmlns="http://www.w3.org/2000/svg">
<path fill-rule="evenodd" clip-rule="evenodd" d="M21 5.10101L3.81909 19.0001H20C20.2652 19.0001 20.5195 18.8948 20.7071 18.7073C20.8946 18.5197 21 18.2654 21 18.0001V5.10101ZM21.9362 3.05808C22.778 3.42409 23 4.31023 23 5.00015V18.0001C23 18.7958 22.6839 19.5589 22.1213 20.1215C21.5587 20.6841 20.7956 21.0001 20 21.0001H2.99997C2.64778 21.0001 2.28367 20.9541 1.95838 20.8169C1.62856 20.6779 1.25029 20.4011 1.09638 19.9138C0.944783 19.4337 1.08888 18.9942 1.26526 18.6931C1.44045 18.3941 1.6973 18.1365 1.97798 17.9171L19.771 3.5227C19.776 3.51868 19.781 3.51472 19.786 3.5108C20.3275 3.08966 21.1337 2.70917 21.9362 3.05808Z" fill="black"/>
</svg>
