<svg width="24" height="24" viewBox="0 0 24 24" fill="none" xmlns="http://www.w3.org/2000/svg">
<path fill-rule="evenodd" clip-rule="evenodd" d="M4 3C4.55229 3 5 3.44772 5 4V20C5 20.5523 4.55229 21 4 21C3.44772 21 3 20.5523 3 20V4C3 3.44772 3.44772 3 4 3Z" fill="black"/>
<path fill-rule="evenodd" clip-rule="evenodd" d="M9 3C9.55229 3 10 3.44772 10 4V20C10 20.5523 9.55229 21 9 21C8.44772 21 8 20.5523 8 20V4C8 3.44772 8.44772 3 9 3Z" fill="black"/>
<path fill-rule="evenodd" clip-rule="evenodd" d="M14 3C14.5523 3 15 3.44772 15 4V20C15 20.5523 14.5523 21 14 21C13.4477 21 13 20.5523 13 20V4C13 3.44772 13.4477 3 14 3Z" fill="black"/>
<path fill-rule="evenodd" clip-rule="evenodd" d="M19 3C19.5523 3 20 3.44772 20 4V20C20 20.5523 19.5523 21 19 21C18.4477 21 18 20.5523 18 20V4C18 3.44772 18.4477 3 19 3Z" fill="black"/>
<path fill-rule="evenodd" clip-rule="evenodd" d="M22.8575 5.4855C23.1416 5.95908 22.9881 6.57334 22.5145 6.85749L2.51449 18.8575C2.04091 19.1416 1.42665 18.9881 1.14251 18.5145C0.858357 18.0409 1.01192 17.4267 1.4855 17.1425L21.4855 5.1425C21.9591 4.85835 22.5733 5.01192 22.8575 5.4855Z" fill="black"/>
</svg>
