<svg width="24" height="24" viewBox="0 0 24 24" fill="none" xmlns="http://www.w3.org/2000/svg">
<path d="M17.3271 11.2597C17.7358 10.8883 18.3687 10.9185 18.7402 11.3271C19.1117 11.7358 19.0815 12.3687 18.6729 12.7402L13.7451 17.2197C13.1931 17.7214 12.4734 17.9998 11.7275 18H10.5C9.94771 18 9.5 17.5523 9.5 17C9.5 16.4477 9.94771 16 10.5 16H11.7266C11.9752 16 12.2154 15.9074 12.3994 15.7402L17.3271 11.2597Z" fill="black"/>
<path d="M12.1319 12.5088L15.9258 13.0147C16.4733 13.0877 16.8582 13.5913 16.7852 14.1387C16.712 14.6858 16.2093 15.0699 15.6622 14.9971L11.8682 14.4913C11.3209 14.4183 10.936 13.9155 11.0088 13.3682C11.0818 12.8209 11.5846 12.436 12.1319 12.5088Z" fill="black"/>
<path d="M13.76 2.26965C14.484 1.94107 15.3085 1.91331 16.0529 2.1925C16.7974 2.4718 17.4014 3.03512 17.7307 3.75891L19.4699 7.58606C19.6985 8.08882 19.4766 8.68169 18.9738 8.91028C18.4712 9.13873 17.8783 8.91669 17.6496 8.41418L15.9094 4.58704C15.7996 4.34583 15.5989 4.15766 15.3508 4.06457C15.1026 3.97152 14.8275 3.98142 14.5861 4.09094L3.58711 9.08996C3.0844 9.31847 2.4915 9.09649 2.26289 8.59387C2.03439 8.09118 2.25639 7.49828 2.75898 7.26965L13.76 2.26965Z" fill="black"/>
<path d="M5 10V8C5 7.44772 5.44772 7 6 7C6.55228 7 7 7.44772 7 8V10C7 10.5523 6.55228 11 6 11C5.44772 11 5 10.5523 5 10Z" fill="black"/>
<path d="M5 15V14C5 13.4477 5.44772 13 6 13C6.55228 13 7 13.4477 7 14V15C7 15.5523 6.55228 16 6 16C5.44772 16 5 15.5523 5 15Z" fill="black"/>
<path d="M5 21V19C5 18.4477 5.44772 18 6 18C6.55228 18 7 18.4477 7 19V21C7 21.5523 6.55228 22 6 22C5.44772 22 5 21.5523 5 21Z" fill="black"/>
<path d="M21 10C21 9.44772 20.5523 9 20 9H4C3.44772 9 3 9.44772 3 10V19C3 19.5523 3.44772 20 4 20H20C20.5523 20 21 19.5523 21 19V10ZM23 19C23 20.6569 21.6569 22 20 22H4C2.34315 22 1 20.6569 1 19V10C1 8.34315 2.34315 7 4 7H20C21.6569 7 23 8.34315 23 10V19Z" fill="black"/>
</svg>
