<svg width="24" height="24" viewBox="0 0 24 24" fill="none" xmlns="http://www.w3.org/2000/svg">
<path d="M11 4V2C11 1.44772 11.4477 1 12 1C12.5523 1 13 1.44772 13 2V4C13 4.55228 12.5523 5 12 5C11.4477 5 11 4.55228 11 4Z" fill="black"/>
<path d="M12.0009 7C12.553 7.0005 13.0002 7.44883 12.9999 8.00098C12.9994 8.5529 12.5518 9.00005 11.9999 9C11.3136 8.99965 10.6472 9.23489 10.1132 9.66602C9.57932 10.0971 9.20965 10.6983 9.06534 11.3691C8.92102 12.04 9.01083 12.74 9.32022 13.3525C9.62969 13.9651 10.1398 14.4534 10.7655 14.7354C11.2691 14.9622 11.4933 15.5541 11.2665 16.0576C11.0397 16.5612 10.4478 16.7854 9.94424 16.5586C8.90137 16.0888 8.05088 15.2758 7.53506 14.2549C7.01924 13.2339 6.86969 12.0665 7.11026 10.9482C7.35087 9.83008 7.96739 8.82786 8.85733 8.10938C9.7473 7.39096 10.8571 6.99942 12.0009 7Z" fill="black"/>
<path d="M4 11C4.55228 11 5 11.4477 5 12C5 12.5523 4.55228 13 4 13H2C1.44772 13 1 12.5523 1 12C1 11.4477 1.44772 11 2 11H4Z" fill="black"/>
<path d="M18.9999 4C18.9999 3.73478 18.8944 3.48051 18.7069 3.29297C18.5194 3.10543 18.2651 3 17.9999 3C17.7347 3 17.4804 3.10543 17.2928 3.29297C17.1053 3.48051 16.9999 3.73478 16.9999 4V14.54C16.9999 14.8973 16.8093 15.2276 16.4999 15.4062C15.928 15.7365 15.4811 16.2463 15.2284 16.8564C14.9758 17.4664 14.9316 18.1425 15.1024 18.7803C15.2733 19.4181 15.6498 19.9818 16.1737 20.3838C16.6976 20.7858 17.3395 21.0039 17.9999 21.0039C18.6603 21.0039 19.3021 20.7858 19.8261 20.3838C20.3499 19.9818 20.7264 19.4181 20.8973 18.7803C21.0682 18.1425 21.024 17.4664 20.7714 16.8564C20.5187 16.2463 20.0718 15.7365 19.4999 15.4062C19.1905 15.2276 18.9999 14.8973 18.9999 14.54V4ZM20.9999 14.0039C21.7141 14.5395 22.2746 15.2593 22.619 16.0908C23.0402 17.1076 23.1147 18.2348 22.83 19.2979C22.5451 20.361 21.917 21.3007 21.0438 21.9707C20.1706 22.6407 19.1006 23.0039 17.9999 23.0039C16.8992 23.0039 15.8292 22.6407 14.9559 21.9707C14.0828 21.3007 13.4547 20.3609 13.1698 19.2979C12.8851 18.2348 12.9596 17.1076 13.3807 16.0908C13.7252 15.2593 14.2857 14.5395 14.9999 14.0039V4C14.9999 3.20435 15.3162 2.44151 15.8788 1.87891C16.4414 1.3163 17.2042 1 17.9999 1C18.7955 1 19.5584 1.3163 20.121 1.87891C20.6836 2.44152 20.9999 3.20435 20.9999 4V14.0039Z" fill="black"/>
<path d="M4.22307 4.22307C4.61359 3.83254 5.24661 3.83254 5.63713 4.22307L7.04729 5.63323C7.43766 6.02376 7.43776 6.65682 7.04729 7.04729C6.65682 7.43776 6.02376 7.43766 5.63323 7.04729L4.22307 5.63713C3.83254 5.24661 3.83254 4.61359 4.22307 4.22307Z" fill="black"/>
<path d="M5.63319 16.953C6.02372 16.5626 6.65675 16.5625 7.04725 16.953C7.43767 17.3435 7.43767 17.9766 7.04725 18.3671L5.63709 19.7772C5.24659 20.1677 4.61353 20.1676 4.22303 19.7772C3.83253 19.3867 3.83258 18.7537 4.22303 18.3632L5.63319 16.953Z" fill="black"/>
</svg>
