<svg width="24" height="24" viewBox="0 0 24 24" fill="none" xmlns="http://www.w3.org/2000/svg">
<path fill-rule="evenodd" clip-rule="evenodd" d="M8 2.1C8.55228 2.1 9 2.54772 9 3.1V7C9 7.79565 9.31607 8.55871 9.87868 9.12132C10.4413 9.68393 11.2043 10 12 10C12.7956 10 13.5587 9.68393 14.1213 9.12132C14.6839 8.55871 15 7.79565 15 7V3.1C15 2.54772 15.4477 2.1 16 2.1C16.5523 2.1 17 2.54772 17 3.1V7C17 8.32608 16.4732 9.59785 15.5355 10.5355C14.5979 11.4732 13.3261 12 12 12C10.6739 12 9.40215 11.4732 8.46447 10.5355C7.52678 9.59785 7 8.32608 7 7V3.1C7 2.54772 7.44772 2.1 8 2.1Z" fill="black"/>
<path fill-rule="evenodd" clip-rule="evenodd" d="M7.29289 13.2929C7.68342 12.9024 8.31658 12.9024 8.70711 13.2929L9.70711 14.2929C10.0976 14.6834 10.0976 15.3166 9.70711 15.7071C9.31658 16.0976 8.68342 16.0976 8.29289 15.7071L7.29289 14.7071C6.90237 14.3166 6.90237 13.6834 7.29289 13.2929Z" fill="black"/>
<path fill-rule="evenodd" clip-rule="evenodd" d="M16.7071 13.2929C17.0976 13.6834 17.0976 14.3166 16.7071 14.7071L15.7071 15.7071C15.3166 16.0976 14.6834 16.0976 14.2929 15.7071C13.9024 15.3166 13.9024 14.6834 14.2929 14.2929L15.2929 13.2929C15.6834 12.9024 16.3166 12.9024 16.7071 13.2929Z" fill="black"/>
<path fill-rule="evenodd" clip-rule="evenodd" d="M12 3C10.1435 3 8.36301 3.7375 7.05025 5.05025C5.7375 6.36301 5 8.14348 5 10V14C5 16.2477 6.75228 18 9 18H15C17.2477 18 19 16.2477 19 14V10C19 8.14348 18.2625 6.36301 16.9497 5.05025C15.637 3.7375 13.8565 3 12 3ZM5.63604 3.63604C7.32387 1.94821 9.61305 1 12 1C14.3869 1 16.6761 1.94821 18.364 3.63604C20.0518 5.32387 21 7.61305 21 10V14C21 17.3523 18.3523 20 15 20H9C5.64772 20 3 17.3523 3 14V10C3 7.61305 3.94821 5.32387 5.63604 3.63604Z" fill="black"/>
<path fill-rule="evenodd" clip-rule="evenodd" d="M8.5547 18.168C9.01423 18.4743 9.1384 19.0952 8.83205 19.5547L6.83205 22.5547C6.5257 23.0143 5.90483 23.1384 5.4453 22.8321C4.98577 22.5257 4.8616 21.9049 5.16795 21.4453L7.16795 18.4453C7.4743 17.9858 8.09517 17.8616 8.5547 18.168Z" fill="black"/>
<path fill-rule="evenodd" clip-rule="evenodd" d="M15.4453 18.168C15.9048 17.8616 16.5257 17.9858 16.832 18.4453L18.832 21.4453C19.1384 21.9049 19.0142 22.5257 18.5547 22.8321C18.0952 23.1384 17.4743 23.0143 17.1679 22.5547L15.1679 19.5547C14.8616 19.0952 14.9858 18.4743 15.4453 18.168Z" fill="black"/>
</svg>
