<svg width="24" height="24" viewBox="0 0 24 24" fill="none" xmlns="http://www.w3.org/2000/svg">
<path d="M13.7598 2.26965C14.4838 1.94107 15.3084 1.91331 16.0528 2.1925C16.7973 2.4718 17.4013 3.03512 17.7305 3.75891L19.4698 7.58606C19.6984 8.08882 19.4765 8.68169 18.9737 8.91028C18.4711 9.13873 17.8782 8.91669 17.6495 8.41418L15.9093 4.58704C15.7995 4.34583 15.5988 4.15766 15.3507 4.06457C15.1025 3.97152 14.8273 3.98142 14.586 4.09094L3.58698 9.08996C3.08428 9.31847 2.49138 9.09649 2.26277 8.59387C2.03427 8.09118 2.25627 7.49828 2.75886 7.26965L13.7598 2.26965Z" fill="black"/>
<path d="M5 10V8C5 7.44772 5.44772 7 6 7C6.55228 7 7 7.44772 7 8V10C7 10.5523 6.55228 11 6 11C5.44772 11 5 10.5523 5 10Z" fill="black"/>
<path d="M5 15V14C5 13.4477 5.44772 13 6 13C6.55228 13 7 13.4477 7 14V15C7 15.5523 6.55228 16 6 16C5.44772 16 5 15.5523 5 15Z" fill="black"/>
<path d="M5 21V19C5 18.4477 5.44772 18 6 18C6.55228 18 7 18.4477 7 19V21C7 21.5523 6.55228 22 6 22C5.44772 22 5 21.5523 5 21Z" fill="black"/>
<path d="M21 10C21 9.44772 20.5523 9 20 9H4C3.44772 9 3 9.44772 3 10V19C3 19.5523 3.44772 20 4 20H20C20.5523 20 21 19.5523 21 19V10ZM23 19C23 20.6569 21.6569 22 20 22H4C2.34315 22 1 20.6569 1 19V10C1 8.34315 2.34315 7 4 7H20C21.6569 7 23 8.34315 23 10V19Z" fill="black"/>
</svg>
