<svg width="24" height="24" viewBox="0 0 24 24" fill="none" xmlns="http://www.w3.org/2000/svg">
<path d="M14.5527 3.10547C15.0467 2.85848 15.6475 3.05876 15.8945 3.55273C16.1415 4.04671 15.9413 4.64754 15.4473 4.89453L5.44727 9.89453C4.95329 10.1415 4.35247 9.94124 4.10548 9.44727C3.85849 8.95329 4.05876 8.35246 4.55274 8.10547L14.5527 3.10547Z" fill="black"/>
<path d="M14.5527 7.60547C15.0467 7.35848 15.6475 7.55876 15.8945 8.05273C16.1415 8.54671 15.9413 9.14754 15.4473 9.39453L5.44727 14.3945C4.95329 14.6415 4.35247 14.4412 4.10548 13.9473C3.85849 13.4533 4.05876 12.8525 4.55274 12.6055L14.5527 7.60547Z" fill="black"/>
<path d="M8.00001 3C8.00001 2.44772 8.44772 2 9.00001 2C9.55229 2 10 2.44772 10 3V19.9346C11.7529 19.7137 13.3947 18.9198 14.6572 17.6572C16.1575 16.1569 17 14.1217 17 12C17 11.4477 17.4477 11 18 11C18.5523 11 19 11.4477 19 12C19 14.6522 17.9467 17.1959 16.0713 19.0713C14.1959 20.9467 11.6522 22 9.00001 22C8.73479 22 8.48051 21.8946 8.29298 21.707C8.10544 21.5195 8.00001 21.2652 8.00001 21V3Z" fill="black"/>
</svg>
