<svg width="24" height="24" viewBox="0 0 24 24" fill="none" xmlns="http://www.w3.org/2000/svg">
<path fill-rule="evenodd" clip-rule="evenodd" d="M1 8C1 4.60061 3.99905 2 7.5 2C11.001 2 14 4.60061 14 8C14 8.55228 13.5523 9 13 9C12.4477 9 12 8.55228 12 8C12 5.87939 10.079 4 7.5 4C5.33676 4 3.63651 5.32224 3.1445 7H3.58579L4.29289 6.29289C4.68342 5.90237 5.31658 5.90237 5.70711 6.29289L6.41421 7H10C10.5523 7 11 7.44771 11 8C11 8.55228 10.5523 9 10 9H6C5.73478 9 5.48043 8.89464 5.29289 8.70711L5 8.41421L4.70711 8.70711C4.51957 8.89464 4.26522 9 4 9H2C1.44772 9 1 8.55228 1 8Z" fill="black"/>
<path fill-rule="evenodd" clip-rule="evenodd" d="M16.4931 6.99996C15.4502 6.99278 14.4331 7.32407 13.5945 7.94408C13.1504 8.27241 12.5242 8.17857 12.1959 7.73448C11.8676 7.29038 11.9614 6.66421 12.4055 6.33588C13.5912 5.45928 15.029 4.99058 16.5034 4.99998C20.0029 5.00168 23 7.6017 23 11C23 11.5523 22.5523 12 22 12H19C18.7348 12 18.4804 11.8946 18.2929 11.7071L18 11.4142L17.7071 11.7071C17.5196 11.8946 17.2652 12 17 12H14C13.4477 12 13 11.5523 13 11C13 10.4477 13.4477 9.99998 14 9.99998H16.5858L17.2929 9.29287C17.6834 8.90235 18.3166 8.90235 18.7071 9.29287L19.4142 9.99998H20.8555C20.3635 8.32222 18.6632 6.99998 16.5 6.99998C16.4977 6.99998 16.4954 6.99997 16.4931 6.99996Z" fill="black"/>
<path fill-rule="evenodd" clip-rule="evenodd" d="M5.18289 9.0029C7.65751 6.52828 11.6154 6.23887 14.0189 8.65471C14.4077 9.04553 14.4069 9.6773 14.0171 10.0671L6.24794 17.8463C6.06016 18.0345 5.80517 18.1402 5.53931 18.14C5.27344 18.1398 5.0186 18.0338 4.83108 17.8453C2.43361 15.4355 2.7046 11.4812 5.18289 9.0029ZM11.7959 9.45992C10.2643 8.61737 8.12902 8.8852 6.5971 10.4171C5.06909 11.9451 4.80233 14.081 5.64271 15.6212L11.7959 9.45992Z" fill="black"/>
<path fill-rule="evenodd" clip-rule="evenodd" d="M12.7575 7.02986C13.2933 6.89591 13.8362 7.22167 13.9701 7.75747C14.0261 7.9813 14.1207 8.30108 14.2379 8.6972C14.5735 9.83188 15.0944 11.5929 15.4232 13.5192C15.8738 16.1584 16.025 19.3575 14.9398 22.3417C14.7961 22.7369 14.4205 23 14 23H10C9.6659 23 9.35387 22.8331 9.16835 22.5553C8.98282 22.2774 8.94832 21.9253 9.07638 21.6167C9.88964 19.657 10.4585 17.8913 10.0194 15.6961C9.91111 15.1546 10.2623 14.6277 10.8039 14.5194C11.3454 14.4111 11.8723 14.7623 11.9806 15.3039C12.4177 17.4897 12.0459 19.329 11.4597 21H13.2751C13.9555 18.6608 13.8395 16.1268 13.4518 13.8558C13.1451 12.0597 12.6992 10.5539 12.3651 9.4256C12.2292 8.9669 12.1119 8.57059 12.0299 8.24254C11.8959 7.70674 12.2217 7.16381 12.7575 7.02986Z" fill="black"/>
</svg>
