<svg width="24" height="24" viewBox="0 0 24 24" fill="none" xmlns="http://www.w3.org/2000/svg">
<path fill-rule="evenodd" clip-rule="evenodd" d="M1.87868 3.87868C2.44129 3.31607 3.20435 3 4 3H12C12.7956 3 13.5587 3.31607 14.1213 3.87868C14.6839 4.44129 15 5.20435 15 6V18C15 18.5523 14.5523 19 14 19C13.4477 19 13 18.5523 13 18V6C13 5.73478 12.8946 5.48043 12.7071 5.29289C12.5196 5.10536 12.2652 5 12 5H4C3.73478 5 3.48043 5.10536 3.29289 5.29289C3.10536 5.48043 3 5.73478 3 6V17H5C5.55228 17 6 17.4477 6 18C6 18.5523 5.55228 19 5 19H3C2.46957 19 1.96086 18.7893 1.58579 18.4142C1.21071 18.0391 1 17.5304 1 17V6C1 5.20435 1.31607 4.44129 1.87868 3.87868Z" fill="black"/>
<path fill-rule="evenodd" clip-rule="evenodd" d="M8 18C8 17.4477 8.44772 17 9 17H15C15.5523 17 16 17.4477 16 18C16 18.5523 15.5523 19 15 19H9C8.44772 19 8 18.5523 8 18Z" fill="black"/>
<path fill-rule="evenodd" clip-rule="evenodd" d="M13 8C13 7.44772 13.4477 7 14 7L17.5214 7C17.8212 7.00043 18.117 7.06823 18.387 7.1984C18.6569 7.32851 18.8942 7.5176 19.0812 7.7517C19.0811 7.75159 19.0813 7.7518 19.0812 7.7517L22.56 12.1002C22.5599 12.1001 22.5601 12.1003 22.56 12.1002C22.8439 12.4542 22.9992 12.8945 23 13.3482L23 13.35V17C23 17.5304 22.7893 18.0391 22.4142 18.4142C22.0391 18.7893 21.5304 19 21 19H19C18.4477 19 18 18.5523 18 18C18 17.4477 18.4477 17 19 17H21L21 13.3518L17.5191 9.0007L14 9C13.4477 9 13 8.55228 13 8Z" fill="black"/>
<path fill-rule="evenodd" clip-rule="evenodd" d="M17 17C16.4477 17 16 17.4477 16 18C16 18.5523 16.4477 19 17 19C17.5523 19 18 18.5523 18 18C18 17.4477 17.5523 17 17 17ZM14 18C14 16.3431 15.3431 15 17 15C18.6569 15 20 16.3431 20 18C20 19.6569 18.6569 21 17 21C15.3431 21 14 19.6569 14 18Z" fill="black"/>
<path fill-rule="evenodd" clip-rule="evenodd" d="M7 17C6.44771 17 6 17.4477 6 18C6 18.5523 6.44771 19 7 19C7.55228 19 8 18.5523 8 18C8 17.4477 7.55228 17 7 17ZM4 18C4 16.3431 5.34315 15 7 15C8.65685 15 10 16.3431 10 18C10 19.6569 8.65685 21 7 21C5.34315 21 4 19.6569 4 18Z" fill="black"/>
</svg>
