<svg width="24" height="24" viewBox="0 0 24 24" fill="none" xmlns="http://www.w3.org/2000/svg">
<path fill-rule="evenodd" clip-rule="evenodd" d="M13 10C13 9.44772 13.4477 9 14 9H16C16.5523 9 17 9.44772 17 10C17 10.5523 16.5523 11 16 11H14C13.4477 11 13 10.5523 13 10Z" fill="black"/>
<path fill-rule="evenodd" clip-rule="evenodd" d="M15 13C15.5523 13 16 13.4477 16 14V22C16 22.5523 15.5523 23 15 23C14.4477 23 14 22.5523 14 22V14C14 13.4477 14.4477 13 15 13Z" fill="black"/>
<path fill-rule="evenodd" clip-rule="evenodd" d="M15 1C15.5523 1 16 1.44772 16 2V6C16 6.55228 15.5523 7 15 7C14.4477 7 14 6.55228 14 6V2C14 1.44772 14.4477 1 15 1Z" fill="black"/>
<path fill-rule="evenodd" clip-rule="evenodd" d="M1 10C1 9.44772 1.44772 9 2 9H4C4.55228 9 5 9.44772 5 10C5 10.5523 4.55228 11 4 11H2C1.44772 11 1 10.5523 1 10Z" fill="black"/>
<path fill-rule="evenodd" clip-rule="evenodd" d="M19 10C19 9.44772 19.4477 9 20 9H22C22.5523 9 23 9.44772 23 10C23 10.5523 22.5523 11 22 11H20C19.4477 11 19 10.5523 19 10Z" fill="black"/>
<path fill-rule="evenodd" clip-rule="evenodd" d="M2 19C2 18.4477 2.44772 18 3 18H21C21.5523 18 22 18.4477 22 19C22 19.5523 21.5523 20 21 20H3C2.44772 20 2 19.5523 2 19Z" fill="black"/>
<path fill-rule="evenodd" clip-rule="evenodd" d="M5 15C4.86868 15 4.73864 15.0259 4.61732 15.0761C4.49599 15.1264 4.38575 15.2 4.29289 15.2929C4.20003 15.3858 4.12638 15.496 4.07612 15.6173C4.02587 15.7386 4 15.8687 4 16V22C4 22.5523 3.55228 23 3 23C2.44772 23 2 22.5523 2 22V16C2 15.606 2.0776 15.2159 2.22836 14.8519C2.37913 14.488 2.6001 14.1573 2.87868 13.8787C3.15725 13.6001 3.48797 13.3791 3.85195 13.2284C4.21593 13.0776 4.60603 13 5 13H19C19.394 13 19.7841 13.0776 20.1481 13.2284C20.512 13.3791 20.8427 13.6001 21.1213 13.8787C21.3999 14.1573 21.6209 14.488 21.7716 14.8519C21.9224 15.2159 22 15.606 22 16V22C22 22.5523 21.5523 23 21 23C20.4477 23 20 22.5523 20 22V16C20 15.8687 19.9741 15.7386 19.9239 15.6173C19.8736 15.496 19.8 15.3858 19.7071 15.2929C19.6142 15.2 19.504 15.1264 19.3827 15.0761C19.2614 15.0259 19.1313 15 19 15H5Z" fill="black"/>
<path fill-rule="evenodd" clip-rule="evenodd" d="M3 1C3.55228 1 4 1.44772 4 2V4C4 4.26522 4.10536 4.51957 4.29289 4.70711C4.48043 4.89464 4.73478 5 5 5H19C19.2652 5 19.5196 4.89464 19.7071 4.70711C19.8946 4.51957 20 4.26522 20 4V2C20 1.44772 20.4477 1 21 1C21.5523 1 22 1.44772 22 2V4C22 4.79565 21.6839 5.55871 21.1213 6.12132C20.5587 6.68393 19.7956 7 19 7H5C4.20435 7 3.44129 6.68393 2.87868 6.12132C2.31607 5.55871 2 4.79565 2 4V2C2 1.44772 2.44772 1 3 1Z" fill="black"/>
<path fill-rule="evenodd" clip-rule="evenodd" d="M7 10C7 9.44772 7.44772 9 8 9H10C10.5523 9 11 9.44772 11 10C11 10.5523 10.5523 11 10 11H8C7.44772 11 7 10.5523 7 10Z" fill="black"/>
<path fill-rule="evenodd" clip-rule="evenodd" d="M9 13C9.55228 13 10 13.4477 10 14V22C10 22.5523 9.55228 23 9 23C8.44772 23 8 22.5523 8 22V14C8 13.4477 8.44772 13 9 13Z" fill="black"/>
<path fill-rule="evenodd" clip-rule="evenodd" d="M9 1C9.55228 1 10 1.44772 10 2V6C10 6.55228 9.55228 7 9 7C8.44772 7 8 6.55228 8 6V2C8 1.44772 8.44772 1 9 1Z" fill="black"/>
</svg>
