<svg width="24" height="24" viewBox="0 0 24 24" fill="none" xmlns="http://www.w3.org/2000/svg">
<path d="M11 11.7383L14.0029 10L11 8.2627V11.7383ZM16.3555 10C16.3555 10.2888 16.28 10.573 16.1357 10.8232C15.9915 11.0733 15.784 11.2812 15.5342 11.4258L11.4688 13.7773C11.2185 13.9221 10.9346 13.9989 10.6455 13.999C10.3563 13.999 10.0717 13.9222 9.82129 13.7773C9.57097 13.6325 9.36292 13.4245 9.21876 13.1738C9.07462 12.9231 8.99927 12.6388 9.00001 12.3496V7.64844C8.99975 7.36004 9.07493 7.07617 9.21876 6.82617L9.33887 6.64746C9.46965 6.47656 9.63291 6.33222 9.82032 6.22363L10.0137 6.12793C10.2126 6.04527 10.4268 6.00219 10.6436 6.00195L10.8584 6.01562C11.0718 6.04354 11.2781 6.11359 11.4658 6.22168L11.4678 6.22266L15.5342 8.57422C15.7216 8.6827 15.8847 8.8273 16.0156 8.99805L16.1357 9.17773L16.2315 9.37109C16.3136 9.56985 16.3555 9.78355 16.3555 10Z" fill="black"/>
<path d="M17 20C17.5523 20 18 20.4477 18 21C18 21.5523 17.5523 22 17 22H7C6.44772 22 6 21.5523 6 21C6 20.4477 6.44772 20 7 20H17Z" fill="black"/>
<path d="M21 5C21 4.44772 20.5523 4 20 4H4C3.44772 4 3 4.44772 3 5V15C3 15.5523 3.44772 16 4 16H20C20.5523 16 21 15.5523 21 15V5ZM23 15C23 16.6569 21.6569 18 20 18H4C2.34315 18 1 16.6569 1 15V5C1 3.34315 2.34315 2 4 2H20C21.6569 2 23 3.34315 23 5V15Z" fill="black"/>
</svg>
