<svg width="24" height="24" viewBox="0 0 24 24" fill="none" xmlns="http://www.w3.org/2000/svg">
<path fill-rule="evenodd" clip-rule="evenodd" d="M17 3C16.4477 3 16 3.44772 16 4C16 4.55228 16.4477 5 17 5C17.5523 5 18 4.55228 18 4C18 3.44772 17.5523 3 17 3ZM14 4C14 2.34315 15.3431 1 17 1C18.6569 1 20 2.34315 20 4C20 5.65685 18.6569 7 17 7C15.3431 7 14 5.65685 14 4Z" fill="black"/>
<path fill-rule="evenodd" clip-rule="evenodd" d="M16.2971 4.70289C16.6876 5.09342 16.6876 5.72658 16.2971 6.11711L6.11711 16.2971C5.72658 16.6876 5.09342 16.6876 4.70289 16.2971C4.31237 15.9066 4.31237 15.2734 4.70289 14.8829L14.8829 4.70289C15.2734 4.31237 15.9066 4.31237 16.2971 4.70289Z" fill="black"/>
<path fill-rule="evenodd" clip-rule="evenodd" d="M4 16C3.44772 16 3 16.4477 3 17C3 17.5523 3.44772 18 4 18C4.55228 18 5 17.5523 5 17C5 16.4477 4.55228 16 4 16ZM1 17C1 15.3431 2.34315 14 4 14C5.65685 14 7 15.3431 7 17C7 18.6569 5.65685 20 4 20C2.34315 20 1 18.6569 1 17Z" fill="black"/>
<path fill-rule="evenodd" clip-rule="evenodd" d="M13.332 10.6795C12.2081 10.6574 11.5334 10.8808 11.2071 11.2071C10.8808 11.5333 10.6575 12.208 10.6795 13.3319C10.7006 14.4106 10.9437 15.6809 11.2783 16.9283C11.6105 18.1665 12.0202 19.3358 12.3487 20.199C12.5125 20.6295 12.6551 20.9812 12.7562 21.224C12.8067 21.3454 12.8468 21.4394 12.874 21.5023C12.8875 21.5338 12.8978 21.5575 12.9046 21.5729C12.908 21.5806 12.9104 21.5862 12.912 21.5897L12.9134 21.593C13.1377 22.0977 12.9108 22.6895 12.4061 22.9138C11.9015 23.1381 11.3105 22.9108 11.0862 22.4061L12 22C11.0862 22.4061 11.0863 22.4063 11.0862 22.4061L11.0849 22.4033C11.0843 22.4018 11.0834 22.3997 11.0822 22.3971C11.0806 22.3935 11.0785 22.3888 11.076 22.383L11.0726 22.3753C11.0644 22.3565 11.0525 22.3293 11.0374 22.2942C11.0072 22.2241 10.9638 22.1223 10.9098 21.9927C10.802 21.7336 10.6516 21.3626 10.4794 20.9103C10.1361 20.0079 9.70198 18.771 9.34666 17.4466C8.99383 16.1315 8.70561 14.6831 8.67988 13.3711C8.65505 12.1044 8.86916 10.7166 9.7929 9.79286C10.7166 8.86912 12.1044 8.65501 13.3712 8.67984C14.6831 8.70557 16.1315 8.99379 17.4466 9.34662C18.771 9.70194 20.008 10.136 20.9103 10.4794C21.3627 10.6515 21.7337 10.8019 21.9928 10.9098C22.1224 10.9637 22.2241 11.0071 22.2943 11.0374C22.3293 11.0525 22.3565 11.0643 22.3753 11.0726C22.3819 11.0755 22.3875 11.0779 22.392 11.0799L22.3972 11.0822C22.3998 11.0833 22.4018 11.0842 22.4033 11.0849L22.4057 11.086C22.406 11.0861 22.4061 11.0862 22 12L22.4057 11.086C22.9104 11.3103 23.1381 11.9014 22.9138 12.4061C22.6895 12.9108 22.0985 13.1381 21.5939 12.9138L21.5898 12.912C21.5862 12.9104 21.5806 12.9079 21.5729 12.9046C21.5575 12.8978 21.5338 12.8875 21.5024 12.8739C21.4394 12.8468 21.3454 12.8067 21.224 12.7562C20.9812 12.655 20.6295 12.5125 20.199 12.3486C19.3358 12.0202 18.1665 11.6105 16.9284 11.2783C15.681 10.9436 14.4106 10.7006 13.332 10.6795Z" fill="black"/>
</svg>
