<svg width="24" height="24" viewBox="0 0 24 24" fill="none" xmlns="http://www.w3.org/2000/svg">
<path fill-rule="evenodd" clip-rule="evenodd" d="M10.4796 2.39428C10.9382 2.1271 11.4593 1.98633 11.99 1.98633C12.5207 1.98633 13.0419 2.1271 13.5004 2.39428C13.9583 2.66111 14.3374 3.0445 14.599 3.5054C14.5994 3.50599 14.5997 3.50658 14.6 3.50717L22.5961 17.5002C22.5964 17.5009 22.5968 17.5015 22.5972 17.5022C22.8596 17.9575 22.9978 18.4738 22.998 18.9995C22.9981 19.5258 22.8598 20.0429 22.5968 20.4989C22.3339 20.9549 21.9556 21.3336 21.5 21.5971C21.0443 21.8607 20.5274 21.9997 20.0011 22.0002H4.0041C3.4769 22.0041 2.95796 21.869 2.49957 21.6084C2.03975 21.3471 1.6572 20.9688 1.3907 20.5119C1.12419 20.0551 0.983211 19.5359 0.98204 19.007C0.980871 18.4789 1.11911 17.9599 1.38278 17.5023C1.38319 17.5016 1.38361 17.5009 1.38403 17.5002L9.38003 3.50717C9.38033 3.50663 9.38064 3.5061 9.38094 3.50556C9.64257 3.04458 10.0217 2.66114 10.4796 2.39428ZM11.99 3.98633C11.8131 3.98633 11.6394 4.03325 11.4866 4.12231C11.3337 4.21137 11.2072 4.33938 11.12 4.49328C11.1194 4.49431 11.1189 4.49534 11.1183 4.49636L3.11827 18.4964C3.11753 18.4977 3.11678 18.499 3.11603 18.5003C3.02787 18.6529 2.98164 18.8262 2.98204 19.0025C2.98243 19.1788 3.02942 19.3519 3.11825 19.5042C3.20709 19.6565 3.3346 19.7826 3.48788 19.8697C3.64115 19.9568 3.81474 20.0019 3.99103 20.0003C3.99403 20.0002 3.99703 20.0002 4.00003 20.0002L19.999 20.0002C19.9987 20.0002 19.9993 20.0002 19.999 20.0002C20.1742 19.9999 20.347 19.9536 20.4986 19.8659C20.6505 19.778 20.7766 19.6518 20.8643 19.4998C20.9519 19.3478 20.998 19.1754 20.998 19C20.9979 18.8245 20.9517 18.6522 20.864 18.5002C20.8633 18.4989 20.8625 18.4977 20.8618 18.4964L12.8609 4.49486L12.86 4.49328C12.7728 4.33938 12.6463 4.21137 12.4935 4.12231C12.3407 4.03325 12.1669 3.98633 11.99 3.98633Z" fill="black"/>
<path fill-rule="evenodd" clip-rule="evenodd" d="M12 8.00023C12.5523 8.00023 13 8.44795 13 9.00023V13.0002C13 13.5525 12.5523 14.0002 12 14.0002C11.4477 14.0002 11 13.5525 11 13.0002V9.00023C11 8.44795 11.4477 8.00023 12 8.00023Z" fill="black"/>
<path fill-rule="evenodd" clip-rule="evenodd" d="M11 17.0002C11 16.448 11.4477 16.0002 12 16.0002H12.01C12.5623 16.0002 13.01 16.448 13.01 17.0002C13.01 17.5525 12.5623 18.0002 12.01 18.0002H12C11.4477 18.0002 11 17.5525 11 17.0002Z" fill="black"/>
</svg>
