<svg width="24" height="24" viewBox="0 0 24 24" fill="none" xmlns="http://www.w3.org/2000/svg">
<path d="M21 11C21 10.4477 21.4477 10 22 10C22.5523 10 23 10.4477 23 11V17C23 17.5523 22.5523 18 22 18H16C15.4477 18 15 17.5523 15 17C15 16.4477 15.4477 16 16 16H21V11Z" fill="black"/>
<path d="M1.29289 6.29289C1.68342 5.90237 2.31643 5.90237 2.70696 6.29289L8.49992 12.0859L12.7929 7.79289L12.8691 7.72453C13.2618 7.40418 13.8408 7.42678 14.207 7.79289L22.707 16.2929C23.0975 16.6834 23.0975 17.3164 22.707 17.707C22.3164 18.0975 21.6834 18.0975 21.2929 17.707L13.4999 9.91399L9.20696 14.207C8.81643 14.5975 8.18342 14.5975 7.79289 14.207L1.29289 7.70696C0.902369 7.31643 0.902369 6.68342 1.29289 6.29289Z" fill="black"/>
</svg>
