<svg width="24" height="24" viewBox="0 0 24 24" fill="none" xmlns="http://www.w3.org/2000/svg">
<path d="M14.846 18.2241C15.356 18.0132 15.9403 18.2552 16.1516 18.7651C16.3628 19.2754 16.1207 19.8605 15.6106 20.0718L14.6878 20.4536C14.1775 20.6648 13.5924 20.4227 13.3811 19.9126C13.17 19.4024 13.4121 18.8173 13.9221 18.606L14.846 18.2241Z" fill="black"/>
<path d="M13.3812 16.0861C13.5928 15.5762 14.1778 15.3338 14.6878 15.5451L15.6116 15.9279C16.1216 16.1397 16.3633 16.7255 16.1517 17.2355C15.94 17.7454 15.355 17.987 14.845 17.7756L13.9222 17.3928C13.4122 17.1812 13.1698 16.5961 13.3812 16.0861Z" fill="black"/>
<path d="M16.0861 13.3811C16.5961 13.1697 17.1812 13.4121 17.3928 13.9221L17.7756 14.8449C17.987 15.3549 17.7454 15.9398 17.2355 16.1516C16.7255 16.3632 16.1397 16.1215 15.9279 15.6115L15.5451 14.6877C15.3338 14.1777 15.5762 13.5927 16.0861 13.3811Z" fill="black"/>
<path d="M15.928 20.3891C16.1395 19.879 16.7245 19.6368 17.2347 19.8481C17.7448 20.0596 17.9871 20.6445 17.7757 21.1547L17.3929 22.0786C17.1814 22.5887 16.5964 22.831 16.0862 22.6196C15.576 22.4081 15.3337 21.8231 15.5452 21.3129L15.928 20.3891Z" fill="black"/>
<path d="M18.6069 13.9222C18.8186 13.4121 19.4044 13.1695 19.9145 13.3812C20.4244 13.5929 20.6659 14.1779 20.4546 14.6879L20.0718 15.6117C19.8601 16.1215 19.2751 16.3631 18.7651 16.1517C18.2551 15.9401 18.0127 15.3551 18.2241 14.8451L18.6069 13.9222Z" fill="black"/>
<path d="M18.7662 19.8481C19.2765 19.6371 19.8608 19.8797 20.0718 20.3901L20.4537 21.3139C20.6647 21.8243 20.4221 22.4086 19.9117 22.6196C19.4013 22.8305 18.817 22.5879 18.606 22.0776L18.2242 21.1537C18.0132 20.6434 18.2558 20.0591 18.7662 19.8481Z" fill="black"/>
<path d="M1 20.9997C1.00015 19.5833 1.33505 18.1872 1.97656 16.9245C2.61811 15.6617 3.54853 14.5675 4.69238 13.7321C5.83605 12.897 7.16075 12.3437 8.55859 12.1169C9.95673 11.8901 11.389 11.9965 12.7383 12.4274C13.2643 12.5955 13.5547 13.1582 13.3867 13.6842C13.2187 14.2103 12.6559 14.5006 12.1299 14.3327C11.0805 13.9975 9.96635 13.9141 8.87891 14.0905C7.79172 14.2669 6.76158 14.6978 5.87207 15.3473C4.98244 15.997 4.25777 16.8476 3.75879 17.8297C3.25986 18.8118 3.00015 19.8981 3 20.9997C2.99995 21.5519 2.55224 21.9997 2 21.9997C1.44772 21.9996 0.999949 21.552 1 20.9997Z" fill="black"/>
<path d="M21.3131 15.5452C21.8233 15.3337 22.4082 15.576 22.6197 16.0862C22.8311 16.5964 22.5889 17.1814 22.0787 17.3929L21.1549 17.7757C20.6447 17.9871 20.0597 17.7448 19.8482 17.2347C19.6369 16.7245 19.8791 16.1395 20.3892 15.928L21.3131 15.5452Z" fill="black"/>
<path d="M19.8481 18.7651C20.0596 18.255 20.6446 18.0127 21.1548 18.2241L22.0786 18.6069C22.5887 18.8184 22.831 19.4034 22.6196 19.9136C22.4082 20.4238 21.8232 20.6661 21.313 20.4546L20.3892 20.0718C19.879 19.8603 19.6367 19.2753 19.8481 18.7651Z" fill="black"/>
<path d="M14 8C14 5.79086 12.2091 4 10 4C7.79086 4 6 5.79086 6 8C6 10.2091 7.79086 12 10 12C12.2091 12 14 10.2091 14 8ZM16 8C16 11.3137 13.3137 14 10 14C6.68629 14 4 11.3137 4 8C4 4.68629 6.68629 2 10 2C13.3137 2 16 4.68629 16 8Z" fill="black"/>
<path d="M20 18C20 16.8954 19.1046 16 18 16C16.8954 16 16 16.8954 16 18C16 19.1046 16.8954 20 18 20C19.1046 20 20 19.1046 20 18ZM22 18C22 20.2091 20.2091 22 18 22C15.7909 22 14 20.2091 14 18C14 15.7909 15.7909 14 18 14C20.2091 14 22 15.7909 22 18Z" fill="black"/>
</svg>
