<svg width="24" height="24" viewBox="0 0 24 24" fill="none" xmlns="http://www.w3.org/2000/svg">
<path fill-rule="evenodd" clip-rule="evenodd" d="M11.0419 14.0775C9.70971 13.877 8.34793 14.0652 7.12002 14.6194C5.89211 15.1737 4.85024 16.0705 4.11943 17.2023C3.38862 18.3341 2.99993 19.6527 3 20.9999C3.00003 21.5522 2.55234 21.9999 2.00005 22C1.44777 22 1.00003 21.5523 1 21C0.999905 19.2679 1.49965 17.5725 2.43926 16.1174C3.37888 14.6623 4.71843 13.5092 6.29717 12.7965C7.87592 12.0839 9.62677 11.842 11.3396 12.0998C13.0524 12.3576 14.6545 13.1042 15.9535 14.25C16.3677 14.6154 16.4073 15.2473 16.0419 15.6615C15.6766 16.0757 15.0447 16.1153 14.6305 15.7499C13.6202 14.8587 12.3741 14.278 11.0419 14.0775Z" fill="black"/>
<path fill-rule="evenodd" clip-rule="evenodd" d="M10 4C7.79086 4 6 5.79086 6 8C6 10.2091 7.79086 12 10 12C12.2091 12 14 10.2091 14 8C14 5.79086 12.2091 4 10 4ZM4 8C4 4.68629 6.68629 2 10 2C13.3137 2 16 4.68629 16 8C16 11.3137 13.3137 14 10 14C6.68629 14 4 11.3137 4 8Z" fill="black"/>
<path fill-rule="evenodd" clip-rule="evenodd" d="M22.7071 16.2929C23.0976 16.6834 23.0976 17.3166 22.7071 17.7071L18.7071 21.7071C18.3166 22.0976 17.6834 22.0976 17.2929 21.7071L15.2929 19.7071C14.9024 19.3166 14.9024 18.6834 15.2929 18.2929C15.6834 17.9024 16.3166 17.9024 16.7071 18.2929L18 19.5858L21.2929 16.2929C21.6834 15.9024 22.3166 15.9024 22.7071 16.2929Z" fill="black"/>
</svg>
