<svg width="24" height="24" viewBox="0 0 24 24" fill="none" xmlns="http://www.w3.org/2000/svg">
<path d="M17.0271 10.9259C17.4533 10.9313 17.8666 11.0734 18.2068 11.3302C18.5177 11.565 18.7514 11.8851 18.8826 12.2502L19.5877 13.6388L21.1765 13.8869C21.5602 13.9085 21.9302 14.0396 22.242 14.2668C22.582 14.5147 22.8353 14.8637 22.9656 15.2638C23.0959 15.6639 23.0964 16.0947 22.9675 16.4953C22.8496 16.8619 22.6275 17.1846 22.3308 17.4279L21.1902 18.5656L21.4373 20.1125C21.5455 20.4861 21.5444 20.8837 21.4295 21.257C21.3033 21.6667 21.0482 22.0254 20.7029 22.2795C20.3577 22.5334 19.9401 22.6695 19.5115 22.6681C19.1189 22.6669 18.7365 22.5497 18.4109 22.3332L16.9998 21.6105L15.5779 22.3371C15.2536 22.5495 14.8745 22.6657 14.4851 22.6662C14.0578 22.6666 13.6417 22.5298 13.2976 22.2765C12.9534 22.0231 12.6995 21.6662 12.573 21.258C12.458 20.8869 12.4545 20.4914 12.5603 20.1193L12.8093 18.5666L11.698 17.4572C11.3935 17.2192 11.1628 16.8986 11.0369 16.5314C10.8986 16.128 10.8926 15.6912 11.0203 15.2843C11.148 14.8774 11.4027 14.5217 11.7468 14.2697C12.0618 14.0391 12.4367 13.907 12.825 13.8869L14.409 13.6388L15.1355 12.2101C15.2754 11.8455 15.518 11.5283 15.8367 11.3C16.1833 11.0517 16.6008 10.9206 17.0271 10.9259ZM16.9422 13.0685L16.1922 14.5451C16.0487 14.8273 15.8409 15.072 15.5847 15.258C15.3926 15.3975 15.1774 15.5008 14.95 15.5646L14.7185 15.6154L13.0857 15.8713C13.0337 15.8794 12.9811 15.8831 12.9285 15.883C12.9773 15.9168 13.0231 15.9553 13.0652 15.9972L14.2215 17.1496C14.4458 17.373 14.6127 17.6464 14.7107 17.9474C14.8087 18.2484 14.8347 18.5684 14.7849 18.881L14.5261 20.4953C14.5215 20.5242 14.5157 20.5529 14.5086 20.5812L14.4832 20.6662L14.6218 20.5802L16.0867 19.8302L16.3045 19.7345C16.5261 19.6524 16.7612 19.6096 16.9988 19.6095C17.3159 19.6095 17.6286 19.6856 17.9109 19.8302L19.3757 20.5802L19.5183 20.6681C19.4984 20.6117 19.4829 20.5534 19.4734 20.4943L19.2146 18.882V18.88C19.1648 18.5674 19.1898 18.2475 19.2879 17.9465C19.3859 17.6455 19.5538 17.372 19.7781 17.1486L20.95 15.9806C20.9855 15.9453 21.0238 15.9126 21.0642 15.883C21.0137 15.8828 20.9628 15.8791 20.9129 15.8713L19.2791 15.6154C18.9665 15.5665 18.6699 15.4438 18.4138 15.258C18.2216 15.1184 18.0557 14.9458 17.9246 14.7492L17.8054 14.5451L17.0681 13.0929C17.041 13.0395 17.0189 12.9834 17.0017 12.9259C16.9857 12.975 16.9655 13.0225 16.9422 13.0685Z" fill="black"/>
<path d="M2 21V19C2 17.6739 2.52716 16.4025 3.46484 15.4648C4.40253 14.5272 5.67392 14 7 14H8C8.55228 14 9 14.4477 9 15C9 15.5523 8.55228 16 8 16H7C6.20435 16 5.44152 16.3163 4.87891 16.8789C4.3163 17.4415 4 18.2043 4 19V21C4 21.5523 3.55228 22 3 22C2.44772 22 2 21.5523 2 21Z" fill="black"/>
<path d="M13 7C13 5.34315 11.6569 4 10 4C8.34315 4 7 5.34315 7 7C7 8.65685 8.34315 10 10 10C11.6569 10 13 8.65685 13 7ZM15 7C15 9.76142 12.7614 12 10 12C7.23858 12 5 9.76142 5 7C5 4.23858 7.23858 2 10 2C12.7614 2 15 4.23858 15 7Z" fill="black"/>
</svg>
