<svg width="24" height="24" viewBox="0 0 24 24" fill="none" xmlns="http://www.w3.org/2000/svg">
<path fill-rule="evenodd" clip-rule="evenodd" d="M13.3889 14.875C12.3232 14.2854 11.1221 13.984 9.90426 14.0007C8.68644 14.0173 7.49404 14.3514 6.44487 14.97C5.3957 15.5885 4.52608 16.4701 3.92193 17.5277C3.31777 18.5852 3 19.7821 3 21C3 21.5523 2.55229 22 2 22C1.44772 22 1 21.5523 1 21C0.999998 19.4341 1.40857 17.8953 2.18533 16.5356C2.9621 15.1759 4.08019 14.0424 5.42912 13.2471C6.77805 12.4518 8.31114 12.0223 9.87691 12.0008C11.4427 11.9794 12.9869 12.3669 14.3571 13.125C14.8404 13.3924 15.0154 14.0009 14.748 14.4841C14.4806 14.9674 13.8721 15.1424 13.3889 14.875Z" fill="black"/>
<path fill-rule="evenodd" clip-rule="evenodd" d="M10 4C7.79086 4 6 5.79086 6 8C6 10.2091 7.79086 12 10 12C12.2091 12 14 10.2091 14 8C14 5.79086 12.2091 4 10 4ZM4 8C4 4.68629 6.68629 2 10 2C13.3137 2 16 4.68629 16 8C16 11.3137 13.3137 14 10 14C6.68629 14 4 11.3137 4 8Z" fill="black"/>
<path fill-rule="evenodd" clip-rule="evenodd" d="M16.2929 16.2929C16.6834 15.9024 17.3166 15.9024 17.7071 16.2929L22.7071 21.2929C23.0976 21.6834 23.0976 22.3166 22.7071 22.7071C22.3166 23.0976 21.6834 23.0976 21.2929 22.7071L16.2929 17.7071C15.9024 17.3166 15.9024 16.6834 16.2929 16.2929Z" fill="black"/>
<path fill-rule="evenodd" clip-rule="evenodd" d="M22.7071 16.2929C23.0976 16.6834 23.0976 17.3166 22.7071 17.7071L17.7071 22.7071C17.3166 23.0976 16.6834 23.0976 16.2929 22.7071C15.9024 22.3166 15.9024 21.6834 16.2929 21.2929L21.2929 16.2929C21.6834 15.9024 22.3166 15.9024 22.7071 16.2929Z" fill="black"/>
</svg>
