<svg width="24" height="24" viewBox="0 0 24 24" fill="none" xmlns="http://www.w3.org/2000/svg">
<path fill-rule="evenodd" clip-rule="evenodd" d="M22.7071 1.29289C23.0976 1.68342 23.0976 2.31658 22.7071 2.70711L19.7071 5.70711C19.3166 6.09763 18.6834 6.09763 18.2929 5.70711C17.9024 5.31658 17.9024 4.68342 18.2929 4.29289L21.2929 1.29289C21.6834 0.902369 22.3166 0.902369 22.7071 1.29289Z" fill="black"/>
<path fill-rule="evenodd" clip-rule="evenodd" d="M5.70711 18.2929C6.09763 18.6834 6.09763 19.3166 5.70711 19.7071L2.70711 22.7071C2.31658 23.0976 1.68342 23.0976 1.29289 22.7071C0.902369 22.3166 0.902369 21.6834 1.29289 21.2929L4.29289 18.2929C4.68342 17.9024 5.31658 17.9024 5.70711 18.2929Z" fill="black"/>
<path fill-rule="evenodd" clip-rule="evenodd" d="M5.99999 11C6.26521 11 6.51956 11.1054 6.7071 11.2929L12.7071 17.2929C12.8946 17.4804 13 17.7348 13 18C13 18.2652 12.8946 18.5196 12.7071 18.7071L10.4083 21.0059C10.4081 21.0061 10.4078 21.0064 10.4076 21.0067C10.0918 21.3233 9.71678 21.5745 9.30384 21.746C8.89057 21.9176 8.44748 22.0059 7.99999 22.0059C7.55251 22.0059 7.10942 21.9176 6.69614 21.746C6.28325 21.5745 5.90823 21.3233 5.59254 21.0068C5.59225 21.0065 5.59196 21.0062 5.59166 21.0059L2.99412 18.4083C2.99395 18.4082 2.99428 18.4085 2.99412 18.4083C2.67738 18.0926 2.42556 17.7169 2.25404 17.3039C2.08244 16.8906 1.9941 16.4475 1.9941 16C1.9941 15.5525 2.08244 15.1094 2.25404 14.6962C2.42552 14.2832 2.67678 13.9081 2.99343 13.5924C2.99319 13.5926 2.99366 13.5921 2.99343 13.5924L5.29289 11.2929C5.48042 11.1054 5.73478 11 5.99999 11ZM5.99999 13.4142L4.40587 15.0083C4.27535 15.1384 4.1718 15.2929 4.10114 15.4631C4.03047 15.6333 3.9941 15.8157 3.9941 16C3.9941 16.1843 4.03047 16.3667 4.10114 16.5369C4.1718 16.7071 4.27536 16.8616 4.40587 16.9917L7.00833 19.5941C7.13839 19.7246 7.29294 19.8282 7.46311 19.8989C7.63329 19.9695 7.81573 20.0059 7.99999 20.0059C8.18425 20.0059 8.3667 19.9695 8.53687 19.8989C8.70705 19.8282 8.8616 19.7246 8.99166 19.5941L10.5858 18L5.99999 13.4142Z" fill="black"/>
<path fill-rule="evenodd" clip-rule="evenodd" d="M10.7071 10.2929C11.0976 10.6834 11.0976 11.3166 10.7071 11.7071L8.20711 14.2071C7.81658 14.5976 7.18342 14.5976 6.79289 14.2071C6.40237 13.8166 6.40237 13.1834 6.79289 12.7929L9.29289 10.2929C9.68342 9.90237 10.3166 9.90237 10.7071 10.2929Z" fill="black"/>
<path fill-rule="evenodd" clip-rule="evenodd" d="M13.7071 13.2929C14.0976 13.6834 14.0976 14.3166 13.7071 14.7071L11.2071 17.2071C10.8166 17.5976 10.1834 17.5976 9.79289 17.2071C9.40237 16.8166 9.40237 16.1834 9.79289 15.7929L12.2929 13.2929C12.6834 12.9024 13.3166 12.9024 13.7071 13.2929Z" fill="black"/>
<path fill-rule="evenodd" clip-rule="evenodd" d="M14.6962 2.25408C15.1094 2.08248 15.5525 1.99414 16 1.99414C16.4475 1.99414 16.8906 2.08248 17.3039 2.25408C17.7169 2.4256 18.0921 2.67692 18.4078 2.99366C18.4077 2.99349 18.408 2.99382 18.4078 2.99366L21.0059 5.5917C21.0062 5.59199 21.0065 5.59229 21.0068 5.59258C21.3233 5.90827 21.5745 6.28329 21.746 6.69618C21.9176 7.10946 22.0059 7.55255 22.0059 8.00003C22.0059 8.44752 21.9176 8.89061 21.746 9.30388C21.5745 9.71682 21.3233 10.0919 21.0067 10.4076C21.0064 10.4079 21.0061 10.4081 21.0059 10.4084L18.7071 12.7071C18.5196 12.8947 18.2652 13 18 13C17.7348 13 17.4804 12.8947 17.2929 12.7071L11.2929 6.70714C11.1054 6.5196 11 6.26525 11 6.00003C11 5.73482 11.1054 5.48046 11.2929 5.29293L13.5917 2.99416C13.5914 2.99439 13.5919 2.99392 13.5917 2.99416C13.9074 2.67751 14.2832 2.42556 14.6962 2.25408ZM16 3.99414C15.8157 3.99414 15.6333 4.03051 15.4631 4.10117C15.2929 4.17184 15.1384 4.27539 15.0083 4.40591L13.4142 6.00003L18 10.5858L19.5941 8.9917C19.7246 8.86163 19.8282 8.70708 19.8989 8.53691C19.9695 8.36674 20.0059 8.18429 20.0059 8.00003C20.0059 7.81577 19.9695 7.63332 19.8989 7.46315C19.8282 7.29298 19.7246 7.13843 19.5941 7.00837L16.9917 4.40591C16.8616 4.27539 16.7071 4.17184 16.5369 4.10117C16.3667 4.03051 16.1843 3.99414 16 3.99414Z" fill="black"/>
</svg>
