<svg width="24" height="24" viewBox="0 0 24 24" fill="none" xmlns="http://www.w3.org/2000/svg">
<path d="M1 21V19C1 17.6739 1.52716 16.4025 2.46484 15.4648C3.40253 14.5272 4.67392 14 6 14H10C10.5523 14 11 14.4477 11 15C11 15.5523 10.5523 16 10 16H6C5.20435 16 4.44152 16.3163 3.87891 16.8789C3.3163 17.4415 3 18.2043 3 19V21C3 21.5523 2.55228 22 2 22C1.44772 22 1 21.5523 1 21Z" fill="black"/>
<path d="M14.846 15.2241C15.356 15.0132 15.9403 15.2552 16.1516 15.7651C16.3628 16.2754 16.1207 16.8605 15.6106 17.0718L14.6878 17.4536C14.1775 17.6648 13.5924 17.4227 13.3811 16.9126C13.17 16.4024 13.4121 15.8173 13.9221 15.606L14.846 15.2241Z" fill="black"/>
<path d="M13.3812 13.0861C13.5928 12.5762 14.1778 12.3338 14.6878 12.5451L15.6116 12.9279C16.1216 13.1397 16.3633 13.7255 16.1517 14.2355C15.94 14.7454 15.355 14.987 14.845 14.7756L13.9222 14.3928C13.4122 14.1812 13.1698 13.5961 13.3812 13.0861Z" fill="black"/>
<path d="M16.0861 10.3811C16.5961 10.1697 17.1812 10.4121 17.3928 10.9221L17.7756 11.8449C17.987 12.3549 17.7454 12.9398 17.2355 13.1516C16.7255 13.3632 16.1397 13.1215 15.9279 12.6115L15.5451 11.6877C15.3338 11.1777 15.5762 10.5927 16.0861 10.3811Z" fill="black"/>
<path d="M15.928 17.3891C16.1395 16.879 16.7245 16.6368 17.2347 16.8481C17.7448 17.0596 17.9871 17.6445 17.7757 18.1547L17.3929 19.0786C17.1814 19.5887 16.5964 19.831 16.0862 19.6196C15.576 19.4081 15.3337 18.8231 15.5452 18.3129L15.928 17.3891Z" fill="black"/>
<path d="M18.6069 10.9222C18.8186 10.4121 19.4044 10.1695 19.9145 10.3812C20.4244 10.5929 20.6659 11.1779 20.4546 11.6879L20.0718 12.6117C19.8601 13.1215 19.2751 13.3631 18.7651 13.1517C18.2551 12.9401 18.0127 12.3551 18.2241 11.8451L18.6069 10.9222Z" fill="black"/>
<path d="M18.7662 16.8481C19.2765 16.6371 19.8608 16.8797 20.0718 17.3901L20.4537 18.3139C20.6647 18.8243 20.4221 19.4086 19.9117 19.6196C19.4013 19.8305 18.817 19.5879 18.606 19.0776L18.2242 18.1537C18.0132 17.6434 18.2558 17.0591 18.7662 16.8481Z" fill="black"/>
<path d="M21.3131 12.5452C21.8233 12.3337 22.4082 12.576 22.6197 13.0862C22.8311 13.5964 22.5889 14.1814 22.0787 14.3929L21.1549 14.7757C20.6447 14.9871 20.0597 14.7448 19.8482 14.2347C19.6369 13.7245 19.8791 13.1395 20.3892 12.928L21.3131 12.5452Z" fill="black"/>
<path d="M19.8481 15.7651C20.0596 15.255 20.6446 15.0127 21.1548 15.2241L22.0786 15.6069C22.5887 15.8184 22.831 16.4034 22.6196 16.9136C22.4082 17.4238 21.8232 17.6661 21.313 17.4546L20.3892 17.0718C19.879 16.8603 19.6367 16.2753 19.8481 15.7651Z" fill="black"/>
<path d="M20 15C20 13.8954 19.1046 13 18 13C16.8954 13 16 13.8954 16 15C16 16.1046 16.8954 17 18 17C19.1046 17 20 16.1046 20 15ZM22 15C22 17.2091 20.2091 19 18 19C15.7909 19 14 17.2091 14 15C14 12.7909 15.7909 11 18 11C20.2091 11 22 12.7909 22 15Z" fill="black"/>
<path d="M12 7C12 5.34315 10.6569 4 9 4C7.34315 4 6 5.34315 6 7C6 8.65685 7.34315 10 9 10C10.6569 10 12 8.65685 12 7ZM14 7C14 9.76142 11.7614 12 9 12C6.23858 12 4 9.76142 4 7C4 4.23858 6.23858 2 9 2C11.7614 2 14 4.23858 14 7Z" fill="black"/>
</svg>
