<svg width="24" height="24" viewBox="0 0 24 24" fill="none" xmlns="http://www.w3.org/2000/svg">
<path d="M10.4579 7.12736C12.3644 6.82985 14.3163 7.0905 16.0781 7.87736C17.8399 8.66433 19.3369 9.94442 20.3876 11.5629C21.4384 13.1814 21.9982 15.0698 21.9999 16.9994C22.0003 17.5515 21.5531 17.9999 21.0009 18.0004C20.4488 18.0009 20.0007 17.5535 19.9999 17.0014C19.9985 15.4577 19.5505 13.9466 18.7099 12.6518C17.8693 11.3571 16.672 10.3331 15.2626 9.70353C13.8532 9.07401 12.2917 8.86593 10.7665 9.10392C9.24137 9.34196 7.8175 10.0163 6.66692 11.0453L3.66887 13.7436C3.25845 14.1128 2.62622 14.0796 2.25676 13.6694C1.88731 13.2588 1.92047 12.6257 2.33098 12.2563L5.33098 9.55705L5.33294 9.55509C6.77121 8.26866 8.55137 7.42493 10.4579 7.12736Z" fill="black"/>
<path d="M2 7C2 6.44772 2.44772 6 3 6C3.55228 6 4 6.44772 4 7V12H9C9.55228 12 10 12.4477 10 13C10 13.5523 9.55228 14 9 14H3C2.44772 14 2 13.5523 2 13V7Z" fill="black"/>
<path d="M10 17C10 15.8954 10.8954 15 12 15C13.1046 15 14 15.8954 14 17C14 18.1046 13.1046 19 12 19C10.8954 19 10 18.1046 10 17Z" fill="black"/>
</svg>
