<svg width="24" height="24" viewBox="0 0 24 24" fill="none" xmlns="http://www.w3.org/2000/svg">
<path d="M13 21.0002V18.0002C13 17.735 12.8946 17.4807 12.707 17.2932C12.5195 17.1057 12.2652 17.0002 12 17.0002C11.7348 17.0002 11.4805 17.1057 11.293 17.2932C11.1054 17.4807 11 17.735 11 18.0002V21.0002C11 21.5525 10.5523 22.0002 10 22.0002C9.44771 22.0002 9 21.5525 9 21.0002V18.0002C9 17.2046 9.3163 16.4418 9.87891 15.8792C10.4415 15.3165 11.2043 15.0002 12 15.0002C12.7957 15.0002 13.5585 15.3165 14.1211 15.8792C14.6837 16.4418 15 17.2046 15 18.0002V21.0002C15 21.5525 14.5523 22.0002 14 22.0002C13.4477 22.0002 13 21.5525 13 21.0002Z" fill="black"/>
<path d="M18.0098 11.0002C18.562 11.0002 19.0098 11.448 19.0098 12.0002C19.0098 12.5525 18.562 13.0002 18.0098 13.0002H18C17.4477 13.0002 17 12.5525 17 12.0002C17 11.448 17.4477 11.0002 18 11.0002H18.0098Z" fill="black"/>
<path d="M18.0098 15.0002C18.562 15.0002 19.0098 15.448 19.0098 16.0002C19.0098 16.5525 18.562 17.0002 18.0098 17.0002H18C17.4477 17.0002 17 16.5525 17 16.0002C17 15.448 17.4477 15.0002 18 15.0002H18.0098Z" fill="black"/>
<path d="M19 7C18.3869 6.99991 17.7882 6.81239 17.2852 6.46191L12.5713 3.18066C12.4037 3.06386 12.2043 3.00112 12 3.00098C11.7959 3.00089 11.5963 3.06324 11.4287 3.17969L6.71484 6.45898L6.71582 6.45996C6.21298 6.81095 5.6142 6.99945 5.00098 7H3V19C3 19.2652 3.10552 19.5195 3.29297 19.707C3.48051 19.8946 3.73478 20 4 20H20C20.2652 20 20.5195 19.8946 20.707 19.707C20.8945 19.5195 21 19.2652 21 19V7H19ZM23 19C23 19.7957 22.6837 20.5595 22.1211 21.1221C21.5585 21.6845 20.7955 22 20 22H4C3.20452 22 2.44148 21.6845 1.87891 21.1221C1.3163 20.5595 1 19.7957 1 19V7C1.00007 6.46967 1.21093 5.96095 1.58594 5.58594C1.961 5.21095 2.46963 5 3 5H4.99902C5.20335 4.99982 5.40274 4.93721 5.57031 4.82031L5.57129 4.81934L10.2861 1.53809L10.4785 1.41504C10.9387 1.14443 11.4644 1.00074 12.001 1.00098C12.6134 1.00132 13.2103 1.19009 13.7129 1.54004L13.7139 1.53906L18.4287 4.82031L18.5596 4.89844C18.696 4.96538 18.8467 4.99996 19 5H21C21.5304 5 22.039 5.21095 22.4141 5.58594C22.7891 5.96095 22.9999 6.46967 23 7V19Z" fill="black"/>
<path d="M6.00977 11.0002C6.56205 11.0002 7.00977 11.448 7.00977 12.0002C7.00977 12.5525 6.56205 13.0002 6.00977 13.0002H6C5.44772 13.0002 5 12.5525 5 12.0002C5 11.448 5.44772 11.0002 6 11.0002H6.00977Z" fill="black"/>
<path d="M6.00977 15.0002C6.56205 15.0002 7.00977 15.448 7.00977 16.0002C7.00977 16.5525 6.56205 17.0002 6.00977 17.0002H6C5.44772 17.0002 5 16.5525 5 16.0002C5 15.448 5.44772 15.0002 6 15.0002H6.00977Z" fill="black"/>
<path d="M13 10.0002C13 9.44796 12.5523 9.00024 12 9.00024C11.4477 9.00024 11 9.44796 11 10.0002C11 10.5525 11.4477 11.0002 12 11.0002C12.5523 11.0002 13 10.5525 13 10.0002ZM15 10.0002C15 11.6571 13.6569 13.0002 12 13.0002C10.3431 13.0002 9 11.6571 9 10.0002C9 8.34339 10.3431 7.00024 12 7.00024C13.6569 7.00024 15 8.34339 15 10.0002Z" fill="black"/>
</svg>
