<svg width="24" height="24" viewBox="0 0 24 24" fill="none" xmlns="http://www.w3.org/2000/svg">
<path fill-rule="evenodd" clip-rule="evenodd" d="M12.7758 2.75014C13.8953 1.67059 15.3898 1.06734 16.945 1.06734C18.5002 1.06734 19.9947 1.67059 21.1142 2.75014L21.1156 2.75151C22.2584 3.85796 22.9154 5.37271 22.9424 6.96316C22.9683 8.48621 22.4143 9.95947 21.3973 11.0868C21.3595 11.1446 21.3154 11.1991 21.265 11.2491L19.545 12.9591C19.1534 13.3485 18.5202 13.3467 18.1308 12.955C17.7415 12.5633 17.7433 11.9302 18.135 11.5408L19.7261 9.95891C19.7544 9.91924 19.7859 9.88132 19.8204 9.84553C20.5571 9.08221 20.9607 8.05776 20.9427 6.9971C20.9247 5.93676 20.4868 4.92688 19.7251 4.18906C18.9785 3.46944 17.982 3.06734 16.945 3.06734C15.9101 3.06734 14.9154 3.46785 14.1693 4.18479L12.455 5.88912C12.0634 6.2785 11.4302 6.27666 11.0408 5.885C10.6515 5.49334 10.6533 4.86017 11.045 4.47079L12.765 2.76079C12.7686 2.75721 12.7722 2.75366 12.7758 2.75014Z" fill="black"/>
<path fill-rule="evenodd" clip-rule="evenodd" d="M5.8771 11.0429C6.26763 11.4334 6.26763 12.0666 5.8771 12.4571L4.17374 14.1605C3.44078 14.9232 3.03932 15.945 3.05728 17.0029C3.07527 18.0632 3.51321 19.0731 4.27496 19.811C5.02154 20.5305 6.01806 20.9326 7.055 20.9326C8.08945 20.9326 9.08368 20.5325 9.82966 19.8161L11.5329 18.1129C11.9234 17.7224 12.5566 17.7224 12.9471 18.1129C13.3376 18.5034 13.3376 19.1366 12.9471 19.5271L11.2371 21.2371C11.2328 21.2414 11.2285 21.2456 11.2242 21.2498C10.1047 22.3294 8.61018 22.9326 7.055 22.9326C5.49982 22.9326 4.00527 22.3294 2.88583 21.2498L2.88441 21.2484C1.7416 20.142 1.08456 18.6273 1.05757 17.0368C1.03057 15.4463 1.63582 13.9102 2.74043 12.7656C2.74455 12.7613 2.7487 12.7571 2.75289 12.7529L4.46289 11.0429C4.85341 10.6524 5.48658 10.6524 5.8771 11.0429Z" fill="black"/>
<path fill-rule="evenodd" clip-rule="evenodd" d="M8 1C8.55228 1 9 1.44772 9 2V5C9 5.55228 8.55228 6 8 6C7.44772 6 7 5.55228 7 5V2C7 1.44772 7.44772 1 8 1Z" fill="black"/>
<path fill-rule="evenodd" clip-rule="evenodd" d="M1 8C1 7.44772 1.44772 7 2 7H5C5.55228 7 6 7.44772 6 8C6 8.55228 5.55228 9 5 9H2C1.44772 9 1 8.55228 1 8Z" fill="black"/>
<path fill-rule="evenodd" clip-rule="evenodd" d="M16 18C16.5523 18 17 18.4477 17 19V22C17 22.5523 16.5523 23 16 23C15.4477 23 15 22.5523 15 22V19C15 18.4477 15.4477 18 16 18Z" fill="black"/>
<path fill-rule="evenodd" clip-rule="evenodd" d="M18 16C18 15.4477 18.4477 15 19 15H22C22.5523 15 23 15.4477 23 16C23 16.5523 22.5523 17 22 17H19C18.4477 17 18 16.5523 18 16Z" fill="black"/>
</svg>
