<svg width="24" height="24" viewBox="0 0 24 24" fill="none" xmlns="http://www.w3.org/2000/svg">
<path d="M11 20V13C11 12.4477 11.4477 12 12 12C12.5523 12 13 12.4477 13 13V20C13 20.2652 13.1054 20.5195 13.293 20.707C13.4805 20.8946 13.7348 21 14 21C14.2652 21 14.5195 20.8946 14.707 20.707C14.8946 20.5195 15 20.2652 15 20C15 19.4477 15.4477 19 16 19C16.5523 19 17 19.4477 17 20C17 20.7957 16.6837 21.5585 16.1211 22.1211C15.5585 22.6837 14.7957 23 14 23C13.2043 23 12.4415 22.6837 11.8789 22.1211C11.3163 21.5585 11 20.7957 11 20Z" fill="black"/>
<path d="M11 4V2C11 1.44772 11.4477 1 12 1C12.5523 1 13 1.44772 13 2V4C13 4.55228 12.5523 5 12 5C11.4477 5 11 4.55228 11 4Z" fill="black"/>
<path d="M12.0006 2.99731C14.5052 2.99737 16.9388 3.83114 18.9176 5.36646C20.8964 6.9018 22.308 9.05178 22.9303 11.4778H22.9284C23.0073 11.7692 23.0215 12.0744 22.9655 12.3713C22.9078 12.6767 22.7797 12.9649 22.5914 13.2122C22.4032 13.4593 22.1595 13.6593 21.8805 13.7961C21.6039 13.9317 21.2998 14.0006 20.9918 13.9993L2.99964 14.0002C2.69041 14 2.38479 13.9283 2.10804 13.7903C1.83124 13.6522 1.59021 13.4513 1.40394 13.2043C1.21771 12.9574 1.09149 12.6705 1.0348 12.3665C0.979741 12.071 0.993415 11.7676 1.07191 11.4778H1.06996C1.69228 9.05166 3.10473 6.90182 5.08363 5.36646C7.06253 3.83109 9.49594 2.99731 12.0006 2.99731ZM12.0006 4.99731C9.93988 4.99731 7.93737 5.6833 6.30921 6.94653C4.68118 8.20975 3.51946 9.97883 3.00746 11.9749L3.00062 12.0002H21.0006C20.9982 11.9918 20.995 11.9833 20.9928 11.9749C20.4808 9.97873 19.3192 8.20977 17.691 6.94653C16.063 5.68339 14.0612 4.99737 12.0006 4.99731Z" fill="black"/>
</svg>
