<svg width="24" height="24" viewBox="0 0 24 24" fill="none" xmlns="http://www.w3.org/2000/svg">
<path fill-rule="evenodd" clip-rule="evenodd" d="M6 5V9H12V5H6ZM4 5C4 3.89543 4.89543 3 6 3H12C13.1046 3 14 3.89543 14 5V9C14 10.1046 13.1046 11 12 11H6C4.89543 11 4 10.1046 4 9V5Z" fill="black"/>
<path fill-rule="evenodd" clip-rule="evenodd" d="M12 15V19H18V15H12ZM10 15C10 13.8954 10.8954 13 12 13H18C19.1046 13 20 13.8954 20 15V19C20 20.1046 19.1046 21 18 21H12C10.8954 21 10 20.1046 10 19V15Z" fill="black"/>
</svg>
