<svg width="24" height="24" viewBox="0 0 24 24" fill="none" xmlns="http://www.w3.org/2000/svg">
<path d="M11 15V3C11 2.44772 11.4477 2 12 2C12.5523 2 13 2.44772 13 3V15C13 15.5523 12.5523 16 12 16C11.4477 16 11 15.5523 11 15Z" fill="black"/>
<path d="M11.3691 2.22462C11.7618 1.90427 12.3408 1.92686 12.707 2.29298L17.707 7.29298C18.0975 7.6835 18.0975 8.31652 17.707 8.70704C17.3164 9.09757 16.6834 9.09757 16.2929 8.70704L11.9999 4.41407L7.70696 8.70704C7.31643 9.09757 6.68342 9.09757 6.29289 8.70704C5.90237 8.31652 5.90237 7.6835 6.29289 7.29298L11.2929 2.29298L11.3691 2.22462Z" fill="black"/>
<path d="M2 19V15C2 14.4477 2.44772 14 3 14C3.55228 14 4 14.4477 4 15V19C4 19.2652 4.10543 19.5195 4.29297 19.707C4.48051 19.8946 4.73478 20 5 20H19C19.2652 20 19.5195 19.8946 19.707 19.707C19.8946 19.5195 20 19.2652 20 19V15C20 14.4477 20.4477 14 21 14C21.5523 14 22 14.4477 22 15V19C22 19.7957 21.6837 20.5585 21.1211 21.1211C20.5585 21.6837 19.7957 22 19 22H5C4.20435 22 3.44151 21.6837 2.87891 21.1211C2.3163 20.5585 2 19.7957 2 19Z" fill="black"/>
</svg>
