<svg width="24" height="24" viewBox="0 0 24 24" fill="none" xmlns="http://www.w3.org/2000/svg">
<path fill-rule="evenodd" clip-rule="evenodd" d="M3.63604 14.636C5.32387 12.9482 7.61305 12 10 12C12.3869 12 14.6761 12.9482 16.364 14.636C18.0518 16.3239 19 18.6131 19 21C19 21.5523 18.5523 22 18 22C17.4477 22 17 21.5523 17 21C17 19.1435 16.2625 17.363 14.9497 16.0503C13.637 14.7375 11.8565 14 10 14C8.14348 14 6.36301 14.7375 5.05025 16.0503C3.7375 17.363 3 19.1435 3 21C3 21.5523 2.55228 22 2 22C1.44772 22 1 21.5523 1 21C1 18.6131 1.94821 16.3239 3.63604 14.636Z" fill="black"/>
<path fill-rule="evenodd" clip-rule="evenodd" d="M10 4C7.79086 4 6 5.79086 6 8C6 10.2091 7.79086 12 10 12C12.2091 12 14 10.2091 14 8C14 5.79086 12.2091 4 10 4ZM4 8C4 4.68629 6.68629 2 10 2C13.3137 2 16 4.68629 16 8C16 11.3137 13.3137 14 10 14C6.68629 14 4 11.3137 4 8Z" fill="black"/>
<path fill-rule="evenodd" clip-rule="evenodd" d="M16.6899 3.18979C16.9716 2.71477 17.5851 2.55809 18.0601 2.83982C18.9084 3.34294 19.6196 4.0474 20.1307 4.89086C20.6418 5.73433 20.9372 6.69078 20.9906 7.67559C21.0439 8.66039 20.8538 9.64317 20.4368 10.5369C20.193 11.0596 19.876 11.5424 19.4971 11.9716C21.3686 13.7947 23 16.7783 23 19.9999C23 20.5522 22.5523 20.9999 22 20.9999C21.4477 20.9999 21 20.5522 21 19.9999C21 16.9891 19.186 14.1394 17.4 12.7999C17.1482 12.6111 17 12.3147 17 12C17 11.6853 17.1481 11.3889 17.3999 11.2C17.9258 10.8054 18.3464 10.2873 18.6243 9.69143C18.9023 9.09558 19.0291 8.44039 18.9935 7.78386C18.9579 7.12732 18.761 6.48969 18.4202 5.92738C18.0795 5.36507 17.6054 4.89543 17.0399 4.56002C16.5649 4.27828 16.4082 3.66481 16.6899 3.18979Z" fill="black"/>
</svg>
