<svg width="24" height="24" viewBox="0 0 24 24" fill="none" xmlns="http://www.w3.org/2000/svg">
<path fill-rule="evenodd" clip-rule="evenodd" d="M12.4684 14.4488C11.409 14.0496 10.2686 13.9133 9.14502 14.0516C8.02141 14.1898 6.9481 14.5986 6.01713 15.2427C5.08616 15.8868 4.32531 16.7471 3.79982 17.7499C3.27433 18.7526 2.99988 19.8678 3 20.9999C3.00006 21.5522 2.5524 22 2.00011 22C1.44783 22.0001 1.00006 21.5524 1 21.0001C0.99984 19.5446 1.35271 18.1107 2.02834 16.8215C2.70397 15.5323 3.68221 14.4262 4.87917 13.598C6.07613 12.7698 7.4561 12.2443 8.90074 12.0665C10.3454 11.8887 11.8116 12.064 13.1736 12.5773C13.6904 12.772 13.9515 13.3488 13.7568 13.8657C13.562 14.3825 12.9852 14.6435 12.4684 14.4488Z" fill="black"/>
<path fill-rule="evenodd" clip-rule="evenodd" d="M17.6669 12.9149C18.2528 12.329 19.0474 11.9998 19.876 11.9998C20.7046 11.9998 21.4992 12.329 22.0851 12.9149C22.671 13.5008 23.0002 14.2954 23.0002 15.124C23.0002 15.9526 22.671 16.7472 22.0851 17.3331L18.0723 21.3419C18.0723 21.342 18.0724 21.3419 18.0723 21.3419C17.7159 21.6985 17.2752 21.9596 16.7913 22.1009L13.921 22.938C13.921 22.938 13.921 22.938 13.921 22.938C13.6629 23.0133 13.3892 23.0178 13.1287 22.9511C12.8683 22.8843 12.6305 22.7488 12.4404 22.5587C12.2502 22.3685 12.1147 22.1308 12.0479 21.8703C11.9812 21.6098 11.9857 21.3362 12.061 21.078C12.061 21.078 12.061 21.078 12.061 21.078L12.8981 18.2077C13.0394 17.7239 13.3003 17.2834 13.6567 16.9271L17.6669 12.9149ZM19.0813 14.3289L15.0709 18.3413C14.9521 18.46 14.8652 18.6068 14.818 18.768L14.2363 20.7627L16.2307 20.1811C16.2306 20.1811 16.2308 20.181 16.2307 20.1811C16.3919 20.1339 16.539 20.0469 16.6577 19.9281L20.6709 15.9189C20.6709 15.9189 20.6709 15.9189 20.6709 15.9189C20.8817 15.7081 21.0002 15.4221 21.0002 15.124C21.0002 14.8258 20.8817 14.5399 20.6709 14.3291C20.4601 14.1183 20.1742 13.9998 19.876 13.9998C19.578 13.9998 19.2921 14.1182 19.0813 14.3289Z" fill="black"/>
<path fill-rule="evenodd" clip-rule="evenodd" d="M10 4C7.79086 4 6 5.79086 6 8C6 10.2091 7.79086 12 10 12C12.2091 12 14 10.2091 14 8C14 5.79086 12.2091 4 10 4ZM4 8C4 4.68629 6.68629 2 10 2C13.3137 2 16 4.68629 16 8C16 11.3137 13.3137 14 10 14C6.68629 14 4 11.3137 4 8Z" fill="black"/>
</svg>
