<svg width="24" height="24" viewBox="0 0 24 24" fill="none" xmlns="http://www.w3.org/2000/svg">
<path fill-rule="evenodd" clip-rule="evenodd" d="M3.46447 15.4645C4.40215 14.5268 5.67392 14 7 14H11.5C12.0523 14 12.5 14.4477 12.5 15C12.5 15.5523 12.0523 16 11.5 16H7C6.20435 16 5.44129 16.3161 4.87868 16.8787C4.31607 17.4413 4 18.2043 4 19V21C4 21.5523 3.55228 22 3 22C2.44772 22 2 21.5523 2 21V19C2 17.6739 2.52678 16.4021 3.46447 15.4645Z" fill="black"/>
<path fill-rule="evenodd" clip-rule="evenodd" d="M17.6669 12.9149C18.2528 12.329 19.0474 11.9998 19.876 11.9998C20.7046 11.9998 21.4992 12.329 22.0851 12.9149C22.671 13.5008 23.0002 14.2954 23.0002 15.124C23.0002 15.9526 22.671 16.7472 22.0851 17.3331L18.0723 21.3419C18.0723 21.342 18.0724 21.3419 18.0723 21.3419C17.7159 21.6985 17.2752 21.9596 16.7913 22.1009L13.921 22.938C13.921 22.938 13.921 22.938 13.921 22.938C13.6629 23.0133 13.3892 23.0178 13.1287 22.9511C12.8683 22.8843 12.6305 22.7488 12.4404 22.5587C12.2502 22.3685 12.1147 22.1308 12.0479 21.8703C11.9812 21.6098 11.9857 21.3362 12.061 21.078C12.061 21.078 12.061 21.078 12.061 21.078L12.8981 18.2077C13.0394 17.7239 13.3003 17.2834 13.6567 16.9271L17.6669 12.9149ZM19.0813 14.3289L15.0709 18.3413C14.9521 18.46 14.8652 18.6068 14.818 18.768L14.2363 20.7627L16.2307 20.1811C16.2306 20.1811 16.2308 20.181 16.2307 20.1811C16.3919 20.1339 16.539 20.0469 16.6577 19.9281L20.6709 15.9189C20.6709 15.9189 20.6709 15.9189 20.6709 15.9189C20.8817 15.7081 21.0002 15.4221 21.0002 15.124C21.0002 14.8258 20.8817 14.5399 20.6709 14.3291C20.4601 14.1183 20.1742 13.9998 19.876 13.9998C19.578 13.9998 19.2921 14.1182 19.0813 14.3289Z" fill="black"/>
<path fill-rule="evenodd" clip-rule="evenodd" d="M10 4C8.34315 4 7 5.34315 7 7C7 8.65685 8.34315 10 10 10C11.6569 10 13 8.65685 13 7C13 5.34315 11.6569 4 10 4ZM5 7C5 4.23858 7.23858 2 10 2C12.7614 2 15 4.23858 15 7C15 9.76142 12.7614 12 10 12C7.23858 12 5 9.76142 5 7Z" fill="black"/>
</svg>
