<svg width="24" height="24" viewBox="0 0 24 24" fill="none" xmlns="http://www.w3.org/2000/svg">
<path fill-rule="evenodd" clip-rule="evenodd" d="M10 4C8.34315 4 7 5.34315 7 7C7 8.65685 8.34315 10 10 10C11.6569 10 13 8.65685 13 7C13 5.34315 11.6569 4 10 4ZM5 7C5 4.23858 7.23858 2 10 2C12.7614 2 15 4.23858 15 7C15 9.76142 12.7614 12 10 12C7.23858 12 5 9.76142 5 7Z" fill="black"/>
<path fill-rule="evenodd" clip-rule="evenodd" d="M3.46447 15.4645C4.40215 14.5268 5.67392 14 7 14H10.3C10.8523 14 11.3 14.4477 11.3 15C11.3 15.5523 10.8523 16 10.3 16H7C6.20435 16 5.44129 16.3161 4.87868 16.8787C4.31607 17.4413 4 18.2043 4 19V21C4 21.5523 3.55228 22 3 22C2.44772 22 2 21.5523 2 21V19C2 17.6739 2.52678 16.4021 3.46447 15.4645Z" fill="black"/>
<path fill-rule="evenodd" clip-rule="evenodd" d="M17 15C15.8954 15 15 15.8954 15 17C15 18.1046 15.8954 19 17 19C18.1046 19 19 18.1046 19 17C19 15.8954 18.1046 15 17 15ZM13 17C13 14.7909 14.7909 13 17 13C19.2091 13 21 14.7909 21 17C21 19.2091 19.2091 21 17 21C14.7909 21 13 19.2091 13 17Z" fill="black"/>
<path fill-rule="evenodd" clip-rule="evenodd" d="M18.3929 18.3929C18.7834 18.0024 19.4166 18.0024 19.8071 18.3929L21.7071 20.2929C22.0976 20.6834 22.0976 21.3166 21.7071 21.7071C21.3166 22.0976 20.6834 22.0976 20.2929 21.7071L18.3929 19.8071C18.0024 19.4166 18.0024 18.7834 18.3929 18.3929Z" fill="black"/>
</svg>
