<svg width="24" height="24" viewBox="0 0 24 24" fill="none" xmlns="http://www.w3.org/2000/svg">
<path d="M15 21V19C15 18.2043 14.6837 17.4415 14.1211 16.8789C13.5585 16.3163 12.7956 16 12 16H6C5.20435 16 4.44152 16.3163 3.87891 16.8789C3.3163 17.4415 3 18.2043 3 19V21C3 21.5523 2.55228 22 2 22C1.44772 22 1 21.5523 1 21V19C1 17.6739 1.52716 16.4025 2.46484 15.4648C3.40253 14.5272 4.67392 14 6 14H12C13.3261 14 14.5975 14.5272 15.5352 15.4648C16.4728 16.4025 17 17.6739 17 19V21C17 21.5523 16.5523 22 16 22C15.4477 22 15 21.5523 15 21Z" fill="black"/>
<path d="M17.9961 7.00003C17.9961 6.33553 17.7758 5.68965 17.3692 5.16409C16.9625 4.63849 16.3924 4.26251 15.7491 4.09573C15.2145 3.9571 14.8937 3.41157 15.0323 2.87698C15.1709 2.34242 15.7164 2.02159 16.251 2.16018C17.3232 2.43816 18.2724 3.06448 18.9502 3.94046C19.628 4.81644 19.9961 5.89243 19.9961 7.00003C19.9961 8.10764 19.6281 9.18362 18.9502 10.0596C18.2724 10.9356 17.3232 11.5619 16.251 11.8399C15.7165 11.9784 15.1709 11.6576 15.0323 11.1231C14.8937 10.5885 15.2145 10.043 15.7491 9.90432C16.3924 9.73755 16.9625 9.36156 17.3692 8.83597C17.7758 8.31041 17.9961 7.66453 17.9961 7.00003Z" fill="black"/>
<path d="M21 21V19.001L20.9893 18.753C20.9411 18.1768 20.7275 17.6248 20.3711 17.1651C19.9639 16.6397 19.3936 16.2639 18.75 16.0977C18.2154 15.9596 17.8942 15.4146 18.0323 14.8799C18.1704 14.3452 18.7153 14.0241 19.25 14.1621C20.3227 14.4391 21.2735 15.0639 21.9522 15.9395C22.6308 16.815 22.9992 17.8913 23 18.9991V21C23 21.5523 22.5523 22 22 22C21.4478 22 21.0001 21.5523 21 21Z" fill="black"/>
<path d="M12 7C12 5.34315 10.6569 4 9 4C7.34315 4 6 5.34315 6 7C6 8.65685 7.34315 10 9 10C10.6569 10 12 8.65685 12 7ZM14 7C14 9.76142 11.7614 12 9 12C6.23858 12 4 9.76142 4 7C4 4.23858 6.23858 2 9 2C11.7614 2 14 4.23858 14 7Z" fill="black"/>
</svg>
