<svg width="24" height="24" viewBox="0 0 24 24" fill="none" xmlns="http://www.w3.org/2000/svg">
<path fill-rule="evenodd" clip-rule="evenodd" d="M16.7071 1.29289C17.0976 1.68342 17.0976 2.31658 16.7071 2.70711L14.411 5.00321C14.0465 5.37673 13.8424 5.87799 13.8424 6.4C13.8424 6.92201 14.0465 7.42326 14.411 7.79678L16.2032 9.589C16.5767 9.95349 17.078 10.1576 17.6 10.1576C18.122 10.1576 18.6233 9.95349 18.9968 9.589L21.2929 7.29289C21.6834 6.90237 22.3166 6.90237 22.7071 7.29289C23.0976 7.68342 23.0976 8.31658 22.7071 8.70711L20.4071 11.0071C20.4056 11.0086 20.4041 11.0102 20.4025 11.0117L20.4 11.0141C19.6523 11.7471 18.647 12.1576 17.6 12.1576C16.553 12.1576 15.5477 11.7471 14.8 11.0141C14.7976 11.0118 14.7952 11.0095 14.7929 11.0071L12.9929 9.20711C12.9905 9.20475 12.9882 9.20238 12.9859 9.2C12.2529 8.45228 11.8424 7.44701 11.8424 6.4C11.8424 5.35299 12.2529 4.34772 12.9859 3.6C12.9882 3.59762 12.9905 3.59525 12.9929 3.59289L15.2929 1.29289C15.6834 0.902369 16.3166 0.902369 16.7071 1.29289Z" fill="black"/>
<path fill-rule="evenodd" clip-rule="evenodd" d="M2.60022 2.58579C2.99186 2.20206 3.61947 2.20526 4.00718 2.59297L22.7072 21.293C23.0977 21.6835 23.0977 22.3167 22.7072 22.7072C22.3167 23.0977 21.6835 23.0977 21.293 22.7072L15.0001 16.4143L14.1072 17.3072C14.0915 17.3229 14.0753 17.338 14.0586 17.3527C12.9089 18.3586 11.0074 18.4217 9.89297 17.3072L2.59638 10.0106C2.10404 9.52721 1.71281 8.95065 1.4455 8.31452C1.1775 7.67673 1.03946 6.99188 1.03946 6.30008C1.03946 5.60827 1.1775 4.92342 1.4455 4.28564C1.7135 3.64785 2.10607 3.06996 2.60022 2.58579ZM13.5859 15.0001L3.40351 4.81773C3.36214 4.89686 3.32404 4.97783 3.28933 5.06042C3.12441 5.45291 3.03946 5.87435 3.03946 6.30008C3.03946 6.7258 3.12441 7.14725 3.28933 7.53974C3.45425 7.93222 3.69584 8.28785 3.99993 8.58579C4.00236 8.58817 4.00477 8.59057 4.00718 8.59297L11.3072 15.893C11.5883 16.1741 12.2696 16.2395 12.7204 15.8655L13.5859 15.0001Z" fill="black"/>
<path fill-rule="evenodd" clip-rule="evenodd" d="M9.21266 14.7985C9.6001 15.1921 9.59511 15.8252 9.20152 16.2127L2.80152 22.5127C2.40794 22.9001 1.77479 22.8951 1.38735 22.5015C0.999916 22.1079 1.0049 21.4748 1.39849 21.0873L7.79849 14.7873C8.19208 14.3999 8.82522 14.4049 9.21266 14.7985Z" fill="black"/>
<path fill-rule="evenodd" clip-rule="evenodd" d="M19.7071 4.29289C20.0976 4.68342 20.0976 5.31658 19.7071 5.70711L12.7071 12.7071C12.3166 13.0976 11.6834 13.0976 11.2929 12.7071C10.9024 12.3166 10.9024 11.6834 11.2929 11.2929L18.2929 4.29289C18.6834 3.90237 19.3166 3.90237 19.7071 4.29289Z" fill="black"/>
</svg>
