<svg width="24" height="24" viewBox="0 0 24 24" fill="none" xmlns="http://www.w3.org/2000/svg">
<path d="M11 20V13C11 12.4477 11.4477 12 12 12C12.5523 12 13 12.4477 13 13V20C13 20.2652 13.1054 20.5195 13.293 20.707C13.4805 20.8946 13.7348 21 14 21C14.2652 21 14.5195 20.8946 14.707 20.707C14.8946 20.5195 15 20.2652 15 20C15 19.4477 15.4477 19 16 19C16.5523 19 17 19.4477 17 20C17 20.7957 16.6837 21.5585 16.1211 22.1211C15.5585 22.6837 14.7957 23 14 23C13.2043 23 12.4415 22.6837 11.8789 22.1211C11.3163 21.5585 11 20.7957 11 20Z" fill="black"/>
<path d="M11 4V2C11 1.44772 11.4477 1 12 1C12.5523 1 13 1.44772 13 2V4C13 4.55228 12.5523 5 12 5C11.4477 5 11 4.55228 11 4Z" fill="black"/>
<path d="M9.68698 3.23763C12.5307 2.64192 15.4945 3.16572 17.9614 4.70052C20.4284 6.23549 22.2091 8.66345 22.9311 11.4779H22.9292C23.008 11.7692 23.0213 12.0747 22.9653 12.3714C22.9076 12.6767 22.7795 12.9641 22.5913 13.2113C22.4031 13.4584 22.1602 13.6584 21.8813 13.7952C21.6046 13.9309 21.2998 14.0007 20.9917 13.9993L18.6557 14.0003C18.1037 14.0001 17.656 13.5523 17.6557 13.0003C17.6557 12.4481 18.1036 12.0005 18.6557 12.0003H21.0005C20.998 11.9918 20.9958 11.9825 20.9936 11.974C20.3996 9.65866 18.9352 7.66162 16.9057 6.39876C14.876 5.13585 12.4369 4.70452 10.0971 5.19466C9.55669 5.30787 9.02692 4.96159 8.91354 4.42122C8.80032 3.88071 9.14651 3.35092 9.68698 3.23763Z" fill="black"/>
<path d="M1.29289 1.29289C1.68342 0.902369 2.31643 0.902369 2.70696 1.29289L22.707 21.2929C23.0975 21.6834 23.0975 22.3164 22.707 22.707C22.3164 23.0975 21.6834 23.0975 21.2929 22.707L1.29289 2.70696C0.902369 2.31643 0.902369 1.68342 1.29289 1.29289Z" fill="black"/>
<path d="M5.37366 5.14751C5.82071 4.82323 6.44587 4.92311 6.77015 5.37016C7.09432 5.81714 6.99531 6.44233 6.54847 6.76665C4.79738 8.03686 3.54454 9.87912 3.00745 11.9747C3.00527 11.9831 3.00302 11.9916 3.00062 12H12.9996C13.5519 12 13.9996 12.4478 13.9996 13C13.9996 13.5523 13.5519 14 12.9996 14H2.99964C2.69037 13.9998 2.3848 13.9281 2.10804 13.7901C1.83124 13.652 1.5902 13.4511 1.40394 13.2041C1.21775 12.9573 1.09148 12.6702 1.0348 12.3663C0.979764 12.0708 0.993384 11.7674 1.0719 11.4776H1.06995C1.72281 8.93048 3.24523 6.69144 5.37366 5.14751Z" fill="black"/>
</svg>
