<svg width="24" height="24" viewBox="0 0 24 24" fill="none" xmlns="http://www.w3.org/2000/svg">
<path fill-rule="evenodd" clip-rule="evenodd" d="M15.4 8.20012C15.8418 7.8687 16.4686 7.95819 16.8 8.39998C17.4052 9.20679 17.7973 10.1531 17.94 11.1516C18.0181 11.6983 17.6383 12.2049 17.0915 12.283C16.5448 12.3611 16.0383 11.9813 15.9601 11.4345C15.865 10.7689 15.6036 10.138 15.2001 9.60014C14.8687 9.15834 14.9582 8.53153 15.4 8.20012Z" fill="black"/>
<path fill-rule="evenodd" clip-rule="evenodd" d="M18.6565 4.92932C19.0469 4.53869 19.68 4.53851 20.0707 4.92892C22.9508 7.80736 23.7957 12.2625 22.1696 15.9956C21.949 16.5019 21.3597 16.7336 20.8534 16.513C20.3471 16.2925 20.1154 15.7032 20.336 15.1969C21.6337 12.2177 20.9553 8.64066 18.6569 6.34354C18.2662 5.95312 18.266 5.31996 18.6565 4.92932Z" fill="black"/>
<path fill-rule="evenodd" clip-rule="evenodd" d="M1.29289 1.29289C1.68342 0.902369 2.31658 0.902369 2.70711 1.29289L22.7071 21.2929C23.0976 21.6834 23.0976 22.3166 22.7071 22.7071C22.3166 23.0976 21.6834 23.0976 21.2929 22.7071L1.29289 2.70711C0.902369 2.31658 0.902369 1.68342 1.29289 1.29289Z" fill="black"/>
<path fill-rule="evenodd" clip-rule="evenodd" d="M7.70711 6.29289C8.09763 6.68342 8.09763 7.31658 7.70711 7.70711C7.67235 7.74186 7.63078 7.78502 7.58379 7.8338C7.41002 8.0142 7.16222 8.27145 6.9115 8.46466C6.54671 8.74578 6.05536 9.00143 5.41473 9H3.00616C3.00609 9.00005 3.00624 8.99994 3.00616 9C3.00608 9.00007 3.00529 9.00067 3.0052 9.00074C3.00512 9.00081 3.00452 9.00132 3.00443 9.00139C3.00434 9.00147 3.00452 9.00131 3.00443 9.00139C3.00434 9.00147 3.00373 9.00202 3.00364 9.0021C3.00355 9.00219 3.00294 9.00277 3.00286 9.00286C3.00277 9.00294 3.00218 9.00355 3.0021 9.00364C3.00202 9.00373 3.00147 9.00434 3.00139 9.00443C3.00132 9.00451 3.00081 9.00512 3.00074 9.00521C3.00067 9.00529 3.00081 9.00512 3.00074 9.00521C3.00068 9.00528 3.00005 9.00609 3 9.00616V14.9938L3.00074 14.9948L3.00139 14.9956L3.0021 14.9964L3.00286 14.9971L3.00364 14.9979L3.00443 14.9986L3.0052 14.9993C3.00514 14.9992 3.00527 14.9993 3.0052 14.9993L3.00616 15H5.41456C6.0523 14.9985 6.67118 15.2549 7.12108 15.7069C7.12146 15.7072 7.12184 15.7076 7.12221 15.708L10 18.5866V11C10 10.4477 10.4477 10 11 10C11.5523 10 12 10.4477 12 11V19.298C12.001 20.8045 10.1536 21.57 9.08879 20.504L5.70579 17.12C5.70512 17.1193 5.70445 17.1187 5.70379 17.118C5.63028 17.0441 5.5232 16.9997 5.41893 17C5.41795 17 5.41698 17 5.416 17H3C1.90305 17 1 16.097 1 15V9C1 7.90305 1.90305 7 3 7H5.416C5.41698 7 5.41795 7 5.41893 7C5.48388 7.00019 5.55493 6.98511 5.69069 6.88048C5.76498 6.82323 5.84682 6.74788 5.94962 6.64454C5.99942 6.59448 6.04935 6.54277 6.10554 6.48459L6.11001 6.47996C6.16609 6.42188 6.22855 6.35723 6.29289 6.29289C6.68342 5.90237 7.31658 5.90237 7.70711 6.29289Z" fill="black"/>
<path fill-rule="evenodd" clip-rule="evenodd" d="M10.0035 5.15671C10.0018 5.21327 10.0001 5.27789 10.0001 5.34313C10.0001 5.89542 10.4478 6.34313 11.0001 6.34313C11.5524 6.34313 12.0001 5.89542 12.0001 5.34313C12.0001 5.27889 12.0016 5.23991 12.0035 5.19008C12.0053 5.14272 12.0075 5.08557 12.0091 4.98764C12.0116 4.84107 12.0101 4.64229 11.9767 4.43327C11.9043 3.9795 11.6558 3.38683 10.9588 3.09841C10.3305 2.83841 9.59954 2.98467 9.11967 3.46638C8.72989 3.85765 8.7311 4.49081 9.12237 4.88059C9.3624 5.11971 9.69348 5.21168 10.0035 5.15671Z" fill="black"/>
</svg>
