<svg width="24" height="24" viewBox="0 0 24 24" fill="none" xmlns="http://www.w3.org/2000/svg">
<path d="M19.292 6.02148C19.832 5.90668 20.3635 6.25196 20.4785 6.79199C21.2098 10.2254 21.2098 13.7746 20.4785 17.208C20.3635 17.748 19.832 18.0933 19.292 17.9785C18.752 17.8635 18.4067 17.332 18.5215 16.792C19.1944 13.633 19.1944 10.367 18.5215 7.20801C18.4067 6.66798 18.752 6.13652 19.292 6.02148Z" fill="black"/>
<path d="M3.52222 6.79199C3.63728 6.25183 4.16857 5.90642 4.70874 6.02148C5.24862 6.13665 5.59308 6.66806 5.47827 7.20801C4.80538 10.367 4.80538 13.633 5.47827 16.792C5.59308 17.3319 5.24862 17.8633 4.70874 17.9785C4.16857 18.0936 3.63728 17.7482 3.52222 17.208C2.79089 13.7745 2.79089 10.2255 3.52222 6.79199Z" fill="black"/>
<path d="M16.792 18.5215C17.332 18.4067 17.8635 18.752 17.9785 19.292C18.0933 19.832 17.748 20.3635 17.208 20.4785C13.7746 21.2098 10.2254 21.2098 6.79199 20.4785C6.25196 20.3635 5.90668 19.832 6.02148 19.292C6.13652 18.752 6.66798 18.4067 7.20801 18.5215C10.367 19.1944 13.633 19.1944 16.792 18.5215Z" fill="black"/>
<path d="M6.79199 3.52222C10.2255 2.79089 13.7745 2.79089 17.208 3.52222C17.7482 3.63728 18.0936 4.16857 17.9785 4.70874C17.8633 5.24862 17.3319 5.59308 16.792 5.47827C13.633 4.80538 10.367 4.80538 7.20801 5.47827C6.66806 5.59308 6.13665 5.24862 6.02148 4.70874C5.90642 4.16857 6.25183 3.63728 6.79199 3.52222Z" fill="black"/>
<path d="M18 18V21H21V18H18ZM23 21C23 22.1046 22.1046 23 21 23H18C16.8954 23 16 22.1046 16 21V18C16 16.8954 16.8954 16 18 16H21C22.1046 16 23 16.8954 23 18V21Z" fill="black"/>
<path d="M18 3V6H21V3H18ZM23 6C23 7.10457 22.1046 8 21 8H18C16.8954 8 16 7.10457 16 6V3C16 1.89543 16.8954 1 18 1H21C22.1046 1 23 1.89543 23 3V6Z" fill="black"/>
<path d="M3 18V21H6V18H3ZM8 21C8 22.1046 7.10457 23 6 23H3C1.89543 23 1 22.1046 1 21V18C1 16.8954 1.89543 16 3 16H6C7.10457 16 8 16.8954 8 18V21Z" fill="black"/>
<path d="M3 3V6H6V3H3ZM8 6C8 7.10457 7.10457 8 6 8H3C1.89543 8 1 7.10457 1 6V3C1 1.89543 1.89543 1 3 1H6C7.10457 1 8 1.89543 8 3V6Z" fill="black"/>
</svg>
