<svg width="24" height="24" viewBox="0 0 24 24" fill="none" xmlns="http://www.w3.org/2000/svg">
<path fill-rule="evenodd" clip-rule="evenodd" d="M21.348 11.8585C18.5001 9.41006 14.8623 8.07507 11.1066 8.10019C10.5544 8.10389 10.1037 7.65917 10.1 7.1069C10.0963 6.55463 10.541 6.10393 11.0933 6.10024C15.332 6.07189 19.4377 7.57857 22.6519 10.3419C23.0707 10.702 23.1183 11.3333 22.7582 11.7521C22.3982 12.1709 21.7668 12.2185 21.348 11.8585Z" fill="black"/>
<path fill-rule="evenodd" clip-rule="evenodd" d="M12.5969 11.1979C13.04 11.5276 13.132 12.154 12.8023 12.5971C11.6902 14.0919 10.2829 15.3423 8.6675 16.2707C7.05215 17.199 5.26328 17.7856 3.41185 17.9939C2.86303 18.0557 2.36805 17.6609 2.30629 17.1121C2.24452 16.5632 2.63935 16.0683 3.18817 16.0065C4.76733 15.8288 6.29314 15.3285 7.67094 14.5366C9.04873 13.7448 10.2491 12.6783 11.1977 11.4033C11.5274 10.9602 12.1538 10.8682 12.5969 11.1979Z" fill="black"/>
<path fill-rule="evenodd" clip-rule="evenodd" d="M17.2919 12.7296C17.7728 13.0013 17.9423 13.6113 17.6706 14.0922C15.5655 17.8182 12.1714 20.6466 8.12684 22.0453C7.60489 22.2258 7.03543 21.949 6.85492 21.4271C6.67441 20.9051 6.95121 20.3357 7.47316 20.1552C11.0568 18.9158 14.0641 16.4097 15.9293 13.1083C16.201 12.6275 16.8111 12.4579 17.2919 12.7296Z" fill="black"/>
<path fill-rule="evenodd" clip-rule="evenodd" d="M12.3759 1.07362C12.8877 1.28125 13.1342 1.86443 12.9266 2.3762C11.7949 5.16578 11.7278 8.26697 12.7254 11.0935C14.3546 11.3619 15.9242 11.9208 17.3586 12.7452C18.9704 13.6715 20.3785 14.914 21.4982 16.3979C21.8309 16.8388 21.7432 17.4659 21.3023 17.7985C20.8614 18.1312 20.2344 18.0434 19.9017 17.6026C18.9443 16.3337 17.7403 15.2713 16.3621 14.4792C14.9839 13.6871 13.4598 13.1817 11.8814 12.9932C11.5198 12.95 11.2102 12.7137 11.0733 12.3762C9.67467 8.9287 9.67467 5.07183 11.0733 1.62432C11.281 1.11255 11.8641 0.865994 12.3759 1.07362Z" fill="black"/>
<path fill-rule="evenodd" clip-rule="evenodd" d="M6.4949 2.81952C7.0366 2.92714 7.38849 3.45352 7.28087 3.99521C6.54597 7.69424 7.18041 11.5343 9.06606 14.8003C9.34221 15.2786 9.17833 15.8902 8.70004 16.1664C8.22174 16.4425 7.61015 16.2786 7.33401 15.8003C5.20583 12.1142 4.48979 7.78027 5.31921 3.60548C5.42683 3.06378 5.95321 2.7119 6.4949 2.81952Z" fill="black"/>
<path fill-rule="evenodd" clip-rule="evenodd" d="M12 3.00023C7.02944 3.00023 3 7.02967 3 12.0002C3 16.9708 7.02944 21.0002 12 21.0002C16.9706 21.0002 21 16.9708 21 12.0002C21 7.02967 16.9706 3.00023 12 3.00023ZM1 12.0002C1 5.9251 5.92487 1.00023 12 1.00023C18.0751 1.00023 23 5.9251 23 12.0002C23 18.0754 18.0751 23.0002 12 23.0002C5.92487 23.0002 1 18.0754 1 12.0002Z" fill="black"/>
</svg>
