<svg width="24" height="24" viewBox="0 0 24 24" fill="none" xmlns="http://www.w3.org/2000/svg">
<path fill-rule="evenodd" clip-rule="evenodd" d="M15.4 8.19998C15.8418 7.86861 16.4686 7.95815 16.8 8.39998C17.5789 9.43856 18 10.7018 18 12C18 13.2982 17.5789 14.5614 16.8 15.6C16.4686 16.0418 15.8418 16.1314 15.4 15.8C14.9582 15.4686 14.8686 14.8418 15.2 14.4C15.7193 13.7076 16 12.8655 16 12C16 11.1345 15.7193 10.2924 15.2 9.59998C14.8686 9.15815 14.9582 8.53135 15.4 8.19998Z" fill="black"/>
<path fill-rule="evenodd" clip-rule="evenodd" d="M18.6569 4.92891C19.0474 4.53839 19.6806 4.53838 20.0711 4.9289C20.9997 5.85749 21.7363 6.95989 22.2389 8.17315C22.7414 9.38642 23.0001 10.6868 23.0001 12C23.0001 13.3132 22.7414 14.6136 22.2389 15.8269C21.7363 17.0401 20.9997 18.1425 20.0711 19.0711C19.6806 19.4616 19.0474 19.4616 18.6569 19.0711C18.2664 18.6806 18.2664 18.0474 18.6569 17.6569C19.3998 16.914 19.9891 16.0321 20.3911 15.0615C20.7932 14.0909 21.0001 13.0506 21.0001 12C21.0001 10.9494 20.7932 9.90914 20.3911 8.93852C19.9891 7.96791 19.3998 7.086 18.6569 6.34313C18.2664 5.9526 18.2664 5.31944 18.6569 4.92891Z" fill="black"/>
<path fill-rule="evenodd" clip-rule="evenodd" d="M11.4332 4.09871C11.7797 4.26523 12 4.6156 12 5.00001V19C12 19.3844 11.7797 19.7348 11.4332 19.9013C11.0867 20.0678 10.6755 20.021 10.3753 19.7809L5.64922 16H2C1.44772 16 1 15.5523 1 15V9.00001C1 8.44772 1.44772 8.00001 2 8.00001H5.64922L10.3753 4.21914C10.6755 3.979 11.0867 3.93219 11.4332 4.09871ZM10 7.08063L6.62469 9.78088C6.44738 9.92273 6.22707 10 6 10H3V14H6C6.22707 14 6.44738 14.0773 6.62469 14.2191L10 16.9194V7.08063Z" fill="black"/>
</svg>
