<svg width="24" height="24" viewBox="0 0 24 24" fill="none" xmlns="http://www.w3.org/2000/svg">
<path fill-rule="evenodd" clip-rule="evenodd" d="M9.66 6C9.66 5.44772 10.1077 5 10.66 5H14C14.7957 5 15.5587 5.31607 16.1213 5.87868C16.6839 6.44129 17 7.20435 17 8V8.75877L20.744 6.5743C20.744 6.57431 20.744 6.57429 20.744 6.5743C20.9719 6.44129 21.231 6.37076 21.4949 6.36986C21.7588 6.36896 22.0183 6.43772 22.2472 6.56919C22.476 6.70066 22.6662 6.89019 22.7983 7.11864C22.9305 7.347 23 7.60617 23 7.87C23 7.8699 23 7.8701 23 7.87V16.066C23 16.6183 22.5523 17.066 22 17.066C21.4477 17.066 21 16.6183 21 16.066V8.74047L16.504 11.3637C16.1947 11.5442 15.8125 11.5455 15.502 11.3672C15.1915 11.1888 15 10.8581 15 10.5V8C15 7.73478 14.8946 7.48043 14.7071 7.29289C14.5196 7.10536 14.2652 7 14 7H10.66C10.1077 7 9.66 6.55228 9.66 6ZM21.7515 8.30198C21.7514 8.30207 21.7517 8.30189 21.7515 8.30198V8.30198Z" fill="black"/>
<path fill-rule="evenodd" clip-rule="evenodd" d="M4 7C3.73478 7 3.48043 7.10536 3.29289 7.29289C3.10536 7.48043 3 7.73478 3 8V16C3 16.2652 3.10536 16.5196 3.29289 16.7071C3.48043 16.8946 3.73478 17 4 17H14C14.2652 17 14.5196 16.8946 14.7071 16.7071C14.8946 16.5196 15 16.2652 15 16C15 15.4477 15.4477 15 16 15C16.5523 15 17 15.4477 17 16C17 16.7957 16.6839 17.5587 16.1213 18.1213C15.5587 18.6839 14.7957 19 14 19H4C3.20435 19 2.44129 18.6839 1.87868 18.1213C1.31607 17.5587 1 16.7956 1 16V8C1 7.20435 1.31607 6.44129 1.87868 5.87868C2.44129 5.31607 3.20435 5 4 5H6C6.55228 5 7 5.44772 7 6C7 6.55228 6.55228 7 6 7H4Z" fill="black"/>
<path fill-rule="evenodd" clip-rule="evenodd" d="M1.29289 1.29289C1.68342 0.902369 2.31658 0.902369 2.70711 1.29289L22.7071 21.2929C23.0976 21.6834 23.0976 22.3166 22.7071 22.7071C22.3166 23.0976 21.6834 23.0976 21.2929 22.7071L1.29289 2.70711C0.902369 2.31658 0.902369 1.68342 1.29289 1.29289Z" fill="black"/>
</svg>
