<svg width="24" height="24" viewBox="0 0 24 24" fill="none" xmlns="http://www.w3.org/2000/svg">
<path d="M14 19C14.5523 19 15 19.4477 15 20C15 20.5523 14.5523 21 14 21H10C9.44772 21 9 20.5523 9 20C9 19.4477 9.44772 19 10 19H14Z" fill="black"/>
<path d="M11 22V16C11 15.4477 11.4477 15 12 15C12.5523 15 13 15.4477 13 16V22C13 22.5523 12.5523 23 12 23C11.4477 23 11 22.5523 11 22Z" fill="black"/>
<path d="M20 6V3H17C16.4477 3 16 2.55228 16 2C16 1.44772 16.4477 1 17 1H21C21.5523 1 22 1.44772 22 2V6C22 6.55228 21.5523 7 21 7C20.4477 7 20 6.55228 20 6Z" fill="black"/>
<path d="M20.2929 1.29297C20.6834 0.902451 21.3165 0.902464 21.707 1.29297C22.0975 1.68349 22.0975 2.31651 21.707 2.70703L16.247 8.16699C15.8565 8.55752 15.2235 8.55752 14.833 8.16699C14.4425 7.77647 14.4425 7.14345 14.833 6.75293L20.2929 1.29297Z" fill="black"/>
<path d="M16 11C16 8.79086 14.2091 7 12 7C9.79086 7 8 8.79086 8 11C8 13.2091 9.79086 15 12 15C14.2091 15 16 13.2091 16 11ZM18 11C18 14.3137 15.3137 17 12 17C8.68629 17 6 14.3137 6 11C6 7.68629 8.68629 5 12 5C15.3137 5 18 7.68629 18 11Z" fill="black"/>
</svg>
