<svg width="24" height="24" viewBox="0 0 24 24" fill="none" xmlns="http://www.w3.org/2000/svg">
<path fill-rule="evenodd" clip-rule="evenodd" d="M1.29289 7.29289C1.68342 6.90237 2.31658 6.90237 2.70711 7.29289L4.70711 9.29289C5.09763 9.68342 5.09763 10.3166 4.70711 10.7071L3.41421 12L4.70711 13.2929C5.09763 13.6834 5.09763 14.3166 4.70711 14.7071L2.70711 16.7071C2.31658 17.0976 1.68342 17.0976 1.29289 16.7071C0.902369 16.3166 0.902369 15.6834 1.29289 15.2929L2.58579 14L1.29289 12.7071C0.902369 12.3166 0.902369 11.6834 1.29289 11.2929L2.58579 10L1.29289 8.70711C0.902369 8.31658 0.902369 7.68342 1.29289 7.29289Z" fill="black"/>
<path fill-rule="evenodd" clip-rule="evenodd" d="M22.7071 7.29289C23.0976 7.68342 23.0976 8.31658 22.7071 8.70711L21.4142 10L22.7071 11.2929C23.0976 11.6834 23.0976 12.3166 22.7071 12.7071L21.4142 14L22.7071 15.2929C23.0976 15.6834 23.0976 16.3166 22.7071 16.7071C22.3166 17.0976 21.6834 17.0976 21.2929 16.7071L19.2929 14.7071C18.9024 14.3166 18.9024 13.6834 19.2929 13.2929L20.5858 12L19.2929 10.7071C18.9024 10.3166 18.9024 9.68342 19.2929 9.29289L21.2929 7.29289C21.6834 6.90237 22.3166 6.90237 22.7071 7.29289Z" fill="black"/>
<path fill-rule="evenodd" clip-rule="evenodd" d="M8 7C8.55228 7 9 7.44772 9 8V17.9982C8.99999 17.9982 9.00001 17.9982 9 17.9982C9.00025 17.9985 9.00055 17.9988 9.00086 17.9991C9.00117 17.9995 9.00148 17.9997 9.00178 18C9.00177 18 9.00178 18 9.00178 18L14.9982 18C14.9982 18 14.9982 18 14.9982 18C14.9985 17.9998 14.9988 17.9995 14.9991 17.9991C14.9995 17.9988 14.9997 17.9985 15 17.9982C15 17.9982 15 17.9982 15 17.9982L15 16C15 15.4477 15.4477 15 16 15C16.5523 15 17 15.4477 17 16V18C17 19.1023 16.1023 20 15 20H9C7.89772 20 7 19.1023 7 18V8C7 7.44772 7.44772 7 8 7Z" fill="black"/>
<path fill-rule="evenodd" clip-rule="evenodd" d="M9.66 5C9.66 4.44772 10.1077 4 10.66 4H15C16.1023 4 17 4.89772 17 6V10.34C17 10.8923 16.5523 11.34 16 11.34C15.4477 11.34 15 10.8923 15 10.34V6.0018C15 6.00179 15 6.00181 15 6.0018C14.9998 6.0015 14.9995 6.00117 14.9991 6.00086C14.9988 6.00055 14.9985 6.00027 14.9982 6.00002C14.9982 6.00001 14.9982 6.00002 14.9982 6.00002L10.66 6C10.1077 6 9.66 5.55228 9.66 5Z" fill="black"/>
<path fill-rule="evenodd" clip-rule="evenodd" d="M1.29289 1.29289C1.68342 0.902369 2.31658 0.902369 2.70711 1.29289L22.7071 21.2929C23.0976 21.6834 23.0976 22.3166 22.7071 22.7071C22.3166 23.0976 21.6834 23.0976 21.2929 22.7071L1.29289 2.70711C0.902369 2.31658 0.902369 1.68342 1.29289 1.29289Z" fill="black"/>
</svg>
