<svg width="24" height="24" viewBox="0 0 24 24" fill="none" xmlns="http://www.w3.org/2000/svg">
<path fill-rule="evenodd" clip-rule="evenodd" d="M6 9C4.34315 9 3 10.3431 3 12C3 13.6569 4.34315 15 6 15C7.65685 15 9 13.6569 9 12C9 10.3431 7.65685 9 6 9ZM1 12C1 9.23858 3.23858 7 6 7C8.76142 7 11 9.23858 11 12C11 14.7614 8.76142 17 6 17C3.23858 17 1 14.7614 1 12Z" fill="black"/>
<path fill-rule="evenodd" clip-rule="evenodd" d="M18 9C16.3431 9 15 10.3431 15 12C15 13.6569 16.3431 15 18 15C19.6569 15 21 13.6569 21 12C21 10.3431 19.6569 9 18 9ZM13 12C13 9.23858 15.2386 7 18 7C20.7614 7 23 9.23858 23 12C23 14.7614 20.7614 17 18 17C15.2386 17 13 14.7614 13 12Z" fill="black"/>
<path fill-rule="evenodd" clip-rule="evenodd" d="M5 16C5 15.4477 5.44772 15 6 15H18C18.5523 15 19 15.4477 19 16C19 16.5523 18.5523 17 18 17H6C5.44772 17 5 16.5523 5 16Z" fill="black"/>
</svg>
