<svg width="24" height="24" viewBox="0 0 24 24" fill="none" xmlns="http://www.w3.org/2000/svg">
<path fill-rule="evenodd" clip-rule="evenodd" d="M5 4C4.44772 4 4 4.44772 4 5V19C4 19.5523 4.44772 20 5 20H19C19.5523 20 20 19.5523 20 19V5C20 4.44772 19.5523 4 19 4H5ZM2 5C2 3.34315 3.34315 2 5 2H19C20.6569 2 22 3.34315 22 5V19C22 20.6569 20.6569 22 19 22H5C3.34315 22 2 20.6569 2 19V5Z" fill="black"/>
<path d="M7.5 8C7.77614 8 8 7.77614 8 7.5C8 7.22386 7.77614 7 7.5 7C7.22386 7 7 7.22386 7 7.5C7 7.77614 7.22386 8 7.5 8Z" fill="black"/>
<path fill-rule="evenodd" clip-rule="evenodd" d="M7.5 8C7.77614 8 8 7.77614 8 7.5C8 7.22386 7.77614 7 7.5 7C7.22386 7 7 7.22386 7 7.5C7 7.77614 7.22386 8 7.5 8ZM6 7.5C6 6.67157 6.67157 6 7.5 6C8.32843 6 9 6.67157 9 7.5C9 8.32843 8.32843 9 7.5 9C6.67157 9 6 8.32843 6 7.5Z" fill="black"/>
<path fill-rule="evenodd" clip-rule="evenodd" d="M7.19289 7.19289C7.58342 6.80237 8.21658 6.80237 8.60711 7.19289L11.3071 9.89289C11.6976 10.2834 11.6976 10.9166 11.3071 11.3071C10.9166 11.6976 10.2834 11.6976 9.89289 11.3071L7.19289 8.60711C6.80237 8.21658 6.80237 7.58342 7.19289 7.19289Z" fill="black"/>
<path d="M16.5 8C16.7761 8 17 7.77614 17 7.5C17 7.22386 16.7761 7 16.5 7C16.2239 7 16 7.22386 16 7.5C16 7.77614 16.2239 8 16.5 8Z" fill="black"/>
<path fill-rule="evenodd" clip-rule="evenodd" d="M16.5 8C16.7761 8 17 7.77614 17 7.5C17 7.22386 16.7761 7 16.5 7C16.2239 7 16 7.22386 16 7.5C16 7.77614 16.2239 8 16.5 8ZM15 7.5C15 6.67157 15.6716 6 16.5 6C17.3284 6 18 6.67157 18 7.5C18 8.32843 17.3284 9 16.5 9C15.6716 9 15 8.32843 15 7.5Z" fill="black"/>
<path fill-rule="evenodd" clip-rule="evenodd" d="M16.8071 7.19289C17.1976 7.58342 17.1976 8.21658 16.8071 8.60711L14.1071 11.3071C13.7166 11.6976 13.0834 11.6976 12.6929 11.3071C12.3024 10.9166 12.3024 10.2834 12.6929 9.89289L15.3929 7.19289C15.7834 6.80237 16.4166 6.80237 16.8071 7.19289Z" fill="black"/>
<path d="M7.5 17C7.77614 17 8 16.7761 8 16.5C8 16.2239 7.77614 16 7.5 16C7.22386 16 7 16.2239 7 16.5C7 16.7761 7.22386 17 7.5 17Z" fill="black"/>
<path fill-rule="evenodd" clip-rule="evenodd" d="M7.5 17C7.77614 17 8 16.7761 8 16.5C8 16.2239 7.77614 16 7.5 16C7.22386 16 7 16.2239 7 16.5C7 16.7761 7.22386 17 7.5 17ZM6 16.5C6 15.6716 6.67157 15 7.5 15C8.32843 15 9 15.6716 9 16.5C9 17.3284 8.32843 18 7.5 18C6.67157 18 6 17.3284 6 16.5Z" fill="black"/>
<path fill-rule="evenodd" clip-rule="evenodd" d="M11.3071 12.6929C11.6976 13.0834 11.6976 13.7166 11.3071 14.1071L8.60711 16.8071C8.21658 17.1976 7.58342 17.1976 7.19289 16.8071C6.80237 16.4166 6.80237 15.7834 7.19289 15.3929L9.89289 12.6929C10.2834 12.3024 10.9166 12.3024 11.3071 12.6929Z" fill="black"/>
<path d="M16.5 17C16.7761 17 17 16.7761 17 16.5C17 16.2239 16.7761 16 16.5 16C16.2239 16 16 16.2239 16 16.5C16 16.7761 16.2239 17 16.5 17Z" fill="black"/>
<path fill-rule="evenodd" clip-rule="evenodd" d="M16.5 17C16.7761 17 17 16.7761 17 16.5C17 16.2239 16.7761 16 16.5 16C16.2239 16 16 16.2239 16 16.5C16 16.7761 16.2239 17 16.5 17ZM15 16.5C15 15.6716 15.6716 15 16.5 15C17.3284 15 18 15.6716 18 16.5C18 17.3284 17.3284 18 16.5 18C15.6716 18 15 17.3284 15 16.5Z" fill="black"/>
<path fill-rule="evenodd" clip-rule="evenodd" d="M12.6929 12.6929C13.0834 12.3024 13.7166 12.3024 14.1071 12.6929L16.8071 15.3929C17.1976 15.7834 17.1976 16.4166 16.8071 16.8071C16.4166 17.1976 15.7834 17.1976 15.3929 16.8071L12.6929 14.1071C12.3024 13.7166 12.3024 13.0834 12.6929 12.6929Z" fill="black"/>
<path fill-rule="evenodd" clip-rule="evenodd" d="M12 11C11.4477 11 11 11.4477 11 12C11 12.5523 11.4477 13 12 13C12.5523 13 13 12.5523 13 12C13 11.4477 12.5523 11 12 11ZM9 12C9 10.3431 10.3431 9 12 9C13.6569 9 15 10.3431 15 12C15 13.6569 13.6569 15 12 15C10.3431 15 9 13.6569 9 12Z" fill="black"/>
</svg>
