<svg width="24" height="24" viewBox="0 0 24 24" fill="none" xmlns="http://www.w3.org/2000/svg">
<path d="M22 1.00024C22.5523 1.00024 23 1.44796 23 2.00024C23 4.15439 22.4607 5.9536 21.207 7.20728C19.9534 8.46096 18.1541 9.00024 16 9.00024C15.4477 9.00024 15 8.55253 15 8.00024C15 5.8461 15.5393 4.04689 16.793 2.79321C18.0466 1.53953 19.8459 1.00024 22 1.00024ZM20.9414 3.05786C19.6796 3.20253 18.7999 3.61445 18.207 4.20728C17.6142 4.8001 17.2023 5.6798 17.0576 6.94165C18.3199 6.79707 19.2 6.38618 19.793 5.79321C20.3859 5.20025 20.7968 4.32017 20.9414 3.05786Z" fill="black"/>
<path d="M10.244 1.14099C12.9233 0.707763 15.6684 1.28099 17.951 2.74939C18.4154 3.0482 18.5496 3.66677 18.2508 4.13123C17.952 4.59566 17.3334 4.72981 16.869 4.43103C15.0014 3.22967 12.7555 2.76117 10.5633 3.1156C8.37108 3.4701 6.38682 4.62309 4.99301 6.35193C3.59944 8.08064 2.89401 10.2635 3.01254 12.4808C3.13115 14.6984 4.06531 16.7943 5.63558 18.3646C7.20587 19.9349 9.30182 20.8691 11.5194 20.9877C13.7367 21.1062 15.9196 20.4008 17.6483 19.0072C19.3771 17.6134 20.5301 15.6291 20.8846 13.4369C21.239 11.2447 20.7705 8.99881 19.5692 7.13123C19.2704 6.66677 19.4046 6.0482 19.869 5.74939C20.3334 5.45062 20.952 5.58481 21.2508 6.0492C22.7192 8.33184 23.2924 11.0769 22.8592 13.7562C22.426 16.4356 21.0171 18.8603 18.9041 20.5638C16.7911 22.2674 14.1223 23.1297 11.412 22.9847C8.70174 22.8397 6.14068 21.6978 4.22152 19.7787C2.30237 17.8595 1.16051 15.2985 1.01547 12.5883C0.870492 9.87792 1.73281 7.20909 3.43637 5.09607C5.13991 2.98315 7.56465 1.57425 10.244 1.14099Z" fill="black"/>
<path d="M1.21871 1.37618C1.56321 0.944873 2.1924 0.874669 2.62398 1.21895C5.75584 3.71746 8.3059 6.86795 10.0976 10.4514C10.9097 12.0755 11.5549 13.7715 12.0312 15.5129C12.6615 12.6112 13.5121 10.4198 15.1259 7.51485C15.3941 7.03212 16.0026 6.8581 16.4853 7.12618C16.968 7.39436 17.1421 8.0028 16.874 8.48555C14.4637 12.8241 13.8848 15.3595 12.9912 22.1311C12.923 22.6476 12.4696 23.0256 11.9492 22.9992C11.4289 22.9728 11.0157 22.5511 11 22.0305C10.889 18.316 9.97137 14.6697 8.30953 11.3459C6.64757 8.02198 4.28106 5.09897 1.37594 2.78145C0.944628 2.43696 0.874425 1.80776 1.21871 1.37618Z" fill="black"/>
</svg>
