<svg width="24" height="24" viewBox="0 0 24 24" fill="none" xmlns="http://www.w3.org/2000/svg">
<path fill-rule="evenodd" clip-rule="evenodd" d="M7 22C7 21.4477 7.44772 21 8 21H16C16.5523 21 17 21.4477 17 22C17 22.5523 16.5523 23 16 23H8C7.44772 23 7 22.5523 7 22Z" fill="black"/>
<path fill-rule="evenodd" clip-rule="evenodd" d="M6 10C6 9.44772 6.44772 9 7 9H17C17.5523 9 18 9.44772 18 10C18 10.5523 17.5523 11 17 11H7C6.44772 11 6 10.5523 6 10Z" fill="black"/>
<path fill-rule="evenodd" clip-rule="evenodd" d="M12 14C12.5523 14 13 14.4477 13 15V22C13 22.5523 12.5523 23 12 23C11.4477 23 11 22.5523 11 22V15C11 14.4477 11.4477 14 12 14Z" fill="black"/>
<path fill-rule="evenodd" clip-rule="evenodd" d="M8.06367 1.64888C8.21003 1.25857 8.58316 1 9 1H15C15.4168 1 15.79 1.25857 15.9363 1.64888C17.4416 5.66294 18 7.80734 18 10C18 11.5913 17.3679 13.1174 16.2426 14.2426C15.1174 15.3679 13.5913 16 12 16C10.4087 16 8.88258 15.3679 7.75736 14.2426C6.63214 13.1174 6 11.5913 6 10C6 7.80734 6.5584 5.66294 8.06367 1.64888ZM9.69541 3C8.39361 6.54438 8 8.2937 8 10C8 11.0609 8.42143 12.0783 9.17157 12.8284C9.92172 13.5786 10.9391 14 12 14C13.0609 14 14.0783 13.5786 14.8284 12.8284C15.5786 12.0783 16 11.0609 16 10C16 8.2937 15.6064 6.54438 14.3046 3H9.69541Z" fill="black"/>
</svg>
