<svg width="24" height="24" viewBox="0 0 24 24" fill="none" xmlns="http://www.w3.org/2000/svg">
<path fill-rule="evenodd" clip-rule="evenodd" d="M7 10C5.89543 10 5 10.8954 5 12C5 13.1046 5.89543 14 7 14C8.10457 14 9 13.1046 9 12C9 10.8954 8.10457 10 7 10ZM3 12C3 9.79086 4.79086 8 7 8C9.20914 8 11 9.79086 11 12C11 14.2091 9.20914 16 7 16C4.79086 16 3 14.2091 3 12Z" fill="black"/>
<path fill-rule="evenodd" clip-rule="evenodd" d="M10 8C10.5523 8 11 8.44772 11 9V15C11 15.5523 10.5523 16 10 16C9.44772 16 9 15.5523 9 15V9C9 8.44772 9.44772 8 10 8Z" fill="black"/>
<path fill-rule="evenodd" clip-rule="evenodd" d="M17 10C15.8954 10 15 10.8954 15 12C15 13.1046 15.8954 14 17 14C18.1046 14 19 13.1046 19 12C19 10.8954 18.1046 10 17 10ZM13 12C13 9.79086 14.7909 8 17 8C19.2091 8 21 9.79086 21 12C21 14.2091 19.2091 16 17 16C14.7909 16 13 14.2091 13 12Z" fill="black"/>
<path fill-rule="evenodd" clip-rule="evenodd" d="M14 6C14.5523 6 15 6.44772 15 7V15C15 15.5523 14.5523 16 14 16C13.4477 16 13 15.5523 13 15V7C13 6.44772 13.4477 6 14 6Z" fill="black"/>
<path fill-rule="evenodd" clip-rule="evenodd" d="M2 16C2.55228 16 3 16.4477 3 17V17.9573C2.9999 17.9571 3.0001 17.9574 3 17.9573C3.00121 17.959 3.00284 17.9612 3.00428 17.9631C3.00572 17.9649 3.00727 17.9668 3.00891 17.9688C3.01054 17.9707 3.01226 17.9727 3.01406 17.9746C3.01585 17.9766 3.01771 17.9785 3.01961 17.9804C3.02151 17.9823 3.02344 17.9841 3.02539 17.9859C3.02734 17.9877 3.02929 17.9895 3.03123 17.9911C3.03317 17.9927 3.03508 17.9943 3.03694 17.9957C3.0388 17.9972 3.04059 17.9985 3.0423 17.9997C3.04215 17.9996 3.04244 17.9998 3.0423 17.9997L20.9573 18C20.9571 18.0001 20.9574 17.9999 20.9573 18C20.959 17.9988 20.9612 17.9972 20.9631 17.9957C20.9643 17.9948 20.9655 17.9938 20.9667 17.9928C20.9674 17.9922 20.9681 17.9917 20.9688 17.9911C20.9707 17.9895 20.9727 17.9877 20.9746 17.9859C20.9766 17.9841 20.9785 17.9823 20.9804 17.9804C20.9823 17.9785 20.9841 17.9766 20.9859 17.9746C20.9877 17.9727 20.9895 17.9707 20.9911 17.9688C20.9927 17.9668 20.9943 17.9649 20.9957 17.9631C20.9972 17.9612 20.9985 17.9594 20.9997 17.9577C20.9996 17.9578 20.9998 17.9576 20.9997 17.9577L21 17C21 16.4477 21.4477 16 22 16C22.5523 16 23 16.4477 23 17V18C23 18.5752 22.7225 19.0668 22.3946 19.3946C22.0668 19.7225 21.5752 20 21 20H3C2.42477 20 1.93324 19.7225 1.60539 19.3946C1.27755 19.0668 1 18.5752 1 18V17C1 16.4477 1.44772 16 2 16Z" fill="black"/>
</svg>
