<svg width="24" height="24" viewBox="0 0 24 24" fill="none" xmlns="http://www.w3.org/2000/svg">
<path fill-rule="evenodd" clip-rule="evenodd" d="M16.7071 7.29289C17.0976 7.68342 17.0976 8.31658 16.7071 8.70711L2.70711 22.7071C2.31658 23.0976 1.68342 23.0976 1.29289 22.7071C0.902369 22.3166 0.902369 21.6834 1.29289 21.2929L15.2929 7.29289C15.6834 6.90237 16.3166 6.90237 16.7071 7.29289Z" fill="black"/>
<path fill-rule="evenodd" clip-rule="evenodd" d="M4.29292 10.2929C4.68345 9.90237 5.31661 9.90237 5.70714 10.2929L7.23853 11.8243C8.07861 12.6677 8.55029 13.8096 8.55029 15C8.55029 16.1904 8.07861 17.3323 7.23853 18.1757L7.23714 18.1771L5.70714 19.7071C5.5196 19.8946 5.26525 20 5.00003 20C4.73481 20 4.48046 19.8946 4.29292 19.7071L2.76153 18.1757C1.92145 17.3323 1.44977 16.1904 1.44977 15C1.44977 13.8096 1.92145 12.6677 2.76153 11.8243L2.76292 11.8229L4.29292 10.2929ZM4.17789 13.2364C4.17768 13.2366 4.1781 13.2361 4.17789 13.2364C3.71157 13.7048 3.44977 14.339 3.44977 15C3.44977 15.661 3.71157 16.2952 4.17789 16.7636C4.17768 16.7634 4.1781 16.7639 4.17789 16.7636L5.00003 17.5858L5.82153 16.7643C5.82133 16.7645 5.82174 16.7641 5.82153 16.7643C6.28787 16.2958 6.55029 15.661 6.55029 15C6.55029 14.339 6.2885 13.7049 5.8222 13.2364C5.82198 13.2362 5.82242 13.2366 5.8222 13.2364L5.00003 12.4142L4.17789 13.2364Z" fill="black"/>
<path fill-rule="evenodd" clip-rule="evenodd" d="M8.29292 6.29289C8.68345 5.90237 9.31661 5.90237 9.70714 6.29289L11.2385 7.82428C12.0786 8.66768 12.5503 9.80959 12.5503 11C12.5503 12.1904 12.0786 13.3323 11.2385 14.1757L9.70714 15.7071C9.31661 16.0976 8.68345 16.0976 8.29292 15.7071L6.76153 14.1757C5.92145 13.3323 5.44977 12.1904 5.44977 11C5.44977 9.80959 5.92145 8.66768 6.76153 7.82429L6.76292 7.82289L8.29292 6.29289ZM8.17789 9.23635C8.17768 9.23657 8.1781 9.23614 8.17789 9.23635C7.71157 9.70485 7.44977 10.339 7.44977 11C7.44977 11.661 7.71155 12.2951 8.17784 12.7636C8.17761 12.7634 8.17807 12.7638 8.17784 12.7636L9.00003 13.5858L9.82153 12.7643C9.82133 12.7645 9.82174 12.7641 9.82153 12.7643C10.2879 12.2958 10.5503 11.661 10.5503 11C10.5503 10.339 10.2885 9.70487 9.8222 9.23638C9.82198 9.23616 9.82242 9.2366 9.8222 9.23638L9.00003 8.41421L8.17789 9.23635Z" fill="black"/>
<path fill-rule="evenodd" clip-rule="evenodd" d="M13 2C13.2652 2 13.5195 2.10536 13.7071 2.29289L15.2385 3.82428C16.0786 4.66768 16.5502 5.80959 16.5502 7C16.5502 8.19041 16.0786 9.33232 15.2385 10.1757L13.7071 11.7071C13.3166 12.0976 12.6834 12.0976 12.2929 11.7071L10.7615 10.1757C9.92139 9.33232 9.44971 8.19041 9.44971 7C9.44971 5.80959 9.92139 4.66768 10.7615 3.82429L10.7629 3.82289L12.2929 2.29289C12.4804 2.10536 12.7348 2 13 2ZM12.1778 5.23635C12.1776 5.23657 12.178 5.23614 12.1778 5.23635C11.7115 5.70485 11.4497 6.33896 11.4497 7C11.4497 7.66105 11.7115 8.29518 12.1779 8.76367C12.1777 8.76347 12.1781 8.76388 12.1779 8.76367L13 9.58579L13.8215 8.76429C13.8213 8.76449 13.8217 8.76408 13.8215 8.76429C14.2878 8.29579 14.5502 7.66105 14.5502 7C14.5502 6.33895 14.2884 5.70482 13.8221 5.23633C13.8219 5.23612 13.8223 5.23653 13.8221 5.23633L13 4.41421L12.1778 5.23635Z" fill="black"/>
<path fill-rule="evenodd" clip-rule="evenodd" d="M20 3C19.2043 3 18.4413 3.31607 17.8787 3.87868C17.3161 4.44129 17 5.20435 17 6V7H18C18.7957 7 19.5587 6.68393 20.1213 6.12132C20.6839 5.55871 21 4.79565 21 4V3H20ZM16.4645 2.46447C17.4021 1.52678 18.6739 1 20 1H22C22.5523 1 23 1.44772 23 2V4C23 5.32608 22.4732 6.59785 21.5355 7.53553C20.5979 8.47322 19.3261 9 18 9H16C15.4477 9 15 8.55228 15 8V6C15 4.67392 15.5268 3.40215 16.4645 2.46447Z" fill="black"/>
<path fill-rule="evenodd" clip-rule="evenodd" d="M7.23571 18.1785C7.2355 18.1787 7.23593 18.1783 7.23571 18.1785L6.41421 19L7.23571 19.8215C7.23551 19.8213 7.23592 19.8217 7.23571 19.8215C7.70421 20.2878 8.33895 20.5502 9 20.5502C9.66102 20.5502 10.2951 20.2884 10.7636 19.8221C10.7634 19.8224 10.7638 19.8219 10.7636 19.8221L11.5858 19L10.7643 18.1785C10.7641 18.1782 10.7645 18.1787 10.7643 18.1785C10.2958 17.7122 9.66102 17.4497 9 17.4497C8.33896 17.4497 7.70421 17.7121 7.23571 18.1785ZM5.82429 16.7615C6.66769 15.9214 7.80959 15.4497 9 15.4497C10.1904 15.4497 11.3323 15.9214 12.1757 16.7615L12.1771 16.7629L13.7071 18.2929C14.0976 18.6834 14.0976 19.3166 13.7071 19.7071L12.1757 21.2385C11.3323 22.0786 10.1904 22.5502 9 22.5502C7.80959 22.5502 6.66769 22.0786 5.82429 21.2385L4.29292 19.7071C3.9024 19.3166 3.90237 18.6834 4.29289 18.2929L5.82429 16.7615Z" fill="black"/>
<path fill-rule="evenodd" clip-rule="evenodd" d="M11.2357 14.1785C11.2355 14.1787 11.2359 14.1782 11.2357 14.1785L10.4142 15L11.2357 15.8215C11.2355 15.8213 11.2359 15.8217 11.2357 15.8215C11.7042 16.2878 12.339 16.5502 13 16.5502C13.661 16.5502 14.2951 16.2884 14.7636 15.8221C14.7634 15.8224 14.7638 15.8219 14.7636 15.8221L15.5858 15L14.7643 14.1785C14.7641 14.1783 14.7645 14.1787 14.7643 14.1785C14.2958 13.7121 13.661 13.4497 13 13.4497C12.339 13.4497 11.7042 13.7122 11.2357 14.1785ZM9.82429 12.7615C10.6677 11.9214 11.8096 11.4497 13 11.4497C14.1904 11.4497 15.3323 11.9214 16.1757 12.7615L16.1771 12.7629L17.7071 14.2929C18.0976 14.6834 18.0976 15.3166 17.7071 15.7071L16.1771 17.2371L16.1757 17.2385C15.3323 18.0786 14.1904 18.5502 13 18.5502C11.8096 18.5502 10.6677 18.0786 9.82429 17.2385L8.29292 15.7071C7.9024 15.3166 7.90237 14.6834 8.29289 14.2929L9.82429 12.7615Z" fill="black"/>
<path fill-rule="evenodd" clip-rule="evenodd" d="M15.2357 10.1785C15.2355 10.1787 15.2359 10.1782 15.2357 10.1785L14.4142 11L15.2357 11.8215C15.2355 11.8213 15.2359 11.8217 15.2357 11.8215C15.7042 12.2878 16.339 12.5502 17 12.5502C17.661 12.5502 18.2951 12.2884 18.7636 11.8221C18.7634 11.8224 18.7638 11.8219 18.7636 11.8221L19.5858 11L18.7643 10.1785C18.7641 10.1783 18.7645 10.1787 18.7643 10.1785C18.2958 9.71215 17.661 9.44971 17 9.44971C16.339 9.44971 15.7042 9.71217 15.2357 10.1785ZM13.8243 8.76147C14.6677 7.92139 15.8096 7.44971 17 7.44971C18.1904 7.44971 19.3323 7.92139 20.1757 8.76147L20.1771 8.76286L21.7071 10.2929C21.8946 10.4804 22 10.7348 22 11C22 11.2652 21.8946 11.5195 21.7071 11.7071L20.1771 13.2371L20.1757 13.2385C19.3323 14.0786 18.1904 14.5502 17 14.5502C15.8096 14.5502 14.6677 14.0786 13.8243 13.2385L12.2929 11.7071C11.9023 11.3166 11.9024 10.6834 12.2929 10.2929L13.8243 8.76147Z" fill="black"/>
</svg>
