<svg width="24" height="24" viewBox="0 0 24 24" fill="none" xmlns="http://www.w3.org/2000/svg">
<path d="M14.846 18.2243C15.3561 18.0134 15.9404 18.2554 16.1517 18.7653C16.3629 19.2756 16.1208 19.8607 15.6107 20.072L14.6878 20.4538C14.1776 20.665 13.5925 20.4229 13.3812 19.9128C13.17 19.4026 13.4121 18.8175 13.9222 18.6062L14.846 18.2243Z" fill="black"/>
<path d="M13.3812 16.0863C13.5928 15.5764 14.1778 15.334 14.6878 15.5453L15.6117 15.9281C16.1216 16.1399 16.3633 16.7257 16.1517 17.2358C15.94 17.7456 15.355 17.9872 14.8451 17.7758L13.9222 17.393C13.4122 17.1814 13.1699 16.5963 13.3812 16.0863Z" fill="black"/>
<path d="M16.0862 13.3813C16.5962 13.17 17.1812 13.4124 17.3928 13.9223L17.7757 14.8452C17.9871 15.3551 17.7455 15.9401 17.2356 16.1518C16.7256 16.3635 16.1397 16.1218 15.928 15.6118L15.5452 14.688C15.3339 14.178 15.5762 13.5929 16.0862 13.3813Z" fill="black"/>
<path d="M15.928 20.3893C16.1394 19.8792 16.7245 19.637 17.2346 19.8483C17.7448 20.0598 17.9871 20.6448 17.7757 21.155L17.3928 22.0788C17.1814 22.589 16.5964 22.8313 16.0862 22.6198C15.576 22.4083 15.3337 21.8234 15.5452 21.3132L15.928 20.3893Z" fill="black"/>
<path d="M18.607 13.9223C18.8187 13.4122 19.4045 13.1697 19.9146 13.3813C20.4245 13.593 20.666 14.178 20.4547 14.688L20.0719 15.6118C19.8601 16.1216 19.2751 16.3632 18.7652 16.1518C18.2552 15.9402 18.0128 15.3552 18.2242 14.8452L18.607 13.9223Z" fill="black"/>
<path d="M18.7662 19.8483C19.2766 19.6374 19.8609 19.88 20.0718 20.3903L20.4537 21.3141C20.6647 21.8245 20.4221 22.4088 19.9117 22.6198C19.4013 22.8307 18.817 22.5881 18.606 22.0778L18.2242 21.154C18.0132 20.6436 18.2558 20.0593 18.7662 19.8483Z" fill="black"/>
<path d="M12 3.00049C15.9357 3.00049 19.7336 4.45095 22.667 7.07471C23.0785 7.44291 23.1133 8.07521 22.7451 8.48682C22.3769 8.89834 21.7446 8.93405 21.333 8.56592C18.7663 6.27013 15.4437 5.00049 12 5.00049C8.55634 5.00049 5.23378 6.27013 2.66701 8.56592C2.2554 8.93405 1.6231 8.89834 1.2549 8.48682C0.886756 8.07521 0.921511 7.44291 1.33303 7.07471C4.26648 4.45095 8.06438 3.00049 12 3.00049Z" fill="black"/>
<path d="M21.313 15.5453C21.8232 15.3338 22.4082 15.5761 22.6197 16.0863C22.8311 16.5965 22.5888 17.1815 22.0787 17.393L21.1548 17.7758C20.6446 17.9872 20.0597 17.745 19.8482 17.2348C19.6369 16.7246 19.8791 16.1396 20.3892 15.9281L21.313 15.5453Z" fill="black"/>
<path d="M19.8482 18.7653C20.0597 18.2552 20.6447 18.0129 21.1548 18.2243L22.0787 18.6071C22.5888 18.8186 22.831 19.4036 22.6197 19.9138C22.4082 20.424 21.8232 20.6663 21.313 20.4548L20.3892 20.072C19.879 19.8605 19.6368 19.2755 19.8482 18.7653Z" fill="black"/>
<path d="M10.3106 8.132C12.5788 7.78 14.9006 8.14635 16.9502 9.17985C17.4434 9.42852 17.6413 10.0305 17.3926 10.5236C17.1438 11.0165 16.5429 11.2146 16.0498 10.966C14.3728 10.1203 12.4732 9.82053 10.6172 10.1086C8.76132 10.3966 7.04199 11.2583 5.70022 12.5724C5.30567 12.9589 4.67163 12.9523 4.28518 12.5578C3.89907 12.1633 3.90558 11.5301 4.29983 11.1437C5.93983 9.53736 8.04209 8.4841 10.3106 8.132Z" fill="black"/>
<path d="M10.6953 13.1436C11.2343 13.0235 11.7684 13.3625 11.8887 13.9014C12.0088 14.4403 11.6697 14.9744 11.1309 15.0947C10.4022 15.2571 9.73328 15.6209 9.20022 16.1436C8.80584 16.5301 8.17276 16.5232 7.78615 16.1289C7.39957 15.7345 7.40548 15.1015 7.79983 14.7149C8.59934 13.931 9.6025 13.3871 10.6953 13.1436Z" fill="black"/>
<path d="M20 18.0001C20 16.8956 19.1046 16.0001 18 16.0001C16.8955 16.0001 16 16.8956 16 18.0001C16 19.1047 16.8955 20.0001 18 20.0001C19.1046 20.0001 20 19.1047 20 18.0001ZM22 18.0001C22 20.2093 20.2092 22.0001 18 22.0001C15.7909 22.0001 14 20.2093 14 18.0001C14 15.791 15.7909 14.0001 18 14.0001C20.2092 14.0001 22 15.791 22 18.0001Z" fill="black"/>
</svg>
