<svg width="24" height="24" viewBox="0 0 24 24" fill="none" xmlns="http://www.w3.org/2000/svg">
<path fill-rule="evenodd" clip-rule="evenodd" d="M5 4C4.44772 4 4 4.44772 4 5V9C4 9.55228 4.44772 10 5 10H9C9.55228 10 10 9.55228 10 9V5C10 4.44772 9.55228 4 9 4H5ZM2 5C2 3.34315 3.34315 2 5 2H9C10.6569 2 12 3.34315 12 5V9C12 10.6569 10.6569 12 9 12H5C3.34315 12 2 10.6569 2 9V5Z" fill="black"/>
<path fill-rule="evenodd" clip-rule="evenodd" d="M7 10C7.55228 10 8 10.4477 8 11V15C8 15.2652 8.10536 15.5196 8.29289 15.7071C8.48043 15.8946 8.73478 16 9 16H13C13.5523 16 14 16.4477 14 17C14 17.5523 13.5523 18 13 18H9C8.20435 18 7.44129 17.6839 6.87868 17.1213C6.31607 16.5587 6 15.7956 6 15V11C6 10.4477 6.44772 10 7 10Z" fill="black"/>
<path fill-rule="evenodd" clip-rule="evenodd" d="M15 14C14.4477 14 14 14.4477 14 15V19C14 19.5523 14.4477 20 15 20H19C19.5523 20 20 19.5523 20 19V15C20 14.4477 19.5523 14 19 14H15ZM12 15C12 13.3431 13.3431 12 15 12H19C20.6569 12 22 13.3431 22 15V19C22 20.6569 20.6569 22 19 22H15C13.3431 22 12 20.6569 12 19V15Z" fill="black"/>
</svg>
