<svg width="24" height="24" viewBox="0 0 24 24" fill="none" xmlns="http://www.w3.org/2000/svg">
<path d="M10.965 10.1051C10.965 9.55286 11.4127 9.10515 11.965 9.10515C12.5173 9.10515 12.965 9.55286 12.965 10.1051V11.6354C13.6225 11.0471 14.4011 10.609 15.2482 10.3561C16.1637 10.0828 17.1314 10.0316 18.0705 10.2077C19.0095 10.3838 19.8933 10.7815 20.6476 11.3678C21.4018 11.9542 22.0052 12.7123 22.4074 13.5788C22.6399 14.0797 22.4219 14.6743 21.9211 14.9069C21.4202 15.1394 20.8256 14.9223 20.5929 14.4216C20.3248 13.8439 19.9229 13.3378 19.4201 12.9469C18.9173 12.5561 18.3282 12.2909 17.7023 12.1735C17.0763 12.0561 16.4308 12.0899 15.8205 12.2721C15.2144 12.4531 14.6597 12.7749 14.2023 13.2116L12.6877 14.7966C12.4053 15.0916 11.972 15.1849 11.5929 15.0329C11.2138 14.8808 10.965 14.5137 10.965 14.1051V10.1051Z" fill="black"/>
<path d="M15.965 13.1051C16.5173 13.1051 16.965 13.5529 16.965 14.1051C16.965 14.6574 16.5173 15.1051 15.965 15.1051H11.965C11.4127 15.1051 10.965 14.6574 10.965 14.1051C10.965 13.5529 11.4127 13.1051 11.965 13.1051H15.965Z" fill="black"/>
<path d="M21.9652 17.1051C22.3655 17.1052 22.7268 17.3444 22.8841 17.7126C23.0414 18.0807 22.9645 18.5072 22.6878 18.7966L21.1527 20.401C21.143 20.4112 21.1334 20.4216 21.1234 20.4313C20.4346 21.0933 19.5973 21.5809 18.682 21.8542C17.7665 22.1275 16.7987 22.1786 15.8597 22.0026C14.9207 21.8265 14.0368 21.4288 13.2825 20.8425C12.5283 20.2561 11.925 19.498 11.5228 18.6315C11.2903 18.1306 11.5082 17.5359 12.0091 17.3034C12.51 17.0709 13.1046 17.288 13.3372 17.7887C13.6054 18.3665 14.0072 18.8724 14.5101 19.2634C15.0129 19.6542 15.6019 19.9194 16.2279 20.0368C16.8539 20.1542 17.4994 20.1204 18.1097 19.9382C18.6646 19.7725 19.1752 19.4871 19.6087 19.1051H17.9652C17.4129 19.1051 16.9652 18.6574 16.9652 18.1051C16.9652 17.5529 17.4129 17.1051 17.9652 17.1051H21.9652Z" fill="black"/>
<path d="M12 4.00049C15.9356 4.00049 19.7335 5.45095 22.667 8.07471C23.0785 8.44291 23.1133 9.07521 22.7451 9.48682C22.3769 9.89834 21.7446 9.93405 21.333 9.56592C18.7662 7.27013 15.4437 6.00049 12 6.00049C8.55632 6.00049 5.23377 7.27013 2.667 9.56592C2.25539 9.93405 1.62309 9.89834 1.25489 9.48682C0.886741 9.07521 0.921496 8.44291 1.33301 8.07471C4.26647 5.45095 8.06437 4.00049 12 4.00049Z" fill="black"/>
<path d="M20.965 22.1051V18.1051C20.965 17.5529 21.4129 17.1051 21.9652 17.1051C22.5174 17.1051 22.965 17.5529 22.965 18.1051V22.1051C22.965 22.6574 22.5173 23.1051 21.965 23.1051C21.4127 23.1051 20.965 22.6574 20.965 22.1051Z" fill="black"/>
<path d="M7.59864 9.91213C8.10441 9.69052 8.6943 9.92103 8.91602 10.4268C9.13764 10.9325 8.90712 11.5224 8.40137 11.7442C7.39759 12.1843 6.48226 12.8044 5.70118 13.5733C5.30756 13.9603 4.67442 13.955 4.28712 13.5615C3.89986 13.1679 3.90531 12.5349 4.29883 12.1475C5.25351 11.2078 6.37179 10.45 7.59864 9.91213Z" fill="black"/>
<path d="M8.50977 15.4291C9.06206 15.4291 9.50977 15.8769 9.50977 16.4291C9.50977 16.9814 9.06206 17.4291 8.50977 17.4291H8.50001C7.94772 17.4291 7.50001 16.9814 7.50001 16.4291C7.50001 15.8769 7.94772 15.4291 8.50001 15.4291H8.50977Z" fill="black"/>
</svg>
