<svg width="24" height="24" viewBox="0 0 24 24" fill="none" xmlns="http://www.w3.org/2000/svg">
<path fill-rule="evenodd" clip-rule="evenodd" d="M7 22C7 21.4477 7.44772 21 8 21H16C16.5523 21 17 21.4477 17 22C17 22.5523 16.5523 23 16 23H8C7.44772 23 7 22.5523 7 22Z" fill="black"/>
<path fill-rule="evenodd" clip-rule="evenodd" d="M6 10C6 9.44772 6.44772 9 7 9H10C10.5523 9 11 9.44772 11 10C11 10.5523 10.5523 11 10 11H7C6.44772 11 6 10.5523 6 10ZM14.657 10C14.657 9.44772 15.1047 9 15.657 9H17C17.5523 9 18 9.44772 18 10C18 10.5523 17.5523 11 17 11H15.657C15.1047 11 14.657 10.5523 14.657 10Z" fill="black"/>
<path fill-rule="evenodd" clip-rule="evenodd" d="M12 14C12.5523 14 13 14.4477 13 15V22C13 22.5523 12.5523 23 12 23C11.4477 23 11 22.5523 11 22V15C11 14.4477 11.4477 14 12 14Z" fill="black"/>
<path fill-rule="evenodd" clip-rule="evenodd" d="M8.06412 1.64767C8.21082 1.258 8.58363 1 9 1H15C15.4168 1 15.79 1.25857 15.9363 1.64888C17.4416 5.66294 18 7.80734 18 10C18 10.489 17.9399 10.9706 17.8265 11.4352C17.6954 11.9718 17.1543 12.3005 16.6178 12.1694C16.0812 12.0384 15.7525 11.4973 15.8835 10.9608C15.9601 10.6474 16 10.325 16 10C16 8.2937 15.6064 6.54438 14.3046 3H9.69476C9.65521 3.10789 9.61677 3.21387 9.57954 3.31791C9.39347 3.8379 8.82109 4.10861 8.30109 3.92254C7.7811 3.73647 7.51039 3.16409 7.69646 2.64409C7.8112 2.32344 7.93543 1.9895 8.06412 1.64767ZM7.52878 6.3319C8.06732 6.45439 8.40458 6.99025 8.2821 7.52878C8.09754 8.3402 8.00294 9.16947 8 10.0016C8.00032 10.6947 8.18073 11.3758 8.52354 11.9782C8.86663 12.5811 9.3606 13.0843 9.95695 13.4386C10.5533 13.7929 11.2315 13.986 11.9251 13.999C12.6186 14.012 13.3036 13.8445 13.9128 13.5127C14.3978 13.2486 15.0051 13.4278 15.2692 13.9128C15.5334 14.3978 15.3542 15.0051 14.8692 15.2692C13.9554 15.7668 12.9279 16.0182 11.8876 15.9987C10.8473 15.9792 9.82996 15.6895 8.93543 15.1581C8.0409 14.6266 7.29995 13.8717 6.78532 12.9674C6.27068 12.0631 6.00005 11.0405 6 10C6 9.99886 6 9.99777 6.00001 9.99662C6.00331 9.01691 6.11462 8.04054 6.3319 7.08521C6.45439 6.54668 6.99025 6.20942 7.52878 6.3319Z" fill="black"/>
<path fill-rule="evenodd" clip-rule="evenodd" d="M1.29289 1.29289C1.68342 0.902369 2.31658 0.902369 2.70711 1.29289L22.7071 21.2929C23.0976 21.6834 23.0976 22.3166 22.7071 22.7071C22.3166 23.0976 21.6834 23.0976 21.2929 22.7071L1.29289 2.70711C0.902369 2.31658 0.902369 1.68342 1.29289 1.29289Z" fill="black"/>
</svg>
