<svg width="24" height="24" viewBox="0 0 24 24" fill="none" xmlns="http://www.w3.org/2000/svg">
<path fill-rule="evenodd" clip-rule="evenodd" d="M3.09489 14.1489C3.56498 14.4388 3.71106 15.0549 3.42117 15.525C3.15362 15.9589 3.00883 16.4774 3.00001 17.0071C3.00184 17.6736 3.22555 18.3205 3.63596 18.8458C4.04786 19.3731 4.62418 19.7475 5.2733 19.9095C5.92242 20.0716 6.60709 20.012 7.21847 19.7403C7.82984 19.4685 8.33284 19.0002 8.6475 18.4098C8.64982 18.4055 8.65217 18.4011 8.65455 18.3968C9.21283 17.3856 10.3186 15.9801 12.01 15.9801H18C18.5523 15.9801 19 16.4278 19 16.9801C19 17.5324 18.5523 17.9801 18 17.9801H12.01C11.5025 17.9801 10.9097 18.4526 10.4087 19.3576C9.88401 20.3383 9.04727 21.1161 8.03078 21.5679C7.01182 22.0208 5.8707 22.1201 4.78884 21.85C3.70697 21.5799 2.74644 20.9559 2.05993 20.0772C1.37343 19.1985 1.00035 18.1155 1 17.0004C0.999999 16.9956 1.00003 16.9907 1.0001 16.9858C1.0125 16.1181 1.24761 15.2394 1.71883 14.4752C2.00872 14.0051 2.6248 13.8591 3.09489 14.1489Z" fill="black"/>
<path fill-rule="evenodd" clip-rule="evenodd" d="M12.8104 3.10508C12.4239 2.99974 12.0202 2.97288 11.6232 3.02609C11.2261 3.0793 10.8437 3.21149 10.4986 3.41487C10.1534 3.61825 9.85252 3.88869 9.61359 4.21025C9.37466 4.53181 9.20255 4.89796 9.10742 5.28711C9.01229 5.67626 8.99606 6.08052 9.0597 6.47605C9.12288 6.86877 9.26353 7.24497 9.47343 7.58279C9.81507 8.10837 10.1326 8.7512 10.2813 9.44051C10.432 10.1392 10.4195 10.9445 10.0086 11.6979C10.0082 11.6985 10.0079 11.6991 10.0076 11.6997L6.87938 17.4764C6.61639 17.962 6.0095 18.1425 5.52385 17.8795C5.0382 17.6165 4.8577 17.0096 5.12069 16.524L8.25069 10.744C8.25129 10.7429 8.25189 10.7418 8.25249 10.7407C8.37056 10.5246 8.40791 10.2406 8.32628 9.86235C8.24336 9.47804 8.04859 9.05924 7.79243 8.66645C7.78895 8.66111 7.78552 8.65575 7.78214 8.65035C7.42816 8.08422 7.19115 7.45294 7.08509 6.79373C6.97903 6.13453 7.00608 5.46076 7.16463 4.81218C7.32318 4.1636 7.61003 3.55334 8.00825 3.01741C8.40647 2.48148 8.90799 2.03074 9.48323 1.69177C10.0585 1.35281 10.6958 1.13248 11.3575 1.04381C12.0193 0.95513 12.6921 0.999892 13.3363 1.17545C13.9805 1.35101 14.583 1.65382 15.1083 2.066C15.6335 2.47818 16.0709 2.99139 16.3946 3.57535C16.6624 4.05838 16.4879 4.66702 16.0049 4.93479C15.5218 5.20255 14.9132 5.02804 14.6454 4.54501C14.4512 4.19464 14.1888 3.88671 13.8736 3.6394C13.5584 3.3921 13.1969 3.21041 12.8104 3.10508Z" fill="black"/>
<path fill-rule="evenodd" clip-rule="evenodd" d="M11.5206 5.12257C12.0053 4.85781 12.6129 5.03609 12.8776 5.52078L16.0076 11.2507C16.0076 11.2507 16.0076 11.2507 16.0076 11.2507C16.2544 11.7022 16.9649 12.0002 18 12.0002C19.3261 12.0002 20.5979 12.527 21.5356 13.4646C22.4732 14.4023 23 15.6741 23 17.0002C23 18.3263 22.4732 19.598 21.5356 20.5357C20.5979 21.4734 19.3261 22.0002 18 22.0002C17.4477 22.0002 17 21.5525 17 21.0002C17 20.4479 17.4477 20.0002 18 20.0002C18.7957 20.0002 19.5587 19.6841 20.1214 19.1215C20.684 18.5589 21 17.7958 21 17.0002C21 16.2045 20.684 15.4415 20.1214 14.8788C19.5587 14.3162 18.7957 14.0002 18 14.0002C16.8352 14.0002 15.0658 13.6981 14.2525 12.2097L11.1224 6.47956C10.8577 5.99487 11.036 5.38733 11.5206 5.12257Z" fill="black"/>
</svg>
