<svg width="24" height="24" viewBox="0 0 24 24" fill="none" xmlns="http://www.w3.org/2000/svg">
<path fill-rule="evenodd" clip-rule="evenodd" d="M11 20.0002C11 19.4479 11.4477 19.0002 12 19.0002H12.01C12.5623 19.0002 13.01 19.4479 13.01 20.0002C13.01 20.5525 12.5623 21.0002 12.01 21.0002H12C11.4477 21.0002 11 20.5525 11 20.0002Z" fill="black"/>
<path fill-rule="evenodd" clip-rule="evenodd" d="M12 16C10.953 16 9.94772 16.4105 9.2 17.1434C8.80559 17.53 8.17246 17.5237 7.78586 17.1293C7.39926 16.7349 7.40559 16.1017 7.8 15.7151C8.92157 14.6158 10.4295 14 12 14C13.5705 14 15.0784 14.6158 16.2 15.7151C16.5944 16.1017 16.6007 16.7349 16.2141 17.1293C15.8275 17.5237 15.1944 17.53 14.8 17.1434C14.0523 16.4105 13.047 16 12 16Z" fill="black"/>
</svg>
