<svg width="24" height="24" viewBox="0 0 24 24" fill="none" xmlns="http://www.w3.org/2000/svg">
<path fill-rule="evenodd" clip-rule="evenodd" d="M2 6C2 5.44772 2.44772 5 3 5H6C6.55228 5 7 5.44772 7 6C7 6.55228 6.55228 7 6 7H3C2.44772 7 2 6.55228 2 6Z" fill="black"/>
<path fill-rule="evenodd" clip-rule="evenodd" d="M16 6C16 5.44772 16.4477 5 17 5H17.01C17.5623 5 18.01 5.44772 18.01 6C18.01 6.55228 17.5623 7 17.01 7H17C16.4477 7 16 6.55228 16 6Z" fill="black"/>
<path fill-rule="evenodd" clip-rule="evenodd" d="M5 3C4.44772 3 4 3.44772 4 4V20C4 20.5523 4.44772 21 5 21H19C19.5523 21 20 20.5523 20 20V4C20 3.44772 19.5523 3 19 3H5ZM2 4C2 2.34315 3.34315 1 5 1H19C20.6569 1 22 2.34315 22 4V20C22 21.6569 20.6569 23 19 23H5C3.34315 23 2 21.6569 2 20V4Z" fill="black"/>
<path fill-rule="evenodd" clip-rule="evenodd" d="M12 9C9.79086 9 8 10.7909 8 13C8 15.2091 9.79086 17 12 17C14.2091 17 16 15.2091 16 13C16 10.7909 14.2091 9 12 9ZM6 13C6 9.68629 8.68629 7 12 7C15.3137 7 18 9.68629 18 13C18 16.3137 15.3137 19 12 19C8.68629 19 6 16.3137 6 13Z" fill="black"/>
<path fill-rule="evenodd" clip-rule="evenodd" d="M12 9C11.6022 9 11.2206 9.15804 10.9393 9.43934C10.658 9.72064 10.5 10.1022 10.5 10.5C10.5 10.8978 10.658 11.2794 10.9393 11.5607C11.2206 11.842 11.6022 12 12 12C12.9283 12 13.8185 12.3687 14.4749 13.0251C15.1313 13.6815 15.5 14.5717 15.5 15.5C15.5 16.4283 15.1313 17.3185 14.4749 17.9749C13.8185 18.6313 12.9283 19 12 19C11.4477 19 11 18.5523 11 18C11 17.4477 11.4477 17 12 17C12.3978 17 12.7794 16.842 13.0607 16.5607C13.342 16.2794 13.5 15.8978 13.5 15.5C13.5 15.1022 13.342 14.7206 13.0607 14.4393C12.7794 14.158 12.3978 14 12 14C11.0717 14 10.1815 13.6313 9.52513 12.9749C8.86875 12.3185 8.5 11.4283 8.5 10.5C8.5 9.57174 8.86875 8.6815 9.52513 8.02513C10.1815 7.36875 11.0717 7 12 7C12.5523 7 13 7.44772 13 8C13 8.55228 12.5523 9 12 9Z" fill="black"/>
</svg>
