<svg width="24" height="24" viewBox="0 0 24 24" fill="none" xmlns="http://www.w3.org/2000/svg">
<path fill-rule="evenodd" clip-rule="evenodd" d="M3.06044 14.1285C3.54175 14.3994 3.71234 15.0092 3.44148 15.4905C3.24981 15.831 3.12709 16.2061 3.08035 16.5941C3.0336 16.9821 3.06374 17.3755 3.16904 17.7519C3.27434 18.1282 3.45274 18.4802 3.69405 18.7876C3.93536 19.095 4.23486 19.3519 4.57544 19.5435C4.91603 19.7352 5.29103 19.8579 5.67905 19.9047C6.06706 19.9514 6.46047 19.9213 6.83684 19.816C7.2132 19.7107 7.56514 19.5323 7.87256 19.291C8.17998 19.0497 8.43686 18.7502 8.62853 18.4096C8.6296 18.4077 8.63068 18.4058 8.63176 18.4039C8.94579 17.8543 9.36667 17.2683 9.9046 16.8122C10.4462 16.3531 11.1556 15.9874 12.0082 16H17C17.5523 16 18 16.4477 18 17C18 17.5523 17.5523 18 17 18H12C11.9939 18 11.9878 18 11.9817 17.9999C11.7488 17.9956 11.4916 18.0888 11.1979 18.3378C10.8989 18.5913 10.6154 18.9642 10.3697 19.3936C10.0494 19.9618 9.62055 20.4614 9.10747 20.8642C8.59345 21.2677 8.005 21.566 7.3757 21.742C6.74641 21.9181 6.0886 21.9685 5.43983 21.8903C4.79106 21.8122 4.16404 21.607 3.59456 21.2865C3.02509 20.966 2.52431 20.5365 2.12083 20.0225C1.71735 19.5085 1.41906 18.92 1.243 18.2907C1.06694 17.6614 1.01655 17.0036 1.09471 16.3548C1.17287 15.7061 1.37805 15.0791 1.69853 14.5096C1.96939 14.0283 2.57914 13.8577 3.06044 14.1285Z" fill="black"/>
<path fill-rule="evenodd" clip-rule="evenodd" d="M12.3311 3.02783C11.8513 2.97926 11.3668 3.04709 10.9187 3.22558C10.4707 3.40406 10.0723 3.68794 9.75725 4.05315C9.39653 4.47136 8.76508 4.51797 8.34688 4.15725C7.92867 3.79653 7.88206 3.16508 8.24278 2.74687C8.76779 2.13819 9.43182 1.66505 10.1786 1.36758C10.9253 1.0701 11.7328 0.957046 12.5325 1.038C13.3323 1.11896 14.1007 1.39153 14.7727 1.83262C15.4447 2.27372 16.0004 2.87032 16.3928 3.57187C16.6624 4.05388 16.4902 4.66318 16.0082 4.93278C15.5261 5.20237 14.9168 5.03017 14.6473 4.54815C14.4118 4.12723 14.0784 3.76926 13.6752 3.50461C13.272 3.23995 12.8109 3.07641 12.3311 3.02783Z" fill="black"/>
<path fill-rule="evenodd" clip-rule="evenodd" d="M8.77231 8.22696C9.2821 8.01453 9.86759 8.25558 10.08 8.76538C10.2704 9.22221 10.3617 9.71422 10.348 10.2089C10.3342 10.7037 10.2157 11.1898 10.0002 11.6354C9.99436 11.6475 9.98825 11.6595 9.98189 11.6714L6.88189 17.4714C6.62156 17.9585 6.01566 18.1423 5.52858 17.882C5.04151 17.6216 4.8577 17.0157 5.11803 16.5287L8.20729 10.7487C8.29482 10.5622 8.343 10.3595 8.34873 10.1533C8.35462 9.94133 8.31549 9.73046 8.2339 9.53468C8.02146 9.02489 8.26252 8.4394 8.77231 8.22696Z" fill="black"/>
<path fill-rule="evenodd" clip-rule="evenodd" d="M21.125 19.7349C21.4371 20.1905 21.3208 20.8129 20.8652 21.125C20.0193 21.7046 19.0156 22.0101 17.9902 22C17.4379 21.9946 16.9946 21.5426 17 20.9903C17.0055 20.438 17.4575 19.9947 18.0098 20.0001C18.625 20.0062 19.2272 19.8229 19.7348 19.4751C20.1904 19.163 20.8128 19.2793 21.125 19.7349Z" fill="black"/>
<path fill-rule="evenodd" clip-rule="evenodd" d="M17.6115 12.8484C17.6953 12.3025 18.2057 11.9278 18.7516 12.0115C19.8178 12.1751 20.8025 12.679 21.5587 13.4481C22.315 14.2172 22.8023 15.2103 22.9478 16.279C23.0224 16.8263 22.6392 17.3303 22.0919 17.4048C21.5447 17.4794 21.0407 17.0962 20.9661 16.5489C20.8788 15.9077 20.5864 15.3118 20.1327 14.8504C19.6789 14.3889 19.0881 14.0865 18.4484 13.9884C17.9025 13.9047 17.5278 13.3943 17.6115 12.8484Z" fill="black"/>
<path fill-rule="evenodd" clip-rule="evenodd" d="M11.4855 5.1425C11.9591 4.85835 12.5733 5.01192 12.8575 5.4855L13.4575 6.4855C13.7416 6.95908 13.5881 7.57334 13.1145 7.85749C12.6409 8.14164 12.0267 7.98807 11.7425 7.51449L11.1425 6.51449C10.8584 6.04091 11.0119 5.42665 11.4855 5.1425Z" fill="black"/>
<path fill-rule="evenodd" clip-rule="evenodd" d="M1.29289 1.29289C1.68342 0.902369 2.31658 0.902369 2.70711 1.29289L22.7071 21.2929C23.0976 21.6834 23.0976 22.3166 22.7071 22.7071C22.3166 23.0976 21.6834 23.0976 21.2929 22.7071L1.29289 2.70711C0.902369 2.31658 0.902369 1.68342 1.29289 1.29289Z" fill="black"/>
</svg>
