<svg width="24" height="24" viewBox="0 0 24 24" fill="none" xmlns="http://www.w3.org/2000/svg">
<path d="M17 21V10H7V21C7 21.5523 6.55228 22 6 22C5.44772 22 5 21.5523 5 21V10C5 9.46957 5.21087 8.96101 5.58594 8.58594C5.96101 8.21087 6.46957 8 7 8H17C17.5304 8 18.039 8.21087 18.4141 8.58594C18.7891 8.96101 19 9.46957 19 10V21C19 21.5523 18.5523 22 18 22C17.4477 22 17 21.5523 17 21Z" fill="black"/>
<path d="M21 7.99951C21.0001 7.81119 20.9469 7.62674 20.8467 7.46729C20.7465 7.30783 20.6033 7.1798 20.4336 7.09814C20.429 7.09595 20.4244 7.09357 20.4199 7.09131L12.4717 3.11768L12.46 3.11084C12.3181 3.03752 12.1606 2.99959 12.001 2.99951C11.8412 2.99951 11.683 3.03745 11.541 3.11084L11.5293 3.11768L3.5791 7.09131C3.57481 7.09345 3.57073 7.09606 3.56641 7.09814C3.39675 7.17987 3.25345 7.3078 3.15332 7.46729C3.05323 7.62675 2.99989 7.81124 3 7.99951V18.9995C3 19.2646 3.10555 19.519 3.29297 19.7065C3.48051 19.8941 3.73478 19.9995 4 19.9995H20C20.2652 19.9995 20.5195 19.8941 20.707 19.7065C20.8944 19.519 21 19.2646 21 18.9995V7.99951ZM23 18.9995C23 19.7952 22.6837 20.559 22.1211 21.1216C21.5585 21.684 20.7955 21.9995 20 21.9995H4C3.20449 21.9995 2.44149 21.684 1.87891 21.1216C1.3163 20.559 1 19.7952 1 18.9995V7.99951C0.999852 7.43503 1.15889 6.88192 1.45898 6.40381C1.75668 5.92966 2.18161 5.54867 2.68457 5.30322L10.6348 1.32861C11.0576 1.11231 11.5259 0.999512 12.001 0.999512C12.4756 0.999587 12.9427 1.11362 13.3652 1.32959L13.3662 1.32861L21.3145 5.30225C21.8179 5.54745 22.2419 5.92853 22.54 6.40283C22.8406 6.8811 23.0001 7.43467 23 7.99951V18.9995Z" fill="black"/>
<path d="M18 12C18.5523 12 19 12.4477 19 13C19 13.5523 18.5523 14 18 14H6C5.44772 14 5 13.5523 5 13C5 12.4477 5.44772 12 6 12H18Z" fill="black"/>
<path d="M18 16C18.5523 16 19 16.4477 19 17C19 17.5523 18.5523 18 18 18H6C5.44772 18 5 17.5523 5 17C5 16.4477 5.44772 16 6 16H18Z" fill="black"/>
</svg>
