<svg width="24" height="24" viewBox="0 0 24 24" fill="none" xmlns="http://www.w3.org/2000/svg">
<path d="M16 18V7C16 6.20435 16.3163 5.44151 16.8789 4.87891C17.4415 4.3163 18.2043 4 19 4C19.5523 4 20 4.44772 20 5C20 5.55228 19.5523 6 19 6C18.7348 6 18.4805 6.10543 18.293 6.29297C18.1054 6.48051 18 6.73478 18 7V18C18 18.5523 17.5523 19 17 19C16.4477 19 16 18.5523 16 18Z" fill="black"/>
<path d="M19.5 16C20.2888 16 20.9145 16.1538 21.4482 16.4121C21.9617 16.6606 22.35 16.9893 22.6406 17.2314C23.0648 17.585 23.1221 18.2164 22.7686 18.6406C22.415 19.0648 21.7836 19.1221 21.3594 18.7686C21.0501 18.5109 20.8385 18.3394 20.5771 18.2129C20.3359 18.0962 20.0112 18 19.5 18C19.0201 18 18.6997 18.0932 18.4482 18.2139C18.1755 18.3448 17.9475 18.5232 17.625 18.7812C17.3225 19.0232 16.9255 19.3448 16.417 19.5889C15.8872 19.8432 15.2701 20 14.5 20C13.7112 20 13.0855 19.8462 12.5518 19.5879C12.0383 19.3394 11.65 19.0107 11.3594 18.7686C11.0501 18.5109 10.8385 18.3394 10.5771 18.2129C10.3359 18.0962 10.0112 18 9.5 18C9.02011 18 8.69966 18.0932 8.44824 18.2139C8.17553 18.3448 7.9475 18.5232 7.625 18.7812C7.32252 19.0232 6.92551 19.3448 6.41699 19.5889C5.88717 19.8432 5.2701 20 4.5 20C3.71121 20 3.08551 19.8462 2.55175 19.5879C2.03829 19.3394 1.64998 19.0107 1.35937 18.7686C0.935182 18.415 0.877905 17.7836 1.23144 17.3594C1.58502 16.9352 2.21638 16.8779 2.64062 17.2314C2.94985 17.4891 3.16149 17.6606 3.42285 17.7871C3.66409 17.9038 3.98879 18 4.5 18C4.97988 18 5.30033 17.9068 5.55175 17.7861C5.82446 17.6552 6.05249 17.4768 6.375 17.2188C6.67748 16.9768 7.07448 16.6552 7.583 16.4111C8.11283 16.1568 8.72989 16 9.5 16C10.2888 16 10.9145 16.1538 11.4482 16.4121C11.9617 16.6606 12.35 16.9893 12.6406 17.2314C12.9499 17.4891 13.1615 17.6606 13.4228 17.7871C13.6641 17.9038 13.9888 18 14.5 18C14.9799 18 15.3003 17.9068 15.5518 17.7861C15.8245 17.6552 16.0525 17.4768 16.375 17.2188C16.6775 16.9768 17.0745 16.6552 17.583 16.4111C18.1128 16.1568 18.7299 16 19.5 16Z" fill="black"/>
<path d="M17 12C17.5523 12 18 12.4477 18 13C18 13.5523 17.5523 14 17 14H7C6.44771 14 6 13.5523 6 13C6 12.4477 6.44771 12 7 12H17Z" fill="black"/>
<path d="M17 8C17.5523 8 18 8.44772 18 9C18 9.55228 17.5523 10 17 10H7C6.44771 10 6 9.55228 6 9C6 8.44772 6.44771 8 7 8H17Z" fill="black"/>
<path d="M6 18V7C6 6.20435 6.31629 5.44152 6.8789 4.87891C7.44151 4.3163 8.20435 4 9 4C9.55228 4 10 4.44772 10 5C10 5.55228 9.55228 6 9 6C8.73478 6 8.4805 6.10543 8.29297 6.29297C8.10543 6.4805 8 6.73478 8 7V18C8 18.5523 7.55228 19 7 19C6.44771 19 6 18.5523 6 18Z" fill="black"/>
</svg>
