<svg width="24" height="24" viewBox="0 0 24 24" fill="none" xmlns="http://www.w3.org/2000/svg">
<path d="M11 10V2C11 1.44772 11.4477 1 12 1C12.5523 1 13 1.44772 13 2V10C13 10.5523 12.5523 11 12 11C11.4477 11 11 10.5523 11 10Z" fill="black"/>
<path d="M15.293 5.29297C15.6835 4.90244 16.3165 4.90244 16.707 5.29297C17.0976 5.68349 17.0976 6.31651 16.707 6.70703L12.707 10.707C12.3165 11.0976 11.6835 11.0976 11.293 10.707L7.29297 6.70703C6.90244 6.31651 6.90244 5.68349 7.29297 5.29297C7.68349 4.90244 8.3165 4.90244 8.70703 5.29297L12 8.58594L15.293 5.29297Z" fill="black"/>
<path d="M19.5 13C20.2888 13 20.9145 13.1538 21.4482 13.4121C21.9617 13.6606 22.35 13.9893 22.6406 14.2314C23.0648 14.585 23.1221 15.2164 22.7686 15.6406C22.415 16.0648 21.7836 16.1221 21.3594 15.7686C21.0501 15.5109 20.8385 15.3394 20.5771 15.2129C20.3359 15.0962 20.0112 15 19.5 15C19.0201 15 18.6997 15.0932 18.4482 15.2139C18.1755 15.3448 17.9475 15.5232 17.625 15.7812C17.3225 16.0232 16.9255 16.3448 16.417 16.5889C15.8872 16.8432 15.2701 17 14.5 17C13.7112 17 13.0855 16.8462 12.5518 16.5879C12.0383 16.3394 11.65 16.0107 11.3594 15.7686C11.0501 15.5109 10.8385 15.3394 10.5771 15.2129C10.3359 15.0962 10.0112 15 9.5 15C9.02011 15 8.69966 15.0932 8.44824 15.2139C8.17553 15.3448 7.9475 15.5232 7.625 15.7812C7.32252 16.0232 6.92551 16.3448 6.41699 16.5889C5.88717 16.8432 5.2701 17 4.5 17C3.71121 17 3.08551 16.8462 2.55175 16.5879C2.03829 16.3394 1.64998 16.0107 1.35937 15.7686C0.935182 15.415 0.877905 14.7836 1.23144 14.3594C1.58502 13.9352 2.21638 13.8779 2.64062 14.2314C2.94985 14.4891 3.16149 14.6606 3.42285 14.7871C3.66409 14.9038 3.98879 15 4.5 15C4.97988 15 5.30033 14.9068 5.55175 14.7861C5.82446 14.6552 6.05249 14.4768 6.375 14.2188C6.67748 13.9768 7.07448 13.6552 7.583 13.4111C8.11283 13.1568 8.72989 13 9.5 13C10.2888 13 10.9145 13.1538 11.4482 13.4121C11.9617 13.6606 12.35 13.9893 12.6406 14.2314C12.9499 14.4891 13.1615 14.6606 13.4228 14.7871C13.6641 14.9038 13.9888 15 14.5 15C14.9799 15 15.3003 14.9068 15.5518 14.7861C15.8245 14.6552 16.0525 14.4768 16.375 14.2188C16.6775 13.9768 17.0745 13.6552 17.583 13.4111C18.1128 13.1568 18.7299 13 19.5 13Z" fill="black"/>
<path d="M19.5 19C20.2888 19 20.9145 19.1538 21.4482 19.4121C21.9617 19.6606 22.35 19.9893 22.6406 20.2314C23.0648 20.585 23.1221 21.2164 22.7686 21.6406C22.415 22.0648 21.7836 22.1221 21.3594 21.7686C21.0501 21.5109 20.8385 21.3394 20.5771 21.2129C20.3359 21.0962 20.0112 21 19.5 21C19.0201 21 18.6997 21.0932 18.4482 21.2139C18.1755 21.3448 17.9475 21.5232 17.625 21.7812C17.3225 22.0232 16.9255 22.3448 16.417 22.5889C15.8872 22.8432 15.2701 23 14.5 23C13.7112 23 13.0855 22.8462 12.5518 22.5879C12.0383 22.3394 11.65 22.0107 11.3594 21.7686C11.0501 21.5109 10.8385 21.3394 10.5771 21.2129C10.3359 21.0962 10.0112 21 9.5 21C9.02011 21 8.69966 21.0932 8.44824 21.2139C8.17553 21.3448 7.9475 21.5232 7.625 21.7812C7.32252 22.0232 6.92551 22.3448 6.41699 22.5889C5.88717 22.8432 5.2701 23 4.5 23C3.71121 23 3.08551 22.8462 2.55175 22.5879C2.03829 22.3394 1.64998 22.0107 1.35937 21.7686C0.935182 21.415 0.877905 20.7836 1.23144 20.3594C1.58502 19.9352 2.21638 19.8779 2.64062 20.2314C2.94985 20.4891 3.16149 20.6606 3.42285 20.7871C3.66409 20.9038 3.98879 21 4.5 21C4.97988 21 5.30033 20.9068 5.55175 20.7861C5.82446 20.6552 6.05249 20.4768 6.375 20.2188C6.67748 19.9768 7.07448 19.6552 7.583 19.4111C8.11283 19.1568 8.72989 19 9.5 19C10.2888 19 10.9145 19.1538 11.4482 19.4121C11.9617 19.6606 12.35 19.9893 12.6406 20.2314C12.9499 20.4891 13.1615 20.6606 13.4228 20.7871C13.6641 20.9038 13.9888 21 14.5 21C14.9799 21 15.3003 20.9068 15.5518 20.7861C15.8245 20.6552 16.0525 20.4768 16.375 20.2188C16.6775 19.9768 17.0745 19.6552 17.583 19.4111C18.1128 19.1568 18.7299 19 19.5 19Z" fill="black"/>
</svg>
