<svg width="24" height="24" viewBox="0 0 24 24" fill="none" xmlns="http://www.w3.org/2000/svg">
<path fill-rule="evenodd" clip-rule="evenodd" d="M18.649 1.17166C18.9186 1.05917 19.2078 1.00125 19.5 1.00125C19.7921 1.00125 20.0814 1.05917 20.351 1.17166C20.6197 1.28377 20.8636 1.44786 21.0686 1.6545C21.0693 1.65521 21.07 1.65591 21.0707 1.65662L22.343 2.92887C22.551 3.13276 22.7165 3.37595 22.8298 3.64436C22.9442 3.91516 23.0031 4.20613 23.0031 4.50007C23.0031 4.79402 22.9442 5.08499 22.8298 5.35579C22.7165 5.62418 22.551 5.86736 22.343 6.07125L6.07116 22.3431C5.86727 22.5511 5.62409 22.7166 5.3557 22.8299C5.0849 22.9443 4.79393 23.0032 4.49998 23.0032C4.20604 23.0032 3.91507 22.9443 3.64427 22.8299C3.37586 22.7166 3.13267 22.5511 2.92878 22.3431L1.65653 21.0708C1.65582 21.0701 1.65512 21.0694 1.65441 21.0687C1.44777 20.8636 1.28368 20.6198 1.17157 20.3511C1.05908 20.0815 1.00116 19.7922 1.00116 19.5001C1.00116 19.2079 1.05908 18.9187 1.17157 18.6491C1.28367 18.3804 1.44774 18.1366 1.65435 17.9315C1.65508 17.9308 1.65581 17.93 1.65653 17.9293L17.9292 1.65662C17.93 1.6559 17.9307 1.65517 17.9314 1.65444C18.1365 1.44783 18.3803 1.28376 18.649 1.17166ZM19.5 3.00125C19.4722 3.00125 19.4447 3.00675 19.4191 3.01744C19.3935 3.02813 19.3703 3.0438 19.3507 3.06353C19.3495 3.06475 19.3483 3.06597 19.3471 3.06718L3.06709 19.3472C3.06588 19.3484 3.06466 19.3496 3.06343 19.3508C3.04371 19.3703 3.02804 19.3936 3.01735 19.4192C3.00666 19.4448 3.00116 19.4723 3.00116 19.5001C3.00116 19.5278 3.00666 19.5553 3.01735 19.5809C3.02804 19.6066 3.04371 19.6298 3.06343 19.6493C3.06466 19.6505 3.06587 19.6518 3.06709 19.653L4.34709 20.933C4.3503 20.9362 4.35349 20.9394 4.35665 20.9427C4.37529 20.9618 4.39758 20.977 4.42219 20.9874C4.44681 20.9978 4.47326 21.0032 4.49998 21.0032C4.52671 21.0032 4.55316 20.9978 4.57778 20.9874C4.60239 20.977 4.62468 20.9618 4.64332 20.9427C4.64648 20.9394 4.64967 20.9362 4.65288 20.933L20.9329 4.65297C20.9361 4.64976 20.9393 4.64657 20.9426 4.64341C20.9617 4.62477 20.9769 4.60248 20.9873 4.57787C20.9977 4.55325 21.0031 4.5268 21.0031 4.50007C21.0031 4.47335 20.9977 4.4469 20.9873 4.42228C20.9769 4.39767 20.9617 4.37538 20.9426 4.35674C20.9393 4.35358 20.9361 4.35039 20.9329 4.34718L19.6529 3.06718L19.6509 3.06516L19.6492 3.06353C19.6297 3.0438 19.6065 3.02813 19.5808 3.01744C19.5552 3.00675 19.5277 3.00125 19.5 3.00125Z" fill="black"/>
<path fill-rule="evenodd" clip-rule="evenodd" d="M13.2929 6.29289C13.6834 5.90237 14.3166 5.90237 14.7071 6.29289L17.7071 9.29289C18.0976 9.68342 18.0976 10.3166 17.7071 10.7071C17.3166 11.0976 16.6834 11.0976 16.2929 10.7071L13.2929 7.70711C12.9024 7.31658 12.9024 6.68342 13.2929 6.29289Z" fill="black"/>
<path fill-rule="evenodd" clip-rule="evenodd" d="M4.99999 5C5.55227 5 5.99999 5.44772 5.99999 6V10C5.99999 10.5523 5.55227 11 4.99999 11C4.4477 11 3.99999 10.5523 3.99999 10V6C3.99999 5.44772 4.4477 5 4.99999 5Z" fill="black"/>
<path fill-rule="evenodd" clip-rule="evenodd" d="M19 13C19.5523 13 20 13.4477 20 14V18C20 18.5523 19.5523 19 19 19C18.4477 19 18 18.5523 18 18V14C18 13.4477 18.4477 13 19 13Z" fill="black"/>
<path fill-rule="evenodd" clip-rule="evenodd" d="M9.99999 1C10.5523 1 11 1.44772 11 2V4C11 4.55228 10.5523 5 9.99999 5C9.4477 5 8.99999 4.55228 8.99999 4V2C8.99999 1.44772 9.4477 1 9.99999 1Z" fill="black"/>
<path fill-rule="evenodd" clip-rule="evenodd" d="M1.99999 8C1.99999 7.44772 2.4477 7 2.99999 7H6.99999C7.55227 7 7.99999 7.44772 7.99999 8C7.99999 8.55228 7.55227 9 6.99999 9H2.99999C2.4477 9 1.99999 8.55228 1.99999 8Z" fill="black"/>
<path fill-rule="evenodd" clip-rule="evenodd" d="M16 16C16 15.4477 16.4477 15 17 15H21C21.5523 15 22 15.4477 22 16C22 16.5523 21.5523 17 21 17H17C16.4477 17 16 16.5523 16 16Z" fill="black"/>
<path fill-rule="evenodd" clip-rule="evenodd" d="M7.99999 3C7.99999 2.44772 8.4477 2 8.99999 2H11C11.5523 2 12 2.44772 12 3C12 3.55228 11.5523 4 11 4H8.99999C8.4477 4 7.99999 3.55228 7.99999 3Z" fill="black"/>
</svg>
