<svg width="24" height="24" viewBox="0 0 24 24" fill="none" xmlns="http://www.w3.org/2000/svg">
<path d="M12 4.00049C15.9356 4.00049 19.7335 5.45095 22.667 8.07471C23.0785 8.44291 23.1133 9.07521 22.7451 9.48682C22.3769 9.89834 21.7446 9.93405 21.333 9.56592C18.7662 7.27013 15.4437 6.00049 12 6.00049C8.55632 6.00049 5.23377 7.27013 2.667 9.56592C2.25539 9.93405 1.62309 9.89834 1.25489 9.48682C0.886741 9.07521 0.921496 8.44291 1.33301 8.07471C4.26647 5.45095 8.06437 4.00049 12 4.00049Z" fill="black"/>
<path d="M21 15.124C21 14.8259 20.8817 14.5399 20.6709 14.3291C20.4601 14.1183 20.1741 14 19.876 14C19.615 14 19.3632 14.0908 19.1631 14.2549L19.0811 14.3291L15.0713 18.3408C14.9524 18.4596 14.8655 18.6072 14.8184 18.7686L14.2364 20.7627L16.2315 20.1807C16.3923 20.1336 16.5387 20.0471 16.6573 19.9287L20.6709 15.9189L20.7451 15.8369C20.9093 15.6368 21 15.3851 21 15.124ZM23 15.124C23 15.9526 22.6708 16.7471 22.085 17.333L18.0713 21.3428C17.715 21.699 17.2747 21.9594 16.791 22.1006L13.9209 22.9385C13.6629 23.0137 13.3893 23.0178 13.1289 22.9512C12.8684 22.8844 12.6306 22.7487 12.4405 22.5586C12.2503 22.3685 12.1146 22.1306 12.0479 21.8701C11.9812 21.6098 11.9853 21.3361 12.0606 21.0781L12.8985 18.208L12.9571 18.0283C13.1065 17.6151 13.3445 17.2385 13.6563 16.9268L17.667 12.915C18.2529 12.3292 19.0475 12 19.876 12C20.7046 12 21.4991 12.3292 22.085 12.915C22.6709 13.5009 23 14.2955 23 15.124Z" fill="black"/>
<path d="M9.71973 9.2418C11.7653 8.80894 13.8922 8.96835 15.8506 9.70079C16.3677 9.89438 16.63 10.4707 16.4365 10.9879C16.2429 11.5049 15.6666 11.7672 15.1494 11.5738C13.5471 10.9746 11.8074 10.8447 10.1338 11.1988C8.46011 11.553 6.92145 12.3768 5.69922 13.5738C5.30463 13.9599 4.67148 13.9536 4.28516 13.5592C3.89876 13.1646 3.90623 12.5315 4.30079 12.1451C5.79461 10.6821 7.67413 9.67469 9.71973 9.2418Z" fill="black"/>
<path d="M11.3994 14.028C11.9489 13.9726 12.4396 14.3732 12.4951 14.9226C12.5506 15.472 12.15 15.9627 11.6006 16.0183C10.696 16.1096 9.84912 16.5065 9.2002 17.1433C8.80599 17.5298 8.17287 17.5237 7.78614 17.1296C7.39936 16.7354 7.40563 16.1023 7.79981 15.7155C8.77315 14.7604 10.0426 14.165 11.3994 14.028Z" fill="black"/>
</svg>
