<svg width="24" height="24" viewBox="0 0 24 24" fill="none" xmlns="http://www.w3.org/2000/svg">
<path fill-rule="evenodd" clip-rule="evenodd" d="M11 20.0001C11 19.4478 11.4477 19.0001 12 19.0001H12.01C12.5623 19.0001 13.01 19.4478 13.01 20.0001C13.01 20.5524 12.5623 21.0001 12.01 21.0001H12C11.4477 21.0001 11 20.5524 11 20.0001Z" fill="black"/>
<path fill-rule="evenodd" clip-rule="evenodd" d="M12 6.00049C8.55633 6.00049 5.23345 7.26971 2.66668 9.5655C2.25503 9.93369 1.62284 9.89846 1.25465 9.48681C0.886464 9.07517 0.921694 8.44298 1.33334 8.07479C4.2668 5.45103 8.06437 4.00049 12 4.00049C15.9356 4.00049 19.7332 5.45103 22.6667 8.07479C23.0783 8.44298 23.1136 9.07517 22.7454 9.48681C22.3772 9.89846 21.745 9.93369 21.3333 9.5655C18.7666 7.26971 15.4437 6.00049 12 6.00049Z" fill="black"/>
<path fill-rule="evenodd" clip-rule="evenodd" d="M12 11.0006C9.64423 11.0006 7.38236 11.9242 5.7 13.5733C5.30559 13.9599 4.67246 13.9535 4.28586 13.5591C3.89926 13.1647 3.90559 12.5316 4.3 12.145C6.35622 10.1295 9.12072 9.00057 12 9.00057C14.8793 9.00057 17.6438 10.1295 19.7 12.145C20.0944 12.5316 20.1007 13.1647 19.7141 13.5591C19.3275 13.9535 18.6944 13.9599 18.3 13.5733C16.6176 11.9242 14.3558 11.0006 12 11.0006Z" fill="black"/>
<path fill-rule="evenodd" clip-rule="evenodd" d="M12 15.9999C10.953 15.9999 9.94772 16.4104 9.2 17.1433C8.80559 17.5299 8.17246 17.5236 7.78586 17.1292C7.39926 16.7347 7.40559 16.1016 7.8 15.715C8.92157 14.6156 10.4295 13.9999 12 13.9999C13.5705 13.9999 15.0784 14.6156 16.2 15.715C16.5944 16.1016 16.6007 16.7347 16.2141 17.1292C15.8275 17.5236 15.1944 17.5299 14.8 17.1433C14.0523 16.4104 13.047 15.9999 12 15.9999Z" fill="black"/>
</svg>
