<svg width="24" height="24" viewBox="0 0 24 24" fill="none" xmlns="http://www.w3.org/2000/svg">
<path fill-rule="evenodd" clip-rule="evenodd" d="M11 20C11 19.4477 11.4477 19 12 19H12.01C12.5623 19 13.01 19.4477 13.01 20C13.01 20.5523 12.5623 21 12.01 21H12C11.4477 21 11 20.5523 11 20Z" fill="black"/>
<path fill-rule="evenodd" clip-rule="evenodd" d="M12 15.9998C10.953 15.9998 9.94772 16.4103 9.2 17.1432C8.80559 17.5298 8.17246 17.5235 7.78586 17.1291C7.39926 16.7346 7.40559 16.1015 7.8 15.7149C8.92157 14.6155 10.4295 13.9998 12 13.9998C13.5705 13.9998 15.0784 14.6155 16.2 15.7149C16.5944 16.1015 16.6007 16.7346 16.2141 17.1291C15.8275 17.5235 15.1944 17.5298 14.8 17.1432C14.0523 16.4103 13.047 15.9998 12 15.9998Z" fill="black"/>
<path fill-rule="evenodd" clip-rule="evenodd" d="M11.1531 9.98589C11.2542 10.5288 10.896 11.0509 10.353 11.152C8.59607 11.4792 6.97626 12.322 5.70004 13.573C5.30565 13.9597 4.67251 13.9534 4.28589 13.559C3.89927 13.1646 3.90557 12.5314 4.29996 12.1448C5.85979 10.6157 7.83955 9.58563 9.98696 9.18582C10.5299 9.08473 11.052 9.44294 11.1531 9.98589Z" fill="black"/>
<path fill-rule="evenodd" clip-rule="evenodd" d="M16.1266 10.8368C16.4024 10.3583 17.0139 10.1939 17.4924 10.4697C18.296 10.9328 19.0378 11.4957 19.7001 12.145C20.0945 12.5316 20.1008 13.1647 19.7142 13.5591C19.3276 13.9535 18.6944 13.9598 18.3 13.5732C17.7581 13.042 17.1512 12.5814 16.4937 12.2025C16.0152 11.9267 15.8509 11.3153 16.1266 10.8368Z" fill="black"/>
<path fill-rule="evenodd" clip-rule="evenodd" d="M7.0986 5.7889C7.31298 6.29788 7.07415 6.88427 6.56517 7.09865C5.13819 7.69967 3.82079 8.53325 2.66664 9.56545C2.25497 9.93362 1.62278 9.89835 1.25462 9.48668C0.88645 9.07501 0.921715 8.44283 1.33338 8.07466C2.65242 6.89501 4.15801 5.94235 5.78885 5.25546C6.29783 5.04109 6.88423 5.27992 7.0986 5.7889Z" fill="black"/>
<path fill-rule="evenodd" clip-rule="evenodd" d="M10.6261 4.05974C12.8008 3.87228 14.9909 4.13176 17.0615 4.82223C19.1322 5.5127 21.0397 6.61955 22.6667 8.07468C23.0783 8.44286 23.1136 9.07504 22.7454 9.4867C22.3772 9.89836 21.745 9.9336 21.3334 9.56542C19.9098 8.29218 18.2407 7.32369 16.4289 6.71953C14.617 6.11537 12.7007 5.88832 10.7979 6.05235C10.2477 6.09979 9.76314 5.69218 9.71571 5.14193C9.66827 4.59169 10.0759 4.10718 10.6261 4.05974Z" fill="black"/>
<path fill-rule="evenodd" clip-rule="evenodd" d="M1.29289 1.29289C1.68342 0.902369 2.31658 0.902369 2.70711 1.29289L22.7071 21.2929C23.0976 21.6834 23.0976 22.3166 22.7071 22.7071C22.3166 23.0976 21.6834 23.0976 21.2929 22.7071L1.29289 2.70711C0.902369 2.31658 0.902369 1.68342 1.29289 1.29289Z" fill="black"/>
</svg>
