<svg width="24" height="24" viewBox="0 0 24 24" fill="none" xmlns="http://www.w3.org/2000/svg">
<path fill-rule="evenodd" clip-rule="evenodd" d="M12.7071 11.2929C13.0976 11.6834 13.0976 12.3166 12.7071 12.7071L2.70711 22.7071C2.31658 23.0976 1.68342 23.0976 1.29289 22.7071C0.902369 22.3166 0.902369 21.6834 1.29289 21.2929L11.2929 11.2929C11.6834 10.9024 12.3166 10.9024 12.7071 11.2929Z" fill="black"/>
<path fill-rule="evenodd" clip-rule="evenodd" d="M16.7071 7.29289C17.0976 7.68342 17.0976 8.31658 16.7071 8.70711L15.5371 9.87711C15.1466 10.2676 14.5134 10.2676 14.1229 9.87711C13.7324 9.48658 13.7324 8.85342 14.1229 8.46289L15.2929 7.29289C15.6834 6.90237 16.3166 6.90237 16.7071 7.29289Z" fill="black"/>
<path fill-rule="evenodd" clip-rule="evenodd" d="M4.29292 10.2929C4.68345 9.90237 5.31661 9.90237 5.70714 10.2929L7.23853 11.8243C8.07861 12.6677 8.55029 13.8096 8.55029 15C8.55029 16.1904 8.07861 17.3323 7.23853 18.1757L7.23714 18.1771L5.70714 19.7071C5.5196 19.8946 5.26525 20 5.00003 20C4.73481 20 4.48046 19.8946 4.29292 19.7071L2.76153 18.1757C1.92145 17.3323 1.44977 16.1904 1.44977 15C1.44977 13.8096 1.92145 12.6677 2.76153 11.8243L2.76292 11.8229L4.29292 10.2929ZM4.17789 13.2364C4.17768 13.2366 4.1781 13.2361 4.17789 13.2364C3.71157 13.7048 3.44977 14.339 3.44977 15C3.44977 15.661 3.71157 16.2952 4.17789 16.7636C4.17768 16.7634 4.1781 16.7639 4.17789 16.7636L5.00003 17.5858L5.82153 16.7643C5.82133 16.7645 5.82174 16.7641 5.82153 16.7643C6.28787 16.2958 6.55029 15.661 6.55029 15C6.55029 14.339 6.2885 13.7049 5.8222 13.2364C5.82198 13.2362 5.82242 13.2366 5.8222 13.2364L5.00003 12.4142L4.17789 13.2364Z" fill="black"/>
<path fill-rule="evenodd" clip-rule="evenodd" d="M8.70714 7.29289C9.09766 7.68342 9.09766 8.31658 8.70714 8.70711L8.17853 9.23571C8.17832 9.23592 8.17873 9.23551 8.17853 9.23571C7.71219 9.70421 7.44977 10.339 7.44977 11C7.44977 11.661 7.71155 12.2951 8.17784 12.7636C8.17761 12.7634 8.17807 12.7638 8.17784 12.7636L9.00003 13.5858L9.82292 12.7629C10.2135 12.3723 10.4484 11.8746 10.5195 11.3624C10.5955 10.8154 11.1006 10.4335 11.6476 10.5095C12.1946 10.5855 12.5765 11.0905 12.5005 11.6376C12.3717 12.5654 11.9466 13.4677 11.2371 14.1771L9.70714 15.7071C9.31661 16.0976 8.68345 16.0976 8.29292 15.7071L6.76292 14.1771L6.76153 14.1757C5.92145 13.3323 5.44977 12.1904 5.44977 11C5.44977 9.80959 5.92145 8.66768 6.76153 7.82429L6.76292 7.82289L7.29292 7.29289C7.68345 6.90237 8.31661 6.90237 8.70714 7.29289Z" fill="black"/>
<path fill-rule="evenodd" clip-rule="evenodd" d="M13 2C13.2652 2 13.5196 2.10536 13.7071 2.29289L15.2388 3.82461C16.0117 4.6012 16.4746 5.63303 16.5409 6.72661C16.6072 7.82019 16.2722 8.90039 15.5988 9.76462C15.2594 10.2003 14.6311 10.2783 14.1954 9.93883C13.7597 9.59938 13.6818 8.97104 14.0212 8.53538C14.3953 8.05526 14.5814 7.45515 14.5445 6.8476C14.5077 6.24042 14.2508 5.6675 13.822 5.23615C13.8217 5.23589 13.8214 5.23564 13.8212 5.23538L13 4.41421L12.1771 5.23711C12.0201 5.39418 11.8832 5.57421 11.7762 5.75972C11.5002 6.2381 10.8887 6.40217 10.4103 6.12619C9.93191 5.8502 9.76784 5.23866 10.0438 4.76028C10.2368 4.42579 10.48 4.10582 10.7629 3.82289L12.2929 2.29289C12.4804 2.10536 12.7348 2 13 2Z" fill="black"/>
<path fill-rule="evenodd" clip-rule="evenodd" d="M20 3C19.2043 3 18.4413 3.31607 17.8787 3.87868C17.3161 4.44129 17 5.20435 17 6V7H18C18.7957 7 19.5587 6.68393 20.1213 6.12132C20.6839 5.55871 21 4.79565 21 4V3H20ZM16.4645 2.46447C17.4021 1.52678 18.6739 1 20 1H22C22.5523 1 23 1.44772 23 2V4C23 5.32608 22.4732 6.59785 21.5355 7.53553C20.5979 8.47322 19.3261 9 18 9H16C15.4477 9 15 8.55228 15 8V6C15 4.67392 15.5268 3.40215 16.4645 2.46447Z" fill="black"/>
<path fill-rule="evenodd" clip-rule="evenodd" d="M7.23571 18.1785C7.2355 18.1787 7.23593 18.1783 7.23571 18.1785L6.41421 19L7.23571 19.8215C7.23551 19.8213 7.23592 19.8217 7.23571 19.8215C7.70421 20.2878 8.33895 20.5502 9 20.5502C9.66102 20.5502 10.2951 20.2884 10.7636 19.8221C10.7634 19.8224 10.7638 19.8219 10.7636 19.8221L11.5858 19L10.7643 18.1785C10.7641 18.1782 10.7645 18.1787 10.7643 18.1785C10.2958 17.7122 9.66102 17.4497 9 17.4497C8.33896 17.4497 7.70421 17.7121 7.23571 18.1785ZM5.82429 16.7615C6.66769 15.9214 7.80959 15.4497 9 15.4497C10.1904 15.4497 11.3323 15.9214 12.1757 16.7615L12.1771 16.7629L13.7071 18.2929C14.0976 18.6834 14.0976 19.3166 13.7071 19.7071L12.1757 21.2385C11.3323 22.0786 10.1904 22.5502 9 22.5502C7.80959 22.5502 6.66769 22.0786 5.82429 21.2385L4.29292 19.7071C3.9024 19.3166 3.90237 18.6834 4.29289 18.2929L5.82429 16.7615Z" fill="black"/>
<path fill-rule="evenodd" clip-rule="evenodd" d="M13.4901 12.3497C13.5677 12.8965 13.1873 13.4026 12.6405 13.4802C12.1093 13.5556 11.6167 13.8004 11.2359 14.1784L10.4142 15.0001L11.2357 15.8216C11.2355 15.8214 11.2359 15.8218 11.2357 15.8216C11.7042 16.2879 12.339 16.5504 13 16.5504C13.661 16.5504 14.2951 16.2886 14.7636 15.8223C14.7634 15.8225 14.7638 15.8221 14.7636 15.8223L15.2929 15.293C15.6834 14.9025 16.3166 14.9025 16.7071 15.293C17.0976 15.6835 17.0976 16.3167 16.7071 16.7072L16.1771 17.2372L16.1757 17.2386C15.3323 18.0787 14.1904 18.5504 13 18.5504C11.8096 18.5504 10.6677 18.0787 9.82429 17.2386L8.29292 15.7071C7.9024 15.3166 7.90237 14.6835 8.29289 14.293L9.82508 12.7608C10.5119 12.0783 11.4009 11.636 12.3595 11.5C12.9064 11.4225 13.4125 11.8029 13.4901 12.3497Z" fill="black"/>
<path fill-rule="evenodd" clip-rule="evenodd" d="M14.2354 8.40122C15.0996 7.72785 16.1798 7.3929 17.2734 7.45917C18.367 7.52545 19.3988 7.98841 20.1754 8.76122L20.1771 8.76293L21.7071 10.2929C21.8947 10.4805 22 10.7348 22 11C22 11.2653 21.8947 11.5196 21.7071 11.7071L20.1771 13.2371C19.8942 13.5201 19.5742 13.7633 19.2397 13.9562C18.7614 14.2322 18.1498 14.0681 17.8738 13.5898C17.5978 13.1114 17.7619 12.4998 18.2403 12.2239C18.4258 12.1168 18.6058 11.98 18.7629 11.8229L19.5858 11L18.7646 10.1789C18.7644 10.1786 18.7641 10.1783 18.7638 10.1781C18.3325 9.74921 17.7596 9.49231 17.1524 9.45551C16.5449 9.41869 15.9448 9.60478 15.4646 9.97887C15.029 10.3183 14.4006 10.2403 14.0612 9.80466C13.7218 9.369 13.7997 8.74066 14.2354 8.40122Z" fill="black"/>
<path fill-rule="evenodd" clip-rule="evenodd" d="M1.29289 1.29289C1.68342 0.902369 2.31658 0.902369 2.70711 1.29289L22.7071 21.2929C23.0976 21.6834 23.0976 22.3166 22.7071 22.7071C22.3166 23.0976 21.6834 23.0976 21.2929 22.7071L1.29289 2.70711C0.902369 2.31658 0.902369 1.68342 1.29289 1.29289Z" fill="black"/>
</svg>
