<svg width="24" height="24" viewBox="0 0 24 24" fill="none" xmlns="http://www.w3.org/2000/svg">
<path d="M9.8788 4.70692C10.2693 4.31642 10.9023 4.31646 11.2929 4.70692C11.6834 5.09745 11.6834 5.73046 11.2929 6.12099L6.12099 11.2929C5.73046 11.6834 5.09745 11.6834 4.70692 11.2929C4.31646 10.9023 4.31642 10.2693 4.70692 9.8788L9.8788 4.70692Z" fill="black"/>
<path d="M17.8788 12.7069C18.2693 12.3164 18.9023 12.3165 19.2929 12.7069C19.6834 13.0974 19.6834 13.7305 19.2929 14.121L14.121 19.2929C13.7305 19.6834 13.0974 19.6834 12.7069 19.2929C12.3165 18.9023 12.3164 18.2693 12.7069 17.8788L17.8788 12.7069Z" fill="black"/>
<path d="M18 11C18.5523 11 19 11.4477 19 12C19 12.5523 18.5523 13 18 13H6C5.44772 13 5 12.5523 5 12C5 11.4477 5.44772 11 6 11H18Z" fill="black"/>
<path d="M13 20C13 19.4477 12.5523 19 12 19C11.4477 19 11 19.4477 11 20C11 20.5523 11.4477 21 12 21C12.5523 21 13 20.5523 13 20ZM15 20C15 21.6569 13.6569 23 12 23C10.3431 23 9 21.6569 9 20C9 18.3431 10.3431 17 12 17C13.6569 17 15 18.3431 15 20Z" fill="black"/>
<path d="M13 4C13 3.44772 12.5523 3 12 3C11.4477 3 11 3.44772 11 4C11 4.55228 11.4477 5 12 5C12.5523 5 13 4.55228 13 4ZM15 4C15 5.65685 13.6569 7 12 7C10.3431 7 9 5.65685 9 4C9 2.34315 10.3431 1 12 1C13.6569 1 15 2.34315 15 4Z" fill="black"/>
<path d="M21 12C21 11.4477 20.5523 11 20 11C19.4477 11 19 11.4477 19 12C19 12.5523 19.4477 13 20 13C20.5523 13 21 12.5523 21 12ZM23 12C23 13.6569 21.6569 15 20 15C18.3431 15 17 13.6569 17 12C17 10.3431 18.3431 9 20 9C21.6569 9 23 10.3431 23 12Z" fill="black"/>
<path d="M5 12C5 11.4477 4.55228 11 4 11C3.44772 11 3 11.4477 3 12C3 12.5523 3.44772 13 4 13C4.55228 13 5 12.5523 5 12ZM7 12C7 13.6569 5.65685 15 4 15C2.34315 15 1 13.6569 1 12C1 10.3431 2.34315 9 4 9C5.65685 9 7 10.3431 7 12Z" fill="black"/>
</svg>
