<svg width="24" height="24" viewBox="0 0 24 24" fill="none" xmlns="http://www.w3.org/2000/svg">
<path d="M17.4886 7L17.7346 7.0127C18.3072 7.06466 18.8551 7.27969 19.3108 7.63574C19.8256 8.03797 20.1937 8.59761 20.3616 9.22852L22.888 18.1885V18.1904C23.0129 18.6361 23.0329 19.1048 22.9466 19.5596C22.8602 20.0144 22.6695 20.4435 22.3899 20.8125C22.1103 21.1813 21.7487 21.4805 21.3343 21.6865C20.9717 21.8667 20.5771 21.9716 20.1741 21.9951L20.0003 22H3.98172C3.52858 21.9917 3.08315 21.8808 2.67898 21.6758C2.27476 21.4707 1.92201 21.1763 1.64773 20.8154C1.37353 20.4546 1.18438 20.0361 1.095 19.5918C1.00566 19.1475 1.01875 18.6888 1.13211 18.25L1.13601 18.2344L3.63016 9.19434L3.63113 9.19043C3.80644 8.56513 4.18005 8.01307 4.69559 7.61816C5.21109 7.22334 5.8412 7.00641 6.49051 7H17.4886ZM6.34891 9.01465C6.19062 9.0421 6.0402 9.1074 5.91141 9.20605C5.73976 9.33759 5.61538 9.52131 5.55691 9.72949L3.06766 18.749L3.06863 18.75C3.03086 18.8962 3.0262 19.0492 3.05594 19.1973C3.08573 19.3454 3.14908 19.4852 3.24051 19.6055C3.33191 19.7257 3.44957 19.8242 3.58426 19.8926C3.71877 19.9607 3.86708 19.9972 4.01785 20H19.9993C20.1536 19.9999 20.3064 19.9642 20.4446 19.8955C20.5826 19.8269 20.703 19.7273 20.7962 19.6045C20.8894 19.4815 20.9529 19.3381 20.9817 19.1865C21.0104 19.0354 21.0035 18.8796 20.9622 18.7314L18.4378 9.77148C18.4358 9.76444 18.4337 9.75709 18.4319 9.75C18.3769 9.53677 18.2529 9.34752 18.0794 9.21191C17.9491 9.11017 17.7962 9.04271 17.635 9.01465L17.472 9H6.51004L6.34891 9.01465Z" fill="black"/>
<path d="M9.999 13C10.5424 13 11.0784 13.1261 11.5644 13.3691C12.0504 13.6121 12.4728 13.9657 12.7988 14.4004C12.9385 14.5866 13.1199 14.7377 13.3281 14.8418C13.5364 14.9459 13.7661 15 13.999 15C14.2319 15 14.4616 14.9459 14.6699 14.8418C14.8781 14.7377 15.0595 14.5866 15.1992 14.4004C15.5305 13.9586 16.1568 13.869 16.5986 14.2002C17.0404 14.5315 17.13 15.1578 16.7988 15.5996C16.4728 16.0343 16.0504 16.3879 15.5644 16.6309C15.0784 16.8739 14.5424 17 13.999 17C13.4556 17 12.9196 16.8739 12.4336 16.6309C11.9476 16.3879 11.5252 16.0343 11.1992 15.5996C11.0595 15.4134 10.8781 15.2623 10.6699 15.1582C10.4616 15.0541 10.2319 15 9.999 15C9.76613 15 9.53638 15.0541 9.3281 15.1582C9.11987 15.2623 8.93851 15.4134 8.7988 15.5996C8.46747 16.0414 7.84121 16.131 7.39939 15.7998C6.95761 15.4685 6.86796 14.8422 7.19919 14.4004C7.52521 13.9657 7.94758 13.6121 8.43357 13.3691C8.91956 13.1261 9.45564 13 9.999 13Z" fill="black"/>
<path d="M14 5C14 3.89543 13.1046 3 12 3C10.8954 3 10 3.89543 10 5C10 6.10457 10.8954 7 12 7C13.1046 7 14 6.10457 14 5ZM16 5C16 7.20914 14.2091 9 12 9C9.79086 9 8 7.20914 8 5C8 2.79086 9.79086 1 12 1C14.2091 1 16 2.79086 16 5Z" fill="black"/>
</svg>
