<svg width="24" height="24" viewBox="0 0 24 24" fill="none" xmlns="http://www.w3.org/2000/svg">
<path d="M11 21V17C11 16.4477 11.4477 16 12 16C12.5523 16 13 16.4477 13 17V21C13 21.5523 12.5523 22 12 22C11.4477 22 11 21.5523 11 21Z" fill="black"/>
<path d="M16 20C16.5523 20 17 20.4477 17 21C17 21.5523 16.5523 22 16 22H8C7.44772 22 7 21.5523 7 21C7 20.4477 7.44772 20 8 20H16Z" fill="black"/>
<path d="M16.5109 9.32839C17.2012 9.33088 17.8663 9.57141 18.3966 10.0042L18.6153 10.2005L18.6173 10.2034L22.7071 14.2932C23.0976 14.6838 23.0976 15.3168 22.7071 15.7073C22.3166 16.0977 21.6836 16.0977 21.2931 15.7073L17.2052 11.6194L17.1319 11.554C16.9553 11.4098 16.734 11.3293 16.504 11.3284C16.2411 11.3275 15.9877 11.4305 15.7999 11.6145L15.7989 11.6135L9.70714 17.7073C9.31665 18.0977 8.68358 18.0977 8.29308 17.7073C7.90259 17.3168 7.90267 16.6838 8.29308 16.2932L14.3927 10.1926L14.4005 10.1858C14.9639 9.63373 15.722 9.32558 16.5109 9.32839Z" fill="black"/>
<path d="M9 9C9 8.44772 8.55228 8 8 8C7.44772 8 7 8.44772 7 9C7 9.55228 7.44772 10 8 10C8.55228 10 9 9.55228 9 9ZM11 9C11 10.6569 9.65685 12 8 12C6.34315 12 5 10.6569 5 9C5 7.34315 6.34315 6 8 6C9.65685 6 11 7.34315 11 9Z" fill="black"/>
<path d="M21 5C21 4.44772 20.5523 4 20 4H4C3.44772 4 3 4.44772 3 5V15C3 15.5523 3.44772 16 4 16H20C20.5523 16 21 15.5523 21 15V5ZM23 15C23 16.6569 21.6569 18 20 18H4C2.34315 18 1 16.6569 1 15V5C1 3.34315 2.34315 2 4 2H20C21.6569 2 23 3.34315 23 5V15Z" fill="black"/>
</svg>
