<svg width="24" height="24" viewBox="0 0 24 24" fill="none" xmlns="http://www.w3.org/2000/svg">
<path d="M14 15.0002C14.4753 15.0002 14.9441 15.1128 15.3672 15.3293C15.7903 15.546 16.1556 15.8607 16.4336 16.2463C16.7115 16.6319 16.8941 17.0782 16.9658 17.5481C17.0374 18.0178 16.9959 18.4977 16.8457 18.9485C16.6954 19.3994 16.4408 19.8089 16.1016 20.1418C15.7623 20.4747 15.3482 20.7218 14.8945 20.8635C14.4408 21.0053 13.9597 21.0379 13.4912 20.9573C13.0229 20.8767 12.5804 20.6857 12.2002 20.4006C11.7584 20.0693 11.6686 19.4421 12 19.0002C12.3314 18.5584 12.9586 18.4687 13.4004 18.8C13.527 18.895 13.6741 18.9587 13.8301 18.9856C13.9862 19.0124 14.1467 19.0015 14.2979 18.9543C14.449 18.9071 14.5871 18.825 14.7002 18.7141C14.8132 18.6032 14.8981 18.4669 14.9482 18.3167C14.9983 18.1664 15.0121 18.0064 14.9883 17.8499C14.9644 17.6932 14.9042 17.5438 14.8115 17.4153C14.7189 17.2868 14.597 17.1818 14.4561 17.1096C14.315 17.0374 14.1585 17.0002 14 17.0002H2C1.44772 17.0002 1 16.5525 1 16.0002C1 15.448 1.44772 15.0002 2 15.0002H14Z" fill="black"/>
<path d="M19.8145 6.01383C20.4085 6.06741 20.9789 6.27253 21.4717 6.60855C21.9646 6.9447 22.3641 7.40111 22.6309 7.93472C22.8977 8.46832 23.0229 9.06141 22.9961 9.65738C22.9693 10.2533 22.7911 10.8326 22.4775 11.34C22.1639 11.8475 21.7252 12.2663 21.2041 12.5568C20.683 12.8473 20.0966 13.0002 19.5 13.0002H2C1.44772 13.0002 1 12.5524 1 12.0002C1 11.4479 1.44772 11.0002 2 11.0002H19.5C19.7556 11.0002 20.0072 10.9352 20.2305 10.8107C20.4537 10.6862 20.642 10.5066 20.7764 10.2892C20.9108 10.0717 20.9866 9.82296 20.998 9.56754C21.0095 9.31212 20.9561 9.05794 20.8418 8.82926C20.7274 8.60056 20.556 8.40496 20.3447 8.2609C20.1336 8.11696 19.8893 8.02897 19.6348 8.00601C19.3802 7.98306 19.1242 8.02617 18.8906 8.13004C18.6571 8.23396 18.4532 8.39529 18.2998 8.59976C17.9685 9.04154 17.3422 9.13119 16.9004 8.79996C16.4586 8.46863 16.369 7.84236 16.7002 7.40055C17.0581 6.92329 17.5321 6.54544 18.0771 6.30289C18.6222 6.06034 19.2203 5.96025 19.8145 6.01383Z" fill="black"/>
<path d="M10.4912 3.04322C10.9597 2.96263 11.4408 2.99523 11.8945 3.13697C12.3482 3.27871 12.7623 3.52575 13.1016 3.85865C13.4408 4.19155 13.6954 4.6011 13.8457 5.05201C13.9959 5.50279 14.0374 5.98267 13.9658 6.4524C13.8941 6.92228 13.7115 7.36855 13.4336 7.75416C13.1556 8.13978 12.7903 8.45454 12.3672 8.67115C11.9441 8.88773 11.4753 9.00025 11 9.00025H2C1.44772 9.00025 1 8.55254 1 8.00025C1 7.44797 1.44772 7.00025 2 7.00025H11C11.1585 7.00025 11.315 6.96308 11.4561 6.89088C11.597 6.81868 11.7189 6.71371 11.8115 6.58521C11.9042 6.45667 11.9644 6.30728 11.9883 6.15064C12.0121 5.99412 11.9983 5.83405 11.9482 5.68384C11.8981 5.53364 11.8132 5.39728 11.7002 5.28638C11.5871 5.17547 11.449 5.09338 11.2979 5.04615C11.1467 4.99895 10.9862 4.98804 10.8301 5.0149C10.6741 5.04179 10.527 5.10552 10.4004 5.20045C9.95856 5.53182 9.33137 5.44208 9 5.00025C8.66863 4.55842 8.75837 3.93123 9.2002 3.59986C9.58039 3.31479 10.0229 3.1238 10.4912 3.04322Z" fill="black"/>
</svg>
