<svg width="24" height="24" viewBox="0 0 24 24" fill="none" xmlns="http://www.w3.org/2000/svg">
<path d="M9 10V2C9 1.44772 9.44771 1 10 1C10.5523 1 11 1.44772 11 2V10C11 10.5523 10.5523 11 10 11C9.44771 11 9 10.5523 9 10Z" fill="black"/>
<path d="M14 17C14.4753 17 14.9441 17.1125 15.3672 17.3291C15.7903 17.5457 16.1556 17.8605 16.4336 18.2461C16.7115 18.6317 16.8941 19.078 16.9658 19.5479C17.0374 20.0176 16.9959 20.4975 16.8457 20.9482C16.6954 21.3992 16.4408 21.8087 16.1016 22.1416C15.7623 22.4745 15.3482 22.7215 14.8945 22.8633C14.4408 23.005 13.9597 23.0376 13.4912 22.957C13.0229 22.8765 12.5804 22.6855 12.2002 22.4004C11.7584 22.069 11.6686 21.4418 12 21C12.3314 20.5582 12.9586 20.4684 13.4004 20.7998C13.527 20.8947 13.6741 20.9585 13.8301 20.9854C13.9862 21.0122 14.1467 21.0013 14.2979 20.9541C14.449 20.9069 14.5871 20.8248 14.7002 20.7139C14.8132 20.603 14.8981 20.4666 14.9482 20.3164C14.9983 20.1662 15.0121 20.0061 14.9883 19.8496C14.9644 19.693 14.9042 19.5436 14.8115 19.415C14.7189 19.2865 14.597 19.1816 14.4561 19.1094C14.315 19.0372 14.1585 19 14 19H2C1.44772 19 1 18.5523 1 18C1 17.4477 1.44772 17 2 17H14Z" fill="black"/>
<path d="M19.8145 8.01367C20.4085 8.06725 20.9789 8.27237 21.4717 8.6084C21.9646 8.94454 22.3641 9.40096 22.6309 9.93457C22.8977 10.4682 23.0229 11.0613 22.9961 11.6572C22.9693 12.2531 22.7911 12.8324 22.4775 13.3398C22.1639 13.8473 21.7252 14.2661 21.2041 14.5566C20.683 14.8471 20.0966 15 19.5 15H2C1.44772 15 1 14.5523 1 14C1 13.4477 1.44772 13 2 13H19.5C19.7556 13 20.0072 12.935 20.2305 12.8105C20.4537 12.6861 20.642 12.5065 20.7764 12.2891C20.9108 12.0716 20.9866 11.8228 20.998 11.5674C21.0095 11.312 20.9561 11.0578 20.8418 10.8291C20.7274 10.6004 20.556 10.4048 20.3447 10.2607C20.1336 10.1168 19.8893 10.0288 19.6348 10.0059C19.3802 9.98291 19.1242 10.026 18.8906 10.1299C18.6571 10.2338 18.4532 10.3951 18.2998 10.5996C17.9685 11.0414 17.3422 11.131 16.9004 10.7998C16.4586 10.4685 16.369 9.84221 16.7002 9.40039C17.0581 8.92313 17.5321 8.54529 18.0771 8.30273C18.6222 8.06018 19.2203 7.96009 19.8145 8.01367Z" fill="black"/>
<path d="M13.293 5.29297C13.6835 4.90244 14.3165 4.90244 14.707 5.29297C15.0976 5.68349 15.0976 6.31651 14.707 6.70703L10.707 10.707C10.3165 11.0976 9.68349 11.0976 9.29297 10.707L5.29297 6.70703C4.90244 6.31651 4.90244 5.68349 5.29297 5.29297C5.68349 4.90244 6.31651 4.90244 6.70703 5.29297L10 8.58594L13.293 5.29297Z" fill="black"/>
</svg>
