<svg width="24" height="24" viewBox="0 0 24 24" fill="none" xmlns="http://www.w3.org/2000/svg">
<path d="M13.9438 1.30407C15.2149 0.914091 16.5711 0.894016 17.853 1.24645L17.8521 1.24743C19.1612 1.60614 19.2776 3.13566 18.5151 3.90075L18.5142 3.9027L15.4136 6.99938L16.9995 8.58532L20.0991 5.48767C20.8651 4.72053 22.395 4.8426 22.7534 6.14782L22.8149 6.38903C23.1018 7.59904 23.0614 8.86529 22.6958 10.057C22.3058 11.328 21.562 12.4619 20.5513 13.3256C19.5404 14.1893 18.3042 14.747 16.9878 14.934C15.9051 15.0877 14.8054 14.9842 13.7749 14.6381L6.32666 22.0873C5.74128 22.6724 4.94731 23.0015 4.11963 23.0013C3.29201 23.0011 2.49869 22.6716 1.91357 22.0863C1.32838 21.5009 0.999374 20.707 0.999512 19.8793C0.999745 19.0518 1.32849 18.2583 1.91357 17.6732L9.36182 10.224C9.01603 9.19396 8.91323 8.09421 9.06689 7.01208C9.25384 5.69592 9.81178 4.4603 10.6753 3.44958C11.539 2.43877 12.6728 1.69408 13.9438 1.30407ZM16.5571 3.02966C15.8786 2.95318 15.1888 3.01429 14.5308 3.21618C13.6228 3.49475 12.8127 4.02638 12.1958 4.74841C11.579 5.47036 11.1809 6.35318 11.0474 7.29333C10.9138 8.23361 11.0503 9.19274 11.4419 10.058C11.6135 10.4372 11.5321 10.8828 11.2378 11.1771L3.32764 19.0873C3.11745 19.2975 2.99956 19.583 2.99951 19.8802C2.99954 20.1773 3.11767 20.4621 3.32764 20.6722C3.53782 20.8825 3.82331 21.0013 4.12061 21.0013C4.41763 21.0013 4.70245 20.8831 4.9126 20.6732L12.8228 12.7631L12.9399 12.6625C13.2275 12.4523 13.6102 12.409 13.9419 12.559C14.8071 12.9505 15.7663 13.088 16.7065 12.9545C17.6468 12.8209 18.5295 12.4219 19.2515 11.805C19.9735 11.1881 20.5051 10.378 20.7837 9.47009C20.9855 8.81225 21.0456 8.123 20.9692 7.4447L18.3999 10.014C18.026 10.3805 17.523 10.5863 16.9995 10.5863C16.4762 10.5862 15.9738 10.3804 15.6001 10.014L13.9927 8.40759L13.9858 8.39978C13.6196 8.02599 13.4146 7.5237 13.4146 7.00036C13.4146 6.47686 13.6194 5.97383 13.9858 5.59997L16.5571 3.02966Z" fill="black"/>
</svg>
