<svg width="24" height="24" viewBox="0 0 24 24" fill="none" xmlns="http://www.w3.org/2000/svg">
<path fill-rule="evenodd" clip-rule="evenodd" d="M19.4472 11.1054C19.9412 11.3524 20.1414 11.9531 19.8944 12.447L18.3944 15.447C18.1474 15.941 17.5468 16.1412 17.0528 15.8943C16.5588 15.6473 16.3586 15.0466 16.6056 14.5526L18.1056 11.5526C18.3526 11.0586 18.9532 10.8584 19.4472 11.1054Z" fill="black"/>
<path fill-rule="evenodd" clip-rule="evenodd" d="M18.7363 18.3612C18.9842 17.8676 19.5852 17.6684 20.0787 17.9162L22.4487 19.1062C22.9423 19.3541 23.1415 19.9551 22.8937 20.4486C22.6459 20.9422 22.0449 21.1414 21.5513 20.8936L19.1813 19.7036C18.6877 19.4558 18.4885 18.8547 18.7363 18.3612Z" fill="black"/>
<path fill-rule="evenodd" clip-rule="evenodd" d="M3.43532 3.03662C4.76758 2.24099 6.31016 1.86871 7.85882 1.96921C9.41104 2.06993 10.8958 2.64083 12.1156 3.60597C13.3355 4.5711 14.2326 5.88474 14.6877 7.37217C15.1423 8.85808 15.1342 10.4471 14.6646 11.9282L14.0273 13.9995C13.9837 14.1471 13.986 14.3044 14.0339 14.4507C14.0821 14.598 14.1741 14.727 14.2977 14.8205C14.4212 14.914 14.5704 14.9675 14.7252 14.9738C14.8793 14.9801 15.0317 14.9393 15.162 14.857L15.1638 14.8559L15.576 14.5909L15.5779 14.5897C15.964 14.3396 16.3956 14.168 16.848 14.0844C17.3011 14.0008 17.7663 14.0072 18.2169 14.1033C18.6676 14.1994 19.0949 14.3833 19.4745 14.6445C19.854 14.9058 20.1784 15.2392 20.4291 15.6258C20.6798 16.0125 20.8519 16.4447 20.9356 16.8978C21.0193 17.3509 21.0129 17.8161 20.9168 18.2668C20.8207 18.7174 20.6367 19.1447 20.3755 19.5243C20.1142 19.9039 19.7808 20.2283 19.3942 20.479L19.3921 20.4803L18.9745 20.7487C17.6378 21.6245 16.0631 22.0663 14.4658 22.0135C12.8668 21.9607 11.3233 21.415 10.0464 20.4511C8.76957 19.4872 7.82186 18.1522 7.33302 16.6288C6.84444 15.1063 6.83814 13.47 7.31495 11.9438L7.95131 9.87557C7.98705 9.74762 7.98452 9.61194 7.94398 9.48533C7.90279 9.35666 7.82419 9.24317 7.71823 9.15936C7.61226 9.07554 7.48373 9.02519 7.34903 9.01473C7.21799 9.00455 7.0869 9.03257 6.97158 9.09526L6.30644 9.49631C6.30427 9.49761 6.30209 9.49891 6.29992 9.5002L6.29667 9.50212C5.49249 9.97462 4.53354 10.1083 3.63078 9.87378C2.72802 9.63925 1.9554 9.0557 1.4829 8.25151C1.01039 7.44733 0.876701 6.48838 1.11123 5.58562C1.22736 5.13862 1.4304 4.71887 1.70875 4.35033C1.9871 3.9818 2.33531 3.6717 2.7335 3.43774C2.73697 3.4357 2.74045 3.43368 2.74395 3.43168L3.43532 3.03662ZM7.72931 3.96501C6.58238 3.89058 5.43996 4.16709 4.45401 4.75777C4.44812 4.76129 4.44219 4.76476 4.43623 4.76817L3.74213 5.1648C3.57228 5.26539 3.42368 5.39818 3.30469 5.55573C3.18463 5.71468 3.09706 5.89572 3.04698 6.08852C2.94582 6.47788 3.00348 6.89149 3.20728 7.23834C3.41107 7.58519 3.74431 7.83688 4.13368 7.93804C4.52144 8.03878 4.93325 7.98201 5.27922 7.78024L5.95374 7.37355C5.96184 7.36866 5.97002 7.36389 5.97825 7.35924C6.44188 7.09734 6.97301 6.9795 7.50389 7.02073C8.03478 7.06196 8.54134 7.26041 8.95897 7.59074C9.3766 7.92108 9.68636 8.36834 9.84873 8.87546C10.0111 9.38258 10.0187 9.92658 9.87063 10.438C9.86909 10.4434 9.8675 10.4487 9.86587 10.454L9.22587 12.534L9.2245 12.5384C8.87003 13.6718 8.87453 14.887 9.23737 16.0177C9.60022 17.1485 10.3037 18.1394 11.2514 18.8549C12.1992 19.5704 13.3449 19.9754 14.5318 20.0146C15.7187 20.0538 16.8886 19.7252 17.8815 19.0738C17.8841 19.0721 17.8867 19.0704 17.8893 19.0687L18.306 18.8009L18.3074 18.8C18.4731 18.6923 18.616 18.5531 18.728 18.3904C18.8403 18.2272 18.9194 18.0434 18.9607 17.8496C19.0021 17.6558 19.0048 17.4558 18.9688 17.261C18.9329 17.0661 18.8589 16.8803 18.7511 16.714C18.6432 16.5478 18.5038 16.4044 18.3405 16.292C18.1773 16.1797 17.9936 16.1006 17.7998 16.0593C17.606 16.0179 17.406 16.0152 17.2111 16.0512C17.0163 16.0872 16.8304 16.1612 16.6642 16.269L16.6608 16.2711L16.2408 16.5411L16.2364 16.544C15.7615 16.8457 15.2057 16.9951 14.6435 16.9721C14.0813 16.9491 13.5396 16.7549 13.0909 16.4154C12.6422 16.0759 12.308 15.6073 12.133 15.0726C11.9581 14.5378 11.9508 13.9623 12.112 13.4233C12.1128 13.4208 12.1135 13.4183 12.1143 13.4158L12.7543 11.3358C12.7552 11.3329 12.7561 11.33 12.757 11.3271C13.1051 10.2317 13.1114 9.05634 12.7752 7.95727C12.4389 6.85821 11.776 5.88756 10.8747 5.17442C9.97335 4.46127 8.87625 4.03944 7.72931 3.96501Z" fill="black"/>
</svg>
