<svg width="24" height="24" viewBox="0 0 24 24" fill="none" xmlns="http://www.w3.org/2000/svg">
<path d="M11 10C11 9.44771 11.4477 9 12 9C12.5523 9 13 9.44771 13 10V11.6445L14.1299 12.3516C14.5982 12.6443 14.741 13.2621 14.4482 13.7305C14.1555 14.1986 13.5386 14.3404 13.0703 14.0479L11.4697 13.0479C11.1776 12.8651 11.0001 12.5448 11 12.2002V10Z" fill="black"/>
<path d="M13.3199 0.999512V1.00146C14.0171 0.99254 14.6963 1.22508 15.2398 1.6626C15.7877 2.10377 16.163 2.72368 16.3003 3.41357L17.1109 7.46338C17.2192 8.00494 16.8673 8.53182 16.3257 8.64014C15.7843 8.74831 15.2573 8.39744 15.149 7.85596L14.3394 3.80615C14.2937 3.57595 14.1677 3.36738 13.9849 3.22021C13.8023 3.07332 13.5738 2.9951 13.3394 2.99951H10.6207C10.386 2.99504 10.157 3.07307 9.97418 3.22021C9.79139 3.36738 9.66638 3.575 9.62066 3.80518L8.84234 7.84912C8.73788 8.39142 8.21277 8.74653 7.67047 8.64209C7.12847 8.53755 6.77338 8.01324 6.8775 7.47119L7.65777 3.42041L7.65875 3.41553C7.79591 2.72496 8.17185 2.1041 8.72027 1.6626C9.26383 1.22504 9.94285 0.992484 10.6402 1.00146V0.999512H13.3199Z" fill="black"/>
<path d="M15.2296 16.1136C15.338 15.5722 15.8648 15.2211 16.4063 15.3294C16.9477 15.4379 17.2988 15.9647 17.1905 16.5062L16.3809 20.556C16.2436 21.2461 15.8675 21.8657 15.3194 22.307C14.7758 22.7446 14.0969 22.9781 13.3995 22.9691L10.6798 22.9701C9.98266 22.9789 9.30424 22.7444 8.76083 22.307C8.21271 21.8657 7.83668 21.2461 7.69931 20.556L6.8995 16.556C6.7912 16.0145 7.14221 15.4876 7.68368 15.3792C8.22511 15.2709 8.75196 15.6221 8.86044 16.1634L9.66024 20.1634L9.66122 20.1654C9.707 20.3954 9.83201 20.6023 10.0147 20.7494C10.1975 20.8964 10.4266 20.9746 10.6612 20.9701H13.419C13.6537 20.9746 13.8827 20.8965 14.0655 20.7494C14.2482 20.6022 14.3733 20.3954 14.419 20.1654V20.1634L15.2296 16.1136Z" fill="black"/>
<path d="M17 12C17 9.23858 14.7614 7 12 7C9.23858 7 7 9.23858 7 12C7 14.7614 9.23858 17 12 17C14.7614 17 17 14.7614 17 12ZM19 12C19 15.866 15.866 19 12 19C8.13401 19 5 15.866 5 12C5 8.13401 8.13401 5 12 5C15.866 5 19 8.13401 19 12Z" fill="black"/>
</svg>
