<svg width="24" height="24" viewBox="0 0 24 24" fill="none" xmlns="http://www.w3.org/2000/svg">
<path fill-rule="evenodd" clip-rule="evenodd" d="M12.3739 4.37466L11.6503 6.64328C11.4825 7.16944 11.773 7.73204 12.2991 7.89987C12.8253 8.0677 13.3879 7.77722 13.5557 7.25105L14.9327 2.93405C14.9368 2.92124 14.9406 2.90834 14.9442 2.89537C15.0344 2.56732 15.0105 2.21833 14.8762 1.9057C14.742 1.59306 14.5054 1.33536 14.2054 1.17488C13.9054 1.01441 13.5597 0.960699 13.2251 1.02257C12.9023 1.08227 12.6084 1.24613 12.388 1.48855L9.79543 4.15969C9.41078 4.556 9.42022 5.18909 9.81653 5.57375C10.2128 5.9584 10.8459 5.94895 11.2306 5.55264L12.3739 4.37466Z" fill="black"/>
<path fill-rule="evenodd" clip-rule="evenodd" d="M19.9986 9.00014C20.3764 8.99923 20.7467 9.10534 21.0667 9.30619C21.3873 9.5074 21.6441 9.79543 21.8075 10.1368C21.9709 10.4782 22.034 10.859 21.9896 11.2348C21.9452 11.6107 21.795 11.9662 21.5566 12.2601C21.538 12.2831 21.5184 12.3052 21.4978 12.3264L19.7778 14.0994C19.3932 14.4958 18.7601 14.5054 18.3637 14.1209C17.9673 13.7363 17.9577 13.1032 18.3423 12.7068L19.9979 11.0001H15.656C15.1037 11.0001 14.656 10.5524 14.656 10.0001C14.656 9.44786 15.1037 9.00014 15.656 9.00014H19.9986Z" fill="black"/>
<path fill-rule="evenodd" clip-rule="evenodd" d="M8.42349 7.00963C8.81978 7.39431 8.82919 8.0274 8.44451 8.42369L4.00208 13.0002H10.9985C11.3214 12.9994 11.6397 13.0768 11.9262 13.2259C12.2132 13.3751 12.4597 13.5918 12.6445 13.8573C12.8294 14.1228 12.9471 14.4292 12.9875 14.7502C13.0268 15.0617 12.9921 15.3779 12.8865 15.6733L11.626 19.6256L15.5554 15.5767C15.94 15.1804 16.5731 15.1709 16.9694 15.5556C17.3657 15.9402 17.3752 16.5733 16.9906 16.9696L11.612 22.5118C11.3916 22.7542 11.0976 22.9181 10.7748 22.9778C10.4403 23.0396 10.0946 22.9859 9.79459 22.8255C9.49457 22.665 9.25802 22.4073 9.12378 22.0946C8.98952 21.782 8.96555 21.433 9.05578 21.105C9.05935 21.092 9.06317 21.0791 9.06726 21.0663L10.9873 15.0463C10.9922 15.0308 10.9975 15.0154 11.0032 15.0002L11 15.0002H4.00126C3.62353 15.0011 3.25325 14.895 2.93329 14.6941C2.61273 14.4929 2.35585 14.2049 2.19248 13.8635C2.02911 13.5221 1.96597 13.1413 2.01038 12.7655C2.05479 12.3896 2.20494 12.0341 2.44338 11.7402C2.46207 11.7171 2.48177 11.6949 2.50244 11.6736L7.00944 7.03065C7.39411 6.63436 8.02721 6.62495 8.42349 7.00963Z" fill="black"/>
<path fill-rule="evenodd" clip-rule="evenodd" d="M1.29289 1.29303C1.68342 0.902506 2.31658 0.902506 2.70711 1.29303L22.7071 21.293C23.0976 21.6836 23.0976 22.3167 22.7071 22.7072C22.3166 23.0978 21.6834 23.0978 21.2929 22.7072L1.29289 2.70724C0.902369 2.31672 0.902369 1.68355 1.29289 1.29303Z" fill="black"/>
</svg>
