<svg width="24" height="24" viewBox="0 0 24 24" fill="none" xmlns="http://www.w3.org/2000/svg">
<path fill-rule="evenodd" clip-rule="evenodd" d="M12.374 4.37455L4.00209 13.0002H10.9985C11.3214 12.9994 11.6397 13.0768 11.9262 13.2259C12.2132 13.3751 12.4597 13.5918 12.6446 13.8573C12.8294 14.1228 12.9471 14.4292 12.9876 14.7502C13.0268 15.0617 12.9921 15.3779 12.8866 15.6733L11.626 19.6258L19.9979 11.0002H13.0015C12.6786 11.0009 12.3603 10.9235 12.0738 10.7745C11.7868 10.6252 11.5403 10.4085 11.3554 10.143C11.1706 9.87752 11.0529 9.57115 11.0124 9.25017C10.9732 8.93867 11.0078 8.62244 11.1134 8.32704L12.374 4.37455ZM13.2251 1.02257C13.5597 0.960699 13.9054 1.01441 14.2054 1.17488C14.5054 1.33536 14.7419 1.59306 14.8762 1.9057C15.0104 2.21833 15.0344 2.56732 14.9442 2.89537C14.9406 2.90833 14.9368 2.92122 14.9327 2.93402L13.0127 8.95402C13.0078 8.96953 13.0024 8.98492 12.9967 9.00017C12.9978 9.00017 12.9989 9.00016 13 9.00016H19.9987C20.3764 8.99928 20.7467 9.10538 21.0667 9.30621C21.3872 9.50742 21.6441 9.79546 21.8075 10.1369C21.9709 10.4783 22.034 10.859 21.9896 11.2349C21.9452 11.6107 21.795 11.9663 21.5566 12.2602C21.5379 12.2832 21.5182 12.3054 21.4976 12.3266L11.612 22.5118C11.3916 22.7542 11.0976 22.9181 10.7749 22.9778C10.4403 23.0396 10.0946 22.9859 9.79461 22.8254C9.49459 22.665 9.25804 22.4073 9.12379 22.0946C8.98954 21.782 8.96557 21.433 9.0558 21.105C9.05937 21.092 9.06319 21.0791 9.06728 21.0663L10.9873 15.0463C10.9922 15.0308 10.9975 15.0154 11.0032 15.0002C11.0022 15.0002 11.0011 15.0002 11 15.0002H4.00128C3.62355 15.0011 3.25327 14.8949 2.93331 14.6941C2.61275 14.4929 2.35587 14.2049 2.1925 13.8635C2.02913 13.5221 1.96599 13.1413 2.0104 12.7655C2.05481 12.3896 2.20496 12.0341 2.4434 11.7402C2.46208 11.7171 2.48177 11.695 2.50241 11.6737L12.388 1.48856C12.6084 1.24613 12.9023 1.08227 13.2251 1.02257Z" fill="black"/>
</svg>
