<svg width="190" height="40" viewBox="0 0 190 40" fill="none" xmlns="http://www.w3.org/2000/svg">
<g clip-path="url(#clip0_602_1116)">
<path d="M53.0306 8.87675C52.9994 7.38786 53.4469 5.92673 54.3106 4.69788C55.1705 3.50107 56.3448 2.55128 57.7106 1.94787C59.1255 1.31144 60.6663 0.984851 62.2248 0.991102C63.2564 0.994804 64.2852 1.0965 65.2965 1.29475C66.3022 1.46696 67.2622 1.83358 68.1201 2.37298C68.4922 2.58903 68.7996 2.89638 69.0116 3.26433C69.2236 3.63227 69.3328 4.04795 69.3283 4.46986C69.3446 5.19541 69.0757 5.89962 68.5765 6.43841C68.3385 6.70133 68.0441 6.91022 67.7142 7.05038C67.3843 7.19055 67.0269 7.25857 66.6671 7.24966C66.3713 7.25476 66.0766 7.21376 65.7942 7.1282L64.7353 6.7581C63.8922 6.45824 63.0034 6.29827 62.1059 6.28487C61.4083 6.28094 60.723 6.46366 60.1248 6.8131C59.849 6.96012 59.62 7.17807 59.4628 7.44317C59.3055 7.70827 59.226 8.01034 59.233 8.31643C59.233 9.32362 60.0153 10.0352 61.5859 10.4213L63.1412 10.8281C65.2411 11.3134 67.2202 12.2024 68.9624 13.4429C69.6822 14.018 70.2521 14.7508 70.6255 15.5814C70.9989 16.4121 71.1651 17.317 71.1106 18.2222C71.2383 20.4302 70.4629 22.5977 68.9542 24.2504C68.0696 25.1768 66.9526 25.8628 65.713 26.2407C64.4041 26.6691 63.0315 26.884 61.6506 26.8767C59.3619 26.9364 57.0889 26.4918 55.0012 25.5762C54.3844 25.2986 53.8476 24.8766 53.4389 24.3478C53.0449 23.8377 52.8359 23.2146 52.8448 22.5764C52.85 21.9197 53.1171 21.2907 53.5895 20.8221C53.8085 20.5781 54.078 20.3819 54.3803 20.2465C54.6826 20.111 55.0108 20.0393 55.3436 20.036C55.8521 20.0249 56.3576 20.1145 56.8295 20.2996L58.84 21.0283C59.7409 21.3885 60.7039 21.5783 61.6777 21.5875C62.4705 21.6014 63.2465 21.3646 63.8895 20.9126C64.2011 20.7074 64.4542 20.4285 64.625 20.102C64.7958 19.7756 64.8787 19.4122 64.8659 19.046C64.8872 18.6912 64.8112 18.3372 64.6458 18.0203C64.4805 17.7034 64.2316 17.435 63.9248 17.2425C63.4504 16.9422 62.9404 16.699 62.4059 16.5183C61.9142 16.3656 61.0655 16.1123 59.8601 15.7586C58.5717 15.419 57.3212 14.9553 56.1271 14.3745C55.1968 13.9079 54.4162 13.2011 53.8706 12.3314C53.2622 11.2825 52.9679 10.0884 53.0212 8.88477L53.0306 8.87675ZM80.9683 18.15H85.3683C86.5734 18.2241 87.7797 18.0247 88.8921 17.5673C90.0046 17.11 90.9928 16.4073 91.7789 15.5146C93.1266 13.8574 93.8162 11.7828 93.7212 9.67081C93.7216 8.92658 93.6126 8.18613 93.3977 7.47195C93.1864 6.73702 92.875 6.03295 92.4718 5.37851C92.0822 4.74118 91.6075 4.15704 91.0601 3.64142C89.2741 2.15077 86.955 1.40926 84.6095 1.57892H78.6895C78.2148 1.55098 77.7393 1.61788 77.2922 1.77552C76.8451 1.93316 76.4358 2.1782 76.0895 2.49558C75.7691 2.83361 75.522 3.23105 75.3629 3.66417C75.2039 4.09729 75.1361 4.5572 75.1636 5.01642V23.4644C75.1381 24.2783 75.4179 25.0734 75.9506 25.7011C76.2142 25.9988 76.5435 26.2345 76.9139 26.3907C77.2843 26.5469 77.6862 26.6194 78.0895 26.6028C78.4899 26.6215 78.8893 26.5498 79.2567 26.3934C79.624 26.2369 79.9492 26 80.2071 25.7011C80.728 25.0671 80.9989 24.2725 80.9706 23.461V18.1534L80.9683 18.15ZM80.9683 13.2286V6.55185H84.2295C85.1364 6.51544 86.0229 6.81982 86.7059 7.40206C87.0336 7.69856 87.2964 8.05656 87.4783 8.45453C87.6603 8.8525 87.7577 9.2822 87.7648 9.71779C87.7897 10.1785 87.7187 10.6393 87.5559 11.0725C87.3932 11.5058 87.1421 11.9024 86.8177 12.2386C86.4284 12.5843 85.9716 12.8501 85.4746 13.0202C84.9776 13.1903 84.4505 13.2612 83.9248 13.2286H80.9683ZM110.399 21.5428L111.192 24.2779C111.368 24.8834 111.685 25.4413 112.118 25.9085C112.297 26.1225 112.522 26.2962 112.778 26.4177C113.033 26.5391 113.312 26.6054 113.595 26.612C114.377 26.6261 115.146 26.4239 115.814 26.0288C116.118 25.853 116.374 25.6102 116.563 25.32C116.753 25.0298 116.869 24.7003 116.904 24.3581C116.926 23.7557 116.847 23.1536 116.668 22.5764L109.84 4.29111C109.523 3.38458 108.944 2.58623 108.173 1.99142C107.42 1.4277 106.497 1.12207 105.548 1.12207C104.598 1.12207 103.675 1.4277 102.922 1.99142C102.158 2.59244 101.582 3.39098 101.261 4.29569L94.4295 22.5787C94.2486 23.1554 94.169 23.7578 94.1942 24.3604C94.2394 24.7035 94.3634 25.0321 94.5569 25.3221C94.7504 25.6121 95.0084 25.856 95.3118 26.0356C95.9666 26.428 96.7232 26.6288 97.4918 26.6143C98.6906 26.6143 99.5495 25.6426 100.08 23.6844L100.693 21.5428H110.399ZM108.66 16.4817H102.514L105.585 7.09612L108.66 16.4817ZM118.939 13.192C118.939 17.8043 120.227 21.303 122.802 23.6878C123.919 24.7242 125.239 25.5289 126.685 26.0528C128.15 26.597 129.705 26.8751 131.273 26.8733C133.426 26.963 135.563 26.4751 137.451 25.4627C137.969 25.2301 138.411 24.8619 138.728 24.399C139.044 23.9361 139.222 23.3968 139.242 22.8411C139.257 22.1579 139.017 21.4927 138.568 20.9676C138.348 20.7058 138.067 20.4979 137.749 20.3602C137.432 20.2226 137.085 20.159 136.738 20.1747C136.345 20.1948 135.959 20.2849 135.599 20.4405L133.886 21.2128C132.775 21.5913 131.581 21.6815 130.423 21.4743C129.266 21.2672 128.183 20.7699 127.282 20.0315C125.837 18.7199 125.114 16.6509 125.114 13.8245C125.09 12.5153 125.325 11.2139 125.807 9.99165C126.242 8.90662 126.992 7.96825 127.965 7.29091C129.037 6.5888 130.311 6.23834 131.601 6.29059C132.618 6.31539 133.62 6.5297 134.554 6.92195C135.242 7.21357 135.972 7.39839 136.718 7.46966C137.04 7.48721 137.363 7.42757 137.656 7.29595C137.95 7.16433 138.206 6.96473 138.402 6.71455C138.805 6.1587 139.008 5.48969 138.982 4.81017C138.983 4.36371 138.865 3.92469 138.641 3.53524C138.417 3.14579 138.094 2.81896 137.702 2.58611C136.795 1.99295 135.779 1.57517 134.709 1.35548C133.644 1.1255 132.558 1.00339 131.467 0.991102C129.749 0.977652 128.045 1.28372 126.445 1.89287C124.946 2.46569 123.586 3.33638 122.452 4.44945C121.317 5.56251 120.433 6.89354 119.857 8.35768C119.241 9.8988 118.933 11.5397 118.947 13.1931L118.939 13.192ZM148.549 6.65497H154.549C155.298 6.67854 156.029 6.43393 156.605 5.96747C156.877 5.74692 157.092 5.46812 157.235 5.15286C157.378 4.8376 157.444 4.49442 157.428 4.15017C157.447 3.7975 157.385 3.44517 157.245 3.11927C157.105 2.79338 156.892 2.50228 156.621 2.26756C156.036 1.80203 155.296 1.56187 154.541 1.59267H146.282C145.808 1.56538 145.332 1.63259 144.885 1.79019C144.438 1.94779 144.028 2.19248 143.681 2.50933C143.361 2.84761 143.114 3.2451 142.955 3.67816C142.796 4.11121 142.728 4.571 142.755 5.03017V22.8101C142.728 23.2716 142.795 23.7338 142.955 24.1693C143.114 24.6049 143.361 25.0049 143.681 25.3459C144.029 25.6608 144.439 25.9032 144.886 26.0583C145.334 26.2133 145.809 26.2778 146.282 26.2476H154.557C155.305 26.2759 156.038 26.0357 156.617 25.5727C156.889 25.3495 157.106 25.068 157.249 24.75C157.391 24.4319 157.457 24.0861 157.44 23.7394C157.46 23.3876 157.398 23.0361 157.258 22.7112C157.118 22.3863 156.904 22.0965 156.633 21.8637C156.049 21.403 155.314 21.1633 154.564 21.1888H148.564V16.4186H153.987C154.729 16.4416 155.455 16.2018 156.029 15.7437C156.308 15.5233 156.529 15.243 156.677 14.9248C156.825 14.6066 156.895 14.2594 156.881 13.9104C156.899 13.5558 156.832 13.202 156.687 12.8763C156.542 12.5507 156.322 12.2619 156.044 12.0324C155.463 11.5754 154.734 11.336 153.988 11.3575H148.565V6.65841L148.549 6.65497Z" fill="#1A1818"/>
<path d="M187.011 7.02163L187.759 6.29632C188.034 6.04134 188.253 5.73537 188.405 5.39644C188.556 5.05752 188.637 4.69248 188.641 4.32283C188.646 3.95319 188.574 3.58641 188.431 3.2441C188.287 2.9018 188.075 2.59088 187.807 2.32968C187.538 2.06847 187.219 1.86226 186.867 1.72318C186.515 1.5841 186.139 1.51497 185.759 1.51985C185.38 1.52474 185.005 1.60355 184.657 1.75164C184.309 1.89973 183.995 2.11411 183.734 2.38214L182.986 3.11891C180.443 1.53724 177.423 0.848196 174.424 1.16575C171.425 1.48331 168.627 2.78844 166.493 4.86527C164.359 6.9421 163.017 9.66618 162.688 12.5869C162.36 15.5077 163.065 18.4501 164.687 20.9275L163.939 21.6631C163.406 22.1819 163.107 22.8855 163.107 23.6191C163.107 23.9823 163.18 24.342 163.323 24.6776C163.466 25.0132 163.675 25.3182 163.939 25.575C164.203 25.8319 164.516 26.0356 164.86 26.1746C165.205 26.3136 165.574 26.3852 165.947 26.3852C166.7 26.3852 167.423 26.0938 167.955 25.575L168.702 24.8463C171.246 26.4339 174.271 27.127 177.275 26.8107C180.279 26.4945 183.082 25.1878 185.219 23.1073C187.356 21.0268 188.698 18.2975 189.024 15.3719C189.35 12.4463 188.64 9.50004 187.011 7.02163ZM170.453 8.71862C171.532 7.66877 172.908 6.95746 174.406 6.67626C175.903 6.39506 177.453 6.55685 178.855 7.1408L168.832 16.9033C168.231 15.5372 168.065 14.0272 168.354 12.568C168.642 11.1089 169.373 9.76734 170.452 8.71632L170.453 8.71862ZM181.241 19.2362C180.162 20.2861 178.786 20.9974 177.288 21.2786C175.791 21.5598 174.241 21.398 172.839 20.8141L182.862 11.055C183.461 12.4202 183.627 13.9288 183.338 15.3866C183.05 16.8444 182.32 18.1847 181.242 19.2351L181.241 19.2362Z" fill="#EC1E27"/>
<path d="M55.2695 32.4008H52.9577V31.1873H59.1095V32.4008H56.7565V39.1257H55.2706L55.2695 32.4008Z" fill="#1A1818"/>
<path d="M69.5624 35.6022H66.4907V37.9351H69.926V39.1234H65.0036V31.1873H69.7436V32.3767H66.5024V34.4266H69.5742L69.5624 35.6022Z" fill="#1A1818"/>
<path d="M82.0189 38.8896C81.3502 39.1488 80.6333 39.2686 79.9142 39.2414C79.3609 39.2871 78.804 39.2158 78.2818 39.0322C77.7595 38.8486 77.2842 38.5571 76.8885 38.1778C76.4927 37.7984 76.1859 37.3402 75.9891 36.8345C75.7923 36.3288 75.7102 35.7877 75.7483 35.2482C75.7173 34.6856 75.8091 34.1231 76.0176 33.5976C76.226 33.0721 76.5465 32.5956 76.9577 32.1995C77.369 31.8033 77.8618 31.4966 78.4036 31.2994C78.9455 31.1022 79.524 31.0191 80.1012 31.0556C80.7801 31.0327 81.4561 31.1535 82.0824 31.4096L81.7553 32.5623C81.251 32.3528 80.7072 32.2482 80.1589 32.2552C79.7648 32.2335 79.3706 32.2956 79.0037 32.4373C78.6368 32.579 78.3061 32.7969 78.0344 33.0757C77.7627 33.3546 77.5567 33.6878 77.4307 34.0521C77.3047 34.4164 77.2617 34.803 77.3048 35.1851C77.2652 35.5626 77.3106 35.9439 77.4381 36.3024C77.5655 36.6609 77.7717 36.988 78.0424 37.2608C78.3131 37.5336 78.6417 37.7455 79.0052 37.8818C79.3688 38.0181 79.7585 38.0754 80.1471 38.0497C80.7019 38.0567 81.2526 37.9562 81.7671 37.7541L82.0189 38.8896Z" fill="#1A1818"/>
<path d="M89.7224 31.1873V34.3659H93.1718V31.1873H94.6577V39.1245H93.1718V35.6263H89.7212V39.1245H88.2354V31.1873H89.7224Z" fill="#1A1818"/>
<path d="M101.309 39.1245V31.1873H102.994L105.099 34.5916C105.623 35.4468 106.087 36.3362 106.486 37.2534H106.508C106.409 36.1923 106.374 35.1679 106.374 33.9557V31.1873H107.761V39.1245H106.232L104.102 35.6389C103.562 34.7495 103.074 33.8314 102.639 32.8889L102.605 32.9026C102.665 33.9259 102.677 34.9766 102.677 36.2794V39.1222L101.309 39.1245Z" fill="#1A1818"/>
<path d="M121.659 35.0774C121.659 37.7381 120.005 39.2563 117.754 39.2563C115.458 39.2563 114.007 37.549 114.007 35.2161C113.956 34.6909 114.018 34.1612 114.188 33.6606C114.359 33.1599 114.635 32.6994 114.998 32.3083C115.362 31.9172 115.805 31.6042 116.299 31.3891C116.794 31.174 117.329 31.0616 117.871 31.059C118.399 31.0534 118.922 31.1562 119.407 31.3606C119.892 31.565 120.327 31.8666 120.685 32.2456C121.042 32.6246 121.313 33.0726 121.481 33.5605C121.649 34.0484 121.71 34.5653 121.659 35.0774ZM115.579 35.192C115.579 36.8065 116.412 38.0864 117.841 38.0864C119.271 38.0864 120.089 36.7905 120.089 35.1313C120.089 33.6348 119.327 32.2232 117.842 32.2232C116.358 32.2232 115.58 33.5523 115.58 35.1897L115.579 35.192Z" fill="#1A1818"/>
<path d="M127.889 31.1873H129.375V37.9122H132.725V39.1257H127.887L127.889 31.1873Z" fill="#1A1818"/>
<path d="M145.557 35.0774C145.557 37.7381 143.899 39.2563 141.649 39.2563C139.353 39.2563 137.902 37.549 137.902 35.2161C137.851 34.6905 137.913 34.1603 138.085 33.6594C138.256 33.1584 138.532 32.6977 138.896 32.3066C139.26 31.9154 139.704 31.6025 140.199 31.3877C140.694 31.1729 141.23 31.0609 141.772 31.059C142.3 31.0539 142.823 31.157 143.307 31.3617C143.792 31.5663 144.227 31.8679 144.583 32.2469C144.94 32.6258 145.212 33.0737 145.379 33.5614C145.547 34.049 145.607 34.5655 145.557 35.0774ZM139.473 35.192C139.473 36.8065 140.308 38.0864 141.734 38.0864C143.16 38.0864 143.984 36.7905 143.984 35.1313C143.984 33.6348 143.221 32.2232 141.734 32.2232C140.247 32.2232 139.479 33.55 139.479 35.192H139.473Z" fill="#1A1818"/>
<path d="M158.312 38.7579C157.469 39.0491 156.582 39.2013 155.687 39.2082C155.11 39.2444 154.53 39.1693 153.983 38.9872C153.435 38.8052 152.93 38.5197 152.495 38.1471C152.109 37.7611 151.809 37.3016 151.614 36.7975C151.418 36.2934 151.331 35.7555 151.359 35.2172C151.343 34.6461 151.451 34.0781 151.678 33.5509C151.904 33.0237 152.243 32.5494 152.671 32.1593C153.1 31.7693 153.609 31.4724 154.164 31.2885C154.72 31.1045 155.309 31.0376 155.893 31.0922C156.633 31.0721 157.369 31.2 158.057 31.4681L157.733 32.6425C157.149 32.3982 156.517 32.2808 155.881 32.2988C155.486 32.2643 155.089 32.3141 154.716 32.4446C154.343 32.5751 154.004 32.7833 153.722 33.0545C153.44 33.3258 153.222 33.6536 153.083 34.0153C152.944 34.3769 152.888 34.7636 152.919 35.1485C152.881 35.5248 152.928 35.9047 153.055 36.2619C153.182 36.6191 153.387 36.9453 153.656 37.2181C153.925 37.4909 154.251 37.7038 154.613 37.8422C154.974 37.9806 155.362 38.0412 155.749 38.0199C156.131 38.0399 156.513 37.9837 156.872 37.8549V35.8875H155.434V34.7417H158.307L158.312 38.7579Z" fill="#1A1818"/>
<path d="M166.273 31.1873V39.1245H164.798V31.1873H166.273Z" fill="#1A1818"/>
<path d="M177.481 35.6022H174.409V37.9351H177.842V39.1234H172.921V31.1873H177.661V32.3767H174.412V34.4266H177.484L177.481 35.6022Z" fill="#1A1818"/>
<path d="M184.061 37.5458C184.665 37.8728 185.343 38.0473 186.034 38.0534C186.988 38.0534 187.52 37.6168 187.52 36.9683C187.52 36.369 187.109 36.015 186.068 35.6494C184.726 35.1785 183.867 34.4841 183.867 33.3417C183.867 32.0458 184.98 31.0581 186.746 31.0581C187.422 31.0385 188.093 31.1756 188.704 31.458L188.34 32.6233C187.84 32.3712 187.283 32.2422 186.72 32.2475C185.779 32.2475 185.366 32.7413 185.366 33.2008C185.366 33.8138 185.828 34.1026 186.926 34.5082C188.338 35.0261 189.031 35.7216 189.031 36.864C189.031 38.1359 188.04 39.2428 185.935 39.2428C185.172 39.2496 184.418 39.0804 183.734 38.7489L184.061 37.5458Z" fill="#1A1818"/>
<path fill-rule="evenodd" clip-rule="evenodd" d="M21 39.293L21.1294 30.6087C21.1294 30.3451 20.7765 30.1584 20.5906 30.1584C18.2377 30.4013 16.1094 30.6476 13.7541 30.894L14.3482 28.9174C14.3892 28.7466 14.3863 28.5685 14.3397 28.399C14.2931 28.2295 14.2043 28.0738 14.0812 27.9458L7.23413 22.2532L8.69413 21.6104C9.28825 21.3813 9.15648 20.9974 8.92942 20.1632L7.9106 16.28L11.8459 17.1818C12.0005 17.2081 12.1596 17.1784 12.2932 17.0981C12.4267 17.0179 12.5254 16.8927 12.5706 16.7464L13.08 14.9428L16.2271 18.5361C16.6753 19.1148 17.5812 19.1217 17.2718 17.7971L16.0012 10.5153L17.7659 11.5145C18.3082 11.7826 18.8047 11.8319 19.08 11.3495L21.5847 6.65154L24.0553 11.385C24.1191 11.4774 24.201 11.5567 24.2963 11.6182C24.3916 11.6798 24.4984 11.7224 24.6106 11.7437C24.7228 11.765 24.8383 11.7645 24.9503 11.7423C25.0624 11.72 25.1688 11.6765 25.2635 11.6142L25.3212 11.5718L27.1365 10.6184L25.7871 17.875C25.4635 19.1939 26.3671 19.203 26.8247 18.6324L30.0094 15.0803L30.4977 16.8839C30.5411 17.0317 30.6384 17.1591 30.7714 17.242C30.9044 17.3249 31.064 17.3577 31.22 17.3342L35.1553 16.4874L34.0965 20.3534C33.8612 21.1899 33.6847 21.5818 34.3165 21.8098L35.7612 22.4847L28.8565 28.0672C28.7151 28.1815 28.6128 28.3351 28.5632 28.5074C28.5136 28.6798 28.519 28.8628 28.5788 29.032L29.1577 31.0177C26.8047 30.7278 24.6871 30.4448 22.3341 30.1607C22.0988 30.1607 21.7882 30.3898 21.8318 30.5972L21.9235 39.2769L21 39.293Z" fill="#EC1E27"/>
<path d="M22.0541 0.412442C18.0663 0.318224 14.1393 1.37775 10.7697 3.45707C7.40007 5.53638 4.73913 8.54211 3.12329 12.0942C1.50746 15.6463 1.00929 19.5853 1.69177 23.4132C2.37426 27.241 4.20675 30.7858 6.95755 33.5994C9.70836 36.413 13.254 38.369 17.1461 39.2202C21.0382 40.0713 25.102 39.7793 28.8237 38.3812C32.5455 36.9831 35.758 34.5415 38.0552 31.3653C40.3523 28.189 41.631 24.4207 41.7294 20.5368C41.7948 17.957 41.3377 15.3899 40.3842 12.9823C39.4307 10.5746 37.9995 8.37346 36.1723 6.50463C34.3452 4.63581 32.158 3.13589 29.7355 2.09058C27.3131 1.04526 24.7029 0.475022 22.0541 0.412442ZM40.0682 20.4978C39.9807 25.315 37.932 29.901 34.3728 33.247C30.8135 36.593 26.0354 38.4249 21.0894 38.3396C18.6416 38.265 16.2329 37.7212 14.0009 36.7395C11.7689 35.7578 9.75745 34.3573 8.08145 32.6181C6.40545 30.8789 5.09776 28.8351 4.23313 26.6035C3.36849 24.3718 2.96385 21.9961 3.04234 19.6121C3.13111 14.7956 5.17985 10.2105 8.73825 6.86467C12.2966 3.51882 17.0735 1.68602 22.0188 1.76911C26.9606 1.9274 31.6364 3.98786 35.0207 7.4987C38.4051 11.0095 40.222 15.6842 40.0729 20.4978H40.0682Z" fill="#EC1E27"/>
</g>
<defs>
<clipPath id="clip0_602_1116">
<rect width="188.235" height="40" fill="white" transform="translate(0.882324)"/>
</clipPath>
</defs>
</svg>
