<svg width="708" height="374" viewBox="0 0 708 374" fill="none" xmlns="http://www.w3.org/2000/svg">
<g clip-path="url(#clip0_9020_2489)">
<circle cx="650" cy="408" r="111" fill="white"/>
<g clip-path="url(#clip1_9020_2489)">
<path d="M611.289 339.327C611.27 338.433 611.539 337.557 612.057 336.819C612.573 336.101 613.278 335.532 614.097 335.169C614.946 334.788 615.871 334.592 616.806 334.595C617.425 334.598 618.042 334.659 618.649 334.778C619.252 334.881 619.828 335.101 620.343 335.425C620.566 335.554 620.751 335.739 620.878 335.959C621.005 336.18 621.07 336.43 621.068 336.683C621.078 337.118 620.916 337.541 620.617 337.864C620.474 338.022 620.297 338.147 620.099 338.231C619.901 338.315 619.687 338.356 619.471 338.351C619.294 338.354 619.117 338.329 618.947 338.278L618.312 338.056C617.806 337.876 617.273 337.78 616.734 337.772C616.316 337.769 615.905 337.879 615.546 338.089C615.38 338.177 615.243 338.308 615.148 338.467C615.054 338.626 615.006 338.807 615.011 338.991C615.011 339.595 615.48 340.022 616.422 340.254L617.356 340.498C618.615 340.789 619.803 341.322 620.848 342.066C621.28 342.412 621.622 342.851 621.846 343.35C622.07 343.848 622.17 344.391 622.137 344.934C622.214 346.259 621.749 347.559 620.843 348.551C620.313 349.107 619.642 349.518 618.899 349.745C618.113 350.002 617.29 350.131 616.461 350.127C615.088 350.163 613.724 349.896 612.472 349.346C612.101 349.18 611.779 348.927 611.534 348.609C611.298 348.303 611.172 347.93 611.178 347.547C611.181 347.153 611.341 346.775 611.624 346.494C611.756 346.348 611.918 346.23 612.099 346.149C612.28 346.067 612.477 346.024 612.677 346.022C612.982 346.016 613.285 346.069 613.568 346.18L614.775 346.618C615.315 346.834 615.893 346.948 616.477 346.953C616.953 346.962 617.419 346.82 617.804 346.548C617.991 346.425 618.143 346.258 618.246 346.062C618.348 345.866 618.398 345.648 618.39 345.428C618.403 345.215 618.358 345.003 618.258 344.813C618.159 344.623 618.01 344.462 617.826 344.346C617.541 344.166 617.235 344.02 616.914 343.912C616.619 343.82 616.11 343.668 615.387 343.456C614.614 343.252 613.864 342.974 613.147 342.625C612.589 342.345 612.121 341.921 611.793 341.4C611.428 340.77 611.252 340.054 611.284 339.332L611.289 339.327ZM628.052 344.891H630.692C631.415 344.935 632.139 344.816 632.806 344.541C633.474 344.267 634.066 343.845 634.538 343.309C635.347 342.315 635.761 341.07 635.704 339.803C635.704 339.357 635.638 338.912 635.509 338.484C635.383 338.043 635.196 337.621 634.954 337.228C634.72 336.845 634.435 336.495 634.107 336.186C633.035 335.291 631.644 334.846 630.236 334.948H626.684C626.4 334.931 626.114 334.971 625.846 335.066C625.578 335.161 625.332 335.308 625.124 335.498C624.932 335.701 624.784 335.939 624.689 336.199C624.593 336.459 624.552 336.735 624.569 337.011V348.079C624.554 348.568 624.722 349.045 625.041 349.421C625.199 349.6 625.397 349.741 625.619 349.835C625.841 349.929 626.083 349.972 626.324 349.962C626.565 349.974 626.804 349.931 627.025 349.837C627.245 349.743 627.44 349.601 627.595 349.421C627.908 349.041 628.07 348.564 628.053 348.077V344.893L628.052 344.891ZM628.052 341.938V337.932H630.008C630.553 337.91 631.085 338.093 631.494 338.442C631.691 338.62 631.849 338.835 631.958 339.073C632.067 339.312 632.125 339.57 632.13 339.831C632.145 340.108 632.102 340.384 632.004 340.644C631.907 340.904 631.756 341.142 631.561 341.344C631.328 341.551 631.054 341.711 630.756 341.813C630.457 341.915 630.141 341.957 629.826 341.938H628.052ZM645.71 346.926L646.186 348.568C646.292 348.931 646.482 349.266 646.741 349.546C646.849 349.674 646.984 349.778 647.137 349.851C647.29 349.924 647.458 349.964 647.628 349.968C648.097 349.976 648.559 349.855 648.959 349.618C649.141 349.513 649.295 349.367 649.409 349.193C649.522 349.019 649.592 348.821 649.613 348.616C649.627 348.254 649.579 347.893 649.472 347.547L645.375 336.575C645.184 336.031 644.837 335.552 644.375 335.196C643.923 334.857 643.369 334.674 642.799 334.674C642.23 334.674 641.676 334.857 641.224 335.196C640.765 335.556 640.42 336.035 640.228 336.578L636.128 347.548C636.02 347.894 635.972 348.255 635.987 348.617C636.014 348.823 636.089 349.02 636.205 349.194C636.321 349.368 636.476 349.514 636.658 349.622C637.051 349.858 637.505 349.978 637.966 349.969C638.685 349.969 639.2 349.386 639.519 348.211L639.887 346.926H645.71ZM644.667 343.89H640.979L642.822 338.258L644.667 343.89ZM650.834 341.916C650.834 344.683 651.607 346.783 653.152 348.213C653.822 348.835 654.614 349.318 655.482 349.632C656.361 349.959 657.294 350.126 658.235 350.125C659.526 350.179 660.809 349.886 661.941 349.278C662.252 349.139 662.518 348.918 662.707 348.64C662.897 348.362 663.004 348.039 663.016 347.705C663.025 347.295 662.881 346.896 662.612 346.581C662.479 346.424 662.311 346.299 662.12 346.217C661.93 346.134 661.722 346.096 661.513 346.106C661.278 346.118 661.046 346.172 660.83 346.265L659.802 346.728C659.136 346.956 658.42 347.01 657.725 346.885C657.03 346.761 656.381 346.463 655.84 346.02C654.973 345.233 654.539 343.991 654.539 342.295C654.525 341.51 654.666 340.729 654.955 339.996C655.216 339.345 655.666 338.782 656.25 338.375C656.893 337.954 657.657 337.744 658.432 337.775C659.042 337.79 659.643 337.919 660.203 338.154C660.616 338.329 661.054 338.44 661.501 338.483C661.695 338.493 661.888 338.457 662.065 338.378C662.241 338.299 662.394 338.18 662.512 338.029C662.754 337.696 662.876 337.295 662.86 336.887C662.86 336.619 662.79 336.356 662.655 336.122C662.521 335.888 662.327 335.692 662.092 335.552C661.548 335.197 660.938 334.946 660.296 334.814C659.657 334.676 659.006 334.603 658.351 334.595C657.32 334.587 656.298 334.771 655.338 335.136C654.438 335.48 653.622 336.003 652.942 336.67C652.261 337.338 651.731 338.137 651.385 339.015C651.016 339.94 650.831 340.925 650.839 341.917L650.834 341.916ZM668.6 337.994H672.2C672.65 338.008 673.088 337.861 673.434 337.581C673.597 337.449 673.726 337.282 673.812 337.092C673.898 336.903 673.937 336.697 673.928 336.491C673.939 336.279 673.902 336.068 673.818 335.872C673.734 335.677 673.606 335.502 673.444 335.361C673.093 335.082 672.648 334.938 672.196 334.956H667.24C666.955 334.94 666.67 334.98 666.402 335.075C666.133 335.169 665.888 335.316 665.68 335.506C665.488 335.709 665.339 335.948 665.244 336.208C665.149 336.467 665.108 336.743 665.124 337.019V347.687C665.107 347.964 665.148 348.241 665.244 348.502C665.339 348.764 665.487 349.004 665.68 349.208C665.888 349.397 666.134 349.543 666.403 349.636C666.671 349.729 666.956 349.767 667.24 349.749H672.205C672.654 349.766 673.094 349.622 673.441 349.344C673.604 349.21 673.734 349.042 673.82 348.851C673.906 348.66 673.945 348.452 673.935 348.244C673.947 348.033 673.909 347.822 673.826 347.627C673.742 347.432 673.613 347.259 673.451 347.119C673.1 346.843 672.659 346.699 672.209 346.714H668.609V343.852H671.863C672.308 343.866 672.744 343.722 673.088 343.447C673.255 343.315 673.388 343.147 673.477 342.956C673.566 342.765 673.608 342.556 673.6 342.347C673.61 342.134 673.57 341.922 673.483 341.727C673.396 341.531 673.264 341.358 673.097 341.22C672.749 340.946 672.311 340.802 671.864 340.815H668.61V337.996L668.6 337.994Z" fill="#1A1818"/>
<path d="M691.677 338.214L692.126 337.779C692.291 337.626 692.423 337.442 692.514 337.239C692.604 337.035 692.653 336.816 692.655 336.594C692.658 336.373 692.615 336.153 692.529 335.947C692.443 335.742 692.316 335.555 692.155 335.399C691.994 335.242 691.802 335.118 691.591 335.035C691.38 334.951 691.154 334.91 690.926 334.913C690.698 334.916 690.474 334.963 690.265 335.052C690.056 335.141 689.868 335.269 689.711 335.43L689.262 335.872C687.737 334.923 685.924 334.51 684.125 334.7C682.325 334.891 680.647 335.674 679.366 336.92C678.086 338.166 677.281 339.8 677.084 341.553C676.887 343.305 677.31 345.071 678.283 346.557L677.834 346.999C677.514 347.31 677.335 347.732 677.335 348.172C677.335 348.39 677.379 348.606 677.465 348.807C677.55 349.009 677.676 349.192 677.834 349.346C677.992 349.5 678.18 349.622 678.387 349.706C678.594 349.789 678.815 349.832 679.039 349.832C679.491 349.832 679.924 349.657 680.244 349.346L680.692 348.909C682.218 349.861 684.033 350.277 685.836 350.087C687.638 349.897 689.32 349.113 690.602 347.865C691.884 346.617 692.69 344.979 692.885 343.224C693.081 341.469 692.654 339.701 691.677 338.214ZM681.742 339.232C682.39 338.602 683.216 338.175 684.114 338.007C685.013 337.838 685.942 337.935 686.784 338.285L680.77 344.143C680.409 343.323 680.31 342.417 680.483 341.542C680.656 340.666 681.095 339.861 681.742 339.231L681.742 339.232ZM688.215 345.542C687.568 346.172 686.742 346.599 685.844 346.768C684.945 346.937 684.015 346.84 683.174 346.489L689.188 340.634C689.547 341.453 689.647 342.358 689.474 343.233C689.3 344.107 688.862 344.912 688.216 345.542L688.215 345.542Z" fill="#EC1E27"/>
<path d="M612.632 353.442H611.245V352.714H614.936V353.442H613.525V357.477H612.633L612.632 353.442Z" fill="#1A1818"/>
<path d="M621.208 355.363H619.365V356.763H621.427V357.476H618.473V352.714H621.317V353.428H619.372V354.658H621.216L621.208 355.363Z" fill="#1A1818"/>
<path d="M628.682 357.335C628.281 357.491 627.851 357.563 627.419 357.546C627.087 357.574 626.753 357.531 626.44 357.421C626.126 357.31 625.841 357.136 625.604 356.908C625.366 356.68 625.182 356.405 625.064 356.102C624.946 355.799 624.897 355.474 624.92 355.15C624.901 354.813 624.956 354.475 625.081 354.16C625.206 353.845 625.399 353.559 625.645 353.321C625.892 353.083 626.188 352.899 626.513 352.781C626.838 352.663 627.185 352.613 627.532 352.635C627.939 352.621 628.344 352.693 628.72 352.847L628.524 353.539C628.221 353.413 627.895 353.35 627.566 353.354C627.33 353.341 627.093 353.379 626.873 353.464C626.653 353.549 626.454 353.679 626.291 353.847C626.128 354.014 626.005 354.214 625.929 354.433C625.854 354.651 625.828 354.883 625.854 355.112C625.83 355.339 625.857 355.568 625.934 355.783C626.01 355.998 626.134 356.194 626.296 356.358C626.459 356.522 626.656 356.649 626.874 356.73C627.092 356.812 627.326 356.847 627.559 356.831C627.892 356.835 628.222 356.775 628.531 356.654L628.682 357.335Z" fill="#1A1818"/>
<path d="M633.304 352.714V354.621H635.374V352.714H636.266V357.476H635.374V355.377H633.304V357.476H632.412V352.714H633.304Z" fill="#1A1818"/>
<path d="M640.256 357.476V352.714H641.267L642.53 354.757C642.845 355.27 643.123 355.803 643.362 356.354H643.376C643.316 355.717 643.295 355.102 643.295 354.375V352.714H644.127V357.476H643.21L641.932 355.385C641.608 354.851 641.315 354.301 641.054 353.735L641.034 353.743C641.07 354.357 641.077 354.988 641.077 355.769V357.475L640.256 357.476Z" fill="#1A1818"/>
<path d="M652.466 355.048C652.466 356.644 651.474 357.555 650.123 357.555C648.745 357.555 647.875 356.531 647.875 355.131C647.844 354.816 647.881 354.498 647.984 354.198C648.086 353.897 648.252 353.621 648.47 353.386C648.688 353.152 648.954 352.964 649.25 352.835C649.547 352.706 649.868 352.638 650.193 352.637C650.51 352.634 650.824 352.695 651.115 352.818C651.406 352.941 651.667 353.121 651.881 353.349C652.096 353.576 652.259 353.845 652.359 354.138C652.46 354.431 652.496 354.741 652.466 355.048ZM648.818 355.117C648.818 356.085 649.318 356.853 650.175 356.853C651.033 356.853 651.524 356.076 651.524 355.08C651.524 354.182 651.067 353.335 650.176 353.335C649.285 353.335 648.819 354.133 648.819 355.115L648.818 355.117Z" fill="#1A1818"/>
<path d="M656.205 352.714H657.096V356.749H659.106V357.477H656.203L656.205 352.714Z" fill="#1A1818"/>
<path d="M666.805 355.048C666.805 356.644 665.81 357.555 664.461 357.555C663.083 357.555 662.212 356.531 662.212 355.131C662.182 354.816 662.219 354.498 662.322 354.197C662.424 353.896 662.59 353.62 662.808 353.385C663.027 353.151 663.293 352.963 663.59 352.834C663.887 352.705 664.209 352.638 664.534 352.637C664.851 352.634 665.165 352.696 665.455 352.818C665.746 352.941 666.007 353.122 666.221 353.349C666.435 353.577 666.598 353.846 666.698 354.138C666.799 354.431 666.835 354.741 666.805 355.048ZM663.155 355.117C663.155 356.085 663.656 356.853 664.511 356.853C665.367 356.853 665.861 356.076 665.861 355.08C665.861 354.182 665.404 353.335 664.511 353.335C663.619 353.335 663.158 354.131 663.158 355.117H663.155Z" fill="#1A1818"/>
<path d="M674.458 357.257C673.952 357.431 673.42 357.523 672.883 357.527C672.537 357.549 672.189 357.503 671.861 357.394C671.532 357.285 671.229 357.114 670.968 356.89C670.736 356.659 670.556 356.383 670.439 356.08C670.322 355.778 670.27 355.455 670.286 355.132C670.276 354.79 670.342 354.449 670.477 354.132C670.613 353.816 670.816 353.532 671.074 353.297C671.331 353.063 671.636 352.885 671.969 352.775C672.303 352.665 672.656 352.624 673.007 352.657C673.451 352.645 673.892 352.722 674.305 352.883L674.111 353.587C673.76 353.441 673.381 353.37 673 353.381C672.763 353.36 672.524 353.39 672.3 353.469C672.077 353.547 671.873 353.672 671.704 353.835C671.535 353.997 671.404 354.194 671.321 354.411C671.238 354.628 671.204 354.86 671.222 355.091C671.2 355.317 671.227 355.545 671.304 355.759C671.38 355.973 671.503 356.169 671.665 356.333C671.826 356.496 672.022 356.624 672.239 356.707C672.455 356.79 672.688 356.827 672.921 356.814C673.15 356.826 673.379 356.792 673.594 356.715V355.534H672.731V354.847H674.455L674.458 357.257Z" fill="#1A1818"/>
<path d="M679.235 352.714V357.476H678.349V352.714H679.235Z" fill="#1A1818"/>
<path d="M685.96 355.363H684.117V356.763H686.176V357.476H683.224V352.714H686.068V353.428H684.118V354.658H685.961L685.96 355.363Z" fill="#1A1818"/>
<path d="M689.908 356.529C690.27 356.726 690.677 356.83 691.091 356.834C691.664 356.834 691.983 356.572 691.983 356.183C691.983 355.823 691.737 355.611 691.112 355.392C690.306 355.109 689.791 354.692 689.791 354.007C689.791 353.229 690.459 352.637 691.518 352.637C691.924 352.625 692.327 352.707 692.693 352.877L692.475 353.576C692.175 353.425 691.841 353.347 691.503 353.35C690.938 353.35 690.691 353.647 690.691 353.922C690.691 354.29 690.968 354.463 691.626 354.707C692.474 355.018 692.889 355.435 692.889 356.12C692.889 356.883 692.295 357.548 691.032 357.548C690.574 357.552 690.121 357.45 689.711 357.251L689.908 356.529Z" fill="#1A1818"/>
<path fill-rule="evenodd" clip-rule="evenodd" d="M592.071 357.576L592.148 352.366C592.148 352.208 591.937 352.095 591.825 352.095C590.413 352.241 589.136 352.389 587.723 352.537L588.08 351.351C588.104 351.248 588.103 351.142 588.075 351.04C588.047 350.938 587.993 350.845 587.92 350.768L583.811 347.352L584.687 346.967C585.044 346.829 584.965 346.599 584.828 346.098L584.217 343.768L586.578 344.309C586.671 344.325 586.767 344.307 586.847 344.259C586.927 344.211 586.986 344.136 587.013 344.048L587.319 342.966L589.207 345.122C589.476 345.469 590.02 345.473 589.834 344.679L589.072 340.31L590.13 340.909C590.456 341.07 590.754 341.1 590.919 340.81L592.422 337.991L593.904 340.831C593.942 340.887 593.991 340.934 594.049 340.971C594.106 341.008 594.17 341.034 594.237 341.047C594.305 341.059 594.374 341.059 594.441 341.046C594.508 341.032 594.572 341.006 594.629 340.969L594.664 340.943L595.753 340.371L594.943 344.725C594.749 345.517 595.291 345.522 595.566 345.18L597.476 343.049L597.769 344.131C597.795 344.219 597.854 344.296 597.934 344.346C598.013 344.395 598.109 344.415 598.203 344.401L600.564 343.893L599.929 346.212C599.788 346.714 599.682 346.95 600.061 347.086L600.928 347.491L596.785 350.841C596.7 350.909 596.638 351.001 596.609 351.105C596.579 351.208 596.582 351.318 596.618 351.42L596.965 352.611C595.554 352.437 594.283 352.267 592.871 352.097C592.73 352.097 592.544 352.234 592.57 352.359L592.625 357.567L592.071 357.576Z" fill="#EC1E27"/>
<path d="M592.703 334.248C590.311 334.192 587.954 334.828 585.933 336.075C583.911 337.323 582.314 339.126 581.345 341.257C580.375 343.389 580.076 345.752 580.486 348.049C580.895 350.345 581.995 352.472 583.645 354.161C585.296 355.849 587.423 357.022 589.758 357.533C592.094 358.044 594.532 357.868 596.765 357.03C598.998 356.191 600.926 354.726 602.304 352.82C603.682 350.914 604.449 348.653 604.508 346.323C604.548 344.775 604.273 343.235 603.701 341.79C603.129 340.346 602.27 339.025 601.174 337.904C600.078 336.782 598.766 335.882 597.312 335.255C595.859 334.628 594.292 334.286 592.703 334.248ZM603.512 346.3C603.459 349.19 602.23 351.941 600.094 353.949C597.959 355.957 595.092 357.056 592.124 357.005C590.656 356.96 589.21 356.634 587.871 356.045C586.532 355.456 585.325 354.615 584.32 353.572C583.314 352.528 582.529 351.302 582.011 349.963C581.492 348.624 581.249 347.199 581.296 345.768C581.349 342.878 582.579 340.127 584.714 338.12C586.849 336.112 589.715 335.012 592.682 335.062C595.647 335.157 598.453 336.394 600.483 338.5C602.514 340.607 603.604 343.411 603.515 346.3H603.512Z" fill="#EC1E27"/>
</g>
</g>
<defs>
<clipPath id="clip0_9020_2489">
<rect width="708" height="374" fill="white"/>
</clipPath>
<clipPath id="clip1_9020_2489">
<rect width="112.941" height="24" fill="white" transform="translate(580 334)"/>
</clipPath>
</defs>
</svg>
